<?xml version="1.0" encoding="UTF-8"?>
<svg width="270.02mm" height="86.143mm" version="1.1" viewBox="0 0 359.81 109.85" xmlns="http://www.w3.org/2000/svg" xmlns:cc="http://creativecommons.org/ns#" xmlns:dc="http://purl.org/dc/elements/1.1/" xmlns:rdf="http://www.w3.org/1999/02/22-rdf-syntax-ns#">
 <metadata>
  <rdf:RDF>
   <cc:Work rdf:about="">
    <dc:format>image/svg+xml</dc:format>
    <dc:type rdf:resource="http://purl.org/dc/dcmitype/StillImage"/>
    <dc:title/>
   </cc:Work>
  </rdf:RDF>
 </metadata>
 <defs>
  <marker id="a" overflow="visible" orient="auto">
   <path transform="matrix(-.4 0 0 -.4 -4 0)" d="m0 0 5-5-17.5 5 17.5 5z" fill-opacity=".45882" fill-rule="evenodd" stroke="#000" stroke-opacity=".75362" stroke-width="1pt"/>
  </marker>
  <marker id="b" overflow="visible" orient="auto">
   <path transform="matrix(-.4 0 0 -.4 -4 0)" d="m0 0 5-5-17.5 5 17.5 5z" fill="#000200" fill-opacity=".45882" fill-rule="evenodd" stroke="#000" stroke-opacity=".75362" stroke-width="1pt"/>
  </marker>
  <marker id="c" overflow="visible" orient="auto">
   <path transform="matrix(-.4 0 0 -.4 -4 0)" d="m0 0 5-5-17.5 5 17.5 5z" fill-opacity=".7451" fill-rule="evenodd" stroke="#000" stroke-opacity=".7451" stroke-width="1pt"/>
  </marker>
  <marker id="d" overflow="visible" orient="auto">
   <path transform="matrix(-.4 0 0 -.4 -4 0)" d="m0 0 5-5-17.5 5 17.5 5z" fill-opacity=".7451" fill-rule="evenodd" stroke="#000" stroke-opacity=".7451" stroke-width="1pt"/>
  </marker>
  <marker id="e" overflow="visible" orient="auto">
   <path transform="matrix(-.4 0 0 -.4 -4 0)" d="m0 0 5-5-17.5 5 17.5 5z" fill-opacity=".45882" fill-rule="evenodd" stroke="#000" stroke-opacity=".7451" stroke-width="1pt"/>
  </marker>
  <marker id="f" overflow="visible" orient="auto">
   <path transform="matrix(-.4 0 0 -.4 -4 0)" d="m0 0 5-5-17.5 5 17.5 5z" fill-opacity=".45882" fill-rule="evenodd" stroke="#000" stroke-opacity=".7451" stroke-width="1pt"/>
  </marker>
 </defs>
 <g transform="translate(0 -.22932)">
  <g stroke="#000">
   <path d="m30.432 81.564v-82.445" fill-opacity=".45882" marker-end="url(#a)" stroke-miterlimit="4.117" stroke-opacity=".75362" stroke-width=".44564"/>
   <path d="m25.22 75.685h92.208" fill="#000200" fill-opacity=".45882" marker-end="url(#b)" stroke-miterlimit="4.117" stroke-opacity=".75362" stroke-width=".44564"/>
   <path d="m30.37 30.639h80.804" fill="none" stroke-miterlimit="4.039" stroke-opacity=".2" stroke-width=".65859"/>
   <path d="m28.826-1.185v-0.0075l0.0075-0.0075v-0.0216l0.0075-0.0075v-0.0135l0.0075-0.0075v-0.0273l0.0075-0.0075v-0.06135c0-0.1326-0.10305-0.19887-0.21362-0.19887-0.07365 0-0.19152 0.04425-0.25782 0.1547-0.015 0.0369-0.07365 0.26518-0.10305 0.39777-0.05145 0.19154-0.10305 0.38307-0.1473 0.58196l-0.329 1.3053c-0.0294 0.11055-0.34623 0.62614-0.82504 0.62614-0.37569 0-0.45672-0.3241-0.45672-0.59668 0-0.33884 0.12525-0.78819 0.37569-1.4364 0.1179-0.29466 0.1473-0.3757 0.1473-0.52302 0-0.3315-0.23571-0.60404-0.60404-0.60404-0.69981 0-0.97236 1.0607-0.97236 1.1271 0 0.07365 0.07365 0.07365 0.08835 0.07365 0.07365 0 0.081-0.015 0.1179-0.1326 0.19887-0.68508 0.49356-0.90606 0.744-0.90606 0.0588 0 0.18416 0 0.18416 0.23574 0 0.18416-0.07365 0.37569-0.12525 0.51564-0.29466 0.77348-0.42724 1.1934-0.42724 1.5322 0 0.6556 0.46408 0.86924 0.8987 0.86924 0.2873 0 0.53038-0.1179 0.73665-0.32412-0.09585 0.37569-0.18416 0.73664-0.47146 1.1271-0.1915 0.25042-0.47144 0.4567-0.8103 0.4567-0.10305 0-0.43461-0.0222-0.55984-0.30201 0.1179 0 0.21362 0 0.31674-0.08835 0.07365-0.0663 0.14745-0.16202 0.14745-0.30202 0-0.22836-0.19888-0.25784-0.27255-0.25784-0.16944 0-0.41253 0.1179-0.41253 0.47882 0 0.36096 0.32414 0.63352 0.78086 0.63352 0.75873 0 1.5102-0.663 1.7163-1.4881z" fill-opacity=".86275" fill-rule="evenodd" stroke-miterlimit="10.433" stroke-width="0"/>
  </g>
  <g fill="#f00" fill-rule="evenodd">
   <rect x="43.541" y="31.035" width="24.29" height="23.82" fill-opacity=".1256" opacity=".97"/>
   <rect x="57.731" y="31.035" width="17.076" height="16.668" fill-opacity=".1256" opacity=".97"/>
   <circle cx="43.451" cy="54.945" r=".77958" fill-opacity=".52174" opacity=".97"/>
   <circle cx="57.791" cy="47.76" r=".77958" fill-opacity=".52174" opacity=".97"/>
   <rect transform="scale(1,-1)" x="77.876" y="-30.225" width="15.51" height="15.027" fill-opacity=".1256" opacity=".97"/>
   <rect transform="scale(1,-1)" x="97.376" y="-30.225" width="8.9589" height="8.6472" fill-opacity=".1256" opacity=".97"/>
   <circle transform="scale(1,-1)" cx="93.461" cy="-15.24" r=".77958" fill-opacity=".52174" opacity=".97"/>
   <circle transform="scale(1,-1)" cx="106.21" cy="-21.615" r=".77958" fill-opacity=".52174" opacity=".97"/>
   <rect x="76.106" y="26.595" width="4.0543" height="3.6414" fill-opacity=".1256" opacity=".97"/>
   <circle transform="scale(1,-1)" cx="79.856" cy="-26.73" r=".77958" fill-opacity=".52174" opacity=".97"/>
  </g>
  <g fill-rule="evenodd">
   <g stroke="#000" stroke-miterlimit="10.433" stroke-width=".2">
    <path d="m32.119 100.25h0.06075l0.0068 7e-3h0.054l0.0068 7e-3h0.02025l0.0068 7e-3h0.0067l0.0068 7e-3h0.0067l0.0405 0.0405v7e-3l0.0067 7e-3v0.0135h0.0068v0.0405c0 0.1332-0.12645 0.1332-0.2196 0.1332h-3.9735c-0.09315 0-0.2196 0-0.2196-0.1332s0.12645-0.1332 0.2263-0.1332z"/>
    <path d="m32.141 98.97h0.10125l0.0135 0.0067h0.0135l0.0135 0.0068h0.0067l0.0068 0.0067h0.0067l0.0067 0.0067h0.0068l0.02025 0.02025h0.0068v0.0135h0.0067v0.0067l0.0068 0.0068v0.0135l0.0067 0.0067v0.0405c0 0.12645-0.12645 0.12645-0.22628 0.12645h-3.9602c-0.0999 0-0.2263 0-0.2263-0.12645 0-0.1332 0.12645-0.1332 0.2196-0.1332z"/>
    <path d="m61.504 99.578h1.5229c0.07672 0 0.18068 0 0.18068 0.1098s-0.10395 0.1098-0.18068 0.1098h-1.5229v1.5229c0 0.0767 0 0.18067-0.1098 0.18067s-0.1098-0.10394-0.1098-0.18067v-1.5229h-1.5284c-0.07673 0-0.18068 0-0.18068-0.1098s0.10395-0.1098 0.18068-0.1098h1.5284v-1.5229c0-0.07672 0-0.18068 0.1098-0.18068s0.1098 0.10395 0.1098 0.18068z"/>
    <path d="m83.419 100.3h1.5229c0.07673 0 0.18068 0 0.18068 0.1098s-0.10395 0.1098-0.18068 0.1098h-1.5229v1.5229c0 0.0767 0 0.18068-0.1098 0.18068s-0.1098-0.10395-0.1098-0.18068v-1.5229h-1.5284c-0.07673 0-0.18068 0-0.18068-0.1098s0.10395-0.1098 0.18068-0.1098h1.5284v-1.5229c0-0.07672 0-0.18068 0.1098-0.18068s0.1098 0.10395 0.1098 0.18068z"/>
    <path d="m93.589 100.28h1.5229c0.07673 0 0.18068 0 0.18068 0.1098s-0.10395 0.1098-0.18068 0.1098h-1.5229v1.5229c0 0.0767 0 0.18067-0.1098 0.18067s-0.1098-0.10394-0.1098-0.18067v-1.5229h-1.5284c-0.07672 0-0.18068 0-0.18068-0.1098s0.10395-0.1098 0.18068-0.1098h1.5284v-1.5229c0-0.07672 0-0.18068 0.1098-0.18068s0.1098 0.10395 0.1098 0.18068z"/>
    <path d="m115.05 99.668h1.5229c0.0767 0 0.18067 0 0.18067 0.1098s-0.10395 0.1098-0.18067 0.1098h-1.5229v1.5229c0 0.0767 0 0.18068-0.1098 0.18068s-0.1098-0.10396-0.1098-0.18068v-1.5229h-1.5284c-0.0767 0-0.18067 0-0.18067-0.1098s0.10395-0.1098 0.18067-0.1098h1.5284v-1.5229c0-0.07672 0-0.18067 0.1098-0.18067s0.1098 0.10395 0.1098 0.18067z"/>
   </g>
   <g transform="matrix(1.5 0 0 -1.5 -139.64 1201.9)" fill="#f00" fill-opacity=".1256" stroke-linecap="square" stroke-opacity=".13043" stroke-width=".41156">
    <rect transform="scale(1,-1)" x="116.12" y="-742.73" width="16.193" height="16.193" opacity=".97"/>
    <rect transform="scale(1,-1)" x="135.55" y="-739.93" width="11.384" height="11.384" opacity=".97"/>
    <rect transform="scale(1,-1)" x="150.72" y="-735.75" width="2.7029" height="2.7029" opacity=".97"/>
    <rect x="157.42" y="729.62" width="10.34" height="10.34" opacity=".97"/>
   </g>
   <rect transform="scale(1,-1)" x="117.61" y="-104.43" width="8.9589" height="8.9589" fill="#f00" fill-opacity=".1256" opacity=".97" stroke-width=".61696"/>
   <path d="m116.34 78.615 8e-3 -0.0165 7e-3 -0.02505v-0.02505l0.0164-0.06675 0.0165-0.03345 7e-3 -0.03345 8e-3 -0.04155 0.0166-0.0333 0.0165-0.04155 0.0333-0.0831 0.0165-0.04155 0.0166-0.04155 0.025-0.04155 0.0249-0.04155 0.0251-0.04155 0.025-0.03345 0.0251-0.04155 0.0333-0.0333 0.0249-0.04155 0.0333-0.03345 0.0416-0.03345 0.0333-0.02505 0.0416-0.02505 0.0333-0.02505 0.0249-0.0075 0.0251-0.01665 0.0165-0.0075 0.0501-0.01635h0.025l0.0167-0.0075 0.025-0.0075h0.0584l0.0252-0.0075h0.025c0.0416 0 0.24094 0 0.41542 0.108-0.23265 0.04155-0.3988 0.24924-0.3988 0.44866 0 0.13305 0.0914 0.29079 0.31572 0.29079 0.18277 0 0.44863-0.14955 0.44863-0.4819 0-0.43203-0.49017-0.54834-0.77266-0.54834-0.48189 0-0.77268 0.44032-0.87239 0.63144-0.20772-0.54836-0.64807-0.63144-0.889-0.63144-0.86409 0-1.3377 1.0718-1.3377 1.2712 0 0.0831 0.0831 0.0831 0.0998 0.0831 0.0665 0 0.0914-0.01665 0.10785-0.09135 0.2825-0.87238 0.83084-1.0801 1.1133-1.0801 0.15787 0 0.44037 0.0747 0.44037 0.55665 0 0.25755-0.14115 0.80592-0.44037 1.9608-0.13305 0.51513-0.42371 0.86409-0.78927 0.86409-0.0498 0-0.24096 0-0.41543-0.108 0.20771-0.04155 0.39051-0.216 0.39051-0.44865 0-0.22434-0.1828-0.29079-0.30744-0.29079-0.24925 0-0.45696 0.216-0.45696 0.48188 0 0.38222 0.41543 0.54008 0.78101 0.54008 0.54834 0 0.84744-0.57332 0.87235-0.62316 0.0914 0.30742 0.39054 0.62316 0.88902 0.62316 0.85577 0 1.3294-1.0635 1.3294-1.2712 0-0.0831-0.0748-0.0831-0.0998-0.0831-0.0748 0-0.0913 0.04155-0.10785 0.09135-0.27418 0.88902-0.83917 1.0884-1.105 1.0884-0.32403 0-0.45698-0.26589-0.45698-0.54837 0-0.18279 0.0498-0.36558 0.14115-0.72284z" fill-opacity=".86275" stroke="#000" stroke-miterlimit="10.433" stroke-width="0"/>
  </g>
  <g fill="#f00" fill-rule="evenodd">
   <path d="m5.7279 95.562 0.00806-0.02407 0.016009-0.02407 0.00806-0.03208 0.032019-0.04815 0.00806-0.02407 0.048028-0.07222 0.024072-0.02407 0.016009-0.02407 0.064154-0.06415 0.048145-0.03202 0.024072-0.02407 0.032077-0.01601 0.024072-0.01601 0.032077-0.0081 0.064154-0.03202 0.04014-0.0081 0.032077-0.01601 0.04014-8e-3 0.040082-8e-3 0.040082-0.0081 0.04014-8e-3h0.048086l0.040082-8e-3h0.10424v-0.24847c-0.24856 0.01601-0.56929 0.02407-0.77779 0.02407-0.24054 0-0.70558-0.01601-0.91405-0.02407v0.24856c0.41694 8e-3 0.58533 0.21649 0.58533 0.40091 0 0.05615-0.024072 0.10424-0.040082 0.15234l-1.4593 3.8407-1.5315-4.0252c-0.04811-0.10424-0.04811-0.12027-0.04811-0.13631 0-0.23253 0.45704-0.23253 0.65749-0.23253v-0.24856c-0.28866 0.02407-0.84189 0.02407-1.1466 0.02407-0.38488 0-0.72965-0.01601-1.0103-0.02407v0.24856c0.52118 0 0.66549 0 0.77779 0.30469l1.8602 4.8831c0.056149 0.15234 0.096225 0.1764 0.20046 0.1764 0.13631 0 0.15235-0.0401 0.19243-0.14433z"/>
   <path d="m8.7487 99.623 0.00806 0.03208v0.02407l0.024189 0.09623 0.00806 0.02407 0.00806 0.03208 0.016009 0.02407 0.00806 0.03208 0.016009 0.02407 0.00806 0.03208 0.032018 0.04815 0.016009 0.03208 0.024072 0.0241 0.016009 0.0241 0.024072 0.016 0.016009 0.0241 0.024072 0.0241 0.048145 0.032 0.024072 0.0241 0.024072 0.016 0.032077 8e-3 0.024072 0.016 0.032077 8e-3 0.032077 0.016 0.024072 8e-3h0.032077l0.040082 8e-3h0.064154c0.16838 0 0.65749-0.10423 0.65749-0.75372v-0.44902h-0.20044v0.44902c0 0.46505-0.20046 0.51317-0.28866 0.51317-0.2646 0-0.29667-0.36082-0.29667-0.40092v-1.5956c0-0.32874 0-0.64142-0.28866-0.93812-0.31271-0.31271-0.70558-0.441-1.0905-0.441-0.65749 0-1.2107 0.37686-1.2107 0.90604 0 0.23253 0.16037 0.36884 0.36884 0.36884 0.22451 0 0.36884-0.15234 0.36884-0.36082 0-0.09622-0.04014-0.36082-0.40893-0.36884 0.21649-0.28064 0.6094-0.36883 0.86596-0.36883 0.38488 0 0.84195 0.31271 0.84195 1.0183v1.2589c0 0.76173-0.5693 1.0344-0.93012 1.0344-0.39289 0-0.72164-0.28064-0.72164-0.68156 0-0.441 0.33677-1.0985 1.6518-1.1466v-0.16838c-0.40893 0.02407-0.96219 0.04809-1.4674 0.28865-0.60134 0.27262-0.80181 0.68156-0.80181 1.0344 0 0.64948 0.77779 0.84189 1.2829 0.84189 0.52118 0 0.89003-0.31272 1.0424-0.68957z"/>
   <path d="m11.419 97.584v-0.88203l-1.1145 0.0882v0.24856c0.56128 0 0.62541 0.05615 0.62541 0.44902v2.1329c0 0.36082-0.0882 0.36082-0.62541 0.36082v0.24056c0.31271-8e-3 0.68957-0.0241 0.91405-0.0241 0.32073 0 0.69757 0 1.0183 0.0241v-0.24056h-0.16838c-0.59334 0-0.6094-0.0882-0.6094-0.37685v-1.2268c0-0.7858 0.33677-1.4994 0.93812-1.4994 0.06415 0 0.07217 0 0.08821 8e-3 -0.01601 0.0081-0.17641 0.10424-0.17641 0.31271 0 0.22451 0.16037 0.34478 0.33677 0.34478 0.14433 0 0.34478-0.09621 0.34478-0.35279 0-0.25659-0.24856-0.48911-0.59334-0.48911-0.5773 0-0.86596 0.53722-0.9782 0.88203z"/>
   <path d="m16.409 97.724h8e-3v-0.02413l0.0081-8e-3v-0.02407l0.0081-8e-3v-0.02413c0-0.02407-0.02407-0.08018-0.0882-0.08018-0.11225 0-0.57732 0.04809-0.71364 0.05615-0.04809 8e-3 -0.12829 0.01601-0.12829 0.12829 0 0.08018 0.08018 0.08018 0.14433 0.08018 0.27262 0 0.27262 0.04014 0.27262 0.08019 0 0.04008-0.01601 0.08018-0.02407 0.12829l-0.32072 1.2669c-0.11232-0.18443-0.30477-0.32876-0.57738-0.32876v0.16037c0.39289 0 0.49713 0.42496 0.49713 0.48109 0 0.02407-0.0081 0.06415-0.01601 0.08018l-0.2646 1.0424c-0.03208 0.16036-0.16036 0.2646-0.28064 0.37685-0.04809 0.0401-0.27262 0.21649-0.52118 0.21649-0.20045 0-0.40892-0.14433-0.40892-0.53722 0-0.29667 0.16838-0.90604 0.29667-1.1306 0.25658-0.44902 0.54524-0.5292 0.69757-0.5292v-0.16037c-0.71364 0-1.4433 0.7858-1.4433 1.5876 0 0.54524 0.36082 0.93011 0.84189 0.93011 0.30469 0 0.57731-0.1764 0.80181-0.39289 0.10424 0.33677 0.43297 0.39289 0.5773 0.39289 0.20046 0 0.33677-0.12027 0.441-0.29667 0.12027-0.21649 0.19244-0.53722 0.19244-0.56127 0-0.0722-0.07217-0.0722-0.08821-0.0722-0.07216 0-0.08018 0.0241-0.12027 0.1764-0.07216 0.26461-0.17641 0.59334-0.40893 0.59334-0.14433 0-0.18442-0.12027-0.18442-0.27262 0-0.10423 0.0081-0.15234 0.02407-0.22451z"/>
   <path d="m18.898 99.296-0.0081-0.01601-0.01601-0.01601-0.0081-0.01601-0.03202-0.03202-8e-3 -0.01601-0.08811-0.08811-0.01601-0.0081-0.02407-0.01601-0.01601-0.0081-0.01601-0.01601-0.01601-0.0081-0.02407-0.01601-0.01601-0.0081-0.01601-8e-3 -0.02407-0.0081-0.01601-8e-3 -0.02407-0.0081-0.02407-8e-3h-0.01601l-0.02407-8e-3 -0.02407-0.0081h-0.04815l-0.02407-8e-3h-0.04814v0.16037c0.39289 0 0.49714 0.42496 0.49714 0.48109 0 0.02407-8e-3 0.06415-0.01601 0.08018l-0.2646 1.0424c-0.04008 0.16037-0.16036 0.2646-0.28064 0.37685-0.05615 0.0401-0.28064 0.2165-0.52118 0.2165-0.20848 0-0.40893-0.14433-0.40893-0.53723 0-0.29666 0.16838-0.90604 0.29667-1.1306 0.25658-0.44902 0.53722-0.5292 0.69757-0.5292v-0.16037c-0.71364 0-1.4433 0.7858-1.4433 1.5876 0 0.54524 0.36082 0.93012 0.84189 0.93012 0.3047 0 0.57732-0.1764 0.7938-0.39289 0.11226 0.33677 0.43299 0.39289 0.58533 0.39289 0.20046 0 0.33676-0.12027 0.441-0.29668 0.12027-0.21648 0.19244-0.53721 0.19244-0.56127 0-0.0722-0.07216-0.0722-0.0882-0.0722-0.08019 0-0.08019 0.0241-0.12027 0.1764-0.07216 0.2646-0.1764 0.59333-0.40893 0.59333-0.15234 0-0.19243-0.12027-0.19243-0.27262 0-0.0962 0.04809-0.29667 0.0882-0.44099 0.04008-0.14433 0.09623-0.37686 0.12027-0.49714l0.11225-0.42496c0.04014-0.14432 0.10424-0.40893 0.10424-0.43298 0-0.12829-0.10424-0.18442-0.19244-0.18442-0.09622 0-0.22451 0.07216-0.25658 0.22451z"/>
   <path d="m21.375 99.22h0.56929c0.11226 0 0.18442 0 0.18442-0.12027 0-0.08018-0.07216-0.08018-0.16838-0.08018h-0.53722l0.20848-0.82588c8e-3 -0.02407 0.01601-0.05615 0.01601-0.08019 0-0.09622-0.07217-0.1764-0.18442-0.1764-0.14433 0-0.22451 0.09622-0.2646 0.24055-0.04008 0.14433 0.03208-0.12829-0.21649 0.84189h-0.56929c-0.10424 0-0.17641 0-0.17641 0.12829 0 0.07216 0.06415 0.07216 0.16037 0.07216h0.53722l-0.32875 1.315c-0.04008 0.14432-0.0882 0.34478-0.0882 0.41694 0 0.32875 0.28064 0.52921 0.60134 0.52921 0.61741 0 0.9782-0.7778 0.9782-0.85796 0-0.0722-0.08018-0.0722-0.09621-0.0722-0.06415 0-0.07217 0.016-0.11226 0.11226-0.16036 0.34478-0.44902 0.65749-0.75372 0.65749-0.12027 0-0.19243-0.0722-0.19243-0.27262 0-0.0562 0.01601-0.16838 0.03208-0.22451z"/>
   <path d="m24.775 99.296-0.0081-0.01601-0.01601-0.01601-8e-3 -0.01601-0.01601-0.01601-8e-3 -0.01601-0.04803-0.04803-8e-3 -0.01601-0.01601-0.0081-0.03202-0.03202-0.01601-0.0081-0.01601-0.01601-0.02407-0.0081-0.01601-0.01601-0.01601-0.0081-0.01601-0.01601-0.02407-0.0081-0.01601-8e-3 -0.02407-0.0081-0.01601-8e-3 -0.02407-0.0081-0.02407-8e-3h-0.01601l-0.02407-8e-3 -0.02407-0.0081h-0.04814l-0.02407-8e-3h-0.04815v0.16037c0.39289 0 0.49713 0.42496 0.49713 0.48109 0 0.02407-8e-3 0.06415-0.01601 0.08018l-0.2646 1.0424c-0.03208 0.16037-0.16036 0.2646-0.28064 0.37685-0.05615 0.0401-0.27262 0.2165-0.52118 0.2165-0.20848 0-0.40893-0.14433-0.40893-0.53723 0-0.29666 0.16838-0.90604 0.29668-1.1306 0.25658-0.44902 0.54524-0.5292 0.69757-0.5292v-0.16037c-0.71364 0-1.4433 0.7858-1.4433 1.5876 0 0.54524 0.36082 0.93012 0.84189 0.93012 0.3047 0 0.57732-0.1764 0.80181-0.39289 0.10424 0.33677 0.42497 0.39289 0.57732 0.39289 0.20046 0 0.33676-0.12027 0.441-0.29668 0.12027-0.21648 0.19243-0.53721 0.19243-0.56127 0-0.0722-0.07216-0.0722-0.0882-0.0722-0.08019 0-0.08019 0.0241-0.12027 0.1764-0.07216 0.2646-0.1764 0.59333-0.40893 0.59333-0.14433 0-0.18442-0.12027-0.18442-0.27262 0-0.0962 0.04008-0.29667 0.08018-0.44099 0.04014-0.14433 0.09622-0.37686 0.12028-0.49714l0.11225-0.42496c0.04008-0.14432 0.10424-0.40893 0.10424-0.43298 0-0.12829-0.10424-0.18442-0.19244-0.18442-0.09622 0-0.22451 0.07216-0.25659 0.22451z"/>
  </g>
 </g>
 <g transform="translate(105.75 -.048334)" fill-rule="evenodd">
  <g stroke="#000" stroke-miterlimit="10.433" stroke-width=".2">
   <path d="m163.2 98.295h0.0607l7e-3 7e-3h0.054l7e-3 7e-3h0.0203l7e-3 7e-3h7e-3l7e-3 7e-3h7e-3l0.0405 0.0405v7e-3l7e-3 7e-3v0.0135h7e-3v0.0406c0 0.1332-0.12645 0.1332-0.2196 0.1332h-3.9735c-0.0932 0-0.2196 0-0.2196-0.1332s0.12645-0.1332 0.2263-0.1332z"/>
   <path d="m163.2 97.035h0.10125l0.0135 0.0067h0.0135l0.0135 0.0068h7e-3l7e-3 0.0067h7e-3l7e-3 0.0067h7e-3l0.0202 0.02025h7e-3v0.0135h7e-3v0.0068l7e-3 0.0067v0.0135l7e-3 0.0067v0.04065c0 0.12645-0.12645 0.12645-0.22628 0.12645h-3.9602c-0.0999 0-0.2263 0-0.2263-0.12645 0-0.1332 0.12645-0.1332 0.2196-0.1332z"/>
   <path d="m191.39 97.35h1.5229c0.0767 0 0.18068 0 0.18068 0.1098s-0.10395 0.1098-0.18068 0.1098h-1.5229v1.5229c0 0.0767 0 0.18068-0.1098 0.18068s-0.1098-0.10395-0.1098-0.18068v-1.5229h-1.5284c-0.0767 0-0.18068 0-0.18068-0.1098s0.10395-0.1098 0.18068-0.1098h1.5284v-1.5229c0-0.07673 0-0.18068 0.1098-0.18068s0.1098 0.10395 0.1098 0.18068z"/>
   <path d="m210.54 97.462h1.5229c0.0767 0 0.18068 0 0.18068 0.1098s-0.10395 0.1098-0.18068 0.1098h-1.5229v1.5229c0 0.0767 0 0.18068-0.1098 0.18068s-0.1098-0.10395-0.1098-0.18068v-1.5229h-1.5284c-0.0767 0-0.18068 0-0.18068-0.1098s0.10395-0.1098 0.18068-0.1098h1.5284v-1.5229c0-0.07672 0-0.18067 0.1098-0.18067s0.1098 0.10395 0.1098 0.18067z"/>
   <path d="m218.1 97.53h1.5229c0.0767 0 0.18068 0 0.18068 0.1098 0 0.1098-0.10395 0.1098-0.18068 0.1098h-1.5229v1.5229c0 0.0767 0 0.18068-0.1098 0.18068s-0.1098-0.10395-0.1098-0.18068v-1.5229h-1.5284c-0.0767 0-0.18068 0-0.18068-0.1098 0-0.1098 0.10395-0.1098 0.18068-0.1098h1.5284v-1.5229c0-0.07672 0-0.18068 0.1098-0.18068s0.1098 0.10395 0.1098 0.18068z"/>
   <path d="m233.53 97.485h1.5229c0.0767 0 0.18068 0 0.18068 0.1098s-0.10395 0.1098-0.18068 0.1098h-1.5229v1.5229c0 0.0767 0 0.18068-0.1098 0.18068s-0.1098-0.10395-0.1098-0.18068v-1.5229h-1.5284c-0.0767 0-0.18068 0-0.18068-0.1098s0.10395-0.1098 0.18068-0.1098h1.5284v-1.5229c0-0.07672 0-0.18067 0.1098-0.18067s0.1098 0.10395 0.1098 0.18067z"/>
  </g>
  <circle transform="scale(1,-1)" cx="206.96" cy="-15.833" r=".77958" fill="#f00" fill-opacity=".52" opacity=".97"/>
  <circle transform="scale(1,-1)" cx="220.36" cy="-22.658" r=".77958" fill="#f00" fill-opacity=".52" opacity=".97"/>
  <g fill="#0070ab" fill-opacity=".26">
   <rect x="156.53" y="32.183" width="22.118" height="21.816" opacity=".97"/>
   <rect x="207.17" y="22.058" width="9.6891" height="9.3289" opacity=".97"/>
   <rect x="170.78" y="32.183" width="13.021" height="12.615" opacity=".97"/>
   <rect x="193.37" y="30.653" width="1.2888" height="1.1967" opacity=".97"/>
   <rect x="220.28" y="13.718" width="17.986" height="17.673" opacity=".97"/>
   <rect x="213.46" y="96.863" width="1.3709" height="1.3709" opacity=".97"/>
   <rect x="235.79" y="88.763" width="17.986" height="17.986" opacity=".97"/>
   <rect x="220.9" y="92.648" width="9.6891" height="9.6891" opacity=".97"/>
   <rect x="193.87" y="91.073" width="13.021" height="13.021" opacity=".97"/>
   <rect x="165.77" y="85.853" width="21.916" height="21.916" opacity=".97"/>
  </g>
  <path d="m148.86-1.47v-0.0075l7e-3 -0.0075v-0.0216l8e-3 -0.0075v-0.0135l7e-3 -0.0075v-0.0273l7e-3 -0.0075v-0.06135c0-0.1326-0.10305-0.19887-0.21361-0.19887-0.0737 0-0.19153 0.04425-0.25782 0.1547-0.015 0.0369-0.0737 0.26518-0.10305 0.39777-0.0513 0.19152-0.10305 0.38307-0.1473 0.58196l-0.329 1.3053c-0.0294 0.11055-0.34623 0.62614-0.82505 0.62614-0.37568 0-0.45672-0.3241-0.45672-0.59668 0-0.33884 0.12526-0.78819 0.37569-1.4364 0.1179-0.29466 0.14731-0.3757 0.14731-0.52302 0-0.3315-0.23572-0.60404-0.60404-0.60404-0.69979 0-0.97235 1.0607-0.97235 1.1271 0 0.07365 0.0737 0.07365 0.0884 0.07365 0.0736 0 0.081-0.015 0.1179-0.1326 0.19887-0.68508 0.49357-0.90606 0.744-0.90606 0.0588 0 0.18414 0 0.18414 0.23574 0 0.18416-0.0735 0.37568-0.12525 0.51564-0.29466 0.77348-0.42724 1.1934-0.42724 1.5322 0 0.6556 0.46408 0.86924 0.89869 0.86924 0.2873 0 0.53039-0.1179 0.73665-0.32414-0.0958 0.3757-0.18415 0.73665-0.47146 1.1271-0.19151 0.25044-0.47144 0.45672-0.8103 0.45672-0.10305 0-0.43461-0.0222-0.55985-0.30202 0.11791 0 0.21362 0 0.31675-0.08835 0.0736-0.0663 0.14744-0.16202 0.14744-0.30204 0-0.22834-0.19888-0.25782-0.27254-0.25782-0.16944 0-0.41253 0.1179-0.41253 0.47882 0 0.36096 0.32413 0.63351 0.78085 0.63351 0.75875 0 1.5102-0.66298 1.7163-1.4881z" fill-opacity=".86275" stroke-miterlimit="10.433" stroke-width="0"/>
  <path d="m237.06 78.645 7e-3 -0.0165 7e-3 -0.02505v-0.02505l0.0163-0.06675 0.0165-0.03345 7e-3 -0.0333 7e-3 -0.04155 0.0167-0.03345 0.0165-0.04155 0.0333-0.0831 0.0165-0.04155 0.0166-0.04155 0.0251-0.04155 0.0249-0.04155 0.025-0.04155 0.0251-0.0333 0.0251-0.04155 0.0333-0.03345 0.0249-0.04155 0.0333-0.0333 0.0415-0.03345 0.0333-0.02505 0.0416-0.02505 0.0333-0.02505 0.0249-0.0075 0.025-0.01665 0.0165-0.0075 0.0501-0.01635h0.0251l0.0167-0.0075 0.025-0.0075h0.0584l0.0252-0.0075h0.0251c0.0415 0 0.24095 0 0.41543 0.108-0.23265 0.04155-0.39881 0.24924-0.39881 0.44868 0 0.13305 0.0913 0.29078 0.31572 0.29078 0.18278 0 0.44864-0.14955 0.44864-0.4819 0-0.43203-0.49017-0.54832-0.77267-0.54832-0.48189 0-0.77268 0.44032-0.87238 0.63142-0.20772-0.54834-0.64808-0.63142-0.88901-0.63142-0.86409 0-1.3376 1.0718-1.3376 1.2712 0 0.0831 0.0831 0.0831 0.0997 0.0831 0.0665 0 0.0914-0.01665 0.108-0.09135 0.28249-0.87238 0.83083-1.0801 1.1133-1.0801 0.15788 0 0.44037 0.0747 0.44037 0.55666 0 0.25755-0.14115 0.8059-0.44037 1.9608-0.13305 0.51512-0.4237 0.86408-0.78927 0.86408-0.0498 0-0.24096 0-0.41542-0.108 0.2077-0.04155 0.39051-0.216 0.39051-0.44865 0-0.22432-0.18281-0.29079-0.30744-0.29079-0.24926 0-0.45696 0.216-0.45696 0.48188 0 0.38222 0.41542 0.54009 0.781 0.54009 0.54834 0 0.84744-0.57332 0.87236-0.62316 0.0913 0.30742 0.39054 0.62316 0.88902 0.62316 0.85576 0 1.3294-1.0635 1.3294-1.2712 0-0.0831-0.0748-0.0831-0.0998-0.0831-0.0748 0-0.0913 0.04155-0.108 0.09135-0.27418 0.889-0.83917 1.0884-1.105 1.0884-0.32403 0-0.45698-0.26589-0.45698-0.54838 0-0.18278 0.0498-0.36556 0.14116-0.72282z" fill-opacity=".86275" stroke-miterlimit="10.433" stroke-width="0"/>
  <circle transform="scale(1,-1)" cx="193.54" cy="-27.18" r=".77958" fill="#f00" fill-opacity=".52" opacity=".97" stroke-width="1.5"/>
  <g fill="#0015e4">
   <path d="m149.46 100.88v-0.0175h9e-3v-0.0263l9e-3 -9e-3v-0.0263l9e-3 -0.0263 9e-3 -0.0176v-0.0263l0.0175-0.0526v-0.0263l0.0263-0.0789 9e-3 -0.0526 0.0263-0.0789v-0.0263l9e-3 -0.0176 9e-3 -0.0263v-0.0175l9e-3 -9e-3v-0.0175l9e-3 -9e-3v-0.0263l9e-3 -9e-3v-0.0175c0.0176-0.0439 0.19291-0.35074 0.38582-0.4998 0.0701-0.0439 0.23675-0.1666 0.4998-0.1666 0.0614 0 0.21045 0 0.3332 0.0789-0.1929 0.0614-0.26305 0.22798-0.26305 0.34196 0 0.13153 0.0965 0.21921 0.24551 0.21921 0.1403 0 0.34198-0.11399 0.34198-0.36827 0-0.31566-0.34198-0.44719-0.64885-0.44719-0.32443 0-0.59625 0.13153-0.86806 0.43842-0.11399-0.37704-0.48227-0.43842-0.63131-0.43842-0.22799 0-0.37705 0.14029-0.48228 0.31567-0.14029 0.23674-0.21921 0.58748-0.21921 0.62254 0 0.0789 0.0789 0.0789 0.0965 0.0789 0.0877 0 0.0965-0.0175 0.14029-0.18414 0.0877-0.37704 0.21045-0.65766 0.44719-0.65766 0.15784 0 0.20168 0.13152 0.20168 0.29813 0 0.11398-0.0526 0.34196-0.0965 0.49979-0.0439 0.16661-0.10523 0.42089-0.1403 0.55242l-0.19291 0.78037c-0.0263 0.0789-0.0614 0.23675-0.0614 0.25428 0 0.13154 0.11399 0.19291 0.21044 0.19291 0.0877 0 0.21045-0.0526 0.26306-0.17537 9e-3 -0.035 0.0789-0.3069 0.11399-0.45596z"/>
   <path d="m152.83 100.72h0.23675l0.0263-9e-3h0.10517l0.0614-9e-3 0.0701-9e-3 0.1403-0.0175 0.0789-9e-3 0.0702-0.0176 0.0701-0.0175 0.0263-9e-3 0.0701-0.0175 0.0263-9e-3c0.45597-0.15784 0.54365-0.45596 0.54365-0.64008 0-0.33321-0.34197-0.53488-0.76283-0.53488v0.17537c0.27182 0 0.4998 0.13153 0.4998 0.35951 0 0.59626-1.0347 0.59626-1.2977 0.59626h-0.3069c0.25428-0.88565 0.93823-0.95577 1.1048-0.95577v-0.17537c-0.73654 0-1.7274 0.56119-1.7274 1.6047 0 0.61379 0.38582 1.1487 1.1048 1.1487 1.0347 0 1.517-0.60502 1.517-0.69272 0-0.0351-0.0526-0.10523-0.10522-0.10523-0.0351 0-0.0439 0.0175-0.0965 0.0614-0.4735 0.56119-1.1925 0.56119-1.3065 0.56119-0.36827 0-0.61378-0.23675-0.61378-0.73655 0-0.0877 0-0.20167 0.0789-0.54364z"/>
   <path d="m158.03 99.86v-9e-3l9e-3 -9e-3v-0.0263l9e-3 -9e-3v-0.0263l9e-3 -9e-3v-0.0351c0-0.1403-0.11399-0.20168-0.21045-0.20168-0.14029 0-0.25429 0.12276-0.28059 0.23675-0.10522-0.1666-0.31566-0.35074-0.63132-0.35074v0.17537c0.42966 0 0.54365 0.45596 0.54365 0.51733 0 9e-3 0 0.0263-0.0175 0.0877l-0.27182 1.096c-0.0263 0.0965-0.0263 0.10523-0.13153 0.22798-0.21921 0.25429-0.50857 0.41213-0.7453 0.41213-0.3069 0-0.45597-0.26306-0.45597-0.57873 0-0.26305 0.16661-0.947 0.32444-1.2188 0.25428-0.42088 0.54365-0.54364 0.75407-0.54364v-0.17524c-0.76284 0-1.5696 0.81548-1.5696 1.6923 0 0.63131 0.42965 0.99958 0.92947 0.99958 0.28059 0 0.55242-0.14029 0.7716-0.3332l-0.1403 0.55242c-0.0614 0.25429-0.10522 0.42088-0.34196 0.63132-0.27183 0.21921-0.53488 0.21921-0.68396 0.21921-0.28058 0-0.3595-0.0175-0.4735-0.0439 0.14907-0.0701 0.19292-0.21921 0.19292-0.29813 0-0.14907-0.114-0.22798-0.23676-0.22798-0.17537 0-0.35074 0.14029-0.35074 0.36827 0 0.36828 0.52611 0.37705 0.87683 0.37705 0.95577 0 1.3679-0.49104 1.4556-0.83301z"/>
  </g>
  <g transform="matrix(.58428 0 0 -.58428 -162.51 508.25)" fill="#006100" fill-opacity=".45882" stroke="#000" stroke-miterlimit="4.117">
   <path d="m539.09 773.4 136.98 85.892" fill-rule="evenodd" stroke="#0074ff" stroke-width="1.0954"/>
   <path d="m536.13 731.28v141.1" fill="#000" fill-opacity=".58824" marker-end="url(#e)" stroke-miterlimit="4.117" stroke-opacity=".7451" stroke-width=".76272"/>
   <path d="m526.65 740.53h157.81" fill="#000" fill-opacity=".58824" marker-end="url(#f)" stroke-miterlimit="4.117" stroke-opacity=".7451" stroke-width=".76272"/>
  </g>
  <path d="m151.01 31.788h89.015" fill="#006100" fill-opacity=".45882" stroke="#000" stroke-miterlimit="4.039" stroke-opacity=".2" stroke-width=".65859"/>
  <g fill="#0015e4" stroke-miterlimit="10.433" stroke-width=".77131">
   <path d="m140.97 94.767 0.0154-0.02314 8e-3 -0.02314 0.0154-0.03085 8e-3 -0.02314 0.0925-0.13884 0.0231-0.02314 0.0154-0.02314 0.0231-0.01543 0.0231-0.02314 0.0463-0.03085 0.0231-0.02314 0.0231-0.01543 0.0308-0.01543 0.0309-0.0077 0.0617-0.03085 0.0308-0.0077 0.0386-0.01543 0.0309-0.0077 0.0771-0.01543 0.0463-0.0077h0.0386l0.0463-0.0077h0.0926v-0.23911c-0.23911 0.01543-0.54763 0.02314-0.74817 0.02314-0.22368 0-0.67104-0.01543-0.87158-0.02314v0.23911c0.40108 0.0077 0.56305 0.20825 0.56305 0.38566 0 0.05399-0.0231 0.10027-0.0386 0.14655l-1.4115 3.6946-1.4655-3.872c-0.0463-0.10027-0.0463-0.1157-0.0463-0.13112 0-0.22368 0.43965-0.22368 0.62476-0.22368v-0.23911c-0.26996 0.02314-0.80216 0.02314-1.0953 0.02314-0.37023 0-0.70189-0.01543-0.97956-0.02314v0.23911c0.50135 0 0.6479 0 0.75588 0.2931l1.7817 4.6973c0.054 0.14655 0.0926 0.16969 0.19283 0.16969 0.13112 0 0.14655-0.0386 0.18511-0.13883z"/>
   <path d="m143.89 98.67v0.0309l8e-3 0.0231 8e-3 0.0309v0.0309l8e-3 0.0309 8e-3 0.0231 0.0154 0.0309 8e-3 0.0231 0.0154 0.0309 8e-3 0.0231 0.0154 0.0309 0.0308 0.0463 0.0154 0.0309 0.0154 0.0231 0.10027 0.10027 0.0231 0.0154 0.0308 0.0231 0.0231 0.0154 0.0231 8e-3 0.0309 0.0154 0.0231 8e-3 0.0309 0.0154 0.0308 8e-3h0.0309l0.0308 8e-3h0.0694c0.15426 0 0.62476-0.10027 0.62476-0.72503v-0.43193h-0.19282v0.43193c0 0.44736-0.19283 0.49364-0.27768 0.49364-0.24681 0-0.27767-0.34709-0.27767-0.38566v-1.5349c0-0.31624 0-0.61705-0.27767-0.90243-0.30081-0.30081-0.68646-0.42422-1.0567-0.42422-0.63248 0-1.157 0.36252-1.157 0.87158 0 0.22368 0.14655 0.3548 0.34709 0.3548 0.21597 0 0.3548-0.14655 0.3548-0.34709 0-0.09256-0.0386-0.34709-0.39336-0.3548 0.20825-0.26996 0.58619-0.3548 0.83301-0.3548 0.37794 0 0.81759 0.30081 0.81759 0.97956v1.211c0 0.73275-0.55534 0.99499-0.90243 0.99499-0.37795 0-0.69418-0.26996-0.69418-0.65561 0-0.42422 0.32395-1.0567 1.5966-1.103v-0.16198c-0.39337 0.02314-0.93329 0.04628-1.4192 0.27767-0.57848 0.26225-0.7636 0.65562-0.7636 0.99499 0 0.62476 0.74046 0.80988 1.2264 0.80988 0.50907 0 0.86387-0.30081 1.0104-0.66333z"/>
   <path d="m146.45 96.711v-0.84844l-1.0644 0.08484v0.23911c0.53992 0 0.60162 0.05399 0.60162 0.43193v2.0517c0 0.34709-0.0848 0.34709-0.60162 0.34709v0.23139c0.30081-8e-3 0.66333-0.0231 0.87158-0.0231 0.30853 0 0.67104 0 0.97957 0.0231v-0.23139h-0.16198c-0.57077 0-0.58619-0.0848-0.58619-0.36252v-1.1801c0-0.75588 0.32395-1.4424 0.91014-1.4424 0.054 0 0.0694 0 0.0848 0.0077-0.0231 0.0077-0.17741 0.10027-0.17741 0.30081 0 0.21597 0.16198 0.33166 0.33167 0.33166 0.13883 0 0.33166-0.09256 0.33166-0.33938 0-0.24682-0.23911-0.4705-0.57077-0.4705-0.56305 0-0.84073 0.51678-0.94871 0.84844z"/>
  </g>
  <g transform="translate(-98.215 -1.2317)" fill="#f00" fill-opacity=".52" stroke-linecap="square" stroke-linejoin="bevel" stroke-opacity=".71498" stroke-width=".165">
   <circle transform="scale(1,-1)" cx="255.97" cy="-58.166" r=".77958" opacity=".97"/>
   <circle transform="scale(1,-1)" cx="270.03" cy="-52.215" r=".77958" opacity=".97"/>
  </g>
  <g fill="#004eff">
   <circle cx="156.64" cy="53.783" r=".77958" opacity=".97"/>
   <circle cx="170.83" cy="44.748" r=".77958" opacity=".97"/>
   <circle cx="193.46" cy="30.653" r=".77958" opacity=".97"/>
   <circle cx="207.19" cy="22.028" r=".77958" opacity=".97"/>
   <circle cx="220.36" cy="13.808" r=".77958" opacity=".97"/>
  </g>
 </g>
 <g fill-rule="evenodd" stroke-miterlimit="10.433">
  <g stroke="#000" stroke-width=".2">
   <path d="m186.79 97.707h1.5229c0.0767 0 0.18067 0 0.18067 0.1098s-0.10394 0.1098-0.18067 0.1098h-1.5229v1.5229c0 0.07672 0 0.18068-0.1098 0.18068s-0.1098-0.10395-0.1098-0.18068v-1.5229h-1.5284c-0.0767 0-0.18067 0-0.18067-0.1098s0.10395-0.1098 0.18067-0.1098h1.5284v-1.5229c0-0.07672 0-0.18068 0.1098-0.18068s0.1098 0.10395 0.1098 0.18068z"/>
   <path d="m195.3 97.797h1.5229c0.0767 0 0.18067 0 0.18067 0.1098s-0.10394 0.1098-0.18067 0.1098h-1.5229v1.5229c0 0.07672 0 0.18067-0.1098 0.18067s-0.1098-0.10394-0.1098-0.18067v-1.5229h-1.5284c-0.0767 0-0.18067 0-0.18067-0.1098s0.10395-0.1098 0.18067-0.1098h1.5284v-1.5229c0-0.07673 0-0.18068 0.1098-0.18068s0.1098 0.10395 0.1098 0.18068z"/>
   <path d="m213.05 97.752h1.5229c0.0767 0 0.18068 0 0.18068 0.1098s-0.10396 0.1098-0.18068 0.1098h-1.5229v1.5229c0 0.07672 0 0.18067-0.1098 0.18067s-0.1098-0.10394-0.1098-0.18067v-1.5229h-1.5284c-0.0767 0-0.18068 0-0.18068-0.1098s0.10396-0.1098 0.18068-0.1098h1.5284v-1.5229c0-0.07673 0-0.18067 0.1098-0.18067s0.1098 0.10395 0.1098 0.18067z"/>
   <path d="m202.68 97.707h1.5229c0.0767 0 0.18067 0 0.18067 0.1098s-0.10394 0.1098-0.18067 0.1098h-1.5229v1.5229c0 0.07672 0 0.18068-0.1098 0.18068s-0.1098-0.10395-0.1098-0.18068v-1.5229h-1.5284c-0.0767 0-0.18067 0-0.18067-0.1098s0.10395-0.1098 0.18067-0.1098h1.5284v-1.5229c0-0.07672 0-0.18068 0.1098-0.18068s0.1098 0.10395 0.1098 0.18068z"/>
   <path d="m179.32 98.202h0.0607l7e-3 0.0067h0.054l7e-3 0.0068h0.0203l7e-3 0.0067h7e-3l7e-3 0.0067h7e-3l0.0405 0.0405v0.0068l7e-3 0.0067v0.0135h7e-3v0.0406c0 0.1332-0.12645 0.1332-0.2196 0.1332h-3.9735c-0.0931 0-0.2196 0-0.2196-0.1332s0.12645-0.1332 0.2263-0.1332z"/>
   <path d="m179.32 96.92h0.10125l0.0135 0.0067h0.0135l0.0135 0.0068h7e-3l7e-3 0.0067h7e-3l7e-3 0.0067h7e-3l0.0203 0.02025h7e-3v0.0135h7e-3v0.0069l7e-3 0.0068v0.0135l7e-3 0.0067v0.0405c0 0.12645-0.12645 0.12645-0.22628 0.12645h-3.9602c-0.0999 0-0.2263 0-0.2263-0.12645 0-0.1332 0.12645-0.1332 0.2196-0.1332z"/>
  </g>
  <path d="m141.71-1.9377v-0.0075l7e-3 -0.0075v-0.0216l8e-3 -0.0075v-0.0135l7e-3 -0.0075v-0.0273l7e-3 -0.0075v-0.06135c0-0.1326-0.10305-0.19887-0.21362-0.19887-0.0737 0-0.19152 0.04425-0.25782 0.1547-0.015 0.0369-0.0736 0.26518-0.10305 0.39777-0.0513 0.19154-0.10305 0.38307-0.1473 0.58196l-0.32901 1.3053c-0.0294 0.11055-0.34623 0.62614-0.82503 0.62614-0.3757 0-0.45673-0.3241-0.45673-0.59668 0-0.33882 0.12525-0.78819 0.37569-1.4364 0.1179-0.29464 0.1473-0.3757 0.1473-0.523 0-0.33152-0.23571-0.60405-0.60404-0.60405-0.6998 0-0.97236 1.0608-0.97236 1.1271 0 0.07365 0.0737 0.07365 0.0883 0.07365 0.0737 0 0.0812-0.015 0.1179-0.1326 0.19887-0.68508 0.49356-0.90608 0.74402-0.90608 0.0588 0 0.18416 0 0.18416 0.23574 0 0.18416-0.0736 0.37569-0.12525 0.51566-0.29466 0.77346-0.42725 1.1934-0.42725 1.5322 0 0.6556 0.46409 0.86924 0.8987 0.86924 0.28729 0 0.53038-0.1179 0.73665-0.32412-0.0959 0.37569-0.18416 0.73665-0.47145 1.1271-0.19153 0.25044-0.47145 0.4567-0.8103 0.4567-0.10305 0-0.43463-0.0222-0.55986-0.30201 0.11789 0 0.21361 0 0.31675-0.08835 0.0735-0.06615 0.1473-0.16202 0.1473-0.30202 0-0.22834-0.19887-0.25782-0.27255-0.25782-0.16943 0-0.41253 0.1179-0.41253 0.4788 0 0.36098 0.32413 0.63352 0.78085 0.63352 0.75875 0 1.5102-0.663 1.7163-1.4881z" fill-opacity=".86275" stroke-width="0"/>
 </g>
 <g fill="#f00" fill-opacity=".52" fill-rule="evenodd">
  <circle cx="151.16" cy="54.837" r=".77958" opacity=".97"/>
  <circle cx="165.48" cy="47.637" r=".77958" opacity=".97"/>
  <circle transform="scale(1,-1)" cx="187.55" cy="-26.622" r=".77958" opacity=".97"/>
  <circle transform="scale(1,-1)" cx="201.15" cy="-15.117" r=".77958" opacity=".97"/>
  <circle transform="scale(1,-1)" cx="213.95" cy="-21.342" r=".77958" opacity=".97"/>
 </g>
 <g stroke="#000">
  <path d="m230.42 77.562 7e-3 -0.0165 7e-3 -0.02505v-0.02505l0.0164-0.06675 0.0165-0.03345 8e-3 -0.03345 7e-3 -0.04155 0.0166-0.0333 0.0165-0.04155 0.0333-0.0831 0.0165-0.04155 0.0166-0.04155 0.025-0.04155 0.0249-0.04155 0.025-0.04155 0.025-0.03345 0.025-0.04155 0.0333-0.03345 0.0249-0.04155 0.0334-0.03345 0.0416-0.03345 0.0333-0.02505 0.0416-0.02505 0.0334-0.02505 0.0249-0.0075 0.0251-0.01665 0.0165-0.0075 0.0501-0.01635h0.025l0.0166-0.0075 0.025-0.0075h0.0584l0.0252-0.0075h0.025c0.0416 0 0.24096 0 0.41544 0.108-0.23267 0.04155-0.39881 0.24924-0.39881 0.44866 0 0.13305 0.0914 0.29079 0.31572 0.29079 0.18278 0 0.44862-0.14955 0.44862-0.4819 0-0.43203-0.49015-0.54834-0.77266-0.54834-0.48189 0-0.77267 0.44032-0.87239 0.63144-0.2077-0.54836-0.64806-0.63144-0.889-0.63144-0.86409 0-1.3376 1.0718-1.3376 1.2712 0 0.0831 0.0831 0.0831 0.0998 0.0831 0.0665 0 0.0913-0.01665 0.10785-0.09135 0.28251-0.87238 0.83085-1.0801 1.1133-1.0801 0.15787 0 0.44037 0.0747 0.44037 0.55665 0 0.25755-0.14115 0.80592-0.44037 1.9608-0.13305 0.51513-0.42372 0.86409-0.78927 0.86409-0.0498 0-0.24098 0-0.41544-0.108 0.2077-0.04155 0.39051-0.216 0.39051-0.44865 0-0.22432-0.18281-0.29079-0.30744-0.29079-0.24924 0-0.45695 0.216-0.45695 0.48188 0 0.38222 0.41541 0.54008 0.78101 0.54008 0.54832 0 0.84742-0.57332 0.87235-0.62316 0.0914 0.30742 0.39053 0.62316 0.88902 0.62316 0.85577 0 1.3294-1.0635 1.3294-1.2712 0-0.0831-0.0748-0.0831-0.0998-0.0831-0.0748 0-0.0914 0.04155-0.10785 0.09135-0.27419 0.88902-0.83918 1.0884-1.105 1.0884-0.32401 0-0.45696-0.26589-0.45696-0.54837 0-0.18279 0.0498-0.36558 0.14115-0.72284z" fill-opacity=".86275" fill-rule="evenodd" stroke-miterlimit="10.433" stroke-width="0"/>
  <path d="m143.66 80.935v-82.445" fill-opacity=".58824" marker-end="url(#d)" stroke-miterlimit="4.117" stroke-opacity=".7451" stroke-width=".44564"/>
  <path d="m138.45 75.056h92.208" fill-opacity=".58824" marker-end="url(#c)" stroke-miterlimit="4.117" stroke-opacity=".7451" stroke-width=".44564"/>
 </g>
 <g fill="#007b00" fill-rule="evenodd">
  <path d="m154.74 94.621 0.0176-0.02629 9e-3 -0.02629 0.0175-0.03506 9e-3 -0.02629 0.0175-0.02629 0.0176-0.02629 0.0351-0.05258 0.0176-0.02629 0.0175-0.02629 0.0263-0.02629 0.0175-0.02629 0.0263-0.01753 0.0263-0.02629 0.0526-0.03506 0.0263-0.02629 0.0263-0.01753 0.0351-0.01759 0.0351-0.0088 0.0701-0.03506 0.0351-0.0088 0.0439-0.01753 0.0351-0.0088 0.0878-0.01753 0.0526-0.0088h0.0439l0.0526-0.0088h0.10518v-0.27182c-0.27184 0.01753-0.62255 0.02629-0.85054 0.02629-0.25429 0-0.76284-0.01753-0.99082-0.02629v0.27182c0.45596 0.0088 0.64008 0.23675 0.64008 0.43843 0 0.06138-0.0263 0.11399-0.0439 0.1666l-1.6047 4.2001-1.666-4.4018c-0.0526-0.11399-0.0526-0.13153-0.0526-0.14907 0-0.25428 0.4998-0.25428 0.71025-0.25428v-0.27182c-0.3069 0.02629-0.91194 0.02629-1.2451 0.02629-0.42089 0-0.79795-0.01753-1.1136-0.02629v0.27182c0.56996 0 0.73654 0 0.8593 0.3332l2.0255 5.34c0.0614 0.1666 0.10523 0.19291 0.21922 0.19291 0.14906 0 0.1666-0.0439 0.21044-0.15783z"/>
  <path d="m158.05 99.056v0.03506l9e-3 0.02629 9e-3 0.03506v0.03506l9e-3 0.03506 9e-3 0.02629 0.0176 0.03506 9e-3 0.02629 0.0175 0.03506 9e-3 0.02629 0.0176 0.03506 0.0351 0.05258 0.0175 0.03506 0.0176 0.02629 0.11393 0.11393 0.0263 0.01753 0.0351 0.0263 0.0263 0.0176 0.0263 9e-3 0.0351 0.0175 0.0263 9e-3 0.0351 0.0175 0.0351 9e-3h0.035l0.0351 9e-3h0.0789c0.17536 0 0.71025-0.11399 0.71025-0.82428v-0.49104h-0.21921v0.49104c0 0.50858-0.21921 0.56119-0.31567 0.56119-0.2806 0-0.31566-0.39458-0.31566-0.43843v-1.745c0-0.35951 0-0.70149-0.31567-1.0259-0.34197-0.34197-0.78043-0.48226-1.2013-0.48226-0.71902 0-1.3153 0.41212-1.3153 0.99082 0 0.25428 0.16661 0.40335 0.39459 0.40335 0.24552 0 0.40335-0.16661 0.40335-0.39459 0-0.10522-0.0439-0.39458-0.44719-0.40335 0.23675-0.3069 0.66643-0.40335 0.947-0.40335 0.42966 0 0.92947 0.34197 0.92947 1.1136v1.3767c0 0.83301-0.63131 1.1312-1.0259 1.1312-0.42966 0-0.78918-0.30689-0.78918-0.74531 0-0.48226 0.36827-1.2013 1.8151-1.2539v-0.1841c-0.44719 0.02629-1.061 0.05259-1.6134 0.31568-0.65766 0.29812-0.86806 0.74531-0.86806 1.1311 0 0.71025 0.84177 0.92072 1.3942 0.92072 0.57872 0 0.98205-0.34198 1.1487-0.75408z"/>
  <path d="m160.96 96.83v-0.96453l-1.21 0.09645v0.27182c0.61378 0 0.68395 0.06138 0.68395 0.49103v2.3324c0 0.39458-0.0965 0.39458-0.68395 0.39458v0.26306c0.34197-9e-3 0.75407-0.0263 0.99082-0.0263 0.35074 0 0.76283 0 1.1136 0.0263v-0.26306h-0.18414c-0.6489 0-0.66643-0.09645-0.66643-0.41212v-1.3416c0-0.8593 0.36828-1.6397 1.0347-1.6397 0.0614 0 0.0789 0 0.0965 0.0088-0.0263 0.0088-0.20168 0.11399-0.20168 0.34197 0 0.24552 0.18414 0.37704 0.37704 0.37704 0.15784 0 0.37705-0.10522 0.37705-0.38581 0-0.28059-0.27182-0.53488-0.64884-0.53488-0.64008 0-0.95577 0.58749-1.0785 0.96453z"/>
 </g>
 <path d="m147.64 55.521 75.413-49.842" fill="#006100" fill-opacity=".45882" fill-rule="evenodd" stroke="#0074ff" stroke-miterlimit="4.117" stroke-width=".6399"/>
 <path d="m143.83 30.803h80.804" fill="none" stroke="#000" stroke-miterlimit="4.039" stroke-opacity=".2" stroke-width=".65859"/>
 <g fill="#007b00" fill-rule="evenodd" stroke-miterlimit="10.433" stroke-width=".77131">
  <path d="m164.39 99.764v-0.0154h8e-3v-0.0231l8e-3 -8e-3v-0.0231l8e-3 -0.0231 8e-3 -0.0154v-0.02314l0.0154-0.04628v-0.02314l0.0231-0.06942 8e-3 -0.04628 0.0231-0.06942v-0.02301l8e-3 -0.01543 8e-3 -0.02314v-0.01543l8e-3 -0.0077v-0.01543l8e-3 -0.0077v-0.02314l8e-3 -0.0077v-0.01543c0.0154-0.03856 0.16969-0.30852 0.33938-0.43965 0.0617-0.03857 0.20825-0.14655 0.43965-0.14655 0.054 0 0.18511 0 0.2931 0.06942-0.16969 0.05399-0.2314 0.20054-0.2314 0.30081 0 0.1157 0.0848 0.19283 0.21597 0.19283 0.12341 0 0.30081-0.10027 0.30081-0.32395 0-0.27767-0.30081-0.39337-0.57077-0.39337-0.28538 0-0.52449 0.1157-0.7636 0.38566-0.10027-0.33166-0.42422-0.38566-0.55534-0.38566-0.20054 0-0.33166 0.12341-0.42422 0.27767-0.12341 0.20825-0.19283 0.51678-0.19283 0.54763 0 0.06942 0.0694 0.06942 0.0848 0.06942 0.0771 0 0.0848-0.01543 0.12341-0.16198 0.0771-0.33166 0.18511-0.57848 0.39336-0.57848 0.13884 0 0.17741 0.1157 0.17741 0.26225 0 0.10027-0.0463 0.30081-0.0848 0.43965-0.0386 0.14655-0.0926 0.37023-0.12341 0.48593l-0.16969 0.68646c-0.0231 0.0694-0.054 0.20826-0.054 0.22368 0 0.1157 0.10027 0.16969 0.18512 0.16969 0.0771 0 0.18511-0.0463 0.23139-0.15426 8e-3 -0.0309 0.0694-0.26996 0.10027-0.40108z"/>
  <path d="m167.35 99.626h0.20825l0.0231-0.0077h0.0926l0.054-0.0077 0.18512-0.02314 0.0694-0.0077 0.12341-0.03085 0.0231-0.0077 0.0617-0.01543 0.0231-0.0077c0.40108-0.13884 0.47821-0.40108 0.47821-0.56306 0-0.2931-0.30081-0.4705-0.67104-0.4705v0.15426c0.2391 0 0.43965 0.1157 0.43965 0.31624 0 0.52449-0.91015 0.52449-1.1415 0.52449h-0.26996c0.22368-0.77902 0.8253-0.84073 0.97185-0.84073v-0.15426c-0.6479 0-1.5195 0.49364-1.5195 1.4115 0 0.53991 0.33937 1.0104 0.97185 1.0104 0.91014 0 1.3344-0.5322 1.3344-0.60933 0-0.0309-0.0463-0.0926-0.0926-0.0926-0.0309 0-0.0386 0.0154-0.0849 0.054-0.4165 0.49364-1.049 0.49364-1.1492 0.49364-0.32395 0-0.53992-0.20825-0.53992-0.6479 0-0.0771 0-0.1774 0.0694-0.4782z"/>
  <path d="m171.38 98.831-0.0154 0.0077h-0.0154l-8e-3 0.0077h-0.0154l-8e-3 0.0077-0.0154 0.0077-8e-3 0.0077h-0.0154l-0.0154 0.01543-0.0154 0.0077-0.054 0.05399-8e-3 0.01543v0.0077l-0.0154 0.01543v0.0077l-8e-3 0.01543v0.0077l-8e-3 0.0077v0.02314l-8e-3 0.0077v0.03085c0 0.12341 0.10798 0.16969 0.1774 0.16969 0.054 0 0.26224-0.03085 0.26224-0.30081 0-0.34709-0.39336-0.4705-0.71731-0.4705-0.84073 0-0.99499 0.61705-0.99499 0.78674 0 0.20054 0.11569 0.32395 0.19282 0.39337 0.13884 0.10027 0.2314 0.12341 0.60934 0.19283 0.10798 0.0154 0.45507 0.0849 0.45507 0.34709 0 0.0926-0.0617 0.30081-0.28538 0.43193-0.20826 0.1157-0.4705 0.1157-0.53992 0.1157-0.21597 0-0.52449-0.0463-0.6479-0.22368 0.1774-0.0231 0.30081-0.15426 0.30081-0.30852 0-0.13113-0.10027-0.19283-0.21597-0.19283-0.15426 0-0.30852 0.12341-0.30852 0.3548 0 0.32395 0.34709 0.52449 0.86387 0.52449 0.99499 0 1.1801-0.67875 1.1801-0.887 0-0.49364-0.54763-0.5862-0.74817-0.62476-0.0463-0.01543-0.1774-0.03085-0.21597-0.04628-0.20054-0.03857-0.29309-0.14655-0.29309-0.26996 0-0.12341 0.0926-0.26224 0.21596-0.33938 0.14655-0.09256 0.33167-0.10027 0.42422-0.10027 0.1157 0 0.39337 0.01543 0.51678 0.19283z"/>
 </g>
 <g fill="#01c700" fill-opacity=".2803">
  <rect x="214.08" y="11.894" width="9.4562" height="9.4562" opacity=".97"/>
  <rect x="201.2" y="15.109" width="4.8505" height="4.8505" opacity=".97"/>
  <rect x="187.62" y="26.67" width="2.509" height="2.509" opacity=".97"/>
  <rect x="161.78" y="43.837" width="3.7396" height="3.7675" opacity=".97"/>
  <rect x="151.14" y="53.177" width="1.6444" height="1.754" opacity=".97"/>
  <rect x="181.7" y="97.022" width="1.6444" height="1.754" opacity=".97" stroke="#00a312" stroke-linecap="square" stroke-miterlimit="4.5848" stroke-opacity=".12941" stroke-width=".53301"/>
  <rect x="189.16" y="96.102" width="3.7396" height="3.7675" opacity=".97"/>
  <rect x="197.52" y="96.732" width="2.509" height="2.509" opacity=".97"/>
  <rect x="205.36" y="95.562" width="4.8505" height="4.8505" opacity=".97"/>
  <rect x="215.52" y="93.252" width="9.4562" height="9.4562" opacity=".97"/>
 </g>
</svg>
