<svg width="141.43mm" height="116.27mm" version="1.1" viewBox="0 0 141.43 116.27" xmlns="http://www.w3.org/2000/svg" xmlns:ns0="http://www.iki.fi/pav/software/textext/">
 <defs>
  <marker id="e" overflow="visible" orient="auto">
   <path transform="matrix(-.4 0 0 -.4 -4 0)" d="m0 0 5-5-17.5 5 17.5 5z" fill-opacity=".34783" fill-rule="evenodd" stroke="#000" stroke-opacity=".34783" stroke-width="1pt"/>
  </marker>
  <marker id="Arrow1Mend" overflow="visible" orient="auto">
   <path transform="matrix(-.4 0 0 -.4 -4 0)" d="m0 0 5-5-17.5 5 17.5 5z" fill-opacity=".34783" fill-rule="evenodd" stroke="#000" stroke-opacity=".34783" stroke-width="1pt"/>
  </marker>
  <marker id="a" overflow="visible" orient="auto">
   <path transform="matrix(-.4 0 0 -.4 -4 0)" d="m0 0 5-5-17.5 5 17.5 5z" fill-opacity=".34783" fill-rule="evenodd" stroke="#000" stroke-opacity=".34783" stroke-width="1pt"/>
  </marker>
  <marker id="c" overflow="visible" orient="auto">
   <path transform="matrix(-.4 0 0 -.4 -4 0)" d="m0 0 5-5-17.5 5 17.5 5z" fill="#009600" fill-opacity=".72947" fill-rule="evenodd" stroke="#009600" stroke-opacity=".72947" stroke-width="1pt"/>
  </marker>
  <marker id="d" overflow="visible" orient="auto">
   <path transform="matrix(-.4 0 0 -.4 -4 0)" d="m0 0 5-5-17.5 5 17.5 5z" fill-rule="evenodd" stroke="#000" stroke-width="1pt"/>
  </marker>
  <marker id="g" overflow="visible" orient="auto">
   <path transform="matrix(-.4 0 0 -.4 -4 0)" d="m0 0 5-5-17.5 5 17.5 5z" fill-opacity=".2657" fill-rule="evenodd" stroke="#000" stroke-opacity=".54106" stroke-width="1pt"/>
  </marker>
  <marker id="f" overflow="visible" orient="auto">
   <path transform="matrix(-.4 0 0 -.4 -4 0)" d="m0 0 5-5-17.5 5 17.5 5z" fill-opacity=".2657" fill-rule="evenodd" stroke="#000" stroke-opacity=".54106" stroke-width="1pt"/>
  </marker>
  <marker id="b" overflow="visible" orient="auto">
   <path transform="matrix(-.4 0 0 -.4 -4 0)" d="m0 0 5-5-17.5 5 17.5 5z" fill="#009600" fill-opacity=".72947" fill-rule="evenodd" stroke="#009600" stroke-opacity=".72947" stroke-width="1pt"/>
  </marker>
 </defs>
 <g transform="translate(-32.377 -47.605)">
  <path d="m63.477 115.12 48.244-57.791" fill="none" marker-end="url(#d)" stroke="#000" stroke-width=".58544"/>
  <g stroke="#000">
   <path d="m63.502 115.24 20.605 8.992" fill-opacity=".2657" marker-end="url(#g)" stroke-opacity=".54106" stroke-width=".79"/>
   <g transform="matrix(.88627 1.4175 1.3202 -.95159 -1057.1 561.69)" fill-rule="evenodd" stroke-miterlimit="10.433" ns0:preamble="default_packages.tex" ns0:text="$\\text{Observed} \\mathbf{y}$\n" xml:space="preserve"><path d="m166.76 757.47-5e-3 0.0128-4e-3 8e-3 -8.6e-4 5e-3 -3e-3 3e-3 -8.4e-4 5e-3 -8.7e-4 5e-3 -8.5e-4 5e-3 -8.7e-4 5e-3 -8.4e-4 5e-3 -8.6e-4 5e-3 -8.7e-4 5e-3 4e-3 5e-3 -8.6e-4 5e-3 8.8e-4 8e-3 4e-3 5e-3 8.8e-4 8e-3 4e-3 5e-3 4e-3 0.0101 4e-3 5e-3 9e-4 8e-3 3e-3 3e-3 4e-3 5e-3 3e-3 3e-3 4e-3 5e-3 8.9e-4 8e-3 4e-3 5e-3 3e-3 3e-3 0.012 0.015 6e-3 9e-3 4e-3 5e-3 8.8e-4 8e-3 4e-3 5e-3 6e-3 9e-3 4e-3 5e-3 0.012 0.018 4e-3 5e-3 0.012 0.018-0.13886 0.0949c-0.0423-0.0752-0.10029-0.16555-0.14878-0.23644-0.0506-0.0739-0.14756-0.20263-0.19296-0.26262l0.13885-0.0949c4e-3 5e-3 0.0949 0.13887 0.13042 0.11465 3e-3 -3e-3 0.0243-0.034 0.0252-0.0391l0.48809-0.83297-1.0483 0.16679 0.10935 0.15935-0.13886 0.0949c-0.0609-0.10168-0.23988-0.3693-0.23988-0.3693-0.0567-0.0827-0.15375-0.21138-0.2394-0.33059l0.13887-0.0949 0.12895 0.18932 1.5397-0.2473 0.0953-0.16498c0.0974-0.16198 0.23046-0.39198 0.0888-0.59874-0.0283-0.0413-0.0351-0.0454-0.0603-0.0628 8e-3 0.0346 0.0145 0.12882-0.0888 0.1996-0.0971 0.067-0.21682 0.0443-0.28566-0.0557-0.0567-0.0827-0.0591-0.20675 0.0558-0.28566 0.14765-0.10105 0.36378-0.0453 0.48508 0.13203 0.1537 0.22441 0.0909 0.51908-0.0235 0.71402z" stroke-width="0"/></g>
   <g transform="matrix(.40748 0 0 -.40748 81.417 360.88)" fill-rule="evenodd" stroke-miterlimit="10.433" stroke-width="0" ns0:preamble="default_packages.tex" ns0:text="$\\mathcal{C}(X)$\n" xml:space="preserve"><path d="m150.2 706.08v0.0279l-0.0139 0.0139v0.014l-0.014 0.014v0.0139h-0.028v0.014h-0.084c-0.23846 0-0.57509-0.2104-0.58912-0.2104-0.28053-0.16832-0.33664-0.2665-0.50496-0.50495-0.43482-0.65925-1.052-1.1362-1.9637-1.1362-1.2484 0-2.3845 0.91172-2.3845 3.0017 0 1.2484 0.50496 2.9175 1.2484 4.0116 0.61716 0.8977 1.3606 1.613 2.8053 1.613 0.53301 0 0.86964-0.19636 0.86964-0.70132 0-0.49093-0.51898-1.4868-0.6873-1.7674-0.0842-0.15429-0.0842-0.16831-0.0842-0.21039 0-0.0982 0.0702-0.0982 0.15429-0.0982 0.28053 0 0.79951 0.30858 0.96783 0.53301 0.028 0.0561 0.84159 1.4307 0.84159 2.132 0 0.77145-0.6312 0.88366-1.1361 0.88366-2.0338 0-3.689-1.3325-4.3342-2.104-1.6692-2.0058-1.8375-4.1659-1.8375-4.8953 0-2.0338 1.038-3.156 2.665-3.156 2.2442 0 4.1098 2.1741 4.1098 2.5108z"/><path d="m156.06 700.55v0.0419h-0.014v0.0279h-0.014v0.014h-0.0139v0.014l-0.014 0.014v0.014h-0.014v0.0139h-0.014v0.014h-0.014v0.0139h-0.014v0.014h-0.014v0.0139h-0.014v0.014l-0.014 0.0139-0.0139 0.014-0.014 0.014-0.014 0.0139-0.042 0.042c-1.7533 1.7533-2.2022 4.3903-2.2022 6.5223 0 2.4266 0.53301 4.8532 2.2583 6.5924 0.18234 0.16833 0.18234 0.19638 0.18234 0.23845 0 0.0982-0.056 0.14027-0.14026 0.14027-0.14026 0-1.4026-0.9538-2.2302-2.7212-0.70132-1.5289-0.86964-3.0858-0.86964-4.25 0-1.0941 0.1543-2.7772 0.91172-4.3482 0.8416-1.7112 2.0479-2.623 2.1881-2.623 0.0842 0 0.14026 0.0421 0.14026 0.14027z"/><path d="m163.65 709.63-1.1782 2.7632c-0.0421 0.11222-0.0702 0.16833-0.0702 0.18235 0 0.0842 0.23846 0.35066 0.82756 0.40676 0.14027 0.014 0.28054 0.0281 0.28054 0.26652 0 0.16832-0.16831 0.16832-0.2104 0.16832-0.57508 0-1.1782-0.0421-1.7673-0.0421-0.35066 0-1.2063 0.0421-1.5569 0.0421-0.0842 0-0.25248 0-0.25248-0.28054 0-0.1543 0.14027-0.1543 0.32262-0.1543 0.82756 0 0.92575-0.14025 1.052-0.44883l1.6411-3.8854-2.9456-3.156-0.18235-0.1543c-0.6873-0.7434-1.3466-0.96782-2.0619-1.0099-0.18234-0.014-0.30858-0.014-0.30858-0.28053 0-0.014 0-0.14027 0.18235-0.14027 0.42079 0 0.88367 0.0421 1.3185 0.0421 0.51899 0 1.066-0.0421 1.571-0.0421 0.0842 0 0.25248 0 0.25248 0.2665 0 0.14027-0.14028 0.1543-0.16833 0.1543-0.12623 0.0139-0.56106 0.0421-0.56106 0.43482 0 0.22442 0.21041 0.44884 0.37872 0.63119l1.4167 1.5008 1.2624 1.3606 1.4167-3.3243c0.0561-0.15428 0.0702-0.16831 0.0702-0.19637 0-0.11221-0.2665-0.35066-0.81353-0.40676-0.15428-0.014-0.28053-0.028-0.28053-0.26651 0-0.15429 0.15429-0.15429 0.21039-0.15429 0.39274 0 1.3746 0.0421 1.7674 0.0421 0.35066 0 1.1922-0.0421 1.5429-0.0421 0.0982 0 0.2665 0 0.2665 0.25247 0 0.16833-0.14027 0.16833-0.25249 0.16833-0.92574 0.0139-0.96782 0.0561-1.2063 0.61716-0.53301 1.2904-1.4728 3.4646-1.7954 4.3061 0.95379 0.98185 2.4126 2.637 2.8614 3.0157 0.40677 0.33664 0.93978 0.67328 1.7814 0.71534 0.18234 0.014 0.30858 0.014 0.30858 0.28054 0 0.014 0 0.1543-0.18235 0.1543-0.42078 0-0.88366-0.0421-1.3185-0.0421-0.51898 0-1.052 0.0421-1.5429 0.0421-0.0842 0-0.26651 0-0.26651-0.28054 0-0.0982 0.0702-0.14026 0.15429-0.1543 0.12623-0.0139 0.56106-0.0421 0.56106-0.4348 0-0.18236-0.14026-0.3647-0.25248-0.49094z"/><path d="m173.58 707.38v0.43484l-0.014 0.23845-0.014 0.23844-0.0281 0.25248-0.028 0.2665-0.0421 0.28054-0.0421 0.28052-0.0561 0.28054-0.0702 0.29456-0.0702 0.29455-0.0842 0.29455-0.0982 0.29457-0.11221 0.29454-0.056 0.1543-0.0702 0.15428-0.0702 0.14028-0.0702 0.15429c-0.84159 1.7112-2.0338 2.623-2.1741 2.623-0.0842 0-0.14028-0.056-0.14028-0.14027 0-0.0421 0-0.0702 0.26651-0.32261 1.3606-1.3886 2.1601-3.6048 2.1601-6.5083 0-2.3845-0.51898-4.8392-2.2442-6.5925-0.18235-0.16833-0.18235-0.19638-0.18235-0.23845 0-0.0842 0.0561-0.14028 0.14028-0.14028 0.14026 0 1.3886 0.95381 2.2162 2.7212 0.71536 1.5289 0.88366 3.0718 0.88366 4.25z"/></g>
  </g>
  <path d="m63.478 115.13 48.303-6.908" fill="none" marker-end="url(#c)" stroke="#009600" stroke-opacity=".72947" stroke-width=".7201"/>
  <ellipse cx="63.5" cy="115.09" rx=".47247" ry=".46066" stroke="#000" stroke-linecap="square" stroke-linejoin="bevel" stroke-width=".463"/>
  <g fill="none" stroke="#000" stroke-opacity=".34783" stroke-width=".8">
   <path d="m43.108 147.7-9.8596 14.858" marker-end="url(#e)"/>
   <path d="m63.294 90.049 1.37e-4 -40.867" marker-end="url(#a)"/>
   <path d="m150.66 115.13h21.565" marker-end="url(#Arrow1Mend)"/>
  </g>
  <path d="m108.67 108.89-3.2e-4 -4.5856 3.9886-1.0459 0.0351 4.733c-1.2844 0.32299-2.7843 0.6579-4.0234 0.89851z" fill-opacity=".37198" stroke="#000" stroke-opacity=".51691" stroke-width=".26458px"/>
  <g fill="none" stroke="#000">
   <g>
    <path d="m37.627 149.15 112.66-30.302" stroke-width=".5"/>
    <path d="m153.41 66.205-3.2502 52.88" stroke-width=".365"/>
    <path d="m40.932 96.045-3.305 53.109" stroke-width=".365"/>
   </g>
   <path d="m40.877 96.273 112.61-30.174" stroke-width=".26458px"/>
   <g stroke-opacity=".15942" stroke-width=".765">
    <path d="m63.478 115.13h87.059"/>
    <path d="m63.294 90.049v24.427"/>
    <path d="m43.069 147.87 20.41-32.74"/>
   </g>
  </g>
  <g fill-opacity=".2657" stroke="#000" stroke-opacity=".54106">
   <path d="m63.477 115.12 38.343-15.081" marker-end="url(#f)" stroke-width=".79"/>
   <path d="m85.149 124.73 26.572-67.394" stroke-width=".79"/>
   <path d="m102.87 99.408 8.8467-42.076" stroke-width=".79"/>
  </g>
  <path d="m112.69 107.99-0.24282-50.121" fill="none" marker-end="url(#b)" stroke="#009600" stroke-opacity=".72947" stroke-width=".7201"/>
  <g transform="matrix(.53549 0 0 -.53549 -41.504 400.27)" fill-rule="evenodd" stroke="#000" stroke-miterlimit="10.433" stroke-width="0" ns0:preamble="default_packages.tex" ns0:text="$$\\mathbf{y}_1 \\mathbf{y}_2 \\mathbf{y})_{\\text{proj}} \\mathbf{y}_\\perp$$\n" xml:space="preserve"><g fill-opacity=".6715"><path d="m282.61 594.03 0.03 0.06 0.01 0.01v0.01l0.03 0.03h0.01l0.01 0.01 0.02 0.01 0.01 0.01h0.02l0.01 0.01 0.02 0.01h0.02l0.03 0.01h0.02l0.03 0.01h0.03l0.01 0.01h0.09l0.02 0.01h0.31v0.47c-0.23-0.02-0.53-0.03-0.78-0.03s-0.7 0.02-0.91 0.03v-0.47c0.02 0 0.47 0 0.47-0.12 0-0.01-0.04-0.1-0.05-0.11l-1.15-2.45-1.27 2.68h0.54v0.47c-0.32-0.02-1.22-0.03-1.23-0.03-0.28 0-0.73 0.02-1.14 0.03v-0.47h0.64l1.86-3.94-0.23-0.48c-0.22-0.47-0.54-1.15-1.24-1.15-0.14 0-0.16 0.01-0.24 0.04 0.09 0.04 0.32 0.18 0.32 0.53 0 0.32-0.24 0.56-0.58 0.56-0.28 0-0.57-0.19-0.57-0.57 0-0.51 0.47-0.92 1.07-0.92 0.77 0 1.34 0.62 1.61 1.18z"/><path d="m285.95 593.22v0.1l-0.01 0.01v0.03l-0.01 0.01v0.01h-0.01v0.01h-0.01l-0.01 0.01h-0.02v0.01h-0.14c-0.45-0.44-1.08-0.44-1.37-0.44v-0.25c0.17 0 0.63 0 1.01 0.19v-3.54c0-0.23 0-0.32-0.7-0.32h-0.26v-0.25c0.13 0 0.98 0.02 1.24 0.02 0.22 0 1.1-0.02 1.26-0.02v0.25h-0.27c-0.7 0-0.7 0.09-0.7 0.32z"/><path d="m254.5 581.31 0.02 0.02 0.02 0.04v0.01l0.04 0.04h0.01l0.02 0.02 0.02 0.01h0.01l0.04 0.02h0.02l0.02 0.01h0.03l0.02 0.01h0.03l0.02 0.01h0.08l0.02 0.01h0.32v0.47c-0.24-0.02-0.54-0.03-0.79-0.03s-0.7 0.02-0.9 0.03v-0.47c0.01 0 0.46 0 0.46-0.12 0-0.01-0.04-0.1-0.05-0.11l-1.14-2.45-1.27 2.68h0.54v0.47c-0.33-0.02-1.23-0.03-1.24-0.03-0.28 0-0.73 0.02-1.13 0.03v-0.47h0.63l1.87-3.94-0.23-0.48c-0.22-0.47-0.54-1.15-1.25-1.15-0.14 0-0.16 0.01-0.24 0.04 0.09 0.04 0.32 0.18 0.32 0.53 0 0.32-0.24 0.56-0.57 0.56-0.28 0-0.57-0.19-0.57-0.57 0-0.51 0.47-0.92 1.06-0.92 0.77 0 1.35 0.62 1.62 1.18z"/><path d="m259.03 577.34h-0.23c-0.02-0.15-0.09-0.56-0.18-0.63-0.06-0.04-0.6-0.04-0.7-0.04h-1.28c0.73 0.64 0.98 0.84 1.39 1.16 0.52 0.42 1 0.85 1 1.51 0 0.84-0.74 1.35-1.63 1.35-0.87 0-1.46-0.6-1.46-1.24 0-0.36 0.31-0.39 0.37-0.39 0.17 0 0.38 0.12 0.38 0.37 0 0.12-0.05 0.37-0.42 0.37 0.22 0.49 0.7 0.64 1.02 0.64 0.7 0 1.07-0.54 1.07-1.1 0-0.61-0.44-1.09-0.66-1.34l-1.69-1.65c-0.07-0.06-0.07-0.08-0.07-0.27h2.89z"/></g><g fill="#009600"><g><path d="m257.25 537.85 0.03 0.06 0.02 0.02v0.01l0.02 0.02h0.01l0.02 0.01 0.02 0.02h0.02l0.02 0.01 0.01 0.01h0.02l0.03 0.01h0.02l0.03 0.01h0.03l0.01 0.01h0.09l0.02 0.01h0.32v0.47c-0.24-0.02-0.54-0.03-0.79-0.03s-0.7 0.02-0.91 0.03v-0.47c0.02 0 0.47 0 0.47-0.12 0-0.01-0.04-0.1-0.05-0.11l-1.15-2.45-1.26 2.68h0.54v0.47c-0.33-0.02-1.23-0.03-1.24-0.03-0.28 0-0.73 0.02-1.14 0.03v-0.47h0.64l1.87-3.94-0.23-0.48c-0.22-0.47-0.54-1.15-1.25-1.15-0.14 0-0.16 0.01-0.24 0.04 0.09 0.04 0.32 0.18 0.32 0.53 0 0.32-0.24 0.56-0.58 0.56-0.28 0-0.57-0.19-0.57-0.57 0-0.51 0.47-0.92 1.07-0.92 0.77 0 1.35 0.62 1.61 1.18z"/><path d="m258.3 529.42h-0.3l-0.03 0.01h-0.04l-0.02 0.01h-0.02l-0.01 0.01h-0.02l-0.06 0.06v0.02l-0.01 0.01v0.02l-0.01 0.02v0.04l-0.01 0.02v1.21c0.04-0.04 0.37-0.4 0.95-0.4l-0.04 0.19c-0.61 0-0.89 0.54-0.91 0.58v1.61c0.21 0.35 0.62 0.53 0.99 0.53 0.59 0 1.04-0.61 1.04-1.34 0-0.79-0.52-1.38-1.12-1.38l0.04-0.19c0.93 0 1.72 0.68 1.72 1.57 0 0.85-0.72 1.56-1.61 1.56-0.39 0-0.8-0.14-1.09-0.42v0.42l-1.04-0.07v-0.25c0.48 0 0.52-0.04 0.52-0.33v-3.21c0-0.3-0.07-0.3-0.52-0.3v-0.25c0.01 0 0.5 0.02 0.79 0.02 0.26 0 0.74-0.02 0.81-0.02z"/><path d="m262.14 532.1 0.01 0.06v0.11l0.01 0.05 0.01 0.06v0.06l0.02 0.05 0.01 0.06 0.01 0.05 0.02 0.06 0.02 0.05 0.02 0.06 0.04 0.1 0.03 0.05 0.02 0.04 0.03 0.05 0.03 0.04 0.04 0.05 0.03 0.04 0.04 0.03 0.04 0.04 0.04 0.03 0.05 0.03 0.04 0.03 0.15 0.06 0.06 0.01 0.05 0.01 0.06 0.01h0.06c-0.06-0.05-0.12-0.14-0.12-0.25 0-0.23 0.18-0.32 0.32-0.32 0.17 0 0.32 0.11 0.32 0.32 0 0.23-0.22 0.44-0.55 0.44-0.35 0-0.74-0.21-0.95-0.74v0.74l-1-0.07v-0.25c0.46 0 0.52-0.05 0.52-0.39v-1.81c0-0.29-0.07-0.29-0.52-0.29v-0.25c0.03 0 0.51 0.02 0.79 0.02 0.3 0 0.61-0.01 0.91-0.02v0.25h-0.14c-0.52 0-0.52 0.07-0.52 0.31z"/><path d="m267.57 532-0.01 0.08v0.08l-0.01 0.08-0.02 0.08-0.02 0.07-0.02 0.08-0.03 0.07-0.03 0.08-0.03 0.07-0.08 0.14-0.04 0.06-0.05 0.07-0.1 0.12-0.06 0.05-0.06 0.06-0.12 0.1-0.07 0.04-0.07 0.05-0.07 0.04-0.08 0.03-0.07 0.04-0.08 0.03-0.16 0.04-0.09 0.02-0.08 0.02-0.09 0.01h-0.09l-0.09 0.01v-0.2c0.42 0 0.71-0.19 0.86-0.41 0.2-0.27 0.22-0.62 0.22-0.95s-0.02-0.7-0.23-0.99c-0.18-0.26-0.5-0.4-0.85-0.4-0.26 0-0.63 0.08-0.87 0.42-0.18 0.29-0.21 0.65-0.21 0.97 0 0.3 0.01 0.71 0.26 1.01 0.17 0.2 0.47 0.35 0.82 0.35v0.2c-0.96 0-1.71-0.75-1.71-1.62s0.77-1.55 1.71-1.55c0.95 0 1.72 0.68 1.72 1.55z"/></g><path d="m269.97 534.8v0.04l-0.01 0.03v0.04l-0.02 0.04v0.02l-0.01 0.01-0.02 0.04-0.04 0.04-0.01 0.02-0.04 0.04-0.02 0.01-0.01 0.01-0.04 0.02-0.01 0.01h-0.02l-0.04 0.02h-0.02l-0.01 0.01h-0.08c-0.24 0-0.4-0.19-0.4-0.39 0-0.25 0.19-0.41 0.39-0.41 0.25 0 0.41 0.2 0.41 0.4z" fill-opacity=".72941"/><g><path d="m268.86 533.51v-0.25c0.52 0 0.59-0.05 0.59-0.39v-2.69c0-0.26-0.06-0.89-0.53-0.89-0.02 0-0.19 0-0.35 0.07 0.01 0.01 0.18 0.09 0.18 0.3 0 0.19-0.14 0.33-0.33 0.33-0.21 0-0.34-0.14-0.34-0.34 0-0.37 0.42-0.55 0.85-0.55 0.56 0 1.04 0.44 1.04 1.1v3.38z"/><path d="m296.4 593.42 0.01 0.02 0.02 0.02v0.02l0.03 0.03v0.01l0.01 0.01h0.02l0.03 0.03h0.02l0.04 0.02h0.02l0.02 0.01h0.02l0.03 0.01h0.03l0.01 0.01h0.09l0.02 0.01h0.32v0.47c-0.24-0.02-0.54-0.03-0.79-0.03s-0.7 0.02-0.91 0.03v-0.47c0.02 0 0.47 0 0.47-0.12 0-0.01-0.04-0.1-0.05-0.11l-1.14-2.45-1.27 2.68h0.54v0.47c-0.33-0.02-1.23-0.03-1.24-0.03-0.28 0-0.73 0.02-1.14 0.03v-0.47h0.64l1.87-3.94-0.23-0.48c-0.22-0.47-0.54-1.15-1.25-1.15-0.14 0-0.16 0.01-0.24 0.04 0.09 0.04 0.32 0.18 0.32 0.53 0 0.32-0.24 0.56-0.58 0.56-0.28 0-0.57-0.19-0.57-0.57 0-0.51 0.47-0.92 1.07-0.92 0.77 0 1.35 0.62 1.62 1.18z"/><path d="m300.7 592.74v0.01l-0.01 0.01v0.11l-0.01 0.01v0.03l-0.01 0.01v0.02h-0.01l-0.01 0.01v0.01l-0.02 0.02h-0.01v0.01h-0.01l-0.01 0.01h-0.02v0.01h-0.05c-0.18 0-0.18-0.16-0.18-0.27v-4.21h-2.13c-0.11 0-0.28 0-0.28-0.17s0.16-0.17 0.28-0.17h4.61c0.11 0 0.28 0 0.28 0.16 0 0.18-0.16 0.18-0.28 0.18h-2.13z"/><path d="m234.06 460.05 0.0106 0.0213 0.0213 0.0213v0.0213l0.0212 0.0212 0.0107 0.0106v0.0106l0.0106 0.0106h0.0213l0.0318 0.0318h0.0213l0.0426 0.0212h0.0213l0.0213 0.0106h0.0213l0.0319 0.0106h0.0319l0.0106 0.0106h0.0958l0.0213 0.0106h0.3405v0.50033c-0.25553-0.0213-0.57489-0.0319-0.84103-0.0319-0.26613 0-0.74518 0.0213-0.96873 0.0319v-0.50033c0.0213 0 0.50034 0 0.50034-0.12774 0-0.0106-0.0426-0.10646-0.0532-0.1171l-1.2136-2.6081-1.352 2.853h0.57486v0.50033c-0.3513-0.0213-1.3094-0.0319-1.32-0.0319-0.29807 0-0.77711 0.0213-1.2136 0.0319v-0.50033h0.6813l1.9907-4.1943-0.24485-0.51098c-0.2342-0.50034-0.57485-1.2242-1.3307-1.2242-0.14904 0-0.17033 0.0106-0.25549 0.0426 0.0958 0.0426 0.34065 0.19161 0.34065 0.5642 0 0.34066-0.25549 0.59615-0.61744 0.59615-0.29807 0-0.60678-0.20227-0.60678-0.60679 0-0.54292 0.50033-0.97938 1.1391-0.97938 0.81969 0 1.4371 0.66002 1.7246 1.2562z" fill-rule="evenodd" stroke-miterlimit="10.433"/><path d="m238.64 459.33v0.0106l-0.0106 0.0106v0.1169l-0.0106 0.0106v0.0319l-0.0106 0.0106v0.0212h-0.0106l-0.0106 0.0107v0.0106l-0.0212 0.0212h-0.0106v0.0106h-0.0106l-0.0106 0.0106h-0.0212v0.0106h-0.053c-0.19162 0-0.19162-0.17033-0.19162-0.28743v-4.4817h-2.2675c-0.1171 0-0.29807 0-0.29807-0.18098 0-0.18097 0.17032-0.18097 0.29807-0.18097h4.9075c0.1171 0 0.29808 0 0.29808 0.17033 0 0.19162-0.17033 0.19162-0.29808 0.19162h-2.2675z" fill-rule="evenodd" stroke-miterlimit="10.433"/></g></g><g fill-rule="evenodd" stroke-miterlimit="10.433"><g fill-opacity=".6715"><path d="m270.29 460.01 0.0318 0.0639 0.0106 0.0106v0.0106l0.0106 0.0106 0.0106 0.0107 0.0106 0.0106h0.0106l0.0106 0.0106 0.0213 0.0106 0.0106 0.0106h0.0213l0.0106 0.0106 0.0213 0.0106h0.0213l0.0319 0.0106h0.0213l0.0319 0.0106h0.0319l0.0106 0.0106h0.0958l0.0213 0.0106h0.3299v0.50034c-0.24489-0.0213-0.56425-0.0319-0.83039-0.0319-0.26613 0-0.74518 0.0213-0.96873 0.0319v-0.50034c0.0213 0 0.50033 0 0.50033-0.12774 0-0.0106-0.0426-0.10646-0.0532-0.1171l-1.2242-2.6081-1.352 2.853h0.57485v0.50034c-0.34065-0.0213-1.2987-0.0319-1.3094-0.0319-0.29807 0-0.77711 0.0213-1.2136 0.0319v-0.50034h0.6813l1.98-4.1943-0.24485-0.51098c-0.23419-0.50034-0.57485-1.2242-1.32-1.2242-0.14903 0-0.17032 0.0106-0.25549 0.0426 0.0958 0.0426 0.34066 0.19162 0.34066 0.5642 0 0.34066-0.25549 0.59615-0.61744 0.59615-0.29807 0-0.60679-0.20227-0.60679-0.60679 0-0.54292 0.50034-0.97938 1.1391-0.97938 0.8197 0 1.4265 0.66002 1.7139 1.2562z"/><path d="m273.85 459.15v0.106l-0.0106 0.0106v0.0318l-0.0106 0.0106v0.0106h-0.0106v0.0106h-0.0106l-0.0106 0.0106h-0.0212v0.0106h-0.1484c-0.47905-0.4684-1.1497-0.4684-1.4584-0.4684v-0.26614c0.18098 0 0.67067 0 1.0752 0.20227v-3.7685c0-0.24484 0-0.34065-0.74518-0.34065h-0.27678v-0.26614c0.13839 0 1.0432 0.0213 1.32 0.0213 0.2342 0 1.171-0.0213 1.3413-0.0213v0.26614h-0.28742c-0.74518 0-0.74518 0.0958-0.74518 0.34065z"/><path d="m304.09 459.99 0.0213 0.0213 0.0212 0.0426v0.0106l0.0424 0.0424h0.0106l0.0107 0.0106 0.0106 0.0106 0.0213 0.0106h0.0106l0.0426 0.0212h0.0213l0.0213 0.0106h0.0319l0.0213 0.0106h0.0319l0.0213 0.0106h0.0851l0.0213 0.0106h0.3405v0.50034c-0.25549-0.0213-0.57486-0.0319-0.84099-0.0319-0.26614 0-0.74518 0.0213-0.95809 0.0319v-0.50034c0.0106 0 0.48969 0 0.48969-0.12774 0-0.0106-0.0426-0.10646-0.0532-0.1171l-1.2136-2.6081-1.352 2.853h0.57485v0.50033c-0.3513-0.0213-1.3094-0.0319-1.32-0.0319-0.29807 0-0.77712 0.0213-1.2029 0.0319v-0.50033h0.67066l1.9907-4.1943-0.24485-0.51098c-0.23419-0.50034-0.57485-1.2242-1.3307-1.2242-0.14904 0-0.17033 0.0106-0.25549 0.0426 0.0958 0.0426 0.34065 0.19161 0.34065 0.5642 0 0.34066-0.25549 0.59615-0.60679 0.59615-0.29807 0-0.60679-0.20227-0.60679-0.60679 0-0.54292 0.50034-0.97938 1.1284-0.97938 0.81969 0 1.4371 0.66002 1.7246 1.2562z"/><path d="m308.92 455.76h-0.24485c-0.0213-0.15968-0.0958-0.59614-0.19161-0.67066-0.0639-0.0426-0.63873-0.0426-0.74518-0.0426h-1.3626c0.77712 0.68131 1.0432 0.89422 1.4797 1.2349 0.55356 0.44711 1.0645 0.90486 1.0645 1.6075 0 0.89421-0.78776 1.4371-1.7352 1.4371-0.92616 0-1.5542-0.63873-1.5542-1.32 0-0.38324 0.33001-0.41518 0.39389-0.41518 0.18097 0 0.40452 0.12775 0.40452 0.39389 0 0.12774-0.0532 0.39388-0.44711 0.39388 0.2342 0.52162 0.74518 0.6813 1.0858 0.6813 0.74517 0 1.139-0.57485 1.139-1.171 0-0.64937-0.46839-1.1604-0.70259-1.4265l-1.7991-1.7565c-0.0745-0.0639-0.0745-0.0852-0.0745-0.28743h3.0765z"/></g><g id="content" transform="matrix(1.5 0 0 -1.5 -387.46 1104.6)" stroke="#000" ns0:preamble="default_packages.tex" ns0:text="$$\\leq ||$$\n" xml:space="preserve"><path d="m429.92 434.13 0.0213 0.0107h0.0106l0.0106 0.0106h0.0106l0.0106 0.0106h0.0106l0.0212 0.0212h0.0106l0.0106 0.0106v0.0106h0.0106l0.0106 0.0106h0.0106v0.0106l0.0212 0.0212v0.0106l0.0106 0.0106v0.0106l0.0106 0.0106v0.0212l0.0106 0.0106v0.0425c0 0.1171-0.0852 0.21291-0.21291 0.21291-0.0532 0-0.14904-0.0426-0.19162-0.0639l-5.8656-2.7572c-0.18097-0.0852-0.21291-0.15968-0.21291-0.24485 0-0.0958 0.0532-0.17032 0.21291-0.2342l5.8656-2.7465c0.13839-0.0745 0.15968-0.0745 0.19162-0.0745 0.1171 0 0.21291 0.0958 0.21291 0.20226 0 0.0958-0.0426 0.15968-0.22355 0.24485l-5.5569 2.6081z"/><path d="m409.63 436.18v0.1809l-0.0106 0.0106v0.0425l-0.0106 0.0213v0.0106l-0.0106 0.0106v0.0106l-0.0212 0.0212v0.0106l-0.0424 0.0424h-0.0106l-0.0106 0.0106h-0.0318l-0.0106 0.0106h-0.053c-0.21291 0-0.21291-0.19162-0.21291-0.38324v-9.8151c0-0.19161 0-0.37259 0.21291-0.37259s0.21291 0.18098 0.21291 0.37259z"/><path d="m408.14 436.29v0.1596l-0.0106 0.0213v0.0426l-0.0106 0.0106v0.0213l-0.0106 0.0106v0.0106l-0.0106 0.0106v0.0106l-0.0212 0.0212v0.0106l-0.0212 0.0212-0.0213 0.0106h-0.0106v0.0106h-0.0318l-0.0107 0.0107h-0.053c-0.21291 0-0.21291-0.19162-0.21291-0.38324v-9.8151c0-0.19162 0-0.37259 0.21291-0.37259 0.2129 0 0.2129 0.18097 0.2129 0.37259z"/><g fill-rule="evenodd" stroke-miterlimit="10.433"><path d="m422.19 436.66v0.1809l-0.0106 0.0106v0.0425l-0.0106 0.0213v0.0106l-0.0106 0.0106v0.0106l-0.0212 0.0212v0.0106l-0.0424 0.0424h-0.0106l-0.0106 0.0106h-0.0318l-0.0106 0.0106h-0.053c-0.21291 0-0.21291-0.19162-0.21291-0.38324v-9.8151c0-0.19162 0-0.37259 0.21291-0.37259s0.21291 0.18097 0.21291 0.37259z"/><path d="m420.67 436.72v0.1596l-0.0106 0.0213v0.0425l-0.0106 0.0106v0.0213l-0.0106 0.0106v0.0106l-0.0106 0.0106v0.0106l-0.0212 0.0212v0.0106l-0.0212 0.0212-0.0213 0.0106h-0.0106v0.0106h-0.0319l-0.0106 0.0106h-0.053c-0.21291-2e-5 -0.21291-0.19164-0.21291-0.38326v-9.8151c0-0.19162 0-0.37259 0.21291-0.37259s0.21291 0.18097 0.21291 0.37259z"/><path d="m433.16 436.39v0.1809l-0.0106 0.0106v0.0425l-0.0106 0.0213v0.0106l-0.0106 0.0106v0.0106l-0.0212 0.0212v0.0106l-0.0424 0.0424h-0.0106l-0.0106 0.0106h-0.0318l-0.0106 0.0106h-0.053c-0.21291 0-0.21291-0.19162-0.21291-0.38324v-9.8151c0-0.19162 0-0.37259 0.21291-0.37259s0.21291 0.18097 0.21291 0.37259z"/><path d="m431.65 436.45v0.1596l-0.0106 0.0213v0.0425l-0.0107 0.0106v0.0213l-0.0106 0.0106v0.0106l-0.0106 0.0106v0.0106l-0.0212 0.0212v0.0106l-0.0212 0.0212-0.0213 0.0106h-0.0106v0.0106h-0.0318l-0.0106 0.0106h-0.0531c-0.2129-5e-5 -0.2129-0.19166-0.2129-0.38328v-9.8151c0-0.19162 0-0.37259 0.2129-0.37259 0.21291 0 0.21291 0.18097 0.21291 0.37259z"/><path d="m444.41 436.76v0.1809l-0.0106 0.0106v0.0425l-0.0106 0.0213v0.0106l-0.0106 0.0106v0.0106l-0.0212 0.0212v0.0106l-0.0424 0.0424h-0.0106l-0.0106 0.0106h-0.0318l-0.0106 0.0106h-0.053c-0.21291 0-0.21291-0.19162-0.21291-0.38324v-9.8151c0-0.19162 0-0.37259 0.21291-0.37259s0.21291 0.18097 0.21291 0.37259z"/><path d="m442.9 436.82v0.1596l-0.0106 0.0213v0.0425l-0.0106 0.0106v0.0213l-0.0106 0.0106v0.0106l-0.0106 0.0106v0.0106l-0.0212 0.0212v0.0106l-0.0212 0.0212-0.0213 0.0106h-0.0106v0.0106h-0.0318l-0.0106 0.0106h-0.053c-0.2129-5e-5 -0.2129-0.19166-0.2129-0.38328v-9.8151c0-0.19162 0-0.37259 0.2129-0.37259 0.21291 0 0.21291 0.18097 0.21291 0.37259z"/><path d="m456.01 436.09v0.1809l-0.0106 0.0106v0.0425l-0.0106 0.0213v0.0106l-0.0106 0.0106v0.0106l-0.0106 0.0106-0.0107 0.0106v0.0106l-0.0424 0.0424h-0.0106l-0.0106 0.0106h-0.0318l-0.0106 0.0106h-0.053c-0.21291 0-0.21291-0.19162-0.21291-0.38324v-9.8151c0-0.19162 0-0.37259 0.21291-0.37259s0.21291 0.18097 0.21291 0.37259z"/><path d="m454.49 436.15v0.1596l-0.0106 0.0213v0.0425l-0.0106 0.0106v0.0213l-0.0106 0.0106v0.0106l-0.0106 0.0106v0.0106l-0.0212 0.0212v0.0106l-0.0212 0.0212-0.0213 0.0106h-0.0106v0.0106h-0.0318l-0.0106 0.0106h-0.053c-0.21291-7e-5 -0.21291-0.19168-0.21291-0.3833v-9.8151c0-0.19162 0-0.37259 0.21291-0.37259 0.2129 0 0.2129 0.18097 0.2129 0.37259z"/><path d="m467.26 436.46v0.1809l-0.0106 0.0106v0.0425l-0.0106 0.0213v0.0106l-0.0106 0.0106v0.0106l-0.0212 0.0212v0.0106l-0.0106 0.0106-0.0107 0.0106-0.0212 0.0212h-0.0106l-0.0106 0.0106h-0.0318l-0.0106 0.0106h-0.053c-0.21291 0-0.21291-0.19162-0.21291-0.38324v-9.8151c0-0.19162 0-0.37259 0.21291-0.37259s0.21291 0.18097 0.21291 0.37259z"/><path d="m465.75 436.52v0.1596l-0.0106 0.0213v0.0425l-0.0106 0.0106v0.0213l-0.0106 0.0106v0.0106l-0.0106 0.0106v0.0106l-0.0212 0.0212v0.0106l-0.0212 0.0212-0.0213 0.0106h-0.0106v0.0106h-0.0318l-0.0106 0.0106h-0.053c-0.21291-5e-5 -0.21291-0.19166-0.21291-0.38328v-9.8151c0-0.19162 0-0.37259 0.21291-0.37259s0.21291 0.18097 0.21291 0.37259z"/><path d="m452.29 434.35 0.0213 0.0106h0.0106l0.0106 0.0106h0.0106l0.0106 0.0106h0.0106l0.0212 0.0212h0.0106l0.0106 0.0106v0.0106h0.0106l0.0106 0.0106h0.0106v0.0106l0.0212 0.0212v0.0106l0.0106 0.0106v0.0106l0.0106 0.0106v0.0212l0.0106 0.0106v0.0424c0 0.1171-0.0852 0.21291-0.21291 0.21291-0.0532 0-0.14904-0.0426-0.19162-0.0639l-5.8656-2.7572c-0.18097-0.0852-0.21291-0.15968-0.21291-0.24484 0-0.0958 0.0532-0.17033 0.21291-0.2342l5.8656-2.7465c0.13839-0.0745 0.15968-0.0745 0.19162-0.0745 0.1171 0 0.21291 0.0958 0.21291 0.20226 0 0.0958-0.0426 0.15968-0.22356 0.24484l-5.5569 2.6081z"/></g></g></g></g>
 </g>
</svg>
