<svg width="146.2mm" height="116.27mm" version="1.1" viewBox="0 0 146.2 116.27" xmlns="http://www.w3.org/2000/svg" xmlns:ns0="http://www.iki.fi/pav/software/textext/">
 <defs>
  <marker id="e" overflow="visible" orient="auto">
   <path transform="matrix(-.4 0 0 -.4 -4 0)" d="m0 0 5-5-17.5 5 17.5 5z" fill-opacity=".34783" fill-rule="evenodd" stroke="#000" stroke-opacity=".34783" stroke-width="1pt"/>
  </marker>
  <marker id="Arrow1Mend" overflow="visible" orient="auto">
   <path transform="matrix(-.4 0 0 -.4 -4 0)" d="m0 0 5-5-17.5 5 17.5 5z" fill-opacity=".34783" fill-rule="evenodd" stroke="#000" stroke-opacity=".34783" stroke-width="1pt"/>
  </marker>
  <marker id="a" overflow="visible" orient="auto">
   <path transform="matrix(-.4 0 0 -.4 -4 0)" d="m0 0 5-5-17.5 5 17.5 5z" fill-opacity=".34783" fill-rule="evenodd" stroke="#000" stroke-opacity=".34783" stroke-width="1pt"/>
  </marker>
  <marker id="c" overflow="visible" orient="auto">
   <path transform="matrix(-.4 0 0 -.4 -4 0)" d="m0 0 5-5-17.5 5 17.5 5z" fill="#009600" fill-opacity=".72947" fill-rule="evenodd" stroke="#009600" stroke-opacity=".72947" stroke-width="1pt"/>
  </marker>
  <marker id="d" overflow="visible" orient="auto">
   <path transform="matrix(-.4 0 0 -.4 -4 0)" d="m0 0 5-5-17.5 5 17.5 5z" fill-rule="evenodd" stroke="#000" stroke-width="1pt"/>
  </marker>
  <marker id="g" overflow="visible" orient="auto">
   <path transform="matrix(-.4 0 0 -.4 -4 0)" d="m0 0 5-5-17.5 5 17.5 5z" fill="#00f" fill-opacity=".2657" fill-rule="evenodd" stroke="#00f" stroke-opacity=".54106" stroke-width="1pt"/>
  </marker>
  <marker id="f" overflow="visible" orient="auto">
   <path transform="matrix(-.4 0 0 -.4 -4 0)" d="m0 0 5-5-17.5 5 17.5 5z" fill="#f00" fill-opacity=".2657" fill-rule="evenodd" stroke="#f00" stroke-opacity=".54106" stroke-width="1pt"/>
  </marker>
  <marker id="b" overflow="visible" orient="auto">
   <path transform="matrix(-.4 0 0 -.4 -4 0)" d="m0 0 5-5-17.5 5 17.5 5z" fill="#009600" fill-opacity=".72947" fill-rule="evenodd" stroke="#009600" stroke-opacity=".72947" stroke-width="1pt"/>
  </marker>
 </defs>
 <g transform="translate(-32.377 -47.605)">
  <g>
   <path d="m63.502 115.24 20.605 8.992" fill="#00f" fill-opacity=".2657" marker-end="url(#g)" stroke="#00f" stroke-opacity=".54106" stroke-width=".79"/>
   <g transform="matrix(.88627 1.4175 1.3202 -.95159 -1057.1 561.69)" fill-rule="evenodd" stroke="#000" stroke-miterlimit="10.433" ns0:preamble="default_packages.tex" ns0:text="$\\text{Observed} \\mathbf{y}$\n" xml:space="preserve"><path d="m166.76 757.47-5e-3 0.0128-4e-3 8e-3 -8.6e-4 5e-3 -3e-3 3e-3 -8.4e-4 5e-3 -8.7e-4 5e-3 -8.5e-4 5e-3 -8.7e-4 5e-3 -8.4e-4 5e-3 -8.6e-4 5e-3 -8.7e-4 5e-3 4e-3 5e-3 -8.6e-4 5e-3 8.8e-4 8e-3 4e-3 5e-3 8.8e-4 8e-3 4e-3 5e-3 4e-3 0.0101 4e-3 5e-3 9e-4 8e-3 3e-3 3e-3 4e-3 5e-3 3e-3 3e-3 4e-3 5e-3 8.9e-4 8e-3 4e-3 5e-3 3e-3 3e-3 0.012 0.015 6e-3 9e-3 4e-3 5e-3 8.8e-4 8e-3 4e-3 5e-3 6e-3 9e-3 4e-3 5e-3 0.012 0.018 4e-3 5e-3 0.012 0.018-0.13886 0.0949c-0.0423-0.0752-0.10029-0.16555-0.14878-0.23644-0.0506-0.0739-0.14756-0.20263-0.19296-0.26262l0.13885-0.0949c4e-3 5e-3 0.0949 0.13887 0.13042 0.11465 3e-3 -3e-3 0.0243-0.034 0.0252-0.0391l0.48809-0.83297-1.0483 0.16679 0.10935 0.15935-0.13886 0.0949c-0.0609-0.10168-0.23988-0.3693-0.23988-0.3693-0.0567-0.0827-0.15375-0.21138-0.2394-0.33059l0.13887-0.0949 0.12895 0.18932 1.5397-0.2473 0.0953-0.16498c0.0974-0.16198 0.23046-0.39198 0.0888-0.59874-0.0283-0.0413-0.0351-0.0454-0.0603-0.0628 8e-3 0.0346 0.0145 0.12882-0.0888 0.1996-0.0971 0.067-0.21682 0.0443-0.28566-0.0557-0.0567-0.0827-0.0591-0.20675 0.0558-0.28566 0.14765-0.10105 0.36378-0.0453 0.48508 0.13203 0.1537 0.22441 0.0909 0.51908-0.0235 0.71402z" stroke-width="0"/></g>
   <g transform="matrix(.40748 0 0 -.40748 81.417 360.88)" fill-rule="evenodd" stroke="#000" stroke-miterlimit="10.433" stroke-width="0" ns0:preamble="default_packages.tex" ns0:text="$\\mathcal{C}(X)$\n" xml:space="preserve"><path d="m150.2 706.08v0.0279l-0.0139 0.0139v0.014l-0.014 0.014v0.0139h-0.028v0.014h-0.084c-0.23846 0-0.57509-0.2104-0.58912-0.2104-0.28053-0.16832-0.33664-0.2665-0.50496-0.50495-0.43482-0.65925-1.052-1.1362-1.9637-1.1362-1.2484 0-2.3845 0.91172-2.3845 3.0017 0 1.2484 0.50496 2.9175 1.2484 4.0116 0.61716 0.8977 1.3606 1.613 2.8053 1.613 0.53301 0 0.86964-0.19636 0.86964-0.70132 0-0.49093-0.51898-1.4868-0.6873-1.7674-0.0842-0.15429-0.0842-0.16831-0.0842-0.21039 0-0.0982 0.0702-0.0982 0.15429-0.0982 0.28053 0 0.79951 0.30858 0.96783 0.53301 0.028 0.0561 0.84159 1.4307 0.84159 2.132 0 0.77145-0.6312 0.88366-1.1361 0.88366-2.0338 0-3.689-1.3325-4.3342-2.104-1.6692-2.0058-1.8375-4.1659-1.8375-4.8953 0-2.0338 1.038-3.156 2.665-3.156 2.2442 0 4.1098 2.1741 4.1098 2.5108z"/><path d="m156.06 700.55v0.0419h-0.014v0.0279h-0.014v0.014h-0.0139v0.014l-0.014 0.014v0.014h-0.014v0.0139h-0.014v0.014h-0.014v0.0139h-0.014v0.014h-0.014v0.0139h-0.014v0.014l-0.014 0.0139-0.0139 0.014-0.014 0.014-0.014 0.0139-0.042 0.042c-1.7533 1.7533-2.2022 4.3903-2.2022 6.5223 0 2.4266 0.53301 4.8532 2.2583 6.5924 0.18234 0.16833 0.18234 0.19638 0.18234 0.23845 0 0.0982-0.056 0.14027-0.14026 0.14027-0.14026 0-1.4026-0.9538-2.2302-2.7212-0.70132-1.5289-0.86964-3.0858-0.86964-4.25 0-1.0941 0.1543-2.7772 0.91172-4.3482 0.8416-1.7112 2.0479-2.623 2.1881-2.623 0.0842 0 0.14026 0.0421 0.14026 0.14027z"/><path d="m163.65 709.63-1.1782 2.7632c-0.0421 0.11222-0.0702 0.16833-0.0702 0.18235 0 0.0842 0.23846 0.35066 0.82756 0.40676 0.14027 0.014 0.28054 0.0281 0.28054 0.26652 0 0.16832-0.16831 0.16832-0.2104 0.16832-0.57508 0-1.1782-0.0421-1.7673-0.0421-0.35066 0-1.2063 0.0421-1.5569 0.0421-0.0842 0-0.25248 0-0.25248-0.28054 0-0.1543 0.14027-0.1543 0.32262-0.1543 0.82756 0 0.92575-0.14025 1.052-0.44883l1.6411-3.8854-2.9456-3.156-0.18235-0.1543c-0.6873-0.7434-1.3466-0.96782-2.0619-1.0099-0.18234-0.014-0.30858-0.014-0.30858-0.28053 0-0.014 0-0.14027 0.18235-0.14027 0.42079 0 0.88367 0.0421 1.3185 0.0421 0.51899 0 1.066-0.0421 1.571-0.0421 0.0842 0 0.25248 0 0.25248 0.2665 0 0.14027-0.14028 0.1543-0.16833 0.1543-0.12623 0.0139-0.56106 0.0421-0.56106 0.43482 0 0.22442 0.21041 0.44884 0.37872 0.63119l1.4167 1.5008 1.2624 1.3606 1.4167-3.3243c0.0561-0.15428 0.0702-0.16831 0.0702-0.19637 0-0.11221-0.2665-0.35066-0.81353-0.40676-0.15428-0.014-0.28053-0.028-0.28053-0.26651 0-0.15429 0.15429-0.15429 0.21039-0.15429 0.39274 0 1.3746 0.0421 1.7674 0.0421 0.35066 0 1.1922-0.0421 1.5429-0.0421 0.0982 0 0.2665 0 0.2665 0.25247 0 0.16833-0.14027 0.16833-0.25249 0.16833-0.92574 0.0139-0.96782 0.0561-1.2063 0.61716-0.53301 1.2904-1.4728 3.4646-1.7954 4.3061 0.95379 0.98185 2.4126 2.637 2.8614 3.0157 0.40677 0.33664 0.93978 0.67328 1.7814 0.71534 0.18234 0.014 0.30858 0.014 0.30858 0.28054 0 0.014 0 0.1543-0.18235 0.1543-0.42078 0-0.88366-0.0421-1.3185-0.0421-0.51898 0-1.052 0.0421-1.5429 0.0421-0.0842 0-0.26651 0-0.26651-0.28054 0-0.0982 0.0702-0.14026 0.15429-0.1543 0.12623-0.0139 0.56106-0.0421 0.56106-0.4348 0-0.18236-0.14026-0.3647-0.25248-0.49094z"/><path d="m173.58 707.38v0.43484l-0.014 0.23845-0.014 0.23844-0.0281 0.25248-0.028 0.2665-0.0421 0.28054-0.0421 0.28052-0.0561 0.28054-0.0702 0.29456-0.0702 0.29455-0.0842 0.29455-0.0982 0.29457-0.11221 0.29454-0.056 0.1543-0.0702 0.15428-0.0702 0.14028-0.0702 0.15429c-0.84159 1.7112-2.0338 2.623-2.1741 2.623-0.0842 0-0.14028-0.056-0.14028-0.14027 0-0.0421 0-0.0702 0.26651-0.32261 1.3606-1.3886 2.1601-3.6048 2.1601-6.5083 0-2.3845-0.51898-4.8392-2.2442-6.5925-0.18235-0.16833-0.18235-0.19638-0.18235-0.23845 0-0.0842 0.0561-0.14028 0.14028-0.14028 0.14026 0 1.3886 0.95381 2.2162 2.7212 0.71536 1.5289 0.88366 3.0718 0.88366 4.25z"/></g>
  </g>
  <g fill="none">
   <path d="m63.478 115.13 48.303-6.908" marker-end="url(#c)" stroke="#009600" stroke-opacity=".72947" stroke-width=".7201"/>
   <g stroke="#000" stroke-opacity=".34783" stroke-width=".8">
    <path d="m43.108 147.7-9.8596 14.858" marker-end="url(#e)"/>
    <path d="m63.294 90.049 1.37e-4 -40.867" marker-end="url(#a)"/>
    <path d="m150.66 115.13h21.565" marker-end="url(#Arrow1Mend)"/>
   </g>
  </g>
  <path d="m108.67 108.89-3.2e-4 -4.5856 3.9886-1.0459 0.0351 4.733c-1.2844 0.32299-2.7843 0.6579-4.0234 0.89851z" fill-opacity=".37198" stroke="#000" stroke-opacity=".51691" stroke-width=".26458px"/>
  <g fill="none" stroke="#000">
   <g>
    <path d="m37.627 149.15 112.66-30.302" stroke-width=".5"/>
    <path d="m153.41 66.205-3.2502 52.88" stroke-width=".365"/>
    <path d="m40.932 96.045-3.305 53.109" stroke-width=".365"/>
   </g>
   <path d="m40.877 96.273 112.61-30.174" stroke-width=".26458px"/>
   <g stroke-opacity=".15942" stroke-width=".765">
    <path d="m63.478 115.13h87.059"/>
    <path d="m63.294 90.049v24.427"/>
    <path d="m43.069 147.87 20.41-32.74"/>
   </g>
  </g>
  <path d="m63.477 115.12 38.343-15.081" fill="#f00" fill-opacity=".2657" marker-end="url(#f)" stroke="#f00" stroke-opacity=".54106" stroke-width=".79"/>
  <path d="m112.69 107.99-0.24282-50.121" fill="none" marker-end="url(#b)" stroke="#009600" stroke-opacity=".72947" stroke-width=".7201"/>
  <g stroke="#000">
   <g>
    <g transform="matrix(.53549 0 0 -.53549 -41.504 400.27)" fill-rule="evenodd" stroke-miterlimit="10.433" stroke-width="0" ns0:preamble="default_packages.tex" ns0:text="$$\\mathbf{y}_1 \\mathbf{y}_2 \\mathbf{y})_{\\text{proj}} \\mathbf{y}_\\perp$$\n" xml:space="preserve"><g fill="#009600"><g><path d="m257.25 537.85 0.03 0.06 0.02 0.02v0.01l0.02 0.02h0.01l0.02 0.01 0.02 0.02h0.02l0.02 0.01 0.01 0.01h0.02l0.03 0.01h0.02l0.03 0.01h0.03l0.01 0.01h0.09l0.02 0.01h0.32v0.47c-0.24-0.02-0.54-0.03-0.79-0.03s-0.7 0.02-0.91 0.03v-0.47c0.02 0 0.47 0 0.47-0.12 0-0.01-0.04-0.1-0.05-0.11l-1.15-2.45-1.26 2.68h0.54v0.47c-0.33-0.02-1.23-0.03-1.24-0.03-0.28 0-0.73 0.02-1.14 0.03v-0.47h0.64l1.87-3.94-0.23-0.48c-0.22-0.47-0.54-1.15-1.25-1.15-0.14 0-0.16 0.01-0.24 0.04 0.09 0.04 0.32 0.18 0.32 0.53 0 0.32-0.24 0.56-0.58 0.56-0.28 0-0.57-0.19-0.57-0.57 0-0.51 0.47-0.92 1.07-0.92 0.77 0 1.35 0.62 1.61 1.18z"/><path d="m258.3 529.42h-0.3l-0.03 0.01h-0.04l-0.02 0.01h-0.02l-0.01 0.01h-0.02l-0.06 0.06v0.02l-0.01 0.01v0.02l-0.01 0.02v0.04l-0.01 0.02v1.21c0.04-0.04 0.37-0.4 0.95-0.4l-0.04 0.19c-0.61 0-0.89 0.54-0.91 0.58v1.61c0.21 0.35 0.62 0.53 0.99 0.53 0.59 0 1.04-0.61 1.04-1.34 0-0.79-0.52-1.38-1.12-1.38l0.04-0.19c0.93 0 1.72 0.68 1.72 1.57 0 0.85-0.72 1.56-1.61 1.56-0.39 0-0.8-0.14-1.09-0.42v0.42l-1.04-0.07v-0.25c0.48 0 0.52-0.04 0.52-0.33v-3.21c0-0.3-0.07-0.3-0.52-0.3v-0.25c0.01 0 0.5 0.02 0.79 0.02 0.26 0 0.74-0.02 0.81-0.02z"/><path d="m262.14 532.1 0.01 0.06v0.11l0.01 0.05 0.01 0.06v0.06l0.02 0.05 0.01 0.06 0.01 0.05 0.02 0.06 0.02 0.05 0.02 0.06 0.04 0.1 0.03 0.05 0.02 0.04 0.03 0.05 0.03 0.04 0.04 0.05 0.03 0.04 0.04 0.03 0.04 0.04 0.04 0.03 0.05 0.03 0.04 0.03 0.15 0.06 0.06 0.01 0.05 0.01 0.06 0.01h0.06c-0.06-0.05-0.12-0.14-0.12-0.25 0-0.23 0.18-0.32 0.32-0.32 0.17 0 0.32 0.11 0.32 0.32 0 0.23-0.22 0.44-0.55 0.44-0.35 0-0.74-0.21-0.95-0.74v0.74l-1-0.07v-0.25c0.46 0 0.52-0.05 0.52-0.39v-1.81c0-0.29-0.07-0.29-0.52-0.29v-0.25c0.03 0 0.51 0.02 0.79 0.02 0.3 0 0.61-0.01 0.91-0.02v0.25h-0.14c-0.52 0-0.52 0.07-0.52 0.31z"/><path d="m267.57 532-0.01 0.08v0.08l-0.01 0.08-0.02 0.08-0.02 0.07-0.02 0.08-0.03 0.07-0.03 0.08-0.03 0.07-0.08 0.14-0.04 0.06-0.05 0.07-0.1 0.12-0.06 0.05-0.06 0.06-0.12 0.1-0.07 0.04-0.07 0.05-0.07 0.04-0.08 0.03-0.07 0.04-0.08 0.03-0.16 0.04-0.09 0.02-0.08 0.02-0.09 0.01h-0.09l-0.09 0.01v-0.2c0.42 0 0.71-0.19 0.86-0.41 0.2-0.27 0.22-0.62 0.22-0.95s-0.02-0.7-0.23-0.99c-0.18-0.26-0.5-0.4-0.85-0.4-0.26 0-0.63 0.08-0.87 0.42-0.18 0.29-0.21 0.65-0.21 0.97 0 0.3 0.01 0.71 0.26 1.01 0.17 0.2 0.47 0.35 0.82 0.35v0.2c-0.96 0-1.71-0.75-1.71-1.62s0.77-1.55 1.71-1.55c0.95 0 1.72 0.68 1.72 1.55z"/></g><path d="m269.97 534.8v0.04l-0.01 0.03v0.04l-0.02 0.04v0.02l-0.01 0.01-0.02 0.04-0.04 0.04-0.01 0.02-0.04 0.04-0.02 0.01-0.01 0.01-0.04 0.02-0.01 0.01h-0.02l-0.04 0.02h-0.02l-0.01 0.01h-0.08c-0.24 0-0.4-0.19-0.4-0.39 0-0.25 0.19-0.41 0.39-0.41 0.25 0 0.41 0.2 0.41 0.4z" fill-opacity=".72941"/><g><path d="m268.86 533.51v-0.25c0.52 0 0.59-0.05 0.59-0.39v-2.69c0-0.26-0.06-0.89-0.53-0.89-0.02 0-0.19 0-0.35 0.07 0.01 0.01 0.18 0.09 0.18 0.3 0 0.19-0.14 0.33-0.33 0.33-0.21 0-0.34-0.14-0.34-0.34 0-0.37 0.42-0.55 0.85-0.55 0.56 0 1.04 0.44 1.04 1.1v3.38z"/><path d="m296.4 593.42 0.01 0.02 0.02 0.02v0.02l0.03 0.03v0.01l0.01 0.01h0.02l0.03 0.03h0.02l0.04 0.02h0.02l0.02 0.01h0.02l0.03 0.01h0.03l0.01 0.01h0.09l0.02 0.01h0.32v0.47c-0.24-0.02-0.54-0.03-0.79-0.03s-0.7 0.02-0.91 0.03v-0.47c0.02 0 0.47 0 0.47-0.12 0-0.01-0.04-0.1-0.05-0.11l-1.14-2.45-1.27 2.68h0.54v0.47c-0.33-0.02-1.23-0.03-1.24-0.03-0.28 0-0.73 0.02-1.14 0.03v-0.47h0.64l1.87-3.94-0.23-0.48c-0.22-0.47-0.54-1.15-1.25-1.15-0.14 0-0.16 0.01-0.24 0.04 0.09 0.04 0.32 0.18 0.32 0.53 0 0.32-0.24 0.56-0.58 0.56-0.28 0-0.57-0.19-0.57-0.57 0-0.51 0.47-0.92 1.07-0.92 0.77 0 1.35 0.62 1.62 1.18z"/><path d="m300.7 592.74v0.01l-0.01 0.01v0.11l-0.01 0.01v0.03l-0.01 0.01v0.02h-0.01l-0.01 0.01v0.01l-0.02 0.02h-0.01v0.01h-0.01l-0.01 0.01h-0.02v0.01h-0.05c-0.18 0-0.18-0.16-0.18-0.27v-4.21h-2.13c-0.11 0-0.28 0-0.28-0.17s0.16-0.17 0.28-0.17h4.61c0.11 0 0.28 0 0.28 0.16 0 0.18-0.16 0.18-0.28 0.18h-2.13z"/></g></g><g id="content" transform="matrix(1.3154 0 0 1.3154 -126.72 -434.35)" fill-rule="evenodd" stroke="#000" stroke-miterlimit="10.433" ns0:preamble="default_packages.tex" ns0:text="$$\\mathbf{x}_1 \\mathbf{x}_2$$\n" xml:space="preserve"><path d="m258.14 724.8 0.91359 1.0151c0.10151 0.10151 0.14836 0.15617 0.78866 0.15617v0.367c-0.2733-0.0156-0.67153-0.0234-0.71057-0.0234-0.19521 0-0.58564 0.0156-0.80427 0.0234v-0.367c0.10932 0 0.20302-0.0156 0.29672-0.0703-0.0312-0.039-0.0312-0.0547-0.0625-0.0859l-0.65591-0.734-0.76523 0.89017h0.31234v0.367c-0.20302-8e-3 -0.69495-0.0234-0.94482-0.0234-0.24988 0-0.59345 0.0156-0.85113 0.0234v-0.367h0.5466l1.2181-1.4211-1.0229-1.14c-0.12494-0.14836-0.40604-0.14836-0.78085-0.14836v-0.36699c0.2733 0.0156 0.67934 0.0234 0.71057 0.0234 0.19521 0 0.6481-0.0156 0.80427-0.0234v0.36699c-0.14055 0-0.28891 0.0391-0.28891 0.0859 0 8e-3 0 0.0156 0.0547 0.0703l0.75742 0.85112 0.85893-1.0073h-0.30453v-0.36699c0.20302 8e-3 0.67934 0.0234 0.93701 0.0234 0.24207 0 0.59345-0.0156 0.85113-0.0234v0.36699h-0.5544z" fill="#0000fb"/><path d="m262 725.18v0.056l-8e-3 8e-3v0.048h-8e-3v8e-3l-8e-3 8e-3v8e-3h-0.016v8e-3h-0.016l-8e-3 8e-3h-0.104c-0.35139-0.34358-0.85113-0.34358-1.0698-0.34358v-0.19521c0.12493 0 0.49193 0 0.78865 0.14836v-2.7642c0-0.1796 0-0.24987-0.54659-0.24987h-0.20302v-0.19522c0.0937 0 0.76523 0.0156 0.96825 0.0156 0.17178 0 0.85893-0.0156 0.97606-0.0156v0.19522h-0.20302c-0.5466 0-0.5466 0.0703-0.5466 0.24987z" fill="#0000fb"/><path d="m274.62 752.63 0.91359 1.0151c0.10151 0.10151 0.14837 0.15617 0.79647 0.15617v0.367c-0.2733-0.0156-0.67934-0.0234-0.71838-0.0234-0.19521 0-0.58564 0.0156-0.80427 0.0234v-0.367c0.10932 0 0.20302-0.0156 0.29672-0.0703-0.0312-0.039-0.0312-0.0547-0.0625-0.0859l-0.65591-0.73399-0.75742 0.89016h0.31234v0.367c-0.20302-8e-3 -0.69495-0.0234-0.94482-0.0234-0.24988 0-0.60126 0.0156-0.85894 0.0234v-0.367h0.55441l1.2181-1.4211-1.0229-1.14c-0.13275-0.14836-0.41385-0.14836-0.78866-0.14836v-0.367c0.2733 0.0156 0.67934 0.0234 0.71838 0.0234 0.19521 0 0.6481-0.0156 0.80427-0.0234v0.367c-0.14055 0-0.28891 0.039-0.28891 0.0859 0 8e-3 0 0.0156 0.0547 0.0703l0.75742 0.85112 0.85112-1.0073h-0.30453v-0.367c0.20302 8e-3 0.67934 0.0234 0.93702 0.0234 0.24987 0 0.60125-0.0156 0.85893-0.0234v0.367h-0.5544z" fill="#f00"/><path d="m279.41 750.54h-0.1874c-0.0156-0.11713-0.0703-0.43728-0.14055-0.49194-0.0391-0.0312-0.4607-0.0312-0.53879-0.0312h-1.0073c0.57783 0.49974 0.76523 0.65591 1.0932 0.90578 0.40603 0.32796 0.78084 0.66372 0.78084 1.1791 0 0.65591-0.57783 1.0541-1.2728 1.0541-0.67933 0-1.14-0.46851-1.14-0.96825 0-0.2811 0.23425-0.30453 0.28891-0.30453 0.13274 0 0.28891 0.0937 0.28891 0.28891 0 0.0937-0.039 0.28892-0.32014 0.28892 0.17178 0.38261 0.53878 0.49974 0.79646 0.49974 0.54659 0 0.8277-0.42166 0.8277-0.85893 0-0.47632-0.33577-0.85112-0.50755-1.0463l-1.3196-1.2884c-0.0547-0.0468-0.0547-0.0625-0.0547-0.21083h2.2488z" fill="#f00"/><g fill-rule="evenodd" stroke-miterlimit="10.433"><path d="m386.88 797.72 0.88068 0.97854c0.0978 0.0979 0.14302 0.15054 0.76024 0.15054v0.35377c-0.26345-0.015-0.64733-0.0226-0.68496-0.0226-0.18818 0-0.56454 0.0151-0.7753 0.0226v-0.35377c0.10538 0 0.1957-0.0151 0.28603-0.0678-0.0301-0.0376-0.0301-0.0527-0.0602-0.0828l-0.63228-0.70756-0.73766 0.8581h0.30108v0.35377c-0.1957-8e-3 -0.66991-0.0226-0.91078-0.0226s-0.57207 0.0151-0.82046 0.0226v-0.35377h0.5269l1.1742-1.3699-0.98605-1.099c-0.12044-0.14302-0.39142-0.14302-0.75272-0.14302v-0.35377c0.26345 0.0151 0.65486 0.0226 0.68497 0.0226 0.18818 0 0.62476-0.0151 0.7753-0.0226v0.35377c-0.13549 0-0.27851 0.0376-0.27851 0.0828 0 8e-3 0 0.0151 0.0527 0.0677l0.73014 0.82046 0.82799-0.97101h-0.29356v-0.35377c0.1957 8e-3 0.65486 0.0226 0.90326 0.0226 0.23334 0 0.57206-0.0151 0.82046-0.0226v0.35377h-0.53443z" fill="#0000fb"/><path d="m390.6 798.08v0.056l-8e-3 8e-3v0.048h-8e-3v8e-3l-8e-3 8e-3v8e-3h-0.016v8e-3h-0.016l-8e-3 8e-3h-0.104c-0.33872-0.33119-0.82046-0.33119-1.0312-0.33119v-0.18818c0.12043 0 0.47421 0 0.76024 0.14301v-2.6646c0-0.17313 0-0.24087-0.5269-0.24087h-0.19571v-0.18818c0.0903 0 0.73766 0.015 0.93337 0.015 0.1656 0 0.82799-0.015 0.9409-0.015v0.18818h-0.19571c-0.5269 0-0.5269 0.0677-0.5269 0.24087z" fill="#0000fb"/><path d="m397.9 797.7 0.8648 0.96089c0.0961 0.0961 0.14044 0.14783 0.75393 0.14783v0.3474c-0.2587-0.0148-0.64306-0.0222-0.68001-0.0222-0.18478 0-0.55436 0.0148-0.76132 0.0222v-0.3474c0.10348 0 0.19217-0.0148 0.28087-0.0665-0.0296-0.037-0.0296-0.0517-0.0591-0.0813l-0.62088-0.69479-0.71697 0.84262h0.29566v0.3474c-0.19218-7e-3 -0.65784-0.0222-0.89437-0.0222-0.23652 0-0.56914 0.0148-0.81306 0.0222v-0.3474h0.5248l1.1531-1.3452-0.96828-1.0792c-0.12565-0.14044-0.39175-0.14044-0.74653-0.14044v-0.3474c0.2587 0.0148 0.64305 0.0222 0.68001 0.0222 0.18478 0 0.61349-0.0148 0.76132-0.0222v0.3474c-0.13305 0-0.27349 0.037-0.27349 0.0813 0 7e-3 0 0.0148 0.0517 0.0665l0.71697 0.80567 0.80567-0.9535h-0.28827v-0.3474c0.19218 7e-3 0.64306 0.0222 0.88698 0.0222 0.23653 0 0.56914-0.0148 0.81306-0.0222v0.3474h-0.5248z" fill="#f00"/><path d="m402.43 795.73h-0.17739c-0.0148-0.11087-0.0665-0.41392-0.13305-0.46566-0.0369-0.0296-0.43609-0.0296-0.51-0.0296h-0.9535c0.54697 0.47306 0.72436 0.62088 1.0348 0.85741 0.38436 0.31044 0.73914 0.62827 0.73914 1.1161 0 0.62088-0.54696 0.99784-1.2048 0.99784-0.64305 0-1.0791-0.44348-1.0791-0.91654 0-0.26609 0.22174-0.28826 0.27347-0.28826 0.12566 0 0.27349 0.0887 0.27349 0.27348 0 0.0887-0.037 0.27348-0.30305 0.27348 0.16262 0.36219 0.51001 0.47306 0.75393 0.47306 0.51739 0 0.78349-0.39914 0.78349-0.81306 0-0.45088-0.31783-0.80567-0.48045-0.99045l-1.2492-1.2196c-0.0517-0.0444-0.0517-0.0591-0.0517-0.19957h2.1287z" fill="#f00"/></g></g></g>
    <g transform="matrix(1.5 0 0 -1.5 -295.49 1117.3)" fill-rule="evenodd" stroke-miterlimit="10.433" ns0:preamble="default_packages.tex" ns0:text="$$()$$\n" xml:space="preserve"><g stroke-width="0"><path d="m315.04 697.32v0.0875l-4e-3 0.0765v0.175l-4e-3 0.18584-4e-3 0.19678-9e-3 0.19678-9e-3 0.2077-9e-3 0.20771-0.0177 0.21863-0.0177 0.22957-0.0177 0.21863-0.0265 0.22958-0.0265 0.22957-0.0309 0.24051-0.0353 0.22956-0.0177 0.12033-0.0177 0.10937-0.0221 0.12033-0.0221 0.10936c-0.26477 1.3337-0.64429 2.0443-0.68842 2.0443-0.0265 0-0.0442-0.0436-0.0442-0.10938 0-0.0329 0-0.0546 0.0838-0.25144 0.43247-1.0713 0.68401-2.7986 0.68401-5.0724 0-1.8475-0.16328-3.7606-0.71048-5.1271-0.0573-0.1311-0.0573-0.15301-0.0573-0.18584 0-0.0655 0.0177-0.10936 0.0442-0.10936 0.0442 0 0.4413 0.73244 0.70166 2.1099 0.22507 1.2025 0.27802 2.405 0.27802 3.3124z"/><g fill-rule="evenodd" stroke-miterlimit="10.433"><path d="m316.04 697.35v0.0875l-4e-3 0.0765v0.175l-4e-3 0.18583-4e-3 0.19678-9e-3 0.19678-9e-3 0.2077-9e-3 0.20771-0.0177 0.21863-0.0177 0.22958-0.0177 0.21863-0.0265 0.22957-0.0265 0.22956-0.0309 0.24051-0.0353 0.22957-0.0177 0.12033-0.0177 0.10937-0.0221 0.12033-0.0221 0.10937c-0.26477 1.3337-0.64429 2.0443-0.68842 2.0443-0.0265 0-0.0442-0.0436-0.0442-0.10937 0-0.0329 0-0.0546 0.0838-0.25144 0.43247-1.0713 0.68401-2.7986 0.68401-5.0724 0-1.8475-0.16328-3.7606-0.71048-5.1271-0.0573-0.1311-0.0573-0.15301-0.0573-0.18584 0-0.0655 0.0177-0.10937 0.0442-0.10937 0.0442 0 0.4413 0.73245 0.70166 2.1099 0.22507 1.2025 0.27802 2.405 0.27802 3.3124z"/><path d="m302.59 697.34v0.0875l4e-3 0.0765v0.175l4e-3 0.18584 4e-3 0.19678 9e-3 0.19677 9e-3 0.20769 9e-3 0.20772 0.0177 0.21864 0.0177 0.22956 0.0177 0.21864 0.0265 0.22956 0.0265 0.22958 0.0309 0.24051 0.0353 0.22957 0.0177 0.12032 0.0177 0.10937 0.0221 0.12033 0.0221 0.10937c0.26478 1.3337 0.64429 2.0443 0.68842 2.0443 0.0265 0 0.0442-0.0436 0.0442-0.10937 0-0.0329 0-0.0546-0.0838-0.25145-0.43246-1.0713-0.684-2.7986-0.684-5.0724 0-1.8475 0.16328-3.7606 0.71048-5.1271 0.0573-0.1311 0.0573-0.15301 0.0573-0.18584 0-0.0655-0.0177-0.10938-0.0442-0.10938-0.0442 0-0.44129 0.73244-0.70166 2.1099-0.22506 1.2025-0.27801 2.405-0.27801 3.3124z"/><path d="m301.58 697.37v0.0875l4e-3 0.0765v0.175l4e-3 0.18585 4e-3 0.19678 9e-3 0.19677 9e-3 0.2077 9e-3 0.20771 0.0177 0.21864 0.0177 0.22956 0.0177 0.21864 0.053 0.45914 0.0309 0.24051 0.0353 0.22957 0.0177 0.12033 0.0177 0.10936 0.0221 0.12033 0.0221 0.10937c0.26478 1.3337 0.64429 2.0443 0.68842 2.0443 0.0265 0 0.0442-0.0436 0.0442-0.10937 0-0.0329 0-0.0546-0.0838-0.25145-0.43246-1.0713-0.684-2.7986-0.684-5.0724 0-1.8475 0.16328-3.7606 0.71048-5.1271 0.0573-0.1311 0.0573-0.15301 0.0573-0.18585 0-0.0655-0.0177-0.10936-0.0442-0.10936-0.0442 0-0.44129 0.73244-0.70166 2.1099-0.22506 1.2025-0.27801 2.405-0.27801 3.3124z"/></g></g><rect transform="scale(1,-1)" x="298.76" y="-697.37" width="2.3812" height="1.4552" fill="#fff" stroke="none"/><g fill="none" stroke-width=".17639px"><path d="m305.82 698.99v3.7483" stroke="#00f"/><g stroke-miterlimit="10.433"><path d="m305.98 692.24v3.7483" stroke="#00f"/><path d="m311.37 698.79v3.7483" stroke="#f00"/><path d="m311.52 692.04v3.7483" stroke="#f00"/></g></g><g transform="matrix(.29821 0 0 -.29821 208.84 904.74)" fill-rule="evenodd" stroke="#000" stroke-miterlimit="10.433" stroke-width="0" ns0:preamble="default_packages.tex" ns0:text="$$=$$\n" xml:space="preserve"><path d="m308.6 698.42h0.15l0.01 0.01h0.04l0.01 0.01h0.02l0.01 0.01h0.01l0.02 0.02h0.01l0.03 0.03v0.01h0.01v0.02l0.01 0.01v0.02l0.01 0.01v0.05c0 0.2-0.19 0.2-0.33 0.2h-5.97c-0.14 0-0.33 0-0.33-0.2s0.19-0.2 0.34-0.2z"/><path d="m308.61 696.49h0.11l0.02 0.01h0.05l0.01 0.01h0.02l0.01 0.01h0.01l0.01 0.01h0.01l0.03 0.03h0.01v0.01h0.01v0.01l0.01 0.01v0.01l0.01 0.01v0.02l0.01 0.01v0.05c0 0.2-0.19 0.2-0.34 0.2h-5.95c-0.15 0-0.34 0-0.34-0.2s0.19-0.2 0.33-0.2z"/></g></g>
    <path d="m63.477 115.12 48.244-57.791" fill="none" marker-end="url(#d)" stroke-width=".58544"/>
   </g>
   <ellipse cx="63.5" cy="115.09" rx=".47247" ry=".46066" stroke-linecap="square" stroke-linejoin="bevel" stroke-width=".463"/>
  </g>
 </g>
</svg>
