<svg width="126.15mm" height="118.51mm" version="1.1" viewBox="0 0 126.15 118.51" xmlns="http://www.w3.org/2000/svg" xmlns:ns0="http://www.iki.fi/pav/software/textext/">
 <defs>
  <marker id="Arrow1Mend" overflow="visible" orient="auto">
   <path transform="matrix(-.4 0 0 -.4 -4 0)" d="m0 0 5-5-17.5 5 17.5 5z" fill-opacity=".42995" fill-rule="evenodd" stroke="#000" stroke-opacity=".42995" stroke-width="1pt"/>
  </marker>
  <marker id="a" overflow="visible" orient="auto">
   <path transform="matrix(-.4 0 0 -.4 -4 0)" d="m0 0 5-5-17.5 5 17.5 5z" fill-opacity=".42995" fill-rule="evenodd" stroke="#000" stroke-opacity=".42995" stroke-width="1pt"/>
  </marker>
 </defs>
 <g transform="translate(-41.078 -27.381)">
  <path d="m72.749 87.666c-11.075-0.18464-21.545 7.9602-24.365 18.624-2.0443 7.4054-0.64177 15.7 3.9508 21.893 5.0089 6.9648 13.724 11.25 22.33 10.418 10.166-0.36659 19.46-7.771 22.558-17.387 2.893-8.4694 0.90661-18.41-5.1882-25.001-4.7946-5.4607-11.987-8.7841-19.285-8.5465z" fill="#0054ff" fill-opacity=".086957"/>
  <g fill="none">
   <circle cx="72.987" cy="113.17" r="25.859" stroke="#0060ab" stroke-dashoffset="10.353" stroke-linecap="square" stroke-opacity=".52174" stroke-width=".665"/>
   <path d="m41.078 113.68h122.95" marker-end="url(#Arrow1Mend)" stroke="#000" stroke-opacity=".42995" stroke-width=".565"/>
   <path d="m73.662 145.89v-117.39" marker-end="url(#a)" stroke="#000" stroke-opacity=".42995" stroke-width=".565"/>
  </g>
  <g transform="rotate(-28.049 160.57 146.4)" stroke="#000">
   <g fill="#f00" stroke="none" stroke-dashoffset="10.353" stroke-linecap="square">
    <ellipse transform="matrix(.97421 -.22565 .26699 .9637 0 0)" cx="135.47" cy="95.016" rx="34.47" ry="15.31" fill-opacity=".11594" stroke-opacity=".30435" stroke-width=".56526"/>
    <ellipse transform="matrix(.97157 -.23675 .23707 .97149 0 0)" cx="140.96" cy="96.793" rx="29.069" ry="11.346" fill-opacity=".12077" stroke-opacity=".38647" stroke-width=".56"/>
    <ellipse transform="matrix(.96993 -.24338 .29901 .95425 0 0)" cx="138.94" cy="97.882" rx="21.549" ry="8.2096" fill-opacity=".12077" stroke-opacity=".41961" stroke-width=".55046"/>
   </g>
   <g transform="matrix(.75754 .40357 .40357 -.75754 -231.92 599.46)" fill-rule="evenodd" stroke-miterlimit="10.433" stroke-width="1.7476" ns0:preamble="default_packages.tex" ns0:text="$w_1 w_2$\n" xml:space="preserve"><g fill-opacity=".74396" stroke-width="0"><path d="m158.31 715.18v0.0169l9e-3 0.0254v0.0169l0.018 0.0338v0.0254l9e-3 0.0423 0.0167 0.0423 0.027 0.1269 9e-3 0.0169v0.0169l9e-3 0.0169v0.0254l9e-3 0.0169v0.0169l9e-3 0.0169v9e-3l9e-3 0.0169v0.0349l9e-3 9e-3v0.027c0 0.15231-0.11661 0.22845-0.24155 0.22845-0.1 0-0.24989-0.0677-0.3082-0.23691-0.025-0.0592-0.41648-1.6669-0.47479-1.8868-0.0583-0.25383-0.075-0.39767-0.075-0.54998 0-0.0931 0-0.11 9e-3 -0.1523-0.19158-0.44845-0.44147-0.71075-0.76632-0.71075-0.65805 0-0.65805 0.62614-0.65805 0.76998 0 0.27075 0.0417 0.59228 0.43315 1.633 0.0833 0.24536 0.13328 0.36382 0.13328 0.53304 0 0.38075-0.26655 0.69382-0.6747 0.69382-0.79131 0-1.0995-1.2184-1.0995-1.2946 0-0.0846 0.0833-0.0846 0.1-0.0846 0.0833 0 0.0916 0.0169 0.13327 0.15232 0.2249 0.77843 0.54975 1.0407 0.84129 1.0407 0.0749 0 0.20824-9e-3 0.20824-0.27922 0-0.21152-0.0916-0.44844-0.14994-0.59229-0.3665-0.98996-0.46645-1.3707-0.46645-1.6922 0-0.76997 0.55808-1.0576 1.1745-1.0576 0.1416 0 0.53309 0 0.86629 0.58381 0.21656-0.53304 0.7913-0.58381 1.0412-0.58381 0.62472 0 0.9829 0.5246 1.2078 1.0323 0.27487 0.65151 0.54143 1.7768 0.54143 2.183 0 0.46537-0.22491 0.59229-0.36651 0.59229-0.20823 0-0.41648-0.21999-0.41648-0.40614 0-0.10999 0.0583-0.16076 0.13327-0.22845 0.0917-0.0931 0.29154-0.31307 0.29154-0.71074 0-0.28768-0.24156-1.1169-0.44979-1.5399-0.21658-0.44844-0.50812-0.74459-0.91627-0.7446-0.3915 0-0.61639 0.25385-0.61639 0.73614 0 0.23691 0.0583 0.49074 0.0916 0.6092z"/><path d="m162.37 714.81v0.072l-9e-3 9e-3v0.045l-0.018 0.018v9e-3l-9e-3 9e-3h-9e-3l-9e-3 9e-3h-0.036l-9e-3 9e-3h-0.09c-0.37484-0.37229-0.90794-0.38075-1.1412-0.38075v-0.21153c0.13328 0 0.52478 0 0.8413 0.16921l-1e-5 -3.0037c0-0.19461 0-0.27075-0.58307-0.27075h-0.21658v-0.21153c0.1 9e-3 0.81631 0.0254 1.0329 0.0254 0.18325 0 0.91626-0.0169 1.0412-0.0254v0.21153h-0.21658c-0.58306 0-0.58306 0.0761-0.58306 0.27075z"/><path d="m45.964 817.89 0.0083 0.0169v0.0254l0.0083 0.0169v0.0169l0.0083 0.0169v0.0254l0.01665 0.0423 0.0332 0.1692 0.0166 0.0338v0.0169l0.0083 0.0254v0.0169l0.0083 0.0169v0.0259l0.0083 0.0169v0.0259l0.0083 9e-3v0.036c0 0.1523-0.11662 0.22845-0.24156 0.22845-0.09996 0-0.24989-0.0677-0.3082-0.23691-0.02498-0.0592-0.41648-1.6669-0.47479-1.8868-0.05831-0.25385-0.07496-0.39768-0.07496-0.54999 0-0.0931 0-0.10999 0.0083-0.1523-0.18325-0.44844-0.43314-0.71074-0.758-0.71074-0.66637 0-0.66637 0.62613-0.66637 0.76996 0 0.27076 0.04165 0.59229 0.43314 1.633 0.09163 0.24537 0.1416 0.36383 0.1416 0.53305 0 0.38076-0.27488 0.69382-0.68303 0.69382-0.79131 0-1.0995-1.2184-1.0995-1.2946 0-0.0846 0.08329-0.0846 0.09996-0.0846 0.08329 0 0.09163 0.0169 0.13327 0.15231 0.2249 0.77842 0.54976 1.0407 0.84129 1.0407 0.07496 0 0.20824-9e-3 0.20824-0.27923 0-0.21153-0.09162-0.44844-0.14993-0.59228-0.3665-0.98996-0.46646-1.3707-0.46646-1.6922-1e-6 -0.76998 0.55808-1.0577 1.1828-1.0577 0.1416 0 0.5331 0 0.85795 0.58384 0.21657-0.53307 0.79131-0.58384 1.0412-0.58384 0.62472 1e-5 0.99122 0.52461 1.2078 1.0323 0.28321 0.65152 0.54976 1.7769 0.54976 2.183 0 0.46536-0.23323 0.59228-0.3665 0.59228-0.20824 0-0.41648-0.22-0.41648-0.40613 0-0.11 0.04998-0.16077 0.12494-0.22846 0.09163-0.0931 0.29987-0.31306 0.29987-0.71074 0-0.28768-0.24156-1.1169-0.45813-1.5399-0.21657-0.44845-0.50811-0.74458-0.91626-0.74458-0.39149 0-0.61639 0.25382-0.61639 0.73611 0 0.23692 0.05831 0.49076 0.09163 0.60921z"/><path d="m51.012 814.85h-0.19991c-0.01665-0.13537-0.07496-0.48228-0.14993-0.5415-0.04998-0.0339-0.49978-0.0339-0.57474-0.0339h-1.0745c0.60806 0.54998 0.8163 0.71074 1.1661 0.98997 0.43314 0.34691 0.83296 0.71073 0.83296 1.2692 1e-6 0.71073-0.61639 1.1507-1.3661 1.1507-0.71635 0-1.2078-0.51613-1.2078-1.0576-1e-6 -0.29614 0.24989-0.32999 0.3082-0.32999 0.1416 0 0.3082 0.10154 0.3082 0.31306 0 0.11001-0.04165 0.31307-0.34151 0.31307 0.17492 0.4146 0.57474 0.54997 0.84962 0.54997 0.58307 0 0.88294-0.4569 0.88294-0.93918-1e-6 -0.50768-0.35818-0.91382-0.54976-1.1253l-1.3994-1.4046c-0.0583-0.0508-0.0583-0.0592-0.0583-0.22846h2.3989z"/></g><g id="content" transform="matrix(1.5 0 0 -1.5 -151.46 1212.9)" fill-rule="evenodd" stroke="#000" stroke-miterlimit="10.433" ns0:preamble="default_packages.tex" ns0:text="$0 r (\\hat{w_1}, \\hat{w_2})$\n" xml:space="preserve"><path d="m135.93 331.77 2e-5 -0.1394-4e-3 -0.0697 2e-5 -0.0697-4e-3 -0.0697-9e-3 -0.0652-4e-3 -0.0697-9e-3 -0.0697-9e-3 -0.0652-0.0139-0.0697-0.0139-0.0652-0.0186-0.0697-0.0186-0.065-0.0232-0.0652-0.0279-0.065-0.0278-0.0652c-0.21391-0.44191-0.59531-0.51639-0.78602-0.51639-0.27909-4e-5 -0.61865 0.12086-0.80941 0.54877-0.14888 0.32093-0.17218 0.67908-0.17222 1.0512-4e-5 0.3442 0.0185 0.76284 0.20919 1.1117 0.19998 0.37678 0.53951 0.4652 0.76743 0.46522l1e-5 -0.10233c-0.18139-2e-5 -0.45582-0.11168-0.53951-0.55823-0.0512-0.27444-0.0511-0.70236-0.0511-0.97214 3e-5 -0.2977 7e-5 -0.60003 0.0374-0.85121 0.0884-0.54885 0.43729-0.59068 0.55359-0.59066 0.14884 1e-5 0.45582 0.0838 0.54415 0.53962 0.0464 0.26048 0.0464 0.60933 0.0464 0.90237-4e-5 0.34421-8e-5 0.66051-0.0512 0.95355-0.0699 0.44187-0.33497 0.57672-0.53963 0.5767l-1e-5 0.10233c0.24652 4e-5 0.60004-0.093 0.80475-0.53481 0.14887-0.31629 0.17218-0.6791 0.17222-1.0419z" fill-opacity=".74396" stroke-width="0"/><g fill-opacity=".92754" stroke="#000" stroke-opacity=".95652" stroke-width="0"><path d="m172.83 292.2v-3e-3l-3e-3 -3e-3v-3e-3l1e-5 -3e-3h-3e-3v-3e-3l-3e-3 -3e-3v-3e-3l-3e-3 -3e-3h-3e-3v-3e-3l-0.018-0.018v-3e-3h-3e-3v-3e-3l-3e-3 -3e-3h-3e-3v-3e-3l-3e-3 -3e-3h-3e-3l-3e-3 -3e-3v-3e-3c-0.51892-0.51905-0.65169-1.2996-0.65162-1.9307 9e-5 -0.71828 0.15793-1.4365 0.66865-1.9513 0.0541-0.0498 0.0541-0.0581 0.0541-0.0705 1e-5 -0.0291-0.0167-0.0416-0.0416-0.0416-0.0416 0-0.41521 0.28228-0.66023 0.80538-0.2118 0.45253-0.26167 0.91338-0.2617 1.258-3e-5 0.32383 0.0456 0.82206 0.27388 1.2871 0.24903 0.50655 0.60607 0.77644 0.6476 0.77644 0.0249 1e-5 0.0416-0.0125 0.0416-0.0416z"/><polygon transform="matrix(.41518 4.5923e-5 4.5917e-5 -.41518 105.63 584.78)" points="168.14 714.02 166.8 712.67 166.98 712.49 168.14 713.5 169.29 712.49 169.47 712.67"/><path d="m174.98 289.81v-7e-3l3e-3 -0.0125 2e-5 -7e-3 3e-3 -7e-3v-7e-3l3e-3 -0.0125 6e-3 -0.0412 7e-3 -0.0207 3e-3 -0.0206 3e-3 -0.0207 3e-3 -7e-3v-7e-3l3e-3 -7e-3v-0.0125l3e-3 -7e-3v-7e-3l3e-3 -7e-3v-0.01l3e-3 -7e-3v-0.012l3e-3 -3e-3v-3e-3c2e-5 -0.0748-0.0582-0.11208-0.12039-0.11208-0.0497 0-0.12456 0.0332-0.15363 0.11624-0.0125 0.0291-0.20767 0.81789-0.23675 0.92584-0.0291 0.12454-0.0374 0.19511-0.0374 0.26986 0 0.0457 0 0.0539 3e-3 0.0748-0.0955 0.22003-0.22009 0.34872-0.38201 0.34871-0.33214-4e-5 -0.33211-0.30728-0.33208-0.37786 0-0.13284 0.0207-0.29062 0.21595-0.80128 0.0457-0.12039 0.0706-0.17851 0.0706-0.26155 3e-5 -0.18684-0.13698-0.34045-0.34041-0.34048-0.39027-5e-5 -0.54395 0.59779-0.54395 0.63518-1e-5 0.0416 0.0416 0.0416 0.0497 0.0416 0.0416 1e-5 0.0457-7e-3 0.0665-0.0748 0.11221-0.38194 0.27408-0.51063 0.41524-0.51062 0.0374 1e-5 0.10385 3e-3 0.10375 0.13704-1e-5 0.10374-0.0457 0.22003-0.0749 0.29061-0.17858 0.48575-0.22843 0.67257-0.22844 0.83034-4e-5 0.37781 0.27396 0.519 0.58534 0.51903 0.0706 1e-5 0.26571 3e-5 0.43182-0.28642 0.10797 0.26157 0.39439 0.28651 0.51895 0.28653 0.30723 3e-5 0.48994-0.25736 0.59792-0.50645 0.1412-0.31969 0.27412-0.87186 0.27413-1.0711 3e-5 -0.22836-0.11209-0.29065-0.18264-0.29067-0.10375 0-0.2076 0.10797-0.2076 0.19929-1e-5 0.0538 0.0249 0.079 0.0622 0.11207 0.0456 0.0457 0.14946 0.15362 0.14943 0.34875-1e-5 0.14117-0.12046 0.54804-0.22843 0.75562-0.10796 0.22002-0.2533 0.36533-0.45259 0.3653-0.19514-2e-5 -0.30721-0.12458-0.30718-0.36123 1e-5 -0.11626 0.0291-0.24081 0.0457-0.29893z"/><path d="m177 289.99v-0.036l-3e-3 -3e-3v-3e-3l1e-5 -3e-3 -3e-3 -3e-3v-3e-3h-3e-3v-3e-3h-6e-3v-3e-3h-0.015v-3e-3h-0.027l-3e-3 -2e-5h-3e-3c-0.1827 0.18266-0.44842 0.18679-0.56881 0.18678l-2e-5 0.10375c0.0705 2e-5 0.26156 3e-5 0.42349-0.083l-1.5e-4 1.4739c-1e-5 0.0955-1e-5 0.13284-0.29065 0.13282l-0.11208-1e-5 -1e-5 0.10375c0.054-3e-3 0.41103-0.0125 0.51898-0.0125 0.0872 1e-5 0.45669 7e-3 0.51897 0.0126l1e-5 -0.10374-0.11207-2e-5c-0.29064-2e-5 -0.29063-0.0374-0.29063-0.13289z"/><path d="m178.72 291.2v-0.0704l-3e-3 -0.0249 2e-5 -0.0206-3e-3 -0.0206-3e-3 -0.0249-3e-3 -0.0168-6e-3 -0.0412-7e-3 -0.0168-3e-3 -0.0168-7e-3 -0.0168-7e-3 -0.0167-7e-3 -0.0168-7e-3 -0.0125-7e-3 -0.0168-7e-3 -0.0125-0.0125-7e-3 -7e-3 -0.0125-0.0195-0.0195-0.0124-7e-3 -0.0125-7e-3 -0.0125-3e-3 -0.0125-7e-3 -0.025-6e-3 -0.0168-3e-3 -0.0125-2e-5 -0.0168-3e-3h-0.0125c-0.13699-1e-5 -0.22005 0.10375-0.22005 0.22003-1e-5 0.11207 0.083 0.21589 0.22002 0.21591 0.0498 0 0.10375-0.0124 0.14532-0.0497 0.0125-7e-3 0.0167-0.0125 0.0206-0.0125 3e-3 0 7e-3 3e-3 7e-3 0.0581-3e-5 0.30723-0.14538 0.55633-0.28239 0.68917-0.0457 0.0456-0.0457 0.0539-0.0457 0.0665 0 0.0291 0.0207 0.0457 0.0416 0.0457 0.0456 0 0.37369-0.31551 0.37376-0.80127z"/><polygon transform="matrix(.41518 4.5923e-5 4.5917e-5 -.41518 105.63 584.78)" points="184.17 714.02 182.84 712.67 183.01 712.49 184.17 713.5 185.32 712.49 185.5 712.67"/><path d="m181.63 289.81v-7e-3l3e-3 -0.0125v-7e-3l3e-3 -7e-3v-7e-3l3e-3 -0.0125 3e-3 -0.0206 3e-3 -0.0207 7e-3 -0.0206 3e-3 -0.0207 3e-3 -0.0206 3e-3 -7e-3v-7e-3l3e-3 -7e-3v-0.0125l3e-3 -7e-3v-7e-3l3e-3 -7e-3v-0.01l3e-3 -7e-3v-6e-3l1e-5 -3e-3v-3e-3l3e-3 -3e-3v-3e-3c1e-5 -0.0748-0.0581-0.11209-0.1204-0.11209-0.0498 0-0.12454 0.0332-0.15362 0.11625-0.0125 0.0291-0.20768 0.81788-0.23676 0.92583-0.0292 0.12452-0.0374 0.19512-0.0374 0.26985-1e-5 0.0456-1e-5 0.0538 3e-3 0.0748-0.0955 0.22004-0.22009 0.34874-0.38202 0.34869-0.33214-2e-5 -0.33211-0.30725-0.33209-0.37783 2e-5 -0.13286 0.0207-0.29063 0.21598-0.80128 0.0457-0.1204 0.0706-0.17851 0.0706-0.26155 1e-5 -0.18684-0.13698-0.34046-0.34043-0.34049-0.39026-6e-5 -0.54396 0.59781-0.54396 0.63516 0 0.0416 0.0416 0.0416 0.0497 0.0416 0.0416 0 0.0457-7e-3 0.0665-0.0748 0.1122-0.38195 0.27409-0.51064 0.41941-0.51062 0.0332 0 0.0996 3e-3 0.0996 0.137-1e-5 0.10385-0.0457 0.22006-0.0749 0.29063-0.17858 0.48574-0.22843 0.67257-0.22845 0.83035-3e-5 0.37782 0.27397 0.51901 0.58535 0.51904 0.0706 0 0.26573 3e-5 0.43184-0.28644 0.10795 0.26158 0.39437 0.28653 0.51892 0.28654 0.30724 4e-5 0.48996-0.25736 0.59793-0.50646 0.1412-0.31966 0.27411-0.87185 0.27414-1.0711 1e-5 -0.22836-0.11208-0.29065-0.18265-0.29065-0.10385-1e-5 -0.20761 0.10797-0.20762 0.19926-1e-5 0.054 0.0249 0.079 0.0623 0.11208 0.0456 0.0457 0.14945 0.15363 0.14942 0.34877-1e-5 0.14116-0.12045 0.54802-0.22843 0.75561-0.10797 0.22003-0.25329 0.36534-0.45259 0.3653-0.19513-2e-5 -0.30722-0.12458-0.3072-0.36124 2e-5 -0.11625 0.0291-0.2408 0.0457-0.29892z"/><path d="m184.15 291.3-0.0996-1e-5c-7e-3 0.0665-0.0374 0.23665-0.0749 0.2657-0.0206 0.0167-0.24496 0.0166-0.28648 0.0166l-0.53557-7e-5c0.30726-0.26983 0.40691-0.34871 0.5813-0.48569 0.2159-0.17022 0.41522-0.34871 0.41524-0.62274 5e-5 -0.34875-0.30716-0.56467-0.67666-0.56471-0.36122-4e-5 -0.60621 0.25319-0.60624 0.5189-1e-5 0.14533 0.12455 0.16194 0.15361 0.16194 0.0705 1e-5 0.15361-0.0498 0.15362-0.1536 0-0.054-0.0206-0.15362-0.1702-0.15362 0.0913-0.20344 0.28651-0.26984 0.42351-0.26983 0.29063 3e-5 0.44007 0.22426 0.44004 0.46089-3e-5 0.24913-0.17856 0.44838-0.26992 0.55217l-0.70174 0.68913c-0.0291 0.0249-0.0291 0.0291-0.0291 0.11208l1.1957 1.4e-4z"/><path d="m185.73 290.18 1e-5 -0.0291v-0.0996l-3e-3 -0.0705-3e-3 -0.0706-7e-3 -0.0748-7e-3 -0.079-0.0124-0.0831-0.0125-0.0831-0.0168-0.083-0.0206-0.0871-0.0207-0.0872-0.0248-0.0871-0.0291-0.0871-0.0332-0.0872-0.0168-0.0456-0.0206-0.0457-0.0168-0.0416-0.0206-0.0457c-0.24906-0.50656-0.60607-0.77648-0.6476-0.77648-0.0249 0-0.0416 0.0168-0.0416 0.0416 0 0.0125 0 0.0206 0.079 0.0955 0.40682 0.41109 0.63925 1.0671 0.63915 1.9265-7e-5 0.70581-0.14963 1.4324-0.6645 1.9513-0.0539 0.0498-0.0539 0.0581-0.0539 0.0705 0 0.0249 0.0168 0.0416 0.0416 0.0416 0.0416 1e-5 0.41522-0.28226 0.66023-0.80538 0.20765-0.45252 0.25752-0.90922 0.25756-1.258z"/></g><circle transform="rotate(.0031687)" cx="183.07" cy="286.4" r=".70061" fill="#f00" stroke="none"/><circle transform="rotate(.0031687)" cx="151.16" cy="315.13" r=".7922" fill="#006ab1" fill-rule="evenodd" stroke="none"/></g></g>
  </g>
 </g>
</svg>
