<?xml version="1.0" encoding="UTF-8" standalone="no"?>
<!-- Created with Inkscape (http://www.inkscape.org/) -->

<?xml version="1.0" encoding="UTF-8"?>
<svg width="120.68mm" height="114.28mm" version="1.1" viewBox="0 0 117.1 110.62" xmlns="http://www.w3.org/2000/svg" xmlns:cc="http://creativecommons.org/ns#" xmlns:dc="http://purl.org/dc/elements/1.1/" xmlns:ns0="http://www.iki.fi/pav/software/textext/" xmlns:rdf="http://www.w3.org/1999/02/22-rdf-syntax-ns#">
 <metadata>
  <rdf:RDF>
   <cc:Work rdf:about="">
    <dc:format>image/svg+xml</dc:format>
    <dc:type rdf:resource="http://purl.org/dc/dcmitype/StillImage"/>
    <dc:title/>
   </cc:Work>
  </rdf:RDF>
 </metadata>
 <defs>
  <marker id="a" overflow="visible" orient="auto">
   <path transform="matrix(-.4 0 0 -.4 -4 0)" d="m0 0 5-5-17.5 5 17.5 5z" fill-rule="evenodd" stroke="#000" stroke-width="1pt"/>
  </marker>
  <marker id="b" overflow="visible" orient="auto">
   <path transform="matrix(-.4 0 0 -.4 -4 0)" d="m0 0 5-5-17.5 5 17.5 5z" fill-rule="evenodd" stroke="#000" stroke-width="1pt"/>
  </marker>
 </defs>
 <g stroke="#000" stroke-dasharray="4.62121, 0.770202" stroke-opacity=".10985" stroke-width=".7702">
  <path d="m74.625 73.04-5.4825-27.198"/>
  <path d="m74.522 72.958-37.244-8.2851"/>
  <path d="m75.387 73.28 10.721-37.496"/>
  <path d="m75.678 73.195 23.73-27.199 2.9553-18.851" fill="none"/>
 </g>
 <g transform="translate(-8.9244 -63.978)">
  <path d="m84.124 137.3c9.7997-20.972 15.304-5.3718 21.576-16.273 1.6316-2.9692-1.3071-7.5178-5.3883-7.4701-2.1068 2e-3 -3.8545 2.2786-3.9318 4.6392-0.06562 2.0048 1.1923 4.133 3.2025 4.3152 2.6021 0.2358 5.0447-0.81923 5.3451-3.6973 0.30743-2.9452-4.4776-9.5249-4.6084-13.27-0.15858-4.5394 6.4909-12.393 6.4909-12.393" fill="none" stroke="#000" stroke-dasharray="2.64025, 0.660063" stroke-opacity=".30682" stroke-width=".66006"/>
  <g transform="matrix(1.2506,0,0,-1.2506,-72.165,1072.2)" fill-rule="evenodd" stroke="#000" stroke-miterlimit="10.433" ns0:preamble="default_packages.tex" ns0:text="$x$\n$y$\n" xml:space="preserve"><g stroke-miterlimit="10.433"><g fill="none" stroke="#000" stroke-opacity=".7451"><path d="m76.591 744.89c0.9067 0 76.617 44.126 76.617 44.126" fill="#0074ff" fill-opacity=".47343" stroke="#0084ee" stroke-opacity="1" stroke-width=".53174"/><path d="m69.613 717.63v87.044" marker-end="url(#a)" stroke-miterlimit="10.433" stroke-width=".30157"/><path d="m65.368 722.62h92.182" marker-end="url(#b)" stroke-miterlimit="10.433" stroke-width=".30157"/></g><g fill-rule="evenodd"><g id="content" transform="matrix(1.5,0,0,1.5,-311.17,-218.43)" fill-opacity=".7451" stroke-opacity="0" ns0:preamble="default_packages.tex" ns0:text="$x$\n$y$\n$\\langle y \\rangle$\n$\\langle x \\rangle$\n$\\text{Point of averages}$\n$\\text{Regression line}$\n$\\text{SD line}$\n$\\rho(x,y)\\sigma_y$\n$\\sigma_x$\n" xml:space="preserve"><path d="m312.42 625.66 4e-3 7e-3 3e-3 0.0105v0.0106l3e-3 0.014 4e-3 0.014 7e-3 0.014 3e-3 0.014 4e-3 0.0175 7e-3 0.014 7e-3 0.0176 7e-3 0.0175 0.014 0.0352 7e-3 0.0175 0.0212 0.0352 0.0106 0.0175 0.0105 0.014 0.0106 0.0176 0.014 0.014 0.0106 0.0175 0.014 0.014 0.0175 0.014 0.014 0.0106 0.0176 0.0105 0.014 0.0106 0.0105 3e-3 0.0106 7e-3 7e-3 3e-3 0.0106 4e-3 0.0106 3e-3h0.0106l7e-3 4e-3 0.0106 3e-3h0.0245l0.0106 3e-3h0.0106c0.0175 0 0.10198 0 0.17582-0.0457-0.0985-0.0175-0.16878-0.1055-0.16878-0.18989 0-0.0563 0.0386-0.12308 0.13362-0.12308 0.0774 0 0.18988 0.0633 0.18988 0.20396 0 0.18285-0.20746 0.23208-0.32703 0.23208-0.20394 0-0.32702-0.18637-0.36922-0.26725-0.0879 0.23209-0.27428 0.26725-0.37625 0.26725-0.36571 0-0.56615-0.45361-0.56615-0.53801 0-0.0352 0.0352-0.0352 0.0421-0.0352 0.0281 0 0.0387 7e-3 0.0457 0.0386 0.11955 0.36923 0.35164 0.45714 0.4712 0.45714 0.0668 0 0.18637-0.0317 0.18637-0.2356 0-0.10901-0.0598-0.34109-0.18637-0.82988-0.0563-0.21802-0.17934-0.36571-0.33406-0.36571-0.0211 0-0.10197 0-0.17582 0.0457 0.0879 0.0176 0.16527 0.0914 0.16527 0.18989 0 0.0949-0.0774 0.12307-0.13011 0.12307-0.10549 0-0.1934-0.0914-0.1934-0.20395 0-0.16176 0.17582-0.22857 0.33054-0.22857 0.23208 0 0.35868 0.24263 0.36922 0.26373 0.0387-0.13011 0.16528-0.26373 0.37627-0.26373 0.36219 0 0.56262 0.45011 0.56262 0.53801 0 0.0352-0.0317 0.0352-0.0421 0.0352-0.0317 0-0.0387-0.0176-0.0457-0.0386-0.11604-0.37626-0.35515-0.46066-0.46768-0.46066-0.13714 0-0.1934 0.11253-0.1934 0.23209 0 0.0774 0.0211 0.15472 0.0598 0.30593z" stroke="none"/><path d="m253.12 682.42v4e-3l4e-3 4e-3v0.011l3e-3 4e-3v7e-3l4e-3 3e-3v0.014l3e-3 4e-3v0.033c0 0.0675-0.0525 0.10125-0.10876 0.10125-0.0375 0-0.0975-0.0225-0.13127-0.0788-8e-3 -0.0187-0.0375-0.13502-0.0525-0.20252-0.0262-0.0975-0.0525-0.19502-0.075-0.29628l-0.16876-0.67131c-0.015-0.0562-0.17627-0.31878-0.42004-0.31878-0.19127 0-0.23252 0.16501-0.23252 0.30377 0 0.17252 0.0637 0.4013 0.19127 0.73132 0.06 0.15002 0.075 0.19128 0.075 0.26628 0 0.16876-0.12 0.30753-0.30752 0.30753-0.35629 0-0.49505-0.54005-0.49505-0.57381 0-0.0375 0.0375-0.0375 0.045-0.0375 0.0375 0 0.0412 8e-3 0.06 0.0675 0.10125 0.34878 0.25127 0.46129 0.37878 0.46129 0.03 0 0.0938 0 0.0938-0.12001 0-0.0938-0.0375-0.19126-0.0637-0.26252-0.15001-0.39379-0.21752-0.60756-0.21752-0.78008 0-0.33377 0.23628-0.44253 0.45755-0.44253 0.14626 0 0.27002 0.06 0.37503 0.16501-0.0488-0.19127-0.0938-0.37503-0.24002-0.57381-0.0975-0.1275-0.24002-0.23252-0.41254-0.23252-0.0525 0-0.22127 0.0113-0.28503 0.15377 0.06 0 0.10877 0 0.16126 0.045 0.0375 0.0338 0.075 0.0825 0.075 0.15377 0 0.11626-0.10126 0.13126-0.13875 0.13126-0.0863 0-0.21003-0.06-0.21003-0.24377s0.16502-0.32253 0.39754-0.32253c0.38628 0 0.76882 0.33753 0.87383 0.75757z"/></g></g><g fill="none" fill-opacity="0" stroke="#000" stroke-dasharray="3.26163, 0.543604" stroke-opacity=".28502"><path d="m124.97 747.56-42.363 0.0802" stroke-width=".56759"/><path d="m125 748.34v24.161" stroke="#004500" stroke-opacity=".26515" stroke-width=".5631"/><path d="m124.35 748.43-11.023 17.025" stroke-width=".5646"/></g></g><g fill-opacity=".44928" font-family="Verdana" font-size="6.9573px" letter-spacing="0px" stroke="none" stroke-width=".21156" word-spacing="0px"><text transform="scale(1,-1)" x="125.51301" y="-759.2597" style="line-height:1.25" xml:space="preserve"><tspan x="125.51301" y="-759.2597" fill="#000000" fill-opacity=".44928" font-family="'Adobe Devanagari'" font-size="6.9573px" stroke-width=".21156" style="font-feature-settings:normal;font-variant-caps:normal;font-variant-ligatures:normal;font-variant-numeric:normal">?</tspan></text>
<text transform="scale(1,-1)" x="104.56052" y="-741.81433" fill-rule="evenodd" stroke-miterlimit="10.433" style="line-height:1.25" xml:space="preserve"><tspan x="104.56052" y="-741.81433" fill="#000000" fill-opacity=".44928" font-family="'Adobe Devanagari'" font-size="6.9573px" stroke-width=".21156" style="font-feature-settings:normal;font-variant-caps:normal;font-variant-ligatures:normal;font-variant-numeric:normal">?</tspan></text>
<text transform="scale(1,-1)" x="114.77263" y="-753.63666" fill-rule="evenodd" stroke-miterlimit="10.433" style="line-height:1.25" xml:space="preserve"><tspan x="114.77263" y="-753.63666" fill="#000000" fill-opacity=".44928" font-family="'Adobe Devanagari'" font-size="6.9573px" stroke-width=".21156" style="font-feature-settings:normal;font-variant-caps:normal;font-variant-ligatures:normal;font-variant-numeric:normal">?</tspan></text>
</g><circle transform="scale(1,-1)" cx="124.92" cy="-747.74" r=".88156" fill="#ff0001" opacity=".97" stroke="none" stroke-dasharray="0.479768, 0.0799614" stroke-linecap="square" stroke-linejoin="bevel" stroke-opacity=".9372" stroke-width=".079961"/></g>
  <text x="101.46765" y="108.35004" font-size="15.007px" stroke-width="1.2506" style="line-height:1.25" xml:space="preserve"><tspan x="101.46765" y="108.35004" fill="#000000" fill-opacity=".44928" font-family="'Adobe Devanagari'" font-size="8.7008px" stroke-width=".26458" style="font-feature-settings:normal;font-variant-caps:normal;font-variant-ligatures:normal;font-variant-numeric:normal">?</tspan></text>
 </g>
 <path d="m60.601 50.423 2.0346 3.1152 3.2508-1.9895-2.0518-3.0304z" fill-opacity=".26136" stroke="#000" stroke-opacity=".26515" stroke-width=".20024px"/>
 <path d="m74.422 72.228-23.12-16.489" fill-opacity=".26136" stroke="#000" stroke-dasharray="4.62121, 0.770202" stroke-opacity=".10985" stroke-width=".7702"/>
 <g transform="matrix(.6544 0 0 .6544 73.863 106.17)" ns0:alignment="middle center" ns0:inkscapeversion="1.0" ns0:jacobian_sqrt="1.33333" ns0:pdfconverter="inkscape" ns0:preamble="C:\\Users\\User\\AppData\\Roaming\\inkscape\\extensions\\textext\\default_packages.tex" ns0:scale="1.0" ns0:texconverter="pdflatex" ns0:text="$$x_i$$" ns0:version="1.1.0">
  <defs></defs>
  <g id="id-52171434-75eb-497e-84e0-747db2e08a1a" transform="translate(-301.42 -142.31)">
   <g transform="translate(301.12 146.72)">
    <path d="m2.2554-3.2455c0.0625-0.25 0.29688-1.1719 0.98438-1.1719 0.046875 0 0.29688 0 0.5 0.125-0.28125 0.0625-0.46875 0.29688-0.46875 0.54688 0 0.15625 0.10938 0.34375 0.375 0.34375 0.21875 0 0.53125-0.17188 0.53125-0.57812 0-0.51562-0.57812-0.65625-0.92188-0.65625-0.57812 0-0.92188 0.53125-1.0469 0.75-0.25-0.65625-0.78125-0.75-1.0781-0.75-1.0312 0-1.6094 1.2812-1.6094 1.5312 0 0.10938 0.10938 0.10938 0.125 0.10938 0.078125 0 0.10938-0.03125 0.125-0.10938 0.34375-1.0625 1-1.3125 1.3438-1.3125 0.1875 0 0.53125 0.09375 0.53125 0.67188 0 0.3125-0.17188 0.96875-0.53125 2.375-0.15625 0.60937-0.51562 1.0312-0.95312 1.0312-0.0625 0-0.28125 0-0.5-0.125 0.25-0.0625 0.46875-0.26562 0.46875-0.54687 0-0.26562-0.21875-0.34375-0.35938-0.34375-0.3125 0-0.54688 0.25-0.54688 0.57812 0 0.45312 0.48438 0.65625 0.92188 0.65625 0.67188 0 1.0312-0.70312 1.0469-0.75 0.125 0.35938 0.48438 0.75 1.0781 0.75 1.0312 0 1.5938-1.2812 1.5938-1.5312 0-0.10938-0.078125-0.10938-0.10938-0.10938-0.09375 0-0.10938 0.046875-0.14062 0.10938-0.32812 1.0781-1 1.3125-1.3125 1.3125-0.39062 0-0.54688-0.3125-0.54688-0.65625 0-0.21875 0.046875-0.4375 0.15625-0.875z"/>
   </g>
   <g transform="translate(306.81 148.21)">
    <path id="id-2cee72a9-04f8-4911-955a-675cd770022d" d="m1.1929-4.5893c0-0.10938-0.09375-0.26562-0.28125-0.26562s-0.39062 0.1875-0.39062 0.39062c0 0.10938 0.078125 0.26562 0.28125 0.26562 0.1875 0 0.39062-0.20312 0.39062-0.39062zm-1.4219 3.5469c-0.03125 0.09375-0.0625 0.17187-0.0625 0.29687 0 0.32812 0.26562 0.57812 0.65625 0.57812 0.6875 0 1-0.95312 1-1.0625 0-0.09375-0.09375-0.09375-0.10938-0.09375-0.09375 0-0.10938 0.046875-0.14062 0.125-0.15625 0.5625-0.45312 0.84375-0.73438 0.84375-0.14062 0-0.17188-0.09375-0.17188-0.25s0.046875-0.28125 0.10938-0.4375c0.078125-0.1875 0.15625-0.375 0.21875-0.5625 0.0625-0.17188 0.32812-0.79688 0.34375-0.89062 0.03125-0.0625 0.046875-0.14062 0.046875-0.21875 0-0.32812-0.28125-0.59375-0.65625-0.59375-0.70312 0-1.0156 0.95312-1.0156 1.0781 0 0.078125 0.09375 0.078125 0.125 0.078125 0.09375 0 0.09375-0.03125 0.125-0.10938 0.17188-0.59375 0.48438-0.84375 0.73438-0.84375 0.10938 0 0.17188 0.046875 0.17188 0.23438 0 0.17188-0.03125 0.26562-0.20312 0.70312z"/>
   </g>
  </g>
 </g>
 <path d="m75.104 74.133v29.979" fill="none" stroke="#000" stroke-opacity=".13" stroke-width=".61598"/>
 <g transform="matrix(.68498 0 0 .68498 -.50135 70.649)" ns0:alignment="middle center" ns0:inkscapeversion="1.0" ns0:jacobian_sqrt="1.33333" ns0:pdfconverter="inkscape" ns0:preamble="C:\\Users\\User\\AppData\\Roaming\\inkscape\\extensions\\textext\\default_packages.tex" ns0:scale="1.0" ns0:texconverter="pdflatex" ns0:text="$$y_i$$" ns0:version="1.1.0">
  <defs></defs>
  <g id="id-2ad312e2-ece5-4419-8fef-dd5ef24d788b" transform="translate(-301.82 -142.31)">
   <g id="id-b4c3de8d-3c51-461b-9347-2da80129277a">
    <g transform="translate(301.52 146.72)">
     <path id="id-7f3a3c64-3b25-415b-8849-33bcb054774a" d="m5.5758-3.6871c0.046875-0.14062 0.046875-0.15625 0.046875-0.23438 0-0.17188-0.14062-0.26562-0.29688-0.26562-0.09375 0-0.25 0.0625-0.34375 0.20312-0.015625 0.0625-0.10938 0.35938-0.14062 0.54688-0.078125 0.25-0.14062 0.53125-0.20312 0.79688l-0.45312 1.7969c-0.03125 0.14062-0.46875 0.84375-1.125 0.84375-0.5 0-0.60938-0.4375-0.60938-0.8125 0-0.45313 0.17188-1.0781 0.5-1.9531 0.15625-0.40625 0.20312-0.51562 0.20312-0.71875 0-0.4375-0.3125-0.8125-0.8125-0.8125-0.95312 0-1.3125 1.4531-1.3125 1.5312 0 0.10938 0.09375 0.10938 0.10938 0.10938 0.10938 0 0.10938-0.03125 0.15625-0.1875 0.28125-0.9375 0.67188-1.2344 1.0156-1.2344 0.078125 0 0.25 0 0.25 0.3125 0 0.25-0.10938 0.51562-0.17188 0.70312-0.40625 1.0625-0.57812 1.625-0.57812 2.0938 0 0.89062 0.625 1.1875 1.2188 1.1875 0.39062 0 0.71875-0.17188 1-0.45312-0.125 0.51562-0.25 1.0156-0.64062 1.5469-0.26562 0.32812-0.64062 0.625-1.0938 0.625-0.14062 0-0.59375-0.03125-0.76562-0.42188 0.15625 0 0.29688 0 0.42188-0.125 0.10938-0.078125 0.20312-0.21875 0.20312-0.40625 0-0.3125-0.26562-0.34375-0.35938-0.34375-0.23438 0-0.5625 0.15625-0.5625 0.64062 0 0.5 0.4375 0.875 1.0625 0.875 1.0156 0 2.0469-0.90625 2.3281-2.0312z"/>
    </g>
   </g>
   <g transform="translate(306.41 148.21)">
    <path id="id-640684c2-99ac-48ed-bb25-85d7067f68ba" d="m2.9977-4.2496c0-0.10938-0.09375-0.26562-0.28125-0.26562s-0.39062 0.1875-0.39062 0.39062c0 0.10938 0.078125 0.26562 0.28125 0.26562 0.1875 0 0.39062-0.20312 0.39062-0.39062zm-1.4219 3.5469c-0.03125 0.09375-0.0625 0.17188-0.0625 0.29688 0 0.32812 0.26562 0.57812 0.65625 0.57812 0.6875 0 1-0.95312 1-1.0625 0-0.09375-0.09375-0.09375-0.10938-0.09375-0.09375 0-0.10938 0.046875-0.14062 0.125-0.15625 0.5625-0.45312 0.84375-0.73438 0.84375-0.14062 0-0.17188-0.09375-0.17188-0.25s0.046875-0.28125 0.10938-0.4375c0.078125-0.1875 0.15625-0.375 0.21875-0.5625 0.0625-0.17188 0.32812-0.79688 0.34375-0.89062 0.03125-0.0625 0.046875-0.14062 0.046875-0.21875 0-0.32812-0.28125-0.59375-0.65625-0.59375-0.70312 0-1.0156 0.95312-1.0156 1.0781 0 0.078125 0.09375 0.078125 0.125 0.078125 0.09375 0 0.09375-0.03125 0.125-0.10938 0.17188-0.59375 0.48438-0.84375 0.73438-0.84375 0.10938 0 0.17188 0.046875 0.17188 0.23438 0 0.17188-0.03125 0.26562-0.20312 0.70312z"/>
   </g>
  </g>
 </g>
 <path d="m20.385 73.285h-13.572" fill="none" stroke="#000" stroke-opacity=".13" stroke-width=".69678"/>
 <circle cx="75.228" cy="42.032" r="1.1025" fill="#000001" fill-opacity=".2803" opacity=".97" stroke="#000" stroke-dasharray="0.599998, 0.0999997" stroke-linecap="square" stroke-linejoin="bevel" stroke-opacity=".10985" stroke-width=".099999"/>
 <g transform="matrix(.63289 0 0 .63289 21.305 1.8346)" ns0:alignment="middle center" ns0:inkscapeversion="1.0" ns0:jacobian_sqrt="1.33333" ns0:pdfconverter="inkscape" ns0:preamble="C:\\Users\\User\\AppData\\Roaming\\inkscape\\extensions\\textext\\default_packages.tex" ns0:scale="1.0" ns0:texconverter="pdflatex" ns0:text="$$What distance to choose?$$" ns0:version="1.1.0">
  <defs></defs>
  <g transform="translate(-254.25 -140.8)">
   <g transform="matrix(1.047 0 0 1.062 -13.778 -9.029)">
    <text transform="scale(1.0078 .99227)" x="262.2529" y="146.62148" fill="#000000" font-family="sans-serif" font-size="23.698px" stroke-width=".59246" style="line-height:1.25" xml:space="preserve"><tspan x="262.2529" y="146.62148" font-family="'Times New Roman'" font-size="10.269px" stroke-width=".59246">What distance to choose?</tspan></text>
   </g>
  </g>
 </g>
</svg>
