<?xml version="1.0" encoding="UTF-8" standalone="no"?>
<!-- Created with Inkscape (http://www.inkscape.org/) -->
<svg width="250mm" height="110mm" version="1.1" viewBox="0 0 249.22 124.14" xmlns="http://www.w3.org/2000/svg" xmlns:ns0="http://www.iki.fi/pav/software/textext/">
 <defs>
  <marker id="a" overflow="visible" orient="auto">
   <path transform="scale(.4) rotate(180) translate(10)" d="m0 0 5-5-17.5 5 17.5 5-5-5z" fill-opacity=".7451" fill-rule="evenodd" stroke="#000" stroke-opacity=".7451" stroke-width="1pt"/>
  </marker>
  <marker id="b" overflow="visible" orient="auto">
   <path transform="scale(.4) rotate(180) translate(10)" d="m0 0 5-5-17.5 5 17.5 5-5-5z" fill-opacity=".7451" fill-rule="evenodd" stroke="#000" stroke-opacity=".7451" stroke-width="1pt"/>
  </marker>
  <marker id="c" overflow="visible" orient="auto">
   <path transform="scale(.4) rotate(180) translate(10)" d="m0 0 5-5-17.5 5 17.5 5-5-5z" fill-opacity=".7451" fill-rule="evenodd" stroke="#000" stroke-opacity=".7451" stroke-width="1pt"/>
  </marker>
  <marker id="Arrow1Mend" overflow="visible" orient="auto">
   <path transform="scale(.4) rotate(180) translate(10)" d="m0 0 5-5-17.5 5 17.5 5-5-5z" fill-opacity=".7451" fill-rule="evenodd" stroke="#000" stroke-opacity=".7451" stroke-width="1pt"/>
  </marker>
 </defs>
 <g transform="translate(-24.671 -46.536)">
  <g transform="matrix(1.2506,0,0,-1.2506,-72.165,1072.2)" fill-rule="evenodd" stroke="#000" stroke-miterlimit="10.433" ns0:preamble="default_packages.tex" ns0:text="$x$\n$y$\n" xml:space="preserve"><g transform="matrix(.79961 0 0 -.79961 58.988 860.59)"><g transform="matrix(1.2506,0,0,-1.2506,-72.165,1072.2)" fill-rule="evenodd" stroke="#000" stroke-miterlimit="10.433" ns0:preamble="default_packages.tex" ns0:text="$x$\n$y$\n" xml:space="preserve"><g fill="none" stroke="#000" stroke-miterlimit="10.433" stroke-opacity=".7451" stroke-width=".37145"><path d="m69.613 717.63v87.044" marker-end="url(#a)"/><path d="m65.368 722.62h92.182" marker-end="url(#Arrow1Mend)"/></g><g fill-rule="evenodd" stroke-miterlimit="10.433"><g transform="matrix(1.5,0,0,1.5,-311.17,-218.43)" fill-opacity=".7451" stroke="none" stroke-opacity="0" ns0:preamble="default_packages.tex" ns0:text="$x$\n$y$\n$\\langle y \\rangle$\n$\\langle x \\rangle$\n$\\text{Point of averages}$\n$\\text{Regression line}$\n$\\text{SD line}$\n$\\rho(x,y)\\sigma_y$\n$\\sigma_x$\n" xml:space="preserve"><path d="m312.42 625.66 4e-3 7e-3 3e-3 0.0105v0.0106l3e-3 0.014 4e-3 0.014 7e-3 0.014 3e-3 0.014 4e-3 0.0175 7e-3 0.014 7e-3 0.0176 7e-3 0.0175 0.014 0.0352 7e-3 0.0175 0.0212 0.0352 0.0106 0.0175 0.0105 0.014 0.0106 0.0176 0.014 0.014 0.0106 0.0175 0.014 0.014 0.0175 0.014 0.014 0.0106 0.0176 0.0105 0.014 0.0106 0.0105 3e-3 0.0106 7e-3 7e-3 3e-3 0.0106 4e-3 0.0106 3e-3h0.0106l7e-3 4e-3 0.0106 3e-3h0.0245l0.0106 3e-3h0.0106c0.0175 0 0.10198 0 0.17582-0.0457-0.0985-0.0175-0.16878-0.1055-0.16878-0.18989 0-0.0563 0.0386-0.12308 0.13362-0.12308 0.0774 0 0.18988 0.0633 0.18988 0.20396 0 0.18285-0.20746 0.23208-0.32703 0.23208-0.20394 0-0.32702-0.18637-0.36922-0.26725-0.0879 0.23209-0.27428 0.26725-0.37625 0.26725-0.36571 0-0.56615-0.45361-0.56615-0.53801 0-0.0352 0.0352-0.0352 0.0421-0.0352 0.0281 0 0.0387 7e-3 0.0457 0.0386 0.11955 0.36923 0.35164 0.45714 0.4712 0.45714 0.0668 0 0.18637-0.0317 0.18637-0.2356 0-0.10901-0.0598-0.34109-0.18637-0.82988-0.0563-0.21802-0.17934-0.36571-0.33406-0.36571-0.0211 0-0.10197 0-0.17582 0.0457 0.0879 0.0176 0.16527 0.0914 0.16527 0.18989 0 0.0949-0.0774 0.12307-0.13011 0.12307-0.10549 0-0.1934-0.0914-0.1934-0.20395 0-0.16176 0.17582-0.22857 0.33054-0.22857 0.23208 0 0.35868 0.24263 0.36922 0.26373 0.0387-0.13011 0.16528-0.26373 0.37627-0.26373 0.36219 0 0.56262 0.45011 0.56262 0.53801 0 0.0352-0.0317 0.0352-0.0421 0.0352-0.0317 0-0.0387-0.0176-0.0457-0.0386-0.11604-0.37626-0.35515-0.46066-0.46768-0.46066-0.13714 0-0.1934 0.11253-0.1934 0.23209 0 0.0774 0.0211 0.15472 0.0598 0.30593z"/><path d="m253.12 682.42v4e-3l4e-3 4e-3v0.011l3e-3 4e-3v7e-3l4e-3 3e-3v0.014l3e-3 4e-3v0.033c0 0.0675-0.0525 0.10125-0.10876 0.10125-0.0375 0-0.0975-0.0225-0.13127-0.0788-8e-3 -0.0187-0.0375-0.13502-0.0525-0.20252-0.0262-0.0975-0.0525-0.19502-0.075-0.29628l-0.16876-0.67131c-0.015-0.0562-0.17627-0.31878-0.42004-0.31878-0.19127 0-0.23252 0.16501-0.23252 0.30377 0 0.17252 0.0637 0.4013 0.19127 0.73132 0.06 0.15002 0.075 0.19128 0.075 0.26628 0 0.16876-0.12 0.30753-0.30752 0.30753-0.35629 0-0.49505-0.54005-0.49505-0.57381 0-0.0375 0.0375-0.0375 0.045-0.0375 0.0375 0 0.0412 8e-3 0.06 0.0675 0.10125 0.34878 0.25127 0.46129 0.37878 0.46129 0.03 0 0.0938 0 0.0938-0.12001 0-0.0938-0.0375-0.19126-0.0637-0.26252-0.15001-0.39379-0.21752-0.60756-0.21752-0.78008 0-0.33377 0.23628-0.44253 0.45755-0.44253 0.14626 0 0.27002 0.06 0.37503 0.16501-0.0488-0.19127-0.0938-0.37503-0.24002-0.57381-0.0975-0.1275-0.24002-0.23252-0.41254-0.23252-0.0525 0-0.22127 0.0113-0.28503 0.15377 0.06 0 0.10877 0 0.16126 0.045 0.0375 0.0338 0.075 0.0825 0.075 0.15377 0 0.11626-0.10126 0.13126-0.13875 0.13126-0.0863 0-0.21003-0.06-0.21003-0.24377s0.16502-0.32253 0.39754-0.32253c0.38628 0 0.76882 0.33753 0.87383 0.75757z"/></g><circle transform="scale(1,-1)" cx="111.17" cy="-765" r=".56099" fill="#ff0001" fill-opacity=".42512" opacity=".97" stroke="#b00000" stroke-dasharray="0.31184934, 0.05197489" stroke-linecap="square" stroke-linejoin="bevel" stroke-opacity=".9372" stroke-width=".051975"/><circle transform="scale(1,-1)" cx="131.63" cy="-792.33" r=".56099" fill="#ff0001" fill-opacity=".42512" opacity=".97" stroke="#b00000" stroke-dasharray="0.31184934, 0.05197489" stroke-linecap="square" stroke-linejoin="bevel" stroke-opacity=".9372" stroke-width=".051975"/></g><g transform="matrix(.79961 0 0 -.79961 -41.678 835.81)"><g transform="matrix(1.2506,0,0,-1.2506,-72.165,1072.2)" fill-rule="evenodd" stroke="#000" stroke-miterlimit="10.433" ns0:preamble="default_packages.tex" ns0:text="$x$\n$y$\n" xml:space="preserve"><g fill="#000001" stroke="#000" stroke-miterlimit="10.433"><g stroke="#000" stroke-dasharray="2.39884853, 0.39980809" stroke-opacity=".47059" stroke-width=".39981"><path d="m196.81 756.76v13.434" fill-opacity=".58824"/><path d="m210.96 778.65v6.7757" fill-opacity=".58824"/><path d="m183.07 762.44v5.9372" fill-opacity=".58824"/><path d="m231.15 791.04v22.517" fill-opacity=".58824"/></g><g transform="matrix(.48488 0 0 .48488 106.65 472.82)" fill-opacity=".78431" fill-rule="evenodd" stroke="#000" stroke-opacity=".019324" stroke-width="0" ns0:preamble="default_packages.tex" ns0:text="$$\\text{Residual = error}$$\n" xml:space="preserve"><path d="m262.74 692.6 0.09 0.02 0.09 0.03 0.09 0.02 0.08 0.03 0.09 0.04 0.16 0.06 0.16 0.08 0.07 0.04 0.08 0.05 0.07 0.04 0.07 0.05 0.06 0.04 0.07 0.05 0.11 0.11 0.06 0.05 0.1 0.12 0.04 0.06 0.05 0.06 0.03 0.06 0.04 0.06 0.03 0.06 0.03 0.07 0.02 0.07 0.02 0.06 0.02 0.07 0.01 0.07v0.07l0.01 0.08c0 0.95-1.14 1.79-2.61 1.79h-3.13v-0.31h0.24c0.77 0 0.79-0.11 0.79-0.47v-5.23c0-0.36-0.02-0.47-0.79-0.47h-0.24v-0.31c0.36 0.03 1.07 0.03 1.46 0.03s1.1 0 1.45-0.03v0.31h-0.23c-0.77 0-0.79 0.11-0.79 0.47v5.3c0 0.23 0 0.35 0.22 0.38 0.1 0.02 0.39 0.02 0.58 0.02 0.9 0 2.02-0.04 2.02-1.48 0-0.69-0.24-1.49-1.72-1.49h-1.1v-0.22h1.14c0.16 0 0.58 0 0.93-0.34 0.38-0.36 0.38-0.66 0.38-1.33 0-0.65 0-1.04 0.41-1.42 0.41-0.36 0.96-0.42 1.25-0.42 0.78 0 0.95 0.82 0.95 1.09 0 0.06 0 0.17-0.13 0.17-0.11 0-0.11-0.09-0.12-0.16-0.06-0.7-0.41-0.88-0.65-0.88-0.49 0-0.57 0.51-0.71 1.43l-0.13 0.8c-0.18 0.63-0.67 0.96-1.22 1.15z"/><path d="m266.84 691.52 0.01 0.2c0.06 1.48 0.9 1.73 1.24 1.73 1.03 0 1.13-1.34 1.13-1.73h-2.37l-0.01-0.2h2.79c0.21 0 0.24 0 0.24 0.2 0 0.99-0.53 1.95-1.78 1.95-1.16 0-2.07-1.02-2.07-2.27 0-1.33 1.04-2.29 2.19-2.29 1.22 0 1.66 1.1 1.66 1.29 0 0.1-0.07 0.12-0.12 0.12-0.1 0-0.12-0.06-0.13-0.14-0.35-1.02-1.25-1.02-1.35-1.02-0.5 0-0.9 0.3-1.13 0.66-0.3 0.48-0.3 1.14-0.3 1.5z"/><path d="m272.24 691.15 0.02-0.01h0.03l0.02-0.01h0.04l0.03-0.01 0.04-0.01 0.03-0.01 0.08-0.02 0.05-0.02 0.04-0.01 0.04-0.02 0.05-0.02 0.08-0.04 0.05-0.03 0.04-0.02 0.04-0.03 0.05-0.03 0.11-0.11 0.09-0.12 0.02-0.03 0.01-0.02 0.01-0.03 0.01-0.02 0.01-0.03 0.01-0.02 0.01-0.03v-0.03l0.02-0.06v-0.09l0.01-0.04c0-0.5-0.35-0.9-1.13-0.9-0.84 0-1.2 0.56-1.39 1.41-0.03 0.13-0.04 0.17-0.14 0.17-0.13 0-0.13-0.07-0.13-0.25v-1.31c0-0.17 0-0.24 0.11-0.24 0.05 0 0.06 0.01 0.25 0.2 0.02 0.02 0.02 0.04 0.2 0.23 0.44-0.42 0.89-0.43 1.1-0.43 1.15 0 1.6 0.67 1.6 1.38 0 0.53-0.29 0.83-0.41 0.95-0.33 0.31-0.72 0.39-1.14 0.47-0.56 0.11-1.23 0.24-1.23 0.82 0 0.34 0.26 0.75 1.12 0.75 1.1 0 1.15-0.89 1.16-1.2 0.02-0.09 0.1-0.09 0.12-0.09 0.13 0 0.13 0.05 0.13 0.24v1c0 0.17 0 0.24-0.1 0.24-0.06 0-0.08 0-0.21-0.12-0.03-0.04-0.12-0.13-0.16-0.16-0.38 0.28-0.79 0.28-0.94 0.28-1.22 0-1.6-0.66-1.6-1.22 0-0.35 0.16-0.63 0.43-0.85 0.32-0.25 0.6-0.31 1.32-0.45z"/><path d="m275.86 693.61-1.4-0.11v-0.31c0.65 0 0.74-0.06 0.74-0.54v-2.68c0-0.44-0.11-0.44-0.78-0.44v-0.31c0.32 0.01 0.86 0.03 1.1 0.03 0.35 0 0.7-0.02 1.04-0.03v0.31c-0.66 0-0.7 0.05-0.7 0.43z"/><path d="m275.9 695.34v0.06l-0.01 0.03v0.02l-0.02 0.06-0.01 0.02-0.01 0.03-0.03 0.06-0.02 0.03-0.01 0.02-0.07 0.07-0.02 0.01-0.02 0.02-0.02 0.01-0.02 0.02-0.02 0.01-0.03 0.01-0.04 0.02h-0.03l-0.02 0.01-0.03 0.01h-0.05l-0.02 0.01h-0.03c-0.31 0-0.53-0.27-0.53-0.53 0-0.27 0.22-0.53 0.53-0.53 0.28 0 0.53 0.21 0.53 0.53z"/><path d="m280.65 689.77v-0.66l1.47 0.11v0.31c-0.7 0-0.78 0.07-0.78 0.55v6.03l-1.44-0.1v-0.31c0.7 0 0.78-0.07 0.78-0.56v-2.14c-0.29 0.35-0.72 0.61-1.26 0.61l0.04-0.22c0.35 0 0.77-0.15 1.08-0.59 0.11-0.17 0.11-0.19 0.11-0.37v-2.04c0-0.18 0-0.2-0.11-0.37-0.3-0.47-0.75-0.69-1.18-0.69-0.45 0-0.8 0.26-1.04 0.63-0.26 0.41-0.29 0.98-0.29 1.39 0 0.36 0.02 0.96 0.31 1.41 0.21 0.3 0.59 0.63 1.12 0.63l-0.04 0.22c-1.17 0-2.22-0.97-2.22-2.25 0-1.27 0.98-2.25 2.11-2.25 0.64 0 1.09 0.34 1.34 0.66z"/><path d="m286.3 690.01v-0.9l1.43 0.11v0.31c-0.7 0-0.78 0.07-0.78 0.55v3.53l-1.46-0.11v-0.31c0.7 0 0.78-0.07 0.78-0.55v-1.77c0-0.86-0.48-1.54-1.21-1.54-0.84 0-0.88 0.47-0.88 0.98v3.3l-1.46-0.11v-0.31c0.77 0 0.77-0.03 0.77-0.91v-1.49c0-0.77 0-1.68 1.52-1.68 0.56 0 1 0.28 1.29 0.9z"/><path d="m291.25 689.97 0.01-0.03v-0.04l0.01-0.04 0.01-0.03 0.02-0.08 0.01-0.03 0.01-0.04 0.02-0.04 0.02-0.03 0.01-0.03 0.02-0.04 0.04-0.06 0.03-0.03 0.02-0.03 0.03-0.03 0.02-0.03 0.03-0.02 0.03-0.03 0.09-0.06 0.04-0.02 0.03-0.01 0.04-0.02 0.03-0.01 0.12-0.03h0.09c0.21 0 0.82 0.14 0.82 0.94v0.56h-0.25v-0.56c0-0.57-0.25-0.63-0.36-0.63-0.33 0-0.37 0.44-0.37 0.49v1.99c0 0.42 0 0.81-0.36 1.17-0.39 0.39-0.89 0.55-1.36 0.55-0.82 0-1.51-0.47-1.51-1.12 0-0.3 0.2-0.47 0.46-0.47 0.28 0 0.46 0.2 0.46 0.46 0 0.12-0.05 0.44-0.51 0.46 0.27 0.34 0.76 0.45 1.07 0.45 0.49 0 1.06-0.39 1.06-1.27v-1.57c0-0.94-0.72-1.28-1.16-1.28-0.49 0-0.9 0.35-0.9 0.84 0 0.55 0.42 1.37 2.06 1.43v0.21c-0.51-0.03-1.21-0.06-1.83-0.35-0.75-0.34-1-0.86-1-1.3 0-0.8 0.97-1.05 1.59-1.05 0.66 0 1.12 0.4 1.31 0.86z"/><path d="m294.68 696.11-1.44-0.1v-0.31c0.7 0 0.78-0.07 0.78-0.56v-5.17c0-0.44-0.11-0.44-0.78-0.44v-0.31c0.33 0.01 0.86 0.03 1.11 0.03s0.74-0.02 1.11-0.03v0.31c-0.67 0-0.78 0-0.78 0.44z"/><path d="m303.54 692.77h0.14l0.02 0.01h0.04l0.01 0.01h0.01l0.02 0.01h0.01l0.02 0.02h0.01l0.03 0.03v0.01l0.01 0.01v0.02h0.01v0.04l0.01 0.01v0.03c0 0.2-0.19 0.2-0.33 0.2h-5.98c-0.13 0-0.32 0-0.32-0.2s0.19-0.2 0.34-0.2z"/><path d="m303.55 690.84h0.11l0.01 0.01h0.06l0.01 0.01h0.01l0.01 0.01h0.02l0.01 0.01h0.01l0.03 0.03h0.01v0.01h0.01v0.02h0.01v0.02l0.01 0.01v0.03l0.01 0.01v0.03c0 0.2-0.19 0.2-0.34 0.2h-5.95c-0.15 0-0.34 0-0.34-0.2s0.19-0.2 0.32-0.2z"/><path d="m306.8 691.92 0.01 0.2c0.06 1.48 0.9 1.73 1.24 1.73 1.02 0 1.12-1.34 1.12-1.73h-2.36l-0.01-0.2h2.78c0.22 0 0.25 0 0.25 0.2 0 0.99-0.54 1.95-1.78 1.95-1.16 0-2.08-1.02-2.08-2.27 0-1.33 1.05-2.29 2.2-2.29 1.21 0 1.66 1.1 1.66 1.29 0 0.1-0.08 0.12-0.13 0.12-0.09 0-0.11-0.06-0.13-0.14-0.35-1.02-1.24-1.02-1.34-1.02-0.5 0-0.9 0.3-1.13 0.66-0.3 0.48-0.3 1.14-0.3 1.5z"/><path d="m311.79 692.92v1.09l-1.39-0.11v-0.31c0.7 0 0.78-0.07 0.78-0.55v-2.67c0-0.44-0.11-0.44-0.78-0.44v-0.31c0.39 0.01 0.86 0.03 1.14 0.03 0.4 0 0.86 0 1.26-0.03v0.31h-0.21c-0.73 0-0.75 0.11-0.75 0.47v1.52c0 0.99 0.41 1.87 1.17 1.87 0.07 0 0.09 0 0.11-0.01-0.03-0.01-0.23-0.13-0.23-0.38 0-0.28 0.21-0.43 0.43-0.43 0.18 0 0.43 0.12 0.43 0.44 0 0.31-0.31 0.6-0.74 0.6-0.73 0-1.08-0.66-1.22-1.09z"/><path d="m315.69 692.92v1.09l-1.39-0.11v-0.31c0.7 0 0.78-0.07 0.78-0.55v-2.67c0-0.44-0.11-0.44-0.78-0.44v-0.31c0.39 0.01 0.86 0.03 1.14 0.03 0.4 0 0.87 0 1.27-0.03v0.31h-0.21c-0.74 0-0.76 0.11-0.76 0.47v1.52c0 0.99 0.42 1.87 1.18 1.87 0.07 0 0.08 0 0.1-0.01-0.03-0.01-0.22-0.13-0.22-0.38 0-0.28 0.2-0.43 0.42-0.43 0.18 0 0.43 0.12 0.43 0.44 0 0.31-0.31 0.6-0.73 0.6-0.73 0-1.09-0.66-1.23-1.09z"/><path d="m322.62 691.75v0.11l-0.02 0.24-0.02 0.11-0.09 0.33-0.04 0.11-0.15 0.3-0.18 0.27-0.07 0.08-0.08 0.08-0.07 0.08-0.08 0.08-0.09 0.06-0.08 0.07-0.18 0.12-0.2 0.1-0.1 0.04-0.1 0.03-0.1 0.04-0.33 0.06-0.11 0.01h-0.11l-0.01-0.22c0.44 0 0.87-0.22 1.13-0.64 0.26-0.43 0.26-1.01 0.26-1.38 0-0.36 0-0.9-0.22-1.34s-0.66-0.73-1.16-0.73c-0.43 0-0.87 0.21-1.14 0.66-0.25 0.44-0.25 1.05-0.25 1.41 0 0.38 0 0.92 0.24 1.36 0.27 0.45 0.74 0.66 1.14 0.66l0.01 0.22c-1.25 0-2.21-1.08-2.21-2.32 0-1.29 1.03-2.24 2.2-2.24 1.21 0 2.21 0.97 2.21 2.24z"/><path d="m324.57 692.92v1.09l-1.38-0.11v-0.31c0.69 0 0.77-0.07 0.77-0.55v-2.67c0-0.44-0.1-0.44-0.77-0.44v-0.31c0.39 0.01 0.85 0.03 1.13 0.03 0.4 0 0.87 0 1.27-0.03v0.31h-0.21c-0.74 0-0.76 0.11-0.76 0.47v1.52c0 0.99 0.42 1.87 1.18 1.87 0.07 0 0.09 0 0.11-0.01-0.03-0.01-0.23-0.13-0.23-0.38 0-0.28 0.21-0.43 0.43-0.43 0.18 0 0.43 0.12 0.43 0.44 0 0.31-0.31 0.6-0.74 0.6-0.73 0-1.09-0.66-1.23-1.09z"/></g><g transform="matrix(.48027 0 0 .48027 159.99 477.28)" fill-opacity=".47059" fill-rule="evenodd" stroke-width="0" ns0:preamble="default_packages.tex" ns0:text="+3 +1 -1 -2\n" xml:space="preserve"><path d="m147.9 708.85h2.78c0.14 0 0.33 0 0.33 0.2s-0.19 0.2-0.33 0.2h-2.78v2.78c0 0.14 0 0.33-0.2 0.33s-0.2-0.19-0.2-0.33v-2.78h-2.79c-0.14 0-0.33 0-0.33-0.2s0.19-0.2 0.33-0.2h2.79v-2.78c0-0.14 0-0.33 0.2-0.33s0.2 0.19 0.2 0.33z"/><path d="m154.46 710.06 0.08 0.03 0.07 0.03 0.08 0.03 0.07 0.03 0.14 0.08 0.06 0.04 0.07 0.04 0.06 0.04 0.12 0.1 0.05 0.05 0.06 0.05 0.05 0.05 0.05 0.06 0.05 0.05 0.04 0.06 0.05 0.06 0.04 0.06 0.03 0.06 0.04 0.07 0.03 0.06 0.03 0.07 0.03 0.06 0.06 0.21 0.03 0.21 0.01 0.08v0.07c0 0.81-0.88 1.37-1.84 1.37-1 0-1.76-0.59-1.76-1.35 0-0.33 0.22-0.52 0.51-0.52 0.31 0 0.51 0.22 0.51 0.51 0 0.5-0.47 0.5-0.62 0.5 0.31 0.48 0.96 0.61 1.32 0.61 0.41 0 0.96-0.22 0.96-1.11 0-0.12-0.02-0.7-0.28-1.13-0.3-0.48-0.64-0.51-0.89-0.52-0.07-0.01-0.31-0.03-0.38-0.03-0.08-0.01-0.15-0.02-0.15-0.12 0-0.11 0.07-0.11 0.24-0.11h0.43c0.82 0 1.19-0.67 1.19-1.65 0-1.35-0.69-1.64-1.13-1.64-0.43 0-1.17 0.17-1.52 0.76 0.35-0.05 0.66 0.17 0.66 0.55 0 0.35-0.27 0.55-0.56 0.55-0.24 0-0.56-0.14-0.56-0.57 0-0.91 0.93-1.56 2.01-1.56 1.22 0 2.13 0.9 2.13 1.91 0 0.82-0.63 1.59-1.67 1.8z"/><path d="m43.043 614.07h2.78c0.14 0 0.33 0 0.33 0.2s-0.19 0.2-0.33 0.2h-2.78v2.78c0 0.14 0 0.33-0.2 0.33s-0.2-0.19-0.2-0.33v-2.78h-2.79c-0.14 0-0.33 0-0.33-0.2s0.19-0.2 0.33-0.2h2.79v-2.78c0-0.14 0-0.33 0.2-0.33s0.2 0.19 0.2 0.33z"/><path d="m49.643 618.14v0.15l-0.01 0.01v0.03l-0.01 0.01v0.01l-0.01 0.01v0.01h-0.01l-0.01 0.01h-0.01v0.01h-0.04v0.01h-0.13c-0.62-0.64-1.5-0.64-1.81-0.64v-0.3c0.2 0 0.78 0 1.3 0.25v-5.14c0-0.36-0.03-0.48-0.93-0.48h-0.31v-0.3c0.34 0.03 1.21 0.03 1.61 0.03s1.27 0 1.62-0.03v0.3h-0.32c-0.9 0-0.93 0.11-0.93 0.48z"/><polygon transform="translate(-50.044,-91.879)" points="180.93 709.56 180.93 708.98 183.57 708.98 183.57 709.56"/><path d="m137.03 621.6v0.15l-0.01 0.01v0.03l-0.01 0.01v0.01l-0.01 0.01v0.01h-0.01l-0.01 0.01h-0.01v0.01h-0.04v0.01h-0.13c-0.62-0.64-1.49-0.64-1.82-0.64v-0.3c0.21 0 0.79 0 1.31 0.25v-5.14c0-0.36-0.03-0.48-0.93-0.48h-0.31v-0.3c0.34 0.03 1.21 0.03 1.61 0.03s1.27 0 1.62-0.03v0.3h-0.32c-0.9 0-0.93 0.11-0.93 0.48z"/><polygon transform="translate(-121.39,-138.13)" points="195.19 709.56 192.55 709.56 192.55 708.98 195.19 708.98"/><path d="m75.628 569.76 1.06 1.02c1.56 1.37 2.16 1.91 2.16 2.9 0 1.14-0.9 1.93-2.12 1.93-1.13 0-1.86-0.91-1.86-1.8 0-0.55 0.5-0.55 0.52-0.55 0.17 0 0.52 0.12 0.52 0.52 0 0.26-0.18 0.52-0.53 0.52-0.07 0-0.09 0-0.12-0.01 0.22 0.65 0.76 1.01 1.34 1.01 0.91 0 1.34-0.8 1.34-1.62 0-0.79-0.5-1.58-1.05-2.19l-1.91-2.13c-0.11-0.11-0.11-0.13-0.11-0.36h3.7l0.28 1.72h-0.25c-0.05-0.3-0.12-0.73-0.22-0.88-0.07-0.08-0.73-0.08-0.95-0.08z"/><g fill-rule="evenodd" stroke-miterlimit="10.433"><path d="m101.96 650.14h2.78c0.14 0 0.33 0 0.33 0.2s-0.19 0.2-0.33 0.2h-2.78v2.78c0 0.14 0 0.33-0.2 0.33s-0.2-0.19-0.2-0.33v-2.78h-2.79c-0.14 0-0.33 0-0.33-0.2s0.19-0.2 0.33-0.2h2.79v-2.78c0-0.14 0-0.33 0.2-0.33s0.2 0.19 0.2 0.33z"/><path d="m108.56 654.21v0.15l-0.01 0.01v0.03l-0.01 0.01v0.01l-0.01 0.01v0.01h-0.01l-0.01 0.01h-0.01v0.01h-0.04v0.01h-0.13c-0.62001-0.64-1.5-0.64-1.81-0.64v-0.3c0.2 0 0.78 0 1.3 0.25v-5.14c0-0.36-0.03-0.48-0.93-0.48h-0.31v-0.3c0.34 0.03 1.21 0.03 1.61 0.03s1.27 0 1.62-0.03v0.3h-0.32c-0.9 0-0.93 0.11-0.93 0.48z"/><path d="m402.72 678.98 0.08 0.03 0.07 0.03 0.08 0.03 0.07 0.03 0.14 0.08 0.06 0.04 0.07 0.04 0.06 0.04 0.12 0.1 0.05 0.05 0.06 0.05 0.05 0.05 0.05 0.06 0.05 0.05 0.04 0.06 0.05 0.06 0.04 0.06 0.03 0.06 0.04 0.07 0.03 0.06 0.03 0.07 0.03 0.06 0.06 0.21 0.03 0.21 0.01 0.08v0.07c0 0.81-0.88 1.37-1.84 1.37-1 0-1.76-0.59-1.76-1.35 0-0.33 0.22-0.52 0.51-0.52 0.31 0 0.51 0.22 0.51 0.51 0 0.5-0.47 0.5-0.62 0.5 0.31 0.48 0.96 0.61 1.32 0.61 0.41 0 0.96-0.22 0.96-1.11 0-0.12-0.02-0.7-0.28-1.13-0.3-0.48-0.64-0.51-0.89-0.52-0.07-0.01-0.31-0.03-0.38-0.03-0.08-0.01-0.15-0.02-0.15-0.12 0-0.11 0.07-0.11 0.24-0.11h0.43c0.82 0 1.19-0.67 1.19-1.65 0-1.35-0.69-1.64-1.13-1.64-0.43 0-1.17 0.17-1.52 0.76 0.35-0.05 0.66 0.17 0.66 0.55 0 0.35-0.27 0.55-0.56 0.55-0.24 0-0.56-0.14-0.56-0.57 0-0.91 0.93-1.56 2.01-1.56 1.22 0 2.13 0.9 2.13 1.91 0 0.82-0.63 1.59-1.67 1.8z"/><path d="m433.53 706.98 0.08 0.03 0.07 0.03 0.08 0.03 0.07 0.03 0.14 0.08 0.06 0.04 0.07 0.04 0.06 0.04 0.12 0.1 0.05 0.05 0.06 0.05 0.05 0.05 0.05 0.06 0.05 0.05 0.04 0.06 0.05 0.06 0.04 0.06 0.03 0.06 0.04 0.07 0.03 0.06 0.03 0.07 0.03 0.06 0.06 0.21 0.03 0.21 0.01 0.08v0.07c0 0.81-0.88 1.37-1.84 1.37-1 0-1.76-0.59-1.76-1.35 0-0.33 0.22-0.52 0.51-0.52 0.31 0 0.51 0.22 0.51 0.51 0 0.5-0.47 0.5-0.62 0.5 0.31 0.48 0.96 0.61 1.32 0.61 0.41 0 0.96-0.22 0.96-1.11 0-0.12-0.02-0.7-0.28-1.13-0.3-0.48-0.64-0.51-0.89-0.52-0.07-0.01-0.31-0.03-0.38-0.03-0.08-0.01-0.15-0.02-0.15-0.12 0-0.11 0.07-0.11 0.24-0.11h0.43c0.82 0 1.19-0.67 1.19-1.65 0-1.35-0.69-1.64-1.13-1.64-0.43 0-1.17 0.17-1.52 0.76 0.35-0.05 0.66 0.17 0.66 0.55 0 0.35-0.27 0.55-0.56 0.55-0.24 0-0.56-0.14-0.56-0.57 0-0.91 0.93-1.56 2.01-1.56 1.22 0 2.13 0.9 2.13 1.91 0 0.82-0.63 1.59-1.67 1.8z"/><path d="m418.43 639.12v0.15l-0.01 0.01v0.03l-0.01 0.01v0.01l-0.01 0.01v0.01h-0.01l-0.01 0.01h-0.01v0.01h-0.04v0.01h-0.13c-0.62-0.64-1.49-0.64-1.82-0.64v-0.3c0.21 0 0.79 0 1.31 0.25v-5.14c0-0.36-0.03-0.48-0.93-0.48h-0.31v-0.3c0.34 0.03 1.21 0.03 1.61 0.03s1.27 0 1.62-0.03v0.3h-0.32c-0.9 0-0.93 0.11-0.93 0.48z"/><path d="m404.01 624.22v0.15l-0.01 0.01v0.03l-0.01 0.01v0.01l-0.01 0.01v0.01h-0.01l-0.01 0.01h-0.01v0.01h-0.04v0.01h-0.13c-0.62-0.64-1.49-0.64-1.82-0.64v-0.3c0.21 0 0.79 0 1.31 0.25v-5.14c0-0.36-0.03-0.48-0.93-0.48h-0.31v-0.3c0.34 0.03 1.21 0.03 1.61 0.03s1.27 0 1.62-0.03v0.3h-0.32c-0.9 0-0.93 0.11-0.93 0.48z"/><path d="m345.6 639.91v0.15l-0.01 0.01v0.03l-0.01 0.01v0.01l-0.01 0.01v0.01h-0.01l-0.01 0.01h-0.01v0.01h-0.04v0.01h-0.13c-0.62-0.64-1.49-0.64-1.82-0.64v-0.3c0.21 0 0.79 0 1.31 0.25v-5.14c0-0.36-0.03-0.48-0.93-0.48h-0.31v-0.3c0.34 0.03 1.21 0.03 1.61 0.03s1.27 0 1.62-0.03v0.3h-0.32c-0.9 0-0.93 0.11-0.93 0.48z"/><path d="m357.39 652.7v0.15l-0.01 0.01v0.03l-0.01 0.01v0.01l-0.01 0.01v0.01h-0.01l-0.01 0.01h-0.01v0.01h-0.04v0.01h-0.13c-0.62-0.64-1.49-0.64-1.82-0.64v-0.3c0.21 0 0.79 0 1.31 0.25v-5.14c0-0.36-0.03-0.48-0.93-0.48h-0.31v-0.3c0.34 0.03 1.21 0.03 1.61 0.03s1.27 0 1.62-0.03v0.3h-0.32c-0.9 0-0.93 0.11-0.93 0.48z"/><path d="m289.98 605.42v0.15l-0.01 0.01v0.03l-0.01 0.01v0.01l-0.01 0.01v0.01h-0.01l-0.01 0.01h-0.01v0.01h-0.04v0.01h-0.13c-0.62-0.64-1.49-0.64-1.82-0.64v-0.3c0.21 0 0.79 0 1.31 0.25v-5.14c0-0.36-0.03-0.48-0.93-0.48h-0.31v-0.3c0.34 0.03 1.21 0.03 1.61 0.03s1.27 0 1.62-0.03v0.3h-0.32c-0.9 0-0.93 0.11-0.93 0.48z"/><path d="m300.32 617.1v0.15l-0.01 0.01v0.03l-0.01 0.01v0.01l-0.01 0.01v0.01h-0.01l-0.01 0.01h-0.01v0.01h-0.04v0.01h-0.13c-0.62-0.64-1.49-0.64-1.82-0.64v-0.3c0.21 0 0.79 0 1.31 0.25v-5.14c0-0.36-0.03-0.48-0.93-0.48h-0.31v-0.3c0.34 0.03 1.21 0.03 1.61 0.03s1.27 0 1.62-0.03v0.3h-0.32c-0.9 0-0.93 0.11-0.93 0.48z"/><path d="m348.34 572.34 1.06 1.02c1.56 1.37 2.16 1.91 2.16 2.9 0 1.14-0.9 1.93-2.12 1.93-1.13 0-1.86-0.91-1.86-1.8 0-0.55 0.5-0.55 0.52-0.55 0.17 0 0.52 0.12 0.52 0.52 0 0.26-0.18 0.52-0.53 0.52-0.07 0-0.09 0-0.12-0.01 0.22 0.65 0.76 1.01 1.34 1.01 0.91 0 1.34-0.8 1.34-1.62 0-0.79-0.5-1.58-1.05-2.19l-1.91-2.13c-0.11-0.11-0.11-0.13-0.11-0.36h3.7l0.28 1.72h-0.25c-0.05-0.3-0.12-0.73-0.22-0.88-0.07-0.08-0.73-0.08-0.95-0.08z"/><path d="m328.06 593.38 1.06 1.02c1.56 1.37 2.16 1.91 2.16 2.9 0 1.14-0.9 1.93-2.12 1.93-1.13 0-1.86-0.91-1.86-1.8 0-0.55 0.5-0.55 0.52-0.55 0.17 0 0.52 0.12 0.52 0.52 0 0.26-0.18 0.52-0.53 0.52-0.07 0-0.09 0-0.12-0.01 0.22 0.65 0.76 1.01 1.34 1.01 0.91 0 1.34-0.8 1.34-1.62 0-0.79-0.5-1.58-1.05-2.19l-1.91-2.13c-0.11-0.11-0.11-0.13-0.11-0.36h3.7l0.28 1.72h-0.25c-0.05-0.3-0.12-0.73-0.22-0.88-0.07-0.08-0.73-0.08-0.95-0.08z"/></g></g></g></g></g><g stroke-miterlimit="10.433"><g fill="#ff0001" fill-rule="evenodd" stroke="none" stroke-dasharray="0.47976673, 0.07996111" stroke-linecap="square" stroke-linejoin="bevel" stroke-opacity=".9372" stroke-width=".079961"><circle transform="scale(1,-1)" cx="83.634" cy="-747.66" r=".88156" opacity=".97"/><circle transform="scale(1,-1)" cx="97.386" cy="-734.13" r=".88156" opacity=".97"/><circle transform="scale(1,-1)" cx="111.53" cy="-765.07" r=".88156" opacity=".97"/><circle transform="scale(1,-1)" cx="125.63" cy="-756.1" r=".88156" opacity=".97"/><circle transform="scale(1,-1)" cx="131.72" cy="-792.21" r=".88156" opacity=".97"/></g><g fill="none" stroke="#000"><path d="m125.69 756.96v7.8986" fill="#000001" fill-opacity=".58824" stroke-dasharray="2.39884107, 0.39980685" stroke-opacity=".47059" stroke-width=".39981"/><path d="m193.74 718.11v87.044" marker-end="url(#c)" stroke-miterlimit="10.433" stroke-opacity=".7451" stroke-width=".37145"/><path d="m189.49 723.09h92.182" marker-end="url(#b)" stroke-miterlimit="10.433" stroke-opacity=".7451" stroke-width=".37145"/></g><g fill-rule="evenodd"><g transform="matrix(1.5,0,0,1.5,-187.05,-217.96)" fill-opacity=".7451" stroke-opacity="0" ns0:preamble="default_packages.tex" ns0:text="$x$\n$y$\n$\\langle y \\rangle$\n$\\langle x \\rangle$\n$\\text{Point of averages}$\n$\\text{Regression line}$\n$\\text{SD line}$\n$\\rho(x,y)\\sigma_y$\n$\\sigma_x$\n" xml:space="preserve"><path d="m312.42 625.66 4e-3 7e-3 3e-3 0.0105v0.0106l3e-3 0.014 4e-3 0.014 7e-3 0.014 3e-3 0.014 4e-3 0.0175 7e-3 0.014 7e-3 0.0176 7e-3 0.0175 0.014 0.0352 7e-3 0.0175 0.0212 0.0352 0.0106 0.0175 0.0105 0.014 0.0106 0.0176 0.014 0.014 0.0106 0.0175 0.014 0.014 0.0175 0.014 0.014 0.0106 0.0176 0.0105 0.014 0.0106 0.0105 3e-3 0.0106 7e-3 7e-3 3e-3 0.0106 4e-3 0.0106 3e-3h0.0106l7e-3 4e-3 0.0106 3e-3h0.0245l0.0106 3e-3h0.0106c0.0175 0 0.10198 0 0.17582-0.0457-0.0985-0.0175-0.16878-0.1055-0.16878-0.18989 0-0.0563 0.0386-0.12308 0.13362-0.12308 0.0774 0 0.18988 0.0633 0.18988 0.20396 0 0.18285-0.20746 0.23208-0.32703 0.23208-0.20394 0-0.32702-0.18637-0.36922-0.26725-0.0879 0.23209-0.27428 0.26725-0.37625 0.26725-0.36571 0-0.56615-0.45361-0.56615-0.53801 0-0.0352 0.0352-0.0352 0.0421-0.0352 0.0281 0 0.0387 7e-3 0.0457 0.0386 0.11955 0.36923 0.35164 0.45714 0.4712 0.45714 0.0668 0 0.18637-0.0317 0.18637-0.2356 0-0.10901-0.0598-0.34109-0.18637-0.82988-0.0563-0.21802-0.17934-0.36571-0.33406-0.36571-0.0211 0-0.10197 0-0.17582 0.0457 0.0879 0.0176 0.16527 0.0914 0.16527 0.18989 0 0.0949-0.0774 0.12307-0.13011 0.12307-0.10549 0-0.1934-0.0914-0.1934-0.20395 0-0.16176 0.17582-0.22857 0.33054-0.22857 0.23208 0 0.35868 0.24263 0.36922 0.26373 0.0387-0.13011 0.16528-0.26373 0.37627-0.26373 0.36219 0 0.56262 0.45011 0.56262 0.53801 0 0.0352-0.0317 0.0352-0.0421 0.0352-0.0317 0-0.0387-0.0176-0.0457-0.0386-0.11604-0.37626-0.35515-0.46066-0.46768-0.46066-0.13714 0-0.1934 0.11253-0.1934 0.23209 0 0.0774 0.0211 0.15472 0.0598 0.30593z"/><path d="m253.12 682.42v4e-3l4e-3 4e-3v0.011l3e-3 4e-3v7e-3l4e-3 3e-3v0.014l3e-3 4e-3v0.033c0 0.0675-0.0525 0.10125-0.10876 0.10125-0.0375 0-0.0975-0.0225-0.13127-0.0788-8e-3 -0.0187-0.0375-0.13502-0.0525-0.20252-0.0262-0.0975-0.0525-0.19502-0.075-0.29628l-0.16876-0.67131c-0.015-0.0562-0.17627-0.31878-0.42004-0.31878-0.19127 0-0.23252 0.16501-0.23252 0.30377 0 0.17252 0.0637 0.4013 0.19127 0.73132 0.06 0.15002 0.075 0.19128 0.075 0.26628 0 0.16876-0.12 0.30753-0.30752 0.30753-0.35629 0-0.49505-0.54005-0.49505-0.57381 0-0.0375 0.0375-0.0375 0.045-0.0375 0.0375 0 0.0412 8e-3 0.06 0.0675 0.10125 0.34878 0.25127 0.46129 0.37878 0.46129 0.03 0 0.0938 0 0.0938-0.12001 0-0.0938-0.0375-0.19126-0.0637-0.26252-0.15001-0.39379-0.21752-0.60756-0.21752-0.78008 0-0.33377 0.23628-0.44253 0.45755-0.44253 0.14626 0 0.27002 0.06 0.37503 0.16501-0.0488-0.19127-0.0938-0.37503-0.24002-0.57381-0.0975-0.1275-0.24002-0.23252-0.41254-0.23252-0.0525 0-0.22127 0.0113-0.28503 0.15377 0.06 0 0.10877 0 0.16126 0.045 0.0375 0.0338 0.075 0.0825 0.075 0.15377 0 0.11626-0.10126 0.13126-0.13875 0.13126-0.0863 0-0.21003-0.06-0.21003-0.24377s0.16502-0.32253 0.39754-0.32253c0.38628 0 0.76882 0.33753 0.87383 0.75757z"/></g><circle transform="scale(1,-1)" cx="235.3" cy="-765.47" r=".56099" fill="#ff0001" fill-opacity=".42512" opacity=".97" stroke="#b00000" stroke-dasharray="0.31184934, 0.05197489" stroke-linecap="square" stroke-linejoin="bevel" stroke-opacity=".9372" stroke-width=".051975"/><circle transform="scale(1,-1)" cx="255.75" cy="-792.8" r=".56099" fill="#ff0001" fill-opacity=".42512" opacity=".97" stroke="#b00000" stroke-dasharray="0.31184934, 0.05197489" stroke-linecap="square" stroke-linejoin="bevel" stroke-opacity=".9372" stroke-width=".051975"/></g><g fill="#f00" fill-opacity=".31373" stroke="#f00" stroke-dasharray="2.21763912, 0.36960652" stroke-linecap="square" stroke-opacity=".12941" stroke-width=".36961"><rect transform="scale(1,-1)" x="201.6" y="-748.12" width="6.0447" height="6.0447" opacity=".97"/><g fill-rule="evenodd"><rect transform="scale(-1)" x="-236.48" y="-749.34" width="14.943" height="14.943" opacity=".97"/><rect transform="scale(-1)" x="-235.71" y="-765.41" width="7.1781" height="7.1781" opacity=".97"/><rect transform="scale(-1)" x="-259" y="-765.72" width="9.258" height="9.258" opacity=".97"/><rect transform="scale(1,-1)" x="255.82" y="-792.77" width="23.161" height="23.161" opacity=".97"/></g></g><path d="m196.34 735.41c0.99536 0 84.108 48.454 84.108 48.454" fill="none" stroke="#0074ff" stroke-opacity=".99034" stroke-width=".53174"/><g id="content" transform="matrix(.6222 0 0 .6222 -61.807 400.09)" fill="#000001" fill-rule="evenodd" stroke-opacity="0" stroke-width="0" ns0:preamble="default_packages.tex" ns0:text="$$\\text{Calculus perspective}$$\n$$\\text{Geometric perspective}$$\n" xml:space="preserve"><path d="m246.64 665.69v-0.19l0.04-0.38 0.03-0.18 0.04-0.18 0.05-0.17 0.12-0.34 0.07-0.16 0.16-0.3 0.1-0.15 0.2-0.28 0.11-0.13 0.24-0.24 0.26-0.22 0.14-0.1 0.14-0.09 0.14-0.08 0.15-0.08 0.15-0.07 0.16-0.07 0.32-0.1 0.17-0.04 0.16-0.03 0.17-0.02 0.18-0.01 0.17-0.01c1.62 0 2.6 1.38 2.6 2.53 0 0.1 0 0.17-0.13 0.17-0.11 0-0.11-0.06-0.12-0.16-0.08-1.42-1.15-2.23-2.23-2.23-0.61 0-2.56 0.34-2.56 3.3 0 2.97 1.94 3.3 2.55 3.3 1.09 0 1.97-0.9 2.17-2.35 0.02-0.14 0.02-0.17 0.16-0.17 0.16 0 0.16 0.03 0.16 0.24v2.35c0 0.17 0 0.24-0.11 0.24-0.04 0-0.08 0-0.16-0.12l-0.5-0.73c-0.37 0.36-0.87 0.85-1.83 0.85-1.87 0-3.47-1.58-3.47-3.6z"/><path d="m256.6 663.04v-0.03l0.01-0.04v-0.04l0.01-0.03 0.02-0.08 0.01-0.03 0.02-0.04 0.01-0.04 0.04-0.06 0.02-0.04 0.08-0.12 0.11-0.11 0.06-0.04 0.04-0.02 0.03-0.02 0.03-0.01 0.04-0.02 0.16-0.04h0.08c0.21 0 0.82 0.14 0.82 0.94v0.56h-0.25v-0.56c0-0.57-0.25-0.63-0.36-0.63-0.33 0-0.37 0.44-0.37 0.49v1.99c0 0.42 0 0.81-0.36 1.17-0.38 0.39-0.88 0.55-1.36 0.55-0.82 0-1.51-0.47-1.51-1.12 0-0.3 0.2-0.47 0.46-0.47 0.28 0 0.46 0.2 0.46 0.46 0 0.12-0.05 0.44-0.51 0.46 0.27 0.34 0.76 0.45 1.08 0.45 0.49 0 1.06-0.39 1.06-1.27v-1.57c0-0.94-0.72-1.28-1.17-1.28-0.49 0-0.9 0.35-0.9 0.84 0 0.55 0.42 1.37 2.07 1.43v0.21c-0.51-0.03-1.21-0.06-1.84-0.35-0.75-0.34-1-0.86-1-1.3 0-0.8 0.97-1.05 1.6-1.05 0.66 0 1.12 0.4 1.31 0.86z"/><path d="m260.02 669.18-1.43-0.1v-0.31c0.69 0 0.77-0.07 0.77-0.56v-5.17c0-0.44-0.11-0.44-0.77-0.44v-0.31c0.32 0.01 0.85 0.03 1.1 0.03s0.74-0.02 1.11-0.03v0.31c-0.67 0-0.78 0-0.78 0.44z"/><path d="m262.19 664.46v0.14l0.01 0.08v0.07l0.01 0.06v0.07l0.01 0.07 0.05 0.3 0.03 0.1 0.03 0.11 0.03 0.09 0.04 0.1 0.12 0.24 0.05 0.07 0.15 0.18 0.05 0.05 0.05 0.04 0.06 0.04 0.05 0.04 0.06 0.04 0.06 0.03 0.05 0.02 0.12 0.04 0.05 0.02 0.06 0.01 0.1 0.02h0.11c0.09 0 0.71-0.01 1.06-0.37-0.41-0.03-0.47-0.32-0.47-0.45 0-0.26 0.18-0.46 0.46-0.46 0.26 0 0.46 0.17 0.46 0.47 0 0.67-0.76 1.06-1.52 1.06-1.25 0-2.17-1.07-2.17-2.3 0-1.28 0.99-2.26 2.15-2.26 1.33 0 1.65 1.19 1.65 1.29s-0.1 0.1-0.13 0.1c-0.09 0-0.11-0.04-0.13-0.1-0.29-0.92-0.93-1.04-1.3-1.04-0.53 0-1.41 0.43-1.41 2.03z"/><path d="m269.35 663.08v-0.9l1.44 0.11v0.31c-0.7 0-0.78 0.07-0.78 0.55v3.53l-1.47-0.11v-0.31c0.7 0 0.78-0.07 0.78-0.55v-1.77c0-0.86-0.48-1.54-1.21-1.54-0.83 0-0.87 0.47-0.87 0.98v3.3l-1.47-0.11v-0.31c0.78 0 0.78-0.03 0.78-0.91v-1.49c0-0.77 0-1.68 1.51-1.68 0.56 0 1 0.28 1.29 0.9z"/><path d="m272.75 669.18-1.43-0.1v-0.31c0.69 0 0.77-0.07 0.77-0.56v-5.17c0-0.44-0.11-0.44-0.77-0.44v-0.31c0.33 0.01 0.85 0.03 1.1 0.03s0.74-0.02 1.11-0.03v0.31c-0.67 0-0.78 0-0.78 0.44z"/><path d="m277.65 663.08v-0.9l1.44 0.11v0.31c-0.7 0-0.78 0.07-0.78 0.55v3.53l-1.46-0.11v-0.31c0.69 0 0.77-0.07 0.77-0.55v-1.77c0-0.86-0.48-1.54-1.2-1.54-0.84 0-0.88 0.47-0.88 0.98v3.3l-1.47-0.11v-0.31c0.78 0 0.78-0.03 0.78-0.91v-1.49c0-0.77 0-1.68 1.52-1.68 0.56 0 0.99 0.28 1.28 0.9z"/><path d="m281.36 664.22 0.03-0.01h0.02l0.03-0.01h0.03l0.03-0.01 0.16-0.04 0.04-0.02 0.04-0.01 0.05-0.02 0.04-0.02 0.05-0.02 0.04-0.02 0.04-0.03 0.05-0.02 0.12-0.09 0.04-0.04 0.03-0.04 0.04-0.04 0.06-0.08 0.01-0.03 0.01-0.02 0.02-0.03 0.01-0.02 0.01-0.03 0.01-0.02v-0.03l0.02-0.06v-0.03l0.01-0.03v-0.1c0-0.5-0.35-0.9-1.13-0.9-0.83 0-1.19 0.56-1.38 1.41-0.03 0.13-0.04 0.17-0.14 0.17-0.13 0-0.13-0.07-0.13-0.25v-1.31c0-0.17 0-0.24 0.11-0.24 0.05 0 0.06 0.01 0.25 0.2 0.02 0.02 0.02 0.04 0.2 0.23 0.44-0.42 0.88-0.43 1.09-0.43 1.15 0 1.61 0.67 1.61 1.38 0 0.53-0.3 0.83-0.42 0.95-0.33 0.31-0.72 0.39-1.14 0.47-0.56 0.11-1.22 0.24-1.22 0.82 0 0.34 0.26 0.75 1.11 0.75 1.1 0 1.15-0.89 1.17-1.2 0.01-0.09 0.1-0.09 0.12-0.09 0.13 0 0.13 0.05 0.13 0.24v1c0 0.17 0 0.24-0.11 0.24-0.05 0-0.07 0-0.2-0.12-0.03-0.04-0.13-0.13-0.17-0.16-0.38 0.28-0.79 0.28-0.94 0.28-1.21 0-1.59-0.66-1.59-1.22 0-0.35 0.16-0.63 0.43-0.85 0.32-0.25 0.6-0.31 1.31-0.45z"/><path d="m288.25 666.03v0.65l-1.44-0.11v-0.31c0.71 0 0.78-0.06 0.78-0.49v-4.65c0-0.45-0.11-0.45-0.78-0.45v-0.31c0.34 0.01 0.86 0.03 1.12 0.03 0.27 0 0.78-0.02 1.13-0.03v0.31c-0.67 0-0.78 0-0.78 0.45v1.76l0.14 0.13c-0.14 0.2-0.14 0.21-0.14 0.41v2.22c0.29 0.5 0.78 0.79 1.29 0.79 0.73 0 1.33-0.87 1.33-1.99 0-1.21-0.69-2.04-1.43-2.04-0.4 0-0.78 0.2-1.05 0.61l-0.14-0.13c0.05-0.16 0.47-0.7 1.23-0.7 1.18 0 2.22 0.97 2.22 2.26 0 1.26-0.97 2.24-2.08 2.24-0.78 0-1.2-0.44-1.4-0.65z"/><path d="m293.46 664.59 0.01 0.2c0.06 1.48 0.89 1.73 1.23 1.73 1.03 0 1.13-1.34 1.13-1.73h-2.36l-0.01-0.2h2.78c0.22 0 0.25 0 0.25 0.2 0 0.99-0.54 1.95-1.79 1.95-1.15 0-2.07-1.02-2.07-2.27 0-1.33 1.05-2.29 2.19-2.29 1.22 0 1.67 1.1 1.67 1.29 0 0.1-0.08 0.12-0.13 0.12-0.09 0-0.11-0.06-0.13-0.14-0.35-1.02-1.25-1.02-1.35-1.02-0.5 0-0.89 0.3-1.12 0.66-0.3 0.48-0.3 1.14-0.3 1.5z"/><path d="m298.44 665.59v1.09l-1.38-0.11v-0.31c0.69 0 0.78-0.07 0.78-0.55v-2.67c0-0.44-0.12-0.44-0.78-0.44v-0.31c0.39 0.01 0.85 0.03 1.13 0.03 0.4 0 0.87 0 1.27-0.03v0.31h-0.21c-0.74 0-0.76 0.11-0.76 0.47v1.52c0 0.99 0.42 1.87 1.18 1.87 0.07 0 0.09 0 0.11-0.01-0.03-0.01-0.23-0.13-0.23-0.38 0-0.28 0.21-0.43 0.43-0.43 0.18 0 0.43 0.12 0.43 0.44 0 0.31-0.31 0.6-0.74 0.6-0.73 0-1.09-0.66-1.23-1.09z"/><path d="m302.75 664.22 0.03-0.01h0.02l0.03-0.01h0.03l0.04-0.01 0.03-0.01 0.12-0.03 0.04-0.02 0.04-0.01 0.05-0.02 0.04-0.02 0.05-0.02 0.04-0.02 0.04-0.03 0.05-0.02 0.12-0.09 0.04-0.04 0.03-0.04 0.04-0.04 0.06-0.08 0.01-0.03 0.01-0.02 0.02-0.03 0.01-0.02 0.01-0.03 0.01-0.02v-0.03l0.02-0.06v-0.03l0.01-0.03v-0.1c0-0.5-0.35-0.9-1.13-0.9-0.83 0-1.19 0.56-1.38 1.41-0.03 0.13-0.04 0.17-0.14 0.17-0.13 0-0.13-0.07-0.13-0.25v-1.31c0-0.17 0-0.24 0.11-0.24 0.05 0 0.06 0.01 0.25 0.2 0.02 0.02 0.02 0.04 0.2 0.23 0.44-0.42 0.89-0.43 1.09-0.43 1.15 0 1.61 0.67 1.61 1.38 0 0.53-0.3 0.83-0.42 0.95-0.33 0.31-0.72 0.39-1.14 0.47-0.55 0.11-1.22 0.24-1.22 0.82 0 0.34 0.26 0.75 1.11 0.75 1.1 0 1.15-0.89 1.17-1.2 0.01-0.09 0.1-0.09 0.12-0.09 0.13 0 0.13 0.05 0.13 0.24v1c0 0.17 0 0.24-0.11 0.24-0.05 0-0.07 0-0.2-0.12-0.03-0.04-0.13-0.13-0.17-0.16-0.38 0.28-0.79 0.28-0.94 0.28-1.21 0-1.59-0.66-1.59-1.22 0-0.35 0.16-0.63 0.43-0.85 0.32-0.25 0.6-0.31 1.31-0.45z"/><path d="m306.32 666.03v0.65l-1.43-0.11v-0.31c0.71 0 0.78-0.06 0.78-0.49v-4.65c0-0.45-0.11-0.45-0.78-0.45v-0.31c0.34 0.01 0.86 0.03 1.11 0.03 0.27 0 0.78-0.02 1.13-0.03v0.31c-0.67 0-0.78 0-0.78 0.45v1.76l0.14 0.13c-0.14 0.2-0.14 0.21-0.14 0.41v2.22c0.29 0.5 0.78 0.79 1.29 0.79 0.73 0 1.34-0.87 1.34-1.99 0-1.21-0.7-2.04-1.44-2.04-0.4 0-0.78 0.2-1.05 0.61l-0.14-0.13c0.05-0.16 0.47-0.7 1.23-0.7 1.19 0 2.23 0.97 2.23 2.26 0 1.26-0.97 2.24-2.09 2.24-0.78 0-1.2-0.44-1.4-0.65z"/><path d="m311.53 664.59 0.01 0.2c0.06 1.48 0.9 1.73 1.24 1.73 1.02 0 1.12-1.34 1.12-1.73h-2.36l-0.01-0.2h2.78c0.22 0 0.25 0 0.25 0.2 0 0.99-0.54 1.95-1.78 1.95-1.16 0-2.08-1.02-2.08-2.27 0-1.33 1.05-2.29 2.2-2.29 1.21 0 1.66 1.1 1.66 1.29 0 0.1-0.08 0.12-0.13 0.12-0.09 0-0.11-0.06-0.13-0.14-0.35-1.02-1.24-1.02-1.34-1.02-0.5 0-0.9 0.3-1.13 0.66-0.3 0.48-0.3 1.14-0.3 1.5z"/><path d="m316.02 664.46v0.22l0.01 0.07v0.06l0.01 0.07v0.07l0.04 0.24 0.02 0.06 0.02 0.1 0.03 0.11 0.04 0.09 0.03 0.1 0.08 0.16 0.05 0.08 0.04 0.07 0.15 0.18 0.06 0.05 0.05 0.04 0.06 0.04 0.05 0.04 0.06 0.04 0.05 0.03 0.12 0.04 0.05 0.02 0.06 0.02 0.05 0.01 0.06 0.01 0.05 0.01h0.1c0.09 0 0.72-0.01 1.07-0.37-0.41-0.03-0.47-0.32-0.47-0.45 0-0.26 0.18-0.46 0.46-0.46 0.26 0 0.46 0.17 0.46 0.47 0 0.67-0.76 1.06-1.53 1.06-1.24 0-2.16-1.07-2.16-2.3 0-1.28 0.99-2.26 2.14-2.26 1.34 0 1.66 1.19 1.66 1.29s-0.1 0.1-0.13 0.1c-0.09 0-0.11-0.04-0.13-0.1-0.29-0.92-0.94-1.04-1.31-1.04-0.52 0-1.4 0.43-1.4 2.03z"/><path d="m321 666.26h1.43v0.31h-1.43v1.83h-0.25c-0.01-0.81-0.31-1.88-1.28-1.92v-0.22h0.84v-2.74c0-1.22 0.93-1.34 1.29-1.34 0.71 0 0.99 0.71 0.99 1.34v0.57h-0.25v-0.55c0-0.73-0.3-1.11-0.67-1.11-0.67 0-0.67 0.9-0.67 1.07z"/><path d="m324.92 666.68-1.4-0.11v-0.31c0.65 0 0.74-0.06 0.74-0.54v-2.68c0-0.44-0.11-0.44-0.78-0.44v-0.31c0.32 0.01 0.86 0.03 1.1 0.03 0.35 0 0.7-0.02 1.04-0.03v0.31c-0.66 0-0.7 0.05-0.7 0.43z"/><path d="m324.96 668.41v0.03l-0.01 0.03v0.05l-0.02 0.06-0.01 0.02-0.01 0.03-0.03 0.06-0.02 0.03-0.01 0.02-0.07 0.07-0.02 0.01-0.02 0.02-0.02 0.01-0.02 0.02-0.02 0.01-0.03 0.01-0.04 0.02h-0.03l-0.02 0.01-0.03 0.01h-0.05l-0.02 0.01h-0.03c-0.31 0-0.53-0.27-0.53-0.53 0-0.27 0.22-0.53 0.53-0.53 0.28 0 0.53 0.21 0.53 0.53z"/><path d="m330.07 665.6 0.02 0.04 0.01 0.03 0.01 0.02 0.01 0.03 0.01 0.02 0.01 0.03 0.02 0.03 0.01 0.02 0.04 0.06 0.01 0.03 0.05 0.05 0.02 0.03 0.05 0.05 0.03 0.02 0.03 0.03 0.06 0.04 0.12 0.06 0.04 0.01 0.04 0.02 0.15 0.03h0.03l0.03 0.01h0.12v0.31c-0.23-0.02-0.52-0.03-0.75-0.03-0.24 0-0.7 0.02-0.87 0.03v-0.31c0.37-0.01 0.48-0.23 0.48-0.42 0-0.09-0.02-0.13-0.06-0.24l-1.02-2.53-1.11 2.77c-0.06 0.13-0.06 0.14-0.06 0.17 0 0.25 0.38 0.25 0.56 0.25v0.31c-0.29-0.01-0.85-0.03-1.08-0.03-0.27 0-0.67 0.01-0.97 0.03v-0.31c0.63 0 0.67-0.06 0.8-0.36l1.43-3.53c0.06-0.14 0.08-0.19 0.21-0.19s0.17 0.09 0.21 0.19z"/><path d="m332.01 664.59 0.01 0.2c0.06 1.48 0.89 1.73 1.23 1.73 1.03 0 1.13-1.34 1.13-1.73h-2.36l-0.01-0.2h2.78c0.22 0 0.25 0 0.25 0.2 0 0.99-0.54 1.95-1.79 1.95-1.15 0-2.07-1.02-2.07-2.27 0-1.33 1.05-2.29 2.19-2.29 1.22 0 1.67 1.1 1.67 1.29 0 0.1-0.08 0.12-0.13 0.12-0.09 0-0.11-0.06-0.13-0.14-0.35-1.02-1.25-1.02-1.35-1.02-0.5 0-0.9 0.3-1.12 0.66-0.3 0.48-0.3 1.14-0.3 1.5z"/><path d="m443.68 663.51 0.02-0.04 0.02-0.02 0.02-0.03 0.02-0.02 0.01-0.03 0.03-0.02 0.02-0.03 0.02-0.02 0.02-0.03 0.1-0.1 0.04-0.05 0.03-0.02 0.02-0.02 0.03-0.02 0.02-0.03 0.02-0.02 0.03-0.01 0.04-0.04 0.04-0.02 0.03-0.03h0.02l0.01-0.01h0.03c0.08 0 0.08 0.08 0.08 0.22v1.73c0 0.39 0.05 0.44 0.69 0.44v0.31c-0.37-0.01-0.91-0.03-1.21-0.03-0.4 0-1.25 0-1.61 0.03v-0.31h0.32c0.9 0 0.93-0.11 0.93-0.48v-0.63c0-1.11-1.27-1.2-1.55-1.2-0.65 0-2.62 0.34-2.62 3.3 0 2.97 1.96 3.3 2.56 3.3 1.07 0 1.98-0.89 2.18-2.35 0.02-0.14 0.02-0.17 0.16-0.17 0.15 0 0.15 0.03 0.15 0.24v2.35c0 0.17 0 0.24-0.1 0.24-0.04 0-0.08 0-0.16-0.12l-0.5-0.73c-0.32 0.31-0.86 0.85-1.85 0.85-1.85 0-3.47-1.57-3.47-3.61 0-2.03 1.6-3.61 3.49-3.61 0.73 0 1.53 0.26 1.87 0.84z"/><path d="m446.69 665.18 0.01 0.21c0.06 1.48 0.9 1.73 1.23 1.73 1.03 0 1.13-1.34 1.13-1.73h-2.36l-0.01-0.21h2.78c0.22 0 0.25 0 0.25 0.21 0 0.98-0.54 1.95-1.79 1.95-1.15 0-2.07-1.03-2.07-2.27 0-1.33 1.05-2.29 2.19-2.29 1.22 0 1.67 1.1 1.67 1.29 0 0.1-0.08 0.12-0.13 0.12-0.09 0-0.11-0.06-0.13-0.14-0.35-1.02-1.25-1.02-1.35-1.02-0.49 0-0.89 0.29-1.12 0.66-0.3 0.48-0.3 1.13-0.3 1.49z"/><path d="m454.71 665.01-0.02 0.24-0.01 0.11-0.02 0.12-0.02 0.11-0.03 0.11-0.04 0.11-0.04 0.1-0.04 0.11-0.05 0.1-0.06 0.09-0.05 0.1-0.06 0.09-0.07 0.09-0.14 0.16-0.08 0.08-0.16 0.14-0.09 0.07-0.09 0.06-0.09 0.05-0.1 0.06-0.09 0.04-0.1 0.04-0.11 0.04-0.1 0.03-0.11 0.03-0.1 0.02-0.11 0.01-0.12 0.01-0.11 0.01-0.01-0.22c0.44 0 0.87-0.22 1.13-0.65 0.26-0.42 0.26-1 0.26-1.38 0-0.35 0-0.89-0.22-1.33-0.22-0.45-0.66-0.73-1.16-0.73-0.43 0-0.87 0.21-1.14 0.66-0.24 0.44-0.24 1.05-0.24 1.4 0 0.39 0 0.93 0.24 1.36 0.26 0.46 0.73 0.67 1.13 0.67l0.01 0.22c-1.24 0-2.21-1.09-2.21-2.33 0-1.28 1.04-2.23 2.2-2.23 1.21 0 2.22 0.97 2.22 2.23z"/><path d="m456.09 666.3v-2.66c0-0.45-0.11-0.45-0.78-0.45v-0.3c0.35 0.01 0.86 0.03 1.13 0.03 0.26 0 0.77-0.02 1.11-0.03v0.3c-0.66 0-0.78 0-0.78 0.45v1.83c0 1.03 0.71 1.59 1.35 1.59 0.63 0 0.74-0.54 0.74-1.1v-2.32c0-0.45-0.11-0.45-0.78-0.45v-0.3c0.35 0.01 0.86 0.03 1.13 0.03 0.26 0 0.78-0.02 1.12-0.03v0.3c-0.67 0-0.78 0-0.78 0.45v1.83c0 1.03 0.71 1.59 1.34 1.59s0.74-0.54 0.74-1.1v-2.32c0-0.45-0.11-0.45-0.78-0.45v-0.3c0.35 0.01 0.86 0.03 1.13 0.03 0.26 0 0.78-0.02 1.12-0.03v0.3c-0.52 0-0.77 0-0.78 0.3v1.9c0 0.85 0 1.16-0.31 1.52-0.14 0.17-0.47 0.37-1.05 0.37-0.83 0-1.27-0.6-1.44-0.98-0.14 0.87-0.88 0.98-1.33 0.98-0.73 0-1.2-0.43-1.48-1.04v1.04l-1.4-0.11v-0.31c0.7 0 0.78-0.07 0.78-0.56z"/><path d="m464.4 665.18 0.01 0.21c0.06 1.48 0.9 1.73 1.23 1.73 1.03 0 1.13-1.34 1.13-1.73h-2.36l-0.01-0.21h2.78c0.22 0 0.25 0 0.25 0.21 0 0.98-0.54 1.95-1.79 1.95-1.15 0-2.07-1.03-2.07-2.27 0-1.33 1.05-2.29 2.2-2.29 1.21 0 1.66 1.1 1.66 1.29 0 0.1-0.08 0.12-0.13 0.12-0.09 0-0.11-0.06-0.13-0.14-0.35-1.02-1.24-1.02-1.34-1.02-0.5 0-0.9 0.29-1.13 0.66-0.3 0.48-0.3 1.13-0.3 1.49z"/><path d="m469.45 666.86h1.42v0.31h-1.42v1.83h-0.25c-0.02-0.82-0.31-1.88-1.29-1.92v-0.22h0.85v-2.74c0-1.22 0.92-1.34 1.28-1.34 0.71 0 0.99 0.7 0.99 1.34v0.56h-0.25v-0.54c0-0.74-0.3-1.11-0.67-1.11-0.66 0-0.66 0.9-0.66 1.07z"/><path d="m473.26 666.18v1.1l-1.39-0.11v-0.31c0.7 0 0.78-0.07 0.78-0.56v-2.66c0-0.45-0.11-0.45-0.78-0.45v-0.3c0.39 0.01 0.86 0.03 1.14 0.03 0.4 0 0.87 0 1.27-0.03v0.3h-0.21c-0.74 0-0.76 0.11-0.76 0.47v1.53c0 0.99 0.42 1.87 1.18 1.87 0.07 0 0.09 0 0.11-0.01-0.03-0.01-0.23-0.13-0.23-0.39 0-0.28 0.21-0.42 0.43-0.42 0.17 0 0.42 0.11 0.42 0.43s-0.3 0.61-0.73 0.61c-0.73 0-1.09-0.67-1.23-1.1z"/><path d="m477.26 667.28-1.4-0.11v-0.31c0.65 0 0.74-0.06 0.74-0.55v-2.67c0-0.45-0.11-0.45-0.77-0.45v-0.3c0.31 0.01 0.85 0.03 1.09 0.03 0.35 0 0.7-0.02 1.04-0.03v0.3c-0.66 0-0.7 0.05-0.7 0.44z"/><path d="m477.3 669.01v0.05l-0.01 0.03v0.03l-0.01 0.03v0.02l-0.01 0.03-0.01 0.02-0.01 0.03-0.02 0.02-0.02 0.04-0.02 0.02-0.01 0.02-0.06 0.06-0.02 0.01-0.02 0.02-0.06 0.03-0.02 0.02-0.03 0.01h-0.02l-0.02 0.01-0.03 0.01h-0.02l-0.03 0.01h-0.08c-0.31 0-0.53-0.27-0.53-0.52 0-0.27 0.22-0.53 0.53-0.53 0.28 0 0.53 0.21 0.53 0.53z"/><path d="m479.43 665.05v0.15l0.01 0.07v0.07l0.01 0.07v0.07l0.01 0.06 0.01 0.07 0.03 0.18 0.01 0.05 0.03 0.11 0.06 0.2 0.08 0.18 0.04 0.08 0.04 0.07 0.1 0.14 0.05 0.06 0.15 0.15 0.06 0.04 0.05 0.04 0.12 0.06 0.05 0.03 0.12 0.04 0.05 0.02 0.06 0.01 0.05 0.01h0.05l0.06 0.01h0.05c0.09 0 0.71-0.01 1.06-0.37-0.41-0.03-0.47-0.33-0.47-0.46 0-0.25 0.18-0.45 0.46-0.45 0.26 0 0.46 0.17 0.46 0.46 0 0.68-0.75 1.07-1.52 1.07-1.25 0-2.17-1.08-2.17-2.31 0-1.27 0.99-2.25 2.15-2.25 1.33 0 1.65 1.19 1.65 1.29s-0.1 0.1-0.13 0.1c-0.09 0-0.11-0.04-0.13-0.1-0.29-0.93-0.93-1.04-1.3-1.04-0.53 0-1.41 0.42-1.41 2.02z"/><path d="m487.73 666.62v0.66l-1.43-0.11v-0.31c0.71 0 0.78-0.06 0.78-0.5v-4.64c0-0.45-0.11-0.45-0.78-0.45v-0.31c0.34 0.01 0.86 0.03 1.12 0.03s0.77-0.02 1.12-0.03v0.31c-0.67 0-0.78 0-0.78 0.45v1.75l0.14 0.13c-0.14 0.21-0.14 0.22-0.14 0.42v2.22c0.29 0.5 0.78 0.79 1.29 0.79 0.73 0 1.34-0.87 1.34-2 0-1.2-0.7-2.03-1.44-2.03-0.4 0-0.78 0.19-1.05 0.6l-0.14-0.13c0.05-0.16 0.47-0.69 1.23-0.69 1.19 0 2.22 0.97 2.22 2.25 0 1.26-0.96 2.25-2.08 2.25-0.78 0-1.2-0.44-1.4-0.66z"/><path d="m492.93 665.18 0.01 0.21c0.06 1.48 0.9 1.73 1.24 1.73 1.02 0 1.12-1.34 1.12-1.73h-2.36l-0.01-0.21h2.78c0.22 0 0.25 0 0.25 0.21 0 0.98-0.54 1.95-1.78 1.95-1.16 0-2.08-1.03-2.08-2.27 0-1.33 1.05-2.29 2.2-2.29 1.21 0 1.66 1.1 1.66 1.29 0 0.1-0.08 0.12-0.13 0.12-0.09 0-0.11-0.06-0.13-0.14-0.35-1.02-1.24-1.02-1.34-1.02-0.5 0-0.9 0.29-1.13 0.66-0.3 0.48-0.3 1.13-0.3 1.49z"/><path d="m497.92 666.18v1.1l-1.39-0.11v-0.31c0.7 0 0.78-0.07 0.78-0.56v-2.66c0-0.45-0.11-0.45-0.78-0.45v-0.3c0.39 0.01 0.86 0.03 1.14 0.03 0.39 0 0.86 0 1.26-0.03v0.3h-0.21c-0.73 0-0.75 0.11-0.75 0.47v1.53c0 0.99 0.41 1.87 1.17 1.87 0.07 0 0.09 0 0.11-0.01-0.03-0.01-0.23-0.13-0.23-0.39 0-0.28 0.21-0.42 0.43-0.42 0.18 0 0.43 0.11 0.43 0.43s-0.31 0.61-0.74 0.61c-0.73 0-1.09-0.67-1.22-1.1z"/><path d="m502.23 664.81h0.04l0.06-0.02 0.04-0.01h0.03l0.08-0.02 0.04-0.02 0.04-0.01 0.05-0.02 0.04-0.01 0.05-0.02 0.04-0.02 0.04-0.03 0.05-0.02 0.04-0.03 0.04-0.02 0.04-0.03 0.04-0.04 0.04-0.03 0.04-0.04 0.06-0.08 0.03-0.05 0.01-0.02 0.02-0.02 0.01-0.03 0.01-0.02 0.02-0.06 0.01-0.02v-0.03l0.01-0.03v-0.03l0.01-0.03v-0.1c0-0.51-0.34-0.9-1.12-0.9-0.84 0-1.2 0.56-1.39 1.41-0.03 0.13-0.04 0.17-0.14 0.17-0.13 0-0.13-0.07-0.13-0.25v-1.31c0-0.17 0-0.24 0.11-0.24 0.05 0 0.06 0.01 0.25 0.2 0.02 0.02 0.02 0.04 0.2 0.22 0.44-0.41 0.89-0.42 1.1-0.42 1.14 0 1.6 0.66 1.6 1.38 0 0.52-0.3 0.82-0.42 0.94-0.33 0.32-0.71 0.4-1.13 0.48-0.56 0.11-1.23 0.24-1.23 0.81 0 0.35 0.26 0.76 1.12 0.76 1.09 0 1.14-0.9 1.16-1.2 0.01-0.09 0.1-0.09 0.12-0.09 0.13 0 0.13 0.05 0.13 0.24v1c0 0.17 0 0.24-0.11 0.24-0.05 0-0.07 0-0.2-0.12-0.03-0.04-0.13-0.13-0.16-0.16-0.38 0.28-0.79 0.28-0.94 0.28-1.22 0-1.6-0.67-1.6-1.22 0-0.35 0.16-0.63 0.43-0.85 0.32-0.26 0.6-0.32 1.32-0.46z"/><path d="m505.8 666.62v0.66l-1.44-0.11v-0.31c0.71 0 0.78-0.06 0.78-0.5v-4.64c0-0.45-0.11-0.45-0.78-0.45v-0.31c0.34 0.01 0.86 0.03 1.12 0.03 0.27 0 0.78-0.02 1.13-0.03v0.31c-0.67 0-0.78 0-0.78 0.45v1.75l0.14 0.13c-0.14 0.21-0.14 0.22-0.14 0.42v2.22c0.29 0.5 0.78 0.79 1.28 0.79 0.73 0 1.34-0.87 1.34-2 0-1.2-0.7-2.03-1.44-2.03-0.4 0-0.77 0.19-1.04 0.6l-0.14-0.13c0.05-0.16 0.47-0.69 1.22-0.69 1.19 0 2.23 0.97 2.23 2.25 0 1.26-0.97 2.25-2.09 2.25-0.77 0-1.19-0.44-1.39-0.66z"/><path d="m511 665.18 0.01 0.21c0.06 1.48 0.9 1.73 1.24 1.73 1.03 0 1.13-1.34 1.13-1.73h-2.37l-0.01-0.21h2.79c0.22 0 0.24 0 0.24 0.21 0 0.98-0.53 1.95-1.78 1.95-1.16 0-2.07-1.03-2.07-2.27 0-1.33 1.04-2.29 2.19-2.29 1.22 0 1.66 1.1 1.66 1.29 0 0.1-0.07 0.12-0.13 0.12-0.09 0-0.1-0.06-0.13-0.14-0.34-1.02-1.24-1.02-1.34-1.02-0.5 0-0.9 0.29-1.13 0.66-0.3 0.48-0.3 1.13-0.3 1.49z"/><path d="m515.49 665.05v0.15l0.01 0.07v0.14l0.01 0.07 0.01 0.06 0.01 0.07 0.03 0.18 0.01 0.05 0.03 0.11 0.06 0.2 0.04 0.09 0.03 0.09 0.05 0.08 0.04 0.07 0.1 0.14 0.04 0.06 0.06 0.05 0.1 0.1 0.06 0.04 0.05 0.04 0.12 0.06 0.05 0.03 0.12 0.04 0.05 0.02 0.06 0.01 0.05 0.01h0.05l0.06 0.01h0.05c0.09 0 0.71-0.01 1.06-0.37-0.41-0.03-0.47-0.33-0.47-0.46 0-0.25 0.18-0.45 0.46-0.45 0.26 0 0.46 0.17 0.46 0.46 0 0.68-0.76 1.07-1.52 1.07-1.25 0-2.17-1.08-2.17-2.31 0-1.27 0.99-2.25 2.15-2.25 1.33 0 1.65 1.19 1.65 1.29s-0.1 0.1-0.13 0.1c-0.09 0-0.11-0.04-0.13-0.1-0.29-0.93-0.93-1.04-1.3-1.04-0.53 0-1.41 0.42-1.41 2.02z"/><path d="m520.48 666.86h1.42v0.31h-1.42v1.83h-0.25c-0.01-0.82-0.31-1.88-1.29-1.92v-0.22h0.85v-2.74c0-1.22 0.92-1.34 1.28-1.34 0.71 0 0.99 0.7 0.99 1.34v0.56h-0.25v-0.54c0-0.74-0.3-1.11-0.67-1.11-0.66 0-0.66 0.9-0.66 1.07z"/><path d="m524.39 667.28-1.4-0.11v-0.31c0.65 0 0.74-0.06 0.74-0.55v-2.67c0-0.45-0.11-0.45-0.78-0.45v-0.3c0.32 0.01 0.86 0.03 1.1 0.03 0.35 0 0.7-0.02 1.04-0.03v0.3c-0.66 0-0.7 0.05-0.7 0.44z"/><path d="m524.43 669.01v0.05l-0.01 0.03v0.03l-0.01 0.03v0.02l-0.01 0.03-0.01 0.02-0.01 0.03-0.02 0.02-0.02 0.04-0.02 0.02-0.01 0.02-0.06 0.06-0.02 0.01-0.02 0.02-0.06 0.03-0.02 0.02-0.03 0.01h-0.02l-0.03 0.01-0.02 0.01h-0.03l-0.02 0.01h-0.08c-0.31 0-0.53-0.27-0.53-0.52 0-0.27 0.22-0.53 0.53-0.53 0.28 0 0.53 0.21 0.53 0.53z"/><path d="m529.54 666.19 0.01 0.03 0.02 0.04 0.01 0.03 0.01 0.02 0.01 0.03 0.02 0.03 0.01 0.02 0.02 0.03 0.01 0.03 0.02 0.03 0.02 0.02 0.04 0.06 0.05 0.05 0.02 0.03 0.06 0.04 0.03 0.03 0.04 0.02 0.03 0.02 0.04 0.02 0.04 0.01 0.04 0.02 0.05 0.02 0.04 0.01 0.05 0.01 0.06 0.01h0.05l0.03 0.01h0.09v0.31c-0.23-0.02-0.52-0.03-0.75-0.03-0.24 0-0.7 0.02-0.87 0.03v-0.31c0.37-0.01 0.48-0.24 0.48-0.43 0-0.09-0.02-0.13-0.06-0.24l-1.02-2.53-1.11 2.77c-0.06 0.13-0.06 0.15-0.06 0.17 0 0.26 0.39 0.26 0.57 0.26v0.31c-0.3-0.01-0.86-0.03-1.09-0.03-0.27 0-0.67 0.01-0.97 0.03v-0.31c0.63 0 0.67-0.06 0.8-0.37l1.44-3.52c0.06-0.14 0.08-0.19 0.2-0.19 0.13 0 0.18 0.09 0.22 0.19z"/><path d="m531.48 665.18 0.01 0.21c0.06 1.48 0.9 1.73 1.24 1.73 1.02 0 1.12-1.34 1.12-1.73h-2.36l-0.01-0.21h2.78c0.22 0 0.25 0 0.25 0.21 0 0.98-0.54 1.95-1.78 1.95-1.16 0-2.08-1.03-2.08-2.27 0-1.33 1.05-2.29 2.19-2.29 1.22 0 1.67 1.1 1.67 1.29 0 0.1-0.08 0.12-0.13 0.12-0.09 0-0.11-0.06-0.13-0.14-0.35-1.02-1.24-1.02-1.35-1.02-0.49 0-0.89 0.29-1.12 0.66-0.3 0.48-0.3 1.13-0.3 1.49z"/></g><g fill="#ff0001" fill-rule="evenodd" stroke="none" stroke-dasharray="0.47976673, 0.07996111" stroke-linecap="square" stroke-linejoin="bevel" stroke-opacity=".9372" stroke-width=".079961"><circle transform="scale(1,-1)" cx="207.76" cy="-748.13" r=".88156" opacity=".97"/><circle transform="scale(1,-1)" cx="221.51" cy="-734.61" r=".88156" opacity=".97"/><circle transform="scale(1,-1)" cx="235.65" cy="-765.54" r=".88156" opacity=".97"/><circle transform="scale(1,-1)" cx="249.76" cy="-756.57" r=".88156" opacity=".97"/><circle transform="scale(1,-1)" cx="255.85" cy="-792.68" r=".88156" opacity=".97"/></g><path d="m71.62 733.96c0.99536 0 84.108 48.454 84.108 48.454" fill="none" stroke="#0074ff" stroke-opacity=".99034" stroke-width=".53174"/></g></g></g></g>
 </g>
</svg>
