<?xml version="1.0" encoding="UTF-8"?>
<svg width="112.03mm" height="98.824mm" version="1.1" viewBox="0 0 112.03 98.824" xmlns="http://www.w3.org/2000/svg" xmlns:cc="http://creativecommons.org/ns#" xmlns:dc="http://purl.org/dc/elements/1.1/" xmlns:ns0="http://www.iki.fi/pav/software/textext/" xmlns:rdf="http://www.w3.org/1999/02/22-rdf-syntax-ns#">
 <metadata>
  <rdf:RDF>
   <cc:Work rdf:about="">
    <dc:format>image/svg+xml</dc:format>
    <dc:type rdf:resource="http://purl.org/dc/dcmitype/StillImage"/>
    <dc:title/>
   </cc:Work>
  </rdf:RDF>
 </metadata>
 <defs>
  <marker id="marker1175-1" overflow="visible" orient="auto">
   <path transform="matrix(-.4 0 0 -.4 -4 0)" d="m0 0 5-5-17.5 5 17.5 5z" fill-rule="evenodd" stroke="#000" stroke-opacity=".81" stroke-width="1pt"/>
  </marker>
  <marker id="marker1203-8" overflow="visible" orient="auto">
   <path transform="matrix(-.4 0 0 -.4 -4 0)" d="m0 0 5-5-17.5 5 17.5 5z" fill-rule="evenodd" stroke="#000" stroke-opacity=".81" stroke-width="1pt"/>
  </marker>
  <marker id="Arrow1Send-5" overflow="visible" orient="auto">
   <path transform="matrix(-.2 0 0 -.2 -1.2 0)" d="m0 0 5-5-17.5 5 17.5 5z" fill-opacity=".24155" fill-rule="evenodd" stroke="#000" stroke-opacity=".24155" stroke-width="1pt"/>
  </marker>
  <marker id="marker1218-3" overflow="visible" orient="auto">
   <path transform="matrix(-.2 0 0 -.2 -1.2 0)" d="m0 0 5-5-17.5 5 17.5 5z" fill-opacity=".16288" fill-rule="evenodd" stroke="#000" stroke-opacity=".20833" stroke-width="1pt"/>
  </marker>
 </defs>
 <path d="m65.672 43.663-3e-3 -13.535 0.15691 0.99009c0.19246 1.2143 0.34398 1.7421 0.65001 2.5869 0.28752 0.79377 0.84732 2.5587 1.9996 4.0826 1.6229 2.1463 3.3921 3.1615 5.0326 3.7398 1.1759 0.41456 3.2406 0.88305 4.1437 1.0598-0.93924 0.26382-2.6339 0.54259-4.1937 1.2053-1.4764 0.60234-3.1031 1.2948-4.6688 3.2913-1.7068 2.1764-2.2998 4.1898-2.6312 5.5261-0.45673 1.8418-0.31142 2.7177-0.41105 3.8008-0.0443 0.48143-0.0735-4.4625-0.0753-12.748z" fill="#0045b1" fill-opacity=".16288" fill-rule="evenodd"/>
 <g stroke="#000">
  <path d="m0 92.303h109.86" marker-end="url(#marker1175-1)" stroke-opacity=".81" stroke-width=".34396"/>
  <path d="m5.3458 98.824v-98.146" marker-end="url(#marker1203-8)" stroke-opacity=".81" stroke-width=".34396"/>
  <path d="m65.672 13.114v82.09" fill="none" marker-end="url(#Arrow1Send-5)" stroke-opacity=".24155" stroke-width=".44979"/>
 </g>
 <circle cx="65.672" cy="40.334" r="1.2373" fill="#f00" fill-opacity=".63285"/>
 <path d="m109.85 95.069 7e-3 -0.0204v-0.0206l0.015-0.0409 0.015-0.0547 0.0135-0.0344 7e-3 -0.0275 0.0135-0.0344 7e-3 -0.0343 0.0135-0.0275 0.0135-0.0344 0.0204-0.0344 0.0135-0.0344 0.0204-0.0343 0.0135-0.0344 0.0409-0.0684 0.0275-0.0275 0.0204-0.0342 0.0822-0.0822 0.0343-0.0275 0.0275-0.0204 0.0344-0.0204 0.0204-7e-3 0.0135-8e-3 0.041-0.015 0.0135-7e-3 0.0409-0.015h0.0204l0.0206-8e-3h0.0683c0.0344 0 0.19167 0 0.34225 0.089-0.19849 0.0343-0.32854 0.20534-0.32854 0.36279 0 0.1095 0.0753 0.23957 0.26011 0.23957 0.1437 0 0.36278-0.12315 0.36278-0.39702 0-0.3491-0.40386-0.44493-0.62975-0.44493-0.39702 0-0.63658 0.36279-0.71872 0.51339-0.17114-0.44493-0.54078-0.51339-0.73928-0.51339-0.7119 0-1.0952 0.87618-1.0952 1.0473 0 0.0684 0.0684 0.0684 0.0822 0.0684 0.0547 0 0.0755-0.0135 0.089-0.0753 0.23274-0.71874 0.67767-0.88986 0.9104-0.88986 0.1302 0 0.36964 0.0615 0.36964 0.45177 0 0.2122-0.11625 0.67083-0.36964 1.6223-0.1095 0.41754-0.3491 0.70506-0.65028 0.70506-0.0343 0-0.1985 0-0.33542-0.0889 0.16428-0.0342 0.3149-0.17798 0.3149-0.36965 0-0.17797-0.15062-0.23272-0.24642-0.23272-0.20537 0-0.3765 0.17797-0.3765 0.39018 0 0.31485 0.34225 0.45177 0.63658 0.45177 0.4518 0 0.69821-0.47916 0.71876-0.52023 0.0822 0.25327 0.32856 0.52023 0.73927 0.52023 0.70502 0 1.0884-0.87618 1.0884-1.0473 0-0.0684-0.0615-0.0684-0.0822-0.0684-0.0617 0-0.0684 0.0275-0.089 0.0753-0.21902 0.72557-0.6845 0.88988-0.90354 0.88988-0.26696 0-0.37647-0.21905-0.37647-0.44493 0-0.1506 0.0411-0.30119 0.11625-0.60237z" stroke-width="0"/>
 <path d="m3.5226 1.0773v-0.0075l7e-3 -0.0075v-0.0222l7e-3 -0.0075v-0.0222l8e-3 -0.0075v-0.03675h7e-3v-0.0516c0-0.12315-0.0959-0.18482-0.19851-0.18482-0.0684 0-0.17796 0.0411-0.23956 0.1437-0.0135 0.0342-0.0684 0.23958-0.0958 0.3628-0.048 0.17796-0.0959 0.36279-0.13695 0.54759l-0.30803 1.2253c-0.0273 0.10275-0.32175 0.575-0.76665 0.575-0.34909 0-0.42441-0.30118-0.42441-0.5476 0-0.31488 0.11625-0.73928 0.34226-1.3348 0.10965-0.28062 0.1437-0.35593 0.1437-0.49284 0-0.30118-0.21905-0.55446-0.56129-0.55446-0.65029 0-0.90355 0.98571-0.90355 1.0473 0 0.0684 0.0684 0.0684 0.0822 0.0684 0.0684 0 0.0753-0.0135 0.1095-0.12315 0.18481-0.6366 0.45862-0.84193 0.69135-0.84193 0.0548 0 0.17113 0 0.17113 0.21904 0 0.16426-0.0684 0.34224-0.11625 0.4723-0.27381 0.71874-0.39702 1.1089-0.39702 1.4306 0 0.60236 0.43125 0.8077 0.82824 0.8077 0.26696 0 0.49971-0.11625 0.69137-0.30801-0.0889 0.35594-0.17114 0.69134-0.44492 1.0473-0.17113 0.23274-0.43125 0.43125-0.74613 0.43125-0.0959 0-0.40386-0.0204-0.52023-0.28749 0.1095 0 0.19851 0 0.29433-0.0822 0.0684-0.0615 0.13695-0.15062 0.13695-0.28068 0-0.20534-0.18483-0.23274-0.25326-0.23274-0.15745 0-0.38334 0.1095-0.38334 0.4381 0 0.34224 0.3012 0.59552 0.72557 0.59552 0.69822 0 1.4033-0.62289 1.595-1.3895z" stroke-width="0"/>
 <path d="m8.7089 69.276 103.16-48.275" stroke="#006be0" stroke-width=".765"/>
 <g fill="#f00" fill-opacity=".63285">
  <circle cx="49.892" cy="49.07" r="1.2373"/>
  <circle cx="37.328" cy="58.337" r="1.2373"/>
  <circle cx="96.219" cy="14.678" r="1.2373"/>
  <circle cx="87.122" cy="36.82" r="1.2373"/>
 </g>
 <g fill="#0045b1" fill-opacity=".16288" fill-rule="evenodd">
  <path d="m49.848 50.866-3e-3 -13.535 0.15691 0.99009c0.19246 1.2143 0.34398 1.7421 0.65001 2.5869 0.28752 0.79377 0.84732 2.5587 1.9996 4.0826 1.6229 2.1463 3.3921 3.1615 5.0326 3.7398 1.1759 0.41456 3.2406 0.88305 4.1437 1.0598-0.93924 0.26382-2.6339 0.54259-4.1937 1.2053-1.4764 0.60234-3.1031 1.2948-4.6688 3.2913-1.7068 2.1764-2.2998 4.1898-2.6312 5.5261-0.45673 1.8418-0.31142 2.7177-0.41105 3.8008-0.0443 0.48143-0.0735-4.4625-0.0753-12.748z"/>
  <path d="m37.267 55.911-3e-3 -13.535 0.15691 0.99009c0.19246 1.2143 0.34398 1.7421 0.65001 2.5869 0.28752 0.79377 0.84732 2.5587 1.9996 4.0826 1.6229 2.1463 3.3921 3.1615 5.0326 3.7398 1.1759 0.41456 3.2406 0.88305 4.1437 1.0598-0.93924 0.26382-2.6339 0.54259-4.1937 1.2053-1.4764 0.60234-3.1031 1.2948-4.6688 3.2913-1.7068 2.1764-2.2998 4.1898-2.6312 5.5261-0.45673 1.8418-0.31142 2.7177-0.41105 3.8008-0.0443 0.48143-0.0735-4.4625-0.0753-12.748z"/>
  <path d="m87.009 33.812-3e-3 -13.535 0.15691 0.99009c0.19246 1.2143 0.34398 1.7421 0.65001 2.5869 0.28752 0.79377 0.84732 2.5587 1.9996 4.0826 1.6229 2.1463 3.3921 3.1615 5.0326 3.7398 1.1759 0.41456 3.2406 0.88305 4.1437 1.0598-0.93924 0.26382-2.6339 0.54259-4.1937 1.2053-1.4764 0.60234-3.1031 1.2948-4.6688 3.2913-1.7068 2.1764-2.2998 4.1898-2.6312 5.5261-0.45673 1.8418-0.31142 2.7177-0.41105 3.8008-0.0443 0.48143-0.0735-4.4625-0.0753-12.748z"/>
  <path d="m96.276 29.449-3e-3 -13.535 0.15691 0.99009c0.19246 1.2143 0.34398 1.7421 0.65001 2.5869 0.28752 0.79377 0.84732 2.5587 1.9996 4.0826 1.6229 2.1463 3.3921 3.1615 5.0326 3.7398 1.1759 0.41456 3.2406 0.88305 4.1437 1.0598-0.93924 0.26382-2.6339 0.54259-4.1937 1.2053-1.4764 0.60234-3.1031 1.2948-4.6688 3.2913-1.7068 2.1764-2.2998 4.1898-2.6312 5.5261-0.45673 1.8418-0.31142 2.7177-0.41105 3.8008-0.0443 0.48143-0.0735-4.4625-0.0753-12.748z"/>
 </g>
 <path d="m63.499 42.599h15.589" fill-opacity=".16288" marker-end="url(#marker1218-3)" stroke="#000" stroke-opacity=".20833" stroke-width=".44979"/>
 <g transform="matrix(.56011 0 0 .56011 67.245 49.896)" ns0:alignment="middle center" ns0:inkscapeversion="1.0" ns0:jacobian_sqrt="0.352778" ns0:pdfconverter="inkscape" ns0:preamble="C:\\Users\\User\\AppData\\Roaming\\inkscape\\extensions\\textext\\default_packages.tex" ns0:scale="1.0" ns0:texconverter="pdflatex" ns0:text="$$Laplace(0, \\alpha)$$" ns0:version="1.1.0">
  <defs></defs>
  <g id="id-086ff19f-1c3d-46ce-8d78-3b5f500f449c" transform="translate(-277.01 -139.24)">
   <g transform="translate(276.62 146.72)">
    <path d="m3.7344-6.0312c0.078125-0.35938 0.10938-0.46875 1.0469-0.46875 0.29688 0 0.375 0 0.375-0.1875 0-0.125-0.10938-0.125-0.15625-0.125-0.32812 0-1.1406 0.03125-1.4688 0.03125-0.29688 0-1.0312-0.03125-1.3281-0.03125-0.0625 0-0.1875 0-0.1875 0.20312 0 0.10938 0.09375 0.10938 0.28125 0.10938 0.015625 0 0.20312 0 0.375 0.015625 0.17188 0.03125 0.26562 0.03125 0.26562 0.17188 0 0.03125 0 0.0625-0.03125 0.1875l-1.3438 5.3438c-0.09375 0.39062-0.10938 0.46875-0.90625 0.46875-0.17188 0-0.26562 0-0.26562 0.20312 0 0.10938 0.09375 0.10938 0.26562 0.10938h4.625c0.23438 0 0.23438 0 0.29688-0.17188l0.79688-2.1562c0.03125-0.10938 0.03125-0.125 0.03125-0.14062 0-0.03125-0.03125-0.10938-0.10938-0.10938-0.09375 0-0.10938 0.0625-0.17188 0.21875-0.34375 0.90625-0.78125 2.0469-2.5 2.0469h-0.9375-0.21875c-0.10938-0.015625-0.14062-0.03125-0.14062-0.10938 0-0.03125 0-0.046875 0.046875-0.21875z"/>
   </g>
   <g transform="translate(283.4 146.72)">
    <path id="id-bee5686b-a0e8-4ca4-84ed-2adcde7e953d" d="m3.7188-3.7656c-0.1875-0.375-0.46875-0.64062-0.92188-0.64062-1.1562 0-2.3906 1.4688-2.3906 2.9219 0 0.9375 0.54688 1.5938 1.3125 1.5938 0.20312 0 0.70312-0.046875 1.2969-0.75 0.078125 0.42188 0.4375 0.75 0.90625 0.75 0.35938 0 0.57812-0.23438 0.75-0.54688 0.15625-0.35938 0.29688-0.96875 0.29688-0.98438 0-0.10938-0.09375-0.10938-0.125-0.10938-0.09375 0-0.10938 0.046875-0.14062 0.1875-0.17188 0.64062-0.34375 1.2344-0.75 1.2344-0.28125 0-0.29688-0.26562-0.29688-0.45312 0-0.21875 0.015625-0.3125 0.125-0.75 0.10938-0.40625 0.125-0.51562 0.21875-0.89062l0.35938-1.3906c0.0625-0.28125 0.0625-0.29688 0.0625-0.34375 0-0.17188-0.10938-0.26562-0.28125-0.26562-0.25 0-0.39062 0.21875-0.42188 0.4375zm-0.64062 2.5781c-0.0625 0.1875-0.0625 0.20312-0.20312 0.375-0.4375 0.54688-0.84375 0.70312-1.125 0.70312-0.5 0-0.64062-0.54688-0.64062-0.9375 0-0.5 0.3125-1.7188 0.54688-2.1875 0.3125-0.57812 0.75-0.95312 1.1562-0.95312 0.64062 0 0.78125 0.8125 0.78125 0.875s-0.015625 0.125-0.03125 0.17188z"/>
   </g>
   <g transform="translate(288.66 146.72)">
    <path d="m0.45312 1.2188c-0.078125 0.34375-0.10938 0.40625-0.54688 0.40625-0.10938 0-0.21875 0-0.21875 0.1875 0 0.078125 0.046875 0.125 0.125 0.125 0.26562 0 0.5625-0.03125 0.82812-0.03125 0.34375 0 0.67188 0.03125 1 0.03125 0.046875 0 0.17188 0 0.17188-0.20312 0-0.10938-0.09375-0.10938-0.23438-0.10938-0.5 0-0.5-0.0625-0.5-0.15625 0-0.125 0.42188-1.75 0.48438-2 0.125 0.29688 0.40625 0.64062 0.92188 0.64062 1.1562 0 2.4062-1.4531 2.4062-2.9219 0-0.9375-0.57812-1.5938-1.3281-1.5938-0.5 0-0.98438 0.35938-1.3125 0.75-0.09375-0.54688-0.53125-0.75-0.89062-0.75-0.46875 0-0.65625 0.39062-0.73438 0.5625-0.1875 0.34375-0.3125 0.9375-0.3125 0.96875 0 0.10938 0.09375 0.10938 0.10938 0.10938 0.10938 0 0.10938-0.015625 0.17188-0.23438 0.17188-0.70312 0.375-1.1875 0.73438-1.1875 0.17188 0 0.3125 0.078125 0.3125 0.45312 0 0.23438-0.03125 0.34375-0.078125 0.51562zm1.75-4.3281c0.0625-0.26562 0.34375-0.54688 0.51562-0.70312 0.35938-0.29688 0.64062-0.375 0.8125-0.375 0.39062 0 0.64062 0.34375 0.64062 0.9375s-0.32812 1.7344-0.51562 2.1094c-0.34375 0.70312-0.8125 1.0312-1.1875 1.0312-0.65625 0-0.78125-0.82812-0.78125-0.89062 0-0.015625 0-0.03125 0.03125-0.15625z"/>
   </g>
   <g transform="translate(293.68 146.72)">
    <path id="id-94951ad4-540b-4458-a481-0f00c5a0c85f" d="m2.5781-6.8125s0-0.10938-0.14062-0.10938c-0.21875 0-0.95312 0.078125-1.2188 0.10938-0.078125 0-0.1875 0.015625-0.1875 0.20312 0 0.10938 0.10938 0.10938 0.25 0.10938 0.48438 0 0.5 0.09375 0.5 0.17188l-0.03125 0.20312-1.2656 4.9844c-0.03125 0.10938-0.046875 0.17188-0.046875 0.32812 0 0.57812 0.4375 0.92188 0.90625 0.92188 0.32812 0 0.57812-0.20312 0.75-0.5625 0.17188-0.375 0.29688-0.95312 0.29688-0.96875 0-0.10938-0.09375-0.10938-0.125-0.10938-0.09375 0-0.10938 0.046875-0.125 0.1875-0.17188 0.64062-0.35938 1.2344-0.76562 1.2344-0.29688 0-0.29688-0.3125-0.29688-0.45312 0-0.25 0.015625-0.29688 0.0625-0.48438z"/>
   </g>
   <g transform="translate(296.85 146.72)">
    <path id="id-ca053b94-fbdf-4b00-8f41-5c015312c3fa" d="m3.7188-3.7656c-0.1875-0.375-0.46875-0.64062-0.92188-0.64062-1.1562 0-2.3906 1.4688-2.3906 2.9219 0 0.9375 0.54688 1.5938 1.3125 1.5938 0.20312 0 0.70312-0.046875 1.2969-0.75 0.078125 0.42188 0.4375 0.75 0.90625 0.75 0.35938 0 0.57812-0.23438 0.75-0.54688 0.15625-0.35938 0.29688-0.96875 0.29688-0.98438 0-0.10938-0.09375-0.10938-0.125-0.10938-0.09375 0-0.10938 0.046875-0.14062 0.1875-0.17188 0.64062-0.34375 1.2344-0.75 1.2344-0.28125 0-0.29688-0.26562-0.29688-0.45312 0-0.21875 0.015625-0.3125 0.125-0.75 0.10938-0.40625 0.125-0.51562 0.21875-0.89062l0.35938-1.3906c0.0625-0.28125 0.0625-0.29688 0.0625-0.34375 0-0.17188-0.10938-0.26562-0.28125-0.26562-0.25 0-0.39062 0.21875-0.42188 0.4375zm-0.64062 2.5781c-0.0625 0.1875-0.0625 0.20312-0.20312 0.375-0.4375 0.54688-0.84375 0.70312-1.125 0.70312-0.5 0-0.64062-0.54688-0.64062-0.9375 0-0.5 0.3125-1.7188 0.54688-2.1875 0.3125-0.57812 0.75-0.95312 1.1562-0.95312 0.64062 0 0.78125 0.8125 0.78125 0.875s-0.015625 0.125-0.03125 0.17188z"/>
   </g>
   <g transform="translate(302.12 146.72)">
    <path d="m3.9531-3.7812c-0.17188 0-0.29688 0-0.4375 0.125-0.17188 0.15625-0.1875 0.32812-0.1875 0.39062 0 0.25 0.1875 0.35938 0.375 0.35938 0.28125 0 0.54688-0.25 0.54688-0.64062 0-0.48438-0.46875-0.85938-1.1719-0.85938-1.3438 0-2.6719 1.4219-2.6719 2.8281 0 0.90625 0.57812 1.6875 1.625 1.6875 1.4219 0 2.25-1.0625 2.25-1.1719 0-0.0625-0.046875-0.14062-0.10938-0.14062s-0.078125 0.03125-0.14062 0.10938c-0.78125 0.98438-1.875 0.98438-1.9844 0.98438-0.625 0-0.90625-0.48438-0.90625-1.0938 0-0.40625 0.20312-1.375 0.54688-1.9844 0.3125-0.57812 0.85938-1 1.4062-1 0.32812 0 0.71875 0.125 0.85938 0.40625z"/>
   </g>
   <g transform="translate(306.43 146.72)">
    <path d="m1.8594-2.2969c0.29688 0 1.0312-0.03125 1.5312-0.23438 0.70312-0.29688 0.75-0.89062 0.75-1.0312 0-0.4375-0.375-0.84375-1.0625-0.84375-1.1094 0-2.625 0.96875-2.625 2.7188 0 1.0156 0.59375 1.7969 1.5781 1.7969 1.4219 0 2.25-1.0625 2.25-1.1719 0-0.0625-0.046875-0.14062-0.10938-0.14062s-0.078125 0.03125-0.14062 0.10938c-0.78125 0.98438-1.875 0.98438-1.9844 0.98438-0.78125 0-0.875-0.84375-0.875-1.1562 0-0.125 0.015625-0.42188 0.15625-1.0312zm-0.46875-0.21875c0.39062-1.5156 1.4219-1.6719 1.6875-1.6719 0.45312 0 0.73438 0.29688 0.73438 0.625 0 1.0469-1.5938 1.0469-2.0156 1.0469z"/>
   </g>
   <g id="id-a0e6dec7-af39-4502-80e4-078c353675cd">
    <g transform="translate(311.06 146.72)">
     <path d="m3.2969 2.3906c0-0.03125 0-0.046875-0.17188-0.21875-1.2344-1.25-1.5625-3.1406-1.5625-4.6719 0-1.7344 0.375-3.4688 1.6094-4.7031 0.125-0.125 0.125-0.14062 0.125-0.17188 0-0.078125-0.03125-0.10938-0.09375-0.10938-0.10938 0-1 0.6875-1.5938 1.9531-0.5 1.0938-0.625 2.2031-0.625 3.0312 0 0.78125 0.10938 1.9844 0.65625 3.125 0.60938 1.2188 1.4531 1.875 1.5625 1.875 0.0625 0 0.09375-0.03125 0.09375-0.10938z"/>
    </g>
    <g transform="translate(314.94 146.72)">
     <path id="id-b8564b69-d8a7-405d-a977-36feec637dae" d="m4.5781-3.1875c0-0.79688-0.046875-1.5938-0.39062-2.3281-0.45312-0.96875-1.2812-1.125-1.6875-1.125-0.60938 0-1.3281 0.26562-1.75 1.1875-0.3125 0.6875-0.35938 1.4688-0.35938 2.2656 0 0.75 0.03125 1.6406 0.45312 2.4062 0.42188 0.79688 1.1562 1 1.6406 1 0.53125 0 1.2969-0.20312 1.7344-1.1562 0.3125-0.6875 0.35938-1.4688 0.35938-2.25zm-2.0938 3.1875c-0.39062 0-0.98438-0.25-1.1562-1.2031-0.10938-0.59375-0.10938-1.5156-0.10938-2.1094 0-0.64062 0-1.2969 0.078125-1.8281 0.1875-1.1875 0.9375-1.2812 1.1875-1.2812 0.32812 0 0.98438 0.1875 1.1719 1.1719 0.10938 0.5625 0.10938 1.3125 0.10938 1.9375 0 0.75 0 1.4219-0.10938 2.0625-0.15625 0.95312-0.71875 1.25-1.1719 1.25z"/>
    </g>
   </g>
   <g id="id-be3264cf-d9f4-4fd3-a0f2-f9f91186537a">
    <g transform="translate(319.92 146.72)">
     <path d="m2.0312-0.015625c0-0.65625-0.25-1.0469-0.64062-1.0469-0.32812 0-0.53125 0.25-0.53125 0.53125 0 0.26562 0.20312 0.53125 0.53125 0.53125 0.10938 0 0.25-0.046875 0.34375-0.125 0.03125-0.03125 0.046875-0.03125 0.046875-0.03125 0.015625 0 0.015625 0 0.015625 0.14062 0 0.75-0.34375 1.3438-0.67188 1.6719-0.10938 0.10938-0.10938 0.125-0.10938 0.15625 0 0.078125 0.046875 0.10938 0.09375 0.10938 0.10938 0 0.92188-0.76562 0.92188-1.9375z"/>
    </g>
   </g>
   <g transform="translate(324.35 146.72)">
    <path d="m4.75-2.3594c0-1.5625-0.92188-2.0469-1.6562-2.0469-1.375 0-2.6875 1.4219-2.6875 2.8281 0 0.9375 0.59375 1.6875 1.625 1.6875 0.625 0 1.3438-0.23438 2.0938-0.84375 0.125 0.53125 0.45312 0.84375 0.90625 0.84375 0.53125 0 0.84375-0.54688 0.84375-0.70312 0-0.078125-0.0625-0.10938-0.125-0.10938s-0.09375 0.03125-0.125 0.10938c-0.1875 0.48438-0.54688 0.48438-0.5625 0.48438-0.3125 0-0.3125-0.78125-0.3125-1.0156 0-0.20312 0-0.23438 0.10938-0.34375 0.9375-1.1875 1.1406-2.3438 1.1406-2.3438 0-0.03125-0.015625-0.10938-0.125-0.10938-0.09375 0-0.09375 0.03125-0.14062 0.21875-0.1875 0.625-0.51562 1.375-0.98438 1.9688zm-0.65625 1.375c-0.89062 0.76562-1.6562 0.875-2.0469 0.875-0.59375 0-0.90625-0.45312-0.90625-1.0938 0-0.48438 0.26562-1.5625 0.57812-2.0625 0.46875-0.73438 1.0156-0.92188 1.3594-0.92188 0.98438 0 0.98438 1.3125 0.98438 2.0781 0 0.375 0 0.95312 0.03125 1.125z"/>
   </g>
   <g transform="translate(330.76 146.72)">
    <path id="id-e3c67373-aed8-49ef-be58-29707453ea6d" d="m2.875-2.5c0-0.76562-0.10938-1.9688-0.65625-3.1094-0.59375-1.2188-1.4531-1.875-1.5469-1.875-0.0625 0-0.10938 0.046875-0.10938 0.10938 0 0.03125 0 0.046875 0.1875 0.23438 0.98438 0.98438 1.5469 2.5625 1.5469 4.6406 0 1.7188-0.35938 3.4688-1.5938 4.7188-0.14062 0.125-0.14062 0.14062-0.14062 0.17188 0 0.0625 0.046875 0.10938 0.10938 0.10938 0.09375 0 1-0.6875 1.5781-1.9531 0.51562-1.0938 0.625-2.2031 0.625-3.0469z"/>
   </g>
  </g>
 </g>
</svg>


