<?xml version="1.0" encoding="UTF-8"?>
<svg width="111.16mm" height="98.824mm" version="1.1" viewBox="0 0 111.16 98.824" xmlns="http://www.w3.org/2000/svg" xmlns:cc="http://creativecommons.org/ns#" xmlns:dc="http://purl.org/dc/elements/1.1/" xmlns:ns0="http://www.iki.fi/pav/software/textext/" xmlns:rdf="http://www.w3.org/1999/02/22-rdf-syntax-ns#">
 <metadata>
  <rdf:RDF>
   <cc:Work rdf:about="">
    <dc:format>image/svg+xml</dc:format>
    <dc:type rdf:resource="http://purl.org/dc/dcmitype/StillImage"/>
    <dc:title/>
   </cc:Work>
  </rdf:RDF>
 </metadata>
 <defs>
  <marker id="marker1218" overflow="visible" orient="auto">
   <path transform="matrix(-.2 0 0 -.2 -1.2 0)" d="m0 0 5-5-17.5 5 17.5 5z" fill-opacity=".24155" fill-rule="evenodd" stroke="#000" stroke-opacity=".24155" stroke-width="1pt"/>
  </marker>
  <marker id="Arrow1Send" overflow="visible" orient="auto">
   <path transform="matrix(-.2 0 0 -.2 -1.2 0)" d="m0 0 5-5-17.5 5 17.5 5z" fill-opacity=".24155" fill-rule="evenodd" stroke="#000" stroke-opacity=".24155" stroke-width="1pt"/>
  </marker>
  <marker id="marker1203" overflow="visible" orient="auto">
   <path transform="matrix(-.4 0 0 -.4 -4 0)" d="m0 0 5-5-17.5 5 17.5 5z" fill-opacity=".81" fill-rule="evenodd" stroke="#000" stroke-opacity=".81" stroke-width="1pt"/>
  </marker>
  <marker id="marker1175" overflow="visible" orient="auto">
   <path transform="matrix(-.4 0 0 -.4 -4 0)" d="m0 0 5-5-17.5 5 17.5 5z" fill-opacity=".81" fill-rule="evenodd" stroke="#000" stroke-opacity=".81" stroke-width="1pt"/>
  </marker>
 </defs>
 <path d="m37.35 59.455-3e-3 -13.535 0.15691 0.99009c0.19246 1.2143 0.32668 1.7485 0.65001 2.5869 0.64936 1.6838 2.1008 3.1794 4.0191 4.1412 0.27318 0.13697 1.2603 0.55552 2.1937 0.93013 2.0852 0.83692 3.0393 1.3209 3.5145 1.7828 1.0418 1.0125 1.1658 2.5694 0.29269 3.674-0.42975 0.54367-1.1082 0.97682-3.3519 2.1401-2.9082 1.5078-3.6668 2.0022-4.6865 3.0545-0.97156 1.0026-1.7428 2.3174-2.1337 3.6376-0.20831 0.70354-0.47698 2.2624-0.57661 3.3455-0.0443 0.48143-0.0735-4.4625-0.0753-12.748z" fill="#0045b1" fill-opacity=".16288" fill-rule="evenodd"/>
 <g transform="translate(-48.948 -105.67)">
  <g fill="#0045b1" fill-opacity=".16288" fill-rule="evenodd">
   <path d="m145.07 131.33-3e-3 -13.535 0.15691 0.99009c0.19246 1.2143 0.32668 1.7485 0.65001 2.5869 0.64936 1.6838 2.1008 3.1794 4.0191 4.1412 0.27318 0.13697 1.2603 0.55552 2.1937 0.93013 2.0852 0.83692 3.0393 1.3209 3.5145 1.7828 1.0418 1.0125 1.1658 2.5694 0.29269 3.674-0.42975 0.54367-1.1082 0.97682-3.3519 2.1401-2.9082 1.5078-3.6668 2.0022-4.6865 3.0545-0.97156 1.0026-1.7428 2.3174-2.1337 3.6376-0.20831 0.70354-0.47698 2.2624-0.57661 3.3455-0.0443 0.48143-0.0735-4.4625-0.0753-12.748z"/>
   <path d="m114.62 148.68-3e-3 -13.535 0.15691 0.99009c0.19246 1.2143 0.32668 1.7485 0.65001 2.5869 0.64936 1.6838 2.1008 3.1794 4.0191 4.1412 0.27318 0.13697 1.2603 0.55552 2.1937 0.93013 2.0852 0.83692 3.0393 1.3209 3.5145 1.7828 1.0418 1.0125 1.1658 2.5694 0.29269 3.674-0.42975 0.54367-1.1082 0.97682-3.3519 2.1401-2.9082 1.5078-3.6668 2.0022-4.6865 3.0545-0.97156 1.0026-1.7428 2.3174-2.1337 3.6376-0.20831 0.70354-0.47698 2.2624-0.57661 3.3455-0.0443 0.48143-0.0735-4.4625-0.0753-12.748z"/>
   <path d="m98.836 156.8-3e-3 -13.535 0.15691 0.99009c0.19246 1.2143 0.32668 1.7485 0.65001 2.5869 0.64936 1.6838 2.1008 3.1794 4.0191 4.1412 0.27318 0.13697 1.2603 0.55552 2.1937 0.93013 2.0852 0.83692 3.0393 1.3209 3.5145 1.7828 1.0418 1.0125 1.1658 2.5694 0.29269 3.674-0.42975 0.54367-1.1082 0.97682-3.3519 2.1401-2.9082 1.5078-3.6668 2.0022-4.6865 3.0545-0.97156 1.0026-1.7428 2.3174-2.1337 3.6376-0.20831 0.70354-0.47698 2.2624-0.57661 3.3455-0.0443 0.48143-0.0735-4.4625-0.0753-12.748z"/>
   <path d="m136.03 135.35-3e-3 -13.535 0.15691 0.99009c0.19246 1.2143 0.32668 1.7485 0.65001 2.5869 0.64936 1.6838 2.1008 3.1794 4.0191 4.1412 0.27318 0.13697 1.2603 0.55552 2.1937 0.93013 2.0852 0.83692 3.0393 1.3209 3.5145 1.7828 1.0418 1.0125 1.1658 2.5694 0.29269 3.674-0.42975 0.54367-1.1082 0.97682-3.3519 2.1401-2.9082 1.5078-3.6668 2.0022-4.6865 3.0545-0.97156 1.0026-1.7428 2.3174-2.1337 3.6376-0.20831 0.70354-0.47698 2.2624-0.57661 3.3455-0.0443 0.48143-0.0735-4.4625-0.0753-12.748z"/>
  </g>
  <g fill="none" stroke="#000">
   <path d="m112.31 147.65h15.589" marker-end="url(#marker1218)" stroke-opacity=".24155" stroke-width=".44979"/>
   <path d="m48.948 197.97h109.86" marker-end="url(#marker1175)" stroke="#000" stroke-opacity=".81" stroke-width=".34396"/>
   <path d="m54.294 204.49v-98.146" marker-end="url(#marker1203)" stroke="#000" stroke-opacity=".81" stroke-width=".34396"/>
  </g>
  <g fill="#f00" fill-opacity=".63285">
   <circle cx="136.07" cy="140.52" r="1.2373"/>
   <circle cx="145.14" cy="121.9" r="1.2373"/>
   <circle cx="86.195" cy="164.22" r="1.2373"/>
   <circle cx="98.884" cy="154.63" r="1.2373"/>
  </g>
  <path d="m114.62 118.78v82.09" fill="none" marker-end="url(#Arrow1Send)" stroke="#000" stroke-opacity=".24155" stroke-width=".44979"/>
  <circle cx="114.62" cy="146" r="1.2373" fill="#f00" fill-opacity=".63285"/>
  <g id="content" transform="matrix(1.5,0,0,-1.5,-346.77,1112.4)" fill-rule="evenodd" stroke="#000" stroke-miterlimit="10.433" stroke-width="0" ns0:preamble="default_packages.tex" ns0:text="$$x y \\text{Laplace}(0,\\alpha)$$\n" xml:space="preserve"><path d="m337.04 607.78 5e-3 0.0136v0.0137l0.01 0.0273 0.01 0.0365 9e-3 0.0229 5e-3 0.0183 9e-3 0.0229 5e-3 0.0229 9e-3 0.0183 9e-3 0.0229 0.0136 0.0229 9e-3 0.0229 0.0136 0.0229 9e-3 0.0229 0.0273 0.0456 0.0183 0.0183 0.0136 0.0228 0.0548 0.0548 0.0229 0.0183 0.0183 0.0136 0.0229 0.0136 0.0136 5e-3 9e-3 5e-3 0.0273 0.01 9e-3 5e-3 0.0273 0.01h0.0136l0.0137 5e-3h0.0455c0.0229 0 0.12778 0 0.22817-0.0593-0.13233-0.0229-0.21903-0.13689-0.21903-0.24186 0-0.073 0.0502-0.15971 0.17341-0.15971 0.0958 0 0.24185 0.0821 0.24185 0.26468 0 0.23273-0.26924 0.29662-0.41983 0.29662-0.26468 0-0.42439-0.24186-0.47915-0.34226-0.11409 0.29662-0.36052 0.34226-0.49285 0.34226-0.4746 0-0.73014-0.58412-0.73014-0.6982 0-0.0456 0.0456-0.0456 0.0548-0.0456 0.0365 0 0.0503 9e-3 0.0593 0.0502 0.15516 0.47916 0.45178 0.59324 0.60693 0.59324 0.0868 0 0.24643-0.041 0.24643-0.30118 0-0.14147-0.0775-0.44722-0.24643-1.0816-0.073-0.27836-0.23273-0.47004-0.43352-0.47004-0.0229 0-0.13233 0-0.22361 0.0593 0.10952 0.0228 0.20993 0.11865 0.20993 0.24643 0 0.11865-0.10041 0.15515-0.16428 0.15515-0.13691 0-0.251-0.11865-0.251-0.26012 0-0.2099 0.22817-0.30118 0.42439-0.30118 0.3012 0 0.46547 0.31944 0.47917 0.34682 0.0548-0.16885 0.21904-0.34682 0.49285-0.34682 0.47001 0 0.72557 0.58412 0.72557 0.69821 0 0.0456-0.041 0.0456-0.0548 0.0456-0.0411 0-0.0456-0.0183-0.0593-0.0502-0.14601-0.48371-0.45633-0.59325-0.60236-0.59325-0.17797 0-0.25098 0.14603-0.25098 0.29662 0 0.1004 0.0274 0.20079 0.0775 0.40158z"/><path d="m266.16 670.44v5e-3l5e-3 5e-3v0.0148l5e-3 5e-3v0.0148l5e-3 5e-3v0.0245h5e-3v0.0344c0 0.0821-0.0639 0.12321-0.13234 0.12321-0.0456 0-0.11864-0.0274-0.15971-0.0958-9e-3 -0.0228-0.0456-0.15972-0.0639-0.24187-0.032-0.11864-0.0639-0.24186-0.0913-0.36506l-0.20535-0.81685c-0.0182-0.0685-0.2145-0.38333-0.5111-0.38333-0.23273 0-0.28294 0.20079-0.28294 0.36507 0 0.20992 0.0775 0.49285 0.22817 0.88987 0.0731 0.18708 0.0958 0.23729 0.0958 0.32856 0 0.20079-0.14603 0.36964-0.37419 0.36964-0.43353 0-0.60237-0.65714-0.60237-0.6982 0-0.0456 0.0456-0.0456 0.0548-0.0456 0.0456 0 0.0502 9e-3 0.073 0.0821 0.12321 0.4244 0.30575 0.56129 0.4609 0.56129 0.0365 0 0.11409 0 0.11409-0.14603 0-0.10951-0.0456-0.22816-0.0775-0.31487-0.18254-0.47916-0.26468-0.73927-0.26468-0.95376 0-0.40157 0.2875-0.53847 0.55216-0.53847 0.17797 0 0.33314 0.0775 0.46091 0.20534-0.0593-0.23729-0.11409-0.46089-0.29661-0.69819-0.11409-0.15516-0.2875-0.2875-0.49742-0.2875-0.0639 0-0.26924 0.0136-0.34682 0.19166 0.073 0 0.13234 0 0.19622 0.0548 0.0456 0.041 0.0913 0.10041 0.0913 0.18712 0 0.13689-0.12322 0.15516-0.16884 0.15516-0.10497 0-0.25556-0.073-0.25556-0.29207 0-0.22816 0.2008-0.39701 0.48371-0.39701 0.46548 0 0.93552 0.41526 1.0633 0.92635z"/></g>
  <g fill="none">
   <path d="m59.902 179.25 98.667-56.892" stroke="#006be0" stroke-width=".765"/>
  </g>
  <g transform="matrix(.51106 0 0 -.51106 -27.022 513)" fill-rule="evenodd" stroke="#000" stroke-miterlimit="10.433" stroke-width="0" ns0:preamble="default_packages.tex" ns0:text="$$\\mathcal{N}(0,\\sigma^2)$$\n" xml:space="preserve"><path d="m287.02 698.93 0.0672-0.22388 0.0448-0.12314 0.0448-0.13433 0.0448-0.14553 0.0224-0.0672 0.0224-0.0784 0.0336-0.0784 0.0448-0.15672 0.0336-0.0896 0.0224-0.0784 0.0672-0.1791 0.0224-0.10075 0.0336-0.0896 0.0672-0.20149 0.0448-0.10075 0.0336-0.11195 0.0336-0.10074 0.0895-0.22389 0.0336-0.12314 0.13433-0.36941c0.70524-1.8918 1.0187-2.5859 1.7015-3.6381 0.15672-0.23508 0.16791-0.24628 0.26866-0.24628 0.15672 0 0.3918 0.13433 0.51494 0.22389 0.15672 0.14552 0.16791 0.15672 0.29105 0.70524 0.66046 2.9217 1.5112 5.9665 1.7351 6.4815 0.0112 0.0224 0.23508 0.43657 1.612 0.47016 0.22389 0.0112 0.43658 0.59329 0.43658 0.83957 0 0.17911-0.0672 0.17911-0.22389 0.17911-1.1194 0-1.6232-0.47016-1.7575-0.61569-0.31344-0.3918-0.5821-1.209-1.097-3.0672-0.38061-1.4217-0.73883-2.8657-1.0858-4.2986-0.61568 0.91793-0.96271 1.7911-1.5 3.2352-0.5933 1.5784-0.95151 2.7314-1.2538 3.7389-0.0672 0.21269-0.0784 0.22389-0.17911 0.22389-0.0224 0-0.23508 0-0.55971-0.26867-0.11194-0.0896-0.12314-0.1903-0.13433-0.31344-0.31344-2.9665-1.3657-5.8882-1.668-6.4255-0.0895-0.15672-0.22388-0.35821-0.44777-0.35821-0.11194 0-0.54852 0.056-0.83957 0.32463-0.056 0.0336-0.0784 0.0336-0.0896 0.0336-0.17911 0-0.41419-0.54851-0.41419-0.81718 0-0.34702 0.68285-0.5709 0.99629-0.5709 0.71643 0 1.2873 1.5672 1.4664 2.0821 0.72763 2.015 1.0746 3.6717 1.2873 4.8583z"/><path d="m297.08 689.93v0.0224h-0.0112v0.0224h-0.0112v0.0112l-0.0112 0.0112v0.0112h-0.0112v0.0112h-0.0112v0.0112l-0.0112 0.0112h-0.0112v0.0112l-0.11194 0.11194c-1.3993 1.4105-1.7575 3.5038-1.7575 5.2053 0 1.9366 0.42538 3.8732 1.8023 5.2613 0.14552 0.13433 0.14552 0.15672 0.14552 0.19031 0 0.0784-0.0448 0.11194-0.11194 0.11194-0.11194 0-1.1194-0.75002-1.7799-2.1717-0.57091-1.2202-0.70524-2.4515-0.70524-3.3919 0-0.86196 0.12314-2.2053 0.73882-3.4702 0.67166-1.3657 1.6344-2.0821 1.7463-2.0821 0.0672 0 0.11194 0.0336 0.11194 0.11194z"/><path d="m302.17 696.15v0.33582l-0.0112 0.16792-0.0112 0.15672v0.16791l-0.0224 0.16792-0.0112 0.16791-0.0224 0.15672-0.0224 0.16791-0.0336 0.15672-0.0336 0.16792-0.0895 0.31344-0.056 0.15672-0.13433 0.31344c-0.51493 1.0746-1.4329 1.2538-1.903 1.2538-0.66046 0-1.4776-0.29105-1.9366-1.3321-0.35822-0.76121-0.41419-1.6344-0.41419-2.5187 0-0.83957 0.0448-1.8359 0.50374-2.6754 0.48136-0.90674 1.2985-1.1306 1.8359-1.1306v0.24628c-0.42538 0-1.0858 0.27986-1.2873 1.3433-0.12313 0.67166-0.12313 1.6903-0.12313 2.3508 0 0.70524 0 1.4441 0.0896 2.0486 0.21269 1.3209 1.0411 1.4217 1.3209 1.4217 0.36941 0 1.1082-0.2015 1.3209-1.2985 0.11194-0.62688 0.11194-1.4776 0.11194-2.1717 0-0.83957 0-1.5896-0.12314-2.306-0.16791-1.0523-0.80598-1.3881-1.3097-1.3881v-0.24628c0.60449 0 1.4553 0.23508 1.9478 1.2874 0.35821 0.7724 0.41418 1.6344 0.41418 2.5187z"/><path d="m304.87 692.6v0.0672l-0.0112 0.0672v0.0672l-0.0112 0.056v0.0672l-0.0448 0.22388-0.0112 0.0448-0.0224 0.056-0.0112 0.0448-0.0448 0.0896-0.0224 0.0336-0.0224 0.0448-0.0672 0.10075-0.056 0.056-0.13433 0.0896-0.0336 0.0112-0.0336 0.0224-0.0336 0.0112h-0.0448l-0.0336 0.0112h-0.0784c-0.36941 0-0.59329-0.27986-0.59329-0.58211 0-0.30224 0.22388-0.59329 0.59329-0.59329 0.13434 0 0.27986 0.0448 0.3918 0.14552 0.0336 0.0224 0.0448 0.0336 0.056 0.0336s0.0224-0.0112 0.0224-0.16792c0-0.81718-0.3918-1.4888-0.76121-1.8582-0.12313-0.12313-0.12313-0.14552-0.12313-0.1791 0-0.0784 0.056-0.12314 0.11194-0.12314 0.12314 0 1.0187 0.86196 1.0187 2.1605z"/><path d="m313.35 696.74h0.16791l0.0224 0.0112h0.0448l0.0224 0.0112h0.0224l0.13434 0.0672 0.0112 0.0112 0.0224 0.0112 0.0112 0.0112v0.0112l0.0336 0.0336v0.0112l0.0112 0.0112v0.0112l0.0112 0.0112v0.0112l0.0112 0.0112v0.0224l0.0112 0.0224v0.0448l0.0112 0.0112v0.0336c0 0.26867-0.23508 0.26867-0.43658 0.26867h-2.5411c-1.6903 0-2.9329-1.8359-2.9329-3.1568 0-0.9739 0.66047-1.7575 1.6791-1.7575l0.0112 0.24628c-0.54852 0-0.99629 0.40299-0.99629 1.1978 0 0.33583 0.13433 1.2538 0.52613 1.903 0.47016 0.7724 1.1418 0.92912 1.5112 0.92912 0.94031 0 1.0299-0.73882 1.0299-1.0858 0-0.51494-0.22389-1.4329-0.60449-2.0038-0.43658-0.64926-1.0299-0.94031-1.4664-0.94031l-0.0112-0.24628c1.3209 0 2.7986 1.3433 2.7986 3.056 0 0.1903 0 0.72762-0.34702 1.2202z"/><path d="m318.28 698.61h-0.26866c-0.0224-0.16792-0.10075-0.63808-0.2015-0.70524-0.0672-0.056-0.66046-0.056-0.7724-0.056h-1.4441c0.82837 0.72763 1.097 0.95152 1.5672 1.3097 0.58211 0.45897 1.1194 0.94032 1.1194 1.6791 0 0.95152-0.82838 1.5224-1.8359 1.5224-0.96271 0-1.6232-0.68286-1.6232-1.3881 0-0.403 0.33583-0.43658 0.41419-0.43658 0.1903 0 0.41419 0.12314 0.41419 0.41419 0 0.13433-0.056 0.40299-0.45897 0.40299 0.24628 0.55971 0.77241 0.72763 1.1418 0.72763 0.7836 0 1.1866-0.60449 1.1866-1.2426 0-0.67165-0.48135-1.209-0.72763-1.4888l-1.8918-1.8582c-0.0784-0.0672-0.0784-0.0784-0.0784-0.30225h3.224z"/><path d="m321.85 695.37v0.34702l-0.0112 0.1903-0.0112 0.2015-0.0224 0.2015-0.0224 0.21269-0.0336 0.21269-0.0336 0.22388-0.0448 0.23508-0.056 0.22389-0.056 0.23508-0.0672 0.23508-0.0784 0.24627-0.0896 0.23508-0.0448 0.12314-0.056 0.11194-0.056 0.12314-0.056 0.11194c-0.67166 1.3657-1.6232 2.0933-1.7351 2.0933-0.0672 0-0.11194-0.0448-0.11194-0.11194 0-0.0336 0-0.056 0.21269-0.25747 1.0858-1.097 1.7239-2.8657 1.7239-5.1941 0-1.8918-0.41418-3.8508-1.7911-5.2501-0.14552-0.13434-0.14552-0.15672-0.14552-0.19031 0-0.0672 0.0448-0.11194 0.11194-0.11194 0.11194 0 1.1082 0.75002 1.7687 2.1605 0.57091 1.2314 0.70524 2.4627 0.70524 3.3919z"/></g>
 </g>
</svg>


