<?xml version="1.0" encoding="UTF-8"?>
<svg width="111.16mm" height="98.824mm" version="1.1" viewBox="0 0 111.16 98.824" xmlns="http://www.w3.org/2000/svg" xmlns:cc="http://creativecommons.org/ns#" xmlns:dc="http://purl.org/dc/elements/1.1/" xmlns:ns0="http://www.iki.fi/pav/software/textext/" xmlns:rdf="http://www.w3.org/1999/02/22-rdf-syntax-ns#">
 <metadata>
  <rdf:RDF>
   <cc:Work rdf:about="">
    <dc:format>image/svg+xml</dc:format>
    <dc:type rdf:resource="http://purl.org/dc/dcmitype/StillImage"/>
    <dc:title/>
   </cc:Work>
  </rdf:RDF>
 </metadata>
 <defs>
  <marker id="marker1218" overflow="visible" orient="auto">
   <path transform="matrix(-.2 0 0 -.2 -1.2 0)" d="m0 0 5-5-17.5 5 17.5 5z" fill-opacity=".24155" fill-rule="evenodd" stroke="#000" stroke-opacity=".24155" stroke-width="1pt"/>
  </marker>
  <marker id="Arrow1Send" overflow="visible" orient="auto">
   <path transform="matrix(-.2 0 0 -.2 -1.2 0)" d="m0 0 5-5-17.5 5 17.5 5z" fill-opacity=".24155" fill-rule="evenodd" stroke="#000" stroke-opacity=".24155" stroke-width="1pt"/>
  </marker>
  <marker id="marker1203" overflow="visible" orient="auto">
   <path transform="matrix(-.4 0 0 -.4 -4 0)" d="m0 0 5-5-17.5 5 17.5 5z" fill-opacity=".81" fill-rule="evenodd" stroke="#000" stroke-opacity=".81" stroke-width="1pt"/>
  </marker>
  <marker id="marker1175" overflow="visible" orient="auto">
   <path transform="matrix(-.4 0 0 -.4 -4 0)" d="m0 0 5-5-17.5 5 17.5 5z" fill-opacity=".81" fill-rule="evenodd" stroke="#000" stroke-opacity=".81" stroke-width="1pt"/>
  </marker>
 </defs>
 <path d="m37.35 59.455-3e-3 -13.535 0.15691 0.99009c0.19246 1.2143 0.32668 1.7485 0.65001 2.5869 0.64936 1.6838 2.1008 3.1794 4.0191 4.1412 0.27318 0.13697 1.2603 0.55552 2.1937 0.93013 2.0852 0.83692 3.0393 1.3209 3.5145 1.7828 1.0418 1.0125 1.1658 2.5694 0.29269 3.674-0.42975 0.54367-1.1082 0.97682-3.3519 2.1401-2.9082 1.5078-3.6668 2.0022-4.6865 3.0545-0.97156 1.0026-1.7428 2.3174-2.1337 3.6376-0.20831 0.70354-0.47698 2.2624-0.57661 3.3455-0.0443 0.48143-0.0735-4.4625-0.0753-12.748z" fill="#0045b1" fill-opacity=".16288" fill-rule="evenodd"/>
 <g transform="translate(-48.948 -105.67)">
  <g fill="#0045b1" fill-opacity=".16288" fill-rule="evenodd">
   <path d="m145.07 131.33-3e-3 -13.535 0.15691 0.99009c0.19246 1.2143 0.32668 1.7485 0.65001 2.5869 0.64936 1.6838 2.1008 3.1794 4.0191 4.1412 0.27318 0.13697 1.2603 0.55552 2.1937 0.93013 2.0852 0.83692 3.0393 1.3209 3.5145 1.7828 1.0418 1.0125 1.1658 2.5694 0.29269 3.674-0.42975 0.54367-1.1082 0.97682-3.3519 2.1401-2.9082 1.5078-3.6668 2.0022-4.6865 3.0545-0.97156 1.0026-1.7428 2.3174-2.1337 3.6376-0.20831 0.70354-0.47698 2.2624-0.57661 3.3455-0.0443 0.48143-0.0735-4.4625-0.0753-12.748z"/>
   <path d="m114.62 148.68-3e-3 -13.535 0.15691 0.99009c0.19246 1.2143 0.32668 1.7485 0.65001 2.5869 0.64936 1.6838 2.1008 3.1794 4.0191 4.1412 0.27318 0.13697 1.2603 0.55552 2.1937 0.93013 2.0852 0.83692 3.0393 1.3209 3.5145 1.7828 1.0418 1.0125 1.1658 2.5694 0.29269 3.674-0.42975 0.54367-1.1082 0.97682-3.3519 2.1401-2.9082 1.5078-3.6668 2.0022-4.6865 3.0545-0.97156 1.0026-1.7428 2.3174-2.1337 3.6376-0.20831 0.70354-0.47698 2.2624-0.57661 3.3455-0.0443 0.48143-0.0735-4.4625-0.0753-12.748z"/>
   <path d="m98.836 156.8-3e-3 -13.535 0.15691 0.99009c0.19246 1.2143 0.32668 1.7485 0.65001 2.5869 0.64936 1.6838 2.1008 3.1794 4.0191 4.1412 0.27318 0.13697 1.2603 0.55552 2.1937 0.93013 2.0852 0.83692 3.0393 1.3209 3.5145 1.7828 1.0418 1.0125 1.1658 2.5694 0.29269 3.674-0.42975 0.54367-1.1082 0.97682-3.3519 2.1401-2.9082 1.5078-3.6668 2.0022-4.6865 3.0545-0.97156 1.0026-1.7428 2.3174-2.1337 3.6376-0.20831 0.70354-0.47698 2.2624-0.57661 3.3455-0.0443 0.48143-0.0735-4.4625-0.0753-12.748z"/>
   <path d="m136.03 135.35-3e-3 -13.535 0.15691 0.99009c0.19246 1.2143 0.32668 1.7485 0.65001 2.5869 0.64936 1.6838 2.1008 3.1794 4.0191 4.1412 0.27318 0.13697 1.2603 0.55552 2.1937 0.93013 2.0852 0.83692 3.0393 1.3209 3.5145 1.7828 1.0418 1.0125 1.1658 2.5694 0.29269 3.674-0.42975 0.54367-1.1082 0.97682-3.3519 2.1401-2.9082 1.5078-3.6668 2.0022-4.6865 3.0545-0.97156 1.0026-1.7428 2.3174-2.1337 3.6376-0.20831 0.70354-0.47698 2.2624-0.57661 3.3455-0.0443 0.48143-0.0735-4.4625-0.0753-12.748z"/>
  </g>
  <g fill="none" stroke="#000">
   <path d="m112.31 147.65h15.589" marker-end="url(#marker1218)" stroke-opacity=".24155" stroke-width=".44979"/>
   <path d="m48.948 197.97h109.86" marker-end="url(#marker1175)" stroke="#000" stroke-opacity=".81" stroke-width=".34396"/>
   <path d="m54.294 204.49v-98.146" marker-end="url(#marker1203)" stroke="#000" stroke-opacity=".81" stroke-width=".34396"/>
  </g>
  <g fill="#f00" fill-opacity=".63285">
   <circle cx="136.07" cy="140.52" r="1.2373"/>
   <circle cx="145.14" cy="121.9" r="1.2373"/>
   <circle cx="86.195" cy="164.22" r="1.2373"/>
   <circle cx="98.884" cy="154.63" r="1.2373"/>
  </g>
  <path d="m114.62 118.78v82.09" fill="none" marker-end="url(#Arrow1Send)" stroke="#000" stroke-opacity=".24155" stroke-width=".44979"/>
  <circle cx="114.62" cy="146" r="1.2373" fill="#f00" fill-opacity=".63285"/>
  <g id="content" transform="matrix(1.5,0,0,-1.5,-346.77,1112.4)" fill-rule="evenodd" stroke="#000" stroke-miterlimit="10.433" stroke-width="0" ns0:preamble="default_packages.tex" ns0:text="$$x y \\text{Laplace}(0,\\alpha)$$\n" xml:space="preserve"><path d="m337.04 607.78 5e-3 0.0136v0.0137l0.01 0.0273 0.01 0.0365 9e-3 0.0229 5e-3 0.0183 9e-3 0.0229 5e-3 0.0229 9e-3 0.0183 9e-3 0.0229 0.0136 0.0229 9e-3 0.0229 0.0136 0.0229 9e-3 0.0229 0.0273 0.0456 0.0183 0.0183 0.0136 0.0228 0.0548 0.0548 0.0229 0.0183 0.0183 0.0136 0.0229 0.0136 0.0136 5e-3 9e-3 5e-3 0.0273 0.01 9e-3 5e-3 0.0273 0.01h0.0136l0.0137 5e-3h0.0455c0.0229 0 0.12778 0 0.22817-0.0593-0.13233-0.0229-0.21903-0.13689-0.21903-0.24186 0-0.073 0.0502-0.15971 0.17341-0.15971 0.0958 0 0.24185 0.0821 0.24185 0.26468 0 0.23273-0.26924 0.29662-0.41983 0.29662-0.26468 0-0.42439-0.24186-0.47915-0.34226-0.11409 0.29662-0.36052 0.34226-0.49285 0.34226-0.4746 0-0.73014-0.58412-0.73014-0.6982 0-0.0456 0.0456-0.0456 0.0548-0.0456 0.0365 0 0.0503 9e-3 0.0593 0.0502 0.15516 0.47916 0.45178 0.59324 0.60693 0.59324 0.0868 0 0.24643-0.041 0.24643-0.30118 0-0.14147-0.0775-0.44722-0.24643-1.0816-0.073-0.27836-0.23273-0.47004-0.43352-0.47004-0.0229 0-0.13233 0-0.22361 0.0593 0.10952 0.0228 0.20993 0.11865 0.20993 0.24643 0 0.11865-0.10041 0.15515-0.16428 0.15515-0.13691 0-0.251-0.11865-0.251-0.26012 0-0.2099 0.22817-0.30118 0.42439-0.30118 0.3012 0 0.46547 0.31944 0.47917 0.34682 0.0548-0.16885 0.21904-0.34682 0.49285-0.34682 0.47001 0 0.72557 0.58412 0.72557 0.69821 0 0.0456-0.041 0.0456-0.0548 0.0456-0.0411 0-0.0456-0.0183-0.0593-0.0502-0.14601-0.48371-0.45633-0.59325-0.60236-0.59325-0.17797 0-0.25098 0.14603-0.25098 0.29662 0 0.1004 0.0274 0.20079 0.0775 0.40158z"/><path d="m266.16 670.44v5e-3l5e-3 5e-3v0.0148l5e-3 5e-3v0.0148l5e-3 5e-3v0.0245h5e-3v0.0344c0 0.0821-0.0639 0.12321-0.13234 0.12321-0.0456 0-0.11864-0.0274-0.15971-0.0958-9e-3 -0.0228-0.0456-0.15972-0.0639-0.24187-0.032-0.11864-0.0639-0.24186-0.0913-0.36506l-0.20535-0.81685c-0.0182-0.0685-0.2145-0.38333-0.5111-0.38333-0.23273 0-0.28294 0.20079-0.28294 0.36507 0 0.20992 0.0775 0.49285 0.22817 0.88987 0.0731 0.18708 0.0958 0.23729 0.0958 0.32856 0 0.20079-0.14603 0.36964-0.37419 0.36964-0.43353 0-0.60237-0.65714-0.60237-0.6982 0-0.0456 0.0456-0.0456 0.0548-0.0456 0.0456 0 0.0502 9e-3 0.073 0.0821 0.12321 0.4244 0.30575 0.56129 0.4609 0.56129 0.0365 0 0.11409 0 0.11409-0.14603 0-0.10951-0.0456-0.22816-0.0775-0.31487-0.18254-0.47916-0.26468-0.73927-0.26468-0.95376 0-0.40157 0.2875-0.53847 0.55216-0.53847 0.17797 0 0.33314 0.0775 0.46091 0.20534-0.0593-0.23729-0.11409-0.46089-0.29661-0.69819-0.11409-0.15516-0.2875-0.2875-0.49742-0.2875-0.0639 0-0.26924 0.0136-0.34682 0.19166 0.073 0 0.13234 0 0.19622 0.0548 0.0456 0.041 0.0913 0.10041 0.0913 0.18712 0 0.13689-0.12322 0.15516-0.16884 0.15516-0.10497 0-0.25556-0.073-0.25556-0.29207 0-0.22816 0.2008-0.39701 0.48371-0.39701 0.46548 0 0.93552 0.41526 1.0633 0.92635z"/></g>
  <g fill="none">
   <path d="m59.902 179.25 98.667-56.892" stroke="#006be0" stroke-width=".765"/>
  </g>
  <g transform="matrix(.51106 0 0 -.51106 -27.022 513)" fill-rule="evenodd" stroke="#000" stroke-miterlimit="10.433" stroke-width="0" ns0:preamble="default_packages.tex" ns0:text="$$\\mathcal{N}(0,\\sigma^2)$$\n" xml:space="preserve"><path d="m288.88 701.2 0.0602-0.20054 0.0402-0.1103 0.0402-0.12033 0.0402-0.13037 0.0201-0.0602 0.02-0.0702 0.0301-0.0702 0.0402-0.14038 0.0302-0.0802 0.0201-0.0702 0.0603-0.16043 0.02-0.0902 0.0301-0.0802 0.0603-0.18049 0.0402-0.0902 0.0301-0.10027 0.0301-0.0902 0.0801-0.20057 0.0301-0.11029 0.12033-0.33092c0.63176-1.6947 0.91255-2.3164 1.5242-3.259 0.14038-0.21059 0.15041-0.22063 0.24066-0.22063 0.14039 0 0.35097 0.12034 0.46129 0.20057 0.14038 0.13035 0.1504 0.14039 0.26072 0.63174 0.59163 2.6173 1.3537 5.3448 1.5543 5.8061 0.01 0.0201 0.21059 0.39108 1.444 0.42117 0.20054 0.01 0.39107 0.53147 0.39107 0.75208 0 0.16046-0.0602 0.16046-0.20055 0.16046-1.0028 0-1.454-0.42118-1.5744-0.55154-0.28079-0.35097-0.52145-1.083-0.9827-2.7476-0.34094-1.2736-0.66184-2.5671-0.97265-3.8507-0.55152 0.82228-0.86239 1.6044-1.3437 2.8981-0.53148 1.4139-0.85236 2.4468-1.1232 3.3493-0.0602 0.19053-0.0702 0.20057-0.16044 0.20057-0.0201 0-0.21059 0-0.5014-0.24068-0.10026-0.0802-0.11029-0.17048-0.12033-0.28077-0.28077-2.6574-1.2234-5.2746-1.4942-5.7559-0.0801-0.14039-0.20056-0.32089-0.40111-0.32089-0.10027 0-0.49137 0.0502-0.75209 0.2908-0.0503 0.0301-0.0702 0.0301-0.0802 0.0301-0.16044 0-0.37102-0.49135-0.37102-0.73203 0-0.31086 0.61169-0.51141 0.89247-0.51141 0.64177 0 1.1532 1.4039 1.3136 1.8651 0.65181 1.805 0.96263 3.2891 1.1532 4.352z"/><path d="m297.89 693.14v0.02h-0.01v0.02h-0.01v0.01l-0.01 0.01v0.01h-0.01v0.01h-0.01v0.01l-0.01 0.01h-0.01v0.01l-0.10027 0.10027c-1.2535 1.2635-1.5744 3.1387-1.5744 4.6629 0 1.7348 0.38105 3.4696 1.6145 4.713 0.13036 0.12034 0.13036 0.14039 0.13036 0.17048 0 0.0702-0.0402 0.10027-0.10027 0.10027-0.10027 0-1.0028-0.67187-1.5944-1.9454-0.51141-1.093-0.63174-2.196-0.63174-3.0384 0-0.77214 0.1103-1.9755 0.66184-3.1086 0.60167-1.2234 1.4641-1.8651 1.5643-1.8651 0.0602 0 0.10027 0.0301 0.10027 0.10027z"/><path d="m302.45 698.71v0.30081l-0.01 0.15044-0.01 0.14038v0.1504l-0.02 0.15043-0.01 0.15042-0.02 0.14039-0.0201 0.15041-0.0301 0.14039-0.0301 0.15042-0.0801 0.28077-0.0502 0.14039-0.12034 0.28079c-0.46127 0.96262-1.2836 1.1232-1.7047 1.1232-0.59164 0-1.3236-0.26072-1.7348-1.1933-0.3209-0.6819-0.37103-1.4641-0.37103-2.2562 0-0.75208 0.0402-1.6446 0.45124-2.3966 0.43121-0.81225 1.1632-1.0128 1.6446-1.0128v0.2206c-0.38105 0-0.97265 0.25071-1.1532 1.2033-0.11029 0.60167-0.11029 1.5142-0.11029 2.1058 0 0.63175 0 1.2936 0.0802 1.8351 0.19052 1.1832 0.93262 1.2736 1.1832 1.2736 0.33092 0 0.99273-0.18051 1.1833-1.1632 0.10027-0.56156 0.10027-1.3236 0.10027-1.9454 0-0.7521 0-1.424-0.11029-2.0657-0.15042-0.94264-0.722-1.2434-1.1732-1.2434v-0.22062c0.54151 0 1.3036 0.21059 1.7448 1.1532 0.32089 0.69192 0.37104 1.4641 0.37104 2.2562z"/><path d="m304.87 695.53v0.0602l-0.01 0.0602v0.0602l-0.01 0.0502v0.0602l-0.0402 0.20056-0.01 0.0402-0.0201 0.0501-0.01 0.0402-0.0402 0.0802-0.0201 0.0302-0.0201 0.0402-0.0602 0.0902-0.0503 0.0501-0.12033 0.0802-0.0302 0.01-0.0301 0.0201-0.0301 0.01h-0.0402l-0.0301 0.01h-0.0702c-0.33091 0-0.53145-0.2507-0.53145-0.52146 0-0.27075 0.20054-0.53146 0.53145-0.53146 0.12035 0 0.25071 0.0402 0.35097 0.13036 0.0302 0.02 0.0402 0.0301 0.0503 0.0301 0.01 0 0.02-0.01 0.02-0.15042 0-0.73202-0.35097-1.3337-0.68189-1.6646-0.11029-0.11029-0.11029-0.13034-0.11029-0.16042 0-0.0702 0.0502-0.1103 0.10027-0.1103 0.11029 0 0.91255 0.77214 0.91255 1.9354z"/><path d="m312.47 699.24h0.1504l0.0201 0.01h0.0402l0.0201 0.01h0.0201l0.12035 0.0603 0.01 0.01 0.0201 0.01 0.01 0.01v0.01l0.0301 0.0301v0.01l0.01 0.01v0.01l0.01 0.01v0.01l0.01 0.01v0.0201l0.01 0.02v0.0402l0.01 0.01v0.0301c0 0.24067-0.21059 0.24067-0.39108 0.24067h-2.2763c-1.5142 0-2.6273-1.6446-2.6273-2.8278 0-0.87243 0.59165-1.5744 1.5041-1.5744l0.01 0.22062c-0.49136 0-0.89246 0.36099-0.89246 1.073 0 0.30083 0.12033 1.1232 0.4713 1.7047 0.42116 0.6919 1.0228 0.8323 1.3537 0.8323 0.84233 0 0.92258-0.66185 0.92258-0.97266 0-0.46128-0.20056-1.2836-0.54149-1.795-0.3911-0.58161-0.92259-0.84233-1.3136-0.84233l-0.01-0.22061c1.1833 0 2.507 1.2033 2.507 2.7376 0 0.17046 0 0.65179-0.31086 1.093z"/><path d="m316.88 700.91h-0.24066c-0.02-0.15042-0.0902-0.57158-0.18051-0.63175-0.0602-0.0501-0.59163-0.0501-0.69191-0.0501h-1.2936c0.74204 0.65181 0.98268 0.85237 1.4039 1.1732 0.52145 0.41116 1.0028 0.84235 1.0028 1.5042 0 0.85237-0.74206 1.3638-1.6446 1.3638-0.8624 0-1.4541-0.61171-1.4541-1.2435 0-0.36101 0.30084-0.39109 0.37104-0.39109 0.17047 0 0.37103 0.1103 0.37103 0.37104 0 0.12033-0.0502 0.361-0.41115 0.361 0.22062 0.50138 0.69193 0.65179 1.0228 0.65179 0.70195 0 1.063-0.54149 1.063-1.1131 0-0.60167-0.43118-1.083-0.65179-1.3337l-1.6947-1.6646c-0.0702-0.0602-0.0702-0.0702-0.0702-0.27077h2.8881z"/><path d="m320.08 698.01v0.31087l-0.01 0.17046-0.01 0.18051-0.0201 0.1805-0.0201 0.19053-0.0301 0.19054-0.0301 0.20053-0.0402 0.2106-0.0503 0.20055-0.0502 0.21059-0.0602 0.21058-0.0702 0.2206-0.0802 0.21059-0.0402 0.11029-0.0503 0.10027-0.0502 0.1103-0.0502 0.10026c-0.60167 1.2234-1.4541 1.8752-1.5543 1.8752-0.0602 0-0.10027-0.0402-0.10027-0.10027 0-0.0301 0-0.0502 0.19053-0.23064 0.97266-0.98269 1.5443-2.5671 1.5443-4.6529 0-1.6947-0.37103-3.4495-1.6045-4.703-0.13034-0.12035-0.13034-0.1404-0.13034-0.17048 0-0.0602 0.0402-0.10027 0.10026-0.10027 0.10027 0 0.99273 0.67187 1.5844 1.9354 0.51143 1.1031 0.63176 2.2061 0.63176 3.0385z"/></g>
 </g>
 <path d="m10.954 73.58h17.409" fill="none" stroke="#000" stroke-opacity=".23864" stroke-width=".44979"/>
 <path d="m12.23 73.333 5.4223-3.1298c0.53309 1.0103 0.72233 2.0302 0.63428 3.1298z" fill-opacity=".13258"/>
 <g transform="matrix(.35278 0 0 .35278 25.926 77.751)" ns0:alignment="middle center" ns0:jacobian_sqrt="0.352778" ns0:pdfconverter="inkscape" ns0:preamble="C:\\Users\\User\\AppData\\Roaming\\inkscape\\extensions\\textext\\default_packages.tex" ns0:scale="1.0" ns0:texconverter="pdflatex" ns0:text="$$a+b\\cdots x$$" ns0:version="1.1.0">
  <g id="id-c0069b03-2661-4376-843c-03f51050c24e" transform="translate(-284.85 -139.8)">
   <g transform="translate(321.11 146.72)">
    <g transform="rotate(-29.705 -112.97 30.465)">
     <g transform="matrix(1.4676 -8.9019e-8 8.9019e-8 1.4676 1.9768 .14812)">
      <g fill="#004793">
       <g transform="matrix(1.2016,0,0,1.2016,-378.52,-176.46)">
        <g transform="translate(284.45,146.72)" fill="#004793">
         <path id="id-508c27e9-b863-4ad2-8b17-4b05d76c72db" d="m3.7188-3.7656c-0.1875-0.375-0.46875-0.64062-0.92188-0.64062-1.1562 0-2.3906 1.4688-2.3906 2.9219 0 0.9375 0.54688 1.5938 1.3125 1.5938 0.20312 0 0.70312-0.046875 1.2969-0.75 0.078125 0.42188 0.4375 0.75 0.90625 0.75 0.35938 0 0.57812-0.23438 0.75-0.54688 0.15625-0.35938 0.29688-0.96875 0.29688-0.98438 0-0.10938-0.09375-0.10938-0.125-0.10938-0.09375 0-0.10938 0.046875-0.14062 0.1875-0.17188 0.64062-0.34375 1.2344-0.75 1.2344-0.28125 0-0.29688-0.26562-0.29688-0.45312 0-0.21875 0.015625-0.3125 0.125-0.75 0.10938-0.40625 0.125-0.51562 0.21875-0.89062l0.35938-1.3906c0.0625-0.28125 0.0625-0.29688 0.0625-0.34375 0-0.17188-0.10938-0.26562-0.28125-0.26562-0.25 0-0.39062 0.21875-0.42188 0.4375zm-0.64062 2.5781c-0.0625 0.1875-0.0625 0.20312-0.20312 0.375-0.4375 0.54688-0.84375 0.70312-1.125 0.70312-0.5 0-0.64062-0.54688-0.64062-0.9375 0-0.5 0.3125-1.7188 0.54688-2.1875 0.3125-0.57812 0.75-0.95312 1.1562-0.95312 0.64062 0 0.78125 0.8125 0.78125 0.875s-0.015625 0.125-0.03125 0.17188z" fill="#004793"/>
        </g>
       </g>
       <g id="id-2e263799-667d-4260-9e7a-273f43df51bd" transform="matrix(1.2016,0,0,1.2016,-378.52,-176.46)">
        <g transform="translate(291.93,146.72)" fill="#004793">
         <path d="m4.0781-2.2969h2.7812c0.14062 0 0.32812 0 0.32812-0.20312 0-0.1875-0.1875-0.1875-0.32812-0.1875h-2.7812v-2.7969c0-0.14062 0-0.32812-0.20312-0.32812s-0.20312 0.1875-0.20312 0.32812v2.7969h-2.7812c-0.14062 0-0.32812 0-0.32812 0.1875 0 0.20312 0.1875 0.20312 0.32812 0.20312h2.7812v2.7969c0 0.14062 0 0.32812 0.20312 0.32812s0.20312-0.1875 0.20312-0.32812z" fill="#004793"/>
        </g>
       </g>
       <g transform="matrix(1.2016,0,0,1.2016,-378.52,-176.46)">
        <g transform="translate(301.89,146.72)" fill="#004793">
         <path id="id-8b28c7ec-8629-4260-95fe-c759a450e27f" d="m2.375-6.8125s0-0.10938-0.125-0.10938c-0.21875 0-0.95312 0.078125-1.2188 0.10938-0.078125 0-0.1875 0.015625-0.1875 0.1875 0 0.125 0.09375 0.125 0.25 0.125 0.46875 0 0.48438 0.0625 0.48438 0.17188 0 0.0625-0.078125 0.40625-0.125 0.60938l-0.82812 3.25c-0.10938 0.5-0.15625 0.67188-0.15625 1.0156 0 0.9375 0.53125 1.5625 1.2656 1.5625 1.1719 0 2.4062-1.4844 2.4062-2.9219 0-0.90625-0.53125-1.5938-1.3281-1.5938-0.45312 0-0.875 0.29688-1.1719 0.59375zm-0.92188 3.7656c0.046875-0.21875 0.046875-0.23438 0.14062-0.34375 0.48438-0.64062 0.9375-0.79688 1.2031-0.79688 0.35938 0 0.625 0.29688 0.625 0.9375 0 0.59375-0.32812 1.7344-0.51562 2.1094-0.32812 0.67188-0.78125 1.0312-1.1719 1.0312-0.34375 0-0.67188-0.26562-0.67188-1 0-0.20312 0-0.39062 0.15625-1.0156z" fill="#004793"/>
        </g>
       </g>
       <g transform="matrix(1.2016,0,0,1.2016,-378.52,-176.46)">
        <g transform="translate(307.82,146.72)" fill="#004793">
         <path id="id-59d7415d-226d-4c3f-91ad-4d28497849ce" d="m0.35938-2.5234c0-0.28125-0.23438-0.51562-0.51562-0.51562-0.29688 0-0.53125 0.23438-0.53125 0.51562 0 0.29688 0.23438 0.53125 0.53125 0.53125 0.28125 0 0.51562-0.23438 0.51562-0.53125z" fill="#004793"/>
        </g>
       </g>
       <path id="id-cca2ed4b-182b-444f-bb31-083e48b0dc2f" d="m-3.7881-3.734c0.075097-0.30039 0.35671-1.4081 1.1828-1.4081 0.056323 0 0.35671 0 0.60078 0.15019-0.33794 0.075097-0.56323 0.35671-0.56323 0.6571 0 0.18774 0.13142 0.41303 0.45058 0.41303 0.26284 0 0.63833-0.20652 0.63833-0.69465 0-0.61955-0.69465-0.78852-1.1077-0.78852-0.69465 0-1.1077 0.63833-1.2579 0.90117-0.30039-0.78852-0.93871-0.90117-1.2954-0.90117-1.2391 0-1.9338 1.5395-1.9338 1.8399 0 0.13142 0.13142 0.13142 0.15019 0.13142 0.093877 0 0.13142-0.037549 0.15019-0.13142 0.41303-1.2767 1.2016-1.577 1.6146-1.577 0.22529 0 0.63833 0.11265 0.63833 0.80729 0 0.37549-0.20652 1.164-0.63833 2.8537-0.18774 0.7322-0.61955 1.2391-1.1452 1.2391-0.075097 0-0.33794 0-0.60078-0.15019 0.30039-0.075097 0.56323-0.31916 0.56323-0.6571 0-0.31916-0.26284-0.41303-0.43181-0.41303-0.37549 0-0.6571 0.30039-0.6571 0.69465 0 0.54445 0.582 0.78852 1.1077 0.78852 0.80729 0 1.2391-0.84484 1.2579-0.90117 0.15019 0.43181 0.582 0.90117 1.2954 0.90117 1.2391 0 1.915-1.5395 1.915-1.8399 0-0.13142-0.093871-0.13142-0.13142-0.13142-0.11265 0-0.13142 0.056323-0.16897 0.13142-0.39426 1.2954-1.2016 1.577-1.577 1.577-0.46936 0-0.6571-0.37549-0.6571-0.78852 0-0.26284 0.056323-0.52568 0.18774-1.0514z"/>
      </g>
     </g>
    </g>
    <g transform="matrix(.29624 0 0 .29624 -58.116 -.58838)" fill="#005397" ns0:alignment="middle center" ns0:jacobian_sqrt="0.352778" ns0:pdfconverter="inkscape" ns0:preamble="C:\\Users\\User\\AppData\\Roaming\\inkscape\\extensions\\textext\\default_packages.tex" ns0:scale="1.0" ns0:texconverter="pdflatex" ns0:text="Prior $$ b \\sim \\mathcal{N}(0,\\,\\tau^{2})$$" ns0:version="1.1.0">
     <g id="id-b9cdff1e-16cb-4a29-87cd-9a52b21ba2fe" transform="translate(-148.71 -127.76)" fill="#005397">
      <g id="id-72786b3f-2070-4676-bb08-e7fc01cc1c0a" transform="matrix(4.6611 0 0 4.6611 -1084.1 -564.19)">
       <g transform="translate(277.64,146.72)" fill="#005397">
        <path d="m2.375-6.8125s0-0.10938-0.125-0.10938c-0.21875 0-0.95312 0.078125-1.2188 0.10938-0.078125 0-0.1875 0.015625-0.1875 0.1875 0 0.125 0.09375 0.125 0.25 0.125 0.46875 0 0.48438 0.0625 0.48438 0.17188 0 0.0625-0.078125 0.40625-0.125 0.60938l-0.82812 3.25c-0.10938 0.5-0.15625 0.67188-0.15625 1.0156 0 0.9375 0.53125 1.5625 1.2656 1.5625 1.1719 0 2.4062-1.4844 2.4062-2.9219 0-0.90625-0.53125-1.5938-1.3281-1.5938-0.45312 0-0.875 0.29688-1.1719 0.59375zm-0.92188 3.7656c0.046875-0.21875 0.046875-0.23438 0.14062-0.34375 0.48438-0.64062 0.9375-0.79688 1.2031-0.79688 0.35938 0 0.625 0.29688 0.625 0.9375 0 0.59375-0.32812 1.7344-0.51562 2.1094-0.32812 0.67188-0.78125 1.0312-1.1719 1.0312-0.34375 0-0.67188-0.26562-0.67188-1 0-0.20312 0-0.39062 0.15625-1.0156z" fill="#005397"/>
       </g>
      </g>
      <g transform="matrix(4.6611 0 0 4.6611 -1084.1 -564.19)">
       <g transform="translate(284.68,146.72)" fill="#005397">
        <path d="m7.2031-3.3281c0-0.21875-0.0625-0.32812-0.14062-0.32812-0.046875 0-0.14062 0.078125-0.14062 0.26562-0.046875 0.95312-0.70312 1.5-1.4062 1.5-0.625 0-1.0938-0.42188-1.5938-0.84375-0.5-0.46875-1.0156-0.92188-1.7031-0.92188-1.0781 0-1.6719 1.0938-1.6719 2 0 0.32812 0.125 0.32812 0.14062 0.32812 0.10938 0 0.14062-0.20312 0.14062-0.23438 0.046875-1.0938 0.78125-1.5312 1.3906-1.5312 0.625 0 1.1094 0.42188 1.5938 0.84375 0.51562 0.46875 1.0312 0.92188 1.7031 0.92188 1.0938 0 1.6875-1.0938 1.6875-2z" fill="#005397"/>
       </g>
      </g>
      <g transform="matrix(4.6611 0 0 4.6611 -1084.1 -564.19)">
       <g transform="translate(295.2,146.72)" fill="#005397">
        <path d="m3.0469-5.7188c0.1875 0.51562 0.40625 1.2656 0.84375 2.4844 0.64062 1.7031 0.92188 2.3125 1.5156 3.2656 0.14062 0.20312 0.15625 0.21875 0.25 0.21875 0.14062 0 0.34375-0.125 0.45312-0.20312 0.14062-0.125 0.15625-0.14062 0.26562-0.625 0.59375-2.625 1.3438-5.3594 1.5469-5.8125 0.015625-0.015625 0.21875-0.39062 1.4375-0.42188 0.20312 0 0.39062-0.53125 0.39062-0.75 0-0.15625-0.0625-0.15625-0.20312-0.15625-1 0-1.4375 0.40625-1.5625 0.54688-0.28125 0.35938-0.51562 1.0781-0.96875 2.75-0.35938 1.2656-0.67188 2.5625-0.98438 3.8594-0.54688-0.82812-0.85938-1.625-1.3438-2.9062-0.51562-1.4219-0.84375-2.4531-1.1094-3.3438-0.0625-0.20312-0.0625-0.21875-0.15625-0.21875-0.015625 0-0.21875 0-0.51562 0.25-0.09375 0.078125-0.10938 0.17188-0.10938 0.28125-0.28125 2.6562-1.2188 5.2812-1.4844 5.75-0.09375 0.15625-0.20312 0.32812-0.40625 0.32812-0.09375 0-0.48438-0.046875-0.75-0.28125-0.046875-0.046875-0.0625-0.046875-0.078125-0.046875-0.15625 0-0.375 0.5-0.375 0.73438 0 0.3125 0.60938 0.51562 0.89062 0.51562 0.64062 0 1.1562-1.4062 1.3125-1.8594 0.64062-1.8125 0.95312-3.2969 1.1406-4.3594z" fill="#005397"/>
       </g>
      </g>
      <g transform="matrix(4.6611 0 0 4.6611 -1084.1 -564.19)">
       <g transform="translate(304.84,146.72)">
        <path d="m3.2969 2.3906c0-0.03125 0-0.046875-0.17188-0.21875-1.2344-1.25-1.5625-3.1406-1.5625-4.6719 0-1.7344 0.375-3.4688 1.6094-4.7031 0.125-0.125 0.125-0.14062 0.125-0.17188 0-0.078125-0.03125-0.10938-0.09375-0.10938-0.10938 0-1 0.6875-1.5938 1.9531-0.5 1.0938-0.625 2.2031-0.625 3.0312 0 0.78125 0.10938 1.9844 0.65625 3.125 0.60938 1.2188 1.4531 1.875 1.5625 1.875 0.0625 0 0.09375-0.03125 0.09375-0.10938z" fill="#005397"/>
       </g>
       <g transform="translate(308.71,146.72)">
        <path d="m4.5781-3.1875c0-0.79688-0.046875-1.5938-0.39062-2.3281-0.45312-0.96875-1.2812-1.125-1.6875-1.125-0.60938 0-1.3281 0.26562-1.75 1.1875-0.3125 0.6875-0.35938 1.4688-0.35938 2.2656 0 0.75 0.03125 1.6406 0.45312 2.4062 0.42188 0.79688 1.1562 1 1.6406 1 0.53125 0 1.2969-0.20312 1.7344-1.1562 0.3125-0.6875 0.35938-1.4688 0.35938-2.25zm-2.0938 3.1875c-0.39062 0-0.98438-0.25-1.1562-1.2031-0.10938-0.59375-0.10938-1.5156-0.10938-2.1094 0-0.64062 0-1.2969 0.078125-1.8281 0.1875-1.1875 0.9375-1.2812 1.1875-1.2812 0.32812 0 0.98438 0.1875 1.1719 1.1719 0.10938 0.5625 0.10938 1.3125 0.10938 1.9375 0 0.75 0 1.4219-0.10938 2.0625-0.15625 0.95312-0.71875 1.25-1.1719 1.25z" fill="#005397"/>
       </g>
      </g>
      <g id="id-dfc9200b-40b6-4182-a3ad-4ee23f9e887c" transform="matrix(4.6611 0 0 4.6611 -1084.1 -564.19)">
       <g transform="translate(313.7,146.72)" fill="#005397">
        <path d="m2.0312-0.015625c0-0.65625-0.25-1.0469-0.64062-1.0469-0.32812 0-0.53125 0.25-0.53125 0.53125 0 0.26562 0.20312 0.53125 0.53125 0.53125 0.10938 0 0.25-0.046875 0.34375-0.125 0.03125-0.03125 0.046875-0.03125 0.046875-0.03125 0.015625 0 0.015625 0 0.015625 0.14062 0 0.75-0.34375 1.3438-0.67188 1.6719-0.10938 0.10938-0.10938 0.125-0.10938 0.15625 0 0.078125 0.046875 0.10938 0.09375 0.10938 0.10938 0 0.92188-0.76562 0.92188-1.9375z" fill="#005397"/>
       </g>
      </g>
      <g id="id-1175a52d-c8ad-405f-96aa-5b128f054d2f" transform="matrix(4.6611 0 0 4.6611 -1084.1 -564.19)">
       <g transform="translate(319.78,146.72)" fill="#005397">
        <path d="m2.9375-3.7188h1.6719c0.125 0 0.48438 0 0.48438-0.34375 0-0.23438-0.20312-0.23438-0.40625-0.23438h-2.7812c-0.20312 0-0.59375 0-1.0312 0.46875-0.32812 0.35938-0.60938 0.84375-0.60938 0.89062 0 0.015625 0 0.10938 0.125 0.10938 0.078125 0 0.09375-0.046875 0.15625-0.125 0.48438-0.76562 1.0625-0.76562 1.2656-0.76562h0.82812l-0.96875 3.2031c-0.046875 0.10938-0.10938 0.32812-0.10938 0.35938 0 0.10938 0.078125 0.28125 0.29688 0.28125 0.32812 0 0.375-0.28125 0.40625-0.4375z" fill="#005397"/>
       </g>
      </g>
      <g transform="matrix(4.6611 0 0 4.6611 -1084.1 -564.19)">
       <g transform="translate(325.27,142.61)" fill="#005397">
        <path d="m3.5156-1.2656h-0.23438c-0.015625 0.15625-0.09375 0.5625-0.1875 0.625-0.046875 0.046875-0.57812 0.046875-0.6875 0.046875h-1.2812c0.73438-0.64062 0.98438-0.84375 1.3906-1.1719 0.51562-0.40625 1-0.84375 1-1.5 0-0.84375-0.73438-1.3594-1.625-1.3594-0.85938 0-1.4531 0.60938-1.4531 1.25 0 0.34375 0.29688 0.39062 0.375 0.39062 0.15625 0 0.35938-0.125 0.35938-0.375 0-0.125-0.046875-0.375-0.40625-0.375 0.21875-0.48438 0.6875-0.64062 1.0156-0.64062 0.70312 0 1.0625 0.54688 1.0625 1.1094 0 0.60938-0.4375 1.0781-0.65625 1.3281l-1.6719 1.6719c-0.078125 0.0625-0.078125 0.078125-0.078125 0.26562h2.875z" fill="#005397"/>
       </g>
      </g>
      <g id="id-b8c2cc45-0aef-40a1-b152-7bca79c7a57e" transform="matrix(4.6611 0 0 4.6611 -1084.1 -564.19)">
       <g transform="translate(329.74,146.72)" fill="#005397">
        <path id="id-74bbc695-90db-47f5-b4df-5498ce3a48be" d="m2.875-2.5c0-0.76562-0.10938-1.9688-0.65625-3.1094-0.59375-1.2188-1.4531-1.875-1.5469-1.875-0.0625 0-0.10938 0.046875-0.10938 0.10938 0 0.03125 0 0.046875 0.1875 0.23438 0.98438 0.98438 1.5469 2.5625 1.5469 4.6406 0 1.7188-0.35938 3.4688-1.5938 4.7188-0.14062 0.125-0.14062 0.14062-0.14062 0.17188 0 0.0625 0.046875 0.10938 0.10938 0.10938 0.09375 0 1-0.6875 1.5781-1.9531 0.51562-1.0938 0.625-2.2031 0.625-3.0469z" fill="#005397"/>
       </g>
      </g>
     </g>
    </g>
    <text x="-77.03878" y="-2.739603" fill="#000000" fill-opacity=".44697" font-family="sans-serif" font-size="14.365px" stroke-width=".38512" style="line-height:1.25" xml:space="preserve"><tspan x="-77.03878" y="-2.739603" fill="#000000" fill-opacity=".44697" font-family="'Times New Roman'" stroke-width=".38512">Prior</tspan></text>
   </g>
  </g>
 </g>
</svg>


