<?xml version="1.0" encoding="UTF-8" standalone="no"?>
<svg
   xmlns:ns0="http://www.iki.fi/pav/software/textext/"
   xmlns:dc="http://purl.org/dc/elements/1.1/"
   xmlns:cc="http://creativecommons.org/ns#"
   xmlns:rdf="http://www.w3.org/1999/02/22-rdf-syntax-ns#"
   xmlns:svg="http://www.w3.org/2000/svg"
   xmlns="http://www.w3.org/2000/svg"
   xmlns:sodipodi="http://sodipodi.sourceforge.net/DTD/sodipodi-0.dtd"
   xmlns:inkscape="http://www.inkscape.org/namespaces/inkscape"
   sodipodi:docname="proj_and_ker.svg"
   id="svg120"
   viewBox="0 0 107.73028 121.69276"
   version="1.1"
   height="121.69276mm"
   width="107.73028mm"
   inkscape:version="1.0 (4035a4fb49, 2020-05-01)">
  <metadata
     id="metadata124">
    <rdf:RDF>
      <cc:Work
         rdf:about="">
        <dc:format>image/svg+xml</dc:format>
        <dc:type
           rdf:resource="http://purl.org/dc/dcmitype/StillImage" />
        <dc:title></dc:title>
      </cc:Work>
    </rdf:RDF>
  </metadata>
  <sodipodi:namedview
     fit-margin-bottom="0"
     fit-margin-right="0"
     fit-margin-left="0"
     fit-margin-top="0"
     inkscape:document-rotation="0"
     inkscape:current-layer="svg120"
     inkscape:window-maximized="1"
     inkscape:window-y="-8"
     inkscape:window-x="1912"
     inkscape:cy="211.69367"
     inkscape:cx="-55.255343"
     inkscape:zoom="1.8101934"
     showgrid="false"
     id="namedview122"
     inkscape:window-height="1017"
     inkscape:window-width="1920"
     inkscape:pageshadow="2"
     inkscape:pageopacity="0"
     guidetolerance="10"
     gridtolerance="10"
     objecttolerance="10"
     borderopacity="1"
     bordercolor="#666666"
     pagecolor="#ffffff" />
  <defs
     id="defs17">
    <marker
       orient="auto"
       overflow="visible"
       id="b">
      <path
         id="path2"
         stroke-width="1pt"
         stroke-opacity="0.50725"
         stroke="#ff0000"
         fill-rule="evenodd"
         fill-opacity="0.50725"
         fill="#ff0000"
         d="M 0,0 5,-5 -12.5,0 5,5 Z"
         transform="matrix(-0.4,0,0,-0.4,-4,0)" />
    </marker>
    <marker
       orient="auto"
       overflow="visible"
       id="Arrow1Mend">
      <path
         id="path5"
         stroke-width="1pt"
         stroke-opacity="0.5314"
         stroke="#000000"
         fill-rule="evenodd"
         fill-opacity="0.5314"
         d="M 0,0 5,-5 -12.5,0 5,5 Z"
         transform="matrix(-0.4,0,0,-0.4,-4,0)" />
    </marker>
    <marker
       orient="auto"
       overflow="visible"
       id="c">
      <path
         id="path8"
         stroke-width="1pt"
         stroke-opacity="0.5314"
         stroke="#000000"
         fill-rule="evenodd"
         fill-opacity="0.5314"
         d="M 0,0 5,-5 -12.5,0 5,5 Z"
         transform="matrix(-0.4,0,0,-0.4,-4,0)" />
    </marker>
    <marker
       orient="auto"
       overflow="visible"
       id="d">
      <path
         id="path11"
         stroke-width="1pt"
         stroke-opacity="0.99517"
         stroke="#000000"
         fill-rule="evenodd"
         d="M 0,0 5,-5 -12.5,0 5,5 Z"
         transform="matrix(-0.4,0,0,-0.4,-4,0)" />
    </marker>
    <marker
       orient="auto"
       overflow="visible"
       id="a">
      <path
         id="path14"
         stroke-width="1pt"
         stroke-opacity="0.50725"
         stroke="#ff0000"
         fill-rule="evenodd"
         fill-opacity="0.50725"
         fill="#ff0000"
         d="M 0,0 5,-5 -12.5,0 5,5 Z"
         transform="matrix(-0.4,0,0,-0.4,-4,0)" />
    </marker>
    <marker
       id="b-1"
       overflow="visible"
       orient="auto">
      <path
         transform="matrix(-0.4,0,0,-0.4,-4,0)"
         d="M 0,0 5,-5 -12.5,0 5,5 Z"
         fill="#ff0000"
         fill-opacity="0.50725"
         fill-rule="evenodd"
         stroke="#ff0000"
         stroke-opacity="0.50725"
         stroke-width="1pt"
         id="path2-7" />
    </marker>
  </defs>
  <g
     id="g118"
     transform="translate(-26.617099,-66.345169)">
    <g
       id="g35"
       stroke="#000000"
       fill="none">
      <path
         id="path19"
         stroke-width="0.26458px"
         d="m 26.749,171.45 3.3945,-44.162 10.489,-2.4568" />
      <path
         sodipodi:nodetypes="cccc"
         id="path21"
         stroke-width="0.26458px"
         d="M 122.18,145.81 125.5755,101.647 54.472,121.321 39.440965,66.471247" />
      <path
         id="path23"
         stroke-width="0.5"
         d="m 26.751,171.452 95.432,-25.641" />
      <path
         sodipodi:nodetypes="cc"
         id="path25"
         stroke-width="0.5"
         d="M 33.412529,97.284894 51.263,164.614" />
      <path
         style="fill:#000000;fill-opacity:0.0871212;stroke:#000000;stroke-width:0.582083;stroke-miterlimit:4;stroke-dasharray:none;stroke-opacity:0.40909091"
         id="path27"
         stroke-width="0.26458px"
         d="m 54.473,121.32 -3.2099,43.293" />
      <path
         id="path29"
         stroke-width="0.26458px"
         stroke-opacity="0.60386"
         d="m 40.632,124.83 13.84,-3.5114" />
      <path
         id="path31"
         stroke-width="0.665"
         stroke-opacity="0.5314"
         marker-end="url(#Arrow1Mend)"
         d="M 53.058,142.22 94.316948,131.18292"
         sodipodi:nodetypes="cc" />
      <path
         id="path33"
         stroke-width="0.665"
         stroke-opacity="0.5314"
         marker-end="url(#c)"
         d="M 52.865,142.43 40.221,97.701" />
    </g>
    <path
       id="path37"
       stroke-width="0.665"
       stroke-opacity="0.99517"
       stroke="#000000"
       marker-end="url(#d)"
       d="M 53.058,142.22 83.668997,86.182837"
       sodipodi:nodetypes="cc" />
    <circle
       id="circle39"
       r="0.66145998"
       cy="142.22"
       cx="52.939999" />
    <g
       id="g47"
       fill="none">
      <path
         id="path43"
         stroke-width="0.765"
         stroke-opacity="0.50725"
         stroke="#ff0000"
         marker-end="url(#b)"
         d="m 82.689867,98.41104 c 2.048292,7.22952 5.267151,18.51804 7.372736,26.04383"
         sodipodi:nodetypes="cc" />
      <path
         style="marker-end:url(#b-1)"
         sodipodi:nodetypes="cc"
         d="m 75.193616,90.941247 c -7.22951,2.04829 -20.275032,6.145645 -27.800822,8.251235"
         marker-end="url(#b-1)"
         stroke="#ff0000"
         stroke-opacity="0.50725"
         stroke-width="0.765"
         id="path43-6" />
      <g
         id="g1064"
         ns0:jacobian_sqrt="0.352778"
         ns0:inkscapeversion="1.0"
         ns0:alignment="middle center"
         ns0:scale="1.0"
         ns0:preamble="C:\\Users\\User\\AppData\\Roaming\\inkscape\\extensions\\textext\\default_packages.tex"
         ns0:text="$$\\mathbb{R}^N$$"
         ns0:pdfconverter="inkscape"
         ns0:texconverter="pdflatex"
         ns0:version="1.1.0"
         transform="matrix(0.352778,0,0,0.352778,-42.4742,34.8232)">
        <defs
           id="id-2be2f8cc-80f6-406f-87eb-15c7e3e17bc5">
          <g
             id="id-d9cf45c0-aebd-4f74-8a42-aee56d122450">
            <symbol
               overflow="visible"
               id="id-f1377b6d-2a22-4d25-9b98-f99211b4edf3">
              <path
                 style="stroke:none"
                 d=""
                 id="id-cc786b04-4b53-420f-a84c-745dae0c93bc" />
            </symbol>
            <symbol
               overflow="visible"
               id="id-75fee25c-d7bd-48dd-85f0-b17000a65048">
              <path
                 style="stroke:none"
                 d="M 2.671875,-3.125 H 3.03125 l 1.5,2.3125 C 4.625,-0.65625 4.859375,-0.265625 4.96875,-0.125 5.046875,0 5.078125,0 5.296875,0 h 1.375 c 0.1875,0 0.34375,0 0.34375,-0.171875 0,-0.09375 -0.0625,-0.15625 -0.15625,-0.171875 C 6.484375,-0.421875 6,-1.09375 5.765625,-1.40625 5.6875,-1.5 5.1875,-2.15625 4.53125,-3.234375 5.40625,-3.40625 6.265625,-3.78125 6.265625,-4.96875 6.265625,-6.34375 4.8125,-6.828125 3.625,-6.828125 H 0.5 c -0.1875,0 -0.34375,0 -0.34375,0.171875 0,0.171875 0.1875,0.171875 0.265625,0.171875 0.578125,0 0.625,0.078125 0.625,0.578125 v 4.984375 c 0,0.5 -0.046875,0.578125 -0.625,0.578125 -0.078125,0 -0.265625,0 -0.265625,0.171875 C 0.15625,0 0.3125,0 0.5,0 H 3.234375 C 3.40625,0 3.5625,0 3.5625,-0.171875 c 0,-0.171875 -0.171875,-0.171875 -0.28125,-0.171875 -0.5625,0 -0.609375,-0.078125 -0.609375,-0.578125 z m 1.921875,-0.5 c 0.28125,-0.359375 0.3125,-0.890625 0.3125,-1.328125 0,-0.484375 -0.0625,-1.015625 -0.375,-1.421875 0.40625,0.09375 1.390625,0.40625 1.390625,1.40625 0,0.65625 -0.296875,1.15625 -1.328125,1.34375 z M 2.671875,-5.9375 c 0,-0.21875 0,-0.546875 0.625,-0.546875 0.84375,0 1.265625,0.359375 1.265625,1.53125 0,1.28125 -0.3125,1.46875 -1.890625,1.46875 z M 1.3125,-0.34375 C 1.390625,-0.53125 1.390625,-0.8125 1.390625,-0.890625 V -5.9375 c 0,-0.09375 0,-0.359375 -0.078125,-0.546875 h 1.140625 c -0.125,0.171875 -0.125,0.359375 -0.125,0.515625 v 5.078125 c 0,0.09375 0,0.359375 0.078125,0.546875 z M 3.4375,-3.125 c 0.078125,-0.015625 0.109375,-0.03125 0.1875,-0.03125 0.15625,0 0.375,-0.015625 0.515625,-0.03125 0.15625,0.234375 1.234375,2.015625 2.0625,2.84375 h -0.96875 z m 0,0"
                 id="id-08786ffc-e152-4564-86fe-47d2141ef24d" />
            </symbol>
            <symbol
               overflow="visible"
               id="id-d214e453-12dc-4d62-ae10-fc2c4bfdb51c">
              <path
                 style="stroke:none"
                 d=""
                 id="id-a07f15d9-3960-437e-97b7-e83a15c272ca" />
            </symbol>
            <symbol
               overflow="visible"
               id="id-2a1aae3b-14dc-404f-9525-82a056c808ee">
              <path
                 style="stroke:none"
                 d="M 5.8125,-4 C 5.875,-4.265625 6,-4.5 6.546875,-4.515625 c 0.03125,0 0.140625,0 0.140625,-0.140625 0,-0.046875 -0.03125,-0.109375 -0.109375,-0.109375 -0.21875,0 -0.484375,0.03125 -0.71875,0.03125 -0.171875,0 -0.5625,-0.03125 -0.734375,-0.03125 -0.03125,0 -0.140625,0 -0.140625,0.15625 0,0.09375 0.09375,0.09375 0.15625,0.09375 0.328125,0.015625 0.4375,0.125 0.4375,0.296875 0,0.046875 0,0.09375 -0.03125,0.15625 l -0.75,3.046875 -1.765625,-3.625 c -0.0625,-0.125 -0.078125,-0.125 -0.25,-0.125 H 1.828125 c -0.125,0 -0.21875,0 -0.21875,0.15625 0,0.09375 0.078125,0.09375 0.234375,0.09375 0.140625,0 0.296875,0.015625 0.4375,0.046875 L 1.359375,-0.75 c -0.0625,0.265625 -0.1875,0.484375 -0.734375,0.5 -0.046875,0 -0.140625,0 -0.140625,0.140625 C 0.484375,-0.03125 0.53125,0 0.578125,0 0.8125,0 1.078125,-0.03125 1.3125,-0.03125 1.484375,-0.03125 1.875,0 2.046875,0 2.125,0 2.1875,-0.03125 2.1875,-0.140625 2.1875,-0.25 2.109375,-0.25 2.03125,-0.25 c -0.4375,-0.015625 -0.4375,-0.203125 -0.4375,-0.296875 0,-0.03125 0,-0.0625 0.015625,-0.171875 l 0.90625,-3.5625 2.03125,4.15625 C 4.59375,0 4.625,0 4.703125,0 4.8125,0 4.8125,-0.015625 4.84375,-0.140625 Z m 0,0"
                 id="id-37805f8b-1652-4bb1-b1a1-c531d0ac1ffd" />
            </symbol>
          </g>
        </defs>
        <g
           id="id-42d2116b-6f88-4f85-ac2c-205b8495d04c"
           transform="matrix(0.94645488,0,0,0.94645488,-258.28078,-127.60937)">
          <g
             style="fill:#000000;fill-opacity:1"
             id="id-50833f60-b30c-4649-926f-46cc8efa1ae4">
            <g
               id="g1056"
               transform="translate(298.248,146.72)">
              <path
                 style="stroke:none;stroke-width:2.53674"
                 d="m 472.94372,101.51757 h 0.91163 l 3.80512,5.86623 c 0.23769,0.39636 0.83238,1.38728 1.10982,1.74401 0.19812,0.31709 0.27747,0.31709 0.83238,0.31709 h 3.48803 c 0.47564,0 0.872,0 0.872,-0.436 0,-0.23782 -0.15854,-0.39637 -0.39636,-0.43601 -0.95128,-0.19819 -2.18003,-1.90255 -2.77457,-2.69529 -0.19812,-0.23782 -1.46657,-1.90255 -3.1313,-4.63748 2.21965,-0.436 4.39968,-1.387281 4.39968,-4.399669 0,-3.488023 -3.68622,-4.716759 -6.69861,-4.716759 h -7.92732 c -0.47564,0 -0.87201,0 -0.87201,0.436003 0,0.436003 0.47564,0.436003 0.67384,0.436003 1.46654,0 1.58546,0.198196 1.58546,1.466555 v 12.644087 c 0,1.26837 -0.11897,1.46655 -1.58546,1.46655 -0.19812,0 -0.67384,0 -0.67384,0.43601 0,0.436 0.39637,0.436 0.87201,0.436 h 6.93642 c 0.43599,0 0.83236,0 0.83236,-0.436 0,-0.43601 -0.43599,-0.43601 -0.71346,-0.43601 -1.42692,0 -1.54582,-0.19819 -1.54582,-1.46655 z m 4.87529,-1.26837 c 0.71346,-0.911641 0.79274,-2.259286 0.79274,-3.369112 0,-1.228736 -0.15855,-2.576381 -0.95128,-3.606933 1.03055,0.237819 3.52767,1.030552 3.52767,3.567296 0,1.664738 -0.75311,2.933108 -3.36913,3.408749 z m -4.87529,-5.86622 c 0,-0.554913 0,-1.387282 1.58547,-1.387282 2.14037,0 3.21055,0.911643 3.21055,3.88439 0,3.250202 -0.79273,3.725842 -4.79602,3.725842 z m -3.4484,14.18991 c 0.19812,-0.47563 0.19812,-1.18909 0.19812,-1.38728 V 94.38298 c 0,-0.23782 0,-0.911642 -0.19812,-1.387282 h 2.89349 c -0.3171,0.436003 -0.3171,0.911643 -0.3171,1.308009 v 12.881903 c 0,0.23782 0,0.91165 0.19812,1.38728 z m 5.39058,-7.05532 c 0.19812,-0.0396 0.27747,-0.0793 0.47564,-0.0793 0.39637,0 0.95128,-0.0397 1.30802,-0.0793 0.39637,0.59455 3.13128,5.11312 5.23204,7.21386 h -2.45747 z m 0,0"
                 id="id-d136f9fc-1360-4eca-a507-8730a5964aa8" />
            </g>
          </g>
          <g
             style="fill:#000000;fill-opacity:1"
             id="id-2f21b3c4-05f4-4551-9dfd-6a23e841dc05">
            <g
               id="g1060"
               transform="translate(305.443,142.607)">
              <path
                 style="stroke:none;stroke-width:2.53674"
                 d="m 491.96755,92.977293 c 0.15854,-0.673823 0.47564,-1.268372 1.86293,-1.308009 0.0791,0 0.35672,0 0.35672,-0.35673 0,-0.118897 -0.0792,-0.277456 -0.27745,-0.277456 -0.55491,0 -1.22874,0.07927 -1.82328,0.07927 -0.43602,0 -1.42692,-0.07927 -1.86294,-0.07927 -0.0791,0 -0.35671,0 -0.35671,0.396366 0,0.23782 0.23769,0.23782 0.39636,0.23782 0.83236,0.03965 1.10983,0.317093 1.10983,0.753096 0,0.118897 0,0.23782 -0.0792,0.396366 l -1.90256,7.729144 -4.47895,-9.195699 c -0.15854,-0.317093 -0.19812,-0.317093 -0.63418,-0.317093 h -2.41783 c -0.31709,0 -0.55491,0 -0.55491,0.396366 0,0.23782 0.19812,0.23782 0.59454,0.23782 0.35674,0 0.75311,0.03965 1.10982,0.118897 l -2.33854,9.433519 c -0.15855,0.67382 -0.47564,1.22874 -1.86294,1.26837 -0.11897,0 -0.35672,0 -0.35672,0.35673 0,0.1982 0.11898,0.27746 0.2377,0.27746 0.59453,0 1.26837,-0.0793 1.86291,-0.0793 0.43601,0 1.42691,0.0793 1.86293,0.0793 0.19812,0 0.35672,-0.0793 0.35672,-0.35673 0,-0.27746 -0.19812,-0.27746 -0.39637,-0.27746 -1.10982,-0.0396 -1.10982,-0.51527 -1.10982,-0.75309 0,-0.0793 0,-0.15855 0.0396,-0.43601 l 2.29892,-9.037149 5.15277,10.543349 c 0.11897,0.31709 0.19811,0.31709 0.39636,0.31709 0.27745,0 0.27745,-0.0396 0.35672,-0.35673 z m 0,0"
                 id="id-6b06abef-a354-4201-b555-f16ebbe4cb82" />
            </g>
          </g>
        </g>
      </g>
    </g>
    <g
       id="g116"
       stroke="#000000">
      <g
         xml:space="preserve"
         ns0:text="$$\\mathcal{C}(X)$$\n"
         ns0:preamble="default_packages.tex"
         stroke-width="0"
         stroke-miterlimit="10.433"
         fill-rule="evenodd"
         transform="matrix(0.58612,0,0,-0.58612,-67.673,549.52)"
         id="content"><path
           style="stroke-width:0"
           id="path49"
           d="m 307.34085,747.06434 v 0.0418 h -0.0105 v 0.0105 h -0.0105 l -0.0105,0.0105 h -0.0208 v 0.0105 h -0.0521 c -0.17734,0 -0.41727,-0.15647 -0.4277,-0.15647 -0.20863,-0.13561 -0.25035,-0.20862 -0.37553,-0.38596 -0.32338,-0.47985 -0.78237,-0.83453 -1.46042,-0.83453 -0.93884,0 -1.77336,0.66762 -1.77336,2.22192 0,0.93884 0.3651,2.16976 0.91798,2.98342 0.45898,0.66762 1.02229,1.21007 2.09674,1.21007 0.3964,0 0.64675,-0.14605 0.64675,-0.53201 0,-0.36511 -0.38597,-1.09532 -0.51115,-1.30395 -0.0626,-0.11475 -0.0626,-0.13561 -0.0626,-0.15647 0,-0.0731 0.0521,-0.0731 0.11475,-0.0731 0.20863,0 0.58417,0.2295 0.71977,0.3964 0.0208,0.0418 0.61547,1.05359 0.61547,1.5856 0,0.5633 -0.46942,0.64675 -0.84496,0.64675 -1.50214,0 -2.7435,-0.98057 -3.22335,-1.56473 -1.23092,-1.49171 -1.3561,-3.09817 -1.3561,-3.63018 0,-1.51257 0.77194,-2.35753 1.97156,-2.35753 1.67948,0 3.05644,1.6169 3.05644,1.87768 z" /><path
           style="stroke-width:0"
           id="path51"
           d="m 311.71167,742.95431 v 0.0105 h -0.0105 v 0.0208 l -0.0105,0.0105 v 0.0105 h -0.0105 v 0.0208 h -0.0105 l -0.0105,0.0105 v 0.0105 h -0.0105 v 0.0105 h -0.0105 v 0.0105 h -0.0105 v 0.0105 h -0.0105 v 0.0105 h -0.0105 v 0.0105 l -0.0731,0.073 c -1.30394,1.31438 -1.63775,3.26508 -1.63775,4.85068 0,1.80465 0.39639,3.60931 1.67948,4.90282 0.13561,0.12518 0.13561,0.14604 0.13561,0.17733 0,0.0731 -0.0418,0.10433 -0.10431,0.10433 -0.10432,0 -1.04316,-0.69892 -1.65863,-2.02373 -0.532,-1.13704 -0.65718,-2.2845 -0.65718,-3.16075 0,-0.80323 0.11475,-2.05502 0.68848,-3.23379 0.6259,-1.27265 1.52301,-1.94026 1.62733,-1.94026 0.0626,0 0.10431,0.0313 0.10431,0.10431 z" /><path
           style="stroke-width:0"
           id="path53"
           d="m 317.35514,749.69309 -0.87625,2.06545 c -0.0313,0.0834 -0.0521,0.12517 -0.0521,0.13561 0,0.0626 0.17734,0.26079 0.61546,0.30251 0.10431,0.0105 0.20863,0.0208 0.20863,0.19821 0,0.12517 -0.12518,0.12517 -0.15648,0.12517 -0.42768,0 -0.87625,-0.0418 -1.31437,-0.0418 -0.26079,0 -0.90754,0.0418 -1.16833,0.0418 -0.0626,0 -0.18777,0 -0.18777,-0.20863 0,-0.11475 0.10432,-0.11475 0.23992,-0.11475 0.62589,0 0.68848,-0.10431 0.78237,-0.3338 l 1.23093,-2.88954 -2.20107,-2.35753 -0.12517,-0.11475 c -0.51115,-0.54244 -1.00143,-0.70935 -1.53344,-0.74064 -0.13561,-0.0105 -0.22949,-0.0105 -0.22949,-0.20863 0,-0.0105 0,-0.11475 0.13561,-0.11475 0.31294,0 0.65718,0.0313 0.98057,0.0313 0.38596,0 0.78236,-0.0313 1.1579,-0.0313 0.0626,0 0.18777,0 0.18777,0.20864 0,0.10431 -0.10433,0.11474 -0.12518,0.11474 -0.0939,0.0105 -0.41727,0.0313 -0.41727,0.32338 0,0.1669 0.15647,0.32338 0.28165,0.45898 l 1.06402,1.12661 0.93885,1.01186 1.05357,-2.47227 c 0.0313,-0.11475 0.0521,-0.12518 0.0521,-0.14604 0,-0.0834 -0.20864,-0.26079 -0.60503,-0.30252 -0.11475,-0.0105 -0.20863,-0.0208 -0.20863,-0.1982 0,-0.12518 0.11475,-0.12518 0.15647,-0.12518 0.29208,0 1.01186,0.0313 1.30395,0.0313 0.26078,0 0.8971,-0.0313 1.1579,-0.0313 0.073,0 0.19819,0 0.19819,0.1982 0,0.12518 -0.10431,0.12518 -0.18776,0.12518 -0.69891,0.0105 -0.71978,0.0418 -0.89712,0.44856 -0.40683,0.97013 -1.10574,2.58702 -1.33523,3.20248 0.69891,0.7302 1.79422,1.96113 2.12803,2.25321 0.30251,0.25036 0.69891,0.50072 1.32481,0.53201 0.1356,0.0105 0.22949,0.0105 0.22949,0.20863 0,0.0105 0,0.11475 -0.13561,0.11475 -0.31295,0 -0.65719,-0.0418 -0.98056,-0.0418 -0.38598,0 -0.78237,0.0418 -1.1579,0.0418 -0.0626,0 -0.19821,0 -0.19821,-0.20863 0,-0.073 0.0521,-0.10431 0.12518,-0.11475 0.0939,-0.0105 0.41727,-0.0313 0.41727,-0.32337 0,-0.14605 -0.11475,-0.28166 -0.19821,-0.37554 z" /><path
           style="stroke-width:0"
           id="path55"
           d="m 324.74067,748.02405 v 0.15647 l -0.0105,0.0834 v 0.0834 l -0.0105,0.17734 -0.0105,0.18777 -0.0208,0.18777 -0.0418,0.39639 -0.0418,0.20863 -0.0418,0.21907 -0.0418,0.20863 -0.12518,0.43813 -0.073,0.22949 -0.0834,0.21906 -0.0417,0.11475 -0.0418,0.10431 -0.0521,0.11475 -0.0521,0.10431 c -0.62589,1.27265 -1.52301,1.95071 -1.62732,1.95071 -0.0626,0 -0.10431,-0.0418 -0.10431,-0.10432 0,-0.0313 0,-0.0521 0.19819,-0.23992 1.0223,-1.0223 1.61689,-2.67048 1.61689,-4.84024 0,-1.76294 -0.38597,-3.58845 -1.67948,-4.8924 -0.1356,-0.12518 -0.1356,-0.14604 -0.1356,-0.17734 0,-0.0626 0.0418,-0.10431 0.10431,-0.10431 0.10431,0 1.04315,0.69891 1.65861,2.01328 0.53201,1.14748 0.65719,2.29495 0.65719,3.16077 z" /></g>
      <g
         id="g110"
         xml:space="preserve"
         ns0:text="ker$$(X^\\top)$$\n"
         ns0:preamble="default_packages.tex"
         stroke-miterlimit="10.433"
         fill-rule="evenodd"
         transform="matrix(1.5,0,0,-1.5,-244.04,1203.5)"><g
           id="g72"
           stroke-width="0"><path
             style="stroke-width:0"
             id="path58"
             d="m 191.52848,754.66687 v -0.0467 l -0.005,-0.0168 v -0.0126 l -0.004,-0.0126 v -0.008 l -0.004,-0.0126 -0.0173,-0.0346 -0.008,-0.005 -0.005,-0.008 -0.026,-0.0129 -0.0126,-0.004 -0.008,-0.005 h -0.0126 l -0.0126,-0.004 h -0.0126 l -0.0168,-0.005 h -0.0604 l -0.0126,-0.004 h -0.11412 v -0.12572 c 0.13829,0.005 0.33526,0.0126 0.45678,0.0126 0.12573,0 0.29335,-0.005 0.46099,-0.0126 v 0.12572 c -0.28079,0 -0.32689,0 -0.32689,0.18858 v 0.42746 l 0.26821,0.23048 c 0.3185,-0.44002 0.49451,-0.6747 0.49451,-0.75012 0,-0.0796 -0.0712,-0.0965 -0.15088,-0.0965 v -0.12572 c 0.11732,0.005 0.36459,0.0126 0.45261,0.0126 0.12149,0 0.24306,-0.005 0.36459,-0.0126 v 0.12572 c -0.15505,0 -0.24725,0 -0.4065,0.2221 l -0.53222,0.74595 c -0.004,0.008 -0.0251,0.0334 -0.0251,0.0461 0,0.0168 0.29754,0.26402 0.33945,0.29753 0.26401,0.21373 0.44003,0.22212 0.52802,0.22631 v 0.12991 c -0.12149,-0.0126 -0.176,-0.0126 -0.29334,-0.0126 -0.15088,0 -0.4107,0.008 -0.46937,0.0126 v -0.12991 c 0.0796,-0.005 0.12149,-0.0504 0.12149,-0.10488 0,-0.0838 -0.0587,-0.13408 -0.0922,-0.16343 l -0.58671,-0.50708 v 1.99906 l -0.60346,-0.0461 v -0.12992 c 0.29335,0 0.32688,-0.0294 0.32688,-0.23049 z" /><path
             style="stroke-width:0"
             id="path60"
             d="m 193.63787,755.31865 0.004,0.088 c 0.025,0.62022 0.37718,0.72499 0.51546,0.72499 0.43164,0 0.47354,-0.56156 0.47354,-0.72499 h -0.989 l -0.005,-0.088 h 1.16507 c 0.0922,0 0.10475,0 0.10475,0.088 0,0.4107 -0.22629,0.81719 -0.75015,0.81719 -0.48193,0 -0.86742,-0.43166 -0.86742,-0.95132 0,-0.55736 0.44002,-0.95967 0.91773,-0.95967 0.51128,0 0.69986,0.46098 0.69986,0.54061 0,0.042 -0.0334,0.0504 -0.0546,0.0504 -0.0378,0 -0.0461,-0.0251 -0.0545,-0.0587 -0.14667,-0.43163 -0.52383,-0.43163 -0.56574,-0.43163 -0.20534,0 -0.37298,0.12571 -0.46937,0.28077 -0.12572,0.20115 -0.12572,0.47354 -0.12572,0.62442 z" /><path
             style="stroke-width:0"
             id="path62"
             d="m 195.72355,755.74527 v 0.46098 l -0.57833,-0.0461 v -0.1299 c 0.29336,0 0.3269,-0.0294 0.3269,-0.23469 v -1.11475 c 0,-0.18858 -0.0461,-0.18858 -0.3269,-0.18858 v -0.12573 c 0.16347,0.005 0.36041,0.0126 0.47775,0.0126 0.16344,0 0.3604,0 0.52803,-0.0126 v 0.12573 h -0.088 c -0.31011,0 -0.3185,0.0461 -0.3185,0.19696 v 0.64119 c 0,0.41068 0.17602,0.78366 0.49451,0.78366 0.0294,0 0.0378,0 0.0461,-0.004 -0.0126,-0.004 -0.0965,-0.0546 -0.0965,-0.16343 0,-0.11731 0.088,-0.18019 0.18019,-0.18019 0.0755,0 0.1802,0.0502 0.1802,0.18438 0,0.13411 -0.1299,0.25564 -0.3101,0.25564 -0.30592,0 -0.45679,-0.28078 -0.51546,-0.46097 z" /><path
             style="stroke-width:0"
             id="path64"
             d="m 197.99883,753.82549 v 0.008 l -0.004,0.004 v 0.005 l -0.008,0.008 v 0.004 h -0.005 v 0.004 l -0.026,0.0259 v 0.005 h -0.004 v 0.004 h -0.005 l -0.004,0.005 v 0.004 h -0.005 l -0.004,0.005 v 0.004 l -0.005,0.004 h -0.004 c -0.52384,0.52803 -0.65794,1.31161 -0.65794,1.94869 0,0.72499 0.15925,1.45002 0.67471,1.96967 0.0545,0.0504 0.0545,0.0587 0.0545,0.0712 0,0.0294 -0.0168,0.042 -0.042,0.042 -0.0419,0 -0.41907,-0.28078 -0.6663,-0.81299 -0.20956,-0.45679 -0.25984,-0.91775 -0.25984,-1.26978 0,-0.32267 0.0461,-0.82557 0.27239,-1.29916 0.25145,-0.51127 0.61185,-0.77947 0.65375,-0.77947 0.0251,0 0.042,0.0126 0.042,0.042 z" /><path
             style="stroke-width:0"
             id="path66"
             d="m 200.04303,756.06455 -0.35203,0.82976 c -0.0126,0.0334 -0.021,0.0504 -0.021,0.0546 0,0.0251 0.0712,0.10475 0.24725,0.12149 0.0419,0.004 0.0838,0.008 0.0838,0.0796 0,0.0504 -0.0504,0.0504 -0.0628,0.0504 -0.17182,0 -0.35202,-0.0168 -0.52385,-0.0168 -0.10488,0 -0.36458,0.0168 -0.46935,0.0168 -0.0251,0 -0.0755,0 -0.0755,-0.0838 0,-0.0461 0.042,-0.0461 0.0965,-0.0461 0.25144,0 0.27658,-0.0419 0.31431,-0.13411 l 0.4903,-1.16082 -0.88003,-0.94708 -0.0546,-0.0461 c -0.20533,-0.21791 -0.4023,-0.28498 -0.61603,-0.29754 -0.0546,-0.005 -0.0922,-0.005 -0.0922,-0.0838 0,-0.004 0,-0.0461 0.0545,-0.0461 0.12571,0 0.26401,0.0126 0.39392,0.0126 0.15507,0 0.3185,-0.0126 0.46936,-0.0126 0.025,0 0.0755,0 0.0755,0.0838 0,0.042 -0.0419,0.0461 -0.0504,0.0461 -0.0377,0.004 -0.16764,0.0126 -0.16764,0.12991 0,0.0671 0.0628,0.12991 0.11317,0.18439 l 0.42326,0.45259 0.37718,0.40651 0.42325,-0.99325 c 0.0168,-0.0461 0.021,-0.0502 0.021,-0.0587 0,-0.0334 -0.0796,-0.10464 -0.24307,-0.12149 -0.0461,-0.005 -0.0839,-0.008 -0.0839,-0.0796 0,-0.0503 0.0461,-0.0503 0.0628,-0.0503 0.11732,0 0.41066,0.0126 0.52802,0.0126 0.10476,0 0.35621,-0.0126 0.46097,-0.0126 0.0294,0 0.0796,0 0.0796,0.0796 0,0.0504 -0.0419,0.0504 -0.0755,0.0504 -0.27659,0.004 -0.28497,0.0168 -0.35621,0.1802 -0.16343,0.38974 -0.44422,1.03932 -0.5406,1.2866 0.28497,0.29335 0.72082,0.78785 0.85491,0.90523 0.12149,0.10061 0.28077,0.20114 0.53221,0.21373 0.0545,0.004 0.0922,0.004 0.0922,0.0838 0,0.004 0,0.0461 -0.0545,0.0461 -0.12574,0 -0.26402,-0.0168 -0.39395,-0.0168 -0.15505,0 -0.3101,0.0168 -0.46097,0.0168 -0.0251,0 -0.0796,0 -0.0796,-0.0838 0,-0.0294 0.021,-0.042 0.0504,-0.0461 0.0377,-0.004 0.16762,-0.0126 0.16762,-0.12992 0,-0.0587 -0.0461,-0.11305 -0.0796,-0.15086 z" /><path
             style="stroke-width:0"
             id="path68"
             d="m 203.1834,757.96062 h 0.89264 c 0.0504,0 0.11732,0 0.11732,0.0671 0,0.0755 -0.0671,0.0755 -0.11732,0.0755 h -1.92771 c -0.0461,0 -0.11732,0 -0.11732,-0.0712 0,-0.0712 0.0671,-0.0712 0.11732,-0.0712 h 0.89262 v -1.76856 c 0,-0.0461 0,-0.11306 0.0712,-0.11306 0.0712,0 0.0712,0.0712 0.0712,0.11306 z" /><path
             style="stroke-width:0"
             id="path70"
             d="m 205.09726,755.74527 v 0.0334 l -0.005,0.0294 v 0.067 l -0.004,0.0712 -0.005,0.0755 -0.008,0.0755 -0.0173,0.1593 -0.0168,0.0838 -0.0168,0.088 -0.0168,0.0838 -0.0502,0.17601 -0.0294,0.0922 -0.0334,0.088 -0.0168,0.0461 -0.0168,0.042 -0.021,0.0461 -0.0209,0.0419 c -0.25144,0.51126 -0.61185,0.78366 -0.65375,0.78366 -0.0251,0 -0.0419,-0.0168 -0.0419,-0.042 0,-0.0126 0,-0.021 0.0796,-0.0965 0.41071,-0.4107 0.64958,-1.07281 0.64958,-1.94442 0,-0.70823 -0.15507,-1.44161 -0.67471,-1.9654 -0.0546,-0.0502 -0.0546,-0.0587 -0.0546,-0.0712 0,-0.025 0.0168,-0.042 0.0419,-0.042 0.042,0 0.41908,0.28077 0.66631,0.80882 0.21374,0.46097 0.26403,0.92196 0.26403,1.26977 z" /></g><g
           id="g108"
           stroke-miterlimit="10.433"
           fill-rule="evenodd"><g
             id="g92"
             xml:space="preserve"
             ns0:text="Proj$$a_X$$\n"
             ns0:preamble="default_packages.tex"
             stroke-width="5.9874"
             stroke="#000000"
             transform="matrix(0.25053,0,0,0.25053,156.44,537.23)"><g
               id="g90"
               xml:space="preserve"
               ns0:text="$$\\mathbf{I}-\\text{Proj}_X$$\n"
               ns0:preamble="default_packages.tex"
               stroke-width="0"
               stroke-miterlimit="10.433"
               stroke="#000000"
               fill-rule="evenodd"
               transform="matrix(1.4343033,0.43906025,-0.43906025,1.4343033,55.072754,-322.04337)"><g
                 id="g1011"><path
                   d="m 286.84569,705.27189 h 1.13 v 0.46 c -0.4,-0.02 -1.38,-0.02 -1.84,-0.02 -0.46,0 -1.44,0 -1.85,0.02 v -0.46 h 1.14 v -5.88 h -1.14 v -0.47 c 0.41,0.03 1.39,0.03 1.85,0.03 0.46,0 1.44,0 1.84,-0.03 v 0.47 h -1.13 z"
                   id="path74"
                   style="fill:#000000;fill-opacity:0.784091;stroke:#000000;stroke-opacity:1" /><path
                   d="m 297.09569,701.21189 h 0.17 l 0.01,0.01 h 0.03 l 0.01,0.01 h 0.03 l 0.02,0.02 h 0.01 l 0.04,0.04 v 0.01 l 0.01,0.01 v 0.01 l 0.01,0.01 v 0.05 l 0.01,0.01 v 0.01 c 0,0.2 -0.18,0.2 -0.35,0.2 h -5.4 c -0.17,0 -0.35,0 -0.35,-0.2 0,-0.19 0.18,-0.19 0.35,-0.19 z"
                   id="path76"
                   style="fill:#000000;fill-opacity:0.784091;stroke:#000000;stroke-opacity:1" /><path
                   d="m 302.74569,702.06189 -0.03,0.26 v 2.68 c 0,0.33 0.02,0.4 0.49,0.4 h 0.89 c 1.58,0 1.58,-1.06 1.58,-1.54 0,-0.47 0,-1.54 -1.58,-1.54 h -1.38 l 0.03,-0.26 h 1.69 c 1.19,0 2.27,0.8 2.27,1.8 0,0.97 -0.99,1.85 -2.35,1.85 h -3.52 v -0.31 h 0.23 c 0.77,0 0.79,-0.11 0.79,-0.47 v -5.23 c 0,-0.36 -0.02,-0.47 -0.79,-0.47 h -0.23 v -0.31 c 0.35,0.03 1.08,0.03 1.46,0.03 0.38,0 1.13,0 1.48,-0.03 v 0.31 h -0.24 c -0.77,0 -0.79,0.11 -0.79,0.47 z"
                   id="path78"
                   style="fill:#000000;fill-opacity:0.784091;stroke:#000000;stroke-opacity:1" /><path
                   d="m 308.92569,702.22189 v 1.09 l -1.38,-0.11 v -0.31 c 0.7,0 0.77,-0.07 0.77,-0.55 v -2.67 c 0,-0.44 -0.1,-0.44 -0.77,-0.44 v -0.31 c 0.39,0.01 0.85,0.03 1.13,0.03 0.4,0 0.87,0 1.27,-0.03 v 0.31 h -0.21 c -0.74,0 -0.76,0.11 -0.76,0.47 v 1.52 c 0,0.99 0.42,1.87 1.18,1.87 0.07,0 0.09,0 0.11,-0.01 -0.03,-0.01 -0.23,-0.13 -0.23,-0.38 0,-0.28 0.21,-0.43 0.43,-0.43 0.18,0 0.43,0.12 0.43,0.44 0,0.31 -0.31,0.6 -0.74,0.6 -0.73,0 -1.09,-0.66 -1.23,-1.09 z"
                   id="path80"
                   style="fill:#000000;fill-opacity:0.784091;stroke:#000000;stroke-opacity:1" /><path
                   d="m 315.86569,701.05189 -0.01,0.11 v 0.12 l -0.02,0.12 -0.04,0.22 -0.03,0.11 -0.08,0.22 -0.04,0.1 -0.1,0.2 -0.12,0.18 -0.07,0.09 -0.14,0.16 -0.16,0.16 -0.08,0.06 -0.09,0.07 -0.18,0.12 -0.1,0.05 -0.09,0.05 -0.1,0.04 -0.11,0.03 -0.1,0.04 -0.11,0.02 -0.1,0.02 -0.11,0.02 -0.11,0.01 h -0.12 l -0.01,-0.22 c 0.44,0 0.87,-0.22 1.13,-0.64 0.26,-0.43 0.26,-1.01 0.26,-1.38 0,-0.36 0,-0.9 -0.22,-1.34 -0.22,-0.44 -0.66,-0.73 -1.16,-0.73 -0.43,0 -0.87,0.21 -1.13,0.66 -0.25,0.44 -0.25,1.05 -0.25,1.41 0,0.38 0,0.92 0.24,1.36 0.27,0.45 0.73,0.66 1.13,0.66 l 0.01,0.22 c -1.24,0 -2.21,-1.08 -2.21,-2.32 0,-1.29 1.04,-2.24 2.2,-2.24 1.21,0 2.22,0.97 2.22,2.24 z"
                   id="path82"
                   style="fill:#000000;fill-opacity:0.784091;stroke:#000000;stroke-opacity:1" /><path
                   d="m 318.78569,703.31189 -1.51,-0.11 v -0.31 c 0.76,0 0.85,-0.07 0.85,-0.55 v -3.94 c 0,-0.44 -0.09,-1.3 -0.72,-1.3 -0.05,0 -0.28,0 -0.54,0.13 0.15,0.04 0.35,0.18 0.35,0.45 0,0.26 -0.18,0.46 -0.46,0.46 -0.28,0 -0.46,-0.2 -0.46,-0.46 0,-0.52 0.56,-0.8 1.13,-0.8 0.74,0 1.36,0.64 1.36,1.54 z"
                   id="path84"
                   style="fill:#000000;fill-opacity:0.784091;stroke:#000000;stroke-opacity:1" /><path
                   d="m 318.78569,705.04189 v 0.08 l -0.01,0.02 v 0.03 l -0.01,0.02 -0.01,0.03 -0.01,0.02 -0.01,0.03 -0.02,0.04 -0.02,0.02 -0.01,0.02 -0.04,0.04 -0.01,0.02 -0.02,0.02 -0.02,0.01 -0.04,0.04 -0.04,0.02 -0.03,0.01 -0.04,0.02 -0.03,0.01 -0.02,0.01 -0.03,0.01 h -0.05 l -0.03,0.01 h -0.03 c -0.28,0 -0.52,-0.24 -0.52,-0.53 0,-0.29 0.24,-0.53 0.52,-0.53 0.29,0 0.53,0.24 0.53,0.53 z"
                   id="path86"
                   style="fill:#000000;fill-opacity:0.784091;stroke:#000000;stroke-opacity:1" /><path
                   d="m 323.62569,699.14189 0.67,0.66 c 0.89,0.88 1.17,1.15 1.8,1.18 0.09,0.01 0.17,0.01 0.17,0.15 0,0.08 -0.08,0.1 -0.1,0.1 -0.2,0 -0.44,-0.02 -0.65,-0.02 -0.18,0 -0.63,0.02 -0.82,0.02 -0.05,0 -0.13,-0.02 -0.13,-0.15 0,-0.01 0,-0.09 0.1,-0.1 0.06,0 0.24,-0.02 0.24,-0.17 0,-0.1 -0.11,-0.22 -0.18,-0.28 -0.05,-0.05 -0.94,-0.92 -1.2,-1.18 l -0.71,1.36 c -0.01,0.02 -0.03,0.07 -0.03,0.1 0,0.05 0.13,0.16 0.37,0.17 0.05,0 0.15,0.01 0.15,0.16 0,0 -0.01,0.09 -0.12,0.09 -0.15,0 -0.32,-0.02 -0.47,-0.02 h -0.87 c -0.12,0.01 -0.26,0.02 -0.38,0.02 -0.03,0 -0.14,0 -0.14,-0.15 0,-0.1 0.09,-0.1 0.2,-0.1 0.41,0 0.44,-0.07 0.51,-0.2 l 0.98,-1.92 -0.39,-0.39 c -0.13,-0.13 -0.46,-0.44 -0.59,-0.57 -0.85,-0.85 -1.14,-1.14 -1.77,-1.17 -0.1,0 -0.17,0 -0.17,-0.15 0,-0.03 0.02,-0.1 0.1,-0.1 0.2,0 0.44,0.03 0.65,0.03 h 0.41 c 0.12,-0.01 0.28,-0.03 0.4,-0.03 0.03,0 0.14,0 0.14,0.15 0,0.1 -0.08,0.1 -0.12,0.1 -0.07,0.01 -0.22,0.03 -0.22,0.18 0,0.11 0.09,0.2 0.25,0.35 l 1.42,1.39 0.84,-1.65 c 0.04,-0.07 0.04,-0.08 0.04,-0.09 0,-0.04 -0.12,-0.15 -0.37,-0.18 -0.06,0 -0.15,0 -0.15,-0.15 0,0 0.01,-0.1 0.12,-0.1 0.14,0 0.32,0.03 0.47,0.03 h 0.86 c 0.12,-0.01 0.27,-0.03 0.38,-0.03 0.04,0 0.15,0 0.15,0.16 0,0.09 -0.09,0.09 -0.21,0.09 -0.4,0 -0.44,0.08 -0.5,0.2 z"
                   id="path88"
                   style="fill:#000000;fill-opacity:0.784091;stroke:#000000;stroke-opacity:1" /></g></g></g><g
             id="g106"
             stroke-width="0"><path
               style="fill:#000000;fill-opacity:0.784091;stroke:#000000;stroke-opacity:1"
               id="path94"
               d="m 221.03285,732.90332 -0.0113,0.0977 v 1.0071 c 0,0.12401 0.008,0.15032 0.18414,0.15032 h 0.33445 c 0.59375,0 0.59375,-0.39834 0.59375,-0.57872 0,-0.17662 0,-0.57871 -0.59375,-0.57871 h -0.51859 l 0.0113,-0.0977 h 0.63508 c 0.44719,0 0.85304,0.30063 0.85304,0.67642 0,0.36452 -0.37203,0.69521 -0.8831,0.69521 h -1.3228 v -0.11649 h 0.0864 c 0.28936,0 0.29687,-0.0413 0.29687,-0.17663 v -1.9654 c 0,-0.13528 -0.008,-0.17662 -0.29687,-0.17662 h -0.0864 v -0.11649 c 0.13153,0.0113 0.40585,0.0113 0.54865,0.0113 0.1428,0 0.42464,0 0.55617,-0.0113 v 0.11649 h -0.0902 c -0.28936,0 -0.29687,0.0413 -0.29687,0.17662 z" /><path
               style="fill:#000000;fill-opacity:0.784091;stroke:#000000;stroke-opacity:1"
               id="path96"
               d="m 223.35285,732.96332 v 0.40961 l -0.51859,-0.0413 v -0.11649 c 0.26305,0 0.28936,-0.0263 0.28936,-0.20669 v -1.0034 c 0,-0.16535 -0.0376,-0.16535 -0.28936,-0.16535 v -0.11649 c 0.14656,0.004 0.31942,0.0113 0.42464,0.0113 0.15032,0 0.32694,0 0.47726,-0.0113 v 0.11649 h -0.0789 c -0.27808,0 -0.2856,0.0413 -0.2856,0.17662 v 0.5712 c 0,0.37203 0.15783,0.70272 0.44343,0.70272 0.0263,0 0.0338,0 0.0413,-0.004 -0.0113,-0.004 -0.0864,-0.0489 -0.0864,-0.1428 0,-0.10522 0.0789,-0.16159 0.16159,-0.16159 0.0676,0 0.16158,0.0451 0.16158,0.16534 0,0.1165 -0.11649,0.22548 -0.27808,0.22548 -0.27432,0 -0.40961,-0.24802 -0.46222,-0.40961 z" /><path
               style="fill:#000000;fill-opacity:0.784091;stroke:#000000;stroke-opacity:1"
               id="path98"
               d="m 225.96285,732.52332 -0.004,0.0413 v 0.0451 l -0.008,0.0451 -0.016,0.0826 -0.0113,0.0413 -0.03,0.0826 -0.015,0.0376 -0.0376,0.0752 -0.045,0.0676 -0.0263,0.0338 -0.0526,0.0602 -0.0602,0.0602 -0.0301,0.0225 -0.0338,0.0263 -0.0338,0.0226 -0.0338,0.0225 -0.0376,0.0188 -0.0338,0.0188 -0.0376,0.015 -0.0413,0.0113 -0.0376,0.015 -0.0413,0.008 -0.0376,0.008 -0.0413,0.008 -0.0413,0.004 h -0.0451 l -0.004,-0.0827 c 0.16535,0 0.32694,-0.0827 0.42465,-0.2405 0.0977,-0.16159 0.0977,-0.37955 0.0977,-0.51859 0,-0.13529 0,-0.33821 -0.0827,-0.50356 -0.0827,-0.16535 -0.24802,-0.27432 -0.43592,-0.27432 -0.16159,0 -0.32693,0.0789 -0.42464,0.24802 -0.0939,0.16534 -0.0939,0.39457 -0.0939,0.52986 0,0.1428 0,0.34572 0.0902,0.51107 0.10147,0.16911 0.27433,0.24802 0.42464,0.24802 l 0.004,0.0827 c -0.46598,0 -0.83049,-0.40585 -0.83049,-0.87183 0,-0.48476 0.39082,-0.84176 0.82673,-0.84176 0.45471,0 0.83425,0.36451 0.83425,0.84176 z" /><path
               style="fill:#000000;fill-opacity:0.784091;stroke:#000000;stroke-opacity:1"
               id="path100"
               d="m 227.06285,733.37332 -0.56744,-0.0413 v -0.11649 c 0.2856,0 0.31942,-0.0263 0.31942,-0.20669 v -1.4806 c 0,-0.16535 -0.0338,-0.48853 -0.27057,-0.48853 -0.0188,0 -0.10522,0 -0.20293,0.0489 0.0564,0.015 0.13153,0.0676 0.13153,0.16911 0,0.0977 -0.0676,0.17286 -0.17286,0.17286 -0.10522,0 -0.17287,-0.0752 -0.17287,-0.17286 0,-0.19541 0.21045,-0.30063 0.42464,-0.30063 0.27809,0 0.51108,0.2405 0.51108,0.57871 z" /><path
               style="fill:#000000;fill-opacity:0.784091;stroke:#000000;stroke-opacity:1"
               id="path102"
               d="m 227.06285,734.02332 v 0.0306 l -0.004,0.008 v 0.0113 l -0.004,0.008 -0.004,0.0113 -0.004,0.008 -0.004,0.0113 -0.008,0.016 -0.008,0.008 -0.004,0.008 -0.016,0.016 -0.004,0.008 -0.008,0.008 -0.008,0.004 -0.016,0.016 -0.016,0.008 -0.0113,0.004 -0.016,0.008 -0.0113,0.004 -0.008,0.004 -0.0113,0.004 h -0.0193 l -0.0113,0.004 h -0.0113 c -0.10523,0 -0.19541,-0.0902 -0.19541,-0.19917 0,-0.10898 0.0902,-0.19917 0.19541,-0.19917 0.10897,0 0.19916,0.0902 0.19916,0.19917 z" /><path
               style="fill:#000000;fill-opacity:0.784091;stroke:#000000;stroke-opacity:1"
               id="path104"
               d="m 228.88285,731.80332 0.25178,0.24802 c 0.33446,0.33069 0.43968,0.43216 0.67642,0.44343 0.0338,0.004 0.0639,0.004 0.0639,0.0564 0,0.0301 -0.0301,0.0376 -0.0376,0.0376 -0.0752,0 -0.16535,-0.008 -0.24426,-0.008 -0.0677,0 -0.23675,0.008 -0.30815,0.008 -0.0188,0 -0.0488,-0.008 -0.0488,-0.0564 0,-0.004 0,-0.0338 0.0376,-0.0376 0.0225,0 0.0902,-0.008 0.0902,-0.0639 0,-0.0376 -0.0413,-0.0827 -0.0676,-0.10523 -0.0188,-0.0188 -0.35324,-0.34572 -0.45094,-0.44343 l -0.26681,0.51108 c -0.004,0.008 -0.0113,0.0263 -0.0113,0.0376 0,0.0188 0.0489,0.0601 0.13904,0.0639 0.0188,0 0.0564,0.004 0.0564,0.0601 0,0 -0.004,0.0338 -0.0451,0.0338 -0.0564,0 -0.12025,-0.008 -0.17662,-0.008 h -0.32694 c -0.0451,0.004 -0.0977,0.008 -0.1428,0.008 -0.0113,0 -0.0526,0 -0.0526,-0.0564 0,-0.0376 0.0338,-0.0376 0.0752,-0.0376 0.15407,0 0.16535,-0.0263 0.19165,-0.0752 l 0.36827,-0.72151 -0.14655,-0.14656 c -0.0489,-0.0489 -0.17287,-0.16535 -0.22172,-0.2142 -0.31942,-0.31942 -0.4284,-0.4284 -0.66514,-0.43967 -0.0376,0 -0.0639,0 -0.0639,-0.0564 0,-0.0113 0.008,-0.0376 0.0376,-0.0376 0.0752,0 0.16535,0.0113 0.24426,0.0113 h 0.15408 c 0.0451,-0.004 0.10522,-0.0113 0.15031,-0.0113 0.0113,0 0.0526,0 0.0526,0.0564 0,0.0376 -0.0301,0.0376 -0.0451,0.0376 -0.0263,0.004 -0.0827,0.0113 -0.0827,0.0676 0,0.0413 0.0338,0.0752 0.094,0.13153 l 0.53362,0.52234 0.31566,-0.62005 c 0.015,-0.0263 0.015,-0.0301 0.015,-0.0338 0,-0.015 -0.0451,-0.0564 -0.13905,-0.0676 -0.0225,0 -0.0564,0 -0.0564,-0.0564 0,0 0.004,-0.0376 0.0451,-0.0376 0.0526,0 0.12025,0.0113 0.17662,0.0113 h 0.32318 c 0.0451,-0.004 0.10146,-0.0113 0.1428,-0.0113 0.015,0 0.0564,0 0.0564,0.0601 0,0.0338 -0.0338,0.0338 -0.0789,0.0338 -0.15031,0 -0.16535,0.0301 -0.18789,0.0752 z" /></g></g></g>
      <path
         style="stroke-width:0.497417;stroke-miterlimit:4;stroke-dasharray:none"
         sodipodi:nodetypes="cc"
         id="path112"
         stroke-width="0.365"
         fill="none"
         d="M 39.435024,66.468276 33.415922,97.399045" />
      <path
         id="path114"
         stroke-width="0.365"
         fill="none"
         d="m 125.5755,101.647 -3.47001,44.38362"
         sodipodi:nodetypes="cc" />
      <g
         transform="matrix(0.50217951,0,0,0.55823678,53.968512,143.24418)"
         ns0:version="1.1.0"
         ns0:texconverter="pdflatex"
         ns0:pdfconverter="inkscape"
         ns0:text="$$\\mathbf{0}$$"
         ns0:preamble="C:\\Users\\User\\AppData\\Roaming\\inkscape\\extensions\\textext\\default_packages.tex"
         ns0:scale="1.0"
         ns0:alignment="middle center"
         ns0:jacobian_sqrt="0.352778"
         id="g1062">
        <defs
           id="id-713f0567-a381-44f9-9a63-6015f75a2f70">
          <g
             id="id-9d1b2a1a-d98a-46e5-8856-b05e2b0d58c9">
            <symbol
               id="id-c035354e-17b1-46a4-b3c7-e27f0443eca3"
               overflow="visible">
              <path
                 id="id-3cf3b695-2c81-44b4-b584-545008e12e1a"
                 d=""
                 style="stroke:none" />
            </symbol>
            <symbol
               id="id-8e649c40-870f-4bad-93d8-e35dd987ca83"
               overflow="visible">
              <path
                 id="id-3b89713d-4f7b-4b4f-8015-cb7d4fea33eb"
                 d="m 5.28125,-3.1875 c 0,-0.953125 -0.015625,-3.34375 -2.421875,-3.34375 -2.40625,0 -2.40625,2.375 -2.40625,3.34375 0,1 0,3.296875 2.40625,3.296875 C 5.25,0.109375 5.28125,-2.1875 5.28125,-3.1875 Z M 2.859375,-0.25 C 2.5,-0.25 1.9375,-0.46875 1.8125,-1.203125 1.71875,-1.71875 1.71875,-2.75 1.71875,-3.296875 c 0,-0.71875 0,-1.375 0.078125,-1.890625 0.125,-0.890625 0.828125,-0.984375 1.0625,-0.984375 0.375,0 0.78125,0.1875 0.96875,0.625 C 4,-5.171875 4,-4.109375 4,-3.296875 4,-2.734375 4,-1.828125 3.921875,-1.3125 3.78125,-0.390625 3.15625,-0.25 2.859375,-0.25 Z m 0,0"
                 style="stroke:none" />
            </symbol>
          </g>
        </defs>
        <g
           transform="translate(-303.213,-140.189)"
           id="id-050669c9-8186-419c-81ea-51dce2fc0e25">
          <g
             id="id-60530e6a-8b95-48a2-8e7f-71bbde2e5780"
             style="fill:#000000;fill-opacity:1">
            <g
               transform="translate(302.76,146.72)"
               id="g1058">
              <path
                 id="id-87933fe7-a93b-4916-b72c-c316c1b27d79"
                 d="m 6.2385871,-1.9405741 c 0,-1.084656 -0.017781,-3.8051865 -2.756093,-3.8051865 -2.73831178,0 -2.73831178,2.7027493 -2.73831178,3.8051865 0,1.13799969 0,3.7518428 2.73831178,3.7518428 2.7205305,0 2.756093,-2.61384311 2.756093,-3.7518428 z M 3.4824941,1.4023 C 3.0735254,1.4023 2.4334006,1.1533626 2.2911506,0.31764407 2.1844632,-0.26913701 2.1844632,-1.4426992 2.1844632,-2.0650428 c 0,-0.8179373 0,-1.5647496 0.088906,-2.1515307 0.14225,-1.013531 0.942406,-1.1202185 1.2091247,-1.1202185 0.4267499,0 0.8890623,0.213375 1.1024372,0.7112499 0.1955937,0.4267498 0.1955937,1.6358745 0.1955937,2.5604993 0,0.6401248 0,1.67143709 -0.088906,2.25821815 C 4.5315876,1.2422688 3.8203378,1.4023 3.4824941,1.4023 Z m 0,0"
                 style="stroke:none;stroke-width:1.138" />
            </g>
          </g>
        </g>
      </g>
    </g>
    <path
       sodipodi:nodetypes="ccc"
       id="path979"
       d="m 51.418129,165.20728 6.143537,22.67404 1.319804,-25.19448"
       style="fill:none;stroke:#000000;stroke-width:0.396875;stroke-linecap:butt;stroke-linejoin:miter;stroke-miterlimit:4;stroke-dasharray:none;stroke-opacity:0.632576" />
    <path
       sodipodi:nodetypes="ccc"
       id="path983"
       d="m 54.472001,121.321 5.689512,20.73661 -1.280043,20.62923"
       style="fill:none;fill-opacity:0.0871212;stroke:#000000;stroke-width:0.423333;stroke-linecap:butt;stroke-linejoin:miter;stroke-miterlimit:4;stroke-dasharray:none;stroke-opacity:0.352273" />
    <path
       sodipodi:nodetypes="cc"
       id="path985"
       d="m 51.264341,164.61402 6.205973,23.35865"
       style="fill:none;stroke:#000000;stroke-width:0.508272;stroke-linecap:butt;stroke-linejoin:miter;stroke-miterlimit:4;stroke-dasharray:none;stroke-opacity:1" />
  </g>
  <path
     sodipodi:nodetypes="ccccc"
     id="path1087"
     d="m 24.904905,71.302773 1.342996,4.782058 4.637529,-1.331994 -1.417414,-4.754158 z"
     style="fill:#000000;fill-opacity:0.481061;stroke:#000000;stroke-width:0.264583px;stroke-linecap:butt;stroke-linejoin:miter;stroke-opacity:0.54166669" />
</svg>
