<?xml version="1.0" encoding="UTF-8"?>
<svg width="141.43mm" height="116.27mm" version="1.1" viewBox="0 0 141.43 116.27" xmlns="http://www.w3.org/2000/svg" xmlns:cc="http://creativecommons.org/ns#" xmlns:dc="http://purl.org/dc/elements/1.1/" xmlns:ns0="http://www.iki.fi/pav/software/textext/" xmlns:rdf="http://www.w3.org/1999/02/22-rdf-syntax-ns#">
 <metadata>
  <rdf:RDF>
   <cc:Work rdf:about="">
    <dc:format>image/svg+xml</dc:format>
    <dc:type rdf:resource="http://purl.org/dc/dcmitype/StillImage"/>
    <dc:title/>
   </cc:Work>
  </rdf:RDF>
 </metadata>
 <defs>
  <marker id="marker1358" overflow="visible" orient="auto">
   <path transform="scale(.4) rotate(180) translate(10)" d="m0 0 5-5-17.5 5 17.5 5-5-5z" fill="#00f" fill-opacity=".68182" fill-rule="evenodd" stroke="#0022cf" stroke-opacity=".71212" stroke-width="1pt"/>
  </marker>
  <marker id="g" overflow="visible" orient="auto">
   <path transform="matrix(-.4 0 0 -.4 -4 0)" d="m0 0 5-5-17.5 5 17.5 5z" fill-opacity=".34783" fill-rule="evenodd" stroke="#000" stroke-opacity=".34783" stroke-width="1pt"/>
  </marker>
  <marker id="Arrow1Mend" overflow="visible" orient="auto">
   <path transform="matrix(-.4 0 0 -.4 -4 0)" d="m0 0 5-5-17.5 5 17.5 5z" fill-opacity=".34783" fill-rule="evenodd" stroke="#000" stroke-opacity=".34783" stroke-width="1pt"/>
  </marker>
  <marker id="a" overflow="visible" orient="auto">
   <path transform="matrix(-.4 0 0 -.4 -4 0)" d="m0 0 5-5-17.5 5 17.5 5z" fill-opacity=".34783" fill-rule="evenodd" stroke="#000" stroke-opacity=".34783" stroke-width="1pt"/>
  </marker>
  <marker id="b" overflow="visible" orient="auto">
   <path transform="matrix(-.4 0 0 -.4 -4 0)" d="m0 0 5-5-17.5 5 17.5 5z" fill="#fe0000" fill-opacity=".71981" fill-rule="evenodd" stroke="#fe0000" stroke-opacity=".71981" stroke-width="1pt"/>
  </marker>
  <marker id="c" overflow="visible" orient="auto">
   <path transform="matrix(-.4 0 0 -.4 -4 0)" d="m0 0 5-5-17.5 5 17.5 5z" fill-rule="evenodd" stroke="#000" stroke-width="1pt"/>
  </marker>
  <marker id="d" overflow="visible" orient="auto">
   <path transform="matrix(-.4 0 0 -.4 -4 0)" d="m0 0 5-5-17.5 5 17.5 5z" fill="#00f" fill-opacity=".52174" fill-rule="evenodd" stroke="#00f" stroke-opacity=".52174" stroke-width="1pt"/>
  </marker>
  <marker id="f" overflow="visible" orient="auto">
   <path transform="matrix(-.4 0 0 -.4 -4 0)" d="m0 0 5-5-17.5 5 17.5 5z" fill-rule="evenodd" stroke="#000" stroke-width="1pt"/>
  </marker>
  <marker id="h" overflow="visible" orient="auto">
   <path transform="matrix(-.4 0 0 -.4 -4 0)" d="m0 0 5-5-17.5 5 17.5 5z" fill="#ff27ff" fill-opacity=".54106" fill-rule="evenodd" stroke="#ff27ff" stroke-opacity=".54106" stroke-width="1pt"/>
  </marker>
 </defs>
 <g transform="translate(-32.377 -47.605)">
  <path d="m112.47 57.329-26.934 67.541 27.203-17.328z" fill-opacity=".091787"/>
  <g fill="none">
   <path d="m63.477 115.12 48.244-57.791" marker-end="url(#f)" stroke="#000" stroke-width=".58544"/>
   <path d="m63.478 115.13 48.259-7.4831" marker-end="url(#c)" stroke="#000" stroke-width=".62202"/>
   <path d="m112.74 107.54-0.26854-49.787" fill="#009500" marker-end="url(#d)" stroke="#009800" stroke-opacity=".8447" stroke-width=".663"/>
   <path d="m63.502 115.24 20.605 8.992" marker-end="url(#h)" stroke="#ff27ff" stroke-opacity=".54106" stroke-width=".79"/>
  </g>
  <g fill-rule="evenodd" stroke="#000" stroke-miterlimit="10.433" stroke-width="0">
   <g id="content" transform="matrix(2.2183 0 0 -2.2183 -243.42 1727.9)" fill="#f0f" fill-opacity=".82955" ns0:preamble="default_packages.tex" ns0:text="$\\bar{y} \\boldsymbol{1}$\n" xml:space="preserve"><polygon transform="matrix(.24279 0 0 .24279 103.54 551.41)" points="150.08 712.68 153.68 712.68 153.68 712.99 150.08 712.99"/><path d="m140.82 724.02v6e-3h3e-3v0.011l3e-3 3e-3v6e-3l3e-3 3e-3v0.015l3e-3 3e-3v0.021c0 0.0437-0.034 0.0655-0.0704 0.0655-0.0243 0-0.0631-0.0146-0.0849-0.0509-5e-3 -0.0121-0.0243-0.0874-0.034-0.13111-0.017-0.0631-0.034-0.12625-0.0486-0.1918l-0.10925-0.4346c-0.01-0.0364-0.11411-0.20636-0.27435-0.20636-0.1214 0-0.1481 0.10682-0.1481 0.19665 0 0.11169 0.0412 0.25979 0.12382 0.47344 0.0388 0.0971 0.0462 0.12383 0.0462 0.17238 0 0.10926-0.0753 0.1991-0.19667 0.1991-0.23065 0-0.32048-0.34962-0.32048-0.37148 0-0.0243 0.0243-0.0243 0.0291-0.0243 0.0243 0 0.0267 5e-3 0.0388 0.0437 0.0655 0.22579 0.16267 0.29863 0.24522 0.29863 0.0194 0 0.0607 0 0.0607-0.0777 0-0.0607-0.0243-0.12381-0.0412-0.16995-0.0971-0.25492-0.14081-0.39332-0.14081-0.505 0-0.21609 0.15295-0.28649 0.2962-0.28649 0.0947 0 0.17481 0.0389 0.24279 0.10683-0.0315-0.12382-0.0607-0.24279-0.15539-0.37147-0.0655-0.0826-0.15538-0.15053-0.26707-0.15053-0.034 0-0.14324 7e-3 -0.18452 0.0995 0.0388 0 0.0705 0 0.1044 0.0291 0.0243 0.0219 0.0486 0.0534 0.0486 0.0995 0 0.0752-0.0655 0.0849-0.0898 0.0849-0.0558 0-0.13597-0.0389-0.13597-0.15781 0-0.11897 0.10683-0.2088 0.25736-0.2088 0.24764 0 0.49772 0.2185 0.5657 0.49043z"/><path d="m141.99 724.44v0.044l-3e-3 5e-3v6e-3l-3e-3 3e-3v3e-3l-3e-3 3e-3v3e-3l-0.012 0.012h-3e-3l-3e-3 3e-3h-6e-3v3e-3h-0.012l-3e-3 3e-3h-0.027c-0.0268 0-0.0316 0-0.0534-0.0169-0.18695-0.13597-0.43702-0.13597-0.48801-0.13597h-0.0486v-0.11411h0.0486c0.0389 0 0.17239 3e-3 0.31563 0.0486v-1.2479h-0.33748v-0.11169c0.10683 7e-3 0.36418 7e-3 0.48315 7e-3 0.11654 0 0.3739 0 0.48073-7e-3v0.11169h-0.33991z"/></g>
   <g transform="matrix(1.6623 .17724 .065796 -1.6261 -240.03 1263.5)" ns0:preamble="default_packages.tex" ns0:text="$\\text{Observed} \\mathbf{y}$\n" xml:space="preserve"><path d="m162.73 739.12-0.0445 0.0306-0.0481 0.0254-0.0457 0.0237-0.0938 0.0442-0.0479 0.0157-0.0479 0.0156-0.0496 0.0132-0.0488 9e-3 -0.0465 8e-3 -0.0504 7e-3 -0.0473 7e-4 -0.0497 3e-3 -0.0468-2e-3 -0.0481-4e-3 -0.0482-4e-3 -0.0458-6e-3 -0.045-0.0112-0.0466-0.0131-0.0442-0.0148-0.0459-0.0171-0.0397-0.0178-0.0429-0.0222-0.0389-0.0216-0.0405-0.0239-0.0398-0.0279-0.0351-0.031-0.0702-0.0624-0.0304-0.0343-0.059-0.0768 0.0587-0.0402c0.14017 0.2039 0.53615 0.42571 1.1322 0.0176 0.61723-0.42258 0.59427-0.87906 0.44645-1.095-0.15411-0.2254-0.57446-0.39604-1.1823 0.0201-0.60548 0.41454-0.52976 0.86248-0.39639 1.0573l-0.0589 0.0404c-0.28608-0.41769-0.15866-1.0323 0.32244-1.3616 0.47636-0.32625 1.0876-0.21379 1.372 0.20164 0.29265 0.42697 0.16262 1.033-0.30677 1.3544z"/><path d="m163.01 739.72-0.73926 0.5061-0.20558-0.35559 0.0727-0.0501c0.11231 0.16441 0.14176 0.17181 0.25439 0.0948l1.3894-0.95114 0.0402 0.0587c-6.7e-4 4e-3 -0.0185 0.0435-0.0853 0.18253 0.0782-2e-3 0.26056 0.0177 0.37783 0.18942l-0.0556 0.0243c-0.0721-0.10572-0.1849-0.14916-0.31028-0.14603-0.0718 5e-4 -0.0789 6e-3 -0.12104 0.0346l-0.47867 0.32789c-0.0445 0.0307-0.0469 0.0323-0.0668 0.0836-0.0687 0.18151-7.6e-4 0.3211 0.0377 0.37739 0.0721 0.10572 0.19116 0.14834 0.3189 0.14367 0.13795-5e-3 0.27421-0.0878 0.37046-0.15366 0.0865-0.0598 0.222-0.15907 0.28111-0.29928 0.0391-0.0991 0.0553-0.24131-0.0313-0.36802l0.0556-0.0243c0.191 0.27941 0.13063 0.6792-0.16976 0.88484-0.29568 0.20248-0.68549 0.13152-0.86865-0.13601-0.12542-0.18298-0.0825-0.35713-0.0659-0.42361z"/><path d="m164.39 740.81 3e-3 4e-3 7e-3 5e-3 5e-3 7e-3 0.014 0.01 0.018 0.014 7e-3 5e-3 0.0106 0.01 9e-3 7e-3 0.0228 0.012 0.0106 0.01 0.0138 5e-3 0.0132 9e-3 0.0114 6e-3 0.0138 5e-3 0.0149 8e-3 0.0139 5e-3 0.0138 5e-3 0.0117 3e-3 0.0157 4e-3 0.0145 4.8e-4 0.0158 3e-3 0.0151-3e-3 8e-3 1e-3 8e-3 -3e-3 6e-3 -7.1e-4 8e-3 -3e-3 6e-3 -7.1e-4 0.016-6e-3 6e-3 -7.1e-4 7e-3 -5e-3 8e-3 -3e-3 7e-3 -5e-3 9e-3 -7e-3 8e-3 -3e-3 7e-3 -5e-3c0.11967-0.082 0.15733-0.22835 0.032-0.41141-0.13525-0.19693-0.32658-0.19005-0.55657-0.0982-0.0329 0.0123-0.044 0.0164-0.0583-5e-3 -0.0225-0.0328-6e-3 -0.044 0.0337-0.0716l0.30963-0.21231c0.0375-0.0257 0.0538-0.0372 0.0716-0.0111 0.01 0.014 7e-3 0.0156-4e-3 0.0891-1e-3 8e-3 -6e-3 0.0114-0.0216 0.0839 0.16699 0.037 0.24157 0.14138 0.27533 0.19067 0.18444 0.27014 0.10377 0.4839-0.0652 0.59957-0.12201 0.0837-0.24067 0.0613-0.28809 0.0525-0.12815-0.0262-0.20956-0.10464-0.29582-0.19042-0.11575-0.11375-0.2516-0.25171-0.38772-0.1585-0.082 0.0566-0.13659 0.18313 2e-3 0.38496 0.17625 0.25851 0.39599 0.12533 0.4719 0.0805 0.0226-0.0122 0.0371 0.01 0.0403 0.0141 0.0209 0.0305 7e-3 0.0402-0.0355 0.0691l-0.23702 0.16231c-0.04 0.0274-0.0562 0.0388-0.074 0.0127-8e-3 -0.0117-0.0112-0.0165-4e-3 -0.0662 5e-3 -0.0138 0.01-0.0514 0.0102-0.0656-0.12674-0.0442-0.19267-0.1404-0.21677-0.1756-0.19591-0.28639-0.0998-0.48315 0.032-0.5731 0.0796-0.055 0.17281-0.0598 0.26622-0.0341 0.11242 0.0334 0.17151 0.0894 0.32004 0.23589z"/><path d="m164.77 741.56-0.0477 0.0361c-0.33767 0.25192-0.26142 0.48918-0.20679 0.56899 0.16559 0.24166 0.49603 0.0499 0.58757-0.0128l-0.38118-0.55592 0.0477-0.0361 0.44668 0.65242c0.0355 0.0515 0.0402 0.0587-0.01 0.0923-0.23003 0.15739-0.5444 0.18658-0.74363-0.10438-0.18609-0.27246-0.0909-0.6513 0.20016-0.85054 0.31195-0.21395 0.70454-0.12385 0.88924 0.14647 0.19592 0.28639 9e-3 0.56633-0.0361 0.59684-0.0235 0.0162-0.0409 1e-5 -0.049-0.0114-0.0144-0.0211-4e-3 -0.0355 0.0126-0.053 0.18709-0.2453 0.0425-0.4565 0.0264-0.47997-0.0803-0.11733-0.21498-0.16303-0.33879-0.15756-0.16084 7e-3 -0.31338 0.11119-0.3979 0.16898z"/><path d="m165.34 742.89-0.2585 0.17625-0.19755-0.34388 0.0726-0.05c0.11231 0.16439 0.14177 0.17179 0.25676 0.093l0.62425-0.42741c0.10572-0.0721 0.088-0.098-0.0198-0.25538l0.0702-0.0483c0.0606 0.0929 0.13111 0.20668 0.17611 0.27237 0.0647 0.0935 0.14019 0.20391 0.21072 0.2935l-0.0702 0.0483-0.0339-0.0492c-0.11887-0.1737-0.14789-0.16072-0.23241-0.10285l-0.35902 0.24593c-0.23004 0.15738-0.37138 0.39901-0.25087 0.57501 0.0112 0.0165 0.0144 0.0211 0.0196 0.0244-3e-3 -8e-3 -4e-3 -0.0726 0.0561-0.11431 0.0656-0.0451 0.13307-0.0221 0.1684 0.0295 0.029 0.0423 0.041 0.12019-0.0337 0.17169-0.075 0.0516-0.19297 0.0252-0.26208-0.0756-0.11557-0.16905-0.0163-0.36112 0.0625-0.46301z"/><path d="m166.36 744.39-3e-3 6e-3 -5e-3 7e-3 -3e-3 6e-3 -5e-3 7e-3 -3e-3 6e-3 -4e-3 0.0101-3e-3 6e-3 -5e-3 7e-3 -3e-3 0.0101-5e-3 7e-3 -1e-3 8e-3 -8e-3 0.0202-3e-3 0.0101-1e-3 8e-3 -3e-3 0.0117 1.7e-4 0.0108-3e-3 0.0101-7.1e-4 0.01 1e-3 0.0128-3e-3 0.0117-7.3e-4 0.0101 1e-3 0.0128 4e-3 0.0111 1e-3 0.0128 5e-3 0.0134 3e-3 0.0152 0.01 0.0268 5e-3 7e-3 3e-3 4e-3 5e-3 7e-3 3e-3 8e-3 0.01 0.014-0.0726 0.05c-0.0319-0.0573-0.0765-0.12686-0.11341-0.18088-0.0388-0.0562-0.11561-0.15869-0.14514-0.19706l0.0726-0.05c0.0598 0.0831 0.13186 0.0718 0.17643 0.0412 0.0211-0.0144 0.0273-0.0254 0.0467-0.0526l0.43148-0.64351-0.83004 0.18221c-0.0402 7e-3 -0.0449 0.01-0.0496 0.0131-0.061 0.0419 2e-3 0.13332 0.0306 0.17554l-0.0726 0.05c-0.046-0.0719-0.13111-0.20667-0.16808-0.26062-0.0435-0.0633-0.10981-0.15576-0.16154-0.2203l0.0727-0.05c0.0992 0.14581 0.12018 0.14521 0.21376 0.12592l1.0598-0.22921c0.0402-7e-3 0.0551-0.0101 0.076 0.0202 0.0209 0.0305 9e-3 0.0529-9e-3 0.0782z"/><path d="m166.91 744.69-0.0476 0.036c-0.33767 0.25192-0.26141 0.48918-0.20679 0.56898 0.16559 0.24166 0.49444 0.0476 0.58598-0.0152l-0.37954-0.5536 0.0476-0.036 0.44667 0.65241c0.0355 0.0515 0.0402 0.0587-0.01 0.0924-0.23004 0.15738-0.54441 0.18657-0.74363-0.10448-0.18609-0.27245-0.0924-0.65364 0.19854-0.85287 0.31196-0.21394 0.70615-0.12151 0.89084 0.14878 0.19428 0.28407 8e-3 0.56632-0.0361 0.59683-0.0235 0.0162-0.0409 0-0.049-0.0114-0.0144-0.0211-4e-3 -0.0355 0.0126-0.053 0.18551-0.24763 0.0425-0.45651 0.0264-0.47998-0.0803-0.11733-0.21499-0.16302-0.33879-0.15756-0.16084 7e-3 -0.31338 0.11118-0.3979 0.16897z"/><path d="m168.47 746.07 0.15278-0.10412 0.21042 0.36263-0.0702 0.0483c-0.11231-0.1644-0.14176-0.17179-0.25674-0.093l-1.4152 0.96883-0.20559-0.35559 0.0727-0.05c0.1123 0.1644 0.14175 0.17181 0.2544 0.0947l0.50481-0.34511c-0.13105-0.0104-0.26119-0.0694-0.34635-0.19375l0.0563-0.0286c0.0566 0.082 0.15893 0.1566 0.31434 0.15706 0.0575-1e-3 0.0622-5e-3 0.10446-0.0337l0.47634-0.32627c0.0423-0.029 0.0468-0.0323 0.0692-0.0852 0.0645-0.14752 0.0437-0.2885-0.0253-0.3894-0.0705-0.10346-0.18952-0.14601-0.31729-0.14126-0.13804 5e-3 -0.27428 0.0877-0.37047 0.15364-0.0865 0.0598-0.222 0.15908-0.28112 0.2993-0.0391 0.0991-0.0553 0.24128 0.0298 0.36568l-0.0563 0.0287c-0.18936-0.27708-0.1283-0.6808 0.17217-0.88645 0.2957-0.20248 0.68317-0.12991 0.86632 0.1376 0.10083 0.14813 0.0961 0.30651 0.0612 0.41659z"/><path d="m169.25 749.24-5e-3 0.0128-4e-3 8e-3 -8.6e-4 5e-3 -3e-3 3e-3 -8.4e-4 5e-3 -8.7e-4 5e-3 -8.5e-4 5e-3 -8.7e-4 5e-3 -8.4e-4 5e-3 -8.6e-4 5e-3 -8.7e-4 5e-3 4e-3 5e-3 -8.6e-4 5e-3 8.8e-4 8e-3 4e-3 5e-3 8.8e-4 8e-3 4e-3 5e-3 4e-3 0.0101 4e-3 5e-3 9e-4 8e-3 3e-3 3e-3 4e-3 5e-3 3e-3 3e-3 4e-3 5e-3 8.9e-4 8e-3 4e-3 5e-3 3e-3 3e-3 0.012 0.015 6e-3 9e-3 4e-3 5e-3 8.8e-4 8e-3 4e-3 5e-3 6e-3 9e-3 4e-3 5e-3 0.012 0.018 4e-3 5e-3 0.012 0.018-0.13886 0.0949c-0.0423-0.0752-0.10029-0.16555-0.14878-0.23644-0.0506-0.0739-0.14756-0.20263-0.19296-0.26262l0.13885-0.0949c4e-3 5e-3 0.0949 0.13887 0.13042 0.11465 3e-3 -3e-3 0.0243-0.034 0.0252-0.0391l0.48809-0.83297-1.0483 0.16679 0.10935 0.15935-0.13886 0.0949c-0.0609-0.10168-0.23988-0.3693-0.23988-0.3693-0.0567-0.0827-0.15375-0.21138-0.2394-0.33059l0.13887-0.0949 0.12895 0.18932 1.5397-0.2473 0.0953-0.16498c0.0974-0.16198 0.23046-0.39198 0.0888-0.59874-0.0283-0.0413-0.0351-0.0454-0.0603-0.0628 8e-3 0.0346 0.0145 0.12882-0.0888 0.1996-0.0971 0.067-0.21682 0.0443-0.28566-0.0557-0.0567-0.0827-0.0591-0.20675 0.0558-0.28566 0.14765-0.10105 0.36378-0.0453 0.48508 0.13203 0.1537 0.22441 0.0909 0.51908-0.0235 0.71402z"/></g>
   <g transform="matrix(2.8542 .040508 .040508 -2.8542 -375.16 2184.1)" ns0:preamble="default_packages.tex" ns0:text="$\\text{Fitted} \\hat{\\mathbf{y}}$\n" xml:space="preserve"><path d="m151.2 729.85-0.80368-0.15498 9e-3 -0.0454 0.0352 8e-3c0.11292 0.0218 0.11896 7e-3 0.12915-0.0466l0.14705-0.7626c0.0102-0.0529 0.0104-0.0695-0.10256-0.0913l-0.0352-8e-3 9e-3 -0.044c0.0504 0.0143 0.16485 0.0364 0.22203 0.0475 0.0601 0.0116 0.19213 0.037 0.24579 0.0427l-8e-3 0.044-0.0484-0.01c-0.13787-0.0266-0.14154-8e-3 -0.15143 0.0438l-0.069 0.35784 0.12466 0.024c0.1408 0.0272 0.16423-0.0154 0.18826-0.14013l0.0368 8e-3 -0.0744 0.3857-0.0368-8e-3c0.0236-0.12172 0.0181-0.17295-0.12265-0.2001l-0.12466-0.024-0.071 0.3681c-9e-3 0.0484-9e-3 0.0592 0.0591 0.0723l0.17598 0.0339c0.21999 0.0424 0.2722-0.0312 0.33442-0.22757l0.0352 8e-3z"/><path d="m151.62 729.58-0.20074-0.0554 9e-3 -0.0454c0.0939 0.018 0.10875 0.0119 0.12262-0.0601l0.0755-0.39157c0.0127-0.066-4e-3 -0.0691-0.10167-0.088l9e-3 -0.044c0.0467 0.0105 0.12524 0.0289 0.16044 0.0355 0.0514 0.01 0.10323 0.0168 0.15338 0.025l-9e-3 0.044c-0.0968-0.0187-0.10406-0.0124-0.11509 0.0447z"/><path d="m151.58 729.83-4e-3 0.01-3e-3 4e-3 -2e-3 5e-3 -3e-3 3e-3 -2e-3 5e-3 -3e-3 4e-3 -0.016 0.016-4e-3 3e-3 -3e-3 3e-3 -8e-3 6e-3 -3e-3 2e-3 -4e-3 3e-3 -3e-3 2e-3 -4e-3 3e-3 -9e-3 6e-3 -5e-3 5e-4 -3e-3 2e-3 -5e-3 5.1e-4 -3e-3 2e-3 -5e-3 -2e-3 -3e-3 2e-3 -5e-3 -2e-3 -3e-3 -5.1e-4 -5e-3 -2e-3c-0.0454-9e-3 -0.0701-0.0546-0.0628-0.0928 8e-3 -0.0382 0.047-0.07 0.0924-0.0613 0.0411 9e-3 0.0718 0.0458 0.0631 0.0912z"/><path d="m152.04 729.59 0.20826 0.0402-9e-3 0.0454-0.20824-0.0402-0.0516 0.2669-0.0367-8e-3c0.0214-0.11909 8e-3 -0.28302-0.13516-0.31659l7e-3 -0.0322 0.12465 0.0241 0.0775-0.40184c0.0346-0.17891 0.17428-0.17021 0.22708-0.16004 0.10266 0.0197 0.12393 0.13038 0.10583 0.22424l-0.0159 0.0821-0.0367-8e-3 0.0153-0.0792c0.0209-0.10853-0.0122-0.17274-0.065-0.18292-0.0983-0.0191-0.124 0.1145-0.1288 0.13944z"/><path d="m152.6 729.7 0.20971 0.0404-9e-3 0.0454-0.20972-0.0404-0.0515 0.2669-0.0367-8e-3c0.0214-0.11907 8e-3 -0.283-0.13371-0.3163l7e-3 -0.0322 0.12465 0.024 0.0775-0.40182c0.0345-0.17891 0.17282-0.17051 0.22561-0.16031 0.10411 0.0201 0.12539 0.13065 0.10729 0.22451l-0.0159 0.0821-0.0367-8e-3 0.0153-0.0792c0.0209-0.10851-0.0122-0.17274-0.0666-0.18319-0.0983-0.019-0.124 0.1145-0.1288 0.13944z"/><path d="m153.13 729.55-5e-3 0.0311c-0.0331 0.21876 0.083 0.27917 0.13292 0.28878 0.14958 0.0289 0.20215-0.16484 0.21319-0.22203l-0.34611-0.0668 5e-3 -0.0311 0.4077 0.0786c0.0322 7e-3 0.0367 8e-3 0.0307 0.0379-0.0276 0.14372-0.13434 0.2707-0.31619 0.23564-0.17011-0.0328-0.2759-0.20987-0.24084-0.39173 0.0376-0.19505 0.21875-0.30614 0.3874-0.27362 0.17745 0.0342 0.21234 0.20826 0.20697 0.23613-3e-3 0.0147-0.0152 0.0154-0.0224 0.014-0.0132-3e-3 -0.0144-0.012-0.0152-0.0242-0.0222-0.16096-0.15273-0.18613-0.16885-0.18924-0.0718-0.0139-0.13902 0.0188-0.1832 0.0665-0.0575 0.0618-0.076 0.15725-0.0862 0.21003z"/><path d="m154.22 729.49 0.0184-0.0953 0.211 0.0574-9e-3 0.044c-0.10119-0.0195-0.11489-0.0116-0.12876 0.0604l-0.17052 0.88433-0.2081-0.0568 9e-3 -0.0454c0.10266 0.0198 0.11637 0.0119 0.12994-0.0586l0.0609-0.3153c-0.0527 0.0446-0.12313 0.0705-0.20232 0.0553l0.0122-0.0312c0.0514 0.01 0.11716-2.4e-4 0.17533-0.0574 0.0209-0.0219 0.0215-0.0248 0.0267-0.0511l0.0574-0.29771c6e-3 -0.0264 7e-3 -0.0293-7e-3 -0.0573-0.0304-0.0789-0.0902-0.12386-0.15325-0.13602-0.0661-0.0127-0.12615 0.0153-0.17062 0.0645-0.0498 0.0528-0.07 0.13406-0.0815 0.19419-0.0105 0.0543-0.0241 0.14136 4e-3 0.21525 0.0236 0.0517 0.0684 0.11056 0.14763 0.12583l-0.0121 0.0311c-0.17159-0.033-0.29786-0.2065-0.26166-0.39423 0.0356-0.18478 0.20708-0.30078 0.37279-0.26882 0.0939 0.018 0.15051 0.0792 0.17813 0.13322z"/><polygon transform="matrix(.16564 .031941 -.031941 .16564 148.62 606.96)" points="177.46 712.81 177.64 712.63 178.8 713.64 179.95 712.63 180.13 712.81 178.8 714.16"/><path d="m155.85 730.47 5.8e-4 5e-3 3e-3 4e-3 -3.3e-4 2e-3 6e-3 9e-3 -3.2e-4 2e-3 2e-3 3e-3 3e-3 3e-3 4e-3 6e-3 2e-3 3.2e-4 6e-3 6e-3 3e-3 5.7e-4 3e-3 3e-3 3e-3 5.7e-4 3e-3 3e-3 5e-3 2e-3 2e-3 3e-3 3e-3 5.7e-4 2e-3 3.2e-4 3e-3 5.8e-4 3e-3 5.7e-4 2e-3 3e-3 6e-3 0.00114 3e-3 5.8e-4 3e-3 5.7e-4 3e-3 5.6e-4 3e-3 5.8e-4 3e-3 5.7e-4 4e-3 3e-3 3e-3 5.7e-4 5e-3 2e-3 3e-3 5.7e-4 5e-3 2e-3 3e-3 5.7e-4 0.015 6e-3 -0.015 0.0779c-0.0391-0.011-0.0885-0.0223-0.12988-0.0303-0.0415-8e-3 -0.1166-0.019-0.15171-0.024l0.0151-0.0778c3e-3 5.6e-4 0.0779 0.015 0.0817-5e-3 3.2e-4 -2e-3 -3e-3 -0.0195-4e-3 -0.0214l-0.11088-0.44058-0.29596 0.40336 0.0894 0.0172-0.015 0.0779c-0.054-0.0139-0.20277-0.0444-0.20442-0.0447-0.0464-9e-3 -0.12157-0.0199-0.18981-0.0313l0.015-0.0779 0.10603 0.0204 0.43558-0.59289-0.0228-0.0869c-0.0211-0.0865-0.0528-0.20773-0.17033-0.23042-0.0232-4e-3 -0.0268-3e-3 -0.041-2e-3 0.0136 0.01 0.0476 0.0385 0.0364 0.0964-0.0105 0.0546-0.058 0.0868-0.11428 0.0759-0.0464-9e-3 -0.0883-0.0497-0.0758-0.11428 0.016-0.0828 0.10692-0.13571 0.2063-0.11656 0.12755 0.0246 0.20413 0.14416 0.23065 0.2472z"/></g>
   <g transform="matrix(.40748 0 0 -.40748 81.417 360.88)" ns0:preamble="default_packages.tex" ns0:text="$\\mathcal{C}(X)$\n" xml:space="preserve"><path d="m150.2 706.08v0.0279l-0.0139 0.0139v0.014l-0.014 0.014v0.0139h-0.028v0.014h-0.084c-0.23846 0-0.57509-0.2104-0.58912-0.2104-0.28053-0.16832-0.33664-0.2665-0.50496-0.50495-0.43482-0.65925-1.052-1.1362-1.9637-1.1362-1.2484 0-2.3845 0.91172-2.3845 3.0017 0 1.2484 0.50496 2.9175 1.2484 4.0116 0.61716 0.8977 1.3606 1.613 2.8053 1.613 0.53301 0 0.86964-0.19636 0.86964-0.70132 0-0.49093-0.51898-1.4868-0.6873-1.7674-0.0842-0.15429-0.0842-0.16831-0.0842-0.21039 0-0.0982 0.0702-0.0982 0.15429-0.0982 0.28053 0 0.79951 0.30858 0.96783 0.53301 0.028 0.0561 0.84159 1.4307 0.84159 2.132 0 0.77145-0.6312 0.88366-1.1361 0.88366-2.0338 0-3.689-1.3325-4.3342-2.104-1.6692-2.0058-1.8375-4.1659-1.8375-4.8953 0-2.0338 1.038-3.156 2.665-3.156 2.2442 0 4.1098 2.1741 4.1098 2.5108z"/><path d="m156.06 700.55v0.0419h-0.014v0.0279h-0.014v0.014h-0.0139v0.014l-0.014 0.014v0.014h-0.014v0.0139h-0.014v0.014h-0.014v0.0139h-0.014v0.014h-0.014v0.0139h-0.014v0.014l-0.014 0.0139-0.0139 0.014-0.014 0.014-0.014 0.0139-0.042 0.042c-1.7533 1.7533-2.2022 4.3903-2.2022 6.5223 0 2.4266 0.53301 4.8532 2.2583 6.5924 0.18234 0.16833 0.18234 0.19638 0.18234 0.23845 0 0.0982-0.056 0.14027-0.14026 0.14027-0.14026 0-1.4026-0.9538-2.2302-2.7212-0.70132-1.5289-0.86964-3.0858-0.86964-4.25 0-1.0941 0.1543-2.7772 0.91172-4.3482 0.8416-1.7112 2.0479-2.623 2.1881-2.623 0.0842 0 0.14026 0.0421 0.14026 0.14027z"/><path d="m163.65 709.63-1.1782 2.7632c-0.0421 0.11222-0.0702 0.16833-0.0702 0.18235 0 0.0842 0.23846 0.35066 0.82756 0.40676 0.14027 0.014 0.28054 0.0281 0.28054 0.26652 0 0.16832-0.16831 0.16832-0.2104 0.16832-0.57508 0-1.1782-0.0421-1.7673-0.0421-0.35066 0-1.2063 0.0421-1.5569 0.0421-0.0842 0-0.25248 0-0.25248-0.28054 0-0.1543 0.14027-0.1543 0.32262-0.1543 0.82756 0 0.92575-0.14025 1.052-0.44883l1.6411-3.8854-2.9456-3.156-0.18235-0.1543c-0.6873-0.7434-1.3466-0.96782-2.0619-1.0099-0.18234-0.014-0.30858-0.014-0.30858-0.28053 0-0.014 0-0.14027 0.18235-0.14027 0.42079 0 0.88367 0.0421 1.3185 0.0421 0.51899 0 1.066-0.0421 1.571-0.0421 0.0842 0 0.25248 0 0.25248 0.2665 0 0.14027-0.14028 0.1543-0.16833 0.1543-0.12623 0.0139-0.56106 0.0421-0.56106 0.43482 0 0.22442 0.21041 0.44884 0.37872 0.63119l1.4167 1.5008 1.2624 1.3606 1.4167-3.3243c0.0561-0.15428 0.0702-0.16831 0.0702-0.19637 0-0.11221-0.2665-0.35066-0.81353-0.40676-0.15428-0.014-0.28053-0.028-0.28053-0.26651 0-0.15429 0.15429-0.15429 0.21039-0.15429 0.39274 0 1.3746 0.0421 1.7674 0.0421 0.35066 0 1.1922-0.0421 1.5429-0.0421 0.0982 0 0.2665 0 0.2665 0.25247 0 0.16833-0.14027 0.16833-0.25249 0.16833-0.92574 0.0139-0.96782 0.0561-1.2063 0.61716-0.53301 1.2904-1.4728 3.4646-1.7954 4.3061 0.95379 0.98185 2.4126 2.637 2.8614 3.0157 0.40677 0.33664 0.93978 0.67328 1.7814 0.71534 0.18234 0.014 0.30858 0.014 0.30858 0.28054 0 0.014 0 0.1543-0.18235 0.1543-0.42078 0-0.88366-0.0421-1.3185-0.0421-0.51898 0-1.052 0.0421-1.5429 0.0421-0.0842 0-0.26651 0-0.26651-0.28054 0-0.0982 0.0702-0.14026 0.15429-0.1543 0.12623-0.0139 0.56106-0.0421 0.56106-0.4348 0-0.18236-0.14026-0.3647-0.25248-0.49094z"/><path d="m173.58 707.38v0.43484l-0.014 0.23845-0.014 0.23844-0.0281 0.25248-0.028 0.2665-0.0421 0.28054-0.0421 0.28052-0.0561 0.28054-0.0702 0.29456-0.0702 0.29455-0.0842 0.29455-0.0982 0.29457-0.11221 0.29454-0.056 0.1543-0.0702 0.15428-0.0702 0.14028-0.0702 0.15429c-0.84159 1.7112-2.0338 2.623-2.1741 2.623-0.0842 0-0.14028-0.056-0.14028-0.14027 0-0.0421 0-0.0702 0.26651-0.32261 1.3606-1.3886 2.1601-3.6048 2.1601-6.5083 0-2.3845-0.51898-4.8392-2.2442-6.5925-0.18235-0.16833-0.18235-0.19638-0.18235-0.23845 0-0.0842 0.0561-0.14028 0.14028-0.14028 0.14026 0 1.3886 0.95381 2.2162 2.7212 0.71536 1.5289 0.88366 3.0718 0.88366 4.25z"/></g>
   <g transform="matrix(1.8379 0 0 -1.8379 -440.47 1447)" fill="#006e00" ns0:preamble="default_packages.tex" ns0:text="$$\\text{Residuals}$$\n$$\\mathbf{y}-\\bar{\\mathbf{y}}$$\n" xml:space="preserve"><path d="m302.59 740.75 0.0204 4e-3 0.0204 6e-3 0.0203 4e-3 0.0181 6e-3 0.0203 9e-3 0.0362 0.012 0.0362 0.018 0.0158 9e-3 0.0181 0.0114 0.0158 9e-3 0.0135 0.0114 0.0158 9e-3 0.0135 0.0113 0.0135 0.0135 0.0135 0.0114 0.0135 0.0113 0.0226 0.027 9e-3 0.0135 9e-3 0.0136 0.018 0.027 7e-3 0.0135 6e-3 0.0158 4e-3 0.0158 4e-3 0.0135 2e-3 0.0158 4e-3 0.0159v0.0339c0 0.21486-0.25557 0.40485-0.58803 0.40485h-0.70827v-0.0701h0.0543c0.17415 0 0.17867-0.0249 0.17867-0.10628v-1.1829c0-0.0814-4e-3 -0.10628-0.17867-0.10628h-0.0543v-0.0701c0.0814 6e-3 0.242 6e-3 0.33021 6e-3 0.0859 0 0.24652 0 0.32795-6e-3v0.0701h-0.0543c-0.17416 0-0.17642 0.0249-0.17642 0.10628v1.1987c0 0.052 0 0.0791 0.0475 0.0859 0.0226 4e-3 0.0882 4e-3 0.13344 4e-3 0.20356 0 0.45687-9e-3 0.45687-0.33472 0-0.15605-0.0543-0.337-0.38902-0.337h-0.24879v-0.0498h0.25784c0.0362 0 0.13117 0 0.21033-0.077 0.0859-0.0814 0.0859-0.14927 0.0859-0.30081 0-0.147 0-0.23522 0.0928-0.32115 0.0927-0.0814 0.21488-0.095 0.28273-0.095 0.17641 0 0.21485 0.18546 0.21485 0.24653 0 0.0135 0 0.0384-0.0293 0.0384-0.0249 0-0.0249-0.0203-0.0272-0.0361-0.0135-0.15832-0.0928-0.19903-0.14927-0.19903-0.11083 0-0.12665 0.11535-0.16058 0.32342l-0.0272 0.18094c-0.0407 0.14249-0.15152 0.21712-0.27592 0.26009z"/><path d="m303.51 740.5 2e-3 0.0452c0.0135 0.33473 0.20355 0.39127 0.28045 0.39127 0.23069 0 0.25331-0.30307 0.25331-0.39127h-0.53376l-2e-3 -0.0452h0.62876c0.0498 0 0.0565 0 0.0565 0.0452 0 0.22391-0.12214 0.44102-0.40259 0.44102-0.26236 0-0.47043-0.23068-0.47043-0.5134 0-0.3008 0.23747-0.51794 0.49756-0.51794 0.27368 0 0.37546 0.24879 0.37546 0.29177 0 0.0226-0.0181 0.0272-0.0293 0.0272-0.0204 0-0.0249-0.0135-0.0293-0.0317-0.0769-0.2307-0.28046-0.2307-0.30307-0.2307-0.11309 0-0.20356 0.0679-0.25558 0.14928-0.0679 0.10856-0.0679 0.25783-0.0679 0.33925z"/><path d="m304.73 740.42 4e-3 -2e-3h4e-3l7e-3 -2e-3h6e-3l9e-3 -2e-3 6e-3 -2e-3 0.027-6e-3 9e-3 -4e-3 0.0112-2e-3 0.018-8e-3 0.0112-4e-3 9e-3 -4e-3 0.0113-6e-3 9e-3 -4e-3 0.027-0.018 0.018-0.018 0.012-0.018 7e-3 -9e-3 2e-3 -6e-3 4e-3 -4e-3 2e-3 -7e-3 2e-3 -4e-3 2e-3 -6e-3 2e-3 -4e-3 2e-3 -6e-3v-7e-3l2e-3 -6e-3v-6e-3l2e-3 -6e-3v-0.021c0-0.11309-0.0791-0.20356-0.25331-0.20356-0.18998 0-0.27141 0.12666-0.31437 0.31891-7e-3 0.0293-9e-3 0.0384-0.0317 0.0384-0.0293 0-0.0293-0.0158-0.0293-0.0565v-0.29628c0-0.0384 0-0.0543 0.0249-0.0543 0.0113 0 0.0135 2e-3 0.0565 0.0452 4e-3 4e-3 4e-3 9e-3 0.0452 0.0519 0.0995-0.095 0.2013-0.0973 0.24879-0.0973 0.25784 0 0.36188 0.15153 0.36188 0.31212 0 0.11986-0.0679 0.18772-0.095 0.21485-0.0747 0.0701-0.16285 0.0882-0.25558 0.10628-0.12665 0.0249-0.27818 0.0543-0.27818 0.18547 0 0.077 0.0588 0.16962 0.2533 0.16962 0.24653 0 0.25784-0.20129 0.26236-0.2714 2e-3 -0.0204 0.0226-0.0204 0.0272-0.0204 0.0293 0 0.0293 0.0113 0.0293 0.0543v0.22618c0 0.0384 0 0.0543-0.0249 0.0543-0.0113 0-0.0158 0-0.0452-0.0272-6e-3 -9e-3 -0.0293-0.0293-0.0384-0.0361-0.0837 0.0633-0.17641 0.0633-0.21033 0.0633-0.27594 0-0.36188-0.14928-0.36188-0.27594 0-0.0791 0.0363-0.14248 0.0973-0.19223 0.0724-0.0565 0.1357-0.0701 0.29854-0.10173z"/><path d="m305.55 740.97-0.31664-0.0249v-0.0701c0.14702 0 0.16738-0.0136 0.16738-0.12214v-0.60614c0-0.0995-0.0249-0.0995-0.17642-0.0995v-0.0701c0.0724 2e-3 0.1945 7e-3 0.24879 7e-3 0.0791 0 0.15605-4e-3 0.23296-7e-3v0.0701c-0.14702 0-0.15607 0.0113-0.15607 0.0973z"/><path d="m305.56 741.36v6e-3l-2e-3 6e-3v6e-3l-2e-3 4e-3v6e-3l-2e-3 6e-3 -2e-3 4e-3 -2e-3 6e-3 -6e-3 0.012-4e-3 6e-3 -2e-3 4e-3 -4e-3 4e-3 -4e-3 2e-3 -2e-3 4e-3 -4e-3 4e-3 -4e-3 2e-3 -4e-3 4e-3 -4e-3 2e-3 -4e-3 4e-3 -6e-3 2e-3 -8e-3 4e-3 -6e-3 2e-3h-4e-3l-4e-3 2e-3 -6e-3 2e-3h-0.011l-6e-3 2e-3h-4e-3c-0.0701 0-0.11987-0.061-0.11987-0.11987 0-0.061 0.0498-0.11987 0.11987-0.11987 0.0633 0 0.11986 0.0475 0.11986 0.11987z"/><path d="m306.64 740.11v-0.14927l0.33021 0.0249v0.0701c-0.15605 0-0.17416 0.0158-0.17416 0.12439v1.3638l-0.32569-0.0226v-0.0701c0.15833 0 0.17642-0.0158 0.17642-0.12666v-0.484c-0.0656 0.0791-0.16283 0.13797-0.28497 0.13797l9e-3 -0.0498c0.0791 0 0.17415-0.0339 0.24427-0.13345 0.0249-0.0384 0.0249-0.043 0.0249-0.0837v-0.46138c0-0.0407 0-0.0452-0.0249-0.0837-0.0679-0.10628-0.16964-0.15605-0.26688-0.15605-0.10173 0-0.18319 0.0588-0.23748 0.14249-0.0588 0.0928-0.0656 0.22165-0.0656 0.31437 0 0.0814 7e-3 0.21713 0.0701 0.31891 0.0475 0.0679 0.13345 0.14248 0.25557 0.14248l-9e-3 0.0498c-0.26688 0-0.50209-0.21938-0.50209-0.50888 0-0.28724 0.22164-0.50888 0.47721-0.50888 0.14476 0 0.24653 0.077 0.30307 0.14926z"/><path d="m307.91 740.16v-0.20356l0.32569 0.0249v0.0701c-0.15833 0-0.17642 0.0158-0.17642 0.12439v0.79838l-0.33021-0.0249v-0.0701c0.15607 0 0.17415-0.0159 0.17415-0.1244v-0.40032c0-0.19452-0.10856-0.34831-0.2714-0.34831-0.18998 0-0.19903 0.10628-0.19903 0.22165v0.74636l-0.33247-0.0249v-0.0701c0.17642 0 0.17642-6e-3 0.17642-0.20581v-0.337c0-0.17415 0-0.37996 0.34377-0.37996 0.1244 0 0.22391 0.0633 0.2895 0.20355z"/><path d="m309.03 740.15v-6e-3l4e-3 -0.018 2e-3 -6e-3 4e-3 -0.018 2e-3 -6e-3 2e-3 -9e-3 4e-3 -9e-3 2e-3 -7e-3 4e-3 -6e-3 4e-3 -9e-3 0.012-0.018 6e-3 -6e-3 4e-3 -6e-3 6e-3 -6e-3 7e-3 -4e-3 6e-3 -6e-3 6e-3 -4e-3 7e-3 -4e-3 0.012-8e-3 9e-3 -2e-3 9e-3 -4e-3 6e-3 -2e-3 0.027-6e-3h0.0202c0.0475 0 0.1832 0.0317 0.1832 0.21259v0.12666h-0.0543v-0.12666c0-0.12891-0.0565-0.14248-0.0814-0.14248-0.0746 0-0.0837 0.0995-0.0837 0.11082v0.45008c0 0.095 0 0.1832-0.0814 0.26461-0.0882 0.0882-0.20129 0.1244-0.30985 0.1244-0.1832 0-0.33925-0.10628-0.33925-0.25332 0-0.0679 0.0452-0.10628 0.10401-0.10628 0.061 0 0.10173 0.0452 0.10173 0.10401 0 0.0272-9e-3 0.0995-0.11309 0.10401 0.0588 0.077 0.16963 0.10173 0.242 0.10173 0.11083 0 0.23975-0.0882 0.23975-0.28722v-0.35511c0-0.2126-0.16285-0.28949-0.26463-0.28949-0.11081 0-0.20129 0.0791-0.20129 0.18998 0 0.1244 0.0928 0.30986 0.46592 0.32342v0.0475c-0.11535-6e-3 -0.27367-0.0135-0.41616-0.0791-0.16736-0.077-0.22391-0.1945-0.22391-0.29402 0-0.18093 0.21712-0.23748 0.35962-0.23748 0.14926 0 0.2533 0.0905 0.29627 0.19452z"/><path d="m309.81 741.54-0.32569-0.0226v-0.0701c0.15832 0 0.17641-0.0158 0.17641-0.12666v-1.1693c0-0.0995-0.0249-0.0995-0.17641-0.0995v-0.0701c0.0746 2e-3 0.19451 6e-3 0.25105 6e-3 0.0565 0 0.1651-4e-3 0.24878-6e-3v0.0701c-0.15152 0-0.17414 0-0.17414 0.0995z"/><path d="m310.5 740.42 4e-3 -2e-3h6e-3l7e-3 -2e-3h6e-3l6e-3 -2e-3 0.036-8e-3 9e-3 -4e-3 9e-3 -2e-3 0.0113-4e-3 9e-3 -4e-3 0.0112-4e-3 9e-3 -4e-3 9e-3 -6e-3 0.0112-4e-3 0.027-0.018 9e-3 -9e-3 6e-3 -9e-3 9e-3 -9e-3 0.012-0.018 2e-3 -6e-3 2e-3 -4e-3 2e-3 -7e-3 2e-3 -4e-3 2e-3 -6e-3 2e-3 -4e-3 2e-3 -6e-3 2e-3 -7e-3v-6e-3l2e-3 -6e-3v-6e-3l2e-3 -6e-3v-0.015c0-0.11309-0.0791-0.20356-0.25558-0.20356-0.18771 0-0.26914 0.12666-0.3121 0.31891-7e-3 0.0293-9e-3 0.0384-0.0317 0.0384-0.0293 0-0.0293-0.0158-0.0293-0.0565v-0.29628c0-0.0384 0-0.0543 0.0249-0.0543 0.0113 0 0.0135 2e-3 0.0565 0.0452 4e-3 4e-3 4e-3 9e-3 0.043 0.0519 0.0995-0.095 0.20129-0.0973 0.24878-0.0973 0.2601 0 0.36414 0.15153 0.36414 0.31212 0 0.11986-0.0679 0.18772-0.095 0.21485-0.0747 0.0701-0.16284 0.0882-0.25783 0.10628-0.12666 0.0249-0.27594 0.0543-0.27594 0.18547 0 0.077 0.0565 0.16962 0.25106 0.16962 0.24878 0 0.2601-0.20129 0.26461-0.2714 2e-3 -0.0204 0.0226-0.0204 0.0272-0.0204 0.0293 0 0.0293 0.0113 0.0293 0.0543v0.22618c0 0.0384 0 0.0543-0.0249 0.0543-0.0113 0-0.0158 0-0.0452-0.0272-6e-3 -9e-3 -0.0293-0.0293-0.0384-0.0361-0.0859 0.0633-0.17869 0.0633-0.21262 0.0633-0.27366 0-0.3596-0.14928-0.3596-0.27594 0-0.0791 0.0361-0.14248 0.0973-0.19223 0.0724-0.0565 0.13345-0.0701 0.29629-0.10173z"/><path d="m304.46 739.04 2e-3 6e-3 2e-3 4e-3 4e-3 4e-3v2e-3l0.012 0.012h4e-3l2e-3 2e-3 4e-3 2e-3h4e-3l8e-3 4e-3h7e-3l6e-3 2e-3h0.012l2e-3 2e-3h0.025l4e-3 2e-3h0.053v0.10628c-0.0543-4e-3 -0.11987-6e-3 -0.17642-6e-3 -0.0565 0-0.15832 4e-3 -0.20582 6e-3v-0.10628c4e-3 0 0.10628 0 0.10628-0.0272 0-2e-3 -9e-3 -0.0249-0.0113-0.0272l-0.26009-0.55185-0.28724 0.60613h0.12213v0.10628c-0.0746-4e-3 -0.27592-6e-3 -0.27819-6e-3 -0.0633 0-0.1651 4e-3 -0.25783 6e-3v-0.10628h0.14475l0.42068-0.89111-0.0519-0.10856c-0.0498-0.10856-0.12213-0.26009-0.28045-0.26009-0.0317 0-0.0363 2e-3 -0.0543 9e-3 0.0204 9e-3 0.0724 0.0407 0.0724 0.1176 0 0.0746-0.0543 0.12892-0.13117 0.12892-0.0633 0-0.12892-0.043-0.12892-0.13119 0-0.11307 0.10628-0.2058 0.242-0.2058 0.17188 0 0.30307 0.14022 0.36414 0.26688z"/><path d="m306.71 738.71h0.024l4e-3 2e-3h0.012l2e-3 2e-3h6e-3l2e-3 2e-3h2e-3l2e-3 2e-3h2e-3l4e-3 2e-3v2e-3l8e-3 8e-3v2e-3h2e-3v6e-3l2e-3 2e-3v0.01c0 0.0452-0.0407 0.0452-0.0791 0.0452h-1.2191c-0.0384 0-0.0791 0-0.0791-0.0452s0.0407-0.0452 0.0791-0.0452z"/></g>
   <g transform="matrix(1.706 0 0 -1.706 -164.24 1355.5)" fill="#00f" ns0:preamble="default_packages.tex" ns0:text="$\\hat{\\mathbf{y}}-\\bar{y} \\boldsymbol{1}$\n" xml:space="preserve"><polygon transform="matrix(.28887 0 0 .28887 111.82 520.2)" points="152.96 712.63 153.14 712.81 151.82 714.16 150.48 712.81 150.66 712.63 151.82 713.64"/><path d="m156.24 725.55 2e-3 9e-3 2e-3 6e-3 4e-3 4e-3v2e-3l0.01 0.01 6e-3 2e-3h2e-3l6e-3 2e-3 2e-3 2e-3h6e-3l6e-3 2e-3h9e-3l6e-3 2e-3h9e-3l2e-3 2e-3h0.016l6e-3 2e-3h0.042l6e-3 2e-3h0.066v0.13577c-0.0693-6e-3 -0.15599-9e-3 -0.22821-9e-3 -0.0722 0-0.20221 6e-3 -0.26287 9e-3v-0.13577c6e-3 0 0.13576 0 0.13576-0.0347 0-2e-3 -0.0116-0.0318-0.0145-0.0347l-0.3322-0.70485-0.36399 0.77418h0.156v0.13577c-0.0953-6e-3 -0.35532-9e-3 -0.35821-9e-3 -0.0809 0-0.21088 6e-3 -0.32931 9e-3v-0.13577h0.18488l0.5373-1.1382-0.0664-0.13866c-0.0606-0.13865-0.1531-0.3322-0.3582-0.3322-0.0405 0-0.0462 2e-3 -0.0693 0.0116 0.0259 0.0116 0.0924 0.0491 0.0924 0.15021 0 0.0953-0.0693 0.16466-0.16755 0.16466-0.0809 0-0.16466-0.0549-0.16466-0.16755 0-0.14443 0.13577-0.26287 0.3091-0.26287 0.22243 0 0.38998 0.17621 0.46508 0.34087z"/><path d="m159.11 725.13h0.0396l6e-3 2e-3h0.01l6e-3 2e-3h4e-3l2e-3 2e-3 6e-3 2e-3h2e-3l4e-3 4e-3h2e-3v2e-3l4e-3 4e-3v2e-3l2e-3 2e-3v4e-3l2e-3 2e-3v0.012c0 0.0577-0.052 0.0577-0.10111 0.0577h-1.557c-0.0491 0-0.1011 0-0.1011-0.0577s0.052-0.0577 0.1011-0.0577z"/><polygon transform="matrix(.28887 0 0 .28887 111.82 520.2)" points="168.47 712.99 168.47 712.68 172.07 712.68 172.07 712.99"/><path d="m161.49 725.57v2e-3l2e-3 2e-3v8e-3l2e-3 2e-3v4e-3l2e-3 2e-3v8e-3h2e-3v0.02c0 0.052-0.0405 0.078-0.0838 0.078-0.0289 0-0.0751-0.0173-0.10111-0.0607-6e-3 -0.0145-0.0289-0.10399-0.0405-0.15598-0.0202-0.0752-0.0405-0.15022-0.0577-0.22822l-0.13-0.51709c-0.0116-0.0433-0.13288-0.24553-0.32353-0.24553-0.14733 0-0.17911 0.1271-0.17911 0.23398 0 0.13288 0.0491 0.3091 0.14733 0.56331 0.0462 0.11555 0.0577 0.14732 0.0577 0.2051 0 0.12999-0.0924 0.23687-0.23688 0.23687-0.27443 0-0.38131-0.41598-0.38131-0.44197 0-0.0289 0.0289-0.0289 0.0347-0.0289 0.0289 0 0.0318 6e-3 0.0462 0.052 0.078 0.26867 0.19356 0.35532 0.29177 0.35532 0.0232 0 0.0722 0 0.0722-0.0924 0-0.0722-0.0289-0.14733-0.0491-0.20221-0.11555-0.30331-0.16755-0.46797-0.16755-0.60085 0-0.2571 0.182-0.34088 0.35243-0.34088 0.11266 0 0.21088 0.0462 0.29176 0.12711-0.0375-0.14733-0.0722-0.28888-0.18777-0.44198-0.0751-0.0982-0.18487-0.17911-0.31776-0.17911-0.0405 0-0.17044 9e-3 -0.21954 0.11845 0.0462 0 0.0838 0 0.12422 0.0347 0.0289 0.026 0.0577 0.0636 0.0577 0.11843 0 0.0896-0.078 0.10111-0.10689 0.10111-0.0664 0-0.16177-0.0462-0.16177-0.18777 0-0.14154 0.1271-0.24843 0.30621-0.24843 0.29754 0 0.59508 0.25998 0.67308 0.58353z"/><path d="m162.72 726.18v0.032l-2e-3 6e-3v0.016l-2e-3 2e-3v4e-3l-4e-3 4e-3v2e-3l-8e-3 8e-3h-2e-3v2e-3h-4e-3l-2e-3 2e-3h-8e-3l-2e-3 2e-3h-0.018c-0.0318 0-0.0375 0-0.0636-0.0202-0.22242-0.16176-0.51996-0.16176-0.58063-0.16176h-0.0577v-0.13577h0.0577c0.0462 0 0.2051 2e-3 0.37554 0.0577v-1.4848h-0.40154v-0.13288c0.12711 9e-3 0.43332 9e-3 0.57486 9e-3 0.14155 0 0.44487 0 0.57197-9e-3v0.13288h-0.40153z"/></g>
  </g>
  <path d="m85.537 124.87 26.244-16.652" fill="#00f" fill-opacity=".68182" marker-end="url(#marker1358)" stroke="#0022cf" stroke-opacity=".71212" stroke-width=".7202"/>
  <g transform="matrix(.58331 0 0 -.58331 3.6556 532.15)" fill-rule="evenodd" stroke="#000" stroke-miterlimit="10.433" ns0:preamble="default_packages.tex" ns0:text="$\\theta$\n" xml:space="preserve"><path d="m153.25 712.09v0.13l-0.01 0.07v0.08l-0.01 0.07v0.08l-0.01 0.08-0.01 0.09-0.02 0.08-0.01 0.08-0.02 0.09-0.02 0.08-0.02 0.09-0.06 0.16-0.03 0.09-0.03 0.07-0.08 0.16-0.04 0.07-0.05 0.06-0.05 0.07-0.05 0.06-0.12 0.1-0.04 0.02-0.03 0.03-0.03 0.02-0.04 0.01-0.04 0.02-0.03 0.02-0.12 0.03-0.05 0.01-0.04 0.01h-0.04l-0.05 0.01h-0.05l-0.01-0.22c0.49 0 0.55-0.64 0.55-1.2 0-0.49-0.08-1-0.32-1.98h-2.08c0.17 0.64 0.37 1.43 0.77 2.14 0.27 0.48 0.63 1.04 1.08 1.04l0.01 0.22c-1.38 0-2.92-2.8-2.92-5.08 0-0.93 0.29-2.03 1.2-2.03v0.21c-0.33 0-0.54 0.29-0.54 1.22 0 0.41 0.06 0.99 0.32 1.96h2.07c-0.11-0.45-0.32-1.3-0.7-2.01-0.35-0.68-0.72-1.17-1.15-1.17v-0.21c1.4 0 2.92 2.85 2.92 5.07z" stroke-width="0"/></g>
  <ellipse cx="63.5" cy="115.09" rx=".47247" ry=".46066" stroke="#000" stroke-linecap="square" stroke-linejoin="bevel" stroke-width=".463"/>
  <g fill="none">
   <g stroke="#000" stroke-opacity=".34783" stroke-width=".8">
    <path d="m43.108 147.7-9.8596 14.858" marker-end="url(#g)"/>
    <path d="m63.294 90.049 1.37e-4 -40.867" marker-end="url(#a)"/>
    <path d="m150.66 115.13h21.565" marker-end="url(#Arrow1Mend)"/>
   </g>
   <path d="m85.548 124.86 26.443-67.231" marker-end="url(#b)" stroke="#fe0000" stroke-opacity=".71981" stroke-width=".64645"/>
  </g>
  <g transform="matrix(.45354 -.010052 -.010052 -.45354 33.582 418.57)" fill="#f00" fill-opacity=".88406" fill-rule="evenodd" stroke="#f40000" stroke-miterlimit="10.433" stroke-width="0" ns0:preamble="default_packages.tex" ns0:text="$\\mathbf{y}-\\hat{y}\\boldsymbol{1}$\n" xml:space="preserve"><path d="m163.94 710.52 0.0107 0.0321 0.0107 0.0214 0.0214 0.0214v0.0107l0.0535 0.0535 0.0214 0.0107h0.0107l0.0214 0.0107 0.0107 0.0107h0.0214l0.0214 0.0107h0.0321l0.0214 0.0107h0.0321l0.0107 0.0107h0.0642l0.0214 0.0107h0.1498l0.0214 0.0107h0.2354v0.50256c-0.25662-0.0214-0.57741-0.0321-0.84472-0.0321-0.26732 0-0.7485 0.0214-0.97304 0.0321v-0.50256c0.0214 0 0.50256 0 0.50256-0.12831 0-0.0107-0.0428-0.11762-0.0535-0.12832l-1.2297-2.609-1.3473 2.8657h0.57741v0.50256c-0.35286-0.0214-1.3152-0.0321-1.3259-0.0321-0.2994 0-0.78057 0.0214-1.219 0.0321v-0.50256h0.68433l1.9888-4.2129-0.24593-0.51325c-0.22455-0.51325-0.56672-1.2297-1.3259-1.2297-0.1497 0-0.17108 0.0107-0.25663 0.0428 0.0962 0.0428 0.34217 0.18178 0.34217 0.55603 0 0.35286-0.25662 0.60948-0.62018 0.60948-0.29939 0-0.60948-0.20316-0.60948-0.62018 0-0.53463 0.50255-0.97304 1.1441-0.97304 0.82334 0 1.4435 0.65226 1.7215 1.2618z"/><path d="m170.8 707.7h0.14l0.02 0.01h0.04l0.02 0.01h0.02l0.01 0.01 0.02 0.01h0.01l0.02 0.02h0.01v0.01l0.02 0.02v0.01l0.01 0.01v0.02l0.01 0.01v0.06c0 0.2-0.18 0.2-0.35 0.2h-5.39c-0.17 0-0.35 0-0.35-0.2s0.18-0.2 0.35-0.2z"/></g>
  <path d="m88.269 118.28-2.3755 6.1474 4.6377-2.9378c0.27458-1.4295 0.48218-2.4039-2.2623-3.2097z" fill-opacity=".31401" stroke="#000" stroke-opacity=".7343" stroke-width=".39797px"/>
  <g transform="matrix(.44142 0 0 -.44142 58.819 402.9)" fill="#006e00" fill-rule="evenodd" stroke="#000" stroke-miterlimit="10.433" stroke-width="0" ns0:preamble="default_packages.tex" ns0:text="$\\hat{\\mathbf{y}}$\n" xml:space="preserve"><polygon points="152.96 712.63 153.14 712.81 151.82 714.16 150.48 712.81 150.66 712.63 151.82 713.64"/><path d="m153.76 710.86 0.01 0.03 0.01 0.02 0.02 0.02v0.01l0.05 0.05 0.02 0.01h0.01l0.02 0.01 0.01 0.01h0.02l0.02 0.01h0.03l0.02 0.01h0.03l0.01 0.01h0.06l0.02 0.01h0.14l0.02 0.01h0.22v0.47c-0.24-0.02-0.54-0.03-0.79-0.03s-0.7 0.02-0.91 0.03v-0.47c0.02 0 0.47 0 0.47-0.12 0-0.01-0.04-0.11-0.05-0.12l-1.15-2.44-1.26 2.68h0.54v0.47c-0.33-0.02-1.23-0.03-1.24-0.03-0.28 0-0.73 0.02-1.14 0.03v-0.47h0.64l1.86-3.94-0.23-0.48c-0.21-0.48-0.53-1.15-1.24-1.15-0.14 0-0.16 0.01-0.24 0.04 0.09 0.04 0.32 0.17 0.32 0.52 0 0.33-0.24 0.57-0.58 0.57-0.28 0-0.57-0.19-0.57-0.58 0-0.5 0.47-0.91 1.07-0.91 0.77 0 1.35 0.61 1.61 1.18z"/></g>
  <g transform="matrix(2.014 0 0 -2.014 -176.72 1553.1)" fill="#f00" fill-opacity=".92754" fill-rule="evenodd" stroke="#f00" stroke-miterlimit="10.433" stroke-width="0" ns0:preamble="default_packages.tex" ns0:text="$\\bar{y} \\boldsymbol{1}$\n" xml:space="preserve"><polygon transform="matrix(.24279 0 0 .24279 103.54 551.41)" points="150.08 712.99 150.08 712.68 153.68 712.68 153.68 712.99"/><path d="m140.82 724.02v6e-3h3e-3v0.011l3e-3 3e-3v6e-3l3e-3 3e-3v0.015l3e-3 3e-3v0.021c0 0.0437-0.034 0.0655-0.0704 0.0655-0.0243 0-0.0631-0.0146-0.0849-0.0509-5e-3 -0.0121-0.0243-0.0874-0.034-0.13111-0.017-0.0631-0.034-0.12625-0.0486-0.1918l-0.10925-0.4346c-0.01-0.0364-0.11411-0.20636-0.27435-0.20636-0.1214 0-0.1481 0.10682-0.1481 0.19665 0 0.11169 0.0412 0.25979 0.12382 0.47344 0.0388 0.0971 0.0462 0.12383 0.0462 0.17238 0 0.10926-0.0753 0.1991-0.19667 0.1991-0.23065 0-0.32048-0.34962-0.32048-0.37148 0-0.0243 0.0243-0.0243 0.0291-0.0243 0.0243 0 0.0267 5e-3 0.0388 0.0437 0.0655 0.22579 0.16267 0.29863 0.24522 0.29863 0.0194 0 0.0607 0 0.0607-0.0777 0-0.0607-0.0243-0.12381-0.0412-0.16995-0.0971-0.25492-0.14081-0.39332-0.14081-0.505 0-0.21609 0.15295-0.28649 0.2962-0.28649 0.0947 0 0.17481 0.0389 0.24279 0.10683-0.0315-0.12382-0.0607-0.24279-0.15539-0.37147-0.0655-0.0826-0.15538-0.15053-0.26707-0.15053-0.034 0-0.14324 7e-3 -0.18452 0.0995 0.0388 0 0.0705 0 0.1044 0.0291 0.0243 0.0219 0.0486 0.0534 0.0486 0.0995 0 0.0752-0.0655 0.0849-0.0898 0.0849-0.0558 0-0.13597-0.0389-0.13597-0.15781 0-0.11897 0.10683-0.2088 0.25736-0.2088 0.24764 0 0.49772 0.2185 0.5657 0.49043z"/><path d="m141.99 724.44v0.044l-3e-3 5e-3v6e-3l-3e-3 3e-3v3e-3l-3e-3 3e-3v3e-3l-0.012 0.012h-3e-3l-3e-3 3e-3h-6e-3v3e-3h-0.012l-3e-3 3e-3h-0.027c-0.0268 0-0.0316 0-0.0534-0.0169-0.18695-0.13597-0.43702-0.13597-0.48801-0.13597h-0.0486v-0.11411h0.0486c0.0389 0 0.17239 3e-3 0.31563 0.0486v-1.2479h-0.33748v-0.11169c0.10683 7e-3 0.36418 7e-3 0.48315 7e-3 0.11654 0 0.3739 0 0.48073-7e-3v0.11169h-0.33991z"/></g>
  <path d="m109.29 109.51v-4.3118l3.3599-1.9398v4.2419l-3.3447 2.3283z" fill-opacity=".37198" stroke="#000" stroke-opacity=".51691" stroke-width=".26458px"/>
  <g fill="none" stroke="#000">
   <path d="m37.682 148.93 112.66-30.302" stroke-width=".5"/>
   <path d="m153.46 65.976-3.2502 52.88" stroke-width=".365"/>
   <path d="m40.932 96.045-3.305 53.109" stroke-width=".365"/>
   <path d="m40.932 96.045 112.61-30.174" stroke-width=".26458px"/>
   <g stroke-opacity=".15942" stroke-width=".765">
    <path d="m63.478 115.13h87.059"/>
    <path d="m63.294 90.049v24.427"/>
    <path d="m43.069 147.87 20.41-32.74"/>
   </g>
  </g>
 </g>
</svg>
