<?xml version="1.0" encoding="UTF-8"?>
<svg width="149.68mm" height="118.21mm" version="1.1" viewBox="0 0 149.68 118.21" xmlns="http://www.w3.org/2000/svg" xmlns:cc="http://creativecommons.org/ns#" xmlns:dc="http://purl.org/dc/elements/1.1/" xmlns:ns0="http://www.iki.fi/pav/software/textext/" xmlns:rdf="http://www.w3.org/1999/02/22-rdf-syntax-ns#">
 <metadata>
  <rdf:RDF>
   <cc:Work rdf:about="">
    <dc:format>image/svg+xml</dc:format>
    <dc:type rdf:resource="http://purl.org/dc/dcmitype/StillImage"/>
    <dc:title/>
   </cc:Work>
  </rdf:RDF>
 </metadata>
 <defs>
  <marker id="marker5087" overflow="visible" orient="auto">
   <path transform="matrix(-.4 0 0 -.4 -4 0)" d="m0 0 5-5-17.5 5 17.5 5z" fill="#0042b7" fill-opacity=".67046" fill-rule="evenodd" stroke="#003e89" stroke-opacity=".7197" stroke-width="1pt"/>
  </marker>
  <marker id="marker4951" overflow="visible" orient="auto">
   <path transform="matrix(.4 0 0 .4 4 0)" d="m0 0 5-5-17.5 5 17.5 5z" fill="#0042b7" fill-opacity=".67046" fill-rule="evenodd" stroke="#003e89" stroke-opacity=".7197" stroke-width="1pt"/>
  </marker>
  <marker id="marker2900" overflow="visible" orient="auto">
   <path transform="matrix(-.4 0 0 -.4 -4 0)" d="m0 0 5-5-17.5 5 17.5 5z" fill="#a00001" fill-opacity=".5" fill-rule="evenodd" stroke="#a00000" stroke-opacity=".31818" stroke-width="1pt"/>
  </marker>
  <marker id="marker2794" overflow="visible" orient="auto">
   <path transform="matrix(.4 0 0 .4 4 0)" d="m0 0 5-5-17.5 5 17.5 5z" fill="#a00001" fill-opacity=".5" fill-rule="evenodd" stroke="#a00000" stroke-opacity=".31818" stroke-width="1pt"/>
  </marker>
  <marker id="marker2120" overflow="visible" orient="auto">
   <path transform="matrix(-.4 0 0 -.4 -4 0)" d="m0 0 5-5-17.5 5 17.5 5z" fill="#008100" fill-opacity=".50758" fill-rule="evenodd" stroke="#007f00" stroke-opacity=".68939" stroke-width="1pt"/>
  </marker>
  <marker id="marker2027" overflow="visible" orient="auto">
   <path transform="matrix(.4 0 0 .4 4 0)" d="m0 0 5-5-17.5 5 17.5 5z" fill="#008100" fill-opacity=".50758" fill-rule="evenodd" stroke="#007f00" stroke-opacity=".68939" stroke-width="1pt"/>
  </marker>
  <marker id="c" overflow="visible" orient="auto">
   <path transform="matrix(-.4 0 0 -.4 -4 0)" d="m0 0 5-5-17.5 5 17.5 5z" fill-opacity=".37681" fill-rule="evenodd" stroke="#000" stroke-opacity=".37681" stroke-width="1pt"/>
  </marker>
  <marker id="g" overflow="visible" orient="auto">
   <path transform="matrix(-.4 0 0 -.4 -4 0)" d="m0 0 5-5-17.5 5 17.5 5z" fill-opacity=".37681" fill-rule="evenodd" stroke="#000" stroke-opacity=".37681" stroke-width="1pt"/>
  </marker>
  <marker id="marker2794-6" overflow="visible" orient="auto">
   <path transform="matrix(.4 0 0 .4 4 0)" d="m0 0 5-5-17.5 5 17.5 5z" fill="#a00001" fill-opacity=".5" fill-rule="evenodd" stroke="#a00000" stroke-opacity=".31818" stroke-width="1pt"/>
  </marker>
  <marker id="marker2900-7" overflow="visible" orient="auto">
   <path transform="matrix(-.4 0 0 -.4 -4 0)" d="m0 0 5-5-17.5 5 17.5 5z" fill="#a00001" fill-opacity=".5" fill-rule="evenodd" stroke="#a00000" stroke-opacity=".31818" stroke-width="1pt"/>
  </marker>
  <marker id="marker2027-1" overflow="visible" orient="auto">
   <path transform="matrix(.4 0 0 .4 4 0)" d="m0 0 5-5-17.5 5 17.5 5z" fill="#008100" fill-opacity=".50758" fill-rule="evenodd" stroke="#007f00" stroke-opacity=".68939" stroke-width="1pt"/>
  </marker>
  <marker id="marker2120-9" overflow="visible" orient="auto">
   <path transform="matrix(-.4 0 0 -.4 -4 0)" d="m0 0 5-5-17.5 5 17.5 5z" fill="#008100" fill-opacity=".50758" fill-rule="evenodd" stroke="#007f00" stroke-opacity=".68939" stroke-width="1pt"/>
  </marker>
  <marker id="marker4951-03" overflow="visible" orient="auto">
   <path transform="matrix(.4 0 0 .4 4 0)" d="m0 0 5-5-17.5 5 17.5 5z" fill="#0042b7" fill-opacity=".67046" fill-rule="evenodd" stroke="#003e89" stroke-opacity=".7197" stroke-width="1pt"/>
  </marker>
  <marker id="marker5087-8" overflow="visible" orient="auto">
   <path transform="matrix(-.4 0 0 -.4 -4 0)" d="m0 0 5-5-17.5 5 17.5 5z" fill="#0042b7" fill-opacity=".67046" fill-rule="evenodd" stroke="#003e89" stroke-opacity=".7197" stroke-width="1pt"/>
  </marker>
 </defs>
 <g transform="translate(9.1209 -56.526)">
  <g transform="matrix(1.2506 0 0 -1.2506 -72.039 1072.2)" fill-rule="evenodd" stroke="#000" stroke-miterlimit="10.433" ns0:preamble="default_packages.tex" ns0:text="$x$\n$y$\n" xml:space="preserve"><g stroke-miterlimit="10.433"><path d="m77.39 735.73c0.65675 0.40817 80.311 46.736 80.311 46.736" fill="#009600" fill-opacity=".5" stroke="#0073e3" stroke-opacity=".79167" stroke-width=".53174"/><g stroke="none"><path d="m78.607 743.43 0.07313-14.114 78.505 45.176v14.583z" fill="#00b200" fill-opacity=".13"/><circle transform="scale(1,-1)" cx="120.92" cy="-763.29" r=".56099" fill="#ff0001" fill-opacity=".42512" fill-rule="evenodd" opacity=".97" stroke-dasharray="0.311849, 0.0519749" stroke-linecap="square" stroke-linejoin="bevel" stroke-opacity=".9372" stroke-width=".051975"/><circle transform="scale(1,-1)" cx="100.13" cy="-758.51" r=".56099" fill="#ff0001" fill-opacity=".42512" fill-rule="evenodd" opacity=".97" stroke-dasharray="0.311849, 0.0519749" stroke-linecap="square" stroke-linejoin="bevel" stroke-opacity=".9372" stroke-width=".051975"/></g><g fill="none" stroke="#000" stroke-miterlimit="10.433"><path d="m69.613 717.63v87.044" marker-end="url(#c)" stroke-opacity=".37681" stroke-width=".36685"/><path d="m65.368 722.62h92.182" marker-end="url(#g)" stroke-opacity=".37681" stroke-width=".36685"/><path d="m59.44 757.1h92.388" stroke="#000" stroke-opacity=".2315" stroke-width=".45645"/></g><g id="content" transform="matrix(1.5,0,0,1.5,-311.17,-218.43)" fill-rule="evenodd" stroke-opacity="0" ns0:preamble="default_packages.tex" ns0:text="$x$\n$y$\n$\\langle y \\rangle$\n$\\langle x \\rangle$\n$\\text{Point of averages}$\n$\\text{Regression line}$\n$\\text{SD line}$\n$\\rho(x,y)\\sigma_y$\n$\\sigma_x$\n" xml:space="preserve"><path d="m312.42 625.66 4e-3 7e-3 3e-3 0.0105v0.0106l3e-3 0.014 4e-3 0.014 7e-3 0.014 3e-3 0.014 4e-3 0.0175 7e-3 0.014 7e-3 0.0176 7e-3 0.0175 0.014 0.0352 7e-3 0.0175 0.0212 0.0352 0.0106 0.0175 0.0105 0.014 0.0106 0.0176 0.014 0.014 0.0106 0.0175 0.014 0.014 0.0175 0.014 0.014 0.0106 0.0176 0.0105 0.014 0.0106 0.0105 3e-3 0.0106 7e-3 7e-3 3e-3 0.0106 4e-3 0.0106 3e-3h0.0106l7e-3 4e-3 0.0106 3e-3h0.0245l0.0106 3e-3h0.0106c0.0175 0 0.10198 0 0.17582-0.0457-0.0985-0.0175-0.16878-0.1055-0.16878-0.18989 0-0.0563 0.0386-0.12308 0.13362-0.12308 0.0774 0 0.18988 0.0633 0.18988 0.20396 0 0.18285-0.20746 0.23208-0.32703 0.23208-0.20394 0-0.32702-0.18637-0.36922-0.26725-0.0879 0.23209-0.27428 0.26725-0.37625 0.26725-0.36571 0-0.56615-0.45361-0.56615-0.53801 0-0.0352 0.0352-0.0352 0.0421-0.0352 0.0281 0 0.0387 7e-3 0.0457 0.0386 0.11955 0.36923 0.35164 0.45714 0.4712 0.45714 0.0668 0 0.18637-0.0317 0.18637-0.2356 0-0.10901-0.0598-0.34109-0.18637-0.82988-0.0563-0.21802-0.17934-0.36571-0.33406-0.36571-0.0211 0-0.10197 0-0.17582 0.0457 0.0879 0.0176 0.16527 0.0914 0.16527 0.18989 0 0.0949-0.0774 0.12307-0.13011 0.12307-0.10549 0-0.1934-0.0914-0.1934-0.20395 0-0.16176 0.17582-0.22857 0.33054-0.22857 0.23208 0 0.35868 0.24263 0.36922 0.26373 0.0387-0.13011 0.16528-0.26373 0.37627-0.26373 0.36219 0 0.56262 0.45011 0.56262 0.53801 0 0.0352-0.0317 0.0352-0.0421 0.0352-0.0317 0-0.0387-0.0176-0.0457-0.0386-0.11604-0.37626-0.35515-0.46066-0.46768-0.46066-0.13714 0-0.1934 0.11253-0.1934 0.23209 0 0.0774 0.0211 0.15472 0.0598 0.30593z"/><path d="m253.12 682.42v4e-3l4e-3 4e-3v0.011l3e-3 4e-3v7e-3l4e-3 3e-3v0.014l3e-3 4e-3v0.033c0 0.0675-0.0525 0.10125-0.10876 0.10125-0.0375 0-0.0975-0.0225-0.13127-0.0788-8e-3 -0.0187-0.0375-0.13502-0.0525-0.20252-0.0262-0.0975-0.0525-0.19502-0.075-0.29628l-0.16876-0.67131c-0.015-0.0562-0.17627-0.31878-0.42004-0.31878-0.19127 0-0.23252 0.16501-0.23252 0.30377 0 0.17252 0.0637 0.4013 0.19127 0.73132 0.06 0.15002 0.075 0.19128 0.075 0.26628 0 0.16876-0.12 0.30753-0.30752 0.30753-0.35629 0-0.49505-0.54005-0.49505-0.57381 0-0.0375 0.0375-0.0375 0.045-0.0375 0.0375 0 0.0412 8e-3 0.06 0.0675 0.10125 0.34878 0.25127 0.46129 0.37878 0.46129 0.03 0 0.0938 0 0.0938-0.12001 0-0.0938-0.0375-0.19126-0.0637-0.26252-0.15001-0.39379-0.21752-0.60756-0.21752-0.78008 0-0.33377 0.23628-0.44253 0.45755-0.44253 0.14626 0 0.27002 0.06 0.37503 0.16501-0.0488-0.19127-0.0938-0.37503-0.24002-0.57381-0.0975-0.1275-0.24002-0.23252-0.41254-0.23252-0.0525 0-0.22127 0.0113-0.28503 0.15377 0.06 0 0.10877 0 0.16126 0.045 0.0375 0.0338 0.075 0.0825 0.075 0.15377 0 0.11626-0.10126 0.13126-0.13875 0.13126-0.0863 0-0.21003-0.06-0.21003-0.24377s0.16502-0.32253 0.39754-0.32253c0.38628 0 0.76882 0.33753 0.87383 0.75757z"/></g><g fill="#ff0001" fill-opacity=".42512" stroke="none" stroke-dasharray="0.311849, 0.0519749" stroke-linecap="square" stroke-linejoin="bevel" stroke-opacity=".9372" stroke-width=".051975"><circle transform="scale(1,-1)" cx="92.04" cy="-736.17" r=".56099" opacity=".97"/><g fill-rule="evenodd"><circle transform="scale(1,-1)" cx="84.56" cy="-742.3" r=".56099" opacity=".97"/><circle transform="scale(1,-1)" cx="107.75" cy="-738.08" r=".56099" opacity=".97"/><circle transform="scale(1,-1)" cx="100.88" cy="-745.89" r=".56099" opacity=".97"/><circle transform="scale(1,-1)" cx="88.527" cy="-753.03" r=".56099" opacity=".97"/><circle transform="scale(1,-1)" cx="99.861" cy="-752.81" r=".56099" opacity=".97"/><circle transform="scale(1,-1)" cx="106.96" cy="-755.04" r=".56099" opacity=".97"/><circle transform="scale(1,-1)" cx="108.52" cy="-749.88" r=".56099" opacity=".97"/><circle transform="scale(1,-1)" cx="119.16" cy="-747.28" r=".56099" opacity=".97"/><circle transform="scale(1,-1)" cx="113.15" cy="-749.46" r=".56099" opacity=".97"/><circle transform="scale(1,-1)" cx="121.19" cy="-752.74" r=".56099" opacity=".97"/><circle transform="scale(1,-1)" cx="137.43" cy="-755.17" r=".56099" opacity=".97"/><circle transform="scale(1,-1)" cx="116.14" cy="-755.76" r=".56099" opacity=".97"/><circle transform="scale(1,-1)" cx="123.65" cy="-760.12" r=".56099" opacity=".97"/><circle transform="scale(1,-1)" cx="129.12" cy="-760.72" r=".56099" opacity=".97"/><circle transform="scale(1,-1)" cx="109.09" cy="-766.98" r=".56099" opacity=".97"/><circle transform="scale(1,-1)" cx="116.11" cy="-767.33" r=".56099" opacity=".97"/><circle transform="scale(1,-1)" cx="136.71" cy="-768.32" r=".56099" opacity=".97"/><circle transform="scale(1,-1)" cx="129.42" cy="-767.22" r=".56099" opacity=".97"/><circle transform="scale(1,-1)" cx="120.47" cy="-776.33" r=".56099" opacity=".97"/><circle transform="scale(1,-1)" cx="106.79" cy="-770.99" r=".56099" opacity=".97"/><circle transform="scale(1,-1)" cx="123.57" cy="-770.08" r=".56099" opacity=".97"/><circle transform="scale(1,-1)" cx="131.84" cy="-773.07" r=".56099" opacity=".97"/><circle transform="scale(1,-1)" cx="137.62" cy="-781.54" r=".56099" opacity=".97"/><circle transform="scale(1,-1)" cx="140.61" cy="-783.83" r=".56099" opacity=".97"/><circle transform="scale(1,-1)" cx="146" cy="-759.98" r=".56099" opacity=".97"/><circle transform="scale(1,-1)" cx="153.32" cy="-770.83" r=".56099" opacity=".97"/></g></g><g stroke="#000"><g transform="matrix(.7654 0 0 .7654 61.129 229.03)" fill="#ae0001" fill-opacity=".82954" fill-rule="evenodd" stroke-width="0" ns0:preamble="default_packages.tex" ns0:text="$\\sigma_{fit}$\n$\\sigma_{data}$\n" xml:space="preserve"><path d="m20.074 702.37h0.08158l0.01359 7e-3h0.04076l0.01359 7e-3h0.01359l0.01359 7e-3h0.01359l0.04076 0.021 0.0068 7e-3 0.01359 7e-3 0.01359 0.0135 0.01359 7e-3v7e-3l0.0068 7e-3h0.0068v7e-3l0.01364 0.014v7e-3l0.0068 7e-3v7e-3l0.0068 7e-3v7e-3l0.0068 0.0136v0.014l0.0068 7e-3v0.0546c0 0.16306-0.14267 0.16306-0.26496 0.16306h-1.5422c-1.0191 0-1.7732-1.1142-1.7732-1.9159 0-0.59787 0.40084-1.0666 1.0123-1.0666l0.0068 0.14266c-0.32611 0-0.59787 0.24458-0.59787 0.73375 0 0.19702 0.08153 0.75412 0.31252 1.155 0.28534 0.46198 0.69298 0.5571 0.92397 0.5571 0.57069 0 0.62504-0.4484 0.62504-0.65222 0-0.31931-0.13588-0.86962-0.36687-1.2161-0.26496-0.40085-0.63183-0.57749-0.8968-0.57749l-0.0068-0.14266c0.80168 0 1.7053 0.81526 1.7053 1.8547 0 0.11549 0 0.43481-0.21061 0.73374z"/><path d="m23.144 701.98h0.0068v0.021l0.0068 7e-3v0.021l0.0068 7e-3v0.021c0 0.0204-0.02038 0.068-0.07473 0.068-0.09511 0-0.48916-0.0408-0.60466-0.0475-0.04076-7e-3 -0.1087-0.0135-0.1087-0.1087 0-0.0679 0.06794-0.0679 0.12229-0.0679 0.23099 0 0.23099-0.034 0.23099-0.0679 0-0.034-0.01359-0.0679-0.02038-0.10871l-0.27176-1.0734c-0.09511 0.15626-0.25817 0.27855-0.48916 0.27855v-0.13588c0.3329 0 0.42122-0.36008 0.42122-0.40763 0-0.0204-0.0068-0.0543-0.01359-0.0679l-0.2242-0.88321c-0.02718-0.13587-0.13588-0.2242-0.23779-0.31931-0.04076-0.034-0.23099-0.18344-0.44161-0.18344-0.16985 0-0.34649 0.1223-0.34649 0.45519 0 0.25138 0.14267 0.76772 0.25137 0.95795 0.21741 0.38046 0.46199 0.4484 0.59107 0.4484v0.13587c-0.60466 0-1.2229-0.6658-1.2229-1.3452 0-0.46199 0.30573-0.7881 0.71336-0.7881 0.25817 0 0.48916 0.14946 0.67939 0.3329 0.08832-0.28534 0.36687-0.3329 0.48916-0.3329 0.16985 0 0.28534 0.10191 0.37367 0.25138 0.10191 0.18344 0.16305 0.45519 0.16305 0.47557 0 0.0612-0.06114 0.0612-0.07473 0.0612-0.06114 0-0.06794-0.0204-0.10191-0.14947-0.06114-0.2242-0.14947-0.50276-0.34649-0.50276-0.12229 0-0.15626 0.10192-0.15626 0.23101 0 0.0883 0.0068 0.12908 0.02038 0.19022z"/><path d="m25.257 700.65-0.0068 0.0136-0.01359 0.0135-0.0068 0.0136-0.02718 0.0272-0.0068 0.0135-0.01359 0.0136-0.02718 0.027-0.0068 7e-3 -0.01359 0.0135-0.01359 0.0136-0.01359 7e-3 -0.02038 0.0136-0.01359 7e-3 -0.01359 0.0136-0.01359 7e-3 -0.02038 0.0136-0.02718 0.014-0.02038 7e-3 -0.01359 7e-3 -0.04076 0.014h-0.01359l-0.04076 0.014h-0.04073l-0.02038 7e-3h-0.04076v-0.13588c0.3329 0 0.42122-0.36008 0.42122-0.40763 0-0.0204-0.0068-0.0543-0.01359-0.0679l-0.2242-0.88321c-0.03397-0.13587-0.13588-0.2242-0.23779-0.31931-0.04756-0.034-0.23779-0.18344-0.44161-0.18344-0.17664 0-0.34649 0.12229-0.34649 0.45519 0 0.25138 0.14267 0.76772 0.25138 0.95795 0.21741 0.38046 0.45519 0.4484 0.59107 0.4484v0.13587c-0.60466 0-1.2229-0.6658-1.2229-1.3452 0-0.46199 0.30573-0.7881 0.71336-0.7881 0.25817 0 0.48916 0.14946 0.6726 0.3329 0.09511-0.28534 0.36687-0.3329 0.49596-0.3329 0.16985 0 0.28534 0.10191 0.37367 0.25138 0.10191 0.18344 0.16305 0.45519 0.16305 0.47557 0 0.0612-0.06114 0.0612-0.07473 0.0612-0.06794 0-0.06794-0.0204-0.10191-0.14947-0.06114-0.2242-0.14947-0.50276-0.34649-0.50276-0.12908 0-0.16305 0.10192-0.16305 0.231 0 0.0815 0.04076 0.25137 0.07473 0.37366 0.03397 0.1223 0.08153 0.31932 0.10191 0.42123l0.09511 0.36008c0.03397 0.12229 0.08832 0.34648 0.08832 0.36687 0 0.1087-0.08832 0.15626-0.16305 0.15626-0.08153 0-0.19023-0.0612-0.21741-0.19023z"/><path d="m27.357 700.71h0.48237c0.09511 0 0.15626 0 0.15626 0.10192 0 0.0679-0.06114 0.0679-0.14267 0.0679h-0.45519l0.17664 0.69977c0.0068 0.0204 0.01359 0.0475 0.01359 0.0679 0 0.0815-0.06114 0.14946-0.15626 0.14946-0.12229 0-0.19023-0.0815-0.2242-0.20381-0.03397-0.12229 0.02718 0.1087-0.18344-0.71336h-0.48237c-0.08832 0-0.14947 0-0.14947-0.1087 0-0.0612 0.05435-0.0612 0.13588-0.0612h0.45519l-0.27855-1.1142c-0.03397-0.12229-0.07473-0.29214-0.07473-0.35328 0-0.27856 0.23779-0.44841 0.50954-0.44841 0.52313 0 0.82886 0.65901 0.82886 0.72695 0 0.0612-0.06794 0.0612-0.08153 0.0612-0.05435 0-0.06114-0.0136-0.09511-0.0951-0.13588-0.29214-0.38046-0.5571-0.63863-0.5571-0.10191 0-0.16305 0.0612-0.16305 0.231 0 0.0475 0.01359 0.14267 0.02718 0.19023z"/><path d="m30.237 700.65-0.0068 0.0136-0.01359 0.0135-0.0068 0.0136-0.01359 0.0136-0.0068 0.0136-0.01359 0.0135-0.01359 0.0136-0.01359 0.0135-0.0068 0.0135-0.01359 7e-3 -0.01359 0.0135-0.01359 0.0136-0.01359 7e-3 -0.01359 0.0136-0.02038 7e-3 -0.01359 0.0136-0.01359 7e-3 -0.01359 0.0136-0.02038 7e-3 -0.01359 7e-3 -0.02038 7e-3 -0.01359 7e-3 -0.04076 0.014h-0.01359l-0.04076 0.014h-0.04076l-0.02038 7e-3h-0.04076v-0.13588c0.3329 0 0.42122-0.36008 0.42122-0.40763 0-0.0204-0.0068-0.0543-0.01359-0.0679l-0.22418-0.88562c-0.02718-0.13587-0.13588-0.2242-0.23779-0.31931-0.04756-0.034-0.23099-0.18344-0.44161-0.18344-0.17664 0-0.34649 0.12229-0.34649 0.45519 0 0.25138 0.14267 0.76772 0.25138 0.95795 0.21741 0.38046 0.46199 0.4484 0.59107 0.4484v0.13587c-0.60466 0-1.2229-0.6658-1.2229-1.3452 0-0.46199 0.30573-0.7881 0.71336-0.7881 0.25817 0 0.48916 0.14946 0.67939 0.3329 0.08832-0.28534 0.36008-0.3329 0.48916-0.3329 0.16985 0 0.28534 0.10191 0.37367 0.25138 0.10191 0.18344 0.16305 0.45519 0.16305 0.47557 0 0.0612-0.06114 0.0612-0.07473 0.0612-0.06794 0-0.06794-0.0204-0.10191-0.14947-0.06115-0.2242-0.14947-0.50276-0.34649-0.50276-0.12229 0-0.15626 0.10192-0.15626 0.231 0 0.0815 0.03397 0.25137 0.06794 0.37366 0.03397 0.1223 0.08153 0.31932 0.10191 0.42123l0.09511 0.36008c0.03397 0.12229 0.08832 0.34648 0.08832 0.36687 0 0.1087-0.08832 0.15626-0.16305 0.15626-0.08153 0-0.19023-0.0612-0.21741-0.19023z"/></g></g><g fill="#0042b7" fill-opacity=".76136" stroke="none"><circle transform="matrix(1 0 0 -1 -7.6909e-7 6.4335e-6)" cx="84.567" cy="-739.88" r=".56099" opacity=".97"/><circle transform="matrix(1 0 0 -1 -7.6909e-7 6.4335e-6)" cx="88.736" cy="-742.29" r=".56099" opacity=".97"/><circle transform="matrix(1 0 0 -1 -7.6909e-7 6.4335e-6)" cx="91.917" cy="-744.2" r=".56099" opacity=".97"/><circle transform="scale(1,-1)" cx="100.87" cy="-749.37" r=".56099" opacity=".97"/><circle transform="matrix(1 0 0 -1 -7.6909e-7 6.4335e-6)" cx="100.03" cy="-748.87" r=".56099" opacity=".97"/><circle transform="scale(1,-1)" cx="153.39" cy="-779.96" r=".56099" opacity=".97"/><circle transform="matrix(1 0 0 -1 -7.6909e-7 6.4335e-6)" cx="141.06" cy="-772.75" r=".56099" opacity=".97"/><circle transform="matrix(1 0 0 -1 -7.6909e-7 6.4335e-6)" cx="146.69" cy="-776.08" r=".56099" opacity=".97"/><circle transform="matrix(1 0 0 -1 -7.6909e-7 6.4335e-6)" cx="136.78" cy="-770.27" r=".56099" opacity=".97"/><circle transform="scale(1,-1)" cx="137.94" cy="-770.96" r=".56099" opacity=".97"/><circle transform="scale(1,-1)" cx="131.79" cy="-767.37" r=".56099" opacity=".97"/><circle transform="matrix(1 0 0 -1 -7.6909e-7 6.4335e-6)" cx="128.85" cy="-765.66" r=".56099" opacity=".97"/><circle transform="matrix(1 0 0 -1 -7.6909e-7 6.4335e-6)" cx="129.4" cy="-765.99" r=".56099" opacity=".97"/><circle transform="scale(1,-1)" cx="100.47" cy="-749.13" r=".56099" opacity=".97"/><circle transform="matrix(1 0 0 -1 -7.6909e-7 6.4335e-6)" cx="123.56" cy="-762.57" r=".56099" opacity=".97"/><circle transform="matrix(1 0 0 -1 -7.6909e-7 6.4335e-6)" cx="123.82" cy="-762.73" r=".56099" opacity=".97"/><circle transform="scale(1,-1)" cx="116.43" cy="-758.43" r=".56099" opacity=".97"/><circle transform="scale(1,-1)" cx="116.13" cy="-758.25" r=".56099" opacity=".97"/><circle transform="scale(1,-1)" cx="121.03" cy="-761.09" r=".56099" opacity=".97"/><circle transform="scale(1,-1)" cx="121.29" cy="-761.24" r=".56099" opacity=".97"/><circle transform="scale(1,-1)" cx="108.91" cy="-754.04" r=".56099" opacity=".97"/><circle transform="scale(1,-1)" cx="106.95" cy="-752.9" r=".56099" opacity=".97"/><circle transform="scale(1,-1)" cx="108.45" cy="-753.78" r=".56099" opacity=".97"/><circle transform="scale(1,-1)" cx="113.23" cy="-756.6" r=".56099" opacity=".97"/><circle transform="scale(1,-1)" cx="107.74" cy="-753.34" r=".56099" opacity=".97"/></g><g fill="#0042b7" fill-opacity=".76136" stroke="none"><circle transform="scale(1,-1)" cx="63.894" cy="-739.84" r=".56099" opacity=".97"/><circle transform="scale(1,-1)" cx="63.887" cy="-742.25" r=".56099" opacity=".97"/><circle transform="scale(1,-1)" cx="63.884" cy="-744.15" r=".56099" opacity=".97"/><circle transform="scale(1,-1)" cx="63.901" cy="-749.11" r=".56099" opacity=".97"/><circle transform="scale(1,-1)" cx="63.898" cy="-748.6" r=".56099" opacity=".97"/><circle transform="scale(1,-1)" cx="63.884" cy="-779.8" r=".56099" opacity=".97"/><circle transform="scale(1,-1)" cx="63.886" cy="-772.86" r=".56099" opacity=".97"/><circle transform="scale(1,-1)" cx="63.903" cy="-776.08" r=".56099" opacity=".97"/><circle transform="scale(1,-1)" cx="63.897" cy="-770.82" r=".56099" opacity=".97"/><circle transform="scale(1,-1)" cx="63.888" cy="-771.22" r=".56099" opacity=".97"/><circle transform="scale(1,-1)" cx="63.923" cy="-767.49" r=".56099" opacity=".97"/><circle transform="scale(1,-1)" cx="63.927" cy="-765.8" r=".56099" opacity=".97"/><circle transform="scale(1,-1)" cx="63.93" cy="-766.13" r=".56099" opacity=".97"/><circle transform="scale(1,-1)" cx="63.899" cy="-748.82" r=".56099" opacity=".97"/><circle transform="scale(1,-1)" cx="63.918" cy="-762.63" r=".56099" opacity=".97"/><circle transform="scale(1,-1)" cx="63.923" cy="-762.78" r=".56099" opacity=".97"/><circle transform="scale(1,-1)" cx="63.89" cy="-753.17" r=".56099" opacity=".97"/><circle transform="scale(1,-1)" cx="63.888" cy="-758.44" r=".56099" opacity=".97"/><circle transform="scale(1,-1)" cx="63.91" cy="-761.13" r=".56099" opacity=".97"/><circle transform="scale(1,-1)" cx="63.915" cy="-761.31" r=".56099" opacity=".97"/><circle transform="scale(1,-1)" cx="63.909" cy="-754.46" r=".56099" opacity=".97"/><circle transform="scale(1,-1)" cx="63.909" cy="-753.32" r=".56099" opacity=".97"/><circle transform="scale(1,-1)" cx="63.908" cy="-754.2" r=".56099" opacity=".97"/><circle transform="scale(1,-1)" cx="63.876" cy="-756.7" r=".56099" opacity=".97"/><circle transform="scale(1,-1)" cx="63.909" cy="-753.78" r=".56099" opacity=".97"/></g><circle transform="scale(1,-1)" cx="69.601" cy="-735.95" r=".56099" fill="#ff0001" fill-opacity=".42512" opacity=".97" stroke="none"/></g><path d="m159.67 781.31v-5.8895" fill="#008100" fill-opacity=".50758" marker-end="url(#marker2120)" marker-start="url(#marker2027)" stroke="#007f00" stroke-miterlimit="10.433" stroke-opacity=".68939" stroke-width=".37417"/><path d="m72.453 772.96v-14.535" fill="#a00001" fill-opacity=".5" marker-end="url(#marker2900)" marker-start="url(#marker2794)" stroke="#a00000" stroke-miterlimit="10.433" stroke-opacity=".31818" stroke-width=".54256"/><path d="m69.456 774.11h3.7024" fill="#c70001" fill-opacity=".7723" stroke="#c40000" stroke-opacity=".64137" stroke-width=".21156px"/><path d="m121.23 811.44-12.342-9.8167" fill="#a00001" fill-opacity=".5" marker-end="url(#marker2900-7)" marker-start="url(#marker2794-6)" stroke="#a00000" stroke-miterlimit="10.433" stroke-opacity=".31818" stroke-width=".57019"/><path d="m122.11 811.19v-9.2795" fill="#008100" fill-opacity=".50758" marker-end="url(#marker2120-9)" marker-start="url(#marker2027-1)" stroke="#007f00" stroke-miterlimit="10.433" stroke-opacity=".68939" stroke-width=".48557"/><g fill="#ff0001" fill-opacity=".42512" fill-rule="evenodd" stroke="none" stroke-dasharray="0.311849, 0.0519749" stroke-linecap="square" stroke-linejoin="bevel" stroke-miterlimit="10.433" stroke-opacity=".9372" stroke-width=".051975"><circle transform="scale(1,-1)" cx="69.603" cy="-772.65" r=".56099" opacity=".97"/><circle transform="scale(1,-1)" cx="69.622" cy="-777.82" r=".56099" opacity=".97"/><circle transform="scale(1,-1)" cx="69.603" cy="-760.26" r=".56099" opacity=".97"/><circle transform="scale(1,-1)" cx="69.608" cy="-769.23" r=".56099" opacity=".97"/><circle transform="scale(1,-1)" cx="69.625" cy="-770.25" r=".56099" opacity=".97"/><circle transform="scale(1,-1)" cx="69.603" cy="-783.48" r=".56099" opacity=".97"/><circle transform="scale(1,-1)" cx="69.608" cy="-741.87" r=".56099" opacity=".97"/><circle transform="scale(1,-1)" cx="69.621" cy="-753.7" r=".56099" opacity=".97"/><circle transform="scale(1,-1)" cx="69.609" cy="-739.05" r=".56099" opacity=".97"/><circle transform="scale(1,-1)" cx="69.6" cy="-737.88" r=".56099" opacity=".97"/><circle transform="scale(1,-1)" cx="69.625" cy="-750.43" r=".56099" opacity=".97"/><circle transform="scale(1,-1)" cx="69.661" cy="-747.21" r=".56099" opacity=".97"/><circle transform="scale(1,-1)" cx="69.603" cy="-755.99" r=".56099" opacity=".97"/><circle transform="scale(1,-1)" cx="69.599" cy="-755.58" r=".56099" opacity=".97"/><circle transform="scale(1,-1)" cx="69.595" cy="-754.88" r=".56099" opacity=".97"/><circle transform="scale(1,-1)" cx="69.588" cy="-763.01" r=".56099" opacity=".97"/><circle transform="scale(1,-1)" cx="69.565" cy="-764.15" r=".56099" opacity=".97"/><circle transform="scale(1,-1)" cx="69.601" cy="-765.54" r=".56099" opacity=".97"/><circle transform="scale(1,-1)" cx="69.584" cy="-764.96" r=".56099" opacity=".97"/><circle transform="scale(1,-1)" cx="69.621" cy="-769.79" r=".56099" opacity=".97"/><circle transform="scale(1,-1)" cx="69.583" cy="-767.83" r=".56099" opacity=".97"/><circle transform="scale(1,-1)" cx="69.598" cy="-766.6" r=".56099" opacity=".97"/><circle transform="scale(1,-1)" cx="69.603" cy="-749.22" r=".56099" opacity=".97"/><circle transform="scale(1,-1)" cx="69.66" cy="-746.79" r=".56099" opacity=".97"/><circle transform="scale(1,-1)" cx="69.603" cy="-758.1" r=".56099" opacity=".97"/><circle transform="scale(1,-1)" cx="69.603" cy="-760.9" r=".56099" opacity=".97"/><circle transform="scale(1,-1)" cx="69.606" cy="-771.83" r=".56099" opacity=".97"/><circle transform="scale(1,-1)" cx="69.603" cy="-768.53" r=".56099" opacity=".97"/><circle transform="scale(1,-1)" cx="69.614" cy="-752.1" r=".56099" opacity=".97"/><circle transform="scale(1,-1)" cx="69.605" cy="-745.1" r=".56099" opacity=".97"/><circle transform="scale(1,-1)" cx="69.605" cy="-744.65" r=".56099" opacity=".97"/></g><g fill-opacity=".42512" stroke-miterlimit="10.433"><g transform="matrix(1.0312,0,0,1,-2.157,0)" fill-rule="evenodd"><circle transform="scale(1,-1)" cx="69.586" cy="-753.07" r=".56099" fill="#ff0001" opacity=".97" stroke="none" stroke-dasharray="0.307093, 0.0511822" stroke-linecap="square" stroke-linejoin="bevel" stroke-opacity=".9372" stroke-width=".051182"/></g></g><g transform="matrix(.35278 0 0 .35278 64.404 57.554)" ns0:alignment="middle center" ns0:jacobian_sqrt="0.352778" ns0:pdfconverter="inkscape" ns0:preamble="C:\\Users\\User\\AppData\\Roaming\\inkscape\\extensions\\textext\\default_packages.tex" ns0:scale="1.0" ns0:texconverter="pdflatex" ns0:text="$$res$$" ns0:version="1.1.0"><defs id="id-322fddf6-2bcb-4693-a6cc-1e9bb8f0b83b">

  </defs>
  <g id="id-3e1f9b78-5edb-4fdc-864e-2758bacb3d0c" transform="translate(-298.88 -142.31)">
    <g id="id-b732c7e0-106a-41d2-93cb-ffe0685cec1b">
      </g>


  </g>
</g></g>
  <path d="m4.5569 109.86v14.207" fill="#0042b7" fill-opacity=".67045" marker-end="url(#marker5087)" marker-start="url(#marker4951)" stroke="#003e89" stroke-miterlimit="10.433" stroke-opacity=".7197" stroke-width=".52459"/>
  <path d="m2.5161 108.77h5.3868" fill="#006e00" fill-opacity=".88826" stroke-width=".28538px"/>
 </g>
 <circle cx="24.126" cy="37.592" r=".70157" fill="#ff0001" fill-opacity=".42512" opacity=".97"/>
 <g transform="matrix(.35278 0 0 .35278 44.628 52.932)" ns0:alignment="middle center" ns0:jacobian_sqrt="0.352778" ns0:pdfconverter="inkscape" ns0:preamble="C:\\Users\\User\\AppData\\Roaming\\inkscape\\extensions\\textext\\default_packages.tex" ns0:scale="1.0" ns0:texconverter="pdflatex" ns0:text="$$\\sigma_{res}$$\n$$\\sigma_{reg}$$" ns0:version="1.1.0">
  <defs></defs>
  <g transform="translate(-296.99 -142.42)">
   <g transform="translate(296.8 146.72)">
    <path d="m277.5-39.337c0.25006 0 0.88909 0 0.88909-0.61125 0-0.41676-0.38898-0.41676-0.6946-0.41676h-4.0565c-2.6673 0-4.64 2.9173-4.64 5.0289 0 1.5559 1.0558 2.8062 2.6673 2.8062 2.0838 0 4.4455-2.1394 4.4455-4.8622 0-0.30562 0-1.1669-0.55568-1.9449zm-5.8069 6.4181c-0.88909 0-1.5837-0.63904-1.5837-1.9171 0-0.5279 0.19449-1.9727 0.83353-3.0285 0.75017-1.2225 1.806-1.4726 2.4172-1.4726 1.4726 0 1.6115 1.1669 1.6115 1.7226 0 0.83352-0.36119 2.2783-0.94466 3.1952-0.6946 1.028-1.667 1.5003-2.3339 1.5003z" fill="#005900" fill-opacity=".93939"/>
   </g>
   <g transform="translate(302.49 148.21)">
    <path id="id-58f42139-2795-4cb2-93bc-fcea783f6e4b" d="m275.68-34.063c0-0.08335 0.30563-1.1947 0.30563-1.2503 0.0278-0.11114 0.38898-0.72239 0.80574-1.028 0.11114-0.08335 0.44454-0.33341 1.0002-0.33341 0.11114 0 0.41676 0 0.66682 0.1667-0.38898 0.11114-0.5279 0.47233-0.5279 0.6946 0 0.25006 0.19449 0.44455 0.47233 0.44455 0.30562 0 0.6946-0.22227 0.6946-0.75017 0-0.63904-0.66682-0.91688-1.3058-0.91688-0.63904 0-1.1947 0.27784-1.7504 0.88909-0.22228-0.75017-0.97245-0.88909-1.2781-0.88909-0.44455 0-0.75017 0.30562-0.97245 0.63904-0.27784 0.47233-0.44454 1.1947-0.44454 1.2781 0 0.13892 0.1667 0.13892 0.22227 0.13892 0.16671 0 0.16671-0.02778 0.25006-0.36119 0.19449-0.75017 0.44454-1.3336 0.91687-1.3336 0.33341 0 0.41677 0.27784 0.41677 0.61125 0 0.22227-0.11114 0.6946-0.22228 1.028-0.0834 0.33341-0.19449 0.83352-0.25005 1.1114l-0.41677 1.5837c-0.0278 0.1667-0.11114 0.47233-0.11114 0.50011 0 0.27784 0.22228 0.38898 0.41676 0.38898 0.19449 0 0.44455-0.11114 0.5279-0.33341 0.0278-0.08335 0.16671-0.63903 0.25006-0.94466z" fill="#005900" fill-opacity=".93939"/>
   </g>
   <g id="id-f23efdae-c1fc-4364-a1d8-b8661b04f01f">
    <g transform="translate(306.41 148.21)">
     <path d="m278.59-34.396c0.33341 0 1.3336-0.02778 2.0005-0.25006 0.91687-0.33341 1.0836-0.91688 1.0836-1.2781 0-0.6946-0.6946-1.1114-1.5281-1.1114-1.5003 0-3.5008 1.1391-3.5008 3.2785 0 1.2503 0.77796 2.3061 2.2227 2.3061 2.1116 0 3.084-1.2225 3.084-1.3892 0-0.08335-0.11114-0.22227-0.22227-0.22227-0.0556 0-0.0834 0.02778-0.19449 0.13892-0.97245 1.1391-2.4172 1.1391-2.6395 1.1391-0.75017 0-1.2503-0.50011-1.2503-1.5003 0-0.1667 0-0.41676 0.16671-1.1114zm-0.6946-0.33341c0.5279-1.806 1.8893-1.9449 2.2505-1.9449 0.5279 0 1.0002 0.27784 1.0002 0.75017 0 1.1947-2.1116 1.1947-2.6395 1.1947z" fill="#005900" fill-opacity=".93939"/>
    </g>
    <g transform="translate(310.19 148.21)">
     <path d="m284.09-36.23c-0.30562 0.08335-0.52789 0.33341-0.52789 0.58347 0 0.30562 0.25005 0.41676 0.41676 0.41676 0.13892 0 0.61125-0.08335 0.61125-0.72239 0-0.80574-0.88909-1.0836-1.667-1.0836-1.9171 0-2.2783 1.4448-2.2783 1.806 0 0.47233 0.27784 0.77796 0.44455 0.91688 0.30563 0.25006 0.5279 0.30562 1.3892 0.44454 0.27784 0.05557 1.0558 0.19449 1.0558 0.80574 0 0.22227-0.13892 0.6946-0.63903 1.0002-0.50012 0.27784-1.1114 0.27784-1.2503 0.27784-0.50011 0-1.1947-0.11114-1.5003-0.5279 0.41676-0.05557 0.6946-0.36119 0.6946-0.6946 0-0.30562-0.22227-0.47233-0.47233-0.47233-0.36119 0-0.72238 0.30562-0.72238 0.83352 0 0.75017 0.77795 1.1947 1.9727 1.1947 2.3061 0 2.7228-1.5559 2.7228-2.0282 0-1.1391-1.2503-1.3614-1.7226-1.4448-0.11114-0.02778-0.41677-0.08335-0.50012-0.11114-0.44454-0.08335-0.66682-0.33341-0.66682-0.61125s0.22228-0.61125 0.50012-0.80574c0.33341-0.19449 0.75017-0.22227 0.97244-0.22227 0.25006 0 0.88909 0.02778 1.1669 0.44455z" fill="#005900" fill-opacity=".93939"/>
    </g>
   </g>
   <g id="id-97dcd98b-0619-4b16-8fda-bba87576445d">
    <g transform="translate(296.61 164.65)">
     <path d="m-116.91-9.1164c0.27124 0 0.9644 0 0.9644-0.66303 0-0.45206-0.42192-0.45206-0.75343-0.45206h-4.4001c-2.8932 0-5.033 3.1644-5.033 5.4549 0 1.6877 1.1452 3.0439 2.8932 3.0439 2.2603 0 4.822-2.3206 4.822-5.2741 0-0.33151 0-1.2658-0.60275-2.1096zm-6.2988 6.9618c-0.96441 0-1.7178-0.69316-1.7178-2.0795 0-0.57261 0.21097-2.1398 0.90413-3.285 0.81372-1.3261 1.9589-1.5973 2.622-1.5973 1.5973 0 1.748 1.2658 1.748 1.8685 0 0.90413-0.39179 2.4713-1.0247 3.4658-0.75344 1.1151-1.8082 1.6274-2.5316 1.6274z" fill="#0042b7" fill-opacity=".88636"/>
    </g>
   </g>
   <g transform="translate(302.31 166.15)">
    <path id="id-6d0b82c1-faa7-424c-9e01-80f7b29f2d7e" d="m-118.4-3.2684c0-0.09041 0.33151-1.2959 0.33151-1.3562 0.0301-0.12055 0.42192-0.78358 0.87399-1.1151 0.12055-0.09041 0.4822-0.36165 1.085-0.36165 0.12055 0 0.45207 0 0.7233 0.18082-0.42192 0.12055-0.57261 0.51234-0.57261 0.75344 0 0.27124 0.21096 0.4822 0.51234 0.4822 0.33151 0 0.75344-0.2411 0.75344-0.81372 0-0.69316-0.7233-0.99454-1.4165-0.99454-0.69316 0-1.2959 0.30138-1.8987 0.9644-0.2411-0.81372-1.0548-0.9644-1.3863-0.9644-0.4822 0-0.81371 0.33151-1.0548 0.69316-0.30138 0.51234-0.4822 1.2959-0.4822 1.3863 0 0.15069 0.18082 0.15069 0.2411 0.15069 0.18082 0 0.18082-0.03014 0.27124-0.39179 0.21096-0.81372 0.4822-1.4466 0.99454-1.4466 0.36165 0 0.45206 0.30138 0.45206 0.66303 0 0.2411-0.12055 0.75344-0.2411 1.1151-0.0904 0.36165-0.21096 0.90413-0.27124 1.2055l-0.45206 1.7178c-0.0301 0.18083-0.12055 0.51234-0.12055 0.54248 0 0.30138 0.2411 0.42193 0.45206 0.42193s0.4822-0.12055 0.57262-0.36165c0.0301-0.090413 0.18082-0.69316 0.27123-1.0247z" fill="#0042b7" fill-opacity=".88636"/>
   </g>
   <g transform="translate(306.22 166.15)">
    <path d="m-114.92-3.63c0.36165 0 1.4466-0.03014 2.1699-0.27124 0.99454-0.36165 1.1754-0.99454 1.1754-1.3863 0-0.75344-0.75344-1.2055-1.6576-1.2055-1.6274 0-3.7973 1.2356-3.7973 3.5562 0 1.3562 0.84385 2.5014 2.411 2.5014 2.2904 0 3.3453-1.3261 3.3453-1.5069 0-0.090413-0.12055-0.2411-0.2411-0.2411-0.0603 0-0.0904 0.030138-0.21096 0.15069-1.0548 1.2356-2.622 1.2356-2.8631 1.2356-0.81371 0-1.3562-0.54248-1.3562-1.6274 0-0.18082 0-0.45206 0.18083-1.2055zm-0.75344-0.36165c0.57262-1.9589 2.0494-2.1096 2.4412-2.1096 0.57261 0 1.085 0.30138 1.085 0.81372 0 1.2959-2.2905 1.2959-2.8631 1.2959z" fill="#0042b7" fill-opacity=".88636"/>
   </g>
   <g transform="translate(310 166.15)">
    <path d="m-107.28-5.5287c0.0603-0.18083 0.0603-0.2411 0.0603-0.27124 0-0.30138-0.2411-0.42193-0.45207-0.42193-0.30137 0-0.57261 0.2411-0.63289 0.51234-0.21096-0.36165-0.66302-0.78358-1.3863-0.78358-1.6576 0-3.4357 1.8083-3.4357 3.7371 0 1.3863 0.93426 2.2 2.0494 2.2 0.63288 0 1.2055-0.30138 1.6877-0.7233l-0.30138 1.2055c-0.15068 0.57261-0.2411 0.93427-0.75343 1.3863-0.60276 0.4822-1.1754 0.4822-1.5069 0.4822-0.60276 0-0.78358-0.030138-1.0247-0.090413 0.33151-0.15069 0.42192-0.4822 0.42192-0.66303 0-0.33151-0.2411-0.4822-0.51233-0.4822-0.39179 0-0.78358 0.30138-0.78358 0.81371 0 0.81371 1.1754 0.81371 1.9288 0.81371 2.1096 0 2.9836-1.085 3.1946-1.8384zm-1.8384 3.1946c-0.0603 0.18083-0.0603 0.21096-0.30137 0.4822-0.45207 0.57261-1.1151 0.93427-1.6274 0.93427-0.66303 0-0.99454-0.60275-0.99454-1.2959 0-0.57261 0.36165-2.0795 0.7233-2.6822 0.54248-0.93426 1.1754-1.2055 1.6274-1.2055 0.9644 0 1.2055 0.99454 1.2055 1.1452 0 0.03014 0 0.03014-0.0301 0.18083z" fill="#0042b7" fill-opacity=".88636"/>
   </g>
  </g>
 </g>
 <path d="m133.66 46.517h3.3772" fill="#007f00" fill-opacity=".74018" stroke="#008300" stroke-opacity=".79167" stroke-width=".22596px"/>
 <path d="m133.53 37.029h3.3772" fill="#007f00" fill-opacity=".74018" stroke="#008300" stroke-opacity=".79167" stroke-width=".22596px"/>
 <path d="m12.394 51.806h4.6302" fill="#0042b7" fill-opacity=".76136" stroke="#00158a" stroke-opacity=".70076" stroke-width=".26458px"/>
 <g transform="matrix(.35278 0 0 .35278 77.533 9.028)" ns0:alignment="middle center" ns0:inkscapeversion="1.0" ns0:jacobian_sqrt="0.352778" ns0:pdfconverter="inkscape" ns0:preamble="C:\\Users\\User\\AppData\\Roaming\\inkscape\\extensions\\textext\\default_packages.tex" ns0:scale="1.0" ns0:texconverter="pdflatex" ns0:text="$$R^2$$" ns0:version="1.1.0">
  <defs id="id-0153e3eb-6c23-4525-be18-3a0b1cc45dcd"></defs>
  <g transform="translate(-299.97 -137.98)">
   <g transform="translate(299.57 146.72)">
    <path id="id-b644513b-4628-4432-8859-d80240ae95ea" d="m4.4023-4.1824c0.066808-0.25052 0.10021-0.35073 0.30062-0.38413 0.10021-0.016701 0.43423-0.016701 0.65135-0.016701 0.75155 0 1.9373 0 1.9373 1.0522 0 0.36743-0.16701 1.1023-0.58454 1.5198-0.28392 0.26722-0.83506 0.61794-1.8037 0.61794h-1.1858zm1.5365 2.9227c1.0856-0.23382 2.3382-0.98537 2.3382-2.0542 0-0.91857-0.95197-1.6033-2.3549-1.6033h-3.0229c-0.21712 0-0.31732 0-0.31732 0.21712 0 0.11691 0.10021 0.11691 0.30062 0.11691 0.016701 0 0.21712 0 0.40083 0.016701 0.20041 0.033402 0.28392 0.033402 0.28392 0.18371 0 0.033402 0 0.066804-0.033402 0.20041l-1.4363 5.7118c-0.10021 0.41753-0.11691 0.50104-0.96867 0.50104-0.18371 0-0.28392 0-0.28392 0.21712 0 0.11691 0.13361 0.11691 0.15031 0.11691 0.30062 0 1.0522-0.0334 1.3361-0.0334 0.30062 0 1.0689 0.0334 1.3695 0.0334 0.083506 0 0.20041 0 0.20041-0.21712 0-0.11691-0.083506-0.11691-0.30062-0.11691-0.38413 0-0.68475 0-0.68475-0.18371 0-0.066808 0.016701-0.11691 0.033402-0.18371l0.70145-2.8225h1.2693c0.96867 0 1.1524 0.60124 1.1524 0.96867 0 0.15031-0.083506 0.48433-0.15031 0.73485-0.066808 0.30062-0.16701 0.68475-0.16701 0.90187 0 1.1524 1.286 1.1524 1.4196 1.1524 0.90186 0 1.286-1.0689 1.286-1.2192 0-0.13361-0.11691-0.13361-0.13361-0.13361-0.10021 0-0.11691 0.066808-0.13361 0.15031-0.26722 0.78496-0.73485 0.96867-0.96867 0.96867-0.35073 0-0.43423-0.23382-0.43423-0.65135 0-0.33402 0.066808-0.86846 0.11691-1.2192 0.0167-0.15031 0.0334-0.35073 0.0334-0.50104 0-0.81836-0.71815-1.1524-1.0021-1.2526z"/>
   </g>
   <g id="id-5bffe968-e2ec-44bd-97f8-3bb1cfd7242f"></g>
  </g>
 </g>
 <g>
  <path d="m76.688 10.853-4.1475 3.0588 4.7523-0.13825c0.2922-0.97279 0.42354-1.7201-0.60485-2.9205z" fill-opacity=".31061" stroke="#000" stroke-opacity=".26894" stroke-width=".28281"/>
  <rect x="87.503" y="11.599" width="2.2924" height="2.4879" fill-opacity=".31061" fill-rule="evenodd" stroke="#000" stroke-opacity=".26894" stroke-width=".2633"/>
  <path d="m88.739 14.006h-15.411" fill="#0042b7" fill-opacity=".67046" marker-end="url(#marker5087-8)" marker-start="url(#marker4951-03)" stroke="#003e89" stroke-miterlimit="10.433" stroke-opacity=".7197" stroke-width=".54636"/>
 </g>
 <g transform="matrix(.62935 0 0 .62935 2.569 65.864)" ns0:alignment="middle center" ns0:inkscapeversion="1.0" ns0:jacobian_sqrt="0.352778" ns0:pdfconverter="inkscape" ns0:preamble="C:\\Users\\User\\AppData\\Roaming\\inkscape\\extensions\\textext\\default_packages.tex" ns0:scale="1.0" ns0:texconverter="pdflatex" ns0:text="$$\\langle y \\rangle$$" ns0:version="1.1.0">
  <defs id="id-32235ed0-9d62-42d9-8e92-a62efbeca28a"></defs>
  <g id="id-d23a76bc-7118-4a5e-87e3-831f6f0f648c" transform="translate(-300.22 -139.24)">
   <g id="id-00417a8e-bc99-47b0-9e4c-6984532dfd9e">
    <g transform="translate(299.13 146.72)">
     <path d="m3.2656-7.0938c0.046875-0.10938 0.046875-0.14062 0.046875-0.1875 0-0.10938-0.078125-0.20312-0.1875-0.20312-0.09375 0-0.17188 0.0625-0.23438 0.23438l-1.75 4.5781c-0.015625 0.0625-0.046875 0.125-0.046875 0.17188 0 0.03125 0 0.0625 0.046875 0.17188l1.75 4.5781c0.046875 0.10938 0.09375 0.25 0.23438 0.25 0.10938 0 0.1875-0.09375 0.1875-0.20312 0-0.03125 0-0.046875-0.046875-0.15625l-1.7656-4.6406z"/>
    </g>
   </g>
   <g transform="translate(303 146.72)">
    <path d="m4.8438-3.7969c0.046875-0.14062 0.046875-0.15625 0.046875-0.23438 0-0.17188-0.14062-0.26562-0.29688-0.26562-0.09375 0-0.25 0.0625-0.34375 0.20312-0.015625 0.0625-0.10938 0.35938-0.14062 0.54688-0.078125 0.25-0.14062 0.53125-0.20312 0.79688l-0.45312 1.7969c-0.03125 0.14062-0.46875 0.84375-1.125 0.84375-0.5 0-0.60938-0.4375-0.60938-0.8125 0-0.45312 0.17188-1.0781 0.5-1.9531 0.15625-0.40625 0.20312-0.51562 0.20312-0.71875 0-0.4375-0.3125-0.8125-0.8125-0.8125-0.95312 0-1.3125 1.4531-1.3125 1.5312 0 0.10938 0.09375 0.10938 0.10938 0.10938 0.10938 0 0.10938-0.03125 0.15625-0.1875 0.28125-0.9375 0.67188-1.2344 1.0156-1.2344 0.078125 0 0.25 0 0.25 0.3125 0 0.25-0.10938 0.51562-0.17188 0.70312-0.40625 1.0625-0.57812 1.625-0.57812 2.0938 0 0.89062 0.625 1.1875 1.2188 1.1875 0.39062 0 0.71875-0.17188 1-0.45312-0.125 0.51562-0.25 1.0156-0.64062 1.5469-0.26562 0.32812-0.64062 0.625-1.0938 0.625-0.14062 0-0.59375-0.03125-0.76562-0.42188 0.15625 0 0.29688 0 0.42188-0.125 0.10938-0.078125 0.20312-0.21875 0.20312-0.40625 0-0.3125-0.26562-0.34375-0.35938-0.34375-0.23438 0-0.5625 0.15625-0.5625 0.64062 0 0.5 0.4375 0.875 1.0625 0.875 1.0156 0 2.0469-0.90625 2.3281-2.0312z"/>
   </g>
   <g id="id-dad069d1-f001-4a83-bbcb-84429193cf6e">
    <g transform="translate(308.24 146.72)">
     <path d="m2.7188-2.3281c0.046875-0.10938 0.046875-0.14062 0.046875-0.17188 0-0.015625 0-0.046875-0.046875-0.15625l-1.7344-4.5938c-0.0625-0.17188-0.125-0.23438-0.23438-0.23438s-0.20312 0.09375-0.20312 0.20312c0 0.03125 0 0.046875 0.046875 0.15625l1.7656 4.625-1.7656 4.6094c-0.046875 0.10938-0.046875 0.14062-0.046875 0.1875 0 0.10938 0.09375 0.20312 0.20312 0.20312 0.125 0 0.17188-0.10938 0.20312-0.20312z"/>
    </g>
   </g>
  </g>
 </g>
</svg>
