<?xml version="1.0" encoding="UTF-8"?>
<svg width="160mm" height="125mm" version="1.1" viewBox="0 0 146.15 113.98" xmlns="http://www.w3.org/2000/svg" xmlns:cc="http://creativecommons.org/ns#" xmlns:dc="http://purl.org/dc/elements/1.1/" xmlns:ns0="http://www.iki.fi/pav/software/textext/" xmlns:rdf="http://www.w3.org/1999/02/22-rdf-syntax-ns#">
 <metadata>
  <rdf:RDF>
   <cc:Work rdf:about="">
    <dc:format>image/svg+xml</dc:format>
    <dc:type rdf:resource="http://purl.org/dc/dcmitype/StillImage"/>
    <dc:title/>
   </cc:Work>
  </rdf:RDF>
 </metadata>
 <defs>
  <marker id="a" overflow="visible" orient="auto">
   <path transform="matrix(-.4 0 0 -.4 -4 0)" d="m0 0 5-5-17.5 5 17.5 5z" fill-rule="evenodd" stroke="#000" stroke-width="1pt"/>
  </marker>
  <marker id="b" overflow="visible" orient="auto">
   <path transform="matrix(-.4 0 0 -.4 -4 0)" d="m0 0 5-5-17.5 5 17.5 5z" fill-rule="evenodd" stroke="#000" stroke-width="1pt"/>
  </marker>
 </defs>
 <g transform="translate(-3.923 -63.854)">
  <g transform="matrix(1.2506,0,0,-1.2506,-72.165,1072.2)" fill-rule="evenodd" stroke="#000" stroke-miterlimit="10.433" ns0:preamble="default_packages.tex" ns0:text="$x$\n$y$\n" xml:space="preserve"><circle transform="scale(1,-1)" cx="120.92" cy="-763.29" r=".56099" fill="#ff0001" fill-opacity=".42512" fill-rule="evenodd" opacity=".97" stroke="none" stroke-dasharray="0.31184934, 0.05197489" stroke-linecap="square" stroke-linejoin="bevel" stroke-opacity=".9372" stroke-width=".051975"/><ellipse transform="scale(1,-1)" cx="96.685" cy="-754.78" rx=".57502" ry=".56099" fill="#ff0001" fill-opacity=".42512" fill-rule="evenodd" opacity=".97" stroke="none" stroke-dasharray="0.31184934, 0.05197489" stroke-linecap="square" stroke-linejoin="bevel" stroke-opacity=".9372" stroke-width=".051975"/><g fill="none" stroke="#000" stroke-miterlimit="10.433"><path d="m69.613 717.63v87.044" marker-end="url(#a)" stroke-opacity=".7451" stroke-width=".27848"/><path d="m65.368 722.62h92.182" marker-end="url(#b)" stroke-opacity=".7451" stroke-width=".27848"/><path d="m114.11 720.55v78.046" stroke-opacity=".15942" stroke-width=".43824"/><path d="m67.626 757.1h84.203" stroke-opacity=".15942" stroke-width=".43824"/></g><g id="content" transform="matrix(1.5,0,0,1.5,-311.17,-218.43)" fill-rule="evenodd" ns0:preamble="default_packages.tex" ns0:text="$x$\n$y$\n$\\langle y \\rangle$\n$\\langle x \\rangle$\n$\\text{Point of averages}$\n$\\text{Regression line}$\n$\\text{SD line}$\n$\\rho(x,y)\\sigma_y$\n$\\sigma_x$\n" xml:space="preserve"><g stroke-opacity="0"><path d="m312.42 625.66 4e-3 7e-3 3e-3 0.0105v0.0106l3e-3 0.014 4e-3 0.014 7e-3 0.014 3e-3 0.014 4e-3 0.0175 7e-3 0.014 7e-3 0.0176 7e-3 0.0175 0.014 0.0352 7e-3 0.0175 0.0212 0.0352 0.0106 0.0175 0.0105 0.014 0.0106 0.0176 0.014 0.014 0.0106 0.0175 0.014 0.014 0.0175 0.014 0.014 0.0106 0.0176 0.0105 0.014 0.0106 0.0105 3e-3 0.0106 7e-3 7e-3 3e-3 0.0106 4e-3 0.0106 3e-3h0.0106l7e-3 4e-3 0.0106 3e-3h0.0245l0.0106 3e-3h0.0106c0.0175 0 0.10198 0 0.17582-0.0457-0.0985-0.0175-0.16878-0.1055-0.16878-0.18989 0-0.0563 0.0386-0.12308 0.13362-0.12308 0.0774 0 0.18988 0.0633 0.18988 0.20396 0 0.18285-0.20746 0.23208-0.32703 0.23208-0.20394 0-0.32702-0.18637-0.36922-0.26725-0.0879 0.23209-0.27428 0.26725-0.37625 0.26725-0.36571 0-0.56615-0.45361-0.56615-0.53801 0-0.0352 0.0352-0.0352 0.0421-0.0352 0.0281 0 0.0387 7e-3 0.0457 0.0386 0.11955 0.36923 0.35164 0.45714 0.4712 0.45714 0.0668 0 0.18637-0.0317 0.18637-0.2356 0-0.10901-0.0598-0.34109-0.18637-0.82988-0.0563-0.21802-0.17934-0.36571-0.33406-0.36571-0.0211 0-0.10197 0-0.17582 0.0457 0.0879 0.0176 0.16527 0.0914 0.16527 0.18989 0 0.0949-0.0774 0.12307-0.13011 0.12307-0.10549 0-0.1934-0.0914-0.1934-0.20395 0-0.16176 0.17582-0.22857 0.33054-0.22857 0.23208 0 0.35868 0.24263 0.36922 0.26373 0.0387-0.13011 0.16528-0.26373 0.37627-0.26373 0.36219 0 0.56262 0.45011 0.56262 0.53801 0 0.0352-0.0317 0.0352-0.0421 0.0352-0.0317 0-0.0387-0.0176-0.0457-0.0386-0.11604-0.37626-0.35515-0.46066-0.46768-0.46066-0.13714 0-0.1934 0.11253-0.1934 0.23209 0 0.0774 0.0211 0.15472 0.0598 0.30593z" fill-opacity=".7451"/><path d="m253.12 682.42v4e-3l4e-3 4e-3v0.011l3e-3 4e-3v7e-3l4e-3 3e-3v0.014l3e-3 4e-3v0.033c0 0.0675-0.0525 0.10125-0.10876 0.10125-0.0375 0-0.0975-0.0225-0.13127-0.0788-8e-3 -0.0187-0.0375-0.13502-0.0525-0.20252-0.0262-0.0975-0.0525-0.19502-0.075-0.29628l-0.16876-0.67131c-0.015-0.0562-0.17627-0.31878-0.42004-0.31878-0.19127 0-0.23252 0.16501-0.23252 0.30377 0 0.17252 0.0637 0.4013 0.19127 0.73132 0.06 0.15002 0.075 0.19128 0.075 0.26628 0 0.16876-0.12 0.30753-0.30752 0.30753-0.35629 0-0.49505-0.54005-0.49505-0.57381 0-0.0375 0.0375-0.0375 0.045-0.0375 0.0375 0 0.0412 8e-3 0.06 0.0675 0.10125 0.34878 0.25127 0.46129 0.37878 0.46129 0.03 0 0.0938 0 0.0938-0.12001 0-0.0938-0.0375-0.19126-0.0637-0.26252-0.15001-0.39379-0.21752-0.60756-0.21752-0.78008 0-0.33377 0.23628-0.44253 0.45755-0.44253 0.14626 0 0.27002 0.06 0.37503 0.16501-0.0488-0.19127-0.0938-0.37503-0.24002-0.57381-0.0975-0.1275-0.24002-0.23252-0.41254-0.23252-0.0525 0-0.22127 0.0113-0.28503 0.15377 0.06 0 0.10877 0 0.16126 0.045 0.0375 0.0338 0.075 0.0825 0.075 0.15377 0 0.11626-0.10126 0.13126-0.13875 0.13126-0.0863 0-0.21003-0.06-0.21003-0.24377s0.16502-0.32253 0.39754-0.32253c0.38628 0 0.76882 0.33753 0.87383 0.75757z" fill-opacity=".7451" stroke="none"/><g fill-opacity=".78431"><g stroke="none"><path d="m249.21 651.86 3e-3 3e-3v6e-3h3e-3v6e-3l3e-3 3e-3v6e-3h3e-3v9e-3h3e-3v0.021c0 0.0355-0.0291 0.0646-0.0646 0.0646-0.0291 0-0.0517-0.0161-0.0744-0.0744l-0.56242-1.4739c-6e-3 -0.0194-0.0161-0.0388-0.0161-0.0582 0-0.01 0-0.0161 0.0161-0.0549l0.56242-1.4739c0.0129-0.0355 0.0292-0.0776 0.0744-0.0776 0.0356 0 0.0646 0.0291 0.0646 0.0646 0 0.01 0 0.0161-0.0161 0.0518l-0.56888 1.4901z"/><path d="m250.98 650.79v3e-3l3e-3 3e-3v9e-3l3e-3 3e-3v6e-3l3e-3 3e-3v0.012l3e-3 3e-3v0.027c0 0.0582-0.0452 0.0873-0.0937 0.0873-0.0323 0-0.084-0.0194-0.11313-0.0678-6e-3 -0.0161-0.0323-0.11637-0.0452-0.17454-0.0226-0.084-0.0452-0.16809-0.0646-0.25536l-0.14545-0.57858c-0.0129-0.0485-0.14869-0.27475-0.36202-0.27475-0.16485 0-0.2004 0.14222-0.2004 0.26182 0 0.14868 0.055 0.34586 0.16485 0.6303 0.0517 0.12929 0.0646 0.16484 0.0646 0.22949 0 0.14545-0.10343 0.26505-0.26504 0.26505-0.30707 0-0.42667-0.46545-0.42667-0.49454 0-0.0324 0.0324-0.0324 0.0387-0.0324 0.0323 0 0.0355 6e-3 0.0517 0.0582 0.0873 0.30061 0.21656 0.39758 0.32646 0.39758 0.0258 0 0.0808 0 0.0808-0.10343 0-0.0808-0.0324-0.16484-0.0549-0.22626-0.12929-0.33939-0.18748-0.52363-0.18748-0.67232 0-0.28767 0.20364-0.38141 0.39435-0.38141 0.12606 0 0.23595 0.0518 0.32322 0.14223-0.0387-0.16486-0.0808-0.32323-0.20686-0.49455-0.084-0.10989-0.20687-0.2004-0.35556-0.2004-0.0452 0-0.19071 0.01-0.24564 0.13252 0.0517 0 0.0937 0 0.13898 0.0388 0.0323 0.0291 0.0646 0.0711 0.0646 0.13254 0 0.10019-0.0873 0.11312-0.11961 0.11312-0.0744 0-0.181-0.0517-0.181-0.21009 0-0.1584 0.14222-0.27798 0.34262-0.27798 0.33293 0 0.66262 0.29089 0.75313 0.65291z"/><path d="m251.98 650.32v6e-3h3e-3v6e-3h3e-3v9e-3h3e-3v6e-3l3e-3 3e-3v9e-3h3e-3v0.012c0 0.01 0 0.0162-0.0161 0.055l-0.56566 1.4772c-0.0194 0.0549-0.0387 0.0744-0.0744 0.0744-0.0355 0-0.0646-0.0291-0.0646-0.0646 0-0.01 0-0.0161 0.0161-0.0517l0.57212-1.4901-0.57212-1.4836c-0.0161-0.0355-0.0161-0.042-0.0161-0.0582 0-0.0355 0.0291-0.0646 0.0646-0.0646 0.042 0 0.055 0.0323 0.0678 0.0646z"/></g><path d="m282.68 625.88v2e-3h2e-3v5e-3h3e-3v5e-3l2e-3 3e-3v4e-3l2e-3 3e-3v7e-3h3e-3v0.015c0 0.0343-0.0281 0.0624-0.0624 0.0624-0.0281 0-0.05-0.0156-0.0718-0.0718l-0.54593-1.4226c-2e-3 -0.0187-0.0125-0.0375-0.0125-0.0561 0-9e-3 0-0.0156 0.0125-0.053l0.54593-1.4226c0.0125-0.0343 0.0281-0.0749 0.0718-0.0749 0.0343 0 0.0624 0.0281 0.0624 0.0624 0 9e-3 0 0.0156-0.0156 0.0499l-0.55218 1.4382z"/><path d="m283.91 624.61v7e-3l6e-3 0.018 2e-3 0.0125 3e-3 0.0125 2e-3 0.0125 3e-3 0.0125 7e-3 0.0156 3e-3 0.0125 0.028 0.0624 9e-3 0.0156 7e-3 0.0156 0.018 0.0312 9e-3 0.0125 0.0125 0.0156 9e-3 0.0125 0.0125 0.0156 0.025 0.025 0.0125 9e-3 0.0312 0.018 7e-3 2e-3 9e-3 7e-3 9e-3 2e-3 7e-3 3e-3 9e-3 2e-3h9e-3l9e-3 3e-3 9e-3 2e-3h0.018l9e-3 2e-3h9e-3c0.0156 0 0.0905 0 0.15599-0.0406-0.0873-0.0156-0.14974-0.0936-0.14974-0.16846 0-0.0499 0.0343-0.1092 0.11854-0.1092 0.0686 0 0.16846 0.0561 0.16846 0.18094 0 0.16223-0.18406 0.2059-0.29013 0.2059-0.17782 0-0.287-0.16534-0.32444-0.2371-0.078 0.2059-0.24645 0.2371-0.33692 0.2371-0.32444 0-0.50226-0.40242-0.50226-0.47731 0-0.0312 0.0312-0.0312 0.0374-0.0312 0.0249 0 0.0343 7e-3 0.0406 0.0343 0.10608 0.32756 0.31197 0.40556 0.41804 0.40556 0.0592 0 0.16846-0.0281 0.16846-0.20902 0-0.0967-0.053-0.30261-0.16846-0.73624-0.05-0.19342-0.15911-0.32445-0.29636-0.32445-0.0188 0-0.0905 0-0.15599 0.0406 0.078 0.0156 0.14662 0.0811 0.14662 0.16846 0 0.0842-0.0686 0.10919-0.11543 0.10919-0.0936 0-0.17158-0.0811-0.17158-0.18094 0-0.1435 0.15599-0.20278 0.29325-0.20278 0.2059 0 0.3182 0.21526 0.32757 0.23398 0.0374-0.11543 0.14974-0.23398 0.33692-0.23398 0.3182 0 0.49602 0.39932 0.49602 0.47731 0 0.0312-0.0281 0.0312-0.0374 0.0312-0.0281 0-0.0343-0.0156-0.0406-0.0343-0.10294-0.3338-0.31196-0.40867-0.41179-0.40867-0.12166 0-0.17158 0.0998-0.17158 0.2059 0 0.0686 0.0187 0.13726 0.0531 0.27141z"/><path d="m285.49 624.4v3e-3h3e-3v5e-3l3e-3 3e-3v2e-3l2e-3 3e-3v4e-3l2e-3 3e-3v6e-3l3e-3 2e-3v0.013c0 9e-3 0 0.0156-0.0156 0.053l-0.54282 1.4257c-0.0187 0.053-0.0374 0.0718-0.0718 0.0718-0.0343 0-0.0624-0.0281-0.0624-0.0624 0-9e-3 0-0.0156 0.0156-0.0499l0.54907-1.4382-0.54907-1.4319c-0.0156-0.0343-0.0156-0.0406-0.0156-0.0561 0-0.0343 0.0281-0.0624 0.0624-0.0624 0.0406 0 0.053 0.0312 0.0655 0.0624z"/></g><g fill-opacity=".78431"><g fill-opacity=".7451"><path d="m264.7 652.22-7e-3 0.069v0.71486c0 0.0851 6e-3 0.10363 0.12814 0.10363h0.2327c0.41314 0 0.41314-0.27903 0.41314-0.40924 0-0.12496 0-0.40926-0.41314-0.40926h-0.36084l7e-3 -0.069h0.43928c0.31376 0 0.59616 0.21526 0.59616 0.47836 0 0.26043-0.25887 0.49164-0.61708 0.49164h-0.92039v-0.0824h0.0628c0.20134 0 0.20657-0.0292 0.20657-0.1222v-1.3926c0-0.0957-6e-3 -0.12496-0.20657-0.12496h-0.0628v-0.0798c0.0914 8e-3 0.28501 8e-3 0.38436 8e-3 0.0994 0 0.29547 0 0.38699-8e-3v0.0798h-0.0628c-0.20134 0-0.20657 0.0292-0.20657 0.12496z"/><path d="m267.04 651.94v0.0319l-2e-3 0.0319-2e-3 0.0292-6e-3 0.0319-0.0148 0.0584-7e-3 0.0291-0.01 0.0265-0.0389 0.0798-0.0157 0.024-0.0157 0.0266-0.0157 0.0212-0.0183 0.024-0.0208 0.0212-0.0183 0.0212-0.0208 0.0186-0.0236 0.0186-0.0208 0.016-0.0236 0.0186-0.0236 0.0133-0.0523 0.0263-0.0523 0.02-0.0262 8e-3 -0.0287 8e-3 -0.0287 7e-3 -0.0863 8e-3 -2e-3 -0.0584c0.11505 0 0.22749-0.0584 0.29548-0.17273 0.0678-0.11429 0.0678-0.26575 0.0678-0.36674 0-0.0957 0-0.23651-0.0574-0.35344-0.0575-0.11956-0.17259-0.19667-0.30333-0.19667-0.11246 0-0.22749 0.0559-0.29808 0.17805-0.0652 0.11693-0.0652 0.27639-0.0652 0.37206 0 0.10363 0 0.24449 0.0628 0.36141 0.0706 0.12219 0.19349 0.17806 0.29809 0.17806l2e-3 0.0584c-0.32685 0-0.57786-0.28966-0.57786-0.61919 0-0.34017 0.26933-0.59265 0.57524-0.59265 0.31639 0 0.57787 0.2578 0.57787 0.59265z"/><path d="m267.55 652.54-0.35458-0.0292v-0.0824c0.16582 0 0.18877-0.0159 0.18877-0.14615v-0.70956c0-0.11956-0.028-0.11956-0.19898-0.11956v-0.0798c0.0816 3e-3 0.21938 8e-3 0.27806 8e-3 0.0892 0 0.17857-7e-3 0.2653-8e-3v0.0798c-0.16836 0-0.17857 0.0132-0.17857 0.11693z"/></g><path d="m267.56 652.86v0.0225l-2e-3 8e-3v7e-3l-5e-3 0.0151-5e-3 0.0125-2e-3 8e-3 -6e-3 7e-3 -2e-3 7e-3 -6e-3 7e-3 -2e-3 7e-3 -0.012 0.0125-6e-3 3e-3 -2e-3 7e-3 -6e-3 3e-3 -7e-3 7e-3 -0.018 8e-3 -7e-3 3e-3 -0.012 5e-3 -7e-3 3e-3h-6e-3l-7e-3 3e-3h-0.0205c-0.0766 0-0.13265-0.0718-0.13265-0.14086 0-0.069 0.0561-0.13819 0.13265-0.13819 0.0714 0 0.1352 0.0559 0.1352 0.13819z" fill="#000001" fill-opacity=".64314"/><path d="m268.12 652.28v-0.70691c0-0.11956-0.0287-0.11956-0.20396-0.11956v-0.0798c0.0915 3e-3 0.22487 8e-3 0.29547 8e-3 0.068 0 0.20394-7e-3 0.29285-8e-3v0.0798c-0.17518 0-0.20395 0-0.20395 0.11956v0.48632c0 0.27373 0.18565 0.42255 0.35301 0.42255 0.16471 0 0.19348-0.14351 0.19348-0.29232v-0.61655c0-0.11956-0.0287-0.11956-0.20396-0.11956v-0.0798c0.0915 3e-3 0.22227 8e-3 0.29286 8e-3 0.0678 0 0.20395-7e-3 0.29286-8e-3v0.0798c-0.13597 0-0.20135 0-0.20397 0.0798v0.50493c0 0.22589 0 0.30827-0.0811 0.40394-0.0366 0.0452-0.12022 0.0984-0.27192 0.0984-0.19088 0-0.31378-0.11429-0.387-0.27903v0.27903l-0.36867-0.0292v-0.0824c0.18303 0 0.20396-0.0186 0.20396-0.14882z" fill="#000001" fill-opacity=".64314"/><g fill-opacity=".7451"><path d="m269.65 652.43h0.3713v0.0824h-0.3713v0.48367h-0.0654c-2e-3 -0.21527-0.0811-0.49696-0.3373-0.50758v-0.0584h0.22225v-0.72815c0-0.32423 0.2432-0.35611 0.33731-0.35611 0.18304 0 0.25625 0.18602 0.25625 0.35611v0.14881h-0.0654v-0.14351c0-0.19664-0.0785-0.29764-0.1752-0.29764-0.17257 0-0.17257 0.24183-0.17257 0.28702z"/><path d="m271.92 651.97v0.0319l-2e-3 0.0319-2e-3 0.0292-6e-3 0.0319-0.0148 0.0584-7e-3 0.0291-0.01 0.0266-0.0131 0.0266-0.0129 0.0265-0.013 0.0266-0.0157 0.024-0.0157 0.0265-0.0183 0.0212-0.0183 0.024-0.0183 0.0212-0.0208 0.0212-0.0417 0.0371-0.0236 0.016-0.0236 0.0186-0.0236 0.0133-0.0236 0.0132-0.0262 0.0132-0.0523 0.02-0.0287 8e-3 -0.0262 8e-3 -0.0287 7e-3 -0.0863 8e-3 -2e-3 -0.0584c0.11504 0 0.22485-0.0584 0.29285-0.17273 0.068-0.11429 0.068-0.26575 0.068-0.36674 0-0.0957 0-0.23651-0.0575-0.35344-0.0575-0.11957-0.16996-0.19667-0.3007-0.19667-0.11245 0-0.22747 0.0559-0.29809 0.17805-0.0653 0.11693-0.0653 0.27639-0.0653 0.37206 0 0.10363 0 0.24449 0.0628 0.36141 0.0706 0.12219 0.19349 0.17806 0.29808 0.17806l2e-3 0.0584c-0.32684 0-0.58047-0.28966-0.58047-0.61919 0-0.34017 0.27193-0.59265 0.57787-0.59265 0.31376 0 0.57785 0.2578 0.57785 0.59265z"/><path d="m272.45 652.54v0.30561c0 0.23121 0.12552 0.35877 0.24055 0.35877 7e-3 0 0.047 0 0.0863-0.0186-0.0313-0.01-0.0785-0.0452-0.0785-0.11166 0-0.0584 0.0419-0.11166 0.11245-0.11166 0.0731 0 0.11505 0.0531 0.11505 0.1143 0 0.0983-0.0968 0.18603-0.23533 0.18603-0.18303 0-0.40528-0.14084-0.40528-0.41989v-0.30294h-0.20657v-0.0824h0.20657v-0.85572c0-0.11956-0.0287-0.11956-0.20395-0.11956v-0.0798c0.10196 3e-3 0.22486 8e-3 0.29808 8e-3 0.10455 0 0.22748 0 0.33207-8e-3v0.0798h-0.0549c-0.1935 0-0.19873 0.0292-0.19873 0.12496v0.85041h0.29809v0.0824z"/><path d="m274.22 651.69v-0.01l2e-3 -8e-3 2e-3 -0.01v-0.01l2e-3 -0.01 2e-3 -8e-3 6e-3 -0.01 3e-3 -8e-3 6e-3 -0.01 2e-3 -8e-3 6e-3 -0.01 0.0123-0.0151 6e-3 -0.01 6e-3 -8e-3 0.0346-0.0351 7e-3 -7e-3 0.01-8e-3 7e-3 -7e-3 7e-3 -3e-3 0.01-7e-3 7e-3 -3e-3 0.01-7e-3 0.01-3e-3h0.01l0.01-3e-3h0.0228c0.0549 0 0.2118 0.0345 0.2118 0.24982v0.14882h-0.0654v-0.14882c0-0.15414-0.0627-0.17007-0.0915-0.17007-0.0863 0-0.0968 0.11956-0.0968 0.13285v0.52885c0 0.10902 0 0.2126-0.0941 0.31092-0.10197 0.10363-0.2327 0.14617-0.35823 0.14617-0.21441 0-0.39221-0.12496-0.39221-0.30029 0-0.0771 0.0496-0.12219 0.11764-0.12219 0.0732 0 0.12023 0.0504 0.12023 0.11956 0 0.0319-0.0131 0.11955-0.13337 0.12219 0.0706 0.093 0.19873 0.1222 0.28241 0.1222 0.12812 0 0.27716-0.10363 0.27716-0.33752v-0.41726c0-0.25248-0.18827-0.34284-0.30592-0.34284-0.12813 0-0.23533 0.093-0.23533 0.2259 0 0.14616 0.10987 0.36407 0.54125 0.38002v0.0559c-0.13335-8e-3 -0.31638-0.0159-0.48113-0.0957-0.19347-0.0903-0.25885-0.22589-0.25885-0.34283 0-0.21524 0.25102-0.27902 0.41575-0.27902 0.17258 0 0.29286 0.10363 0.34254 0.22854z"/><path d="m275.66 652.36 2e-3 7e-3 2e-3 8e-3 2e-3 7e-3 2e-3 8e-3 2e-3 7e-3 2e-3 8e-3 2e-3 7e-3 6e-3 8e-3 2e-3 8e-3 6e-3 8e-3 6e-3 7e-3 3e-3 8e-3 6e-3 8e-3 0.0136 0.0138 6e-3 8e-3 7e-3 7e-3 7e-3 8e-3 0.0148 0.0125 8e-3 8e-3 0.0197 0.0125 0.01 3e-3 0.01 7e-3 0.01 3e-3 0.0129 7e-3 0.013 3e-3 0.0129 3e-3h0.0223l6e-3 3e-3h0.0148v0.0824c-0.0575-7e-3 -0.13335-8e-3 -0.1935-8e-3 -0.0628 0-0.18303 7e-3 -0.22748 8e-3v-0.0824c0.0968-3e-3 0.12551-0.0639 0.12551-0.1143 0-0.024-6e-3 -0.0345-0.0157-0.0638l-0.26671-0.67234-0.29285 0.73611c-0.0157 0.0345-0.0157 0.0399-0.0157 0.0452 0 0.0691 0.10196 0.0691 0.14903 0.0691v0.0824c-0.0785-3e-3 -0.22225-8e-3 -0.28238-8e-3 -0.0706 0-0.17519 3e-3 -0.25364 8e-3v-0.0824c0.16473 0 0.1752-0.0159 0.20919-0.0984l0.37391-0.93811c0.0157-0.0345 0.0208-0.0478 0.0549-0.0478 0.034 0 0.0444 0.0212 0.0549 0.0478z"/><path d="m276.16 652.1 2e-3 0.0559c0.0131 0.39331 0.23272 0.45975 0.32162 0.45975 0.26932 0 0.29546-0.35612 0.29546-0.45975h-0.61708l-2e-3 -0.0559h0.72691c0.0575 0 0.0654 0 0.0654 0.0559 0 0.26044-0.14121 0.5182-0.46806 0.5182-0.3033 0-0.54124-0.27371-0.54124-0.60324 0-0.35346 0.27455-0.60858 0.57262-0.60858 0.31901 0 0.43668 0.29232 0.43668 0.34282 0 0.0266-0.0208 0.0319-0.034 0.0319-0.0236 0-0.0286-0.0159-0.034-0.0371-0.0915-0.27373-0.32684-0.27373-0.35298-0.27373-0.13074 0-0.23535 0.0798-0.29286 0.17806-0.0785 0.12754-0.0785 0.30029-0.0785 0.39597z"/></g><path d="m277.47 652.36v0.29233l-0.36344-0.0292v-0.0824c0.18304 0 0.20394-0.0185 0.20394-0.1488v-0.7069c0-0.11956-0.0287-0.11956-0.20394-0.11956v-0.0798c0.10196 3e-3 0.22485 8e-3 0.29809 8e-3 0.10454 0 0.22747 0 0.33205-8e-3v0.0798h-0.0549c-0.19349 0-0.19873 0.0292-0.19873 0.12496v0.40661c0 0.26042 0.10986 0.49694 0.30853 0.49694 0.0183 0 0.0236 0 0.0287-3e-3 -7e-3 -3e-3 -0.0601-0.0345-0.0601-0.10363 0-0.0744 0.0549-0.11429 0.11244-0.11429 0.047 0 0.11246 0.0319 0.11246 0.11693 0 0.0851-0.0811 0.1621-0.19349 0.1621-0.19087 0-0.28501-0.17804-0.32161-0.29233z" fill="#000001" fill-opacity=".64314"/><g fill-opacity=".7451"><path d="m278.92 651.69v-0.01l2e-3 -8e-3 2e-3 -0.01v-0.01l3e-3 -0.01 6e-3 -8e-3 2e-3 -0.01 2e-3 -8e-3 6e-3 -0.01 2e-3 -8e-3 6e-3 -0.01 0.0123-0.0151 6e-3 -0.01 6e-3 -8e-3 0.0283-0.0288 0.0148-0.0125 7e-3 -8e-3 7e-3 -7e-3 7e-3 -3e-3 0.01-7e-3 7e-3 -3e-3 0.01-7e-3 0.01-3e-3h0.01l0.01-3e-3h0.0229c0.0549 0 0.2144 0.0345 0.2144 0.24982v0.14882h-0.0654v-0.14882c0-0.15414-0.0654-0.17008-0.0942-0.17008-0.0863 0-0.0968 0.11957-0.0968 0.13286v0.52885c0 0.10902 0 0.2126-0.0942 0.31092-0.10196 0.10363-0.23271 0.14617-0.3582 0.14617-0.21442 0-0.39223-0.12496-0.39223-0.3003 0-0.077 0.0523-0.12219 0.12023-0.12219 0.0706 0 0.11765 0.0504 0.11765 0.11957 0 0.0319-0.013 0.11955-0.13075 0.12219 0.0706 0.093 0.1961 0.1222 0.27977 0.1222 0.12813 0 0.27718-0.10363 0.27718-0.33752v-0.41727c0-0.25247-0.18827-0.34283-0.30594-0.34283-0.12812 0-0.23532 0.093-0.23532 0.22589 0 0.14617 0.10986 0.36408 0.54126 0.38003v0.0559c-0.13336-8e-3 -0.31641-0.0159-0.48113-0.0957-0.19349-0.0903-0.25886-0.22589-0.25886-0.34283 0-0.21525 0.25364-0.27902 0.41575-0.27902 0.17257 0 0.29285 0.10363 0.34253 0.22854z"/><path d="m279.63 651.83v0.0264l2e-3 3e-3v0.0113l2e-3 7e-3v7e-3l2e-3 3e-3v7e-3l2e-3 7e-3v7e-3l3e-3 3e-3 0.0172 0.0439 0.0148 0.0151c0.0994-0.0718 0.20657-0.0824 0.25626-0.0824v0.0611c-0.22487 0-0.22487 0.26575-0.22487 0.32422 0 0.0718 2e-3 0.15678 0.0419 0.22323 0.0183 0.0319 0.0811 0.10626 0.18302 0.10626 0.22748 0 0.22748-0.26575 0.22748-0.32422 0-0.0718-2e-3 -0.15679-0.0419-0.22323-0.0208-0.0319-0.0811-0.10626-0.18565-0.10626v-0.0611c0.24317 0 0.42359 0.18336 0.42359 0.38533 0 0.0984-0.0419 0.19665-0.10728 0.25778 0.0942 0.0903 0.18826 0.10363 0.23532 0.10363 6e-3 0 0.0183 0 0.0262-3e-3 -0.0287-0.01-0.0419-0.0399-0.0419-0.0718 0-0.0452 0.034-0.077 0.0757-0.077 0.0262 0 0.0757 0.0185 0.0757 0.0798 0 0.0452-0.0313 0.13022-0.13336 0.13022-0.0522 0-0.16735-0.0159-0.27717-0.12496-0.10985 0.0877-0.21963 0.0957-0.27716 0.0957-0.24056 0-0.42097-0.18338-0.42097-0.38534 0-0.11692 0.0574-0.21791 0.12294-0.27373-0.034-0.0398-0.081-0.12495-0.081-0.21791 0-0.0824 0.034-0.18336 0.11505-0.23652-0.15689-0.0452-0.24056-0.15679-0.24056-0.26309 0-0.18868 0.25886-0.33485 0.57524-0.33485l2e-3 0.0611c-0.26147 0-0.4419 0.13287-0.4419 0.27373 0 0.12219 0.0994 0.2179 0.21182 0.22588h0.15426c0.22487 0 0.51772 0 0.51772-0.22588 0-0.1435-0.18564-0.27373-0.4419-0.27373l-2e-3 -0.0611c0.30855 0 0.58047 0.13554 0.58047 0.34016 0 0.093-0.0366 0.2259-0.16995 0.30031-0.13859 0.0744-0.29023 0.0744-0.44973 0.0744-0.0652 0-0.1752 0-0.19612 3e-3 -0.0811 0.01-0.13597 0.093-0.13597 0.17805z"/><path d="m280.95 652.1 2e-3 0.0559c0.0157 0.39331 0.2327 0.45975 0.3216 0.45975 0.26934 0 0.29549-0.35612 0.29549-0.45975h-0.61709l-2e-3 -0.0559h0.7269c0.0575 0 0.0654 0 0.0654 0.0559 0 0.26044-0.1412 0.5182-0.46804 0.5182-0.3007 0-0.54126-0.27371-0.54126-0.60324 0-0.35346 0.27456-0.60858 0.57262-0.60858 0.31901 0 0.43668 0.29232 0.43668 0.34282 0 0.0266-0.0208 0.0319-0.034 0.0319-0.0236 0-0.0287-0.0159-0.034-0.0371-0.0914-0.27373-0.32683-0.27373-0.35297-0.27373-0.13074 0-0.23271 0.0798-0.29285 0.17806-0.0785 0.12754-0.0785 0.30029-0.0785 0.39597z"/><path d="m282.36 652h7e-3l6e-3 -3e-3h7e-3l0.0148-5e-3 0.0493-0.0125 0.01-7e-3 0.0131-7e-3 0.01-3e-3 0.0129-8e-3 0.0198-0.0125 0.0129-8e-3 0.0395-0.0301 7e-3 -0.01 0.01-0.01 7e-3 -0.01 8e-3 -0.0132 2e-3 -7e-3 2e-3 -8e-3 2e-3 -7e-3 6e-3 -8e-3 2e-3 -7e-3v-8e-3l2e-3 -8e-3 2e-3 -7e-3 2e-3 -8e-3v-0.0151l2e-3 -0.01v-0.0151c0-0.13554-0.0915-0.24184-0.29545-0.24184-0.21963 0-0.31115 0.15148-0.36084 0.37737-7e-3 0.0319-0.01 0.0425-0.0366 0.0425-0.034 0-0.034-0.0186-0.034-0.0639v-0.3508c0-0.0425 0-0.0611 0.0287-0.0611 0.0129 0 0.0157 3e-3 0.0654 0.0504 6e-3 7e-3 6e-3 0.01 0.0522 0.0612 0.11246-0.10902 0.2301-0.11166 0.28502-0.11166 0.3007 0 0.42098 0.1754 0.42098 0.36672 0 0.1382-0.0785 0.21793-0.10987 0.24983-0.0863 0.0851-0.18827 0.10626-0.29809 0.12756-0.14641 0.0291-0.319 0.0611-0.319 0.21525 0 0.093 0.068 0.20197 0.29025 0.20197 0.28763 0 0.3007-0.23918 0.30593-0.32157 2e-3 -0.024 0.0262-0.024 0.0313-0.024 0.034 0 0.034 0.0159 0.034 0.0639v0.26841c0 0.0452 0 0.0639-0.0287 0.0639-0.0129 0-0.0183 0-0.0522-0.0319-8e-3 -0.01-0.034-0.0345-0.0444-0.0425-0.0994 0.0744-0.20656 0.0744-0.24579 0.0744-0.31638 0-0.41574-0.17807-0.41574-0.32688 0-0.0903 0.0419-0.16475 0.11245-0.22324 0.0811-0.069 0.15427-0.0851 0.34253-0.12219z"/><path d="m309.02 669.31 0.0225 8e-3 0.0223 5e-3 0.0449 0.0146 0.02 8e-3 0.0198 8e-3 0.0399 0.0195 0.0397 0.0194 0.0175 0.01 0.0174 0.0128 0.0174 0.01 0.015 0.0128 0.0174 0.0128 0.03 0.0255 0.0124 0.0154 0.0124 0.0128 0.0248 0.0311 0.019 0.031 7e-3 0.0179 7e-3 0.0155 7e-3 0.0179 5e-3 0.0155 0.01 0.0358 5e-3 0.0358v0.0179c0 0.24626-0.28345 0.45918-0.64893 0.45918h-0.77822v-0.0795h0.0597c0.19146 0 0.19643-0.0282 0.19643-0.11796v-1.3443c0-0.0924-5e-3 -0.12052-0.19643-0.12052h-0.0597v-0.0769c0.0895 8e-3 0.26604 8e-3 0.363 8e-3 0.097 0 0.27351 0 0.36301-8e-3v0.0769h-0.0596c-0.19145 0-0.19641 0.0282-0.19641 0.12052v1.3622c0 0.0564 0 0.0873 0.0546 0.0949 0.0249 5e-3 0.097 5e-3 0.14668 5e-3 0.22128 0 0.49975-0.01 0.49975-0.37968 0-0.17445-0.0596-0.38224-0.42516-0.38224h-0.27598v-0.0564h0.28593c0.0374 0 0.14173 0 0.22874-0.0847 0.0945-0.0924 0.0945-0.17189 0.0945-0.34377 0-0.1642 0-0.26679 0.10192-0.3643 0.10193-0.0898 0.23869-0.10517 0.31327-0.10517 0.19143 0 0.23619 0.20779 0.23619 0.27962 0 0.0155 0 0.0436-0.0347 0.0436-0.0249 0-0.0249-0.0232-0.0273-0.0411-0.015-0.18213-0.10193-0.22574-0.16409-0.22574-0.12184 0-0.14174 0.12827-0.17654 0.36428l-0.0324 0.20522c-0.0447 0.16418-0.16658 0.24628-0.30333 0.29503z"/><path d="m310.05 669.03v0.0539c0.0156 0.37966 0.23088 0.44381 0.31811 0.44381 0.26424 0 0.28989-0.34377 0.28989-0.44381h-0.608v-0.0539h0.71319c0.0564 0 0.0641 0 0.0641 0.0539 0 0.2514-0.13854 0.50024-0.45922 0.50024-0.29502 0-0.53104-0.26422-0.53104-0.58233 0-0.3412 0.26681-0.58748 0.56182-0.58748 0.31299 0 0.42844 0.28221 0.42844 0.33095 0 0.0257-0.0205 0.0307-0.0333 0.0307-0.0232 0-0.0281-0.0155-0.0333-0.0358-0.0899-0.26424-0.32069-0.26424-0.34635-0.26424-0.12828 0-0.23089 0.0769-0.28733 0.17189-0.077 0.12312-0.077 0.28987-0.077 0.38224z"/><path d="m311.17 668.79v0.0122l2e-3 3e-3v0.0146l2e-3 5e-3v8e-3l2e-3 5e-3v3e-3l2e-3 5e-3v5e-3l2e-3 5e-3 2e-3 3e-3 2e-3 5e-3v5e-3l5e-3 0.01 5e-3 5e-3 7e-3 0.0146 5e-3 3e-3 2e-3 5e-3c0.10005-0.0693 0.20522-0.0795 0.25398-0.0795v0.059c-0.22321 0-0.22321 0.25653-0.22321 0.31297 0 0.0693 2e-3 0.15136 0.0411 0.2155 0.0204 0.0307 0.0797 0.1026 0.18215 0.1026 0.22319 0 0.22319-0.25654 0.22319-0.31297 0-0.0692-2e-3 -0.15136-0.0411-0.2155-0.0206-0.0308-0.0797-0.1026-0.18215-0.1026v-0.059c0.2386 0 0.4156 0.17701 0.4156 0.37198 0 0.0949-0.0411 0.18984-0.10516 0.24884 0.0899 0.0873 0.18215 0.10006 0.22833 0.10006 5e-3 0 0.0179 0 0.0257-3e-3 -0.0282-0.01-0.0411-0.0385-0.0411-0.0693 0-0.0436 0.0333-0.0744 0.0744-0.0744 0.0257 0 0.0743 0.0179 0.0743 0.0769 0 0.0436-0.0309 0.1257-0.13083 0.1257-0.0514 0-0.16163-0.0155-0.26938-0.12052-0.10774 0.0847-0.2155 0.0924-0.27194 0.0924-0.23858 0-0.4156-0.17702-0.4156-0.37199 0-0.11284 0.0564-0.21034 0.12054-0.26423-0.0334-0.0385-0.0797-0.12052-0.0797-0.21036 0-0.0795 0.0333-0.177 0.11285-0.22832-0.15393-0.0436-0.23601-0.15135-0.23601-0.25397 0-0.18214 0.25398-0.32323 0.56697-0.32323l2e-3 0.059c-0.25913 0-0.43615 0.12827-0.43615 0.26423 0 0.11796 0.0975 0.21036 0.21037 0.21806h0.15136c0.22064 0 0.5054 0 0.5054-0.21806 0-0.13852-0.17959-0.26423-0.43098-0.26423l-2e-3 -0.059c0.30274 0 0.56697 0.13084 0.56697 0.32838 0 0.0898-0.0359 0.21803-0.16419 0.28989-0.13598 0.0717-0.28477 0.0717-0.44126 0.0717-0.0641 0-0.17445 0-0.19241 3e-3 -0.0823 0.01-0.13597 0.0898-0.13597 0.17188z"/><path d="m312.6 669.29v0.2822l-0.35405-0.0282v-0.0795c0.17703 0 0.19756-0.0179 0.19756-0.14366v-0.68239c0-0.1154-0.0257-0.1154-0.19756-0.1154v-0.0769c0.0975 3e-3 0.21808 8e-3 0.28991 8e-3 0.10262 0 0.22319 0 0.32581-8e-3v0.0769h-0.0539c-0.18986 0-0.19498 0.0282-0.19498 0.12052v0.39251c0 0.25141 0.10773 0.47973 0.30272 0.47973 0.0179 0 0.023 0 0.0282-3e-3 -7e-3 -3e-3 -0.059-0.0335-0.059-0.10006 0-0.0717 0.0539-0.11028 0.11029-0.11028 0.0462 0 0.11028 0.0307 0.11028 0.11284 0 0.082-0.0797 0.15649-0.18983 0.15649-0.18729 0-0.27964-0.17188-0.31556-0.28219z"/><path d="m313.47 669.03 2e-3 0.0539c0.0156 0.37966 0.22832 0.44381 0.31554 0.44381 0.26425 0 0.28991-0.34377 0.28991-0.44381h-0.60545l-2e-3 -0.0539h0.71319c0.0564 0 0.0641 0 0.0641 0.0539 0 0.2514-0.13851 0.50024-0.4592 0.50024-0.29503 0-0.53105-0.26422-0.53105-0.58233 0-0.3412 0.26938-0.58748 0.56184-0.58748 0.31299 0 0.42841 0.28221 0.42841 0.33095 0 0.0257-0.0204 0.0307-0.0333 0.0307-0.0232 0-0.0282-0.0155-0.0334-0.0358-0.0899-0.26424-0.32069-0.26424-0.34635-0.26424-0.12826 0-0.22832 0.0769-0.28733 0.17189-0.0769 0.12312-0.0769 0.28987-0.0769 0.38224z"/><path d="m314.84 668.94h5e-3l7e-3 -3e-3h7e-3l0.0146-5e-3 0.0488-0.0122 0.01-5e-3 0.0128-5e-3 0.01-3e-3 0.01-8e-3 0.0127-5e-3 0.01-5e-3 0.0127-8e-3 0.0391-0.0292 7e-3 -0.01 0.01-0.01 7e-3 -0.01 7e-3 -0.0128 2e-3 -5e-3 2e-3 -8e-3 2e-3 -5e-3 2e-3 -8e-3 2e-3 -5e-3 5e-3 -0.0146 2e-3 -5e-3v-8e-3l2e-3 -8e-3v-8e-3l2e-3 -0.01v-0.0146c0-0.13083-0.0899-0.23346-0.28991-0.23346-0.2155 0-0.30785 0.14624-0.35659 0.36429-7e-3 0.0307-0.01 0.0411-0.0333 0.0411-0.0333 0-0.0333-0.0179-0.0333-0.0615v-0.33864c0-0.0411 0-0.059 0.0281-0.059 0.0127 0 0.0156 3e-3 0.0616 0.0487 7e-3 5e-3 7e-3 0.01 0.0513 0.059 0.11285-0.10517 0.22833-0.10772 0.28221-0.10772 0.29502 0 0.41303 0.16931 0.41303 0.35401 0 0.13339-0.0769 0.21035-0.10774 0.24116-0.0848 0.082-0.18471 0.1026-0.29246 0.12311-0.14366 0.0282-0.31555 0.059-0.31555 0.20781 0 0.0898 0.0668 0.19497 0.28732 0.19497 0.28222 0 0.29505-0.23089 0.30016-0.31042 2e-3 -0.0231 0.0257-0.0231 0.0308-0.0231 0.0333 0 0.0333 0.0153 0.0333 0.0615v0.2591c0 0.0436 0 0.0615-0.0281 0.0615-0.0127 0-0.0179 0-0.0514-0.0308-7e-3 -0.01-0.0333-0.0335-0.0436-0.0411-0.0975 0.0717-0.20268 0.0717-0.24118 0.0717-0.3104 0-0.40789-0.17188-0.40789-0.31555 0-0.0873 0.0411-0.15904 0.10774-0.21548 0.082-0.0667 0.15392-0.082 0.33864-0.11796z"/><path d="m315.86 668.94h5e-3l7e-3 -3e-3h7e-3l0.0146-5e-3 0.0195-5e-3 7e-3 -3e-3 0.0127-3e-3 0.01-3e-3 0.01-5e-3 0.0127-5e-3 0.01-3e-3 0.01-8e-3 0.0127-5e-3 0.01-5e-3 0.01-8e-3 0.0127-8e-3 0.0292-0.022 7e-3 -0.01 0.01-0.01 7e-3 -0.01 7e-3 -0.0128 2e-3 -5e-3 2e-3 -8e-3 2e-3 -5e-3 2e-3 -8e-3 2e-3 -5e-3 5e-3 -0.0146 2e-3 -5e-3v-8e-3l2e-3 -8e-3v-8e-3l2e-3 -0.01v-0.0146c0-0.13082-0.0899-0.23346-0.28989-0.23346-0.21549 0-0.30785 0.14624-0.35661 0.3643-7e-3 0.0307-7e-3 0.0411-0.0333 0.0411-0.0359 0-0.0359-0.0179-0.0359-0.0615v-0.33864c0-0.041 0-0.059 0.0308-0.059 0.0127 0 0.0156 3e-3 0.0616 0.0487 5e-3 5e-3 5e-3 0.01 0.0514 0.059 0.11286-0.10517 0.22834-0.10773 0.2822-0.10773 0.29503 0 0.41303 0.16932 0.41303 0.35402 0 0.13339-0.0769 0.21035-0.10773 0.24116-0.0847 0.082-0.18472 0.1026-0.29247 0.12312-0.14366 0.0282-0.31554 0.059-0.31554 0.2078 0 0.0898 0.0668 0.19497 0.28734 0.19497 0.28217 0 0.29501-0.23089 0.30016-0.31042 2e-3 -0.0231 0.0257-0.0231 0.0308-0.0231 0.0333 0 0.0333 0.0153 0.0333 0.0615v0.25909c0 0.0436 0 0.0615-0.0281 0.0615-0.0127 0-0.018 0-0.0513-0.0308-7e-3 -0.01-0.0333-0.0334-0.0436-0.0411-0.0975 0.0717-0.20267 0.0717-0.24113 0.0717-0.31301 0-0.41049-0.17188-0.41049-0.31555 0-0.0873 0.0436-0.15904 0.11029-0.21548 0.0823-0.0668 0.15394-0.082 0.33864-0.11796z"/><path d="m316.79 669.58-0.35917-0.0282v-0.0795c0.16676 0 0.18985-0.0155 0.18985-0.14107v-0.68496c0-0.11542-0.0282-0.11542-0.20011-0.11542v-0.0769c0.0819 3e-3 0.22063 8e-3 0.28219 8e-3 0.0899 0 0.17958-5e-3 0.26681-8e-3v0.0769c-0.16932 0-0.17957 0.0128-0.17957 0.11285z"/><path d="m316.8 670.02v0.0146l-2e-3 8e-3v8e-3l-2e-3 5e-3v8e-3l-2e-3 8e-3 -5e-3 0.01-5e-3 8e-3 -5e-3 0.01-5e-3 5e-3 -2e-3 5e-3 -0.01 0.01-5e-3 3e-3 -5e-3 5e-3 -5e-3 3e-3 -5e-3 5e-3 -0.0146 8e-3 -7e-3 3e-3 -5e-3 3e-3 -7e-3 3e-3 -5e-3 3e-3h-7e-3l-5e-3 3e-3h-0.0195c-0.0797 0-0.13597-0.0693-0.13597-0.13597 0-0.0668 0.0564-0.1334 0.13597-0.1334 0.0717 0 0.13597 0.0538 0.13597 0.1334z"/><path d="m318.24 669v0.0307l-2e-3 0.0308-5e-3 0.0282-5e-3 0.0307-5e-3 0.0282-0.0146 0.0563-0.01 0.0255-0.0127 0.0257-0.0127 0.0255-0.0127 0.0257-0.0156 0.023-0.0156 0.0255-0.018 0.0205-0.0179 0.0232-0.018 0.0204-0.0206 0.0205-0.0204 0.0179-0.0206 0.0179-0.0232 0.0155-0.0231 0.0179-0.0232 0.0128-0.023 0.0128-0.0257 0.0128-0.0514 0.0194-0.0282 8e-3 -0.0257 8e-3 -0.0281 5e-3 -0.0844 8e-3 -2e-3 -0.0564c0.11284 0 0.2206-0.0564 0.28732-0.16675 0.0668-0.11028 0.0668-0.25652 0.0668-0.35399 0-0.0924 0-0.22834-0.0564-0.3412-0.0565-0.11542-0.16675-0.18986-0.29503-0.18986-0.1103 0-0.2232 0.0539-0.29245 0.17189-0.0641 0.11285-0.0641 0.2668-0.0641 0.35917 0 0.10004 0 0.236 0.0615 0.34887 0.0692 0.11796 0.18986 0.17187 0.29247 0.17187l2e-3 0.0564c-0.32067 0-0.56953-0.27961-0.56953-0.59772 0-0.32836 0.2668-0.57207 0.56698-0.57207 0.30785 0 0.56695 0.24884 0.56695 0.57207z"/><path d="m318.59 669.33v-0.68238c0-0.1154-0.0282-0.1154-0.20009-0.1154v-0.077c0.0899 3e-3 0.22061 8e-3 0.28989 8e-3 0.0667 0 0.2001-5e-3 0.28732-8e-3v0.077c-0.17188 0-0.2001 0-0.2001 0.1154v0.46946c0 0.26425 0.18214 0.40789 0.34632 0.40789 0.15907 0 0.18729-0.13851 0.18729-0.28217v-0.59518c0-0.1154-0.0282-0.1154-0.19753-0.1154v-0.077c0.0899 3e-3 0.21805 8e-3 0.28731 8e-3 0.0668 0 0.20011-5e-3 0.28733-8e-3v0.077c-0.13339 0-0.19753 0-0.2001 0.0769v0.48741c0 0.21807 0 0.29759-0.0797 0.38995-0.0359 0.0436-0.12055 0.0949-0.26938 0.0949-0.18472 0-0.3053-0.11029-0.37713-0.26936v0.26936l-0.36173-0.0282v-0.0795c0.17959 0 0.2001-0.0179 0.2001-0.14364z"/><path d="m320.68 670.21-0.36687-0.0283v-0.0795c0.17702 0 0.19755-0.0179 0.19755-0.14109v-1.3262c0-0.11541-0.0282-0.11541-0.19755-0.11541v-0.0769c0.0848 3e-3 0.21807 8e-3 0.28221 8e-3 0.0641 0 0.18984-5e-3 0.28477-8e-3v0.0769c-0.17189 0-0.20011 0-0.20011 0.11541z"/><path d="m321.4 669.58-0.35916-0.0282v-0.0795c0.16676 0 0.18984-0.0155 0.18984-0.14107v-0.68496c0-0.11542-0.0282-0.11542-0.2001-0.11542v-0.0769c0.082 3e-3 0.22062 8e-3 0.28218 8e-3 0.0899 0 0.17959-5e-3 0.26681-8e-3v0.0769c-0.16932 0-0.17957 0.0128-0.17957 0.11285z"/><path d="m321.41 670.02v0.0146l-2e-3 8e-3v8e-3l-2e-3 5e-3v8e-3l-2e-3 8e-3 -5e-3 0.01-5e-3 8e-3 -5e-3 0.01-0.01 0.01-2e-3 5e-3 -5e-3 5e-3 -5e-3 3e-3 -5e-3 5e-3 -5e-3 3e-3 -5e-3 5e-3 -0.01 5e-3 -7e-3 3e-3 -0.01 5e-3 -7e-3 3e-3 -5e-3 3e-3h-7e-3l-5e-3 3e-3h-0.0195c-0.0797 0-0.13595-0.0693-0.13595-0.13596 0-0.0669 0.0564-0.13339 0.13595-0.13339 0.0718 0 0.13598 0.0538 0.13598 0.13339z"/><path d="m321.93 669.33v-0.68238c0-0.1154-0.0282-0.1154-0.20009-0.1154v-0.077c0.0899 3e-3 0.22062 8e-3 0.28987 8e-3 0.0668 0 0.20013-5e-3 0.28479-8e-3v0.077c-0.16931 0-0.19754 0-0.19754 0.1154v0.46946c0 0.26425 0.18215 0.40789 0.34377 0.40789 0.16161 0 0.18984-0.13851 0.18984-0.28217v-0.59518c0-0.1154-0.0282-0.1154-0.20012-0.1154v-0.077c0.0899 3e-3 0.22064 8e-3 0.28992 8e-3 0.0668 0 0.20009-5e-3 0.28733-8e-3v0.077c-0.1334 0-0.19755 0-0.20012 0.0769v0.48741c0 0.21807 0 0.29759-0.0797 0.38995-0.0359 0.0436-0.12054 0.0949-0.2694 0.0949-0.18726 0-0.30527-0.11029-0.3771-0.26936v0.26936l-0.36173-0.0282v-0.0795c0.17958 0 0.2001-0.0179 0.2001-0.14364z"/><path d="m323.36 669.03 2e-3 0.0539c0.0156 0.37966 0.2309 0.44381 0.31812 0.44381 0.26425 0 0.2899-0.34377 0.2899-0.44381h-0.60802l-2e-3 -0.0539h0.71574c0.0565 0 0.0641 0 0.0641 0.0539 0 0.2514-0.13855 0.50024-0.45923 0.50024-0.29759 0-0.53106-0.26422-0.53106-0.58233 0-0.3412 0.26681-0.58748 0.56184-0.58748 0.313 0 0.42845 0.28221 0.42845 0.33095 0 0.0257-0.0206 0.0307-0.0333 0.0307-0.0232 0-0.0282-0.0155-0.0333-0.0358-0.0899-0.26424-0.3207-0.26424-0.34635-0.26424-0.12827 0-0.2309 0.0769-0.2899 0.17189-0.0768 0.12312-0.0768 0.28987-0.0768 0.38224z"/></g><g transform="matrix(.90856 0 0 .88501 27.298 76.957)" fill-opacity=".7451" stroke-width="1.1152"><path d="m298.84 670.56-0.36524 0.0918c-0.17831 0.0442-0.29048 0.20088-0.29048 0.37225 0 0.20386 0.1553 0.38406 0.37964 0.38406 0.47739 0 0.54066-0.48156 0.55792-0.61452 3e-3 -0.0178 3e-3 -0.0325 0.0345-0.0325 0.0373 0 0.0373 0.0147 0.0373 0.0679v0.59089c0 0.0502 0 0.0709-0.0316 0.0709-0.02 0-0.0231-3e-3 -0.0431-0.0384l-0.10067-0.16841c-0.0863 0.0856-0.20419 0.20681-0.46014 0.20681-0.31637 0-0.55794-0.25999-0.55794-0.5702 0-0.24226 0.15243-0.45792 0.37675-0.5377 0.0316-0.0123 0.1783-0.0472 0.37675-0.0976 0.0777-0.0178 0.16393-0.0383 0.24445-0.14772 0.0605-0.0767 0.0892-0.17429 0.0892-0.26884 0-0.20977-0.1438-0.42248-0.38538-0.42248-0.0833 0-0.29909 0.0146-0.45152 0.15954-0.1668 0.15954-0.17543 0.34567-0.17831 0.45202-3e-3 0.0295-0.026 0.0295-0.0345 0.0295-0.0373 0-0.0373-0.0205-0.0373-0.0737v-0.58496c0-0.0503 0-0.071 0.0316-0.071 0.0202 0 0.0231 6e-3 0.0431 0.0385 0 3e-3 9e-3 0.0122 0.10358 0.16544 0.0891-0.10046 0.27321-0.20386 0.52629-0.20386 0.33649 0 0.56655 0.28659 0.56655 0.60862 0 0.29542-0.18981 0.53473-0.43138 0.59384z"/><path d="m299.53 671.42v-0.0916h0.0691c0.21856 0 0.22432-0.0325 0.22432-0.1359v-1.5481c0-0.1064-5e-3 -0.13885-0.22432-0.13885h-0.0691v-0.0887h1.0497l-0.0776 0.0887h-0.29052c-0.13516 0-0.14092 0.0205-0.14092 0.11817v1.5895c0 0.0944 5e-3 0.1152 0.14092 0.1152h0.28759c0.17543 0 0.37389-0.065 0.52055-0.27182 0.12361-0.17431 0.14954-0.42542 0.14954-0.65586 0-0.32499-0.0545-0.50225-0.15817-0.64408-0.0575-0.0799-0.22145-0.25111-0.50903-0.25111l0.0776-0.0886c0.48029 0 0.87717 0.43136 0.87717 0.98385 0 0.55836-0.38827 1.0192-0.87717 1.0192z"/><path d="m302.52 671.6-0.41126-0.0325v-0.0917c0.19845 0 0.22145-0.0205 0.22145-0.16251v-1.5274c0-0.13293-0.0316-0.13293-0.22145-0.13293v-0.0887c0.092 3e-3 0.24446 9e-3 0.31635 9e-3 0.0719 0 0.21283-6e-3 0.31924-9e-3v0.0887c-0.19269 0-0.22433 0-0.22433 0.13293z"/><path d="m303.31 670.86-0.40263-0.0325v-0.0916c0.18693 0 0.21281-0.0178 0.21281-0.1625v-0.78882c0-0.13292-0.0316-0.13292-0.22433-0.13292v-0.0887c0.092 3e-3 0.24735 9e-3 0.31637 9e-3 0.10068 0 0.20132-6e-3 0.29909-9e-3v0.0887c-0.18981 0-0.20131 0.0147-0.20131 0.12995z"/><path d="m303.37 671.33v0.0188l-3e-3 9e-3v9e-3l-3e-3 6e-3 -5e-3 0.0189-5e-3 0.0108-3e-3 9e-3 -3e-3 6e-3 -5e-3 6e-3 -3e-3 6e-3 -5e-3 6e-3 -3e-3 6e-3 -5e-3 6e-3 -5e-3 3e-3 -5e-3 6e-3 -5e-3 3e-3 -5e-3 6e-3 -0.0105 6e-3 -9e-3 3e-3 -0.0105 6e-3 -9e-3 3e-3 -5e-3 3e-3h-9e-3l-5e-3 3e-3h-0.0237c-0.0891 0-0.15243-0.0799-0.15243-0.15658 0-0.0769 0.0633-0.15363 0.15243-0.15363 0.0805 0 0.15244 0.062 0.15244 0.15363z"/><path d="m303.92 670.54v-0.76733c0-0.1298-0.0316-0.1298-0.22432-0.1298v-0.0865c0.10068 3e-3 0.24733 9e-3 0.32497 9e-3 0.0749 0 0.22146-6e-3 0.31924-9e-3v0.0865c-0.18982 0-0.22145 0-0.22145 0.1298v0.52788c0 0.29714 0.20133 0.45868 0.38538 0.45868 0.18118 0 0.21282-0.15578 0.21282-0.31733v-0.66923c0-0.1298-0.0316-0.1298-0.22434-0.1298v-0.0865c0.10068 3e-3 0.24734 9e-3 0.32499 9e-3 0.0748 0 0.22434-6e-3 0.32211-9e-3v0.0865c-0.14955 0-0.22145 0-0.22432 0.0865v0.54809c0 0.24521 0 0.33463-0.0892 0.43848-0.0403 0.0491-0.13516 0.10681-0.30197 0.10681-0.20994 0-0.34512-0.12397-0.42276-0.30289v0.30289l-0.40551-0.0317v-0.0896c0.20131 0 0.22432-0.02 0.22432-0.16153z"/><path d="m305.51 670.25 3e-3 0.062c0.0173 0.43726 0.25883 0.51112 0.35661 0.51112 0.29622 0 0.32497-0.39589 0.32497-0.51112h-0.68158l-3e-3 -0.062h0.80237c0.0605 0 0.0691 0 0.0691 0.062 0 0.28954-0.15241 0.57611-0.51191 0.57611-0.33361 0-0.59818-0.3043-0.59818-0.67064 0-0.39295 0.30196-0.67656 0.6327-0.67656 0.35086 0 0.47739 0.32497 0.47739 0.38111 0 0.0295-0.0231 0.0354-0.0345 0.0354-0.026 0-0.0345-0.0178-0.0373-0.0414-0.10068-0.30427-0.3595-0.30427-0.38827-0.30427-0.14379 0-0.25883 0.0887-0.32497 0.19793-0.0863 0.14182-0.0863 0.33384-0.0863 0.4402z"/></g><g stroke-width="1.1583"><path d="m293.65 652v-9e-3h-5e-3v-0.0145l-2e-3 -3e-3v-0.0131l-5e-3 -3e-3v-9e-3c0-0.0475 0.035-0.0856 0.0894-0.0856 0.0671 0 0.10541 0.0571 0.11167 0.0666 0.016 0.0285 0.11812 0.4507 0.20426 0.79031 0.0638-0.12691 0.16597-0.20949 0.31597-0.20949l-5e-3 0.0668c-0.2234 0-0.27448 0.25389-0.27448 0.28247 0 0.0131 0.016 0.0763 0.0255 0.11747 0.0894 0.35232 0.12131 0.46659 0.1915 0.59038 0.13726 0.23167 0.29364 0.30151 0.39258 0.30151 0.11812 0 0.22022-0.0921 0.22022-0.31105 0-0.17138-0.0926-0.52687-0.17875-0.67921-0.10541-0.19996-0.25532-0.30153-0.3766-0.30153l5e-3 -0.0666c0.37022 0 0.78194 0.44434 0.78194 0.91408 0 0.33329-0.21064 0.5142-0.44362 0.5142-0.30638 0-0.64152-0.31742-0.73727-0.70144z"/><path d="m296.24 651.79-5e-3 3e-3v0.0104h-5e-3v3e-3l-7e-3 8e-3v3e-3h-2e-3v3e-3l-9e-3 7e-3 -7e-3 8e-3 -9e-3 7e-3v3e-3h-5e-3l-5e-3 3e-3v3e-3h-2e-3l-5e-3 3e-3v3e-3h-5e-3l-9e-3 7e-3c-0.39576 0.41843-0.49788 1.0478-0.49788 1.5567 0 0.57913 0.12129 1.1582 0.51384 1.5733 0.0415 0.04 0.0415 0.0468 0.0415 0.057 0 0.0234-0.0132 0.0335-0.032 0.0335-0.035 0-0.31916-0.22763-0.50745-0.64942-0.16277-0.36486-0.20108-0.73643-0.20108-1.0142 0-0.26111 0.0352-0.66281 0.21065-1.0377 0.1915-0.40838 0.46279-0.62598 0.49788-0.62598 0.0191 0 0.032 0.0104 0.032 0.0335z"/><path d="m297.49 653.51 5e-3 8e-3v9e-3l5e-3 9e-3 5e-3 0.0131 2e-3 0.0131 5e-3 0.013 7e-3 0.0131 5e-3 0.0158 7e-3 0.0131 2e-3 0.0157 0.0132 0.0317 0.0104 0.0157 7e-3 0.0157 0.0104 0.0159 7e-3 0.0157 0.0104 0.0159 0.0105 0.0131 0.0132 0.0157 0.0105 0.0131 0.0132 0.0157 0.0264 0.0262 0.016 9e-3 0.0132 9e-3 0.016 9e-3 0.0104 3e-3 7e-3 8e-3 0.0209 7e-3 7e-3 3e-3h0.0104l0.0209 7e-3h0.0184l0.0104 3e-3h0.0132c0.016 0 0.0926 0 0.15638-0.0412-0.0893-0.0157-0.15001-0.0952-0.15001-0.1714 0-0.0506 0.035-0.11108 0.11814-0.11108 0.0701 0 0.17235 0.0571 0.17235 0.1841 0 0.16504-0.1883 0.20948-0.29362 0.20948-0.18512 0-0.29682-0.16822-0.33511-0.24122-0.0798 0.20948-0.25214 0.24122-0.3447 0.24122-0.33193 0-0.51064-0.40944-0.51064-0.48561 0-0.0316 0.0318-0.0316 0.0382-0.0316 0.0255 0 0.035 8e-3 0.0415 0.0348 0.1054 0.33326 0.31597 0.4126 0.42448 0.4126 0.0606 0 0.17235-0.0286 0.17235-0.21266 0-0.0983-0.0542-0.30786-0.17235-0.74902-0.051-0.19682-0.16279-0.3301-0.30001-0.3301-0.0192 0-0.0958 0-0.15959 0.0412 0.0798 0.0157 0.15001 0.0824 0.15001 0.17138 0 0.0856-0.0702 0.11109-0.11813 0.11109-0.0956 0-0.17555-0.0824-0.17555-0.1841 0-0.14598 0.15959-0.20629 0.29682-0.20629 0.21065 0 0.32554 0.21899 0.33513 0.23806 0.0382-0.11751 0.15319-0.23806 0.34467-0.23806 0.32873 0 0.50747 0.40626 0.50747 0.48562 0 0.0316-0.0286 0.0316-0.0382 0.0316-0.0256 0-0.0352-0.0157-0.0415-0.0348-0.10204-0.33963-0.31915-0.41581-0.42127-0.41581-0.12446 0-0.17553 0.10147-0.17553 0.2095 0 0.0698 0.0192 0.13965 0.0542 0.27612z"/><path d="m298.89 652.56v0.0191l-5e-3 0.0157v0.0191l-5e-3 0.0192v0.0159l-5e-3 0.0157-2e-3 0.0192-5e-3 0.0131-2e-3 0.0159-5e-3 0.0157-7e-3 0.0131-5e-3 0.013-0.0197 0.0394-7e-3 9e-3 -7e-3 0.013-7e-3 9e-3 -0.0157 0.0156-7e-3 9e-3 -0.0276 0.0195-0.0104 3e-3 -0.0104 8e-3 -0.0184 8e-3 -0.0132 3e-3h-0.0104l-0.0132 3e-3h-0.0104c-0.10542 0-0.16917-0.0793-0.16917-0.16819 0-0.0856 0.0638-0.16505 0.16917-0.16505 0.0382 0 0.0798 9e-3 0.11178 0.038 0.0104 8e-3 0.0132 9e-3 0.016 9e-3 5e-3 0 7e-3 -3e-3 7e-3 -0.0443 0-0.23485-0.11167-0.42529-0.21704-0.52684-0.035-0.035-0.035-0.0412-0.035-0.0509 0-0.0223 0.016-0.0348 0.0319-0.0348 0.0351 0 0.29043 0.24124 0.29043 0.61257z"/><path d="m301.2 653.76v8e-3h5e-3v0.0131l5e-3 3e-3v8e-3l5e-3 3e-3v0.0171h5e-3v0.0274c0 0.0571-0.0447 0.0856-0.0926 0.0856-0.0318 0-0.083-0.0191-0.11166-0.0666-7e-3 -0.0157-0.0319-0.11421-0.0446-0.17141-0.0224-0.0824-0.0445-0.16505-0.0638-0.25075l-0.1436-0.56813c-0.0132-0.0475-0.14682-0.26978-0.35747-0.26978-0.16277 0-0.19786 0.13965-0.19786 0.25709 0 0.14599 0.0542 0.33961 0.16274 0.61891 0.051 0.12691 0.0638 0.16189 0.0638 0.22535 0 0.14282-0.10205 0.26027-0.26174 0.26027-0.30316 0-0.42127-0.45705-0.42127-0.48562 0-0.0316 0.0318-0.0316 0.0382-0.0316 0.0318 0 0.035 8e-3 0.051 0.0571 0.0862 0.29517 0.21385 0.39038 0.32236 0.39038 0.0256 0 0.0798 0 0.0798-0.10147 0-0.0793-0.0318-0.16184-0.0542-0.22215-0.12761-0.33325-0.1851-0.51419-0.1851-0.66017 0-0.28247 0.20107-0.37452 0.38938-0.37452 0.12444 0 0.23296 0.0509 0.31914 0.13965-0.0414-0.16187-0.0798-0.3174-0.20426-0.48562-0.083-0.10784-0.20426-0.19678-0.35107-0.19678-0.0446 0-0.18829 9e-3 -0.24255 0.13018 0.0511 0 0.0926 0 0.13724 0.038 0.0318 0.0286 0.0638 0.0698 0.0638 0.1302 0 0.0983-0.0862 0.11108-0.11814 0.11108-0.0735 0-0.17872-0.0509-0.17872-0.20632 0-0.15551 0.1404-0.27296 0.33828-0.27296 0.32875 0 0.65427 0.28565 0.74365 0.64114z"/><path d="m302.25 653.41v0.10379l-2e-3 0.057-5e-3 0.0568-7e-3 0.0603-7e-3 0.0637-0.0184 0.13398-0.0132 0.0671-0.0132 0.0702-0.0382 0.14063-0.0224 0.0704-0.0256 0.0702-0.0132 0.0367-0.016 0.0369-0.0132 0.0336-0.016 0.0369c-0.19151 0.40841-0.46598 0.62597-0.4979 0.62597-0.0191 0-0.0318-0.0139-0.0318-0.0335 0-0.0104 0-0.0166 0.0606-0.0769 0.31276-0.33139 0.49467-0.8603 0.49467-1.5532 0-0.56906-0.11812-1.1549-0.51381-1.5733-0.0414-0.04-0.0414-0.0468-0.0414-0.057 0-0.0202 0.0132-0.0336 0.0318-0.0336 0.032 0 0.31917 0.22763 0.50747 0.64942 0.1596 0.36488 0.19788 0.73309 0.19788 1.0142z"/><path d="m304.21 653.73h0.0368l7e-3 3e-3h0.0197l7e-3 3e-3h7e-3l7e-3 3e-3h7e-3l0.0209 0.0104 0.0132 6e-3 0.0105 0.0104 9e-3 6e-3h5e-3v3e-3l2e-3 3e-3v3e-3l5e-3 3e-3 2e-3 3e-3v3e-3l5e-3 3e-3v0.0105l5e-3 3e-3v8e-3l5e-3 8e-3v0.0195c0 0.0763-0.0671 0.0763-0.12446 0.0763h-0.7245c-0.48191 0-0.83298-0.52054-0.83298-0.89504 0-0.27933 0.18512-0.49834 0.47556-0.49834l5e-3 0.0668c-0.15638 0-0.28405 0.11422-0.28405 0.34279 0 0.0921 0.0381 0.35231 0.15001 0.53956 0.13404 0.21583 0.32556 0.26025 0.43405 0.26025 0.26808 0 0.29363-0.20947 0.29363-0.30469 0-0.14917-0.0638-0.40625-0.17235-0.56813-0.12446-0.18725-0.29682-0.26978-0.42129-0.26978l-5e-3 -0.0668c0.37658 0 0.79787 0.3809 0.79787 0.86648 0 0.0541 0 0.20315-0.0956 0.3428z"/><path d="m305.62 652.96v0.0105l5e-3 3e-3v0.0104l2e-3 3e-3v0.0276c0 0.0434-0.035 0.0737-0.0735 0.0737-0.0224 0-0.0671-0.0138-0.0894-0.0568-7e-3 -0.0138-0.0256-0.087-0.0381-0.13384l-0.0446-0.19417c-0.0132-0.0569-0.083-0.34814-0.0894-0.37494-5e-3 0-0.10205-0.20083-0.27447-0.20083-0.1532 0-0.1532 0.15066-0.1532 0.19081 0 0.12722 0.051 0.27451 0.11813 0.4519 0.0287 0.0769 0.0381 0.10378 0.0381 0.14394 0 0.11051-0.0894 0.19751-0.21064 0.19751-0.22661 0-0.32555-0.31802-0.32555-0.35817 0-0.0301 0.0321-0.0301 0.0382-0.0301 0.0286 0 0.0318 0.0138 0.0382 0.0367 0.0574 0.19414 0.15319 0.28455 0.24257 0.28455 0.0381 0 0.0542-0.0234 0.0542-0.0805 0-0.0535-0.0192-0.10379-0.0318-0.13385-0.1054-0.28454-0.12763-0.37157-0.12763-0.472 0-0.0401 0-0.15065 0.0862-0.22429 0.0702-0.0603 0.16278-0.0737 0.22342-0.0737 0.0893 0 0.16916 0.0367 0.24257 0.10378-0.0286-0.12722-0.0542-0.22429-0.14683-0.34145-0.0606-0.0701-0.14999-0.14729-0.26809-0.14729-0.016 0-0.11812 0-0.16593 0.0769 0.12128 0.0138 0.12128 0.12392 0.12128 0.12723 0 0.0737-0.067 0.0871-0.0894 0.0871-0.0542 0-0.12761-0.0468-0.12761-0.15398 0-0.11715 0.1054-0.20421 0.26491-0.20421 0.22659 0 0.50106 0.18412 0.56808 0.47201z"/></g><path d="m289.07 649.69h0.0389l7e-3 3e-3h0.0213l7e-3 3e-3h7e-3l7e-3 3e-3h7e-3l0.0213 0.0108 4e-3 3e-3 7e-3 3e-3 7e-3 7e-3 7e-3 3e-3v3e-3l4e-3 3e-3h4e-3v3e-3l7e-3 8e-3v3e-3l4e-3 3e-3v3e-3l4e-3 3e-3v3e-3l4e-3 7e-3v8e-3l4e-3 3e-3v0.0289c0 0.0805-0.0709 0.0805-0.13163 0.0805h-0.77349c-0.50627 0-0.88087-0.55029-0.88087-0.9462 0-0.29528 0.19913-0.52679 0.50288-0.52679l4e-3 0.0705c-0.16539 0-0.29702 0.1208-0.29702 0.36237 0 0.0973 0.0404 0.37245 0.15526 0.57042 0.14176 0.22816 0.34427 0.27513 0.45902 0.27513 0.2835 0 0.31051-0.22145 0.31051-0.3221 0-0.15771-0.0675-0.42948-0.18226-0.60062-0.13162-0.19796-0.31389-0.2852-0.44551-0.2852l-4e-3 -0.0705c0.39825 0 0.84715 0.40265 0.84715 0.916 0 0.0571 0 0.21475-0.10468 0.36238z"/><path d="m289.83 648.2-4e-3 -7e-3v-0.01l-4e-3 -7e-3 -4e-3 -0.01-4e-3 -7e-3 -4e-3 -0.01-7e-3 -7e-3 -4e-3 -0.01-4e-3 -7e-3 -7e-3 -0.01-7e-3 -8e-3 -4e-3 -0.01-7e-3 -8e-3 -7e-3 -0.01-7e-3 -8e-3 -7e-3 -0.01-0.0141-0.0144-9e-3 -8e-3 -0.0141-0.0144-0.0188-0.0144-7e-3 -3e-3 -9e-3 -7e-3 -0.0283-0.0108h-9e-3l-9e-3 -3e-3h-0.0228c-7e-3 0-0.0777 0-0.12488 0.0302 0.0944 0.0302 0.10126 0.11401 0.10126 0.13085 0 0.0503-0.0371 0.0839-0.0945 0.0839-0.0639 0-0.13163-0.0537-0.13163-0.14092 0-0.11739 0.13163-0.17111 0.24638-0.17111 0.10798 0 0.20589 0.067 0.26326 0.16439 0.0575-0.12079 0.18901-0.16439 0.28351-0.16439 0.27 0 0.41513 0.2919 0.41513 0.35901 0 0.0302-0.0304 0.0302-0.0404 0.0302-0.0304 0-0.0336-0.0134-0.0439-0.0402-0.0506-0.16105-0.18902-0.28185-0.32401-0.28185-0.0944 0-0.14175 0.0605-0.14175 0.151 0 0.0605 0.0538 0.27178 0.12149 0.53014 0.0473 0.1812 0.15525 0.23824 0.2329 0.23824 4e-3 0 0.0777 0 0.12486-0.0303-0.0742-0.0235-0.10126-0.0873-0.10126-0.13085 0-0.0503 0.0371-0.0839 0.0944-0.0839 0.0539 0 0.13163 0.0435 0.13163 0.14092 0 0.13085-0.15189 0.17112-0.24639 0.17112-0.11807 0-0.21262-0.0771-0.26326-0.16777-0.0439 0.0973-0.15187 0.16777-0.2835 0.16777-0.26325 0-0.41512-0.28856-0.41512-0.35902 0-0.0302 0.0338-0.0302 0.0404-0.0302 0.0304 0 0.0304 0.01 0.0438 0.0402 0.0574 0.18118 0.20587 0.28185 0.32401 0.28185 0.0777 0 0.14174-0.0404 0.14174-0.15435 0-0.0435-0.0304-0.16105-0.0506-0.24159z"/></g></g><path d="m283.45 650.46 9.2965-0.0356v5.395" fill="none" stroke="#fa0000" stroke-miterlimit="10.433" stroke-opacity=".62745" stroke-width=".33244"/><circle transform="scale(1,-1)" cx="283.42" cy="-650.39" r=".50372" fill="#000001" opacity=".97" stroke-miterlimit="10.433" stroke-opacity="0"/></g><path d="m89.396 733.65 53.042 51.078" fill="none" stroke="#0074ff" stroke-dasharray="2.73807574,0.45634596" stroke-miterlimit="10.433" stroke-opacity=".51208" stroke-width=".45635"/><g fill="#ff0001" fill-opacity=".42512" stroke="none" stroke-dasharray="0.31184934, 0.05197489" stroke-linecap="square" stroke-linejoin="bevel" stroke-opacity=".9372" stroke-width=".051975"><circle transform="scale(1,-1)" cx="91.833" cy="-739.63" r=".56099" opacity=".97"/><g fill-rule="evenodd"><circle transform="scale(1,-1)" cx="84.56" cy="-742.3" r=".56099" opacity=".97"/><circle transform="scale(1,-1)" cx="108.06" cy="-740.87" r=".56099" opacity=".97"/><circle transform="scale(1,-1)" cx="100.88" cy="-745.89" r=".56099" opacity=".97"/><circle transform="scale(1,-1)" cx="88.527" cy="-753.03" r=".56099" opacity=".97"/><circle transform="scale(1,-1)" cx="99.861" cy="-752.81" r=".56099" opacity=".97"/><circle transform="scale(1,-1)" cx="106.96" cy="-755.04" r=".56099" opacity=".97"/><circle transform="scale(1,-1)" cx="106.5" cy="-764.11" r=".56099" opacity=".97"/><circle transform="scale(1,-1)" cx="123.55" cy="-741.8" r=".56099" opacity=".97"/><circle transform="scale(1,-1)" cx="119.26" cy="-747.85" r=".56099" opacity=".97"/><circle transform="scale(1,-1)" cx="113.15" cy="-749.46" r=".56099" opacity=".97"/><circle transform="scale(1,-1)" cx="125.56" cy="-750.89" r=".56099" opacity=".97"/><circle transform="scale(1,-1)" cx="137.43" cy="-755.17" r=".56099" opacity=".97"/><circle transform="scale(1,-1)" cx="116.14" cy="-755.76" r=".56099" opacity=".97"/><circle transform="scale(1,-1)" cx="123.65" cy="-760.12" r=".56099" opacity=".97"/><circle transform="scale(1,-1)" cx="128.91" cy="-763.77" r=".56099" opacity=".97"/><circle transform="scale(1,-1)" cx="109.09" cy="-766.98" r=".56099" opacity=".97"/><circle transform="scale(1,-1)" cx="116.11" cy="-767.33" r=".56099" opacity=".97"/><circle transform="scale(1,-1)" cx="136.71" cy="-768.32" r=".56099" opacity=".97"/><circle transform="scale(1,-1)" cx="129.42" cy="-767.22" r=".56099" opacity=".97"/><circle transform="scale(1,-1)" cx="120.47" cy="-776.33" r=".56099" opacity=".97"/><circle transform="scale(1,-1)" cx="106.79" cy="-770.99" r=".56099" opacity=".97"/><circle transform="scale(1,-1)" cx="123.57" cy="-770.08" r=".56099" opacity=".97"/><circle transform="scale(1,-1)" cx="130.03" cy="-774.89" r=".56099" opacity=".97"/><circle transform="scale(1,-1)" cx="137.62" cy="-774.46" r=".56099" opacity=".97"/><circle transform="scale(1,-1)" cx="140.82" cy="-779.64" r=".56099" opacity=".97"/><circle transform="scale(1,-1)" cx="144.54" cy="-758.75" r=".56099" opacity=".97"/><circle transform="scale(1,-1)" cx="153.32" cy="-770.83" r=".56099" opacity=".97"/></g></g><path d="m81.084 738.34c0.9067 0 76.617 44.126 76.617 44.126" fill="none" stroke="#0074ff" stroke-opacity=".97101" stroke-width=".53174"/></g>
 </g>
</svg>
