<?xml version="1.0" standalone="no"?><!DOCTYPE svg PUBLIC "-//W3C//DTD SVG 1.1//EN" "http://www.w3.org/Graphics/SVG/1.1/DTD/svg11.dtd"><svg xmlns:xlink="http://www.w3.org/1999/xlink" version="1.1" style="font-family:open sans;font-size:12px;" xmlns="http://www.w3.org/2000/svg" width="1040" height="410"><desc>Created with Highcharts 4.1.5</desc><defs><clipPath id="highcharts-63"><rect x="0" y="0" width="810" height="210"></rect></clipPath></defs><rect x="0" y="0" width="1040" height="410" strokeWidth="0" fill="#FFFFFF" class=" highcharts-background"></rect><g class="highcharts-grid" ></g><g class="highcharts-grid" ></g><g class="highcharts-grid" ><path fill="none" d="M 133 338.5 L 943 338.5" stroke="#D8D8D8" stroke-width="1"  opacity="1"></path><path fill="none" d="M 133 268.5 L 943 268.5" stroke="#D8D8D8" stroke-width="1"  opacity="1"></path><path fill="none" d="M 133 198.5 L 943 198.5" stroke="#D8D8D8" stroke-width="1"  opacity="1"></path><path fill="none" d="M 133 127.5 L 943 127.5" stroke="#D8D8D8" stroke-width="1"  opacity="1"></path></g><g class="highcharts-grid" ><path fill="none" d="M 133 338.5 L 943 338.5" stroke="#D8D8D8" stroke-width="1"  opacity="1"></path><path fill="none" d="M 133 268.5 L 943 268.5" stroke="#D8D8D8" stroke-width="1"  opacity="1"></path><path fill="none" d="M 133 198.5 L 943 198.5" stroke="#D8D8D8" stroke-width="1"  opacity="1"></path><path fill="none" d="M 133 127.5 L 943 127.5" stroke="#D8D8D8" stroke-width="1"  opacity="1"></path></g><g class="highcharts-axis" ><path fill="none" d="M 206.5 338 L 206.5 348" stroke="#C0D0E0" stroke-width="1" opacity="1"></path><path fill="none" d="M 279.5 338 L 279.5 348" stroke="#C0D0E0" stroke-width="1" opacity="1"></path><path fill="none" d="M 353.5 338 L 353.5 348" stroke="#C0D0E0" stroke-width="1" opacity="1"></path><path fill="none" d="M 427.5 338 L 427.5 348" stroke="#C0D0E0" stroke-width="1" opacity="1"></path><path fill="none" d="M 500.5 338 L 500.5 348" stroke="#C0D0E0" stroke-width="1" opacity="1"></path><path fill="none" d="M 574.5 338 L 574.5 348" stroke="#C0D0E0" stroke-width="1" opacity="1"></path><path fill="none" d="M 647.5 338 L 647.5 348" stroke="#C0D0E0" stroke-width="1" opacity="1"></path><path fill="none" d="M 721.5 338 L 721.5 348" stroke="#C0D0E0" stroke-width="1" opacity="1"></path><path fill="none" d="M 795.5 338 L 795.5 348" stroke="#C0D0E0" stroke-width="1" opacity="1"></path><path fill="none" d="M 868.5 338 L 868.5 348" stroke="#C0D0E0" stroke-width="1" opacity="1"></path><path fill="none" d="M 942.5 338 L 942.5 348" stroke="#C0D0E0" stroke-width="1" opacity="1"></path><path fill="none" d="M 132.5 338 L 132.5 348" stroke="#C0D0E0" stroke-width="1" opacity="1"></path><path fill="none" d="M 133 338.5 L 943 338.5" stroke="#C0D0E0" stroke-width="1"  visibility="visible"></path></g><g class="highcharts-axis" ><path fill="none" d="M 206.5 128 L 206.5 118" stroke="#C0D0E0" stroke-width="1" opacity="1"></path><path fill="none" d="M 279.5 128 L 279.5 118" stroke="#C0D0E0" stroke-width="1" opacity="1"></path><path fill="none" d="M 353.5 128 L 353.5 118" stroke="#C0D0E0" stroke-width="1" opacity="1"></path><path fill="none" d="M 427.5 128 L 427.5 118" stroke="#C0D0E0" stroke-width="1" opacity="1"></path><path fill="none" d="M 500.5 128 L 500.5 118" stroke="#C0D0E0" stroke-width="1" opacity="1"></path><path fill="none" d="M 574.5 128 L 574.5 118" stroke="#C0D0E0" stroke-width="1" opacity="1"></path><path fill="none" d="M 647.5 128 L 647.5 118" stroke="#C0D0E0" stroke-width="1" opacity="1"></path><path fill="none" d="M 721.5 128 L 721.5 118" stroke="#C0D0E0" stroke-width="1" opacity="1"></path><path fill="none" d="M 795.5 128 L 795.5 118" stroke="#C0D0E0" stroke-width="1" opacity="1"></path><path fill="none" d="M 868.5 128 L 868.5 118" stroke="#C0D0E0" stroke-width="1" opacity="1"></path><path fill="none" d="M 942.5 128 L 942.5 118" stroke="#C0D0E0" stroke-width="1" opacity="1"></path><path fill="none" d="M 132.5 128 L 132.5 118" stroke="#C0D0E0" stroke-width="1" opacity="1"></path><path fill="none" d="M 133 127.5 L 943 127.5" stroke="#C0D0E0" stroke-width="1"  visibility="visible"></path></g><g class="highcharts-axis" ><text x="1016.078125"  text-anchor="middle" transform="translate(0,0) rotate(90 1016.078125 233)" class=" highcharts-yaxis-title" style="color:#000000;fill:#000000;" visibility="visible" y="233"><tspan>Railway train collisions</tspan></text></g><g class="highcharts-axis" ><text x="23.5625"  text-anchor="middle" transform="translate(0,0) rotate(270 23.5625 233)" class=" highcharts-yaxis-title" style="color:#ba0f27;fill:#ba0f27;" visibility="visible" y="233"><tspan>US crude oil imports from Norway</tspan></text></g><g class="highcharts-series-group" ><g class="highcharts-series" visibility="visible"  transform="translate(133,128) scale(1 1)" clip-path="url(#highcharts-63)"><path fill="none" d="M 36.81818181818182 84 C 36.81818181818182 84 81 91 110.45454545454547 91 C 139.9090909090909 91 154.63636363636365 91 184.0909090909091 84 C 213.54545454545456 77 228.2727272727273 45.5 257.72727272727275 45.5 C 287.1818181818182 45.5 301.9090909090909 99.39999999999998 331.3636363636364 119 C 360.8181818181818 138.6 375.54545454545456 143.5 405 143.5 C 434.4545454545455 143.5 449.1818181818182 129.5 478.6363636363637 129.5 C 508.0909090909092 129.5 522.8181818181819 134.4 552.2727272727274 140 C 581.7272727272727 145.6 596.4545454545456 151.9 625.909090909091 157.5 C 655.3636363636364 163.1 670.0909090909092 161.70000000000002 699.5454545454546 168 C 729.0000000000001 174.3 773.1818181818182 189 773.1818181818182 189" stroke="#000000" stroke-width="2"  stroke-linejoin="round" stroke-linecap="round"></path></g><g class="highcharts-markers" visibility="visible"  transform="translate(133,128) scale(1 1)" clip-path="none"><path fill="#000000" d="M 773 185 C 778.328 185 778.328 193 773 193 C 767.672 193 767.672 185 773 185 Z"></path><path fill="#000000" d="M 699 164 C 704.328 164 704.328 172 699 172 C 693.672 172 693.672 164 699 164 Z"></path><path fill="#000000" d="M 625 153.5 C 630.328 153.5 630.328 161.5 625 161.5 C 619.672 161.5 619.672 153.5 625 153.5 Z"></path><path fill="#000000" d="M 552 136 C 557.328 136 557.328 144 552 144 C 546.672 144 546.672 136 552 136 Z"></path><path fill="#000000" d="M 478 125.5 C 483.328 125.5 483.328 133.5 478 133.5 C 472.672 133.5 472.672 125.5 478 125.5 Z"></path><path fill="#000000" d="M 405 139.5 C 410.328 139.5 410.328 147.5 405 147.5 C 399.672 147.5 399.672 139.5 405 139.5 Z"></path><path fill="#000000" d="M 331 115 C 336.328 115 336.328 123 331 123 C 325.672 123 325.672 115 331 115 Z"></path><path fill="#000000" d="M 257 41.5 C 262.328 41.5 262.328 49.5 257 49.5 C 251.672 49.5 251.672 41.5 257 41.5 Z"></path><path fill="#000000" d="M 184 80 C 189.328 80 189.328 88 184 88 C 178.672 88 178.672 80 184 80 Z"></path><path fill="#000000" d="M 110 87 C 115.328 87 115.328 95 110 95 C 104.672 95 104.672 87 110 87 Z"></path><path fill="#000000" d="M 36 80 C 41.328 80 41.328 88 36 88 C 30.672 88 30.672 80 36 80 Z"></path></g><g class="highcharts-series" visibility="visible"  transform="translate(133,128) scale(1 1)" clip-path="url(#highcharts-63)"><path fill="none" d="M 36.81818181818182 75.60000000000002 C 36.81818181818182 75.60000000000002 81 56 110.45454545454547 56 C 139.9090909090909 56 154.63636363636365 65.80000000000001 184.0909090909091 65.80000000000001 C 213.54545454545456 65.80000000000001 228.2727272727273 32.20000000000002 257.72727272727275 32.20000000000002 C 287.1818181818182 32.20000000000002 301.9090909090909 117.6 331.3636363636364 126 C 360.8181818181818 134.4 375.54545454545456 129.64000000000001 405 134.4 C 434.4545454545455 139.16 449.1818181818182 144.76000000000002 478.6363636363637 149.8 C 508.0909090909092 154.84 522.8181818181819 153.16 552.2727272727274 159.6 C 581.7272727272727 166.04 596.4545454545456 175 625.909090909091 182 C 655.3636363636364 189 670.0909090909092 194.6 699.5454545454546 194.6 C 729.0000000000001 194.6 773.1818181818182 179.2 773.1818181818182 179.2" stroke="#ba0f27" stroke-width="2"  stroke-linejoin="round" stroke-linecap="round"></path></g><g class="highcharts-markers" visibility="visible"  transform="translate(133,128) scale(1 1)" clip-path="none"><path fill="#ba0f27" d="M 773 175.2 L 777 179.2 773 183.2 769 179.2 Z"></path><path fill="#ba0f27" d="M 699 190.6 L 703 194.6 699 198.6 695 194.6 Z"></path><path fill="#ba0f27" d="M 625 178 L 629 182 625 186 621 182 Z"></path><path fill="#ba0f27" d="M 552 155.6 L 556 159.6 552 163.6 548 159.6 Z"></path><path fill="#ba0f27" d="M 478 145.8 L 482 149.8 478 153.8 474 149.8 Z"></path><path fill="#ba0f27" d="M 405 130.4 L 409 134.4 405 138.4 401 134.4 Z"></path><path fill="#ba0f27" d="M 331 122 L 335 126 331 130 327 126 Z"></path><path fill="#ba0f27" d="M 257 28.200000000000017 L 261 32.20000000000002 257 36.20000000000002 253 32.20000000000002 Z"></path><path fill="#ba0f27" d="M 184 61.80000000000001 L 188 65.80000000000001 184 69.80000000000001 180 65.80000000000001 Z"></path><path fill="#ba0f27" d="M 110 52 L 114 56 110 60 106 56 Z"></path><path fill="#ba0f27" d="M 36 71.60000000000002 L 40 75.60000000000002 36 79.60000000000002 32 75.60000000000002 Z"></path></g></g><text x="520" text-anchor="middle" class="highcharts-title"  style="color:#777;font-size:18px;fill:#777;width:976px;" y="24"><tspan style="fill:#ba0f27;font-size:24px;font-weight:bold;font-family: 'lora'">US crude oil imports from Norway</tspan><tspan style="font-family: 'lora'" x="520" dy="21"> correlates with </tspan><tspan style="fill:#000000;font-size:24px;font-weight:bold;font-family: 'lora'" x="520" dy="29">Drivers killed in collision with railway train</tspan></text><g class="highcharts-legend"  transform="translate(330,370)"><g ><g><g class="highcharts-legend-item"  transform="translate(8,3)"><path fill="none" d="M 0 11 L 16 11" stroke="#000000" stroke-width="2"></path><path fill="#000000" d="M 8 7 C 13.328 7 13.328 15 8 15 C 2.6719999999999997 15 2.6719999999999997 7 8 7 Z"></path><text x="21" style="color:#333333;font-size:12px;font-weight:bold;cursor:pointer;fill:#333333;" text-anchor="start"  y="15"><tspan>Railway train collisions</tspan></text></g><g class="highcharts-legend-item"  transform="translate(171.34375,3)"><path fill="none" d="M 0 11 L 16 11" stroke="#ba0f27" stroke-width="2"></path><path fill="#ba0f27" d="M 8 7 L 12 11 8 15 4 11 Z"></path><text x="21" y="15" style="color:#333333;font-size:12px;font-weight:bold;cursor:pointer;fill:#333333;" text-anchor="start" ><tspan>US crude oil imports from Norway</tspan></text></g></g></g></g><g class="highcharts-axis-labels highcharts-xaxis-labels" ><text x="169.8181818181818" style="color:#000000;cursor:default;font-size:11px;fill:#000000;width:73.54545454545455;text-overflow:ellipsis;" text-anchor="middle" transform="translate(0,0)" y="357" opacity="1"><tspan>1999</tspan></text><text x="243.45454545454544" style="color:#000000;cursor:default;font-size:11px;fill:#000000;width:73.54545454545455;text-overflow:ellipsis;" text-anchor="middle" transform="translate(0,0)" y="357" opacity="1"><tspan>2000</tspan></text><text x="317.09090909090907" style="color:#000000;cursor:default;font-size:11px;fill:#000000;width:73.54545454545455;text-overflow:ellipsis;" text-anchor="middle" transform="translate(0,0)" y="357" opacity="1"><tspan>2001</tspan></text><text x="390.72727272727275" style="color:#000000;cursor:default;font-size:11px;fill:#000000;width:73.54545454545455;text-overflow:ellipsis;" text-anchor="middle" transform="translate(0,0)" y="357" opacity="1"><tspan>2002</tspan></text><text x="464.3636363636364" style="color:#000000;cursor:default;font-size:11px;fill:#000000;width:73.54545454545455;text-overflow:ellipsis;" text-anchor="middle" transform="translate(0,0)" y="357" opacity="1"><tspan>2003</tspan></text><text x="537.9999999999999" style="color:#000000;cursor:default;font-size:11px;fill:#000000;width:73.54545454545455;text-overflow:ellipsis;" text-anchor="middle" transform="translate(0,0)" y="357" opacity="1"><tspan>2004</tspan></text><text x="611.6363636363636" style="color:#000000;cursor:default;font-size:11px;fill:#000000;width:73.54545454545455;text-overflow:ellipsis;" text-anchor="middle" transform="translate(0,0)" y="357" opacity="1"><tspan>2005</tspan></text><text x="685.2727272727273" style="color:#000000;cursor:default;font-size:11px;fill:#000000;width:73.54545454545455;text-overflow:ellipsis;" text-anchor="middle" transform="translate(0,0)" y="357" opacity="1"><tspan>2006</tspan></text><text x="758.909090909091" style="color:#000000;cursor:default;font-size:11px;fill:#000000;width:73.54545454545455;text-overflow:ellipsis;" text-anchor="middle" transform="translate(0,0)" y="357" opacity="1"><tspan>2007</tspan></text><text x="832.5454545454546" style="color:#000000;cursor:default;font-size:11px;fill:#000000;width:73.54545454545455;text-overflow:ellipsis;" text-anchor="middle" transform="translate(0,0)" y="357" opacity="1"><tspan>2008</tspan></text><text x="906.1818181818182" style="color:#000000;cursor:default;font-size:11px;fill:#000000;width:73.54545454545455;text-overflow:ellipsis;" text-anchor="middle" transform="translate(0,0)" y="357" opacity="1"><tspan>2009</tspan></text></g><g class="highcharts-axis-labels highcharts-xaxis-labels" ><text x="169.8181818181818" style="color:#ba0f27;cursor:default;font-size:11px;fill:#ba0f27;width:73.54545454545455;text-overflow:ellipsis;" text-anchor="middle" transform="translate(0,0)" y="113" opacity="1"><tspan>1999</tspan></text><text x="243.45454545454544" style="color:#ba0f27;cursor:default;font-size:11px;fill:#ba0f27;width:73.54545454545455;text-overflow:ellipsis;" text-anchor="middle" transform="translate(0,0)" y="113" opacity="1"><tspan>2000</tspan></text><text x="317.09090909090907" style="color:#ba0f27;cursor:default;font-size:11px;fill:#ba0f27;width:73.54545454545455;text-overflow:ellipsis;" text-anchor="middle" transform="translate(0,0)" y="113" opacity="1"><tspan>2001</tspan></text><text x="390.72727272727275" style="color:#ba0f27;cursor:default;font-size:11px;fill:#ba0f27;width:73.54545454545455;text-overflow:ellipsis;" text-anchor="middle" transform="translate(0,0)" y="113" opacity="1"><tspan>2002</tspan></text><text x="464.3636363636364" style="color:#ba0f27;cursor:default;font-size:11px;fill:#ba0f27;width:73.54545454545455;text-overflow:ellipsis;" text-anchor="middle" transform="translate(0,0)" y="113" opacity="1"><tspan>2003</tspan></text><text x="537.9999999999999" style="color:#ba0f27;cursor:default;font-size:11px;fill:#ba0f27;width:73.54545454545455;text-overflow:ellipsis;" text-anchor="middle" transform="translate(0,0)" y="113" opacity="1"><tspan>2004</tspan></text><text x="611.6363636363636" style="color:#ba0f27;cursor:default;font-size:11px;fill:#ba0f27;width:73.54545454545455;text-overflow:ellipsis;" text-anchor="middle" transform="translate(0,0)" y="113" opacity="1"><tspan>2005</tspan></text><text x="685.2727272727273" style="color:#ba0f27;cursor:default;font-size:11px;fill:#ba0f27;width:73.54545454545455;text-overflow:ellipsis;" text-anchor="middle" transform="translate(0,0)" y="113" opacity="1"><tspan>2006</tspan></text><text x="758.909090909091" style="color:#ba0f27;cursor:default;font-size:11px;fill:#ba0f27;width:73.54545454545455;text-overflow:ellipsis;" text-anchor="middle" transform="translate(0,0)" y="113" opacity="1"><tspan>2007</tspan></text><text x="832.5454545454546" style="color:#ba0f27;cursor:default;font-size:11px;fill:#ba0f27;width:73.54545454545455;text-overflow:ellipsis;" text-anchor="middle" transform="translate(0,0)" y="113" opacity="1"><tspan>2008</tspan></text><text x="906.1818181818182" style="color:#ba0f27;cursor:default;font-size:11px;fill:#ba0f27;width:73.54545454545455;text-overflow:ellipsis;" text-anchor="middle" transform="translate(0,0)" y="113" opacity="1"><tspan>2009</tspan></text></g><g class="highcharts-axis-labels highcharts-yaxis-labels" ><text x="958" style="color:#000000;cursor:default;font-size:11px;fill:#000000;width:333px;text-overflow:clip;" text-anchor="start" transform="translate(0,0)" y="343" opacity="1"><tspan>40 deaths</tspan></text><text x="958" style="color:#000000;cursor:default;font-size:11px;fill:#000000;width:333px;text-overflow:clip;" text-anchor="start" transform="translate(0,0)" y="273" opacity="1"><tspan>60 deaths</tspan></text><text x="958" style="color:#000000;cursor:default;font-size:11px;fill:#000000;width:333px;text-overflow:clip;" text-anchor="start" transform="translate(0,0)" y="203" opacity="1"><tspan>80 deaths</tspan></text><text x="958" style="color:#000000;cursor:default;font-size:11px;fill:#000000;width:333px;text-overflow:clip;" text-anchor="start" transform="translate(0,0)" y="133" opacity="1"><tspan>100 deaths</tspan></text></g><g class="highcharts-axis-labels highcharts-yaxis-labels" ><text x="118" style="color:#ba0f27;cursor:default;font-size:11px;fill:#ba0f27;width:333px;text-overflow:clip;" text-anchor="end" transform="translate(0,0)" y="343" opacity="1"><tspan>0 million barrels</tspan></text><text x="118" style="color:#ba0f27;cursor:default;font-size:11px;fill:#ba0f27;width:333px;text-overflow:clip;" text-anchor="end" transform="translate(0,0)" y="273" opacity="1"><tspan>50 million barrels</tspan></text><text x="118" style="color:#ba0f27;cursor:default;font-size:11px;fill:#ba0f27;width:333px;text-overflow:clip;" text-anchor="end" transform="translate(0,0)" y="203" opacity="1"><tspan>100 million barrels</tspan></text><text x="118" style="color:#ba0f27;cursor:default;font-size:11px;fill:#ba0f27;width:333px;text-overflow:clip;" text-anchor="end" transform="translate(0,0)" y="133" opacity="1"><tspan>150 million barrels</tspan></text></g><g class="highcharts-tooltip"  style="cursor:default;padding:0;white-space:nowrap;" transform="translate(0,-9999)"><path fill="none" d="M 3 0 L 13 0 C 16 0 16 0 16 3 L 16 13 C 16 16 16 16 13 16 L 3 16 C 0 16 0 16 0 13 L 0 3 C 0 0 0 0 3 0"  stroke="black" stroke-opacity="0.049999999999999996" stroke-width="5" transform="translate(1, 1)"></path><path fill="none" d="M 3 0 L 13 0 C 16 0 16 0 16 3 L 16 13 C 16 16 16 16 13 16 L 3 16 C 0 16 0 16 0 13 L 0 3 C 0 0 0 0 3 0"  stroke="black" stroke-opacity="0.09999999999999999" stroke-width="3" transform="translate(1, 1)"></path><path fill="none" d="M 3 0 L 13 0 C 16 0 16 0 16 3 L 16 13 C 16 16 16 16 13 16 L 3 16 C 0 16 0 16 0 13 L 0 3 C 0 0 0 0 3 0"  stroke="black" stroke-opacity="0.15" stroke-width="1" transform="translate(1, 1)"></path><path fill="rgb(249, 249, 249)" fill-opacity=" .85" d="M 3 0 L 13 0 C 16 0 16 0 16 3 L 16 13 C 16 16 16 16 13 16 L 3 16 C 0 16 0 16 0 13 L 0 3 C 0 0 0 0 3 0"></path><text x="8"  style="font-size:12px;color:#333333;fill:#333333;" transform="translate(0,20)"></text></g><text x="1030" text-anchor="end"  style="cursor:pointer;color:#909090;font-size:9px;fill:#909090;" y="405">tylervigen.com</text></svg>