<?xml version="1.0" standalone="no"?><!DOCTYPE svg PUBLIC "-//W3C//DTD SVG 1.1//EN" "http://www.w3.org/Graphics/SVG/1.1/DTD/svg11.dtd"><svg xmlns:xlink="http://www.w3.org/1999/xlink" version="1.1" style="font-family:open sans;font-size:12px;" xmlns="http://www.w3.org/2000/svg" width="1040" height="410"><desc>Created with Highcharts 4.1.5</desc><defs><clipPath id="highcharts-75"><rect x="0" y="0" width="826" height="210"></rect></clipPath></defs><rect x="0" y="0" width="1040" height="410" strokeWidth="0" fill="#FFFFFF" class=" highcharts-background"></rect><g class="highcharts-grid" ></g><g class="highcharts-grid" ></g><g class="highcharts-grid" ><path fill="none" d="M 99 338.5 L 925 338.5" stroke="#D8D8D8" stroke-width="1"  opacity="1"></path><path fill="none" d="M 99 268.5 L 925 268.5" stroke="#D8D8D8" stroke-width="1"  opacity="1"></path><path fill="none" d="M 99 198.5 L 925 198.5" stroke="#D8D8D8" stroke-width="1"  opacity="1"></path><path fill="none" d="M 99 128.5 L 925 128.5" stroke="#D8D8D8" stroke-width="1"  opacity="1"></path></g><g class="highcharts-grid" ><path fill="none" d="M 99 338.5 L 925 338.5" stroke="#D8D8D8" stroke-width="1"  opacity="1"></path><path fill="none" d="M 99 268.5 L 925 268.5" stroke="#D8D8D8" stroke-width="1"  opacity="1"></path><path fill="none" d="M 99 198.5 L 925 198.5" stroke="#D8D8D8" stroke-width="1"  opacity="1"></path><path fill="none" d="M 99 127.5 L 925 127.5" stroke="#D8D8D8" stroke-width="1"  opacity="1"></path></g><g class="highcharts-axis" ><path fill="none" d="M 173.5 338 L 173.5 348" stroke="#C0D0E0" stroke-width="1" opacity="1"></path><path fill="none" d="M 248.5 338 L 248.5 348" stroke="#C0D0E0" stroke-width="1" opacity="1"></path><path fill="none" d="M 323.5 338 L 323.5 348" stroke="#C0D0E0" stroke-width="1" opacity="1"></path><path fill="none" d="M 398.5 338 L 398.5 348" stroke="#C0D0E0" stroke-width="1" opacity="1"></path><path fill="none" d="M 473.5 338 L 473.5 348" stroke="#C0D0E0" stroke-width="1" opacity="1"></path><path fill="none" d="M 549.5 338 L 549.5 348" stroke="#C0D0E0" stroke-width="1" opacity="1"></path><path fill="none" d="M 624.5 338 L 624.5 348" stroke="#C0D0E0" stroke-width="1" opacity="1"></path><path fill="none" d="M 699.5 338 L 699.5 348" stroke="#C0D0E0" stroke-width="1" opacity="1"></path><path fill="none" d="M 774.5 338 L 774.5 348" stroke="#C0D0E0" stroke-width="1" opacity="1"></path><path fill="none" d="M 849.5 338 L 849.5 348" stroke="#C0D0E0" stroke-width="1" opacity="1"></path><path fill="none" d="M 925.5 338 L 925.5 348" stroke="#C0D0E0" stroke-width="1" opacity="1"></path><path fill="none" d="M 98.5 338 L 98.5 348" stroke="#C0D0E0" stroke-width="1" opacity="1"></path><path fill="none" d="M 99 338.5 L 925 338.5" stroke="#C0D0E0" stroke-width="1"  visibility="visible"></path></g><g class="highcharts-axis" ><path fill="none" d="M 173.5 128 L 173.5 118" stroke="#C0D0E0" stroke-width="1" opacity="1"></path><path fill="none" d="M 248.5 128 L 248.5 118" stroke="#C0D0E0" stroke-width="1" opacity="1"></path><path fill="none" d="M 323.5 128 L 323.5 118" stroke="#C0D0E0" stroke-width="1" opacity="1"></path><path fill="none" d="M 398.5 128 L 398.5 118" stroke="#C0D0E0" stroke-width="1" opacity="1"></path><path fill="none" d="M 473.5 128 L 473.5 118" stroke="#C0D0E0" stroke-width="1" opacity="1"></path><path fill="none" d="M 549.5 128 L 549.5 118" stroke="#C0D0E0" stroke-width="1" opacity="1"></path><path fill="none" d="M 624.5 128 L 624.5 118" stroke="#C0D0E0" stroke-width="1" opacity="1"></path><path fill="none" d="M 699.5 128 L 699.5 118" stroke="#C0D0E0" stroke-width="1" opacity="1"></path><path fill="none" d="M 774.5 128 L 774.5 118" stroke="#C0D0E0" stroke-width="1" opacity="1"></path><path fill="none" d="M 849.5 128 L 849.5 118" stroke="#C0D0E0" stroke-width="1" opacity="1"></path><path fill="none" d="M 925.5 128 L 925.5 118" stroke="#C0D0E0" stroke-width="1" opacity="1"></path><path fill="none" d="M 98.5 128 L 98.5 118" stroke="#C0D0E0" stroke-width="1" opacity="1"></path><path fill="none" d="M 99 127.5 L 925 127.5" stroke="#C0D0E0" stroke-width="1"  visibility="visible"></path></g><g class="highcharts-axis" ><text x="1016.421875"  text-anchor="middle" transform="translate(0,0) rotate(90 1016.421875 233)" class=" highcharts-yaxis-title" style="color:#000000;fill:#000000;" visibility="visible" y="233"><tspan>Hanging suicides</tspan></text></g><g class="highcharts-axis" ><text x="23.515625"  text-anchor="middle" transform="translate(0,0) rotate(270 23.515625 233)" class=" highcharts-yaxis-title" style="color:#ba0f27;fill:#ba0f27;" visibility="visible" y="233"><tspan>US spending on science</tspan></text></g><g class="highcharts-series-group" ><g class="highcharts-series" visibility="visible"  transform="translate(99,128) scale(1 1)" clip-path="url(#highcharts-75)"><path fill="none" d="M 37.54545454545455 160.055 C 37.54545454545455 160.055 82.6 156.31699999999998 112.63636363636364 150.92 C 142.6727272727273 145.52299999999997 157.6909090909091 138.488 187.72727272727275 133.07 C 217.7636363636364 127.652 232.7818181818182 126.889 262.8181818181818 123.83 C 292.8545454545455 120.77099999999999 307.8727272727273 123.83 337.90909090909093 117.77499999999999 C 367.9454545454546 111.71999999999998 382.9636363636364 93.24 413.00000000000006 93.24 C 443.0363636363637 93.24 458.0545454545455 96.32 488.0909090909091 96.32 C 518.1272727272728 96.32 533.1454545454546 94.20599999999996 563.1818181818181 87.81499999999998 C 593.2181818181818 81.42399999999995 608.2363636363636 71.97399999999999 638.2727272727273 64.36499999999998 C 668.3090909090909 56.75599999999998 683.3272727272727 55.642999999999994 713.3636363636364 49.76999999999998 C 743.4 43.89699999999999 788.4545454545455 34.99999999999997 788.4545454545455 34.99999999999997" stroke="#000000" stroke-width="2"  stroke-linejoin="round" stroke-linecap="round"></path></g><g class="highcharts-markers" visibility="visible"  transform="translate(99,128) scale(1 1)" clip-path="none"><path fill="#000000" d="M 788 30.99999999999997 C 793.328 30.99999999999997 793.328 38.99999999999997 788 38.99999999999997 C 782.672 38.99999999999997 782.672 30.99999999999997 788 30.99999999999997 Z"></path><path fill="#000000" d="M 713 45.76999999999998 C 718.328 45.76999999999998 718.328 53.76999999999998 713 53.76999999999998 C 707.672 53.76999999999998 707.672 45.76999999999998 713 45.76999999999998 Z"></path><path fill="#000000" d="M 638 60.36499999999998 C 643.328 60.36499999999998 643.328 68.36499999999998 638 68.36499999999998 C 632.672 68.36499999999998 632.672 60.36499999999998 638 60.36499999999998 Z"></path><path fill="#000000" d="M 563 83.81499999999998 C 568.328 83.81499999999998 568.328 91.81499999999998 563 91.81499999999998 C 557.672 91.81499999999998 557.672 83.81499999999998 563 83.81499999999998 Z"></path><path fill="#000000" d="M 488 92.32 C 493.328 92.32 493.328 100.32 488 100.32 C 482.672 100.32 482.672 92.32 488 92.32 Z"></path><path fill="#000000" d="M 413 89.24 C 418.328 89.24 418.328 97.24 413 97.24 C 407.672 97.24 407.672 89.24 413 89.24 Z"></path><path fill="#000000" d="M 337 113.77499999999999 C 342.328 113.77499999999999 342.328 121.77499999999999 337 121.77499999999999 C 331.672 121.77499999999999 331.672 113.77499999999999 337 113.77499999999999 Z"></path><path fill="#000000" d="M 262 119.83 C 267.328 119.83 267.328 127.83 262 127.83 C 256.672 127.83 256.672 119.83 262 119.83 Z"></path><path fill="#000000" d="M 187 129.07 C 192.328 129.07 192.328 137.07 187 137.07 C 181.672 137.07 181.672 129.07 187 129.07 Z"></path><path fill="#000000" d="M 112 146.92 C 117.328 146.92 117.328 154.92 112 154.92 C 106.672 154.92 106.672 146.92 112 146.92 Z"></path><path fill="#000000" d="M 37 156.055 C 42.328 156.055 42.328 164.055 37 164.055 C 31.672 164.055 31.672 156.055 37 156.055 Z"></path></g><g class="highcharts-series" visibility="visible"  transform="translate(99,128) scale(1 1)" clip-path="url(#highcharts-75)"><path fill="none" d="M 37.54545454545455 166.894 C 37.54545454545455 166.894 82.6 164.37119999999996 112.63636363636364 159.68399999999997 C 142.6727272727273 154.99679999999995 157.6909090909091 149.45 187.72727272727275 143.458 C 217.7636363636364 137.466 232.7818181818182 131.08199999999997 262.8181818181818 129.724 C 292.8545454545455 128.366 307.8727272727273 129.724 337.90909090909093 128.366 C 367.9454545454546 127.00800000000004 382.9636363636364 105.3388 413.00000000000006 97.594 C 443.0363636363637 89.8492 458.0545454545455 89.64199999999998 488.0909090909091 89.64199999999998 C 518.1272727272728 89.64199999999998 533.1454545454546 89.82400000000001 563.1818181818181 89.82400000000001 C 593.2181818181818 89.82400000000001 608.2363636363636 74.26160000000004 638.2727272727273 62.650000000000034 C 668.3090909090909 51.038400000000024 683.3272727272727 42.75319999999999 713.3636363636364 31.765999999999963 C 743.4 20.77879999999997 788.4545454545455 7.71399999999997 788.4545454545455 7.71399999999997" stroke="#ba0f27" stroke-width="2"  stroke-linejoin="round" stroke-linecap="round"></path></g><g class="highcharts-markers" visibility="visible"  transform="translate(99,128) scale(1 1)" clip-path="none"><path fill="#ba0f27" d="M 788 3.71399999999997 L 792 7.71399999999997 788 11.71399999999997 784 7.71399999999997 Z"></path><path fill="#ba0f27" d="M 713 27.765999999999963 L 717 31.765999999999963 713 35.76599999999996 709 31.765999999999963 Z"></path><path fill="#ba0f27" d="M 638 58.650000000000034 L 642 62.650000000000034 638 66.65000000000003 634 62.650000000000034 Z"></path><path fill="#ba0f27" d="M 563 85.82400000000001 L 567 89.82400000000001 563 93.82400000000001 559 89.82400000000001 Z"></path><path fill="#ba0f27" d="M 488 85.64199999999998 L 492 89.64199999999998 488 93.64199999999998 484 89.64199999999998 Z"></path><path fill="#ba0f27" d="M 413 93.594 L 417 97.594 413 101.594 409 97.594 Z"></path><path fill="#ba0f27" d="M 337 124.36600000000001 L 341 128.366 337 132.366 333 128.366 Z"></path><path fill="#ba0f27" d="M 262 125.72399999999999 L 266 129.724 262 133.724 258 129.724 Z"></path><path fill="#ba0f27" d="M 187 139.458 L 191 143.458 187 147.458 183 143.458 Z"></path><path fill="#ba0f27" d="M 112 155.68399999999997 L 116 159.68399999999997 112 163.68399999999997 108 159.68399999999997 Z"></path><path fill="#ba0f27" d="M 37 162.894 L 41 166.894 37 170.894 33 166.894 Z"></path></g></g><text x="520" text-anchor="middle" class="highcharts-title"  style="color:#777;font-size:18px;fill:#777;width:976px;" y="24"><tspan style="fill:#ba0f27;font-size:24px;font-weight:bold;font-family: 'lora'">US spending on science, space, and technology</tspan><tspan style="font-family: 'lora'" x="520" dy="21"> correlates with </tspan><tspan style="fill:#000000;font-size:24px;font-weight:bold;font-family: 'lora'" x="520" dy="29">Suicides by hanging, strangulation and suffocation</tspan></text><g class="highcharts-legend"  transform="translate(375,370)"><g ><g><g class="highcharts-legend-item"  transform="translate(8,3)"><path fill="none" d="M 0 11 L 16 11" stroke="#000000" stroke-width="2"></path><path fill="#000000" d="M 8 7 C 13.328 7 13.328 15 8 15 C 2.6719999999999997 15 2.6719999999999997 7 8 7 Z"></path><text x="21" style="color:#333333;font-size:12px;font-weight:bold;cursor:pointer;fill:#333333;" text-anchor="start"  y="15"><tspan>Hanging suicides</tspan></text></g><g class="highcharts-legend-item"  transform="translate(138.359375,3)"><path fill="none" d="M 0 11 L 16 11" stroke="#ba0f27" stroke-width="2"></path><path fill="#ba0f27" d="M 8 7 L 12 11 8 15 4 11 Z"></path><text x="21" y="15" style="color:#333333;font-size:12px;font-weight:bold;cursor:pointer;fill:#333333;" text-anchor="start" ><tspan>US spending on science</tspan></text></g></g></g></g><g class="highcharts-axis-labels highcharts-xaxis-labels" ><text x="136.54545454545456" style="color:#000000;cursor:default;font-size:11px;fill:#000000;width:75.45454545454545;text-overflow:ellipsis;" text-anchor="middle" transform="translate(0,0)" y="357" opacity="1"><tspan>1999</tspan></text><text x="211.63636363636363" style="color:#000000;cursor:default;font-size:11px;fill:#000000;width:75.45454545454545;text-overflow:ellipsis;" text-anchor="middle" transform="translate(0,0)" y="357" opacity="1"><tspan>2000</tspan></text><text x="286.72727272727275" style="color:#000000;cursor:default;font-size:11px;fill:#000000;width:75.45454545454545;text-overflow:ellipsis;" text-anchor="middle" transform="translate(0,0)" y="357" opacity="1"><tspan>2001</tspan></text><text x="361.8181818181818" style="color:#000000;cursor:default;font-size:11px;fill:#000000;width:75.45454545454545;text-overflow:ellipsis;" text-anchor="middle" transform="translate(0,0)" y="357" opacity="1"><tspan>2002</tspan></text><text x="436.90909090909093" style="color:#000000;cursor:default;font-size:11px;fill:#000000;width:75.45454545454545;text-overflow:ellipsis;" text-anchor="middle" transform="translate(0,0)" y="357" opacity="1"><tspan>2003</tspan></text><text x="511.99999999999994" style="color:#000000;cursor:default;font-size:11px;fill:#000000;width:75.45454545454545;text-overflow:ellipsis;" text-anchor="middle" transform="translate(0,0)" y="357" opacity="1"><tspan>2004</tspan></text><text x="587.0909090909091" style="color:#000000;cursor:default;font-size:11px;fill:#000000;width:75.45454545454545;text-overflow:ellipsis;" text-anchor="middle" transform="translate(0,0)" y="357" opacity="1"><tspan>2005</tspan></text><text x="662.1818181818182" style="color:#000000;cursor:default;font-size:11px;fill:#000000;width:75.45454545454545;text-overflow:ellipsis;" text-anchor="middle" transform="translate(0,0)" y="357" opacity="1"><tspan>2006</tspan></text><text x="737.2727272727273" style="color:#000000;cursor:default;font-size:11px;fill:#000000;width:75.45454545454545;text-overflow:ellipsis;" text-anchor="middle" transform="translate(0,0)" y="357" opacity="1"><tspan>2007</tspan></text><text x="812.3636363636364" style="color:#000000;cursor:default;font-size:11px;fill:#000000;width:75.45454545454545;text-overflow:ellipsis;" text-anchor="middle" transform="translate(0,0)" y="357" opacity="1"><tspan>2008</tspan></text><text x="887.4545454545455" style="color:#000000;cursor:default;font-size:11px;fill:#000000;width:75.45454545454545;text-overflow:ellipsis;" text-anchor="middle" transform="translate(0,0)" y="357" opacity="1"><tspan>2009</tspan></text></g><g class="highcharts-axis-labels highcharts-xaxis-labels" ><text x="136.54545454545456" style="color:#ba0f27;cursor:default;font-size:11px;fill:#ba0f27;width:75.45454545454545;text-overflow:ellipsis;" text-anchor="middle" transform="translate(0,0)" y="113" opacity="1"><tspan>1999</tspan></text><text x="211.63636363636363" style="color:#ba0f27;cursor:default;font-size:11px;fill:#ba0f27;width:75.45454545454545;text-overflow:ellipsis;" text-anchor="middle" transform="translate(0,0)" y="113" opacity="1"><tspan>2000</tspan></text><text x="286.72727272727275" style="color:#ba0f27;cursor:default;font-size:11px;fill:#ba0f27;width:75.45454545454545;text-overflow:ellipsis;" text-anchor="middle" transform="translate(0,0)" y="113" opacity="1"><tspan>2001</tspan></text><text x="361.8181818181818" style="color:#ba0f27;cursor:default;font-size:11px;fill:#ba0f27;width:75.45454545454545;text-overflow:ellipsis;" text-anchor="middle" transform="translate(0,0)" y="113" opacity="1"><tspan>2002</tspan></text><text x="436.90909090909093" style="color:#ba0f27;cursor:default;font-size:11px;fill:#ba0f27;width:75.45454545454545;text-overflow:ellipsis;" text-anchor="middle" transform="translate(0,0)" y="113" opacity="1"><tspan>2003</tspan></text><text x="511.99999999999994" style="color:#ba0f27;cursor:default;font-size:11px;fill:#ba0f27;width:75.45454545454545;text-overflow:ellipsis;" text-anchor="middle" transform="translate(0,0)" y="113" opacity="1"><tspan>2004</tspan></text><text x="587.0909090909091" style="color:#ba0f27;cursor:default;font-size:11px;fill:#ba0f27;width:75.45454545454545;text-overflow:ellipsis;" text-anchor="middle" transform="translate(0,0)" y="113" opacity="1"><tspan>2005</tspan></text><text x="662.1818181818182" style="color:#ba0f27;cursor:default;font-size:11px;fill:#ba0f27;width:75.45454545454545;text-overflow:ellipsis;" text-anchor="middle" transform="translate(0,0)" y="113" opacity="1"><tspan>2006</tspan></text><text x="737.2727272727273" style="color:#ba0f27;cursor:default;font-size:11px;fill:#ba0f27;width:75.45454545454545;text-overflow:ellipsis;" text-anchor="middle" transform="translate(0,0)" y="113" opacity="1"><tspan>2007</tspan></text><text x="812.3636363636364" style="color:#ba0f27;cursor:default;font-size:11px;fill:#ba0f27;width:75.45454545454545;text-overflow:ellipsis;" text-anchor="middle" transform="translate(0,0)" y="113" opacity="1"><tspan>2008</tspan></text><text x="887.4545454545455" style="color:#ba0f27;cursor:default;font-size:11px;fill:#ba0f27;width:75.45454545454545;text-overflow:ellipsis;" text-anchor="middle" transform="translate(0,0)" y="113" opacity="1"><tspan>2009</tspan></text></g><g class="highcharts-axis-labels highcharts-yaxis-labels" ><text x="940" style="color:#000000;cursor:default;font-size:11px;fill:#000000;width:333px;text-overflow:clip;" text-anchor="start" transform="translate(0,0)" y="273" opacity="1"><tspan>6000 suicides</tspan></text><text x="940" style="color:#000000;cursor:default;font-size:11px;fill:#000000;width:333px;text-overflow:clip;" text-anchor="start" transform="translate(0,0)" y="203" opacity="1"><tspan>8000 suicides</tspan></text><text x="940" style="color:#000000;cursor:default;font-size:11px;fill:#000000;width:333px;text-overflow:clip;" text-anchor="start" transform="translate(0,0)" y="343" opacity="1"><tspan>4000 suicides</tspan></text><text x="940" style="color:#000000;cursor:default;font-size:11px;fill:#000000;width:333px;text-overflow:clip;" text-anchor="start" transform="translate(0,0)" y="133" opacity="1"><tspan>10000 suicides</tspan></text></g><g class="highcharts-axis-labels highcharts-yaxis-labels" ><text x="84" style="color:#ba0f27;cursor:default;font-size:11px;fill:#ba0f27;width:333px;text-overflow:clip;" text-anchor="end" transform="translate(0,0)" y="343" opacity="1"><tspan>$15 billion</tspan></text><text x="84" style="color:#ba0f27;cursor:default;font-size:11px;fill:#ba0f27;width:333px;text-overflow:clip;" text-anchor="end" transform="translate(0,0)" y="273" opacity="1"><tspan>$20 billion</tspan></text><text x="84" style="color:#ba0f27;cursor:default;font-size:11px;fill:#ba0f27;width:333px;text-overflow:clip;" text-anchor="end" transform="translate(0,0)" y="203" opacity="1"><tspan>$25 billion</tspan></text><text x="84" style="color:#ba0f27;cursor:default;font-size:11px;fill:#ba0f27;width:333px;text-overflow:clip;" text-anchor="end" transform="translate(0,0)" y="133" opacity="1"><tspan>$30 billion</tspan></text></g><g class="highcharts-tooltip"  style="cursor:default;padding:0;white-space:nowrap;" transform="translate(0,-9999)"><path fill="none" d="M 3 0 L 13 0 C 16 0 16 0 16 3 L 16 13 C 16 16 16 16 13 16 L 3 16 C 0 16 0 16 0 13 L 0 3 C 0 0 0 0 3 0"  stroke="black" stroke-opacity="0.049999999999999996" stroke-width="5" transform="translate(1, 1)"></path><path fill="none" d="M 3 0 L 13 0 C 16 0 16 0 16 3 L 16 13 C 16 16 16 16 13 16 L 3 16 C 0 16 0 16 0 13 L 0 3 C 0 0 0 0 3 0"  stroke="black" stroke-opacity="0.09999999999999999" stroke-width="3" transform="translate(1, 1)"></path><path fill="none" d="M 3 0 L 13 0 C 16 0 16 0 16 3 L 16 13 C 16 16 16 16 13 16 L 3 16 C 0 16 0 16 0 13 L 0 3 C 0 0 0 0 3 0"  stroke="black" stroke-opacity="0.15" stroke-width="1" transform="translate(1, 1)"></path><path fill="rgb(249, 249, 249)" fill-opacity=" .85" d="M 3 0 L 13 0 C 16 0 16 0 16 3 L 16 13 C 16 16 16 16 13 16 L 3 16 C 0 16 0 16 0 13 L 0 3 C 0 0 0 0 3 0"></path><text x="8"  style="font-size:12px;color:#333333;fill:#333333;" transform="translate(0,20)"></text></g><text x="1030" text-anchor="end"  style="cursor:pointer;color:#909090;font-size:9px;fill:#909090;" y="405">tylervigen.com</text></svg>