<?xml version="1.0" standalone="no"?><!DOCTYPE svg PUBLIC "-//W3C//DTD SVG 1.1//EN" "http://www.w3.org/Graphics/SVG/1.1/DTD/svg11.dtd"><svg xmlns:xlink="http://www.w3.org/1999/xlink" version="1.1" style="font-family:open sans;font-size:12px;" xmlns="http://www.w3.org/2000/svg" width="1040" height="410"><desc>Created with Highcharts 4.1.5</desc><defs><clipPath id="highcharts-69"><rect x="0" y="0" width="786" height="210"></rect></clipPath></defs><rect x="0" y="0" width="1040" height="410" strokeWidth="0" fill="#FFFFFF" class=" highcharts-background"></rect><g class="highcharts-grid" ></g><g class="highcharts-grid" ></g><g class="highcharts-grid" ></g><g class="highcharts-grid" ><path fill="none" d="M 107 338.5 L 893 338.5" stroke="#D8D8D8" stroke-width="1"  opacity="1"></path><path fill="none" d="M 107 268.5 L 893 268.5" stroke="#D8D8D8" stroke-width="1"  opacity="1"></path><path fill="none" d="M 107 198.5 L 893 198.5" stroke="#D8D8D8" stroke-width="1"  opacity="1"></path><path fill="none" d="M 107 127.5 L 893 127.5" stroke="#D8D8D8" stroke-width="1"  opacity="1"></path></g><g class="highcharts-axis" ><path fill="none" d="M 166.5 338 L 166.5 348" stroke="#C0D0E0" stroke-width="1" opacity="1"></path><path fill="none" d="M 227.5 338 L 227.5 348" stroke="#C0D0E0" stroke-width="1" opacity="1"></path><path fill="none" d="M 287.5 338 L 287.5 348" stroke="#C0D0E0" stroke-width="1" opacity="1"></path><path fill="none" d="M 348.5 338 L 348.5 348" stroke="#C0D0E0" stroke-width="1" opacity="1"></path><path fill="none" d="M 408.5 338 L 408.5 348" stroke="#C0D0E0" stroke-width="1" opacity="1"></path><path fill="none" d="M 469.5 338 L 469.5 348" stroke="#C0D0E0" stroke-width="1" opacity="1"></path><path fill="none" d="M 529.5 338 L 529.5 348" stroke="#C0D0E0" stroke-width="1" opacity="1"></path><path fill="none" d="M 590.5 338 L 590.5 348" stroke="#C0D0E0" stroke-width="1" opacity="1"></path><path fill="none" d="M 650.5 338 L 650.5 348" stroke="#C0D0E0" stroke-width="1" opacity="1"></path><path fill="none" d="M 711.5 338 L 711.5 348" stroke="#C0D0E0" stroke-width="1" opacity="1"></path><path fill="none" d="M 771.5 338 L 771.5 348" stroke="#C0D0E0" stroke-width="1" opacity="1"></path><path fill="none" d="M 832.5 338 L 832.5 348" stroke="#C0D0E0" stroke-width="1" opacity="1"></path><path fill="none" d="M 893.5 338 L 893.5 348" stroke="#C0D0E0" stroke-width="1" opacity="1"></path><path fill="none" d="M 106.5 338 L 106.5 348" stroke="#C0D0E0" stroke-width="1" opacity="1"></path><path fill="none" d="M 107 338.5 L 893 338.5" stroke="#C0D0E0" stroke-width="1"  visibility="visible"></path></g><g class="highcharts-axis" ><path fill="none" d="M 166.5 128 L 166.5 118" stroke="#C0D0E0" stroke-width="1" opacity="1"></path><path fill="none" d="M 227.5 128 L 227.5 118" stroke="#C0D0E0" stroke-width="1" opacity="1"></path><path fill="none" d="M 287.5 128 L 287.5 118" stroke="#C0D0E0" stroke-width="1" opacity="1"></path><path fill="none" d="M 348.5 128 L 348.5 118" stroke="#C0D0E0" stroke-width="1" opacity="1"></path><path fill="none" d="M 408.5 128 L 408.5 118" stroke="#C0D0E0" stroke-width="1" opacity="1"></path><path fill="none" d="M 469.5 128 L 469.5 118" stroke="#C0D0E0" stroke-width="1" opacity="1"></path><path fill="none" d="M 529.5 128 L 529.5 118" stroke="#C0D0E0" stroke-width="1" opacity="1"></path><path fill="none" d="M 590.5 128 L 590.5 118" stroke="#C0D0E0" stroke-width="1" opacity="1"></path><path fill="none" d="M 650.5 128 L 650.5 118" stroke="#C0D0E0" stroke-width="1" opacity="1"></path><path fill="none" d="M 711.5 128 L 711.5 118" stroke="#C0D0E0" stroke-width="1" opacity="1"></path><path fill="none" d="M 771.5 128 L 771.5 118" stroke="#C0D0E0" stroke-width="1" opacity="1"></path><path fill="none" d="M 832.5 128 L 832.5 118" stroke="#C0D0E0" stroke-width="1" opacity="1"></path><path fill="none" d="M 893.5 128 L 893.5 118" stroke="#C0D0E0" stroke-width="1" opacity="1"></path><path fill="none" d="M 106.5 128 L 106.5 118" stroke="#C0D0E0" stroke-width="1" opacity="1"></path><path fill="none" d="M 107 127.5 L 893 127.5" stroke="#C0D0E0" stroke-width="1"  visibility="visible"></path></g><g class="highcharts-axis" ><text x="1015.796875"  text-anchor="middle" transform="translate(0,0) rotate(90 1015.796875 233)" class=" highcharts-yaxis-title" style="color:#000000;fill:#000000;" visibility="visible" y="233"><tspan>Sociology doctorates awarded (US)</tspan></text></g><g class="highcharts-axis" ><text x="24.375"  text-anchor="middle" transform="translate(0,0) rotate(270 24.375 233)" class=" highcharts-yaxis-title" style="color:#ba0f27;fill:#ba0f27;" visibility="visible" y="233"><tspan>Worldwide non-commercial space launches</tspan></text></g><g class="highcharts-series-group" ><g class="highcharts-series" visibility="visible"  transform="translate(107,128) scale(1 1)" clip-path="url(#highcharts-69)"><path fill="none" d="M 30.23076923076923 103.94999999999999 C 30.23076923076923 103.94999999999999 66.50769230769231 120.96 90.6923076923077 127.05 C 114.87692307692309 133.14 126.96923076923076 134.39999999999998 151.15384615384616 134.39999999999998 C 175.33846153846153 134.39999999999998 187.43076923076924 87.14999999999999 211.6153846153846 87.14999999999999 C 235.8 87.14999999999999 247.89230769230772 126 272.0769230769231 140.7 C 296.26153846153846 155.4 308.3538461538462 160.65 332.53846153846155 160.65 C 356.723076923077 160.65 368.81538461538463 108.14999999999999 393 108.14999999999999 C 417.1846153846154 108.14999999999999 429.276923076923 113.18999999999997 453.46153846153845 126 C 477.6461538461538 138.80999999999997 489.73846153846154 172.2 513.9230769230769 172.2 C 538.1076923076923 172.2 550.2 127.05 574.3846153846155 127.05 C 598.5692307692309 127.05 610.6615384615386 130.2 634.8461538461539 130.2 C 659.0307692307694 130.2 671.123076923077 122.42999999999999 695.3076923076924 103.94999999999999 C 719.4923076923078 85.46999999999997 755.7692307692308 37.79999999999998 755.7692307692308 37.79999999999998" stroke="#000000" stroke-width="2"  stroke-linejoin="round" stroke-linecap="round"></path></g><g class="highcharts-markers" visibility="visible"  transform="translate(107,128) scale(1 1)" clip-path="none"><path fill="#000000" d="M 755 33.79999999999998 C 760.328 33.79999999999998 760.328 41.79999999999998 755 41.79999999999998 C 749.672 41.79999999999998 749.672 33.79999999999998 755 33.79999999999998 Z"></path><path fill="#000000" d="M 695 99.94999999999999 C 700.328 99.94999999999999 700.328 107.94999999999999 695 107.94999999999999 C 689.672 107.94999999999999 689.672 99.94999999999999 695 99.94999999999999 Z"></path><path fill="#000000" d="M 634 126.19999999999999 C 639.328 126.19999999999999 639.328 134.2 634 134.2 C 628.672 134.2 628.672 126.19999999999999 634 126.19999999999999 Z"></path><path fill="#000000" d="M 574 123.05 C 579.328 123.05 579.328 131.05 574 131.05 C 568.672 131.05 568.672 123.05 574 123.05 Z"></path><path fill="#000000" d="M 513 168.2 C 518.328 168.2 518.328 176.2 513 176.2 C 507.672 176.2 507.672 168.2 513 168.2 Z"></path><path fill="#000000" d="M 453 122 C 458.328 122 458.328 130 453 130 C 447.672 130 447.672 122 453 122 Z"></path><path fill="#000000" d="M 393 104.14999999999999 C 398.328 104.14999999999999 398.328 112.14999999999999 393 112.14999999999999 C 387.672 112.14999999999999 387.672 104.14999999999999 393 104.14999999999999 Z"></path><path fill="#000000" d="M 332 156.65 C 337.328 156.65 337.328 164.65 332 164.65 C 326.672 164.65 326.672 156.65 332 156.65 Z"></path><path fill="#000000" d="M 272 136.7 C 277.328 136.7 277.328 144.7 272 144.7 C 266.672 144.7 266.672 136.7 272 136.7 Z"></path><path fill="#000000" d="M 211 83.14999999999999 C 216.328 83.14999999999999 216.328 91.14999999999999 211 91.14999999999999 C 205.672 91.14999999999999 205.672 83.14999999999999 211 83.14999999999999 Z"></path><path fill="#000000" d="M 151 130.39999999999998 C 156.328 130.39999999999998 156.328 138.39999999999998 151 138.39999999999998 C 145.672 138.39999999999998 145.672 130.39999999999998 151 130.39999999999998 Z"></path><path fill="#000000" d="M 90 123.05 C 95.328 123.05 95.328 131.05 90 131.05 C 84.672 131.05 84.672 123.05 90 123.05 Z"></path><path fill="#000000" d="M 30 99.94999999999999 C 35.328 99.94999999999999 35.328 107.94999999999999 30 107.94999999999999 C 24.672 107.94999999999999 24.672 99.94999999999999 30 99.94999999999999 Z"></path></g><g class="highcharts-series" visibility="visible"  transform="translate(107,128) scale(1 1)" clip-path="url(#highcharts-69)"><path fill="none" d="M 30.23076923076923 42 C 30.23076923076923 42 66.50769230769231 81.2 90.6923076923077 98 C 114.87692307692309 114.80000000000001 126.96923076923076 126 151.15384615384616 126 C 175.33846153846153 126 187.43076923076924 70 211.6153846153846 70 C 235.8 70 247.89230769230772 106.4 272.0769230769231 119 C 296.26153846153846 131.6 308.3538461538462 133 332.53846153846155 133 C 356.723076923077 133 368.81538461538463 98 393 98 C 417.1846153846154 98 429.276923076923 134.39999999999998 453.46153846153845 147 C 477.6461538461538 159.59999999999997 489.73846153846154 161 513.9230769230769 161 C 538.1076923076923 161 550.2 105 574.3846153846155 105 C 598.5692307692309 105 610.6615384615386 105 634.8461538461539 105 C 659.0307692307694 105 671.123076923077 133 695.3076923076924 133 C 719.4923076923078 133 755.7692307692308 42 755.7692307692308 42" stroke="#ba0f27" stroke-width="2"  stroke-linejoin="round" stroke-linecap="round"></path></g><g class="highcharts-markers" visibility="visible"  transform="translate(107,128) scale(1 1)" clip-path="none"><path fill="#ba0f27" d="M 755 38 L 759 42 755 46 751 42 Z"></path><path fill="#ba0f27" d="M 695 129 L 699 133 695 137 691 133 Z"></path><path fill="#ba0f27" d="M 634 101 L 638 105 634 109 630 105 Z"></path><path fill="#ba0f27" d="M 574 101 L 578 105 574 109 570 105 Z"></path><path fill="#ba0f27" d="M 513 157 L 517 161 513 165 509 161 Z"></path><path fill="#ba0f27" d="M 453 143 L 457 147 453 151 449 147 Z"></path><path fill="#ba0f27" d="M 393 94 L 397 98 393 102 389 98 Z"></path><path fill="#ba0f27" d="M 332 129 L 336 133 332 137 328 133 Z"></path><path fill="#ba0f27" d="M 272 115 L 276 119 272 123 268 119 Z"></path><path fill="#ba0f27" d="M 211 66 L 215 70 211 74 207 70 Z"></path><path fill="#ba0f27" d="M 151 122 L 155 126 151 130 147 126 Z"></path><path fill="#ba0f27" d="M 90 94 L 94 98 90 102 86 98 Z"></path><path fill="#ba0f27" d="M 30 38 L 34 42 30 46 26 42 Z"></path></g></g><text x="520" text-anchor="middle" class="highcharts-title"  style="color:#777;font-size:18px;fill:#777;width:976px;" y="24"><tspan style="fill:#ba0f27;font-size:24px;font-weight:bold;font-family: 'lora'">Worldwide non-commercial space launches</tspan><tspan style="font-family: 'lora'" x="520" dy="21"> correlates with </tspan><tspan style="fill:#000000;font-size:24px;font-weight:bold;font-family: 'lora'" x="520" dy="29">Sociology doctorates awarded (US)</tspan></text><g class="highcharts-legend"  transform="translate(279,370)"><g ><g><g class="highcharts-legend-item"  transform="translate(8,3)"><path fill="none" d="M 0 11 L 16 11" stroke="#000000" stroke-width="2"></path><path fill="#000000" d="M 8 7 C 13.328 7 13.328 15 8 15 C 2.6719999999999997 15 2.6719999999999997 7 8 7 Z"></path><text x="21" style="color:#333333;font-size:12px;font-weight:bold;cursor:pointer;fill:#333333;" text-anchor="start"  y="15"><tspan>Sociology doctorates awarded (US)</tspan></text></g><g class="highcharts-legend-item"  transform="translate(229.984375,3)"><path fill="none" d="M 0 11 L 16 11" stroke="#ba0f27" stroke-width="2"></path><path fill="#ba0f27" d="M 8 7 L 12 11 8 15 4 11 Z"></path><text x="21" y="15" style="color:#333333;font-size:12px;font-weight:bold;cursor:pointer;fill:#333333;" text-anchor="start" ><tspan>Worldwide non-commercial space launches</tspan></text></g></g></g></g><g class="highcharts-axis-labels highcharts-xaxis-labels" ><text x="137.23076923076923" style="color:#000000;cursor:default;font-size:11px;fill:#000000;" text-anchor="middle" transform="translate(0,0)" y="357" opacity="1">1997</text><text x="197.69230769230768" style="color:#000000;cursor:default;font-size:11px;fill:#000000;" text-anchor="middle" transform="translate(0,0)" y="357" opacity="1">1998</text><text x="258.15384615384613" style="color:#000000;cursor:default;font-size:11px;fill:#000000;" text-anchor="middle" transform="translate(0,0)" y="357" opacity="1">1999</text><text x="318.6153846153846" style="color:#000000;cursor:default;font-size:11px;fill:#000000;" text-anchor="middle" transform="translate(0,0)" y="357" opacity="1">2000</text><text x="379.0769230769231" style="color:#000000;cursor:default;font-size:11px;fill:#000000;" text-anchor="middle" transform="translate(0,0)" y="357" opacity="1">2001</text><text x="439.53846153846155" style="color:#000000;cursor:default;font-size:11px;fill:#000000;" text-anchor="middle" transform="translate(0,0)" y="357" opacity="1">2002</text><text x="500.00000000000006" style="color:#000000;cursor:default;font-size:11px;fill:#000000;" text-anchor="middle" transform="translate(0,0)" y="357" opacity="1">2003</text><text x="560.4615384615383" style="color:#000000;cursor:default;font-size:11px;fill:#000000;" text-anchor="middle" transform="translate(0,0)" y="357" opacity="1">2004</text><text x="620.9230769230769" style="color:#000000;cursor:default;font-size:11px;fill:#000000;" text-anchor="middle" transform="translate(0,0)" y="357" opacity="1">2005</text><text x="681.3846153846154" style="color:#000000;cursor:default;font-size:11px;fill:#000000;" text-anchor="middle" transform="translate(0,0)" y="357" opacity="1">2006</text><text x="741.8461538461538" style="color:#000000;cursor:default;font-size:11px;fill:#000000;" text-anchor="middle" transform="translate(0,0)" y="357" opacity="1">2007</text><text x="802.3076923076923" style="color:#000000;cursor:default;font-size:11px;fill:#000000;" text-anchor="middle" transform="translate(0,0)" y="357" opacity="1">2008</text><text x="862.7692307692307" style="color:#000000;cursor:default;font-size:11px;fill:#000000;" text-anchor="middle" transform="translate(0,0)" y="357" opacity="1">2009</text></g><g class="highcharts-axis-labels highcharts-xaxis-labels" ><text x="137.23076923076923" style="color:#ba0f27;cursor:default;font-size:11px;fill:#ba0f27;" text-anchor="middle" transform="translate(0,0)" y="113" opacity="1">1997</text><text x="197.69230769230768" style="color:#ba0f27;cursor:default;font-size:11px;fill:#ba0f27;" text-anchor="middle" transform="translate(0,0)" y="113" opacity="1">1998</text><text x="258.15384615384613" style="color:#ba0f27;cursor:default;font-size:11px;fill:#ba0f27;" text-anchor="middle" transform="translate(0,0)" y="113" opacity="1">1999</text><text x="318.6153846153846" style="color:#ba0f27;cursor:default;font-size:11px;fill:#ba0f27;" text-anchor="middle" transform="translate(0,0)" y="113" opacity="1">2000</text><text x="379.0769230769231" style="color:#ba0f27;cursor:default;font-size:11px;fill:#ba0f27;" text-anchor="middle" transform="translate(0,0)" y="113" opacity="1">2001</text><text x="439.53846153846155" style="color:#ba0f27;cursor:default;font-size:11px;fill:#ba0f27;" text-anchor="middle" transform="translate(0,0)" y="113" opacity="1">2002</text><text x="500.00000000000006" style="color:#ba0f27;cursor:default;font-size:11px;fill:#ba0f27;" text-anchor="middle" transform="translate(0,0)" y="113" opacity="1">2003</text><text x="560.4615384615383" style="color:#ba0f27;cursor:default;font-size:11px;fill:#ba0f27;" text-anchor="middle" transform="translate(0,0)" y="113" opacity="1">2004</text><text x="620.9230769230769" style="color:#ba0f27;cursor:default;font-size:11px;fill:#ba0f27;" text-anchor="middle" transform="translate(0,0)" y="113" opacity="1">2005</text><text x="681.3846153846154" style="color:#ba0f27;cursor:default;font-size:11px;fill:#ba0f27;" text-anchor="middle" transform="translate(0,0)" y="113" opacity="1">2006</text><text x="741.8461538461538" style="color:#ba0f27;cursor:default;font-size:11px;fill:#ba0f27;" text-anchor="middle" transform="translate(0,0)" y="113" opacity="1">2007</text><text x="802.3076923076923" style="color:#ba0f27;cursor:default;font-size:11px;fill:#ba0f27;" text-anchor="middle" transform="translate(0,0)" y="113" opacity="1">2008</text><text x="862.7692307692307" style="color:#ba0f27;cursor:default;font-size:11px;fill:#ba0f27;" text-anchor="middle" transform="translate(0,0)" y="113" opacity="1">2009</text></g><g class="highcharts-axis-labels highcharts-yaxis-labels" ><text x="908" style="color:#000000;cursor:default;font-size:11px;fill:#000000;width:333px;text-overflow:clip;" text-anchor="start" transform="translate(0,0)" y="343" opacity="1"><tspan>500 Degrees awarded</tspan></text><text x="908" style="color:#000000;cursor:default;font-size:11px;fill:#000000;width:333px;text-overflow:clip;" text-anchor="start" transform="translate(0,0)" y="291" opacity="1"><tspan>550 Degrees awarded</tspan></text><text x="908" style="color:#000000;cursor:default;font-size:11px;fill:#000000;width:333px;text-overflow:clip;" text-anchor="start" transform="translate(0,0)" y="238" opacity="1"><tspan>600 Degrees awarded</tspan></text><text x="908" style="color:#000000;cursor:default;font-size:11px;fill:#000000;width:333px;text-overflow:clip;" text-anchor="start" transform="translate(0,0)" y="186" opacity="1"><tspan>650 Degrees awarded</tspan></text><text x="908" style="color:#000000;cursor:default;font-size:11px;fill:#000000;width:333px;text-overflow:clip;" text-anchor="start" transform="translate(0,0)" y="133" opacity="1"><tspan>700 Degrees awarded</tspan></text></g><g class="highcharts-axis-labels highcharts-yaxis-labels" ><text x="92" style="color:#ba0f27;cursor:default;font-size:11px;fill:#ba0f27;width:333px;text-overflow:clip;" text-anchor="end" transform="translate(0,0)" y="273" opacity="1"><tspan>40 Launches</tspan></text><text x="92" style="color:#ba0f27;cursor:default;font-size:11px;fill:#ba0f27;width:333px;text-overflow:clip;" text-anchor="end" transform="translate(0,0)" y="203" opacity="1"><tspan>50 Launches</tspan></text><text x="92" style="color:#ba0f27;cursor:default;font-size:11px;fill:#ba0f27;width:333px;text-overflow:clip;" text-anchor="end" transform="translate(0,0)" y="343" opacity="1"><tspan>30 Launches</tspan></text><text x="92" style="color:#ba0f27;cursor:default;font-size:11px;fill:#ba0f27;width:333px;text-overflow:clip;" text-anchor="end" transform="translate(0,0)" y="133" opacity="1"><tspan>60 Launches</tspan></text></g><g class="highcharts-tooltip"  style="cursor:default;padding:0;white-space:nowrap;" transform="translate(0,-9999)"><path fill="none" d="M 3 0 L 13 0 C 16 0 16 0 16 3 L 16 13 C 16 16 16 16 13 16 L 3 16 C 0 16 0 16 0 13 L 0 3 C 0 0 0 0 3 0"  stroke="black" stroke-opacity="0.049999999999999996" stroke-width="5" transform="translate(1, 1)"></path><path fill="none" d="M 3 0 L 13 0 C 16 0 16 0 16 3 L 16 13 C 16 16 16 16 13 16 L 3 16 C 0 16 0 16 0 13 L 0 3 C 0 0 0 0 3 0"  stroke="black" stroke-opacity="0.09999999999999999" stroke-width="3" transform="translate(1, 1)"></path><path fill="none" d="M 3 0 L 13 0 C 16 0 16 0 16 3 L 16 13 C 16 16 16 16 13 16 L 3 16 C 0 16 0 16 0 13 L 0 3 C 0 0 0 0 3 0"  stroke="black" stroke-opacity="0.15" stroke-width="1" transform="translate(1, 1)"></path><path fill="rgb(249, 249, 249)" fill-opacity=" .85" d="M 3 0 L 13 0 C 16 0 16 0 16 3 L 16 13 C 16 16 16 16 13 16 L 3 16 C 0 16 0 16 0 13 L 0 3 C 0 0 0 0 3 0"></path><text x="8"  style="font-size:12px;color:#333333;fill:#333333;" transform="translate(0,20)"></text></g><text x="1030" text-anchor="end"  style="cursor:pointer;color:#909090;font-size:9px;fill:#909090;" y="405">tylervigen.com</text></svg>