<svg width="190mm" height="110mm" version="1.1" viewBox="0 0 113.44 63.473" xmlns="http://www.w3.org/2000/svg" xmlns:ns0="http://www.iki.fi/pav/software/textext/">
 <rect x="40.913" y="9.6583" width="33.427" height="4.1783" fill-opacity=".098039"/>
 <g transform="translate(-17.489 -49.437)">
  <g fill="none" stroke-width=".6">
   <path d="m18.057 80.91 20.495-15.885" stroke="#f00" stroke-opacity=".49275"/>
   <path d="m18.057 80.91 20.495 15.885" stroke="#003eb9" stroke-opacity=".39216"/>
   <path d="m38.552 65.025 11.751-9.1075" stroke="#f00" stroke-opacity=".49275"/>
   <g stroke-width=".6">
    <path d="m38.916 65.268 11.386 8.8653" stroke="#003eb9" stroke-opacity=".39216"/>
    <path d="m50.302 74.133 6.9484 5.3861" stroke="#003eb9" stroke-opacity=".39216"/>
    <path d="m39.027 96.423 11.275-8.7374" stroke="#f00" stroke-opacity=".49275"/>
   </g>
   <path d="m38.552 96.794 11.751 9.1075" stroke="#003eb9" stroke-opacity=".39216"/>
   <path d="m50.661 73.782 6.5881-5.0291" stroke="#f00" stroke-opacity=".49275" stroke-width=".6"/>
   <path d="m50.695 87.999 6.55 5.0719" stroke="#003eb9" stroke-opacity=".39216" stroke-width=".6"/>
   <path d="m50.302 87.687 6.9446-5.3824" stroke="#f00" stroke-opacity=".49275"/>
   <path d="m50.302 105.9 6.9446 5.3824" stroke="#003eb9" stroke-opacity=".39216"/>
   <path d="m50.726 105.56 6.5194-5.0478" stroke="#f00" stroke-opacity=".49275" stroke-width=".6"/>
   <path d="m50.743 56.143 6.5018 5.1584" stroke="#003eb9" stroke-opacity=".39216" stroke-width=".6"/>
   <path d="m50.302 55.918 6.9446-5.3824" stroke="#f00" stroke-opacity=".49275"/>
   <g fill="#000" fill-opacity=".33816">
    <circle cx="50.368" cy="105.87" r=".55711"/>
    <circle cx="50.412" cy="87.682" r=".55711"/>
    <circle cx="50.342" cy="74.092" r=".55711"/>
   </g>
  </g>
  <g transform="matrix(1.5,0,0,-1.5,-204.78,1101.1)" fill-rule="evenodd" stroke="#000" stroke-miterlimit="10.433" ns0:preamble="default_packages.tex" ns0:text="$s$\n$t$\n" xml:space="preserve"><path d="m156.45 688.37h-0.0192l-0.0112-4e-3h-8e-3l-8e-3 -4e-3 -0.0112-4e-3h-8e-3l-0.024-0.012-8e-3 -8e-3 -0.016-8e-3 -8e-3 -8e-3 -8e-3 -4e-3 -4e-3 -8e-3 -8e-3 -4e-3 -4e-3 -8e-3 -8e-3 -4e-3 -0.028-0.056v-8e-3l-4e-3 -8e-3v-8e-3l-4e-3 -8e-3v-0.016c0-0.0547 0.0351-0.11319 0.12103-0.11319 0.0859 0 0.17962 0.0665 0.17962 0.21866 0 0.17571-0.16791 0.33579-0.46466 0.33579-0.5115 0-0.65598-0.39826-0.65598-0.56617 0-0.30456 0.28895-0.36313 0.39828-0.38655 0.20304-0.039 0.40607-0.082 0.40607-0.29285 0-0.10158-0.0898-0.4295-0.55445-0.4295-0.0547 0-0.35533 0-0.44514 0.20694 0.14838-0.0196 0.24601 0.0977 0.24601 0.20693 0 0.0898-0.0626 0.1367-0.14447 0.1367-0.10158 0-0.21866-0.082-0.21866-0.25771 0-0.22255 0.22255-0.37484 0.55835-0.37484 0.62866 0 0.78093 0.46856 0.78093 0.64036 0 0.14058-0.0743 0.23818-0.12103 0.28504-0.1055 0.10928-0.21867 0.12887-0.39046 0.16399-0.1367 0.0312-0.29285 0.0586-0.29285 0.23037 0 0.1132 0.0937 0.35142 0.43342 0.35142 0.0977 0 0.29284-0.0274 0.35141-0.17961z" fill="#f00" fill-opacity=".62319" stroke-width="0"/><g fill-rule="evenodd"><g transform="matrix(1.5,0,0,-1.5,-122.6,1212.9)" stroke="#000" stroke-miterlimit="10.433" ns0:preamble="default_packages.tex" ns0:text="$f$\n" xml:space="preserve"><g fill="#003eb9" fill-opacity=".71373"><path d="m186.86 357.31h0.2262c0.0526 0 0.0789 0 0.0789-0.0526 0-0.0289-0.0263-0.0289-0.071-0.0289h-0.21832l0.0552-0.29721c0.01-0.0552 0.0473-0.23936 0.0631-0.27092 0.0237-0.05 0.0684-0.0894 0.12362-0.0894 0.01 0 0.0789 0 0.12888 0.0473-0.11573 0.01-0.14203 0.10258-0.14203 0.13941 0 0.0605 0.0473 0.0921 0.0973 0.0921 0.0684 0 0.14467-0.0579 0.14467-0.15518 0-0.12099-0.12098-0.18148-0.22883-0.18148-0.0894 0-0.25513 0.0473-0.33404 0.3051-0.0158 0.0552-0.0237 0.0815-0.0868 0.41033h-0.17886c-0.05 0-0.0789 0-0.0789 0.05 0 0.0316 0.0237 0.0316 0.071 0.0316h0.17359l-0.19463 1.0337c-0.0473 0.25249-0.0921 0.48921-0.22884 0.48921-0.01 0-0.0763 0-0.12625-0.0473 0.12098-8e-3 0.14466-0.0999 0.14466-0.13941 0-0.0605-0.0473-0.092-0.0973-0.092-0.0684 0-0.14467 0.0579-0.14467 0.15782 0 0.11572 0.11573 0.17886 0.22357 0.17886 0.14466 0 0.24988-0.15256 0.29459-0.25252 0.0842-0.1657 0.14467-0.48134 0.1473-0.49975z" stroke-width="0"/><g fill-rule="evenodd"><g stroke="#000" stroke-miterlimit="10.433" stroke-width=".0044444"><path d="m199.44 368.13h0.18061c0.042 0 0.063 0 0.063-0.042 0-0.0231-0.021-0.0231-0.0567-0.0231h-0.17432l0.0441-0.23731c8e-3 -0.0441 0.0378-0.19111 0.0504-0.21631 0.0189-0.0399 0.0546-0.0714 0.0987-0.0714 8e-3 0 0.063 0 0.1029 0.0378-0.0924 8e-3 -0.1134 0.0819-0.1134 0.11131 0 0.0483 0.0378 0.0735 0.0777 0.0735 0.0546 0 0.11551-0.0462 0.11551-0.12391 0-0.0966-0.0966-0.1449-0.18271-0.1449-0.0714 0-0.20371 0.0378-0.26671 0.24361-0.0126 0.0441-0.0189 0.0651-0.0693 0.32762h-0.14281c-0.0399 0-0.063 0-0.063 0.0399 0 0.0252 0.0189 0.0252 0.0567 0.0252h0.1386l-0.1554 0.82535c-0.0378 0.2016-0.0735 0.39061-0.18271 0.39061-8e-3 0-0.0609 0-0.10081-0.0378 0.0966-6e-3 0.11551-0.0798 0.11551-0.11131 0-0.0483-0.0378-0.0735-0.0777-0.0735-0.0546 0-0.11551 0.0462-0.11551 0.12601 0 0.0924 0.0924 0.14281 0.17851 0.14281 0.1155 0 0.19951-0.12181 0.23521-0.20162 0.0672-0.1323 0.11551-0.38432 0.11761-0.39902z"/><path d="m200.45 368.14h0.18061c0.042 0 0.063 0 0.063-0.042 0-0.0231-0.021-0.0231-0.0567-0.0231h-0.17432l0.0441-0.23731c8e-3 -0.0441 0.0378-0.19111 0.0504-0.21631 0.0189-0.0399 0.0546-0.0714 0.0987-0.0714 8e-3 0 0.063 0 0.1029 0.0378-0.0924 8e-3 -0.1134 0.0819-0.1134 0.11131 0 0.0483 0.0378 0.0735 0.0777 0.0735 0.0546 0 0.11551-0.0462 0.11551-0.12391 0-0.0966-0.0966-0.1449-0.18271-0.1449-0.0714 0-0.20371 0.0378-0.26671 0.24361-0.0126 0.0441-0.0189 0.0651-0.0693 0.32762h-0.14281c-0.0399 0-0.063 0-0.063 0.0399 0 0.0252 0.0189 0.0252 0.0567 0.0252h0.1386l-0.1554 0.82535c-0.0378 0.2016-0.0735 0.39061-0.18271 0.39061-8e-3 0-0.0609 0-0.10081-0.0378 0.0966-6e-3 0.11551-0.0798 0.11551-0.11131 0-0.0483-0.0378-0.0735-0.0777-0.0735-0.0546 0-0.11551 0.0462-0.11551 0.12601 0 0.0924 0.0924 0.14281 0.17851 0.14281 0.1155 0 0.19951-0.12181 0.23521-0.20162 0.0672-0.1323 0.11551-0.38432 0.11761-0.39902z"/><path d="m201.45 368.14h0.18061c0.042 0 0.063 0 0.063-0.042 0-0.0231-0.021-0.0231-0.0567-0.0231h-0.17432l0.0441-0.23731c8e-3 -0.0441 0.0378-0.19111 0.0504-0.21631 0.0189-0.0399 0.0546-0.0714 0.0987-0.0714 8e-3 0 0.063 0 0.1029 0.0378-0.0924 8e-3 -0.1134 0.0819-0.1134 0.11131 0 0.0483 0.0378 0.0735 0.0777 0.0735 0.0546 0 0.11551-0.0462 0.11551-0.12391 0-0.0966-0.0966-0.1449-0.18271-0.1449-0.0714 0-0.20371 0.0378-0.26671 0.24361-0.0126 0.0441-0.0189 0.0651-0.0693 0.32762h-0.14281c-0.0399 0-0.063 0-0.063 0.0399 0 0.0252 0.0189 0.0252 0.0567 0.0252h0.1386l-0.1554 0.82535c-0.0378 0.2016-0.0735 0.39061-0.18271 0.39061-8e-3 0-0.0609 0-0.10081-0.0378 0.0966-6e-3 0.11551-0.0798 0.11551-0.11131 0-0.0483-0.0378-0.0735-0.0777-0.0735-0.0546 0-0.11551 0.0462-0.11551 0.12601 0 0.0924 0.0924 0.14281 0.17851 0.14281 0.1155 0 0.19951-0.12181 0.23521-0.20162 0.0672-0.1323 0.11551-0.38432 0.11761-0.39902z"/></g><g stroke="none"><path d="m199.46 364.06h0.18061c0.042 0 0.063 0 0.063-0.042 0-0.0231-0.021-0.0231-0.0567-0.0231h-0.17432l0.0441-0.23731c8e-3 -0.0441 0.0378-0.19111 0.0504-0.21631 0.0189-0.0399 0.0546-0.0714 0.0987-0.0714 8e-3 0 0.063 0 0.1029 0.0378-0.0924 8e-3 -0.1134 0.0819-0.1134 0.11131 0 0.0483 0.0378 0.0735 0.0777 0.0735 0.0546 0 0.11551-0.0462 0.11551-0.12391 0-0.0966-0.0966-0.1449-0.18271-0.1449-0.0714 0-0.20371 0.0378-0.26671 0.24361-0.0126 0.0441-0.0189 0.0651-0.0693 0.32762h-0.14281c-0.0399 0-0.063 0-0.063 0.0399 0 0.0252 0.0189 0.0252 0.0567 0.0252h0.1386l-0.1554 0.82535c-0.0378 0.2016-0.0735 0.39061-0.18271 0.39061-8e-3 0-0.0609 0-0.10081-0.0378 0.0966-6e-3 0.11551-0.0798 0.11551-0.11131 0-0.0483-0.0378-0.0735-0.0777-0.0735-0.0546 0-0.11551 0.0462-0.11551 0.12601 0 0.0924 0.0924 0.14281 0.17851 0.14281 0.1155 0 0.19951-0.12181 0.23521-0.20162 0.0672-0.1323 0.11551-0.38432 0.11761-0.39902z"/><path d="m200.47 364.07h0.18061c0.042 0 0.063 0 0.063-0.042 0-0.0231-0.021-0.0231-0.0567-0.0231h-0.17432l0.0441-0.23731c8e-3 -0.0441 0.0378-0.19111 0.0504-0.21631 0.0189-0.0399 0.0546-0.0714 0.0987-0.0714 8e-3 0 0.063 0 0.1029 0.0378-0.0924 8e-3 -0.1134 0.0819-0.1134 0.11131 0 0.0483 0.0378 0.0735 0.0777 0.0735 0.0546 0 0.11551-0.0462 0.11551-0.12391 0-0.0966-0.0966-0.1449-0.18271-0.1449-0.0714 0-0.20371 0.0378-0.26671 0.24361-0.0126 0.0441-0.0189 0.0651-0.0693 0.32762h-0.14281c-0.0399 0-0.063 0-0.063 0.0399 0 0.0252 0.0189 0.0252 0.0567 0.0252h0.1386l-0.1554 0.82535c-0.0378 0.2016-0.0735 0.39061-0.18271 0.39061-8e-3 0-0.0609 0-0.10081-0.0378 0.0966-6e-3 0.11551-0.0798 0.11551-0.11131 0-0.0483-0.0378-0.0735-0.0777-0.0735-0.0546 0-0.11551 0.0462-0.11551 0.12601 0 0.0924 0.0924 0.14281 0.17851 0.14281 0.1155 0 0.19951-0.12181 0.23521-0.20162 0.0672-0.1323 0.11551-0.38432 0.11761-0.39902z"/><path d="m199.61 360.75h0.18061c0.042 0 0.063 0 0.063-0.042 0-0.0231-0.021-0.0231-0.0567-0.0231h-0.17432l0.0441-0.23731c8e-3 -0.0441 0.0378-0.19111 0.0504-0.21631 0.0189-0.0399 0.0546-0.0714 0.0987-0.0714 8e-3 0 0.063 0 0.1029 0.0378-0.0924 8e-3 -0.1134 0.0819-0.1134 0.11131 0 0.0483 0.0378 0.0735 0.0777 0.0735 0.0546 0 0.11551-0.0462 0.11551-0.12391 0-0.0966-0.0966-0.1449-0.18271-0.1449-0.0714 0-0.20371 0.0378-0.26671 0.24361-0.0126 0.0441-0.0189 0.0651-0.0693 0.32762h-0.14281c-0.0399 0-0.063 0-0.063 0.0399 0 0.0252 0.0189 0.0252 0.0567 0.0252h0.1386l-0.1554 0.82535c-0.0378 0.2016-0.0735 0.39061-0.18271 0.39061-8e-3 0-0.0609 0-0.10081-0.0378 0.0966-6e-3 0.11551-0.0798 0.11551-0.11131 0-0.0483-0.0378-0.0735-0.0777-0.0735-0.0546 0-0.11551 0.0462-0.11551 0.12601 0 0.0924 0.0924 0.14281 0.17851 0.14281 0.1155 0 0.19951-0.12181 0.23521-0.20162 0.0672-0.1323 0.11551-0.38432 0.11761-0.39902z"/><path d="m201.62 360.77h0.18061c0.042 0 0.063 0 0.063-0.042 0-0.0231-0.021-0.0231-0.0567-0.0231h-0.17432l0.0441-0.23731c8e-3 -0.0441 0.0378-0.19111 0.0504-0.21631 0.0189-0.0399 0.0546-0.0714 0.0987-0.0714 8e-3 0 0.063 0 0.1029 0.0378-0.0924 8e-3 -0.1134 0.0819-0.1134 0.11131 0 0.0483 0.0378 0.0735 0.0777 0.0735 0.0546 0 0.11551-0.0462 0.11551-0.12391 0-0.0966-0.0966-0.1449-0.18271-0.1449-0.0714 0-0.20371 0.0378-0.26671 0.24361-0.0126 0.0441-0.0189 0.0651-0.0693 0.32762h-0.14281c-0.0399 0-0.063 0-0.063 0.0399 0 0.0252 0.0189 0.0252 0.0567 0.0252h0.1386l-0.1554 0.82535c-0.0378 0.2016-0.0735 0.39061-0.18271 0.39061-8e-3 0-0.0609 0-0.10081-0.0378 0.0966-6e-3 0.11551-0.0798 0.11551-0.11131 0-0.0483-0.0378-0.0735-0.0777-0.0735-0.0546 0-0.11551 0.0462-0.11551 0.12601 0 0.0924 0.0924 0.14281 0.17851 0.14281 0.1155 0 0.19951-0.12181 0.23521-0.20162 0.0672-0.1323 0.11551-0.38432 0.11761-0.39902z"/><path d="m199.33 356.28h0.18061c0.042 0 0.063 0 0.063-0.042 0-0.0231-0.021-0.0231-0.0567-0.0231h-0.17432l0.0441-0.23731c8e-3 -0.0441 0.0378-0.19111 0.0504-0.21631 0.0189-0.0399 0.0546-0.0714 0.0987-0.0714 8e-3 0 0.063 0 0.1029 0.0378-0.0924 8e-3 -0.1134 0.0819-0.1134 0.11131 0 0.0483 0.0378 0.0735 0.0777 0.0735 0.0546 0 0.11551-0.0462 0.11551-0.12391 0-0.0966-0.0966-0.1449-0.18271-0.1449-0.0714 0-0.20371 0.0378-0.26671 0.24361-0.0126 0.0441-0.0189 0.0651-0.0693 0.32762h-0.14281c-0.0399 0-0.063 0-0.063 0.0399 0 0.0252 0.0189 0.0252 0.0567 0.0252h0.1386l-0.1554 0.82535c-0.0378 0.2016-0.0735 0.39061-0.18271 0.39061-8e-3 0-0.0609 0-0.10081-0.0378 0.0966-6e-3 0.11551-0.0798 0.11551-0.11131 0-0.0483-0.0378-0.0735-0.0777-0.0735-0.0546 0-0.11551 0.0462-0.11551 0.12601 0 0.0924 0.0924 0.14281 0.17851 0.14281 0.1155 0 0.19951-0.12181 0.23521-0.20162 0.0672-0.1323 0.11551-0.38432 0.11761-0.39902z"/><path d="m200.3 349.73h0.18061c0.042 0 0.063 0 0.063-0.042 0-0.0231-0.021-0.0231-0.0567-0.0231h-0.17432l0.0441-0.23731c8e-3 -0.0441 0.0378-0.19111 0.0504-0.21631 0.0189-0.0399 0.0546-0.0714 0.0987-0.0714 8e-3 0 0.063 0 0.1029 0.0378-0.0924 8e-3 -0.1134 0.0819-0.1134 0.11131 0 0.0483 0.0378 0.0735 0.0777 0.0735 0.0546 0 0.11551-0.0462 0.11551-0.12391 0-0.0966-0.0966-0.1449-0.18271-0.1449-0.0714 0-0.20371 0.0378-0.26671 0.24361-0.0126 0.0441-0.0189 0.0651-0.0693 0.32762h-0.14281c-0.0399 0-0.063 0-0.063 0.0399 0 0.0252 0.0189 0.0252 0.0567 0.0252h0.1386l-0.1554 0.82535c-0.0378 0.2016-0.0735 0.39061-0.18271 0.39061-8e-3 0-0.0609 0-0.10081-0.0378 0.0966-6e-3 0.11551-0.0798 0.11551-0.11131 0-0.0483-0.0378-0.0735-0.0777-0.0735-0.0546 0-0.11551 0.0462-0.11551 0.12601 0 0.0924 0.0924 0.14281 0.17851 0.14281 0.1155 0 0.19951-0.12181 0.23521-0.20162 0.0672-0.1323 0.11551-0.38432 0.11761-0.39902z"/><path d="m201.6 346.3h0.18061c0.042 0 0.063 0 0.063-0.042 0-0.0231-0.021-0.0231-0.0567-0.0231h-0.17432l0.0441-0.23731c8e-3 -0.0441 0.0378-0.19111 0.0504-0.21631 0.0189-0.0399 0.0546-0.0714 0.0987-0.0714 8e-3 0 0.063 0 0.1029 0.0378-0.0924 8e-3 -0.1134 0.0819-0.1134 0.11131 0 0.0483 0.0378 0.0735 0.0777 0.0735 0.0546 0 0.11551-0.0462 0.11551-0.12391 0-0.0966-0.0966-0.1449-0.18271-0.1449-0.0714 0-0.20371 0.0378-0.26671 0.24361-0.0126 0.0441-0.0189 0.0651-0.0693 0.32762h-0.14281c-0.0399 0-0.063 0-0.063 0.0399 0 0.0252 0.0189 0.0252 0.0567 0.0252h0.1386l-0.1554 0.82535c-0.0378 0.2016-0.0735 0.39061-0.18271 0.39061-8e-3 0-0.0609 0-0.10081-0.0378 0.0966-6e-3 0.11551-0.0798 0.11551-0.11131 0-0.0483-0.0378-0.0735-0.0777-0.0735-0.0546 0-0.11551 0.0462-0.11551 0.12601 0 0.0924 0.0924 0.14281 0.17851 0.14281 0.1155 0 0.19951-0.12181 0.23521-0.20162 0.0672-0.1323 0.11551-0.38432 0.11761-0.39902z"/><path d="m200.7 353.84h0.18061c0.042 0 0.063 0 0.063-0.042 0-0.0231-0.021-0.0231-0.0567-0.0231h-0.17432l0.0441-0.23731c8e-3 -0.0441 0.0378-0.19111 0.0504-0.21631 0.0189-0.0399 0.0546-0.0714 0.0987-0.0714 8e-3 0 0.063 0 0.1029 0.0378-0.0924 8e-3 -0.1134 0.0819-0.1134 0.11131 0 0.0483 0.0378 0.0735 0.0777 0.0735 0.0546 0 0.11551-0.0462 0.11551-0.12391 0-0.0966-0.0966-0.1449-0.18271-0.1449-0.0714 0-0.20371 0.0378-0.26671 0.24361-0.0126 0.0441-0.0189 0.0651-0.0693 0.32762h-0.14281c-0.0399 0-0.063 0-0.063 0.0399 0 0.0252 0.0189 0.0252 0.0567 0.0252h0.1386l-0.1554 0.82535c-0.0378 0.2016-0.0735 0.39061-0.18271 0.39061-8e-3 0-0.0609 0-0.10081-0.0378 0.0966-6e-3 0.11551-0.0798 0.11551-0.11131 0-0.0483-0.0378-0.0735-0.0777-0.0735-0.0546 0-0.11551 0.0462-0.11551 0.12601 0 0.0924 0.0924 0.14281 0.17851 0.14281 0.1155 0 0.19951-0.12181 0.23521-0.20162 0.0672-0.1323 0.11551-0.38432 0.11761-0.39902z"/><path d="m201.71 353.86h0.18061c0.042 0 0.063 0 0.063-0.042 0-0.0231-0.021-0.0231-0.0567-0.0231h-0.17432l0.0441-0.23731c8e-3 -0.0441 0.0378-0.19111 0.0504-0.21631 0.0189-0.0399 0.0546-0.0714 0.0987-0.0714 8e-3 0 0.063 0 0.1029 0.0378-0.0924 8e-3 -0.1134 0.0819-0.1134 0.11131 0 0.0483 0.0378 0.0735 0.0777 0.0735 0.0546 0 0.11551-0.0462 0.11551-0.12391 0-0.0966-0.0966-0.1449-0.18271-0.1449-0.0714 0-0.20371 0.0378-0.26671 0.24361-0.0126 0.0441-0.0189 0.0651-0.0693 0.32762h-0.14281c-0.0399 0-0.063 0-0.063 0.0399 0 0.0252 0.0189 0.0252 0.0567 0.0252h0.1386l-0.1554 0.82535c-0.0378 0.2016-0.0735 0.39061-0.18271 0.39061-8e-3 0-0.0609 0-0.10081-0.0378 0.0966-6e-3 0.11551-0.0798 0.11551-0.11131 0-0.0483-0.0378-0.0735-0.0777-0.0735-0.0546 0-0.11551 0.0462-0.11551 0.12601 0 0.0924 0.0924 0.14281 0.17851 0.14281 0.1155 0 0.19951-0.12181 0.23521-0.20162 0.0672-0.1323 0.11551-0.38432 0.11761-0.39902z"/></g></g></g><path d="m199.79 353.65h-0.012l-7e-3 3e-3h-5e-3l-5e-3 3e-3 -7e-3 3e-3h-5e-3l-0.015 9e-3 -5e-3 5e-3 -0.01 6e-3 -5e-3 5e-3 -5e-3 3e-3 -3e-3 5e-3 -5e-3 3e-3 -3e-3 5e-3 -5e-3 3e-3 -0.021 0.035v5e-3l-3e-3 5e-3v5e-3l-3e-3 5e-3v0.01c0 0.0321 0.0206 0.0664 0.071 0.0664s0.1054-0.039 0.1054-0.12831c0-0.10311-0.0985-0.19705-0.27266-0.19705-0.30016 0-0.38494 0.23371-0.38494 0.33224 0 0.17871 0.16956 0.21308 0.23371 0.22682 0.11915 0.0229 0.23829 0.0481 0.23829 0.17185 0 0.0596-0.0527 0.25204-0.32536 0.25204-0.0321 0-0.2085 0-0.26121-0.12143 0.0871 0.0115 0.14436-0.0573 0.14436-0.12144 0-0.0527-0.0367-0.0802-0.0848-0.0802-0.0596 0-0.12832 0.0481-0.12832 0.15123 0 0.13059 0.1306 0.21996 0.32765 0.21996 0.3689 0 0.45825-0.27496 0.45825-0.37578 0-0.0825-0.0436-0.13976-0.071-0.16726-0.0619-0.0641-0.12831-0.0756-0.22912-0.0962-0.0802-0.0183-0.17184-0.0344-0.17184-0.13518 0-0.0664 0.055-0.20622 0.25433-0.20622 0.0573 0 0.17184 0.0161 0.20621 0.1054z" fill="#f00" fill-opacity=".7343" fill-rule="evenodd" stroke="none"/><g fill-rule="evenodd" stroke="#000" stroke-miterlimit="10.433"><g id="content" transform="matrix(.15548 0 0 -.15548 182.84 457.13)" fill-opacity=".86275" stroke-width="0" ns0:preamble="default_packages.tex" ns0:text="$p^2 (1-p)$\n" xml:space="preserve"><path d="m155.73 708.64-0.01-0.03v-0.03l-0.01-0.03-0.01-0.02v-0.03l-0.03-0.06v-0.02l-0.02-0.04-0.01-0.01-0.01-0.02-0.01-0.01-0.01-0.02-0.01-0.01-0.02-0.01-0.01-0.01-0.02-0.01h-0.02l-0.01-0.01-0.02-0.01h-0.03l-0.02-0.01h-0.04l-0.01-0.01h-0.21c-0.12 0-0.23 0-0.23-0.19 0-0.08 0.05-0.12 0.13-0.12 0.27 0 0.56 0.03 0.84 0.03 0.33 0 0.67-0.03 0.99-0.03 0.05 0 0.18 0 0.18 0.2 0 0.11-0.1 0.11-0.24 0.11-0.5 0-0.5 0.07-0.5 0.15 0 0.12 0.42 1.74 0.49 1.99 0.13-0.29 0.41-0.63 0.92-0.63l-0.02 0.21c-0.65 0-0.78 0.83-0.78 0.89 0 0.02 0 0.04 0.03 0.16l0.49 1.94c0.07 0.27 0.34 0.55 0.51 0.7 0.35 0.31 0.64 0.38 0.81 0.38 0.4 0 0.64-0.35 0.64-0.94 0-0.58-0.33-1.72-0.51-2.1-0.34-0.7-0.82-1.03-1.19-1.03l0.02-0.21c1.15 0 2.4 1.45 2.4 2.91 0 0.93-0.57 1.59-1.33 1.59-0.5 0-0.98-0.36-1.3-0.75-0.1 0.54-0.53 0.75-0.9 0.75-0.46 0-0.65-0.39-0.74-0.57-0.18-0.34-0.31-0.93-0.31-0.96 0-0.1 0.1-0.1 0.12-0.1 0.1 0 0.11 0.01 0.17 0.22 0.17 0.71 0.37 1.19 0.73 1.19 0.17 0 0.31-0.08 0.31-0.46 0-0.23-0.03-0.34-0.07-0.51z"/><path d="m163.83 714.74h-0.24c-0.02-0.16-0.09-0.57-0.18-0.64-0.06-0.04-0.6-0.04-0.7-0.04h-1.28c0.73 0.65 0.98 0.84 1.4 1.17 0.51 0.41 1 0.84 1 1.5 0 0.84-0.75 1.36-1.64 1.36-0.87 0-1.45-0.61-1.45-1.25 0-0.35 0.3-0.39 0.37-0.39 0.16 0 0.37 0.12 0.37 0.37 0 0.13-0.05 0.37-0.42 0.37 0.22 0.49 0.7 0.65 1.02 0.65 0.7 0 1.07-0.54 1.07-1.11 0-0.6-0.44-1.08-0.66-1.33l-1.68-1.66c-0.07-0.06-0.07-0.08-0.07-0.27h2.88z"/><path d="m168.06 707.47v0.04h-0.01v0.01l-0.02 0.02v0.01h-0.01v0.01l-0.06 0.06v0.01h-0.01l-0.01 0.01v0.01h-0.01l-0.01 0.01v0.01h-0.01l-0.02 0.02c-1.24 1.25-1.56 3.13-1.56 4.65 0 1.73 0.38 3.46 1.61 4.7 0.12 0.12 0.12 0.14 0.12 0.17 0 0.07-0.03 0.1-0.09 0.1-0.11 0-1-0.68-1.59-1.94-0.51-1.09-0.63-2.2-0.63-3.03 0-0.78 0.11-1.98 0.66-3.1 0.6-1.22 1.45-1.87 1.56-1.87 0.06 0 0.09 0.03 0.09 0.1z"/><path d="m171.57 716.21v0.15l-0.01 0.01v0.03l-0.01 0.01v0.01l-0.01 0.01v0.01h-0.01l-0.01 0.01h-0.01v0.01h-0.04v0.01h-0.13c-0.62-0.64-1.5-0.64-1.81-0.64v-0.3c0.19 0 0.78 0 1.3 0.25v-5.14c0-0.36-0.03-0.48-0.92-0.48h-0.32v-0.3c0.35 0.03 1.21 0.03 1.61 0.03s1.27 0 1.62-0.03v0.3h-0.32c-0.9 0-0.93 0.11-0.93 0.48z"/><path d="m182.41 712.14h0.14l0.01 0.01h0.04l0.02 0.01h0.02l0.02 0.01 0.01 0.01h0.01l0.02 0.02h0.01l0.01 0.01v0.01l0.01 0.01v0.01l0.01 0.01v0.02h0.01v0.07c0 0.2-0.17 0.2-0.34 0.2h-5.4c-0.17 0-0.35 0-0.35-0.2s0.18-0.2 0.35-0.2z"/><path d="m186.25 708.64-0.03-0.09v-0.02l-0.01-0.03-0.01-0.02v-0.02l-0.04-0.08v-0.01l-0.01-0.02-0.02-0.01-0.01-0.02-0.02-0.02-0.02-0.01-0.01-0.01h-0.02l-0.04-0.02h-0.02l-0.03-0.01h-0.03l-0.02-0.01h-0.2c-0.12 0-0.23 0-0.23-0.19 0-0.08 0.05-0.12 0.13-0.12 0.27 0 0.56 0.03 0.83 0.03 0.33 0 0.67-0.03 0.99-0.03 0.05 0 0.18 0 0.18 0.2 0 0.11-0.1 0.11-0.24 0.11-0.5 0-0.5 0.07-0.5 0.15 0 0.12 0.42 1.74 0.49 1.99 0.13-0.29 0.41-0.63 0.92-0.63l-0.01 0.21c-0.66 0-0.79 0.83-0.79 0.89 0 0.02 0 0.04 0.03 0.16l0.49 1.94c0.07 0.27 0.34 0.55 0.52 0.7 0.35 0.31 0.64 0.38 0.81 0.38 0.39 0 0.63-0.35 0.63-0.94 0-0.58-0.32-1.72-0.5-2.1-0.34-0.7-0.82-1.03-1.19-1.03l0.01-0.21c1.16 0 2.4 1.45 2.4 2.91 0 0.93-0.57 1.59-1.32 1.59-0.5 0-0.98-0.36-1.31-0.75-0.1 0.54-0.53 0.75-0.9 0.75-0.46 0-0.65-0.39-0.74-0.57-0.18-0.34-0.3-0.93-0.3-0.96 0-0.1 0.09-0.1 0.11-0.1 0.11 0 0.11 0.01 0.17 0.22 0.17 0.71 0.37 1.19 0.73 1.19 0.17 0 0.31-0.08 0.31-0.46 0-0.23-0.03-0.34-0.07-0.51z"/><path d="m193.69 712.34v0.31l-0.02 0.34-0.02 0.18-0.02 0.19-0.06 0.4-0.04 0.2-0.1 0.42-0.06 0.21-0.07 0.21-0.08 0.21-0.04 0.11-0.05 0.11-0.05 0.1-0.05 0.11c-0.6 1.22-1.45 1.87-1.55 1.87-0.06 0-0.1-0.04-0.1-0.1 0-0.03 0-0.05 0.19-0.23 0.97-0.99 1.54-2.57 1.54-4.64 0-1.7-0.37-3.45-1.6-4.7-0.13-0.12-0.13-0.14-0.13-0.17 0-0.06 0.04-0.1 0.1-0.1 0.1 0 0.99 0.68 1.58 1.94 0.51 1.09 0.63 2.19 0.63 3.03z"/></g><g transform="matrix(.15548 0 0 -.15548 180.38 459.88)" stroke-width="0" ns0:preamble="default_packages.tex" ns0:text="$p^2 (1-p)$\n" xml:space="preserve"><g fill-opacity=".86275"><path d="m171.18 704.09-0.01-0.03v-0.03l-0.01-0.03-0.01-0.02v-0.03l-0.03-0.06v-0.02l-0.02-0.04-0.01-0.01-0.01-0.02-0.01-0.01-0.01-0.02-0.01-0.01-0.02-0.01-0.01-0.01-0.02-0.01h-0.02l-0.01-0.01-0.02-0.01h-0.03l-0.02-0.01h-0.04l-0.01-0.01h-0.21c-0.12 0-0.23 0-0.23-0.19 0-0.08 0.05-0.12 0.13-0.12 0.27 0 0.56 0.03 0.84 0.03 0.33 0 0.67-0.03 0.99-0.03 0.05 0 0.18 0 0.18 0.2 0 0.11-0.1 0.11-0.24 0.11-0.5 0-0.5 0.07-0.5 0.15 0 0.12 0.42 1.74 0.49 1.99 0.13-0.29 0.41-0.63 0.92-0.63l-0.02 0.21c-0.65 0-0.78 0.83-0.78 0.89 0 0.02 0 0.04 0.03 0.16l0.49 1.94c0.07 0.27 0.34 0.55 0.51 0.7 0.35 0.31 0.64 0.38 0.81 0.38 0.4 0 0.64-0.35 0.64-0.94 0-0.58-0.33-1.72-0.51-2.1-0.34-0.7-0.82-1.03-1.19-1.03l0.02-0.21c1.15 0 2.4 1.45 2.4 2.91 0 0.93-0.57 1.59-1.33 1.59-0.5 0-0.98-0.36-1.3-0.75-0.1 0.54-0.53 0.75-0.9 0.75-0.46 0-0.65-0.39-0.74-0.57-0.18-0.34-0.31-0.93-0.31-0.96 0-0.1 0.1-0.1 0.12-0.1 0.1 0 0.11 0.01 0.17 0.22 0.17 0.71 0.37 1.19 0.73 1.19 0.17 0 0.31-0.08 0.31-0.46 0-0.23-0.03-0.34-0.07-0.51z"/><path d="m179.28 710.19h-0.24c-0.02-0.16-0.09-0.57-0.18-0.64-0.06-0.04-0.6-0.04-0.7-0.04h-1.28c0.73 0.65 0.98 0.84 1.4 1.17 0.51 0.41 1 0.84 1 1.5 0 0.84-0.75 1.36-1.64 1.36-0.87 0-1.45-0.61-1.45-1.25 0-0.35 0.3-0.39 0.37-0.39 0.16 0 0.37 0.12 0.37 0.37 0 0.13-0.05 0.37-0.42 0.37 0.22 0.49 0.7 0.65 1.02 0.65 0.7 0 1.07-0.54 1.07-1.11 0-0.6-0.44-1.08-0.66-1.33l-1.68-1.66c-0.07-0.06-0.07-0.08-0.07-0.27h2.88z"/><path d="m183.51 702.92v0.04h-0.01v0.01l-0.02 0.02v0.01h-0.01v0.01l-0.06 0.06v0.01h-0.01l-0.01 0.01v0.01h-0.01l-0.01 0.01v0.01h-0.01l-0.02 0.02c-1.24 1.25-1.56 3.13-1.56 4.65 0 1.73 0.38 3.46 1.61 4.7 0.12 0.12 0.12 0.14 0.12 0.17 0 0.07-0.03 0.1-0.09 0.1-0.11 0-1-0.68-1.59-1.94-0.51-1.09-0.63-2.2-0.63-3.03 0-0.78 0.11-1.98 0.66-3.1 0.6-1.22 1.45-1.87 1.56-1.87 0.06 0 0.09 0.03 0.09 0.1z"/><path d="m187.02 711.66v0.15l-0.01 0.01v0.03l-0.01 0.01v0.01l-0.01 0.01v0.01h-0.01l-0.01 0.01h-0.01v0.01h-0.04v0.01h-0.13c-0.62-0.64-1.5-0.64-1.81-0.64v-0.3c0.19 0 0.78 0 1.3 0.25v-5.14c0-0.36-0.03-0.48-0.92-0.48h-0.32v-0.3c0.35 0.03 1.21 0.03 1.61 0.03s1.27 0 1.62-0.03v0.3h-0.32c-0.9 0-0.93 0.11-0.93 0.48z"/><path d="m197.86 707.59h0.14l0.01 0.01h0.04l0.02 0.01h0.02l0.02 0.01 0.01 0.01h0.01l0.02 0.02h0.01l0.01 0.01v0.01l0.01 0.01v0.01l0.01 0.01v0.02h0.01v0.07c0 0.2-0.17 0.2-0.34 0.2h-5.4c-0.17 0-0.35 0-0.35-0.2s0.18-0.2 0.35-0.2z"/><path d="m201.7 704.09-0.03-0.09v-0.02l-0.01-0.03-0.01-0.02v-0.02l-0.04-0.08v-0.01l-0.01-0.02-0.02-0.01-0.01-0.02-0.02-0.02-0.02-0.01-0.01-0.01h-0.02l-0.04-0.02h-0.02l-0.03-0.01h-0.03l-0.02-0.01h-0.2c-0.12 0-0.23 0-0.23-0.19 0-0.08 0.05-0.12 0.13-0.12 0.27 0 0.56 0.03 0.83 0.03 0.33 0 0.67-0.03 0.99-0.03 0.05 0 0.18 0 0.18 0.2 0 0.11-0.1 0.11-0.24 0.11-0.5 0-0.5 0.07-0.5 0.15 0 0.12 0.42 1.74 0.49 1.99 0.13-0.29 0.41-0.63 0.92-0.63l-0.01 0.21c-0.66 0-0.79 0.83-0.79 0.89 0 0.02 0 0.04 0.03 0.16l0.49 1.94c0.07 0.27 0.34 0.55 0.52 0.7 0.35 0.31 0.64 0.38 0.81 0.38 0.39 0 0.63-0.35 0.63-0.94 0-0.58-0.32-1.72-0.5-2.1-0.34-0.7-0.82-1.03-1.19-1.03l0.01-0.21c1.16 0 2.4 1.45 2.4 2.91 0 0.93-0.57 1.59-1.32 1.59-0.5 0-0.98-0.36-1.31-0.75-0.1 0.54-0.53 0.75-0.9 0.75-0.46 0-0.65-0.39-0.74-0.57-0.18-0.34-0.3-0.93-0.3-0.96 0-0.1 0.09-0.1 0.11-0.1 0.11 0 0.11 0.01 0.17 0.22 0.17 0.71 0.37 1.19 0.73 1.19 0.17 0 0.31-0.08 0.31-0.46 0-0.23-0.03-0.34-0.07-0.51z"/><path d="m209.14 707.79v0.31l-0.02 0.34-0.02 0.18-0.02 0.19-0.06 0.4-0.04 0.2-0.1 0.42-0.06 0.21-0.07 0.21-0.08 0.21-0.04 0.11-0.05 0.11-0.05 0.1-0.05 0.11c-0.6 1.22-1.45 1.87-1.55 1.87-0.06 0-0.1-0.04-0.1-0.1 0-0.03 0-0.05 0.19-0.23 0.97-0.99 1.54-2.57 1.54-4.64 0-1.7-0.37-3.45-1.6-4.7-0.13-0.12-0.13-0.14-0.13-0.17 0-0.06 0.04-0.1 0.1-0.1 0.1 0 0.99 0.68 1.58 1.94 0.51 1.09 0.63 2.19 0.63 3.03z"/></g><path d="m33.334 686.36-0.0099-0.0296v-0.0295l-0.0099-0.0296-0.0099-0.0196v-0.0295l-0.0297-0.0588v-0.0196l-0.0198-0.0392-0.0099-0.01-0.0099-0.0196-0.0099-0.01-0.0099-0.0197-0.0099-0.01-0.0197-0.01-0.0099-0.01-0.0197-0.01h-0.0197l-0.0099-0.01-0.0197-0.01h-0.02954l-0.0197-0.01h-0.03945l-0.0099-0.01h-0.207c-0.11818 0-0.22651 0-0.22651-0.18711 0-0.0788 0.04923-0.11819 0.12803-0.11819 0.2659 0 0.55151 0.0296 0.82726 0.0296 0.325 0 0.65984-0.0296 0.97499-0.0296 0.04924 0 0.17727 0 0.17727 0.19698 0 0.10831-0.09848 0.10831-0.23636 0.10831-0.49242 0-0.49242 0.0689-0.49242 0.14774 0 0.11817 0.41363 1.7136 0.48257 1.9598 0.12803-0.2856 0.40378-0.62044 0.90605-0.62044l-0.0197 0.20682c-0.64014 0-0.76817 0.81741-0.76817 0.87649 0 0.0196 0 0.0394 0.02954 0.15758l0.48257 1.9106c0.06894 0.26591 0.33484 0.54166 0.50227 0.68939 0.34469 0.30529 0.63029 0.37423 0.79772 0.37423 0.39393 0 0.63029-0.34469 0.63029-0.92573 0-0.57122-0.325-1.6939-0.50226-2.0682-0.33484-0.68939-0.80756-1.0144-1.172-1.0144l0.0197-0.20682c1.1326 0 2.3636 1.428 2.3636 2.8659 0 0.91589-0.56136 1.5659-1.3098 1.5659-0.49242 0-0.96514-0.35454-1.2803-0.73862-0.09848 0.53181-0.52196 0.73862-0.88635 0.73862-0.45302 0-0.64014-0.38409-0.72878-0.56135-0.17727-0.33484-0.3053-0.9159-0.3053-0.94544 0-0.0984 0.09848-0.0984 0.11818-0.0984 0.09848 0 0.10833 0.01 0.16742 0.21667 0.16742 0.69923 0.36439 1.1719 0.71893 1.1719 0.16742 0 0.3053-0.0788 0.3053-0.45301 0-0.22652-0.02954-0.33484-0.06893-0.50227z" fill-rule="evenodd" stroke-miterlimit="10.433"/></g><g transform="matrix(.15548 0 0 -.15548 180.15 466.7)" stroke-width="0" ns0:preamble="default_packages.tex" ns0:text="$p^2 (1-p)$\n" xml:space="preserve"><g fill-opacity=".86275"><path d="m173.58 705.73-0.01-0.03v-0.03l-0.01-0.03-0.01-0.02v-0.03l-0.03-0.06v-0.02l-0.02-0.04-0.01-0.01-0.01-0.02-0.01-0.01-0.01-0.02-0.01-0.01-0.02-0.01-0.01-0.01-0.02-0.01h-0.02l-0.01-0.01-0.02-0.01h-0.03l-0.02-0.01h-0.04l-0.01-0.01h-0.21c-0.12 0-0.23 0-0.23-0.19 0-0.08 0.05-0.12 0.13-0.12 0.27 0 0.56 0.03 0.84 0.03 0.33 0 0.67-0.03 0.99-0.03 0.05 0 0.18 0 0.18 0.2 0 0.11-0.1 0.11-0.24 0.11-0.5 0-0.5 0.07-0.5 0.15 0 0.12 0.42 1.74 0.49 1.99 0.13-0.29 0.41-0.63 0.92-0.63l-0.02 0.21c-0.65 0-0.78 0.83-0.78 0.89 0 0.02 0 0.04 0.03 0.16l0.49 1.94c0.07 0.27 0.34 0.55 0.51 0.7 0.35 0.31 0.64 0.38 0.81 0.38 0.4 0 0.64-0.35 0.64-0.94 0-0.58-0.33-1.72-0.51-2.1-0.34-0.7-0.82-1.03-1.19-1.03l0.02-0.21c1.15 0 2.4 1.45 2.4 2.91 0 0.93-0.57 1.59-1.33 1.59-0.5 0-0.98-0.36-1.3-0.75-0.1 0.54-0.53 0.75-0.9 0.75-0.46 0-0.65-0.39-0.74-0.57-0.18-0.34-0.31-0.93-0.31-0.96 0-0.1 0.1-0.1 0.12-0.1 0.1 0 0.11 0.01 0.17 0.22 0.17 0.71 0.37 1.19 0.73 1.19 0.17 0 0.31-0.08 0.31-0.46 0-0.23-0.03-0.34-0.07-0.51z"/><path d="m181.68 711.83h-0.24c-0.02-0.16-0.09-0.57-0.18-0.64-0.06-0.04-0.6-0.04-0.7-0.04h-1.28c0.73 0.65 0.98 0.84 1.4 1.17 0.51 0.41 1 0.84 1 1.5 0 0.84-0.75 1.36-1.64 1.36-0.87 0-1.45-0.61-1.45-1.25 0-0.35 0.3-0.39 0.37-0.39 0.16 0 0.37 0.12 0.37 0.37 0 0.13-0.05 0.37-0.42 0.37 0.22 0.49 0.7 0.65 1.02 0.65 0.7 0 1.07-0.54 1.07-1.11 0-0.6-0.44-1.08-0.66-1.33l-1.68-1.66c-0.07-0.06-0.07-0.08-0.07-0.27h2.88z"/><path d="m185.91 704.56v0.04h-0.01v0.01l-0.02 0.02v0.01h-0.01v0.01l-0.06 0.06v0.01h-0.01l-0.01 0.01v0.01h-0.01l-0.01 0.01v0.01h-0.01l-0.02 0.02c-1.24 1.25-1.56 3.13-1.56 4.65 0 1.73 0.38 3.46 1.61 4.7 0.12 0.12 0.12 0.14 0.12 0.17 0 0.07-0.03 0.1-0.09 0.1-0.11 0-1-0.68-1.59-1.94-0.51-1.09-0.63-2.2-0.63-3.03 0-0.78 0.11-1.98 0.66-3.1 0.6-1.22 1.45-1.87 1.56-1.87 0.06 0 0.09 0.03 0.09 0.1z"/><path d="m189.42 713.3v0.15l-0.01 0.01v0.03l-0.01 0.01v0.01l-0.01 0.01v0.01h-0.01l-0.01 0.01h-0.01v0.01h-0.04v0.01h-0.13c-0.62-0.64-1.5-0.64-1.81-0.64v-0.3c0.19 0 0.78 0 1.3 0.25v-5.14c0-0.36-0.03-0.48-0.92-0.48h-0.32v-0.3c0.35 0.03 1.21 0.03 1.61 0.03s1.27 0 1.62-0.03v0.3h-0.32c-0.9 0-0.93 0.11-0.93 0.48z"/><path d="m200.26 709.23h0.14l0.01 0.01h0.04l0.02 0.01h0.02l0.02 0.01 0.01 0.01h0.01l0.02 0.02h0.01l0.01 0.01v0.01l0.01 0.01v0.01l0.01 0.01v0.02h0.01v0.07c0 0.2-0.17 0.2-0.34 0.2h-5.4c-0.17 0-0.35 0-0.35-0.2s0.18-0.2 0.35-0.2z"/><path d="m204.1 705.73-0.03-0.09v-0.02l-0.01-0.03-0.01-0.02v-0.02l-0.04-0.08v-0.01l-0.01-0.02-0.02-0.01-0.01-0.02-0.02-0.02-0.02-0.01-0.01-0.01h-0.02l-0.04-0.02h-0.02l-0.03-0.01h-0.03l-0.02-0.01h-0.2c-0.12 0-0.23 0-0.23-0.19 0-0.08 0.05-0.12 0.13-0.12 0.27 0 0.56 0.03 0.83 0.03 0.33 0 0.67-0.03 0.99-0.03 0.05 0 0.18 0 0.18 0.2 0 0.11-0.1 0.11-0.24 0.11-0.5 0-0.5 0.07-0.5 0.15 0 0.12 0.42 1.74 0.49 1.99 0.13-0.29 0.41-0.63 0.92-0.63l-0.01 0.21c-0.66 0-0.79 0.83-0.79 0.89 0 0.02 0 0.04 0.03 0.16l0.49 1.94c0.07 0.27 0.34 0.55 0.52 0.7 0.35 0.31 0.64 0.38 0.81 0.38 0.39 0 0.63-0.35 0.63-0.94 0-0.58-0.32-1.72-0.5-2.1-0.34-0.7-0.82-1.03-1.19-1.03l0.01-0.21c1.16 0 2.4 1.45 2.4 2.91 0 0.93-0.57 1.59-1.32 1.59-0.5 0-0.98-0.36-1.31-0.75-0.1 0.54-0.53 0.75-0.9 0.75-0.46 0-0.65-0.39-0.74-0.57-0.18-0.34-0.3-0.93-0.3-0.96 0-0.1 0.09-0.1 0.11-0.1 0.11 0 0.11 0.01 0.17 0.22 0.17 0.71 0.37 1.19 0.73 1.19 0.17 0 0.31-0.08 0.31-0.46 0-0.23-0.03-0.34-0.07-0.51z"/><path d="m211.54 709.43v0.31l-0.02 0.34-0.02 0.18-0.02 0.19-0.06 0.4-0.04 0.2-0.1 0.42-0.06 0.21-0.07 0.21-0.08 0.21-0.04 0.11-0.05 0.11-0.05 0.1-0.05 0.11c-0.6 1.22-1.45 1.87-1.55 1.87-0.06 0-0.1-0.04-0.1-0.1 0-0.03 0-0.05 0.19-0.23 0.97-0.99 1.54-2.57 1.54-4.64 0-1.7-0.37-3.45-1.6-4.7-0.13-0.12-0.13-0.14-0.13-0.17 0-0.06 0.04-0.1 0.1-0.1 0.1 0 0.99 0.68 1.58 1.94 0.51 1.09 0.63 2.19 0.63 3.03z"/></g><g fill-rule="evenodd" stroke-miterlimit="10.433"><path d="m21.137 675.05v0.04h-0.0095v0.01l-0.019 0.02v0.01h-0.0095v0.01l-0.057 0.06v0.01h-0.0095l-0.0095 0.01v0.01h-0.0095l-0.0095 0.01v0.01h-0.0095l-0.019 0.02c-1.1837 1.1933-1.4892 2.988-1.4892 4.4391 0 1.6515 0.36276 3.303 1.537 4.4868 0.11456 0.11459 0.11456 0.13364 0.11456 0.16227 0 0.0669-0.02864 0.0954-0.08592 0.0954-0.105 0-0.95464-0.64915-1.5179-1.852-0.48686-1.0406-0.60142-2.1002-0.60142-2.8925 0-0.74462 0.105-1.8902 0.63006-2.9594 0.57278-1.1646 1.3842-1.7852 1.4892-1.7852 0.05727 0 0.08592 0.0287 0.08592 0.0954z"/><path d="m24.488 683.39v0.1492l-0.0095 0.01v0.03l-0.0095 0.01v0.01l-0.0095 0.01v0.01h-0.0095l-0.0095 0.01h-0.0095v0.01h-0.038v0.01h-0.1235c-0.59245-0.61098-1.4325-0.61098-1.7285-0.61098v-0.28639c0.18138 0 0.74462 0 1.241 0.23866v-4.9068c0-0.34367-0.02864-0.45823-0.87826-0.45823h-0.30548v-0.28638c0.33412 0.0287 1.1551 0.0287 1.537 0.0287 0.38185 0 1.2124 0 1.5465-0.0287v0.28638h-0.30548c-0.85917 0-0.88781 0.10496-0.88781 0.45823z"/><path d="m34.836 679.51h0.1336l0.0095 0.01h0.03809l0.01909 0.01h0.019l0.01909 0.01 0.0095 0.01h0.0095l0.019 0.02h0.0095l0.0095 0.01v0.01l0.0095 0.01v0.01l0.0095 0.01v0.02h0.0095v0.07c0 0.19093-0.16229 0.19093-0.32458 0.19093h-5.1546c-0.16229 0-0.33412 0-0.33412-0.19093 0-0.19092 0.17183-0.19092 0.33412-0.19092z"/><path d="m38.502 676.17-0.0285-0.0861v-0.0192l-0.0095-0.0287-0.0095-0.019v-0.019l-0.019-0.038-0.0095-0.0192-0.0095-0.019v-0.01l-0.0095-0.0192-0.01909-0.01-0.0095-0.0192-0.019-0.02-0.01909-0.01-0.0095-0.01h-0.01909l-0.03818-0.02h-0.01909l-0.02864-0.01h-0.0286l-0.01909-0.01h-0.19072c-0.11456 0-0.21957 0-0.21957-0.18138 0-0.0764 0.04773-0.1146 0.1241-0.1146 0.25775 0 0.53459 0.0287 0.79235 0.0287 0.31503 0 0.6396-0.0287 0.94509-0.0287 0.04773 0 0.17184 0 0.17184 0.19092 0 0.10496-0.09546 0.10496-0.22911 0.10496-0.47732 0-0.47732 0.0669-0.47732 0.14319 0 0.1146 0.40095 1.6611 0.46777 1.8997 0.1241-0.27684 0.3914-0.60142 0.87826-0.60142l-0.0095 0.20048c-0.63006 0-0.75416 0.79234-0.75416 0.84961 0 0.019 0 0.0382 0.02864 0.15275l0.46771 1.8519c0.06683 0.25775 0.32458 0.52504 0.49641 0.66825 0.33412 0.29592 0.61096 0.36275 0.77325 0.36275 0.37231 0 0.60142-0.33412 0.60142-0.89735 0-0.55369-0.30548-1.642-0.47732-2.0047-0.32458-0.66825-0.7828-0.98327-1.136-0.98327l0.0095-0.20048c1.1074 0 2.2911 1.3842 2.2911 2.778 0 0.8878-0.54414 1.5179-1.2601 1.5179-0.47732 0-0.93554-0.34366-1.2506-0.71598-0.09546 0.51551-0.50596 0.71598-0.85917 0.71598-0.43913 0-0.62051-0.37231-0.70643-0.54414-0.17183-0.32457-0.28639-0.8878-0.28639-0.91645 0-0.0954 0.08592-0.0954 0.105-0.0954 0.105 0 0.105 0.01 0.16229 0.21002 0.16229 0.67778 0.35321 1.136 0.69688 1.136 0.16229 0 0.29594-0.0764 0.29594-0.43913 0-0.21957-0.02864-0.32458-0.06682-0.48686z"/><path d="m45.605 679.7v0.2961l-0.019 0.32458-0.01909 0.17183-0.01909 0.18138-0.02864 0.19092-0.02864 0.19094-0.03819 0.19092-0.04773 0.20048-0.04773 0.20047-0.05727 0.20047-0.06682 0.20048-0.07637 0.20046-0.03819 0.10495-0.04773 0.10496-0.04773 0.0954-0.04773 0.10496c-0.57278 1.1646-1.3842 1.7852-1.4797 1.7852-0.05727 0-0.09546-0.0382-0.09546-0.0954 0-0.0287 0-0.0477 0.18138-0.21956 0.926-0.94509 1.4701-2.4534 1.4701-4.4295 0-1.6229-0.35321-3.2935-1.5274-4.4868-0.1241-0.1146-0.1241-0.13365-0.1241-0.16228 0-0.0572 0.03819-0.0954 0.09546-0.0954 0.09546 0 0.94509 0.64917 1.5083 1.852 0.48686 1.0406 0.60142 2.0907 0.60142 2.8925z"/></g></g><g transform="matrix(.30389 0 0 -.30389 173.33 564.35)" ns0:preamble="default_packages.tex" ns0:text="$P(2)={3 \\choose 2}p^2(1-p)$\n" xml:space="preserve"><g stroke-width="0"><path d="m142.68 699.41 0.0216 0.14059 0.36771 1.46c0.0488 0.18927 0.0594 0.20549 0.29201 0.20549h0.51912c0.44342 0 0.73003-0.14601 0.73003-0.51371 0-0.21091-0.10819-0.67054-0.31906-0.86521-0.26497-0.24334-0.58942-0.2866-0.82735-0.2866h-0.76246l-0.0216-0.14059h0.91926c0.76787 0 1.5141 0.56238 1.5141 1.1626 0 0.41097-0.35688 0.81113-1.0598 0.81113h-1.7466c-0.10279 0-0.16222 0-0.16222-0.10279 0-0.0649 0.0487-0.0649 0.15681-0.0649 0.065 0 0.16764-6e-3 0.22713-0.0103 0.0865-0.0103 0.11896-0.0271 0.11896-0.0865 0-0.0216-6e-3 -0.0379-0.0216-0.10279l-0.7192-2.8822c-0.054-0.2109-0.0649-0.25416-0.49208-0.25416-0.0919 0-0.15141 0-0.15141-0.10279 0-0.0594 0.065-0.0594 0.0811-0.0594 0.15141 0 0.53534 0.0162 0.68675 0.0162 0.11358 0 0.23252-6e-3 0.34068-6e-3 0.11898 0 0.23793-0.0103 0.35149-0.0103 0.0379 0 0.10818 0 0.10818 0.10267 0 0.0594-0.0488 0.0594-0.15141 0.0594-0.19466 0-0.34608 0-0.34608 0.0974 0 0.0324 6e-3 0.0594 0.0163 0.0919z" fill-opacity=".76863"/><path d="m147.04 696.42v0.018l-6e-3 6e-3v6e-3l-0.012 0.012v6e-3h-6e-3v6e-3h-6e-3v6e-3h-6e-3v6e-3l-0.024 0.024v6e-3h-6e-3l-6e-3 6e-3v6e-3h-6e-3l-6e-3 6e-3v6e-3h-6e-3l-0.012 0.012c-0.67052 0.67594-0.84357 1.6926-0.84357 2.5145 0 0.93549 0.20548 1.871 0.8652 2.5415 0.0703 0.0651 0.0703 0.0757 0.0703 0.0919 0 0.0379-0.0216 0.054-0.054 0.054-0.0541 0-0.53535-0.3677-0.85439-1.049-0.27578-0.58942-0.34067-1.1896-0.34067-1.6385 0-0.42179 0.0594-1.0707 0.3569-1.6763 0.32444-0.65973 0.78408-1.0112 0.83816-1.0112 0.0325 0 0.054 0.0162 0.054 0.0542z" fill-opacity=".76863"/><path d="m148.03 698.13 0.57321 0.55158c0.84357 0.74082 1.1626 1.0328 1.1626 1.5682 0 0.61647-0.48127 1.0437-1.141 1.0437-0.61105 0-1.0058-0.49209-1.0058-0.97336 0-0.29742 0.26496-0.29742 0.28119-0.29742 0.0919 0 0.28119 0.0651 0.28119 0.28121 0 0.14059-0.0973 0.28118-0.2866 0.28118-0.0431 0-0.054 0-0.0703-6e-3 0.12439 0.35148 0.41638 0.54615 0.73002 0.54615 0.49209 0 0.72459-0.43259 0.72459-0.87602 0-0.42719-0.27036-0.85438-0.56777-1.1842l-1.0328-1.1518c-0.0594-0.0594-0.0594-0.0703-0.0594-0.19467h2.0008l0.14599 0.93011h-0.12978c-0.0323-0.16223-0.0649-0.39476-0.11896-0.47588-0.0433-0.0431-0.39474-0.0431-0.51371-0.0431z" fill="#f00" fill-opacity=".82126"/></g><g fill-opacity=".76863" stroke-width="0"><path d="m151.6 699.06v0.1242l-6e-3 0.0431v0.0919l-0.0103 0.0919-6e-3 0.0973-0.0103 0.10279-0.0163 0.10818-0.0162 0.10819-0.0216 0.10818-0.027 0.11357-0.0271 0.11358-0.0323 0.11357-0.0379 0.11358-0.0433 0.11357-0.0271 0.0594-0.0216 0.0594-0.0271 0.054-0.0271 0.0594c-0.32445 0.65971-0.78409 1.0112-0.83816 1.0112-0.0324 0-0.0541-0.0216-0.0541-0.054 0-0.0163 0-0.0271 0.10279-0.12437 0.52452-0.53535 0.83275-1.3897 0.83275-2.5091 0-0.91927-0.20009-1.8656-0.86521-2.5415-0.0703-0.0649-0.0703-0.0757-0.0703-0.0919 0-0.0324 0.0216-0.0542 0.0541-0.0542 0.054 0 0.53535 0.36771 0.85439 1.049 0.27579 0.58942 0.34068 1.1842 0.34068 1.6385z"/><path d="m157.68 699.88h0.057l7e-3 7e-3h0.0518l7e-3 7e-3h0.0196l7e-3 7e-3h7e-3l7e-3 7e-3h7e-3l0.042 0.042v7e-3l7e-3 7e-3v0.014h7e-3v0.042c0 0.12675-0.1204 0.12675-0.20913 0.12675h-3.7833c-0.0887 0-0.20913 0-0.20913-0.12675 0-0.12674 0.12042-0.12674 0.21547-0.12674z"/><path d="m157.68 698.67h0.0973l0.0126 7e-3h0.014l0.0126 7e-3h7e-3l7e-3 7e-3h7e-3l7e-3 7e-3h7e-3l0.021 0.021h7e-3v0.014h7e-3v7e-3l7e-3 7e-3v0.014l7e-3 7e-3v0.042c0 0.12042-0.12042 0.12042-0.21547 0.12042h-3.7706c-0.095 0-0.21545 0-0.21545-0.12042 0-0.12673 0.1204-0.12673 0.20913-0.12673z"/><path d="m161.55 695.54v0.028h-7e-3v0.014h-7e-3v7e-3l-7e-3 7e-3v7e-3c-0.29478 0.32903-0.73055 0.86621-0.9997 1.954-0.1474 0.60434-0.20506 1.296-0.20506 1.9138 0 1.7526 0.4037 2.9814 1.1727 3.8476 0.0512 0.0603 0.0512 0.0739 0.0512 0.0873 0 0.0671-0.0512 0.0671-0.0704 0.0671-0.10256 0-0.44219-0.39618-0.52551-0.4969-0.65365-0.80578-1.0702-2.0077-1.0702-3.4984 0-0.94679 0.16022-2.2897 0.99972-3.4111 0.064-0.0806 0.47422-0.5909 0.59599-0.5909 0.0193 0 0.0704 0 0.0704 0.0671z"/><path d="m163.07 702.31h0.0321l0.0321-7e-3h0.0321l0.0321-7e-3 0.0258-7e-3 0.0321-7e-3 0.0258-7e-3 0.0321-0.0134 0.0257-0.0134 0.0258-0.0134 0.0258-0.0135 0.0258-0.0202 0.0193-0.0203 0.0258-0.0202 0.0193-0.0202 0.0194-0.0201 0.0193-0.0268 0.0194-0.0268 0.0386-0.0536 0.0129-0.0268 0.0128-0.0335 0.0129-0.0336 0.0128-0.0336 7e-3 -0.0403 0.0128-0.0335 0.021-0.1209v-0.047l7e-3 -0.0403v-0.047c0-0.57749-0.32683-0.75206-0.58316-0.75206-0.17944 0-0.57676 0.0537-0.76261 0.32902 0.21147 7e-3 0.26275 0.16115 0.26275 0.26187 0 0.14774-0.10899 0.25518-0.24993 0.25518-0.12176 0-0.24992-0.0806-0.24992-0.27532 0-0.43646 0.46781-0.71847 1.0061-0.71847 0.62162 0 1.0574 0.42973 1.0574 0.89978 0 0.36261-0.28839 0.7252-0.78184 0.83262 0.46781 0.18131 0.64084 0.53049 0.64084 0.81251 0 0.36931-0.41013 0.64462-0.90359 0.64462-0.49985 0-0.87795-0.24844-0.87795-0.62446 0-0.16116 0.0961-0.24846 0.2307-0.24846 0.141 0 0.23071 0.10738 0.23071 0.24172 0 0.1343-0.0897 0.23503-0.23071 0.24175 0.1538 0.20816 0.46783 0.25516 0.63444 0.25516 0.19866 0 0.48064-0.10073 0.48064-0.51033 0-0.19473-0.0641-0.4096-0.17943-0.55061-0.14742-0.1813-0.26917-0.18803-0.49986-0.20145-0.10899-0.0134-0.11536-0.0134-0.141-0.0134-7e-3 0-0.0447-0.0135-0.0447-0.0605 0-0.0671 0.0384-0.0671 0.11535-0.0671z"/><path d="m164.1 696.33h-0.1474c-0.0193-0.1075-0.0641-0.38275-0.12176-0.42974-0.0321-0.0268-0.3781-0.0268-0.44219-0.0268h-0.82027c0.46781 0.43647 0.62162 0.56404 0.89077 0.78563 0.33324 0.27531 0.64085 0.56406 0.64085 1.0072 0 0.56403-0.47422 0.91322-1.0446 0.91322-0.55754 0-0.93564-0.40961-0.93564-0.83935 0-0.23502 0.19225-0.26189 0.23711-0.26189 0.10899 0 0.23712 0.0806 0.23712 0.24845 0 0.0873-0.0257 0.24845-0.26276 0.24845 0.141 0.32903 0.44221 0.43646 0.65368 0.43646 0.44857 0 0.68571-0.36261 0.68571-0.74534 0-0.40288-0.28199-0.7252-0.42296-0.89307l-1.083-1.1147c-0.0447-0.0403-0.0447-0.0469-0.0447-0.18129h1.8456z"/><path d="m166.34 699.46v0.1813l-7e-3 0.19474-0.0128 0.19471-0.0194 0.20817-0.0192 0.20816-0.0321 0.21489-0.0447 0.21487-0.0449 0.22158-0.0963 0.34245-0.0384 0.10749-0.0386 0.11415-0.0385 0.11415-0.0449 0.11415-0.0512 0.10749-0.0512 0.11415-0.0513 0.11415-0.0576 0.10749-0.0641 0.11415-0.064 0.1075-0.0705 0.10738-0.0704 0.10749-0.077 0.1075c-0.0641 0.0806-0.48064 0.58418-0.59599 0.58418-0.0321 0-0.077-0.0134-0.077-0.0672 0-0.0268 0.0128-0.047 0.0384-0.0671 0.30763-0.34244 0.72416-0.88634 0.98692-1.9473 0.1474-0.60433 0.20507-1.2892 0.20507-1.9137 0-0.67149-0.0576-1.3497-0.2243-2.0078-0.24353-0.93336-0.62163-1.4638-0.94845-1.8398-0.0577-0.0603-0.0577-0.0739-0.0577-0.0873 0-0.0537 0.0448-0.0671 0.077-0.0671 0.0961 0 0.4486 0.40961 0.5255 0.50361 0.65366 0.80578 1.0638 2.0077 1.0638 3.4917z"/><path d="m168.9 697.42-7e-3 -0.0164-7e-3 -0.0165v-0.0164l-7e-3 -0.0115-7e-3 -0.0164v-0.0115l-0.021-0.0345v-0.0115l-7e-3 -0.0115-7e-3 -7e-3 -7e-3 -0.0115-7e-3 -7e-3 -7e-3 -0.0103-0.0115-7e-3 -7e-3 -7e-3 -0.0115-7e-3 -7e-3 -7e-3h-0.0115l-0.023-0.014h-0.0115l-0.0115-7e-3h-0.0234l-0.0115-7e-3h-0.12c-0.0654 0-0.12521 0-0.12521-0.10348 0-0.0435 0.0272-0.0654 0.0708-0.0654 0.14697 0 0.30483 0.0165 0.45726 0.0165 0.17963 0 0.36471-0.0165 0.53346-0.0165 0.0272 0 0.0981 0 0.0981 0.10887 0 0.06-0.0544 0.06-0.13064 0.06-0.26674 0-0.26674 0.0381-0.26674 0.0817 0 0.0653 0.22319 0.94717 0.26674 1.0833 0.0654-0.15787 0.21774-0.34294 0.49535-0.34294l-7e-3 0.11426c-0.35929 0-0.43006 0.45182-0.43006 0.48449 0 0.0115 0 0.0218 0.0164 0.0871l0.26674 1.0561c0.0381 0.14698 0.18509 0.2994 0.28306 0.38105 0.19053 0.16875 0.3484 0.20687 0.44094 0.20687 0.21774 0 0.34838-0.19053 0.34838-0.51172 0-0.3157-0.17964-0.93629-0.27762-1.1431-0.18507-0.38107-0.44637-0.5607-0.64778-0.5607l7e-3 -0.11426c0.63147 0 1.3065 0.78932 1.3065 1.5841 0 0.50626-0.30484 0.86553-0.71854 0.86553-0.27219 0-0.53348-0.19597-0.71312-0.40826-0.0544 0.29395-0.28852 0.40826-0.48993 0.40826-0.24496 0-0.34838-0.2123-0.39738-0.31027-0.0981-0.18509-0.16875-0.50626-0.16875-0.5226 0-0.0544 0.0544-0.0544 0.0654-0.0544 0.0544 0 0.0599 7e-3 0.0926 0.11976 0.0926 0.3865 0.20142 0.64778 0.39195 0.64778 0.0926 0 0.16874-0.0435 0.16874-0.25039 0-0.12521-0.0163-0.18508-0.0326-0.27763z"/><path d="m173.31 700.74h-0.13063c-0.0115-0.0871-0.049-0.31029-0.0981-0.3484-0.0272-0.0218-0.32116-0.0218-0.3756-0.0218h-0.69679c0.39739 0.35384 0.52803 0.45727 0.75666 0.6369 0.28308 0.2232 0.54436 0.45726 0.54436 0.81655 0 0.45726-0.40281 0.74032-0.8873 0.74032-0.47359 0-0.79477-0.33206-0.79477-0.68044 0-0.19053 0.16331-0.21231 0.20141-0.21231 0.0926 0 0.20142 0.0653 0.20142 0.20142 0 0.0708-0.0218 0.20142-0.22318 0.20142 0.11974 0.27218 0.37561 0.35382 0.55524 0.35382 0.38105 0 0.58245-0.29394 0.58245-0.60423 0-0.32661-0.2395-0.58792-0.35927-0.724l-0.91997-0.90364c-0.0381-0.0326-0.0381-0.0381-0.0381-0.147h1.5678z"/><path d="m175.62 696.78v0.021l-7e-3 7e-3v7e-3h-7e-3v7e-3l-7e-3 7e-3v7e-3h-7e-3v7e-3h-7e-3v7e-3h-7e-3v7e-3h-7e-3v7e-3l-0.035 0.035v7e-3h-7e-3l-0.028 0.028c-0.675 0.68045-0.84918 1.7038-0.84918 2.5313 0 0.94173 0.20685 1.8835 0.87097 2.5585 0.0708 0.0653 0.0708 0.0762 0.0708 0.0926 0 0.0381-0.0218 0.0544-0.0544 0.0544-0.0544 0-0.54437-0.37018-0.8601-1.0561-0.27761-0.59336-0.34295-1.1976-0.34295-1.6494 0-0.42461 0.0599-1.0778 0.35929-1.6875 0.32661-0.66412 0.78932-1.018 0.84376-1.018 0.0326 0 0.0544 0.0165 0.0544 0.0544z"/><path d="m177.53 701.54v0.0815l-7e-3 7e-3v0.035l-7e-3 7e-3v0.014h-7e-3v7e-3l-0.014 0.014h-7e-3l-7e-3 7e-3h-0.021l-7e-3 7e-3h-0.084c-0.3375-0.34839-0.81654-0.34839-0.99075-0.34839v-0.16329c0.10887 0 0.43005 0 0.71312 0.13607v-2.798c0-0.19598-0.0165-0.26129-0.50625-0.26129h-0.1742v-0.16331c0.19053 0.0165 0.66413 0.0165 0.88186 0.0165 0.21775 0 0.68591 0 0.87644-0.0165v0.16331h-0.17421c-0.48448 0-0.50081 0.06-0.50081 0.26129z"/><path d="m183.42 699.33h0.0802l0.0115 7e-3h0.0255l0.0115 7e-3h0.014l0.014 0.014h0.0115l0.014 0.014h7e-3v7e-3l7e-3 7e-3v7e-3h7e-3v0.014h7e-3v0.014l7e-3 7e-3v0.042c0 0.10887-0.098 0.10887-0.19052 0.10887h-2.9341c-0.0926 0-0.19053 0-0.19053-0.10887s0.0981-0.10887 0.19053-0.10887z"/><path d="m185.51 697.42-7e-3 -0.0164v-0.0165l-7e-3 -0.0164-7e-3 -0.0115v-0.0164l-0.014-0.023v-0.0115l-0.021-0.0345-7e-3 -7e-3 -7e-3 -0.0115-7e-3 -7e-3 -7e-3 -0.0103-7e-3 -7e-3 -0.0103-7e-3 -7e-3 -7e-3 -0.0115-7e-3h-7e-3l-0.023-0.014h-0.0165l-0.0115-7e-3h-0.0218l-7e-3 -7e-3h-0.1245c-0.0654 0-0.1252 0-0.1252-0.10348 0-0.0435 0.0273-0.0654 0.0708-0.0654 0.14697 0 0.30484 0.0165 0.45727 0.0165 0.17963 0 0.36471-0.0165 0.53891-0.0165 0.0273 0 0.0981 0 0.0981 0.10887 0 0.06-0.0544 0.06-0.13064 0.06-0.27218 0-0.27218 0.0381-0.27218 0.0817 0 0.0653 0.22862 0.94717 0.26673 1.0833 0.0708-0.15787 0.22319-0.34294 0.5008-0.34294l-7e-3 0.11426c-0.35927 0-0.43006 0.45182-0.43006 0.48449 0 0.0115 0 0.0218 0.0165 0.0871l0.26673 1.0561c0.0381 0.14698 0.18509 0.2994 0.28308 0.38105 0.18508 0.16875 0.34295 0.20687 0.43548 0.20687 0.21775 0 0.34839-0.19053 0.34839-0.51172 0-0.3157-0.17963-0.93629-0.27762-1.1431-0.18508-0.38107-0.44638-0.5607-0.64235-0.5607l7e-3 -0.11426c0.62601 0 1.3065 0.78932 1.3065 1.5841 0 0.50626-0.31028 0.86553-0.724 0.86553-0.27217 0-0.52802-0.19597-0.70766-0.40826-0.0544 0.29395-0.28851 0.40826-0.48994 0.40826-0.25039 0-0.35382-0.2123-0.40281-0.31027-0.098-0.18509-0.16876-0.50626-0.16876-0.5226 0-0.0544 0.0544-0.0544 0.0654-0.0544 0.0544 0 0.0599 7e-3 0.0926 0.11976 0.0926 0.3865 0.2014 0.64778 0.39738 0.64778 0.0926 0 0.16874-0.0435 0.16874-0.25039 0-0.12521-0.0164-0.18508-0.0381-0.27763z"/><path d="m189.57 699.44v0.0816l-7e-3 0.0435v0.0435l-0.014 0.1852-7e-3 0.0981-0.0165 0.10336-0.0115 0.10887-0.0218 0.10887-0.0165 0.10888-0.0544 0.22852-0.0381 0.11438-0.0381 0.11426-0.0381 0.11427-0.0272 0.06-0.0218 0.06-0.0272 0.0544-0.0272 0.06c-0.32662 0.66412-0.79477 1.018-0.8492 1.018-0.0326 0-0.0544-0.0218-0.0544-0.0544 0-0.0165 0-0.0272 0.10337-0.1252 0.53347-0.53893 0.84377-1.399 0.84377-2.5258 0-0.92542-0.20143-1.878-0.87645-2.5585-0.0708-0.0654-0.0708-0.0762-0.0708-0.0926 0-0.0326 0.0218-0.0544 0.0544-0.0544 0.0544 0 0.54436 0.37015 0.86553 1.0561 0.27763 0.59334 0.34295 1.1921 0.34295 1.6494z"/></g><g transform="matrix(-.70087 0 0 -3.4411 239.67 3142.2)" fill-opacity=".43478" fill-rule="evenodd" stroke="none" stroke-miterlimit="10.433" ns0:preamble="default_packages.tex" ns0:text="$\\{$\n" xml:space="preserve"><path d="m147 713.15v0.04l0.01 0.04v0.04l0.02 0.08 0.01 0.05 0.02 0.08 0.02 0.05 0.02 0.04 0.02 0.05 0.02 0.04 0.06 0.08 0.03 0.05 0.12 0.12 0.05 0.04 0.05 0.03 0.05 0.04 0.18 0.09 0.07 0.03 0.07 0.02 0.08 0.03 0.08 0.02h0.04l0.05 0.01 0.04 0.01 0.05 0.01h0.04l0.05 0.01h0.05l0.05 0.01c0.05 0.01 0.09 0.05 0.09 0.11 0 0.11-0.08 0.11-0.19 0.11-1 0-1.9-0.51-1.91-1.25v-2.26c0-0.39 0-0.71-0.4-1.03-0.35-0.29-0.73-0.31-0.95-0.32-0.05-0.01-0.09-0.05-0.09-0.11 0-0.1 0.06-0.1 0.16-0.11 0.66-0.04 1.14-0.4 1.25-0.89 0.03-0.1 0.03-0.12 0.03-0.48v-1.97c0-0.42 0-0.73 0.48-1.11 0.38-0.3 1.04-0.41 1.43-0.41 0.11 0 0.19 0 0.19 0.11 0 0.1-0.06 0.1-0.16 0.11-0.63 0.04-1.12 0.36-1.25 0.86-0.03 0.09-0.03 0.11-0.03 0.47v2.09c0 0.45-0.08 0.62-0.4 0.94-0.2 0.21-0.49 0.31-0.77 0.39 0.82 0.23 1.17 0.68 1.17 1.26z" fill-opacity=".43478" stroke-width=".99231"/></g></g><g fill-opacity=".33816" stroke="none"><circle cx="180.77" cy="355.13" r=".24761"/><circle cx="189.88" cy="348.1" r=".24761"/><circle cx="195.15" cy="344.04" r=".24761"/><circle cx="189.93" cy="362.21" r=".24761"/></g></g><rect x="198.56" y="348.87" width="14.856" height="1.857" fill-opacity=".098039" stroke="none"/><rect x="198.67" y="355.37" width="14.856" height="1.857" fill-opacity=".098039" stroke="none"/></g><g fill="#f00" fill-opacity=".7343" stroke="none"><path d="m176.67 700.3h-0.017l-0.01-4e-3h-7e-3l-7e-3 -4e-3 -0.01-4e-3h-7e-3l-0.021-0.012-7e-3 -7e-3 -0.014-8e-3 -7e-3 -7e-3 -7e-3 -4e-3 -4e-3 -7e-3 -7e-3 -4e-3 -4e-3 -7e-3 -7e-3 -4e-3 -0.028-0.049v-7e-3l-4e-3 -7e-3v-7e-3l-4e-3 -7e-3v-0.014c0-0.0482 0.0309-0.0996 0.10653-0.0996 0.0756 0 0.1581 0.0585 0.1581 0.19248 0 0.15466-0.14779 0.29556-0.409 0.29556-0.45023 0-0.5774-0.35055-0.5774-0.49834 0-0.26808 0.25434-0.31964 0.35057-0.34025 0.17871-0.0344 0.35743-0.0722 0.35743-0.25777 0-0.0894-0.0791-0.37806-0.48804-0.37806-0.0481 0-0.31276 0-0.39181 0.18215 0.13061-0.0172 0.21653 0.086 0.21653 0.18215 0 0.0791-0.0551 0.12033-0.12716 0.12033-0.0894 0-0.19247-0.0722-0.19247-0.22685 0-0.19589 0.1959-0.32994 0.49148-0.32994 0.55334 0 0.68738 0.41243 0.68738 0.56366 0 0.12374-0.0654 0.20965-0.10654 0.2509-0.0929 0.0962-0.19247 0.11342-0.34368 0.14434-0.12032 0.0275-0.25777 0.0516-0.25777 0.20278 0 0.0996 0.0825 0.30932 0.3815 0.30932 0.086 0 0.25776-0.0241 0.30932-0.1581z"/><path d="m178.31 700.3h-0.017l-0.01-4e-3h-7e-3l-7e-3 -4e-3 -0.01-4e-3h-7e-3l-0.021-0.012-7e-3 -7e-3 -0.014-8e-3 -7e-3 -7e-3 -7e-3 -4e-3 -4e-3 -7e-3 -7e-3 -4e-3 -4e-3 -7e-3 -7e-3 -4e-3 -0.028-0.049v-7e-3l-4e-3 -7e-3v-7e-3l-4e-3 -7e-3v-0.014c0-0.0482 0.0309-0.0996 0.10653-0.0996 0.0756 0 0.1581 0.0585 0.1581 0.19248 0 0.15466-0.14779 0.29556-0.409 0.29556-0.45023 0-0.5774-0.35055-0.5774-0.49834 0-0.26808 0.25433-0.31964 0.35057-0.34025 0.17871-0.0344 0.35743-0.0722 0.35743-0.25777 0-0.0894-0.0791-0.37806-0.48804-0.37806-0.0482 0-0.31276 0-0.39181 0.18215 0.13061-0.0172 0.21653 0.086 0.21653 0.18215 0 0.0791-0.055 0.12033-0.12716 0.12033-0.0894 0-0.19247-0.0722-0.19247-0.22685 0-0.19589 0.1959-0.32994 0.49148-0.32994 0.55334 0 0.68738 0.41243 0.68738 0.56366 0 0.12374-0.0654 0.20965-0.10654 0.2509-0.0929 0.0962-0.19247 0.11342-0.34368 0.14434-0.12032 0.0275-0.25777 0.0516-0.25777 0.20278 0 0.0996 0.0825 0.30932 0.38149 0.30932 0.086 0 0.25777-0.0241 0.30933-0.1581z"/><path d="m179.9 700.25h-0.017l-0.01-4e-3h-7e-3l-7e-3 -4e-3 -0.01-4e-3h-7e-3l-0.021-0.012-7e-3 -7e-3 -0.014-8e-3 -7e-3 -7e-3 -7e-3 -4e-3 -4e-3 -7e-3 -7e-3 -4e-3 -4e-3 -7e-3 -7e-3 -4e-3 -0.028-0.049v-7e-3l-4e-3 -7e-3v-7e-3l-4e-3 -7e-3v-0.014c0-0.0482 0.0309-0.0996 0.10653-0.0996 0.0756 0 0.1581 0.0585 0.1581 0.19247 0 0.15466-0.14779 0.29557-0.40899 0.29557-0.45023 0-0.5774-0.35056-0.5774-0.49835 0-0.26807 0.25433-0.31963 0.35056-0.34024 0.17872-0.0344 0.35743-0.0722 0.35743-0.25777 0-0.0894-0.0791-0.37806-0.48803-0.37806-0.0482 0-0.31276 0-0.39182 0.18215 0.13061-0.0172 0.21654 0.086 0.21654 0.18215 0 0.0791-0.055 0.12032-0.12716 0.12032-0.0894 0-0.19247-0.0722-0.19247-0.22684 0-0.19589 0.19589-0.32994 0.49147-0.32994 0.55335 0 0.68738 0.41243 0.68738 0.56366 0 0.12373-0.0654 0.20965-0.10653 0.25089-0.0929 0.0962-0.19247 0.11343-0.34369 0.14435-0.12032 0.0275-0.25776 0.0516-0.25776 0.20277 0 0.0996 0.0825 0.30933 0.38149 0.30933 0.086 0 0.25777-0.0241 0.30932-0.1581z"/><path d="m176.87 693.94h-0.017l-0.01-4e-3h-7e-3l-7e-3 -4e-3 -0.01-4e-3h-7e-3l-0.021-0.012-7e-3 -7e-3 -0.014-8e-3 -7e-3 -7e-3 -7e-3 -4e-3 -4e-3 -7e-3 -7e-3 -4e-3 -4e-3 -7e-3 -7e-3 -4e-3 -0.028-0.049v-7e-3l-4e-3 -7e-3v-7e-3l-4e-3 -7e-3v-0.014c0-0.0482 0.0309-0.0996 0.10653-0.0996 0.0756 0 0.1581 0.0585 0.1581 0.19248 0 0.15466-0.14779 0.29556-0.409 0.29556-0.45023 0-0.5774-0.35055-0.5774-0.49834 0-0.26808 0.25434-0.31964 0.35057-0.34025 0.17871-0.0344 0.35743-0.0722 0.35743-0.25777 0-0.0894-0.0791-0.37806-0.48804-0.37806-0.0481 0-0.31276 0-0.39181 0.18215 0.13061-0.0172 0.21653 0.086 0.21653 0.18215 0 0.0791-0.0551 0.12033-0.12716 0.12033-0.0894 0-0.19247-0.0722-0.19247-0.22685 0-0.19589 0.1959-0.32994 0.49148-0.32994 0.55334 0 0.68738 0.41243 0.68738 0.56366 0 0.12374-0.0654 0.20965-0.10654 0.2509-0.0929 0.0962-0.19247 0.11342-0.34368 0.14434-0.12032 0.0275-0.25777 0.0516-0.25777 0.20278 0 0.0996 0.0825 0.30932 0.3815 0.30932 0.086 0 0.25776-0.0241 0.30932-0.1581z"/><path d="m178.52 693.94h-0.017l-0.01-4e-3h-7e-3l-7e-3 -4e-3 -0.01-4e-3h-7e-3l-0.021-0.012-7e-3 -7e-3 -0.014-8e-3 -7e-3 -7e-3 -7e-3 -4e-3 -4e-3 -7e-3 -7e-3 -4e-3 -4e-3 -7e-3 -7e-3 -4e-3 -0.028-0.049v-7e-3l-4e-3 -7e-3v-7e-3l-4e-3 -7e-3v-0.014c0-0.0482 0.0309-0.0996 0.10653-0.0996 0.0756 0 0.1581 0.0585 0.1581 0.19248 0 0.15466-0.14779 0.29556-0.409 0.29556-0.45023 0-0.5774-0.35055-0.5774-0.49834 0-0.26808 0.25433-0.31964 0.35057-0.34025 0.17871-0.0344 0.35743-0.0722 0.35743-0.25777 0-0.0894-0.0791-0.37806-0.48804-0.37806-0.0482 0-0.31276 0-0.39181 0.18215 0.13061-0.0172 0.21653 0.086 0.21653 0.18215 0 0.0791-0.055 0.12033-0.12716 0.12033-0.0894 0-0.19247-0.0722-0.19247-0.22685 0-0.19589 0.1959-0.32994 0.49148-0.32994 0.55334 0 0.68738 0.41243 0.68738 0.56366 0 0.12374-0.0654 0.20965-0.10654 0.2509-0.0929 0.0962-0.19246 0.11342-0.34367 0.14434-0.12032 0.0275-0.25777 0.0516-0.25777 0.20278 0 0.0996 0.0825 0.30932 0.38149 0.30932 0.086 0 0.25777-0.0241 0.30933-0.1581z"/><path d="m176.67 688.86h-0.017l-0.01-4e-3h-7e-3l-7e-3 -4e-3 -0.01-4e-3h-7e-3l-0.021-0.012-7e-3 -7e-3 -0.014-8e-3 -7e-3 -7e-3 -7e-3 -4e-3 -4e-3 -7e-3 -7e-3 -4e-3 -4e-3 -7e-3 -7e-3 -4e-3 -0.028-0.049v-7e-3l-4e-3 -7e-3v-7e-3l-4e-3 -7e-3v-0.014c0-0.0482 0.0309-0.0996 0.10653-0.0996 0.0756 0 0.1581 0.0585 0.1581 0.19248 0 0.15466-0.14779 0.29556-0.409 0.29556-0.45023 0-0.5774-0.35055-0.5774-0.49834 0-0.26808 0.25434-0.31964 0.35057-0.34025 0.17871-0.0344 0.35743-0.0722 0.35743-0.25777 0-0.0894-0.0791-0.37806-0.48804-0.37806-0.0481 0-0.31276 0-0.39181 0.18215 0.13061-0.0172 0.21653 0.086 0.21653 0.18215 0 0.0791-0.0551 0.12033-0.12716 0.12033-0.0894 0-0.19247-0.0722-0.19247-0.22685 0-0.19589 0.1959-0.32994 0.49148-0.32994 0.55334 0 0.68738 0.41243 0.68738 0.56366 0 0.12374-0.0654 0.20965-0.10654 0.2509-0.0929 0.0962-0.19247 0.11342-0.34368 0.14434-0.12032 0.0275-0.25777 0.0516-0.25777 0.20278 0 0.0996 0.0825 0.30932 0.3815 0.30932 0.086 0 0.25776-0.0241 0.30932-0.1581z"/><path d="m179.9 688.81h-0.017l-0.01-4e-3h-7e-3l-7e-3 -4e-3 -0.01-4e-3h-7e-3l-0.021-0.012-7e-3 -7e-3 -0.014-8e-3 -7e-3 -7e-3 -7e-3 -4e-3 -4e-3 -7e-3 -7e-3 -4e-3 -4e-3 -7e-3 -7e-3 -4e-3 -0.028-0.049v-7e-3l-4e-3 -7e-3v-7e-3l-4e-3 -7e-3v-0.014c0-0.0482 0.0309-0.0996 0.10653-0.0996 0.0756 0 0.1581 0.0585 0.1581 0.19247 0 0.15466-0.14779 0.29557-0.40899 0.29557-0.45023 0-0.5774-0.35056-0.5774-0.49835 0-0.26807 0.25433-0.31963 0.35056-0.34024 0.17872-0.0344 0.35743-0.0722 0.35743-0.25777 0-0.0894-0.0791-0.37806-0.48803-0.37806-0.0482 0-0.31276 0-0.39182 0.18215 0.13061-0.0172 0.21654 0.086 0.21654 0.18215 0 0.0791-0.055 0.12032-0.12716 0.12032-0.0894 0-0.19247-0.0722-0.19247-0.22684 0-0.19589 0.19589-0.32994 0.49147-0.32994 0.55335 0 0.68738 0.41243 0.68738 0.56366 0 0.12373-0.0654 0.20965-0.10653 0.25089-0.0929 0.0962-0.19247 0.11343-0.34369 0.14435-0.12032 0.0275-0.25776 0.0516-0.25776 0.20277 0 0.0996 0.0825 0.30933 0.38149 0.30933 0.086 0 0.25777-0.0241 0.30932-0.1581z"/><path d="m180.24 667.15h-0.017l-0.01-4e-3h-7e-3l-7e-3 -4e-3 -0.01-4e-3h-7e-3l-0.021-0.012-7e-3 -7e-3 -0.014-8e-3 -7e-3 -7e-3 -7e-3 -4e-3 -4e-3 -7e-3 -7e-3 -4e-3 -4e-3 -7e-3 -7e-3 -4e-3 -0.028-0.049v-7e-3l-4e-3 -7e-3v-7e-3l-4e-3 -7e-3v-0.014c0-0.0482 0.0309-0.0996 0.10653-0.0996 0.0756 0 0.1581 0.0585 0.1581 0.19247 0 0.15466-0.14779 0.29557-0.40899 0.29557-0.45023 0-0.5774-0.35056-0.5774-0.49835 0-0.26807 0.25433-0.31963 0.35056-0.34024 0.17872-0.0344 0.35743-0.0722 0.35743-0.25777 0-0.0894-0.0791-0.37806-0.48803-0.37806-0.0482 0-0.31276 0-0.39182 0.18215 0.13061-0.0172 0.21654 0.086 0.21654 0.18215 0 0.0791-0.055 0.12032-0.12716 0.12032-0.0894 0-0.19247-0.0722-0.19247-0.22684 0-0.19589 0.19589-0.32994 0.49147-0.32994 0.55335 0 0.68738 0.41243 0.68738 0.56366 0 0.12373-0.0654 0.20965-0.10653 0.25089-0.0929 0.0962-0.19247 0.11343-0.34369 0.14435-0.12032 0.0275-0.25776 0.0516-0.25776 0.20277 0 0.0996 0.0825 0.30933 0.38149 0.30933 0.086 0 0.25777-0.0241 0.30932-0.1581z"/><path d="m178.76 671.92h-0.017l-0.01-4e-3h-7e-3l-7e-3 -4e-3 -0.01-4e-3h-7e-3l-0.021-0.012-7e-3 -7e-3 -0.014-8e-3 -7e-3 -7e-3 -7e-3 -4e-3 -4e-3 -7e-3 -7e-3 -4e-3 -4e-3 -7e-3 -7e-3 -4e-3 -0.028-0.049v-7e-3l-4e-3 -7e-3v-7e-3l-4e-3 -7e-3v-0.014c0-0.0482 0.0309-0.0996 0.10653-0.0996 0.0756 0 0.1581 0.0585 0.1581 0.19247 0 0.15466-0.14779 0.29557-0.40899 0.29557-0.45023 0-0.5774-0.35056-0.5774-0.49835 0-0.26807 0.25433-0.31963 0.35056-0.34024 0.17872-0.0344 0.35743-0.0722 0.35743-0.25777 0-0.0894-0.0791-0.37806-0.48803-0.37806-0.0482 0-0.31276 0-0.39182 0.18215 0.13061-0.0172 0.21654 0.086 0.21654 0.18215 0 0.0791-0.055 0.12032-0.12716 0.12032-0.0894 0-0.19247-0.0722-0.19247-0.22684 0-0.19589 0.19589-0.32994 0.49147-0.32994 0.55335 0 0.68738 0.41243 0.68738 0.56366 0 0.12373-0.0654 0.20965-0.10653 0.25089-0.0929 0.0962-0.19247 0.11343-0.34369 0.14435-0.12032 0.0275-0.25776 0.0516-0.25776 0.20277 0 0.0996 0.0825 0.30933 0.38149 0.30933 0.086 0 0.25777-0.0241 0.30932-0.1581z"/><path d="m178.32 678.76h-0.017l-0.01-4e-3h-7e-3l-7e-3 -4e-3 -0.01-4e-3h-7e-3l-0.021-0.012-7e-3 -7e-3 -0.014-8e-3 -7e-3 -7e-3 -7e-3 -4e-3 -4e-3 -7e-3 -7e-3 -4e-3 -4e-3 -7e-3 -7e-3 -4e-3 -0.028-0.049v-7e-3l-4e-3 -7e-3v-7e-3l-4e-3 -7e-3v-0.014c0-0.0482 0.0309-0.0996 0.10653-0.0996 0.0756 0 0.1581 0.0585 0.1581 0.19248 0 0.15466-0.14779 0.29556-0.409 0.29556-0.45023 0-0.5774-0.35055-0.5774-0.49834 0-0.26808 0.25434-0.31964 0.35057-0.34025 0.17871-0.0344 0.35743-0.0722 0.35743-0.25777 0-0.0894-0.0791-0.37806-0.48804-0.37806-0.0481 0-0.31276 0-0.39181 0.18215 0.13061-0.0172 0.21653 0.086 0.21653 0.18215 0 0.0791-0.0551 0.12033-0.12716 0.12033-0.0894 0-0.19247-0.0722-0.19247-0.22685 0-0.19589 0.1959-0.32994 0.49148-0.32994 0.55334 0 0.68738 0.41243 0.68738 0.56366 0 0.12374-0.0654 0.20965-0.10654 0.2509-0.0929 0.0962-0.19247 0.11342-0.34368 0.14434-0.12032 0.0275-0.25777 0.0516-0.25777 0.20278 0 0.0996 0.0825 0.30932 0.3815 0.30932 0.086 0 0.25776-0.0241 0.30932-0.1581z"/><path d="m179.96 678.76h-0.017l-0.01-4e-3h-7e-3l-7e-3 -4e-3 -0.01-4e-3h-7e-3l-0.021-0.012-7e-3 -7e-3 -0.014-8e-3 -7e-3 -7e-3 -7e-3 -4e-3 -4e-3 -7e-3 -7e-3 -4e-3 -4e-3 -7e-3 -7e-3 -4e-3 -0.028-0.049v-7e-3l-4e-3 -7e-3v-7e-3l-4e-3 -7e-3v-0.014c0-0.0482 0.0309-0.0996 0.10653-0.0996 0.0756 0 0.1581 0.0585 0.1581 0.19248 0 0.15466-0.14779 0.29556-0.409 0.29556-0.45023 0-0.5774-0.35055-0.5774-0.49834 0-0.26808 0.25433-0.31964 0.35057-0.34025 0.17871-0.0344 0.35743-0.0722 0.35743-0.25777 0-0.0894-0.0791-0.37806-0.48804-0.37806-0.0482 0-0.31276 0-0.39181 0.18215 0.13061-0.0172 0.21653 0.086 0.21653 0.18215 0 0.0791-0.055 0.12033-0.12716 0.12033-0.0894 0-0.19247-0.0722-0.19247-0.22685 0-0.19589 0.1959-0.32994 0.49148-0.32994 0.55334 0 0.68738 0.41243 0.68738 0.56366 0 0.12374-0.0654 0.20965-0.10654 0.2509-0.0929 0.0962-0.19245 0.11342-0.34366 0.14434-0.12032 0.0275-0.25777 0.0516-0.25777 0.20278 0 0.0996 0.0825 0.30932 0.38149 0.30932 0.086 0 0.25777-0.0241 0.30933-0.1581z"/></g><g transform="matrix(.24751 0 0 .24751 129.79 531.51)" stroke="#000" stroke-miterlimit="10.433" stroke-width="0" ns0:preamble="default_packages.tex" ns0:text="$$p^3 (1-p)^3 p^2(1-p) p(1-p)^2$$\n" xml:space="preserve"><path d="m236.17 675.28-0.02-0.06v-0.03l-0.01-0.03-0.01-0.02v-0.03l-0.04-0.08v-0.01l-0.01-0.02-0.01-0.01-0.01-0.02-0.02-0.01-0.02-0.02-0.02-0.01-0.01-0.01-0.04-0.02h-0.02l-0.02-0.01h-0.02l-0.03-0.01h-0.07l-0.02-0.01h-0.14c-0.12 0-0.23 0-0.23-0.19 0-0.08 0.05-0.12 0.13-0.12 0.27 0 0.56 0.03 0.84 0.03 0.32 0 0.66-0.03 0.98-0.03 0.05 0 0.18 0 0.18 0.2 0 0.11-0.1 0.11-0.24 0.11-0.49 0-0.49 0.07-0.49 0.16 0 0.12 0.41 1.74 0.48 1.99 0.13-0.29 0.41-0.64 0.92-0.64l-0.01 0.22c-0.66 0-0.79 0.82-0.79 0.88 0 0.02 0 0.04 0.03 0.16l0.49 1.95c0.07 0.27 0.34 0.55 0.52 0.7 0.35 0.3 0.64 0.37 0.81 0.37 0.4 0 0.64-0.35 0.64-0.93 0-0.59-0.33-1.73-0.51-2.11-0.34-0.69-0.82-1.02-1.19-1.02l0.01-0.22c1.16 0 2.4 1.45 2.4 2.91 0 0.94-0.56 1.59-1.32 1.59-0.5 0-0.98-0.36-1.31-0.74-0.1 0.53-0.53 0.74-0.9 0.74-0.45 0-0.64-0.39-0.73-0.57-0.18-0.33-0.31-0.93-0.31-0.96 0-0.1 0.1-0.1 0.12-0.1 0.1 0 0.11 0.01 0.17 0.23 0.17 0.7 0.37 1.18 0.72 1.18 0.17 0 0.31-0.08 0.31-0.45 0-0.23-0.03-0.34-0.07-0.51z" fill-opacity=".36078"/><path d="m242.64 682.92h0.15l0.05-0.01 0.04-0.01 0.05-0.01 0.04-0.02 0.05-0.02 0.04-0.01 0.04-0.02 0.04-0.03 0.03-0.02 0.08-0.06 0.03-0.03 0.03-0.04 0.03-0.03 0.06-0.08 0.02-0.04 0.03-0.05 0.02-0.04 0.02-0.05 0.02-0.06 0.01-0.05 0.02-0.05 0.03-0.18v-0.14l0.01-0.06c0-0.87-0.51-1.12-0.91-1.12-0.28 0-0.9 0.07-1.19 0.48 0.33 0.02 0.4 0.25 0.4 0.39 0 0.23-0.16 0.39-0.38 0.39-0.2 0-0.39-0.12-0.39-0.41 0-0.65 0.72-1.08 1.57-1.08 0.97 0 1.64 0.65 1.64 1.35 0 0.54-0.44 1.08-1.21 1.24 0.73 0.26 1 0.79 1 1.21 0 0.55-0.64 0.96-1.42 0.96-0.77 0-1.37-0.37-1.37-0.93 0-0.24 0.16-0.37 0.37-0.37 0.22 0 0.35 0.16 0.35 0.36s-0.13 0.34-0.35 0.36c0.24 0.3 0.73 0.38 0.98 0.38 0.32 0 0.76-0.15 0.76-0.76 0-0.29-0.1-0.61-0.28-0.83-0.23-0.26-0.43-0.27-0.78-0.3-0.17-0.01-0.19-0.01-0.22-0.02-0.01 0-0.07-0.01-0.07-0.09 0-0.1 0.06-0.1 0.18-0.1z" fill-opacity=".36078"/><g fill-opacity=".36232"><path d="m237.03 515.46v0.03h-0.01v0.01l-0.01 0.01v0.01l-0.03 0.03v0.01h-0.01l-0.04 0.04v0.01h-0.01v0.01h-0.01l-0.01 0.01v0.01h-0.01l-0.01 0.01v0.01l-0.01 0.01h-0.01c-1.25 1.26-1.56 3.13-1.56 4.65 0 1.73 0.37 3.46 1.6 4.7 0.13 0.12 0.13 0.14 0.13 0.17 0 0.07-0.04 0.1-0.1 0.1-0.1 0-1-0.67-1.59-1.94-0.5-1.09-0.62-2.19-0.62-3.03 0-0.77 0.11-1.97 0.65-3.1 0.6-1.22 1.46-1.86 1.56-1.86 0.06 0 0.1 0.03 0.1 0.1z"/><path d="m240.54 524.2v0.09l-0.01 0.01v0.07l-0.01 0.01v0.02l-0.01 0.01v0.01h-0.01v0.01h-0.01l-0.01 0.01h-0.02v0.01h-0.08l-0.01 0.01h-0.06c-0.62-0.64-1.5-0.64-1.82-0.64v-0.31c0.2 0 0.79 0 1.31 0.26v-5.14c0-0.36-0.03-0.48-0.93-0.48h-0.32v-0.31c0.35 0.03 1.22 0.03 1.62 0.03s1.26 0 1.61-0.03v0.31h-0.32c-0.89 0-0.92 0.11-0.92 0.48z"/><path d="m251.37 520.13h0.17l0.02 0.01h0.02l0.02 0.01h0.02l0.02 0.02h0.01l0.05 0.05v0.01l0.01 0.01v0.02l0.01 0.01v0.05c0 0.2-0.18 0.2-0.35 0.2h-5.39c-0.17 0-0.35 0-0.35-0.2 0-0.19 0.18-0.19 0.35-0.19z"/><path d="m255.21 516.63-0.01-0.03v-0.03l-0.02-0.06v-0.02l-0.01-0.03-0.02-0.04v-0.02l-0.01-0.02-0.01-0.01-0.01-0.02-0.01-0.01-0.01-0.02-0.02-0.02-0.02-0.01-0.01-0.01-0.04-0.02-0.01-0.01h-0.02l-0.03-0.01h-0.02l-0.03-0.01h-0.07l-0.01-0.01h-0.15c-0.12 0-0.23 0-0.23-0.19 0-0.08 0.05-0.12 0.13-0.12 0.27 0 0.56 0.03 0.84 0.03 0.33 0 0.67-0.03 0.99-0.03 0.05 0 0.18 0 0.18 0.2 0 0.11-0.1 0.11-0.24 0.11-0.5 0-0.5 0.07-0.5 0.16 0 0.12 0.42 1.74 0.49 1.99 0.13-0.29 0.41-0.64 0.92-0.64l-0.02 0.22c-0.65 0-0.78 0.82-0.78 0.88 0 0.02 0 0.04 0.03 0.16l0.49 1.95c0.07 0.27 0.34 0.55 0.51 0.7 0.35 0.3 0.64 0.37 0.81 0.37 0.4 0 0.64-0.35 0.64-0.93 0-0.59-0.33-1.73-0.51-2.11-0.34-0.69-0.82-1.02-1.19-1.02l0.02-0.22c1.15 0 2.4 1.45 2.4 2.91 0 0.94-0.57 1.59-1.33 1.59-0.5 0-0.97-0.36-1.3-0.74-0.1 0.53-0.53 0.74-0.9 0.74-0.46 0-0.65-0.39-0.74-0.57-0.18-0.33-0.31-0.93-0.31-0.96 0-0.1 0.1-0.1 0.12-0.1 0.1 0 0.11 0.01 0.17 0.23 0.17 0.7 0.37 1.18 0.73 1.18 0.17 0 0.31-0.08 0.31-0.45 0-0.23-0.03-0.34-0.07-0.51z"/><path d="m262.66 520.32v0.08l-0.01 0.07v0.16l-0.01 0.17-0.01 0.18-0.02 0.18-0.04 0.38-0.04 0.2-0.04 0.21-0.04 0.2-0.12 0.42-0.07 0.22-0.08 0.21-0.04 0.11-0.04 0.1-0.05 0.11-0.05 0.1c-0.6 1.22-1.46 1.87-1.56 1.87-0.06 0-0.1-0.04-0.1-0.1 0-0.03 0-0.05 0.19-0.23 0.98-0.98 1.55-2.56 1.55-4.64 0-1.69-0.37-3.44-1.61-4.69-0.13-0.12-0.13-0.14-0.13-0.17 0-0.06 0.04-0.1 0.1-0.1 0.1 0 1 0.67 1.59 1.93 0.51 1.1 0.63 2.2 0.63 3.03z"/><path d="m265.56 524.27h0.15l0.04-0.01 0.1-0.02 0.08-0.04 0.05-0.01 0.04-0.02 0.04-0.03 0.03-0.02 0.08-0.06 0.03-0.03 0.03-0.04 0.03-0.03 0.06-0.08 0.02-0.04 0.03-0.05 0.02-0.04 0.02-0.05 0.02-0.06 0.01-0.05 0.02-0.05 0.02-0.12v-0.06l0.01-0.07v-0.07l0.01-0.06c0-0.87-0.51-1.12-0.91-1.12-0.28 0-0.9 0.07-1.19 0.48 0.33 0.02 0.4 0.25 0.4 0.39 0 0.23-0.17 0.39-0.38 0.39-0.2 0-0.39-0.12-0.39-0.41 0-0.65 0.72-1.08 1.57-1.08 0.97 0 1.64 0.65 1.64 1.35 0 0.54-0.45 1.08-1.21 1.24 0.73 0.26 1 0.79 1 1.21 0 0.55-0.64 0.96-1.42 0.96-0.77 0-1.37-0.37-1.37-0.93 0-0.24 0.16-0.37 0.37-0.37s0.35 0.16 0.35 0.36-0.14 0.34-0.35 0.36c0.24 0.3 0.72 0.38 0.98 0.38 0.32 0 0.76-0.15 0.76-0.76 0-0.29-0.1-0.61-0.28-0.83-0.23-0.26-0.43-0.27-0.78-0.3-0.17-0.01-0.19-0.01-0.22-0.02-0.02 0-0.07-0.01-0.07-0.09 0-0.1 0.06-0.1 0.18-0.1z"/></g><g fill-opacity=".36078"><path d="m236.08 605.08-0.02-0.06v-0.03l-0.01-0.03-0.01-0.02v-0.03l-0.03-0.06v-0.02l-0.01-0.01-0.01-0.02-0.01-0.01-0.01-0.02-0.01-0.01-0.02-0.01-0.01-0.01-0.02-0.01-0.01-0.01-0.04-0.02h-0.02l-0.02-0.01h-0.02l-0.03-0.01h-0.07l-0.02-0.01h-0.14c-0.12 0-0.23 0-0.23-0.19 0-0.08 0.05-0.12 0.13-0.12 0.27 0 0.56 0.03 0.84 0.03 0.33 0 0.67-0.03 0.98-0.03 0.05 0 0.18 0 0.18 0.2 0 0.11-0.1 0.11-0.23 0.11-0.5 0-0.5 0.07-0.5 0.16 0 0.12 0.41 1.74 0.49 1.99 0.12-0.29 0.4-0.64 0.91-0.64l-0.01 0.22c-0.66 0-0.79 0.82-0.79 0.88 0 0.02 0 0.04 0.03 0.16l0.49 1.95c0.07 0.27 0.34 0.55 0.52 0.7 0.35 0.3 0.64 0.37 0.81 0.37 0.4 0 0.64-0.35 0.64-0.93 0-0.59-0.33-1.73-0.51-2.11-0.34-0.69-0.82-1.02-1.19-1.02l0.01-0.22c1.16 0 2.41 1.45 2.41 2.91 0 0.94-0.57 1.59-1.33 1.59-0.5 0-0.98-0.36-1.31-0.74-0.1 0.53-0.53 0.74-0.89 0.74-0.46 0-0.65-0.39-0.74-0.57-0.18-0.33-0.31-0.93-0.31-0.96 0-0.1 0.1-0.1 0.12-0.1 0.1 0 0.11 0.01 0.17 0.23 0.17 0.7 0.37 1.18 0.73 1.18 0.16 0 0.3-0.08 0.3-0.45 0-0.23-0.03-0.34-0.06-0.51z"/><path d="m243.94 603.91v0.03h-0.01v0.01l-0.01 0.01v0.01l-0.03 0.03v0.01h-0.01l-0.01 0.01v0.01h-0.01v0.01h-0.01v0.01l-0.01 0.01h-0.01v0.01h-0.01v0.01l-0.01 0.01h-0.01l-0.01 0.01v0.01l-0.01 0.01h-0.01c-1.24 1.26-1.56 3.13-1.56 4.65 0 1.73 0.38 3.46 1.6 4.7 0.13 0.12 0.13 0.14 0.13 0.17 0 0.07-0.04 0.1-0.1 0.1-0.1 0-1-0.67-1.58-1.94-0.51-1.09-0.63-2.19-0.63-3.03 0-0.77 0.11-1.97 0.66-3.1 0.6-1.22 1.45-1.86 1.55-1.86 0.06 0 0.1 0.03 0.1 0.1z"/><path d="m247.45 612.65v0.12h-0.01v0.05l-0.01 0.01v0.02l-0.01 0.01v0.01h-0.01v0.01h-0.01l-0.01 0.01h-0.02v0.01h-0.08v0.01h-0.07c-0.62-0.64-1.5-0.64-1.82-0.64v-0.31c0.2 0 0.79 0 1.31 0.26v-5.14c0-0.36-0.03-0.48-0.93-0.48h-0.32v-0.31c0.35 0.03 1.22 0.03 1.62 0.03s1.26 0 1.61-0.03v0.31h-0.32c-0.89 0-0.92 0.11-0.92 0.48z"/><path d="m258.28 608.58h0.17l0.02 0.01h0.03l0.01 0.01h0.02l0.01 0.01 0.02 0.01h0.01l0.02 0.02v0.01l0.02 0.02v0.01l0.01 0.01v0.02h0.01v0.06c0 0.2-0.18 0.2-0.35 0.2h-5.39c-0.17 0-0.35 0-0.35-0.2 0-0.19 0.18-0.19 0.35-0.19z"/><path d="m262.12 605.08v-0.03l-0.03-0.09v-0.02l-0.01-0.03-0.01-0.02v-0.02l-0.02-0.04-0.01-0.01-0.01-0.02-0.01-0.01-0.01-0.02-0.02-0.02-0.02-0.01-0.01-0.01-0.02-0.01-0.01-0.01-0.02-0.01h-0.02l-0.02-0.01h-0.03l-0.02-0.01h-0.07l-0.02-0.01h-0.15c-0.12 0-0.22 0-0.22-0.19 0-0.08 0.04-0.12 0.13-0.12 0.26 0 0.55 0.03 0.83 0.03 0.33 0 0.67-0.03 0.99-0.03 0.05 0 0.18 0 0.18 0.2 0 0.11-0.1 0.11-0.24 0.11-0.5 0-0.5 0.07-0.5 0.16 0 0.12 0.42 1.74 0.49 1.99 0.13-0.29 0.41-0.64 0.92-0.64l-0.01 0.22c-0.66 0-0.79 0.82-0.79 0.88 0 0.02 0 0.04 0.03 0.16l0.49 1.95c0.07 0.27 0.34 0.55 0.52 0.7 0.34 0.3 0.63 0.37 0.8 0.37 0.4 0 0.64-0.35 0.64-0.93 0-0.59-0.33-1.73-0.51-2.11-0.34-0.69-0.81-1.02-1.18-1.02l0.01-0.22c1.15 0 2.4 1.45 2.4 2.91 0 0.94-0.57 1.59-1.33 1.59-0.49 0-0.97-0.36-1.3-0.74-0.1 0.53-0.53 0.74-0.9 0.74-0.46 0-0.65-0.39-0.74-0.57-0.18-0.33-0.31-0.93-0.31-0.96 0-0.1 0.1-0.1 0.12-0.1 0.1 0 0.11 0.01 0.17 0.23 0.17 0.7 0.37 1.18 0.73 1.18 0.17 0 0.31-0.08 0.31-0.45 0-0.23-0.03-0.34-0.07-0.51z"/><path d="m269.57 608.77v0.15l-0.01 0.08v0.08l-0.01 0.17-0.02 0.36-0.03 0.19-0.02 0.19-0.04 0.2-0.03 0.21-0.05 0.2-0.05 0.21-0.07 0.21-0.07 0.22-0.07 0.21-0.05 0.11-0.04 0.1-0.05 0.11-0.05 0.1c-0.6 1.22-1.46 1.87-1.56 1.87-0.06 0-0.1-0.04-0.1-0.1 0-0.03 0-0.05 0.19-0.23 0.98-0.98 1.55-2.56 1.55-4.64 0-1.69-0.37-3.44-1.61-4.69-0.13-0.12-0.13-0.14-0.13-0.17 0-0.06 0.04-0.1 0.1-0.1 0.1 0 1 0.67 1.59 1.93 0.51 1.1 0.63 2.2 0.63 3.03z"/><path d="m274.09 611.67h-0.24c-0.02-0.15-0.09-0.57-0.18-0.63-0.05-0.05-0.59-0.05-0.69-0.05h-1.29c0.74 0.65 0.98 0.85 1.4 1.17 0.52 0.41 1 0.84 1 1.5 0 0.85-0.74 1.36-1.63 1.36-0.87 0-1.46-0.61-1.46-1.24 0-0.36 0.3-0.39 0.37-0.39 0.17 0 0.37 0.11 0.37 0.37 0 0.12-0.05 0.36-0.41 0.36 0.22 0.5 0.69 0.65 1.02 0.65 0.7 0 1.06-0.54 1.06-1.11 0-0.6-0.43-1.08-0.66-1.33l-1.68-1.66c-0.07-0.06-0.07-0.07-0.07-0.27h2.88z"/><g fill-rule="evenodd" stroke-miterlimit="10.433"><path d="m236.1 540.84-0.02-0.06v-0.03l-0.01-0.03-0.01-0.02v-0.03l-0.03-0.06v-0.02l-0.01-0.01-0.01-0.02-0.01-0.01-0.01-0.02-0.01-0.01-0.02-0.01-0.01-0.01-0.02-0.01-0.01-0.01-0.04-0.02h-0.02l-0.02-0.01h-0.02l-0.03-0.01h-0.07l-0.02-0.01h-0.14c-0.12 0-0.23 0-0.23-0.19 0-0.08 0.05-0.12 0.13-0.12 0.27 0 0.56 0.03 0.84 0.03 0.33 0 0.67-0.03 0.98-0.03 0.05 0 0.18 0 0.18 0.2 0 0.11-0.1 0.11-0.23 0.11-0.5 0-0.5 0.07-0.5 0.16 0 0.12 0.41 1.74 0.49 1.99 0.12-0.29 0.4-0.64 0.91-0.64l-0.01 0.22c-0.66 0-0.79 0.82-0.79 0.88 0 0.02 0 0.04 0.03 0.16l0.49 1.95c0.07 0.26997 0.34 0.54997 0.52 0.69997 0.35 0.3 0.64 0.37 0.81 0.37 0.4 0 0.64-0.35 0.64-0.93 0-0.59-0.33-1.73-0.51-2.11-0.34-0.69-0.82-1.02-1.19-1.02l0.01-0.22c1.16 0 2.41 1.45 2.41 2.91 0 0.94-0.57 1.59-1.33 1.59-0.5 0-0.98-0.36-1.31-0.74-0.1 0.53-0.53 0.74-0.89 0.74-0.46 0-0.65-0.39-0.74-0.57-0.18-0.33-0.31-0.93-0.31-0.96 0-0.1 0.1-0.1 0.12-0.1 0.1 0 0.11 0.01 0.17 0.23 0.17 0.7 0.37 1.18 0.73 1.18 0.16 0 0.3-0.08 0.3-0.45 0-0.23-0.03-0.34-0.06-0.51z"/><path d="m243.96 539.67v0.03h-0.01v0.01l-0.01 0.01v0.01l-0.03 0.03v0.01h-0.01l-0.01 0.01v0.01h-0.01v0.01h-0.01v0.01l-0.01 0.01h-0.01v0.01h-0.01v0.01l-0.01 0.01h-0.01l-0.01 0.01v0.01l-0.01 0.01h-0.01c-1.24 1.26-1.56 3.13-1.56 4.65 0 1.73 0.38 3.46 1.6 4.7 0.13 0.12 0.13 0.14 0.13 0.17 0 0.07-0.04 0.1-0.1 0.1-0.1 0-1-0.67-1.58-1.94-0.51-1.09-0.63-2.19-0.63-3.03 0-0.77 0.11-1.97 0.66-3.1 0.6-1.22 1.45-1.86 1.55-1.86 0.06 0 0.1 0.03 0.1 0.1z"/><path d="m247.47 548.41v0.12h-0.01v0.05l-0.01 0.01v0.02l-0.01 0.01v0.01h-0.01v0.01h-0.01l-0.01 0.01h-0.02v0.01h-0.08v0.01h-0.07c-0.62-0.64-1.5-0.64-1.82-0.64v-0.31c0.2 0 0.79 0 1.31 0.26v-5.14c0-0.36-0.03-0.48-0.93-0.48h-0.32v-0.31c0.35 0.03 1.22 0.03 1.62 0.03s1.26 0 1.61-0.03v0.31h-0.32003c-0.89 0-0.92 0.11-0.92 0.48z"/><path d="m258.3 544.34h0.17l0.02 0.01h0.03l0.01 0.01h0.02l0.01 0.01 0.02 0.01h0.01l0.02 0.02v0.01l0.02 0.02v0.01l0.01 0.01v0.02h0.01v0.06c0 0.2-0.18 0.2-0.35 0.2h-5.39c-0.17 0-0.35 0-0.35-0.2 0-0.19 0.18-0.19 0.35-0.19z"/><path d="m262.14 540.84v-0.03l-0.03-0.09v-0.02l-0.01-0.03-0.01-0.02v-0.02l-0.02-0.04-0.01-0.01-0.01-0.02-0.01-0.01-0.01-0.02-0.02-0.02-0.02-0.01-0.01-0.01-0.02-0.01-0.01-0.01-0.02-0.01h-0.02l-0.02-0.01h-0.03l-0.02-0.01h-0.07l-0.02-0.01h-0.15c-0.12 0-0.22 0-0.22-0.19 0-0.08 0.04-0.12 0.13-0.12 0.26 0 0.55 0.03 0.83 0.03 0.33 0 0.67-0.03 0.99-0.03 0.05 0 0.18 0 0.18 0.2 0 0.11-0.1 0.11-0.24 0.11-0.5 0-0.5 0.07-0.5 0.16 0 0.12 0.42 1.74 0.49 1.99 0.13-0.29 0.41-0.64 0.92-0.64l-0.01 0.22c-0.66001 0-0.79001 0.82-0.79001 0.88 0 0.02 0 0.04 0.03 0.16l0.49 1.95c0.07 0.27 0.34 0.55 0.52 0.7 0.34 0.3 0.63 0.37 0.8 0.37 0.4 0 0.64-0.35 0.64-0.93 0-0.59-0.33-1.73-0.51-2.11-0.34-0.69-0.81-1.02-1.18-1.02l0.01-0.22c1.15 0 2.4 1.45 2.4 2.91 0 0.94-0.57 1.59-1.33 1.59-0.49 0-0.97-0.36-1.3-0.74-0.10007 0.52997-0.53007 0.73997-0.90007 0.73997-0.46 0-0.65-0.39-0.74-0.57-0.18-0.33-0.31-0.93-0.31-0.96 0-0.1 0.1-0.1 0.12-0.1 0.1 0 0.11 0.01 0.17 0.23 0.17 0.7 0.37 1.18 0.73 1.18 0.17 0 0.31-0.08 0.31-0.45 0-0.23-0.03-0.34-0.07-0.51z"/><path d="m269.59 544.53v0.15l-0.01 0.08v0.08l-0.01 0.17-0.02 0.36-0.03 0.19-0.02 0.19-0.04 0.2-0.03 0.21-0.05 0.2-0.05 0.21-0.07 0.21-0.07 0.22-0.07 0.21-0.05 0.11-0.04 0.1-0.05 0.11-0.05 0.1c-0.6 1.22-1.46 1.87-1.56 1.87-0.06 0-0.1-0.04-0.1-0.1 0-0.03 0-0.05 0.19-0.23 0.98-0.98 1.55-2.56 1.55-4.64 0-1.69-0.37-3.44-1.61-4.69-0.13-0.12-0.13-0.14-0.13-0.17 0-0.06 0.04-0.1 0.1-0.1 0.1 0 1 0.67 1.59 1.93 0.51 1.1 0.63 2.2 0.63 3.03z"/><path d="m274.11 547.43h-0.24c-0.02-0.15-0.09-0.57-0.18-0.63-0.05-0.05-0.59-0.05-0.69-0.05h-1.29c0.74 0.65 0.98 0.85 1.4 1.17 0.52 0.41 1 0.84 1 1.5 0 0.85-0.74 1.36-1.63 1.36-0.87 0-1.46-0.61-1.46-1.24 0-0.36 0.3-0.39 0.37-0.39 0.17 0 0.37 0.11 0.37 0.37 0 0.12-0.05 0.36-0.41 0.36 0.22 0.5 0.69 0.65 1.02 0.65 0.7 0 1.06-0.54 1.06-1.11 0-0.6-0.43-1.08-0.66-1.33l-1.68-1.66c-0.07-0.06-0.07-0.07-0.07-0.27h2.88z"/><path d="m236.24 560.61-0.02-0.06v-0.03l-0.01-0.03-0.01-0.02v-0.03l-0.03-0.06v-0.02l-0.01-0.01-0.01-0.02-0.01-0.01-0.01-0.02-0.01-0.01-0.02-0.01-0.01-0.01-0.02-0.01-0.01-0.01-0.04-0.02h-0.02l-0.02-0.01h-0.02l-0.03-0.01h-0.07l-0.02-0.01h-0.14c-0.12 0-0.23 0-0.23-0.19 0-0.08 0.05-0.12 0.13-0.12 0.27 0 0.56 0.03 0.84 0.03 0.33 0 0.67-0.03 0.98-0.03 0.05 0 0.18 0 0.18 0.2 0 0.11-0.1 0.11-0.23 0.11-0.5 0-0.5 0.07-0.5 0.16 0 0.12 0.41 1.74 0.49 1.99 0.12-0.29 0.4-0.64 0.91-0.64l-0.01 0.22c-0.66 0-0.79 0.82-0.79 0.88 0 0.02 0 0.04 0.03 0.16l0.49 1.95c0.07 0.26997 0.34 0.54997 0.52 0.69997 0.35 0.3 0.64 0.37 0.81 0.37 0.4 0 0.64-0.35 0.64-0.93 0-0.59-0.33-1.73-0.51-2.11-0.34-0.69-0.82-1.02-1.19-1.02l0.01-0.22c1.16 0 2.41 1.45 2.41 2.91 0 0.94-0.57 1.59-1.33 1.59-0.5 0-0.98-0.36-1.31-0.74-0.1 0.53-0.53 0.74-0.89 0.74-0.46 0-0.65-0.39-0.74-0.57-0.18-0.33-0.31-0.93-0.31-0.96 0-0.1 0.1-0.1 0.12-0.1 0.1 0 0.11 0.01 0.17 0.23 0.17 0.7 0.37 1.18 0.73 1.18 0.16 0 0.3-0.08 0.3-0.45 0-0.23-0.03-0.34-0.06-0.51z"/><path d="m244.1 559.44v0.03h-0.01v0.01l-0.01 0.01v0.01l-0.03 0.03v0.01h-0.01l-0.01 0.01v0.01h-0.01v0.01h-0.01v0.01l-0.01 0.01h-0.01v0.01h-0.01v0.01l-0.01 0.01h-0.01l-0.01 0.01v0.01l-0.01 0.01h-0.01c-1.24 1.26-1.56 3.13-1.56 4.65 0 1.73 0.38 3.46 1.6 4.7 0.13 0.12 0.13 0.14 0.13 0.17 0 0.07-0.04 0.1-0.1 0.1-0.1 0-1-0.67-1.58-1.94-0.51-1.09-0.63-2.19-0.63-3.03 0-0.77 0.11-1.97 0.66-3.1 0.6-1.22 1.45-1.86 1.55-1.86 0.06 0 0.1 0.03 0.1 0.1z"/><path d="m247.61 568.18v0.12h-0.01v0.05l-0.01 0.01v0.02l-0.01 0.01v0.01h-0.01v0.01h-0.01l-0.01 0.01h-0.02v0.01h-0.08v0.01h-0.07c-0.62-0.64-1.5-0.64-1.82-0.64v-0.31c0.2 0 0.79 0 1.31 0.26v-5.14c0-0.36-0.03-0.48-0.93-0.48h-0.32v-0.31c0.35 0.03 1.22 0.03 1.62 0.03s1.26 0 1.61-0.03v0.31h-0.32003c-0.89 0-0.92 0.11-0.92 0.48z"/><path d="m258.44 564.11h0.17l0.02 0.01h0.03l0.01 0.01h0.02l0.01 0.01 0.02 0.01h0.01l0.02 0.02v0.01l0.02 0.02v0.01l0.01 0.01v0.02h0.01v0.06c0 0.2-0.18 0.2-0.35 0.2h-5.39c-0.17 0-0.35 0-0.35-0.2 0-0.19 0.18-0.19 0.35-0.19z"/><path d="m262.28 560.61v-0.03l-0.03-0.09v-0.02l-0.01-0.03-0.01-0.02v-0.02l-0.02-0.04-0.01-0.01-0.01-0.02-0.01-0.01-0.01-0.02-0.02-0.02-0.02-0.01-0.01-0.01-0.02-0.01-0.01-0.01-0.02-0.01h-0.02l-0.02-0.01h-0.03l-0.02-0.01h-0.07l-0.02-0.01h-0.15c-0.12 0-0.22 0-0.22-0.19 0-0.08 0.04-0.12 0.13-0.12 0.26 0 0.55 0.03 0.83 0.03 0.33 0 0.67-0.03 0.99-0.03 0.05 0 0.18 0 0.18 0.2 0 0.11-0.1 0.11-0.24 0.11-0.5 0-0.5 0.07-0.5 0.16 0 0.12 0.42 1.74 0.49 1.99 0.13-0.29 0.41-0.64 0.92-0.64l-0.01 0.22c-0.66001 0-0.79001 0.82-0.79001 0.88 0 0.02 0 0.04 0.03 0.16l0.49 1.95c0.07 0.27 0.34 0.55 0.52 0.7 0.34 0.3 0.63 0.37 0.8 0.37 0.4 0 0.64-0.35 0.64-0.93 0-0.59-0.33-1.73-0.51-2.11-0.34-0.69-0.81-1.02-1.18-1.02l0.01-0.22c1.15 0 2.4 1.45 2.4 2.91 0 0.94-0.57 1.59-1.33 1.59-0.49 0-0.97-0.36-1.3-0.74-0.10007 0.52997-0.53007 0.73997-0.90007 0.73997-0.46 0-0.65-0.39-0.74-0.57-0.18-0.33-0.31-0.93-0.31-0.96 0-0.1 0.1-0.1 0.12-0.1 0.1 0 0.11 0.01 0.17 0.23 0.17 0.7 0.37 1.18 0.73 1.18 0.17 0 0.31-0.08 0.31-0.45 0-0.23-0.03-0.34-0.07-0.51z"/><path d="m269.73 564.3v0.15l-0.01 0.08v0.08l-0.01 0.17-0.02 0.36-0.03 0.19-0.02 0.19-0.04 0.2-0.03 0.21-0.05 0.2-0.05 0.21-0.07 0.21-0.07 0.22-0.07 0.21-0.05 0.11-0.04 0.1-0.05 0.11-0.05 0.1c-0.6 1.22-1.46 1.87-1.56 1.87-0.06 0-0.1-0.04-0.1-0.1 0-0.03 0-0.05 0.19-0.23 0.98-0.98 1.55-2.56 1.55-4.64 0-1.69-0.37-3.44-1.61-4.69-0.13-0.12-0.13-0.14-0.13-0.17 0-0.06 0.04-0.1 0.1-0.1 0.1 0 1 0.67 1.59 1.93 0.51 1.1 0.63 2.2 0.63 3.03z"/><path d="m274.25 567.2h-0.24c-0.02-0.15-0.09-0.57-0.18-0.63-0.05-0.05-0.59-0.05-0.69-0.05h-1.29c0.74 0.65 0.98 0.85 1.4 1.17 0.52 0.41 1 0.84 1 1.5 0 0.85-0.74 1.36-1.63 1.36-0.87 0-1.46-0.61-1.46-1.24 0-0.36 0.3-0.39 0.37-0.39 0.17 0 0.37 0.11 0.37 0.37 0 0.12-0.05 0.36-0.41 0.36 0.22 0.5 0.69 0.65 1.02 0.65 0.7 0 1.06-0.54 1.06-1.11 0-0.6-0.43-1.08-0.66-1.33l-1.68-1.66c-0.07-0.06-0.07-0.07-0.07-0.27h2.88z"/></g></g></g></g></g>
 </g>
</svg>
