<?xml version="1.0" encoding="UTF-8"?>
<svg width="286.69mm" height="96.329mm" version="1.1" viewBox="0 0 435.03 166.4" xmlns="http://www.w3.org/2000/svg" xmlns:cc="http://creativecommons.org/ns#" xmlns:dc="http://purl.org/dc/elements/1.1/" xmlns:ns0="http://www.iki.fi/pav/software/textext/" xmlns:rdf="http://www.w3.org/1999/02/22-rdf-syntax-ns#">
 <metadata>
  <rdf:RDF>
   <cc:Work rdf:about="">
    <dc:format>image/svg+xml</dc:format>
    <dc:type rdf:resource="http://purl.org/dc/dcmitype/StillImage"/>
    <dc:title/>
   </cc:Work>
  </rdf:RDF>
 </metadata>
 <defs></defs>
 <g transform="translate(-55.575 -23.009)">
  <path d="m120.4 179.79c-23.366-1.6958-44.233-8.1851-60.391-18.781-6.5937-4.3241-10.178-7.2947-15.647-12.969-9.0638-9.4027-14.475-19.365-16.671-30.691-0.96634-4.985-1.0325-13.347-0.14585-18.442 4.845-27.838 32.577-51.443 70.419-59.939 11.495-2.5811 15.584-2.9773 30.768-2.9819 14.959-0.0046 19.102 0.38863 30.28 2.8737 47.758 10.617 77.846 44.753 70.269 79.722-4.2862 19.783-19.447 36.934-42.834 48.455-12.976 6.3925-27.639 10.524-43.287 12.197-4.214 0.45049-19.18 0.81649-22.761 0.55661zm-4.0583-22.471c7.865-2.4509 15.644-9.7717 20.123-18.938 2.9075-5.9501 3.5944-8.6701 3.5929-14.226-9.2e-4 -3.6898-0.16489-4.897-0.93807-6.9096-1.2696-3.3049-4.6432-6.6527-7.6904-7.6317-10.111-3.2483-23.909 5.4616-30.762 19.419-2.6527 5.4027-3.5512 8.9089-3.5934 14.022-0.09837 11.925 7.8628 17.818 19.268 14.264z" fill="#0084ff" fill-opacity=".23106" fill-rule="evenodd"/>
  <g transform="matrix(1.5,0,0,-1.5,-677.6,1115.4)" fill-rule="evenodd" stroke="#000" stroke-miterlimit="10.433" stroke-opacity=".23529" ns0:preamble="default_packages.tex" ns0:text='$$\\text{TRAINING SET}$$\n$$\\text{Spam}$$\n$$\\text{Ham}$$\n$$\\text{Letter containing word "buy"}$$\n\n' xml:space="preserve"><ellipse transform="scale(1,-1)" cx="537.49" cy="-671.67" rx="68.414" ry="48.633" fill="none" stroke="#000" stroke-linecap="square" stroke-miterlimit="10.433" stroke-opacity=".48792" stroke-width=".72267"/><g fill-opacity=".37198" stroke="none"><circle transform="scale(1,-1)" cx="498.5" cy="-680.68" r="1.4489"/><g fill-rule="evenodd"><circle transform="scale(1,-1)" cx="523.42" cy="-668.96" r="1.4489"/><circle transform="scale(1,-1)" cx="530.54" cy="-690.25" r="1.4489"/><circle transform="scale(1,-1)" cx="532.68" cy="-693.72" r="1.4489"/><circle transform="scale(1,-1)" cx="500.79" cy="-697.29" r="1.4489"/><circle transform="scale(1,-1)" cx="521.63" cy="-643.92" r="1.4489"/><circle transform="scale(1,-1)" cx="572.24" cy="-664.95" r="1.4489"/><circle transform="scale(1,-1)" cx="569.39" cy="-678.13" r="1.4489"/><circle transform="scale(1,-1)" cx="562.79" cy="-681.34" r="1.4489"/><circle transform="scale(1,-1)" cx="544.26" cy="-648.2" r="1.4489"/><circle transform="scale(1,-1)" cx="551.39" cy="-663.34" r="1.4489"/><circle transform="scale(1,-1)" cx="556.91" cy="-680.27" r="1.4489"/><circle transform="scale(1,-1)" cx="547.83" cy="-687.58" r="1.4489"/><circle transform="scale(1,-1)" cx="540.88" cy="-693.99" r="1.4489"/><circle transform="scale(1,-1)" cx="580.43" cy="-679.2" r="1.4489"/><circle transform="scale(1,-1)" cx="560.83" cy="-694.53" r="1.4489"/><circle transform="scale(1,-1)" cx="548.72" cy="-696.31" r="1.4489"/><circle transform="scale(1,-1)" cx="495.09" cy="-644.46" r="1.4489"/><circle transform="scale(1,-1)" cx="491.17" cy="-657.64" r="1.4489"/><circle transform="scale(1,-1)" cx="520.39" cy="-672.97" r="1.4489"/><circle transform="scale(1,-1)" cx="525.02" cy="-685.62" r="1.4489"/><circle transform="scale(1,-1)" cx="523.59" cy="-711.81" r="1.4489"/><circle transform="scale(1,-1)" cx="534.46" cy="-660.85" r="1.4489"/><circle transform="scale(1,-1)" cx="571.8" cy="-643.36" r="1.4489"/><circle transform="scale(1,-1)" cx="549.84" cy="-632.23" r="1.4489"/><circle transform="scale(1,-1)" cx="566.47" cy="-643.95" r="1.4489"/><circle transform="scale(1,-1)" cx="552.61" cy="-658.82" r="1.4489"/><circle transform="scale(1,-1)" cx="596.96" cy="-656.55" r="1.4489"/><circle transform="scale(1,-1)" cx="585.87" cy="-655.79" r="1.4489"/><circle transform="scale(1,-1)" cx="597.72" cy="-673.06" r="1.4489"/><circle transform="scale(1,-1)" cx="578.44" cy="-695.61" r="1.4489"/><circle transform="scale(1,-1)" cx="547.95" cy="-715.39" r="1.4489"/><circle transform="scale(1,-1)" cx="564.33" cy="-710.73" r="1.4489"/><circle transform="scale(1,-1)" cx="479.66" cy="-668.39" r="1.4489"/><circle transform="scale(1,-1)" cx="483.82" cy="-688.43" r="1.4489"/><circle transform="scale(1,-1)" cx="510.4" cy="-711.23" r="1.4489"/><circle transform="scale(1,-1)" cx="518.85" cy="-683.13" r="1.4489"/><circle transform="scale(1,-1)" cx="534.72" cy="-700.77" r="1.4489"/><circle transform="scale(1,-1)" cx="517.71" cy="-692.46" r="1.4489"/><circle transform="scale(1,-1)" cx="517.21" cy="-710.22" r="1.4489"/><circle transform="scale(1,-1)" cx="511.54" cy="-648.11" r="1.4489"/><circle transform="scale(1,-1)" cx="510.03" cy="-666.5" r="1.4489"/><circle transform="scale(1,-1)" cx="507.63" cy="-692.71" r="1.4489"/><circle transform="scale(1,-1)" cx="481.43" cy="-656.42" r="1.4489"/><circle transform="scale(1,-1)" cx="489.62" cy="-672.3" r="1.4489"/><circle transform="scale(1,-1)" cx="491.13" cy="-699.14" r="1.4489"/><circle transform="scale(1,-1)" cx="536.61" cy="-626.94" r="1.4489"/><circle transform="scale(1,-1)" cx="530.18" cy="-645.71" r="1.4489"/><circle transform="scale(1,-1)" cx="536.48" cy="-678.98" r="1.4489"/><circle transform="scale(1,-1)" cx="513.3" cy="-631.48" r="1.4489"/><circle transform="scale(1,-1)" cx="501.96" cy="-655.04" r="1.4489"/><circle transform="scale(1,-1)" cx="500.7" cy="-676.46" r="1.4489"/><circle transform="scale(1,-1)" cx="510.03" cy="-678.6" r="1.4489"/><circle transform="scale(1,-1)" cx="522.12" cy="-659.2" r="1.4489"/><circle transform="scale(1,-1)" cx="549.46" cy="-670.91" r="1.4489"/><circle transform="scale(1,-1)" cx="592.55" cy="-671.04" r="1.4489"/><circle transform="scale(1,-1)" cx="592.17" cy="-682" r="1.4489"/><circle transform="scale(1,-1)" cx="571.38" cy="-689.06" r="1.4489"/><circle transform="scale(1,-1)" cx="573.02" cy="-705.06" r="1.4489"/><circle transform="scale(1,-1)" cx="569.92" cy="-639.29" r="1.4489"/><circle transform="scale(1,-1)" cx="568.32" cy="-646.24" r="1.4489"/><circle transform="scale(1,-1)" cx="557.85" cy="-630.56" r="1.4489"/><circle transform="scale(1,-1)" cx="554.51" cy="-646.46" r="1.4489"/><circle transform="scale(1,-1)" cx="528.25" cy="-627.78" r="1.4489"/><circle transform="scale(1,-1)" cx="560.68" cy="-669.28" r="1.4489"/><circle transform="scale(1,-1)" cx="563.95" cy="-656.3" r="1.4489"/><circle transform="scale(1,-1)" cx="591.42" cy="-656.68" r="1.4489"/><circle transform="scale(1,-1)" cx="581.46" cy="-671.17" r="1.4489"/><circle transform="scale(1,-1)" cx="582.6" cy="-643.32" r="1.4489"/><circle transform="scale(1,-1)" cx="575.29" cy="-655.29" r="1.4489"/><circle transform="scale(1,-1)" cx="531.44" cy="-672.17" r="1.4489"/><circle transform="scale(1,-1)" cx="541.27" cy="-666.13" r="1.4489"/><circle transform="scale(1,-1)" cx="503.85" cy="-634.63" r="1.4489"/><circle transform="scale(1,-1)" cx="498.06" cy="-664.24" r="1.4489"/></g></g><g id="content" transform="matrix(1.5,0,0,1.5,229.78,-466.25)" fill-rule="evenodd" stroke-miterlimit="10.433" stroke-opacity="1" ns0:preamble="default_packages.tex" ns0:text="$events elementary outcomes$\n" xml:space="preserve"><ellipse transform="matrix(.81495 -.57953 -.57953 -.81495 0 0)" cx="-269.46" cy="-725.17" rx="7.8993" ry="12.176" fill="#f00" fill-opacity=".25758" fill-rule="evenodd" stroke="none"/><g fill="none" stroke="#000" stroke-miterlimit="10.433" stroke-opacity=".35266" stroke-width=".38444"/></g><g transform="matrix(1.291,0,0,1.291,282.75,-207.84)" fill-opacity=".81159" fill-rule="evenodd" stroke="#000" stroke-miterlimit="10.433" stroke-opacity=".5942" stroke-width="1.1619" ns0:preamble="default_packages.tex" ns0:text="$\\Omega$\n" xml:space="preserve"><path d="m155.46 708.73h-0.25c-0.05-0.25-0.09-0.48-0.18-0.72-0.05-0.16-0.08-0.24-0.65-0.24h-0.8c0.13 0.56 0.44 1.03 0.89 1.69 0.46 0.7 0.87 1.39 0.87 2.18 0 1.38-1.34 2.49-3.03 2.49-1.71 0-3.04-1.13-3.04-2.49 0-0.79 0.41-1.48 0.88-2.18 0.44-0.66 0.76-1.13 0.89-1.69h-0.8c-0.58 0-0.61 0.08-0.66 0.23-0.08 0.23-0.13 0.49-0.18 0.73h-0.25l0.33-1.6h1.59c0.22 0 0.25 0 0.25 0.2 0 0.7-0.3 1.57-0.53 2.21-0.21 0.57-0.49 1.36-0.49 2.11 0 1.58 1.1 2.26 2 2.26 0.96 0 2.02-0.71 2.02-2.26 0-0.75-0.27-1.5-0.56-2.32-0.15-0.42-0.47-1.31-0.47-2 0-0.2 0.03-0.2 0.26-0.2h1.58z" fill-opacity=".81159" stroke-width="0"/></g></g>
  <flowRoot fill="#000000" font-family="Verdana" font-size="40px" letter-spacing="0px" word-spacing="0px" style="line-height:1.25" xml:space="preserve"><flowRegion><rect x="-434.29" y="-28.909" width="1817.1" height="1228.6"/></flowRegion><flowPara/></flowRoot>
  <g transform="matrix(1.5 0 0 -1.5 -388.69 1123.4)" fill-rule="evenodd" stroke="#000" stroke-miterlimit="10.433" stroke-opacity=".23529" ns0:preamble="default_packages.tex" ns0:text='$$\\text{TRAINING SET}$$\n$$\\text{Spam}$$\n$$\\text{Ham}$$\n$$\\text{Letter containing word "buy"}$$\n\n' xml:space="preserve"><ellipse transform="scale(1,-1)" cx="537.49" cy="-671.67" rx="68.414" ry="48.633" fill="none" stroke="#000" stroke-linecap="square" stroke-miterlimit="10.433" stroke-opacity=".48792" stroke-width=".72267"/><g fill-opacity=".37198" stroke="none"><circle transform="scale(1,-1)" cx="498.5" cy="-680.68" r="1.4489"/><g fill-rule="evenodd"><circle transform="scale(1,-1)" cx="523.42" cy="-668.96" r="1.4489"/><circle transform="scale(1,-1)" cx="530.54" cy="-690.25" r="1.4489"/><circle transform="scale(1,-1)" cx="532.68" cy="-693.72" r="1.4489"/><circle transform="scale(1,-1)" cx="500.79" cy="-697.29" r="1.4489"/><circle transform="scale(1,-1)" cx="521.63" cy="-643.92" r="1.4489"/><circle transform="scale(1,-1)" cx="572.24" cy="-664.95" r="1.4489"/><circle transform="scale(1,-1)" cx="569.39" cy="-678.13" r="1.4489"/><circle transform="scale(1,-1)" cx="562.79" cy="-681.34" r="1.4489"/><circle transform="scale(1,-1)" cx="544.26" cy="-648.2" r="1.4489"/><circle transform="scale(1,-1)" cx="551.39" cy="-663.34" r="1.4489"/><circle transform="scale(1,-1)" cx="556.91" cy="-680.27" r="1.4489"/><circle transform="scale(1,-1)" cx="547.83" cy="-687.58" r="1.4489"/><circle transform="scale(1,-1)" cx="540.88" cy="-693.99" r="1.4489"/><circle transform="scale(1,-1)" cx="580.43" cy="-679.2" r="1.4489"/><circle transform="scale(1,-1)" cx="560.83" cy="-694.53" r="1.4489"/><circle transform="scale(1,-1)" cx="548.72" cy="-696.31" r="1.4489"/><circle transform="scale(1,-1)" cx="495.09" cy="-644.46" r="1.4489"/><circle transform="scale(1,-1)" cx="491.17" cy="-657.64" r="1.4489"/><circle transform="scale(1,-1)" cx="520.39" cy="-672.97" r="1.4489"/><circle transform="scale(1,-1)" cx="525.02" cy="-685.62" r="1.4489"/><circle transform="scale(1,-1)" cx="523.59" cy="-711.81" r="1.4489"/><circle transform="scale(1,-1)" cx="534.46" cy="-660.85" r="1.4489"/><circle transform="scale(1,-1)" cx="571.8" cy="-643.36" r="1.4489"/><circle transform="scale(1,-1)" cx="549.84" cy="-632.23" r="1.4489"/><circle transform="scale(1,-1)" cx="566.47" cy="-643.95" r="1.4489"/><circle transform="scale(1,-1)" cx="552.61" cy="-658.82" r="1.4489"/><circle transform="scale(1,-1)" cx="596.96" cy="-656.55" r="1.4489"/><circle transform="scale(1,-1)" cx="585.87" cy="-655.79" r="1.4489"/><circle transform="scale(1,-1)" cx="597.72" cy="-673.06" r="1.4489"/><circle transform="scale(1,-1)" cx="578.44" cy="-695.61" r="1.4489"/><circle transform="scale(1,-1)" cx="547.95" cy="-715.39" r="1.4489"/><circle transform="scale(1,-1)" cx="564.33" cy="-710.73" r="1.4489"/><circle transform="scale(1,-1)" cx="479.66" cy="-668.39" r="1.4489"/><circle transform="scale(1,-1)" cx="483.82" cy="-688.43" r="1.4489"/><circle transform="scale(1,-1)" cx="510.4" cy="-711.23" r="1.4489"/><circle transform="scale(1,-1)" cx="518.85" cy="-683.13" r="1.4489"/><circle transform="scale(1,-1)" cx="534.72" cy="-700.77" r="1.4489"/><circle transform="scale(1,-1)" cx="517.71" cy="-692.46" r="1.4489"/><circle transform="scale(1,-1)" cx="517.21" cy="-710.22" r="1.4489"/><circle transform="scale(1,-1)" cx="511.54" cy="-648.11" r="1.4489"/><circle transform="scale(1,-1)" cx="510.03" cy="-666.5" r="1.4489"/><circle transform="scale(1,-1)" cx="507.63" cy="-692.71" r="1.4489"/><circle transform="scale(1,-1)" cx="481.43" cy="-656.42" r="1.4489"/><circle transform="scale(1,-1)" cx="489.62" cy="-672.3" r="1.4489"/><circle transform="scale(1,-1)" cx="491.13" cy="-699.14" r="1.4489"/><circle transform="scale(1,-1)" cx="536.61" cy="-626.94" r="1.4489"/><circle transform="scale(1,-1)" cx="530.18" cy="-645.71" r="1.4489"/><circle transform="scale(1,-1)" cx="536.48" cy="-678.98" r="1.4489"/><circle transform="scale(1,-1)" cx="513.3" cy="-631.48" r="1.4489"/><circle transform="scale(1,-1)" cx="501.96" cy="-655.04" r="1.4489"/><circle transform="scale(1,-1)" cx="500.7" cy="-676.46" r="1.4489"/><circle transform="scale(1,-1)" cx="510.03" cy="-678.6" r="1.4489"/><circle transform="scale(1,-1)" cx="522.12" cy="-659.2" r="1.4489"/><circle transform="scale(1,-1)" cx="549.46" cy="-670.91" r="1.4489"/><circle transform="scale(1,-1)" cx="592.55" cy="-671.04" r="1.4489"/><circle transform="scale(1,-1)" cx="592.17" cy="-682" r="1.4489"/><circle transform="scale(1,-1)" cx="571.38" cy="-689.06" r="1.4489"/><circle transform="scale(1,-1)" cx="573.02" cy="-705.06" r="1.4489"/><circle transform="scale(1,-1)" cx="569.92" cy="-639.29" r="1.4489"/><circle transform="scale(1,-1)" cx="568.32" cy="-646.24" r="1.4489"/><circle transform="scale(1,-1)" cx="557.85" cy="-630.56" r="1.4489"/><circle transform="scale(1,-1)" cx="554.51" cy="-646.46" r="1.4489"/><circle transform="scale(1,-1)" cx="528.25" cy="-627.78" r="1.4489"/><circle transform="scale(1,-1)" cx="560.68" cy="-669.28" r="1.4489"/><circle transform="scale(1,-1)" cx="563.95" cy="-656.3" r="1.4489"/><circle transform="scale(1,-1)" cx="591.42" cy="-656.68" r="1.4489"/><circle transform="scale(1,-1)" cx="581.46" cy="-671.17" r="1.4489"/><circle transform="scale(1,-1)" cx="582.6" cy="-643.32" r="1.4489"/><circle transform="scale(1,-1)" cx="575.29" cy="-655.29" r="1.4489"/><circle transform="scale(1,-1)" cx="531.44" cy="-672.17" r="1.4489"/><circle transform="scale(1,-1)" cx="541.27" cy="-666.13" r="1.4489"/><circle transform="scale(1,-1)" cx="503.85" cy="-634.63" r="1.4489"/><circle transform="scale(1,-1)" cx="498.06" cy="-664.24" r="1.4489"/></g></g><g fill-rule="evenodd" stroke="#000" stroke-miterlimit="10.433"><g transform="matrix(1.5,0,0,1.5,229.78,-466.25)" stroke-opacity="1" ns0:preamble="default_packages.tex" ns0:text="$events elementary outcomes$\n" xml:space="preserve"><ellipse transform="matrix(.81495 -.57953 -.57953 -.81495 0 0)" cx="-269.46" cy="-725.17" rx="7.8993" ry="12.176" fill="#f00" fill-opacity=".25758" fill-rule="evenodd" stroke="none"/><g fill="none" stroke="#000" stroke-miterlimit="10.433" stroke-opacity=".35266" stroke-width=".38444"/></g><g transform="matrix(1.291,0,0,1.291,282.75,-207.84)" fill-opacity=".81159" stroke-opacity=".5942" stroke-width="1.1619" ns0:preamble="default_packages.tex" ns0:text="$\\Omega$\n" xml:space="preserve"><path d="m155.46 708.73h-0.25c-0.05-0.25-0.09-0.48-0.18-0.72-0.05-0.16-0.08-0.24-0.65-0.24h-0.8c0.13 0.56 0.44 1.03 0.89 1.69 0.46 0.7 0.87 1.39 0.87 2.18 0 1.38-1.34 2.49-3.03 2.49-1.71 0-3.04-1.13-3.04-2.49 0-0.79 0.41-1.48 0.88-2.18 0.44-0.66 0.76-1.13 0.89-1.69h-0.8c-0.58 0-0.61 0.08-0.66 0.23-0.08 0.23-0.13 0.49-0.18 0.73h-0.25l0.33-1.6h1.59c0.22 0 0.25 0 0.25 0.2 0 0.7-0.3 1.57-0.53 2.21-0.21 0.57-0.49 1.36-0.49 2.11 0 1.58 1.1 2.26 2 2.26 0.96 0 2.02-0.71 2.02-2.26 0-0.75-0.27-1.5-0.56-2.32-0.15-0.42-0.47-1.31-0.47-2 0-0.2 0.03-0.2 0.26-0.2h1.58z" fill-opacity=".81159" stroke-width="0"/></g><g transform="matrix(1.5 0 0 1.5 289.78 -510.4)" stroke-opacity="1" ns0:preamble="default_packages.tex" ns0:text="$events elementary outcomes$\n" xml:space="preserve"><ellipse transform="matrix(.86501 -.50175 -.65714 -.75377 0 0)" cx="-390.39" cy="-779.09" rx="7.6533" ry="11.043" fill="#f00" fill-opacity=".25758" fill-rule="evenodd" stroke="none" stroke-width=".93737"/><g fill="none" stroke="#000" stroke-miterlimit="10.433" stroke-opacity=".35266" stroke-width=".38444"/><g transform="translate(18.131 39.325)" fill-rule="evenodd" stroke="#000" stroke-miterlimit="10.433" stroke-opacity="1" ns0:preamble="default_packages.tex" ns0:text="$events elementary outcomes$\n" xml:space="preserve"><ellipse transform="matrix(.89447 -.44712 -.3745 -.92723 0 0)" cx="-161.73" cy="-748.66" rx="12.453" ry="13.016" fill="#f00" fill-opacity=".25758" fill-rule="evenodd" stroke="none" stroke-miterlimit="10.433" stroke-width="0"/><g fill="none" stroke="#000" stroke-miterlimit="10.433" stroke-opacity=".35266" stroke-width=".38444"/><g transform="matrix(.57805 0 0 -.57805 195.15 762.62)" ns0:alignment="middle center" ns0:inkscapeversion="1.0" ns0:jacobian_sqrt="3.21017" ns0:pdfconverter="inkscape" ns0:preamble="C:\\Users\\User\\AppData\\Roaming\\inkscape\\extensions\\textext\\default_packages.tex" ns0:scale="2.4076355951901767" ns0:texconverter="pdflatex" ns0:text="$$X_1 X_2 X_3$$" ns0:version="1.1.0"><defs>

  </defs>
  <g id="id-1821cdc6-17c2-44e6-b606-39390f711f4d" transform="translate(-286.8 -139.91)">

      <g transform="translate(286.54 146.72)"><path id="id-8c3fd9e3-39fb-40f2-bac2-df92a64afcdf" d="m-94.079-24.563-0.82812-1.9844c-0.03125-0.07813-0.04687-0.125-0.04687-0.125 0-0.0625 0.15625-0.25 0.57812-0.29688 0.10938-0.01563 0.20312-0.01563 0.20312-0.1875 0-0.125-0.125-0.125-0.15625-0.125-0.40625 0-0.82812 0.03125-1.25 0.03125-0.25 0-0.85938-0.03125-1.1094-0.03125-0.0625 0-0.1875 0-0.1875 0.20312 0 0.10938 0.10938 0.10938 0.23438 0.10938 0.59375 0 0.65625 0.09375 0.75 0.3125l1.1719 2.7812-2.1094 2.2656-0.125 0.10938c-0.48438 0.53125-0.95313 0.6875-1.4688 0.71875-0.125 0.01563-0.21875 0.01563-0.21875 0.20312 0 0.01563 0 0.10938 0.14062 0.10938 0.29688 0 0.625-0.03125 0.92188-0.03125 0.375 0 0.76562 0.03125 1.125 0.03125 0.0625 0 0.17187 0 0.17187-0.20312 0-0.09375-0.0937-0.10938-0.10937-0.10938-0.0937 0-0.40625-0.03125-0.40625-0.3125 0-0.15625 0.15625-0.3125 0.26562-0.4375l1.0313-1.0781 0.89062-0.98438 1 2.3906c0.04687 0.10938 0.0625 0.10938 0.0625 0.14062 0 0.07813-0.20312 0.25-0.57812 0.28125-0.10938 0.01563-0.20312 0.01563-0.20312 0.1875 0 0.125 0.10938 0.125 0.14062 0.125 0.28125 0 0.98438-0.03125 1.2656-0.03125 0.25 0 0.85938 0.03125 1.1094 0.03125 0.0625 0 0.1875 0 0.1875-0.1875 0-0.125-0.10938-0.125-0.1875-0.125-0.65625 0-0.6875-0.03125-0.85938-0.4375-0.375-0.92188-1.0469-2.4844-1.2812-3.0781 0.67188-0.70312 1.7188-1.8906 2.0469-2.1562 0.28125-0.25 0.67188-0.48438 1.2656-0.51562 0.125-0.01563 0.21875-0.01563 0.21875-0.20312 0 0 0-0.10938-0.125-0.10938-0.29688 0-0.64062 0.03125-0.9375 0.03125-0.375 0-0.75-0.03125-1.1094-0.03125-0.0625 0-0.1875 0-0.1875 0.20312 0 0.0625 0.04687 0.09375 0.10938 0.10938 0.09375 0.01563 0.40625 0.03125 0.40625 0.3125 0 0.14062-0.10938 0.26562-0.1875 0.35938z" stroke="none"/>
      </g>

      <g transform="translate(294.79 148.21)"><path d="m-96.579-24.906c0-0.1875 0-0.1875-0.20313-0.1875-0.45312 0.4375-1.0781 0.4375-1.3594 0.4375v0.25c0.15625 0 0.625 0 1-0.1875v3.5469c0 0.23438 0 0.32812-0.6875 0.32812h-0.26563v0.25c0.125 0 0.98438-0.03125 1.2344-0.03125 0.21875 0 1.0937 0.03125 1.25 0.03125v-0.25h-0.26563c-0.70312 0-0.70312-0.09375-0.70312-0.32812z" stroke="none"/>
      </g>

      <g transform="translate(299.26 146.72)"><path id="id-ff6fdd90-a2d9-4337-80c5-57efa8f5f01f" d="m-111.11 38.719-0.82813-1.9844c-0.0312-0.07813-0.0469-0.125-0.0469-0.125 0-0.0625 0.15625-0.25 0.57812-0.29688 0.10938-0.01563 0.20313-0.01563 0.20313-0.1875 0-0.125-0.125-0.125-0.15625-0.125-0.40625 0-0.82813 0.03125-1.25 0.03125-0.25 0-0.85938-0.03125-1.1094-0.03125-0.0625 0-0.1875 0-0.1875 0.20312 0 0.10938 0.10938 0.10938 0.23438 0.10938 0.59375 0 0.65625 0.09375 0.75 0.3125l1.1719 2.7812-2.1094 2.2656-0.125 0.10938c-0.48438 0.53125-0.95313 0.6875-1.4688 0.71875-0.125 0.01563-0.21875 0.01563-0.21875 0.20312 0 0.01563 0 0.10938 0.14062 0.10938 0.29688 0 0.625-0.03125 0.92188-0.03125 0.375 0 0.76562 0.03125 1.125 0.03125 0.0625 0 0.17187 0 0.17187-0.20312 0-0.09375-0.0937-0.10938-0.10937-0.10938-0.0937 0-0.40625-0.03125-0.40625-0.3125 0-0.15625 0.15625-0.3125 0.26562-0.4375l1.0312-1.0781 0.89063-0.98438 1 2.3906c0.0469 0.10938 0.0625 0.10938 0.0625 0.14062 0 0.07813-0.20313 0.25-0.57813 0.28125-0.10937 0.01563-0.20312 0.01563-0.20312 0.1875 0 0.125 0.10937 0.125 0.14062 0.125 0.28125 0 0.98438-0.03125 1.2656-0.03125 0.25 0 0.85937 0.03125 1.1094 0.03125 0.0625 0 0.1875 0 0.1875-0.1875 0-0.125-0.10937-0.125-0.1875-0.125-0.65625 0-0.6875-0.03125-0.85937-0.4375-0.375-0.92188-1.0469-2.4844-1.2812-3.0781 0.67187-0.70312 1.7188-1.8906 2.0469-2.1562 0.28125-0.25 0.67188-0.48438 1.2656-0.51562 0.125-0.01563 0.21875-0.01563 0.21875-0.20312 0 0 0-0.10938-0.125-0.10938-0.29688 0-0.64063 0.03125-0.9375 0.03125-0.375 0-0.75-0.03125-1.1094-0.03125-0.0625 0-0.1875 0-0.1875 0.20312 0 0.0625 0.0469 0.09375 0.10938 0.10938 0.0937 0.01563 0.40625 0.03125 0.40625 0.3125 0 0.14062-0.10938 0.26562-0.1875 0.35938z" stroke="none"/>
      </g>
    <g id="id-59e73bdd-af5b-4663-9953-618d72f3ce8c">
      <g transform="translate(307.52 148.21)"><path d="m-112.42 41.547h-0.23438c-0.0156 0.15625-0.0937 0.5625-0.1875 0.625-0.0469 0.04687-0.57812 0.04687-0.6875 0.04687h-1.2812c0.73438-0.64062 0.98438-0.84375 1.3906-1.1719 0.51562-0.40625 1-0.84375 1-1.5 0-0.84375-0.73438-1.3594-1.625-1.3594-0.85938 0-1.4531 0.60938-1.4531 1.25 0 0.34375 0.29688 0.39062 0.375 0.39062 0.15625 0 0.35938-0.125 0.35938-0.375 0-0.125-0.0469-0.375-0.40625-0.375 0.21875-0.48438 0.6875-0.64062 1.0156-0.64062 0.70313 0 1.0625 0.54688 1.0625 1.1094 0 0.60938-0.4375 1.0781-0.65625 1.3281l-1.6719 1.6719c-0.0781 0.0625-0.0781 0.07813-0.0781 0.26562h2.875z" stroke="none"/>
      </g></g>

      <g transform="translate(311.98 146.72)"><path d="m-87.829 14.031-0.82812-1.9844c-0.03125-0.07813-0.04687-0.125-0.04687-0.125 0-0.0625 0.15625-0.25 0.57812-0.29688 0.10938-0.01563 0.20312-0.01563 0.20312-0.1875 0-0.125-0.125-0.125-0.15625-0.125-0.40625 0-0.82812 0.03125-1.25 0.03125-0.25 0-0.85938-0.03125-1.1094-0.03125-0.0625 0-0.1875 0-0.1875 0.20312 0 0.10938 0.10938 0.10938 0.23438 0.10938 0.59375 0 0.65625 0.09375 0.75 0.3125l1.1719 2.7812-2.1094 2.2656-0.125 0.10938c-0.48438 0.53125-0.95312 0.6875-1.4688 0.71875-0.125 0.01563-0.21875 0.01563-0.21875 0.20312 0 0.01563 0 0.10938 0.14062 0.10938 0.29688 0 0.625-0.03125 0.92188-0.03125 0.375 0 0.76562 0.03125 1.125 0.03125 0.0625 0 0.17188 0 0.17188-0.20312 0-0.09375-0.09375-0.10938-0.10938-0.10938-0.09375 0-0.40625-0.03125-0.40625-0.3125 0-0.15625 0.15625-0.3125 0.26562-0.4375l1.0312-1.0781 0.89062-0.98438 1 2.3906c0.04687 0.10938 0.0625 0.10938 0.0625 0.14062 0 0.07813-0.20312 0.25-0.57812 0.28125-0.10938 0.01563-0.20312 0.01563-0.20312 0.1875 0 0.125 0.10938 0.125 0.14062 0.125 0.28125 0 0.98438-0.03125 1.2656-0.03125 0.25 0 0.85938 0.03125 1.1094 0.03125 0.0625 0 0.1875 0 0.1875-0.1875 0-0.125-0.10938-0.125-0.1875-0.125-0.65625 0-0.6875-0.03125-0.85938-0.4375-0.375-0.92188-1.0469-2.4844-1.2812-3.0781 0.67188-0.70312 1.7188-1.8906 2.0469-2.1562 0.28125-0.25 0.67188-0.48438 1.2656-0.51562 0.125-0.01563 0.21875-0.01563 0.21875-0.20312 0 0 0-0.10938-0.125-0.10938-0.29688 0-0.64062 0.03125-0.9375 0.03125-0.375 0-0.75-0.03125-1.1094-0.03125-0.0625 0-0.1875 0-0.1875 0.20312 0 0.0625 0.04687 0.09375 0.10938 0.10938 0.09375 0.01563 0.40625 0.03125 0.40625 0.3125 0 0.14062-0.10938 0.26562-0.1875 0.35938z" stroke="none"/>
      </g>

      <g transform="translate(320.24 148.21)"><path id="id-b6eae52d-f792-47cc-8c7f-76652fc630eb" d="m-90.751 15.797c0.54688 0 0.9375 0.375 0.9375 1.125 0 0.85938-0.51562 1.125-0.90625 1.125-0.28125 0-0.90625-0.07813-1.1875-0.5 0.32812 0 0.40625-0.23438 0.40625-0.39062 0-0.21875-0.17188-0.375-0.39062-0.375-0.1875 0-0.39062 0.125-0.39062 0.40625 0 0.65625 0.71875 1.0781 1.5625 1.0781 0.96875 0 1.6406-0.65625 1.6406-1.3438 0-0.54688-0.4375-1.0938-1.2031-1.25 0.71875-0.26562 0.98438-0.78125 0.98438-1.2188 0-0.54688-0.625-0.95312-1.4062-0.95312-0.76562 0-1.3594 0.375-1.3594 0.9375 0 0.23438 0.15625 0.35938 0.35938 0.35938 0.21875 0 0.35938-0.15625 0.35938-0.34375 0-0.20312-0.14062-0.35938-0.35938-0.375 0.25-0.29688 0.71875-0.375 0.98438-0.375 0.3125 0 0.75 0.15625 0.75 0.75 0 0.29688-0.09375 0.625-0.28125 0.82812-0.21875 0.26562-0.42188 0.28125-0.76562 0.3125-0.17188 0.01563-0.1875 0.01563-0.21875 0.01563-0.01563 0-0.07813 0.01563-0.07813 0.09375 0 0.09375 0.0625 0.09375 0.1875 0.09375z" stroke="none"/>
      </g>
  </g>
</g></g></g></g></g>
  <g transform="matrix(1.4251 0 0 1.4251 403.16 197.15)" ns0:alignment="middle center" ns0:inkscapeversion="1.0" ns0:jacobian_sqrt="3.21017" ns0:pdfconverter="inkscape" ns0:preamble="C:\\Users\\User\\AppData\\Roaming\\inkscape\\extensions\\textext\\default_packages.tex" ns0:scale="2.4076355951901767" ns0:texconverter="pdflatex" ns0:text="$$X X^C$$" ns0:version="1.1.0">
   <defs></defs>
   <g transform="translate(-293.5 -137.7)">
    <g transform="translate(44.367 -79.457)"></g>
    <g transform="translate(44.367 -79.457)"></g>
   </g>
  </g>
  <ellipse transform="matrix(.90343 .42873 -.39148 .92019 0 0)" cx="349.92" cy="-130.59" rx="6.6896" ry="6.7558" fill="#f00" fill-opacity=".25758" fill-rule="evenodd" stroke-miterlimit="10.433" stroke-width="0"/>
  <g transform="matrix(1.3577 0 0 1.3577 377.13 23.475)" ns0:alignment="middle center" ns0:inkscapeversion="1.0" ns0:jacobian_sqrt="3.21017" ns0:pdfconverter="inkscape" ns0:preamble="C:\\Users\\User\\AppData\\Roaming\\inkscape\\extensions\\textext\\default_packages.tex" ns0:scale="2.4076355951901767" ns0:texconverter="pdflatex" ns0:text="$$= X_1 \\cup X_2 \\cup X_3$$" ns0:version="1.1.0">
   <defs></defs>
   <g id="id-eeb75326-b9f0-44ba-907b-cdfa2d358bbf" transform="translate(-270.78 -139.91)">
    <g transform="translate(270.21 146.72)">
     <path id="id-d29c9b5d-01a8-4604-9714-b6b5d1cdfebb" d="m6.8438-3.2656c0.15625 0 0.34375 0 0.34375-0.1875 0-0.20312-0.1875-0.20312-0.32812-0.20312h-5.9688c-0.14062 0-0.32812 0-0.32812 0.20312 0 0.1875 0.1875 0.1875 0.32812 0.1875zm0.015625 1.9375c0.14062 0 0.32812 0 0.32812-0.20312 0-0.1875-0.1875-0.1875-0.34375-0.1875h-5.9531c-0.14062 0-0.32812 0-0.32812 0.1875 0 0.20312 0.1875 0.20312 0.32812 0.20312z"/>
    </g>
    <g transform="translate(280.73 146.72)">
     <path d="m4.8281-4.0938-0.82812-1.9844c-0.03125-0.078125-0.046875-0.125-0.046875-0.125 0-0.0625 0.15625-0.25 0.57812-0.29688 0.10938-0.015625 0.20312-0.015625 0.20312-0.1875 0-0.125-0.125-0.125-0.15625-0.125-0.40625 0-0.82812 0.03125-1.25 0.03125-0.25 0-0.85938-0.03125-1.1094-0.03125-0.0625 0-0.1875 0-0.1875 0.20312 0 0.10938 0.10938 0.10938 0.23438 0.10938 0.59375 0 0.65625 0.09375 0.75 0.3125l1.1719 2.7812-2.1094 2.2656-0.125 0.10938c-0.48438 0.53125-0.95312 0.6875-1.4688 0.71875-0.125 0.015625-0.21875 0.015625-0.21875 0.20312 0 0.015625 0 0.10938 0.14062 0.10938 0.29688 0 0.625-0.03125 0.92188-0.03125 0.375 0 0.76562 0.03125 1.125 0.03125 0.0625 0 0.17188 0 0.17188-0.20312 0-0.09375-0.09375-0.10938-0.10938-0.10938-0.09375 0-0.40625-0.03125-0.40625-0.3125 0-0.15625 0.15625-0.3125 0.26562-0.4375l1.0312-1.0781 0.89062-0.98438 1 2.3906c0.046875 0.10938 0.0625 0.10938 0.0625 0.14062 0 0.078125-0.20312 0.25-0.57812 0.28125-0.10938 0.015625-0.20312 0.015625-0.20312 0.1875 0 0.125 0.10938 0.125 0.14062 0.125 0.28125 0 0.98438-0.03125 1.2656-0.03125 0.25 0 0.85938 0.03125 1.1094 0.03125 0.0625 0 0.1875 0 0.1875-0.1875 0-0.125-0.10938-0.125-0.1875-0.125-0.65625 0-0.6875-0.03125-0.85938-0.4375-0.375-0.92188-1.0469-2.4844-1.2812-3.0781 0.67188-0.70312 1.7188-1.8906 2.0469-2.1562 0.28125-0.25 0.67188-0.48438 1.2656-0.51562 0.125-0.015625 0.21875-0.015625 0.21875-0.20312 0 0 0-0.10938-0.125-0.10938-0.29688 0-0.64062 0.03125-0.9375 0.03125-0.375 0-0.75-0.03125-1.1094-0.03125-0.0625 0-0.1875 0-0.1875 0.20312 0 0.0625 0.046875 0.09375 0.10938 0.10938 0.09375 0.015625 0.40625 0.03125 0.40625 0.3125 0 0.14062-0.10938 0.26562-0.1875 0.35938z"/>
    </g>
    <g transform="translate(288.98 148.21)">
     <path d="m2.3281-4.4375c0-0.1875 0-0.1875-0.20312-0.1875-0.45312 0.4375-1.0781 0.4375-1.3594 0.4375v0.25c0.15625 0 0.625 0 1-0.1875v3.5469c0 0.23438 0 0.32812-0.6875 0.32812h-0.26562v0.25c0.125 0 0.98438-0.03125 1.2344-0.03125 0.21875 0 1.0938 0.03125 1.25 0.03125v-0.25h-0.26562c-0.70312 0-0.70312-0.09375-0.70312-0.32812z"/>
    </g>
    <g id="id-e9c48946-de11-4919-b42d-b6c464b3fb2d">
     <g transform="translate(295.66 146.72)">
      <path d="m6.0938-5.6094c0-0.17188 0-0.35938-0.20312-0.35938s-0.20312 0.1875-0.20312 0.35938v3.6094c0 1.5-1.625 1.8281-2.375 1.8281-0.4375 0-1.0625-0.09375-1.5938-0.4375-0.76562-0.48438-0.76562-1.125-0.76562-1.3906v-3.6094c0-0.17188 0-0.35938-0.20312-0.35938s-0.20312 0.1875-0.20312 0.35938v3.6562c0 1.5156 1.5312 2.1719 2.7656 2.1719 1.2969 0 2.7812-0.70312 2.7812-2.1562z"/>
     </g>
    </g>
    <g id="id-3c9c6d06-b31c-4c3e-8406-0b36c3e1af0d">
     <g transform="translate(304.52,146.72)">
      <path id="id-d220c28d-ba1f-45de-9886-e7a71acd7eed" d="m4.8281-4.0938-0.82812-1.9844c-0.03125-0.078125-0.046875-0.125-0.046875-0.125 0-0.0625 0.15625-0.25 0.57812-0.29688 0.10938-0.015625 0.20312-0.015625 0.20312-0.1875 0-0.125-0.125-0.125-0.15625-0.125-0.40625 0-0.82812 0.03125-1.25 0.03125-0.25 0-0.85938-0.03125-1.1094-0.03125-0.0625 0-0.1875 0-0.1875 0.20312 0 0.10938 0.10938 0.10938 0.23438 0.10938 0.59375 0 0.65625 0.09375 0.75 0.3125l1.1719 2.7812-2.1094 2.2656-0.125 0.10938c-0.48438 0.53125-0.95312 0.6875-1.4688 0.71875-0.125 0.015625-0.21875 0.015625-0.21875 0.20312 0 0.015625 0 0.10938 0.14062 0.10938 0.29688 0 0.625-0.03125 0.92188-0.03125 0.375 0 0.76562 0.03125 1.125 0.03125 0.0625 0 0.17188 0 0.17188-0.20312 0-0.09375-0.09375-0.10938-0.10938-0.10938-0.09375 0-0.40625-0.03125-0.40625-0.3125 0-0.15625 0.15625-0.3125 0.26562-0.4375l1.0312-1.0781 0.89062-0.98438 1 2.3906c0.046875 0.10938 0.0625 0.10938 0.0625 0.14062 0 0.078125-0.20312 0.25-0.57812 0.28125-0.10938 0.015625-0.20312 0.015625-0.20312 0.1875 0 0.125 0.10938 0.125 0.14062 0.125 0.28125 0 0.98438-0.03125 1.2656-0.03125 0.25 0 0.85938 0.03125 1.1094 0.03125 0.0625 0 0.1875 0 0.1875-0.1875 0-0.125-0.10938-0.125-0.1875-0.125-0.65625 0-0.6875-0.03125-0.85938-0.4375-0.375-0.92188-1.0469-2.4844-1.2812-3.0781 0.67188-0.70312 1.7188-1.8906 2.0469-2.1562 0.28125-0.25 0.67188-0.48438 1.2656-0.51562 0.125-0.015625 0.21875-0.015625 0.21875-0.20312 0 0 0-0.10938-0.125-0.10938-0.29688 0-0.64062 0.03125-0.9375 0.03125-0.375 0-0.75-0.03125-1.1094-0.03125-0.0625 0-0.1875 0-0.1875 0.20312 0 0.0625 0.046875 0.09375 0.10938 0.10938 0.09375 0.015625 0.40625 0.03125 0.40625 0.3125 0 0.14062-0.10938 0.26562-0.1875 0.35938z"/>
     </g>
    </g>
    <g transform="translate(312.77 148.21)">
     <path d="m3.5156-1.2656h-0.23438c-0.015625 0.15625-0.09375 0.5625-0.1875 0.625-0.046875 0.046875-0.57812 0.046875-0.6875 0.046875h-1.2812c0.73438-0.64062 0.98438-0.84375 1.3906-1.1719 0.51562-0.40625 1-0.84375 1-1.5 0-0.84375-0.73438-1.3594-1.625-1.3594-0.85938 0-1.4531 0.60938-1.4531 1.25 0 0.34375 0.29688 0.39062 0.375 0.39062 0.15625 0 0.35938-0.125 0.35938-0.375 0-0.125-0.046875-0.375-0.40625-0.375 0.21875-0.48438 0.6875-0.64062 1.0156-0.64062 0.70312 0 1.0625 0.54688 1.0625 1.1094 0 0.60938-0.4375 1.0781-0.65625 1.3281l-1.6719 1.6719c-0.078125 0.0625-0.078125 0.078125-0.078125 0.26562h2.875z"/>
    </g>
    <g transform="translate(319.46 146.72)">
     <path id="id-9d7adfec-5594-4b27-a9d2-2ad934d5a50c" d="m6.0938-5.6094c0-0.17188 0-0.35938-0.20312-0.35938s-0.20312 0.1875-0.20312 0.35938v3.6094c0 1.5-1.625 1.8281-2.375 1.8281-0.4375 0-1.0625-0.09375-1.5938-0.4375-0.76562-0.48438-0.76562-1.125-0.76562-1.3906v-3.6094c0-0.17188 0-0.35938-0.20312-0.35938s-0.20312 0.1875-0.20312 0.35938v3.6562c0 1.5156 1.5312 2.1719 2.7656 2.1719 1.2969 0 2.7812-0.70312 2.7812-2.1562z"/>
    </g>
    <g id="id-9c2c23c8-2c78-48c7-adfe-e3321831a3de">
     <g transform="translate(328.31 146.72)">
      <path d="m4.8281-4.0938-0.82812-1.9844c-0.03125-0.078125-0.046875-0.125-0.046875-0.125 0-0.0625 0.15625-0.25 0.57812-0.29688 0.10938-0.015625 0.20312-0.015625 0.20312-0.1875 0-0.125-0.125-0.125-0.15625-0.125-0.40625 0-0.82812 0.03125-1.25 0.03125-0.25 0-0.85938-0.03125-1.1094-0.03125-0.0625 0-0.1875 0-0.1875 0.20312 0 0.10938 0.10938 0.10938 0.23438 0.10938 0.59375 0 0.65625 0.09375 0.75 0.3125l1.1719 2.7812-2.1094 2.2656-0.125 0.10938c-0.48438 0.53125-0.95312 0.6875-1.4688 0.71875-0.125 0.015625-0.21875 0.015625-0.21875 0.20312 0 0.015625 0 0.10938 0.14062 0.10938 0.29688 0 0.625-0.03125 0.92188-0.03125 0.375 0 0.76562 0.03125 1.125 0.03125 0.0625 0 0.17188 0 0.17188-0.20312 0-0.09375-0.09375-0.10938-0.10938-0.10938-0.09375 0-0.40625-0.03125-0.40625-0.3125 0-0.15625 0.15625-0.3125 0.26562-0.4375l1.0312-1.0781 0.89062-0.98438 1 2.3906c0.046875 0.10938 0.0625 0.10938 0.0625 0.14062 0 0.078125-0.20312 0.25-0.57812 0.28125-0.10938 0.015625-0.20312 0.015625-0.20312 0.1875 0 0.125 0.10938 0.125 0.14062 0.125 0.28125 0 0.98438-0.03125 1.2656-0.03125 0.25 0 0.85938 0.03125 1.1094 0.03125 0.0625 0 0.1875 0 0.1875-0.1875 0-0.125-0.10938-0.125-0.1875-0.125-0.65625 0-0.6875-0.03125-0.85938-0.4375-0.375-0.92188-1.0469-2.4844-1.2812-3.0781 0.67188-0.70312 1.7188-1.8906 2.0469-2.1562 0.28125-0.25 0.67188-0.48438 1.2656-0.51562 0.125-0.015625 0.21875-0.015625 0.21875-0.20312 0 0 0-0.10938-0.125-0.10938-0.29688 0-0.64062 0.03125-0.9375 0.03125-0.375 0-0.75-0.03125-1.1094-0.03125-0.0625 0-0.1875 0-0.1875 0.20312 0 0.0625 0.046875 0.09375 0.10938 0.10938 0.09375 0.015625 0.40625 0.03125 0.40625 0.3125 0 0.14062-0.10938 0.26562-0.1875 0.35938z"/>
     </g>
    </g>
    <g transform="translate(336.57 148.21)">
     <path d="m1.9062-2.3281c0.54688 0 0.9375 0.375 0.9375 1.125 0 0.85938-0.51562 1.125-0.90625 1.125-0.28125 0-0.90625-0.078125-1.1875-0.5 0.32812 0 0.40625-0.23438 0.40625-0.39062 0-0.21875-0.17188-0.375-0.39062-0.375-0.1875 0-0.39062 0.125-0.39062 0.40625 0 0.65625 0.71875 1.0781 1.5625 1.0781 0.96875 0 1.6406-0.65625 1.6406-1.3438 0-0.54688-0.4375-1.0938-1.2031-1.25 0.71875-0.26562 0.98438-0.78125 0.98438-1.2188 0-0.54688-0.625-0.95312-1.4062-0.95312-0.76562 0-1.3594 0.375-1.3594 0.9375 0 0.23438 0.15625 0.35938 0.35938 0.35938 0.21875 0 0.35938-0.15625 0.35938-0.34375 0-0.20312-0.14062-0.35938-0.35938-0.375 0.25-0.29688 0.71875-0.375 0.98438-0.375 0.3125 0 0.75 0.15625 0.75 0.75 0 0.29688-0.09375 0.625-0.28125 0.82812-0.21875 0.26562-0.42188 0.28125-0.76562 0.3125-0.17188 0.015625-0.1875 0.015625-0.21875 0.015625-0.015625 0-0.078125 0.015625-0.078125 0.09375 0 0.09375 0.0625 0.09375 0.1875 0.09375z"/>
    </g>
   </g>
  </g>
 </g>
 <g transform="matrix(1.4251 0 0 1.4251 58.675 166.12)" ns0:alignment="middle center" ns0:inkscapeversion="1.0" ns0:jacobian_sqrt="3.21017" ns0:pdfconverter="inkscape" ns0:preamble="C:\\Users\\User\\AppData\\Roaming\\inkscape\\extensions\\textext\\default_packages.tex" ns0:scale="2.4076355951901767" ns0:texconverter="pdflatex" ns0:text="$$X X^C$$" ns0:version="1.1.0">
  <defs></defs>
  <g id="id-f42454e4-59e1-491d-b524-55d074bfa2fc" transform="translate(-293.5 -137.7)">
   <g id="id-a973f230-f9aa-4eb2-a674-2d7f2e57434a" transform="translate(2.5668 -42.21)">
    <g transform="translate(293.24 146.72)">
     <path d="m4.8281-4.0938-0.82812-1.9844c-0.03125-0.078125-0.046875-0.125-0.046875-0.125 0-0.0625 0.15625-0.25 0.57812-0.29688 0.10938-0.015625 0.20312-0.015625 0.20312-0.1875 0-0.125-0.125-0.125-0.15625-0.125-0.40625 0-0.82812 0.03125-1.25 0.03125-0.25 0-0.85938-0.03125-1.1094-0.03125-0.0625 0-0.1875 0-0.1875 0.20312 0 0.10938 0.10938 0.10938 0.23438 0.10938 0.59375 0 0.65625 0.09375 0.75 0.3125l1.1719 2.7812-2.1094 2.2656-0.125 0.10938c-0.48438 0.53125-0.95312 0.6875-1.4688 0.71875-0.125 0.015625-0.21875 0.015625-0.21875 0.20312 0 0.015625 0 0.10938 0.14062 0.10938 0.29688 0 0.625-0.03125 0.92188-0.03125 0.375 0 0.76562 0.03125 1.125 0.03125 0.0625 0 0.17188 0 0.17188-0.20312 0-0.09375-0.09375-0.10938-0.10938-0.10938-0.09375 0-0.40625-0.03125-0.40625-0.3125 0-0.15625 0.15625-0.3125 0.26562-0.4375l1.0312-1.0781 0.89062-0.98438 1 2.3906c0.046875 0.10938 0.0625 0.10938 0.0625 0.14062 0 0.078125-0.20312 0.25-0.57812 0.28125-0.10938 0.015625-0.20312 0.015625-0.20312 0.1875 0 0.125 0.10938 0.125 0.14062 0.125 0.28125 0 0.98438-0.03125 1.2656-0.03125 0.25 0 0.85938 0.03125 1.1094 0.03125 0.0625 0 0.1875 0 0.1875-0.1875 0-0.125-0.10938-0.125-0.1875-0.125-0.65625 0-0.6875-0.03125-0.85938-0.4375-0.375-0.92188-1.0469-2.4844-1.2812-3.0781 0.67188-0.70312 1.7188-1.8906 2.0469-2.1562 0.28125-0.25 0.67188-0.48438 1.2656-0.51562 0.125-0.015625 0.21875-0.015625 0.21875-0.20312 0 0 0-0.10938-0.125-0.10938-0.29688 0-0.64062 0.03125-0.9375 0.03125-0.375 0-0.75-0.03125-1.1094-0.03125-0.0625 0-0.1875 0-0.1875 0.20312 0 0.0625 0.046875 0.09375 0.10938 0.10938 0.09375 0.015625 0.40625 0.03125 0.40625 0.3125 0 0.14062-0.10938 0.26562-0.1875 0.35938z"/>
    </g>
   </g>
   <g transform="translate(44.367 -79.457)">
    <g transform="translate(302.27 146.72)">
     <path d="m4.8281-4.0938-0.82812-1.9844c-0.03125-0.078125-0.046875-0.125-0.046875-0.125 0-0.0625 0.15625-0.25 0.57812-0.29688 0.10938-0.015625 0.20312-0.015625 0.20312-0.1875 0-0.125-0.125-0.125-0.15625-0.125-0.40625 0-0.82812 0.03125-1.25 0.03125-0.25 0-0.85938-0.03125-1.1094-0.03125-0.0625 0-0.1875 0-0.1875 0.20312 0 0.10938 0.10938 0.10938 0.23438 0.10938 0.59375 0 0.65625 0.09375 0.75 0.3125l1.1719 2.7812-2.1094 2.2656-0.125 0.10938c-0.48438 0.53125-0.95312 0.6875-1.4688 0.71875-0.125 0.015625-0.21875 0.015625-0.21875 0.20312 0 0.015625 0 0.10938 0.14062 0.10938 0.29688 0 0.625-0.03125 0.92188-0.03125 0.375 0 0.76562 0.03125 1.125 0.03125 0.0625 0 0.17188 0 0.17188-0.20312 0-0.09375-0.09375-0.10938-0.10938-0.10938-0.09375 0-0.40625-0.03125-0.40625-0.3125 0-0.15625 0.15625-0.3125 0.26562-0.4375l1.0312-1.0781 0.89062-0.98438 1 2.3906c0.046875 0.10938 0.0625 0.10938 0.0625 0.14062 0 0.078125-0.20312 0.25-0.57812 0.28125-0.10938 0.015625-0.20312 0.015625-0.20312 0.1875 0 0.125 0.10938 0.125 0.14062 0.125 0.28125 0 0.98438-0.03125 1.2656-0.03125 0.25 0 0.85938 0.03125 1.1094 0.03125 0.0625 0 0.1875 0 0.1875-0.1875 0-0.125-0.10938-0.125-0.1875-0.125-0.65625 0-0.6875-0.03125-0.85938-0.4375-0.375-0.92188-1.0469-2.4844-1.2812-3.0781 0.67188-0.70312 1.7188-1.8906 2.0469-2.1562 0.28125-0.25 0.67188-0.48438 1.2656-0.51562 0.125-0.015625 0.21875-0.015625 0.21875-0.20312 0 0 0-0.10938-0.125-0.10938-0.29688 0-0.64062 0.03125-0.9375 0.03125-0.375 0-0.75-0.03125-1.1094-0.03125-0.0625 0-0.1875 0-0.1875 0.20312 0 0.0625 0.046875 0.09375 0.10938 0.10938 0.09375 0.015625 0.40625 0.03125 0.40625 0.3125 0 0.14062-0.10938 0.26562-0.1875 0.35938z"/>
    </g>
   </g>
   <g transform="translate(44.367 -79.457)">
    <g transform="translate(311.31 142.61)">
     <path id="id-c745f6cc-310a-42d0-9907-ee83f8a596cc" d="m5.875-4.8125c0-0.03125-0.015625-0.09375-0.09375-0.09375-0.046875 0-0.0625 0.015625-0.125 0.09375l-0.5 0.53125c-0.0625-0.078125-0.45312-0.625-1.3125-0.625-1.7031 0-3.3594 1.5-3.3594 3.0781 0 1.1406 0.89062 1.9688 2.1406 1.9688 0.375 0 1.0469-0.078125 1.7656-0.6875 0.54688-0.46875 0.70312-1.0625 0.70312-1.125 0-0.09375-0.078125-0.09375-0.125-0.09375-0.078125 0-0.09375 0.03125-0.125 0.10938-0.28125 0.95312-1.25 1.5469-2.0938 1.5469-0.75 0-1.5625-0.40625-1.5625-1.5 0-0.20312 0.046875-1.2969 0.84375-2.1875 0.48438-0.53125 1.2188-0.84375 1.875-0.84375 0.8125 0 1.2812 0.57812 1.2812 1.3594 0 0.1875-0.015625 0.25-0.015625 0.28125 0 0.09375 0.09375 0.09375 0.125 0.09375 0.10938 0 0.10938-0.015625 0.14062-0.15625z"/>
    </g>
   </g>
  </g>
 </g>
</svg>
