<svg width="238.73mm" height="86.505mm" version="1.1" viewBox="0 0 238.73 86.505" xmlns="http://www.w3.org/2000/svg" xmlns:ns0="http://www.iki.fi/pav/software/textext/">
 <defs>
  <marker id="a" overflow="visible" orient="auto">
   <path transform="scale(.4) rotate(180) translate(10)" d="m0 0 5-5-17.5 5 17.5 5-5-5z" fill-opacity=".62745" fill-rule="evenodd" stroke="#000" stroke-opacity=".62745" stroke-width="1pt"/>
  </marker>
  <marker id="b" overflow="visible" orient="auto">
   <path transform="scale(.4) rotate(180) translate(10)" d="m0 0 5-5-17.5 5 17.5 5-5-5z" fill-opacity=".62745" fill-rule="evenodd" stroke="#000" stroke-opacity=".62745" stroke-width="1pt"/>
  </marker>
  <marker id="c" overflow="visible" orient="auto">
   <path transform="scale(.4) rotate(180) translate(10)" d="m0 0 5-5-17.5 5 17.5 5-5-5z" fill-opacity=".62745" fill-rule="evenodd" stroke="#000" stroke-opacity=".62745" stroke-width="1pt"/>
  </marker>
  <marker id="d" overflow="visible" orient="auto">
   <path transform="scale(.4) rotate(180) translate(10)" d="m0 0 5-5-17.5 5 17.5 5-5-5z" fill-opacity=".62745" fill-rule="evenodd" stroke="#000" stroke-opacity=".62745" stroke-width="1pt"/>
  </marker>
  <marker id="e" overflow="visible" orient="auto">
   <path transform="scale(.4) rotate(180) translate(10)" d="m0 0 5-5-17.5 5 17.5 5-5-5z" fill-opacity=".45882" fill-rule="evenodd" stroke="#000" stroke-opacity=".62802" stroke-width="1pt"/>
  </marker>
  <marker id="f" overflow="visible" orient="auto">
   <path transform="scale(.4) rotate(180) translate(10)" d="m0 0 5-5-17.5 5 17.5 5-5-5z" fill-opacity=".45882" fill-rule="evenodd" stroke="#000" stroke-opacity=".62802" stroke-width="1pt"/>
  </marker>
 </defs>
 <g transform="translate(-10.053 -11.081)">
  <g transform="matrix(2.1907 0 0 -2.1907 -268.04 1737.8)" fill-rule="evenodd" stroke="#000" stroke-miterlimit="10.433" ns0:preamble="default_packages.tex" ns0:text="$\\frac{3}{5}$\n$\\frac{2}{5}$\n" xml:space="preserve"><g transform="matrix(1.5 0 0 -1.5 -349.38 1149.6)" fill-rule="evenodd" stroke="#000" stroke-miterlimit="10.433" ns0:preamble="default_packages.tex" ns0:text="$$\\text{Physics}$$\n$$\\text{Literature}$$\n$$\\text{Priors}$$\n$$\\text{Documents}$$\n$$\\text{Estimated params}$$\n" xml:space="preserve"><path d="m320.03 259.75v-18.318" fill-opacity=".45882" marker-end="url(#f)" stroke="#000" stroke-miterlimit="10.433" stroke-opacity=".62802" stroke-width=".12633"/><path d="m318.87 258.31h18.318" fill-opacity=".45882" marker-end="url(#e)" stroke="#000" stroke-miterlimit="10.433" stroke-opacity=".62802" stroke-width=".12633"/><g transform="matrix(1.5 0 0 -1.5 -348.9 1188.4)" fill-rule="evenodd" ns0:preamble="default_packages.tex" ns0:text="$$x_1$$\n$$x_2$$\n" xml:space="preserve"><g fill-opacity=".62745" stroke-width="0"><path d="m491.75 619.49 4e-3 7e-3v4e-3l2e-3 4e-3 2e-3 5e-3 3e-3 5e-3 2e-3 6e-3 2e-3 5e-3 5e-3 0.0117 3e-3 5e-3 7e-3 0.0176 0.0134 0.0234 4e-3 5e-3 5e-3 6e-3 4e-3 5e-3 5e-3 5e-3 6e-3 5e-3 5e-3 5e-3 6e-3 4e-3 5e-3 4e-3 7e-3 4e-3 3e-3 2e-3 0.01 5e-3 3e-3 2e-3h4e-3l4e-3 2e-3h0.0117c6e-3 0 0.0344 0 0.0592-0.0154-0.0331-6e-3 -0.0569-0.0355-0.0569-0.0628 0-0.0189 0.013-0.0414 0.045-0.0414 0.026 0 0.0639 0.0212 0.0639 0.0687 0 0.0604-0.0699 0.077-0.11013 0.077-0.0687 0-0.11014-0.0628-0.12434-0.0888-0.0296 0.077-0.0924 0.0888-0.12672 0.0888-0.12317 0-0.19067-0.1516-0.19067-0.18121 0-0.0118 0.0118-0.0118 0.0142-0.0118 9e-3 0 0.013 3e-3 0.0154 0.013 0.0402 0.12435 0.11841 0.15395 0.15868 0.15395 0.0224 0 0.0628-0.0107 0.0628-0.0781 0-0.0367-0.0189-0.11606-0.0628-0.28067-0.0189-0.0722-0.0605-0.12197-0.1125-0.12197-7e-3 0-0.0343 0-0.0592 0.0154 0.0296 6e-3 0.0557 0.0308 0.0557 0.0639 0 0.0308-0.026 0.0402-0.0438 0.0402-0.0355 0-0.0652-0.0308-0.0652-0.0675 0-0.0545 0.0592-0.0781 0.11131-0.0781 0.0781 0 0.12079 0.0829 0.12435 0.09 0.013-0.0438 0.0557-0.09 0.12671-0.09 0.12198 0 0.18947 0.15158 0.18947 0.18119 0 0.0118-0.0106 0.0118-0.0142 0.0118-0.0107 0-0.013-5e-3 -0.0154-0.013-0.0391-0.12552-0.11961-0.15396-0.1575-0.15396-0.0462 0-0.0652 0.0379-0.0652 0.077 0 0.026 7e-3 0.052 0.0201 0.10422z"/><path d="m492.31 619.48v0.0151h-2e-3v8e-3h-2e-3v4e-3h-2e-3v2e-3h-4e-3v2e-3h-4e-3l-2e-3 2e-3h-0.0218c-0.0532-0.0521-0.12789-0.0521-0.16223-0.0521v-0.0296c0.0201 0 0.0747 0 0.11961 0.0225v-0.41923c0-0.0272 0-0.0379-0.0829-0.0379h-0.0308v-0.0297c0.0142 0 0.11606 3e-3 0.14685 3e-3 0.026 0 0.13026-3e-3 0.14803-3e-3v0.0297h-0.0308c-0.0829 0-0.0829 0.0106-0.0829 0.0379z"/><path d="m479.5 631.27 2e-3 3e-3 2e-3 4e-3v5e-3l2e-3 4e-3 2e-3 5e-3 3e-3 5e-3 2e-3 5e-3 2e-3 6e-3 3e-3 6e-3 3e-3 5e-3 0.01 0.0234 0.0134 0.0234 4e-3 5e-3 5e-3 6e-3 4e-3 5e-3 5e-3 5e-3 6e-3 5e-3 5e-3 4e-3 6e-3 4e-3 5e-3 4e-3 4e-3 3e-3 4e-3 2e-3 3e-3 2e-3 0.01 5e-3h3e-3l4e-3 2e-3h4e-3l5e-3 2e-3h7e-3c6e-3 0 0.0344 0 0.0592-0.0153-0.0331-6e-3 -0.0569-0.0356-0.0569-0.0639 0-0.0178 0.013-0.0402 0.045-0.0402 0.026 0 0.0639 0.0212 0.0639 0.0676 0 0.0615-0.0699 0.0781-0.11013 0.0781-0.0687 0-0.11014-0.0628-0.12435-0.09-0.0297 0.0781-0.0924 0.09-0.12672 0.09-0.12317 0-0.19066-0.15158-0.19066-0.18119 0-0.0118 0.0118-0.0118 0.0142-0.0118 9e-3 0 0.0131 3e-3 0.0154 0.013 0.0402 0.12436 0.11841 0.15396 0.15868 0.15396 0.0225 0 0.0628-0.0107 0.0628-0.0794 0-0.0355-0.0189-0.11488-0.0628-0.27948-0.0189-0.0735-0.0605-0.12199-0.1125-0.12199-7e-3 0-0.0343 0-0.0592 0.0142 0.0296 7e-3 0.0557 0.0308 0.0557 0.0639 0 0.0319-0.026 0.0415-0.0438 0.0415-0.0355 0-0.0652-0.0308-0.0652-0.0687 0-0.0533 0.0592-0.077 0.11132-0.077 0.0781 0 0.12079 0.0818 0.12434 0.0888 0.0131-0.0427 0.0557-0.0888 0.12671-0.0888 0.12198 0 0.18948 0.15159 0.18948 0.18121 0 0.0118-0.0106 0.0118-0.0142 0.0118-0.0107 0-0.0131-5e-3 -0.0154-0.013-0.0391-0.12554-0.11961-0.15395-0.1575-0.15395-0.0462 0-0.0652 0.0368-0.0652 0.077 0 0.026 7e-3 0.0521 0.0201 0.10422z"/><path d="m480.2 630.89h-0.0285c-3e-3 -0.019-0.0107-0.0663-0.0212-0.0747-7e-3 -6e-3 -0.071-6e-3 -0.0829-6e-3h-0.1516c0.0865 0.077 0.11607 0.0995 0.1658 0.13856 0.0616 0.0487 0.11843 0.0995 0.11843 0.17764 0 0.10065-0.0877 0.16105-0.19421 0.16105-0.10304 0-0.17171-0.071-0.17171-0.14803 0-0.0415 0.0355-0.045 0.0438-0.045 0.019 0 0.0438 0.0131 0.0438 0.0427 0 0.0154-6e-3 0.0438-0.0487 0.0438 0.0249 0.0592 0.0818 0.077 0.1208 0.077 0.0829 0 0.12552-0.0639 0.12552-0.13143 0-0.071-0.052-0.1279-0.0781-0.15752l-0.19896-0.19659c-8e-3 -7e-3 -8e-3 -8e-3 -8e-3 -0.032h0.34106z"/></g><g fill="#f00" fill-opacity=".45882" stroke="none"><circle transform="scale(1,-1)" cx="450.98" cy="-624.66" r=".19171"/><g fill-rule="evenodd"><circle transform="scale(1,-1)" cx="451.63" cy="-625.27" r=".19171"/><circle transform="scale(1,-1)" cx="452.23" cy="-625.75" r=".19171"/><circle transform="scale(1,-1)" cx="452.49" cy="-624.39" r=".19171"/><circle transform="scale(1,-1)" cx="451.27" cy="-626.4" r=".19171"/><circle transform="scale(1,-1)" cx="451.77" cy="-625.65" r=".19171"/><circle transform="scale(1,-1)" cx="451.71" cy="-625.33" r=".19171"/><circle transform="scale(1,-1)" cx="452.72" cy="-626.48" r=".19171"/><circle transform="scale(1,-1)" cx="452.99" cy="-625.1" r=".19171"/><circle transform="scale(1,-1)" cx="453.51" cy="-624.06" r=".19171"/><circle transform="scale(1,-1)" cx="451.67" cy="-625.75" r=".19171"/><circle transform="scale(1,-1)" cx="451.59" cy="-624.08" r=".19171"/><circle transform="scale(1,-1)" cx="452.25" cy="-626.71" r=".19171"/><circle transform="scale(1,-1)" cx="450.56" cy="-625.56" r=".19171"/><circle transform="scale(1,-1)" cx="450.39" cy="-623.97" r=".19171"/><circle transform="scale(1,-1)" cx="452.61" cy="-623.53" r=".19171"/><circle transform="scale(1,-1)" cx="454.07" cy="-625.64" r=".19171"/><circle transform="scale(1,-1)" cx="451.56" cy="-627.4" r=".19171"/><circle transform="scale(1,-1)" cx="450.46" cy="-626.56" r=".19171"/><circle transform="scale(1,-1)" cx="449.62" cy="-624.94" r=".19171"/><circle transform="scale(1,-1)" cx="451.77" cy="-623.24" r=".19171"/><circle transform="scale(1,-1)" cx="453.34" cy="-625.69" r=".19171"/><circle transform="scale(1,-1)" cx="452.02" cy="-626.34" r=".19171"/><circle transform="scale(1,-1)" cx="452.05" cy="-625.1" r=".19171"/><circle transform="scale(1,-1)" cx="451.44" cy="-624.89" r=".19171"/><circle transform="scale(1,-1)" cx="453.04" cy="-626.99" r=".19171"/><circle transform="scale(1,-1)" cx="454.07" cy="-626.67" r=".19171"/><circle transform="scale(1,-1)" cx="452.46" cy="-625.25" r=".19171"/><circle transform="scale(1,-1)" cx="452" cy="-625.19" r=".19171"/><circle transform="scale(1,-1)" cx="452.49" cy="-625.9" r=".19171"/><circle transform="scale(1,-1)" cx="453.01" cy="-624.87" r=".19171"/><circle transform="scale(1,-1)" cx="451.56" cy="-625.9" r=".19171"/><circle transform="scale(1,-1)" cx="451.96" cy="-626.06" r=".19171"/><circle transform="scale(1,-1)" cx="451.38" cy="-624.52" r=".19171"/><circle transform="scale(1,-1)" cx="451.88" cy="-625.23" r=".19171"/><circle transform="scale(1,-1)" cx="452.4" cy="-624.2" r=".19171"/><circle transform="scale(1,-1)" cx="450.94" cy="-625.23" r=".19171"/><circle transform="scale(1,-1)" cx="451.34" cy="-625.39" r=".19171"/><circle transform="matrix(.22948 .97331 .97331 -.22948 0 0)" cx="712.36" cy="297.46" r=".19171"/><circle transform="matrix(.22948 .97331 .97331 -.22948 0 0)" cx="712.85" cy="296.75" r=".19171"/><circle transform="matrix(.22948 .97331 .97331 -.22948 0 0)" cx="713.37" cy="297.79" r=".19171"/><circle transform="matrix(.22948 .97331 .97331 -.22948 0 0)" cx="711.91" cy="296.75" r=".19171"/><circle transform="matrix(.22948 .97331 .97331 -.22948 0 0)" cx="712.32" cy="296.6" r=".19171"/><circle transform="scale(1,-1)" cx="453.93" cy="-624.47" r=".19171"/><circle transform="scale(1,-1)" cx="453.93" cy="-625.5" r=".19171"/><circle transform="matrix(.22948 .97331 .97331 -.22948 0 0)" cx="712.2" cy="297.93" r=".19171"/><circle transform="scale(1,-1)" cx="450.08" cy="-625.61" r=".19171"/><circle transform="scale(1,-1)" cx="450.08" cy="-626.64" r=".19171"/><circle transform="matrix(.22948 .97331 .97331 -.22948 0 0)" cx="712.43" cy="293.92" r=".19171"/><circle transform="scale(1,-1)" cx="451.27" cy="-625.87" r=".19171"/><circle transform="scale(1,-1)" cx="452.78" cy="-625.6" r=".19171"/><circle transform="scale(1,-1)" cx="451.88" cy="-625.29" r=".19171"/><circle transform="scale(1,-1)" cx="450.67" cy="-625.17" r=".19171"/><circle transform="scale(1,-1)" cx="452.9" cy="-624.73" r=".19171"/><circle transform="scale(1,-1)" cx="452.05" cy="-624.45" r=".19171"/><circle transform="scale(1,-1)" cx="451.67" cy="-625.73" r=".19171"/><circle transform="scale(1,-1)" cx="452.69" cy="-625.4" r=".19171"/><circle transform="scale(1,-1)" cx="450.46" cy="-625.31" r=".19171"/><ellipse transform="scale(1,-1)" cx="452.13" cy="-625.54" rx=".19171" ry=".17254"/><circle transform="scale(1,-1)" cx="451.08" cy="-624.73" r=".19171"/><circle transform="scale(1,-1)" cx="449.87" cy="-624.62" r=".19171"/><circle transform="scale(1,-1)" cx="452.09" cy="-624.18" r=".19171"/><circle transform="scale(1,-1)" cx="451.25" cy="-623.89" r=".19171"/><circle transform="scale(1,-1)" cx="450.87" cy="-625.17" r=".19171"/><circle transform="scale(1,-1)" cx="451.88" cy="-624.85" r=".19171"/><circle transform="scale(1,-1)" cx="451.98" cy="-628.26" r=".19171"/><circle transform="scale(1,-1)" cx="453.49" cy="-627.99" r=".19171"/><circle transform="scale(1,-1)" cx="452.59" cy="-627.69" r=".19171"/><circle transform="scale(1,-1)" cx="451.38" cy="-627.57" r=".19171"/><circle transform="scale(1,-1)" cx="453.61" cy="-627.13" r=".19171"/><circle transform="scale(1,-1)" cx="452.76" cy="-626.84" r=".19171"/><circle transform="scale(1,-1)" cx="452.38" cy="-628.13" r=".19171"/><circle transform="scale(1,-1)" cx="452.02" cy="-626.84" r=".19171"/><circle transform="scale(1,-1)" cx="451.86" cy="-625.65" r=".19171"/><circle transform="scale(1,-1)" cx="450.98" cy="-627.05" r=".19171"/><circle transform="scale(1,-1)" cx="451.23" cy="-625.69" r=".19171"/><circle transform="scale(1,-1)" cx="452.74" cy="-626.19" r=".19171"/><circle transform="scale(1,-1)" cx="450.6" cy="-626.15" r=".19171"/><circle transform="scale(1,-1)" cx="450.29" cy="-627.86" r=".19171"/><circle transform="scale(1,-1)" cx="452.84" cy="-622.8" r=".19171"/><circle transform="scale(1,-1)" cx="450.06" cy="-623.12" r=".19171"/><circle transform="scale(1,-1)" cx="454.6" cy="-624.93" r=".19171"/><circle transform="scale(1,-1)" cx="449.08" cy="-627.23" r=".19171"/><circle transform="scale(1,-1)" cx="448.58" cy="-625.44" r=".19171"/><circle transform="scale(1,-1)" cx="454.58" cy="-627.49" r=".19171"/><circle transform="scale(1,-1)" cx="455.06" cy="-626.34" r=".19171"/><circle transform="scale(1,-1)" cx="454.53" cy="-623.62" r=".19171"/><circle transform="scale(1,-1)" cx="454.72" cy="-625.71" r=".19171"/><circle transform="scale(1,-1)" cx="448.95" cy="-624.08" r=".19171"/><circle transform="scale(1,-1)" cx="451.21" cy="-622.17" r=".19171"/><circle transform="scale(1,-1)" cx="452.19" cy="-621.99" r=".19171"/><circle transform="scale(1,-1)" cx="453.91" cy="-622.82" r=".19171"/><circle transform="scale(1,-1)" cx="451.15" cy="-629.07" r=".19171"/><circle transform="scale(1,-1)" cx="450.31" cy="-625.98" r=".19171"/><circle transform="scale(1,-1)" cx="451.5" cy="-626.59" r=".19171"/><circle transform="scale(1,-1)" cx="453.11" cy="-625.96" r=".19171"/><circle transform="scale(1,-1)" cx="452.51" cy="-624.79" r=".19171"/><circle transform="scale(1,-1)" cx="451.17" cy="-625.06" r=".19171"/><circle transform="scale(1,-1)" cx="450.92" cy="-625.4" r=".19171"/><circle transform="scale(1,-1)" cx="451.71" cy="-624.48" r=".19171"/><circle transform="scale(1,-1)" cx="451.77" cy="-625.04" r=".19171"/><circle transform="scale(1,-1)" cx="451.59" cy="-626.44" r=".19171"/><circle transform="scale(1,-1)" cx="449.1" cy="-623.09" r=".19171"/><circle transform="scale(1,-1)" cx="450.64" cy="-624.5" r=".19171"/><circle transform="scale(1,-1)" cx="452.36" cy="-626.23" r=".19171"/><circle transform="scale(1,-1)" cx="450.96" cy="-624.02" r=".19171"/><circle transform="scale(1,-1)" cx="452.67" cy="-625" r=".19171"/><circle transform="scale(1,-1)" cx="452.76" cy="-625.79" r=".19171"/><circle transform="scale(1,-1)" cx="453.34" cy="-625.21" r=".19171"/><circle transform="scale(1,-1)" cx="450.42" cy="-624.87" r=".19171"/><circle transform="scale(1,-1)" cx="451" cy="-624.31" r=".19171"/><circle transform="scale(1,-1)" cx="451.77" cy="-623.83" r=".19171"/><circle transform="scale(1,-1)" cx="450.96" cy="-626.27" r=".19171"/><circle transform="scale(1,-1)" cx="451.57" cy="-625.62" r=".19171"/><circle transform="scale(1,-1)" cx="452.13" cy="-625.52" r=".19171"/><circle transform="scale(1,-1)" cx="451.42" cy="-625.04" r=".19171"/><circle transform="scale(1,-1)" cx="452.37" cy="-625.46" r=".19171"/><circle transform="scale(1,-1)" cx="451.59" cy="-624.73" r=".19171"/><circle transform="scale(1,-1)" cx="451.8" cy="-624.68" r=".19171"/><circle transform="scale(1,-1)" cx="451.72" cy="-626.05" r=".19171"/><circle transform="scale(1,-1)" cx="452.02" cy="-625.9" r=".19171"/><circle transform="scale(1,-1)" cx="450.88" cy="-625.89" r=".19171"/><circle transform="scale(1,-1)" cx="453.38" cy="-626.46" r=".19171"/><circle transform="scale(1,-1)" cx="453.07" cy="-624.12" r=".19171"/><circle transform="scale(1,-1)" cx="450.18" cy="-626.81" r=".19171"/><circle transform="scale(1,-1)" cx="452.4" cy="-627.22" r=".19171"/><circle transform="scale(1,-1)" cx="449.72" cy="-624.58" r=".19171"/><circle transform="scale(1,-1)" cx="454.88" cy="-624.19" r=".19171"/><circle transform="scale(1,-1)" cx="451.26" cy="-624.13" r=".19171"/><circle transform="scale(1,-1)" cx="451.87" cy="-625.55" r=".19171"/><circle transform="scale(1,-1)" cx="450.78" cy="-625.62" r=".19171"/><circle transform="scale(1,-1)" cx="448.52" cy="-626.33" r=".19171"/></g></g><g fill-opacity=".62745" stroke-miterlimit="10.433"><path d="m463.13 619.08v12.212" marker-end="url(#c)" stroke="#000" stroke-miterlimit="10.433" stroke-opacity=".62745" stroke-width=".085885"/><path d="m462.35 620.04h12.212" marker-end="url(#d)" stroke="#000" stroke-miterlimit="10.433" stroke-opacity=".62745" stroke-width=".085885"/><g fill-rule="evenodd" stroke-width="0"><path d="m474.17 619.53 4e-3 7e-3v4e-3l2e-3 4e-3 2e-3 5e-3 3e-3 5e-3 2e-3 6e-3 2e-3 5e-3 5e-3 0.0117 3e-3 5e-3 7e-3 0.0176 0.0134 0.0234 4e-3 5e-3 5e-3 6e-3 4e-3 5e-3 5e-3 5e-3 6e-3 5e-3 5e-3 5e-3 6e-3 4e-3 5e-3 4e-3 7e-3 4e-3 3e-3 2e-3 0.01 5e-3 3e-3 2e-3h4e-3l4e-3 2e-3h0.0117c6e-3 0 0.0343 0 0.0592-0.0154-0.0331-6e-3 -0.0569-0.0355-0.0569-0.0628 0-0.0189 0.0131-0.0414 0.045-0.0414 0.026 0 0.0639 0.0212 0.0639 0.0687 0 0.0604-0.0699 0.077-0.11012 0.077-0.0687 0-0.11015-0.0628-0.12435-0.0888-0.0297 0.077-0.0924 0.0888-0.12672 0.0888-0.12317 0-0.19066-0.1516-0.19066-0.18121 0-0.0118 0.0118-0.0118 0.0142-0.0118 9e-3 0 0.013 3e-3 0.0154 0.013 0.0402 0.12435 0.11842 0.15395 0.15868 0.15395 0.0225 0 0.0628-0.0107 0.0628-0.0781 0-0.0367-0.0189-0.11606-0.0628-0.28067-0.0189-0.0722-0.0604-0.12197-0.1125-0.12197-7e-3 0-0.0343 0-0.0592 0.0154 0.0296 6e-3 0.0557 0.0308 0.0557 0.0639 0 0.0308-0.026 0.0402-0.0438 0.0402-0.0355 0-0.0651-0.0308-0.0651-0.0675 0-0.0545 0.0592-0.0781 0.11132-0.0781 0.0781 0 0.12079 0.0829 0.12435 0.09 0.0131-0.0438 0.0557-0.09 0.1267-0.09 0.12199 0 0.18948 0.15158 0.18948 0.18119 0 0.0118-0.0107 0.0118-0.0142 0.0118-0.0108 0-0.0131-5e-3 -0.0154-0.013-0.0391-0.12552-0.11962-0.15396-0.15751-0.15396-0.0462 0-0.0652 0.0379-0.0652 0.077 0 0.026 7e-3 0.052 0.0201 0.10422z"/><path d="m474.73 619.53v0.0151h-2e-3v8e-3h-2e-3v4e-3h-2e-3v2e-3h-4e-3v2e-3h-4e-3l-2e-3 2e-3h-0.0218c-0.0533-0.0521-0.12789-0.0521-0.16224-0.0521v-0.0296c0.0201 0 0.0747 0 0.11961 0.0225v-0.41923c0-0.0272 0-0.0379-0.0829-0.0379h-0.0308v-0.0297c0.0142 0 0.11605 3e-3 0.14684 3e-3 0.026 0 0.13027-3e-3 0.14804-3e-3v0.0297h-0.0308c-0.0829 0-0.0829 0.0106-0.0829 0.0379z"/><path d="m462.1 631.34 2e-3 3e-3 2e-3 4e-3v5e-3l2e-3 4e-3 2e-3 5e-3 3e-3 5e-3 2e-3 5e-3 2e-3 6e-3 3e-3 6e-3 3e-3 5e-3 0.01 0.0234 0.0134 0.0234 4e-3 5e-3 5e-3 6e-3 4e-3 5e-3 5e-3 5e-3 6e-3 5e-3 5e-3 4e-3 6e-3 4e-3 5e-3 4e-3 4e-3 3e-3 4e-3 2e-3 3e-3 2e-3 0.01 5e-3h3e-3l4e-3 2e-3h4e-3l5e-3 2e-3h7e-3c6e-3 0 0.0343 0 0.0592-0.0154-0.0331-6e-3 -0.0569-0.0356-0.0569-0.0639 0-0.0178 0.013-0.0402 0.045-0.0402 0.026 0 0.0639 0.0212 0.0639 0.0676 0 0.0615-0.0699 0.0781-0.11012 0.0781-0.0687 0-0.11015-0.0628-0.12434-0.09-0.0297 0.0781-0.0924 0.09-0.12672 0.09-0.12318 0-0.19067-0.15158-0.19067-0.18119 0-0.0118 0.0118-0.0118 0.0142-0.0118 9e-3 0 0.0131 3e-3 0.0154 0.0131 0.0402 0.12435 0.11842 0.15395 0.15868 0.15395 0.0226 0 0.0628-0.0107 0.0628-0.0793 0-0.0355-0.0189-0.11488-0.0628-0.27948-0.0189-0.0735-0.0605-0.12198-0.1125-0.12198-7e-3 0-0.0344 0-0.0592 0.0142 0.0296 7e-3 0.0557 0.0308 0.0557 0.0639 0 0.032-0.026 0.0415-0.0438 0.0415-0.0355 0-0.0652-0.0308-0.0652-0.0687 0-0.0533 0.0592-0.077 0.11132-0.077 0.0781 0 0.12079 0.0818 0.12435 0.0888 0.0131-0.0427 0.0557-0.0888 0.1267-0.0888 0.12199 0 0.18948 0.15158 0.18948 0.18119 0 0.0118-0.0107 0.0118-0.0142 0.0118-0.0108 0-0.0131-5e-3 -0.0154-0.0131-0.0391-0.12553-0.11962-0.15394-0.15751-0.15394-0.0462 0-0.0652 0.0368-0.0652 0.077 0 0.026 7e-3 0.0521 0.0201 0.10422z"/><path d="m462.8 630.95h-0.0284c-3e-3 -0.019-0.0107-0.0663-0.0212-0.0747-7e-3 -6e-3 -0.071-6e-3 -0.0829-6e-3h-0.1516c0.0865 0.077 0.11607 0.0995 0.1658 0.13856 0.0616 0.0486 0.11842 0.0995 0.11842 0.17763 0 0.10066-0.0876 0.16106-0.19421 0.16106-0.10303 0-0.17171-0.071-0.17171-0.14804 0-0.0415 0.0355-0.045 0.0438-0.045 0.019 0 0.0438 0.0131 0.0438 0.0427 0 0.0154-6e-3 0.0438-0.0486 0.0438 0.0249 0.0592 0.0818 0.077 0.1208 0.077 0.0829 0 0.12553-0.0639 0.12553-0.13144 0-0.071-0.052-0.12791-0.0781-0.15752l-0.19896-0.19658c-8e-3 -7e-3 -8e-3 -8e-3 -8e-3 -0.0319h0.34107z"/></g></g><g fill="#f00" fill-opacity=".45882" fill-rule="evenodd" stroke="none"><circle transform="scale(1,-1)" cx="468.64" cy="-624.2" r=".19171"/><circle transform="scale(1,-1)" cx="469.29" cy="-624.82" r=".19171"/><circle transform="scale(1,-1)" cx="469.88" cy="-625.3" r=".19171"/><circle transform="scale(1,-1)" cx="470.15" cy="-623.94" r=".19171"/><circle transform="scale(1,-1)" cx="468.93" cy="-625.95" r=".19171"/><circle transform="scale(1,-1)" cx="469.42" cy="-625.2" r=".19171"/><circle transform="scale(1,-1)" cx="469.37" cy="-624.87" r=".19171"/><circle transform="scale(1,-1)" cx="470.38" cy="-626.02" r=".19171"/><circle transform="scale(1,-1)" cx="470.65" cy="-624.64" r=".19171"/><circle transform="scale(1,-1)" cx="471.17" cy="-623.61" r=".19171"/><circle transform="scale(1,-1)" cx="469.33" cy="-625.3" r=".19171"/><circle transform="scale(1,-1)" cx="469.25" cy="-623.63" r=".19171"/><circle transform="scale(1,-1)" cx="469.9" cy="-626.25" r=".19171"/><circle transform="scale(1,-1)" cx="468.22" cy="-625.1" r=".19171"/><circle transform="scale(1,-1)" cx="467.92" cy="-623.87" r=".19171"/><circle transform="scale(1,-1)" cx="469.41" cy="-625.06" r=".19171"/><circle transform="scale(1,-1)" cx="471.72" cy="-625.18" r=".19171"/><circle transform="scale(1,-1)" cx="469.27" cy="-626.16" r=".19171"/><circle transform="scale(1,-1)" cx="468.12" cy="-626.1" r=".19171"/><circle transform="scale(1,-1)" cx="467.28" cy="-624.49" r=".19171"/><circle transform="scale(1,-1)" cx="467.41" cy="-624.89" r=".19171"/><circle transform="scale(1,-1)" cx="471" cy="-625.24" r=".19171"/><circle transform="scale(1,-1)" cx="469.67" cy="-625.89" r=".19171"/><circle transform="scale(1,-1)" cx="469.71" cy="-624.64" r=".19171"/><circle transform="scale(1,-1)" cx="469.1" cy="-624.43" r=".19171"/><circle transform="scale(1,-1)" cx="470.69" cy="-626.53" r=".19171"/><circle transform="scale(1,-1)" cx="471.72" cy="-626.22" r=".19171"/><circle transform="scale(1,-1)" cx="470.11" cy="-624.8" r=".19171"/><circle transform="scale(1,-1)" cx="469.65" cy="-624.74" r=".19171"/><circle transform="scale(1,-1)" cx="470.15" cy="-625.45" r=".19171"/><circle transform="scale(1,-1)" cx="470.67" cy="-624.41" r=".19171"/><circle transform="scale(1,-1)" cx="469.21" cy="-625.45" r=".19171"/><circle transform="scale(1,-1)" cx="469.62" cy="-625.6" r=".19171"/><circle transform="scale(1,-1)" cx="469.04" cy="-624.07" r=".19171"/><circle transform="scale(1,-1)" cx="469.54" cy="-624.78" r=".19171"/><circle transform="scale(1,-1)" cx="470.06" cy="-623.74" r=".19171"/><circle transform="scale(1,-1)" cx="468.6" cy="-624.78" r=".19171"/><circle transform="scale(1,-1)" cx="469" cy="-624.93" r=".19171"/><circle transform="matrix(.22948 .97331 .97331 -.22948 0 0)" cx="716.19" cy="314.17" r=".19171"/><circle transform="matrix(.22948 .97331 .97331 -.22948 0 0)" cx="716.46" cy="314.04" r=".19171"/><circle transform="matrix(.22948 .97331 .97331 -.22948 0 0)" cx="716.98" cy="315.08" r=".19171"/><circle transform="matrix(.22948 .97331 .97331 -.22948 0 0)" cx="715.53" cy="314.04" r=".19171"/><circle transform="matrix(.22948 .97331 .97331 -.22948 0 0)" cx="715.93" cy="313.89" r=".19171"/><circle transform="scale(1,-1)" cx="471.59" cy="-624.01" r=".19171"/><circle transform="scale(1,-1)" cx="471.59" cy="-625.05" r=".19171"/><circle transform="matrix(.22948 .97331 .97331 -.22948 0 0)" cx="715.81" cy="315.22" r=".19171"/><circle transform="scale(1,-1)" cx="467.74" cy="-625.15" r=".19171"/><circle transform="scale(1,-1)" cx="467.74" cy="-626.19" r=".19171"/><circle transform="matrix(.22948 .97331 .97331 -.22948 0 0)" cx="716.04" cy="311.21" r=".19171"/><circle transform="scale(1,-1)" cx="468.93" cy="-625.41" r=".19171"/><circle transform="scale(1,-1)" cx="470.44" cy="-625.14" r=".19171"/><circle transform="scale(1,-1)" cx="469.54" cy="-624.84" r=".19171"/><circle transform="scale(1,-1)" cx="468.33" cy="-624.72" r=".19171"/><circle transform="scale(1,-1)" cx="470.7" cy="-625.12" r=".19171"/><circle transform="scale(1,-1)" cx="469.71" cy="-623.99" r=".19171"/><circle transform="scale(1,-1)" cx="469.33" cy="-625.28" r=".19171"/><circle transform="scale(1,-1)" cx="470.34" cy="-624.95" r=".19171"/><circle transform="scale(1,-1)" cx="468.12" cy="-624.86" r=".19171"/><ellipse transform="scale(1,-1)" cx="469.79" cy="-625.09" rx=".19171" ry=".17254"/><circle transform="scale(1,-1)" cx="468.73" cy="-624.28" r=".19171"/><circle transform="scale(1,-1)" cx="467.53" cy="-624.17" r=".19171"/><circle transform="scale(1,-1)" cx="469.75" cy="-623.72" r=".19171"/><circle transform="scale(1,-1)" cx="468.91" cy="-623.44" r=".19171"/><circle transform="scale(1,-1)" cx="468.52" cy="-624.72" r=".19171"/><circle transform="scale(1,-1)" cx="469.54" cy="-624.4" r=".19171"/><circle transform="scale(1,-1)" cx="469.71" cy="-626.26" r=".19171"/><circle transform="scale(1,-1)" cx="471.65" cy="-625.68" r=".19171"/><circle transform="scale(1,-1)" cx="469.44" cy="-626.96" r=".19171"/><circle transform="scale(1,-1)" cx="465.69" cy="-625.27" r=".19171"/><circle transform="scale(1,-1)" cx="471.26" cy="-626.68" r=".19171"/><circle transform="scale(1,-1)" cx="470.42" cy="-626.39" r=".19171"/><circle transform="scale(1,-1)" cx="469.19" cy="-626.35" r=".19171"/><circle transform="scale(1,-1)" cx="469.94" cy="-625.51" r=".19171"/><circle transform="scale(1,-1)" cx="469.52" cy="-625.2" r=".19171"/><circle transform="scale(1,-1)" cx="468.64" cy="-626.6" r=".19171"/><circle transform="scale(1,-1)" cx="468.89" cy="-625.24" r=".19171"/><circle transform="scale(1,-1)" cx="470.4" cy="-625.74" r=".19171"/><circle transform="scale(1,-1)" cx="468.25" cy="-625.7" r=".19171"/><circle transform="scale(1,-1)" cx="467.43" cy="-626.1" r=".19171"/><circle transform="scale(1,-1)" cx="470.5" cy="-623.72" r=".19171"/><circle transform="scale(1,-1)" cx="467.12" cy="-623.96" r=".19171"/><circle transform="scale(1,-1)" cx="472.78" cy="-624.58" r=".19171"/><circle transform="scale(1,-1)" cx="467.01" cy="-626.06" r=".19171"/><circle transform="scale(1,-1)" cx="466.24" cy="-624.99" r=".19171"/><circle transform="scale(1,-1)" cx="472.68" cy="-625.64" r=".19171"/><circle transform="scale(1,-1)" cx="473.34" cy="-625.44" r=".19171"/><circle transform="scale(1,-1)" cx="472.09" cy="-624.32" r=".19171"/><circle transform="scale(1,-1)" cx="472.38" cy="-625.26" r=".19171"/><circle transform="scale(1,-1)" cx="466.37" cy="-625.43" r=".19171"/><circle transform="scale(1,-1)" cx="466.78" cy="-624.59" r=".19171"/><circle transform="scale(1,-1)" cx="469.6" cy="-623.28" r=".19171"/><circle transform="scale(1,-1)" cx="471.65" cy="-624.43" r=".19171"/><circle transform="scale(1,-1)" cx="468.45" cy="-626.58" r=".19171"/><circle transform="scale(1,-1)" cx="467.97" cy="-625.53" r=".19171"/><circle transform="scale(1,-1)" cx="469.16" cy="-626.14" r=".19171"/><circle transform="scale(1,-1)" cx="470.77" cy="-625.51" r=".19171"/><circle transform="scale(1,-1)" cx="470.17" cy="-624.34" r=".19171"/><circle transform="scale(1,-1)" cx="468.83" cy="-624.61" r=".19171"/><circle transform="scale(1,-1)" cx="468.58" cy="-624.95" r=".19171"/><circle transform="scale(1,-1)" cx="469.37" cy="-624.03" r=".19171"/><circle transform="scale(1,-1)" cx="469.42" cy="-624.59" r=".19171"/><circle transform="scale(1,-1)" cx="468.15" cy="-625.3" r=".19171"/><circle transform="scale(1,-1)" cx="465.47" cy="-624.49" r=".19171"/><circle transform="scale(1,-1)" cx="468.29" cy="-624.05" r=".19171"/><circle transform="scale(1,-1)" cx="470.02" cy="-625.78" r=".19171"/><circle transform="scale(1,-1)" cx="466.03" cy="-624.95" r=".19171"/><circle transform="scale(1,-1)" cx="470.33" cy="-624.55" r=".19171"/><circle transform="scale(1,-1)" cx="470.42" cy="-625.33" r=".19171"/><circle transform="scale(1,-1)" cx="471" cy="-624.76" r=".19171"/><circle transform="scale(1,-1)" cx="468.08" cy="-624.41" r=".19171"/><circle transform="scale(1,-1)" cx="468.66" cy="-623.86" r=".19171"/><circle transform="scale(1,-1)" cx="469" cy="-624.74" r=".19171"/><circle transform="scale(1,-1)" cx="468.62" cy="-625.81" r=".19171"/><circle transform="scale(1,-1)" cx="467.7" cy="-625.07" r=".19171"/><circle transform="scale(1,-1)" cx="473.99" cy="-625" r=".19171"/><circle transform="scale(1,-1)" cx="469.19" cy="-625.12" r=".19171"/><circle transform="scale(1,-1)" cx="472.16" cy="-624.87" r=".19171"/><circle transform="scale(1,-1)" cx="469.25" cy="-624.28" r=".19171"/><circle transform="scale(1,-1)" cx="470.21" cy="-625.1" r=".19171"/><circle transform="scale(1,-1)" cx="469.38" cy="-625.59" r=".19171"/><circle transform="scale(1,-1)" cx="469.68" cy="-625.45" r=".19171"/><circle transform="scale(1,-1)" cx="468.54" cy="-625.44" r=".19171"/><circle transform="scale(1,-1)" cx="471.03" cy="-626.01" r=".19171"/><circle transform="scale(1,-1)" cx="470.58" cy="-624.18" r=".19171"/><circle transform="scale(1,-1)" cx="467.84" cy="-626.36" r=".19171"/><circle transform="scale(1,-1)" cx="470.06" cy="-626.77" r=".19171"/><circle transform="scale(1,-1)" cx="467.45" cy="-624.7" r=".19171"/><circle transform="scale(1,-1)" cx="473.34" cy="-624.37" r=".19171"/><circle transform="scale(1,-1)" cx="468.05" cy="-624.83" r=".19171"/><circle transform="scale(1,-1)" cx="466.92" cy="-625.09" r=".19171"/><circle transform="scale(1,-1)" cx="468.44" cy="-625.17" r=".19171"/><circle transform="scale(1,-1)" cx="465.04" cy="-625.01" r=".19171"/><circle transform="scale(1,-1)" cx="470.31" cy="-627.43" r=".19171"/><circle transform="scale(1,-1)" cx="469.8" cy="-625.03" r=".19171"/><circle transform="scale(1,-1)" cx="467.84" cy="-623.17" r=".19171"/><circle transform="scale(1,-1)" cx="470.85" cy="-622.94" r=".19171"/><circle transform="scale(1,-1)" cx="469.36" cy="-622.5" r=".19171"/><circle transform="scale(1,-1)" cx="472.94" cy="-625.16" r=".19171"/><circle transform="scale(1,-1)" cx="474.16" cy="-625.77" r=".19171"/><circle transform="scale(1,-1)" cx="471.28" cy="-625.08" r=".19171"/><circle transform="scale(1,-1)" cx="466.05" cy="-626.08" r=".19171"/><circle transform="scale(1,-1)" cx="464.71" cy="-625.76" r=".19171"/><circle transform="scale(1,-1)" cx="467.16" cy="-626.88" r=".19171"/><circle transform="scale(1,-1)" cx="468.59" cy="-627.67" r=".19171"/><circle transform="scale(1,-1)" cx="472.62" cy="-626.54" r=".19171"/><circle transform="scale(1,-1)" cx="465.83" cy="-624.08" r=".19171"/><circle transform="scale(1,-1)" cx="475.15" cy="-625.22" r=".19171"/><circle transform="scale(1,-1)" cx="463.59" cy="-625.43" r=".19171"/><circle transform="scale(1,-1)" cx="472.64" cy="-623.77" r=".19171"/><circle transform="scale(1,-1)" cx="467.64" cy="-625.47" r=".19171"/><circle transform="scale(1,-1)" cx="470.8" cy="-625.74" r=".19171"/><circle transform="scale(1,-1)" cx="468.93" cy="-625.16" r=".19171"/><circle transform="scale(1,-1)" cx="468.73" cy="-625.2" r=".19171"/><circle transform="scale(1,-1)" cx="469.89" cy="-625.16" r=".19171"/><circle transform="scale(1,-1)" cx="472.86" cy="-626.13" r=".19171"/><circle transform="scale(1,-1)" cx="469.04" cy="-625.37" r=".19171"/><circle transform="scale(1,-1)" cx="469.17" cy="-625.76" r=".19171"/><circle transform="scale(1,-1)" cx="468.95" cy="-625.57" r=".19171"/><circle transform="scale(1,-1)" cx="468.83" cy="-625" r=".19171"/></g><path d="m480.58 619.04v12.212" fill-opacity=".62745" marker-end="url(#a)" stroke="#000" stroke-miterlimit="10.433" stroke-opacity=".62745" stroke-width=".085885"/><path d="m479.8 620h12.212" fill-opacity=".62745" marker-end="url(#b)" stroke="#000" stroke-miterlimit="10.433" stroke-opacity=".62745" stroke-width=".085885"/><g fill-rule="evenodd"><g fill-opacity=".62745" stroke-miterlimit="10.433" stroke-width="0"><path d="m457 619.55 4e-3 7e-3v4e-3l2e-3 4e-3 2e-3 5e-3 3e-3 5e-3 2e-3 6e-3 2e-3 5e-3 5e-3 0.0117 3e-3 5e-3 7e-3 0.0176 0.0134 0.0234 4e-3 5e-3 5e-3 6e-3 4e-3 5e-3 5e-3 5e-3 6e-3 5e-3 5e-3 5e-3 6e-3 4e-3 5e-3 4e-3 7e-3 4e-3 3e-3 2e-3 0.01 5e-3 3e-3 2e-3h4e-3l4e-3 2e-3h0.0117c6e-3 0 0.0343 0 0.0592-0.0154-0.0331-6e-3 -0.0569-0.0355-0.0569-0.0628 0-0.0189 0.0131-0.0414 0.045-0.0414 0.026 0 0.0639 0.0212 0.0639 0.0687 0 0.0604-0.0699 0.077-0.11013 0.077-0.0687 0-0.11014-0.0628-0.12435-0.0888-0.0297 0.077-0.0924 0.0888-0.12672 0.0888-0.12317 0-0.19066-0.15159-0.19066-0.1812 0-0.0118 0.0118-0.0118 0.0142-0.0118 9e-3 0 0.013 3e-3 0.0154 0.013 0.0402 0.12436 0.11841 0.15395 0.15867 0.15395 0.0225 0 0.0628-0.0106 0.0628-0.0781 0-0.0368-0.0189-0.11607-0.0628-0.28068-0.0189-0.0722-0.0605-0.12196-0.11249-0.12196-7e-3 0-0.0344 0-0.0592 0.0153 0.0296 6e-3 0.0557 0.0308 0.0557 0.0639 0 0.0308-0.026 0.0402-0.0438 0.0402-0.0355 0-0.0652-0.0308-0.0652-0.0675 0-0.0545 0.0592-0.0781 0.11132-0.0781 0.0781 0 0.12079 0.0829 0.12435 0.09 0.0131-0.0438 0.0557-0.09 0.12671-0.09 0.12198 0 0.18947 0.15158 0.18947 0.18119 0 0.0118-0.0106 0.0118-0.0142 0.0118-0.0107 0-0.0131-5e-3 -0.0154-0.013-0.0391-0.12552-0.11961-0.15395-0.15751-0.15395-0.0462 0-0.0652 0.0379-0.0652 0.077 0 0.026 7e-3 0.052 0.0201 0.10421z"/><path d="m457.56 619.54v0.0151h-2e-3v8e-3h-2e-3v4e-3h-2e-3v2e-3h-4e-3v2e-3h-4e-3l-2e-3 2e-3h-0.0217c-0.0533-0.0521-0.1279-0.0521-0.16225-0.0521v-0.0296c0.0201 0 0.0747 0 0.11961 0.0224v-0.41923c0-0.0273 0-0.0379-0.0829-0.0379h-0.0308v-0.0297c0.0142 0 0.11605 3e-3 0.14685 3e-3 0.026 0 0.13026-3e-3 0.14803-3e-3v0.0297h-0.0308c-0.0829 0-0.0829 0.0106-0.0829 0.0379z"/><path d="m444.91 631.12 2e-3 3e-3 2e-3 4e-3v5e-3l2e-3 4e-3 2e-3 5e-3 3e-3 5e-3 2e-3 5e-3 2e-3 6e-3 3e-3 6e-3 3e-3 5e-3 0.01 0.0234 0.0134 0.0234 4e-3 5e-3 5e-3 6e-3 4e-3 5e-3 5e-3 5e-3 6e-3 5e-3 5e-3 4e-3 6e-3 4e-3 5e-3 4e-3 4e-3 3e-3 4e-3 2e-3 3e-3 2e-3 0.01 5e-3h3e-3l4e-3 2e-3h4e-3l5e-3 2e-3h7e-3c6e-3 0 0.0344 0 0.0592-0.0154-0.0331-6e-3 -0.0569-0.0356-0.0569-0.0639 0-0.0178 0.013-0.0402 0.045-0.0402 0.026 0 0.0639 0.0212 0.0639 0.0676 0 0.0615-0.0699 0.0781-0.11013 0.0781-0.0687 0-0.11014-0.0628-0.12435-0.09-0.0296 0.0781-0.0924 0.09-0.12672 0.09-0.12316 0-0.19066-0.15159-0.19066-0.18119 0-0.0118 0.0118-0.0118 0.0142-0.0118 9e-3 0 0.013 3e-3 0.0154 0.0131 0.0402 0.12434 0.11841 0.15394 0.15868 0.15394 0.0225 0 0.0628-0.0107 0.0628-0.0793 0-0.0355-0.0189-0.11488-0.0628-0.27949-0.0189-0.0735-0.0605-0.12199-0.1125-0.12199-7e-3 0-0.0343 0-0.0592 0.0142 0.0296 7e-3 0.0557 0.0308 0.0557 0.0639 0 0.032-0.026 0.0415-0.0438 0.0415-0.0355 0-0.0652-0.0308-0.0652-0.0687 0-0.0533 0.0592-0.077 0.11132-0.077 0.0781 0 0.12079 0.0818 0.12434 0.0888 0.013-0.0427 0.0557-0.0888 0.12672-0.0888 0.12197 0 0.18947 0.15157 0.18947 0.18119 0 0.0118-0.0106 0.0118-0.0142 0.0118-0.0107 0-0.013-5e-3 -0.0153-0.0131-0.0391-0.12554-0.11961-0.15395-0.15751-0.15395-0.0462 0-0.0652 0.0367-0.0652 0.077 0 0.026 7e-3 0.0521 0.0201 0.10422z" stroke="#000" stroke-opacity=".62745"/><path d="m445.6 630.74h-0.0285c-3e-3 -0.019-0.0107-0.0663-0.0212-0.0747-7e-3 -6e-3 -0.071-6e-3 -0.0829-6e-3h-0.15159c0.0865 0.077 0.11607 0.0995 0.1658 0.13855 0.0616 0.0487 0.11843 0.0995 0.11843 0.17765 0 0.10065-0.0876 0.16106-0.19422 0.16106-0.10304 0-0.17171-0.071-0.17171-0.14805 0-0.0415 0.0355-0.045 0.0438-0.045 0.019 0 0.0438 0.013 0.0438 0.0427 0 0.0154-6e-3 0.0438-0.0486 0.0438 0.0248 0.0592 0.0818 0.077 0.12079 0.077 0.0829 0 0.12553-0.0639 0.12553-0.13145 0-0.071-0.052-0.1279-0.0781-0.15752l-0.19895-0.19658c-8e-3 -7e-3 -8e-3 -8e-3 -8e-3 -0.032h0.34106z" stroke="#000" stroke-opacity=".62745"/></g><g fill="#f00" fill-opacity=".45882" stroke="none"><circle transform="matrix(.85057 .52586 .52586 -.85057 0 0)" cx="742.03" cy="-274.77" r=".19171"/><circle transform="matrix(.85057 .52586 .52586 -.85057 0 0)" cx="742.68" cy="-275.38" r=".19171"/><circle transform="matrix(.85057 .52586 .52586 -.85057 0 0)" cx="743.27" cy="-275.86" r=".19171"/><circle transform="matrix(.85057 .52586 .52586 -.85057 0 0)" cx="743.54" cy="-274.5" r=".19171"/><circle transform="matrix(.85057 .52586 .52586 -.85057 0 0)" cx="742.31" cy="-276.51" r=".19171"/><circle transform="matrix(.85057 .52586 .52586 -.85057 0 0)" cx="742.81" cy="-275.76" r=".19171"/><circle transform="matrix(.85057 .52586 .52586 -.85057 0 0)" cx="742.75" cy="-275.44" r=".19171"/><circle transform="matrix(.85057 .52586 .52586 -.85057 0 0)" cx="743.77" cy="-276.59" r=".19171"/><circle transform="matrix(.85057 .52586 .52586 -.85057 0 0)" cx="744.04" cy="-275.21" r=".19171"/><circle transform="matrix(.85057 .52586 .52586 -.85057 0 0)" cx="744.56" cy="-274.17" r=".19171"/><circle transform="matrix(.85057 .52586 .52586 -.85057 0 0)" cx="742.72" cy="-275.86" r=".19171"/><circle transform="matrix(.85057 .52586 .52586 -.85057 0 0)" cx="742.64" cy="-274.19" r=".19171"/><circle transform="matrix(.85057 .52586 .52586 -.85057 0 0)" cx="743.29" cy="-276.82" r=".19171"/><circle transform="matrix(.85057 .52586 .52586 -.85057 0 0)" cx="741.6" cy="-275.67" r=".19171"/><circle transform="matrix(.85057 .52586 .52586 -.85057 0 0)" cx="741.31" cy="-274.43" r=".19171"/><circle transform="matrix(.85057 .52586 .52586 -.85057 0 0)" cx="742.8" cy="-275.62" r=".19171"/><circle transform="matrix(.85057 .52586 .52586 -.85057 0 0)" cx="745.11" cy="-275.75" r=".19171"/><circle transform="matrix(.85057 .52586 .52586 -.85057 0 0)" cx="742.66" cy="-276.72" r=".19171"/><circle transform="matrix(.85057 .52586 .52586 -.85057 0 0)" cx="741.51" cy="-276.67" r=".19171"/><circle transform="matrix(.85057 .52586 .52586 -.85057 0 0)" cx="740.66" cy="-275.05" r=".19171"/><circle transform="matrix(.85057 .52586 .52586 -.85057 0 0)" cx="740.8" cy="-275.46" r=".19171"/><circle transform="matrix(.85057 .52586 .52586 -.85057 0 0)" cx="744.38" cy="-275.8" r=".19171"/><circle transform="matrix(.85057 .52586 .52586 -.85057 0 0)" cx="743.06" cy="-276.45" r=".19171"/><circle transform="matrix(.85057 .52586 .52586 -.85057 0 0)" cx="743.1" cy="-275.21" r=".19171"/><circle transform="matrix(.85057 .52586 .52586 -.85057 0 0)" cx="742.49" cy="-275" r=".19171"/><circle transform="matrix(.85057 .52586 .52586 -.85057 0 0)" cx="744.08" cy="-277.1" r=".19171"/><circle transform="matrix(.85057 .52586 .52586 -.85057 0 0)" cx="745.11" cy="-276.78" r=".19171"/><circle transform="matrix(.85057 .52586 .52586 -.85057 0 0)" cx="743.5" cy="-275.36" r=".19171"/><circle transform="matrix(.85057 .52586 .52586 -.85057 0 0)" cx="743.04" cy="-275.3" r=".19171"/><circle transform="matrix(.85057 .52586 .52586 -.85057 0 0)" cx="743.54" cy="-276.01" r=".19171"/><circle transform="matrix(.85057 .52586 .52586 -.85057 0 0)" cx="744.06" cy="-274.98" r=".19171"/><circle transform="matrix(.85057 .52586 .52586 -.85057 0 0)" cx="742.6" cy="-276.01" r=".19171"/><circle transform="matrix(.85057 .52586 .52586 -.85057 0 0)" cx="743" cy="-276.17" r=".19171"/><circle transform="matrix(.85057 .52586 .52586 -.85057 0 0)" cx="742.43" cy="-274.63" r=".19171"/><circle transform="matrix(.85057 .52586 .52586 -.85057 0 0)" cx="742.93" cy="-275.34" r=".19171"/><circle transform="matrix(.85057 .52586 .52586 -.85057 0 0)" cx="743.44" cy="-274.31" r=".19171"/><circle transform="matrix(.85057 .52586 .52586 -.85057 0 0)" cx="741.99" cy="-275.34" r=".19171"/><circle transform="matrix(.85057 .52586 .52586 -.85057 0 0)" cx="742.39" cy="-275.5" r=".19171"/><circle transform="matrix(-.31663 .94855 .94855 .31663 0 0)" cx="438.82" cy="660.45" r=".19171"/><circle transform="matrix(-.31663 .94855 .94855 .31663 0 0)" cx="439.09" cy="660.33" r=".19171"/><circle transform="matrix(-.31663 .94855 .94855 .31663 0 0)" cx="439.61" cy="661.36" r=".19171"/><circle transform="matrix(-.31663 .94855 .94855 .31663 0 0)" cx="438.15" cy="660.32" r=".19171"/><circle transform="matrix(-.31663 .94855 .94855 .31663 0 0)" cx="438.55" cy="660.17" r=".19171"/><circle transform="matrix(.85057 .52586 .52586 -.85057 0 0)" cx="744.98" cy="-274.58" r=".19171"/><circle transform="matrix(.85057 .52586 .52586 -.85057 0 0)" cx="744.98" cy="-275.61" r=".19171"/><circle transform="matrix(-.31663 .94855 .94855 .31663 0 0)" cx="438.44" cy="661.5" r=".19171"/><circle transform="matrix(.85057 .52586 .52586 -.85057 0 0)" cx="741.13" cy="-275.72" r=".19171"/><circle transform="matrix(.85057 .52586 .52586 -.85057 0 0)" cx="741.13" cy="-276.75" r=".19171"/><circle transform="matrix(-.31663 .94855 .94855 .31663 0 0)" cx="438.67" cy="657.49" r=".19171"/><circle transform="matrix(.85057 .52586 .52586 -.85057 0 0)" cx="742.31" cy="-275.98" r=".19171"/><circle transform="matrix(.85057 .52586 .52586 -.85057 0 0)" cx="743.83" cy="-275.71" r=".19171"/><circle transform="matrix(.85057 .52586 .52586 -.85057 0 0)" cx="742.93" cy="-275.4" r=".19171"/><circle transform="matrix(.85057 .52586 .52586 -.85057 0 0)" cx="741.72" cy="-275.28" r=".19171"/><circle transform="matrix(.85057 .52586 .52586 -.85057 0 0)" cx="744.09" cy="-275.68" r=".19171"/><circle transform="matrix(.85057 .52586 .52586 -.85057 0 0)" cx="743.1" cy="-274.56" r=".19171"/><circle transform="matrix(.85057 .52586 .52586 -.85057 0 0)" cx="742.72" cy="-275.84" r=".19171"/><circle transform="matrix(.85057 .52586 .52586 -.85057 0 0)" cx="743.73" cy="-275.52" r=".19171"/><circle transform="matrix(.85057 .52586 .52586 -.85057 0 0)" cx="741.51" cy="-275.42" r=".19171"/><ellipse transform="matrix(.85057 .52586 .52586 -.85057 0 0)" cx="743.18" cy="-275.65" rx=".19171" ry=".17254"/><circle transform="matrix(.85057 .52586 .52586 -.85057 0 0)" cx="742.12" cy="-274.84" r=".19171"/><circle transform="matrix(.85057 .52586 .52586 -.85057 0 0)" cx="740.91" cy="-274.73" r=".19171"/><circle transform="matrix(.85057 .52586 .52586 -.85057 0 0)" cx="743.15" cy="-273.72" r=".19171"/><circle transform="matrix(.85057 .52586 .52586 -.85057 0 0)" cx="741.21" cy="-275.46" r=".19171"/><circle transform="matrix(.85057 .52586 .52586 -.85057 0 0)" cx="741.91" cy="-275.28" r=".19171"/><circle transform="matrix(.85057 .52586 .52586 -.85057 0 0)" cx="742.93" cy="-274.96" r=".19171"/><circle transform="matrix(.85057 .52586 .52586 -.85057 0 0)" cx="743.1" cy="-276.82" r=".19171"/><circle transform="matrix(.85057 .52586 .52586 -.85057 0 0)" cx="745.04" cy="-276.24" r=".19171"/><circle transform="matrix(.85057 .52586 .52586 -.85057 0 0)" cx="742.83" cy="-277.53" r=".19171"/><circle transform="matrix(.85057 .52586 .52586 -.85057 0 0)" cx="739.07" cy="-275.84" r=".19171"/><circle transform="matrix(.85057 .52586 .52586 -.85057 0 0)" cx="744.65" cy="-277.24" r=".19171"/><circle transform="matrix(.85057 .52586 .52586 -.85057 0 0)" cx="743.81" cy="-276.95" r=".19171"/><circle transform="matrix(.85057 .52586 .52586 -.85057 0 0)" cx="742.58" cy="-276.91" r=".19171"/><circle transform="matrix(.85057 .52586 .52586 -.85057 0 0)" cx="743.33" cy="-276.07" r=".19171"/><circle transform="matrix(.85057 .52586 .52586 -.85057 0 0)" cx="742.91" cy="-275.76" r=".19171"/><circle transform="matrix(.85057 .52586 .52586 -.85057 0 0)" cx="742.03" cy="-277.16" r=".19171"/><circle transform="matrix(.85057 .52586 .52586 -.85057 0 0)" cx="742.27" cy="-275.8" r=".19171"/><circle transform="matrix(.85057 .52586 .52586 -.85057 0 0)" cx="743.79" cy="-276.3" r=".19171"/><circle transform="matrix(.85057 .52586 .52586 -.85057 0 0)" cx="741.64" cy="-276.26" r=".19171"/><circle transform="matrix(.85057 .52586 .52586 -.85057 0 0)" cx="740.82" cy="-276.67" r=".19171"/><circle transform="matrix(.85057 .52586 .52586 -.85057 0 0)" cx="743.89" cy="-274.29" r=".19171"/><circle transform="matrix(.85057 .52586 .52586 -.85057 0 0)" cx="740.5" cy="-274.52" r=".19171"/><circle transform="matrix(.85057 .52586 .52586 -.85057 0 0)" cx="746.17" cy="-275.14" r=".19171"/><circle transform="matrix(.85057 .52586 .52586 -.85057 0 0)" cx="740.4" cy="-276.63" r=".19171"/><circle transform="matrix(.85057 .52586 .52586 -.85057 0 0)" cx="739.63" cy="-275.55" r=".19171"/><circle transform="matrix(.85057 .52586 .52586 -.85057 0 0)" cx="746.07" cy="-276.21" r=".19171"/><circle transform="matrix(.85057 .52586 .52586 -.85057 0 0)" cx="746.73" cy="-276" r=".19171"/><circle transform="matrix(.85057 .52586 .52586 -.85057 0 0)" cx="745.48" cy="-274.89" r=".19171"/><circle transform="matrix(.85057 .52586 .52586 -.85057 0 0)" cx="745.76" cy="-275.82" r=".19171"/><circle transform="matrix(.85057 .52586 .52586 -.85057 0 0)" cx="739.76" cy="-275.99" r=".19171"/><circle transform="matrix(.85057 .52586 .52586 -.85057 0 0)" cx="740.17" cy="-275.15" r=".19171"/><circle transform="matrix(.85057 .52586 .52586 -.85057 0 0)" cx="747.08" cy="-276.16" r=".19171"/><circle transform="matrix(.85057 .52586 .52586 -.85057 0 0)" cx="745.04" cy="-275" r=".19171"/><circle transform="matrix(.85057 .52586 .52586 -.85057 0 0)" cx="741.83" cy="-277.14" r=".19171"/><circle transform="matrix(.85057 .52586 .52586 -.85057 0 0)" cx="741.35" cy="-276.09" r=".19171"/><circle transform="matrix(.85057 .52586 .52586 -.85057 0 0)" cx="742.54" cy="-276.7" r=".19171"/><circle transform="matrix(.85057 .52586 .52586 -.85057 0 0)" cx="744.15" cy="-276.07" r=".19171"/><circle transform="matrix(.85057 .52586 .52586 -.85057 0 0)" cx="743.56" cy="-274.9" r=".19171"/><circle transform="matrix(.85057 .52586 .52586 -.85057 0 0)" cx="742.22" cy="-275.17" r=".19171"/><circle transform="matrix(.85057 .52586 .52586 -.85057 0 0)" cx="741.97" cy="-275.51" r=".19171"/><circle transform="matrix(.85057 .52586 .52586 -.85057 0 0)" cx="742.75" cy="-274.59" r=".19171"/><circle transform="matrix(.85057 .52586 .52586 -.85057 0 0)" cx="742.81" cy="-275.15" r=".19171"/><circle transform="matrix(.85057 .52586 .52586 -.85057 0 0)" cx="741.54" cy="-275.86" r=".19171"/><circle transform="matrix(.85057 .52586 .52586 -.85057 0 0)" cx="738.86" cy="-275.06" r=".19171"/><circle transform="matrix(.85057 .52586 .52586 -.85057 0 0)" cx="741.68" cy="-274.61" r=".19171"/><circle transform="matrix(.85057 .52586 .52586 -.85057 0 0)" cx="743.41" cy="-276.34" r=".19171"/><circle transform="matrix(.85057 .52586 .52586 -.85057 0 0)" cx="739.42" cy="-275.52" r=".19171"/><circle transform="matrix(.85057 .52586 .52586 -.85057 0 0)" cx="743.71" cy="-275.11" r=".19171"/><circle transform="matrix(.85057 .52586 .52586 -.85057 0 0)" cx="743.81" cy="-275.9" r=".19171"/><circle transform="matrix(.85057 .52586 .52586 -.85057 0 0)" cx="744.38" cy="-275.32" r=".19171"/><circle transform="matrix(.85057 .52586 .52586 -.85057 0 0)" cx="741.47" cy="-274.98" r=".19171"/><circle transform="matrix(.85057 .52586 .52586 -.85057 0 0)" cx="742.04" cy="-274.42" r=".19171"/><circle transform="matrix(.85057 .52586 .52586 -.85057 0 0)" cx="742.39" cy="-275.3" r=".19171"/><circle transform="matrix(.85057 .52586 .52586 -.85057 0 0)" cx="742.01" cy="-276.38" r=".19171"/><circle transform="matrix(.85057 .52586 .52586 -.85057 0 0)" cx="741.09" cy="-275.63" r=".19171"/><circle transform="matrix(.85057 .52586 .52586 -.85057 0 0)" cx="747.38" cy="-275.56" r=".19171"/><circle transform="matrix(.85057 .52586 .52586 -.85057 0 0)" cx="742.58" cy="-275.69" r=".19171"/><circle transform="matrix(.85057 .52586 .52586 -.85057 0 0)" cx="745.54" cy="-275.44" r=".19171"/><circle transform="matrix(.85057 .52586 .52586 -.85057 0 0)" cx="742.64" cy="-274.84" r=".19171"/><circle transform="matrix(.85057 .52586 .52586 -.85057 0 0)" cx="743.6" cy="-275.66" r=".19171"/><circle transform="matrix(.85057 .52586 .52586 -.85057 0 0)" cx="742.76" cy="-276.16" r=".19171"/><circle transform="matrix(.85057 .52586 .52586 -.85057 0 0)" cx="743.07" cy="-276.01" r=".19171"/><circle transform="matrix(.85057 .52586 .52586 -.85057 0 0)" cx="741.93" cy="-276" r=".19171"/><circle transform="matrix(.85057 .52586 .52586 -.85057 0 0)" cx="744.42" cy="-276.57" r=".19171"/><circle transform="matrix(.85057 .52586 .52586 -.85057 0 0)" cx="743.97" cy="-274.75" r=".19171"/><circle transform="matrix(.85057 .52586 .52586 -.85057 0 0)" cx="741.23" cy="-276.92" r=".19171"/><circle transform="matrix(.85057 .52586 .52586 -.85057 0 0)" cx="743.45" cy="-277.33" r=".19171"/><circle transform="matrix(.85057 .52586 .52586 -.85057 0 0)" cx="740.84" cy="-275.26" r=".19171"/><circle transform="matrix(.85057 .52586 .52586 -.85057 0 0)" cx="745.6" cy="-275.99" r=".19171"/><circle transform="matrix(.85057 .52586 .52586 -.85057 0 0)" cx="741.44" cy="-275.39" r=".19171"/><circle transform="matrix(.85057 .52586 .52586 -.85057 0 0)" cx="740.31" cy="-275.66" r=".19171"/><circle transform="matrix(.85057 .52586 .52586 -.85057 0 0)" cx="741.82" cy="-275.73" r=".19171"/><circle transform="matrix(.85057 .52586 .52586 -.85057 0 0)" cx="738.43" cy="-275.57" r=".19171"/><circle transform="matrix(.85057 .52586 .52586 -.85057 0 0)" cx="743.69" cy="-277.99" r=".19171"/><circle transform="matrix(.85057 .52586 .52586 -.85057 0 0)" cx="743.19" cy="-275.6" r=".19171"/><circle transform="matrix(.85057 .52586 .52586 -.85057 0 0)" cx="743.86" cy="-276.03" r=".19171"/><circle transform="matrix(.85057 .52586 .52586 -.85057 0 0)" cx="744.52" cy="-274.55" r=".19171"/><circle transform="matrix(.85057 .52586 .52586 -.85057 0 0)" cx="745.69" cy="-276.39" r=".19171"/><circle transform="matrix(.85057 .52586 .52586 -.85057 0 0)" cx="746.32" cy="-275.72" r=".19171"/><circle transform="matrix(.85057 .52586 .52586 -.85057 0 0)" cx="747.54" cy="-276.33" r=".19171"/><circle transform="matrix(.85057 .52586 .52586 -.85057 0 0)" cx="744.67" cy="-275.64" r=".19171"/><circle transform="matrix(.85057 .52586 .52586 -.85057 0 0)" cx="739.44" cy="-276.65" r=".19171"/><circle transform="matrix(.85057 .52586 .52586 -.85057 0 0)" cx="738.1" cy="-276.32" r=".19171"/><circle transform="matrix(.85057 .52586 .52586 -.85057 0 0)" cx="740.55" cy="-277.45" r=".19171"/><circle transform="matrix(.85057 .52586 .52586 -.85057 0 0)" cx="741.97" cy="-278.23" r=".19171"/><circle transform="matrix(.85057 .52586 .52586 -.85057 0 0)" cx="746.01" cy="-277.11" r=".19171"/><circle transform="matrix(.85057 .52586 .52586 -.85057 0 0)" cx="739.22" cy="-274.64" r=".19171"/><circle transform="matrix(.85057 .52586 .52586 -.85057 0 0)" cx="748.6" cy="-276.07" r=".19171"/><circle transform="matrix(.85057 .52586 .52586 -.85057 0 0)" cx="736.98" cy="-276" r=".19171"/><circle transform="matrix(.85057 .52586 .52586 -.85057 0 0)" cx="746.66" cy="-275.41" r=".19171"/><circle transform="matrix(.85057 .52586 .52586 -.85057 0 0)" cx="741.02" cy="-276.04" r=".19171"/><circle transform="matrix(.85057 .52586 .52586 -.85057 0 0)" cx="744.19" cy="-276.3" r=".19171"/><circle transform="matrix(.85057 .52586 .52586 -.85057 0 0)" cx="742.32" cy="-275.73" r=".19171"/><circle transform="matrix(.85057 .52586 .52586 -.85057 0 0)" cx="742.12" cy="-275.77" r=".19171"/><circle transform="matrix(.85057 .52586 .52586 -.85057 0 0)" cx="743.28" cy="-275.73" r=".19171"/><circle transform="matrix(.85057 .52586 .52586 -.85057 0 0)" cx="746.25" cy="-276.7" r=".19171"/><circle transform="matrix(.85057 .52586 .52586 -.85057 0 0)" cx="742.43" cy="-275.93" r=".19171"/><circle transform="matrix(.85057 .52586 .52586 -.85057 0 0)" cx="742.56" cy="-276.33" r=".19171"/><circle transform="matrix(.85057 .52586 .52586 -.85057 0 0)" cx="742.34" cy="-276.14" r=".19171"/><circle transform="matrix(.85057 .52586 .52586 -.85057 0 0)" cx="742.22" cy="-275.57" r=".19171"/><circle transform="matrix(.85057 .52586 .52586 -.85057 0 0)" cx="737.11" cy="-275.07" r=".19171"/><circle transform="matrix(.85057 .52586 .52586 -.85057 0 0)" cx="747.09" cy="-276.45" r=".19171"/><circle transform="matrix(.85057 .52586 .52586 -.85057 0 0)" cx="740.17" cy="-275.68" r=".19171"/></g><g transform="matrix(1.5 0 0 -1.5 -349.38 1204.8)" stroke="#000" stroke-miterlimit="10.433" stroke-width="0" ns0:preamble="default_packages.tex" ns0:text="$$\\Sigma$$\n" xml:space="preserve"><path d="m531.96 392.45v7.9e-4h7.9e-4v7.9e-4h7.9e-4v8.1e-4h8.1e-4v7.9e-4l7.9e-4 8e-4v7.9e-4h8e-4v8e-4l7.9e-4 7.9e-4v8e-4h8e-4v2e-3h7.9e-4v3e-3l8e-4 8e-4c0 5e-3 -3e-3 9e-3 -6e-3 0.0126l-0.18551 0.26606h0.20904c0.15203 0 0.19728-0.0326 0.21629-0.17465h0.0226l-0.0254 0.20271h-0.50136c-0.0217 0-0.0235 0-0.0235-0.0208l0.22534-0.32579-0.21538-0.24344c-9e-3 -0.0103-9e-3 -0.0118-9e-3 -0.0145 0-0.0103 9e-3 -0.0103 0.0227-0.0103h0.50136l0.0254 0.21176h-0.0227c-0.0163-0.15022-0.0778-0.17375-0.21991-0.17375h-0.24886z"/><g fill-rule="evenodd" stroke-miterlimit="10.433"><path d="m544.02 392.39v7.9e-4h8e-4v8e-4h7.9e-4v7.9e-4h8e-4v8.1e-4l7.9e-4 7.9e-4v7.9e-4h8e-4v8e-4l7.9e-4 7.9e-4v8e-4h8e-4v2e-3h7.9e-4v3e-3l8.1e-4 7.9e-4c0 5e-3 -3e-3 9e-3 -6e-3 0.0126l-0.18552 0.26606h0.20905c0.15203 0 0.19727-0.0326 0.21629-0.17466h0.0226l-0.0254 0.20271h-0.50134c-0.0218 0-0.0235 0-0.0235-0.0208l0.22534-0.32579-0.21538-0.24343c-9e-3 -0.0103-9e-3 -0.0118-9e-3 -0.0145 0-0.0103 9e-3 -0.0103 0.0227-0.0103h0.50135l0.0254 0.21175h-0.0227c-0.0163-0.15022-0.0778-0.17375-0.21991-0.17375h-0.24886z"/><path d="m554.33 392.41v7.9e-4h7.9e-4v8e-4h7.9e-4v7.9e-4h8e-4v8e-4l7.9e-4 7.9e-4v8e-4h8e-4v7.9e-4l7.9e-4 7.9e-4v8.1e-4h8.1e-4v2e-3h7.9e-4v3e-3l8e-4 7.9e-4c0 5e-3 -3e-3 9e-3 -6e-3 0.0126l-0.18552 0.26606h0.20905c0.15203 0 0.19727-0.0326 0.21629-0.17466h0.0226l-0.0254 0.20271h-0.50136c-0.0218 0-0.0235 0-0.0235-0.0208l0.22534-0.32579-0.21538-0.24342c-9e-3 -0.0103-9e-3 -0.0118-9e-3 -0.0145 0-0.0103 9e-3 -0.0103 0.0227-0.0103h0.50135l0.0254 0.21176h-0.0227c-0.0163-0.15023-0.0778-0.17376-0.2199-0.17376h-0.24887z"/><g transform="matrix(1.5 0 0 -1.5 -348.97 1191.1)" stroke="#000" ns0:preamble="default_packages.tex" ns0:text="$$0$$\n$$\\sigma^2$$\n" xml:space="preserve"><path d="m589.45 532.74v0.0112l-4.8e-4 5e-3v5e-3l-9.8e-4 0.01-5.9e-4 5e-3 -6.1e-4 5e-3 -5.9e-4 5e-3 -2e-3 0.0112-3e-3 0.0111-5e-3 0.0112-2e-3 6e-3c-0.0192 0.0401-0.0532 0.0469-0.0708 0.0469-0.0252 0-0.0557-0.011-0.0729-0.0499-0.0134-0.0284-0.0155-0.0612-0.0155-0.0942 0-0.0314 2e-3 -0.0687 0.0189-0.1001 0.0181-0.034 0.0486-0.0423 0.0692-0.0423v9e-3c-0.0163 0-0.0411 0.0105-0.0486 0.0503-5e-3 0.0253-5e-3 0.0633-5e-3 0.088 0 0.0265 0 0.054 3e-3 0.0767 8e-3 0.0495 0.0393 0.0532 0.0499 0.0532 0.0139 0 0.0411-8e-3 0.049-0.0486 4e-3 -0.0235 4e-3 -0.0552 4e-3 -0.0813 0-0.0314 0-0.0595-5e-3 -0.0863-5e-3 -0.0393-0.0298-0.052-0.0486-0.052v-9e-3c0.0222 0 0.0541 9e-3 0.0725 0.0481 0.0133 0.0289 0.0155 0.0612 0.0155 0.0942z"/><path d="m588.78 532.76h3e-3l6.1e-4 5e-4h2e-3l6.1e-4 5e-4h8e-4l5.9e-4 4.9e-4 5.9e-4 4.8e-4h6.1e-4l5.9e-4 4.9e-4 6e-4 4.9e-4 5.9e-4 4.8e-4 6e-4 4.9e-4 5e-4 6e-4 6e-4 4.8e-4 4.8e-4 5.1e-4 5e-4 4.8e-4v4.9e-4h4.8e-4l4.9e-4 4.8e-4v5e-4l4.8e-4 4.9e-4v4.9e-4l5e-4 4.8e-4v6e-4l4.9e-4 4.9e-4v4.8e-4l4.9e-4 5e-4v2e-3l4.8e-4 4.8e-4v2e-3c0 0.0103-9e-3 0.0103-0.0164 0.0103h-0.0951c-0.0633 0-0.10978-0.0687-0.10978-0.11816 0-0.0369 0.0247-0.0657 0.0628-0.0657l4.9e-4 9e-3c-0.0205 0-0.0373 0.0147-0.0373 0.0448 0 0.0125 5e-3 0.0465 0.0197 0.0712 0.0175 0.0284 0.0427 0.0344 0.057 0.0344 0.0347 0 0.0382-0.0273 0.0382-0.0402 0-0.0197-8e-3 -0.0537-0.0222-0.0749-0.0164-0.0248-0.039-0.0352-0.0553-0.0352l-4.9e-4 -9e-3c0.0495 0 0.10475 0.0502 0.10475 0.11439 0 6e-3 0 0.0273-0.0129 0.0453z"/><path d="m588.96 532.83h-0.0103c-5.9e-4 -6e-3 -3e-3 -0.0239-8e-3 -0.0268-2e-3 -2e-3 -0.0247-2e-3 -0.0288-2e-3h-0.0536c0.0306 0.0272 0.0411 0.0352 0.0587 0.049 0.0214 0.0172 0.0418 0.0352 0.0418 0.0628 0 0.0352-0.0314 0.057-0.0687 0.057-0.0365 0-0.0612-0.0256-0.0612-0.0524 0-0.0147 0.0125-0.0164 0.0159-0.0164 6e-3 0 0.0155 5e-3 0.0155 0.0155 0 5e-3 -2e-3 0.0155-0.0176 0.0155 9e-3 0.0209 0.0294 0.0272 0.0427 0.0272 0.0294 0 0.0449-0.0227 0.0449-0.0465 0-0.0253-0.0185-0.0453-0.0276-0.0557l-0.0708-0.0696c-3e-3 -2e-3 -3e-3 -3e-3 -3e-3 -0.0113h0.12067z"/><g fill-rule="evenodd" stroke-miterlimit="10.433"><path d="m589.46 532.11h3e-3l6e-4 4.9e-4h2e-3l6e-4 4.9e-4h2e-3l6e-4 4.8e-4 6e-4 4.9e-4h5.8e-4l6.1e-4 5e-4 5.9e-4 4.8e-4 6e-4 4.9e-4 5.9e-4 4.8e-4 5e-4 6.1e-4 5.9e-4 4.8e-4 8e-4 8e-4v4.9e-4h4.9e-4l4.8e-4 5e-4v4.8e-4l4.8e-4 4.8e-4v4.9e-4l5e-4 4.9e-4v6.1e-4l5e-4 4.9e-4v4.7e-4l4.8e-4 4.9e-4v2e-3l4.8e-4 4.8e-4v2e-3c0 0.0103-9e-3 0.0103-0.0163 0.0103h-0.0952c-0.0632 0-0.10978-0.0687-0.10978-0.11817 0-0.037 0.0247-0.0658 0.0628-0.0658l4.8e-4 9e-3c-0.0205 0-0.0373 0.0147-0.0373 0.0449 0 0.0125 5e-3 0.0465 0.0197 0.0713 0.0175 0.0284 0.0427 0.0344 0.057 0.0344 0.0348 0 0.0382-0.0272 0.0382-0.0401 0-0.0197-8e-3 -0.0537-0.0222-0.075-0.0163-0.0247-0.0389-0.0352-0.0553-0.0352l-5e-4 -9e-3c0.0495 0 0.10476 0.0503 0.10476 0.11439 0 6e-3 0 0.0272-0.0129 0.0453z"/><path d="m589.64 532.19h-0.0103c-6e-4 -6e-3 -3e-3 -0.0239-8e-3 -0.0268-2e-3 -2e-3 -0.0247-2e-3 -0.0288-2e-3h-0.0536c0.0306 0.0272 0.0411 0.0352 0.0587 0.049 0.0213 0.0172 0.0419 0.0352 0.0419 0.0628 0 0.0352-0.0314 0.057-0.0687 0.057-0.0365 0-0.0612-0.0256-0.0612-0.0525 0-0.0146 0.0125-0.0163 0.0159-0.0163 6e-3 0 0.0155 5e-3 0.0155 0.0155 0 5e-3 -2e-3 0.0155-0.0176 0.0155 9e-3 0.021 0.0294 0.0272 0.0427 0.0272 0.0294 0 0.0448-0.0227 0.0448-0.0465 0-0.0253-0.0185-0.0453-0.0277-0.0557l-0.0708-0.0696c-3e-3 -2e-3 -3e-3 -3e-3 -3e-3 -0.0113h0.12069z"/><path d="m588.79 532.09v0.0111l-4.8e-4 5e-3v5e-3l-4.8e-4 5e-3 -5e-4 5e-3 -2e-3 0.0167-2e-3 0.0111-3e-3 0.0112-5e-3 0.0111-2e-3 6e-3c-0.0192 0.0401-0.0533 0.0469-0.0708 0.0469-0.0253 0-0.0557-0.011-0.0729-0.0499-0.0133-0.0284-0.0155-0.0612-0.0155-0.0942 0-0.0314 2e-3 -0.0687 0.0188-0.10009 0.0181-0.034 0.0486-0.0423 0.0692-0.0423v9e-3c-0.0163 0-0.0411 0.0104-0.0486 0.0502-5e-3 0.0253-5e-3 0.0633-5e-3 0.088 0 0.0265 0 0.054 3e-3 0.0767 8e-3 0.0495 0.0393 0.0533 0.0499 0.0533 0.0139 0 0.0411-8e-3 0.0491-0.0487 4e-3 -0.0234 4e-3 -0.0552 4e-3 -0.0813 0-0.0314 0-0.0595-5e-3 -0.0863-5e-3 -0.0394-0.0298-0.0521-0.0486-0.0521v-9e-3c0.0222 0 0.0541 9e-3 0.0726 0.0481 0.0134 0.0289 0.0155 0.0612 0.0155 0.0942z"/><g transform="matrix(1.5 0 0 -1.5 -349.07 1203.4)" stroke="#000" ns0:preamble="default_packages.tex" ns0:text="$$=()$$\n" xml:space="preserve"><path d="m624.76 447.33h5e-3l2.9e-4 2.9e-4h2e-3l2.9e-4 2.9e-4h7.3e-4l2.9e-4 2.8e-4h2.9e-4l5.8e-4 5.9e-4h2.9e-4l2.9e-4 3e-4 3e-4 2.7e-4 2.8e-4 3e-4v2.9e-4h2.9e-4v3e-4l2.9e-4 2.8e-4v7.9e-4l3e-4 2.9e-4v2e-3c0 7e-3 -6e-3 7e-3 -0.0114 7e-3h-0.20567c-5e-3 0-0.0114 0-0.0114-7e-3s6e-3 -7e-3 0.0117-7e-3z"/><path d="m624.76 447.27h3e-3l7.3e-4 2.9e-4h2e-3l3e-4 3e-4h7.2e-4l3e-4 2.8e-4h2.9e-4l2.9e-4 2.9e-4h2.8e-4l3e-4 2.9e-4 2.9e-4 3e-4 2.9e-4 2.8e-4h2.8e-4l3e-4 2.9e-4v2.9e-4l3e-4 3e-4v2.8e-4h2.8e-4v7.9e-4l2.9e-4 2.9e-4v2e-3c0 7e-3 -6e-3 7e-3 -0.0117 7e-3h-0.20498c-5e-3 0-0.0117 0-0.0117-7e-3s6e-3 -7e-3 0.0114-7e-3z"/><path d="m625.93 447.32v5e-3l-2.9e-4 5e-3v9e-3l-2.8e-4 0.0115-3e-4 0.0131-7.2e-4 0.0131-7.4e-4 0.0131-7.2e-4 0.0131-5e-3 0.0442-5e-3 0.0295-2e-3 0.0164-2e-3 0.0147-2e-3 8e-3 -2e-3 6e-3 -2e-3 8e-3 -2e-3 6e-3c-0.0206 0.0867-0.0503 0.13263-0.0538 0.13263-2e-3 0-3e-3 -3e-3 -3e-3 -6e-3 0-2e-3 0-3e-3 6e-3 -0.0163 0.0338-0.0696 0.0535-0.18159 0.0535-0.32909 0-0.11984-0.0127-0.24399-0.0554-0.33264-5e-3 -8e-3 -5e-3 -0.0103-5e-3 -0.0115 0-5e-3 2e-3 -6e-3 3e-3 -6e-3 3e-3 0 0.0344 0.0474 0.0548 0.13686 0.0175 0.0781 0.0217 0.15603 0.0217 0.2149z"/><g fill-rule="evenodd" stroke-miterlimit="10.433"><path d="m624.93 447.33v5e-3l3e-4 5e-3v9e-3l2.9e-4 0.0114 2.9e-4 0.0131 7.2e-4 0.0131 0.00146 0.0262 5e-3 0.0441 5e-3 0.0295 2e-3 0.0164 2e-3 0.0147 2e-3 8e-3 2e-3 6e-3 2e-3 8e-3 2e-3 6e-3c0.0206 0.0867 0.0502 0.13262 0.0538 0.13262 2e-3 0 3e-3 -3e-3 3e-3 -6e-3 0-2e-3 0-3e-3 -6e-3 -0.0164-0.0338-0.0696-0.0535-0.18158-0.0535-0.32908 0-0.11984 0.0127-0.24399 0.0554-0.33265 5e-3 -8e-3 5e-3 -0.0103 5e-3 -0.0114 0-5e-3 -2e-3 -6e-3 -3e-3 -6e-3 -3e-3 0-0.0344 0.0474-0.0548 0.13687-0.0176 0.0781-0.0217 0.15603-0.0217 0.21491z"/><path d="m631.11 447.08v-8e-3l-3.3e-4 -4e-3v-4e-3l-6.5e-4 -8e-3 -0.0012-0.012-5.2e-4 -4e-3 -5.4e-4 -4e-3 -2e-3 -8e-3 -3e-3 -8e-3 -5.2e-4 -2e-3 -5.4e-4 -2e-3c-0.0128-0.0268-0.0354-0.0312-0.0472-0.0312-0.0167 0-0.0372 7e-3 -0.0486 0.0333-9e-3 0.019-0.0104 0.0408-0.0104 0.0628 0 0.0209 8e-4 0.0458 0.0125 0.0668 0.012 0.0227 0.0323 0.0282 0.0461 0.0282v-6e-3c-0.0109 0-0.0274-7e-3 -0.0323-0.0335-3e-3 -0.0167-3e-3 -0.0422-3e-3 -0.0586 0-0.0177 0-0.036 2e-3 -0.0511 5e-3 -0.0331 0.0263-0.0355 0.0333-0.0355 9e-3 0 0.0274 5e-3 0.0326 0.0323 2e-3 0.0156 2e-3 0.0368 2e-3 0.0542 0 0.0209 0 0.0397-3e-3 0.0576-4e-3 0.0263-0.0198 0.0346-0.0323 0.0346v6e-3c0.0148 0 0.036-5e-3 0.0483-0.0321 9e-3 -0.0192 0.0104-0.0408 0.0104-0.0628z"/><path d="m630.67 447.51v-8e-3l-3.1e-4 -4e-3v-4e-3l-6.6e-4 -8e-3 -7.9e-4 -0.0119-5.4e-4 -4e-3 -5.2e-4 -4e-3 -2e-3 -8e-3 -3e-3 -8e-3 -5.4e-4 -2e-3 -5.2e-4 -2e-3c-0.0128-0.0268-0.0355-0.0312-0.0472-0.0312-0.0167 0-0.0372 7e-3 -0.0486 0.0333-9e-3 0.019-0.0104 0.0408-0.0104 0.0628 0 0.0209 7.9e-4 0.0458 0.0125 0.0668 0.012 0.0227 0.0323 0.0282 0.0461 0.0282v-6e-3c-0.0109 0-0.0274-7e-3 -0.0323-0.0335-3e-3 -0.0167-3e-3 -0.0422-3e-3 -0.0587 0-0.0177 0-0.036 2e-3 -0.0511 5e-3 -0.0331 0.0263-0.0355 0.0333-0.0355 9e-3 0 0.0274 5e-3 0.0326 0.0324 2e-3 0.0157 2e-3 0.0369 2e-3 0.0542 0 0.0209 0 0.0397-3e-3 0.0576-4e-3 0.0263-0.0198 0.0347-0.0323 0.0347v6e-3c0.0148 0 0.036-5e-3 0.0484-0.0321 9e-3 -0.0192 0.0104-0.0408 0.0104-0.0628z"/><path d="m630.18 447.31h5e-3l3e-4 2.9e-4h2e-3l2.9e-4 3e-4h7.2e-4l3e-4 2.9e-4h2.9e-4l5.7e-4 5.7e-4h3e-4l2.9e-4 3e-4 2.8e-4 2.9e-4 2.9e-4 2.8e-4v2.9e-4h3e-4v3e-4l2.9e-4 2.9e-4v7.9e-4l3e-4 2.8e-4v2e-3c0 7e-3 -6e-3 7e-3 -0.0114 7e-3h-0.20568c-5e-3 0-0.0114 0-0.0114-7e-3s6e-3 -7e-3 0.0117-7e-3z"/><path d="m630.19 447.23h3e-3l7.3e-4 2.8e-4h2e-3l3e-4 2.9e-4h7.2e-4l2.9e-4 2.9e-4h2.9e-4l3e-4 3e-4h2.9e-4l5.7e-4 5.7e-4 3e-4 2.9e-4h2.9e-4l2.8e-4 3e-4v2.8e-4l3e-4 2.9e-4v2.9e-4h2.9e-4v8e-4l2.9e-4 2.9e-4v2e-3c0 7e-3 -6e-3 7e-3 -0.0117 7e-3h-0.20497c-5e-3 0-0.0117 0-0.0117-7e-3s6e-3 -7e-3 0.0114-7e-3z"/><path d="m631.36 447.3v5e-3l-3e-4 5e-3v9e-3l-2.8e-4 0.0114-2.9e-4 0.0131-0.00219 0.0393-5e-3 0.0442-5e-3 0.0295-2e-3 0.0164-2e-3 0.0147-2e-3 8e-3 -2e-3 6e-3 -2e-3 8e-3 -2e-3 6e-3c-0.0206 0.0867-0.0502 0.13262-0.0538 0.13262-2e-3 0-3e-3 -3e-3 -3e-3 -6e-3 0-2e-3 0-3e-3 6e-3 -0.0164 0.0338-0.0696 0.0535-0.18158 0.0535-0.3291 0-0.11984-0.0127-0.24399-0.0554-0.33264-5e-3 -8e-3 -5e-3 -0.0103-5e-3 -0.0115 0-5e-3 2e-3 -6e-3 3e-3 -6e-3 3e-3 0 0.0344 0.0474 0.0548 0.13686 0.0176 0.0781 0.0218 0.15603 0.0218 0.21491z"/><path d="m630.37 447.31v5e-3l2.9e-4 5e-3v9e-3l2.9e-4 0.0115 3e-4 0.0131 7.2e-4 0.0131 0.00146 0.0262 5e-3 0.0442 5e-3 0.0295 2e-3 0.0164 2e-3 0.0147 2e-3 8e-3 2e-3 6e-3 2e-3 8e-3 2e-3 6e-3c0.0206 0.0867 0.0502 0.13262 0.0538 0.13262 2e-3 0 3e-3 -3e-3 3e-3 -6e-3 0-2e-3 0-3e-3 -6e-3 -0.0164-0.0338-0.0696-0.0535-0.18158-0.0535-0.32909 0-0.11984 0.0127-0.24399 0.0554-0.33265 5e-3 -8e-3 5e-3 -0.0103 5e-3 -0.0114 0-5e-3 -2e-3 -6e-3 -3e-3 -6e-3 -3e-3 0-0.0344 0.0475-0.0548 0.13687-0.0176 0.0781-0.0217 0.15602-0.0217 0.2149z"/><g id="content" transform="matrix(1.5 0 0 -1.5 -348.96 1177.1)" stroke="#000" ns0:preamble="default_packages.tex" ns0:text="$$\\sigma_x^2$$\n$$\\sigma_y^2$$\n$$\\rho \\sigma_x \\sigma_y$$\n" xml:space="preserve"><path d="m653.08 486.73h3e-3l4.6e-4 1.7e-4h7.9e-4l4.5e-4 1.6e-4h4.7e-4l4.5e-4 1.7e-4 4.6e-4 1.5e-4 4.7e-4 1.6e-4 4.6e-4 1.7e-4 4.6e-4 1.5e-4 1.6e-4 1.7e-4 4.5e-4 1.5e-4 4.6e-4 1.7e-4v1.5e-4l1.7e-4 1.7e-4 1.6e-4 1.7e-4 1.7e-4 1.5e-4v1.6e-4l1.5e-4 1.6e-4v1.7e-4l1.6e-4 1.5e-4 1.7e-4 1.7e-4v3.1e-4l1.5e-4 1.6e-4v1.7e-4l1.7e-4 4.6e-4v2e-3c0 5e-3 -3e-3 5e-3 -7e-3 5e-3h-0.0423c-0.0279 0-0.0485-0.0305-0.0485-0.0524 0-0.0162 0.0106-0.0292 0.0277-0.0292l1.6e-4 3e-3c-9e-3 0-0.0163 7e-3 -0.0163 0.0198 0 5e-3 2e-3 0.0207 8e-3 0.0316 7e-3 0.0128 0.0188 0.0153 0.0251 0.0153 0.0156 0 0.0172-0.0122 0.0172-0.0181 0-8e-3 -3e-3 -0.0238-0.0106-0.0332-7e-3 -0.0106-0.0172-0.0156-0.0245-0.0156l-1.5e-4 -3e-3c0.0218 0 0.0466 0.0223 0.0466 0.0506 0 3e-3 0 0.0121-5e-3 0.0203z"/><path d="m653.17 486.76h-4e-3c-3.8e-4 -2e-3 -6.6e-4 -9e-3 -2e-3 -0.0103-6.8e-4 -6.6e-4 -9e-3 -6.6e-4 -0.0108-6.6e-4h-0.02c0.0115 0.0103 0.0153 0.0133 0.0219 0.0182 8e-3 6e-3 0.0155 0.013 0.0155 0.0234 0 0.0133-0.0115 0.0211-0.0256 0.0211-0.0135 0-0.0226-0.0103-0.0226-0.0193 0-6e-3 5e-3 -6e-3 6e-3 -6e-3 2e-3 0 6e-3 2e-3 6e-3 6e-3 0 2e-3 -6.6e-4 6e-3 -6e-3 6e-3 2e-3 8e-3 0.0108 0.0103 0.0159 0.0103 0.0109 0 0.0165-9e-3 0.0165-0.0174 0-0.0103-7e-3 -0.0167-0.0103-0.0206l-0.0263-0.0259c-6.5e-4 -6.7e-4 -6.5e-4 -6.7e-4 -6.5e-4 -4e-3h0.0449z"/><path d="m653.13 486.64v-4.7e-4l-1.7e-4 -4.5e-4 -1.5e-4 -4.6e-4 -1.5e-4 -4.5e-4 -1.8e-4 -4.8e-4 -1.4e-4 -4.6e-4 -4.6e-4 -4.5e-4 -1.8e-4 -4.6e-4 -1.5e-4 -4.5e-4 -4.7e-4 -4.8e-4 -1.5e-4 -4.6e-4 -4.6e-4 -4.5e-4 -4.7e-4 -4.6e-4 -4.6e-4 -4.6e-4 -4.6e-4 -4.7e-4 -2e-3 -2e-3 -4.7e-4 -4.5e-4 -4.6e-4 -4.6e-4 -4.6e-4 -1.7e-4 -4.6e-4 -4.6e-4 -4.5e-4 -4.6e-4 -4.7e-4 -1.8e-4 -4.5e-4 -1.4e-4 -4.7e-4 -1.6e-4 -4.6e-4 -1.7e-4 -4.6e-4 -1.5e-4h-4.5e-4l-4.6e-4 -1.7e-4h-4.6e-4c-4.6e-4 0-5e-3 0-7e-3 7.9e-4 5e-3 8.1e-4 5e-3 5e-3 5e-3 7e-3s-2e-3 5e-3 -5e-3 5e-3 -7e-3 -3e-3 -7e-3 -8e-3c0-7e-3 7e-3 -9e-3 0.0136-9e-3 5e-3 0 0.0118 3e-3 0.0147 9e-3 2e-3 -7e-3 0.0106-9e-3 0.0153-9e-3 0.0149 0 0.0229 0.0162 0.0229 0.0197 0 8e-4 -7.9e-4 8e-4 -2e-3 8e-4 -7.9e-4 0-2e-3 -4.6e-4 -2e-3 -2e-3 -2e-3 -9e-3 -0.0106-0.0156-0.0179-0.0156-5e-3 0-8e-3 3e-3 -8e-3 8e-3 0 3e-3 3e-3 0.0153 7e-3 0.0295 2e-3 0.0106 8e-3 0.0131 0.0128 0.0131 1.7e-4 0 5e-3 0 7e-3 -7.9e-4 -3e-3 -8e-4 -5e-3 -5e-3 -5e-3 -7e-3s2e-3 -5e-3 5e-3 -5e-3c2e-3 0 7e-3 2e-3 7e-3 8e-3 0 7e-3 -8e-3 9e-3 -0.0136 9e-3 -7e-3 0-0.0117-5e-3 -0.0144-9e-3 -2e-3 5e-3 -8e-3 9e-3 -0.0156 9e-3 -0.0144 0-0.0229-0.0157-0.0229-0.0197 0-8.1e-4 8e-4 -8.1e-4 2e-3 -8.1e-4 8e-4 0 8e-4 4.6e-4 2e-3 2e-3 3e-3 0.0106 0.0118 0.0156 0.0178 0.0156 5e-3 0 8e-3 -2e-3 8e-3 -8e-3 0-2e-3 -8e-4 -9e-3 -2e-3 -0.0134z"/><path d="m653.35 486.44h2e-3l4.8e-4 1.7e-4h2e-3l4.7e-4 1.6e-4h8e-4l4.7e-4 1.7e-4 4.8e-4 1.7e-4h4.7e-4l4.7e-4 1.7e-4 5e-4 1.5e-4 4.6e-4 1.8e-4 4.8e-4 1.6e-4 1.8e-4 4.8e-4 4.7e-4 1.7e-4 3.3e-4 3.3e-4v1.6e-4h1.7e-4l1.7e-4 1.8e-4v1.7e-4l1.6e-4 1.6e-4v1.7e-4l1.6e-4 1.6e-4v4.9e-4l1.7e-4 1.6e-4v1.7e-4l1.7e-4 1.7e-4v7.9e-4l1.8e-4 1.6e-4v7.9e-4c0 4e-3 -3e-3 4e-3 -8e-3 4e-3h-0.0438c-0.0292 0-0.0505-0.0316-0.0505-0.0544 0-0.0168 0.0114-0.0302 0.029-0.0302l1.5e-4 3e-3c-9e-3 0-0.0172 7e-3 -0.0172 0.0206 0 6e-3 2e-3 0.0213 9e-3 0.0328 8e-3 0.0131 0.0197 0.0158 0.0262 0.0158 0.0159 0 0.0176-0.0125 0.0176-0.0186 0-9e-3 -3e-3 -0.0247-0.0103-0.0346-8e-3 -0.0113-0.0179-0.0162-0.0255-0.0162l-1.7e-4 -3e-3c0.0228 0 0.0482 0.0231 0.0482 0.0528 0 3e-3 0 0.0125-6e-3 0.0208z"/><path d="m653.43 486.48h-3e-3c-4.1e-4 -2e-3 -2e-3 -9e-3 -2e-3 -0.0108-7.6e-4 -4.9e-4 -0.0103-4.9e-4 -0.0117-4.9e-4h-0.0217c0.0123 0.0109 0.0164 0.0142 0.0235 0.0197 8e-3 7e-3 0.0168 0.0142 0.0168 0.0253 0 0.0142-0.0127 0.0228-0.0276 0.0228-0.0147 0-0.0245-0.0103-0.0245-0.021 0-6e-3 5e-3 -7e-3 7e-3 -7e-3s7e-3 2e-3 7e-3 7e-3c0 2e-3 -7.5e-4 7e-3 -8e-3 7e-3 3e-3 8e-3 0.0118 0.0109 0.0172 0.0109 0.0118 0 0.018-9e-3 0.018-0.0187 0-0.0103-8e-3 -0.0182-0.0111-0.0224l-0.0285-0.0279c-7.5e-4 -7.4e-4 -7.5e-4 -7.4e-4 -7.5e-4 -5e-3h0.0485z"/><path d="m653.44 486.37h1.9e-4v5e-4l1.6e-4 1.7e-4v5e-4l1.6e-4 1.6e-4v8e-4c0 2e-3 -2e-3 3e-3 -4e-3 3e-3 -7.9e-4 0-3e-3 -4.8e-4 -6e-3 -3e-3 -4.7e-4 -5.8e-4 -7.9e-4 -6e-3 -2e-3 -8e-3l-2e-3 -0.0112c-7.9e-4 -2e-3 -6e-3 -0.0199-6e-3 -0.0217-1.6e-4 0-7e-3 -0.0115-0.0166-0.0115-9e-3 0-9e-3 8e-3 -9e-3 0.0112 0 8e-3 2e-3 0.0156 8e-3 0.0261 2e-3 3e-3 2e-3 6e-3 2e-3 8e-3 0 7e-3 -6e-3 0.0114-0.0126 0.0114-0.0136 0-0.0197-0.0181-0.0197-0.0205 0-2e-3 2e-3 -2e-3 2e-3 -2e-3 2e-3 0 2e-3 4.8e-4 2e-3 2e-3 3e-3 0.0112 9e-3 0.0164 0.0147 0.0164 2e-3 0 3e-3 -8e-4 3e-3 -4e-3 0-2e-3 -7.9e-4 -6e-3 -2e-3 -8e-3 -7e-3 -0.0164-8e-3 -0.0213-8e-3 -0.0272 0-2e-3 0-8e-3 6e-3 -0.0128 3e-3 -3e-3 0.0103-3e-3 0.0136-3e-3 6e-3 0 0.0103 2e-3 0.0146 7e-3 -2e-3 -8e-3 -3e-3 -0.0131-8e-3 -0.0199-3e-3 -3e-3 -9e-3 -8e-3 -0.0162-8e-3 -8e-4 0-8e-3 0-0.0103 4e-3 8e-3 5.8e-4 8e-3 8e-3 8e-3 8e-3 0 4e-3 -3e-3 6e-3 -6e-3 6e-3s-8e-3 -2e-3 -8e-3 -8e-3c0-7e-3 7e-3 -0.012 0.016-0.012 0.0136 0 0.0301 0.0106 0.0343 0.0274z"/><path d="m656.52 486.64v-4.6e-4l-1.5e-4 -1.4e-4v-4.5e-4l-1.4e-4 -1.7e-4v-7.5e-4h-1.7e-4v-4.5e-4c0-2e-3 2e-3 -5e-3 5e-3 -5e-3 4e-3 0 5e-3 2e-3 6e-3 4e-3 7.9e-4 2e-3 6e-3 0.0247 0.0112 0.0434 4e-3 -7e-3 9e-3 -0.0115 0.0172-0.0115l-1.5e-4 4e-3c-0.0122 0-0.015 0.014-0.015 0.0155 0 5.3e-4 8e-4 5e-3 8e-4 6e-3 5e-3 0.0196 6e-3 0.0259 0.0105 0.0326 7e-3 0.0128 0.016 0.0165 0.0214 0.0165 6e-3 0 0.012-5e-3 0.012-0.017 0-9e-3 -5e-3 -0.029-0.0103-0.0373-5e-3 -0.011-0.014-0.0165-0.0206-0.0165l1.4e-4 -4e-3c0.0202 0 0.0428 0.0242 0.0428 0.0502 0 0.0183-0.0115 0.0282-0.0242 0.0282-0.0167 0-0.0351-0.0175-0.0403-0.0386z"/><path d="m656.7 486.73h2e-3l4.3e-4 1.5e-4h7.9e-4l4.3e-4 1.5e-4h4.4e-4l4.3e-4 1.6e-4h4.2e-4l4.4e-4 1.5e-4 4.4e-4 1.4e-4 4.3e-4 1.5e-4 4.3e-4 1.7e-4 4.3e-4 1.4e-4 7.4e-4 7.4e-4h1.4e-4v1.4e-4l1.6e-4 1.6e-4 1.5e-4 1.4e-4v1.6e-4l1.5e-4 1.5e-4v1.4e-4l1.5e-4 1.7e-4v1.4e-4l1.5e-4 1.6e-4v4.3e-4l1.5e-4 1.5e-4v7.3e-4l1.5e-4 1.5e-4v8e-4c0 5e-3 -4e-3 5e-3 -6e-3 5e-3h-0.0396c-0.0263 0-0.0457-0.0287-0.0457-0.0494 0-0.0152 0.0104-0.0272 0.0263-0.0272l1.4e-4 4e-3c-8e-3 0-0.0155 6e-3 -0.0155 0.0189 0 5e-3 2e-3 0.0194 8e-3 0.0295 7e-3 0.0121 0.0179 0.0146 0.0237 0.0146 0.0146 0 0.0158-0.0115 0.0158-0.0167 0-8e-3 -4e-3 -0.0225-9e-3 -0.0312-6e-3 -0.0103-0.016-0.0148-0.0229-0.0148l-1.4e-4 -4e-3c0.0204 0 0.0436 0.0209 0.0436 0.0476 0 2e-3 0 0.0112-5e-3 0.0188z"/><path d="m656.74 486.65-1.5e-4 -4.2e-4 -1.5e-4 -4.4e-4 -1.6e-4 -4.4e-4 -1.4e-4 -4.3e-4 -1.5e-4 -4.2e-4 -1.6e-4 -4.4e-4 -3e-4 -7.9e-4 -4.4e-4 -4.4e-4 -1.4e-4 -4.3e-4 -4.3e-4 -4.3e-4 -4.3e-4 -4.4e-4 -1.6e-4 -4.3e-4 -4.3e-4 -4.3e-4 -4.3e-4 -4.4e-4 -4.4e-4 -4.2e-4 -4.3e-4 -4.3e-4 -4.2e-4 -4.4e-4 -4.5e-4 -4.2e-4 -4.3e-4 -4.4e-4 -4.3e-4 -4.3e-4 -4.2e-4 -4.3e-4 -4.3e-4 -4.3e-4 -4.3e-4 -1.5e-4 -4.3e-4 -4.3e-4 -4.4e-4 -1.7e-4 -4.2e-4 -1.4e-4 -4.4e-4 -1.5e-4 -4.4e-4 -1.6e-4h-7.9e-4l-4.3e-4 -1.5e-4c-4.4e-4 0-5e-3 0-6e-3 2e-3 5e-3 2e-3 5e-3 5e-3 5e-3 6e-3 0 2e-3 -2e-3 5e-3 -5e-3 5e-3 -4e-3 0-7e-3 -2e-3 -7e-3 -7e-3 0-6e-3 6e-3 -9e-3 0.0128-9e-3 5e-3 0 0.0107 4e-3 0.0136 8e-3 2e-3 -6e-3 9e-3 -8e-3 0.0146-8e-3 0.0142 0 0.0213 0.0152 0.0213 0.0185 0 2e-3 -2e-3 2e-3 -2e-3 2e-3 -2e-3 0-2e-3 -5.4e-4 -2e-3 -2e-3 -2e-3 -8e-3 -0.0103-0.0148-0.0167-0.0148-5e-3 0-7e-3 2e-3 -7e-3 8e-3 0 2e-3 2e-3 0.0142 6e-3 0.0276 2e-3 9e-3 8e-3 0.0124 0.0118 0.0124 4.4e-4 0 5e-3 0 6e-3 -2e-3 -4e-3 -7.9e-4 -5e-3 -5e-3 -5e-3 -6e-3 0-2e-3 2e-3 -5e-3 5e-3 -5e-3 2e-3 0 6e-3 2e-3 6e-3 7e-3 0 6e-3 -7e-3 9e-3 -0.0125 9e-3 -6e-3 0-0.011-5e-3 -0.0138-8e-3 -2e-3 5e-3 -7e-3 8e-3 -0.0147 8e-3 -0.0136 0-0.0213-0.015-0.0213-0.0187 0-2e-3 2e-3 -2e-3 2e-3 -2e-3 2e-3 0 2e-3 4.3e-4 2e-3 2e-3 2e-3 9e-3 0.0107 0.0147 0.0166 0.0147 5e-3 0 7e-3 -2e-3 7e-3 -8e-3 0-2e-3 -8e-4 -8e-3 -2e-3 -0.0125z"/><path d="m656.89 486.73h2e-3l4.3e-4 1.5e-4h8e-4l4.3e-4 1.5e-4h4.3e-4l4.3e-4 1.6e-4h4.3e-4l8e-4 2.9e-4 4.5e-4 1.5e-4 4.2e-4 1.7e-4 4.3e-4 1.4e-4 8e-4 7.9e-4 1.4e-4 1.7e-4 1.6e-4 1.3e-4v1.5e-4l1.6e-4 1.7e-4v1.4e-4l1.4e-4 1.6e-4v1.5e-4l1.5e-4 1.5e-4v5.8e-4l1.6e-4 1.5e-4v7.4e-4l1.5e-4 4.3e-4v5.8e-4c0 5e-3 -4e-3 5e-3 -6e-3 5e-3h-0.0398c-0.0263 0-0.0455-0.0286-0.0455-0.0494 0-0.0152 0.0104-0.0272 0.0263-0.0272l1.4e-4 4e-3c-8e-3 0-0.0155 6e-3 -0.0155 0.0189 0 5e-3 2e-3 0.0194 8e-3 0.0295 7e-3 0.0121 0.0179 0.0146 0.0237 0.0146 0.0146 0 0.0158-0.0115 0.0158-0.0167 0-8e-3 -4e-3 -0.0225-9e-3 -0.0312-6e-3 -0.0103-0.016-0.0148-0.0229-0.0148l-1.6e-4 -4e-3c0.0204 0 0.0436 0.0209 0.0436 0.0476 0 2e-3 0 0.0112-5e-3 0.0189z"/><path d="m656.96 486.68v1.6e-4h1.4e-4v4.6e-4l1.6e-4 1.4e-4v4.6e-4l1.4e-4 1.5e-4v7.9e-4c0 2e-3 -2e-3 4e-3 -5e-3 4e-3 -7.9e-4 0-4e-3 -5.2e-4 -5e-3 -2e-3 -4.5e-4 -5.3e-4 -7.9e-4 -5e-3 -2e-3 -7e-3l-2e-3 -0.0103c-5.2e-4 -2e-3 -5e-3 -0.0182-5e-3 -0.0195-1.6e-4 0-5e-3 -0.0107-0.015-0.0107-8e-3 0-8e-3 8e-3 -8e-3 0.0103 0 6e-3 2e-3 0.0144 6e-3 0.0235 7.9e-4 4e-3 2e-3 5e-3 2e-3 7e-3 0 5e-3 -5e-3 0.0105-0.0115 0.0105-0.0124 0-0.0179-0.0166-0.0179-0.0187 0-2e-3 2e-3 -2e-3 2e-3 -2e-3 2e-3 0 2e-3 5.4e-4 2e-3 2e-3 2e-3 0.0103 8e-3 0.0148 0.013 0.0148 2e-3 0 2e-3 -7.9e-4 2e-3 -5e-3 0-2e-3 -7.9e-4 -5e-3 -2e-3 -7e-3 -5e-3 -0.0147-7e-3 -0.0192-7e-3 -0.0246 0-2e-3 0-7e-3 5e-3 -0.0115 4e-3 -2e-3 9e-3 -4e-3 0.0122-4e-3 5e-3 0 9e-3 2e-3 0.0132 5e-3 -2e-3 -6e-3 -2e-3 -0.0117-8e-3 -0.0179-2e-3 -4e-3 -8e-3 -7e-3 -0.0146-7e-3 -8e-4 0-6e-3 0-9e-3 5e-3 6e-3 5.4e-4 6e-3 6e-3 6e-3 6e-3 0 4e-3 -4e-3 5e-3 -5e-3 5e-3 -2e-3 0-7e-3 -2e-3 -7e-3 -8e-3s5e-3 -0.0107 0.0146-0.0107c0.0122 0 0.0272 9e-3 0.0311 0.0246z"/><g fill-rule="evenodd" stroke-miterlimit="10.433"><path d="m655.82 486.55h3e-3l1.8e-4 -2e-4h8e-4l1.9e-4 -1.8e-4h4.9e-4l1.9e-4 -2e-4h2e-4l1.8e-4 -1.9e-4 2e-4 -2e-4h1.9e-4l2e-4 -1.9e-4 1.9e-4 -2e-4 2e-4 -1.8e-4v-2e-4h1.8e-4v-1.9e-4l2e-4 -2e-4v-5.7e-4l1.9e-4 -2e-4v-7.9e-4c0-5e-3 -4e-3 -5e-3 -8e-3 -5e-3h-0.13712c-3e-3 0-8e-3 0-8e-3 5e-3s4e-3 5e-3 8e-3 5e-3z"/><path d="m655.82 486.6h2e-3l4.9e-4 -1.9e-4h8e-4l2e-4 -2e-4h4.8e-4l2e-4 -1.8e-4h1.9e-4l2e-4 -2.1e-4h1.8e-4l2e-4 -1.8e-4 1.9e-4 -2e-4 2e-4 -1.9e-4h1.9e-4l2e-4 -2e-4v-1.8e-4l1.9e-4 -2.1e-4v-1.8e-4h1.9e-4v-5.9e-4l2e-4 -1.8e-4v-8e-4c0-5e-3 -4e-3 -5e-3 -8e-3 -5e-3h-0.13666c-4e-3 0-8e-3 0-8e-3 5e-3s4e-3 5e-3 8e-3 5e-3z"/><path d="m657.03 486.53v-3e-3l-1.9e-4 -3e-3v-6e-3l-2e-4 -8e-3 -1.8e-4 -9e-3 -2e-3 -0.0263-2e-3 -0.0294-3e-3 -0.0195-2e-3 -0.0109-2e-3 -0.0103-8e-4 -5e-3 -7.9e-4 -4e-3 -8e-4 -5e-3 -7.9e-4 -4e-3c-0.0138-0.0577-0.0335-0.0884-0.0358-0.0884-2e-3 0-2e-3 2e-3 -2e-3 4e-3 0 7.9e-4 0 2e-3 4e-3 0.0109 0.0225 0.0464 0.0356 0.12106 0.0356 0.2194 0 0.0799-8e-3 0.16265-0.037 0.22175-3e-3 5e-3 -3e-3 6e-3 -3e-3 8e-3 0 3e-3 7.9e-4 4e-3 2e-3 4e-3 2e-3 0 0.023-0.0316 0.0366-0.0913 0.0117-0.0521 0.0145-0.104 0.0145-0.14326z"/><path d="m655.94 486.55v-3e-3l1.9e-4 -3e-3v-6e-3l1.9e-4 -8e-3 2e-4 -9e-3 2e-3 -0.0263 2e-3 -0.0294 3e-3 -0.0195 2e-3 -0.0109 2e-3 -0.0103 8e-4 -5e-3 7.9e-4 -4e-3 8e-4 -5e-3 7.9e-4 -4e-3c0.0138-0.0577 0.0335-0.0884 0.0358-0.0884 2e-3 0 2e-3 2e-3 2e-3 4e-3 0 8e-4 0 2e-3 -4e-3 0.0109-0.0225 0.0464-0.0356 0.12105-0.0356 0.21939 0 0.0799 8e-3 0.16267 0.037 0.22176 3e-3 5e-3 3e-3 6e-3 3e-3 8e-3 0 3e-3 -7.9e-4 4e-3 -2e-3 4e-3 -2e-3 0-0.023-0.0316-0.0365-0.0913-0.0117-0.052-0.0145-0.10402-0.0145-0.14328z"/><path d="m656.14 486.73h3e-3l4.7e-4 1.5e-4h7.9e-4l4.5e-4 1.8e-4h4.6e-4l4.5e-4 1.6e-4 4.6e-4 1.6e-4 4.8e-4 1.5e-4 4.6e-4 1.6e-4 4.5e-4 1.6e-4 1.6e-4 1.6e-4 4.6e-4 1.7e-4 4.6e-4 1.6e-4v1.6e-4l1.6e-4 1.6e-4 1.7e-4 1.6e-4 1.6e-4 1.7e-4v1.5e-4l1.5e-4 1.7e-4v1.6e-4l1.7e-4 1.5e-4 1.6e-4 1.7e-4v3.1e-4l1.6e-4 1.7e-4v1.7e-4l1.6e-4 4.5e-4v2e-3c0 5e-3 -3e-3 5e-3 -7e-3 5e-3h-0.0423c-0.0279 0-0.0485-0.0305-0.0485-0.0523 0-0.0162 0.0106-0.0292 0.0277-0.0292l1.6e-4 3e-3c-9e-3 0-0.0163 7e-3 -0.0163 0.0198 0 5e-3 2e-3 0.0207 8e-3 0.0315 7e-3 0.0128 0.0188 0.0153 0.0252 0.0153 0.0156 0 0.0171-0.0121 0.0171-0.0181 0-8e-3 -3e-3 -0.0238-0.0106-0.0332-7e-3 -0.0106-0.0172-0.0156-0.0245-0.0156l-1.4e-4 -3e-3c0.0218 0 0.0466 0.0223 0.0466 0.0506 0 3e-3 0 0.0121-5e-3 0.0203z"/><path d="m656.23 486.76h-4e-3c-3.8e-4 -2e-3 -6.7e-4 -9e-3 -2e-3 -0.0103-6.6e-4 -6.7e-4 -9e-3 -6.7e-4 -0.0107-6.7e-4h-0.02c0.0115 0.0103 0.0153 0.0132 0.0219 0.0182 8e-3 6e-3 0.0155 0.013 0.0155 0.0234 0 0.0132-0.0115 0.0211-0.0256 0.0211-0.0135 0-0.0226-0.0103-0.0226-0.0192 0-6e-3 5e-3 -6e-3 6e-3 -6e-3 2e-3 0 6e-3 2e-3 6e-3 6e-3 0 2e-3 -6.6e-4 6e-3 -6e-3 6e-3 2e-3 8e-3 0.0107 0.0103 0.0159 0.0103 0.0109 0 0.0165-9e-3 0.0165-0.0173 0-0.0103-7e-3 -0.0167-0.0103-0.0206l-0.0263-0.0259c-6.6e-4 -6.6e-4 -6.6e-4 -6.6e-4 -6.6e-4 -4e-3h0.0449z"/><path d="m656.18 486.64v-4.6e-4l-1.8e-4 -4.6e-4 -1.4e-4 -4.7e-4 -1.7e-4 -4.5e-4 -3.2e-4 -9.2e-4 -4.6e-4 -4.6e-4 -1.7e-4 -4.5e-4 -1.6e-4 -4.7e-4 -4.6e-4 -4.6e-4 -1.5e-4 -4.6e-4 -4.6e-4 -4.5e-4 -4.8e-4 -4.6e-4 -4.5e-4 -4.7e-4 -4.6e-4 -4.7e-4 -2e-3 -2e-3 -4.7e-4 -4.5e-4 -4.6e-4 -4.7e-4 -4.5e-4 -1.5e-4 -4.6e-4 -4.6e-4 -4.5e-4 -4.7e-4 -4.7e-4 -1.7e-4 -4.7e-4 -1.5e-4 -4.5e-4 -1.7e-4 -4.6e-4 -1.6e-4 -4.7e-4 -1.5e-4h-4.5e-4l-4.7e-4 -1.7e-4h-4.5e-4c-4.6e-4 0-5e-3 0-7e-3 8e-4 5e-3 7.9e-4 5e-3 5e-3 5e-3 7e-3s-2e-3 5e-3 -5e-3 5e-3 -7e-3 -3e-3 -7e-3 -8e-3c0-7e-3 7e-3 -9e-3 0.0136-9e-3 5e-3 0 0.0118 3e-3 0.0147 9e-3 2e-3 -7e-3 0.0106-9e-3 0.0153-9e-3 0.0149 0 0.0229 0.0162 0.0229 0.0197 0 7.9e-4 -8e-4 7.9e-4 -2e-3 7.9e-4 -7.9e-4 0-2e-3 -4.6e-4 -2e-3 -2e-3 -2e-3 -9e-3 -0.0106-0.0156-0.0178-0.0156-5e-3 0-8e-3 3e-3 -8e-3 8e-3 0 3e-3 3e-3 0.0153 7e-3 0.0295 2e-3 0.0106 8e-3 0.0131 0.0128 0.0131 1.8e-4 0 5e-3 0 7e-3 -8e-4 -3e-3 -7.9e-4 -5e-3 -5e-3 -5e-3 -7e-3s2e-3 -5e-3 5e-3 -5e-3c2e-3 0 7e-3 2e-3 7e-3 8e-3 0 7e-3 -8e-3 9e-3 -0.0136 9e-3 -7e-3 0-0.0117-5e-3 -0.0144-9e-3 -2e-3 5e-3 -8e-3 9e-3 -0.0156 9e-3 -0.0144 0-0.0229-0.0157-0.0229-0.0197 0-7.9e-4 8e-4 -7.9e-4 2e-3 -7.9e-4 7.9e-4 0 7.9e-4 4.5e-4 2e-3 2e-3 3e-3 0.0106 0.0118 0.0156 0.0178 0.0156 5e-3 0 8e-3 -2e-3 8e-3 -8e-3 0-2e-3 -7.9e-4 -9e-3 -2e-3 -0.0134z"/><path d="m656.68 486.42h2e-3l5e-4 1.8e-4h2e-3l4.6e-4 1.5e-4h8e-4l4.6e-4 1.8e-4 5e-4 1.7e-4h4.6e-4l4.8e-4 1.7e-4 9.6e-4 3.2e-4 4.7e-4 1.7e-4 1.7e-4 4.9e-4 4.8e-4 1.6e-4 3.3e-4 3.3e-4v1.7e-4h1.8e-4l1.6e-4 1.6e-4v1.8e-4l1.6e-4 1.7e-4v1.7e-4l1.7e-4 1.5e-4v4.9e-4l1.7e-4 1.6e-4v1.7e-4l1.6e-4 1.7e-4v8e-4l1.7e-4 1.5e-4v8e-4c0 4e-3 -3e-3 4e-3 -8e-3 4e-3h-0.0438c-0.0292 0-0.0505-0.0316-0.0505-0.0544 0-0.0168 0.0114-0.0302 0.029-0.0302l1.6e-4 3e-3c-9e-3 0-0.0173 7e-3 -0.0173 0.0206 0 6e-3 2e-3 0.0213 9e-3 0.0328 8e-3 0.0131 0.0197 0.0158 0.0262 0.0158 0.0159 0 0.0176-0.0125 0.0176-0.0186 0-9e-3 -3e-3 -0.0247-0.0103-0.0346-8e-3 -0.0113-0.0179-0.0162-0.0255-0.0162l-1.7e-4 -3e-3c0.0228 0 0.0482 0.0231 0.0482 0.0528 0 3e-3 0 0.0125-6e-3 0.0208z"/><path d="m656.76 486.46h-3e-3c-4.2e-4 -2e-3 -2e-3 -9e-3 -2e-3 -0.0108-7.5e-4 -5.1e-4 -0.0103-5.1e-4 -0.0117-5.1e-4h-0.0217c0.0123 0.0109 0.0164 0.0142 0.0235 0.0197 8e-3 7e-3 0.0168 0.0142 0.0168 0.0253 0 0.0142-0.0127 0.0228-0.0277 0.0228-0.0147 0-0.0245-0.0103-0.0245-0.0209 0-6e-3 5e-3 -7e-3 7e-3 -7e-3s7e-3 2e-3 7e-3 7e-3c0 2e-3 -7.5e-4 7e-3 -8e-3 7e-3 3e-3 8e-3 0.0118 0.0109 0.0172 0.0109 0.0118 0 0.018-9e-3 0.018-0.0187 0-0.0103-8e-3 -0.0182-0.0111-0.0224l-0.0285-0.0279c-7.5e-4 -7.4e-4 -7.5e-4 -7.4e-4 -7.5e-4 -5e-3h0.0485z"/><path d="m656.77 486.36h1.8e-4v5e-4l1.7e-4 1.7e-4v4.9e-4l1.6e-4 1.7e-4v7.9e-4c0 2e-3 -2e-3 3e-3 -4e-3 3e-3 -7.9e-4 0-3e-3 -4.7e-4 -6e-3 -3e-3 -4.9e-4 -5.8e-4 -8e-4 -6e-3 -2e-3 -8e-3l-2e-3 -0.0112c-7.9e-4 -2e-3 -6e-3 -0.02-6e-3 -0.0217-1.7e-4 0-7e-3 -0.0115-0.0166-0.0115-9e-3 0-9e-3 8e-3 -9e-3 0.0112 0 8e-3 2e-3 0.0156 8e-3 0.0261 2e-3 3e-3 2e-3 6e-3 2e-3 8e-3 0 7e-3 -6e-3 0.0114-0.0126 0.0114-0.0137 0-0.0197-0.0181-0.0197-0.0205 0-2e-3 2e-3 -2e-3 2e-3 -2e-3 2e-3 0 2e-3 4.8e-4 2e-3 2e-3 3e-3 0.0112 9e-3 0.0164 0.0147 0.0164 2e-3 0 3e-3 -8e-4 3e-3 -4e-3 0-2e-3 -8e-4 -6e-3 -2e-3 -8e-3 -7e-3 -0.0164-8e-3 -0.0214-8e-3 -0.0272 0-2e-3 0-8e-3 6e-3 -0.0128 3e-3 -3e-3 0.0103-3e-3 0.0136-3e-3 6e-3 0 0.0103 2e-3 0.0146 7e-3 -2e-3 -8e-3 -3e-3 -0.0131-8e-3 -0.0199-3e-3 -3e-3 -9e-3 -8e-3 -0.0162-8e-3 -7.9e-4 0-8e-3 0-0.0103 4e-3 8e-3 5.9e-4 8e-3 8e-3 8e-3 8e-3 0 4e-3 -3e-3 6e-3 -6e-3 6e-3s-8e-3 -2e-3 -8e-3 -8e-3c0-7e-3 7e-3 -0.012 0.016-0.012 0.0136 0 0.0301 0.0106 0.0343 0.0273z"/><path d="m656.02 486.34v-4.5e-4l-1.5e-4 -1.5e-4v-4.6e-4l-1.4e-4 -1.5e-4v-7.6e-4h-1.6e-4v-4.4e-4c0-2e-3 2e-3 -5e-3 5e-3 -5e-3 4e-3 0 5e-3 2e-3 6e-3 4e-3 8.1e-4 2e-3 6e-3 0.0247 0.0112 0.0434 4e-3 -7e-3 9e-3 -0.0115 0.0172-0.0115l-1.4e-4 4e-3c-0.0122 0-0.015 0.014-0.015 0.0155 0 5.2e-4 7.9e-4 5e-3 7.9e-4 6e-3 5e-3 0.0196 6e-3 0.0259 0.0105 0.0327 7e-3 0.0128 0.016 0.0165 0.0214 0.0165 6e-3 0 0.012-5e-3 0.012-0.0171 0-9e-3 -5e-3 -0.029-0.0103-0.0373-5e-3 -0.011-0.014-0.0165-0.0206-0.0165l1.5e-4 -4e-3c0.0202 0 0.0428 0.0242 0.0428 0.0502 0 0.0183-0.0115 0.0282-0.0242 0.0282-0.0167 0-0.0351-0.0174-0.0404-0.0386z"/><path d="m656.19 486.44h2e-3l4.3e-4 1.4e-4h8e-4l4.3e-4 1.6e-4h4.3e-4l4.3e-4 1.5e-4h4.3e-4l4.4e-4 1.4e-4 4.2e-4 1.5e-4 4.3e-4 1.6e-4 4.5e-4 1.5e-4 4.3e-4 1.5e-4 7.4e-4 7.4e-4h1.4e-4v1.4e-4l1.4e-4 1.7e-4 1.6e-4 1.4e-4v1.4e-4l1.6e-4 1.7e-4v1.4e-4l1.4e-4 1.6e-4v1.5e-4l1.5e-4 1.5e-4v4.3e-4l1.5e-4 1.5e-4v7.4e-4l1.6e-4 1.5e-4v8e-4c0 5e-3 -4e-3 5e-3 -6e-3 5e-3h-0.0396c-0.0263 0-0.0457-0.0286-0.0457-0.0494 0-0.0152 0.0104-0.0272 0.0263-0.0272l1.4e-4 4e-3c-8e-3 0-0.0155 6e-3 -0.0155 0.0189 0 5e-3 2e-3 0.0194 8e-3 0.0295 7e-3 0.0121 0.0178 0.0146 0.0237 0.0146 0.0146 0 0.0158-0.0115 0.0158-0.0167 0-8e-3 -4e-3 -0.0225-9e-3 -0.0313-6e-3 -0.0103-0.016-0.0148-0.0229-0.0148l-1.5e-4 -4e-3c0.0204 0 0.0436 0.0209 0.0436 0.0476 0 2e-3 0 0.0112-5e-3 0.0189z"/><path d="m656.23 486.36-1.5e-4 -4.3e-4 -1.5e-4 -4.2e-4 -1.6e-4 -4.4e-4 -1.4e-4 -4.3e-4 -3e-4 -8.6e-4 -3.1e-4 -8e-4 -4.3e-4 -4.3e-4 -1.4e-4 -4.4e-4 -4.5e-4 -4.3e-4 -4.3e-4 -4.4e-4 -1.5e-4 -4.2e-4 -4.3e-4 -4.3e-4 -4.3e-4 -4.4e-4 -4.3e-4 -4.3e-4 -4.4e-4 -4.2e-4 -4.3e-4 -4.5e-4 -4.4e-4 -4.2e-4 -4.2e-4 -4.3e-4 -4.3e-4 -4.4e-4 -4.2e-4 -4.2e-4 -4.4e-4 -4.3e-4 -4.3e-4 -1.7e-4 -4.3e-4 -4.3e-4 -4.4e-4 -1.5e-4 -4.3e-4 -1.4e-4 -4.3e-4 -1.6e-4 -4.3e-4 -1.5e-4h-8e-4l-4.3e-4 -1.6e-4c-4.3e-4 0-5e-3 0-6e-3 2e-3 5e-3 2e-3 5e-3 5e-3 5e-3 6e-3 0 2e-3 -2e-3 5e-3 -5e-3 5e-3 -4e-3 0-7e-3 -2e-3 -7e-3 -7e-3 0-6e-3 6e-3 -9e-3 0.0129-9e-3 5e-3 0 0.0107 4e-3 0.0136 8e-3 2e-3 -6e-3 9e-3 -8e-3 0.0146-8e-3 0.0142 0 0.0213 0.0152 0.0213 0.0185 0 2e-3 -2e-3 2e-3 -2e-3 2e-3 -2e-3 0-2e-3 -5.4e-4 -2e-3 -2e-3 -2e-3 -8e-3 -0.0103-0.0148-0.0167-0.0148-5e-3 0-7e-3 2e-3 -7e-3 8e-3 0 2e-3 2e-3 0.0142 6e-3 0.0276 2e-3 9e-3 8e-3 0.0124 0.0118 0.0124 4.3e-4 0 5e-3 0 6e-3 -2e-3 -4e-3 -7.9e-4 -5e-3 -5e-3 -5e-3 -6e-3 0-2e-3 2e-3 -5e-3 5e-3 -5e-3 2e-3 0 6e-3 2e-3 6e-3 7e-3 0 6e-3 -7e-3 9e-3 -0.0125 9e-3 -6e-3 0-0.011-5e-3 -0.0138-8e-3 -2e-3 5e-3 -7e-3 8e-3 -0.0147 8e-3 -0.0136 0-0.0214-0.015-0.0214-0.0187 0-2e-3 2e-3 -2e-3 2e-3 -2e-3 2e-3 0 2e-3 4.3e-4 2e-3 2e-3 2e-3 9e-3 0.0107 0.0147 0.0166 0.0147 5e-3 0 7e-3 -2e-3 7e-3 -8e-3 0-2e-3 -7.9e-4 -8e-3 -2e-3 -0.0125z"/><path d="m656.38 486.44h2e-3l4.4e-4 1.4e-4h7.9e-4l4.4e-4 1.6e-4h4.2e-4l4.3e-4 1.5e-4h4.4e-4l7.9e-4 2.9e-4 4.4e-4 1.6e-4 4.4e-4 1.5e-4 4.3e-4 1.5e-4 7.9e-4 8e-4 1.5e-4 1.5e-4 1.6e-4 1.5e-4v1.5e-4l1.5e-4 1.5e-4v1.5e-4l1.5e-4 1.6e-4v1.6e-4l1.5e-4 1.4e-4v5.9e-4l1.5e-4 1.5e-4v7.4e-4l1.4e-4 4.2e-4v5.9e-4c0 5e-3 -4e-3 5e-3 -6e-3 5e-3h-0.0398c-0.0263 0-0.0455-0.0286-0.0455-0.0494 0-0.0152 0.0104-0.0272 0.0263-0.0272l1.6e-4 4e-3c-8e-3 0-0.0155 6e-3 -0.0155 0.0188 0 5e-3 2e-3 0.0194 8e-3 0.0295 7e-3 0.0121 0.0178 0.0146 0.0237 0.0146 0.0146 0 0.0158-0.0115 0.0158-0.0167 0-8e-3 -4e-3 -0.0225-9e-3 -0.0312-6e-3 -0.0103-0.016-0.0148-0.0229-0.0148l-1.5e-4 -4e-3c0.0204 0 0.0436 0.021 0.0436 0.0476 0 2e-3 0 0.0112-5e-3 0.0188z"/><path d="m656.45 486.39v1.5e-4h1.4e-4v4.7e-4l1.6e-4 1.4e-4v4.5e-4l1.4e-4 1.4e-4v8.1e-4c0 2e-3 -2e-3 4e-3 -5e-3 4e-3 -8e-4 0-4e-3 -5.3e-4 -5e-3 -2e-3 -4.3e-4 -5.4e-4 -7.9e-4 -5e-3 -2e-3 -7e-3l-2e-3 -0.0103c-5.2e-4 -2e-3 -5e-3 -0.0182-5e-3 -0.0196-1.4e-4 0-5e-3 -0.0107-0.015-0.0107-8e-3 0-8e-3 8e-3 -8e-3 0.0103 0 6e-3 2e-3 0.0143 6e-3 0.0235 8e-4 4e-3 2e-3 5e-3 2e-3 7e-3 0 5e-3 -5e-3 0.0105-0.0115 0.0105-0.0124 0-0.0179-0.0166-0.0179-0.0187 0-2e-3 2e-3 -2e-3 2e-3 -2e-3 2e-3 0 2e-3 5.3e-4 2e-3 2e-3 2e-3 0.0103 8e-3 0.0148 0.013 0.0148 2e-3 0 2e-3 -7.9e-4 2e-3 -5e-3 0-2e-3 -8e-4 -5e-3 -2e-3 -7e-3 -5e-3 -0.0147-7e-3 -0.0192-7e-3 -0.0246 0-2e-3 0-7e-3 5e-3 -0.0115 4e-3 -2e-3 9e-3 -4e-3 0.0122-4e-3 5e-3 0 9e-3 2e-3 0.0133 5e-3 -2e-3 -6e-3 -2e-3 -0.0117-8e-3 -0.0179-2e-3 -4e-3 -8e-3 -7e-3 -0.0147-7e-3 -7.9e-4 0-6e-3 0-9e-3 5e-3 6e-3 5.3e-4 6e-3 6e-3 6e-3 6e-3 0 4e-3 -4e-3 5e-3 -5e-3 5e-3 -2e-3 0-7e-3 -2e-3 -7e-3 -8e-3s5e-3 -0.0107 0.0147-0.0107c0.0122 0 0.0272 9e-3 0.0311 0.0246z"/></g></g></g></g></g></g></g></g></g></g></g></g>
 </g>
</svg>
