<?xml version="1.0" encoding="UTF-8"?>
<svg width="150mm" height="100mm" version="1.1" viewBox="0 0 227.61 172.74" xmlns="http://www.w3.org/2000/svg" xmlns:cc="http://creativecommons.org/ns#" xmlns:dc="http://purl.org/dc/elements/1.1/" xmlns:ns0="http://www.iki.fi/pav/software/textext/" xmlns:rdf="http://www.w3.org/1999/02/22-rdf-syntax-ns#">
 <metadata>
  <rdf:RDF>
   <cc:Work rdf:about="">
    <dc:format>image/svg+xml</dc:format>
    <dc:type rdf:resource="http://purl.org/dc/dcmitype/StillImage"/>
    <dc:title/>
   </cc:Work>
  </rdf:RDF>
 </metadata>
 <defs>
  <marker id="Arrow1Mend" overflow="visible" orient="auto">
   <path transform="matrix(-.4 0 0 -.4 -4 0)" d="m0 0 5-5-17.5 5 17.5 5z" fill-opacity=".35266" fill-rule="evenodd" stroke="#000" stroke-opacity=".35266" stroke-width="1pt"/>
  </marker>
  <marker id="d" overflow="visible" orient="auto">
   <path transform="matrix(-.4 0 0 -.4 -4 0)" d="m0 0 5-5-17.5 5 17.5 5z" fill-opacity=".35266" fill-rule="evenodd" stroke="#000" stroke-opacity=".35266" stroke-width="1pt"/>
  </marker>
  <marker id="c" overflow="visible" orient="auto">
   <path transform="matrix(-.4 0 0 -.4 -4 0)" d="m0 0 5-5-17.5 5 17.5 5z" fill-opacity=".35266" fill-rule="evenodd" stroke="#000" stroke-opacity=".35266" stroke-width="1pt"/>
  </marker>
  <marker id="b" overflow="visible" orient="auto">
   <path transform="matrix(-.4 0 0 -.4 -4 0)" d="m0 0 5-5-17.5 5 17.5 5z" fill-opacity=".35266" fill-rule="evenodd" stroke="#000" stroke-opacity=".35266" stroke-width="1pt"/>
  </marker>
  <marker id="a" overflow="visible" orient="auto">
   <path transform="matrix(-.4 0 0 -.4 -4 0)" d="m0 0 5-5-17.5 5 17.5 5z" fill-opacity=".35266" fill-rule="evenodd" stroke="#000" stroke-opacity=".35266" stroke-width="1pt"/>
  </marker>
 </defs>
 <g transform="translate(-25.472 -34.403)">
  <g transform="matrix(1.5 0 0 -1.5 -677.6 1115.4)" fill-rule="evenodd" stroke="#000" stroke-miterlimit="10.433" stroke-opacity=".23529" ns0:preamble="default_packages.tex" ns0:text='$$\\text{TRAINING SET}$$\n$$\\text{Spam}$$\n$$\\text{Ham}$$\n$$\\text{Letter containing word "buy"}$$\n\n' xml:space="preserve"><ellipse transform="scale(1,-1)" cx="537.49" cy="-671.67" rx="68.414" ry="48.633" fill="none" stroke="#000" stroke-linecap="square" stroke-miterlimit="10.433" stroke-opacity=".48792" stroke-width=".72267"/><g fill-opacity=".37198" stroke="none"><circle transform="scale(1,-1)" cx="498.5" cy="-680.68" r="1.4489"/><g fill-rule="evenodd"><circle transform="scale(1,-1)" cx="523.42" cy="-668.96" r="1.4489"/><circle transform="scale(1,-1)" cx="530.54" cy="-690.25" r="1.4489"/><circle transform="scale(1,-1)" cx="532.68" cy="-693.72" r="1.4489"/><circle transform="scale(1,-1)" cx="500.79" cy="-697.29" r="1.4489"/><circle transform="scale(1,-1)" cx="521.63" cy="-643.92" r="1.4489"/><circle transform="scale(1,-1)" cx="572.24" cy="-664.95" r="1.4489"/><circle transform="scale(1,-1)" cx="569.39" cy="-678.13" r="1.4489"/><circle transform="scale(1,-1)" cx="562.79" cy="-681.34" r="1.4489"/><circle transform="scale(1,-1)" cx="544.26" cy="-648.2" r="1.4489"/><circle transform="scale(1,-1)" cx="551.39" cy="-663.34" r="1.4489"/><circle transform="scale(1,-1)" cx="556.91" cy="-680.27" r="1.4489"/><circle transform="scale(1,-1)" cx="547.83" cy="-687.58" r="1.4489"/><circle transform="scale(1,-1)" cx="540.88" cy="-693.99" r="1.4489"/><circle transform="scale(1,-1)" cx="580.43" cy="-679.2" r="1.4489"/><circle transform="scale(1,-1)" cx="560.83" cy="-694.53" r="1.4489"/><circle transform="scale(1,-1)" cx="548.72" cy="-696.31" r="1.4489"/><circle transform="scale(1,-1)" cx="495.09" cy="-644.46" r="1.4489"/><circle transform="scale(1,-1)" cx="491.17" cy="-657.64" r="1.4489"/><circle transform="scale(1,-1)" cx="520.39" cy="-672.97" r="1.4489"/><circle transform="scale(1,-1)" cx="525.02" cy="-685.62" r="1.4489"/><circle transform="scale(1,-1)" cx="523.59" cy="-711.81" r="1.4489"/><circle transform="scale(1,-1)" cx="534.46" cy="-660.85" r="1.4489"/><circle transform="scale(1,-1)" cx="571.8" cy="-643.36" r="1.4489"/><circle transform="scale(1,-1)" cx="549.84" cy="-632.23" r="1.4489"/><circle transform="scale(1,-1)" cx="566.47" cy="-643.95" r="1.4489"/><circle transform="scale(1,-1)" cx="552.61" cy="-658.82" r="1.4489"/><circle transform="scale(1,-1)" cx="596.96" cy="-656.55" r="1.4489"/><circle transform="scale(1,-1)" cx="585.87" cy="-655.79" r="1.4489"/><circle transform="scale(1,-1)" cx="597.72" cy="-673.06" r="1.4489"/><circle transform="scale(1,-1)" cx="578.44" cy="-695.61" r="1.4489"/><circle transform="scale(1,-1)" cx="547.95" cy="-715.39" r="1.4489"/><circle transform="scale(1,-1)" cx="564.33" cy="-710.73" r="1.4489"/><circle transform="scale(1,-1)" cx="479.66" cy="-668.39" r="1.4489"/><circle transform="scale(1,-1)" cx="483.82" cy="-688.43" r="1.4489"/><circle transform="scale(1,-1)" cx="510.4" cy="-711.23" r="1.4489"/><circle transform="scale(1,-1)" cx="518.85" cy="-683.13" r="1.4489"/><circle transform="scale(1,-1)" cx="534.72" cy="-700.77" r="1.4489"/><circle transform="scale(1,-1)" cx="517.71" cy="-692.46" r="1.4489"/><circle transform="scale(1,-1)" cx="517.21" cy="-710.22" r="1.4489"/><circle transform="scale(1,-1)" cx="511.54" cy="-648.11" r="1.4489"/><circle transform="scale(1,-1)" cx="510.03" cy="-666.5" r="1.4489"/><circle transform="scale(1,-1)" cx="507.63" cy="-692.71" r="1.4489"/><circle transform="scale(1,-1)" cx="481.43" cy="-656.42" r="1.4489"/><circle transform="scale(1,-1)" cx="489.62" cy="-672.3" r="1.4489"/><circle transform="scale(1,-1)" cx="491.13" cy="-699.14" r="1.4489"/><circle transform="scale(1,-1)" cx="536.61" cy="-626.94" r="1.4489"/><circle transform="scale(1,-1)" cx="530.18" cy="-645.71" r="1.4489"/><circle transform="scale(1,-1)" cx="536.48" cy="-678.98" r="1.4489"/><circle transform="scale(1,-1)" cx="513.3" cy="-631.48" r="1.4489"/><circle transform="scale(1,-1)" cx="501.96" cy="-655.04" r="1.4489"/><circle transform="scale(1,-1)" cx="500.7" cy="-676.46" r="1.4489"/><circle transform="scale(1,-1)" cx="510.03" cy="-678.6" r="1.4489"/><circle transform="scale(1,-1)" cx="522.12" cy="-659.2" r="1.4489"/><circle transform="scale(1,-1)" cx="549.46" cy="-670.91" r="1.4489"/><circle transform="scale(1,-1)" cx="592.55" cy="-671.04" r="1.4489"/><circle transform="scale(1,-1)" cx="592.17" cy="-682" r="1.4489"/><circle transform="scale(1,-1)" cx="571.38" cy="-689.06" r="1.4489"/><circle transform="scale(1,-1)" cx="573.02" cy="-705.06" r="1.4489"/><circle transform="scale(1,-1)" cx="569.92" cy="-639.29" r="1.4489"/><circle transform="scale(1,-1)" cx="568.32" cy="-646.24" r="1.4489"/><circle transform="scale(1,-1)" cx="557.85" cy="-630.56" r="1.4489"/><circle transform="scale(1,-1)" cx="554.51" cy="-646.46" r="1.4489"/><circle transform="scale(1,-1)" cx="528.25" cy="-627.78" r="1.4489"/><circle transform="scale(1,-1)" cx="560.68" cy="-669.28" r="1.4489"/><circle transform="scale(1,-1)" cx="563.95" cy="-656.3" r="1.4489"/><circle transform="scale(1,-1)" cx="591.42" cy="-656.68" r="1.4489"/><circle transform="scale(1,-1)" cx="581.46" cy="-671.17" r="1.4489"/><circle transform="scale(1,-1)" cx="582.6" cy="-643.32" r="1.4489"/><circle transform="scale(1,-1)" cx="575.29" cy="-655.29" r="1.4489"/><circle transform="scale(1,-1)" cx="531.44" cy="-672.17" r="1.4489"/><circle transform="scale(1,-1)" cx="541.27" cy="-666.13" r="1.4489"/><circle transform="scale(1,-1)" cx="503.85" cy="-634.63" r="1.4489"/><circle transform="scale(1,-1)" cx="498.06" cy="-664.24" r="1.4489"/></g></g><g id="content" transform="matrix(1.5 0 0 1.5 229.78 -466.25)" fill-rule="evenodd" stroke="#000" stroke-miterlimit="10.433" stroke-opacity="1" ns0:preamble="default_packages.tex" ns0:text="$events elementary outcomes$\n" xml:space="preserve"><ellipse transform="scale(1,-1)" cx="177.64" cy="-754.19" rx="7.8993" ry="12.176" fill="#0084ff" fill-opacity=".33712" stroke="none"/><g stroke-width="0"><path d="m176.59 717.66h0.1001l0.0209 4e-3h0.0585l0.0209 4e-3h0.0209l0.0209 4e-3 0.0416 4e-3 0.0916 8e-3 0.0458 8e-3 0.0417 8e-3 0.0458 0.0125 0.0209 4e-3 0.025 8e-3 0.0209 4e-3 0.0209 8e-3 0.0167 8e-3 0.0209 8e-3c0.29171 0.12502 0.31255 0.36673 0.31255 0.42508 0 0.18336-0.15836 0.35422-0.44591 0.35422v-0.0917c0.19587 0 0.30839-0.12085 0.30839-0.26254 0-0.42924-0.66261-0.42924-0.83348-0.42924h-0.17086c0.16253 0.62927 0.5876 0.69178 0.69595 0.69178v0.0917c-0.45841 0-1.0877-0.40423-1.0877-1.1294 0-0.4209 0.24587-0.74596 0.65427-0.74596 0.59177 0 0.94183 0.43757 0.94183 0.48758 0 0.025-0.025 0.0542-0.05 0.0542-0.0209 0-0.0292-8e-3 -0.0542-0.0417-0.32922-0.41257-0.7793-0.41257-0.8293-0.41257-0.32506 0-0.36256 0.35006-0.36256 0.48342 0 0.05 4e-3 0.17503 0.0667 0.42924z"/><path d="m179.69 718.24v0.0285l-4e-3 0.0125v0.032l-0.016 0.0668-0.016 0.05-8e-3 8e-3 -4e-3 0.0125-8e-3 8e-3 -4e-3 8e-3 -0.016 0.016-8e-3 4e-3 -4e-3 8e-3 -0.04 0.02-4e-3 4e-3h-8e-3l-8e-3 4e-3h-0.016l-4e-3 4e-3h-8e-3c-0.10419 0-0.2042-0.10836-0.2042-0.20004 0-0.0542 0.0209-0.0792 0.0667-0.12502 0.0875-0.0833 0.1417-0.1917 0.1417-0.33756 0-0.17502-0.25422-1.1252-0.74179-1.1252-0.21254 0-0.30422 0.14585-0.30422 0.36255 0 0.23338 0.11252 0.53343 0.23754 0.87515 0.0292 0.0709 0.05 0.12919 0.05 0.20837 0 0.18754-0.12918 0.34173-0.33756 0.34173-0.39173 0-0.55008-0.60011-0.55008-0.63762 0-0.0416 0.0416-0.0416 0.05-0.0416 0.0417 0 0.0458 8e-3 0.0667 0.075 0.12085 0.41674 0.30005 0.51258 0.4209 0.51258 0.0334 0 0.10418 0 0.10418-0.13335 0-0.10418-0.0417-0.2167-0.0708-0.29172-0.18337-0.47924-0.23754-0.67094-0.23754-0.84597 0-0.45007 0.36673-0.51259 0.55426-0.51259 0.70011 0 0.93766 1.3669 0.93766 1.5836z"/><path d="m180.69 717.66h0.1043l0.0167 4e-3h0.0585l0.0209 4e-3h0.0209l0.0209 4e-3 0.0458 4e-3 0.0416 4e-3 0.0458 4e-3 0.0916 0.016 0.0458 0.0125 0.0209 4e-3 0.0209 8e-3 0.0209 4e-3 0.0627 0.024c0.29171 0.12502 0.31255 0.36673 0.31255 0.42508 0 0.18336-0.15836 0.35422-0.4459 0.35422v-0.0917c0.19586 0 0.30838-0.12085 0.30838-0.26254 0-0.42924-0.66678-0.42924-0.83764-0.42924h-0.17087c0.16253 0.62927 0.59177 0.69178 0.70013 0.69178v0.0917c-0.46258 0-1.0877-0.40423-1.0877-1.1294 0-0.4209 0.24587-0.74596 0.65011-0.74596 0.59593 0 0.94599 0.43757 0.94599 0.48758 0 0.025-0.025 0.0542-0.05 0.0542-0.0209 0-0.0292-8e-3 -0.0542-0.0417-0.32922-0.41257-0.78346-0.41257-0.83347-0.41257-0.32505 0-0.36256 0.35006-0.36256 0.48342 0 0.05 8e-3 0.17503 0.0667 0.42924z"/><path d="m182.21 716.94v-0.012l-4e-3 -4e-3v-8e-3l-4e-3 -0.0125v-0.0125l-4e-3 -0.0125-4e-3 -0.0167v-0.0125l-4e-3 -0.0125-4e-3 -4e-3v-0.02l-4e-3 -4e-3v-0.012l-4e-3 -4e-3v-0.024l-4e-3 -4e-3c0-0.075 0.0583-0.10835 0.12085-0.10835 0.05 0 0.12502 0.0292 0.15419 0.11252 4e-3 8e-3 0.0542 0.2042 0.0792 0.30838l0.0917 0.3709c0.025 0.0917 0.05 0.18336 0.0709 0.27921 0.0167 0.0709 0.05 0.1917 0.0541 0.20837 0.0625 0.12502 0.28338 0.50425 0.67928 0.50425 0.18337 0 0.22087-0.15419 0.22087-0.29172 0-0.25421-0.20003-0.78763-0.26671-0.96265-0.0375-0.0959-0.0417-0.14586-0.0417-0.1917 0-0.19587 0.14586-0.33756 0.33756-0.33756 0.39173 0 0.54592 0.60427 0.54592 0.6376 0 0.0417-0.0375 0.0417-0.05 0.0417-0.0417 0-0.0417-0.0167-0.0625-0.075-0.0833-0.28339-0.22087-0.51676-0.42507-0.51676-0.0709 0-0.0958 0.0417-0.0958 0.13753 0 0.10418 0.0333 0.2042 0.0709 0.29588 0.0792 0.2167 0.2542 0.67511 0.2542 0.90849 0 0.27921-0.17919 0.4459-0.47508 0.4459-0.37506 0-0.57926-0.26671-0.65011-0.36256-0.0209 0.23338-0.19169 0.36256-0.38339 0.36256s-0.26671-0.16253-0.31256-0.23754c-0.0667-0.14169-0.12085-0.38339-0.12085-0.40007 0-0.0417 0.0417-0.0417 0.05-0.0417 0.0375 0 0.0458 4e-3 0.0708 0.0917 0.0709 0.29589 0.15003 0.49592 0.30005 0.49592 0.0833 0 0.12919-0.0542 0.12919-0.1917 0-0.0875-0.0125-0.13335-0.0667-0.34589z"/><path d="m185.19 718.36h0.39173c0.0833 0 0.12502 0 0.12502 0.0833 0 0.0458-0.0417 0.0458-0.11668 0.0458h-0.36673c0.15002 0.58759 0.17086 0.67094 0.17086 0.69595 0 0.0667-0.05 0.10835-0.12085 0.10835-0.0125 0-0.1292-4e-3 -0.1667-0.14586l-0.16252-0.65844h-0.39174c-0.0792 0-0.12085 0-0.12085-0.0792 0-0.05 0.0292-0.05 0.11252-0.05h0.36673c-0.30006-1.1752-0.31672-1.246-0.31672-1.3211 0-0.22504 0.15835-0.37923 0.38339-0.37923 0.42508 0 0.66261 0.60427 0.66261 0.63761 0 0.0417-0.0334 0.0417-0.05 0.0417-0.0375 0-0.0417-0.0167-0.0625-0.0583-0.17921-0.4334-0.40007-0.53342-0.54176-0.53342-0.0875 0-0.12919 0.0542-0.12919 0.1917 0 0.10002 8e-3 0.12919 0.025 0.20003z"/><path d="m187.46 718.25h-0.0205l-8e-3 -4e-3h-0.0125l-0.016-8e-3h-0.0125l-0.024-0.012-8e-3 -8e-3 -0.016-8e-3 -0.02-0.02-8e-3 -4e-3 -4e-3 -8e-3 -8e-3 -4e-3 -0.028-0.056v-8e-3l-4e-3 -8e-3v-0.016l-4e-3 -8e-3v-8e-3c0-0.0583 0.0375-0.12086 0.12919-0.12086 0.0917 0 0.1917 0.0709 0.1917 0.23337 0 0.18754-0.1792 0.3584-0.49175 0.3584-0.55009 0-0.70428-0.42507-0.70428-0.60427 0-0.32506 0.30838-0.38756 0.42924-0.41256 0.2167-0.0417 0.42924-0.0875 0.42924-0.31256 0-0.10835-0.0959-0.45841-0.59177-0.45841-0.0583 0-0.37923 0-0.47508 0.22087 0.15836-0.0209 0.26254 0.10418 0.26254 0.22087 0 0.0959-0.0667 0.14586-0.15419 0.14586-0.10835 0-0.23337-0.0875-0.23337-0.27505 0-0.23753 0.23754-0.40006 0.59593-0.40006 0.67095 0 0.83347 0.50008 0.83347 0.68345 0 0.15002-0.0792 0.2542-0.12919 0.30421-0.11251 0.11669-0.2292 0.13753-0.41256 0.17503-0.15003 0.0333-0.31672 0.0625-0.31672 0.24588 0 0.12085 0.10002 0.37505 0.46674 0.37505 0.10419 0 0.30839-0.0292 0.3709-0.19169z"/><path d="m214.27 717.73h0.1043l0.0167 4e-3h0.0585l0.0209 4e-3h0.0209l0.0209 4e-3 0.0416 4e-3 0.0916 8e-3 0.0916 0.016 0.0417 0.0125 0.025 4e-3 0.0209 8e-3 0.0209 4e-3 0.0627 0.024c0.28755 0.12503 0.30839 0.36673 0.30839 0.42508 0 0.18336-0.15836 0.35422-0.44174 0.35422v-0.0917c0.1917 0 0.30421-0.12085 0.30421-0.26254 0-0.42924-0.66261-0.42924-0.83346-0.42924h-0.17087c0.16253 0.62927 0.59177 0.69178 0.70012 0.69178v0.0917c-0.46258 0-1.0918-0.40423-1.0918-1.1294 0-0.4209 0.24588-0.74596 0.65428-0.74596 0.59593 0 0.94182 0.43758 0.94182 0.48759 0 0.025-0.025 0.0541-0.05 0.0541-0.0209 0-0.0292-8e-3 -0.0542-0.0417-0.32505-0.41257-0.77929-0.41257-0.8293-0.41257-0.32506 0-0.36256 0.35006-0.36256 0.48341 0 0.05 4e-3 0.17504 0.0667 0.42924z"/><path d="m216.5 719.6v4e-3l-4e-3 4e-3v0.012h-4e-3v4e-3l-0.012 0.012h-4e-3v4e-3h-0.012l-4e-3 4e-3h-0.012c-0.0959 0-0.40007-0.0334-0.50842-0.0417-0.0334-4e-3 -0.0792-8e-3 -0.0792-0.0875 0-0.0458 0.0417-0.0458 0.10418-0.0458 0.20004 0 0.2042-0.0375 0.2042-0.0708l-0.0125-0.0833-0.52508-2.067c-0.0125-0.0458-0.0209-0.075-0.0209-0.14169 0-0.23754 0.18337-0.37923 0.37923-0.37923 0.13752 0 0.24171 0.0792 0.31255 0.22921 0.075 0.15836 0.12503 0.40007 0.12503 0.4084 0 0.0417-0.0375 0.0417-0.05 0.0417-0.0417 0-0.0458-0.0209-0.0583-0.075-0.0709-0.27088-0.15003-0.51675-0.31672-0.51675-0.12502 0-0.12502 0.13336-0.12502 0.1917 0 0.10001 4e-3 0.12085 0.025 0.20003z"/><path d="m217.53 717.73h0.1043l0.0167 4e-3h0.0585l0.0209 4e-3h0.0209l0.0209 4e-3 0.0417 4e-3 0.0916 8e-3 0.0916 0.016 0.0417 0.0125 0.025 4e-3 0.0209 8e-3 0.0209 4e-3 0.0627 0.024c0.28754 0.12503 0.30838 0.36673 0.30838 0.42508 0 0.18336-0.15836 0.35422-0.44174 0.35422v-0.0917c0.1917 0 0.30422-0.12085 0.30422-0.26254 0-0.42924-0.66261-0.42924-0.83348-0.42924h-0.17085c0.16252 0.62927 0.59176 0.69178 0.70011 0.69178v0.0917c-0.46257 0-1.0918-0.40423-1.0918-1.1294 0-0.4209 0.24587-0.74596 0.65428-0.74596 0.59176 0 0.94182 0.43758 0.94182 0.48759 0 0.025-0.025 0.0541-0.05 0.0541-0.0209 0-0.0292-8e-3 -0.0541-0.0417-0.32505-0.41257-0.7793-0.41257-0.82931-0.41257-0.32505 0-0.36255 0.35006-0.36255 0.48341 0 0.05 4e-3 0.17504 0.0667 0.42924z"/><path d="m219.05 717.02v-0.012l-4e-3 -4e-3v-8e-3l-8e-3 -0.025v-0.0125l-4e-3 -0.0167-8e-3 -0.025v-0.012l-4e-3 -4e-3v-0.016l-4e-3 -8e-3v-0.016l-4e-3 -4e-3v-0.012c0-0.075 0.0583-0.10836 0.12085-0.10836 0.05 0 0.12503 0.0292 0.1542 0.11252 4e-3 8e-3 0.0541 0.2042 0.0792 0.30839l0.0917 0.3709c0.025 0.0917 0.05 0.18336 0.0709 0.27921 0.0167 0.0708 0.05 0.1917 0.0542 0.20837 0.0625 0.12502 0.28338 0.50425 0.67512 0.50425 0.18752 0 0.22503-0.15419 0.22503-0.29172 0-0.10419-0.0292-0.2167-0.0625-0.34172l-0.11669-0.47925-0.0833-0.31672c-0.0167-0.0833-0.0542-0.22504-0.0542-0.24587 0-0.075 0.0583-0.10836 0.12086-0.10836 0.12918 0 0.15419 0.10002 0.18753 0.23338 0.0583 0.23337 0.21253 0.83764 0.25004 1.0002 0.0125 0.05 0.23337 0.5501 0.68345 0.5501 0.17919 0 0.22503-0.14169 0.22503-0.29172 0-0.23337-0.17086-0.70845-0.2542-0.92515-0.0375-0.10002-0.0542-0.14586-0.0542-0.22921 0-0.19587 0.14168-0.33756 0.33755-0.33756 0.39173 0 0.54592 0.60427 0.54592 0.63761 0 0.0417-0.0375 0.0417-0.05 0.0417-0.0417 0-0.0417-0.0167-0.0625-0.075-0.0625-0.22088-0.19587-0.51676-0.42507-0.51676-0.0709 0-0.10002 0.0417-0.10002 0.13752 0 0.10419 0.0375 0.2042 0.075 0.29589 0.0792 0.21253 0.2542 0.67511 0.2542 0.90848 0 0.27088-0.16669 0.44591-0.47507 0.44591-0.31256 0-0.52509-0.18337-0.67928-0.40424-4e-3 0.0542-0.0167 0.19587-0.13336 0.29588-0.10419 0.0875-0.23754 0.10836-0.34172 0.10836-0.3709 0-0.5751-0.26671-0.64594-0.36256-0.0209 0.23754-0.19587 0.36256-0.38341 0.36256-0.19169 0-0.27087-0.16253-0.30838-0.23754-0.075-0.14586-0.12918-0.38756-0.12918-0.40007 0-0.0416 0.0416-0.0416 0.05-0.0416 0.0416 0 0.0458 4e-3 0.0708 0.0917 0.0709 0.29588 0.1542 0.49592 0.30422 0.49592 0.0667 0 0.12919-0.0334 0.12919-0.1917 0-0.0875-0.0125-0.13336-0.0667-0.3459z"/><path d="m223.11 717.73h0.0998l0.0209 4e-3h0.0543l0.0209 4e-3h0.0209l0.0209 4e-3 0.1374 0.012 0.0417 8e-3 0.0458 8e-3 0.0458 0.0125 0.0209 4e-3 0.0209 8e-3 0.0209 4e-3 0.0627 0.024c0.29172 0.12503 0.31256 0.36673 0.31256 0.42508 0 0.18336-0.15836 0.35422-0.44591 0.35422v-0.0917c0.19587 0 0.30839-0.12085 0.30839-0.26254 0-0.42924-0.66679-0.42924-0.83348-0.42924h-0.17086c0.16253 0.62927 0.5876 0.69178 0.69595 0.69178v0.0917c-0.45841 0-1.0877-0.40423-1.0877-1.1294 0-0.4209 0.24587-0.74596 0.65428-0.74596 0.59176 0 0.94182 0.43758 0.94182 0.48759 0 0.025-0.025 0.0541-0.05 0.0541-0.0209 0-0.0292-8e-3 -0.0541-0.0417-0.32922-0.41257-0.7793-0.41257-0.83347-0.41257-0.32089 0-0.3584 0.35006-0.3584 0.48341 0 0.05 4e-3 0.17504 0.0667 0.42924z"/><path d="m224.63 717.02-4e-3 -4e-3v-0.012l-4e-3 -8e-3v-0.0125l-8e-3 -0.025v-0.0167l-8e-3 -0.025v-4e-3l-4e-3 -8e-3v-0.012l-4e-3 -4e-3v-0.016l-4e-3 -4e-3v-0.024c0-0.075 0.0583-0.10836 0.12085-0.10836 0.05 0 0.12085 0.0292 0.15419 0.11252 0 8e-3 0.0541 0.2042 0.0792 0.30839l0.0875 0.3709c0.025 0.0917 0.05 0.18336 0.0708 0.27921 0.0167 0.0708 0.05 0.1917 0.0542 0.20837 0.0625 0.12502 0.28338 0.50425 0.67928 0.50425 0.18753 0 0.22504-0.15419 0.22504-0.29172 0-0.25421-0.2042-0.78763-0.27088-0.96266-0.0375-0.0958-0.0417-0.14586-0.0417-0.1917 0-0.19587 0.14585-0.33756 0.34172-0.33756 0.38756 0 0.54176 0.60427 0.54176 0.63761 0 0.0417-0.0375 0.0417-0.05 0.0417-0.0417 0-0.0417-0.0167-0.0625-0.075-0.0833-0.28339-0.22087-0.51676-0.4209-0.51676-0.0708 0-0.10002 0.0417-0.10002 0.13752 0 0.10419 0.0375 0.2042 0.075 0.29589 0.0792 0.2167 0.25005 0.67511 0.25005 0.90848 0 0.27922-0.17503 0.44591-0.47508 0.44591-0.37506 0-0.57926-0.26671-0.65011-0.36256-0.0209 0.23337-0.1917 0.36256-0.37923 0.36256-0.1917 0-0.27088-0.16253-0.31255-0.23754-0.0667-0.14169-0.12502-0.3834-0.12502-0.40007 0-0.0416 0.0416-0.0416 0.05-0.0416 0.0417 0 0.0458 4e-3 0.0708 0.0917 0.0709 0.29588 0.15419 0.49592 0.30422 0.49592 0.0792 0 0.12919-0.0542 0.12919-0.1917 0-0.0875-0.0125-0.13336-0.0708-0.3459z"/><path d="m227.61 718.43h0.39173c0.0833 0 0.12502 0 0.12502 0.0833 0 0.0458-0.0417 0.0458-0.11668 0.0458h-0.36673c0.15002 0.5876 0.17086 0.67094 0.17086 0.69595 0 0.0667-0.05 0.10835-0.12085 0.10835-0.0125 0-0.1292-4e-3 -0.1667-0.14586l-0.15836-0.65844h-0.39173c-0.0833 0-0.12502 0-0.12502-0.0792 0-0.05 0.0333-0.05 0.11668-0.05h0.36673c-0.30005-1.1752-0.31672-1.246-0.31672-1.3211 0-0.22504 0.15836-0.37923 0.37923-0.37923 0.42507 0 0.66262 0.60427 0.66262 0.63761 0 0.0417-0.0333 0.0417-0.05 0.0417-0.0375 0-0.0417-0.0167-0.0625-0.0583-0.17919-0.4334-0.40007-0.53342-0.54176-0.53342-0.0833 0-0.12918 0.0542-0.12918 0.1917 0 0.10002 8e-3 0.12918 0.025 0.20003z"/><path d="m229.81 718.34-8e-3 0.0125-8e-3 0.0167-0.056 0.0875-0.0125 0.0125-8e-3 0.0125-0.0125 8e-3 -8e-3 0.0125-0.0125 8e-3 -0.0205 0.0205-0.025 0.016-0.0125 4e-3 -0.025 0.016-0.0167 4e-3 -0.0125 8e-3 -0.0125 4e-3 -0.0334 8e-3 -0.0125 4e-3h-0.0167l-0.0167 4e-3h-0.0167l-0.0167 4e-3h-0.0167c-0.48758 0-1.0002-0.6126-1.0002-1.2169 0-0.38757 0.22504-0.65845 0.55009-0.65845l8e-3 0.0875c-0.20837 0-0.26671 0.2292-0.26671 0.39173 0 0.2042 0.13336 0.71678 0.2292 0.90432 0.12919 0.24588 0.31672 0.40007 0.48341 0.40007 0.27089 0 0.32923-0.34173 0.32923-0.36673s-8e-3 -0.05-0.0125-0.0709l-0.20837-0.80847c-0.0209-0.075-0.0209-0.0833-0.0834-0.15419-0.18336-0.2292-0.35422-0.29588-0.47091-0.29588l-8e-3 -0.0875c0.0833 0 0.29172 0.0125 0.54176 0.30838 0.0333-0.17502 0.1792-0.30838 0.37507-0.30838 0.14585 0 0.2417 0.0917 0.30838 0.22504 0.0708 0.15002 0.12502 0.40423 0.12502 0.41256 0 0.0417-0.0375 0.0417-0.05 0.0417-0.0417 0-0.0458-0.0209-0.0583-0.075-0.0708-0.27089-0.14585-0.51676-0.31254-0.51676-0.11252 0-0.12502 0.10836-0.12502 0.1917 0 0.0917 8e-3 0.12502 0.0541 0.30838 0.0458 0.17087 0.05 0.21254 0.0917 0.3709l0.14586 0.57926c0.0292 0.11669 0.0292 0.12502 0.0292 0.14169 0 0.0709-0.05 0.11252-0.12085 0.11252-0.0959 0-0.15837-0.0917-0.17087-0.18336z"/><path d="m230.81 717.02v-4e-3l-4e-3 -8e-3v-0.012l-8e-3 -0.025v-0.0125l-4e-3 -0.0167-8e-3 -0.025v-0.012l-4e-3 -4e-3v-0.012l-4e-3 -4e-3v-0.02l-4e-3 -4e-3v-0.016c0-0.075 0.0583-0.10836 0.12085-0.10836 0.05 0 0.12503 0.0292 0.1542 0.11252 8e-3 0.0167 0.15002 0.57927 0.1667 0.65428 0.0334 0.13752 0.10834 0.42924 0.13335 0.54176 0.0167 0.05 0.13336 0.24587 0.2292 0.33755 0.0334 0.0292 0.15419 0.13753 0.33339 0.13753 0.10835 0 0.17087-0.05 0.17503-0.05-0.12502-0.0209-0.2167-0.12085-0.2167-0.2292 0-0.0667 0.0458-0.14586 0.15836-0.14586 0.11251 0 0.22921 0.0959 0.22921 0.24588 0 0.14585-0.13336 0.27087-0.3459 0.27087-0.27088 0-0.45007-0.2042-0.52925-0.32088-0.0334 0.18752-0.18337 0.32088-0.37923 0.32088-0.1917 0-0.27088-0.16252-0.30839-0.23754-0.075-0.14169-0.12919-0.38756-0.12919-0.40006 0-0.0417 0.0417-0.0417 0.05-0.0417 0.0417 0 0.0458 4e-3 0.0709 0.0917 0.0708 0.29588 0.15419 0.49591 0.30422 0.49591 0.0708 0 0.12919-0.0334 0.12919-0.19169 0-0.0875-0.0125-0.13336-0.0667-0.3459z"/><path d="m234.46 718.35v4e-3h4e-3v0.012l4e-3 4e-3v0.012h4e-3v0.016l4e-3 4e-3v0.04c0 0.075-0.0583 0.11252-0.12085 0.11252-0.0417 0-0.10835-0.025-0.14586-0.0875-8e-3 -0.0209-0.0417-0.15002-0.0541-0.22503-0.0334-0.10836-0.0583-0.2167-0.0833-0.32922l-0.18754-0.74596c-0.0167-0.0625-0.19586-0.35423-0.47091-0.35423-0.21253 0-0.25837 0.18336-0.25837 0.33756 0 0.1917 0.0709 0.44591 0.21254 0.81264 0.0667 0.16669 0.0833 0.21253 0.0833 0.29588 0 0.18753-0.13335 0.34172-0.34173 0.34172-0.39589 0-0.54592-0.6001-0.54592-0.6376 0-0.0417 0.0375-0.0417 0.05-0.0417 0.0375 0 0.0458 8e-3 0.0667 0.075 0.10835 0.38757 0.27504 0.51259 0.41673 0.51259 0.0334 0 0.10419 0 0.10419-0.13336 0-0.10418-0.0417-0.21254-0.0709-0.29172-0.1667-0.43756-0.24171-0.67511-0.24171-0.8668 0-0.3709 0.26255-0.49175 0.50842-0.49175 0.16253 0 0.30421 0.0667 0.4209 0.18336-0.0542-0.21253-0.10418-0.41673-0.27088-0.63761-0.10835-0.14169-0.26671-0.25837-0.45841-0.25837-0.0583 0-0.24587 0.0125-0.31672 0.17086 0.0667 0 0.12085 0 0.1792 0.05 0.0416 0.0375 0.0833 0.0917 0.0833 0.17087 0 0.12918-0.11251 0.14585-0.15419 0.14585-0.0958 0-0.2292-0.0667-0.2292-0.27088 0-0.2042 0.17919-0.35839 0.43757-0.35839 0.42924 0 0.85848 0.37506 0.971 0.84181z"/><path d="m238.25 718.01-4e-3 0.0375v0.0417l-8e-3 0.075-8e-3 0.0334-8e-3 0.0375-0.025 0.0668-0.025 0.0584-0.0334 0.0584-0.0209 0.0292-0.0167 0.025-0.0209 0.025-0.0459 0.0459-0.025 0.0209-0.025 0.0167-0.025 0.0209-0.025 0.0167-0.0292 0.0125-0.0292 0.0167-0.0584 0.025-0.0334 8e-3 -0.0292 8e-3 -0.0334 8e-3 -0.0666 8e-3h-0.0375l-0.0333 4e-3c-0.55843 0-1.1127-0.59177-1.1127-1.1794 0-0.4084 0.27922-0.69595 0.66262-0.69595l4e-3 0.0875c-0.17503 0-0.35839 0.12919-0.35839 0.45424 0 0.20004 0.10834 0.65011 0.2417 0.85848 0.2042 0.32089 0.44174 0.3834 0.55843 0.3834 0.24171 0 0.36673-0.20004 0.36673-0.45008 0-0.15836-0.0833-0.59593-0.24171-0.86264-0.14586-0.24171-0.37507-0.3834-0.56676-0.3834l-4e-3 -0.0875c0.55425 0 1.1168 0.57093 1.1168 1.1752z"/><path d="m239.77 717.11 4e-3 -0.0167 4e-3 -0.0125 8e-3 -0.0167 4e-3 -0.0125 8e-3 -0.0167 4e-3 -0.0125 0.024-0.0375 0.0125-0.0125 0.016-0.025 0.0125-8e-3 0.0205-0.0205 0.0125-8e-3 0.0125-0.0125 0.0125-4e-3 0.0125-8e-3 0.0167-8e-3 0.0125-8e-3 0.0125-4e-3 0.0167-8e-3 0.0125-4e-3 0.0167-4e-3 0.0125-4e-3 0.0167-4e-3h0.0167l0.0167-4e-3h0.0501c0.14169 0 0.24171 0.0917 0.30421 0.22504 0.0709 0.15003 0.12503 0.40424 0.12503 0.41257 0 0.0416-0.0375 0.0416-0.05 0.0416-0.0416 0-0.0458-0.0209-0.0583-0.075-0.0542-0.23338-0.13753-0.51675-0.30839-0.51675-0.0875 0-0.12919 0.0542-0.12919 0.19169 0 0.0917 0.05 0.28755 0.0833 0.42924l0.11669 0.45008c0.0125 0.0625 0.0541 0.2167 0.0667 0.27921 0.025 0.0959 0.0667 0.25421 0.0667 0.27921 0 0.075-0.0583 0.11252-0.12085 0.11252-0.0209 0-0.12919-4e-3 -0.16253-0.14585-0.0792-0.30422-0.26254-1.0293-0.31255-1.246-4e-3 -0.0167-0.17087-0.35006-0.47508-0.35006-0.21671 0-0.25838 0.18753-0.25838 0.34172 0 0.22921 0.11669 0.55843 0.22504 0.84598 0.05 0.12085 0.0709 0.17919 0.0709 0.25837 0 0.18753-0.13335 0.34173-0.34172 0.34173-0.39174 0-0.54593-0.6001-0.54593-0.63761 0-0.0417 0.0417-0.0417 0.05-0.0417 0.0416 0 0.0458 8e-3 0.0667 0.075 0.10419 0.3584 0.25838 0.51259 0.41674 0.51259 0.0375 0 0.10418-4e-3 0.10418-0.13752 0-0.10002-0.0458-0.22087-0.0708-0.28338-0.15002-0.40841-0.23754-0.66678-0.23754-0.86681 0-0.3959 0.28338-0.49592 0.50842-0.49592 0.27505 0 0.42507 0.18337 0.49591 0.27505z"/><path d="m241.55 718.53h0.38756c0.0834 0 0.12502 0 0.12502 0.0833 0 0.0458-0.0416 0.0458-0.11668 0.0458h-0.36256c0.14586 0.5876 0.16669 0.67095 0.16669 0.69595 0 0.0667-0.0458 0.10836-0.11668 0.10836-0.0125 0-0.12919-4e-3 -0.1667-0.14587l-0.16253-0.65844h-0.39173c-0.0833 0-0.12502 0-0.12502-0.0792 0-0.05 0.0333-0.05 0.11669-0.05h0.36672c-0.30004-1.1752-0.31671-1.246-0.31671-1.321 0-0.22504 0.15836-0.37923 0.38339-0.37923 0.42507 0 0.65845 0.60427 0.65845 0.6376 0 0.0417-0.0334 0.0417-0.05 0.0417-0.0375 0-0.0417-0.0167-0.0625-0.0583-0.17919-0.43341-0.39589-0.53343-0.53759-0.53343-0.0875 0-0.12919 0.0542-0.12919 0.1917 0 0.10002 8e-3 0.12919 0.025 0.20004z"/><path d="m243.84 718.45h-0.0625l-8e-3 -4e-3h-0.016l-8e-3 -4e-3h-0.012l-4e-3 -4e-3h-4e-3l-8e-3 -4e-3 -4e-3 -4e-3h-4e-3l-8e-3 -4e-3 -4e-3 -4e-3h-4e-3l-4e-3 -4e-3 -8e-3 -4e-3 -0.02-0.02c-0.0667-0.0625-0.075-0.13336-0.075-0.16253 0-0.0958 0.075-0.14169 0.1542-0.14169 0.12085 0 0.23337 0.0959 0.23337 0.26255 0 0.2042-0.19587 0.35839-0.49175 0.35839-0.55843 0-1.1127-0.59593-1.1127-1.1794 0-0.3709 0.24171-0.69595 0.67094-0.69595 0.59594 0 0.946 0.43757 0.946 0.48758 0 0.025-0.025 0.0542-0.05 0.0542-0.0209 0-0.0292-8e-3 -0.0542-0.0417-0.32922-0.41257-0.78346-0.41257-0.83347-0.41257-0.25837 0-0.37089 0.2042-0.37089 0.45425 0 0.16669 0.0833 0.57092 0.22504 0.82513 0.12501 0.23754 0.35422 0.41674 0.58343 0.41674 0.14169 0 0.30004-0.0542 0.35839-0.16669z"/><path d="m245.94 718.01v0.0375l-4e-3 0.0417-8e-3 0.075-8e-3 0.0334-8e-3 0.0375-0.025 0.0668-0.025 0.0584-0.0501 0.0876-0.0418 0.05-0.0459 0.0459-0.025 0.0209-0.025 0.0167-0.025 0.0209-0.025 0.0167-0.0292 0.0125-0.0292 0.0167-0.0584 0.025-0.0334 8e-3 -0.0292 8e-3 -0.0334 8e-3 -0.0666 8e-3h-0.0333l-0.0375 4e-3c-0.55426 0-1.1127-0.59177-1.1127-1.1794 0-0.4084 0.27922-0.69595 0.66678-0.69595l4e-3 0.0875c-0.17919 0-0.36256 0.12919-0.36256 0.45424 0 0.20004 0.10835 0.65011 0.24171 0.85848 0.2042 0.32089 0.44174 0.3834 0.55843 0.3834 0.2417 0 0.36672-0.20004 0.36672-0.45008 0-0.15836-0.0833-0.59593-0.24171-0.86264-0.14585-0.24171-0.37506-0.3834-0.56259-0.3834l-4e-3 -0.0875c0.55009 0 1.1127 0.57093 1.1127 1.1752z"/><path d="m246.37 717.12v-4e-3l-4e-3 -8e-3v-0.012l-0.012-0.0375v-0.0167l-8e-3 -0.025v-4e-3l-4e-3 -8e-3v-0.016l-4e-3 -4e-3v-0.016l-4e-3 -4e-3v-0.02c0-0.075 0.0583-0.10835 0.12086-0.10835 0.05 0 0.12502 0.0292 0.15419 0.11252 4e-3 8e-3 0.0541 0.2042 0.0792 0.30838l0.0917 0.3709c0.0209 0.0917 0.0458 0.18336 0.0667 0.27921 0.0209 0.0708 0.05 0.1917 0.0541 0.20837 0.0625 0.12502 0.28338 0.50425 0.67929 0.50425 0.18752 0 0.22503-0.15419 0.22503-0.29171 0-0.10419-0.0292-0.21671-0.0625-0.34173l-0.11669-0.47925-0.0833-0.31672c-0.0167-0.0833-0.0542-0.22503-0.0542-0.24587 0-0.075 0.0583-0.10835 0.12086-0.10835 0.12918 0 0.15419 0.10002 0.18753 0.23338 0.0583 0.23336 0.21253 0.83763 0.25004 1.0002 0.0125 0.05 0.2292 0.55009 0.68344 0.55009 0.1792 0 0.22504-0.14169 0.22504-0.29171 0-0.23338-0.17503-0.70846-0.25837-0.92516-0.0375-0.10002-0.0542-0.14586-0.0542-0.2292 0-0.19587 0.14586-0.33756 0.34172-0.33756 0.39174 0 0.54593 0.60427 0.54593 0.6376 0 0.0417-0.0375 0.0417-0.05 0.0417-0.0417 0-0.0417-0.0167-0.0625-0.075-0.0625-0.22088-0.19586-0.51676-0.42506-0.51676-0.0709 0-0.10002 0.0417-0.10002 0.13753 0 0.10418 0.0375 0.2042 0.075 0.29588 0.0792 0.21254 0.25421 0.67511 0.25421 0.90849 0 0.27087-0.16669 0.4459-0.47925 0.4459-0.31255 0-0.52092-0.18336-0.67511-0.40423-4e-3 0.0542-0.0167 0.19587-0.13336 0.29588-0.10418 0.0875-0.23753 0.10835-0.34172 0.10835-0.37506 0-0.57926-0.26671-0.65011-0.36256-0.0209 0.23754-0.19586 0.36256-0.37923 0.36256-0.1917 0-0.27088-0.16253-0.30838-0.23754-0.075-0.14585-0.12919-0.38756-0.12919-0.40006 0-0.0417 0.0417-0.0417 0.05-0.0417 0.0416 0 0.0458 4e-3 0.0708 0.0917 0.0709 0.29588 0.15419 0.49591 0.30421 0.49591 0.0667 0 0.1292-0.0333 0.1292-0.1917 0-0.0875-0.0125-0.13335-0.0667-0.34589z"/><path d="m250.42 717.83h0.1043l0.0167 4e-3h0.0585l0.0209 4e-3h0.0209l0.0209 4e-3 0.0458 4e-3 0.0417 4e-3 0.0458 4e-3 0.0916 0.016 0.0458 0.0125 0.0209 4e-3 0.0209 8e-3 0.0209 4e-3 0.0627 0.024c0.29172 0.12501 0.31256 0.36672 0.31256 0.42506 0 0.18337-0.15837 0.35423-0.44591 0.35423v-0.0917c0.19586 0 0.30838-0.12086 0.30838-0.26255 0-0.42923-0.66678-0.42923-0.83764-0.42923h-0.17086c0.16252 0.62927 0.59176 0.69178 0.70012 0.69178v0.0917c-0.46258 0-1.0877-0.40423-1.0877-1.1294 0-0.42091 0.2417-0.74596 0.6501-0.74596 0.59593 0 0.946 0.43757 0.946 0.48758 0 0.025-0.025 0.0542-0.05 0.0542-0.0209 0-0.0292-8e-3 -0.0541-0.0417-0.32923-0.41257-0.78347-0.41257-0.83348-0.41257-0.32506 0-0.36256 0.35006-0.36256 0.48341 0 0.05 4e-3 0.17504 0.0667 0.42924z"/><path d="m253.21 718.42h-0.025l-8e-3 -4e-3h-0.0125l-0.016-8e-3h-0.0125l-0.024-0.012-8e-3 -8e-3 -0.016-8e-3 -0.044-0.044-0.02-0.04v-8e-3l-4e-3 -8e-3v-8e-3l-4e-3 -8e-3v-0.024c0-0.0583 0.0375-0.12086 0.12919-0.12086 0.0875 0 0.18753 0.0709 0.18753 0.23338 0 0.18752-0.1792 0.35839-0.49175 0.35839-0.55009 0-0.70428-0.42508-0.70428-0.60427 0-0.32505 0.30839-0.38756 0.42923-0.41257 0.21671-0.0417 0.43341-0.0875 0.43341-0.31255 0-0.10835-0.0958-0.45841-0.59593-0.45841-0.0583 0-0.37923 0-0.47508 0.22087 0.15836-0.0209 0.26255 0.10419 0.26255 0.22087 0 0.0958-0.0667 0.14585-0.1542 0.14585-0.10835 0-0.22921-0.0875-0.22921-0.27504 0-0.23754 0.23338-0.40007 0.59177-0.40007 0.67511 0 0.83348 0.50009 0.83348 0.68345 0 0.15003-0.0792 0.25421-0.12503 0.30422-0.11252 0.11668-0.23337 0.13752-0.41673 0.17503-0.15003 0.0334-0.31672 0.0625-0.31672 0.24587 0 0.12086 0.10001 0.37507 0.46674 0.37507 0.10419 0 0.31255-0.0292 0.37506-0.1917z"/></g><ellipse transform="matrix(.81495 -.57953 -.57953 -.81495 0 0)" cx="-269.42" cy="-725.16" rx="7.8993" ry="12.176" fill="#f00" fill-opacity=".25758" fill-rule="evenodd" stroke="none"/><g fill="none" stroke="#000" stroke-miterlimit="10.433" stroke-opacity=".35266" stroke-width=".38444"><path d="m182.66 720.32-3.7237 23.007" marker-end="url(#Arrow1Mend)"/><path d="m182.66 720.32 13.292 17.987" marker-end="url(#d)"/><path d="m231.07 720.84 3.9735 18.002" marker-end="url(#c)"/><path d="m231.07 720.84-4.0724 15.34" marker-end="url(#b)"/><path d="m231.07 720.84-11.639 9.7235" marker-end="url(#a)"/></g></g><g transform="matrix(1.291 0 0 1.291 282.75 -207.84)" fill-opacity=".81159" fill-rule="evenodd" stroke="#000" stroke-miterlimit="10.433" stroke-opacity=".5942" stroke-width="1.1619" ns0:preamble="default_packages.tex" ns0:text="$\\Omega$\n" xml:space="preserve"><path d="m155.46 708.73h-0.25c-0.05-0.25-0.09-0.48-0.18-0.72-0.05-0.16-0.08-0.24-0.65-0.24h-0.8c0.13 0.56 0.44 1.03 0.89 1.69 0.46 0.7 0.87 1.39 0.87 2.18 0 1.38-1.34 2.49-3.03 2.49-1.71 0-3.04-1.13-3.04-2.49 0-0.79 0.41-1.48 0.88-2.18 0.44-0.66 0.76-1.13 0.89-1.69h-0.8c-0.58 0-0.61 0.08-0.66 0.23-0.08 0.23-0.13 0.49-0.18 0.73h-0.25l0.33-1.6h1.59c0.22 0 0.25 0 0.25 0.2 0 0.7-0.3 1.57-0.53 2.21-0.21 0.57-0.49 1.36-0.49 2.11 0 1.58 1.1 2.26 2 2.26 0.96 0 2.02-0.71 2.02-2.26 0-0.75-0.27-1.5-0.56-2.32-0.15-0.42-0.47-1.31-0.47-2 0-0.2 0.03-0.2 0.26-0.2h1.58z" fill-opacity=".81159" stroke-width="0"/></g></g>
  <flowRoot fill="#000000" font-family="Verdana" font-size="40px" letter-spacing="0px" word-spacing="0px" style="line-height:1.25" xml:space="preserve"><flowRegion><rect x="-434.29" y="-28.909" width="1817.1" height="1228.6"/></flowRegion><flowPara/></flowRoot>
 </g>
</svg>