<svg width="140mm" height="140mm" version="1.1" viewBox="0 0 140.84 129.52" xmlns="http://www.w3.org/2000/svg" xmlns:ns0="http://www.iki.fi/pav/software/textext/">
 <defs>
  <marker id="a" overflow="visible" orient="auto">
   <path transform="matrix(-.4 0 0 -.4 -4 0)" d="m0 0 5-5-17.5 5 17.5 5z" fill-rule="evenodd" stroke="#000" stroke-width="1pt"/>
  </marker>
  <marker id="Arrow1Mend" overflow="visible" orient="auto">
   <path transform="matrix(-.4 0 0 -.4 -4 0)" d="m0 0 5-5-17.5 5 17.5 5z" fill-rule="evenodd" stroke="#000" stroke-width="1pt"/>
  </marker>
 </defs>
 <g transform="translate(514.85 4.8518)">
  <g transform="matrix(3.6296,0,0,-3.6296,-1489.2,2590.3)" fill-rule="evenodd" stroke="#000" stroke-miterlimit="10.433" stroke-width=".41327" ns0:preamble="default_packages.tex" ns0:text="$$\\text{Low variance}$$\n$$\\text{Low bias}$$\n$$\\text{High variance}$$\n$$\\text{Low bias}$$\n" xml:space="preserve"><g fill="none" stroke="#000" stroke-miterlimit="10.433" stroke-opacity=".19608"><g fill="none" stroke="#000"><path d="m272.59 683.05v31.626" marker-end="url(#a)" stroke-opacity="1" stroke-width=".072896px"/><g stroke-miterlimit="10.433"><path d="m271.76 684.17h35.343" marker-end="url(#Arrow1Mend)" stroke-opacity="1" stroke-width=".072896"/><g stroke-opacity=".62745"><g stroke-width=".072896px"><path d="m272.36 687.46h14.582"/><path d="m272.4 690.6h14.7"/><path d="m272.32 693.83h14.768"/><path d="m272.4 696.99h14.936"/><path d="m272.35 700.25h14.7"/><path d="m272.44 709.81h14.879"/><path d="m272.38 706.63h14.76"/><path d="m272.38 703.39h15.176"/><path d="m289.5 710.89h14.344"/><path d="m292.22 706.4h11.642"/></g><path d="m300.32 693.08h3.4748" stroke-width=".072896px"/><path d="m297.69 697.53h6.1234" stroke-width=".072896px"/><path d="m294.97 701.98h8.8666" stroke-width=".072896px"/></g></g></g><g fill="#0051ad" stroke="none"><rect transform="scale(1,-1)" x="273.38" y="-688.71" width="2.2444" height="4.4888" opacity=".97"/><g fill-rule="evenodd"><rect transform="scale(1,-1)" x="276.14" y="-693.14" width="2.2444" height="8.9182" opacity=".97"/><rect transform="scale(1,-1)" x="278.84" y="-697.58" width="2.2444" height="13.359" opacity=".97"/><rect transform="scale(1,-1)" x="281.55" y="-702.02" width="2.2444" height="17.8" opacity=".97"/><rect transform="scale(1,-1)" x="284.27" y="-706.5" width="2.2444" height="22.275" opacity=".97"/><rect transform="scale(1,-1)" x="300.6" y="-688.71" width="2.2444" height="4.4888" opacity=".97"/><rect transform="scale(1,-1)" x="297.87" y="-693.13" width="2.2444" height="8.9034" opacity=".97"/><rect transform="scale(1,-1)" x="295.18" y="-697.56" width="2.2444" height="13.348" opacity=".97"/><rect transform="scale(1,-1)" x="292.44" y="-701.96" width="2.2444" height="17.732" opacity=".97"/><rect transform="scale(1,-1)" x="289.72" y="-706.46" width="2.2444" height="22.23" opacity=".97"/><rect transform="scale(1,-1)" x="286.96" y="-710.94" width="2.2444" height="26.718" opacity=".97"/></g></g><g id="content" transform="matrix(.40034 0 0 .40034 212.22 392.91)" fill="#000" fill-rule="evenodd" stroke="#000" stroke-miterlimit="10.433" stroke-opacity="1" stroke-width="1.5484" ns0:preamble="default_packages.tex" ns0:text="$1 2 3 4 5 6 7 8 9 10 11 12 S p(S)$\n" xml:space="preserve"><g fill="#000" stroke-width="0"><g fill-opacity=".78431"><path d="m155.18 723.4 0.41964 0.40381c0.61364 0.54238 0.85118 0.75617 0.85118 1.1481 0 0.45132-0.35631 0.76408-0.83534 0.76408-0.44736 0-0.74032-0.36027-0.74032-0.71262 0-0.21773 0.19795-0.21773 0.20982-0.21773 0.0672 0 0.20586 0.0476 0.20586 0.20586 0 0.10293-0.0712 0.20587-0.20982 0.20587-0.0316 0-0.0396 0-0.0515-4e-3 0.0911 0.25733 0.30485 0.39986 0.53446 0.39986 0.36027 0 0.52654-0.31672 0.52654-0.64136 0-0.31275-0.19795-0.62551-0.41173-0.867l-0.76011-0.84326c-0.0436-0.0435-0.0436-0.0515-0.0436-0.14253h1.4648l0.11085 0.68095h-0.099c-0.0198-0.11877-0.0476-0.28901-0.0871-0.3484-0.0277-0.0316-0.28901-0.0316-0.37215-0.0316z"/><path d="m163.01 724.4 0.0277 0.0119 0.0316 0.0119 0.0554 0.0238 0.0831 0.0477 0.0238 0.0159 0.0237 0.0159 0.0237 0.0199 0.0238 0.0199 0.0237 0.0199 0.0397 0.0397 0.0198 0.0237 0.0198 0.0198 0.0199 0.0238 0.0477 0.0711 0.0119 0.0277 0.0119 0.0237 0.0119 0.0277 0.0119 0.0237 0.032 0.1108 8e-3 0.0554v0.0593c0 0.32068-0.34444 0.54238-0.72449 0.54238-0.39986 0-0.70073-0.23358-0.70073-0.53446 0-0.13065 0.0871-0.20587 0.2019-0.20587 0.12273 0 0.20191 0.0871 0.20191 0.20191 0 0.19795-0.18607 0.19795-0.24546 0.19795 0.12273 0.19003 0.38402 0.24149 0.52655 0.24149 0.16231 0 0.3761-0.0871 0.3761-0.43944 0-0.0476-8e-3 -0.27712-0.10689-0.44736-0.11877-0.19003-0.25338-0.20191-0.35235-0.20586-0.0316-4e-3 -0.12669-0.0119-0.1544-0.0119-0.0316-4e-3 -0.0593-8e-3 -0.0593-0.0476 0-0.0435 0.0277-0.0435 0.095-0.0435h0.1742c0.32463 0 0.47111-0.26525 0.47111-0.65323 0-0.53446-0.27316-0.64927-0.44736-0.64927-0.17023 0-0.46716 0.0672-0.60572 0.30089 0.13856-0.0199 0.26129 0.0672 0.26129 0.21773 0 0.13857-0.10689 0.21775-0.22171 0.21775-0.095 0-0.2217-0.0554-0.2217-0.22566 0-0.36027 0.36818-0.6176 0.79972-0.6176 0.47903 0 0.83929 0.3563 0.83929 0.75616 0 0.32464-0.24941 0.62948-0.65719 0.71262z"/><path d="m169.49 723.43v-0.34048c0-0.14252-8e-3 -0.18607-0.30087-0.18607h-0.0832v-0.11877c0.16231 0.0119 0.36818 0.0119 0.53445 0.0119 0.16233 0 0.37216 0 0.53447-0.0119v0.11877h-0.0832c-0.28901 0-0.30088 0.0435-0.30088 0.18607v0.34048h0.3959v0.12272h-0.3959v1.7894c0 0.0792 0 0.10293-0.0594 0.10293-0.0356 0-0.0476 0-0.0792-0.0476l-1.2154-1.8449h0.11086l0.96598 1.4688v-1.4688h-1.0768v-0.12273z"/><path d="m176.97 723.74-4e-3 0.0436v0.0435l-8e-3 0.0435-4e-3 0.0396-8e-3 0.0435-0.0357 0.1188-0.0159 0.0396-0.0318 0.0712-0.0398 0.0712-0.0474 0.0632-0.0237 0.0277-0.0237 0.0316-0.0277 0.0237-0.0277 0.0277-0.0316 0.0237-0.0277 0.0237-0.0316 0.0199-0.0356 0.0199-0.0316 0.0159-0.0712 0.0318-0.0356 0.0119-0.0712 0.016-0.0396 8e-3h-0.0396l-0.0396 4e-3c-0.19003 0-0.36027-0.0633-0.50279-0.20191v0.76804c0.0792-0.0237 0.20983-0.0515 0.33652-0.0515 0.48694 0 0.76407 0.35632 0.76407 0.40778 0 0.0237-0.0119 0.0435-0.0396 0.0435-4e-3 0-0.0119 0-0.0316-0.0119-0.0792-0.0356-0.27316-0.11481-0.53841-0.11481-0.15836 0-0.34047 0.0277-0.52654 0.11086-0.0316 0.0119-0.0396 0.0119-0.0476 0.0119-0.0396 0-0.0396-0.0316-0.0396-0.095v-1.1639c0-0.0712 0-0.10294 0.0555-0.10294 0.0277 0 0.0356 0.0119 0.0515 0.0356 0.0435 0.0633 0.19004 0.27712 0.51071 0.27712 0.20587 0 0.30484-0.1821 0.33651-0.25336 0.0633-0.14253 0.0712-0.29692 0.0712-0.49487 0-0.13857 0-0.37215-0.095-0.53842-0.095-0.1544-0.2415-0.25733-0.42361-0.25733-0.28901 0-0.51467 0.20982-0.57801 0.4434 0.0119-4e-3 0.0198-8e-3 0.0633-8e-3 0.13065 0 0.19794 0.099 0.19794 0.19003 0 0.095-0.0672 0.19399-0.19794 0.19399-0.0515 0-0.19003-0.0277-0.19003-0.20982 0-0.33652 0.26921-0.71658 0.71262-0.71658 0.45924 0 0.86305 0.3761 0.86305 0.87494z"/><path d="m182.28 724.38v0.095c0 0.99765 0.49091 1.1362 0.69281 1.1362 0.095 0 0.2613-0.0237 0.3484-0.15835-0.0593 0-0.21774 0-0.21774-0.1742 0-0.12272 0.095-0.18211 0.1821-0.18211 0.0633 0 0.18211 0.0356 0.18211 0.19003 0 0.23357-0.17418 0.42361-0.50278 0.42361-0.50674 0-1.0372-0.50675-1.0372-1.3777 0-1.0491 0.45527-1.3263 0.82346-1.3263 0.43944 0 0.81554 0.3682 0.81554 0.88682 0 0.49883-0.35235 0.87889-0.79179 0.87889l-4e-3 -0.091c0.0633 0 0.24545 0 0.36818-0.24546 0.0712-0.14252 0.0712-0.34443 0.0712-0.53842 0-0.19003 0-0.38401-0.0672-0.52654-0.11876-0.23754-0.30088-0.25733-0.39193-0.25733-0.24942 0-0.36819 0.23754-0.39194 0.29692-0.0672 0.18607-0.0672 0.49883-0.0672 0.5701 0 0.30879 0.12273 0.70073 0.47904 0.70073l4e-3 0.091c-0.26921 0-0.41569-0.20191-0.49487-0.39194z"/><path d="m190.65 725.55v8e-3l0.016 0.016v4e-3l4e-3 4e-3v4e-3l4e-3 4e-3v4e-3l4e-3 4e-3v0.012h4e-3v0.032l4e-3 4e-3v0.044h-0.96203c-0.47902 0-0.48695 0.0515-0.50278 0.12668h-0.099l-0.13065-0.81159h0.099c0.0119 0.0633 0.0476 0.31276 0.099 0.36027 0.0277 0.0237 0.33255 0.0237 0.38402 0.0237h0.8195c-0.0435-0.0633-0.3563-0.49091-0.4434-0.62156-0.35631-0.53049-0.48695-1.0768-0.48695-1.4806 0-0.0396 0-0.21378 0.18211-0.21378s0.18211 0.1742 0.18211 0.21378v0.20191c0 0.21775 0.0119 0.43153 0.0436 0.64531 0.0159 0.0911 0.0712 0.42756 0.24546 0.67302z"/><path d="m196.95 724.27 0.0277 0.0159 0.0237 0.0119 0.0277 0.0159 0.0237 0.0159 0.0237 0.0119 0.0237 0.0159 0.0238 0.0159 0.0199 0.0159 0.0237 0.0199 0.0199 0.0159 0.0198 0.0159 0.0199 0.0198 0.0198 0.0159 0.0159 0.0198 0.0159 0.0199 0.0159 0.0159 0.0318 0.0398 0.0119 0.0199 0.0159 0.0199 0.0119 0.0198 8e-3 0.0237 0.0119 0.0198 8e-3 0.0237 8e-3 0.0199 8e-3 0.0237 4e-3 0.0199 8e-3 0.0237 4e-3 0.0237v0.0237l4e-3 0.0237v0.0237c0 0.36027-0.35235 0.58593-0.71262 0.58593l-4e-3 -0.099c0.28901 0 0.54237-0.20191 0.54237-0.48696 0-0.2217-0.15439-0.41173-0.39193-0.55029l-0.48695 0.31276c-0.18211 0.11877-0.19795 0.25337-0.19795 0.32067 0 0.2415 0.25734 0.40382 0.53446 0.40382l4e-3 0.099c-0.39193 0-0.7126-0.289-0.7126-0.65719 0-0.0712 8e-3 -0.24545 0.17419-0.43153 0.0435-0.0476 0.19003-0.14647 0.289-0.21378l0.0871-0.0593 0.48696-0.30483c0.11085-0.0753 0.29692-0.194 0.29692-0.43153 0-0.29297-0.29692-0.49883-0.62156-0.49883-0.3365 0-0.62155 0.24545-0.62155 0.57404 0 0.22566 0.12669 0.47904 0.45923 0.66115l-0.0871 0.0593c-0.22961-0.11481-0.57008-0.33255-0.57008-0.72053 0-0.41965 0.40381-0.68094 0.81554-0.68094 0.44736 0 0.82346 0.32464 0.82346 0.74428 0 0.14252-0.0435 0.32068-0.19399 0.48696-0.0753 0.0792-0.13857 0.11877-0.39194 0.27712z"/><path d="m204 724.32v-0.12273c0-0.92243-0.41173-1.1046-0.63739-1.1046-0.0672 0-0.28109 8e-3 -0.38798 0.14252 0.1742 0 0.20588 0.11481 0.20588 0.18212 0 0.12272-0.095 0.18211-0.18212 0.18211-0.0633 0-0.18212-0.0356-0.18212-0.19003 0-0.26525 0.21379-0.42362 0.5503-0.42362 0.50674 0 0.98974 0.53448 0.98974 1.3777 0 1.061-0.45528 1.3262-0.80367 1.3262-0.21774 0-0.41173-0.0712-0.58196-0.24941-0.16233-0.17419-0.25338-0.34047-0.25338-0.63343 0-0.49487 0.34839-0.87889 0.7918-0.87889l4e-3 0.091c-0.0633 0-0.24546 0-0.36819 0.24941-0.0712 0.14252-0.0712 0.34047-0.0712 0.53447 0 0.20981 0 0.39589 0.0832 0.54237 0.10689 0.19399 0.25734 0.24545 0.39589 0.24545 0.17816 0 0.30881-0.13064 0.3761-0.3088 0.0476-0.12668 0.0633-0.3761 0.0633-0.55425 0-0.32859-0.1346-0.70865-0.47904-0.70865l-4e-3 -0.091c0.23754 0 0.39985 0.16628 0.49091 0.39194z"/><path d="m209.17 725.62v4e-3l-4e-3 4e-3v0.064l-4e-3 4e-3v8e-3h-4e-3v4e-3l-4e-3 4e-3h-4e-3v4e-3h-4e-3l-4e-3 4e-3h-0.012l-4e-3 4e-3h-0.048c-0.24546-0.25337-0.59385-0.25337-0.72054-0.25337v-0.11877c0.0792 0 0.31276 0 0.51862 0.099v-2.0349c0-0.14252-0.0119-0.19003-0.36818-0.19003h-0.12668v-0.11877c0.13856 0.0119 0.48298 0.0119 0.64135 0.0119 0.15835 0 0.49882 0 0.63739-0.0119v0.11877h-0.12669c-0.35235 0-0.36422 0.0435-0.36422 0.19003z"/><path d="m211.8 724.36v0.1781l-8e-3 0.1188-4e-3 0.0554-8e-3 0.0594-8e-3 0.0593-8e-3 0.0555-0.0119 0.0593-0.0119 0.0555-0.0159 0.0593-0.0159 0.0555-0.0198 0.0555-0.0238 0.0555-0.0238 0.0554c-0.17815 0.3761-0.50279 0.43944-0.66907 0.43944-0.23753 0-0.52654-0.10293-0.68885-0.46716-0.12669-0.27318-0.14649-0.57802-0.14649-0.89473 0-0.29296 0.0159-0.64927 0.17816-0.94619 0.17024-0.32067 0.45923-0.39589 0.65323-0.39589v0.0871c-0.1544 0-0.38798 0.095-0.45924 0.47508-0.0435 0.23358-0.0435 0.5978-0.0435 0.82742 0 0.25337 0 0.51071 0.0316 0.72449 0.0752 0.46716 0.37215 0.50279 0.47112 0.50279 0.13064 0 0.38798-0.0712 0.46319-0.45924 0.0396-0.2217 0.0396-0.51862 0.0396-0.76804 0-0.29296 0-0.56217-0.0396-0.81158-0.0633-0.3761-0.28504-0.49092-0.46319-0.49092v-0.0871c0.21378 0 0.5107 0.0792 0.6849 0.45527 0.12669 0.26921 0.14648 0.57801 0.14648 0.88681z"/><path d="m215.93 725.52v0.056h-4e-3v0.02l-4e-3 4e-3v4e-3h-4e-3v4e-3l-8e-3 8e-3h-4e-3l-4e-3 4e-3h-0.012v4e-3h-0.052c-0.24547-0.25337-0.59385-0.25337-0.72054-0.25337v-0.11877c0.0792 0 0.31276 0 0.51863 0.099v-2.0349c0-0.14252-0.0119-0.19003-0.36819-0.19003h-0.12669v-0.11877c0.13857 0.0119 0.483 0.0119 0.64136 0.0119s0.50279 0 0.63739-0.0119v0.11877h-0.12272c-0.35631 0-0.36818 0.0435-0.36818 0.19003z"/><path d="m217.91 725.52v0.056l-4e-3 4e-3v0.016l-4e-3 4e-3v4e-3l-0.012 0.012h-4e-3l-4e-3 4e-3h-0.012v4e-3h-0.052c-0.24546-0.25337-0.59384-0.25337-0.71657-0.25337v-0.11877c0.0753 0 0.30881 0 0.51467 0.099v-2.0349c0-0.14252-0.0119-0.19003-0.36818-0.19003h-0.12669v-0.11877c0.13856 0.0119 0.48299 0.0119 0.64134 0.0119 0.15837 0 0.50279 0 0.64136-0.0119v0.11877h-0.12669c-0.3563 0-0.36818 0.0435-0.36818 0.19003z"/><path d="m222.66 725.57v0.064l-4e-3 4e-3v0.012l-8e-3 8e-3v4e-3h-4e-3l-4e-3 4e-3h-4e-3v4e-3h-0.016v4e-3h-0.052c-0.24546-0.25337-0.58989-0.25337-0.71658-0.25337v-0.11877c0.0792 0 0.30881 0 0.51467 0.099v-2.0349c0-0.14252-0.0119-0.19003-0.36422-0.19003h-0.12669v-0.11877c0.13461 0.0119 0.47903 0.0119 0.63739 0.0119s0.50279 0 0.64136-0.0119v0.11877h-0.12669c-0.35631 0-0.36818 0.0435-0.36818 0.19003z"/><path d="m223.98 723.35 0.4157 0.40381c0.6176 0.54238 0.85514 0.75616 0.85514 1.1481 0 0.45133-0.35631 0.76408-0.83931 0.76408-0.44341 0-0.73636-0.36026-0.73636-0.71261 0-0.21774 0.19794-0.21774 0.20982-0.21774 0.0672 0 0.20587 0.0476 0.20587 0.20587 0 0.10292-0.0712 0.20586-0.20983 0.20586-0.0316 0-0.0395 0-0.0515-4e-3 0.0911 0.25734 0.30087 0.39986 0.5305 0.39986 0.36026 0 0.5305-0.31672 0.5305-0.64135 0-0.31277-0.19795-0.62552-0.4157-0.86702l-0.75616-0.84325c-0.0435-0.0435-0.0435-0.0515-0.0435-0.14253h1.4648l0.11085 0.68094h-0.099c-0.0198-0.11877-0.0476-0.289-0.0871-0.34839-0.0277-0.0316-0.28899-0.0316-0.37609-0.0316z"/></g><path d="m196.45 718.78v0.02h-5e-3v0.01h-5e-3v5e-3h-5e-3l-5e-3 5e-3h-5e-3v5e-3h-0.015v5e-3h-0.015c-0.0238 0-0.0238-5e-3 -0.0856-0.0713l-0.22351-0.27107c-0.12365 0.22351-0.37094 0.3424-0.68005 0.3424-0.60396 0-1.1699-0.54214-1.1699-1.1176 0-0.38045 0.25205-0.59921 0.48983-0.67054l0.50885-0.13316c0.17595-0.038 0.43751-0.10938 0.43751-0.49934 0-0.42324-0.38996-0.87027-0.85601-0.87027-0.30435 0-0.82747 0.10462-0.82747 0.68956 0 0.11414 0.0238 0.22827 0.0285 0.2568 5e-3 0.019 0.01 0.0238 0.01 0.0333 0 0.0476-0.0333 0.0523-0.0571 0.0523s-0.0333-5e-3 -0.0476-0.019c-0.019-0.019-0.28533-1.0938-0.28533-1.108 0-0.0285 0.0238-0.0476 0.0523-0.0476 0.0238 0 0.0285 5e-3 0.0856 0.0666l0.23302 0.27107c0.20449-0.27107 0.52787-0.33765 0.79894-0.33765 0.64676 0 1.2079 0.62774 1.2079 1.2127 0 0.32813-0.16169 0.48507-0.23302 0.55165-0.10938 0.10938-0.18071 0.1284-0.60396 0.23778-0.10462 0.0285-0.27582 0.0761-0.31863 0.0856-0.1284 0.0428-0.29009 0.17595-0.29009 0.428 0 0.3852 0.38045 0.78467 0.83223 0.78467 0.39472 0 0.68481-0.20449 0.68481-0.73236 0-0.15218-0.019-0.23778-0.019-0.26631 0-5e-3 0-0.0428 0.0571-0.0428 0.0476 0 0.0523 0.01 0.0666 0.0904z"/><path d="m140.83 800.41-0.01-0.0286v-0.0143l-5e-3 -0.01-5e-3 -0.0143v-0.01l-0.015-0.03v-0.01l-5e-3 -0.01-5e-3 -5e-3 -5e-3 -0.01-5e-3 -5e-3 -5e-3 -0.01-0.01-5e-3 -5e-3 -5e-3 -0.01-5e-3 -5e-3 -5e-3h-0.01l-0.02-0.01h-0.01l-0.01-5e-3h-0.0193l-0.01-5e-3h-0.1c-0.0571 0-0.10938 0-0.10938-0.0904 0-0.038 0.0238-0.0571 0.0618-0.0571 0.1284 0 0.26631 0.0143 0.39947 0.0143 0.15694 0 0.31387-0.0143 0.46605-0.0143 0.0238 0 0.0856 0 0.0856 0.0951 0 0.0523-0.0476 0.0523-0.11413 0.0523-0.23303 0-0.23303 0.0333-0.23303 0.0713 0 0.0571 0.19974 0.82748 0.22827 0.94636 0.0618-0.13791 0.19498-0.2996 0.43751-0.2996l-5e-3 0.0999c-0.31387 0-0.37569 0.39471-0.37569 0.42325 0 0.01 0 0.019 0.0143 0.0761l0.23303 0.92258c0.0333 0.1284 0.16169 0.26156 0.24729 0.33289 0.16644 0.14743 0.30436 0.18072 0.3852 0.18072 0.19023 0 0.30436-0.16645 0.30436-0.44703 0-0.27582-0.15694-0.81796-0.24254-0.99867-0.16169-0.3329-0.38995-0.48983-0.56591-0.48983l5e-3 -0.0999c0.55165 0 1.1461 0.68956 1.1461 1.3839 0 0.44227-0.27107 0.75614-0.63249 0.75614-0.23778 0-0.46605-0.1712-0.62298-0.35667-0.0476 0.2568-0.25205 0.35667-0.42325 0.35667-0.21876 0-0.30912-0.18547-0.35192-0.27107-0.0856-0.16169-0.14742-0.44227-0.14742-0.45654 0-0.0476 0.0476-0.0476 0.0571-0.0476 0.0476 0 0.0523 5e-3 0.0808 0.10462 0.0808 0.33765 0.17596 0.56592 0.34716 0.56592 0.0808 0 0.14267-0.038 0.14267-0.21876 0-0.10938-0.0143-0.16169-0.0333-0.24254z"/><path d="m144.57 799.85v0.015h-5e-3v5e-3l-5e-3 5e-3v5e-3h-5e-3v5e-3l-0.01 0.01v5e-3h-5e-3v5e-3h-5e-3v5e-3h-5e-3v5e-3h-5e-3v5e-3h-5e-3v5e-3l-0.025 0.025h-5e-3v5e-3l-5e-3 5e-3c-0.59445 0.59445-0.74663 1.4885-0.74663 2.2114 0 0.82272 0.18071 1.6454 0.76565 2.2351 0.0618 0.0571 0.0618 0.0666 0.0618 0.0808 0 0.0333-0.019 0.0476-0.0476 0.0476-0.0476 0-0.47556-0.32338-0.75614-0.92258-0.23778-0.51836-0.29485-1.0462-0.29485-1.441 0-0.37094 0.0523-0.94161 0.30912-1.4742 0.28533-0.58018 0.69431-0.8893 0.74187-0.8893 0.0285 0 0.0476 0.0143 0.0476 0.0476z"/><path d="m147.9 804.27v0.02h-5e-3v0.01h-5e-3v5e-3h-5e-3l-5e-3 5e-3h-5e-3v5e-3h-0.015v5e-3h-0.015c-0.0238 0-0.0285-5e-3 -0.0808-0.0713l-0.22827-0.27106c-0.12364 0.22351-0.37093 0.3424-0.68005 0.3424-0.60396 0-1.1699-0.54214-1.1699-1.1176 0-0.38044 0.25204-0.5992 0.48982-0.67053l0.50885-0.13316c0.17596-0.038 0.43752-0.10938 0.43752-0.49934 0-0.42325-0.38996-0.87027-0.85601-0.87027-0.2996 0-0.82747 0.10462-0.82747 0.68956 0 0.11413 0.0238 0.22827 0.0285 0.2568 5e-3 0.019 0.01 0.0238 0.01 0.0333 0 0.0476-0.0333 0.0523-0.0571 0.0523s-0.0333-5e-3 -0.0476-0.019c-0.019-0.019-0.28534-1.0938-0.28534-1.108 0-0.0285 0.0238-0.0476 0.0523-0.0476 0.0238 0 0.0285 5e-3 0.0856 0.0666l0.23302 0.27107c0.20449-0.27107 0.52312-0.33765 0.79894-0.33765 0.64676 0 1.2079 0.62774 1.2079 1.2127 0 0.32813-0.16169 0.48507-0.23302 0.55165-0.10938 0.10937-0.18072 0.1284-0.60396 0.23778-0.10463 0.0285-0.27583 0.0761-0.31863 0.0856-0.1284 0.0428-0.28533 0.17595-0.28533 0.428 0 0.3852 0.37569 0.78467 0.82747 0.78467 0.39471 0 0.6848-0.20449 0.6848-0.73236 0-0.15218-0.019-0.23778-0.019-0.26631 0-5e-3 0-0.0428 0.0571-0.0428 0.0476 0 0.0523 0.01 0.0713 0.0903z"/><path d="m149.39 802.17v0.0713l-5e-3 0.038v0.038l-5e-3 0.0809-5e-3 0.0808-5e-3 0.0856-0.0143 0.0904-0.01 0.0951-0.019 0.0951-0.0143 0.0951-0.0476 0.1998-0.0999 0.2997-0.0238 0.0523-0.019 0.0523-0.0238 0.0476-0.0238 0.0523c-0.28534 0.58019-0.69432 0.8893-0.74188 0.8893-0.0285 0-0.0476-0.019-0.0476-0.0476 0-0.0143 0-0.0238 0.0904-0.10937 0.46605-0.47081 0.73712-1.2222 0.73712-2.2066 0-0.80845-0.17596-1.6407-0.76565-2.2351-0.0618-0.0571-0.0618-0.0666-0.0618-0.0808 0-0.0285 0.019-0.0476 0.0476-0.0476 0.0476 0 0.47556 0.32338 0.75614 0.92259 0.24254 0.51836 0.2996 1.0415 0.2996 1.4409z"/></g><g><rect transform="scale(1,-1)" x="153.94" y="-732.9" width="3.3901" height="3.3901" fill="#000005" opacity=".97" stroke="#000" stroke-linecap="square" stroke-linejoin="bevel" stroke-miterlimit="10.433" stroke-opacity="1" stroke-width=".91043"/><circle transform="scale(1,-1)" cx="155.65" cy="-731.13" r=".34151" fill="#fff" opacity=".97" stroke="none"/><rect transform="scale(1,-1)" x="160.77" y="-732.91" width="3.3901" height="3.3901" fill="#000005" fill-rule="evenodd" opacity=".97" stroke="#000" stroke-linecap="square" stroke-linejoin="bevel" stroke-miterlimit="10.433" stroke-opacity="1" stroke-width=".91043"/><rect transform="scale(1,-1)" x="160.79" y="-737.18" width="3.3655" height="3.3655" fill="#fff" fill-rule="evenodd" opacity=".97" stroke="#fffff0" stroke-linecap="square" stroke-linejoin="bevel" stroke-miterlimit="10.433" stroke-opacity="1" stroke-width=".91043"/></g><g fill-rule="evenodd"><g stroke-linecap="square" stroke-linejoin="bevel" stroke-miterlimit="10.433" stroke-opacity="1" stroke-width=".91043"><rect transform="scale(1,-1)" x="160.83" y="-743.16" width="3.3901" height="3.3901" fill="#000005" opacity=".97" stroke="#000"/><rect transform="scale(1,-1)" x="160.85" y="-747.43" width="3.3655" height="3.3655" fill="#fff" opacity=".97" stroke="#fffff0"/><rect transform="scale(1,-1)" x="167.48" y="-759.4" width="3.3655" height="3.3655" fill="#fff" opacity=".97" stroke="#fffff0"/></g><circle transform="scale(1,-1)" cx="169.18" cy="-757.65" r=".34151" fill="#000" opacity=".97" stroke="none"/><rect transform="scale(1,-1)" x="174.28" y="-770.74" width="3.3655" height="3.3655" fill="#fff" opacity=".97" stroke="#fffff0" stroke-linecap="square" stroke-linejoin="bevel" stroke-miterlimit="10.433" stroke-opacity="1" stroke-width=".91043"/><circle transform="scale(1,-1)" cx="176.01" cy="-769.11" r=".34151" fill="#000" opacity=".97" stroke="none"/><rect transform="scale(1,-1)" x="181.19" y="-781.84" width="3.3655" height="3.3655" fill="#fff" opacity=".97" stroke="#fffff0" stroke-linecap="square" stroke-linejoin="bevel" stroke-miterlimit="10.433" stroke-opacity="1" stroke-width=".91043"/><circle transform="scale(1,-1)" cx="182.91" cy="-780.21" r=".34151" fill="#000" opacity=".97" stroke="none"/><rect transform="scale(1,-1)" x="187.8" y="-792.83" width="3.3655" height="3.3655" fill="#fff" opacity=".97" stroke="#fffff0" stroke-linecap="square" stroke-linejoin="bevel" stroke-miterlimit="10.433" stroke-opacity="1" stroke-width=".91043"/><circle transform="scale(1,-1)" cx="189.52" cy="-791.2" r=".34151" fill="#000" opacity=".97" stroke="none"/></g><circle transform="scale(1,-1)" cx="161.41" cy="-734.32" r=".34151" fill="#000" fill-rule="evenodd" opacity=".97" stroke="none"/><circle transform="scale(1,-1)" cx="163.63" cy="-736.61" r=".34151" fill="#000" fill-rule="evenodd" opacity=".97" stroke="none"/><g fill="#fff" fill-rule="evenodd" stroke="none"><circle transform="scale(1,-1)" cx="162.54" cy="-731.06" r=".34151" opacity=".97"/><circle transform="scale(1,-1)" cx="161.46" cy="-740.38" r=".34151" opacity=".97"/><circle transform="scale(1,-1)" cx="163.88" cy="-742.66" r=".34151" opacity=".97"/></g><g fill-rule="evenodd"><circle transform="scale(1,-1)" cx="162.55" cy="-745.75" r=".34151" fill="#000" opacity=".97" stroke="none"/><rect transform="scale(1,-1)" x="167.6" y="-732.95" width="3.3901" height="3.3901" fill="#000005" opacity=".97" stroke="#000" stroke-linecap="square" stroke-linejoin="bevel" stroke-miterlimit="10.433" stroke-opacity="1" stroke-width=".91043"/><circle transform="scale(1,-1)" cx="169.34" cy="-731.17" r=".34151" fill="#fff" opacity=".97" stroke="none"/><rect transform="scale(1,-1)" x="221.98" y="-732.81" width="3.3901" height="3.3901" fill="#000005" opacity=".97" stroke="#000" stroke-linecap="square" stroke-linejoin="bevel" stroke-miterlimit="10.433" stroke-opacity="1" stroke-width=".91043"/></g><g fill="#fff" fill-rule="evenodd"><rect transform="scale(1,-1)" x="221.99" y="-737.09" width="3.3655" height="3.3655" opacity=".97" stroke="#fffff0" stroke-linecap="square" stroke-linejoin="bevel" stroke-miterlimit="10.433" stroke-opacity="1" stroke-width=".91043"/><g stroke="none"><circle transform="scale(1,-1)" cx="222.66" cy="-729.94" r=".34151" opacity=".97"/><circle transform="scale(1,-1)" cx="222.65" cy="-731.14" r=".34151" opacity=".97"/><circle transform="scale(1,-1)" cx="222.6" cy="-732.37" r=".34151" opacity=".97"/><circle transform="scale(1,-1)" cx="224.69" cy="-729.93" r=".34151" opacity=".97"/><circle transform="scale(1,-1)" cx="224.65" cy="-731.13" r=".34151" opacity=".97"/><circle transform="scale(1,-1)" cx="224.66" cy="-732.41" r=".34151" opacity=".97"/></g></g><g fill="#000" fill-rule="evenodd" stroke="none"><circle transform="scale(1,-1)" cx="222.7" cy="-734.18" r=".34151" opacity=".97"/><circle transform="scale(1,-1)" cx="222.67" cy="-735.39" r=".34151" opacity=".97"/><circle transform="scale(1,-1)" cx="222.64" cy="-736.62" r=".34151" opacity=".97"/><circle transform="scale(1,-1)" cx="224.73" cy="-734.17" r=".34151" opacity=".97"/><circle transform="scale(1,-1)" cx="224.72" cy="-735.4" r=".34151" opacity=".97"/><circle transform="scale(1,-1)" cx="224.7" cy="-736.66" r=".34151" opacity=".97"/></g><rect transform="scale(1,-1)" x="215.21" y="-732.92" width="3.3901" height="3.3901" fill="#000005" fill-rule="evenodd" opacity=".97" stroke="#000" stroke-linecap="square" stroke-linejoin="bevel" stroke-miterlimit="10.433" stroke-opacity="1" stroke-width=".91043"/><g fill="#fff" fill-rule="evenodd"><rect transform="scale(1,-1)" x="215.23" y="-737.19" width="3.3655" height="3.3655" opacity=".97" stroke="#fffff0" stroke-linecap="square" stroke-linejoin="bevel" stroke-miterlimit="10.433" stroke-opacity="1" stroke-width=".91043"/><g stroke="none"><circle transform="scale(1,-1)" cx="215.9" cy="-730.04" r=".34151" opacity=".97"/><circle transform="scale(1,-1)" cx="216.93" cy="-731.24" r=".34151" opacity=".97"/><circle transform="scale(1,-1)" cx="215.83" cy="-732.48" r=".34151" opacity=".97"/><circle transform="scale(1,-1)" cx="217.92" cy="-730.03" r=".34151" opacity=".97"/><circle transform="scale(1,-1)" cx="217.9" cy="-732.52" r=".34151" opacity=".97"/></g></g><g fill="#000" fill-rule="evenodd" stroke="none"><circle transform="scale(1,-1)" cx="215.89" cy="-734.28" r=".34151" opacity=".97"/><circle transform="scale(1,-1)" cx="215.88" cy="-735.53" r=".34151" opacity=".97"/><circle transform="scale(1,-1)" cx="215.87" cy="-736.73" r=".34151" opacity=".97"/><circle transform="scale(1,-1)" cx="217.98" cy="-734.28" r=".34151" opacity=".97"/><circle transform="scale(1,-1)" cx="217.96" cy="-735.52" r=".34151" opacity=".97"/><circle transform="scale(1,-1)" cx="217.94" cy="-736.77" r=".34151" opacity=".97"/></g><rect transform="scale(1,-1)" x="215.05" y="-743.7" width="3.3901" height="3.3901" fill="#000005" fill-rule="evenodd" opacity=".97" stroke="#000" stroke-linecap="square" stroke-linejoin="bevel" stroke-miterlimit="10.433" stroke-opacity="1" stroke-width=".91043"/><g fill="#fff" fill-rule="evenodd"><rect transform="scale(1,-1)" x="215.07" y="-747.97" width="3.3655" height="3.3655" opacity=".97" stroke="#fffff0" stroke-linecap="square" stroke-linejoin="bevel" stroke-miterlimit="10.433" stroke-opacity="1" stroke-width=".91043"/><g stroke="none"><circle transform="scale(1,-1)" cx="215.74" cy="-740.82" r=".34151" opacity=".97"/><circle transform="scale(1,-1)" cx="215.72" cy="-742.02" r=".34151" opacity=".97"/><circle transform="scale(1,-1)" cx="215.67" cy="-743.26" r=".34151" opacity=".97"/><circle transform="scale(1,-1)" cx="217.77" cy="-740.81" r=".34151" opacity=".97"/><circle transform="scale(1,-1)" cx="217.76" cy="-742.03" r=".34151" opacity=".97"/><circle transform="scale(1,-1)" cx="217.74" cy="-743.3" r=".34151" opacity=".97"/></g></g><g fill="#000" fill-rule="evenodd" stroke="none"><circle transform="scale(1,-1)" cx="215.77" cy="-745.06" r=".34151" opacity=".97"/><circle transform="scale(1,-1)" cx="215.71" cy="-747.51" r=".34151" opacity=".97"/><circle transform="scale(1,-1)" cx="217.81" cy="-745.06" r=".34151" opacity=".97"/><circle transform="scale(1,-1)" cx="216.8" cy="-746.3" r=".34151" opacity=".97"/><circle transform="scale(1,-1)" cx="217.78" cy="-747.55" r=".34151" opacity=".97"/></g><rect transform="scale(1,-1)" x="167.44" y="-743.33" width="3.3901" height="3.3901" fill="#000005" fill-rule="evenodd" opacity=".97" stroke="#000" stroke-linecap="square" stroke-linejoin="bevel" stroke-miterlimit="10.433" stroke-opacity="1" stroke-width=".91043"/><g fill="#fff" fill-rule="evenodd"><rect transform="scale(1,-1)" x="167.46" y="-747.6" width="3.3655" height="3.3655" opacity=".97" stroke="#fffff0" stroke-linecap="square" stroke-linejoin="bevel" stroke-miterlimit="10.433" stroke-opacity="1" stroke-width=".91043"/><circle transform="scale(1,-1)" cx="167.96" cy="-740.46" r=".34151" opacity=".97" stroke="none"/><circle transform="scale(1,-1)" cx="170.38" cy="-742.74" r=".34151" opacity=".97" stroke="none"/></g><g fill-rule="evenodd"><circle transform="scale(1,-1)" cx="168.02" cy="-744.78" r=".34151" fill="#000" opacity=".97" stroke="none"/><circle transform="scale(1,-1)" cx="170.43" cy="-747.07" r=".34151" fill="#000" opacity=".97" stroke="none"/><rect transform="scale(1,-1)" x="174.27" y="-732.95" width="3.3901" height="3.3901" fill="#000005" opacity=".97" stroke="#000" stroke-linecap="square" stroke-linejoin="bevel" stroke-miterlimit="10.433" stroke-opacity="1" stroke-width=".91043"/><circle transform="scale(1,-1)" cx="176.01" cy="-731.17" r=".34151" fill="#fff" opacity=".97" stroke="none"/><rect transform="scale(1,-1)" x="181.08" y="-732.91" width="3.3901" height="3.3901" fill="#000005" opacity=".97" stroke="#000" stroke-linecap="square" stroke-linejoin="bevel" stroke-miterlimit="10.433" stroke-opacity="1" stroke-width=".91043"/><circle transform="scale(1,-1)" cx="182.82" cy="-731.12" r=".34151" fill="#fff" opacity=".97" stroke="none"/><rect transform="scale(1,-1)" x="187.9" y="-732.94" width="3.3901" height="3.3901" fill="#000005" opacity=".97" stroke="#000" stroke-linecap="square" stroke-linejoin="bevel" stroke-miterlimit="10.433" stroke-opacity="1" stroke-width=".91043"/><circle transform="scale(1,-1)" cx="189.63" cy="-731.15" r=".34151" fill="#fff" opacity=".97" stroke="none"/><rect transform="scale(1,-1)" x="208.41" y="-732.75" width="3.3901" height="3.3901" fill="#000005" opacity=".97" stroke="#000" stroke-linecap="square" stroke-linejoin="bevel" stroke-miterlimit="10.433" stroke-opacity="1" stroke-width=".91043"/></g><g fill="#fff" fill-rule="evenodd" stroke="none"><circle transform="scale(1,-1)" cx="209.1" cy="-729.87" r=".34151" opacity=".97"/><circle transform="scale(1,-1)" cx="209.03" cy="-732.31" r=".34151" opacity=".97"/><circle transform="scale(1,-1)" cx="211.12" cy="-729.86" r=".34151" opacity=".97"/><circle transform="scale(1,-1)" cx="211.1" cy="-732.35" r=".34151" opacity=".97"/></g><rect transform="scale(1,-1)" x="201.52" y="-743.68" width="3.3901" height="3.3901" fill="#000005" fill-rule="evenodd" opacity=".97" stroke="#000" stroke-linecap="square" stroke-linejoin="bevel" stroke-miterlimit="10.433" stroke-opacity="1" stroke-width=".91043"/><g fill="#fff" fill-rule="evenodd" stroke="none"><circle transform="scale(1,-1)" cx="202.21" cy="-740.8" r=".34151" opacity=".97"/><circle transform="scale(1,-1)" cx="202.22" cy="-743.19" r=".34151" opacity=".97"/><circle transform="scale(1,-1)" cx="204.24" cy="-740.79" r=".34151" opacity=".97"/><circle transform="scale(1,-1)" cx="204.29" cy="-743.21" r=".34151" opacity=".97"/></g><rect transform="scale(1,-1)" x="174.42" y="-743.31" width="3.3901" height="3.3901" fill="#000005" fill-rule="evenodd" opacity=".97" stroke="#000" stroke-linecap="square" stroke-linejoin="bevel" stroke-miterlimit="10.433" stroke-opacity="1" stroke-width=".91043"/><g fill="#fff" fill-rule="evenodd"><circle transform="scale(1,-1)" cx="174.94" cy="-740.44" r=".34151" opacity=".97" stroke="none"/><circle transform="scale(1,-1)" cx="177.36" cy="-742.72" r=".34151" opacity=".97" stroke="none"/><rect transform="scale(1,-1)" x="208.43" y="-737.02" width="3.3655" height="3.3655" opacity=".97" stroke="#fffff0" stroke-linecap="square" stroke-linejoin="bevel" stroke-miterlimit="10.433" stroke-opacity="1" stroke-width=".91043"/></g><g fill="#000" fill-rule="evenodd" stroke="none"><circle transform="scale(1,-1)" cx="209.1" cy="-734.11" r=".34151" opacity=".97"/><circle transform="scale(1,-1)" cx="209.09" cy="-735.36" r=".34151" opacity=".97"/><circle transform="scale(1,-1)" cx="209.08" cy="-736.56" r=".34151" opacity=".97"/><circle transform="scale(1,-1)" cx="211.19" cy="-734.11" r=".34151" opacity=".97"/><circle transform="scale(1,-1)" cx="211.16" cy="-735.34" r=".34151" opacity=".97"/><circle transform="scale(1,-1)" cx="211.14" cy="-736.6" r=".34151" opacity=".97"/></g><rect transform="scale(1,-1)" x="201.47" y="-737.12" width="3.3655" height="3.3655" fill="#fff" fill-rule="evenodd" opacity=".97" stroke="#fffff0" stroke-linecap="square" stroke-linejoin="bevel" stroke-miterlimit="10.433" stroke-opacity="1" stroke-width=".91043"/><g fill="#000" fill-rule="evenodd" stroke="none"><circle transform="scale(1,-1)" cx="202.14" cy="-734.21" r=".34151" opacity=".97"/><circle transform="scale(1,-1)" cx="202.13" cy="-735.46" r=".34151" opacity=".97"/><circle transform="scale(1,-1)" cx="202.12" cy="-736.66" r=".34151" opacity=".97"/><circle transform="scale(1,-1)" cx="204.23" cy="-734.21" r=".34151" opacity=".97"/><circle transform="scale(1,-1)" cx="204.2" cy="-735.44" r=".34151" opacity=".97"/><circle transform="scale(1,-1)" cx="204.18" cy="-736.7" r=".34151" opacity=".97"/></g><rect transform="scale(1,-1)" x="208.27" y="-747.99" width="3.3655" height="3.3655" fill="#fff" fill-rule="evenodd" opacity=".97" stroke="#fffff0" stroke-linecap="square" stroke-linejoin="bevel" stroke-miterlimit="10.433" stroke-opacity="1" stroke-width=".91043"/><g fill="#000" fill-rule="evenodd" stroke="none"><circle transform="scale(1,-1)" cx="208.97" cy="-745.08" r=".34151" opacity=".97"/><circle transform="scale(1,-1)" cx="208.92" cy="-747.52" r=".34151" opacity=".97"/><circle transform="scale(1,-1)" cx="211.01" cy="-745.07" r=".34151" opacity=".97"/><circle transform="scale(1,-1)" cx="210" cy="-746.31" r=".34151" opacity=".97"/><circle transform="scale(1,-1)" cx="210.98" cy="-747.56" r=".34151" opacity=".97"/></g><rect transform="scale(1,-1)" x="194.66" y="-747.99" width="3.3655" height="3.3655" fill="#fff" fill-rule="evenodd" opacity=".97" stroke="#fffff0" stroke-linecap="square" stroke-linejoin="bevel" stroke-miterlimit="10.433" stroke-opacity="1" stroke-width=".91043"/><g fill="#000" fill-rule="evenodd" stroke="none"><circle transform="scale(1,-1)" cx="195.38" cy="-745.08" r=".34151" opacity=".97"/><circle transform="scale(1,-1)" cx="195.32" cy="-747.53" r=".34151" opacity=".97"/><circle transform="scale(1,-1)" cx="197.41" cy="-745.08" r=".34151" opacity=".97"/><circle transform="scale(1,-1)" cx="196.41" cy="-746.32" r=".34151" opacity=".97"/><circle transform="scale(1,-1)" cx="197.38" cy="-747.57" r=".34151" opacity=".97"/></g><rect transform="scale(1,-1)" x="201.53" y="-747.96" width="3.3655" height="3.3655" fill="#fff" fill-rule="evenodd" opacity=".97" stroke="#fffff0" stroke-linecap="square" stroke-linejoin="bevel" stroke-miterlimit="10.433" stroke-opacity="1" stroke-width=".91043"/><g fill="#000" fill-rule="evenodd" stroke="none"><circle transform="scale(1,-1)" cx="202.23" cy="-745.04" r=".34151" opacity=".97"/><circle transform="scale(1,-1)" cx="202.17" cy="-747.49" r=".34151" opacity=".97"/><circle transform="scale(1,-1)" cx="204.26" cy="-745.04" r=".34151" opacity=".97"/><circle transform="scale(1,-1)" cx="203.26" cy="-746.28" r=".34151" opacity=".97"/><circle transform="scale(1,-1)" cx="204.24" cy="-747.53" r=".34151" opacity=".97"/></g><rect transform="scale(1,-1)" x="187.76" y="-747.78" width="3.3655" height="3.3655" fill="#fff" fill-rule="evenodd" opacity=".97" stroke="#fffff0" stroke-linecap="square" stroke-linejoin="bevel" stroke-miterlimit="10.433" stroke-opacity="1" stroke-width=".91043"/><g fill="#000" fill-rule="evenodd" stroke="none"><circle transform="scale(1,-1)" cx="188.46" cy="-744.87" r=".34151" opacity=".97"/><circle transform="scale(1,-1)" cx="188.41" cy="-747.31" r=".34151" opacity=".97"/><circle transform="scale(1,-1)" cx="190.5" cy="-744.86" r=".34151" opacity=".97"/><circle transform="scale(1,-1)" cx="189.49" cy="-746.1" r=".34151" opacity=".97"/><circle transform="scale(1,-1)" cx="190.52" cy="-747.35" r=".34151" opacity=".97"/></g><rect transform="scale(1,-1)" x="174.43" y="-747.59" width="3.3655" height="3.3655" fill="#fff" fill-rule="evenodd" opacity=".97" stroke="#fffff0" stroke-linecap="square" stroke-linejoin="bevel" stroke-miterlimit="10.433" stroke-opacity="1" stroke-width=".91043"/><g fill="#000" fill-rule="evenodd" stroke="none"><circle transform="scale(1,-1)" cx="174.99" cy="-744.79" r=".34151" opacity=".97"/><circle transform="scale(1,-1)" cx="177.34" cy="-747.17" r=".34151" opacity=".97"/><circle transform="scale(1,-1)" cx="176.22" cy="-746" r=".34151" opacity=".97"/></g><rect transform="scale(1,-1)" x="181.11" y="-759.42" width="3.3655" height="3.3655" fill="#fff" fill-rule="evenodd" opacity=".97" stroke="#fffff0" stroke-linecap="square" stroke-linejoin="bevel" stroke-miterlimit="10.433" stroke-opacity="1" stroke-width=".91043"/><g fill="#000" fill-rule="evenodd" stroke="none"><circle transform="scale(1,-1)" cx="181.56" cy="-756.52" r=".34151" opacity=".97"/><circle transform="scale(1,-1)" cx="183.97" cy="-758.83" r=".34151" opacity=".97"/><circle transform="scale(1,-1)" cx="182.79" cy="-757.74" r=".34151" opacity=".97"/></g><rect transform="scale(1,-1)" x="194.7" y="-770.78" width="3.3655" height="3.3655" fill="#fff" fill-rule="evenodd" opacity=".97" stroke="#fffff0" stroke-linecap="square" stroke-linejoin="bevel" stroke-miterlimit="10.433" stroke-opacity="1" stroke-width=".91043"/><g fill="#000" fill-rule="evenodd" stroke="none"><circle transform="scale(1,-1)" cx="195.26" cy="-767.97" r=".34151" opacity=".97"/><circle transform="scale(1,-1)" cx="197.61" cy="-770.35" r=".34151" opacity=".97"/><circle transform="scale(1,-1)" cx="196.49" cy="-769.18" r=".34151" opacity=".97"/></g><rect transform="scale(1,-1)" x="201.31" y="-770.74" width="3.3655" height="3.3655" fill="#fff" fill-rule="evenodd" opacity=".97" stroke="#fffff0" stroke-linecap="square" stroke-linejoin="bevel" stroke-miterlimit="10.433" stroke-opacity="1" stroke-width=".91043"/><g fill="#000" fill-rule="evenodd" stroke="none"><circle transform="scale(1,-1)" cx="201.87" cy="-767.93" r=".34151" opacity=".97"/><circle transform="scale(1,-1)" cx="204.22" cy="-770.31" r=".34151" opacity=".97"/><circle transform="scale(1,-1)" cx="203.1" cy="-769.14" r=".34151" opacity=".97"/></g><rect transform="scale(1,-1)" x="187.8" y="-770.7" width="3.3655" height="3.3655" fill="#fff" fill-rule="evenodd" opacity=".97" stroke="#fffff0" stroke-linecap="square" stroke-linejoin="bevel" stroke-miterlimit="10.433" stroke-opacity="1" stroke-width=".91043"/><g fill="#000" fill-rule="evenodd" stroke="none"><circle transform="scale(1,-1)" cx="188.35" cy="-767.89" r=".34151" opacity=".97"/><circle transform="scale(1,-1)" cx="190.71" cy="-770.28" r=".34151" opacity=".97"/><circle transform="scale(1,-1)" cx="189.59" cy="-769.11" r=".34151" opacity=".97"/></g><rect transform="scale(1,-1)" x="181.1" y="-737.2" width="3.3655" height="3.3655" fill="#fff" fill-rule="evenodd" opacity=".97" stroke="#fffff0" stroke-linecap="square" stroke-linejoin="bevel" stroke-miterlimit="10.433" stroke-opacity="1" stroke-width=".91043"/><g fill="#000" fill-rule="evenodd" stroke="none"><circle transform="scale(1,-1)" cx="181.8" cy="-734.29" r=".34151" opacity=".97"/><circle transform="scale(1,-1)" cx="181.74" cy="-736.73" r=".34151" opacity=".97"/><circle transform="scale(1,-1)" cx="183.83" cy="-734.28" r=".34151" opacity=".97"/><circle transform="scale(1,-1)" cx="182.83" cy="-735.52" r=".34151" opacity=".97"/><circle transform="scale(1,-1)" cx="183.81" cy="-736.77" r=".34151" opacity=".97"/></g><g fill-rule="evenodd"><rect transform="scale(1,-1)" x="174.23" y="-759.39" width="3.3655" height="3.3655" fill="#fff" opacity=".97" stroke="#fffff0" stroke-linecap="square" stroke-linejoin="bevel" stroke-miterlimit="10.433" stroke-opacity="1" stroke-width=".91043"/><circle transform="scale(1,-1)" cx="174.8" cy="-756.57" r=".34151" fill="#000" opacity=".97" stroke="none"/><circle transform="scale(1,-1)" cx="177.21" cy="-758.86" r=".34151" fill="#000" opacity=".97" stroke="none"/><rect transform="scale(1,-1)" x="181.1" y="-770.68" width="3.3655" height="3.3655" fill="#fff" opacity=".97" stroke="#fffff0" stroke-linecap="square" stroke-linejoin="bevel" stroke-miterlimit="10.433" stroke-opacity="1" stroke-width=".91043"/><circle transform="scale(1,-1)" cx="181.67" cy="-767.86" r=".34151" fill="#000" opacity=".97" stroke="none"/><circle transform="scale(1,-1)" cx="183.98" cy="-770.2" r=".34151" fill="#000" opacity=".97" stroke="none"/><rect transform="scale(1,-1)" x="194.75" y="-781.83" width="3.3655" height="3.3655" fill="#fff" opacity=".97" stroke="#fffff0" stroke-linecap="square" stroke-linejoin="bevel" stroke-miterlimit="10.433" stroke-opacity="1" stroke-width=".91043"/><circle transform="scale(1,-1)" cx="195.44" cy="-778.99" r=".34151" fill="#000" opacity=".97" stroke="none"/><circle transform="scale(1,-1)" cx="197.59" cy="-781.35" r=".34151" fill="#000" opacity=".97" stroke="none"/><rect transform="scale(1,-1)" x="187.88" y="-781.95" width="3.3655" height="3.3655" fill="#fff" opacity=".97" stroke="#fffff0" stroke-linecap="square" stroke-linejoin="bevel" stroke-miterlimit="10.433" stroke-opacity="1" stroke-width=".91043"/><circle transform="scale(1,-1)" cx="188.45" cy="-779.13" r=".34151" fill="#000" opacity=".97" stroke="none"/><circle transform="scale(1,-1)" cx="190.69" cy="-781.44" r=".34151" fill="#000" opacity=".97" stroke="none"/><rect transform="scale(1,-1)" x="208.31" y="-754.73" width="3.3901" height="3.3901" fill="#000005" opacity=".97" stroke="#000" stroke-linecap="square" stroke-linejoin="bevel" stroke-miterlimit="10.433" stroke-opacity="1" stroke-width=".91043"/></g><g fill="#fff" fill-rule="evenodd" stroke="none"><circle transform="scale(1,-1)" cx="208.99" cy="-751.85" r=".34151" opacity=".97"/><circle transform="scale(1,-1)" cx="208.98" cy="-753.05" r=".34151" opacity=".97"/><circle transform="scale(1,-1)" cx="208.93" cy="-754.29" r=".34151" opacity=".97"/><circle transform="scale(1,-1)" cx="211.02" cy="-751.84" r=".34151" opacity=".97"/><circle transform="scale(1,-1)" cx="211.01" cy="-753.06" r=".34151" opacity=".97"/><circle transform="scale(1,-1)" cx="210.99" cy="-754.33" r=".34151" opacity=".97"/></g><rect transform="scale(1,-1)" x="201.28" y="-766.46" width="3.3901" height="3.3901" fill="#000005" fill-rule="evenodd" opacity=".97" stroke="#000" stroke-linecap="square" stroke-linejoin="bevel" stroke-miterlimit="10.433" stroke-opacity="1" stroke-width=".91043"/><g fill="#fff" fill-rule="evenodd" stroke="none"><circle transform="scale(1,-1)" cx="201.96" cy="-763.58" r=".34151" opacity=".97"/><circle transform="scale(1,-1)" cx="201.95" cy="-764.78" r=".34151" opacity=".97"/><circle transform="scale(1,-1)" cx="201.9" cy="-766.02" r=".34151" opacity=".97"/><circle transform="scale(1,-1)" cx="203.99" cy="-763.57" r=".34151" opacity=".97"/><circle transform="scale(1,-1)" cx="203.98" cy="-764.79" r=".34151" opacity=".97"/><circle transform="scale(1,-1)" cx="203.96" cy="-766.06" r=".34151" opacity=".97"/></g><rect transform="scale(1,-1)" x="194.72" y="-777.55" width="3.3901" height="3.3901" fill="#000005" fill-rule="evenodd" opacity=".97" stroke="#000" stroke-linecap="square" stroke-linejoin="bevel" stroke-miterlimit="10.433" stroke-opacity="1" stroke-width=".91043"/><g fill="#fff" fill-rule="evenodd" stroke="none"><circle transform="scale(1,-1)" cx="195.4" cy="-774.67" r=".34151" opacity=".97"/><circle transform="scale(1,-1)" cx="195.39" cy="-775.87" r=".34151" opacity=".97"/><circle transform="scale(1,-1)" cx="195.34" cy="-777.11" r=".34151" opacity=".97"/><circle transform="scale(1,-1)" cx="197.43" cy="-774.66" r=".34151" opacity=".97"/><circle transform="scale(1,-1)" cx="197.43" cy="-775.88" r=".34151" opacity=".97"/><circle transform="scale(1,-1)" cx="197.41" cy="-777.15" r=".34151" opacity=".97"/></g><rect transform="scale(1,-1)" x="187.8" y="-788.55" width="3.3901" height="3.3901" fill="#000005" fill-rule="evenodd" opacity=".97" stroke="#000" stroke-linecap="square" stroke-linejoin="bevel" stroke-miterlimit="10.433" stroke-opacity="1" stroke-width=".91043"/><g fill="#fff" fill-rule="evenodd"><g stroke="none"><circle transform="scale(1,-1)" cx="188.48" cy="-785.67" r=".34151" opacity=".97"/><circle transform="scale(1,-1)" cx="188.47" cy="-786.87" r=".34151" opacity=".97"/><circle transform="scale(1,-1)" cx="188.42" cy="-788.11" r=".34151" opacity=".97"/><circle transform="scale(1,-1)" cx="190.51" cy="-785.66" r=".34151" opacity=".97"/><circle transform="scale(1,-1)" cx="190.5" cy="-786.88" r=".34151" opacity=".97"/><circle transform="scale(1,-1)" cx="190.48" cy="-788.15" r=".34151" opacity=".97"/></g><rect transform="scale(1,-1)" x="153.94" y="-737.18" width="3.3655" height="3.3655" opacity=".97" stroke="#fffff0" stroke-linecap="square" stroke-linejoin="bevel" stroke-miterlimit="10.433" stroke-opacity="1" stroke-width=".91043"/></g><circle transform="scale(1,-1)" cx="155.64" cy="-735.49" r=".34151" fill="#000" fill-rule="evenodd" opacity=".97" stroke="none"/></g><rect transform="scale(1,-1)" x="279.26" y="-695.21" width="1.3572" height="1.3572" fill="#000005" fill-rule="evenodd" opacity=".97" stroke="#000" stroke-linecap="square" stroke-linejoin="bevel" stroke-miterlimit="10.433" stroke-opacity="1" stroke-width=".36448"/><g fill="#fff" fill-rule="evenodd" stroke="none"><ellipse transform="scale(1,-1)" cx="279.5" cy="-694.12" rx=".13672" ry=".13672" opacity=".97"/><ellipse transform="scale(1,-1)" cx="280.39" cy="-695.03" rx=".13672" ry=".13672" opacity=".97"/><ellipse transform="scale(1,-1)" cx="279.95" cy="-694.58" rx=".13672" ry=".13672" opacity=".97"/></g><rect transform="scale(1,-1)" x="292.87" y="-686.23" width="1.3572" height="1.3572" fill="#000005" fill-rule="evenodd" opacity=".97" stroke="#000" stroke-linecap="square" stroke-linejoin="bevel" stroke-miterlimit="10.433" stroke-opacity="1" stroke-width=".36448"/><g fill="#fff" fill-rule="evenodd" stroke="none"><ellipse transform="scale(1,-1)" cx="293.12" cy="-685.13" rx=".13672" ry=".13672" opacity=".97"/><ellipse transform="scale(1,-1)" cx="294.01" cy="-686.05" rx=".13672" ry=".13672" opacity=".97"/><ellipse transform="scale(1,-1)" cx="293.57" cy="-685.59" rx=".13672" ry=".13672" opacity=".97"/></g><rect transform="scale(1,-1)" x="290.16" y="-690.58" width="1.3572" height="1.3572" fill="#000005" fill-rule="evenodd" opacity=".97" stroke="#000" stroke-linecap="square" stroke-linejoin="bevel" stroke-miterlimit="10.433" stroke-opacity="1" stroke-width=".36448"/><g fill="#fff" fill-rule="evenodd" stroke="none"><ellipse transform="scale(1,-1)" cx="290.39" cy="-689.44" rx=".13672" ry=".13672" opacity=".97"/><ellipse transform="scale(1,-1)" cx="291.36" cy="-690.37" rx=".13672" ry=".13672" opacity=".97"/><ellipse transform="scale(1,-1)" cx="290.89" cy="-689.92" rx=".13672" ry=".13672" opacity=".97"/></g><g fill-rule="evenodd"><rect transform="scale(1,-1)" x="284.74" y="-690.53" width="1.3572" height="1.3572" fill="#000005" opacity=".97" stroke="#000" stroke-linecap="square" stroke-linejoin="bevel" stroke-miterlimit="10.433" stroke-opacity="1" stroke-width=".36448"/><ellipse transform="scale(1,-1)" cx="284.95" cy="-689.38" rx=".13672" ry=".13672" fill="#fff" opacity=".97" stroke="none"/><ellipse transform="scale(1,-1)" cx="285.92" cy="-690.29" rx=".13672" ry=".13672" fill="#fff" opacity=".97" stroke="none"/><rect transform="scale(1,-1)" x="287.38" y="-690.56" width="1.3572" height="1.3572" fill="#000005" opacity=".97" stroke="#000" stroke-linecap="square" stroke-linejoin="bevel" stroke-miterlimit="10.433" stroke-opacity="1" stroke-width=".36448"/><ellipse transform="scale(1,-1)" cx="287.59" cy="-689.41" rx=".13672" ry=".13672" fill="#fff" opacity=".97" stroke="none"/><ellipse transform="scale(1,-1)" cx="288.56" cy="-690.32" rx=".13672" ry=".13672" fill="#fff" opacity=".97" stroke="none"/><rect transform="scale(1,-1)" x="295.59" y="-690.65" width="1.3572" height="1.3572" fill="#000005" opacity=".97" stroke="#000" stroke-linecap="square" stroke-linejoin="bevel" stroke-miterlimit="10.433" stroke-opacity="1" stroke-width=".36448"/></g><g fill="#fff" fill-rule="evenodd" stroke="none"><ellipse transform="scale(1,-1)" cx="295.86" cy="-689.49" rx=".13672" ry=".13672" opacity=".97"/><ellipse transform="scale(1,-1)" cx="296.31" cy="-690.02" rx=".13672" ry=".13672" opacity=".97"/><ellipse transform="scale(1,-1)" cx="295.84" cy="-690.47" rx=".13672" ry=".13672" opacity=".97"/><ellipse transform="scale(1,-1)" cx="296.73" cy="-689.48" rx=".13672" ry=".13672" opacity=".97"/><ellipse transform="scale(1,-1)" cx="296.7" cy="-690.49" rx=".13672" ry=".13672" opacity=".97"/></g><g fill-rule="evenodd"><rect transform="scale(1,-1)" x="290.23" y="-686.25" width="1.3572" height="1.3572" fill="#000005" opacity=".97" stroke="#000" stroke-linecap="square" stroke-linejoin="bevel" stroke-miterlimit="10.433" stroke-opacity="1" stroke-width=".36448"/><ellipse transform="scale(1,-1)" cx="290.44" cy="-685.1" rx=".13672" ry=".13672" fill="#fff" opacity=".97" stroke="none"/><ellipse transform="scale(1,-1)" cx="291.4" cy="-686.01" rx=".13672" ry=".13672" fill="#fff" opacity=".97" stroke="none"/></g><g stroke-miterlimit="10.433"><path d="m303 688.25h0.67256" fill="none" stroke="#000" stroke-opacity=".62745" stroke-width=".072896px"/><g transform="matrix(.1098 0 0 .1098 277.51 631.89)" fill="#000" fill-opacity=".70588" fill-rule="evenodd" stroke="#000" stroke-opacity=".56522" ns0:preamble="default_packages.tex" ns0:text="$$\\frac{6}{36} \\frac{5}{36} \\frac{4}{36} \\frac{3}{36} \\frac{2}{36} \\frac{1}{36}$$\n" xml:space="preserve"><g stroke-width="0"><path d="m257.18 725.87v0.31648c0 3.3098 1.6219 3.7845 2.2944 3.7845 0.31647 0 0.87032-0.0791 1.1604-0.52746-0.1978 0-0.72525 0-0.72525-0.59338 0-0.40879 0.31646-0.59339 0.60657-0.59339 0.21098 0 0.60657 0.10557 0.60657 0.61975 0 0.79118-0.5802 1.4241-1.6747 1.4241-1.6879 0-3.4548-1.701-3.4548-4.5888 0-3.4944 1.5296-4.4306 2.7428-4.4306 1.4637 0 2.7164 1.2263 2.7164 2.9669 0 1.6615-1.1736 2.9142-2.6373 2.9142l-0.0126-0.3033c0.21097 0 0.81757 0 1.2263-0.80436 0.23735-0.48789 0.23735-1.1604 0.23735-1.8065 0-0.61976 0-1.2791-0.22417-1.7538-0.39559-0.77799-1.0022-0.84392-1.3054-0.84392-0.83073 0-1.2132 0.778-1.2923 0.97578-0.25055 0.61977-0.25055 1.6747-0.25055 1.8988 0 1.0285 0.42197 2.334 1.6087 2.334l0.0126 0.3033c-0.89668 0-1.3714-0.67252-1.6351-1.2923z"/><path d="m256.66 712.34 0.10556 0.0396 0.0922 0.0396 0.0922 0.0395 0.0922 0.0396 0.2766 0.1584 0.079 0.0528 0.0922 0.0528 0.079 0.066 0.066 0.066 0.158 0.132 0.066 0.066 0.066 0.079 0.0528 0.066 0.066 0.0791 0.1584 0.237 0.0396 0.0923 0.0528 0.079 0.0396 0.0923 0.0263 0.079 0.0396 0.0923 0.0263 0.0922 0.0126 0.0922 0.0263 0.0923 0.0252 0.1844v0.10557l0.0126 0.0922c0 1.0813-1.1604 1.8065-2.4263 1.8065-1.3318 0-2.3208-0.778-2.3208-1.7802 0-0.43517 0.29011-0.68569 0.65934-0.68569 0.40876 0 0.67249 0.2901 0.67249 0.67249 0 0.65934-0.61975 0.65934-0.80437 0.65934 0.3956 0.63294 1.2659 0.80436 1.7406 0.80436 0.54063 0 1.2659-0.29011 1.2659-1.4637 0-0.15823-0.0265-0.90985-0.36922-1.49-0.3956-0.63296-0.84392-0.67252-1.1736-0.6857-0.10556-0.0126-0.42196-0.0396-0.51427-0.0396-0.10556-0.0126-0.19779-0.0263-0.19779-0.15824 0-0.14505 0.0922-0.14505 0.31646-0.14505h0.5802c1.0813 0 1.5692-0.8835 1.5692-2.1758 0-1.7802-0.90985-2.1494-1.49-2.1494-0.56702 0-1.556 0.21099-2.0043 0.98898 0.44834-0.066 0.85711 0.22417 0.85711 0.72524 0 0.46153-0.35603 0.72526-0.73844 0.72526-0.30328 0-0.72525-0.18461-0.72525-0.75163 0-1.2 1.2132-2.0571 2.6505-2.0571 1.6087 0 2.8087 1.1868 2.8087 2.5186 0 1.0813-0.83075 2.0966-2.2021 2.3735z"/><path d="m261.16 712.02v0.31646c0 3.323 1.6219 3.7845 2.2944 3.7845 0.31646 0 0.8703-0.0791 1.1604-0.52746-0.19781 0-0.72526 0-0.72526-0.5802 0-0.40878 0.31647-0.60656 0.60659-0.60656 0.21097 0 0.60656 0.11863 0.60656 0.63294 0 0.77798-0.58021 1.4109-1.6747 1.4109-1.6879 0-3.4548-1.6879-3.4548-4.5888 0-3.4944 1.5296-4.4174 2.7428-4.4174 1.4637 0 2.7164 1.2263 2.7164 2.9537 0 1.6615-1.1736 2.9274-2.6373 2.9274l-0.0126-0.30329c0.21098 0 0.81756 0 1.2263-0.81755 0.23734-0.48789 0.23734-1.1472 0.23734-1.7933 0-0.61976 0-1.2791-0.22416-1.7538-0.3956-0.79119-1.0022-0.84393-1.3054-0.84393-0.83074 0-1.2131 0.778-1.2922 0.97579-0.23737 0.61976-0.23737 1.6615-0.23737 1.8988 0 1.0286 0.40878 2.334 1.5956 2.334l0.0126 0.30329c-0.89668 0-1.3714-0.6725-1.6351-1.3054z"/><path d="m262.06 682.54v0.14505l-0.0126 0.14505-0.0126 0.13183-0.0265 0.14505-0.0263 0.13183-0.0265 0.14505-0.0396 0.13183-0.0396 0.11864-0.0528 0.13181-0.0528 0.11876-0.066 0.13182-0.0528 0.10556-0.079 0.11864-0.066 0.10556-0.079 0.10557-0.079 0.10556-0.0922 0.0922-0.0922 0.0923-0.0922 0.079-0.0923 0.0791-0.10556 0.079-0.10556 0.066-0.10557 0.066-0.10556 0.066-0.11876 0.0528-0.11876 0.0396-0.11864 0.0396-0.11876 0.0396-0.13182 0.0265-0.13182 0.0126-0.11876 0.0126h-0.13182c-0.63294 0-1.2-0.21097-1.6747-0.65931v2.545c0.26372-0.079 0.69888-0.17143 1.1208-0.17143 1.6087 0 2.5318 1.2 2.5318 1.3714 0 0.079-0.0396 0.14505-0.13182 0.14505-0.0126 0-0.0396 0-0.10556-0.0528-0.26374-0.10556-0.90987-0.36922-1.7802-0.36922-0.52745 0-1.134 0.0922-1.7538 0.35604-0.10557 0.0528-0.13183 0.0528-0.15825 0.0528-0.13182 0-0.13182-0.10556-0.13182-0.31647v-3.8768c0-0.23737 0-0.34286 0.1846-0.34286 0.0922 0 0.11876 0.0396 0.17142 0.11876 0.14505 0.21099 0.63295 0.90986 1.701 0.90986 0.6725 0 1.0022-0.59338 1.1076-0.83075 0.21098-0.48788 0.23737-1.0022 0.23737-1.6483 0-0.46152 0-1.2527-0.31648-1.8065-0.31648-0.50109-0.79118-0.84393-1.3978-0.84393-0.96262 0-1.7142 0.68569-1.9384 1.4637 0.0396-0.0126 0.079-0.0263 0.22416-0.0263 0.43515 0 0.65934 0.32966 0.65934 0.64614 0 0.31647-0.22419 0.64614-0.65934 0.64614-0.1846 0-0.64612-0.0922-0.64612-0.69889 0-1.134 0.90986-2.3999 2.3867-2.3999 1.5164 0 2.8614 1.2527 2.8614 2.9274z"/><path d="m256.57 670.73 0.10557 0.0396 0.0922 0.0396 0.10557 0.0395 0.0922 0.0396 0.1844 0.1056 0.079 0.0528 0.0922 0.0528 0.079 0.0528 0.237 0.198 0.132 0.132 0.066 0.079 0.066 0.066 0.0528 0.0791 0.066 0.079 0.0528 0.079 0.0396 0.079 0.0528 0.0923 0.0396 0.079 0.0396 0.0923 0.0396 0.079 0.0263 0.0923 0.0265 0.0922 0.0263 0.0922 0.0126 0.0923 0.0263 0.0922v0.0922l0.0126 0.10557v0.0922c0 1.0813-1.1604 1.8065-2.4131 1.8065-1.3318 0-2.334-0.778-2.334-1.7802 0-0.43517 0.2901-0.68569 0.67249-0.68569 0.40879 0 0.67252 0.2901 0.67252 0.67249 0 0.65934-0.61976 0.65934-0.81756 0.65934 0.40878 0.63294 1.2791 0.80436 1.7406 0.80436 0.54063 0 1.2659-0.29011 1.2659-1.4637 0-0.15823-0.0263-0.90985-0.36923-1.49-0.39559-0.63296-0.83072-0.67252-1.1604-0.6857-0.10556-0.0126-0.42196-0.0396-0.51427-0.0396-0.10556-0.0126-0.19779-0.0263-0.19779-0.15824 0-0.14505 0.0922-0.14505 0.31646-0.14505h0.56702c1.0813 0 1.5692-0.8835 1.5692-2.1758 0-1.7802-0.90986-2.1494-1.4768-2.1494-0.56703 0-1.556 0.21099-2.0175 0.98898 0.46153-0.066 0.8703 0.22417 0.8703 0.72524 0 0.46153-0.35603 0.72526-0.73844 0.72526-0.31648 0-0.73843-0.18461-0.73843-0.75163 0-1.2 1.2263-2.0571 2.6636-2.0571 1.5956 0 2.7955 1.1868 2.7955 2.5186 0 1.0813-0.83074 2.0966-2.2021 2.3735z"/><path d="m261.07 670.42v0.31646c0 3.323 1.6351 3.7845 2.2944 3.7845 0.31647 0 0.87029-0.0791 1.1604-0.52746-0.19781 0-0.72526 0-0.72526-0.5802 0-0.40878 0.31648-0.60656 0.60656-0.60656 0.21099 0 0.6066 0.11863 0.6066 0.63294 0 0.77798-0.5802 1.4109-1.6615 1.4109-1.6878 0-3.468-1.6879-3.468-4.5888 0-3.4944 1.5296-4.4174 2.756-4.4174 1.4505 0 2.7032 1.2263 2.7032 2.9537 0 1.6615-1.1736 2.9274-2.6241 2.9274l-0.0126-0.30329c0.21098 0 0.80437 0 1.2132-0.81755 0.23737-0.48789 0.23737-1.1472 0.23737-1.7933 0-0.61976 0-1.2791-0.22419-1.7538-0.39559-0.79119-0.98897-0.84393-1.2922-0.84393-0.83076 0-1.2263 0.778-1.3055 0.97579-0.23734 0.61976-0.23734 1.6615-0.23734 1.8988 0 1.0286 0.42197 2.334 1.6087 2.334l0.0126 0.30329c-0.89668 0-1.3846-0.6725-1.6483-1.3054z"/><path d="m260.03 640.05v-1.1472c0-0.46152-0.0263-0.60657-1.0022-0.60657h-0.27692v-0.40879c0.54064 0.0396 1.2263 0.0396 1.7802 0.0396s1.2395 0 1.7802-0.0396v0.40879h-0.2769c-0.96261 0-0.98899 0.14505-0.98899 0.60657v1.1472h1.3055v0.40879h-1.3055v5.9602c0 0.26373 0 0.32966-0.21097 0.32966-0.11876 0-0.15824 0-0.26374-0.14507l-4.0482-6.1448h0.36923l3.2175 4.8789v-4.8789h-3.5867v-0.40879z"/><path d="m256.84 629.45 0.0922 0.0396 0.10557 0.0396 0.0922 0.0395 0.0922 0.0396 0.2766 0.1584 0.158 0.1056 0.237 0.198 0.066 0.066 0.079 0.066 0.066 0.079 0.0528 0.066 0.066 0.0791 0.1584 0.237 0.0396 0.0923 0.0396 0.079 0.0395 0.0923 0.0396 0.079 0.0265 0.0923 0.0396 0.0922 0.0126 0.0922 0.0263 0.0923 0.0252 0.1844v0.19777c0 1.0813-1.1472 1.8065-2.4131 1.8065-1.3318 0-2.334-0.778-2.334-1.7802 0-0.43517 0.2901-0.68569 0.6725-0.68569 0.40879 0 0.67251 0.2901 0.67251 0.67249 0 0.65934-0.61976 0.65934-0.81756 0.65934 0.40877 0.63294 1.2791 0.80436 1.7538 0.80436 0.54065 0 1.2659-0.29011 1.2659-1.4637 0-0.15823-0.0263-0.90985-0.36923-1.49-0.39557-0.63296-0.84392-0.67252-1.1736-0.6857-0.10556-0.0126-0.42196-0.0396-0.51427-0.0396-0.10557-0.0126-0.19779-0.0263-0.19779-0.15824 0-0.14505 0.0922-0.14505 0.31648-0.14505h0.5802c1.0813 0 1.5692-0.8835 1.5692-2.1758 0-1.7802-0.90985-2.1494-1.49-2.1494-0.56701 0-1.556 0.21099-2.0175 0.98898 0.46153-0.066 0.87031 0.22417 0.87031 0.72524 0 0.46153-0.35603 0.72526-0.73845 0.72526-0.31647 0-0.72524-0.18461-0.72524-0.75163 0-1.2 1.2132-2.0571 2.6505-2.0571 1.6087 0 2.7955 1.1868 2.7955 2.5186 0 1.0813-0.83075 2.0966-2.189 2.3735z"/><path d="m261.32 629.13v0.31646c0 3.323 1.6351 3.7845 2.3076 3.7845 0.31646 0 0.87029-0.0791 1.1604-0.52746-0.19779 0-0.72524 0-0.72524-0.5802 0-0.40878 0.31647-0.60656 0.60656-0.60656 0.21099 0 0.60659 0.11863 0.60659 0.63294 0 0.77798-0.5802 1.4109-1.6747 1.4109-1.6879 0-3.4548-1.6879-3.4548-4.5888 0-3.4944 1.5164-4.4174 2.7428-4.4174 1.4637 0 2.7032 1.2263 2.7032 2.9537 0 1.6615-1.1604 2.9274-2.6241 2.9274l-0.0126-0.30329c0.21098 0 0.81755 0 1.2263-0.81755 0.23734-0.48789 0.23734-1.1472 0.23734-1.7933 0-0.61976 0-1.2791-0.22416-1.7538-0.39559-0.79119-1.0022-0.84393-1.3054-0.84393-0.83075 0-1.2264 0.778-1.3055 0.97579-0.23736 0.61976-0.23736 1.6615-0.23736 1.8988 0 1.0286 0.42196 2.334 1.6088 2.334l0.0126 0.30329c-0.89667 0-1.3846-0.6725-1.6483-1.3054z"/><path d="m260.22 605.44 0.10557 0.0263 0.0922 0.0396 0.10556 0.0396 0.0922 0.0528 0.0922 0.0396 0.079 0.0528 0.1844 0.1056 0.079 0.066 0.079 0.0528 0.079 0.066 0.066 0.066 0.079 0.066 0.066 0.066 0.066 0.079 0.066 0.0791 0.0528 0.066 0.0528 0.079 0.0528 0.0791 0.0528 0.0922 0.0528 0.0791 0.0396 0.079 0.0396 0.0922 0.0265 0.0923 0.0396 0.0922 0.0263 0.0791 0.0265 0.0922 0.0126 0.0922 0.0126 0.10557 0.0252 0.1844v0.0923c0 1.0813-1.1604 1.8197-2.4263 1.8197-1.3186 0-2.3208-0.79119-2.3208-1.7934 0-0.42197 0.2901-0.67249 0.67251-0.67249 0.40877 0 0.67249 0.29008 0.67249 0.65931 0 0.65932-0.61973 0.65932-0.81754 0.65932 0.40878 0.64613 1.2659 0.81755 1.7406 0.81755 0.54064 0 1.2659-0.29009 1.2659-1.4769 0-0.15825-0.0263-0.90986-0.36921-1.4901-0.3956-0.63294-0.84393-0.65931-1.1736-0.6725-0.10557-0.0263-0.40879-0.0528-0.50109-0.0528-0.10557 0-0.19781-0.0126-0.19781-0.14505 0-0.14505 0.0922-0.14505 0.30329-0.14505h0.5802c1.0813 0 1.5692-0.89668 1.5692-2.1758 0-1.7802-0.90986-2.1626-1.4901-2.1626-0.56702 0-1.5428 0.22416-2.0043 0.98899 0.46151-0.066 0.87029 0.22416 0.87029 0.72524 0 0.47471-0.35604 0.73843-0.73843 0.73843-0.31648 0-0.73845-0.1846-0.73845-0.7648 0-1.1868 1.2263-2.0571 2.6505-2.0571 1.6087 0 2.8087 1.1868 2.8087 2.5318 0 1.0681-0.83072 2.0966-2.2021 2.3736z"/><path d="m257.15 590.9 0.10557 0.0396 0.0922 0.0396 0.0922 0.0395 0.10557 0.0396 0.0922 0.0528 0.0791 0.0528 0.0922 0.0528 0.0791 0.0528 0.0922 0.0528 0.0791 0.066 0.079 0.066 0.066 0.066 0.079 0.066 0.066 0.066 0.066 0.079 0.066 0.066 0.0528 0.0791 0.1584 0.237 0.0528 0.0923 0.0396 0.079 0.0396 0.0923 0.0265 0.079 0.0396 0.0923 0.0263 0.0922 0.0265 0.0922 0.0126 0.0923 0.0252 0.1844 0.0126 0.10557v0.0922c0 1.0813-1.1604 1.8065-2.4263 1.8065-1.3186 0-2.3208-0.778-2.3208-1.7802 0-0.43517 0.29011-0.68569 0.67252-0.68569 0.40876 0 0.65931 0.2901 0.65931 0.67249 0 0.65934-0.60656 0.65934-0.80437 0.65934 0.39559 0.63294 1.2659 0.80436 1.7406 0.80436 0.54064 0 1.2659-0.29011 1.2659-1.4637 0-0.15823-0.0265-0.90985-0.36923-1.49-0.3956-0.63296-0.84393-0.67252-1.1736-0.6857-0.10557-0.0126-0.42197-0.0396-0.51427-0.0396-0.10557-0.0126-0.1978-0.0263-0.1978-0.15824 0-0.14505 0.0922-0.14505 0.31647-0.14505h0.5802c1.0813 0 1.5692-0.8835 1.5692-2.1758 0-1.7802-0.90986-2.1494-1.4901-2.1494-0.56702 0-1.5428 0.21099-2.0043 0.98898 0.4615-0.066 0.87028 0.22417 0.87028 0.72524 0 0.46153-0.36921 0.72526-0.73843 0.72526-0.31648 0-0.73843-0.18461-0.73843-0.75163 0-1.2 1.2263-2.0571 2.6504-2.0571 1.6088 0 2.8087 1.1868 2.8087 2.5186 0 1.0813-0.83073 2.0966-2.2021 2.3735z"/><path d="m261.65 590.59v0.31646c0 3.323 1.6219 3.7845 2.2944 3.7845 0.31647 0 0.87029-0.0791 1.1604-0.52746-0.19781 0-0.72527 0-0.72527-0.5802 0-0.40878 0.31648-0.60656 0.60659-0.60656 0.21098 0 0.60657 0.11863 0.60657 0.63294 0 0.77798-0.5802 1.4109-1.6747 1.4109-1.6747 0-3.4548-1.6879-3.4548-4.5888 0-3.4944 1.5296-4.4174 2.7428-4.4174 1.4637 0 2.7164 1.2263 2.7164 2.9537 0 1.6615-1.1736 2.9274-2.6373 2.9274l-0.0126-0.30329c0.21097 0 0.81755 0 1.2263-0.81755 0.23737-0.48789 0.23737-1.1472 0.23737-1.7933 0-0.61976 0-1.2791-0.22417-1.7538-0.3956-0.79119-1.0022-0.84393-1.3054-0.84393-0.83075 0-1.2132 0.778-1.2923 0.97579-0.23737 0.61976-0.23737 1.6615-0.23737 1.8988 0 1.0286 0.42197 2.334 1.5956 2.334l0.0126 0.30329c-0.89668 0-1.3714-0.6725-1.6351-1.3054z"/><path d="m258.34 561.26 1.3978 1.3582c2.0439 1.8065 2.8351 2.5054 2.8351 3.824 0 1.4901-1.1868 2.545-2.7823 2.545-1.4901 0-2.4658-1.2132-2.4658-2.3735 0-0.73843 0.65931-0.73843 0.69887-0.73843 0.22416 0 0.68569 0.15823 0.68569 0.69887 0 0.34285-0.23735 0.6725-0.69887 0.6725-0.10556 0-0.13183 0-0.17142-0.0126 0.30327 0.8571 1.0154 1.345 1.7802 1.345 1.1868 0 1.7538-1.0681 1.7538-2.1362 0-1.0549-0.65931-2.0834-1.3714-2.901l-2.5318-2.7955c-0.14505-0.14505-0.14505-0.17143-0.14505-0.48791h4.879l0.36921 2.2813h-0.32965c-0.066-0.39559-0.15824-0.9758-0.29011-1.1736-0.0922-0.10556-0.94942-0.10556-1.2395-0.10556z"/><path d="m257.84 551.39 0.0922 0.0396 0.10557 0.0396 0.0922 0.0395 0.0922 0.0396 0.1844 0.1056 0.079 0.0528 0.0922 0.0528 0.079 0.0528 0.237 0.198 0.132 0.132 0.066 0.079 0.066 0.066 0.0528 0.0791 0.066 0.079 0.0528 0.079 0.0396 0.079 0.0528 0.0923 0.0396 0.079 0.0396 0.0923 0.0396 0.079 0.0263 0.0923 0.0265 0.0922 0.0263 0.0922 0.0126 0.0923 0.0265 0.0922v0.0922l0.0126 0.10557v0.0922c0 1.0813-1.1604 1.8065-2.4131 1.8065-1.3318 0-2.334-0.778-2.334-1.7802 0-0.43517 0.2901-0.68569 0.6725-0.68569 0.40878 0 0.67252 0.2901 0.67252 0.67249 0 0.65934-0.61977 0.65934-0.81757 0.65934 0.40878 0.63294 1.2791 0.80436 1.7538 0.80436 0.52746 0 1.2527-0.29011 1.2527-1.4637 0-0.15823-0.0263-0.90985-0.36921-1.49-0.39559-0.63296-0.83073-0.67252-1.1604-0.6857-0.10557-0.0126-0.42197-0.0396-0.51426-0.0396-0.10557-0.0126-0.1978-0.0263-0.1978-0.15824 0-0.14505 0.0922-0.14505 0.31647-0.14505h0.5802c1.0681 0 1.556-0.8835 1.556-2.1758 0-1.7802-0.89668-2.1494-1.4769-2.1494-0.56701 0-1.556 0.21099-2.0175 0.98898 0.46153-0.066 0.8703 0.22417 0.8703 0.72524 0 0.46153-0.35603 0.72526-0.73843 0.72526-0.31648 0-0.73844-0.18461-0.73844-0.75163 0-1.2 1.2263-2.0571 2.6636-2.0571 1.5956 0 2.7955 1.1868 2.7955 2.5186 0 1.0813-0.83074 2.0966-2.1889 2.3735z"/><path d="m262.32 551.08v0.31646c0 3.323 1.6351 3.7845 2.3076 3.7845 0.30328 0 0.8571-0.0791 1.1472-0.52746-0.19779 0-0.71206 0-0.71206-0.5802 0-0.40878 0.30329-0.60656 0.59338-0.60656 0.21099 0 0.60659 0.11863 0.60659 0.63294 0 0.77798-0.5802 1.4109-1.6615 1.4109-1.6879 0-3.468-1.6879-3.468-4.5888 0-3.4944 1.5296-4.4174 2.7559-4.4174 1.4505 0 2.7032 1.2263 2.7032 2.9537 0 1.6615-1.1736 2.9274-2.6241 2.9274l-0.0126-0.30329c0.21097 0 0.81755 0 1.2263-0.81755 0.22416-0.48789 0.22416-1.1472 0.22416-1.7933 0-0.61976 0-1.2791-0.22416-1.7538-0.3824-0.79119-0.98897-0.84393-1.2922-0.84393-0.83075 0-1.2263 0.778-1.3055 0.97579-0.23734 0.61976-0.23734 1.6615-0.23734 1.8988 0 1.0286 0.42197 2.334 1.6087 2.334l0.0126 0.30329c-0.89666 0-1.3846-0.6725-1.6483-1.3054z"/><path d="m261.33 522.65v0.1764h-0.0126v0.0504l-0.0126 0.0126v0.0252l-0.0126 0.0126h-0.0126v0.0126h-0.0126l-0.0126 0.0126h-0.0252l-0.0126 0.0126h-0.1638l-0.0126 0.0126c-0.81755-0.84393-1.978-0.84393-2.3999-0.84393v-0.40876c0.26373 0 1.0417 0 1.7274 0.34283v-6.791c0-0.46153-0.0396-0.61976-1.2263-0.61976h-0.42196v-0.40879c0.46151 0.0396 1.6087 0.0396 2.1362 0.0396 0.52745 0 1.6747 0 2.1362-0.0396v0.40879h-0.42197c-1.1868 0-1.2263 0.14505-1.2263 0.61976z"/><path d="m257.99 505.19 0.0922 0.0396 0.10557 0.0396 0.0922 0.0395 0.0922 0.0396 0.2766 0.1584 0.158 0.1056 0.0922 0.066 0.066 0.066 0.079 0.066 0.066 0.066 0.079 0.066 0.066 0.079 0.0528 0.066 0.066 0.0791 0.1584 0.237 0.0396 0.0923 0.0528 0.079 0.0396 0.0923 0.0263 0.079 0.0396 0.0923 0.0263 0.0922 0.0126 0.0922 0.0263 0.0923 0.0252 0.1844v0.10557l0.0126 0.0922c0 1.0813-1.1604 1.8065-2.4263 1.8065-1.3318 0-2.334-0.778-2.334-1.7802 0-0.43517 0.29011-0.68569 0.67252-0.68569 0.40876 0 0.67249 0.2901 0.67249 0.67249 0 0.65934-0.61975 0.65934-0.81756 0.65934 0.40879 0.63294 1.2791 0.80436 1.7538 0.80436 0.54063 0 1.2659-0.29011 1.2659-1.4637 0-0.15823-0.0263-0.90985-0.36922-1.49-0.39558-0.63296-0.84392-0.67252-1.1736-0.6857-0.10556-0.0126-0.42196-0.0396-0.51427-0.0396-0.10556-0.0126-0.19779-0.0263-0.19779-0.15824 0-0.14505 0.0922-0.14505 0.31646-0.14505h0.5802c1.0813 0 1.5692-0.8835 1.5692-2.1758 0-1.7802-0.90985-2.1494-1.49-2.1494-0.56703 0-1.556 0.21099-2.0175 0.98898 0.46153-0.066 0.87029 0.22417 0.87029 0.72524 0 0.46153-0.35602 0.72526-0.73844 0.72526-0.30327 0-0.72523-0.18461-0.72523-0.75163 0-1.2 1.2131-2.0571 2.6505-2.0571 1.6087 0 2.7955 1.1868 2.7955 2.5186 0 1.0813-0.81754 2.0966-2.1889 2.3735z"/><path d="m262.49 504.88v0.31646c0 3.323 1.6219 3.7845 2.2944 3.7845 0.31646 0 0.8703-0.0791 1.1604-0.52746-0.19778 0-0.72524 0-0.72524-0.5802 0-0.40878 0.31647-0.60656 0.60657-0.60656 0.21098 0 0.60655 0.11863 0.60655 0.63294 0 0.77798-0.58017 1.4109-1.6746 1.4109-1.6879 0-3.4548-1.6879-3.4548-4.5888 0-3.4944 1.5164-4.4174 2.7427-4.4174 1.4637 0 2.7164 1.2263 2.7164 2.9537 0 1.6615-1.1736 2.9274-2.6373 2.9274l-0.0126-0.30329c0.21098 0 0.81754 0 1.2263-0.81755 0.23734-0.48789 0.23734-1.1472 0.23734-1.7933 0-0.61976 0-1.2791-0.22416-1.7538-0.39559-0.79119-1.0022-0.84393-1.3055-0.84393-0.83073 0-1.2263 0.778-1.3054 0.97579-0.22416 0.61976-0.22416 1.6615-0.22416 1.8988 0 1.0286 0.40877 2.334 1.5956 2.334l0.0126 0.30329c-0.89668 0-1.3846-0.6725-1.6351-1.3054z"/></g><path d="m254.15 597.82h11.024" stroke="#000" stroke-miterlimit="10.433" stroke-opacity=".56522" stroke-width=".66388"/><g fill-rule="evenodd" stroke="#000" stroke-miterlimit="10.433" stroke-opacity=".56522" stroke-width=".66388"><path d="m254.98 557.36h11.024"/><path d="m253.87 636h11.024"/><path d="m253.79 677.6h11.024"/><path d="m253.78 718.66h11.024"/><path d="m254.8 511.72h11.024"/></g></g><rect transform="scale(1,-1)" x="287.46" y="-687.98" width="1.3474" height="1.3474" fill="#fff" fill-rule="evenodd" opacity=".97" stroke="#fffff0" stroke-linecap="square" stroke-linejoin="bevel" stroke-opacity="1" stroke-width=".36448"/></g><g fill="#000" fill-rule="evenodd" stroke="none"><ellipse transform="scale(1,-1)" cx="287.73" cy="-686.81" rx=".13672" ry=".13672" opacity=".97"/><ellipse transform="scale(1,-1)" cx="287.72" cy="-687.31" rx=".13672" ry=".13672" opacity=".97"/><ellipse transform="scale(1,-1)" cx="287.72" cy="-687.79" rx=".13672" ry=".13672" opacity=".97"/><ellipse transform="scale(1,-1)" cx="288.56" cy="-686.81" rx=".13672" ry=".13672" opacity=".97"/><ellipse transform="scale(1,-1)" cx="288.55" cy="-687.31" rx=".13672" ry=".13672" opacity=".97"/><ellipse transform="scale(1,-1)" cx="288.55" cy="-687.81" rx=".13672" ry=".13672" opacity=".97"/></g><rect transform="scale(1,-1)" x="290.23" y="-687.96" width="1.3474" height="1.3474" fill="#fff" fill-rule="evenodd" opacity=".97" stroke="#fffff0" stroke-linecap="square" stroke-linejoin="bevel" stroke-miterlimit="10.433" stroke-opacity="1" stroke-width=".36448"/><g fill="#000" fill-rule="evenodd" stroke="none"><ellipse transform="scale(1,-1)" cx="290.5" cy="-686.79" rx=".13672" ry=".13672" opacity=".97"/><ellipse transform="scale(1,-1)" cx="290.49" cy="-687.29" rx=".13672" ry=".13672" opacity=".97"/><ellipse transform="scale(1,-1)" cx="290.49" cy="-687.77" rx=".13672" ry=".13672" opacity=".97"/><ellipse transform="scale(1,-1)" cx="291.33" cy="-686.79" rx=".13672" ry=".13672" opacity=".97"/><ellipse transform="scale(1,-1)" cx="291.32" cy="-687.29" rx=".13672" ry=".13672" opacity=".97"/><ellipse transform="scale(1,-1)" cx="291.31" cy="-687.79" rx=".13672" ry=".13672" opacity=".97"/></g><rect transform="scale(1,-1)" x="279.32" y="-688.05" width="1.3474" height="1.3474" fill="#fff" fill-rule="evenodd" opacity=".97" stroke="#fffff0" stroke-linecap="square" stroke-linejoin="bevel" stroke-miterlimit="10.433" stroke-opacity="1" stroke-width=".36448"/><g fill="#000" fill-rule="evenodd" stroke="none"><ellipse transform="scale(1,-1)" cx="279.5" cy="-686.89" rx=".13672" ry=".13672" opacity=".97"/><ellipse transform="scale(1,-1)" cx="280.43" cy="-687.87" rx=".13672" ry=".13672" opacity=".97"/><ellipse transform="scale(1,-1)" cx="279.97" cy="-687.41" rx=".13672" ry=".13672" opacity=".97"/></g><rect transform="scale(1,-1)" x="281.98" y="-688.05" width="1.3474" height="1.3474" fill="#fff" fill-rule="evenodd" opacity=".97" stroke="#fffff0" stroke-linecap="square" stroke-linejoin="bevel" stroke-miterlimit="10.433" stroke-opacity="1" stroke-width=".36448"/><g fill="#000" fill-rule="evenodd" stroke="none"><ellipse transform="scale(1,-1)" cx="282.26" cy="-686.89" rx=".13672" ry=".13672" opacity=".97"/><ellipse transform="scale(1,-1)" cx="282.24" cy="-687.87" rx=".13672" ry=".13672" opacity=".97"/><ellipse transform="scale(1,-1)" cx="283.08" cy="-686.89" rx=".13672" ry=".13672" opacity=".97"/><ellipse transform="scale(1,-1)" cx="283.09" cy="-687.88" rx=".13672" ry=".13672" opacity=".97"/></g><rect transform="scale(1,-1)" x="284.71" y="-692.25" width="1.3474" height="1.3474" fill="#fff" fill-rule="evenodd" opacity=".97" stroke="#fffff0" stroke-linecap="square" stroke-linejoin="bevel" stroke-miterlimit="10.433" stroke-opacity="1" stroke-width=".36448"/><g fill="#000" fill-rule="evenodd" stroke="none"><ellipse transform="scale(1,-1)" cx="284.96" cy="-691.07" rx=".13672" ry=".13672" opacity=".97"/><ellipse transform="scale(1,-1)" cx="284.96" cy="-692.06" rx=".13672" ry=".13672" opacity=".97"/><ellipse transform="scale(1,-1)" cx="285.81" cy="-691.07" rx=".13672" ry=".13672" opacity=".97"/><ellipse transform="scale(1,-1)" cx="285.81" cy="-692.07" rx=".13672" ry=".13672" opacity=".97"/></g><rect transform="scale(1,-1)" x="281.96" y="-695.21" width="1.3572" height="1.3572" fill="#000005" fill-rule="evenodd" opacity=".97" stroke="#000" stroke-linecap="square" stroke-linejoin="bevel" stroke-miterlimit="10.433" stroke-opacity="1" stroke-width=".36448"/><g fill="#fff" fill-rule="evenodd" stroke="none"><ellipse transform="scale(1,-1)" cx="282.2" cy="-694.12" rx=".13672" ry=".13672" opacity=".97"/><ellipse transform="scale(1,-1)" cx="283.1" cy="-695.03" rx=".13672" ry=".13672" opacity=".97"/><ellipse transform="scale(1,-1)" cx="282.66" cy="-694.58" rx=".13672" ry=".13672" opacity=".97"/></g><rect transform="scale(1,-1)" x="284.72" y="-695.22" width="1.3572" height="1.3572" fill="#000005" fill-rule="evenodd" opacity=".97" stroke="#000" stroke-linecap="square" stroke-linejoin="bevel" stroke-miterlimit="10.433" stroke-opacity="1" stroke-width=".36448"/><g fill="#fff" fill-rule="evenodd" stroke="none"><ellipse transform="scale(1,-1)" cx="284.96" cy="-694.13" rx=".13672" ry=".13672" opacity=".97"/><ellipse transform="scale(1,-1)" cx="285.85" cy="-695.04" rx=".13672" ry=".13672" opacity=".97"/><ellipse transform="scale(1,-1)" cx="285.42" cy="-694.59" rx=".13672" ry=".13672" opacity=".97"/></g><rect transform="scale(1,-1)" x="287.41" y="-695.22" width="1.3572" height="1.3572" fill="#000005" fill-rule="evenodd" opacity=".97" stroke="#000" stroke-linecap="square" stroke-linejoin="bevel" stroke-miterlimit="10.433" stroke-opacity="1" stroke-width=".36448"/><g fill="#fff" fill-rule="evenodd"><g stroke="none"><ellipse transform="scale(1,-1)" cx="287.65" cy="-694.13" rx=".13672" ry=".13672" opacity=".97"/><ellipse transform="scale(1,-1)" cx="288.55" cy="-695.04" rx=".13672" ry=".13672" opacity=".97"/><ellipse transform="scale(1,-1)" cx="288.11" cy="-694.59" rx=".13672" ry=".13672" opacity=".97"/></g><rect transform="scale(1,-1)" x="287.41" y="-696.93" width="1.3474" height="1.3474" opacity=".97" stroke="#fffff0" stroke-linecap="square" stroke-linejoin="bevel" stroke-miterlimit="10.433" stroke-opacity="1" stroke-width=".36448"/></g><g fill="#000" fill-rule="evenodd" stroke="none"><ellipse transform="scale(1,-1)" cx="287.66" cy="-695.76" rx=".13672" ry=".13672" opacity=".97"/><ellipse transform="scale(1,-1)" cx="287.67" cy="-696.75" rx=".13672" ry=".13672" opacity=".97"/><ellipse transform="scale(1,-1)" cx="288.52" cy="-695.76" rx=".13672" ry=".13672" opacity=".97"/><ellipse transform="scale(1,-1)" cx="288.52" cy="-696.76" rx=".13672" ry=".13672" opacity=".97"/></g><rect transform="scale(1,-1)" x="290.18" y="-696.84" width="1.3474" height="1.3474" fill="#fff" fill-rule="evenodd" opacity=".97" stroke="#fffff0" stroke-linecap="square" stroke-linejoin="bevel" stroke-miterlimit="10.433" stroke-opacity="1" stroke-width=".36448"/><g fill="#000" fill-rule="evenodd" stroke="none"><ellipse transform="scale(1,-1)" cx="290.43" cy="-695.66" rx=".13672" ry=".13672" opacity=".97"/><ellipse transform="scale(1,-1)" cx="290.44" cy="-696.65" rx=".13672" ry=".13672" opacity=".97"/><ellipse transform="scale(1,-1)" cx="291.29" cy="-695.66" rx=".13672" ry=".13672" opacity=".97"/><ellipse transform="scale(1,-1)" cx="291.28" cy="-696.66" rx=".13672" ry=".13672" opacity=".97"/></g><rect transform="scale(1,-1)" x="292.92" y="-696.81" width="1.3474" height="1.3474" fill="#fff" fill-rule="evenodd" opacity=".97" stroke="#fffff0" stroke-linecap="square" stroke-linejoin="bevel" stroke-miterlimit="10.433" stroke-opacity="1" stroke-width=".36448"/><g fill="#000" fill-rule="evenodd" stroke="none"><ellipse transform="scale(1,-1)" cx="293.17" cy="-695.63" rx=".13672" ry=".13672" opacity=".97"/><ellipse transform="scale(1,-1)" cx="293.18" cy="-696.62" rx=".13672" ry=".13672" opacity=".97"/><ellipse transform="scale(1,-1)" cx="294.03" cy="-695.63" rx=".13672" ry=".13672" opacity=".97"/><ellipse transform="scale(1,-1)" cx="294.03" cy="-696.64" rx=".13672" ry=".13672" opacity=".97"/></g><rect transform="scale(1,-1)" x="292.92" y="-695.09" width="1.3572" height="1.3572" fill="#000005" fill-rule="evenodd" opacity=".97" stroke="#000" stroke-linecap="square" stroke-linejoin="bevel" stroke-miterlimit="10.433" stroke-opacity="1" stroke-width=".36448"/><g fill="#fff" fill-rule="evenodd" stroke="none"><ellipse transform="scale(1,-1)" cx="293.2" cy="-693.94" rx=".13672" ry=".13672" opacity=".97"/><ellipse transform="scale(1,-1)" cx="293.63" cy="-694.41" rx=".13672" ry=".13672" opacity=".97"/><ellipse transform="scale(1,-1)" cx="293.17" cy="-694.92" rx=".13672" ry=".13672" opacity=".97"/><ellipse transform="scale(1,-1)" cx="294.06" cy="-693.91" rx=".13672" ry=".13672" opacity=".97"/><ellipse transform="scale(1,-1)" cx="294.05" cy="-694.93" rx=".13672" ry=".13672" opacity=".97"/></g><rect transform="scale(1,-1)" x="290.16" y="-699.77" width="1.3572" height="1.3572" fill="#000005" fill-rule="evenodd" opacity=".97" stroke="#000" stroke-linecap="square" stroke-linejoin="bevel" stroke-miterlimit="10.433" stroke-opacity="1" stroke-width=".36448"/><g fill="#fff" fill-rule="evenodd" stroke="none"><ellipse transform="scale(1,-1)" cx="290.44" cy="-698.62" rx=".13672" ry=".13672" opacity=".97"/><ellipse transform="scale(1,-1)" cx="290.88" cy="-699.09" rx=".13672" ry=".13672" opacity=".97"/><ellipse transform="scale(1,-1)" cx="290.41" cy="-699.59" rx=".13672" ry=".13672" opacity=".97"/><ellipse transform="scale(1,-1)" cx="291.28" cy="-698.6" rx=".13672" ry=".13672" opacity=".97"/><ellipse transform="scale(1,-1)" cx="291.27" cy="-699.61" rx=".13672" ry=".13672" opacity=".97"/></g><rect transform="scale(1,-1)" x="284.75" y="-704.2" width="1.3572" height="1.3572" fill="#000005" fill-rule="evenodd" opacity=".97" stroke="#000" stroke-linecap="square" stroke-linejoin="bevel" stroke-miterlimit="10.433" stroke-opacity="1" stroke-width=".36448"/><g fill="#fff" fill-rule="evenodd" stroke="none"><ellipse transform="scale(1,-1)" cx="285.02" cy="-703.04" rx=".13672" ry=".13672" opacity=".97"/><ellipse transform="scale(1,-1)" cx="285.46" cy="-703.52" rx=".13672" ry=".13672" opacity=".97"/><ellipse transform="scale(1,-1)" cx="285" cy="-704.02" rx=".13672" ry=".13672" opacity=".97"/><ellipse transform="scale(1,-1)" cx="285.86" cy="-703.03" rx=".13672" ry=".13672" opacity=".97"/><ellipse transform="scale(1,-1)" cx="285.85" cy="-704.03" rx=".13672" ry=".13672" opacity=".97"/></g><rect transform="scale(1,-1)" x="287.43" y="-704.24" width="1.3572" height="1.3572" fill="#000005" fill-rule="evenodd" opacity=".97" stroke="#000" stroke-linecap="square" stroke-linejoin="bevel" stroke-miterlimit="10.433" stroke-opacity="1" stroke-width=".36448"/><g fill="#fff" fill-rule="evenodd"><g stroke="none"><ellipse transform="scale(1,-1)" cx="287.71" cy="-703.09" rx=".13672" ry=".13672" opacity=".97"/><ellipse transform="scale(1,-1)" cx="288.15" cy="-703.56" rx=".13672" ry=".13672" opacity=".97"/><ellipse transform="scale(1,-1)" cx="287.68" cy="-704.07" rx=".13672" ry=".13672" opacity=".97"/><ellipse transform="scale(1,-1)" cx="288.55" cy="-703.07" rx=".13672" ry=".13672" opacity=".97"/><ellipse transform="scale(1,-1)" cx="288.54" cy="-704.08" rx=".13672" ry=".13672" opacity=".97"/></g><rect transform="scale(1,-1)" x="295.61" y="-696.77" width="1.3474" height="1.3474" opacity=".97" stroke="#fffff0" stroke-linecap="square" stroke-linejoin="bevel" stroke-miterlimit="10.433" stroke-opacity="1" stroke-width=".36448"/></g><g fill="#000" fill-rule="evenodd" stroke="none"><ellipse transform="scale(1,-1)" cx="295.86" cy="-695.6" rx=".13672" ry=".13672" opacity=".97"/><ellipse transform="scale(1,-1)" cx="295.87" cy="-696.58" rx=".13672" ry=".13672" opacity=".97"/><ellipse transform="scale(1,-1)" cx="296.72" cy="-695.6" rx=".13672" ry=".13672" opacity=".97"/><ellipse transform="scale(1,-1)" cx="296.71" cy="-696.6" rx=".13672" ry=".13672" opacity=".97"/></g><rect transform="scale(1,-1)" x="290.18" y="-695.12" width="1.3572" height="1.3572" fill="#000005" fill-rule="evenodd" opacity=".97" stroke="#000" stroke-linecap="square" stroke-linejoin="bevel" stroke-miterlimit="10.433" stroke-opacity="1" stroke-width=".36448"/><g fill="#fff" fill-rule="evenodd" stroke="none"><ellipse transform="scale(1,-1)" cx="290.46" cy="-693.97" rx=".13672" ry=".13672" opacity=".97"/><ellipse transform="scale(1,-1)" cx="290.43" cy="-694.95" rx=".13672" ry=".13672" opacity=".97"/><ellipse transform="scale(1,-1)" cx="291.27" cy="-693.97" rx=".13672" ry=".13672" opacity=".97"/><ellipse transform="scale(1,-1)" cx="291.29" cy="-694.94" rx=".13672" ry=".13672" opacity=".97"/></g><rect transform="scale(1,-1)" x="281.99" y="-699.76" width="1.3572" height="1.3572" fill="#000005" fill-rule="evenodd" opacity=".97" stroke="#000" stroke-linecap="square" stroke-linejoin="bevel" stroke-miterlimit="10.433" stroke-opacity="1" stroke-width=".36448"/><g fill="#fff" fill-rule="evenodd" stroke="none"><ellipse transform="scale(1,-1)" cx="282.26" cy="-698.6" rx=".13672" ry=".13672" opacity=".97"/><ellipse transform="scale(1,-1)" cx="282.24" cy="-699.58" rx=".13672" ry=".13672" opacity=".97"/><ellipse transform="scale(1,-1)" cx="283.07" cy="-698.6" rx=".13672" ry=".13672" opacity=".97"/><ellipse transform="scale(1,-1)" cx="283.09" cy="-699.57" rx=".13672" ry=".13672" opacity=".97"/></g><rect transform="scale(1,-1)" x="284.72" y="-699.73" width="1.3572" height="1.3572" fill="#000005" fill-rule="evenodd" opacity=".97" stroke="#000" stroke-linecap="square" stroke-linejoin="bevel" stroke-miterlimit="10.433" stroke-opacity="1" stroke-width=".36448"/><g fill="#fff" fill-rule="evenodd" stroke="none"><ellipse transform="scale(1,-1)" cx="285" cy="-698.58" rx=".13672" ry=".13672" opacity=".97"/><ellipse transform="scale(1,-1)" cx="284.97" cy="-699.55" rx=".13672" ry=".13672" opacity=".97"/><ellipse transform="scale(1,-1)" cx="285.81" cy="-698.57" rx=".13672" ry=".13672" opacity=".97"/><ellipse transform="scale(1,-1)" cx="285.83" cy="-699.54" rx=".13672" ry=".13672" opacity=".97"/></g><rect transform="scale(1,-1)" x="287.4" y="-699.74" width="1.3572" height="1.3572" fill="#000005" fill-rule="evenodd" opacity=".97" stroke="#000" stroke-linecap="square" stroke-linejoin="bevel" stroke-miterlimit="10.433" stroke-opacity="1" stroke-width=".36448"/><g fill="#fff" fill-rule="evenodd" stroke="none"><ellipse transform="scale(1,-1)" cx="287.67" cy="-698.59" rx=".13672" ry=".13672" opacity=".97"/><ellipse transform="scale(1,-1)" cx="287.65" cy="-699.57" rx=".13672" ry=".13672" opacity=".97"/><ellipse transform="scale(1,-1)" cx="288.49" cy="-698.59" rx=".13672" ry=".13672" opacity=".97"/><ellipse transform="scale(1,-1)" cx="288.51" cy="-699.56" rx=".13672" ry=".13672" opacity=".97"/></g><g transform="matrix(.12753 0 0 .12753 236.47 599.28)" fill="#000" fill-opacity=".78431" fill-rule="evenodd" stroke="#000" stroke-miterlimit="10.433" stroke-opacity=".78431" stroke-width="0" ns0:preamble="default_packages.tex" ns0:text="$$0.02 0.04 0.06 0.08 0.10 0.12 0.14 0.16$$\n" xml:space="preserve"><path d="m263.95 690.9-0.01 0.15v0.3l-0.01 0.14-0.03 0.45-0.02 0.14-0.03 0.15-0.02 0.14-0.04 0.15-0.03 0.14-0.15 0.42-0.06 0.14c-0.46 0.96-1.28 1.12-1.7 1.12-0.6 0-1.32-0.26-1.73-1.19-0.32-0.68-0.37-1.46-0.37-2.25 0-0.75 0.04-1.64 0.45-2.39 0.42-0.81 1.15-1.01 1.64-1.01v0.22c-0.39 0-0.98 0.25-1.16 1.2-0.11 0.6-0.11 1.51-0.11 2.1 0 0.63 0 1.29 0.08 1.83 0.19 1.18 0.94 1.27 1.19 1.27 0.33 0 0.99-0.18 1.18-1.16 0.1-0.56 0.1-1.32 0.1-1.94 0-0.75 0-1.42-0.11-2.06-0.15-0.94-0.72-1.24-1.17-1.24v-0.22c0.54 0 1.3 0.21 1.74 1.15 0.32 0.69 0.37 1.46 0.37 2.25z"/><path d="m266.26 688.25-0.01 0.02v0.06l-0.01 0.02v0.03l-0.01 0.02-0.01 0.03-0.02 0.04-0.01 0.03-0.01 0.02-0.02 0.02-0.01 0.02-0.02 0.02-0.01 0.02-0.04 0.04-0.02 0.01-0.02 0.02-0.02 0.01-0.02 0.02-0.02 0.01-0.03 0.01-0.04 0.02-0.03 0.01-0.02 0.01h-0.03l-0.02 0.01h-0.08c-0.29 0-0.53-0.24-0.53-0.52 0-0.29 0.24-0.53 0.53-0.53 0.28 0 0.53 0.24 0.53 0.53z"/><path d="m271.69 690.9v0.45l-0.01 0.14-0.02 0.3-0.02 0.15-0.01 0.14-0.03 0.15-0.03 0.14-0.03 0.15-0.08 0.28-0.1 0.28-0.03 0.07-0.04 0.07c-0.45 0.96-1.27 1.12-1.69 1.12-0.6 0-1.33-0.26-1.73-1.19-0.32-0.68-0.37-1.46-0.37-2.25 0-0.75 0.04-1.64 0.45-2.39 0.42-0.81 1.15-1.01 1.64-1.01v0.22c-0.39 0-0.98 0.25-1.16 1.2-0.11 0.6-0.11 1.51-0.11 2.1 0 0.63 0 1.29 0.08 1.83 0.19 1.18 0.94 1.27 1.19 1.27 0.33 0 0.99-0.18 1.18-1.16 0.1-0.56 0.1-1.32 0.1-1.94 0-0.75 0-1.42-0.11-2.06-0.15-0.94-0.72-1.24-1.17-1.24v-0.22c0.54 0 1.3 0.21 1.73 1.15 0.32 0.69 0.37 1.46 0.37 2.25z"/><path d="m273.35 688.48 1.06 1.03c1.56 1.37 2.16 1.9 2.16 2.9 0 1.13-0.9 1.93-2.12 1.93-1.13 0-1.86-0.92-1.86-1.8 0-0.56 0.5-0.56 0.53-0.56 0.17 0 0.51 0.12 0.51 0.53 0 0.26-0.18 0.51-0.53 0.51h-0.12c0.23 0.64 0.76 1.01 1.34 1.01 0.91 0 1.34-0.81 1.34-1.62 0-0.8-0.5-1.58-1.05-2.2l-1.91-2.12c-0.11-0.11-0.11-0.13-0.11-0.37h3.7l0.28 1.73h-0.25c-0.05-0.3-0.12-0.74-0.22-0.89-0.07-0.08-0.73-0.08-0.95-0.08z"/><path d="m264.63 715.61v0.15l-0.01 0.15v0.15l-0.01 0.14-0.03 0.45-0.02 0.14-0.02 0.15-0.03 0.14-0.03 0.15-0.04 0.14-0.05 0.14-0.04 0.14-0.12 0.28c-0.46 0.96-1.28 1.12-1.7 1.12-0.6 0-1.32-0.26-1.73-1.19-0.32-0.68-0.37-1.46-0.37-2.25 0-0.75 0.04-1.64 0.45-2.39 0.43-0.81 1.15-1.01 1.64-1.01v0.22c-0.39 0-0.98 0.25-1.15 1.2-0.11 0.6-0.11 1.51-0.11 2.1 0 0.63 0 1.29 0.08 1.83 0.19 1.18 0.93 1.27 1.18 1.27 0.33 0 0.99-0.18 1.18-1.16 0.1-0.56 0.1-1.32 0.1-1.94 0-0.75 0-1.42-0.11-2.06-0.15-0.94-0.72-1.24-1.17-1.24v-0.22c0.54 0 1.3 0.21 1.74 1.15 0.32 0.69 0.37 1.46 0.37 2.25z"/><path d="m266.94 712.96v0.02l-0.01 0.03v0.05l-0.01 0.03-0.01 0.02-0.01 0.03-0.02 0.04-0.01 0.03-0.01 0.02-0.02 0.02-0.01 0.02-0.02 0.02-0.01 0.02-0.04 0.04-0.02 0.01-0.02 0.02-0.02 0.01-0.02 0.02-0.02 0.01-0.03 0.01-0.04 0.02-0.03 0.01-0.02 0.01h-0.03l-0.02 0.01h-0.08c-0.29 0-0.53-0.24-0.53-0.52 0-0.29 0.24-0.53 0.53-0.53s0.53 0.24 0.53 0.53z"/><path d="m272.38 715.61-0.01 0.15v0.3l-0.01 0.14-0.03 0.45-0.02 0.14-0.03 0.15-0.02 0.14-0.04 0.15-0.03 0.14-0.15 0.42-0.06 0.14c-0.46 0.96-1.28 1.12-1.7 1.12-0.6 0-1.33-0.26-1.73-1.19-0.32-0.68-0.37-1.46-0.37-2.25 0-0.75 0.04-1.64 0.45-2.39 0.42-0.81 1.15-1.01 1.64-1.01v0.22c-0.39 0-0.98 0.25-1.16 1.2-0.11 0.6-0.11 1.51-0.11 2.1 0 0.63 0 1.29 0.08 1.83 0.19 1.18 0.94 1.27 1.19 1.27 0.33 0 0.99-0.18 1.18-1.16 0.1-0.56 0.1-1.32 0.1-1.94 0-0.75 0-1.42-0.11-2.06-0.15-0.94-0.72-1.24-1.17-1.24v-0.22c0.54 0 1.3 0.21 1.74 1.15 0.31 0.69 0.37 1.46 0.37 2.25z"/><path d="m275.7 714.07v-0.86c0-0.36-0.02-0.47-0.76-0.47h-0.21v-0.31c0.41 0.03 0.93 0.03 1.35 0.03s0.95 0 1.36-0.03v0.31h-0.21c-0.74 0-0.76 0.11-0.76 0.47v0.86h1v0.31h-1v4.52c0 0.2 0 0.26-0.16 0.26-0.09 0-0.12 0-0.2-0.12l-3.06-4.66h0.28l2.43 3.7v-3.7h-2.71v-0.31z"/><path d="m264.07 741.03v0.3l-0.01 0.15-0.01 0.14v0.15l-0.02 0.15-0.01 0.15-0.02 0.14-0.02 0.15-0.03 0.14-0.03 0.15-0.08 0.28-0.05 0.14-0.12 0.28c-0.46 0.96-1.28 1.12-1.7 1.12-0.59 0-1.32-0.26-1.73-1.19-0.32-0.68-0.37-1.46-0.37-2.25 0-0.75 0.04-1.64 0.45-2.39 0.43-0.81 1.16-1.01 1.64-1.01v0.22c-0.38 0-0.97 0.25-1.15 1.2-0.11 0.6-0.11 1.51-0.11 2.1 0 0.63 0 1.29 0.08 1.83 0.19 1.18 0.93 1.27 1.18 1.27 0.33 0 0.99-0.18 1.18-1.16 0.1-0.56 0.1-1.32 0.1-1.94 0-0.75 0-1.42-0.11-2.06-0.15-0.94-0.72-1.24-1.17-1.24v-0.22c0.54 0 1.3 0.21 1.74 1.15 0.32 0.69 0.37 1.46 0.37 2.25z"/><path d="m266.38 738.38v0.02l-0.01 0.03v0.05l-0.01 0.03-0.01 0.02-0.01 0.03-0.02 0.04-0.01 0.03-0.02 0.04-0.02 0.02-0.01 0.02-0.06 0.06-0.02 0.01-0.02 0.02-0.02 0.01-0.02 0.02-0.04 0.02-0.03 0.01-0.02 0.01-0.03 0.01-0.02 0.01h-0.03l-0.02 0.01h-0.08c-0.29 0-0.53-0.24-0.53-0.52 0-0.29 0.24-0.53 0.53-0.53s0.53 0.24 0.53 0.53z"/><path d="m271.82 741.03v0.15l-0.01 0.15v0.15l-0.01 0.14-0.03 0.45-0.02 0.14-0.02 0.15-0.03 0.14-0.03 0.15-0.04 0.14-0.05 0.14-0.04 0.14-0.12 0.28c-0.46 0.96-1.28 1.12-1.7 1.12-0.59 0-1.32-0.26-1.73-1.19-0.32-0.68-0.37-1.46-0.37-2.25 0-0.75 0.04-1.64 0.45-2.39 0.43-0.81 1.15-1.01 1.64-1.01v0.22c-0.39 0-0.97 0.25-1.15 1.2-0.11 0.6-0.11 1.51-0.11 2.1 0 0.63 0 1.29 0.08 1.83 0.19 1.18 0.93 1.27 1.18 1.27 0.33 0 0.99-0.18 1.18-1.16 0.1-0.56 0.1-1.32 0.1-1.94 0-0.75 0-1.42-0.11-2.06-0.15-0.94-0.72-1.24-1.17-1.24v-0.22c0.54 0 1.3 0.21 1.74 1.15 0.32 0.69 0.37 1.46 0.37 2.25z"/><path d="m273.53 741.11v0.24c0 2.51 1.23 2.87 1.74 2.87 0.24 0 0.66-0.06 0.88-0.4-0.15 0-0.55 0-0.55-0.45 0-0.3 0.24-0.45 0.46-0.45 0.16 0 0.46 0.09 0.46 0.47 0 0.6-0.44 1.08-1.27 1.08-1.27 0-2.62-1.29-2.62-3.48 0-2.65 1.16-3.36 2.08-3.36 1.11 0 2.06 0.94 2.06 2.25 0 1.26-0.89 2.21-2 2.21l-0.01-0.23c0.16 0 0.62 0 0.93-0.61 0.18-0.37 0.18-0.88 0.18-1.36s0-0.98-0.17-1.33c-0.3-0.6-0.76-0.65-0.99-0.65-0.62 0-0.92 0.6-0.98 0.74-0.18 0.47-0.18 1.27-0.18 1.44 0 0.78 0.32 1.77 1.21 1.77l0.01 0.23c-0.67 0-1.04-0.5-1.24-0.98z"/><path d="m264.75 765.53v0.3l-0.01 0.15v0.14l-0.02 0.3-0.02 0.15-0.02 0.14-0.02 0.15-0.03 0.14-0.03 0.15-0.08 0.28-0.05 0.14-0.12 0.28c-0.46 0.96-1.28 1.12-1.69 1.12-0.6 0-1.33-0.26-1.74-1.19-0.32-0.68-0.37-1.46-0.37-2.25 0-0.75 0.04-1.64 0.45-2.39 0.43-0.81 1.16-1.01 1.65-1.01v0.22c-0.39 0-0.98 0.25-1.16 1.2-0.11 0.6-0.11 1.51-0.11 2.1 0 0.63 0 1.29 0.08 1.83 0.19 1.18 0.94 1.27 1.19 1.27 0.33 0 0.98-0.18 1.17-1.16 0.1-0.56 0.1-1.32 0.1-1.94 0-0.75 0-1.42-0.11-2.06-0.15-0.94-0.72-1.24-1.16-1.24v-0.22c0.53 0 1.29 0.21 1.73 1.15 0.32 0.69 0.37 1.46 0.37 2.25z"/><path d="m267.06 762.88v0.05l-0.01 0.03v0.02l-0.01 0.03-0.01 0.02v0.03l-0.02 0.04-0.02 0.03-0.02 0.04-0.02 0.02-0.01 0.02-0.09 0.09-0.03 0.01-0.02 0.02-0.04 0.02-0.03 0.01-0.04 0.02-0.03 0.01h-0.02l-0.03 0.01h-0.08c-0.29 0-0.53-0.24-0.53-0.52 0-0.29 0.24-0.53 0.53-0.53s0.53 0.24 0.53 0.53z"/><path d="m272.5 765.53v0.3l-0.01 0.15-0.01 0.14v0.15l-0.02 0.15-0.01 0.15-0.02 0.14-0.02 0.15-0.03 0.14-0.03 0.15-0.08 0.28-0.05 0.14-0.12 0.28c-0.46 0.96-1.28 1.12-1.7 1.12-0.59 0-1.32-0.26-1.73-1.19-0.32-0.68-0.37-1.46-0.37-2.25 0-0.75 0.04-1.64 0.45-2.39 0.43-0.81 1.15-1.01 1.64-1.01v0.22c-0.38 0-0.97 0.25-1.15 1.2-0.11 0.6-0.11 1.51-0.11 2.1 0 0.63 0 1.29 0.08 1.83 0.19 1.18 0.93 1.27 1.18 1.27 0.33 0 0.99-0.18 1.18-1.16 0.1-0.56 0.1-1.32 0.1-1.94 0-0.75 0-1.42-0.11-2.06-0.15-0.94-0.72-1.24-1.17-1.24v-0.22c0.54 0 1.3 0.21 1.74 1.15 0.32 0.69 0.37 1.46 0.37 2.25z"/><path d="m275.97 765.95 0.07 0.03 0.07 0.04 0.06 0.03 0.3 0.2 0.1 0.08 0.05 0.05 0.05 0.04 0.14 0.14 0.04 0.05 0.03 0.05 0.08 0.1 0.06 0.1 0.02 0.05 0.03 0.06 0.02 0.05 0.02 0.06 0.02 0.05 0.02 0.06 0.02 0.12v0.05l0.01 0.06v0.07c0 0.91-0.89 1.48-1.79 1.48l-0.01-0.25c0.72 0 1.36-0.52 1.36-1.23 0-0.57-0.39-1.05-0.99-1.4l-1.23 0.8c-0.46 0.3-0.5 0.64-0.5 0.8 0 0.61 0.65 1.03 1.36 1.03l0.01 0.25c-1 0-1.81-0.74-1.81-1.66 0-0.18 0.02-0.63 0.44-1.1 0.11-0.12 0.48-0.36 0.73-0.53l0.23-0.15 1.22-0.78c0.28-0.18 0.75-0.48 0.75-1.09 0-0.73-0.75-1.25-1.56-1.25-0.86 0-1.58 0.61-1.58 1.44 0 0.58 0.32 1.21 1.17 1.68l-0.23 0.15c-0.58-0.29-1.44-0.85-1.44-1.83 0-1.05 1.02-1.72 2.07-1.72 1.12 0 2.07 0.83 2.07 1.89 0 0.36-0.11 0.8-0.49 1.22-0.19 0.21-0.35 0.31-0.99 0.71z"/><path d="m264.73 792.08v0.3l-0.01 0.15v0.14l-0.02 0.3-0.02 0.15-0.02 0.14-0.02 0.15-0.03 0.14-0.03 0.15-0.08 0.28-0.05 0.14-0.12 0.28c-0.46 0.96-1.27 1.12-1.69 1.12-0.6 0-1.33-0.26-1.74-1.19-0.32-0.68-0.37-1.46-0.37-2.25 0-0.75 0.04-1.64 0.45-2.39 0.43-0.81 1.16-1.01 1.65-1.01v0.22c-0.39 0-0.98 0.25-1.16 1.2-0.11 0.6-0.11 1.51-0.11 2.1 0 0.63 0 1.29 0.08 1.83 0.19 1.18 0.94 1.27 1.19 1.27 0.33 0 0.98-0.18 1.17-1.16 0.1-0.56 0.1-1.32 0.1-1.94 0-0.75 0-1.42-0.11-2.06-0.15-0.94-0.72-1.24-1.16-1.24v-0.22c0.53 0 1.29 0.21 1.73 1.15 0.32 0.69 0.37 1.46 0.37 2.25z"/><path d="m267.04 789.43v0.05l-0.01 0.03v0.02l-0.01 0.03v0.02l-0.01 0.03-0.02 0.04-0.01 0.03-0.02 0.02-0.01 0.02-0.02 0.02-0.01 0.02-0.04 0.04-0.01 0.02-0.02 0.01-0.02 0.02-0.02 0.01-0.03 0.02-0.06 0.03-0.03 0.01-0.02 0.01-0.03 0.01h-0.02l-0.03 0.01h-0.08c-0.29 0-0.53-0.24-0.53-0.52 0-0.29 0.24-0.53 0.53-0.53s0.53 0.24 0.53 0.53z"/><path d="m270.82 795.26v0.17l-0.01 0.01v0.02l-0.01 0.01v0.01h-0.01l-0.02 0.02h-0.02v0.01h-0.08l-0.01 0.01h-0.06c-0.62-0.64-1.5-0.64-1.82-0.64v-0.31c0.2 0 0.79 0 1.31 0.26v-5.14c0-0.36-0.03-0.48-0.93-0.48h-0.32v-0.31c0.35 0.03 1.22 0.03 1.62 0.03 0.39 0 1.26 0 1.61-0.03v0.31h-0.32c-0.9 0-0.93 0.11-0.93 0.48z"/><path d="m277.46 792.08v0.3l-0.01 0.15v0.14l-0.02 0.3-0.02 0.15-0.02 0.14-0.02 0.15-0.03 0.14-0.03 0.15-0.08 0.28-0.05 0.14-0.12 0.28c-0.46 0.96-1.27 1.12-1.69 1.12-0.6 0-1.33-0.26-1.74-1.19-0.32-0.68-0.37-1.46-0.37-2.25 0-0.75 0.04-1.64 0.45-2.39 0.43-0.81 1.16-1.01 1.65-1.01v0.22c-0.39 0-0.98 0.25-1.16 1.2-0.11 0.6-0.11 1.51-0.11 2.1 0 0.63 0 1.29 0.08 1.83 0.19 1.18 0.94 1.27 1.19 1.27 0.33 0 0.99-0.18 1.17-1.16 0.1-0.56 0.1-1.32 0.1-1.94 0-0.75 0-1.42-0.11-2.06-0.15-0.94-0.71-1.24-1.16-1.24v-0.22c0.54 0 1.29 0.21 1.73 1.15 0.32 0.69 0.37 1.46 0.37 2.25z"/><path d="m265.24 816.05v0.45l-0.01 0.14-0.02 0.3-0.02 0.15-0.02 0.14-0.02 0.15-0.03 0.14-0.03 0.15-0.08 0.28-0.1 0.28-0.03 0.07-0.04 0.07c-0.45 0.96-1.27 1.12-1.69 1.12-0.6 0-1.33-0.26-1.74-1.19-0.32-0.68-0.36-1.46-0.36-2.25 0-0.75 0.03-1.64 0.44-2.39 0.43-0.81 1.16-1.01 1.65-1.01v0.22c-0.39 0-0.98 0.25-1.16 1.2-0.11 0.6-0.11 1.51-0.11 2.1 0 0.63 0 1.29 0.08 1.83 0.19 1.18 0.94 1.27 1.19 1.27 0.33 0 0.99-0.18 1.17-1.16 0.11-0.56 0.11-1.32 0.11-1.94 0-0.75 0-1.42-0.12-2.06-0.14-0.94-0.71-1.24-1.16-1.24v-0.22c0.54 0 1.29 0.21 1.73 1.15 0.32 0.69 0.37 1.46 0.37 2.25z"/><path d="m267.55 813.4v0.08l-0.01 0.02v0.03l-0.01 0.02-0.01 0.03-0.02 0.04-0.01 0.03-0.02 0.02-0.02 0.04-0.04 0.04-0.01 0.02-0.02 0.02-0.02 0.01-0.02 0.02-0.02 0.01-0.02 0.02-0.03 0.01-0.04 0.02-0.03 0.01-0.02 0.01-0.03 0.01h-0.02l-0.03 0.01h-0.08c-0.29 0-0.53-0.24-0.53-0.52 0-0.29 0.24-0.53 0.53-0.53s0.53 0.24 0.53 0.53z"/><path d="m271.34 819.23v0.09l-0.01 0.01v0.07l-0.01 0.01v0.02l-0.01 0.01v0.01h-0.01v0.01h-0.01l-0.01 0.01h-0.02v0.01h-0.08l-0.01 0.01h-0.06c-0.62-0.64-1.5-0.64-1.82-0.64v-0.31c0.2 0 0.79 0 1.31 0.26v-5.14c0-0.36-0.03-0.48-0.93-0.48h-0.32v-0.31c0.35 0.03 1.22 0.03 1.62 0.03s1.26 0 1.61-0.03v0.31h-0.32c-0.89 0-0.92 0.11-0.92 0.48z"/><path d="m274.65 813.63 1.06 1.03c1.55 1.37 2.15 1.9 2.15 2.9 0 1.13-0.9 1.93-2.11 1.93-1.13 0-1.87-0.92-1.87-1.8 0-0.56 0.5-0.56 0.53-0.56 0.17 0 0.52 0.12 0.52 0.53 0 0.26-0.18 0.51-0.53 0.51h-0.13c0.23 0.64 0.77 1.01 1.35 1.01 0.91 0 1.34-0.81 1.34-1.62 0-0.8-0.5-1.58-1.05-2.2l-1.92-2.12c-0.11-0.11-0.11-0.13-0.11-0.37h3.7l0.28 1.73h-0.25c-0.05-0.3-0.12-0.74-0.22-0.89-0.07-0.08-0.72-0.08-0.94-0.08z"/><path d="m265.39 841.49v0.45l-0.01 0.14-0.02 0.3-0.02 0.15-0.01 0.14-0.03 0.15-0.03 0.14-0.03 0.15-0.08 0.28-0.1 0.28-0.03 0.07-0.04 0.07c-0.45 0.96-1.27 1.12-1.69 1.12-0.6 0-1.33-0.26-1.74-1.19-0.32-0.68-0.36-1.46-0.36-2.25 0-0.75 0.04-1.64 0.44-2.39 0.43-0.81 1.16-1.01 1.65-1.01v0.22c-0.39 0-0.98 0.25-1.16 1.2-0.11 0.6-0.11 1.51-0.11 2.1 0 0.63 0 1.29 0.08 1.83 0.19 1.18 0.94 1.27 1.19 1.27 0.33 0 0.99-0.18 1.18-1.16 0.1-0.56 0.1-1.32 0.1-1.94 0-0.75 0-1.42-0.11-2.06-0.15-0.94-0.72-1.24-1.17-1.24v-0.22c0.54 0 1.3 0.21 1.74 1.15 0.31 0.69 0.36 1.46 0.36 2.25z"/><path d="m267.7 838.84v0.08l-0.01 0.02v0.03l-0.01 0.02-0.01 0.03-0.02 0.04-0.01 0.03-0.01 0.02-0.02 0.02-0.01 0.02-0.04 0.04-0.01 0.02-0.02 0.02-0.02 0.01-0.02 0.02-0.02 0.01-0.02 0.02-0.03 0.01-0.04 0.02-0.03 0.01-0.04 0.02h-0.03l-0.03 0.01h-0.08c-0.28 0-0.52-0.24-0.52-0.52 0-0.29 0.24-0.53 0.52-0.53 0.29 0 0.53 0.24 0.53 0.53z"/><path d="m271.49 844.67v0.12h-0.01v0.05l-0.01 0.01v0.02l-0.01 0.01v0.01h-0.01v0.01h-0.01l-0.01 0.01h-0.02v0.01h-0.08l-0.01 0.01h-0.06c-0.62-0.64-1.5-0.64-1.82-0.64v-0.31c0.2 0 0.79 0 1.31 0.26v-5.14c0-0.36-0.03-0.48-0.93-0.48h-0.32v-0.31c0.35 0.03 1.22 0.03 1.62 0.03s1.26 0 1.61-0.03v0.31h-0.32c-0.89 0-0.92 0.11-0.92 0.48z"/><path d="m276.47 839.95v-0.86c0-0.36-0.02-0.47-0.76-0.47h-0.21v-0.31c0.41 0.03 0.93 0.03 1.35 0.03s0.94 0 1.35-0.03v0.31h-0.21c-0.73 0-0.75 0.11-0.75 0.47v0.86h0.99v0.31h-0.99v4.52c0 0.2 0 0.26-0.16 0.26-0.09 0-0.12 0-0.2-0.12l-3.06-4.66h0.27l2.44 3.7v-3.7h-2.71v-0.31z"/><path d="m265.69 866.9-0.01 0.15v0.3l-0.01 0.14-0.03 0.45-0.02 0.14-0.03 0.15-0.02 0.14-0.04 0.15-0.03 0.14-0.15 0.42-0.06 0.14c-0.46 0.96-1.28 1.12-1.7 1.12-0.6 0-1.33-0.26-1.73-1.19-0.32-0.68-0.37-1.46-0.37-2.25 0-0.75 0.04-1.64 0.45-2.39 0.42-0.81 1.15-1.01 1.64-1.01v0.22c-0.39 0-0.98 0.25-1.16 1.2-0.11 0.6-0.11 1.51-0.11 2.1 0 0.63 0 1.29 0.08 1.83 0.19 1.18 0.94 1.27 1.19 1.27 0.33 0 0.99-0.18 1.18-1.16 0.1-0.56 0.1-1.32 0.1-1.94 0-0.75 0-1.42-0.11-2.06-0.15-0.94-0.72-1.24-1.17-1.24v-0.22c0.54 0 1.3 0.21 1.74 1.15 0.32 0.69 0.37 1.46 0.37 2.25z"/><path d="m267.99 864.25v0.08l-0.01 0.02v0.03l-0.01 0.02-0.01 0.03-0.02 0.04-0.01 0.03-0.01 0.02-0.02 0.02-0.01 0.02-0.02 0.02-0.01 0.02-0.04 0.04-0.02 0.01-0.02 0.02-0.02 0.01-0.02 0.02-0.02 0.01-0.03 0.01-0.04 0.02-0.03 0.01-0.02 0.01h-0.03l-0.03 0.01h-0.07c-0.29 0-0.53-0.24-0.53-0.52 0-0.29 0.24-0.53 0.53-0.53 0.28 0 0.52 0.24 0.52 0.53z"/><path d="m271.78 870.08v0.14l-0.01 0.01v0.03l-0.01 0.01v0.02l-0.01 0.01h-0.01v0.01h-0.01l-0.01 0.01h-0.02v0.01h-0.08v0.01h-0.07c-0.62-0.64-1.5-0.64-1.82-0.64v-0.31c0.2 0 0.79 0 1.31 0.26v-5.14c0-0.36-0.03-0.48-0.93-0.48h-0.32v-0.31c0.35 0.03 1.22 0.03 1.62 0.03s1.27 0 1.61-0.03v0.31h-0.31c-0.9 0-0.93 0.11-0.93 0.48z"/><path d="m275.14 866.98v0.24c0 2.51 1.24 2.87 1.75 2.87 0.24 0 0.66-0.06 0.88-0.4-0.15 0-0.55 0-0.55-0.45 0-0.3 0.24-0.45 0.46-0.45 0.16 0 0.46 0.09 0.46 0.47 0 0.6-0.44 1.08-1.27 1.08-1.28 0-2.62-1.29-2.62-3.48 0-2.65 1.15-3.36 2.08-3.36 1.11 0 2.06 0.94 2.06 2.25 0 1.26-0.89 2.21-2 2.21l-0.01-0.23c0.16 0 0.62 0 0.93-0.61 0.18-0.37 0.18-0.88 0.18-1.36s0-0.98-0.17-1.33c-0.3-0.6-0.76-0.65-0.99-0.65-0.63 0-0.93 0.6-0.99 0.74-0.17 0.47-0.17 1.27-0.17 1.44 0 0.78 0.31 1.77 1.21 1.77l0.01 0.23c-0.68 0-1.05-0.5-1.25-0.98z"/></g></g></g>
 </g>
</svg>
