<?xml version="1.0" encoding="UTF-8"?>
<svg width="119.44mm" height="85.089mm" version="1.1" viewBox="0 0 181.24 146.98" xmlns="http://www.w3.org/2000/svg" xmlns:cc="http://creativecommons.org/ns#" xmlns:dc="http://purl.org/dc/elements/1.1/" xmlns:ns0="http://www.iki.fi/pav/software/textext/" xmlns:rdf="http://www.w3.org/1999/02/22-rdf-syntax-ns#">
 <metadata>
  <rdf:RDF>
   <cc:Work rdf:about="">
    <dc:format>image/svg+xml</dc:format>
    <dc:type rdf:resource="http://purl.org/dc/dcmitype/StillImage"/>
    <dc:title/>
   </cc:Work>
  </rdf:RDF>
 </metadata>
 <defs></defs>
 <g transform="translate(-38.014 -34.404)">
  <g transform="matrix(1.5,0,0,-1.5,-677.6,1115.4)" fill-rule="evenodd" stroke="#000" stroke-miterlimit="10.433" stroke-opacity=".23529" ns0:preamble="default_packages.tex" ns0:text='$$\\text{TRAINING SET}$$\n$$\\text{Spam}$$\n$$\\text{Ham}$$\n$$\\text{Letter containing word "buy"}$$\n\n' xml:space="preserve"><ellipse transform="scale(1,-1)" cx="537.49" cy="-671.67" rx="68.414" ry="48.633" fill="none" stroke="#000" stroke-linecap="square" stroke-miterlimit="10.433" stroke-opacity=".48792" stroke-width=".72267"/><g fill-opacity=".37198" stroke="none"><circle transform="scale(1,-1)" cx="498.5" cy="-680.68" r="1.4489"/><g fill-rule="evenodd"><circle transform="scale(1,-1)" cx="523.42" cy="-668.96" r="1.4489"/><circle transform="scale(1,-1)" cx="530.54" cy="-690.25" r="1.4489"/><circle transform="scale(1,-1)" cx="532.68" cy="-693.72" r="1.4489"/><circle transform="scale(1,-1)" cx="500.79" cy="-697.29" r="1.4489"/><circle transform="scale(1,-1)" cx="521.63" cy="-643.92" r="1.4489"/><circle transform="scale(1,-1)" cx="572.24" cy="-664.95" r="1.4489"/><circle transform="scale(1,-1)" cx="569.39" cy="-678.13" r="1.4489"/><circle transform="scale(1,-1)" cx="562.79" cy="-681.34" r="1.4489"/><circle transform="scale(1,-1)" cx="544.26" cy="-648.2" r="1.4489"/><circle transform="scale(1,-1)" cx="551.39" cy="-663.34" r="1.4489"/><circle transform="scale(1,-1)" cx="556.91" cy="-680.27" r="1.4489"/><circle transform="scale(1,-1)" cx="547.83" cy="-687.58" r="1.4489"/><circle transform="scale(1,-1)" cx="540.88" cy="-693.99" r="1.4489"/><circle transform="scale(1,-1)" cx="580.43" cy="-679.2" r="1.4489"/><circle transform="scale(1,-1)" cx="560.83" cy="-694.53" r="1.4489"/><circle transform="scale(1,-1)" cx="548.72" cy="-696.31" r="1.4489"/><circle transform="scale(1,-1)" cx="495.09" cy="-644.46" r="1.4489"/><circle transform="scale(1,-1)" cx="491.17" cy="-657.64" r="1.4489"/><circle transform="scale(1,-1)" cx="520.39" cy="-672.97" r="1.4489"/><circle transform="scale(1,-1)" cx="525.02" cy="-685.62" r="1.4489"/><circle transform="scale(1,-1)" cx="523.59" cy="-711.81" r="1.4489"/><circle transform="scale(1,-1)" cx="534.46" cy="-660.85" r="1.4489"/><circle transform="scale(1,-1)" cx="571.8" cy="-643.36" r="1.4489"/><circle transform="scale(1,-1)" cx="549.84" cy="-632.23" r="1.4489"/><circle transform="scale(1,-1)" cx="566.47" cy="-643.95" r="1.4489"/><circle transform="scale(1,-1)" cx="552.61" cy="-658.82" r="1.4489"/><circle transform="scale(1,-1)" cx="596.96" cy="-656.55" r="1.4489"/><circle transform="scale(1,-1)" cx="585.87" cy="-655.79" r="1.4489"/><circle transform="scale(1,-1)" cx="597.72" cy="-673.06" r="1.4489"/><circle transform="scale(1,-1)" cx="578.44" cy="-695.61" r="1.4489"/><circle transform="scale(1,-1)" cx="547.95" cy="-715.39" r="1.4489"/><circle transform="scale(1,-1)" cx="564.33" cy="-710.73" r="1.4489"/><circle transform="scale(1,-1)" cx="479.66" cy="-668.39" r="1.4489"/><circle transform="scale(1,-1)" cx="483.82" cy="-688.43" r="1.4489"/><circle transform="scale(1,-1)" cx="510.4" cy="-711.23" r="1.4489"/><circle transform="scale(1,-1)" cx="518.85" cy="-683.13" r="1.4489"/><circle transform="scale(1,-1)" cx="534.72" cy="-700.77" r="1.4489"/><circle transform="scale(1,-1)" cx="517.71" cy="-692.46" r="1.4489"/><circle transform="scale(1,-1)" cx="517.21" cy="-710.22" r="1.4489"/><circle transform="scale(1,-1)" cx="511.54" cy="-648.11" r="1.4489"/><circle transform="scale(1,-1)" cx="510.03" cy="-666.5" r="1.4489"/><circle transform="scale(1,-1)" cx="507.63" cy="-692.71" r="1.4489"/><circle transform="scale(1,-1)" cx="481.43" cy="-656.42" r="1.4489"/><circle transform="scale(1,-1)" cx="489.62" cy="-672.3" r="1.4489"/><circle transform="scale(1,-1)" cx="491.13" cy="-699.14" r="1.4489"/><circle transform="scale(1,-1)" cx="536.61" cy="-626.94" r="1.4489"/><circle transform="scale(1,-1)" cx="530.18" cy="-645.71" r="1.4489"/><circle transform="scale(1,-1)" cx="536.48" cy="-678.98" r="1.4489"/><circle transform="scale(1,-1)" cx="513.3" cy="-631.48" r="1.4489"/><circle transform="scale(1,-1)" cx="501.96" cy="-655.04" r="1.4489"/><circle transform="scale(1,-1)" cx="500.7" cy="-676.46" r="1.4489"/><circle transform="scale(1,-1)" cx="510.03" cy="-678.6" r="1.4489"/><circle transform="scale(1,-1)" cx="522.12" cy="-659.2" r="1.4489"/><circle transform="scale(1,-1)" cx="549.46" cy="-670.91" r="1.4489"/><circle transform="scale(1,-1)" cx="592.55" cy="-671.04" r="1.4489"/><circle transform="scale(1,-1)" cx="592.17" cy="-682" r="1.4489"/><circle transform="scale(1,-1)" cx="571.38" cy="-689.06" r="1.4489"/><circle transform="scale(1,-1)" cx="573.02" cy="-705.06" r="1.4489"/><circle transform="scale(1,-1)" cx="569.92" cy="-639.29" r="1.4489"/><circle transform="scale(1,-1)" cx="568.32" cy="-646.24" r="1.4489"/><circle transform="scale(1,-1)" cx="557.85" cy="-630.56" r="1.4489"/><circle transform="scale(1,-1)" cx="554.51" cy="-646.46" r="1.4489"/><circle transform="scale(1,-1)" cx="528.25" cy="-627.78" r="1.4489"/><circle transform="scale(1,-1)" cx="560.68" cy="-669.28" r="1.4489"/><circle transform="scale(1,-1)" cx="563.95" cy="-656.3" r="1.4489"/><circle transform="scale(1,-1)" cx="591.42" cy="-656.68" r="1.4489"/><circle transform="scale(1,-1)" cx="581.46" cy="-671.17" r="1.4489"/><circle transform="scale(1,-1)" cx="582.6" cy="-643.32" r="1.4489"/><circle transform="scale(1,-1)" cx="575.29" cy="-655.29" r="1.4489"/><circle transform="scale(1,-1)" cx="531.44" cy="-672.17" r="1.4489"/><circle transform="scale(1,-1)" cx="541.27" cy="-666.13" r="1.4489"/><circle transform="scale(1,-1)" cx="503.85" cy="-634.63" r="1.4489"/><circle transform="scale(1,-1)" cx="498.06" cy="-664.24" r="1.4489"/></g></g><g id="content" transform="matrix(1.5,0,0,1.5,229.78,-466.25)" fill-rule="evenodd" stroke-miterlimit="10.433" stroke-opacity="1" ns0:preamble="default_packages.tex" ns0:text="$events elementary outcomes$\n" xml:space="preserve"><ellipse transform="matrix(.067755 -.9977 -.99709 -.076295 0 0)" cx="-732.44" cy="-250.8" rx="12.306" ry="17.881" fill="#f00" fill-opacity=".25758" fill-rule="evenodd" stroke="none" stroke-width="1.5125"/><g fill="none" stroke="#000" stroke-miterlimit="10.433" stroke-opacity=".35266" stroke-width=".38444"/></g><g transform="matrix(1.291,0,0,1.291,282.75,-207.84)" fill-opacity=".81159" fill-rule="evenodd" stroke="#000" stroke-miterlimit="10.433" stroke-opacity=".5942" stroke-width="1.1619" ns0:preamble="default_packages.tex" ns0:text="$\\Omega$\n" xml:space="preserve"><path d="m155.46 708.73h-0.25c-0.05-0.25-0.09-0.48-0.18-0.72-0.05-0.16-0.08-0.24-0.65-0.24h-0.8c0.13 0.56 0.44 1.03 0.89 1.69 0.46 0.7 0.87 1.39 0.87 2.18 0 1.38-1.34 2.49-3.03 2.49-1.71 0-3.04-1.13-3.04-2.49 0-0.79 0.41-1.48 0.88-2.18 0.44-0.66 0.76-1.13 0.89-1.69h-0.8c-0.58 0-0.61 0.08-0.66 0.23-0.08 0.23-0.13 0.49-0.18 0.73h-0.25l0.33-1.6h1.59c0.22 0 0.25 0 0.25 0.2 0 0.7-0.3 1.57-0.53 2.21-0.21 0.57-0.49 1.36-0.49 2.11 0 1.58 1.1 2.26 2 2.26 0.96 0 2.02-0.71 2.02-2.26 0-0.75-0.27-1.5-0.56-2.32-0.15-0.42-0.47-1.31-0.47-2 0-0.2 0.03-0.2 0.26-0.2h1.58z" fill-opacity=".81159" stroke-width="0"/></g></g>
  <flowRoot fill="#000000" font-family="Verdana" font-size="40px" letter-spacing="0px" word-spacing="0px" style="line-height:1.25" xml:space="preserve"><flowRegion><rect x="-434.29" y="-28.909" width="1817.1" height="1228.6"/></flowRegion><flowPara/></flowRoot>
  <g transform="matrix(1.5 0 0 -1.5 -388.69 1123.4)" fill-rule="evenodd" stroke="#000" stroke-miterlimit="10.433" stroke-opacity=".23529" ns0:preamble="default_packages.tex" ns0:text='$$\\text{TRAINING SET}$$\n$$\\text{Spam}$$\n$$\\text{Ham}$$\n$$\\text{Letter containing word "buy"}$$\n\n' xml:space="preserve"><g transform="matrix(1.5 0 0 1.5 289.78 -510.4)" fill-rule="evenodd" stroke="#000" stroke-miterlimit="10.433" ns0:preamble="default_packages.tex" ns0:text="$events elementary outcomes$\n" xml:space="preserve"><g fill="none" stroke-opacity=".35266" stroke-width=".38444"/><g transform="translate(18.131 39.325)" fill-rule="evenodd" stroke-opacity="1" ns0:preamble="default_packages.tex" ns0:text="$events elementary outcomes$\n" xml:space="preserve"><g fill="none" stroke="#000" stroke-miterlimit="10.433" stroke-opacity=".35266" stroke-width=".38444"/></g></g></g>
  <g transform="matrix(1.4251 0 0 1.4251 403.16 197.15)" ns0:alignment="middle center" ns0:inkscapeversion="1.0" ns0:jacobian_sqrt="3.21017" ns0:pdfconverter="inkscape" ns0:preamble="C:\\Users\\User\\AppData\\Roaming\\inkscape\\extensions\\textext\\default_packages.tex" ns0:scale="2.4076355951901767" ns0:texconverter="pdflatex" ns0:text="$$X X^C$$" ns0:version="1.1.0">
   <defs></defs>
   <g transform="translate(-293.5 -137.7)">
    <g transform="translate(44.367 -79.457)"></g>
    <g transform="translate(44.367 -79.457)"></g>
   </g>
  </g>
 </g>
 <g transform="matrix(1.4251 0 0 1.4251 76.236 154.73)" ns0:alignment="middle center" ns0:inkscapeversion="1.0" ns0:jacobian_sqrt="3.21017" ns0:pdfconverter="inkscape" ns0:preamble="C:\\Users\\User\\AppData\\Roaming\\inkscape\\extensions\\textext\\default_packages.tex" ns0:scale="2.4076355951901767" ns0:texconverter="pdflatex" ns0:text="$$X X^C$$" ns0:version="1.1.0">
  <defs></defs>
  <g id="id-f42454e4-59e1-491d-b524-55d074bfa2fc" transform="translate(-293.5 -137.7)">
   <g id="id-a973f230-f9aa-4eb2-a674-2d7f2e57434a" transform="translate(2.5668 -42.21)"></g>
   <g transform="translate(44.367 -79.457)"></g>
   <g transform="translate(44.367 -79.457)"></g>
  </g>
 </g>
 <ellipse transform="matrix(.66024 .75106 -.91041 .41372 0 0)" cx="142.55" cy="-26.488" rx="30.748" ry="38.087" fill="#0084ff" fill-opacity=".23" fill-rule="evenodd" stroke-width="3.4894"/>
 <g transform="matrix(1.4138 0 0 1.4138 37.27 162.28)" ns0:alignment="middle center" ns0:inkscapeversion="1.0" ns0:jacobian_sqrt="3.21017" ns0:pdfconverter="inkscape" ns0:preamble="C:\\Users\\User\\AppData\\Roaming\\inkscape\\extensions\\textext\\default_packages.tex" ns0:scale="2.4076355951901767" ns0:texconverter="pdflatex" ns0:text="$$A B A \\cap B$$" ns0:version="1.1.0">
  <defs id="id-5bec1d32-f8ba-4465-ad6b-006f7956ecef"></defs>
  <g id="id-3030a8fa-817a-41e9-802f-37c85238f88b" transform="translate(-284.9 -139.58)">
   <g id="id-a06cf6bd-8161-41a4-b99e-007b59fa477c">
    <g transform="translate(298.99 94.678)">
     <path d="m1.7812-1.1406c-0.39062 0.65625-0.78125 0.79688-1.2188 0.82812-0.125 0.015625-0.21875 0.015625-0.21875 0.20312 0 0.0625 0.0625 0.10938 0.14062 0.10938 0.26562 0 0.57812-0.03125 0.84375-0.03125 0.34375 0 0.6875 0.03125 1 0.03125 0.0625 0 0.1875 0 0.1875-0.1875 0-0.10938-0.078125-0.125-0.15625-0.125-0.21875-0.015625-0.46875-0.09375-0.46875-0.34375 0-0.125 0.0625-0.23438 0.14062-0.375l0.76562-1.2656h2.5c0.015625 0.20312 0.15625 1.5625 0.15625 1.6562 0 0.29688-0.51562 0.32812-0.71875 0.32812-0.14062 0-0.23438 0-0.23438 0.20312 0 0.10938 0.10938 0.10938 0.14062 0.10938 0.40625 0 0.82812-0.03125 1.2344-0.03125 0.25 0 0.89062 0.03125 1.1406 0.03125 0.046875 0 0.17188 0 0.17188-0.20312 0-0.10938-0.09375-0.10938-0.23438-0.10938-0.60938 0-0.60938-0.0625-0.64062-0.35938l-0.60938-6.2188c-0.015625-0.20312-0.015625-0.25-0.1875-0.25-0.15625 0-0.20312 0.078125-0.26562 0.17188zm1.2031-1.4688 1.9531-3.2969 0.32812 3.2969z"/>
    </g>
    <g transform="translate(354.24 92.848)">
     <path d="m-1.0296 1.0875c-0.09375 0.39062-0.125 0.46875-0.90625 0.46875-0.17188 0-0.26562 0-0.26562 0.20312 0 0.10938 0.09375 0.10938 0.26562 0.10938h3.5625c1.5781 0 2.75-1.1719 2.75-2.1562 0-0.71875-0.57812-1.2969-1.5469-1.4063 1.0312-0.1875 2.0781-0.92188 2.0781-1.875 0-0.73438-0.65625-1.375-1.8438-1.375h-3.3594c-0.1875 0-0.28125 0-0.28125 0.20312 0 0.10938 0.09375 0.10938 0.28125 0.10938 0.015625 0 0.20312 0 0.375 0.015625 0.17188 0.03125 0.26562 0.03125 0.26562 0.17188 0 0.03125-0.015625 0.0625-0.03125 0.1875zm1.5-2.875 0.625-2.4688c0.09375-0.34375 0.10938-0.375 0.53125-0.375h1.2969c0.875 0 1.0781 0.59375 1.0781 1.0312 0 0.875-0.85938 1.8125-2.0625 1.8125zm-0.4375 3.3438h-0.21875c-0.10938-0.015625-0.14062-0.03125-0.14062-0.10938 0-0.03125 0-0.046875 0.0625-0.21875l0.6875-2.7812h1.875c0.95312 0 1.1562 0.73438 1.1562 1.1563 0 0.98438-0.89062 1.9531-2.0781 1.9531z"/>
    </g>
   </g>
   <g transform="matrix(.86327 0 0 .86327 57.95 -31.738)">
    <g transform="translate(300.09 146.72)">
     <path id="id-7aea9268-c4cb-4729-af7d-31c60ad5a8bb" d="m1.7812-1.1406c-0.39062 0.65625-0.78125 0.79688-1.2188 0.82812-0.125 0.015625-0.21875 0.015625-0.21875 0.20312 0 0.0625 0.0625 0.10938 0.14062 0.10938 0.26562 0 0.57812-0.03125 0.84375-0.03125 0.34375 0 0.6875 0.03125 1 0.03125 0.0625 0 0.1875 0 0.1875-0.1875 0-0.10938-0.078125-0.125-0.15625-0.125-0.21875-0.015625-0.46875-0.09375-0.46875-0.34375 0-0.125 0.0625-0.23438 0.14062-0.375l0.76562-1.2656h2.5c0.015625 0.20312 0.15625 1.5625 0.15625 1.6562 0 0.29688-0.51562 0.32812-0.71875 0.32812-0.14062 0-0.23438 0-0.23438 0.20312 0 0.10938 0.10938 0.10938 0.14062 0.10938 0.40625 0 0.82812-0.03125 1.2344-0.03125 0.25 0 0.89062 0.03125 1.1406 0.03125 0.046875 0 0.17188 0 0.17188-0.20312 0-0.10938-0.09375-0.10938-0.23438-0.10938-0.60938 0-0.60938-0.0625-0.64062-0.35938l-0.60938-6.2188c-0.015625-0.20312-0.015625-0.25-0.1875-0.25-0.15625 0-0.20312 0.078125-0.26562 0.17188zm1.2031-1.4688 1.9531-3.2969 0.32812 3.2969z"/>
    </g>
   </g>
   <g id="id-d3791b25-a0ab-4fef-b535-a55a3bd54e3f" transform="matrix(.86327 0 0 .86327 57.95 -31.738)">
    <g transform="translate(309.78 146.72)">
     <path id="id-65fe9d1f-74c5-4263-8dbb-d95a221670fb" d="m6.0938-3.7812c0-1.5156-1.5312-2.1875-2.7812-2.1875-1.2812 0-2.7656 0.70312-2.7656 2.1719v3.6562c0 0.1875 0 0.35938 0.20312 0.35938s0.20312-0.17188 0.20312-0.35938v-3.6094c0-1.5 1.625-1.8125 2.3594-1.8125 0.45312 0 1.0781 0.09375 1.6094 0.42188 0.76562 0.5 0.76562 1.1406 0.76562 1.4062v3.5938c0 0.1875 0 0.35938 0.20312 0.35938s0.20312-0.17188 0.20312-0.35938z"/>
    </g>
   </g>
   <g transform="matrix(.86327 0 0 .86327 57.95 -31.738)">
    <g transform="translate(318.63 146.72)">
     <path id="id-bc0aa60a-948f-4124-bd92-2dfc87fd20be" d="m1.5938-0.78125c-0.09375 0.39062-0.125 0.46875-0.90625 0.46875-0.17188 0-0.26562 0-0.26562 0.20312 0 0.10938 0.09375 0.10938 0.26562 0.10938h3.5625c1.5781 0 2.75-1.1719 2.75-2.1562 0-0.71875-0.57812-1.2969-1.5469-1.4062 1.0312-0.1875 2.0781-0.92188 2.0781-1.875 0-0.73438-0.65625-1.375-1.8438-1.375h-3.3594c-0.1875 0-0.28125 0-0.28125 0.20312 0 0.10938 0.09375 0.10938 0.28125 0.10938 0.015625 0 0.20312 0 0.375 0.015625 0.17188 0.03125 0.26562 0.03125 0.26562 0.17188 0 0.03125-0.015625 0.0625-0.03125 0.1875zm1.5-2.875 0.625-2.4688c0.09375-0.34375 0.10938-0.375 0.53125-0.375h1.2969c0.875 0 1.0781 0.59375 1.0781 1.0312 0 0.875-0.85938 1.8125-2.0625 1.8125zm-0.4375 3.3438h-0.21875c-0.10938-0.015625-0.14062-0.03125-0.14062-0.10938 0-0.03125 0-0.046875 0.0625-0.21875l0.6875-2.7812h1.875c0.95312 0 1.1562 0.73438 1.1562 1.1562 0 0.98438-0.89062 1.9531-2.0781 1.9531z"/>
    </g>
   </g>
  </g>
 </g>
</svg>
