<svg width="240mm" height="90mm" version="1.1" viewBox="0 0 273.82 94.103" xmlns="http://www.w3.org/2000/svg" xmlns:ns0="http://www.iki.fi/pav/software/textext/">
 <defs>
  <marker id="Arrow1Mend" overflow="visible" orient="auto">
   <path transform="scale(.4) rotate(180) translate(10)" d="m0 0 5-5-17.5 5 17.5 5-5-5z" fill="#f00" fill-opacity=".31373" fill-rule="evenodd" stroke="#f00" stroke-opacity=".31373" stroke-width="1pt"/>
  </marker>
  <marker id="Arrow1Mstart" overflow="visible" orient="auto">
   <path transform="scale(.4) translate(10)" d="m0 0 5-5-17.5 5 17.5 5-5-5z" fill="#f00" fill-opacity=".31373" fill-rule="evenodd" stroke="#f00" stroke-opacity=".31373" stroke-width="1pt"/>
  </marker>
  <marker id="c" overflow="visible" orient="auto">
   <path transform="matrix(.4 0 0 .4 4 0)" d="m0 0 5-5-17.5 5 17.5 5z" fill-opacity=".78431" fill-rule="evenodd" stroke="#000" stroke-opacity=".78431" stroke-width="1pt"/>
  </marker>
  <marker id="a" overflow="visible" orient="auto">
   <path transform="matrix(-.4 0 0 -.4 -4 0)" d="m0 0 5-5-17.5 5 17.5 5z" fill-rule="evenodd" stroke="#000" stroke-width="1pt"/>
  </marker>
  <marker id="b" overflow="visible" orient="auto">
   <path transform="matrix(-.4 0 0 -.4 -4 0)" d="m0 0 5-5-17.5 5 17.5 5z" fill-rule="evenodd" stroke="#000" stroke-width="1pt"/>
  </marker>
  <marker id="e" overflow="visible" orient="auto">
   <path transform="matrix(-.4 0 0 -.4 -4 0)" d="m0 0 5-5-17.5 5 17.5 5z" fill-rule="evenodd" stroke="#000" stroke-width="1pt"/>
  </marker>
  <marker id="d" overflow="visible" orient="auto">
   <path transform="matrix(-.4 0 0 -.4 -4 0)" d="m0 0 5-5-17.5 5 17.5 5z" fill-rule="evenodd" stroke="#000" stroke-width="1pt"/>
  </marker>
 </defs>
 <g transform="translate(-5.7799 -77.841)">
  <g transform="matrix(1.2506,0,0,-1.2506,-72.165,1072.2)" fill-rule="evenodd" stroke="#000" stroke-miterlimit="10.433" ns0:preamble="default_packages.tex" ns0:text="$x$\n$y$\n" xml:space="preserve"><g transform="matrix(.79961 0 0 -.79961 58.988 860.59)"><g transform="matrix(1.2506,0,0,-1.2506,-72.165,1072.2)" fill-rule="evenodd" stroke="#000" stroke-miterlimit="10.433" ns0:preamble="default_packages.tex" ns0:text="$x$\n$y$\n" xml:space="preserve"><path d="m69.613 717.63v73.667" fill="none" marker-end="url(#a)" stroke="#000" stroke-width=".23988"/><path d="m65.368 722.62h92.182" fill="none" marker-end="url(#b)" stroke="#000" stroke-width=".23988"/><g transform="matrix(1.5,0,0,1.5,-311.17,-218.43)" fill-rule="evenodd" stroke-opacity="0" ns0:preamble="default_packages.tex" ns0:text="$x$\n$y$\n$\\langle y \\rangle$\n$\\langle x \\rangle$\n$\\text{Point of averages}$\n$\\text{Regression line}$\n$\\text{SD line}$\n$\\rho(x,y)\\sigma_y$\n$\\sigma_x$\n" xml:space="preserve"><g transform="matrix(0 .2397 -.2397 0 296.49 630.46)" stroke-width="4.1719"><g transform="matrix(1.5,0,0,1.5,-66.692,-876.07)" fill-rule="evenodd" stroke="#000" stroke-miterlimit="10.433" stroke-opacity="1" stroke-width="0" ns0:preamble="default_packages.tex" ns0:text="$pdf$\n" xml:space="preserve"><path d="m149.16 705.91-0.01-0.03v-0.03l-0.01-0.03-0.01-0.02v-0.03l-0.03-0.06v-0.02l-0.02-0.04-0.01-0.01-0.01-0.02-0.01-0.01-0.01-0.02-0.01-0.01-0.02-0.01-0.01-0.01-0.02-0.01h-0.02l-0.01-0.01-0.02-0.01h-0.03l-0.02-0.01h-0.04l-0.01-0.01h-0.21c-0.12 0-0.23 0-0.23-0.19 0-0.08 0.05-0.12 0.13-0.12 0.27 0 0.56 0.03 0.84 0.03 0.33 0 0.67-0.03 0.99-0.03 0.05 0 0.18 0 0.18 0.2 0 0.11-0.1 0.11-0.24 0.11-0.5 0-0.5 0.07-0.5 0.15 0 0.12 0.42 1.74 0.49 1.99 0.13-0.29 0.41-0.63 0.92-0.63l-0.02 0.21c-0.65 0-0.78 0.83-0.78 0.89 0 0.02 0 0.04 0.03 0.16l0.49 1.94c0.07 0.27 0.34 0.55 0.51 0.7 0.35 0.31 0.64 0.38 0.81 0.38 0.4 0 0.64-0.35 0.64-0.94 0-0.58-0.33-1.72-0.51-2.1-0.34-0.7-0.82-1.03-1.19-1.03l0.02-0.21c1.15 0 2.4 1.45 2.4 2.91 0 0.93-0.57 1.59-1.33 1.59-0.5 0-0.98-0.36-1.3-0.75-0.1 0.54-0.53 0.75-0.9 0.75-0.46 0-0.65-0.39-0.74-0.57-0.18-0.34-0.31-0.93-0.31-0.96 0-0.1 0.1-0.1 0.12-0.1 0.1 0 0.11 0.01 0.17 0.22 0.17 0.71 0.37 1.19 0.73 1.19 0.17 0 0.31-0.08 0.31-0.46 0-0.23-0.03-0.34-0.07-0.51z"/><path d="m158.87 713.91v0.03h-0.01v0.02l-0.01 0.01v0.01h-0.01v0.01h-0.01v0.01h-0.01l-0.01 0.01h-0.03v0.01h-0.04c-0.15 0-1.1-0.09-1.27-0.11-0.08-0.01-0.14-0.06-0.14-0.19 0-0.12 0.09-0.12 0.24-0.12 0.48 0 0.5-0.07 0.5-0.17l-0.03-0.2-0.6-2.35c-0.18 0.37-0.46 0.64-0.91 0.64-1.17 0-2.41-1.47-2.41-2.92 0-0.93 0.55-1.58 1.33-1.58l0.02 0.21c-0.5 0-0.64 0.55-0.64 0.94 0 0.49 0.32 1.72 0.55 2.17 0.31 0.59 0.76 0.96 1.16 0.96 0.64 0 0.78-0.82 0.78-0.88s-0.02-0.12-0.03-0.17l-0.49-1.94c-0.05-0.18-0.05-0.2-0.2-0.37-0.44-0.55-0.85-0.71-1.13-0.71l-0.02-0.21c0.2 0 0.7 0.03 1.3 0.74 0.08-0.42 0.43-0.74 0.9-0.74 0.35 0 0.58 0.22 0.74 0.54 0.17 0.36 0.3 0.97 0.3 0.99 0 0.1-0.09 0.1-0.12 0.1-0.1 0-0.11-0.05-0.14-0.18-0.17-0.65-0.35-1.24-0.76-1.24-0.27 0-0.3 0.26-0.3 0.46 0 0.24 0.02 0.31 0.06 0.48z"/><path d="m160.91 711.1h0.85c0.2 0 0.3 0 0.3 0.2 0 0.11-0.1 0.11-0.27 0.11h-0.83l0.22 1.13c0.03 0.21 0.17 0.91 0.23 1.03 0.09 0.19 0.26 0.34 0.47 0.34 0.04 0 0.3 0 0.49-0.18-0.44-0.04-0.54-0.39-0.54-0.53 0-0.23 0.18-0.35 0.37-0.35 0.26 0 0.55 0.22 0.55 0.59 0 0.46-0.46 0.69-0.87 0.69-0.34 0-0.96-0.18-1.26-1.16-0.06-0.21-0.09-0.31-0.33-1.56h-0.69c-0.19 0-0.3 0-0.3-0.19 0-0.12 0.09-0.12 0.28-0.12h0.66l-0.75-3.93c-0.18-0.96-0.35-1.86-0.87-1.86-0.04 0-0.29 0-0.48 0.18 0.46 0.03 0.55 0.38 0.55 0.53 0 0.23-0.18 0.35-0.37 0.35-0.26 0-0.55-0.22-0.55-0.6 0-0.44 0.44-0.68 0.85-0.68 0.55 0 0.95 0.58 1.13 0.96 0.32 0.63 0.55 1.83 0.56 1.9z"/></g></g></g><g transform="matrix(.9029 0 0 -.90304 -57.517 844.28)" stroke-width=".61987"><g transform="matrix(1.2506 0 0 -1.2506 -72.209 1069)" fill-rule="evenodd" stroke="#000" stroke-miterlimit="10.433" stroke-width=".49566" ns0:preamble="default_packages.tex" ns0:text="$x$\n$y$\n" xml:space="preserve"><g fill="none" stroke="#000" stroke-miterlimit="10.433" stroke-opacity=".62745" stroke-width=".49566"><path d="m167.74 754.86c46.915 5.2712 46.177 41.939 56.124 42.137 10.284-0.0297 5.0536-41.064 17.877-41.285" fill="none" stroke="#003c88" stroke-miterlimit="10.433" stroke-opacity=".58454" stroke-width=".49566"/></g></g></g><g transform="translate(6.4776 .12345)" stroke="#000"><path d="m100.46 748.39c-0.91277-0.81761-1.7937-1.6792-2.728-2.4694-5.8715-5.088-12.844-8.8112-20.206-11.246-5.5807-1.8554-11.377-3.0066-17.209-3.6759-0.344-0.11403-0.16737-0.54677-0.2105-0.81776v-7.2382c0.06785-0.36803 0.51537-0.20475 0.77813-0.23986h39.687c0.36817 0.0679 0.20454 0.51549 0.23941 0.77829-7e-3 8.229-0.0137 16.458-0.0205 24.687-0.0217 0.17036-0.1643 0.26644-0.33092 0.22175z" fill="#050000" fill-opacity=".090196" stroke="none"/><path d="m100.88 749v-26.417" fill="#050000" fill-opacity=".033816" stroke-dasharray="1.77716075, 0.29619346" stroke-miterlimit="10.433" stroke-opacity=".38647" stroke-width=".29619"/><g transform="matrix(.31024 0 0 .31024 19.886 514.75)" fill-rule="evenodd" stroke-miterlimit="10.433" stroke-width="0" ns0:preamble="default_packages.tex" ns0:text="$$p(x)dx$$\n" xml:space="preserve"><g fill-opacity=".78431"><path d="m262.17 655.98v0.051l0.051 0.15325 0.0341 0.13621 0.0169 0.0851 0.0341 0.0681 0.0342 0.0851 0.017 0.0851 0.0341 0.0681 0.0681 0.17028 0.051 0.0851 0.0342 0.0851 0.15323 0.25541 0.0681 0.0681 0.051 0.0851 0.27243 0.27243 0.17027 0.10216 0.051 0.017 0.0342 0.0169 0.051 0.017 0.0342 0.017 0.15325 0.051h0.051l0.051 0.017h0.17027c0.0681 0 0.4769 0 0.83455-0.22142-0.45985-0.0851-0.81752-0.51097-0.81752-0.9027 0-0.2725 0.20438-0.5961 0.64721-0.5961 0.37471 0 0.91972 0.30656 0.91972 0.98783 0 0.86863-1.0049 1.1071-1.5839 1.1071-0.97083 0-1.5669-0.90268-1.7714-1.2774-0.42578 1.1071-1.3455 1.2774-1.8395 1.2774-1.7714 0-2.7252-2.18-2.7252-2.6058 0-0.17032 0.17032-0.17032 0.20438-0.17032 0.11919 0 0.17033 0.0341 0.22141 0.18733 0.56205 1.7884 1.6861 2.2141 2.2653 2.2141 0.32359 0 0.9197-0.15329 0.9197-1.1241 0-0.52798-0.28952-1.6691-0.9197-4.0365-0.2725-1.0389-0.86863-1.7542-1.618-1.7542-0.10215 0-0.47688 0-0.85158 0.22141 0.42578 0.0851 0.8005 0.44283 0.8005 0.91972 0 0.44283-0.37472 0.57909-0.63018 0.57909-0.49394 0-0.91972-0.44284-0.91972-0.97083 0-0.78345 0.85159-1.1241 1.5839-1.1241 1.1241 0 1.7373 1.1922 1.7884 1.2944 0.20438-0.63018 0.81751-1.2944 1.8395-1.2944 1.7542 0 2.708 2.18 2.708 2.6058 0 0.17032-0.1533 0.17032-0.20439 0.17032-0.15329 0-0.18735-0.0681-0.22141-0.18735-0.56206-1.8054-1.7031-2.2141-2.2481-2.2141-0.66424 0-0.93675 0.545-0.93675 1.1071 0 0.37469 0.10217 0.7494 0.28955 1.4988z" fill-rule="evenodd" stroke-width="0"/><g id="content" transform="matrix(1.6874 0 0 1.6874 -396.44 -515.58)" fill-opacity=".78431" fill-rule="evenodd" stroke="#000" stroke-width="0" ns0:preamble="default_packages.tex" ns0:text="$$\\infty$$\n" xml:space="preserve"><path d="m305.71 697.86-0.1 0.12-0.04 0.06-0.04 0.05-0.05 0.05-0.03 0.05-0.04 0.05-0.04 0.04-0.09 0.12-0.03 0.03-0.03 0.04-0.03 0.03-0.02 0.03-0.08 0.08-0.02 0.03-0.03 0.02-0.05 0.05-0.04 0.05-0.05 0.04-0.05 0.05-0.05 0.04-0.06 0.04c-0.56 0.45-1.11 0.63-1.62 0.63-1.17 0-1.93-1.09-1.93-2.25h0.22c0 0.97 0.67 1.77 1.55 1.77 0.58 0 1.02-0.41 1.23-0.62 0.25-0.27 0.48-0.58 1.09-1.36-0.41-0.72-1.15-1.72-2.27-1.72-1.06 0-1.6 1.03-1.6 1.93h-0.22c0-1.15 0.74-2.25 1.89-2.25 1.14 0 1.97 0.91 2.46 1.7 0.54-0.68 0.66-0.83 0.97-1.07 0.56-0.45 1.11-0.63 1.62-0.63 1.17 0 1.93 1.09 1.93 2.26h-0.22c0-0.98-0.67-1.78-1.55-1.78-0.58 0-1.03 0.42-1.24 0.62-0.24 0.27-0.47 0.58-1.08 1.36 0.41 0.72 1.14 1.72 2.27 1.72 1.06 0 1.6-1.03 1.6-1.92h0.22c0 1.14-0.74 2.24-1.89 2.24s-1.97-0.9-2.46-1.7z" fill-opacity=".78431" stroke-width="0"/></g><path d="m434.5 787.11h73.132" fill="none" marker-end="url(#Arrow1Mend)" marker-start="url(#Arrow1Mstart)" stroke="#f00" stroke-opacity=".31373" stroke-width="2.2504"/></g><g transform="matrix(1.9114,0,0,1.9114,-226.77,-676.28)" fill-rule="evenodd" stroke="#000" ns0:preamble="default_packages.tex" ns0:text="$$\\mathbb{E}{[X]}$$\n" xml:space="preserve"><path d="m337.48 699.14-0.83 1.98c-0.03 0.08-0.05 0.12-0.05 0.13 0 0.06 0.17 0.25 0.58 0.29 0.1 0.01 0.2 0.02 0.2 0.19 0 0.12-0.12 0.12-0.15 0.12-0.4 0-0.83-0.04-1.25-0.04-0.25 0-0.87 0.04-1.12 0.04-0.06 0-0.18 0-0.18-0.2 0-0.11 0.1-0.11 0.23-0.11 0.6 0 0.66-0.1 0.75-0.32l1.17-2.77-2.1-2.26-0.13-0.11c-0.49-0.52-0.96-0.68-1.46-0.71-0.13-0.01-0.22-0.01-0.22-0.2 0-0.01 0-0.11 0.13-0.11 0.3 0 0.62 0.03 0.93 0.03 0.37 0 0.76-0.03 1.12-0.03 0.06 0 0.18 0 0.18 0.2 0 0.1-0.1 0.11-0.12 0.11-0.09 0.01-0.4 0.03-0.4 0.31 0 0.16 0.15 0.31 0.27 0.44l1.02 1.08 0.9 0.97 1-2.37c0.04-0.11 0.05-0.12 0.05-0.14 0-0.08-0.19-0.25-0.58-0.29-0.11-0.01-0.2-0.02-0.2-0.19 0-0.12 0.11-0.12 0.15-0.12 0.28 0 0.98 0.03 1.26 0.03 0.25 0 0.86-0.03 1.11-0.03 0.07 0 0.19 0 0.19 0.19 0 0.12-0.1 0.12-0.18 0.12-0.67 0.01-0.69 0.04-0.86 0.43-0.39 0.93-1.06 2.48-1.29 3.07 0.68 0.7 1.73 1.88 2.05 2.16 0.29 0.24 0.67 0.48 1.26 0.51 0.13 0.01 0.22 0.01 0.22 0.2 0 0.01 0 0.11-0.13 0.11-0.3 0-0.63-0.04-0.93-0.04-0.37 0-0.75 0.04-1.11 0.04-0.06 0-0.19 0-0.19-0.2 0-0.07 0.05-0.1 0.12-0.11 0.09-0.01 0.4-0.03 0.4-0.31 0-0.14-0.11-0.27-0.19-0.36z" fill-rule="evenodd"/><circle transform="scale(1,-1)" cx="255.24" cy="-748.92" r=".94851" fill-opacity=".62745" opacity=".97" stroke="#050000" stroke-linecap="square" stroke-opacity=".090196" stroke-width="1.6865"/><g transform="matrix(1.0638 0 0 1.0638 57.11 -38.011)" fill-rule="evenodd" stroke="#000" stroke-width="0" ns0:preamble="default_packages.tex" ns0:text="$pdf(x) cdf(x)$\n" xml:space="preserve"><g stroke-width="0"><path d="m153.92 706.86-7e-3 -0.0215v-0.0216l-7e-3 -0.0215-7e-3 -0.0143v-0.0215l-0.021-0.0429v-0.0143l-0.014-0.0286-7e-3 -7e-3 -7e-3 -0.0143-7e-3 -7e-3 -7e-3 -0.0143-7e-3 -7e-3 -0.0143-7e-3 -7e-3 -7e-3 -0.0143-7e-3h-0.0143l-7e-3 -7e-3 -0.0143-7e-3h-0.0215l-0.0143-7e-3h-0.0286l-7e-3 -7e-3h-0.1497c-0.0863 0-0.16524 0-0.16524-0.13651 0-0.0574 0.0359-0.0863 0.0934-0.0863 0.19399 0 0.40234 0.0215 0.60351 0.0215 0.23708 0 0.48136-0.0215 0.71127-0.0215 0.0359 0 0.12932 0 0.12932 0.1437 0 0.0791-0.0718 0.0791-0.17243 0.0791-0.35923 0-0.35923 0.0502-0.35923 0.10777 0 0.0863 0.30175 1.2501 0.35205 1.4297 0.0934-0.20834 0.29457-0.45262 0.66098-0.45262l-0.0143 0.15087c-0.467 0-0.56039 0.59632-0.56039 0.63942 0 0.0143 0 0.0288 0.0215 0.11495l0.35204 1.3938c0.0502 0.19399 0.24428 0.39517 0.36642 0.50293 0.25145 0.22271 0.45981 0.27302 0.58194 0.27302 0.28739 0 0.45981-0.25146 0.45981-0.67536 0-0.4167-0.23708-1.2358-0.36641-1.5088-0.24428-0.50292-0.58913-0.74001-0.85496-0.74001l0.0143-0.15087c0.82622 0 1.7243 1.0418 1.7243 2.0907 0 0.66816-0.40951 1.1423-0.95555 1.1423-0.35922 0-0.70407-0.25864-0.93398-0.53883-0.0718 0.38795-0.38079 0.53883-0.64662 0.53883-0.3305 0-0.467-0.28019-0.53165-0.40951-0.12932-0.24427-0.22273-0.66816-0.22273-0.68972 0-0.0718 0.0718-0.0718 0.0863-0.0718 0.0719 0 0.0791 7e-3 0.12214 0.15805 0.12213 0.51011 0.26583 0.85497 0.52448 0.85497 0.12213 0 0.22271-0.0574 0.22271-0.3305 0-0.16523-0.0216-0.24427-0.0502-0.36641z"/><path d="m160.9 712.61v0.021h-7e-3v0.014l-7e-3 7e-3v7e-3h-7e-3v7e-3h-7e-3v7e-3h-7e-3l-7e-3 7e-3h-0.021v7e-3h-0.028c-0.10777 0-0.79029-0.0646-0.91243-0.0791-0.0574-7e-3 -0.10063-0.0431-0.10063-0.13651 0-0.0863 0.0647-0.0863 0.17243-0.0863 0.34486 0 0.35923-0.0502 0.35923-0.12214l-0.0216-0.14368-0.43107-1.6884c-0.12932 0.26582-0.33049 0.45981-0.6538 0.45981-0.84059 0-1.7315-1.0561-1.7315-2.0979 0-0.66817 0.39514-1.1352 0.95554-1.1352l0.0143 0.15087c-0.35923 0-0.45982 0.39516-0.45982 0.67535 0 0.35205 0.22991 1.2358 0.39516 1.559 0.22272 0.4239 0.54602 0.68972 0.83341 0.68972 0.4598 0 0.56039-0.58914 0.56039-0.63225 0-0.0431-0.0143-0.0863-0.0216-0.12212l-0.35204-1.3938c-0.0359-0.12932-0.0359-0.14369-0.14369-0.26584-0.31612-0.39515-0.61069-0.5101-0.81186-0.5101l-0.0143-0.15087c0.1437 0 0.50292 0.0215 0.934 0.53166 0.0574-0.30176 0.30893-0.53166 0.64661-0.53166 0.25146 0 0.4167 0.15806 0.53165 0.38797 0.12214 0.25864 0.21554 0.6969 0.21554 0.71127 0 0.0718-0.0646 0.0718-0.0863 0.0718-0.0718 0-0.0791-0.0359-0.10062-0.12932-0.12214-0.467-0.25146-0.8909-0.54603-0.8909-0.19399 0-0.21554 0.1868-0.21554 0.3305 0 0.17243 0.0143 0.22271 0.0431 0.34486z"/><path d="m162.36 710.59h0.61069c0.14368 0 0.21554 0 0.21554 0.1437 0 0.0791-0.0718 0.0791-0.19398 0.0791h-0.59632l0.15806 0.81186c0.0215 0.15088 0.12213 0.6538 0.16524 0.74001 0.0647 0.13651 0.1868 0.24427 0.33767 0.24427 0.0288 0 0.21554 0 0.35205-0.12932-0.31612-0.0288-0.38797-0.28019-0.38797-0.38078 0-0.16523 0.12933-0.25145 0.26582-0.25145 0.18681 0 0.39516 0.15806 0.39516 0.42388 0 0.3305-0.33049 0.49574-0.62506 0.49574-0.24428 0-0.68971-0.12932-0.90525-0.8334-0.0431-0.15089-0.0647-0.22274-0.23709-1.1208h-0.49574c-0.1365 0-0.21553 0-0.21553-0.1365 0-0.0863 0.0646-0.0863 0.20116-0.0863h0.47419l-0.53884-2.8235c-0.12933-0.68971-0.25146-1.3363-0.62506-1.3363-0.0288 0-0.20836 0-0.34487 0.12933 0.3305 0.0215 0.39516 0.27301 0.39516 0.38078 0 0.16524-0.12933 0.25146-0.26584 0.25146-0.18679 0-0.39514-0.15806-0.39514-0.43108 0-0.31611 0.31613-0.48854 0.61069-0.48854 0.39515 0 0.68253 0.4167 0.81185 0.68972 0.22991 0.45262 0.39515 1.3148 0.40234 1.3651z"/><path d="m166.38 706.02v0.021h-7e-3v0.014h-7e-3v7e-3l-7e-3 7e-3v7e-3h-7e-3v7e-3h-7e-3v7e-3h-7e-3v7e-3h-7e-3v7e-3h-7e-3v7e-3h-7e-3v7e-3h-7e-3v7e-3l-0.049 0.049c-0.8909 0.89807-1.1208 2.2488-1.1208 3.3408 0 1.2429 0.27301 2.4859 1.1495 3.3768 0.0934 0.0863 0.0934 0.10063 0.0934 0.12214 0 0.0502-0.0288 0.0718-0.0718 0.0718-0.0718 0-0.71845-0.48854-1.1352-1.3938-0.36641-0.78313-0.45262-1.5806-0.45262-2.1769 0-0.56039 0.079-1.4225 0.47417-2.2272 0.4239-0.87652 1.0418-1.3435 1.1136-1.3435 0.0431 0 0.0718 0.0215 0.0718 0.0718z"/><path d="m169.18 709.89 7e-3 0.0143 7e-3 0.0215 7e-3 0.0216 7e-3 0.0287 0.014 0.0576 7e-3 0.0287 0.0143 0.0359 7e-3 0.0288 0.0572 0.1436 0.0215 0.0359 0.0143 0.0359 0.043 0.0718 0.0215 0.0288 0.0215 0.0359 0.0288 0.0288 0.0288 0.0359 0.0288 0.0287 0.0288 0.0288 0.0288 0.0216 0.0359 0.0215 0.0359 0.0216 0.0143 7e-3 0.0215 0.0143 0.0143 7e-3 0.0215 7e-3 0.0216 7e-3h0.0215l0.0215 7e-3 0.0216 7e-3h0.043l0.0216 7e-3h0.0215c0.0359 0 0.20834 0 0.35921-0.0934-0.20116-0.0359-0.34485-0.21552-0.34485-0.38796 0-0.11495 0.079-0.25146 0.27301-0.25146 0.15806 0 0.38797 0.12932 0.38797 0.41671 0 0.37359-0.42389 0.47418-0.66816 0.47418-0.41671 0-0.66817-0.38078-0.75438-0.54603-0.17243 0.47418-0.5604 0.54603-0.76875 0.54603-0.7472 0-1.1567-0.92681-1.1567-1.0992 0-0.0718 0.0718-0.0718 0.0863-0.0718 0.0574 0 0.0791 0.0143 0.0934 0.0791 0.24426 0.75438 0.71845 0.934 0.96273 0.934 0.1365 0 0.38797-0.0646 0.38797-0.48137 0-0.22273-0.12215-0.6969-0.38797-1.6956-0.11496-0.44545-0.36641-0.7472-0.68254-0.7472-0.0431 0-0.20835 0-0.35923 0.0934 0.17962 0.0359 0.33767 0.1868 0.33767 0.38796 0 0.19399-0.15805 0.25147-0.26583 0.25147-0.21554 0-0.39514-0.18681-0.39514-0.41672 0-0.33048 0.35923-0.46699 0.67534-0.46699 0.47419 0 0.73284 0.49574 0.75439 0.53885 0.0863-0.26583 0.34486-0.53885 0.77593-0.53885 0.73282 0 1.1424 0.91962 1.1424 1.0992 0 0.0718-0.0647 0.0718-0.0863 0.0718-0.0647 0-0.0791-0.0359-0.0934-0.0791-0.23709-0.76875-0.72563-0.94119-0.94836-0.94119-0.28019 0-0.39514 0.22992-0.39514 0.47419 0 0.15807 0.0431 0.31612 0.12213 0.62505z"/><path d="m172.95 709.52v0.165l-7e-3 0.0574v0.12212l-0.0143 0.12214-7e-3 0.12932-0.0143 0.13652-0.043 0.28738-0.0288 0.14369-0.0359 0.15088-0.0359 0.15087-0.0431 0.15088-0.0503 0.15087-0.0574 0.15087-0.0359 0.0791-0.0288 0.0791-0.0359 0.0718-0.0359 0.0791c-0.43108 0.8765-1.0418 1.3435-1.1136 1.3435-0.0431 0-0.0718-0.0287-0.0718-0.0718 0-0.0216 0-0.0359 0.13651-0.16525 0.69691-0.71127 1.1064-1.8464 1.1064-3.3336 0-1.2214-0.26583-2.4787-1.1495-3.3768-0.0934-0.0863-0.0934-0.10063-0.0934-0.12213 0-0.0431 0.0288-0.0718 0.0718-0.0718 0.0718 0 0.71127 0.48855 1.1352 1.3938 0.36642 0.78311 0.45264 1.5734 0.45264 2.1769z"/><path d="m166.83 743.63h-0.1072l-0.023-8e-3h-0.0314l-0.0152-8e-3h-0.016l-0.0152-8e-3h-8e-3l-8e-3 -8e-3 -0.0153-8e-3h-8e-3l-8e-3 -8e-3 -0.0152-8e-3h-8e-3l-8e-3 -8e-3 -0.0152-8e-3 -0.016-0.016-8e-3 -0.0154-0.0153-8e-3c-0.12239-0.11474-0.13768-0.24478-0.13768-0.29832 0-0.17593 0.13768-0.26007 0.28301-0.26007 0.22183 0 0.42836 0.17593 0.42836 0.4819 0 0.37481-0.35951 0.65782-0.90261 0.65782-1.025 0-2.0423-1.0938-2.0423-2.1647 0-0.68078 0.44366-1.2774 1.2392-1.2774 1.0862 0 1.7287 0.80317 1.7287 0.89497 0 0.0458-0.0459 0.0994-0.0918 0.0994-0.0382 0-0.0536-0.0154-0.0994-0.0765-0.60429-0.75727-1.4304-0.75727-1.5222-0.75727-0.4819 0-0.68843 0.37481-0.68843 0.83377 0 0.30596 0.15299 1.0479 0.41306 1.5145 0.23713 0.436 0.65018 0.76492 1.0709 0.76492 0.26007 0 0.55074-0.0994 0.65782-0.30597z"/><path d="m171.05 745.93v0.024h-8e-3v0.016l-8e-3 8e-3v8e-3h-8e-3v8e-3h-8e-3v8e-3h-0.016v8e-3h-0.024v8e-3h-0.032c-0.11474 0-0.84143-0.0688-0.97146-0.0842-0.0612-8e-3 -0.10704-0.0458-0.10704-0.14533 0-0.0918 0.0688-0.0918 0.18357-0.0918 0.36717 0 0.38247-0.0536 0.38247-0.13003l-0.023-0.15299-0.45896-1.7976c-0.13769 0.28301-0.35186 0.48954-0.69607 0.48954-0.89496 0-1.8435-1.1244-1.8435-2.2336 0-0.71138 0.42071-1.2086 1.0174-1.2086l0.0153 0.16064c-0.38246 0-0.48955 0.4207-0.48955 0.71903 0 0.37481 0.24478 1.3157 0.42071 1.6599 0.23712 0.4513 0.58134 0.73433 0.88731 0.73433 0.48955 0 0.59664-0.62725 0.59664-0.67314 0-0.0458-0.0152-0.0918-0.023-0.13003l-0.38247-1.484c-0.0306-0.13768-0.0306-0.15298-0.14533-0.28301-0.33657-0.42071-0.65018-0.5431-0.86436-0.5431l-0.0152-0.16064c0.15299 0 0.53544 0.023 0.9944 0.56605 0.0536-0.32127 0.32126-0.56605 0.68843-0.56605 0.26771 0 0.44365 0.16828 0.56604 0.41307 0.13004 0.27537 0.22947 0.74197 0.22947 0.75727 0 0.0764-0.0688 0.0764-0.0918 0.0764-0.0765 0-0.0842-0.0382-0.10704-0.13769-0.13004-0.49719-0.26773-0.9485-0.58134-0.9485-0.20653 0-0.22948 0.19888-0.22948 0.35186 0 0.18359 0.0152 0.23713 0.0459 0.36717z"/><path d="m172.6 743.78h0.65783c0.15298 0 0.22948 0 0.22948 0.15298 0 0.0842-0.0766 0.0842-0.20653 0.0842h-0.62724l0.15299 0.86435c0.0306 0.16063 0.13768 0.69609 0.18358 0.78787 0.0688 0.14534 0.19887 0.26008 0.35951 0.26008 0.0306 0 0.22948 0 0.37482-0.13769-0.33657-0.0306-0.41306-0.29832-0.41306-0.4054 0-0.17594 0.13769-0.26773 0.28302-0.26773 0.19888 0 0.42071 0.16829 0.42071 0.4513 0 0.35187-0.35187 0.5278-0.66549 0.5278-0.26007 0-0.73432-0.13769-0.9638-0.88731-0.046-0.16063-0.0688-0.23713-0.25242-1.1933h-0.5278c-0.14534 0-0.22947 0-0.22947-0.14534 0-0.0918 0.0688-0.0918 0.21417-0.0918h0.50485l-0.57369-3.0062c-0.13769-0.73433-0.26773-1.4228-0.66549-1.4228-0.0306 0-0.22183 0-0.36716 0.13769 0.35186 0.023 0.42071 0.29067 0.42071 0.40541 0 0.17593-0.13769 0.26772-0.28302 0.26772-0.19888 0-0.42071-0.16828-0.42071-0.45895 0-0.33657 0.33657-0.52015 0.65018-0.52015 0.42071 0 0.72669 0.44366 0.86437 0.73433 0.24477 0.4819 0.4207 1.3998 0.42836 1.4534z"/><path d="m176.89 738.92v0.024h-8e-3v0.016h-8e-3v8e-3h-8e-3v8e-3l-8e-3 8e-3v8e-3h-8e-3v8e-3h-8e-3v8e-3h-8e-3v8e-3h-8e-3v8e-3h-8e-3v8e-3h-8e-3v8e-3l-0.056 0.056c-0.95616 0.95615-1.2009 2.3942-1.2009 3.5569 0 1.3233 0.29067 2.6466 1.2315 3.5951 0.0994 0.0918 0.0994 0.10704 0.0994 0.13004 0 0.0536-0.0306 0.0764-0.0764 0.0764-0.0764 0-0.76493-0.52014-1.2162-1.4839-0.38246-0.83377-0.47425-1.6828-0.47425-2.3177 0-0.59664 0.0842-1.5145 0.4972-2.3713 0.45895-0.93321 1.1168-1.4304 1.1933-1.4304 0.0458 0 0.0764 0.023 0.0764 0.0766z"/><path d="m179.87 743.04 8e-3 0.0154 0.016 0.046v0.0306l0.0154 0.0306 0.016 0.0612 8e-3 0.0382 0.0152 0.0306 0.0152 0.0382 0.0154 0.0382 0.0152 0.0382 0.0153 0.0382 0.0152 0.0382 0.069 0.1146 0.023 0.0306 0.023 0.0382 0.0306 0.0306 0.0306 0.0382 0.023 0.0306 0.0382 0.0306 0.0306 0.023 0.0764 0.046 0.0152 8e-3 0.023 0.0154 0.0154 8e-3 0.046 0.016h0.023l0.046 0.016h0.046l0.023 8e-3h0.023c0.0382 0 0.22183 0 0.38245-0.0994-0.21418-0.0382-0.36715-0.22949-0.36715-0.41306 0-0.12239 0.0842-0.26773 0.29067-0.26773 0.16827 0 0.41305 0.13769 0.41305 0.44366 0 0.39776-0.45131 0.50484-0.71138 0.50484-0.44365 0-0.71137-0.4054-0.80317-0.58133-0.18358 0.50485-0.59664 0.58133-0.81847 0.58133-0.79551 0-1.2315-0.98674-1.2315-1.1703 0-0.0765 0.0765-0.0765 0.0918-0.0765 0.0612 0 0.0842 0.0152 0.0994 0.0842 0.26008 0.80316 0.76492 0.9944 1.025 0.9944 0.14533 0 0.4054-0.0688 0.4054-0.5125 0-0.23713-0.12238-0.74198-0.4054-1.8052-0.12239-0.47424-0.39011-0.79551-0.72668-0.79551-0.046 0-0.22183 0-0.38246 0.0994 0.19123 0.0382 0.35952 0.19887 0.35952 0.41306 0 0.20653-0.16829 0.26771-0.28303 0.26771-0.22947 0-0.4207-0.19887-0.4207-0.44365 0-0.35186 0.38246-0.4972 0.71903-0.4972 0.50484 0 0.78021 0.5278 0.80316 0.57369 0.0918-0.28302 0.35952-0.57369 0.81846-0.57369 0.78787 0 1.2239 0.97911 1.2239 1.1703 0 0.0764-0.0688 0.0764-0.0918 0.0764-0.0688 0-0.0842-0.0382-0.0994-0.0842-0.25243-0.81845-0.77257-1.002-1.0174-1.002-0.29067 0-0.41305 0.24477-0.41305 0.50484 0 0.16829 0.0382 0.33657 0.12238 0.66549z"/><path d="m183.88 742.64v0.176l-8e-3 0.0612v0.13004l-0.0152 0.13003-8e-3 0.13769-0.0152 0.14534-0.023 0.15298-0.023 0.15299-0.0306 0.15298-0.0764 0.32126-0.0536 0.16064-0.0459 0.16063-0.0612 0.16063-0.0382 0.0842-0.0306 0.0842-0.0382 0.0766-0.0382 0.0842c-0.45894 0.9332-1.1168 1.4304-1.1933 1.4304-0.0459 0-0.0688-0.0306-0.0688-0.0764 0-0.023 0-0.0382 0.14533-0.17594 0.74198-0.75727 1.178-1.9658 1.178-3.5492 0-1.3004-0.28301-2.639-1.2239-3.5951-0.0994-0.0918-0.0994-0.10704-0.0994-0.13003 0-0.046 0.023-0.0765 0.0688-0.0765 0.0764 0 0.76492 0.52016 1.2162 1.484 0.39011 0.83376 0.4819 1.6752 0.4819 2.3177z"/></g><path d="m318.41 689.8v116.78" fill="none" marker-end="url(#e)" stroke="#000" stroke-width=".38027"/><path d="m311.68 697.71h146.13" fill="none" marker-end="url(#d)" stroke="#000" stroke-width=".38027"/><g transform="matrix(1.4313 0 0 -1.4316 116.69 881.86)" stroke-width=".61987"><g transform="matrix(1.2506 0 0 -1.2506 -72.209 1069)" fill-rule="evenodd" stroke="#000" stroke-miterlimit="10.433" stroke-width=".49566" ns0:preamble="default_packages.tex" ns0:text="$x$\n$y$\n" xml:space="preserve"><g fill="none" stroke="#000" stroke-miterlimit="10.433" stroke-opacity=".62745" stroke-width=".49566"><path d="m167.74 754.86c43.509 8.3417 32.983 40.701 78.1 42.856" fill="none" stroke="#003c88" stroke-miterlimit="10.433" stroke-opacity=".58454" stroke-width=".49566"/></g></g></g><path d="m378.06 740.1v-42.156" fill="#050000" fill-opacity=".033816" stroke="#000" stroke-dasharray="2.81726087, 0.46954348" stroke-miterlimit="10.433" stroke-opacity=".38647" stroke-width=".46954"/><path d="m456.48 692.92-0.78023 1.8613c-0.0282 0.0752-0.047 0.11281-0.047 0.12221 0 0.0564 0.15981 0.23501 0.54523 0.27261 0.094 9e-3 0.18801 0.0188 0.18801 0.17861 0 0.11281-0.11281 0.11281-0.14101 0.11281-0.37602 0-0.78024-0.0376-1.1751-0.0376-0.23501 0-0.81784 0.0376-1.0528 0.0376-0.0564 0-0.16921 0-0.16921-0.18801 0-0.10341 0.094-0.10341 0.21622-0.10341 0.56402 0 0.62043-0.094 0.70503-0.30081l1.0998-2.6039-1.9741-2.1245-0.12221-0.10341c-0.46063-0.48882-0.90245-0.63923-1.3725-0.66743-0.1222-9e-3 -0.20681-9e-3 -0.20681-0.18801 0-9e-3 0-0.1034 0.12221-0.1034 0.28201 0 0.58282 0.0282 0.87424 0.0282 0.34782 0 0.71444-0.0282 1.0528-0.0282 0.0564 0 0.16921 0 0.16921 0.18801 0 0.094-0.094 0.1034-0.1128 0.1034-0.0846 9e-3 -0.37602 0.0282-0.37602 0.29142 0 0.1504 0.14101 0.29141 0.25381 0.41362l0.95885 1.0152 0.84604 0.91184 0.94005-2.2279c0.0376-0.1034 0.047-0.1128 0.047-0.13161 0-0.0752-0.17861-0.23501-0.54523-0.27261-0.1034-9e-3 -0.18801-0.0188-0.18801-0.17861 0-0.1128 0.10341-0.1128 0.14101-0.1128 0.26321 0 0.92125 0.0282 1.1845 0.0282 0.23501 0 0.80844-0.0282 1.0434-0.0282 0.0658 0 0.17861 0 0.17861 0.17861 0 0.1128-0.094 0.1128-0.16921 0.1128-0.62983 9e-3 -0.64863 0.0376-0.80844 0.40422-0.36661 0.87425-0.99645 2.3313-1.2127 2.886 0.63924 0.65803 1.6263 1.7673 1.9271 2.0305 0.27261 0.22561 0.62983 0.45122 1.1845 0.47942 0.1222 9e-3 0.20681 9e-3 0.20681 0.18801 0 9e-3 0 0.10341-0.12221 0.10341-0.28201 0-0.59223-0.0376-0.87424-0.0376-0.34782 0-0.70504 0.0376-1.0435 0.0376-0.0564 0-0.1786 0-0.1786-0.18801 0-0.0658 0.047-0.094 0.1128-0.10341 0.0846-9e-3 0.37602-0.0282 0.37602-0.29141 0-0.13161-0.1034-0.25381-0.17861-0.33842z" fill-rule="evenodd" stroke-miterlimit="10.433" stroke-width="0"/><g fill-rule="evenodd" stroke-miterlimit="10.433"><circle transform="scale(1,-1)" cx="378.01" cy="-740.47" r=".89165" fill-opacity=".62745" opacity=".97" stroke="#050000" stroke-linecap="square" stroke-opacity=".090196" stroke-width="1.5854"/><g stroke-width="0"><path d="m388.34 743.82-7e-3 -0.0215v-0.0216l-7e-3 -0.0215-7e-3 -0.0143v-0.0215l-0.021-0.0429v-0.0143l-0.014-0.0286-7e-3 -7e-3 -7e-3 -0.0143-7e-3 -7e-3 -7e-3 -0.0143-7e-3 -7e-3 -0.0143-7e-3 -7e-3 -7e-3 -0.0143-7e-3h-0.0143l-7e-3 -7e-3 -0.0143-7e-3h-0.0215l-0.0143-7e-3h-0.0286l-7e-3 -7e-3h-0.1497c-0.0863 0-0.16524 0-0.16524-0.13651 0-0.0574 0.0359-0.0863 0.0934-0.0863 0.19399 0 0.40234 0.0215 0.60351 0.0215 0.23708 0 0.48136-0.0215 0.71127-0.0215 0.0359 0 0.12932 0 0.12932 0.1437 0 0.0791-0.0718 0.0791-0.17243 0.0791-0.35923 0-0.35923 0.0502-0.35923 0.10777 0 0.0863 0.30175 1.2501 0.35205 1.4297 0.0934-0.20834 0.29457-0.45262 0.66098-0.45262l-0.0143 0.15087c-0.467 0-0.56039 0.59632-0.56039 0.63942 0 0.0143 0 0.0288 0.0215 0.11495l0.35204 1.3938c0.0502 0.19399 0.24428 0.39517 0.36642 0.50293 0.25145 0.22271 0.45981 0.27302 0.58194 0.27302 0.28739 0 0.45981-0.25146 0.45981-0.67536 0-0.4167-0.23708-1.2358-0.36641-1.5088-0.24428-0.50292-0.58913-0.74001-0.85496-0.74001l0.0143-0.15087c0.82622 0 1.7243 1.0418 1.7243 2.0907 0 0.66816-0.40951 1.1423-0.95555 1.1423-0.35922 0-0.70407-0.25864-0.93398-0.53883-0.0718 0.38795-0.38079 0.53883-0.64662 0.53883-0.3305 0-0.467-0.28019-0.53165-0.40951-0.12932-0.24427-0.22273-0.66816-0.22273-0.68972 0-0.0718 0.0718-0.0718 0.0863-0.0718 0.0719 0 0.0791 7e-3 0.12214 0.15805 0.12213 0.51011 0.26583 0.85497 0.52448 0.85497 0.12213 0 0.22271-0.0574 0.22271-0.3305 0-0.16523-0.0216-0.24427-0.0502-0.36641z"/><path d="m395.32 749.57v0.021h-7e-3v0.014l-7e-3 7e-3v7e-3h-7e-3v7e-3h-7e-3v7e-3h-7e-3l-7e-3 7e-3h-0.021v7e-3h-0.028c-0.10777 0-0.79029-0.0646-0.91243-0.0791-0.0574-7e-3 -0.10063-0.0431-0.10063-0.13651 0-0.0863 0.0647-0.0863 0.17243-0.0863 0.34486 0 0.35923-0.0502 0.35923-0.12214l-0.0216-0.14368-0.43107-1.6884c-0.12932 0.26582-0.33049 0.45981-0.6538 0.45981-0.84059 0-1.7315-1.0561-1.7315-2.0979 0-0.66817 0.39514-1.1352 0.95555-1.1352l0.0143 0.15087c-0.35922 0-0.45982 0.39516-0.45982 0.67535 0 0.35205 0.22991 1.2358 0.39516 1.559 0.22272 0.4239 0.54603 0.68972 0.83341 0.68972 0.4598 0 0.56039-0.58914 0.56039-0.63225 0-0.0431-0.0143-0.0863-0.0216-0.12212l-0.35204-1.3938c-0.0359-0.12932-0.0359-0.14369-0.14369-0.26584-0.31612-0.39515-0.61069-0.5101-0.81186-0.5101l-0.0143-0.15087c0.14371 0 0.50292 0.0215 0.934 0.53166 0.0574-0.30176 0.30893-0.53166 0.64661-0.53166 0.25146 0 0.41671 0.15806 0.53165 0.38797 0.12214 0.25864 0.21554 0.6969 0.21554 0.71127 0 0.0718-0.0646 0.0718-0.0863 0.0718-0.0718 0-0.0791-0.0359-0.10062-0.12932-0.12214-0.467-0.25146-0.8909-0.54603-0.8909-0.19399 0-0.21554 0.1868-0.21554 0.3305 0 0.17243 0.0143 0.22271 0.0431 0.34486z"/><path d="m396.78 747.55h0.61068c0.14368 0 0.21554 0 0.21554 0.1437 0 0.0791-0.0718 0.0791-0.19398 0.0791h-0.59631l0.15805 0.81186c0.0215 0.15088 0.12214 0.6538 0.16524 0.74001 0.0647 0.13651 0.1868 0.24427 0.33768 0.24427 0.0288 0 0.21553 0 0.35205-0.12932-0.31612-0.0288-0.38797-0.28019-0.38797-0.38078 0-0.16523 0.12932-0.25145 0.26581-0.25145 0.18682 0 0.39517 0.15806 0.39517 0.42388 0 0.3305-0.3305 0.49574-0.62506 0.49574-0.24428 0-0.68972-0.12932-0.90525-0.8334-0.0431-0.15089-0.0647-0.22274-0.2371-1.1208h-0.49573c-0.13651 0-0.21553 0-0.21553-0.1365 0-0.0863 0.0646-0.0863 0.20115-0.0863h0.47419l-0.53883-2.8235c-0.12934-0.68971-0.25147-1.3363-0.62506-1.3363-0.0288 0-0.20836 0-0.34487 0.12933 0.33049 0.0215 0.39515 0.27301 0.39515 0.38078 0 0.16524-0.12933 0.25146-0.26584 0.25146-0.18679 0-0.39514-0.15806-0.39514-0.43108 0-0.31611 0.31613-0.48854 0.6107-0.48854 0.39514 0 0.68252 0.4167 0.81184 0.68972 0.22991 0.45262 0.39515 1.3148 0.40234 1.3651z"/><path d="m400.8 742.98v0.021h-7e-3v0.014h-7e-3v7e-3l-7e-3 7e-3v7e-3h-7e-3v7e-3h-7e-3v7e-3h-7e-3v7e-3h-7e-3v7e-3h-7e-3v7e-3h-7e-3v7e-3h-7e-3v7e-3l-0.049 0.049c-0.8909 0.89807-1.1208 2.2488-1.1208 3.3408 0 1.2429 0.27301 2.4859 1.1495 3.3768 0.0934 0.0863 0.0934 0.10063 0.0934 0.12214 0 0.0502-0.0288 0.0718-0.0718 0.0718-0.0718 0-0.71845-0.48854-1.1352-1.3938-0.36641-0.78313-0.45262-1.5806-0.45262-2.1769 0-0.56039 0.079-1.4225 0.47417-2.2272 0.4239-0.87652 1.0418-1.3435 1.1136-1.3435 0.0431 0 0.0718 0.0215 0.0718 0.0718z"/><path d="m403.6 746.85 7e-3 0.0143 7e-3 0.0215 7e-3 0.0216 7e-3 0.0287 0.014 0.0576 7e-3 0.0287 0.0143 0.0359 7e-3 0.0288 0.0572 0.1436 0.0215 0.0359 0.0143 0.0359 0.043 0.0718 0.0215 0.0288 0.0215 0.0359 0.0288 0.0288 0.0288 0.0359 0.0288 0.0287 0.0288 0.0288 0.0288 0.0216 0.0359 0.0215 0.0359 0.0216 0.0143 7e-3 0.0215 0.0143 0.0143 7e-3 0.0215 7e-3 0.0216 7e-3h0.0215l0.0215 7e-3 0.0216 7e-3h0.043l0.0216 7e-3h0.0215c0.0359 0 0.20834 0 0.35921-0.0934-0.20116-0.0359-0.34485-0.21553-0.34485-0.38797 0-0.11495 0.079-0.25146 0.27301-0.25146 0.15806 0 0.38797 0.12932 0.38797 0.41671 0 0.37359-0.42389 0.47419-0.66816 0.47419-0.41671 0-0.66817-0.38078-0.75438-0.54604-0.17243 0.47419-0.5604 0.54604-0.76875 0.54604-0.7472 0-1.1567-0.92682-1.1567-1.0992 0-0.0718 0.0718-0.0718 0.0863-0.0718 0.0574 0 0.0791 0.0143 0.0934 0.0791 0.24426 0.75437 0.71845 0.934 0.96273 0.934 0.1365 0 0.38797-0.0646 0.38797-0.48137 0-0.22274-0.12215-0.6969-0.38797-1.6956-0.11496-0.44545-0.36641-0.74719-0.68254-0.74719-0.0431 0-0.20835 0-0.35923 0.0934 0.17962 0.0359 0.33767 0.18681 0.33767 0.38797 0 0.19398-0.15805 0.25147-0.26583 0.25147-0.21554 0-0.39514-0.18682-0.39514-0.41672 0-0.33049 0.35923-0.467 0.67534-0.467 0.47419 0 0.73284 0.49575 0.75439 0.53885 0.0863-0.26583 0.34486-0.53885 0.77593-0.53885 0.73282 0 1.1424 0.91963 1.1424 1.0992 0 0.0718-0.0647 0.0718-0.0863 0.0718-0.0647 0-0.0791-0.0359-0.0934-0.0791-0.23709-0.76875-0.72563-0.94119-0.94836-0.94119-0.28019 0-0.39514 0.22991-0.39514 0.47418 0 0.15808 0.0431 0.31612 0.12213 0.62505z"/><path d="m407.37 746.48v0.165l-7e-3 0.0574v0.12212l-0.0143 0.12214-7e-3 0.12932-0.0143 0.13652-0.043 0.28738-0.0288 0.14369-0.0359 0.15088-0.0359 0.15087-0.0431 0.15088-0.0503 0.15087-0.0574 0.15087-0.0359 0.0791-0.0288 0.0791-0.0359 0.0718-0.0359 0.0791c-0.43108 0.8765-1.0418 1.3435-1.1136 1.3435-0.0431 0-0.0718-0.0287-0.0718-0.0718 0-0.0216 0-0.0359 0.13651-0.16525 0.69691-0.71127 1.1064-1.8464 1.1064-3.3336 0-1.2214-0.26582-2.4787-1.1495-3.3768-0.0934-0.0863-0.0934-0.10063-0.0934-0.12213 0-0.0431 0.0288-0.0718 0.0718-0.0718 0.0718 0 0.71126 0.48855 1.1352 1.3938 0.36643 0.78311 0.45264 1.5734 0.45264 2.1769z"/></g></g><path d="m453.93 781.32h-135.59" fill="#050000" fill-opacity=".033816" fill-rule="evenodd" stroke="#000" stroke-dasharray="2.81726089, 0.46954348" stroke-miterlimit="10.433" stroke-opacity=".38647" stroke-width=".46954"/><g transform="matrix(0 1.1232 -1.1232 0 1221.3 474.1)" fill-rule="evenodd" stroke-miterlimit="10.433" stroke-width="0"><path d="m289.6 809.73h-0.1072l-0.023-8e-3h-0.0314l-0.0152-8e-3h-0.016l-0.0152-8e-3h-8e-3l-8e-3 -8e-3 -0.0153-8e-3h-8e-3l-8e-3 -8e-3 -0.0152-8e-3h-8e-3l-8e-3 -8e-3 -0.0152-8e-3 -0.016-0.016-8e-3 -0.0154-0.0153-8e-3c-0.12239-0.11474-0.13768-0.24478-0.13768-0.29832 0-0.17593 0.13768-0.26007 0.28301-0.26007 0.22183 0 0.42836 0.17593 0.42836 0.4819 0 0.37481-0.35951 0.65782-0.90261 0.65782-1.025 0-2.0423-1.0938-2.0423-2.1647 0-0.68078 0.44366-1.2774 1.2392-1.2774 1.0862 0 1.7287 0.80317 1.7287 0.89497 0 0.0458-0.0459 0.0994-0.0918 0.0994-0.0382 0-0.0536-0.0154-0.0994-0.0765-0.60429-0.75727-1.4304-0.75727-1.5222-0.75727-0.4819 0-0.68843 0.37481-0.68843 0.83377 0 0.30596 0.15299 1.0479 0.41306 1.5145 0.23713 0.436 0.65018 0.76492 1.0709 0.76492 0.26007 0 0.55074-0.0994 0.65782-0.30597z"/><path d="m293.82 812.03v0.024h-8e-3v0.016l-8e-3 8e-3v8e-3h-8e-3v8e-3h-8e-3v8e-3h-0.016v8e-3h-0.024v8e-3h-0.032c-0.11474 0-0.84143-0.0688-0.97146-0.0842-0.0612-8e-3 -0.10704-0.0458-0.10704-0.14533 0-0.0918 0.0688-0.0918 0.18357-0.0918 0.36717 0 0.38247-0.0536 0.38247-0.13003l-0.023-0.15299-0.45896-1.7976c-0.13769 0.28301-0.35186 0.48954-0.69607 0.48954-0.89496 0-1.8435-1.1244-1.8435-2.2336 0-0.71138 0.42071-1.2086 1.0174-1.2086l0.0153 0.16064c-0.38246 0-0.48955 0.4207-0.48955 0.71903 0 0.37481 0.24478 1.3157 0.42071 1.6599 0.23712 0.4513 0.58134 0.73433 0.88731 0.73433 0.48955 0 0.59664-0.62725 0.59664-0.67314 0-0.0458-0.0152-0.0918-0.023-0.13003l-0.38247-1.484c-0.0306-0.13768-0.0306-0.15298-0.14533-0.28301-0.33657-0.42071-0.65018-0.5431-0.86436-0.5431l-0.0152-0.16064c0.15299 0 0.53544 0.023 0.9944 0.56605 0.0536-0.32127 0.32126-0.56605 0.68843-0.56605 0.26771 0 0.44365 0.16828 0.56604 0.41307 0.13004 0.27537 0.22947 0.74197 0.22947 0.75727 0 0.0764-0.0688 0.0764-0.0918 0.0764-0.0765 0-0.0842-0.0382-0.10704-0.13769-0.13004-0.49719-0.26773-0.9485-0.58134-0.9485-0.20653 0-0.22948 0.19888-0.22948 0.35186 0 0.18359 0.0152 0.23713 0.0459 0.36717z"/><path d="m295.37 809.88h0.65783c0.15298 0 0.22948 0 0.22948 0.15298 0 0.0842-0.0766 0.0842-0.20653 0.0842h-0.62724l0.15299 0.86435c0.0306 0.16063 0.13768 0.69609 0.18358 0.78787 0.0688 0.14534 0.19887 0.26008 0.35951 0.26008 0.0306 0 0.22948 0 0.37482-0.13769-0.33657-0.0306-0.41306-0.29832-0.41306-0.4054 0-0.17594 0.13769-0.26773 0.28302-0.26773 0.19888 0 0.42071 0.16829 0.42071 0.4513 0 0.35187-0.35187 0.5278-0.66549 0.5278-0.26007 0-0.73432-0.13769-0.9638-0.88731-0.046-0.16063-0.0688-0.23713-0.25242-1.1933h-0.5278c-0.14534 0-0.22947 0-0.22947-0.14534 0-0.0918 0.0688-0.0918 0.21417-0.0918h0.50485l-0.57369-3.0062c-0.13769-0.73433-0.26773-1.4228-0.66549-1.4228-0.0306 0-0.22183 0-0.36716 0.13769 0.35186 0.023 0.42071 0.29067 0.42071 0.40541 0 0.17593-0.13769 0.26772-0.28302 0.26772-0.19888 0-0.42071-0.16828-0.42071-0.45895 0-0.33657 0.33657-0.52015 0.65018-0.52015 0.42071 0 0.72669 0.44366 0.86437 0.73433 0.24477 0.4819 0.4207 1.3998 0.42836 1.4534z"/></g><g stroke-miterlimit="10.433"><g transform="matrix(.75336 0 0 .75336 200.66 246.37)" fill-opacity=".78431" fill-rule="evenodd" stroke-width="0" ns0:preamble="default_packages.tex" ns0:text="1\n" xml:space="preserve"><path d="m151.64 713.48v0.17l-0.01 0.01v0.02l-0.01 0.01v0.01l-0.01 0.01h-0.01v0.01h-0.01l-0.01 0.01h-0.03l-0.01 0.01h-0.13c-0.61-0.64-1.49-0.64-1.81-0.64v-0.3c0.2 0 0.79 0 1.31 0.25v-5.14c0-0.36-0.03-0.48-0.93-0.48h-0.32v-0.3c0.35 0.03 1.22 0.03 1.61 0.03 0.4 0 1.27 0 1.62-0.03v0.3h-0.32c-0.9 0-0.93 0.11-0.93 0.48z" fill-opacity=".78431" stroke-width="0"/></g><path d="m403.89 740.92h-24.916l20.517 24.717" fill="none" stroke="#000" stroke-opacity=".39216" stroke-width="1.1403"/><path d="m378.7 692.33v0.0328l0.0328 0.0985 0.0219 0.0876 0.0109 0.0547 0.0219 0.0438 0.0219 0.0547 0.0109 0.0547 0.0219 0.0438 0.0438 0.10943 0.0328 0.0547 0.0219 0.0547 0.0985 0.16414 0.0438 0.0438 0.0328 0.0547 0.17508 0.17508 0.10943 0.0657 0.0328 0.0109 0.0219 0.0109 0.0328 0.0109 0.0219 0.0109 0.0985 0.0328h0.0328l0.0328 0.0109h0.10942c0.0438 0 0.30649 0 0.53635-0.1423-0.29554-0.0547-0.5254-0.32839-0.5254-0.58014 0-0.17513 0.13135-0.3831 0.41594-0.3831 0.24082 0 0.59108 0.19702 0.59108 0.63485 0 0.55825-0.6458 0.71149-1.018 0.71149-0.62392 0-1.007-0.58013-1.1384-0.82093-0.27363 0.71148-0.86471 0.82093-1.1822 0.82093-1.1384 0-1.7514-1.401-1.7514-1.6747 0-0.10946 0.10946-0.10946 0.13135-0.10946 0.0766 0 0.10947 0.0219 0.1423 0.1204 0.36121 1.1494 1.0836 1.4229 1.4558 1.4229 0.20796 0 0.59107-0.0985 0.59107-0.72243 0-0.33932-0.18607-1.0727-0.59107-2.5942-0.17513-0.6677-0.55824-1.1274-1.0398-1.1274-0.0656 0-0.30648 0-0.54729 0.14229 0.27364 0.0547 0.51446 0.2846 0.51446 0.59108 0 0.28459-0.24082 0.37217-0.405 0.37217-0.31744 0-0.59108-0.28461-0.59108-0.62393 0-0.5035 0.54729-0.72242 1.018-0.72242 0.72244 0 1.1165 0.76622 1.1494 0.83189 0.13134-0.405 0.52539-0.83189 1.1822-0.83189 1.1274 0 1.7404 1.401 1.7404 1.6747 0 0.10946-0.0985 0.10946-0.13135 0.10946-0.0985 0-0.12041-0.0438-0.1423-0.1204-0.36121-1.1603-1.0946-1.4229-1.4448-1.4229-0.42688 0-0.60202 0.35026-0.60202 0.71149 0 0.2408 0.0657 0.48161 0.18608 0.96323z" fill-opacity=".78431" fill-rule="evenodd" stroke-width="0"/></g></g></g></g></g><g transform="matrix(1.1018 0 0 1 -10.62 0)" fill="none" stroke="#000"><path d="m70.228 720.06h36.375" marker-end="url(#a)" marker-start="url(#c)" stroke-opacity=".78431" stroke-width=".20156px"/><path d="m107.08 719.5v3.21" stroke-miterlimit="10.433" stroke-opacity=".23529" stroke-width=".12094"/></g></g></g></g>
 </g>
</svg>
