<svg width="180mm" height="130mm" version="1.1" viewBox="0 0 344.81 292.43" xmlns="http://www.w3.org/2000/svg" xmlns:ns0="http://www.iki.fi/pav/software/textext/">
 <g transform="translate(39.789 -23.737)">
  <g fill="none" stroke="#000" stroke-opacity=".47826" stroke-width=".8">
   <path d="m29.104 30.527c2.902 4.929 6.7456 12.183 7.7958 15.261 1.1458 2.8804-7e-3 7.7181-0.51972 8.1737-4.0544 2.1829-8.2599 6.4365-9.3549 7.3705-1.6825 1.5537-4.9391 5.1342-7.3233 7.9848-2.364 2.9044-4.3387 6.761-5.2444 9.8274-1.2082 4.0322-1.8228 9.0184-2.3624 11.481-0.37396 1.707-0.98761 13.93-0.94494 14.741 0.18899 3.5908 0.58154 8.7389 0.94494 10.961 0.17181 1.9286 1.9347 6.8155 2.7403 10.111"/>
   <path d="m39.614 53.7c-2.6932 1.8986-4.6244 4.0115-6.1589 6.2359l0.49272-0.12991"/>
   <path d="m42.337 53.336c-1.6563 3.9848-2.468 7.8641-3.449 11.764" opacity=".97"/>
   <path d="m53.383 74.005c-0.19003-7.3241-2.124-14.732-6.8981-21.167"/>
   <path d="m61.437 68.046c-1.6186-4.62-3.6504-11.109-13.04-15.403"/>
   <path d="m53.106 52.071-14.836 1.6064"/>
   <path d="m48.381 42.339c-0.7567 2.2364-1.5235 4.4727-1.8899 6.7091"/>
   <path d="m37.939 42.339c2.3013 3.2084 2.634 4.4306 2.9722 7.215"/>
   <path d="m58.74 34.661c-2.6375 3.4029-5.128 7.9176-7.2406 11.93"/>
   <path d="m41.483 34.685c1.6903 3.2431 1.5309 6.5949 1.7954 9.9219"/>
   <path d="m29.104 30.527c-0.18609-0.27993-0.19687-0.6828-0.062-1.1519 0.48655-1.6925 2.869-4.2466 5.7536-4.996 1.0127-0.16069 5.611-0.54581 6.4805-0.50637 2.6601 0.12066 3.8399 0.48812 5.6873 2.1185 1.5243 1.087 2.5112 0.41908 4.8192 0.37798 2.0899-0.1722 3.3724-0.62089 5.7641-0.18899 1.6817 0.2738 4.4241 1.1275 4.4412 2.0789-0.0631 0.93421-0.8912 1.7623-2.0789 1.7954 0.58503 0.26217 1.0181 0.37242 1.8899 0.92131 0.32482 0.3642 0.64391 0.46257 0.56697 1.5355-3.1042 4.5499-9.5615 14.144-9.3549 16.064 0.80515 1.3374 0.98743 2.5363 0.0945 3.4963"/>
   <path d="m40.184 25.826c-3.2926-0.28425-6.3029 1.604-7.276 2.3624-0.90638 0.71181-1.3888 2.3105 0.63782 2.1261 2.5469-0.2376 11.33-2.6246 11.127-0.85044-0.28228 1.8731-2.9018 2.2373-3.201 4.9964-0.24212 1.7828 7.2939 1.658 8.9415 0.74414 1.5675-0.96448 5.5506-0.34552 7.3705-0.28348 1.3138 0.0529 1.6282-1.3638 1.6536-1.9371-0.11375-0.92734-1.8227-0.81605-1.8899-1.6064-0.14682-1.1047 1.2385-1.5548 2.3624-1.3229"/>
   <path d="m12.095 116.33c0.05365 2.7446-0.59404 5.8811-1.5119 7.843-1.4783 3.235-5.7168 9.014-5.2917 9.2604 0.51415 1.6536 2.4475 1.6989 4.2522 1.8899 1.1322 0.01 7.1682-1.4388 11.251-1.9004 9.2923 1.838 10.294 2.3413 15.491 3.6957 4.8667 1.3887 10.01 1.462 15.119 1.7009 5.7333-0.0779 9.1957-1.3349 15.284-2.386 5.1651-0.67646 10.101-2.0832 14.954-4.1341 1.9393-0.86386 3.4759-1.6826 5.0082-3.4018-2.4502-3.9163-6.224-6.6679-7.2524-11.835"/>
   <path d="m29.884 125.26c1.4449 3.8041 6.6323 6.0248 11.954 7.6304 6.5861 2.003 19.83 1.8862 29.766 2.5513"/>
   <path d="m70.091 129.7c3.281 1.5379 8.7018 2.5547 14.403 0.89839"/>
   <path d="m81.454 113.97-5.4806 7.3705"/>
   <path d="m80.698 108.39-6.7091 11.056"/>
   <path d="m79.281 110.94c1.265 0.97073 2.1317 1.9689 2.1734 3.0238"/>
   <path d="m53.106 52.071 8.599 6.6146c4.7102 2.7054 7.5272 6.8672 10.678 10.772 3.8246 4.103 5.71 9.542 6.7091 15.592 0.53547 7.78 2.971 15.784 1.6064 23.34"/>
   <path d="m47.058 34.59c0.1221-0.34452 0.30398-2.1588 0.27768-4.0681-0.0305-2.2184-0.37218-4.5309-0.37218-4.5309"/>
   <path d="m44.696 29.357c-0.0401 0.16483-0.16046 1.285 0.1198 3.4887 0.1092 0.85859 0.94397 2.4722 0.93144 2.4408"/>
   <path d="m37.372 49.993c2.2206-0.0945 15.639-1.4174 15.639-1.4174"/>
   <path d="m40.042 25.692c-0.0119 1.1638 0.14909 2.0655 0.63784 2.8584"/>
   <path d="m36.924 52.686c0.16968-0.0121 4.5983-0.51045 8.7562-1.315 3.9709-0.76835 7.8776-1.658 7.5913-2.0632"/>
  </g>
  <g fill="#f00" fill-opacity=".44928">
   <circle cx="33.204" cy="82.99" r="4.6487" opacity=".97"/>
   <circle cx="65.862" cy="80.136" r="4.6487" opacity=".97"/>
   <circle cx="49.326" cy="91.286" r="4.6487" opacity=".97"/>
  </g>
  <g fill="#0065ff" fill-opacity=".45098">
   <circle cx="33.451" cy="104.23" r="4.6487" opacity=".97"/>
   <circle cx="43.373" cy="122.75" r="4.6487" opacity=".97"/>
   <circle cx="19.371" cy="95.539" r="4.6487" opacity=".97"/>
  </g>
  <circle cx="66.067" cy="106.61" r="4.6487" fill="#008300" fill-opacity=".44928" opacity=".97"/>
  <g fill="none" stroke="#000" stroke-opacity=".47843" stroke-width=".8">
   <path d="m24.844 193c2.902 4.929 6.7456 12.183 7.7958 15.261 1.1458 2.8804-7e-3 7.7181-0.51972 8.1737-4.0544 2.1829-8.2599 6.4365-9.3549 7.3705-1.6825 1.5537-4.9391 5.1342-7.3233 7.9848-2.364 2.9044-4.3387 6.761-5.2444 9.8274-1.2082 4.0322-1.8228 9.0184-2.3623 11.481-0.37396 1.707-0.98761 13.93-0.94494 14.741 0.18899 3.5908 0.58154 8.7389 0.94494 10.961 0.17181 1.9286 1.9347 6.8155 2.7403 10.111"/>
   <path d="m35.354 216.17c-2.6932 1.8986-4.6244 4.0115-6.1589 6.2359l0.49272-0.12991"/>
   <path d="m38.077 215.81c-1.6563 3.9848-2.468 7.8641-3.449 11.764" opacity=".97"/>
   <path d="m49.123 236.48c-0.19003-7.3241-2.124-14.732-6.8981-21.167"/>
   <path d="m57.177 230.52c-1.6186-4.62-3.6504-11.109-13.04-15.403"/>
   <path d="m48.845 214.55-14.836 1.6064"/>
   <path d="m44.121 204.81c-0.7567 2.2364-1.5235 4.4727-1.8899 6.7091"/>
   <path d="m33.679 204.81c2.3013 3.2084 2.634 4.4306 2.9722 7.215"/>
   <path d="m54.48 197.14c-2.6375 3.4029-5.128 7.9176-7.2406 11.93"/>
   <path d="m37.223 197.16c1.6903 3.2431 1.5309 6.5949 1.7954 9.9219"/>
   <path d="m24.844 193c-0.18609-0.27993-0.19687-0.6828-0.062-1.1519 0.48655-1.6924 2.869-4.2466 5.7536-4.996 1.0127-0.16069 5.611-0.54581 6.4805-0.50637 2.6601 0.12066 3.8399 0.48811 5.6873 2.1185 1.5243 1.087 2.5112 0.41908 4.8192 0.37798 2.0899-0.1722 3.3724-0.6209 5.7641-0.18899 1.6817 0.2738 4.4241 1.1276 4.4412 2.0789-0.0631 0.93421-0.8912 1.7623-2.0789 1.7954 0.58503 0.26217 1.0181 0.37242 1.8899 0.92131 0.32482 0.3642 0.64391 0.46257 0.56697 1.5355-3.1042 4.5499-9.5615 14.144-9.3549 16.064 0.80515 1.3374 0.98743 2.5363 0.0945 3.4963"/>
   <path d="m35.923 188.3c-3.2926-0.28425-6.3029 1.604-7.276 2.3624-0.90638 0.71181-1.3888 2.3105 0.63782 2.1261 2.5469-0.2376 11.33-2.6246 11.127-0.85044-0.28228 1.873-2.9018 2.2373-3.201 4.9964-0.24212 1.7828 7.2939 1.658 8.9415 0.74414 1.5675-0.96448 5.5506-0.34552 7.3705-0.28348 1.3138 0.0529 1.6282-1.3638 1.6536-1.9371-0.11375-0.92734-1.8227-0.81605-1.8899-1.6064-0.14682-1.1047 1.2385-1.5548 2.3624-1.3229"/>
   <path d="m7.8351 278.8c0.0536 2.7446-0.59404 5.8811-1.5119 7.843-1.4783 3.235-5.7168 9.014-5.2917 9.2604 0.51415 1.6536 2.4475 1.6989 4.2522 1.8899 1.1322 0.01 7.1682-1.4388 11.251-1.9004 9.2923 1.838 10.294 2.3413 15.491 3.6957 4.8667 1.3887 10.01 1.462 15.119 1.7009 5.7333-0.0779 9.1957-1.3349 15.284-2.386 5.1651-0.67646 10.101-2.0832 14.954-4.1341 1.9393-0.86386 3.4759-1.6826 5.0082-3.4018-2.4502-3.9163-6.224-6.6679-7.2524-11.835"/>
   <path d="m25.624 287.73c1.4449 3.8041 6.6323 6.0248 11.954 7.6304 6.5861 2.003 19.83 1.8862 29.766 2.5513"/>
   <path d="m65.831 292.17c3.281 1.5379 8.7018 2.5547 14.403 0.89839"/>
   <path d="m77.194 276.44-5.4806 7.3705"/>
   <path d="m76.438 270.86-6.7091 11.056"/>
   <path d="m75.02 273.42c1.265 0.97073 2.1317 1.9689 2.1734 3.0238"/>
   <path d="m48.845 214.55 8.599 6.6146c4.7102 2.7054 7.5272 6.8672 10.678 10.772 3.8246 4.103 5.71 9.542 6.7091 15.592 0.53547 7.78 2.971 15.784 1.6064 23.34"/>
   <path d="m42.798 197.06c0.1221-0.34452 0.30398-2.1588 0.27768-4.0681-0.0305-2.2184-0.37218-4.5309-0.37218-4.5309"/>
   <path d="m40.436 191.83c-0.0401 0.16483-0.16046 1.285 0.1198 3.4887 0.1092 0.85859 0.94397 2.4722 0.93144 2.4408"/>
   <path d="m33.112 212.47c2.2206-0.0945 15.639-1.4174 15.639-1.4174"/>
   <path d="m35.781 188.17c-0.0119 1.1638 0.14909 2.0655 0.63784 2.8584"/>
   <path d="m32.663 215.16c0.16968-0.0121 4.5983-0.51045 8.7562-1.315 3.9709-0.76835 7.8776-1.658 7.5913-2.0632"/>
  </g>
  <g fill-opacity=".44928">
   <circle cx="19.872" cy="278.73" r="4.6487" fill="#f00" opacity=".97"/>
   <circle cx="56.783" cy="242.14" r="4.6487" fill="#0065ff" fill-opacity=".44928" opacity=".97"/>
   <circle cx="33.208" cy="239.61" r="4.6487" fill="#0065ff" fill-opacity=".44928" opacity=".97"/>
   <g fill="#008300">
    <circle cx="61.807" cy="269.08" r="4.6487" opacity=".97"/>
    <circle cx="29.239" cy="264.98" r="4.6487" opacity=".97"/>
    <circle cx="47.76" cy="256.67" r="4.6487" opacity=".97"/>
   </g>
   <circle cx="57.514" cy="284.61" r="4.6487" fill="#f80aff" opacity=".97"/>
  </g>
  <g id="content" transform="matrix(1.5 0 0 -1.5 -328.07 1011.3)" fill-rule="evenodd" stroke="#000" stroke-miterlimit="10.433" ns0:preamble="default_packages.tex" ns0:text='$$\\text{Physics}$$\n$$\\text{Literature}$$\n$$\\text{Physics or Literature?}$$\n$$\\text{document}$$\n$$\\text{"object"}$$\n$$\\text{"poem"}$$\n$$\\text{"force"}$$\n$$\\text{"love"}$$\n' xml:space="preserve"><g stroke-width="0"><path d="m238.85 575.43-0.03 0.26v2.68c0 0.33 0.02 0.4 0.49 0.4h0.89c1.58 0 1.58-1.06 1.58-1.54 0-0.47 0-1.54-1.58-1.54h-1.38l0.03-0.26h1.69c1.19 0 2.27 0.8 2.27 1.8 0 0.97-0.99 1.85-2.35 1.85h-3.52v-0.31h0.24c0.76 0 0.78-0.11 0.78-0.47v-5.23c0-0.36-0.02-0.47-0.78-0.47h-0.24v-0.31c0.35 0.03 1.08 0.03 1.46 0.03s1.13 0 1.48-0.03v0.31h-0.24c-0.77 0-0.79 0.11-0.79 0.47z"/><path d="m244.47 573.04-0.01-0.02v-0.15l-0.02-0.06v-0.02l-0.01-0.03-0.02-0.04-0.03-0.03-0.02-0.01-0.03-0.03-0.02-0.01h-0.03l-0.02-0.01-0.03-0.01h-0.03l-0.04-0.01h-0.07l-0.02-0.01h-0.38v-0.31c0.35 0.01 0.85 0.03 1.12 0.03 0.26 0 0.78-0.02 1.12-0.03v0.31c-0.67 0-0.78 0-0.78 0.44v1.83c0 1.04 0.71 1.59 1.35 1.59 0.63 0 0.74-0.53 0.74-1.1v-2.32c0-0.44-0.11-0.44-0.78-0.44v-0.31c0.35 0.01 0.86 0.03 1.13 0.03 0.26 0 0.78-0.02 1.11-0.03v0.31c-0.51 0-0.76 0-0.77 0.3v1.89c0 0.86 0 1.17-0.31 1.52-0.14 0.17-0.47 0.37-1.05 0.37-0.84 0-1.28-0.59-1.45-0.97v3.47l-1.43-0.1v-0.31c0.7 0 0.78-0.07 0.78-0.56z"/><path d="m252.76 575.63 0.02 0.03 0.01 0.02 0.02 0.06 0.02 0.02 0.01 0.03 0.02 0.02 0.01 0.03 0.09 0.12 0.03 0.03 0.04 0.03 0.06 0.06 0.04 0.02 0.03 0.03 0.04 0.02 0.03 0.01 0.03 0.02 0.04 0.01 0.03 0.02 0.03 0.01 0.04 0.01 0.03 0.01h0.03l0.03 0.01h0.02l0.03 0.01h0.15v0.31c-0.23-0.02-0.52-0.03-0.75-0.03-0.18 0-0.65 0.02-0.87 0.03v-0.31c0.31-0.01 0.47-0.17 0.47-0.42 0-0.1-0.01-0.12-0.06-0.24l-1-2.45-1.11 2.68c-0.04 0.1-0.06 0.14-0.06 0.18 0 0.25 0.37 0.25 0.56 0.25v0.31c-0.26-0.01-0.92-0.03-1.09-0.03-0.27 0-0.67 0.01-0.97 0.03v-0.31c0.48 0 0.67 0 0.81-0.34l1.5-3.63c-0.05-0.13-0.19-0.46-0.25-0.59-0.22-0.54-0.5-1.23-1.14-1.23-0.05 0-0.28 0-0.47 0.18 0.31 0.04 0.39 0.26 0.39 0.42 0 0.26-0.19 0.41-0.42 0.41-0.2 0-0.42-0.12-0.42-0.42 0-0.45 0.42-0.81 0.92-0.81 0.63 0 1.04 0.57 1.28 1.14z"/><path d="m255.96 574.22 0.02-0.01h0.02l0.03-0.01h0.03l0.04-0.01 0.03-0.01 0.12-0.03 0.04-0.02 0.05-0.01 0.04-0.02 0.05-0.02 0.08-0.04 0.05-0.03 0.04-0.02 0.12-0.09 0.08-0.08 0.09-0.12 0.01-0.03 0.02-0.02 0.01-0.03 0.01-0.02 0.01-0.03 0.01-0.02 0.01-0.03v-0.03l0.01-0.03v-0.03l0.01-0.03v-0.1c0-0.5-0.34-0.9-1.12-0.9-0.84 0-1.2 0.56-1.39 1.41-0.03 0.13-0.04 0.17-0.14 0.17-0.13 0-0.13-0.07-0.13-0.25v-1.31c0-0.17 0-0.24 0.11-0.24 0.05 0 0.06 0.01 0.25 0.2 0.02 0.02 0.02 0.04 0.2 0.23 0.44-0.42 0.89-0.43 1.1-0.43 1.14 0 1.6 0.67 1.6 1.38 0 0.53-0.3 0.83-0.42 0.95-0.33 0.31-0.71 0.39-1.13 0.47-0.56 0.11-1.23 0.24-1.23 0.82 0 0.34 0.26 0.75 1.12 0.75 1.1 0 1.14-0.89 1.16-1.2 0.01-0.09 0.1-0.09 0.12-0.09 0.13 0 0.13 0.05 0.13 0.24v1c0 0.17 0 0.24-0.11 0.24-0.05 0-0.07 0-0.2-0.12-0.03-0.04-0.13-0.13-0.16-0.16-0.38 0.28-0.79 0.28-0.94 0.28-1.22 0-1.6-0.66-1.6-1.22 0-0.35 0.16-0.63 0.43-0.85 0.32-0.25 0.6-0.31 1.32-0.45z"/><path d="m259.58 576.68-1.4-0.11v-0.31c0.65 0 0.74-0.06 0.74-0.54v-2.68c0-0.44-0.11-0.44-0.78-0.44v-0.31c0.32 0.01 0.86 0.03 1.1 0.03 0.35 0 0.7-0.02 1.04-0.03v0.31c-0.66 0-0.7 0.05-0.7 0.43z"/><path d="m259.62 578.41v0.03l-0.01 0.03v0.05l-0.02 0.06-0.01 0.02-0.01 0.03-0.03 0.06-0.02 0.03-0.01 0.02-0.07 0.07-0.02 0.01-0.02 0.02-0.02 0.01-0.02 0.02-0.02 0.01-0.03 0.01-0.04 0.02h-0.03l-0.02 0.01-0.03 0.01h-0.05l-0.02 0.01h-0.03c-0.31 0-0.53-0.27-0.53-0.53 0-0.27 0.22-0.53 0.53-0.53 0.28 0 0.53 0.21 0.53 0.53z"/><path d="m261.75 574.46v0.22l0.01 0.07v0.06l0.01 0.07v0.07l0.04 0.24 0.02 0.06 0.02 0.1 0.03 0.11 0.04 0.09 0.03 0.1 0.08 0.16 0.05 0.08 0.04 0.07 0.15 0.18 0.06 0.05 0.1 0.08 0.12 0.08 0.05 0.03 0.12 0.04 0.05 0.02 0.06 0.02 0.05 0.01 0.06 0.01 0.05 0.01h0.1c0.09 0 0.72-0.01 1.07-0.37-0.41-0.03-0.47-0.32-0.47-0.45 0-0.26 0.18-0.46 0.46-0.46 0.26 0 0.46 0.17 0.46 0.47 0 0.67-0.76 1.06-1.53 1.06-1.24 0-2.16-1.07-2.16-2.3 0-1.28 0.99-2.26 2.14-2.26 1.34 0 1.66 1.19 1.66 1.29s-0.1 0.1-0.13 0.1c-0.09 0-0.11-0.04-0.13-0.1-0.29-0.92-0.94-1.04-1.31-1.04-0.53 0-1.4 0.43-1.4 2.03z"/><path d="m267.08 574.22 0.02-0.01h0.03l0.03-0.01h0.03l0.03-0.01 0.16-0.04 0.04-0.02 0.04-0.01 0.05-0.02 0.08-0.04 0.05-0.02 0.04-0.03 0.05-0.02 0.12-0.09 0.04-0.04 0.03-0.04 0.04-0.04 0.06-0.08 0.01-0.03 0.01-0.02 0.01-0.03 0.01-0.02 0.01-0.03 0.01-0.02 0.02-0.06v-0.03l0.01-0.03v-0.03l0.01-0.03v-0.07c0-0.5-0.35-0.9-1.13-0.9-0.84 0-1.2 0.56-1.38 1.41-0.03 0.13-0.04 0.17-0.14 0.17-0.13 0-0.13-0.07-0.13-0.25v-1.31c0-0.17 0-0.24 0.11-0.24 0.05 0 0.06 0.01 0.24 0.2 0.03 0.02 0.03 0.04 0.21 0.23 0.43-0.42 0.88-0.43 1.09-0.43 1.15 0 1.61 0.67 1.61 1.38 0 0.53-0.3 0.83-0.42 0.95-0.33 0.31-0.72 0.39-1.14 0.47-0.56 0.11-1.23 0.24-1.23 0.82 0 0.34 0.26 0.75 1.12 0.75 1.1 0 1.15-0.89 1.17-1.2 0.01-0.09 0.1-0.09 0.12-0.09 0.13 0 0.13 0.05 0.13 0.24v1c0 0.17 0 0.24-0.11 0.24-0.05 0-0.07 0-0.2-0.12-0.03-0.04-0.13-0.13-0.17-0.16-0.38 0.28-0.79 0.28-0.94 0.28-1.21 0-1.59-0.66-1.59-1.22 0-0.35 0.16-0.63 0.43-0.85 0.31-0.25 0.59-0.31 1.31-0.45z"/><path d="m232.62 466.09h-0.25c-0.11-1.01-0.25-2.26-2.01-2.26h-0.81c-0.47 0-0.49 0.07-0.49 0.4v5.3c0 0.34 0 0.47 0.95 0.47h0.32v0.31c-0.35-0.03-1.26-0.03-1.67-0.03-0.39 0-1.17 0-1.52 0.03v-0.31h0.24c0.77 0 0.79-0.11 0.79-0.46v-5.24c0-0.36-0.02-0.47-0.79-0.47h-0.24v-0.3h5.2z"/><path d="m234.81 467.92-1.4-0.11v-0.31c0.65 0 0.74-0.06 0.74-0.55v-2.67c0-0.45-0.11-0.45-0.78-0.45v-0.3c0.32 0.01 0.86 0.03 1.1 0.03 0.35 0 0.7-0.02 1.04-0.03v0.3c-0.66 0-0.7 0.05-0.7 0.44z"/><path d="m234.85 469.65v0.03l-0.01 0.02v0.06l-0.01 0.03-0.01 0.02-0.01 0.03-0.01 0.02-0.01 0.03-0.02 0.04-0.02 0.02-0.01 0.02-0.04 0.04-0.01 0.02-0.02 0.02-0.02 0.01-0.02 0.02-0.04 0.02-0.03 0.01-0.02 0.02-0.02 0.01h-0.03l-0.04 0.02h-0.03l-0.02 0.01h-0.08c-0.31 0-0.53-0.27-0.53-0.52 0-0.27 0.22-0.53 0.53-0.53 0.28 0 0.53 0.21 0.53 0.53z"/><path d="m237.53 467.5h1.43v0.31h-1.43v1.83h-0.24c-0.01-0.82-0.31-1.88-1.29-1.92v-0.22h0.85v-2.74c0-1.22 0.92-1.34 1.28-1.34 0.71 0 0.99 0.7 0.99 1.34v0.56h-0.25v-0.54c0-0.74-0.3-1.11-0.67-1.11-0.67 0-0.67 0.9-0.67 1.07z"/><path d="m240.79 465.82 0.01 0.21c0.06 1.48 0.9 1.73 1.24 1.73 1.02 0 1.12-1.34 1.12-1.73h-2.36l-0.01-0.21h2.78c0.22 0 0.25 0 0.25 0.21 0 0.98-0.54 1.95-1.78 1.95-1.16 0-2.08-1.03-2.08-2.27 0-1.33 1.05-2.29 2.2-2.29 1.21 0 1.66 1.1 1.66 1.29 0 0.1-0.08 0.12-0.13 0.12-0.09 0-0.11-0.06-0.13-0.14-0.35-1.02-1.24-1.02-1.34-1.02-0.5 0-0.9 0.29-1.13 0.66-0.3 0.48-0.3 1.13-0.3 1.49z"/><path d="m245.78 466.82v1.1l-1.39-0.11v-0.31c0.7 0 0.78-0.07 0.78-0.56v-2.66c0-0.45-0.11-0.45-0.78-0.45v-0.3c0.39 0.01 0.86 0.03 1.14 0.03 0.4 0 0.86 0 1.26-0.03v0.3h-0.21c-0.73 0-0.75 0.11-0.75 0.47v1.53c0 0.99 0.42 1.87 1.17 1.87 0.07 0 0.09 0 0.11-0.01-0.03-0.01-0.23-0.13-0.23-0.39 0-0.28 0.21-0.42 0.43-0.42 0.18 0 0.43 0.11 0.43 0.43s-0.31 0.61-0.74 0.61c-0.72 0-1.08-0.67-1.22-1.1z"/><path d="m251.33 464.28 0.01-0.04v-0.03l0.02-0.08 0.01-0.03 0.02-0.08 0.02-0.03 0.01-0.04 0.02-0.03 0.02-0.04 0.01-0.03 0.02-0.03 0.03-0.03 0.04-0.06 0.03-0.03 0.02-0.03 0.03-0.03 0.12-0.08 0.04-0.02 0.03-0.02 0.2-0.05h0.08c0.21 0 0.82 0.14 0.82 0.94v0.56h-0.25v-0.56c0-0.58-0.25-0.64-0.36-0.64-0.33 0-0.37 0.45-0.37 0.5v1.99c0 0.42 0 0.8-0.36 1.17-0.39 0.39-0.88 0.55-1.36 0.55-0.82 0-1.51-0.47-1.51-1.12 0-0.3 0.2-0.47 0.46-0.47 0.28 0 0.46 0.2 0.46 0.45 0 0.12-0.05 0.45-0.51 0.46 0.27 0.35 0.76 0.46 1.08 0.46 0.49 0 1.05-0.39 1.05-1.27v-1.57c0-0.95-0.71-1.28-1.16-1.28-0.49 0-0.9 0.34-0.9 0.84 0 0.55 0.42 1.37 2.06 1.43v0.21c-0.5-0.03-1.2-0.06-1.83-0.36-0.75-0.34-1-0.85-1-1.29 0-0.8 0.97-1.05 1.6-1.05 0.66 0 1.11 0.4 1.3 0.86z"/><path d="m254.72 467.5h1.43v0.31h-1.43v1.83h-0.25c-0.01-0.82-0.31-1.88-1.29-1.92v-0.22h0.85v-2.74c0-1.22 0.93-1.34 1.29-1.34 0.71 0 0.98 0.7 0.98 1.34v0.56h-0.24v-0.54c0-0.74-0.3-1.11-0.67-1.11-0.67 0-0.67 0.9-0.67 1.07z"/><path d="m260.77 464.31v-0.89l1.43 0.11v0.3c-0.69 0-0.77 0.07-0.77 0.56v3.53l-1.47-0.11v-0.31c0.7 0 0.78-0.07 0.78-0.56v-1.76c0-0.87-0.48-1.54-1.21-1.54-0.84 0-0.88 0.46-0.88 0.98v3.3l-1.46-0.11v-0.31c0.78 0 0.78-0.03 0.78-0.91v-1.49c0-0.78 0-1.68 1.51-1.68 0.56 0 1 0.28 1.29 0.89z"/><path d="m264.07 466.82v1.1l-1.39-0.11v-0.31c0.7 0 0.78-0.07 0.78-0.56v-2.66c0-0.45-0.11-0.45-0.78-0.45v-0.3c0.39 0.01 0.86 0.03 1.14 0.03 0.4 0 0.87 0 1.27-0.03v0.3h-0.21c-0.74 0-0.76 0.11-0.76 0.47v1.53c0 0.99 0.42 1.87 1.18 1.87 0.07 0 0.09 0 0.11-0.01-0.03-0.01-0.23-0.13-0.23-0.39 0-0.28 0.21-0.42 0.42-0.42 0.19 0 0.43 0.11 0.43 0.43s-0.3 0.61-0.73 0.61c-0.73 0-1.09-0.67-1.23-1.1z"/><path d="m267.41 465.82 0.01 0.21c0.06 1.48 0.9 1.73 1.24 1.73 1.03 0 1.13-1.34 1.13-1.73h-2.37l-0.01-0.21h2.79c0.22 0 0.25 0 0.25 0.21 0 0.98-0.54 1.95-1.79 1.95-1.16 0-2.07-1.03-2.07-2.27 0-1.33 1.04-2.29 2.19-2.29 1.22 0 1.67 1.1 1.67 1.29 0 0.1-0.09 0.12-0.13 0.12-0.09 0-0.11-0.06-0.13-0.14-0.35-1.02-1.25-1.02-1.35-1.02-0.5 0-0.9 0.29-1.13 0.66-0.3 0.48-0.3 1.13-0.3 1.49z"/><path d="m328.39 521.42-0.03 0.26v2.68c0 0.33 0.02 0.4 0.49 0.4h0.88c1.59 0 1.59-1.05 1.59-1.54 0-0.47 0-1.54-1.59-1.54h-1.37l0.03-0.26h1.68c1.2 0 2.28 0.81 2.28 1.8 0 0.98-0.99 1.85-2.36 1.85h-3.52v-0.31h0.24c0.77 0 0.79-0.11 0.79-0.47v-5.23c0-0.36-0.02-0.47-0.79-0.47h-0.24v-0.31c0.35 0.03 1.09 0.03 1.47 0.03s1.13 0 1.48-0.03v0.31h-0.25c-0.76 0-0.78 0.11-0.78 0.47z"/><path d="m334 519.04v-0.15l-0.01-0.03v-0.03l-0.01-0.02-0.01-0.03v-0.02l-0.01-0.02-0.02-0.02-0.01-0.02-0.03-0.03-0.08-0.04-0.03-0.01h-0.03l-0.03-0.01h-0.03l-0.04-0.01h-0.09l-0.03-0.01h-0.32v-0.31c0.35 0.01 0.86 0.03 1.13 0.03 0.26 0 0.78-0.02 1.12-0.03v0.31c-0.67 0-0.78 0-0.78 0.45v1.83c0 1.03 0.71 1.59 1.35 1.59 0.62 0 0.73-0.54 0.73-1.11v-2.31c0-0.45-0.11-0.45-0.77-0.45v-0.31c0.35 0.01 0.85 0.03 1.12 0.03 0.26 0 0.78-0.02 1.12-0.03v0.31c-0.52 0-0.77 0-0.78 0.3v1.9c0 0.85 0 1.16-0.31 1.52-0.14 0.17-0.47 0.37-1.04 0.37-0.84 0-1.28-0.6-1.45-0.98v3.48l-1.44-0.11v-0.31c0.7 0 0.78-0.07 0.78-0.56z"/><path d="m342.3 521.62 0.02 0.06 0.02 0.03 0.01 0.02 0.01 0.03 0.02 0.02 0.01 0.03 0.02 0.02 0.12 0.16 0.03 0.03 0.04 0.03 0.03 0.02 0.03 0.03 0.04 0.02 0.03 0.02 0.04 0.02 0.03 0.01 0.03 0.02 0.04 0.01 0.12 0.04h0.03l0.03 0.01h0.08l0.02 0.01h0.08v0.31c-0.23-0.02-0.52-0.03-0.75-0.03-0.18 0-0.65 0.02-0.87 0.03v-0.31c0.31-0.01 0.47-0.18 0.47-0.43 0-0.1-0.01-0.12-0.06-0.24l-1.01-2.44-1.1 2.67c-0.04 0.1-0.06 0.14-0.06 0.18 0 0.26 0.36 0.26 0.55 0.26v0.31c-0.26-0.01-0.91-0.03-1.08-0.03-0.27 0-0.67 0.01-0.97 0.03v-0.31c0.48 0 0.67 0 0.81-0.35l1.49-3.63c-0.05-0.13-0.19-0.45-0.25-0.58-0.22-0.55-0.49-1.23-1.13-1.23-0.05 0-0.28 0-0.47 0.17 0.31 0.05 0.39 0.26 0.39 0.42 0 0.26-0.19 0.42-0.42 0.42-0.2 0-0.42-0.13-0.42-0.43 0-0.44 0.42-0.8 0.92-0.8 0.63 0 1.03 0.56 1.27 1.13z"/><path d="m345.49 520.21h0.03l0.02-0.01h0.03l0.06-0.02 0.2-0.05 0.04-0.02 0.05-0.02 0.04-0.02 0.05-0.02 0.08-0.04 0.05-0.03 0.16-0.12 0.03-0.04 0.04-0.04 0.03-0.04 0.03-0.05 0.01-0.02 0.01-0.03 0.01-0.02 0.02-0.03 0.01-0.02v-0.03l0.03-0.09v-0.06l0.01-0.03v-0.06c0-0.51-0.35-0.91-1.13-0.91-0.83 0-1.19 0.57-1.38 1.41-0.03 0.13-0.04 0.17-0.14 0.17-0.13 0-0.13-0.07-0.13-0.25v-1.31c0-0.17 0-0.23 0.11-0.23 0.05 0 0.06 0.01 0.25 0.19 0.02 0.02 0.02 0.04 0.2 0.23 0.43-0.41 0.88-0.42 1.09-0.42 1.15 0 1.61 0.66 1.61 1.38 0 0.52-0.3 0.82-0.42 0.94-0.33 0.32-0.72 0.4-1.14 0.48-0.56 0.1-1.22 0.23-1.22 0.81 0 0.35 0.26 0.76 1.11 0.76 1.1 0 1.15-0.9 1.17-1.21 0.01-0.09 0.1-0.09 0.12-0.09 0.13 0 0.13 0.05 0.13 0.24v1.01c0 0.16 0 0.23-0.11 0.23-0.05 0-0.07 0-0.2-0.11-0.03-0.05-0.13-0.13-0.17-0.16-0.38 0.27-0.79 0.27-0.94 0.27-1.21 0-1.59-0.66-1.59-1.22 0-0.35 0.16-0.62 0.43-0.84 0.32-0.26 0.59-0.32 1.31-0.46z"/><path d="m349.11 522.68-1.39-0.11v-0.31c0.64 0 0.73-0.06 0.73-0.55v-2.67c0-0.45-0.1-0.45-0.77-0.45v-0.31c0.32 0.01 0.86 0.03 1.09 0.03 0.35 0 0.7-0.02 1.04-0.03v0.31c-0.66 0-0.7 0.05-0.7 0.44z"/><path d="m349.15 524.4v0.09l-0.01 0.03v0.02l-0.01 0.03-0.01 0.02-0.01 0.03-0.01 0.02-0.01 0.03-0.02 0.02-0.01 0.02-0.02 0.02-0.01 0.02-0.07 0.07-0.02 0.01-0.03 0.02-0.08 0.04-0.03 0.01-0.02 0.01-0.03 0.01h-0.05l-0.02 0.01h-0.05c-0.31 0-0.53-0.27-0.53-0.53s0.22-0.52 0.53-0.52c0.27 0 0.52 0.2 0.52 0.52z"/><path d="m351.28 520.45v0.07l0.01 0.08v0.14l0.01 0.07v0.06l0.01 0.07 0.05 0.3 0.03 0.11 0.06 0.2 0.08 0.18 0.04 0.08 0.04 0.07 0.1 0.14 0.05 0.06 0.1 0.1 0.06 0.05 0.05 0.04 0.06 0.04 0.05 0.03 0.12 0.06 0.05 0.02 0.06 0.02 0.05 0.01 0.06 0.01 0.05 0.01 0.06 0.01h0.05l0.05 0.01c0.09 0 0.72-0.01 1.07-0.37-0.41-0.03-0.47-0.33-0.47-0.46 0-0.26 0.18-0.46 0.46-0.46 0.26 0 0.45 0.17 0.45 0.47 0 0.68-0.75 1.06-1.52 1.06-1.25 0-2.17-1.07-2.17-2.3 0-1.27 0.99-2.25 2.15-2.25 1.33 0 1.65 1.19 1.65 1.29s-0.1 0.1-0.12 0.1c-0.09 0-0.11-0.04-0.14-0.1-0.28-0.93-0.93-1.05-1.3-1.05-0.53 0-1.41 0.43-1.41 2.03z"/><path d="m356.62 520.21h0.02l0.02-0.01h0.03l0.03-0.01 0.04-0.01 0.03-0.01 0.12-0.03 0.05-0.01 0.08-0.04 0.05-0.02 0.08-0.04 0.05-0.02 0.2-0.15 0.04-0.04 0.06-0.08 0.03-0.05 0.02-0.02 0.01-0.03 0.01-0.02 0.01-0.03 0.01-0.02 0.02-0.06v-0.03l0.02-0.06v-0.12c0-0.51-0.35-0.91-1.12-0.91-0.84 0-1.2 0.57-1.39 1.41-0.03 0.13-0.04 0.17-0.14 0.17-0.13 0-0.13-0.07-0.13-0.25v-1.31c0-0.17 0-0.23 0.11-0.23 0.05 0 0.06 0.01 0.25 0.19 0.02 0.02 0.02 0.04 0.2 0.23 0.44-0.41 0.89-0.42 1.1-0.42 1.14 0 1.6 0.66 1.6 1.38 0 0.52-0.3 0.82-0.42 0.94-0.32 0.32-0.71 0.4-1.13 0.48-0.56 0.1-1.23 0.23-1.23 0.81 0 0.35 0.26 0.76 1.12 0.76 1.1 0 1.14-0.9 1.17-1.21 0-0.09 0.09-0.09 0.11-0.09 0.13 0 0.13 0.05 0.13 0.24v1.01c0 0.16 0 0.23-0.11 0.23-0.05 0-0.07 0-0.19-0.11-0.03-0.05-0.13-0.13-0.18-0.16-0.37 0.27-0.78 0.27-0.93 0.27-1.22 0-1.6-0.66-1.6-1.22 0-0.35 0.16-0.62 0.43-0.84 0.32-0.26 0.6-0.32 1.32-0.46z"/><path d="m366.5 520.41-0.01 0.12v0.12l-0.04 0.22-0.02 0.12-0.03 0.11-0.04 0.1-0.04 0.11-0.04 0.1-0.1 0.2-0.06 0.09-0.06 0.1-0.07 0.08-0.07 0.09-0.07 0.08-0.08 0.08-0.16 0.14-0.27 0.18-0.1 0.05-0.09 0.05-0.1 0.04-0.11 0.04-0.1 0.03-0.11 0.03-0.1 0.02-0.22 0.02h-0.12l-0.01-0.21c0.44 0 0.87-0.22 1.13-0.65s0.26-1 0.26-1.38c0-0.36 0-0.9-0.22-1.33-0.22-0.45-0.66-0.74-1.16-0.74-0.43 0-0.87 0.21-1.13 0.67-0.25 0.44-0.25 1.04-0.25 1.4 0 0.39 0 0.92 0.24 1.36 0.27 0.46 0.73 0.67 1.13 0.67l0.01 0.21c-1.24 0-2.21-1.08-2.21-2.32 0-1.28 1.04-2.23 2.2-2.23 1.21 0 2.22 0.97 2.22 2.23z"/><path d="m368.45 521.58v1.1l-1.39-0.11v-0.31c0.7 0 0.78-0.07 0.78-0.56v-2.66c0-0.45-0.11-0.45-0.78-0.45v-0.31c0.39 0.01 0.86 0.03 1.14 0.03 0.4 0 0.87 0 1.26-0.03v0.31h-0.21c-0.73 0-0.75 0.11-0.75 0.47v1.53c0 0.98 0.42 1.87 1.17 1.87 0.07 0 0.09 0 0.11-0.01-0.03-0.01-0.23-0.13-0.23-0.39 0-0.28 0.21-0.43 0.43-0.43 0.18 0 0.43 0.12 0.43 0.44s-0.31 0.61-0.74 0.61c-0.72 0-1.08-0.67-1.22-1.1z"/><path d="m379.8 520.85h-0.24c-0.11-1.02-0.25-2.26-2.01-2.26h-0.82c-0.46 0-0.49 0.07-0.49 0.4v5.29c0 0.34 0 0.48 0.95 0.48h0.33v0.31c-0.36-0.03-1.26-0.03-1.67-0.03-0.39 0-1.17 0-1.52 0.03v-0.31h0.24c0.77 0 0.79-0.11 0.79-0.47v-5.23c0-0.36-0.02-0.47-0.79-0.47h-0.24v-0.31h5.2z"/><path d="m381.99 522.68-1.39-0.11v-0.31c0.64 0 0.73-0.06 0.73-0.55v-2.67c0-0.45-0.1-0.45-0.77-0.45v-0.31c0.32 0.01 0.85 0.03 1.09 0.03 0.35 0 0.7-0.02 1.04-0.03v0.31c-0.66 0-0.7 0.05-0.7 0.44z"/><path d="m382.03 524.4v0.09l-0.01 0.03v0.02l-0.01 0.03-0.01 0.02-0.01 0.03-0.01 0.02-0.01 0.03-0.02 0.02-0.01 0.02-0.02 0.02-0.01 0.02-0.04 0.04-0.02 0.01-0.01 0.02-0.03 0.01-0.02 0.02-0.06 0.03-0.03 0.01-0.04 0.02-0.03 0.01h-0.05l-0.02 0.01h-0.06c-0.3 0-0.52-0.27-0.52-0.53s0.22-0.52 0.52-0.52c0.28 0 0.53 0.2 0.53 0.52z"/><path d="m384.72 522.26h1.43v0.31h-1.43v1.82h-0.25c-0.01-0.81-0.31-1.87-1.29-1.91v-0.22h0.85v-2.74c0-1.23 0.93-1.34 1.29-1.34 0.71 0 0.99 0.7 0.99 1.34v0.56h-0.25v-0.54c0-0.74-0.3-1.12-0.67-1.12-0.67 0-0.67 0.91-0.67 1.08z"/><path d="m387.98 520.58 0.01 0.21c0.06 1.48 0.89 1.73 1.23 1.73 1.03 0 1.13-1.34 1.13-1.73h-2.36l-0.01-0.21h2.78c0.22 0 0.25 0 0.25 0.21 0 0.98-0.54 1.94-1.79 1.94-1.15 0-2.07-1.02-2.07-2.26 0-1.33 1.05-2.29 2.19-2.29 1.22 0 1.67 1.1 1.67 1.29 0 0.1-0.08 0.11-0.13 0.11-0.09 0-0.11-0.05-0.13-0.13-0.35-1.03-1.25-1.03-1.35-1.03-0.5 0-0.89 0.3-1.12 0.67-0.3 0.48-0.3 1.13-0.3 1.49z"/><path d="m392.96 521.58v1.1l-1.38-0.11v-0.31c0.69 0 0.77-0.07 0.77-0.56v-2.66c0-0.45-0.11-0.45-0.77-0.45v-0.31c0.38 0.01 0.85 0.03 1.13 0.03 0.4 0 0.87 0 1.27-0.03v0.31h-0.21c-0.74 0-0.76 0.11-0.76 0.47v1.53c0 0.98 0.42 1.87 1.18 1.87 0.07 0 0.09 0 0.11-0.01-0.03-0.01-0.23-0.13-0.23-0.39 0-0.28 0.21-0.43 0.43-0.43 0.18 0 0.43 0.12 0.43 0.44s-0.31 0.61-0.74 0.61c-0.73 0-1.09-0.67-1.23-1.1z"/><path d="m398.52 519.04v-0.04l0.01-0.04 0.01-0.03 0.02-0.08 0.01-0.03 0.02-0.08 0.02-0.03 0.01-0.04 0.04-0.06 0.02-0.04 0.04-0.06 0.03-0.03 0.02-0.03 0.03-0.02 0.03-0.03 0.03-0.02 0.03-0.03 0.06-0.04 0.03-0.01 0.04-0.02 0.04-0.01 0.03-0.02 0.08-0.02h0.08l0.05-0.01c0.21 0 0.82 0.14 0.82 0.95v0.55h-0.25v-0.55c0-0.58-0.25-0.64-0.36-0.64-0.33 0-0.37 0.45-0.37 0.5v1.99c0 0.41 0 0.8-0.36 1.17-0.39 0.38-0.89 0.54-1.37 0.54-0.81 0-1.5-0.46-1.5-1.12 0-0.3 0.2-0.47 0.46-0.47 0.28 0 0.46 0.2 0.46 0.46 0 0.12-0.06 0.45-0.51 0.46 0.27 0.35 0.75 0.46 1.07 0.46 0.49 0 1.06-0.39 1.06-1.28v-1.56c0-0.95-0.72-1.29-1.17-1.29-0.48 0-0.89 0.35-0.89 0.85 0 0.54 0.41 1.37 2.06 1.43v0.21c-0.51-0.03-1.21-0.06-1.83-0.36-0.75-0.34-1-0.86-1-1.29 0-0.81 0.97-1.05 1.59-1.05 0.66 0 1.12 0.39 1.31 0.86z"/><path d="m401.91 522.26h1.42v0.31h-1.42v1.82h-0.25c-0.01-0.81-0.31-1.87-1.29-1.91v-0.22h0.85v-2.74c0-1.23 0.92-1.34 1.28-1.34 0.71 0 0.99 0.7 0.99 1.34v0.56h-0.25v-0.54c0-0.74-0.3-1.12-0.67-1.12-0.66 0-0.66 0.91-0.66 1.08z"/><path d="m407.95 519.07v-0.89l1.44 0.1v0.31c-0.7 0-0.78 0.07-0.78 0.56v3.53l-1.46-0.11v-0.31c0.7 0 0.77-0.07 0.77-0.56v-1.77c0-0.86-0.47-1.54-1.2-1.54-0.84 0-0.88 0.47-0.88 0.99v3.3l-1.47-0.11v-0.31c0.78 0 0.78-0.03 0.78-0.92v-1.49c0-0.77 0-1.67 1.52-1.67 0.56 0 1 0.27 1.28 0.89z"/><path d="m411.26 521.58v1.1l-1.39-0.11v-0.31c0.7 0 0.78-0.07 0.78-0.56v-2.66c0-0.45-0.11-0.45-0.78-0.45v-0.31c0.39 0.01 0.86 0.03 1.14 0.03 0.39 0 0.86 0 1.26-0.03v0.31h-0.21c-0.73 0-0.75 0.11-0.75 0.47v1.53c0 0.98 0.41 1.87 1.17 1.87 0.07 0 0.09 0 0.11-0.01-0.03-0.01-0.23-0.13-0.23-0.39 0-0.28 0.21-0.43 0.43-0.43 0.18 0 0.43 0.12 0.43 0.44s-0.31 0.61-0.74 0.61c-0.73 0-1.09-0.67-1.22-1.1z"/><path d="m414.6 520.58 0.01 0.21c0.06 1.48 0.9 1.73 1.24 1.73 1.02 0 1.12-1.34 1.12-1.73h-2.36l-0.01-0.21h2.78c0.22 0 0.25 0 0.25 0.21 0 0.98-0.54 1.94-1.78 1.94-1.16 0-2.08-1.02-2.08-2.26 0-1.33 1.05-2.29 2.2-2.29 1.21 0 1.66 1.1 1.66 1.29 0 0.1-0.08 0.11-0.13 0.11-0.09 0-0.11-0.05-0.13-0.13-0.35-1.03-1.24-1.03-1.34-1.03-0.5 0-0.9 0.3-1.13 0.67-0.3 0.48-0.3 1.13-0.3 1.49z"/><path d="m420.26 520.76 0.01 0.11v0.12l0.02 0.1 0.02 0.11 0.02 0.1 0.09 0.3 0.04 0.09 0.04 0.08 0.04 0.09 0.1 0.16 0.05 0.07 0.05 0.08 0.05 0.07 0.06 0.06 0.05 0.07 0.05 0.06 0.06 0.06 0.06 0.05 0.05 0.06 0.05 0.05 0.06 0.04 0.05 0.05 0.1 0.08 0.04 0.03 0.05 0.04 0.08 0.06 0.03 0.02c0.27 0.2 0.48 0.56 0.48 0.98 0 0.57-0.4 1.34-1.89 1.34-1.07 0-1.69-0.68-1.69-1.32 0-0.34 0.23-0.48 0.46-0.48 0.28 0 0.46 0.2 0.46 0.46 0 0.44-0.42 0.44-0.56 0.44 0.31 0.53 0.89 0.68 1.3 0.68 1.09 0 1.09-0.68 1.09-1.06 0-0.59-0.16-0.77-0.34-0.95-0.66-0.71-0.88-1.63-0.88-2.23v-0.45c0-0.18 0-0.24 0.12-0.24 0.13 0 0.13 0.09 0.13 0.27z"/><path d="m420.66 518.81v0.08l-0.01 0.03v0.02l-0.01 0.03-0.02 0.04-0.01 0.03-0.02 0.04-0.02 0.02-0.01 0.02-0.04 0.04-0.01 0.02-0.04 0.04-0.02 0.01-0.02 0.02-0.02 0.01-0.03 0.01-0.02 0.01-0.02 0.02h-0.03l-0.04 0.02-0.03 0.01h-0.05l-0.03 0.01h-0.03c-0.28 0-0.52-0.24-0.52-0.53s0.24-0.53 0.52-0.53c0.29 0 0.53 0.24 0.53 0.53z"/><path d="m344.98 619.79v-0.46707l1.0403 0.0778v0.21939c-0.49538 0-0.552 0.0495-0.552 0.39631v4.2674l-1.012-0.0779v-0.21938c0.48831 0 0.54492-0.0495 0.54492-0.39631v-1.5145c-0.19815 0.25477-0.50246 0.4317-0.88461 0.4317l0.0283-0.15569c0.2477 0 0.54493-0.0991 0.75724-0.41754 0.0778-0.12031 0.0778-0.13447 0.0778-0.26185v-1.4437c0-0.12738 0-0.14154-0.0778-0.25477-0.20523-0.33969-0.5237-0.49538-0.828-0.49538-0.31847 0-0.57324 0.184-0.74308 0.45292-0.184 0.28308-0.20523 0.68647-0.20523 0.97662 0 0.25477 0.0142 0.67939 0.21938 0.99785 0.14862 0.21938 0.41754 0.44585 0.79969 0.44585l-0.0283 0.15569c-0.83508 0-1.5782-0.68647-1.5782-1.5923 0-0.8917 0.69354-1.5923 1.5003-1.5923 0.45292 0 0.77139 0.24061 0.94123 0.46707z"/><path d="m349.55 620.91-7e-3 0.0849v0.0778l-0.0142 0.0849-0.0142 0.0779-0.0141 0.0779-0.0212 0.0778-0.0283 0.0779-0.0283 0.0778-0.0283 0.0708-0.0708 0.1416-0.085 0.1274-0.099 0.1274-0.0495 0.0566-0.0566 0.0495-0.0566 0.0566-0.0566 0.0495-0.1911 0.1275-0.0708 0.0354-0.0637 0.0354-0.0708 0.0283-0.0778 0.0283-0.0708 0.0212-0.0778 0.0141-0.0708 0.0142-0.0778 0.0142-0.0779 7e-3h-0.0849l-7e-3 -0.15569c0.31138 0 0.61569-0.14862 0.79969-0.45293s0.184-0.70769 0.184-0.97661c0-0.25477 0-0.63693-0.15569-0.94124-0.15569-0.31846-0.46708-0.52369-0.82092-0.52369-0.30431 0-0.60862 0.14861-0.7997 0.47415-0.17692 0.30431-0.17692 0.73601-0.17692 0.99078 0 0.276 0 0.65107 0.16984 0.96246 0.19108 0.32554 0.51662 0.46708 0.7997 0.46708l7e-3 0.15569c-0.87754 0-1.564-0.76431-1.564-1.6418 0-0.90585 0.736-1.5852 1.5569-1.5852 0.85631 0 1.5711 0.69354 1.5711 1.5852z"/><path d="m350.77 620.94v0.1556l7e-3 0.0495v0.0495l7e-3 0.0425v0.0495l0.028 0.17 0.0141 0.0425 0.0142 0.0778 0.0212 0.0708 0.0283 0.0708 0.0212 0.0637 0.0566 0.1132 0.0354 0.0566 0.0283 0.0495 0.1062 0.1275 0.0425 0.0354 0.0354 0.0283 0.0425 0.0354 0.0354 0.0212 0.0425 0.0283 0.0354 0.0212 0.0425 0.0141 0.0425 0.0212 0.0354 7e-3 0.0425 0.0142 0.0354 7e-3 0.0425 7e-3 0.0354 7e-3h0.0708c0.0637 0 0.50954-7e-3 0.75723-0.25477-0.29015-0.0212-0.33261-0.23354-0.33261-0.32554 0-0.184 0.12738-0.32554 0.32553-0.32554 0.18401 0 0.32554 0.12031 0.32554 0.33261 0 0.47416-0.53784 0.75016-1.0828 0.75016-0.87754 0-1.5286-0.75723-1.5286-1.6277 0-0.89877 0.70062-1.5994 1.5145-1.5994 0.94831 0 1.1748 0.84923 1.1748 0.91292 0 0.0708-0.0708 0.0708-0.092 0.0708-0.0637 0-0.0778-0.0283-0.092-0.0708-0.20523-0.65108-0.66523-0.736-0.92708-0.736-0.37508 0-0.99077 0.30431-0.99077 1.4366z"/><path d="m355.84 619.96v-0.63692l1.012 0.0778v0.21939c-0.49539 0-0.54492 0.0495-0.54492 0.39631v2.4911l-1.0403-0.0779v-0.21231c0.49538 0 0.552-0.0495 0.552-0.39631v-1.2526c0-0.60862-0.3397-1.0898-0.85631-1.0898-0.59447 0-0.62277 0.33261-0.62277 0.70062v2.3283l-1.0332-0.0779v-0.21231c0.552 0 0.552-0.0212 0.552-0.65107v-1.0545c0-0.54492 0-1.1889 1.0686-1.1889 0.39631 0 0.7077 0.19815 0.91293 0.63692z"/><path d="m357.77 621.82v-1.8825c0-0.31846-0.0778-0.31846-0.552-0.31846v-0.21939c0.24769 7e-3 0.60862 0.0212 0.79969 0.0212 0.184 0 0.55201-0.0141 0.79262-0.0212v0.21939c-0.47415 0-0.552 0-0.552 0.31846v1.2951c0 0.72892 0.50246 1.1182 0.94831 1.1182s0.52369-0.37508 0.52369-0.77847v-1.6348c0-0.31846-0.0778-0.31846-0.552-0.31846v-0.21939c0.2477 7e-3 0.60862 0.0212 0.7997 0.0212 0.184 0 0.552-0.0141 0.79261-0.0212v0.21939c-0.47415 0-0.552 0-0.552 0.31846v1.2951c0 0.72892 0.50247 1.1182 0.95539 1.1182 0.44585 0 0.51662-0.37508 0.51662-0.77847v-1.6348c0-0.31846-0.0708-0.31846-0.54493-0.31846v-0.21939c0.24769 7e-3 0.60154 0.0212 0.79262 0.0212 0.184 0 0.552-0.0141 0.79262-0.0212v0.21939c-0.36801 0-0.54493 0-0.55201 0.21231v1.3446c0 0.60154 0 0.82093-0.21938 1.0757-0.0991 0.11323-0.32554 0.25477-0.736 0.25477-0.59447 0-0.90585-0.41754-1.0262-0.68647-0.0991 0.60862-0.62277 0.68647-0.94123 0.68647-0.50954 0-0.84216-0.29723-1.0403-0.736v0.736l-0.99785-0.0779v-0.21231c0.49539 0 0.552-0.0495 0.552-0.39631z"/><path d="m363.65 621.03 7e-3 0.14861c0.0425 1.0403 0.63693 1.2172 0.87754 1.2172 0.72893 0 0.7997-0.94831 0.7997-1.2172h-1.6772l-7e-3 -0.14861h1.9674c0.15569 0 0.17692 0 0.17692 0.14861 0 0.69354-0.37508 1.3729-1.2597 1.3729-0.82092 0-1.472-0.72185-1.472-1.5994 0-0.94123 0.74308-1.6277 1.5569-1.6277 0.86338 0 1.1748 0.77846 1.1748 0.91292 0 0.0708-0.0566 0.0849-0.092 0.0849-0.0637 0-0.0779-0.0425-0.092-0.0991-0.24769-0.72185-0.87754-0.72185-0.94831-0.72185-0.35385 0-0.63692 0.21231-0.79969 0.47415-0.21231 0.33262-0.21231 0.7997-0.21231 1.0545z"/><path d="m366.78 621.82v-1.8825c0-0.31846-0.0778-0.31846-0.552-0.31846v-0.21939c0.2477 7e-3 0.60862 0.0212 0.7997 0.0212 0.184 0 0.552-0.0141 0.78554-0.0212v0.21939c-0.46708 0-0.54493 0-0.54493 0.31846v1.2951c0 0.72892 0.50247 1.1182 0.94831 1.1182 0.44585 0 0.5237-0.37508 0.5237-0.77847v-1.6348c0-0.31846-0.0779-0.31846-0.552-0.31846v-0.21939c0.24769 7e-3 0.60861 0.0212 0.79969 0.0212 0.184 0 0.552-0.0141 0.79262-0.0212v0.21939c-0.368 0-0.54493 0-0.552 0.21231v1.3446c0 0.60154 0 0.82093-0.21939 1.0757-0.0991 0.11323-0.33262 0.25477-0.74308 0.25477-0.51661 0-0.84215-0.29723-1.0403-0.736v0.736l-0.99785-0.0779v-0.21231c0.49539 0 0.552-0.0495 0.552-0.39631z"/><path d="m370.94 622.22h1.012v0.21231h-1.012v1.2951h-0.17692c-7e-3 -0.57323-0.21231-1.3305-0.90585-1.3588v-0.14862h0.60154v-1.9462c0-0.86339 0.65108-0.94831 0.90585-0.94831 0.50246 0 0.70062 0.50246 0.70062 0.94831v0.40338h-0.17693v-0.38923c0-0.51662-0.2123-0.78554-0.47415-0.78554-0.47416 0-0.47416 0.63692-0.47416 0.75723z"/><path d="m197.83 480.46v0.0775l-7e-3 0.0845-0.0141 0.0845-0.0282 0.155-0.0211 0.0775-0.0282 0.0775-0.0282 0.0704-0.0282 0.0775-0.0352 0.0705-0.0352 0.0634-0.0423 0.0704-0.0423 0.0634-0.0493 0.0634-0.0493 0.0564-0.0493 0.0563-0.0564 0.0564-0.1128 0.0986-0.0634 0.0493-0.1268 0.0846-0.0634 0.0352-0.0704 0.0282-0.0704 0.0352-0.0705 0.0211-0.0775 0.0282-0.0704 0.0141-0.155 0.0282-0.0775 7e-3h-0.0775l-0.0141-0.15499c0.30997 0 0.6129-0.15499 0.79606-0.45087 0.18317-0.30292 0.18317-0.71152 0.18317-0.97923 0-0.24656 0-0.62698-0.15499-0.93696-0.15498-0.30997-0.46496-0.51427-0.81015-0.51427-0.30293 0-0.6129 0.14794-0.80311 0.46496-0.17612 0.30997-0.17612 0.73971-0.17612 0.98627 0 0.27475 0 0.65517 0.16908 0.96514 0.1902 0.31702 0.52131 0.46496 0.79606 0.46496l0.0141 0.15499c-0.8806 0-1.564-0.76084-1.564-1.6344 0-0.90878 0.73266-1.578 1.5499-1.578 0.85242 0 1.564 0.68335 1.564 1.578z"/><path d="m199.23 481.6v2.2191l-1.0144-0.0775v-0.21135c0.49313 0 0.54949-0.0493 0.54949-0.39451v-4.1705h0.17612c7e-3 7e-3 0.0634 0.10567 0.25361 0.42973 0.10568-0.15499 0.40156-0.50723 0.91583-0.50723l-0.0282 0.15499c-0.30997 0-0.56359 0.16907-0.73266 0.42269-0.0986 0.14794-0.0986 0.16907-0.0986 0.29588v1.4442c0 0.13385 0 0.14089 0.0775 0.25361 0.27474 0.38746 0.66221 0.44382 0.82424 0.44382 0.31701 0 0.57063-0.18316 0.7397-0.44382 0.18317-0.28884 0.2043-0.69039 0.2043-0.97923 0-0.25361-0.0141-0.6763-0.21839-0.99332-0.14794-0.21134-0.41564-0.44382-0.79606-0.44382l0.0282-0.15499c0.83833 0 1.571 0.68335 1.571 1.5921 0 0.88765-0.69039 1.578-1.4864 1.578-0.5495 0-0.85243-0.33111-0.96514-0.45792z"/><path d="m203.79 482.05-1.0638-0.0775v-0.21838c0.5354 0 0.59881-0.0493 0.59881-0.38747v-2.7756c0-0.31702-0.0634-0.91583-0.50723-0.91583-0.0423 0-0.19725 0-0.38042 0.0916 0.10567 0.0282 0.24657 0.12681 0.24657 0.31702 0 0.18317-0.12681 0.31702-0.32406 0.31702-0.19726 0-0.32406-0.13385-0.32406-0.31702 0-0.36633 0.39451-0.56358 0.78902-0.56358 0.52836 0 0.96513 0.45086 0.96513 1.0849z"/><path d="m203.79 483.27v0.0352l-7e-3 0.0211v0.0141l-7e-3 0.0211v0.0141l-7e-3 0.0211-7e-3 0.0141-7e-3 0.0211-7e-3 0.0141-0.0141 0.0141-0.014 0.0282-0.0282 0.0282-7e-3 0.0141-0.0141 0.0141-0.0141 7e-3 -0.0141 0.0141-0.0141 7e-3 -0.0141 0.0141-0.0211 7e-3 -0.0282 0.014-0.0211 7e-3 -0.0141 7e-3 -0.0211 7e-3h-0.0141l-0.0211 7e-3h-0.0352l-0.0211 7e-3c-0.2043 0-0.37338-0.16907-0.37338-0.37337s0.16908-0.37338 0.37338-0.37338 0.37337 0.16908 0.37337 0.37338z"/><path d="m205.24 480.57 7e-3 0.14794c0.0423 1.0426 0.63403 1.2188 0.87356 1.2188 0.71857 0 0.78901-0.944 0.78901-1.2188h-1.6626l-7e-3 -0.14794h1.9585c0.15499 0 0.17612 0 0.17612 0.14794 0 0.69743-0.38042 1.3737-1.254 1.3737-0.8172 0-1.4653-0.71857-1.4653-1.5992 0-0.93695 0.7397-1.6133 1.5428-1.6133 0.85947 0 1.1765 0.77493 1.1765 0.90878 0 0.0705-0.0564 0.0845-0.0916 0.0845-0.0634 0-0.0775-0.0423-0.0916-0.0986-0.24657-0.71857-0.8806-0.71857-0.95105-0.71857-0.3452 0-0.62699 0.21135-0.78902 0.46496-0.21135 0.33815-0.21135 0.80311-0.21135 1.0497z"/><path d="m208.39 480.48 7e-3 0.0564v0.1479l0.014 0.0986v0.0423l7e-3 0.0493 0.021 0.1269 7e-3 0.0352 0.0422 0.155 0.0211 0.0634 0.0564 0.1268 0.0282 0.0564 0.0352 0.0564 0.0282 0.0493 0.1056 0.1269 0.0352 0.0352 0.0423 0.0282 0.0352 0.0282 0.0423 0.0282 0.0423 0.0211 0.0352 0.0211 0.0423 0.0211 0.0352 0.0141 0.0846 0.0282 0.0352 7e-3 0.0423 7e-3 0.0352 7e-3h0.0704c0.0634 0 0.50722-7e-3 0.75379-0.26066-0.28883-0.0211-0.3311-0.22544-0.3311-0.31702 0-0.18316 0.1268-0.32406 0.32406-0.32406 0.18316 0 0.32406 0.11976 0.32406 0.33111 0 0.472-0.53541 0.74675-1.0779 0.74675-0.8806 0-1.5217-0.7538-1.5217-1.6203 0-0.90174 0.69744-1.5921 1.5076-1.5921 0.94401 0 1.1694 0.83834 1.1694 0.90878 0 0.0705-0.0704 0.0705-0.0916 0.0705-0.0634 0-0.0775-0.0282-0.0916-0.0705-0.2043-0.64812-0.66222-0.73266-0.92287-0.73266-0.37338 0-0.99332 0.30293-0.99332 1.423z"/><path d="m211.91 481.76h1.0074v0.21838h-1.0074v1.2892h-0.17612c-7e-3 -0.57767-0.21839-1.3244-0.90173-1.3526v-0.15498h0.59176v-1.9303c0-0.85947 0.65517-0.94401 0.90878-0.94401 0.50018 0 0.69744 0.49314 0.69744 0.94401v0.40155h-0.17612v-0.38746c0-0.51427-0.21135-0.78198-0.472-0.78198-0.47201 0-0.47201 0.63404-0.47201 0.7538z"/><path d="m214.51 483.08v0.0423l-7e-3 0.0352v0.0352l-7e-3 0.0423v0.0352l-0.014 0.0704-7e-3 0.0282-0.014 0.0704-0.0141 0.0282-7e-3 0.0282-0.0423 0.0846-0.0141 0.0211-0.0141 0.0282-0.0141 0.0211-0.0211 0.0211-0.0141 0.0211-0.0211 0.0211-0.1055 0.0705-0.0282 7e-3 -0.0211 7e-3 -0.0282 7e-3 -0.0211 7e-3h-0.0564c-0.24657 0-0.37337-0.18317-0.37337-0.36633 0-0.18317 0.11976-0.37338 0.37337-0.37338 0.1409 0 0.23952 0.0705 0.28179 0.11272 7e-3 0.0141 0.0141 0.0211 0.0211 0.0211 0.0141 0 0.0141-0.0986 0.0141-0.12681 0-0.22543-0.0493-0.72562-0.49314-1.1624-0.0845-0.0845-0.0845-0.0986-0.0845-0.11977 0-0.0493 0.0352-0.0775 0.0704-0.0775 0.0775 0 0.66221 0.53541 0.66221 1.3596z"/><path d="m215.87 483.08v0.0775l-7e-3 0.0352v0.0423l-7e-3 0.0352v0.0352l-7e-3 0.0352-7e-3 0.0282-7e-3 0.0352-0.0141 0.0352-7e-3 0.0282-0.0141 0.0282-7e-3 0.0282-0.0282 0.0564-0.0141 0.0211-0.0141 0.0282-0.0211 0.0211-0.0141 0.0211-0.0211 0.0211-0.0141 0.0211-0.0844 0.0564-0.0282 0.0141-0.0211 7e-3 -0.0282 7e-3 -0.0211 7e-3 -0.0282 7e-3h-0.0564c-0.24657 0-0.37338-0.18317-0.37338-0.36633 0-0.18317 0.11977-0.37338 0.37338-0.37338 0.14089 0 0.23952 0.0705 0.28179 0.11272 7e-3 0.0141 0.0141 0.0211 0.0211 0.0211 0.0141 0 0.0141-0.0986 0.0141-0.12681 0-0.22543-0.0493-0.72562-0.49314-1.1624-0.0845-0.0845-0.0845-0.0986-0.0845-0.11977 0-0.0493 0.0352-0.0775 0.0704-0.0775 0.0775 0 0.66221 0.53541 0.66221 1.3596z"/><path d="m277.94 503.48v0.46496l-1.0144-0.0775v-0.21839c0.50018 0 0.5495-0.0423 0.5495-0.35224v-3.2758c0-0.30997-0.0775-0.30997-0.5495-0.30997v-0.21839c0.23952 7e-3 0.60585 0.0211 0.78902 0.0211 0.19021 0 0.5495-0.0141 0.79606-0.0211v0.21839c-0.472 0-0.54949 0-0.54949 0.30997v1.2399l0.0986 0.0916c-0.0986 0.14794-0.0986 0.15498-0.0986 0.29588v1.5569c0.2043 0.35929 0.54949 0.56359 0.90878 0.56359 0.50722 0 0.93696-0.61995 0.93696-1.409 0-0.84537-0.49314-1.4371-1.0074-1.4371-0.28179 0-0.54949 0.1409-0.7397 0.42974l-0.0986-0.0916c0.0352-0.11271 0.3311-0.48609 0.86651-0.48609 0.83129 0 1.564 0.68335 1.564 1.5851 0 0.88765-0.68335 1.5851-1.4653 1.5851-0.5495 0-0.84538-0.30998-0.98628-0.46496z"/><path d="m284.13 502.34v0.0845l-7e-3 0.0845-7e-3 0.0775-0.0141 0.0845-0.0211 0.0775-0.0141 0.0775-0.0282 0.0775-0.0564 0.1408-0.0352 0.0704-0.0423 0.0705-0.0352 0.0704-0.0493 0.0634-0.0423 0.0634-0.0986 0.1128-0.0564 0.0564-0.1128 0.0986-0.0634 0.0493-0.0634 0.0423-0.0634 0.0352-0.0704 0.0352-0.0634 0.0352-0.0704 0.0282-0.0775 0.0282-0.0704 0.0211-0.0775 0.0211-0.0704 0.0141-0.0775 7e-3 -0.0845 7e-3 -0.0775 7e-3 -7e-3 -0.15498c0.30997 0 0.6129-0.15499 0.79606-0.45791 0.18317-0.30293 0.18317-0.70449 0.18317-0.97219 0-0.25361 0-0.62699-0.15499-0.93696-0.15499-0.31701-0.46496-0.51427-0.8172-0.51427-0.30292 0-0.6129 0.1409-0.80311 0.46496-0.17612 0.30997-0.17612 0.73266-0.17612 0.98627 0 0.27475 0 0.65517 0.17612 0.9581 0.18317 0.32406 0.51428 0.472 0.79607 0.472l7e-3 0.15498c-0.87355 0-1.5569-0.76788-1.5569-1.6414 0-0.90173 0.73266-1.571 1.5499-1.571 0.85242 0 1.5569 0.68335 1.5569 1.571z"/><path d="m285.3 502.46 7e-3 0.14794c0.0352 1.0426 0.62699 1.2188 0.86651 1.2188 0.72562 0 0.79606-0.94401 0.79606-1.2188h-1.6626l-7e-3 -0.14794h1.9585c0.15499 0 0.17612 0 0.17612 0.14794 0 0.69039-0.38042 1.3737-1.261 1.3737-0.8172 0-1.4583-0.72561-1.4583-1.5992 0-0.93696 0.73266-1.6133 1.5428-1.6133 0.85946 0 1.1765 0.77493 1.1765 0.90878 0 0.0705-0.0564 0.0845-0.0916 0.0845-0.0634 0-0.0775-0.0423-0.0916-0.0986-0.24657-0.71857-0.88061-0.71857-0.95105-0.71857-0.35224 0-0.63404 0.2043-0.78902 0.46496-0.21135 0.33815-0.21135 0.79606-0.21135 1.0497z"/><path d="m288.42 503.25v-1.8739c0-0.31702-0.0775-0.31702-0.54245-0.31702v-0.21135c0.23952 7e-3 0.59881 0.0211 0.78902 0.0211 0.18316 0 0.54949-0.0141 0.78902-0.0211v0.21135c-0.47201 0-0.5495 0-0.5495 0.31702v1.2892c0 0.72562 0.50018 1.1201 0.95105 1.1201 0.44382 0 0.52132-0.38042 0.52132-0.77493v-1.6344c0-0.31702-0.0775-0.31702-0.5495-0.31702v-0.21135c0.24657 7e-3 0.59881 0.0211 0.78902 0.0211 0.18316 0 0.54949-0.0141 0.78902-0.0211v0.21135c-0.472 0-0.5495 0-0.5495 0.31702v1.2892c0 0.72562 0.50018 1.1201 0.95105 1.1201 0.44383 0 0.52132-0.38042 0.52132-0.77493v-1.6344c0-0.31702-0.0775-0.31702-0.5495-0.31702v-0.21135c0.24657 7e-3 0.60586 0.0211 0.79607 0.0211 0.18316 0 0.54245-0.0141 0.78197-0.0211v0.21135c-0.35929 0-0.53541 0-0.54245 0.21134v1.3385c0 0.59881 0 0.81719-0.21839 1.0708-0.0986 0.11976-0.33111 0.26066-0.7397 0.26066-0.59177 0-0.90174-0.42269-1.0215-0.6904-0.0986 0.6129-0.6129 0.6904-0.92992 0.6904-0.51427 0-0.84537-0.30293-1.0426-0.73971v0.73971l-0.98627-0.0775v-0.21839c0.48609 0 0.54245-0.0493 0.54245-0.39451z"/><path d="m294.57 504.97v0.1127l-7e-3 0.0352v0.0352l-0.028 0.1408-7e-3 0.0282-0.0141 0.0352-7e-3 0.0282-0.0423 0.0846-0.0141 0.0211-0.0141 0.0282-0.0141 0.0211-0.0211 0.0211-0.0141 0.0211-0.0211 0.0141-0.0211 0.0211-0.0633 0.0423-0.0211 7e-3 -0.0282 0.0141-0.0211 7e-3 -0.0282 7e-3h-0.0282l-0.0282 7e-3h-0.0211c-0.24657 0-0.37338-0.19021-0.37338-0.37338 0-0.18316 0.11977-0.36633 0.37338-0.36633 0.13385 0 0.23952 0.0705 0.27475 0.11272 7e-3 0.0141 0.0141 0.0211 0.0211 0.0211 0.0141 0 0.0141-0.0986 0.0141-0.1268 0-0.22544-0.0493-0.73266-0.48609-1.1624-0.0845-0.0845-0.0845-0.0986-0.0845-0.11976 0-0.0493 0.0352-0.0775 0.0704-0.0775 0.0775 0 0.65517 0.52836 0.65517 1.3596z"/><path d="m295.94 504.97v0.0775l-7e-3 0.0352v0.0352l-0.035 0.176-7e-3 0.0282-7e-3 0.0352-0.0423 0.0846-7e-3 0.0282-0.0211 0.0211-0.0141 0.0282-0.0282 0.0422-0.0211 0.0211-0.0211 0.0141-0.0141 0.0211-0.0422 0.0282-0.0282 0.0141-0.0211 7e-3 -0.0211 0.0141-0.0282 7e-3 -0.0211 7e-3h-0.0282l-0.0282 7e-3h-0.0282c-0.24657 0-0.37338-0.19021-0.37338-0.37338 0-0.18316 0.11976-0.36633 0.37338-0.36633 0.14089 0 0.23952 0.0705 0.28179 0.11272 7e-3 0.0141 0.0141 0.0211 0.0211 0.0211 0.0141 0 0.0141-0.0986 0.0141-0.1268 0-0.22544-0.0493-0.73266-0.49313-1.1624-0.0845-0.0845-0.0845-0.0986-0.0845-0.11976 0-0.0493 0.0352-0.0775 0.0704-0.0775 0.0775 0 0.66221 0.52836 0.66221 1.3596z"/><path d="m202.47 588.86v0.81719c0 0.6129 0.33816 0.95105 0.64108 0.95105 0.0211 0 0.12681 0 0.23248-0.0493-0.0845-0.0282-0.21134-0.11976-0.21134-0.29588 0-0.16203 0.11271-0.30293 0.30292-0.30293 0.2043 0 0.30997 0.1409 0.30997 0.30997 0 0.26066-0.26065 0.49314-0.63403 0.49314-0.48609 0-1.0849-0.37338-1.0849-1.1131v-0.81015h-0.55654v-0.21135h0.55654v-2.2684c0-0.31701-0.0775-0.31701-0.54949-0.31701v-0.21839c0.27474 7e-3 0.60585 0.0211 0.8031 0.0211 0.2818 0 0.6129 0 0.8947-0.0211v0.21839h-0.14795c-0.52131 0-0.5354 0.0775-0.5354 0.3311v2.2543h0.79606v0.21135z"/><path d="m206.69 587.34v0.0845l-7e-3 0.0775-7e-3 0.0845-0.0141 0.0775-0.0211 0.0845-0.0211 0.0775-0.0211 0.0704-0.0282 0.0775-0.0352 0.0705-0.0282 0.0704-0.0423 0.0705-0.1269 0.1902-0.0493 0.0634-0.1621 0.1621-0.0634 0.0493-0.0564 0.0423-0.1268 0.0846-0.1408 0.0704-0.1408 0.0564-0.0704 0.0211-0.0775 0.0211-0.0775 0.0141-0.155 0.014h-0.0775l-7e-3 -0.15499c0.30997 0 0.6129-0.14794 0.79607-0.45087 0.18316-0.30292 0.18316-0.70448 0.18316-0.97218 0-0.25361 0-0.63403-0.15499-0.93696-0.15498-0.31702-0.46495-0.52132-0.81719-0.52132-0.30293 0-0.6129 0.14795-0.80311 0.47201-0.17612 0.30997-0.17612 0.73266-0.17612 0.98627 0 0.27475 0 0.64812 0.16907 0.95809 0.19021 0.32407 0.52132 0.46496 0.80311 0.46496l7e-3 0.15499c-0.8806 0-1.5569-0.76084-1.5569-1.6344 0-0.90173 0.72562-1.578 1.5499-1.578 0.85242 0 1.5569 0.6904 1.5569 1.578z"/><path d="m208.06 588.17v0.76789l-0.97218-0.0775v-0.21135c0.48609 0 0.54949-0.0493 0.54949-0.39451v-1.8739c0-0.31701-0.0775-0.31701-0.54949-0.31701v-0.21839c0.27475 7e-3 0.59881 0.0211 0.79606 0.0211 0.28179 0 0.6129 0 0.89469-0.0211v0.21839h-0.14794c-0.52131 0-0.5354 0.0775-0.5354 0.3311v1.0779c0 0.69039 0.29588 1.3103 0.83128 1.3103 0.0493 0 0.0634 0 0.0775-7e-3 -0.0211-7e-3 -0.16203-0.0845-0.16203-0.2677 0-0.19726 0.14794-0.30293 0.30292-0.30293 0.12681 0 0.30293 0.0845 0.30293 0.30997 0 0.22543-0.21839 0.42269-0.52132 0.42269-0.51427 0-0.76788-0.46496-0.86651-0.76789z"/><path d="m210.47 587.37v0.155l7e-3 0.0493v0.0493l7e-3 0.0423v0.0493l0.028 0.1692 0.0141 0.0423 0.0141 0.0775 0.0211 0.0705 0.0282 0.0704 0.0211 0.0634 0.0564 0.1128 0.0352 0.0564 0.0282 0.0493 0.1056 0.1269 0.0423 0.0352 0.0352 0.0352 0.0423 0.0282 0.0352 0.0282 0.0423 0.0211 0.0352 0.0211 0.0423 0.0141 0.0423 0.0211 0.0352 0.0141 0.0423 7e-3 0.0352 7e-3 0.0423 7e-3 0.0352 7e-3h0.0352l0.0352 7e-3c0.0634 0 0.50722-7e-3 0.75379-0.26066-0.28884-0.0211-0.3311-0.23247-0.3311-0.32406 0-0.18316 0.1268-0.32406 0.32406-0.32406 0.18316 0 0.32406 0.11976 0.32406 0.33111 0 0.47904-0.53541 0.74675-1.0779 0.74675-0.87355 0-1.5217-0.7538-1.5217-1.6203 0-0.89469 0.69744-1.5921 1.5076-1.5921 0.94401 0 1.1694 0.84538 1.1694 0.91583 0 0.0634-0.0705 0.0634-0.0916 0.0634-0.0634 0-0.0775-0.0211-0.0916-0.0634-0.2043-0.65517-0.66222-0.73971-0.92287-0.73971-0.37338 0-0.98628 0.30293-0.98628 1.4301z"/><path d="m213.55 587.46v0.14794c0.0493 1.0426 0.63404 1.2117 0.87356 1.2117 0.72562 0 0.79606-0.944 0.79606-1.2117h-1.6696v-0.14794h1.9585c0.15499 0 0.17612 0 0.17612 0.14794 0 0.6904-0.38042 1.3667-1.261 1.3667-0.8172 0-1.4583-0.71857-1.4583-1.5921 0-0.93696 0.73266-1.6203 1.5428-1.6203 0.85946 0 1.1765 0.78198 1.1765 0.91583 0 0.0634-0.0564 0.0775-0.0916 0.0775-0.0634 0-0.0775-0.0352-0.0916-0.0986-0.24657-0.71858-0.88061-0.71858-0.95105-0.71858-0.35224 0-0.63404 0.21135-0.79607 0.47201-0.2043 0.3311-0.2043 0.79606-0.2043 1.0497z"/><path d="m216.96 589.96v0.0775l-7e-3 0.0423v0.0352l-7e-3 0.0352v0.0352l-0.014 0.0704-7e-3 0.0282-0.0141 0.0352-7e-3 0.0282-0.0141 0.0352-7e-3 0.0282-0.0141 0.0282-0.0141 0.0211-0.0141 0.0282-0.0141 0.0211-0.0211 0.0282-0.0141 0.0211-0.0211 0.0141-0.0141 0.0211-0.0211 0.0211-0.0633 0.0423-0.0282 7e-3 -0.0211 0.0141-0.0282 7e-3 -0.0211 7e-3h-0.0282l-0.0282 7e-3h-0.0282c-0.24657 0-0.37338-0.19021-0.37338-0.37338 0-0.18316 0.11977-0.37337 0.37338-0.37337 0.1409 0 0.23952 0.0704 0.28179 0.11271 7e-3 0.0141 0.0141 0.0211 0.0211 0.0211 0.0141 0 0.0141-0.0986 0.0141-0.12681 0-0.21839-0.0493-0.72561-0.49314-1.1554-0.0845-0.0845-0.0845-0.0986-0.0845-0.11976 0-0.0493 0.0352-0.0775 0.0704-0.0775 0.0775 0 0.66221 0.52836 0.66221 1.3526z"/><path d="m218.32 589.96v0.0423l-7e-3 0.0352v0.0423l-7e-3 0.0352v0.0352l-0.021 0.1056-7e-3 0.0282-7e-3 0.0352-0.0141 0.0282-7e-3 0.0352-0.0282 0.0564-0.0141 0.0211-0.0141 0.0282-0.0141 0.0211-0.0141 0.0282-0.0774 0.0774-0.0633 0.0423-0.0211 7e-3 -0.0282 0.0141-0.0211 7e-3 -0.0282 7e-3h-0.0211l-0.0282 7e-3h-0.0282c-0.24657 0-0.37337-0.19021-0.37337-0.37338 0-0.18316 0.11976-0.37337 0.37337-0.37337 0.1409 0 0.23953 0.0704 0.28179 0.11271 7e-3 0.0141 0.0141 0.0211 0.0211 0.0211 0.0141 0 0.0141-0.0986 0.0141-0.12681 0-0.21839-0.0493-0.72561-0.49314-1.1554-0.0845-0.0845-0.0845-0.0986-0.0845-0.11976 0-0.0493 0.0352-0.0775 0.0704-0.0775 0.0775 0 0.66221 0.52836 0.66221 1.3526z"/><path d="m279.4 487.74-1.0144-0.0705v-0.21839c0.49314 0 0.54949-0.0493 0.54949-0.39451v-3.6351c0-0.31702-0.0775-0.31702-0.54949-0.31702v-0.21838c0.23248 7e-3 0.60585 0.0211 0.78197 0.0211s0.52132-0.0141 0.78198-0.0211v0.21838c-0.47201 0-0.5495 0-0.5495 0.31702z"/><path d="m283.42 484.39v0.0845l-7e-3 0.0775-0.0141 0.0845-0.0282 0.155-0.0211 0.0775-0.0564 0.155-0.0282 0.0705-0.0352 0.0705-0.0352 0.0704-0.0846 0.1268-0.0493 0.0634-0.0493 0.0564-0.0493 0.0634-0.0564 0.0493-0.0564 0.0564-0.0564 0.0493-0.1902 0.1269-0.0634 0.0352-0.0704 0.0352-0.1408 0.0564-0.0775 0.0211-0.0704 0.0141-0.155 0.0282-0.0775 7e-3h-0.0845l-7e-3 -0.15499c0.30997 0 0.61289-0.15499 0.79606-0.45087 0.18316-0.30292 0.18316-0.71152 0.18316-0.97218 0-0.25361 0-0.63403-0.15498-0.93696-0.15499-0.31702-0.46496-0.52132-0.8172-0.52132-0.29588 0-0.60585 0.14794-0.79606 0.47201-0.17612 0.30292-0.17612 0.73266-0.17612 0.98627 0 0.2677 0 0.64812 0.16907 0.95809 0.19021 0.31702 0.52132 0.46496 0.79607 0.46496l7e-3 0.15499c-0.87356 0-1.5569-0.76084-1.5569-1.6344 0-0.90878 0.73266-1.578 1.5499-1.578 0.85242 0 1.5639 0.69039 1.5639 1.578z"/><path d="m286.34 485.22 0.014 0.0282 7e-3 0.0211 7e-3 0.0141 7e-3 0.0211 7e-3 0.0141 0.0141 0.0211 7e-3 0.0211 0.0141 0.0211 7e-3 0.0141 0.0282 0.0422 0.0141 0.0141 0.0282 0.0422 0.0211 0.0141 0.0141 0.0211 0.0211 0.0141 0.0211 0.0211 0.0211 0.0141 0.0282 0.0141 0.0211 0.0141 0.0564 0.0282 0.0282 7e-3 0.0352 0.0141 0.0282 7e-3 0.0352 7e-3 0.0423 7e-3 0.0141 7e-3h0.1055v0.21839c-0.16203-0.0141-0.36633-0.0211-0.52836-0.0211-0.16908 0-0.49314 0.0141-0.6129 0.0211v-0.21839c0.26066-7e-3 0.33815-0.16203 0.33815-0.29588 0-0.0634-0.0141-0.0916-0.0423-0.16907l-0.71152-1.7823-0.78902 1.9514c-0.0423 0.0916-0.0423 0.10567-0.0423 0.11976 0 0.17612 0.27475 0.17612 0.40155 0.17612v0.21839c-0.21134-7e-3 -0.60585-0.0211-0.76788-0.0211-0.19021 0-0.472 7e-3 -0.68335 0.0211v-0.21839c0.44383 0 0.47201-0.0423 0.56359-0.25361l1.0144-2.4868c0.0423-0.0986 0.0564-0.13385 0.14794-0.13385 0.0916 0 0.11272 0.0634 0.1409 0.13385z"/><path d="m287.71 484.51 7e-3 0.1409c0.0423 1.0497 0.63403 1.2188 0.87355 1.2188 0.71857 0 0.78902-0.944 0.78902-1.2188h-1.6626l-7e-3 -0.1409h1.9585c0.15498 0 0.17612 0 0.17612 0.1409 0 0.69743-0.38042 1.3737-1.254 1.3737-0.8172 0-1.4653-0.71857-1.4653-1.5921 0-0.94401 0.73971-1.6203 1.5499-1.6203 0.85242 0 1.1694 0.77493 1.1694 0.90878 0 0.0705-0.0564 0.0845-0.0916 0.0845-0.0634 0-0.0775-0.0423-0.0916-0.0986-0.24657-0.71857-0.87355-0.71857-0.944-0.71857-0.35224 0-0.63403 0.21135-0.79606 0.47201-0.21135 0.3311-0.21135 0.79606-0.21135 1.0497z"/><path d="m291.12 487.01v0.0423l-7e-3 0.0352v0.0423l-7e-3 0.0352v0.0352l-0.021 0.1056-7e-3 0.0282-7e-3 0.0352-0.0141 0.0282-7e-3 0.0282-0.0564 0.1128-0.0282 0.0422-0.0211 0.0211-0.0141 0.0211-0.0211 0.0211-0.0211 0.0141-0.0211 0.0211-0.0211 0.0141-0.0211 7e-3 -0.0211 0.0141-0.0282 7e-3 -0.0211 7e-3 -0.0282 7e-3 -0.0211 7e-3h-0.0564c-0.24657 0-0.37337-0.18317-0.37337-0.36633 0-0.18317 0.11976-0.37338 0.37337-0.37338 0.1409 0 0.23952 0.0705 0.28179 0.11272 7e-3 0.0141 0.0141 0.0211 0.0211 0.0211 0.0141 0 0.0141-0.0986 0.0141-0.12681 0-0.22544-0.0493-0.72562-0.49314-1.1624-0.0845-0.0845-0.0845-0.0986-0.0845-0.11977 0-0.0493 0.0352-0.0704 0.0704-0.0704 0.0775 0 0.66221 0.52836 0.66221 1.3526z"/><path d="m292.48 487.01v0.0775l-7e-3 0.0423v0.0352l-7e-3 0.0352v0.0352l-0.014 0.0704-0.0141 0.0282-7e-3 0.0352-7e-3 0.0282-0.0282 0.0564-7e-3 0.0282-0.0282 0.0564-0.0211 0.0211-0.0282 0.0422-0.0211 0.0211-0.0141 0.0211-0.0211 0.0141-0.0211 0.0211-0.0211 0.0141-0.0211 7e-3 -0.0282 0.0141-0.0211 7e-3 -0.0282 7e-3 -0.0211 7e-3 -0.0282 7e-3h-0.0564c-0.24657 0-0.37338-0.18317-0.37338-0.36633 0-0.18317 0.11977-0.37338 0.37338-0.37338 0.1409 0 0.23952 0.0705 0.28179 0.11272 7e-3 0.0141 0.0141 0.0211 0.0211 0.0211 0.0141 0 0.0141-0.0986 0.0141-0.12681 0-0.22544-0.0493-0.72562-0.49314-1.1624-0.0845-0.0845-0.0845-0.0986-0.0845-0.11977 0-0.0493 0.0352-0.0704 0.0704-0.0704 0.0775 0 0.66221 0.52836 0.66221 1.3526z"/><path d="m275.88 519.04v0.81719c0 0.6129 0.33816 0.95105 0.64108 0.95105 0.0211 0 0.12681 0 0.23248-0.0493-0.0845-0.0282-0.21134-0.11976-0.21134-0.29588 0-0.16203 0.11271-0.30293 0.30292-0.30293 0.2043 0 0.30997 0.1409 0.30997 0.30997 0 0.26066-0.26065 0.49314-0.63403 0.49314-0.48609 0-1.0849-0.37338-1.0849-1.1131v-0.81015h-0.55654v-0.21135h0.55654v-2.2684c0-0.31701-0.0775-0.31701-0.54949-0.31701v-0.21839c0.27474 7e-3 0.60585 0.0211 0.8031 0.0211 0.2818 0 0.6129 0 0.8947-0.0211v0.21839h-0.14795c-0.52131 0-0.5354 0.0775-0.5354 0.3311v2.2543h0.79606v0.21135z"/><path d="m280.1 517.53v0.0845l-7e-3 0.0775-7e-3 0.0845-0.0141 0.0775-0.0211 0.0845-0.0211 0.0775-0.0211 0.0704-0.0282 0.0775-0.0352 0.0705-0.0282 0.0704-0.0423 0.0705-0.1269 0.1902-0.0493 0.0634-0.1621 0.1621-0.0634 0.0493-0.0564 0.0423-0.1268 0.0846-0.1408 0.0704-0.1408 0.0564-0.0704 0.0211-0.0775 0.0211-0.0775 0.0141-0.155 0.014h-0.0775l-7e-3 -0.15499c0.30997 0 0.6129-0.14794 0.79607-0.45087 0.18316-0.30292 0.18316-0.70448 0.18316-0.97218 0-0.25361 0-0.63403-0.15499-0.93696-0.15498-0.31702-0.46495-0.52132-0.81719-0.52132-0.30293 0-0.6129 0.14795-0.80311 0.47201-0.17612 0.30997-0.17612 0.73266-0.17612 0.98627 0 0.27475 0 0.64812 0.16907 0.95809 0.19021 0.32407 0.52132 0.46496 0.80311 0.46496l7e-3 0.15499c-0.8806 0-1.5569-0.76084-1.5569-1.6344 0-0.90173 0.72562-1.578 1.5499-1.578 0.85242 0 1.5569 0.6904 1.5569 1.578z"/><path d="m281.47 518.35v0.76789l-0.97218-0.0775v-0.21135c0.48609 0 0.54949-0.0493 0.54949-0.39451v-1.8739c0-0.31701-0.0775-0.31701-0.54949-0.31701v-0.21839c0.27475 7e-3 0.59881 0.0211 0.79606 0.0211 0.28179 0 0.6129 0 0.89469-0.0211v0.21839h-0.14794c-0.52131 0-0.5354 0.0775-0.5354 0.3311v1.0779c0 0.69039 0.29588 1.3103 0.83128 1.3103 0.0493 0 0.0634 0 0.0775-7e-3 -0.0211-7e-3 -0.16203-0.0845-0.16203-0.2677 0-0.19726 0.14794-0.30293 0.30292-0.30293 0.12681 0 0.30293 0.0845 0.30293 0.30997 0 0.22543-0.21839 0.42269-0.52132 0.42269-0.51427 0-0.76788-0.46496-0.86651-0.76789z"/><path d="m283.87 517.56v0.155l7e-3 0.0493v0.0493l7e-3 0.0423v0.0493l0.028 0.1692 0.0141 0.0423 0.0141 0.0775 0.0211 0.0705 0.0282 0.0704 0.0211 0.0634 0.0564 0.1128 0.0352 0.0564 0.0282 0.0493 0.1056 0.1269 0.0423 0.0352 0.0352 0.0352 0.0423 0.0282 0.0352 0.0282 0.0423 0.0211 0.0352 0.0211 0.0423 0.0141 0.0423 0.0211 0.0352 0.0141 0.0423 7e-3 0.0352 7e-3 0.0423 7e-3 0.0352 7e-3h0.0352l0.0352 7e-3c0.0634 0 0.50722-7e-3 0.75379-0.26066-0.28884-0.0211-0.3311-0.23247-0.3311-0.32406 0-0.18316 0.1268-0.32406 0.32406-0.32406 0.18316 0 0.32406 0.11976 0.32406 0.33111 0 0.47904-0.53541 0.74675-1.0779 0.74675-0.87355 0-1.5217-0.7538-1.5217-1.6203 0-0.89469 0.69744-1.5921 1.5076-1.5921 0.94401 0 1.1694 0.84538 1.1694 0.91583 0 0.0634-0.0705 0.0634-0.0916 0.0634-0.0634 0-0.0775-0.0211-0.0916-0.0634-0.2043-0.65517-0.66222-0.73971-0.92287-0.73971-0.37338 0-0.98628 0.30293-0.98628 1.4301z"/><path d="m286.95 517.65v0.14794c0.0493 1.0426 0.63404 1.2117 0.87356 1.2117 0.72562 0 0.79606-0.944 0.79606-1.2117h-1.6696v-0.14794h1.9585c0.15499 0 0.17612 0 0.17612 0.14794 0 0.6904-0.38042 1.3667-1.261 1.3667-0.8172 0-1.4583-0.71857-1.4583-1.5921 0-0.93696 0.73266-1.6203 1.5428-1.6203 0.85946 0 1.1765 0.78198 1.1765 0.91583 0 0.0634-0.0564 0.0775-0.0916 0.0775-0.0634 0-0.0775-0.0352-0.0916-0.0986-0.24657-0.71858-0.88061-0.71858-0.95105-0.71858-0.35224 0-0.63404 0.21135-0.79607 0.47201-0.2043 0.3311-0.2043 0.79606-0.2043 1.0497z"/><path d="m290.36 520.15v0.0775l-7e-3 0.0423v0.0352l-7e-3 0.0352v0.0352l-0.014 0.0704-7e-3 0.0282-0.0141 0.0352-7e-3 0.0282-0.0141 0.0352-7e-3 0.0282-0.0141 0.0282-0.0141 0.0211-0.0141 0.0282-0.0141 0.0211-0.0211 0.0282-0.0141 0.0211-0.0211 0.0141-0.0141 0.0211-0.0211 0.0211-0.0633 0.0423-0.0282 7e-3 -0.0211 0.0141-0.0282 7e-3 -0.0211 7e-3h-0.0282l-0.0282 7e-3h-0.0282c-0.24657 0-0.37338-0.19021-0.37338-0.37338 0-0.18316 0.11977-0.37337 0.37338-0.37337 0.1409 0 0.23952 0.0704 0.28179 0.11271 7e-3 0.0141 0.0141 0.0211 0.0211 0.0211 0.0141 0 0.0141-0.0986 0.0141-0.12681 0-0.21839-0.0493-0.72561-0.49314-1.1554-0.0845-0.0845-0.0845-0.0986-0.0845-0.11976 0-0.0493 0.0352-0.0775 0.0704-0.0775 0.0775 0 0.66221 0.52836 0.66221 1.3526z"/><path d="m291.73 520.15v0.0423l-7e-3 0.0352v0.0423l-7e-3 0.0352v0.0352l-0.021 0.1056-7e-3 0.0282-7e-3 0.0352-0.0141 0.0282-7e-3 0.0352-0.0282 0.0564-0.0141 0.0211-0.0141 0.0282-0.0141 0.0211-0.0141 0.0282-0.0774 0.0774-0.0633 0.0423-0.0211 7e-3 -0.0282 0.0141-0.0211 7e-3 -0.0282 7e-3h-0.0211l-0.0282 7e-3h-0.0282c-0.24657 0-0.37337-0.19021-0.37337-0.37338 0-0.18316 0.11976-0.37337 0.37337-0.37337 0.1409 0 0.23953 0.0704 0.28179 0.11271 7e-3 0.0141 0.0141 0.0211 0.0211 0.0211 0.0141 0 0.0141-0.0986 0.0141-0.12681 0-0.21839-0.0493-0.72561-0.49314-1.1554-0.0845-0.0845-0.0845-0.0986-0.0845-0.11976 0-0.0493 0.0352-0.0775 0.0704-0.0775 0.0775 0 0.66221 0.52836 0.66221 1.3526z"/><path d="m276.55 486.8v-0.0775l7e-3 -0.0423v-0.0352l0.028-0.1408 7e-3 -0.0282 7e-3 -0.0352 7e-3 -0.0282 0.0423-0.0846 7e-3 -0.0282 0.0211-0.0282 0.0423-0.0633 0.0422-0.0422 0.0211-0.0141 0.0141-0.0211 0.0282-0.0141 0.0211-7e-3 0.0211-0.0141 0.0211-7e-3 0.0282-7e-3 0.0211-7e-3 0.0282-7e-3h0.0564c0.24657 0 0.37338 0.18317 0.37338 0.36633 0 0.18317-0.11977 0.37338-0.37338 0.37338-0.1409 0-0.23952-0.0705-0.28179-0.11272-7e-3 -0.0141-0.0141-0.0211-0.0211-0.0211-0.0141 0-0.0141 0.0986-0.0141 0.12681 0 0.22544 0.0493 0.72562 0.49314 1.1624 0.0845 0.0845 0.0845 0.0986 0.0845 0.11977 0 0.0493-0.0352 0.0704-0.0705 0.0704-0.0775 0-0.66221-0.52836-0.66221-1.3526z"/><path d="m275.19 486.8v-0.1198l0.014-0.0704v-0.0352l0.014-0.0704 7e-3 -0.0282 0.0141-0.0352 7e-3 -0.0282 0.0141-0.0282 7e-3 -0.0282 0.0423-0.0846 0.0141-0.0211 0.0211-0.0211 0.0141-0.0211 0.0211-0.0211 0.0141-0.0211 0.0211-0.0141 0.0211-0.0211 0.0211-0.0141 0.0211-7e-3 0.0282-0.0141 0.0422-0.014 0.0564-0.014h0.0564c0.24657 0 0.36633 0.18317 0.36633 0.36633 0 0.18317-0.11976 0.37338-0.36633 0.37338-0.14089 0-0.23952-0.0705-0.28179-0.11272-7e-3 -0.0141-0.0141-0.0211-0.0211-0.0211-0.0141 0-0.0141 0.0986-0.0141 0.12681 0 0.22544 0.0493 0.72562 0.49313 1.1624 0.0775 0.0845 0.0775 0.0986 0.0775 0.11977 0 0.0493-0.0282 0.0704-0.0704 0.0704-0.0705 0-0.65517-0.52836-0.65517-1.3526z"/><path d="m275.22 504.12v-0.0775l7e-3 -0.0423v-0.0352l0.028-0.1408 7e-3 -0.0282 7e-3 -0.0352 7e-3 -0.0282 0.0423-0.0846 7e-3 -0.0282 0.0211-0.0282 0.0423-0.0633 0.0422-0.0422 0.0211-0.0141 0.0141-0.0211 0.0282-0.0141 0.0211-7e-3 0.0211-0.0141 0.0211-7e-3 0.0282-7e-3 0.0211-7e-3 0.0282-7e-3h0.0564c0.24657 0 0.37338 0.18317 0.37338 0.36633 0 0.18317-0.11977 0.37338-0.37338 0.37338-0.1409 0-0.23952-0.0705-0.28179-0.11272-7e-3 -0.0141-0.0141-0.0211-0.0211-0.0211-0.0141 0-0.0141 0.0986-0.0141 0.12681 0 0.22544 0.0493 0.72562 0.49314 1.1624 0.0845 0.0845 0.0845 0.0986 0.0845 0.11978 0 0.0493-0.0352 0.0704-0.0705 0.0704-0.0775 0-0.66221-0.52836-0.66221-1.3526z"/><path d="m273.86 504.12v-0.1198l0.014-0.0704v-0.0352l0.014-0.0704 7e-3 -0.0282 0.0141-0.0352 7e-3 -0.0282 0.0141-0.0282 7e-3 -0.0282 0.0423-0.0846 0.0141-0.0211 0.0211-0.0211 0.0141-0.0211 0.0211-0.0211 0.0141-0.0211 0.0211-0.0141 0.0211-0.0211 0.0211-0.0141 0.0211-7e-3 0.0282-0.0141 0.0422-0.014 0.0564-0.014h0.0564c0.24657 0 0.36633 0.18317 0.36633 0.36633 0 0.18317-0.11976 0.37338-0.36633 0.37338-0.14089 0-0.23952-0.0705-0.28179-0.11272-7e-3 -0.0141-0.0141-0.0211-0.0211-0.0211-0.0141 0-0.0141 0.0986-0.0141 0.12681 0 0.22544 0.0493 0.72562 0.49313 1.1624 0.0775 0.0845 0.0775 0.0986 0.0775 0.11978 0 0.0493-0.0282 0.0704-0.0704 0.0704-0.0705 0-0.65517-0.52836-0.65517-1.3526z"/><path d="m273.49 520.79v-0.0775l7e-3 -0.0423v-0.0352l0.028-0.1408 7e-3 -0.0282 7e-3 -0.0352 7e-3 -0.0282 0.0423-0.0846 7e-3 -0.0282 0.0211-0.0282 0.0423-0.0633 0.0422-0.0422 0.0211-0.0141 0.0141-0.0211 0.0282-0.0141 0.0211-7e-3 0.0211-0.0141 0.0211-7e-3 0.0282-7e-3 0.0211-7e-3 0.0282-7e-3h0.0564c0.24657 0 0.37338 0.18317 0.37338 0.36633 0 0.18317-0.11977 0.37338-0.37338 0.37338-0.1409 0-0.23952-0.0705-0.28179-0.11272-7e-3 -0.0141-0.0141-0.0211-0.0211-0.0211-0.0141 0-0.0141 0.0986-0.0141 0.12681 0 0.22544 0.0493 0.72562 0.49314 1.1624 0.0845 0.0845 0.0845 0.0986 0.0845 0.11978 0 0.0493-0.0352 0.0704-0.0705 0.0704-0.0775 0-0.66221-0.52836-0.66221-1.3526z"/><path d="m272.13 520.79v-0.1198l0.014-0.0704v-0.0352l0.014-0.0704 7e-3 -0.0282 0.0141-0.0352 7e-3 -0.0282 0.0141-0.0282 7e-3 -0.0282 0.0423-0.0846 0.0141-0.0211 0.0211-0.0211 0.0141-0.0211 0.0211-0.0211 0.0141-0.0211 0.0211-0.0141 0.0211-0.0211 0.0211-0.0141 0.0211-7e-3 0.0282-0.0141 0.0422-0.014 0.0564-0.014h0.0564c0.24657 0 0.36633 0.18317 0.36633 0.36633 0 0.18317-0.11976 0.37338-0.36633 0.37338-0.14089 0-0.23952-0.0705-0.28179-0.11272-7e-3 -0.0141-0.0141-0.0211-0.0211-0.0211-0.0141 0-0.0141 0.0986-0.0141 0.12681 0 0.22544 0.0493 0.72562 0.49313 1.1624 0.0775 0.0845 0.0775 0.0986 0.0775 0.11978 0 0.0493-0.0282 0.0704-0.0704 0.0704-0.0705 0-0.65517-0.52836-0.65517-1.3526z"/><path d="m193.55 482.93v-0.0775l7e-3 -0.0423v-0.0352l0.028-0.1408 7e-3 -0.0282 7e-3 -0.0352 7e-3 -0.0282 0.0423-0.0846 7e-3 -0.0282 0.0211-0.0282 0.0423-0.0633 0.0422-0.0422 0.0211-0.0141 0.0141-0.0211 0.0282-0.0141 0.0211-7e-3 0.0211-0.0141 0.0211-7e-3 0.0282-7e-3 0.0211-7e-3 0.0282-7e-3h0.0564c0.24657 0 0.37338 0.18317 0.37338 0.36633 0 0.18317-0.11977 0.37338-0.37338 0.37338-0.1409 0-0.23952-0.0705-0.28179-0.11272-7e-3 -0.0141-0.0141-0.0211-0.0211-0.0211-0.0141 0-0.0141 0.0986-0.0141 0.12681 0 0.22544 0.0493 0.72562 0.49314 1.1624 0.0845 0.0845 0.0845 0.0986 0.0845 0.11978 0 0.0493-0.0352 0.0704-0.0705 0.0704-0.0775 0-0.66221-0.52836-0.66221-1.3526z"/><path d="m192.19 482.93v-0.1198l0.014-0.0704v-0.0352l0.014-0.0704 7e-3 -0.0282 0.0141-0.0352 7e-3 -0.0282 0.0141-0.0282 7e-3 -0.0282 0.0423-0.0846 0.0141-0.0211 0.0211-0.0211 0.0141-0.0211 0.0211-0.0211 0.0141-0.0211 0.0211-0.0141 0.0211-0.0211 0.0211-0.0141 0.0211-7e-3 0.0282-0.0141 0.0422-0.014 0.0564-0.014h0.0564c0.24657 0 0.36633 0.18317 0.36633 0.36633 0 0.18317-0.11976 0.37338-0.36633 0.37338-0.14089 0-0.23952-0.0705-0.28179-0.11272-7e-3 -0.0141-0.0141-0.0211-0.0211-0.0211-0.0141 0-0.0141 0.0986-0.0141 0.12681 0 0.22544 0.0493 0.72562 0.49313 1.1624 0.0775 0.0845 0.0775 0.0986 0.0775 0.11978 0 0.0493-0.0282 0.0704-0.0704 0.0704-0.0705 0-0.65517-0.52836-0.65517-1.3526z"/><path d="m200.03 590.13v-0.0775l7e-3 -0.0423v-0.0352l0.028-0.1408 7e-3 -0.0282 7e-3 -0.0352 7e-3 -0.0282 0.0423-0.0846 7e-3 -0.0282 0.0211-0.0282 0.0423-0.0633 0.0422-0.0422 0.0211-0.0141 0.0141-0.0211 0.0282-0.0141 0.0211-7e-3 0.0211-0.0141 0.0211-7e-3 0.0282-7e-3 0.0211-7e-3 0.0282-7e-3h0.0564c0.24657 0 0.37338 0.18317 0.37338 0.36633 0 0.18317-0.11977 0.37338-0.37338 0.37338-0.1409 0-0.23952-0.0705-0.28179-0.11272-7e-3 -0.0141-0.0141-0.0211-0.0211-0.0211-0.0141 0-0.0141 0.0986-0.0141 0.12681 0 0.22544 0.0493 0.72562 0.49314 1.1624 0.0845 0.0845 0.0845 0.0986 0.0845 0.11978 0 0.0493-0.0352 0.0704-0.0705 0.0704-0.0775 0-0.66221-0.52836-0.66221-1.3526z"/><path d="m198.67 590.13v-0.1198l0.014-0.0704v-0.0352l0.014-0.0704 7e-3 -0.0282 0.0141-0.0352 7e-3 -0.0282 0.0141-0.0282 7e-3 -0.0282 0.0423-0.0846 0.0141-0.0211 0.0211-0.0211 0.0141-0.0211 0.0211-0.0211 0.0141-0.0211 0.0211-0.0141 0.0211-0.0211 0.0211-0.0141 0.0211-7e-3 0.0282-0.0141 0.0422-0.014 0.0564-0.014h0.0564c0.24657 0 0.36633 0.18317 0.36633 0.36633 0 0.18317-0.11976 0.37338-0.36633 0.37338-0.14089 0-0.23952-0.0705-0.28179-0.11272-7e-3 -0.0141-0.0141-0.0211-0.0211-0.0211-0.0141 0-0.0141 0.0986-0.0141 0.12681 0 0.22544 0.0493 0.72562 0.49313 1.1624 0.0775 0.0845 0.0775 0.0986 0.0775 0.11978 0 0.0493-0.0282 0.0704-0.0704 0.0704-0.0705 0-0.65517-0.52836-0.65517-1.3526z"/><path d="m278.11 629.3v0.0775l-7e-3 0.0845-0.0141 0.0845-0.0282 0.155-0.0211 0.0775-0.0282 0.0775-0.0282 0.0704-0.0282 0.0775-0.0352 0.0705-0.0352 0.0634-0.0423 0.0704-0.0423 0.0634-0.0493 0.0634-0.0493 0.0564-0.0493 0.0563-0.0564 0.0564-0.1128 0.0986-0.0634 0.0493-0.1268 0.0846-0.0634 0.0352-0.0704 0.0282-0.0704 0.0352-0.0705 0.0211-0.0775 0.0282-0.0704 0.0141-0.155 0.0282-0.0775 7e-3h-0.0775l-0.0141-0.15499c0.30997 0 0.6129-0.15499 0.79606-0.45087 0.18317-0.30292 0.18317-0.71152 0.18317-0.97923 0-0.24656 0-0.62698-0.15499-0.93696-0.15498-0.30997-0.46496-0.51427-0.81015-0.51427-0.30293 0-0.6129 0.14794-0.80311 0.46496-0.17612 0.30997-0.17612 0.73971-0.17612 0.98627 0 0.27475 0 0.65517 0.16908 0.96514 0.1902 0.31702 0.52131 0.46496 0.79606 0.46496l0.0141 0.15499c-0.8806 0-1.564-0.76084-1.564-1.6344 0-0.90878 0.73266-1.578 1.5499-1.578 0.85242 0 1.564 0.68335 1.564 1.578z"/><path d="m279.52 630.44v2.2191l-1.0144-0.0775v-0.21135c0.49313 0 0.54949-0.0493 0.54949-0.39451v-4.1705h0.17612c7e-3 7e-3 0.0634 0.10567 0.25361 0.42973 0.10568-0.15499 0.40156-0.50723 0.91583-0.50723l-0.0282 0.15499c-0.30997 0-0.56359 0.16907-0.73266 0.42269-0.0986 0.14794-0.0986 0.16907-0.0986 0.29588v1.4442c0 0.13385 0 0.14089 0.0775 0.25361 0.27474 0.38746 0.66221 0.44382 0.82424 0.44382 0.31701 0 0.57063-0.18316 0.7397-0.44382 0.18317-0.28884 0.2043-0.69039 0.2043-0.97923 0-0.25361-0.0141-0.6763-0.21839-0.99332-0.14794-0.21134-0.41564-0.44382-0.79606-0.44382l0.0282-0.15499c0.83833 0 1.571 0.68335 1.571 1.5921 0 0.88765-0.69039 1.578-1.4864 1.578-0.5495 0-0.85243-0.33111-0.96514-0.45792z"/><path d="m284.07 630.9-1.0638-0.0775v-0.21838c0.5354 0 0.59881-0.0493 0.59881-0.38747v-2.7756c0-0.31702-0.0634-0.91583-0.50723-0.91583-0.0423 0-0.19725 0-0.38042 0.0916 0.10567 0.0282 0.24657 0.12681 0.24657 0.31702 0 0.18317-0.12681 0.31702-0.32406 0.31702-0.19726 0-0.32406-0.13385-0.32406-0.31702 0-0.36633 0.39451-0.56358 0.78902-0.56358 0.52836 0 0.96513 0.45086 0.96513 1.0849z"/><path d="m284.07 632.11v0.0352l-7e-3 0.0211v0.0141l-7e-3 0.0211v0.0141l-7e-3 0.0211-7e-3 0.0141-7e-3 0.0211-7e-3 0.0141-0.0141 0.0141-0.014 0.0282-0.0282 0.0282-7e-3 0.0141-0.0141 0.0141-0.0141 7e-3 -0.0141 0.0141-0.0141 7e-3 -0.0141 0.0141-0.0211 7e-3 -0.0282 0.014-0.0211 7e-3 -0.0141 7e-3 -0.0211 7e-3h-0.0141l-0.0211 7e-3h-0.0352l-0.0211 7e-3c-0.2043 0-0.37338-0.16907-0.37338-0.37337s0.16908-0.37338 0.37338-0.37338 0.37337 0.16908 0.37337 0.37338z"/><path d="m285.52 629.42 7e-3 0.14794c0.0423 1.0426 0.63403 1.2188 0.87356 1.2188 0.71857 0 0.78901-0.944 0.78901-1.2188h-1.6626l-7e-3 -0.14794h1.9585c0.15499 0 0.17612 0 0.17612 0.14794 0 0.69743-0.38042 1.3737-1.254 1.3737-0.8172 0-1.4653-0.71857-1.4653-1.5992 0-0.93695 0.7397-1.6133 1.5428-1.6133 0.85947 0 1.1765 0.77493 1.1765 0.90878 0 0.0705-0.0564 0.0845-0.0916 0.0845-0.0634 0-0.0775-0.0423-0.0916-0.0986-0.24657-0.71857-0.8806-0.71857-0.95105-0.71857-0.3452 0-0.62699 0.21135-0.78902 0.46496-0.21135 0.33815-0.21135 0.80311-0.21135 1.0497z"/><path d="m288.68 629.32 7e-3 0.0564v0.1479l0.014 0.0986v0.0423l7e-3 0.0493 0.021 0.1269 7e-3 0.0352 0.0422 0.155 0.0211 0.0634 0.0564 0.1268 0.0282 0.0564 0.0352 0.0564 0.0282 0.0493 0.1056 0.1269 0.0352 0.0352 0.0423 0.0282 0.0352 0.0282 0.0423 0.0282 0.0423 0.0211 0.0352 0.0211 0.0423 0.0211 0.0352 0.0141 0.0846 0.0282 0.0352 7e-3 0.0423 7e-3 0.0352 7e-3h0.0704c0.0634 0 0.50722-7e-3 0.75379-0.26066-0.28883-0.0211-0.3311-0.22544-0.3311-0.31702 0-0.18316 0.1268-0.32406 0.32406-0.32406 0.18316 0 0.32406 0.11976 0.32406 0.33111 0 0.472-0.53541 0.74675-1.0779 0.74675-0.8806 0-1.5217-0.7538-1.5217-1.6203 0-0.90174 0.69744-1.5921 1.5076-1.5921 0.94401 0 1.1694 0.83834 1.1694 0.90878 0 0.0705-0.0704 0.0705-0.0916 0.0705-0.0634 0-0.0775-0.0282-0.0916-0.0705-0.2043-0.64812-0.66222-0.73266-0.92287-0.73266-0.37338 0-0.99332 0.30293-0.99332 1.423z"/><path d="m292.2 630.6h1.0074v0.21838h-1.0074v1.2892h-0.17612c-7e-3 -0.57767-0.21839-1.3244-0.90173-1.3526v-0.15498h0.59176v-1.9303c0-0.85947 0.65516-0.94401 0.90877-0.94401 0.50019 0 0.69744 0.49314 0.69744 0.94401v0.40155h-0.17611v-0.38746c0-0.51427-0.21136-0.78198-0.47201-0.78198-0.472 0-0.472 0.63404-0.472 0.7538z"/><path d="m294.79 631.92v0.0423l-7e-3 0.0352v0.0352l-7e-3 0.0423v0.0352l-0.014 0.0704-7e-3 0.0282-0.014 0.0704-0.0141 0.0282-7e-3 0.0282-0.0423 0.0846-0.0141 0.0211-0.0141 0.0282-0.0141 0.0211-0.0211 0.0211-0.0141 0.0211-0.0211 0.0211-0.1055 0.0705-0.0282 7e-3 -0.0211 7e-3 -0.0282 7e-3 -0.0211 7e-3h-0.0564c-0.24657 0-0.37337-0.18317-0.37337-0.36633 0-0.18317 0.11976-0.37338 0.37337-0.37338 0.1409 0 0.23952 0.0705 0.28179 0.11272 7e-3 0.0141 0.0141 0.0211 0.0211 0.0211 0.0141 0 0.0141-0.0986 0.0141-0.12681 0-0.22543-0.0493-0.72562-0.49314-1.1624-0.0845-0.0845-0.0845-0.0986-0.0845-0.11977 0-0.0493 0.0352-0.0775 0.0704-0.0775 0.0775 0 0.66221 0.53541 0.66221 1.3596z"/><path d="m296.15 631.92v0.0775l-7e-3 0.0352v0.0423l-7e-3 0.0352v0.0352l-7e-3 0.0352-7e-3 0.0282-7e-3 0.0352-0.0141 0.0352-7e-3 0.0282-0.0141 0.0282-7e-3 0.0282-0.0282 0.0564-0.0141 0.0211-0.0141 0.0282-0.0211 0.0211-0.0141 0.0211-0.0211 0.0211-0.0141 0.0211-0.0844 0.0564-0.0282 0.0141-0.0211 7e-3 -0.0282 7e-3 -0.0211 7e-3 -0.0282 7e-3h-0.0564c-0.24657 0-0.37338-0.18317-0.37338-0.36633 0-0.18317 0.11977-0.37338 0.37338-0.37338 0.14089 0 0.23952 0.0705 0.28179 0.11272 7e-3 0.0141 0.0141 0.0211 0.0211 0.0211 0.0141 0 0.0141-0.0986 0.0141-0.12681 0-0.22543-0.0493-0.72562-0.49314-1.1624-0.0845-0.0845-0.0845-0.0986-0.0845-0.11977 0-0.0493 0.0352-0.0775 0.0704-0.0775 0.0775 0 0.66221 0.53541 0.66221 1.3596z"/><path d="m273.83 631.77v-0.0775l7e-3 -0.0423v-0.0352l0.028-0.1408 7e-3 -0.0282 7e-3 -0.0352 7e-3 -0.0282 0.0423-0.0846 7e-3 -0.0282 0.0211-0.0282 0.0423-0.0633 0.0422-0.0422 0.0211-0.0141 0.0141-0.0211 0.0282-0.0141 0.0211-7e-3 0.0211-0.0141 0.0211-7e-3 0.0282-7e-3 0.0211-7e-3 0.0282-7e-3h0.0564c0.24657 0 0.37338 0.18317 0.37338 0.36633 0 0.18317-0.11977 0.37338-0.37338 0.37338-0.1409 0-0.23952-0.0705-0.28179-0.11272-7e-3 -0.0141-0.0141-0.0211-0.0211-0.0211-0.0141 0-0.0141 0.0986-0.0141 0.12681 0 0.22544 0.0493 0.72562 0.49314 1.1624 0.0845 0.0845 0.0845 0.0986 0.0845 0.11979 0 0.0493-0.0352 0.0704-0.0705 0.0704-0.0775 0-0.66221-0.52836-0.66221-1.3526z"/><path d="m272.47 631.77v-0.1198l0.014-0.0704v-0.0352l0.014-0.0704 7e-3 -0.0282 0.0141-0.0352 7e-3 -0.0282 0.0141-0.0282 7e-3 -0.0282 0.0423-0.0846 0.0141-0.0211 0.0211-0.0211 0.0141-0.0211 0.0211-0.0211 0.0141-0.0211 0.0211-0.0141 0.0211-0.0211 0.0211-0.0141 0.0211-7e-3 0.0282-0.0141 0.0422-0.014 0.0564-0.014h0.0564c0.24657 0 0.36633 0.18317 0.36633 0.36633 0 0.18317-0.11976 0.37338-0.36633 0.37338-0.14089 0-0.23952-0.0705-0.28179-0.11272-7e-3 -0.0141-0.0141-0.0211-0.0211-0.0211-0.0141 0-0.0141 0.0986-0.0141 0.12681 0 0.22544 0.0493 0.72562 0.49313 1.1624 0.0775 0.0845 0.0775 0.0986 0.0775 0.11979 0 0.0493-0.0282 0.0704-0.0704 0.0704-0.0705 0-0.65517-0.52836-0.65517-1.3526z"/><path d="m282.2 611.68v0.46496l-1.0144-0.0775v-0.21839c0.50018 0 0.5495-0.0423 0.5495-0.35224v-3.2758c0-0.30997-0.0775-0.30997-0.5495-0.30997v-0.21839c0.23952 7e-3 0.60585 0.0211 0.78902 0.0211 0.19021 0 0.5495-0.0141 0.79606-0.0211v0.21839c-0.472 0-0.54949 0-0.54949 0.30997v1.2399l0.0986 0.0916c-0.0986 0.14794-0.0986 0.15498-0.0986 0.29588v1.5569c0.2043 0.35929 0.54949 0.56359 0.90878 0.56359 0.50722 0 0.93696-0.61995 0.93696-1.409 0-0.84537-0.49314-1.4371-1.0074-1.4371-0.28179 0-0.54949 0.1409-0.7397 0.42974l-0.0986-0.0916c0.0352-0.11271 0.3311-0.48609 0.86651-0.48609 0.83129 0 1.564 0.68335 1.564 1.5851 0 0.88765-0.68335 1.5851-1.4653 1.5851-0.5495 0-0.84538-0.30998-0.98628-0.46496z"/><path d="m288.39 610.54v0.0845l-7e-3 0.0845-7e-3 0.0775-0.0141 0.0845-0.0211 0.0775-0.0141 0.0775-0.0282 0.0775-0.0564 0.1408-0.0352 0.0704-0.0423 0.0705-0.0352 0.0704-0.0493 0.0634-0.0423 0.0634-0.0986 0.1128-0.0564 0.0564-0.1128 0.0986-0.0634 0.0493-0.0634 0.0423-0.0634 0.0352-0.0704 0.0352-0.0634 0.0352-0.0704 0.0282-0.0775 0.0282-0.0704 0.0211-0.0775 0.0211-0.0704 0.0141-0.0775 7e-3 -0.0845 7e-3 -0.0775 7e-3 -7e-3 -0.15498c0.30997 0 0.6129-0.15499 0.79606-0.45791 0.18317-0.30293 0.18317-0.70449 0.18317-0.97219 0-0.25361 0-0.62699-0.15499-0.93696-0.15499-0.31701-0.46496-0.51427-0.8172-0.51427-0.30292 0-0.6129 0.1409-0.80311 0.46496-0.17612 0.30997-0.17612 0.73266-0.17612 0.98627 0 0.27475 0 0.65517 0.17612 0.9581 0.18317 0.32406 0.51428 0.472 0.79607 0.472l7e-3 0.15498c-0.87355 0-1.5569-0.76788-1.5569-1.6414 0-0.90173 0.73266-1.571 1.5499-1.571 0.85242 0 1.5569 0.68335 1.5569 1.571z"/><path d="m289.57 610.66 7e-3 0.14794c0.0352 1.0426 0.62699 1.2188 0.86651 1.2188 0.72562 0 0.79606-0.94401 0.79606-1.2188h-1.6626l-7e-3 -0.14794h1.9585c0.15499 0 0.17612 0 0.17612 0.14794 0 0.69039-0.38042 1.3737-1.261 1.3737-0.8172 0-1.4583-0.72561-1.4583-1.5992 0-0.93696 0.73266-1.6133 1.5428-1.6133 0.85946 0 1.1765 0.77493 1.1765 0.90878 0 0.0705-0.0564 0.0845-0.0916 0.0845-0.0634 0-0.0775-0.0423-0.0916-0.0986-0.24657-0.71857-0.88061-0.71857-0.95105-0.71857-0.35224 0-0.63404 0.2043-0.78902 0.46496-0.21135 0.33815-0.21135 0.79606-0.21135 1.0497z"/><path d="m292.68 611.45v-1.8739c0-0.31702-0.0775-0.31702-0.54245-0.31702v-0.21135c0.23952 7e-3 0.59881 0.0211 0.78902 0.0211 0.18316 0 0.54949-0.0141 0.78902-0.0211v0.21135c-0.47201 0-0.5495 0-0.5495 0.31702v1.2892c0 0.72562 0.50018 1.1201 0.95105 1.1201 0.44382 0 0.52132-0.38042 0.52132-0.77493v-1.6344c0-0.31702-0.0775-0.31702-0.5495-0.31702v-0.21135c0.24657 7e-3 0.59881 0.0211 0.78902 0.0211 0.18316 0 0.54949-0.0141 0.78902-0.0211v0.21135c-0.472 0-0.5495 0-0.5495 0.31702v1.2892c0 0.72562 0.50018 1.1201 0.95104 1.1201 0.44384 0 0.52133-0.38042 0.52133-0.77493v-1.6344c0-0.31702-0.0775-0.31702-0.54951-0.31702v-0.21135c0.24658 7e-3 0.60587 0.0211 0.79608 0.0211 0.18315 0 0.54244-0.0141 0.78196-0.0211v0.21135c-0.35929 0-0.5354 0-0.54244 0.21134v1.3385c0 0.59881 0 0.81719-0.21839 1.0708-0.0986 0.11976-0.33111 0.26066-0.73971 0.26066-0.59176 0-0.90173-0.42269-1.0215-0.6904-0.0986 0.6129-0.6129 0.6904-0.92992 0.6904-0.51427 0-0.84537-0.30293-1.0426-0.73971v0.73971l-0.98627-0.0775v-0.21839c0.48609 0 0.54245-0.0493 0.54245-0.39451z"/><path d="m298.83 613.17v0.1127l-7e-3 0.0352v0.0352l-0.028 0.1408-7e-3 0.0282-0.0141 0.0352-7e-3 0.0282-0.0423 0.0846-0.0141 0.0211-0.0141 0.0282-0.0141 0.0211-0.0211 0.0211-0.0141 0.0211-0.0211 0.0141-0.0211 0.0211-0.0633 0.0423-0.0211 7e-3 -0.0282 0.0141-0.0211 7e-3 -0.0282 7e-3h-0.0282l-0.0282 7e-3h-0.0211c-0.24656 0-0.37338-0.19021-0.37338-0.37338 0-0.18316 0.11977-0.36633 0.37338-0.36633 0.13386 0 0.23952 0.0705 0.27476 0.11272 7e-3 0.0141 0.0141 0.0211 0.0211 0.0211 0.0141 0 0.0141-0.0986 0.0141-0.1268 0-0.22544-0.0493-0.73266-0.48609-1.1624-0.0845-0.0845-0.0845-0.0986-0.0845-0.11976 0-0.0493 0.0352-0.0775 0.0704-0.0775 0.0775 0 0.65517 0.52836 0.65517 1.3596z"/><path d="m300.2 613.17v0.0775l-7e-3 0.0352v0.0352l-0.035 0.176-7e-3 0.0282-7e-3 0.0352-0.0423 0.0846-7e-3 0.0282-0.0211 0.0211-0.0141 0.0282-0.0282 0.0422-0.0211 0.0211-0.0211 0.0141-0.0141 0.0211-0.0422 0.0282-0.0282 0.0141-0.0211 7e-3 -0.0211 0.0141-0.0282 7e-3 -0.0211 7e-3h-0.0282l-0.0282 7e-3h-0.0282c-0.24656 0-0.37338-0.19021-0.37338-0.37338 0-0.18316 0.11977-0.36633 0.37338-0.36633 0.1409 0 0.23953 0.0705 0.28179 0.11272 7e-3 0.0141 0.0141 0.0211 0.0211 0.0211 0.0141 0 0.0141-0.0986 0.0141-0.1268 0-0.22544-0.0493-0.73266-0.49313-1.1624-0.0845-0.0845-0.0845-0.0986-0.0845-0.11976 0-0.0493 0.0352-0.0775 0.0704-0.0775 0.0775 0 0.66221 0.52836 0.66221 1.3596z"/><path d="m279.48 612.32v-0.0775l7e-3 -0.0423v-0.0352l0.028-0.1408 7e-3 -0.0282 7e-3 -0.0352 7e-3 -0.0282 0.0423-0.0846 7e-3 -0.0282 0.0211-0.0282 0.0423-0.0633 0.0422-0.0422 0.0211-0.0141 0.0141-0.0211 0.0282-0.0141 0.0211-7e-3 0.0211-0.0141 0.0211-7e-3 0.0282-7e-3 0.0211-7e-3 0.0282-7e-3h0.0564c0.24657 0 0.37338 0.18317 0.37338 0.36633 0 0.18317-0.11977 0.37338-0.37338 0.37338-0.1409 0-0.23952-0.0705-0.28179-0.11272-7e-3 -0.0141-0.0141-0.0211-0.0211-0.0211-0.0141 0-0.0141 0.0986-0.0141 0.12681 0 0.22544 0.0493 0.72562 0.49314 1.1624 0.0845 0.0845 0.0845 0.0986 0.0845 0.11978 0 0.0493-0.0352 0.0704-0.0705 0.0704-0.0775 0-0.66221-0.52836-0.66221-1.3526z"/><path d="m278.12 612.32v-0.1198l0.014-0.0704v-0.0352l0.014-0.0704 7e-3 -0.0282 0.0141-0.0352 7e-3 -0.0282 0.0141-0.0282 7e-3 -0.0282 0.0423-0.0846 0.0141-0.0211 0.0211-0.0211 0.0141-0.0211 0.0211-0.0211 0.0141-0.0211 0.0211-0.0141 0.0211-0.0211 0.0211-0.0141 0.0211-7e-3 0.0282-0.0141 0.0422-0.014 0.0564-0.014h0.0564c0.24657 0 0.36633 0.18317 0.36633 0.36633 0 0.18317-0.11976 0.37338-0.36633 0.37338-0.14089 0-0.23952-0.0705-0.28179-0.11272-7e-3 -0.0141-0.0141-0.0211-0.0211-0.0211-0.0141 0-0.0141 0.0986-0.0141 0.12681 0 0.22544 0.0493 0.72562 0.49313 1.1624 0.0775 0.0845 0.0775 0.0986 0.0775 0.11978 0 0.0493-0.0282 0.0704-0.0704 0.0704-0.0705 0-0.65517-0.52836-0.65517-1.3526z"/></g><g fill="none" stroke="#000"><g stroke-miterlimit="10.433" stroke-width=".26667"><g stroke-opacity=".64314"><path d="m241.28 619.36 30.116 10.133"/><path d="m251.89 613.28 19.511 16.214"/><path d="m262.85 620.32 8.5526 9.1762"/><path d="m262.94 602.86c0.35636 0.26727 15.413 6.6817 15.413 6.6817"/></g><path d="m214.48 593.63 17.261 17.009" stroke-opacity=".64251"/><path d="m241.95 604.59-27.466-10.961 33.64-1.3859" stroke-opacity=".64251"/><g stroke-opacity=".64314"><path d="m217.09 481.78c0.44097 0 15.182 6.4886 15.182 6.4886"/><path d="m257.15 484.55 17.818-0.26727"/><path d="m250.55 503.26 22.896-1.5145"/><path d="m259.73 494.88 13.72 6.8599"/><path d="m237.9 497.55 35.547 4.1872"/><path d="m256.79 512.43 15.858 5.4345-31.805-3.1181"/></g></g><rect transform="scale(1,-1)" x="341.8" y="-616.83" width="63.037" height="85.87" fill="none" opacity=".97" stroke="#000" stroke-dasharray="5.69205616, 0.94867602" stroke-linecap="square" stroke-linejoin="bevel" stroke-miterlimit="4" stroke-opacity=".37681" stroke-width=".94868"/></g></g>
  <g fill-opacity=".44928">
   <g fill-opacity=".44928">
    <circle cx="233.65" cy="150.05" r="4.6487" fill="#0065ff" opacity=".97"/>
    <circle cx="209.98" cy="183.16" r="4.6487" fill="#0065ff" opacity=".97"/>
    <circle cx="233.66" cy="183.08" r="4.6487" fill="#008300" opacity=".97"/>
    <circle cx="257.03" cy="150.61" r="4.6487" fill="#008300" opacity=".97"/>
   </g>
   <circle cx="209.8" cy="150.86" r="4.6487" fill="#f00" opacity=".97"/>
   <circle cx="209.43" cy="117.78" r="4.6487" fill="#f00" opacity=".97"/>
   <circle cx="256.89" cy="182.36" r="4.6487" fill="#f80aff" opacity=".97"/>
   <circle cx="233.24" cy="117.59" r="4.6487" fill="#f00" opacity=".97"/>
  </g>
 </g>
</svg>
