<svg width="150.36mm" height="66.676mm" version="1.1" viewBox="0 0 261.02 96.022" xmlns="http://www.w3.org/2000/svg">
 <defs>
  <marker id="Arrow1Mend" overflow="visible" orient="auto">
   <path transform="matrix(-.4 0 0 -.4 -4 0)" d="m0 0 5-5-17.5 5 17.5 5z" fill-opacity=".42029" fill-rule="evenodd" stroke="#000" stroke-opacity=".42029" stroke-width="1pt"/>
  </marker>
  <marker id="a" overflow="visible" orient="auto">
   <path transform="matrix(-.4 0 0 -.4 -4 0)" d="m0 0 5-5-17.5 5 17.5 5z" fill-opacity=".42029" fill-rule="evenodd" stroke="#000" stroke-opacity=".42029" stroke-width="1pt"/>
  </marker>
 </defs>
 <g transform="translate(-4.8607 -35.304)">
  <g fill="none" stroke="#000009" stroke-opacity=".56039" stroke-width=".8">
   <path d="m29.104 30.527c2.902 4.929 6.7456 12.183 7.7958 15.261 1.1458 2.8804-7e-3 7.7181-0.51972 8.1737-4.0544 2.1829-8.2599 6.4365-9.3549 7.3705-1.6825 1.5537-4.9391 5.1342-7.3233 7.9848-2.364 2.9044-4.3387 6.761-5.2444 9.8274-1.2082 4.0322-1.8228 9.0184-2.3624 11.481-0.37396 1.707-0.98761 13.93-0.94494 14.741 0.18899 3.5908 0.58154 8.7389 0.94494 10.961 0.17181 1.9286 1.9347 6.8155 2.7403 10.111"/>
   <path d="m39.614 53.7c-2.6932 1.8986-4.6244 4.0115-6.1589 6.2359l0.49272-0.12991"/>
   <path d="m42.337 53.336c-1.6563 3.9848-2.468 7.8641-3.449 11.764" opacity=".97"/>
   <path d="m53.383 74.005c-0.19003-7.3241-2.124-14.732-6.8981-21.167"/>
   <path d="m61.437 68.046c-1.6186-4.62-3.6504-11.109-13.04-15.403"/>
   <path d="m53.106 52.071-14.836 1.6064"/>
   <path d="m48.381 42.339c-0.7567 2.2364-1.5235 4.4727-1.8899 6.7091"/>
   <path d="m37.939 42.339c2.3013 3.2084 2.634 4.4306 2.9722 7.215"/>
   <path d="m58.74 34.661c-2.6375 3.4029-5.128 7.9176-7.2406 11.93"/>
   <path d="m41.483 34.685c1.6903 3.2431 1.5309 6.5949 1.7954 9.9219"/>
   <path d="m29.104 30.527c-0.18609-0.27993-0.19687-0.6828-0.062-1.1519 0.48655-1.6925 2.869-4.2466 5.7536-4.996 1.0127-0.16069 5.611-0.54581 6.4805-0.50637 2.6601 0.12066 3.8399 0.48812 5.6873 2.1185 1.5243 1.087 2.5112 0.41908 4.8192 0.37798 2.0899-0.1722 3.3724-0.62089 5.7641-0.18899 1.6817 0.2738 4.4241 1.1275 4.4412 2.0789-0.0631 0.93421-0.8912 1.7623-2.0789 1.7954 0.58503 0.26217 1.0181 0.37242 1.8899 0.92131 0.32482 0.3642 0.64391 0.46257 0.56697 1.5355-3.1042 4.5499-9.5615 14.144-9.3549 16.064 0.80515 1.3374 0.98743 2.5363 0.0945 3.4963"/>
   <path d="m40.184 25.826c-3.2926-0.28425-6.3029 1.604-7.276 2.3624-0.90638 0.71181-1.3888 2.3105 0.63782 2.1261 2.5469-0.2376 11.33-2.6246 11.127-0.85044-0.28228 1.8731-2.9018 2.2373-3.201 4.9964-0.24212 1.7828 7.2939 1.658 8.9415 0.74414 1.5675-0.96448 5.5506-0.34552 7.3705-0.28348 1.3138 0.0529 1.6282-1.3638 1.6536-1.9371-0.11375-0.92734-1.8227-0.81605-1.8899-1.6064-0.14682-1.1047 1.2385-1.5548 2.3624-1.3229"/>
   <path d="m12.095 116.33c0.05365 2.7446-0.59404 5.8811-1.5119 7.843-1.4783 3.235-5.7168 9.014-5.2917 9.2604 0.51415 1.6536 2.4475 1.6989 4.2522 1.8899 1.1322 0.01 7.1682-1.4388 11.251-1.9004 9.2923 1.838 10.294 2.3413 15.491 3.6957 4.8667 1.3887 10.01 1.462 15.119 1.7009 5.7333-0.0779 9.1957-1.3349 15.284-2.386 5.1651-0.67646 10.101-2.0832 14.954-4.1341 1.9393-0.86386 3.4759-1.6826 5.0082-3.4018-2.4502-3.9163-6.224-6.6679-7.2524-11.835"/>
   <path d="m29.884 125.26c1.4449 3.8041 6.6323 6.0248 11.954 7.6304 6.5861 2.003 19.83 1.8862 29.766 2.5513"/>
   <path d="m70.091 129.7c3.281 1.5379 8.7018 2.5547 14.403 0.89839"/>
   <path d="m81.454 113.97-5.4806 7.3705"/>
   <path d="m80.698 108.39-6.7091 11.056"/>
   <path d="m79.281 110.94c1.265 0.97073 2.1317 1.9689 2.1734 3.0238"/>
   <path d="m53.106 52.071 8.599 6.6146c4.7102 2.7054 7.5272 6.8672 10.678 10.772 3.8246 4.103 5.71 9.542 6.7091 15.592 0.53547 7.78 2.971 15.784 1.6064 23.34"/>
   <path d="m47.058 34.59c0.1221-0.34452 0.30398-2.1588 0.27768-4.0681-0.0305-2.2184-0.37218-4.5309-0.37218-4.5309"/>
   <path d="m44.696 29.357c-0.0401 0.16483-0.16046 1.285 0.1198 3.4887 0.1092 0.85859 0.94397 2.4722 0.93144 2.4408"/>
   <path d="m37.372 49.993c2.2206-0.0945 15.639-1.4174 15.639-1.4174"/>
   <path d="m40.042 25.692c-0.0119 1.1638 0.14909 2.0655 0.63784 2.8584"/>
   <path d="m36.924 52.686c0.16968-0.0121 4.5983-0.51045 8.7562-1.315 3.9709-0.76835 7.8776-1.658 7.5913-2.0632"/>
  </g>
  <g fill="#f00" fill-opacity=".44928">
   <circle cx="33.204" cy="82.99" r="4.6487" opacity=".97"/>
   <circle cx="57.452" cy="121.24" r="4.6487" opacity=".97"/>
   <circle cx="65.862" cy="80.136" r="4.6487" opacity=".97"/>
   <circle cx="48.948" cy="99.98" r="4.6487" opacity=".97"/>
   <circle cx="21.356" cy="120.86" r="4.6487" opacity=".97"/>
  </g>
  <g fill="#0069ff" fill-opacity=".44928">
   <circle cx="33.451" cy="104.23" r="4.6487" opacity=".97"/>
   <circle cx="69.926" cy="92.798" r="4.6487" opacity=".97"/>
   <circle cx="43.373" cy="122.75" r="4.6487" opacity=".97"/>
   <circle cx="49.893" cy="80.892" r="4.6487" opacity=".97"/>
   <circle cx="19.371" cy="95.539" r="4.6487" opacity=".97"/>
   <circle cx="64.122" cy="105.89" r="4.6487" opacity=".97"/>
  </g>
  <g fill="none" stroke="#000009" stroke-linecap="square" stroke-linejoin="bevel" stroke-opacity=".31884" stroke-width=".965">
   <rect x="143.79" y="75.968" width="17.373" height="17.373" opacity=".97"/>
   <rect x="161.16" y="75.968" width="17.373" height="17.373" opacity=".97"/>
   <rect x="178.54" y="75.968" width="17.373" height="17.373" opacity=".97"/>
   <rect x="195.91" y="75.968" width="17.373" height="17.373" opacity=".97"/>
   <rect x="213.28" y="75.968" width="17.373" height="17.373" opacity=".97"/>
   <rect x="230.65" y="75.968" width="17.373" height="17.373" opacity=".97"/>
   <rect x="248.03" y="75.968" width="17.373" height="17.373" opacity=".97"/>
  </g>
  <g fill-opacity=".44928">
   <circle cx="152.89" cy="85.333" r="4.6487" fill="#f00" opacity=".97"/>
   <circle cx="170.47" cy="85.333" r="4.6487" fill="#0069ff" opacity=".97"/>
   <circle cx="187.67" cy="85.522" r="4.6487" fill="#0065ff" opacity=".97"/>
  </g>
  <path d="m92.074 64.609c16.758-13.784 29.099-8.6377 40.625 0" fill="none" marker-end="url(#Arrow1Mend)" stroke="#000" stroke-opacity=".54106" stroke-width="1.365"/>
  <path d="m134.77 102.11c-16.758 13.784-29.099 8.6377-40.625 0" fill="none" marker-end="url(#a)" stroke="#000" stroke-dasharray="8.19000018, 1.36500003" stroke-opacity=".54106" stroke-width="1.365"/>
 </g>
</svg>
