<svg width="120mm" height="167mm" version="1.1" viewBox="0 0 157.75 218.95" xmlns="http://www.w3.org/2000/svg" xmlns:ns0="http://www.iki.fi/pav/software/textext/">
 <g transform="translate(-31.809 -22.592)">
  <rect x="112.26" y="36.48" width="58.397" height="113.96" fill="#ff1600" fill-opacity=".1401" stroke="#f00" stroke-linecap="square" stroke-linejoin="bevel" stroke-opacity=".19807" stroke-width=".293"/>
  <rect x="53.862" y="36.48" width="58.397" height="113.96" fill="#005000" fill-opacity=".1401" stroke="#005400" stroke-linecap="square" stroke-linejoin="bevel" stroke-opacity=".29952" stroke-width=".293"/>
  <path transform="scale(.26458)" d="m418.79 244.01c-38.894 2.5173-75.403 27.035-92.622 61.986-16.84 32.922-15.895 74.112 2.4591 106.22 15.927 28.595 44.764 49.594 76.96 55.662 6.1172 1.1387 12.643 2.2792 18.699 1.5308v-225.42c-1.4984-0.64475-3.7809 0.12244-5.4957 0.0207z" fill="#00be00" fill-opacity=".21608"/>
  <path transform="scale(.26458)" d="m425.2 244v225.98c5.8953 0.37538 12.257-0.51719 18.289-1.2617 25.073-3.4203 48.876-15.641 65.957-34.364 26.008-26.611 36.686-66.879 28.132-103-8.3534-37.209-36.863-69.073-72.968-81.396-12.517-4.5076-25.848-6.1669-39.099-6.2582z" fill="#f00" fill-opacity=".24121"/>
  <circle cx="113.06" cy="94.41" r="30.201" fill-opacity="0" stroke="#000" stroke-linecap="square" stroke-linejoin="bevel" stroke-opacity=".8392" stroke-width=".565"/>
  <g>
   <path d="m112.39 64.075v60.403" stroke="#000" stroke-opacity=".35678" stroke-width=".26458px"/>
   <text x="84.367157" y="95.359291" fill="#009300" font-family="Verdana" font-size="4.4616px" letter-spacing="0px" stroke="#000000" stroke-opacity=".29952" stroke-width=".11154" word-spacing="0px" style="line-height:1.25" xml:space="preserve"><tspan x="84.367157" y="95.359291" fill="#009300" font-family="'Helvetica Neue LT'" font-size="4.4616px" stroke="#000000" stroke-opacity=".29952" stroke-width=".11154" style="font-feature-settings:normal;font-variant-caps:normal;font-variant-ligatures:normal;font-variant-numeric:normal">true positives</tspan></text>
   <text x="113.57765" y="95.226013" fill="#ff0600" font-family="Verdana" font-size="4.4616px" letter-spacing="0px" stroke="#000000" stroke-opacity=".29952" stroke-width=".11154" word-spacing="0px" style="line-height:1.25" xml:space="preserve"><tspan x="113.57765" y="95.226013" fill="#ff0600" font-family="'Helvetica Neue LT'" font-size="4.4616px" stroke="#000000" stroke-opacity=".29952" stroke-width=".11154" style="font-feature-settings:normal;font-variant-caps:normal;font-variant-ligatures:normal;font-variant-numeric:normal">false positives</tspan></text>
  </g>
  <circle cx="124.45" cy="75.935" r="1.3931" fill="none" stroke="#000" stroke-linecap="square" stroke-linejoin="bevel" stroke-opacity=".29952" stroke-width=".293"/>
  <g fill-opacity=".43478">
   <circle cx="108.04" cy="103.56" r="1.3931"/>
   <circle cx="93.71" cy="84.971" r="1.3931"/>
   <circle cx="93.077" cy="103.36" r="1.3931"/>
   <circle cx="101.23" cy="109.58" r="1.3931"/>
  </g>
  <g stroke-opacity=".29952">
   <circle cx="131.76" cy="105.77" r="1.3931" fill="none" stroke="#000" stroke-linecap="square" stroke-linejoin="bevel" stroke-width=".293"/>
   <circle cx="121.27" cy="109.84" r="1.3931" fill="none" stroke="#000" stroke-linecap="square" stroke-linejoin="bevel" stroke-width=".293"/>
   <text x="68.056526" y="43.498795" fill="#009300" font-family="Verdana" font-size="4.9887px" letter-spacing="0px" stroke="#000000" stroke-width=".12472" word-spacing="0px" style="line-height:1.25" xml:space="preserve"><tspan x="68.056526" y="43.498795" fill="#009300" font-family="'Helvetica Neue LT'" font-size="4.9887px" stroke="#000000" stroke-opacity=".29952" stroke-width=".12472" style="font-feature-settings:normal;font-variant-caps:normal;font-variant-ligatures:normal;font-variant-numeric:normal">false negatives</tspan></text>
   <text x="126.71304" y="44.103783" fill="#ff0000" fill-opacity=".75362" font-family="Verdana" font-size="4.9887px" letter-spacing="0px" stroke="#000000" stroke-width=".12472" word-spacing="0px" style="line-height:1.25" xml:space="preserve"><tspan x="126.71304" y="44.103783" fill="#ff0000" fill-opacity=".75362" font-family="'Helvetica Neue LT'" font-size="4.9887px" stroke="#000000" stroke-opacity=".29952" stroke-width=".12472" style="font-feature-settings:normal;font-variant-caps:normal;font-variant-ligatures:normal;font-variant-numeric:normal">true negatives</tspan></text>
  </g>
  <g fill-opacity=".43478">
   <circle cx="76.038" cy="110.71" r="1.3931"/>
   <circle cx="68.287" cy="54.453" r="1.3931"/>
   <circle cx="64.679" cy="119" r="1.3931"/>
   <circle cx="91.005" cy="53.918" r="1.3931"/>
   <circle cx="89.268" cy="131.03" r="1.3931"/>
   <circle cx="63.744" cy="71.157" r="1.3931"/>
   <circle cx="80.983" cy="68.752" r="1.3931"/>
   <circle cx="74.568" cy="137.17" r="1.3931"/>
   <circle cx="67.085" cy="90.401" r="1.3931"/>
  </g>
  <g fill="none" stroke="#000">
   <g stroke-linecap="square" stroke-linejoin="bevel" stroke-opacity=".29952" stroke-width=".293">
    <circle cx="147.13" cy="92.609" r="1.3931"/>
    <circle cx="157.71" cy="114.34" r="1.3931"/>
    <circle cx="142.88" cy="128.14" r="1.3931"/>
    <circle cx="152.89" cy="140.33" r="1.3931"/>
    <circle cx="137.68" cy="67.852" r="1.3931"/>
    <circle cx="157.99" cy="56.04" r="1.3931"/>
    <circle cx="156.1" cy="94.877" r="1.3931"/>
    <circle cx="158.18" cy="75.128" r="1.3931"/>
   </g>
   <path d="m53.367 34.571v-4.4557h58.569v4.3048" stroke-width=".40263"/>
  </g>
  <text x="57.706448" y="27.174978" fill="#000000" font-family="Verdana" font-size="6.4183px" letter-spacing="0px" stroke-width=".16046" word-spacing="0px" style="line-height:1.25" xml:space="preserve"><tspan x="57.706448" y="27.174978" font-family="'Helvetica Neue LT'" font-size="6.4183px" stroke-width=".16046" style="font-feature-settings:normal;font-variant-caps:normal;font-variant-ligatures:normal;font-variant-numeric:normal">relevant elements</tspan></text>
  <text x="65.55648" y="159.60451" fill="#000000" font-family="Verdana" font-size="6.4183px" letter-spacing="0px" stroke-width=".16046" word-spacing="0px" style="line-height:1.25" xml:space="preserve"><tspan x="65.55648" y="159.60451" font-family="'Helvetica Neue LT'" font-size="6.4183px" stroke-width=".16046" style="font-feature-settings:normal;font-variant-caps:normal;font-variant-ligatures:normal;font-variant-numeric:normal">selected elements</tspan></text>
  <path d="m91.406 152.54 14.165-28.999" fill="none" stroke="#000" stroke-width=".665"/>
  <path d="m112.93 176.86v58.586" fill="none" stroke="#000" stroke-opacity=".38164" stroke-width=".465"/>
  <g fill="#000000" fill-opacity=".58454" font-family="Verdana" letter-spacing="0px" stroke-width=".1694" word-spacing="0px">
   <text x="35.259762" y="175.78607" font-size="6.7761px" style="line-height:1.25" xml:space="preserve"><tspan x="35.259762" y="175.78607" fill="#000000" fill-opacity=".58454" font-family="'Helvetica Neue LT'" font-size="6.7761px" stroke-width=".1694" style="font-feature-settings:normal;font-variant-caps:normal;font-variant-ligatures:normal;font-variant-numeric:normal">How many selected</tspan></text>
   <text x="36.14389" y="183.31189" font-size="6.7761px" style="line-height:1.25" xml:space="preserve"><tspan x="36.14389" y="183.31189" fill="#000000" fill-opacity=".58454" font-family="'Helvetica Neue LT'" font-size="6.7761px" stroke-width=".1694" style="font-feature-settings:normal;font-variant-caps:normal;font-variant-ligatures:normal;font-variant-numeric:normal">items are relevant?</tspan></text>
   <text x="127.04959" y="174.27513" font-size="6.7761px" style="line-height:1.25" xml:space="preserve"><tspan x="127.04959" y="174.27513" fill="#000000" fill-opacity=".58454" font-family="'Helvetica Neue LT'" font-size="6.7761px" stroke-width=".1694" style="font-feature-settings:normal;font-variant-caps:normal;font-variant-ligatures:normal;font-variant-numeric:normal">How many relevant</tspan></text>
   <text x="127.93372" y="181.80095" font-size="6.7761px" style="line-height:1.25" xml:space="preserve"><tspan x="127.93372" y="181.80095" fill="#000000" fill-opacity=".58454" font-family="'Helvetica Neue LT'" font-size="6.7761px" stroke-width=".1694" style="font-feature-settings:normal;font-variant-caps:normal;font-variant-ligatures:normal;font-variant-numeric:normal">items are selected?</tspan></text>
  </g>
  <g id="content" transform="matrix(.8089 0 0 -.8089 -93.978 781.03)" fill-rule="evenodd" stroke="#000" stroke-miterlimit="10.433" ns0:preamble="default_packages.tex" ns0:text="$\\text{Precision}=$\n$\\text{Recall}=$\n" xml:space="preserve"><rect transform="scale(1,-1)" x="317.86" y="-700.54" width="18.238" height="27.094" fill="#006700" fill-opacity=".31884" stroke="none"/><g stroke-width="0"><path d="m157.42 704.02-0.03 0.26v2.69c0 0.32 0.02 0.39 0.48 0.39h0.89c1.59 0 1.59-1.05 1.59-1.54 0-0.47 0-1.54-1.59-1.54h-1.37l0.03-0.26h1.68c1.2 0 2.27 0.81 2.27 1.8 0 0.98-0.98 1.85-2.35 1.85h-3.52v-0.31h0.24c0.77 0 0.79-0.11 0.79-0.46v-5.24c0-0.36-0.02-0.47-0.79-0.47h-0.24v-0.3c0.35 0.03 1.09 0.03 1.47 0.03s1.12 0 1.47-0.03v0.3h-0.24c-0.76 0-0.78 0.11-0.78 0.47z"/><path d="m163.6 704.18v1.1l-1.39-0.11v-0.31c0.7 0 0.78-0.07 0.78-0.56v-2.66c0-0.45-0.11-0.45-0.78-0.45v-0.3c0.39 0.01 0.86 0.03 1.14 0.03 0.4 0 0.87 0 1.27-0.03v0.3h-0.21c-0.74 0-0.76 0.11-0.76 0.47v1.53c0 0.98 0.42 1.87 1.17 1.87 0.07 0 0.09 0 0.11-0.01-0.03-0.01-0.23-0.13-0.23-0.39 0-0.28 0.21-0.43 0.43-0.43 0.18 0 0.43 0.12 0.43 0.44s-0.31 0.61-0.74 0.61c-0.72 0-1.08-0.67-1.22-1.1z"/><path d="m166.94 703.18 0.01 0.21c0.06 1.48 0.9 1.73 1.24 1.73 1.02 0 1.13-1.34 1.13-1.73h-2.37l-0.01-0.21h2.78c0.22 0 0.25 0 0.25 0.21 0 0.98-0.54 1.95-1.78 1.95-1.16 0-2.08-1.03-2.08-2.27 0-1.33 1.05-2.29 2.2-2.29 1.22 0 1.66 1.1 1.66 1.29 0 0.1-0.08 0.12-0.13 0.12-0.09 0-0.11-0.06-0.13-0.14-0.34-1.03-1.24-1.03-1.34-1.03-0.5 0-0.9 0.3-1.13 0.67-0.3 0.48-0.3 1.13-0.3 1.49z"/><path d="m171.43 703.05v0.22l0.01 0.07v0.07l0.01 0.07 0.02 0.12v0.06l0.01 0.06 0.02 0.06 0.01 0.06 0.02 0.11 0.04 0.1 0.03 0.1 0.03 0.09 0.04 0.09 0.05 0.08 0.04 0.07 0.05 0.07 0.04 0.07 0.05 0.06 0.06 0.05 0.1 0.1 0.06 0.04 0.05 0.04 0.12 0.06 0.05 0.03 0.06 0.02 0.05 0.02 0.06 0.01 0.06 0.02 0.05 0.01h0.05l0.05 0.01h0.06c0.09 0 0.71-0.01 1.06-0.37-0.41-0.03-0.47-0.33-0.47-0.46 0-0.26 0.18-0.45 0.46-0.45 0.26 0 0.46 0.16 0.46 0.46 0 0.68-0.76 1.07-1.53 1.07-1.24 0-2.16-1.08-2.16-2.31 0-1.27 0.99-2.25 2.14-2.25 1.34 0 1.66 1.19 1.66 1.29s-0.1 0.1-0.13 0.1c-0.09 0-0.11-0.04-0.13-0.1-0.29-0.93-0.94-1.05-1.3-1.05-0.53 0-1.41 0.43-1.41 2.03z"/><path d="m176.45 705.28-1.39-0.11v-0.31c0.65 0 0.74-0.06 0.74-0.55v-2.67c0-0.45-0.11-0.45-0.78-0.45v-0.3c0.32 0.01 0.86 0.03 1.1 0.03 0.34 0 0.69-0.02 1.03-0.03v0.3c-0.66 0-0.7 0.05-0.7 0.44z"/><path d="m176.49 707v0.09l-0.01 0.03v0.02l-0.02 0.06-0.02 0.04-0.01 0.03-0.01 0.02-0.02 0.02-0.01 0.02-0.04 0.04-0.01 0.02-0.02 0.01-0.02 0.02-0.02 0.01-0.02 0.02-0.03 0.01-0.06 0.03-0.03 0.01-0.02 0.01-0.03 0.01h-0.02l-0.03 0.01h-0.07c-0.31 0-0.53-0.27-0.53-0.53s0.22-0.52 0.53-0.52c0.27 0 0.52 0.21 0.52 0.52z"/><path d="m179.53 702.81h0.02l0.03-0.01h0.03l0.06-0.02 0.2-0.05 0.04-0.02 0.05-0.02 0.04-0.01 0.04-0.03 0.05-0.02 0.04-0.02 0.05-0.03 0.16-0.12 0.03-0.04 0.04-0.04 0.03-0.04 0.03-0.05 0.01-0.02 0.01-0.03 0.01-0.02 0.01-0.03 0.01-0.02 0.02-0.06 0.01-0.02v-0.03l0.01-0.03v-0.03l0.01-0.04v-0.06c0-0.51-0.35-0.91-1.13-0.91-0.84 0-1.2 0.57-1.38 1.42-0.03 0.12-0.04 0.16-0.14 0.16-0.13 0-0.13-0.07-0.13-0.24v-1.32c0-0.16 0-0.23 0.11-0.23 0.05 0 0.06 0.01 0.25 0.19 0.02 0.02 0.02 0.04 0.19 0.23 0.44-0.41 0.89-0.42 1.1-0.42 1.15 0 1.61 0.66 1.61 1.38 0 0.52-0.3 0.82-0.42 0.94-0.33 0.32-0.72 0.4-1.14 0.48-0.56 0.11-1.23 0.23-1.23 0.81 0 0.35 0.26 0.76 1.12 0.76 1.1 0 1.15-0.9 1.17-1.21 0.01-0.09 0.1-0.09 0.12-0.09 0.13 0 0.13 0.06 0.13 0.24v1.01c0 0.17 0 0.24-0.11 0.24-0.05 0-0.07 0-0.2-0.12-0.03-0.04-0.13-0.13-0.17-0.16-0.38 0.28-0.79 0.28-0.94 0.28-1.21 0-1.59-0.67-1.59-1.23 0-0.34 0.16-0.62 0.42-0.84 0.32-0.26 0.6-0.32 1.32-0.46z"/><path d="m183.15 705.28-1.39-0.11v-0.31c0.64 0 0.73-0.06 0.73-0.55v-2.67c0-0.45-0.11-0.45-0.77-0.45v-0.3c0.32 0.01 0.85 0.03 1.09 0.03 0.35 0 0.7-0.02 1.04-0.03v0.3c-0.66 0-0.7 0.05-0.7 0.44z"/><path d="m183.19 707v0.06l-0.01 0.03v0.03l-0.01 0.02v0.03l-0.01 0.03-0.02 0.04-0.02 0.03-0.02 0.04-0.02 0.02-0.01 0.02-0.04 0.04-0.02 0.01-0.02 0.02-0.02 0.01-0.02 0.02-0.06 0.03-0.03 0.01-0.04 0.02-0.03 0.01h-0.02l-0.03 0.01h-0.08c-0.31 0-0.53-0.27-0.53-0.53s0.22-0.52 0.53-0.52c0.28 0 0.53 0.21 0.53 0.52z"/><path d="m188.85 703.01v0.12l-0.01 0.12-0.01 0.11-0.02 0.12-0.09 0.33-0.04 0.1-0.15 0.3-0.06 0.09-0.06 0.1-0.07 0.08-0.07 0.09-0.07 0.08-0.08 0.08-0.16 0.14-0.09 0.06-0.08 0.07-0.1 0.05-0.09 0.05-0.1 0.05-0.2 0.08-0.11 0.03-0.1 0.03-0.11 0.02-0.33 0.03-0.01-0.22c0.44 0 0.87-0.22 1.12-0.65 0.26-0.43 0.26-1 0.26-1.38 0-0.36 0-0.89-0.22-1.33-0.22-0.45-0.65-0.74-1.15-0.74-0.43 0-0.87 0.21-1.14 0.67-0.25 0.44-0.25 1.04-0.25 1.4 0 0.39 0 0.92 0.24 1.36 0.27 0.46 0.74 0.67 1.14 0.67l0.01 0.22c-1.25 0-2.22-1.09-2.22-2.33 0-1.28 1.04-2.23 2.21-2.23 1.2 0 2.21 0.97 2.21 2.23z"/><path d="m190.23 704.3v-2.66c0-0.45-0.11-0.45-0.78-0.45v-0.3c0.35 0.01 0.86 0.03 1.13 0.03 0.26 0 0.78-0.02 1.12-0.03v0.3c-0.67 0-0.78 0-0.78 0.45v1.83c0 1.03 0.71 1.59 1.35 1.59 0.63 0 0.74-0.54 0.74-1.1v-2.32c0-0.45-0.11-0.45-0.78-0.45v-0.3c0.35 0.01 0.85 0.03 1.12 0.03 0.26 0 0.78-0.02 1.12-0.03v0.3c-0.52 0-0.77 0-0.78 0.3v1.9c0 0.85 0 1.16-0.31 1.52-0.14 0.17-0.46 0.37-1.04 0.37-0.73 0-1.2-0.43-1.48-1.05v1.05l-1.41-0.11v-0.31c0.7 0 0.78-0.07 0.78-0.56z"/><path d="m204.29 704.13h0.09l0.01 0.01h0.07l0.02 0.01h0.02l0.02 0.01h0.01l0.01 0.01h0.01l0.06 0.06v0.02h0.01v0.02l0.01 0.01v0.05c0 0.2-0.19 0.2-0.33 0.2h-5.97c-0.14 0-0.33 0-0.33-0.2s0.19-0.2 0.34-0.2z"/><path d="m204.3 702.21h0.15l0.02 0.01h0.02l0.02 0.01h0.01l0.01 0.01h0.01l0.01 0.01h0.01l0.04 0.04v0.01h0.01v0.02l0.01 0.01v0.02h0.01v0.06c0 0.19-0.19 0.19-0.34 0.19h-5.95c-0.15 0-0.34 0-0.34-0.19 0-0.2 0.19-0.2 0.33-0.2z"/><path d="m274.39 706.76 0.09 0.03 0.09 0.02 0.18 0.06 0.16 0.06 0.09 0.04 0.08 0.04 0.07 0.04 0.08 0.04 0.07 0.04 0.07 0.05 0.07 0.04 0.07 0.05 0.18 0.15 0.05 0.06 0.05 0.05 0.1 0.12 0.08 0.12 0.03 0.07 0.03 0.06 0.03 0.07 0.03 0.06 0.01 0.07 0.02 0.07 0.02 0.14v0.07c0 0.96-1.14 1.79-2.6 1.79h-3.13v-0.31h0.23c0.77 0 0.79-0.11 0.79-0.46v-5.24c0-0.36-0.02-0.47-0.79-0.47h-0.23v-0.3c0.35 0.03 1.06 0.03 1.45 0.03s1.1 0 1.46-0.03v0.3h-0.24c-0.77 0-0.79 0.11-0.79 0.47v5.31c0 0.22 0 0.34 0.22 0.37 0.1 0.02 0.39 0.02 0.59 0.02 0.9 0 2.01-0.04 2.01-1.48 0-0.68-0.24-1.49-1.71-1.49h-1.11v-0.22h1.15c0.16 0 0.58 0 0.93-0.33 0.37-0.36 0.37-0.67 0.37-1.34 0-0.64 0-1.04 0.41-1.42 0.41-0.35 0.96-0.41 1.26-0.41 0.78 0 0.95 0.81 0.95 1.09 0 0.06 0 0.17-0.13 0.17-0.11 0-0.11-0.09-0.12-0.16-0.06-0.71-0.41-0.88-0.66-0.88-0.49 0-0.57 0.5-0.71 1.42l-0.13 0.8c-0.18 0.64-0.67 0.96-1.22 1.15z"/><path d="m278.5 705.68 0.01 0.21c0.06 1.48 0.89 1.73 1.23 1.73 1.03 0 1.13-1.34 1.13-1.73h-2.36l-0.01-0.21h2.78c0.22 0 0.25 0 0.25 0.21 0 0.98-0.54 1.95-1.79 1.95-1.15 0-2.07-1.03-2.07-2.27 0-1.33 1.05-2.29 2.19-2.29 1.22 0 1.67 1.1 1.67 1.29 0 0.1-0.08 0.12-0.13 0.12-0.09 0-0.11-0.06-0.13-0.14-0.35-1.03-1.25-1.03-1.35-1.03-0.5 0-0.89 0.3-1.12 0.67-0.3 0.48-0.3 1.13-0.3 1.49z"/><path d="m282.98 705.55v0.08l0.01 0.07v0.14l0.01 0.07v0.07l0.06 0.36 0.03 0.11 0.06 0.2 0.08 0.18 0.04 0.08 0.04 0.07 0.1 0.14 0.05 0.06 0.1 0.1 0.06 0.05 0.05 0.04 0.06 0.04 0.05 0.03 0.12 0.06 0.05 0.02 0.06 0.02 0.06 0.01 0.05 0.02 0.05 0.01h0.06l0.05 0.01h0.05c0.09 0 0.72-0.01 1.07-0.37-0.41-0.03-0.47-0.33-0.47-0.46 0-0.26 0.18-0.45 0.46-0.45 0.26 0 0.46 0.16 0.46 0.46 0 0.68-0.76 1.07-1.53 1.07-1.25 0-2.16-1.08-2.16-2.31 0-1.27 0.98-2.25 2.14-2.25 1.34 0 1.66 1.19 1.66 1.29s-0.1 0.1-0.13 0.1c-0.09 0-0.11-0.04-0.13-0.1-0.29-0.93-0.94-1.05-1.31-1.05-0.53 0-1.41 0.43-1.41 2.03z"/><path d="m289.57 704.14v-0.04l0.01-0.03v-0.04l0.02-0.08 0.01-0.03 0.01-0.04 0.02-0.03 0.01-0.04 0.02-0.03 0.02-0.04 0.04-0.06 0.02-0.04 0.04-0.06 0.03-0.02 0.03-0.03 0.02-0.03 0.06-0.04 0.03-0.03 0.04-0.02 0.03-0.01 0.03-0.02 0.04-0.01 0.04-0.02 0.04-0.01h0.04l0.04-0.01h0.08c0.21 0 0.82 0.13 0.82 0.94v0.56h-0.25v-0.56c0-0.58-0.25-0.64-0.36-0.64-0.33 0-0.37 0.45-0.37 0.5v1.99c0 0.41 0 0.8-0.35 1.17-0.39 0.39-0.89 0.55-1.37 0.55-0.82 0-1.51-0.47-1.51-1.13 0-0.29 0.2-0.46 0.46-0.46 0.28 0 0.46 0.19 0.46 0.45 0 0.12-0.05 0.45-0.51 0.46 0.27 0.35 0.76 0.46 1.08 0.46 0.49 0 1.06-0.39 1.06-1.27v-1.57c0-0.95-0.72-1.29-1.17-1.29-0.49 0-0.9 0.35-0.9 0.85 0 0.55 0.42 1.37 2.07 1.43v0.21c-0.51-0.03-1.21-0.06-1.84-0.36-0.75-0.34-1-0.85-1-1.29 0-0.81 0.97-1.05 1.6-1.05 0.66 0 1.12 0.39 1.31 0.86z"/><path d="m292.99 710.28-1.43-0.11v-0.31c0.69 0 0.77-0.07 0.77-0.55v-5.17c0-0.45-0.11-0.45-0.77-0.45v-0.3c0.32 0.01 0.85 0.03 1.1 0.03s0.74-0.02 1.11-0.03v0.3c-0.67 0-0.78 0-0.78 0.45z"/><path d="m295.76 710.28-1.44-0.11v-0.31c0.7 0 0.78-0.07 0.78-0.55v-5.17c0-0.45-0.11-0.45-0.78-0.45v-0.3c0.33 0.01 0.86 0.03 1.11 0.03s0.74-0.02 1.11-0.03v0.3c-0.67 0-0.78 0-0.78 0.45z"/><path d="m306.38 706.63h0.09l0.01 0.01h0.07l0.02 0.01h0.02l0.02 0.01h0.01l0.01 0.01h0.01l0.06 0.06v0.01l0.01 0.01v0.02l0.01 0.01v0.05c0 0.2-0.19 0.2-0.33 0.2h-5.97c-0.14 0-0.33 0-0.33-0.2s0.19-0.2 0.34-0.2z"/><path d="m306.39 704.71h0.15l0.02 0.01h0.02l0.02 0.01h0.01l0.01 0.01h0.01l0.01 0.01h0.01l0.03 0.03h0.01v0.02h0.01v0.01l0.01 0.01v0.03h0.01v0.06c0 0.19-0.19 0.19-0.34 0.19h-5.95c-0.15 0-0.34 0-0.34-0.19 0-0.2 0.19-0.2 0.33-0.2z"/></g><g transform="translate(6.9386 -4.5925)" stroke="none"><circle transform="scale(1,-1)" cx="224.94" cy="-721.5" r="9.579" fill="#008900" fill-opacity=".58454"/><rect transform="scale(1,-1)" x="224.82" y="-732.54" width="14.427" height="22.779" fill="#fff"/></g><g stroke="none"><circle transform="scale(-1)" cx="-231.5" cy="-688.98" r="9.579" fill="#f00" fill-opacity=".58454" fill-rule="evenodd"/><rect transform="scale(-1)" x="-192.4" y="-689.71" width="14.427" height="22.779" fill="#fff" fill-rule="evenodd"/><path d="m230.93 698.64c-2.1642-0.12004-4.2741-0.99856-5.883-2.451-2.0759-1.8512-3.3154-4.6325-3.2133-7.4211 0.0182-1.6018 0.46752-3.1959 1.2612-4.5853 1.1923-2.0825 3.1765-3.6997 5.4699-4.4154 0.76758-0.23875 1.5636-0.40472 2.3682-0.43778 0.18442 0.0568 0.0689 0.30507 0.10108 0.44855v18.764c-0.0111 0.0591-0.0452 0.09-0.1041 0.0979z" fill="#a0a0a0"/><path d="m230.67 698.71c-2.6896-0.22845-5.2328-1.6314-6.8715-3.7752-2.358-2.9124-2.7002-7.2202-0.92744-10.506 1.5503-2.9824 4.7592-5.0963 8.1405-5.1603 0.2375 0.36059 0.0305 0.96823 0.10003 1.4197v17.925c-0.0462 0.18516-0.30441 0.0687-0.44157 0.0971z" fill="#0f0" fill-opacity=".28986"/></g><g><g transform="translate(109.84 -1.6468)" fill-rule="evenodd" stroke="none" stroke-miterlimit="10.433"><circle transform="scale(1,-1)" cx="224.94" cy="-721.5" r="9.579" fill="#008900" fill-opacity=".58454"/><rect transform="scale(1,-1)" x="224.82" y="-732.54" width="14.427" height="22.779" fill="#fff"/></g><g transform="translate(111.27 -35.153)" fill-rule="evenodd" stroke="none" stroke-miterlimit="10.433"><circle transform="scale(1,-1)" cx="224.94" cy="-721.5" r="9.579" fill="#008900" fill-opacity=".58454"/><rect transform="scale(1,-1)" x="224.82" y="-732.54" width="14.427" height="22.779" fill="#fff"/></g><path d="m217.12 703.48h28.25" fill="none" stroke="#000" stroke-width=".32709px"/><path d="m314.93 705.63h28.25" fill="none" stroke="#000" stroke-miterlimit="10.433" stroke-width=".32709px"/></g></g>
 </g>
</svg>
