<svg width="100mm" height="160mm" version="1.1" viewBox="0 0 189.02 225.5" xmlns="http://www.w3.org/2000/svg" xmlns:ns0="http://www.iki.fi/pav/software/textext/">
 <defs>
  <marker id="a" overflow="visible" orient="auto">
   <path transform="matrix(-.4 0 0 -.4 -4 0)" d="m0 0 5-5-17.5 5 17.5 5z" fill="#b60000" fill-opacity=".49275" fill-rule="evenodd" stroke="#b60000" stroke-opacity=".49275" stroke-width="1pt"/>
  </marker>
  <marker id="b" overflow="visible" orient="auto">
   <path transform="matrix(-.4 0 0 -.4 -4 0)" d="m0 0 5-5-17.5 5 17.5 5z" fill="#05f" fill-opacity=".59903" fill-rule="evenodd" stroke="#05f" stroke-opacity=".59903" stroke-width="1pt"/>
  </marker>
 </defs>
 <g transform="translate(-52.106 -59.441)">
  <g id="content" transform="matrix(1.0284 0 0 -1.0284 -64.27 840.37)" fill-opacity=".70531" fill-rule="evenodd" stroke="#000" stroke-miterlimit="10.433" stroke-width="1.4586" ns0:preamble="default_packages.tex" ns0:text="$A B A\\cap B$\n" xml:space="preserve"><g fill="none" stroke-miterlimit="10.433"><path d="m211.02 540.1v107.18" stroke="#05f" stroke-opacity=".59903" stroke-width="2.4942"/><g stroke="#000" stroke-width=".77791"><ellipse transform="scale(1,-1)" cx="124.84" cy="-588.83" rx="11.284" ry="11.523" stroke-linecap="square" stroke-opacity=".55072"/><g stroke-opacity=".54902"><path d="m120.92 599.61 157.91 91.24"/><path d="m131.89 579.85 158.82 91.66"/><path d="m278.83 690.85c13.583 7.1232 25.19-10.394 11.884-19.344"/></g></g></g><path d="m124.56 599.91c-6.2456 0.0252-11.41-6.3267-10.513-12.429 0.55981-5.3392 5.3933-10.115 10.9-9.8315 6.0487-0.21905 11.346 5.6477 10.819 11.619-8e-3 5.7809-5.4117 10.975-11.206 10.642z" fill="#dcdcdc" fill-opacity=".86275" stroke="none"/><path transform="matrix(.25728 0 0 -.25728 105.54 677.92)" d="m696.8-54.699c-19.306 0.04433-33.909 14.441-50.547 22.123-191.66 109.63-381.09 220.54-572.45 330.69 13.594 3.1126 28.531 6.8302 37.053 19.92 11.673 15.032 12.252 36.649 2.8264 52.762 1.4886 3.9843 6.4946-2.6238 8.9939-2.8968 189.3-109.01 378.71-217.55 567.12-328.08 13.694-9.3653 30.119-15.552 41.535-27.86 16.694-18.686 9.5584-51.407-12.938-62.109-6.5146-3.732-14.192-4.7165-21.588-4.548z" fill="#dcdcdc" fill-opacity=".86275" stroke="none"/><path d="m211.02 647.28v107.18" fill="none" marker-end="url(#b)" stroke="#05f" stroke-miterlimit="10.433" stroke-opacity=".59903" stroke-width="2.4942"/><path d="m202.52 711.27c-6.7272-0.17652-19.539-2.2595-19.59-8.7104 0.16479-8.7817 55.818-11.295 55.831 1.1694-0.0267 3.1795-9.3623 5.7226-19.042 7.2073" fill="none" marker-end="url(#a)" stroke="#b60000" stroke-miterlimit="10.433" stroke-opacity=".49275" stroke-width="2.008"/></g>
 </g>
</svg>