<svg width="200mm" height="110mm" version="1.1" viewBox="0 0 330.09 274.12" xmlns="http://www.w3.org/2000/svg" xmlns:ns0="http://www.iki.fi/pav/software/textext/">
 <g transform="translate(12.37 45.818)">
  <g transform="matrix(1.5,0,0,-1.5,-677.6,1115.4)" fill-rule="evenodd" stroke="#000" stroke-miterlimit="10.433" stroke-opacity=".23529" ns0:preamble="default_packages.tex" ns0:text='$$\\text{TRAINING SET}$$\n$$\\text{Spam}$$\n$$\\text{Ham}$$\n$$\\text{Letter containing word "buy"}$$\n\n' xml:space="preserve"><g stroke-width="0"><g fill-opacity=".42029"><path d="m606.37 773.7h-7.1149l-0.22197-2.617h0.29208c0.16355 1.8693 0.3388 2.2548 2.0912 2.2548 0.21029 0 0.51404 0 0.63087-0.0233 0.24535-0.0467 0.24535-0.17524 0.24535-0.44394v-6.1102c0-0.39722 0-0.56079-1.2267-0.56079h-0.46732v-0.36216c0.479 0.035 1.6707 0.035 2.2081 0.035 0.53743 0 1.7291 0 2.2081-0.035v0.36216h-0.45563c-1.2267 0-1.2267 0.16357-1.2267 0.56079v6.1102c0 0.23365 0 0.39721 0.21029 0.44394 0.12851 0.0233 0.44395 0.0233 0.66592 0.0233 1.7524 0 1.9277-0.38553 2.0912-2.2548h0.29208z"/><path d="m612.09 769.78 0.1052 0.0234 0.10509 0.035 0.1052 0.0234 0.0934 0.035 0.1052 0.0467 0.1868 0.07 0.0935 0.0467 0.0934 0.0468 0.0935 0.0467 0.0817 0.0584 0.0818 0.0467 0.0818 0.0584 0.0701 0.0467 0.0818 0.0584 0.1285 0.1285 0.0701 0.0585 0.1752 0.2103 0.0936 0.1402 0.07 0.1402 0.035 0.0818 0.0234 0.0818 0.0233 0.0701 0.0234 0.0818 0.0117 0.0818v0.0818l0.0117 0.0934c0 1.1099-1.3318 2.0912-3.0492 2.0912h-3.6567v-0.36218h0.28038c0.89959 0 0.92296-0.1285 0.92296-0.54909v-6.1102c0-0.42059-0.0234-0.5491-0.92296-0.5491h-0.28038v-0.36217c0.42058 0.035 1.2501 0.035 1.7057 0.035 0.45564 0 1.2851 0 1.694-0.035v0.36217h-0.2687c-0.89958 0-0.92296 0.12851-0.92296 0.5491v6.1919c0 0.2687 0 0.4089 0.25704 0.44395 0.11682 0.0234 0.45563 0.0234 0.67761 0.0234 1.0514 0 2.3599-0.0468 2.3599-1.7291 0-0.80612-0.28038-1.7408-1.9978-1.7408h-1.2968v-0.25704h1.3319c0.18693 0 0.67761 0 1.0865-0.39721 0.44396-0.42058 0.44396-0.77107 0.44396-1.5538 0-0.75938 0-1.215 0.47899-1.659 0.479-0.42057 1.1216-0.49069 1.472-0.49069 0.89959 0 1.0982 0.95801 1.0982 1.2734 0 0.0701 0 0.1986-0.15188 0.1986-0.12851 0-0.12851-0.10519-0.1402-0.18692-0.0701-0.8178-0.46732-1.0281-0.75939-1.0281-0.57246 0-0.66592 0.59583-0.82948 1.6706l-0.15187 0.93464c-0.21029 0.73602-0.78276 1.1216-1.4253 1.3435z"/><path d="m620.23 773.91-0.0117 0.0233v0.0118l-0.0118 0.0118v0.0118l-0.0117 0.0117v0.0236l-0.0117 0.0118v0.0117l-0.0117 0.0118v0.0118h-0.0118v0.0118l-0.0118 0.0117v0.0118h-0.0117v0.0118h-0.0117l-0.0117 0.0118-0.0118 0.0118h-0.0117l-0.0117 0.0117h-0.0235l-0.0118 0.0118h-0.082c-0.18692 0-0.22197-0.0701-0.28038-0.23366l-2.4184-6.9396c-0.21028-0.58415-0.67761-0.7594-1.2968-0.77108v-0.36217c0.26871 0.0117 0.75938 0.035 1.18 0.035 0.36217 0 0.96968-0.0233 1.3435-0.035v0.36217c-0.58414 0-0.87622 0.29207-0.87622 0.58414 0 0.035 0.0118 0.15189 0.0233 0.17525l0.53742 1.5188h2.874l-0.11682 0.36217h-2.6287l1.3085 3.7736 1.3202-3.7736 0.11682-0.36217 0.6192-1.7758c0.0118-0.035 0.0351-0.1052 0.0351-0.15188 0-0.35048-0.65424-0.35048-0.95799-0.35048v-0.36217c0.4089 0.035 1.2267 0.035 1.6706 0.035 0.50235 0 1.0398-0.0118 1.5304-0.035v0.36217h-0.21029c-0.70098 0-0.86454 0.0819-0.99305 0.46732z"/><path d="m626.94 772.86v0.1051l0.0118 0.035v0.0934l0.0118 0.0233 0.0117 0.035v0.0234l0.0118 0.0233 0.0117 0.0233 0.0233 0.0118 0.0118 0.0233 0.0233 0.0117 0.0234 0.0234 0.0233 0.0118 0.0233 0.0117 0.0118 0.0118h0.0233l0.0118 0.0117h0.0233l0.0118 0.0118h0.0234l0.0118 0.0118h0.0467l0.0233 0.0117h0.0467l0.0234 0.0117h0.0818l0.0351 0.0118h0.1983l0.035 0.0118h0.46735v0.36217c-0.4089-0.0468-1.3318-0.0468-1.7758-0.0468-0.45563 0-1.3669 0-1.7758 0.0468v-0.36217h0.30375c0.92295 0 0.958-0.12852 0.958-0.54909v-6.1102c0-0.42059-0.0351-0.54909-0.958-0.54909h-0.30375v-0.36218c0.4089 0.0351 1.3202 0.0351 1.7641 0.0351 0.45563 0 1.3786 0 1.7875-0.0351v0.36218h-0.30375c-0.92296 0-0.958 0.1285-0.958 0.54909z"/><path d="m631.22 773.61-0.0117 0.0118-0.0118 0.0117v0.0118l-0.0118 0.0117h-0.0118v0.0118l-0.0117 0.0117-0.0117 0.0118-0.0118 0.0118-0.0118 0.0117h-0.0118v0.0118h-0.0117l-0.0118 0.0117h-0.0236l-0.0117 0.0118h-0.1528l-0.0118 0.0117h-1.9862v-0.36217h0.3388c0.17524 0 0.39722-0.0118 0.57245-0.0234 0.26871-0.035 0.2804-0.0468 0.2804-0.26871v-6.0634c0-0.30375 0-0.85286-1.1916-0.85286v-0.36216c0.40889 0.0117 0.96968 0.035 1.3552 0.035 0.38554 0 0.958-0.0234 1.3669-0.035v0.36216c-1.2033 0-1.2033 0.54911-1.2033 0.85286v6.04c0.0584-0.0585 0.0701-0.0701 0.11682-0.1402l4.755-6.963c0.10509-0.1402 0.11682-0.15187 0.1986-0.15187 0.16356 0 0.16356 0.0818 0.16356 0.30375v6.4022c0 0.31544 0 0.86453 1.2033 0.86453v0.36218c-0.4089-0.0117-0.98136-0.0468-1.3669-0.0468-0.38553 0-0.958 0.035-1.3669 0.0468v-0.36218c1.2033 0 1.2033-0.54909 1.2033-0.86453v-4.9535z"/><path d="m639.87 772.86v0.1401l0.0117 0.035v0.0584l0.0117 0.0233 0.0118 0.035v0.0234l0.0118 0.0233 0.0117 0.0233 0.0234 0.0118 0.0118 0.0233 0.0233 0.0117 0.0234 0.0234 0.0234 0.0118 0.0233 0.0117 0.0118 0.0118h0.0234l0.0118 0.0117h0.0118l0.0234 0.0118h0.0233l0.0117 0.0118h0.0468l0.0233 0.0117h0.0468l0.0232 0.0117h0.0817l0.035 0.0118h0.1984l0.035 0.0118h0.46725v0.36217c-0.4089-0.0468-1.3318-0.0468-1.7758-0.0468-0.45563 0-1.3669 0-1.7758 0.0468v-0.36217h0.30375c0.92296 0 0.94632-0.12852 0.94632-0.54909v-6.1102c0-0.42059-0.0233-0.54909-0.94632-0.54909h-0.30375v-0.36218c0.4089 0.0351 1.3202 0.0351 1.7641 0.0351 0.45564 0 1.3786 0 1.7875-0.0351v0.36218h-0.30375c-0.92295 0-0.95799 0.1285-0.95799 0.54909z"/><path d="m644.16 773.61-0.0117 0.0118-0.0117 0.0117v0.0118l-0.0118 0.0117h-0.0118v0.0118l-0.0118 0.0117-0.0117 0.0118-0.0118 0.0118-0.0118 0.0117h-0.0118v0.0118h-0.0117l-0.0118 0.0117h-0.0236l-0.0117 0.0118h-0.1529l-0.0118 0.0117h-1.9862v-0.36217h0.3388c0.16356 0 0.39721-0.0118 0.57246-0.0234 0.26871-0.035 0.28039-0.0468 0.28039-0.26871v-6.0634c0-0.30375 0-0.85286-1.1916-0.85286v-0.36216c0.39721 0.0117 0.96967 0.035 1.3552 0.035s0.95799-0.0234 1.3669-0.035v0.36216c-1.2033 0-1.2033 0.54911-1.2033 0.85286v6.04c0.0584-0.0585 0.0701-0.0701 0.11682-0.1402l4.7549-6.963c0.1052-0.1402 0.11684-0.15187 0.19861-0.15187 0.16357 0 0.16357 0.0818 0.16357 0.30375v6.4022c0 0.31544 0 0.86453 1.2033 0.86453v0.36218c-0.40888-0.0117-0.98135-0.0468-1.3669-0.0468-0.38553 0-0.958 0.035-1.3669 0.0468v-0.36218c1.2033 0 1.2033-0.54909 1.2033-0.86453v-4.9535z"/><path d="m657.09 766.57 0.0118-0.035 0.0234-0.0234 0.0118-0.0234 0.0233-0.0233 0.0233-0.035 0.0234-0.0234 0.0234-0.035 0.0233-0.0234 0.0234-0.035 0.0233-0.0233 0.0585-0.0701 0.0584-0.0584 0.0584-0.0468 0.0233-0.035 0.035-0.0234 0.0234-0.0234 0.0232-0.0234 0.035-0.0232 0.0234-0.0233 0.0234-0.0234 0.0234-0.0117 0.0234-0.0234 0.0234-0.0118 0.0233-0.0117 0.0234-0.0118 0.0118-0.0118 0.0233-0.0118h0.0234c0.1052 0 0.1052 0.0934 0.1052 0.26871v2.0211c0 0.44395 0.0468 0.50237 0.80612 0.50237v0.36217c-0.43227-0.0118-1.0748-0.0351-1.4253-0.0351-0.46731 0-1.4604 0-1.8693 0.0351v-0.36217h0.37385c1.0398 0 1.0748-0.11684 1.0748-0.5491v-0.7477c0-1.2968-1.472-1.402-1.7992-1.402-0.75938 0-3.0726 0.4089-3.0726 3.867 0 3.4698 2.3015 3.8437 3.0025 3.8437 1.2384 0 2.3015-1.0398 2.5352-2.7455 0.0232-0.16357 0.0232-0.19862 0.18692-0.19862 0.18693 0 0.18693 0.035 0.18693 0.2804v2.7455c0 0.19861 0 0.28039-0.12852 0.28039-0.0468 0-0.0934 0-0.18692-0.1402l-0.58415-0.85284c-0.37385 0.37385-1.0047 0.99304-2.1496 0.99304-2.173 0-4.054-1.8342-4.054-4.2058 0-2.3833 1.8576-4.2292 4.0773-4.2292 0.84116 0 1.7758 0.30376 2.173 0.99305z"/><path d="m667.25 770.33-1.4837 0.36217c-0.72434 0.17524-1.18 0.80612-1.18 1.472 0 0.81779 0.63087 1.5304 1.5421 1.5304 1.9394 0 2.1964-1.9043 2.2665-2.43 0.0117-0.0701 0.0117-0.1402 0.14019-0.1402 0.15188 0 0.15188 0.0585 0.15188 0.2804v2.3249c0 0.19861 0 0.28039-0.12851 0.28039-0.0819 0-0.0934-0.0118-0.17524-0.15188l-0.4089-0.65424c-0.35048 0.33881-0.82948 0.80612-1.8576 0.80612-1.2968 0-2.2782-1.0164-2.2782-2.2431 0-0.96968 0.6192-1.8108 1.5305-2.1263 0.12851-0.0468 0.72432-0.18693 1.5304-0.38554 0.31543-0.0817 0.66591-0.16357 0.99305-0.59582 0.24533-0.29208 0.36216-0.67761 0.36216-1.0632 0-0.82949-0.58416-1.659-1.5538-1.659-0.33879 0-1.2267 0.0584-1.8459 0.63087-0.67761 0.61919-0.71265 1.3669-0.72433 1.7875-0.0118 0.1052-0.10509 0.1052-0.1402 0.1052-0.15188 0-0.15188-0.0817-0.15188-0.28038v-2.3249c0-0.19861 0-0.28039 0.12851-0.28039 0.0818 0 0.0934 0.0234 0.17525 0.15189 0 0.0118 0.035 0.0467 0.42058 0.66592 0.36216-0.39722 1.1099-0.81781 2.1496-0.81781 1.3552 0 2.2898 1.1332 2.2898 2.4184 0 1.1566-0.77108 2.1146-1.7524 2.3366z"/><path d="m671.24 766.75v-0.2101l-0.0118-0.035v-0.0233l-0.0117-0.0234v-0.0233l-0.0236-0.0468-0.0117-0.0233-0.0234-0.0118-0.0118-0.0234-0.0234-0.0117-0.0234-0.0234-0.0232-0.0118h-0.0234l-0.0118-0.0117h-0.0117l-0.0234-0.0117h-0.0118l-0.0233-0.0118h-0.0118l-0.0234-0.0118h-0.0467l-0.0234-0.0117h-0.0699l-0.0234-0.0117h-0.0933l-0.0234-0.0118h-0.60728v-0.36216h6.7176l0.49068 2.9908h-0.29207c-0.29208-1.7875-0.56078-2.6286-2.5586-2.6286h-1.5538c-0.54909 0-0.57245 0.0819-0.57245 0.46733v3.096h1.0514c1.1332 0 1.2618-0.37386 1.2618-1.3669h0.29208v3.0843h-0.29208c0-1.0047-0.12851-1.3552-1.2618-1.3552h-1.0514v2.7805c0 0.38553 0.0234 0.46731 0.57245 0.46731h1.5071c1.7758 0 2.0912-0.64257 2.2782-2.2548h0.29208l-0.32712 2.6053h-6.5538v-0.35048h0.28053c0.8996 0 0.91128-0.12852 0.91128-0.54911z"/><path d="m685.34 773.7h-7.1149l-0.22198-2.617h0.29207c0.16357 1.8693 0.33882 2.2548 2.0912 2.2548 0.21029 0 0.51405 0 0.63088-0.0233 0.24533-0.0467 0.24533-0.17524 0.24533-0.44394v-6.1102c0-0.39722 0-0.56079-1.2267-0.56079h-0.46732v-0.36216c0.47899 0.035 1.6706 0.035 2.2081 0.035 0.5374 0 1.7291 0 2.208-0.035v0.36216h-0.4673c-1.215 0-1.215 0.16357-1.215 0.56079v6.1102c0 0.23365 0 0.39721 0.21029 0.44394 0.12852 0.0233 0.44396 0.0233 0.66592 0.0233 1.7524 0 1.9277-0.38553 2.0912-2.2548h0.29206z"/></g><g fill-opacity=".78431"><path d="m438.65 741.94-1.612 0.39041c-0.7808 0.1889-1.272 0.86896-1.272 1.5868 0 0.88155 0.68005 1.6372 1.6624 1.6372 2.1031 0 2.3802-2.0528 2.4432-2.6069 0.0251-0.0755 0.0251-0.15111 0.15112-0.15111 0.16372 0 0.16372 0.0629 0.16372 0.30223v2.5061c0 0.2141 0 0.30225-0.13852 0.30225-0.0882 0-0.10076-0.0126-0.18891-0.16372l-0.42818-0.71783c-0.37781 0.36522-0.89415 0.88155-2.015 0.88155-1.3979 0-2.4432-1.0956-2.4432-2.4306 0-1.0327 0.65487-1.952 1.6372-2.292 0.13853-0.0378 0.7808-0.18891 1.6624-0.403 0.34002-0.0881 0.71783-0.1763 1.0704-0.64227 0.25188-0.32743 0.3904-0.73042 0.3904-1.146 0-0.89414-0.62968-1.7883-1.6875-1.7883-0.36522 0-1.3223 0.0629-1.9898 0.66746-0.71783 0.68006-0.75562 1.4735-0.76821 1.9268-0.0251 0.12594-0.11334 0.12594-0.15112 0.12594-0.16372 0-0.16372-0.0881-0.16372-0.31484v-2.4935c0-0.21409 0-0.30225 0.12594-0.30225 0.0881 0 0.11334 0.0251 0.20149 0.16372 0 0.0126 0.0378 0.0503 0.44078 0.70523 0.39041-0.41558 1.1964-0.86895 2.3172-0.86895 1.4734 0 2.4683 1.2216 2.4683 2.6069 0 1.2468-0.81858 2.2668-1.8764 2.5187z"/><path d="m443.4 741.79v0.83118l-1.8135-0.13853v-0.3904c0.89415 0 0.9823-0.0756 0.9823-0.62968v-5.8434c0-0.5667-0.13852-0.5667-0.9823-0.5667v-0.39041c0.42819 0.0126 1.083 0.0378 1.4105 0.0378 0.34004 0 0.9823-0.0251 1.4231-0.0378v0.39041c-0.84377 0-0.9823 0-0.9823 0.5667v2.2039l0.17632 0.16371c-0.17632 0.26446-0.17632 0.27705-0.17632 0.52893v2.7958c0.36522 0.62968 0.9823 0.9949 1.612 0.9949 0.91934 0 1.6876-1.0956 1.6876-2.5187 0-1.5112-0.88156-2.5565-1.8135-2.5565-0.49115 0-0.96971 0.23927-1.3097 0.75562l-0.17632-0.16371c0.0629-0.20151 0.5919-0.86897 1.5364-0.86897 1.4986 0 2.8084 1.2216 2.8084 2.8336 0 1.5868-1.2216 2.8336-2.6321 2.8336-0.96971 0-1.4986-0.55412-1.7505-0.83118z"/><path d="m452.39 738.04v-0.0504l0.0126-0.0378 0.0126-0.0503v-0.0503l0.0126-0.0378 0.0126-0.0503 0.0252-0.0504 0.0126-0.0378 0.0251-0.0504 0.0126-0.0378 0.0251-0.0504 0.0251-0.0378 0.0252-0.0378 0.0502-0.0756 0.0378-0.0378 0.0252-0.0378 0.1007-0.1007 0.0378-0.0251 0.0503-0.0252 0.0756-0.0502 0.0503-0.0251 0.0378-0.0126 0.1509-0.0378 0.0504-0.0126h0.1132c0.26446 0 1.0201 0.17631 1.0201 1.1838v0.70525h-0.31484v-0.70525c0-0.73043-0.31484-0.80599-0.44078-0.80599-0.41559 0-0.46596 0.56672-0.46596 0.62969v2.5061c0 0.52893 0 1.0075-0.45337 1.4735-0.49115 0.49115-1.1208 0.69264-1.7253 0.69264-1.0327 0-1.889-0.59189-1.889-1.4105 0-0.37781 0.23928-0.5919 0.56671-0.5919 0.35262 0 0.57931 0.25187 0.57931 0.56671 0 0.15113-0.0629 0.56671-0.64228 0.5793 0.34003 0.44078 0.95712 0.57931 1.3601 0.57931 0.61708 0 1.3349-0.49115 1.3349-1.5994v-1.9772c0-1.1964-0.90674-1.612-1.4735-1.612-0.61709 0-1.1334 0.42818-1.1334 1.0579 0 0.69265 0.52893 1.7253 2.6069 1.8009v0.26446c-0.64228-0.0378-1.5238-0.0756-2.3172-0.45337-0.94452-0.42819-1.2468-1.0705-1.2468-1.6246 0-1.0075 1.209-1.3223 2.0024-1.3223 0.83117 0 1.4105 0.50375 1.6498 1.0831z"/><path d="m455.86 741.39v-3.3499c0-0.56672-0.13853-0.56672-0.9823-0.56672v-0.37781c0.44077 0.0126 1.0705 0.0378 1.4231 0.0378 0.31485 0 0.96972-0.0251 1.3979-0.0378v0.37781c-0.84377 0-0.9823 0-0.9823 0.56672v2.3046c0 1.2971 0.89415 2.0024 1.7001 2.0024 0.79339 0 0.93193-0.68005 0.93193-1.3853v-2.9217c0-0.56672-0.13854-0.56672-0.98231-0.56672v-0.37781c0.44078 0.0126 1.083 0.0378 1.4231 0.0378 0.32744 0 0.96971-0.0251 1.3979-0.0378v0.37781c-0.83117 0-0.96971 0-0.96971 0.56672v2.3046c0 1.2971 0.88156 2.0024 1.6876 2.0024 0.7934 0 0.93192-0.68005 0.93192-1.3853v-2.9217c0-0.56672-0.13852-0.56672-0.9823-0.56672v-0.37781c0.44078 0.0126 1.083 0.0378 1.4231 0.0378 0.32744 0 0.9823-0.0251 1.4105-0.0378v0.37781c-0.65486 0-0.9697 0-0.9823 0.37782v2.3928c0 1.0704 0 1.4608-0.39039 1.9142-0.17632 0.21409-0.59191 0.46597-1.3223 0.46597-1.0579 0-1.5994-0.75562-1.8135-1.2342-0.17632 1.0956-1.1082 1.2342-1.675 1.2342-0.91934 0-1.5112-0.54153-1.8639-1.3097v1.3097l-1.7631-0.13853v-0.3904c0.88155 0 0.9823-0.0882 0.9823-0.70525z"/><path d="m595.63 745.34v0.1998l0.0133 0.04v0.0666l0.0134 0.0266 0.0133 0.0266 0.0134 0.0266 0.0266 0.0532 0.0134 0.0133 0.0266 0.0266 0.0532 0.0266 0.0266 0.0266h0.0133l0.0133 0.0133h0.0266l0.0134 0.0133h0.0266l0.0133 0.0133h0.0399l0.0266 0.0133h0.0266l0.0266 0.0134h0.0798l0.04 0.0133h0.1332l0.0266 0.0133h0.66627v0.41317c-0.46647-0.04-1.4528-0.04-1.9592-0.04s-1.5061 0-1.9726 0.04v-0.41317h0.31988c1.0263 0 1.0529-0.1466 1.0529-0.62641v-3.0921h-3.9718v3.0921c0 0.47981 0.0266 0.62641 1.0529 0.62641h0.31987v0.41317c-0.46647-0.04-1.4527-0.04-1.9592-0.04s-1.5061 0-1.9592 0.04v-0.41317h0.30653c1.0263 0 1.0529-0.1466 1.0529-0.62641v-6.9706c0-0.47981-0.0266-0.62642-1.0529-0.62642h-0.30653v-0.41317c0.45314 0.04 1.4394 0.04 1.9459 0.04 0.50645 0 1.5061 0 1.9725-0.04v0.41317h-0.31987c-1.0262 0-1.0529 0.14661-1.0529 0.62642v3.4653h3.9718v-3.4653c0-0.47981-0.0266-0.62642-1.0529-0.62642h-0.31988v-0.41317c0.46648 0.04 1.4528 0.04 1.9592 0.04 0.50647 0 1.5061 0 1.9725-0.04v0.41317h-0.31987c-1.0263 0-1.0529 0.14661-1.0529 0.62642z"/><path d="m601.87 738.35v-0.0533l0.0134-0.0532 0.0133-0.04v-0.0533l0.0134-0.0533 0.0266-0.04 0.0266-0.1066 0.0266-0.04 0.0134-0.0532 0.0532-0.08 0.0266-0.0533 0.0532-0.08 0.04-0.04 0.0266-0.04 0.04-0.0266 0.04-0.04 0.04-0.0266 0.04-0.04 0.08-0.0532 0.04-0.0134 0.0533-0.0266 0.04-0.0133 0.0532-0.0266 0.1066-0.0266h0.1066l0.0667-0.0133c0.27989 0 1.0796 0.18659 1.0796 1.2662v0.73304h-0.31987v-0.73304c0-0.77303-0.3332-0.85299-0.47981-0.85299-0.43983 0-0.49313 0.59976-0.49313 0.6664v2.6523c0 0.54644 0 1.0662-0.47982 1.5594-0.51979 0.50647-1.1862 0.71971-1.8259 0.71971-1.0929 0-1.9992-0.61307-1.9992-1.4927 0-0.39984 0.26654-0.62642 0.61306-0.62642 0.35987 0 0.59978 0.26657 0.59978 0.6131 0 0.15993-0.0667 0.59974-0.67973 0.61308 0.35984 0.46649 1.0129 0.61309 1.4394 0.61309 0.65306 0 1.4128-0.5198 1.4128-1.706v-2.0792c0-1.2662-0.95962-1.7193-1.5594-1.7193-0.65307 0-1.1995 0.46649-1.1995 1.1329 0 0.71972 0.55978 1.826 2.7589 1.9059v0.2799c-0.67973-0.04-1.6127-0.0799-2.4524-0.47981-0.98627-0.45314-1.3195-1.1462-1.3195-1.7193 0-1.0796 1.2795-1.3994 2.1192-1.3994 0.87966 0 1.4928 0.51979 1.746 1.1462z"/><path d="m605.55 741.89v-3.5452c0-0.59977-0.1466-0.59977-1.0396-0.59977v-0.41316c0.46647 0.0133 1.1462 0.04 1.4927 0.04 0.34654 0 1.0396-0.0266 1.4928-0.04v0.41316c-0.89298 0-1.0396 0-1.0396 0.59977v2.439c0 1.3728 0.94629 2.1192 1.7993 2.1192 0.83966 0 0.98627-0.71969 0.98627-1.4794v-3.0788c0-0.59977-0.14661-0.59977-1.0396-0.59977v-0.41316c0.46648 0.0133 1.1462 0.04 1.5061 0.04 0.34653 0 1.0396-0.0266 1.4794-0.04v0.41316c-0.87965 0-1.0262 0-1.0262 0.59977v2.439c0 1.3728 0.93296 2.1192 1.7859 2.1192 0.83967 0 0.98627-0.71969 0.98627-1.4794v-3.0788c0-0.59977-0.1466-0.59977-1.0396-0.59977v-0.41316c0.46646 0.0133 1.1462 0.04 1.506 0.04 0.34653 0 1.0396-0.0266 1.4927-0.04v0.41316c-0.69305 0-1.0262 0-1.0396 0.39983v2.5323c0 1.1329 0 1.546-0.41316 2.0258-0.1866 0.2266-0.62642 0.49315-1.3994 0.49315-1.1196 0-1.6927-0.79968-1.9192-1.3061-0.1866 1.1595-1.1729 1.3061-1.7726 1.3061-0.97295 0-1.5994-0.57311-1.9725-1.3994v1.3994l-1.8659-0.14661v-0.41317c0.93296 0 1.0396-0.0933 1.0396-0.74636z"/></g><g fill-opacity=".99517"><path d="m518.02 599.45h-0.24453c-0.10753-0.98794-0.24454-2.2009-1.9563-2.2009h-0.8021c-0.45974 0-0.47929 0.0686-0.47929 0.39126v5.1745c0 0.33258 0 0.46952 0.92925 0.46952h0.32279v0.30323c-0.35214-0.0293-1.2423-0.0293-1.6433-0.0293-0.3815 0-1.1347 0-1.477 0.0293v-0.30323h0.23477c0.7434 0 0.76296-0.10753 0.76296-0.45973v-5.1158c0-0.35215-0.0195-0.45974-0.76296-0.45974h-0.23477v-0.30323h5.0767z"/><path d="m519.51 599.19 9e-3 0.20543c0.0588 1.4379 0.88034 1.6824 1.2129 1.6824 0.99774 0 1.1053-1.3108 1.1053-1.6824h-2.3182l-9e-3 -0.20543h2.7193c0.21519 0 0.24454 0 0.24454 0.20543 0 0.95859-0.52821 1.8976-1.7411 1.8976-1.1347 0-2.0346-0.99774-2.0346-2.2106 0-1.301 1.0271-2.2498 2.152-2.2498 1.1836 0 1.6238 1.076 1.6238 1.2618 0 0.0979-0.0783 0.11737-0.12713 0.11737-0.0881 0-0.10752-0.0588-0.12711-0.13695-0.34237-0.99773-1.2129-0.99773-1.3107-0.99773-0.48909 0-0.88037 0.29345-1.1053 0.65537-0.29344 0.45974-0.29344 1.1053-0.29344 1.4575z"/><path d="m524.45 600.84h1.389v0.29344h-1.389v1.79h-0.24456c-9e-3 -0.7923-0.30322-1.8389-1.2618-1.8781v-0.20541h0.83145v-2.69c0-1.1934 0.90968-1.3107 1.252-1.3107 0.6945 0 0.96837 0.69449 0.96837 1.3107v0.55756h-0.24454v-0.53799c0-0.71406-0.29344-1.0858-0.64558-1.0858-0.65537 0-0.65537 0.88037-0.65537 1.0466z"/><path d="m528.24 600.84h1.3988v0.29344h-1.3988v1.79h-0.24455c-9e-3 -0.7923-0.30323-1.8389-1.252-1.8781v-0.20541h0.82166v-2.69c0-1.1934 0.9097-1.3107 1.2618-1.3107 0.69449 0 0.96836 0.69449 0.96836 1.3107v0.55756h-0.24452v-0.53799c0-0.71406-0.29345-1.0858-0.65537-1.0858-0.65537 0-0.65537 0.88037-0.65537 1.0466z"/><path d="m531.43 599.19 9e-3 0.20543c0.0588 1.4379 0.88035 1.6824 1.2032 1.6824 1.0075 0 1.1053-1.3108 1.1053-1.6824h-2.3085l-9e-3 -0.20543h2.7193c0.2152 0 0.24454 0 0.24454 0.20543 0 0.95859-0.52821 1.8976-1.7509 1.8976-1.1249 0-2.0248-0.99774-2.0248-2.2106 0-1.301 1.0271-2.2498 2.1422-2.2498 1.1934 0 1.6335 1.076 1.6335 1.2618 0 0.0979-0.0783 0.11737-0.12712 0.11737-0.0881 0-0.10753-0.0588-0.12713-0.13695-0.34236-0.99773-1.2227-0.99773-1.3205-0.99773-0.47928 0-0.87056 0.29345-1.0956 0.65537-0.29343 0.45974-0.29343 1.1053-0.29343 1.4575z"/><path d="m536.3 600.17v1.0662l-1.3499-0.10752v-0.29344c0.67493 0 0.76298-0.0686 0.76298-0.54778v-2.6019c0-0.44017-0.10753-0.44017-0.76298-0.44017v-0.30324c0.38149 9e-3 0.84122 0.0293 1.1053 0.0293 0.39127 0 0.85098 0 1.2423-0.0293v0.30324h-0.20541c-0.72385 0-0.74341 0.10752-0.74341 0.45974v1.4966c0 0.9586 0.41083 1.8194 1.1542 1.8194 0.0686 0 0.0881 0 0.10752-9e-3 -0.0293-9e-3 -0.22498-0.11736-0.22498-0.3717 0-0.27389 0.20543-0.42062 0.42063-0.42062 0.17606 0 0.4206 0.11736 0.4206 0.4304 0 0.30324-0.30323 0.5869-0.72385 0.5869-0.71404 0-1.0662-0.6456-1.2031-1.0662z"/><path d="m542.88 599.07v0.2841l9e-3 0.0686 9e-3 0.0587v0.0686l0.036 0.2352 9e-3 0.0587 0.0293 0.10753 0.0293 0.0978 0.0293 0.0979 0.0391 0.0881 0.0782 0.1566 0.049 0.0783 0.0391 0.0686 0.049 0.0588 0.0489 0.0588 0.049 0.0588 0.0489 0.0489 0.0588 0.0391 0.049 0.0489 0.0588 0.0293 0.049 0.0391 0.0587 0.0293 0.0588 0.0195 0.049 0.0293 0.0588 9e-3 0.0588 0.0195 0.049 9e-3 0.0587 9e-3 0.049 9e-3h0.0979c0.0881 0 0.70429-9e-3 1.0466-0.35213-0.40104-0.0293-0.45975-0.32281-0.45975-0.44997 0-0.25431 0.17608-0.44995 0.44997-0.44995 0.25431 0 0.44996 0.16629 0.44996 0.45974 0 0.65537-0.74342 1.0369-1.4966 1.0369-1.2227 0-2.1128-1.0466-2.1128-2.2498 0-1.2423 0.9586-2.2107 2.0933-2.2107 1.3107 0 1.6238 1.1738 1.6238 1.2618 0 0.0978-0.0978 0.0978-0.12714 0.0978-0.0881 0-0.10752-0.0391-0.12712-0.0978-0.28367-0.89993-0.91947-1.0173-1.2814-1.0173-0.51845 0-1.3694 0.42061-1.3694 1.9857z"/><path d="m550.66 599.03v0.11735l-9e-3 0.10753-9e-3 0.11737-0.0195 0.10752-0.0293 0.10753-0.0586 0.21504-0.0392 0.10752-0.0489 0.0979-0.098 0.1956-0.1764 0.2643-0.0686 0.0881-0.2252 0.2252-0.0881 0.0686-0.0783 0.0588-0.0881 0.0588-0.0978 0.0588-0.0881 0.049-0.0979 0.049-0.0977 0.0391-0.0978 0.039-0.0978 0.0293-0.10752 0.0195-0.21505 0.039-0.10753 9e-3h-0.10753l-9e-3 -0.21519c0.43038 0 0.85099-0.20544 1.0955-0.62604 0.26409-0.42061 0.26409-0.97817 0.26409-1.3499 0-0.35214 0-0.88035-0.21518-1.301-0.21519-0.44017-0.64558-0.72384-1.1347-0.72384-0.4206 0-0.85099 0.20543-1.1151 0.65539-0.24455 0.42059-0.24455 1.0173-0.24455 1.3694 0 0.38147 0 0.89991 0.23477 1.3303 0.26411 0.44996 0.72386 0.64561 1.1151 0.64561l9e-3 0.21519c-1.2227 0-2.1617-1.0564-2.1617-2.2694 0-1.252 1.0075-2.1911 2.152-2.1911 1.1836 0 2.1617 0.9586 2.1617 2.1911z"/><path d="m552.01 600.29v-2.6019c0-0.44017-0.10753-0.44017-0.75318-0.44017v-0.30323c0.34236 9e-3 0.83145 0.0293 1.0956 0.0293 0.25431 0 0.76297-0.0195 1.0955-0.0293v0.30323c-0.65536 0-0.76297 0-0.76297 0.44017v1.79c0 1.0075 0.69449 1.5455 1.3205 1.5455 0.61626 0 0.72385-0.51843 0.72385-1.076v-2.2596c0-0.44017-0.10752-0.44017-0.76297-0.44017v-0.30323c0.34236 9e-3 0.84122 0.0293 1.0955 0.0293 0.25433 0 0.76298-0.0195 1.0956-0.0293v0.30323c-0.50862 0-0.75318 0-0.76296 0.29345v1.8585c0 0.83141 0 1.1347-0.30323 1.4868-0.12713 0.15653-0.44996 0.35215-1.0173 0.35215-0.71406 0-1.1738-0.41083-1.4477-1.0173v1.0173l-1.3694-0.10752v-0.29344c0.67493 0 0.75318-0.0686 0.75318-0.54778z"/><path d="m557.78 600.84h1.389v0.29344h-1.389v1.79h-0.24454c-9e-3 -0.7923-0.30322-1.8389-1.2618-1.8781v-0.20541h0.83143v-2.69c0-1.1934 0.9097-1.3107 1.2618-1.3107 0.6945 0 0.95861 0.69449 0.95861 1.3107v0.55756h-0.24456v-0.53799c0-0.71406-0.29344-1.0858-0.64558-1.0858-0.65537 0-0.65537 0.88037-0.65537 1.0466z"/><path d="m563.13 597.69v-0.0391l9e-3 -0.0391 9e-3 -0.0293v-0.0391l9e-3 -0.0391 9e-3 -0.039 0.0195-0.0293 9e-3 -0.0391 0.0195-0.0293 9e-3 -0.0392 0.0195-0.0293 0.0195-0.0391 0.0585-0.0879 0.0293-0.0293 0.0195-0.0293 0.0293-0.0195 0.0781-0.0781 0.0391-0.0195 0.0586-0.039 0.0391-9e-3 0.0293-0.0195 0.1173-0.027h0.0391l0.0391-9e-3h0.0489c0.20541 0 0.7923 0.13694 0.7923 0.92924v0.538h-0.24453v-0.538c0-0.56732-0.24452-0.62601-0.34236-0.62601-0.32279 0-0.36191 0.44018-0.36191 0.48908v1.9368c0 0.41082 0 0.7923-0.35215 1.1542-0.38148 0.3717-0.87056 0.52819-1.3401 0.52819-0.80209 0-1.4672-0.45971-1.4672-1.0955 0-0.29345 0.19563-0.45973 0.44016-0.45973 0.27389 0 0.44997 0.19564 0.44997 0.44995 0 0.11736-0.0489 0.44018-0.49887 0.44996 0.26409 0.33257 0.74341 0.44016 1.0564 0.44016 0.47929 0 1.0369-0.37169 1.0369-1.2423v-1.5357c0-0.91948-0.70429-1.252-1.1445-1.252-0.47929 0-0.88034 0.34236-0.88034 0.83143 0 0.52822 0.41083 1.3401 2.0248 1.3988v0.20541c-0.49886-0.0391-1.1836-0.0587-1.7998-0.35214-0.72385-0.33258-0.96837-0.84122-0.96837-1.2618 0-0.79231 0.93902-1.0368 1.5553-1.0368 0.64561 0 1.0956 0.39127 1.2814 0.85101z"/><path d="m566.47 601.24-1.3596-0.10752v-0.29344c0.6358 0 0.72384-0.0588 0.72384-0.53802v-2.6117c0-0.44017-0.10753-0.44017-0.76297-0.44017v-0.30324c0.31301 9e-3 0.83145 0.0293 1.076 0.0293 0.33257 0 0.67493-0.0195 1.0075-0.0293v0.30324c-0.64558 0-0.6847 0.0489-0.6847 0.43039z"/><path d="m566.51 602.93v0.0879l-9e-3 0.0195v0.0293l-9e-3 0.0293-9e-3 0.0195-9e-3 0.0293-0.018 0.039-0.0195 0.0293-0.018 0.039-0.039 0.039-0.0195 9e-3 -9e-3 0.0195-0.0195 0.0195-0.0195 9e-3 -0.0293 0.0195-0.078 0.036-0.0293 9e-3 -0.0195 9e-3h-0.0293l-0.0195 9e-3h-0.0293l-0.0195 9e-3h-0.0488c-0.30323 0-0.51842-0.2641-0.51842-0.51845 0-0.26409 0.21519-0.50863 0.51842-0.50863 0.2641 0 0.50865 0.19563 0.50865 0.50863z"/><path d="m568.53 600.29v-2.6019c0-0.44017-0.10753-0.44017-0.75319-0.44017v-0.30323c0.33256 9e-3 0.83145 0.0293 1.0955 0.0293 0.25432 0 0.76297-0.0195 1.0956-0.0293v0.30323c-0.65536 0-0.76296 0-0.76296 0.44017v1.79c0 1.0075 0.69449 1.5455 1.3205 1.5455 0.61624 0 0.72384-0.51843 0.72384-1.076v-2.2596c0-0.44017-0.10751-0.44017-0.76297-0.44017v-0.30323c0.34237 9e-3 0.83145 0.0293 1.1053 0.0293 0.24454 0 0.75319-0.0195 1.0858-0.0293v0.30323c-0.50865 0-0.7532 0-0.76296 0.29345v1.8585c0 0.83141 0 1.1347-0.30324 1.4868-0.13696 0.15653-0.44997 0.35215-1.0173 0.35215-0.71405 0-1.1738-0.41083-1.4477-1.0173v1.0173l-1.3694-0.10752v-0.29344c0.67493 0 0.75319-0.0686 0.75319-0.54778z"/><path d="m574.6 601.24-1.3694-0.10752v-0.29344c0.63581 0 0.72385-0.0588 0.72385-0.53802v-2.6117c0-0.44017-0.10752-0.44017-0.76297-0.44017v-0.30324c0.31301 9e-3 0.84123 0.0293 1.076 0.0293 0.34234 0 0.6847-0.0195 1.0173-0.0293v0.30324c-0.64558 0-0.68471 0.0489-0.68471 0.43039z"/><path d="m574.64 602.93v0.0293l-9e-3 0.0293v0.0293l-9e-3 0.0195v0.0293l-9e-3 0.0293-9e-3 0.0195-9e-3 0.0293-0.018 0.039-9e-3 0.0293-0.0195 0.0195-9e-3 0.0195-0.087 0.087-0.0195 9e-3 -0.0195 0.0195-0.0195 9e-3 -0.0293 9e-3 -0.039 0.018-0.0293 9e-3 -0.0195 9e-3h-0.0195l-0.0293 9e-3h-0.0195l-0.0293 9e-3h-0.0488c-0.30324 0-0.51844-0.2641-0.51844-0.51845 0-0.26409 0.2152-0.50863 0.51844-0.50863 0.27389 0 0.51841 0.19563 0.51841 0.50863z"/><path d="m576.66 600.29v-2.6019c0-0.44017-0.10752-0.44017-0.76297-0.44017v-0.30323c0.34236 9e-3 0.84124 0.0293 1.1053 0.0293 0.24454 0 0.75319-0.0195 1.0858-0.0293v0.30323c-0.65536 0-0.76296 0-0.76296 0.44017v1.79c0 1.0075 0.69449 1.5455 1.3205 1.5455 0.61625 0 0.72384-0.51843 0.72384-1.076v-2.2596c0-0.44017-0.10753-0.44017-0.76298-0.44017v-0.30323c0.34237 9e-3 0.84124 0.0293 1.1053 0.0293 0.25434 0 0.7532-0.0195 1.0858-0.0293v0.30323c-0.49886 0-0.74341 0-0.75319 0.29345v1.8585c0 0.83141 0 1.1347-0.30323 1.4868-0.13694 0.15653-0.45974 0.35215-1.0271 0.35215-0.71405 0-1.1738-0.41083-1.4477-1.0173v1.0173l-1.3694-0.10752v-0.29344c0.68471 0 0.76297-0.0686 0.76297-0.54778z"/><path d="m582.02 598.23v0.0735l9e-3 9e-3v0.0375l9e-3 0.0195v0.0285l9e-3 9e-3v0.0195l9e-3 0.0195v0.0195l9e-3 9e-3 9e-3 0.0195v0.0195l0.036 0.078 0.0285 0.0285 9e-3 0.0195 0.0195 0.0195 9e-3 0.0195c0.38149-0.27389 0.78255-0.30324 0.96838-0.30324v0.22497c-0.851 0-0.851 0.96839-0.851 1.1934 0 0.26409 9e-3 0.57711 0.15651 0.82164 0.0783 0.11736 0.30322 0.38149 0.69449 0.38149 0.85101 0 0.85101-0.96838 0.85101-1.1934 0-0.26411-9e-3 -0.56733-0.15651-0.81186-0.0783-0.11736-0.30324-0.39128-0.6945-0.39128v-0.22497c0.9097 0 1.5748 0.67494 1.5748 1.4184 0 0.3619-0.1565 0.72383-0.39126 0.94881 0.34236 0.32279 0.6945 0.3717 0.87057 0.3717 0.0195 0 0.0686 0 0.0977-9e-3 -0.10752-0.0391-0.15651-0.14672-0.15651-0.25432 0-0.16629 0.12712-0.28367 0.28368-0.28367 0.0978 0 0.28367 0.0686 0.28367 0.29345 0 0.1565-0.11736 0.46952-0.49887 0.46952-0.19564 0-0.62602-0.0588-1.0271-0.44997-0.41084 0.31302-0.82165 0.34236-1.0368 0.34236-0.90969 0-1.5846-0.66515-1.5846-1.4183 0-0.42061 0.21519-0.79232 0.45972-0.99775-0.12713-0.14671-0.30324-0.4695-0.30324-0.80207 0-0.30324 0.12714-0.67494 0.43041-0.87058-0.58689-0.16628-0.89992-0.58689-0.89992-0.96838 0-0.70428 0.96839-1.2325 2.1618-1.2325l9e-3 0.21519c-0.98796 0-1.6629 0.49887-1.6629 1.0173 0 0.44018 0.37171 0.8021 0.80211 0.83144h0.57711c0.84123 0 1.927 0 1.927-0.83144 0-0.52821-0.69449-1.0173-1.6433-1.0173l-9e-3 -0.21519c1.1444 0 2.1617 0.48907 2.1617 1.252 0 0.34237-0.13693 0.83145-0.6358 1.1053-0.50865 0.27389-1.076 0.27389-1.6726 0.27389-0.24454 0-0.66516 0-0.73363 9e-3 -0.31302 0.0391-0.51843 0.34235-0.51843 0.64558z"/><path d="m595.15 600.21 9e-3 0.0489 0.078 0.1564 0.0195 0.0293 0.0195 0.0391 0.0195 0.0293 0.0293 0.0293 0.0195 0.0293 0.0683 0.0683 0.0293 0.0195 0.0195 0.0195 0.0586 0.039 0.0293 9e-3 0.0195 0.0195 0.2051 0.063h0.0293l0.0293 9e-3h0.0977l0.0293 9e-3v0.29344c-0.21521-0.0195-0.49888-0.0293-0.70428-0.0293-0.28367 0-0.72385 0.0195-0.90969 0.0293v-0.29344c0.35212-9e-3 0.56732-0.18587 0.56732-0.46953 0-0.0588 0-0.0783-0.049-0.20544l-0.89013-2.4845-0.96838 2.7095c-0.0391 0.11736-0.0489 0.13694-0.0489 0.18585 0 0.26412 0.38147 0.26412 0.57711 0.26412v0.29344c-0.28367-9e-3 -0.78253-0.0293-1.0173-0.0293-0.29345 0-0.56733 9e-3 -0.86079 0.0293v-0.29344c0.35214 0 0.50865-0.0195 0.60648-0.14673 0.0489-0.0588 0.1565-0.35215 0.22497-0.53799l-0.83145-2.3476-0.92924 2.5921c-0.0489 0.11736-0.0489 0.13694-0.0489 0.17607 0 0.26412 0.38149 0.26412 0.57714 0.26412v0.29344c-0.29347-9e-3 -0.84124-0.0293-1.0662-0.0293-0.0391 0-0.55757 9e-3 -0.90971 0.0293v-0.29344c0.48909 0 0.60648-0.0293 0.72385-0.34236l1.2325-3.4431c0.0489-0.13696 0.0783-0.2152 0.20541-0.2152 0.12713 0 0.14673 0.0588 0.19562 0.19563l0.97818 2.7486 0.99773-2.7584c0.0391-0.10751 0.0686-0.18584 0.19562-0.18584 0.12713 0 0.15653 0.0881 0.19565 0.18584z"/><path d="m600.48 599.03-9e-3 0.11735-9e-3 0.10753-9e-3 0.11737-0.0195 0.10752-0.0195 0.10753-0.0293 0.10752-0.0782 0.21504-0.0391 0.0979-0.049 0.0978-0.0587 0.0978-0.049 0.0881-0.0588 0.0881-0.1372 0.1762-0.0686 0.0783-0.0783 0.0686-0.0783 0.0783-0.0783 0.0686-0.2643 0.1764-0.0978 0.049-0.0881 0.049-0.0978 0.0391-0.10753 0.039-0.0978 0.0293-0.10753 0.0195-0.0978 0.0195-0.10751 0.0195-0.11736 9e-3h-0.10752l-9e-3 -0.21519c0.43039 0 0.85098-0.20544 1.1053-0.62604 0.2543-0.42061 0.2543-0.97817 0.2543-1.3499 0-0.35214 0-0.88035-0.21518-1.301-0.2152-0.44017-0.64558-0.72384-1.1347-0.72384-0.42061 0-0.85102 0.20543-1.1053 0.65539-0.24453 0.42059-0.24453 1.0173-0.24453 1.3694 0 0.38147 0 0.89991 0.22498 1.3303 0.2641 0.44996 0.72384 0.64561 1.1151 0.64561l9e-3 0.21519c-1.2129 0-2.1618-1.0564-2.1618-2.2694 0-1.252 1.0173-2.1911 2.152-2.1911 1.1836 0 2.1715 0.9586 2.1715 2.1911z"/><path d="m602.38 600.17v1.0662l-1.3596-0.10752v-0.29344c0.6847 0 0.76298-0.0686 0.76298-0.54778v-2.6019c0-0.44017-0.10753-0.44017-0.76298-0.44017v-0.30324c0.38148 9e-3 0.84122 0.0293 1.1151 0.0293 0.39127 0 0.8412 0 1.2325-0.0293v0.30324h-0.20541c-0.71406 0-0.73363 0.10752-0.73363 0.45974v1.4966c0 0.9586 0.40105 1.8194 1.1445 1.8194 0.0686 0 0.0881 0 0.10752-9e-3 -0.0293-9e-3 -0.22499-0.11736-0.22499-0.3717 0-0.27389 0.20543-0.42062 0.42063-0.42062 0.17606 0 0.42059 0.11736 0.42059 0.4304 0 0.30324-0.30323 0.5869-0.72382 0.5869-0.71407 0-1.0564-0.6456-1.1934-1.0662z"/><path d="m608.27 597.48v-0.64557l1.4379 0.10752v0.30322c-0.68471 0-0.76297 0.0686-0.76297 0.54777v5.8984l-1.4086-0.10753v-0.30323c0.68472 0 0.76297-0.0686 0.76297-0.54777v-2.0933c-0.28367 0.35213-0.70428 0.59667-1.2227 0.59667l0.0391-0.21519c0.33259 0 0.74342-0.13696 1.0466-0.57711 0.10753-0.1663 0.10753-0.18586 0.10753-0.36193v-1.9954c0-0.17609 0-0.19564-0.10753-0.35214-0.29343-0.46953-0.72383-0.68472-1.1444-0.68472-0.44018 0-0.79233 0.25432-1.0271 0.62603-0.25433 0.39127-0.28368 0.94881-0.28368 1.3499 0 0.35214 0.0195 0.93904 0.30324 1.3792 0.20542 0.30325 0.57712 0.61625 1.1053 0.61625l-0.0391 0.21519c-1.1542 0-2.1813-0.94881-2.1813-2.2009 0-1.2325 0.95859-2.2009 2.0737-2.2009 0.61624 0 1.0564 0.33257 1.301 0.64557z"/><path d="m614.72 602.67v0.1078l-9e-3 0.0588v0.049l-9e-3 0.0489v0.049l-9e-3 0.049-9e-3 0.0489-9e-3 0.0391-0.0195 0.0489-9e-3 0.0391-0.0195 0.0392-9e-3 0.049-0.0195 0.0293-0.0195 0.039-0.0195 0.0391-0.0195 0.0293-0.0293 0.0293-0.0195 0.0293-0.0293 0.0293-0.0195 0.0293-0.0293 0.0195-0.0293 0.0293-0.0293 0.0195-0.0293 9e-3 -0.039 0.0195-0.0293 9e-3 -0.0391 0.0195h-0.0293l-0.0391 9e-3h-0.039l-0.0391 9e-3c-0.34236 0-0.50864-0.2641-0.50864-0.51842 0-0.25434 0.1565-0.51842 0.50864-0.51842 0.19563 0 0.33258 0.0977 0.39127 0.15651 9e-3 0.0195 0.0195 0.0293 0.0293 0.0293 0.0195 0 0.0195-0.13696 0.0195-0.17608 0-0.30324-0.0686-1.0075-0.68473-1.614-0.11735-0.10753-0.11735-0.13695-0.11735-0.15651 0-0.0686 0.049-0.10753 0.0978-0.10753 0.10752 0 0.91946 0.73363 0.91946 1.8781z"/><path d="m616.62 602.67v0.0588l-9e-3 0.049v0.0588l-9e-3 0.049v0.0489l-0.018 0.098-9e-3 0.0489-9e-3 0.0391-9e-3 0.0489-0.0195 0.0391-9e-3 0.0392-0.0195 0.049-0.0195 0.0293-0.0195 0.039-0.0195 0.0391-0.039 0.0586-0.0293 0.0293-0.0195 0.0293-0.0293 0.0293-0.0293 0.0195-0.0293 0.0293-0.0293 0.0195-0.0293 9e-3 -0.0293 0.0195-0.0391 9e-3 -0.0293 0.0195h-0.0391l-0.0293 9e-3h-0.0391l-0.0391 9e-3c-0.34234 0-0.51841-0.2641-0.51841-0.51842 0-0.25434 0.16629-0.51842 0.51841-0.51842 0.19565 0 0.33258 0.0977 0.39127 0.15651 9e-3 0.0195 0.0195 0.0293 0.0293 0.0293 0.0195 0 0.0195-0.13696 0.0195-0.17608 0-0.30324-0.0686-1.0075-0.68472-1.614-0.11735-0.10753-0.11735-0.13695-0.11735-0.15651 0-0.0686 0.049-0.10753 0.0978-0.10753 0.10752 0 0.91948 0.73363 0.91948 1.8781z"/><path d="m619.77 600.61v3.0812l-1.3988-0.10752v-0.30324c0.67492 0 0.75318-0.0686 0.75318-0.54776v-5.7907h0.24454c9e-3 9e-3 0.0881 0.14673 0.35214 0.60645 0.14673-0.22495 0.55755-0.71405 1.2814-0.71405l-0.0391 0.2152c-0.44017 0-0.79232 0.23477-1.0271 0.59669-0.13696 0.20541-0.13696 0.23476-0.13696 0.41082v1.9955c0 0.18583 0 0.19562 0.10753 0.35214 0.38148 0.54775 0.91948 0.61622 1.1542 0.61622 0.44017 0 0.7923-0.24452 1.0271-0.61622 0.24454-0.40106 0.27388-0.9586 0.27388-1.3499 0-0.36192-9e-3 -0.94883-0.29345-1.3792-0.20542-0.30322-0.57712-0.62603-1.1053-0.62603l0.0391-0.2152c1.1542 0 2.1715 0.9586 2.1715 2.2107 0 1.2325-0.95859 2.1911-2.0639 2.1911-0.76295 0-1.1836-0.44994-1.3401-0.62602z"/><path d="m627.33 597.72v-0.88035l1.4086 0.10752v0.30322c-0.68472 0-0.76297 0.0686-0.76297 0.54777v3.4432l-1.4379-0.10753v-0.29344c0.68471 0 0.76295-0.0686 0.76295-0.54778v-1.7314c0-0.84122-0.46951-1.5064-1.1738-1.5064-0.82165 0-0.86078 0.45972-0.86078 0.96837v3.2182l-1.4379-0.10753v-0.29343c0.76297 0 0.76297-0.0293 0.76297-0.89993v-1.4575c0-0.75318 0-1.6433 1.477-1.6433 0.54777 0 0.97817 0.27388 1.2618 0.88035z"/><path d="m632.98 600.21 0.018 0.0586 9e-3 0.0195 0.0195 0.0293 9e-3 0.0293 9e-3 0.0195 0.0195 0.0195 9e-3 0.0293 0.0293 0.039 0.0293 0.0391 0.0684 0.0684 0.0293 0.0391 0.0293 0.0195 0.0392 0.0293 0.0293 0.0293 0.039 0.0195 0.0586 0.039 0.0391 9e-3 0.0293 0.0195 0.0293 9e-3 0.039 9e-3 0.0586 0.018h0.0293l0.0293 9e-3h0.0293l0.0195 9e-3h0.0781l0.0195 9e-3h0.048v0.29346c-0.22497-0.0195-0.50864-0.0293-0.72386-0.0293-0.17605 0-0.63579 0.0195-0.85098 0.0293v-0.29346c0.30322-9e-3 0.45972-0.17607 0.45972-0.4206 0-0.0979-9e-3 -0.11736-0.0587-0.23478l-0.98798-2.3867-1.0857 2.6117c-0.0392 0.0979-0.0588 0.13693-0.0588 0.17606 0 0.25432 0.36193 0.25432 0.54777 0.25432v0.29346c-0.25432-9e-3 -0.89991-0.0293-1.0662-0.0293-0.2641 0-0.64559 9e-3 -0.93903 0.0293v-0.29346c0.46952 0 0.64559 0 0.79232-0.34235l1.4575-3.5507c-0.0489-0.12712-0.18586-0.44996-0.24455-0.56733-0.21518-0.53799-0.48907-1.2129-1.1151-1.2129-0.0489 0-0.27388 0-0.45972 0.17606 0.31301 0.0391 0.38149 0.25433 0.38149 0.41083 0 0.25434-0.18587 0.41083-0.40106 0.41083-0.19564 0-0.41083-0.12712-0.41083-0.42062 0-0.44016 0.41083-0.78252 0.89012-0.78252 0.61626 0 1.0173 0.54776 1.2521 1.1053z"/><path d="m635.56 602.67v0.1078l-9e-3 0.0588v0.049l-9e-3 0.0489v0.049l-9e-3 0.049-9e-3 0.0489-9e-3 0.0391-0.0195 0.0489-9e-3 0.0391-0.0195 0.0392-9e-3 0.049-0.0195 0.0293-0.0195 0.039-0.0195 0.0391-0.0195 0.0293-0.0293 0.0293-0.0195 0.0293-0.0293 0.0293-0.0195 0.0293-0.0293 0.0195-0.0293 0.0293-0.0293 0.0195-0.0293 9e-3 -0.0391 0.0195-0.0293 9e-3 -0.0391 0.0195h-0.0293l-0.0391 9e-3h-0.0391l-0.039 9e-3c-0.34236 0-0.51842-0.2641-0.51842-0.51842 0-0.25434 0.16627-0.51842 0.51842-0.51842 0.19563 0 0.33258 0.0977 0.39126 0.15651 9e-3 0.0195 0.0195 0.0293 0.0293 0.0293 0.0195 0 0.0195-0.13696 0.0195-0.17608 0-0.30324-0.0686-1.0075-0.68471-1.614-0.11737-0.10753-0.11737-0.13695-0.11737-0.15651 0-0.0686 0.049-0.10753 0.0979-0.10753 0.10752 0 0.91946 0.73363 0.91946 1.8781z"/><path d="m637.46 602.67v0.0588l-9e-3 0.049v0.0588l-9e-3 0.049v0.0489l-0.018 0.098-9e-3 0.0489-9e-3 0.0391-9e-3 0.0489-0.0195 0.0391-9e-3 0.0392-0.0195 0.049-0.0195 0.0293-0.0195 0.039-0.0195 0.0391-0.039 0.0586-0.0293 0.0293-0.0195 0.0293-0.0293 0.0293-0.0293 0.0195-0.0293 0.0293-0.0293 0.0195-0.0293 9e-3 -0.0293 0.0195-0.0391 9e-3 -0.0293 0.0195h-0.0391l-0.0293 9e-3h-0.0391l-0.0391 9e-3c-0.34236 0-0.51842-0.2641-0.51842-0.51842 0-0.25434 0.16629-0.51842 0.51842-0.51842 0.19563 0 0.33257 0.0977 0.39126 0.15651 9e-3 0.0195 0.0195 0.0293 0.0293 0.0293 0.0195 0 0.0195-0.13696 0.0195-0.17608 0-0.30324-0.0686-1.0075-0.68471-1.614-0.11736-0.10753-0.11736-0.13695-0.11736-0.15651 0-0.0686 0.0489-0.10753 0.0978-0.10753 0.10752 0 0.91948 0.73363 0.91948 1.8781z"/></g></g><rect transform="scale(1,-1)" x="660.08" y="-701.33" width="21.419" height="14.615" fill="#f00" fill-opacity=".039216" opacity=".97" stroke="#000" stroke-linecap="square" stroke-linejoin="bevel" stroke-miterlimit="4.6955" stroke-opacity=".23529" stroke-width=".86667"/><path d="m660.08 701.33 10.921-6.7998 10.498 6.7998" fill="none" stroke="#000" stroke-miterlimit="4.6955" stroke-opacity=".23529" stroke-width=".86667"/><g id="content" transform="matrix(1.5,0,0,-1.5,-218.66,1202.8)" fill="#e00000" fill-rule="evenodd" stroke="none" stroke-miterlimit="10.433" ns0:preamble="default_packages.tex" ns0:text="$$\\text{!}$$\n" xml:space="preserve"><path d="m593.28 340.87 0.38-4.53c0-0.32-0.26-0.5-0.52-0.5s-0.53 0.18-0.53 0.5l0.39 4.52c0.01 0.15 0.02 0.23 0.14 0.23 0.1 0 0.13-0.05 0.14-0.22z"/><path d="m593.66 342.42v-0.08l-0.01-0.02v-0.03l-0.01-0.02-0.01-0.03-0.02-0.04-0.01-0.03-0.01-0.02-0.02-0.02-0.01-0.02-0.02-0.02-0.01-0.02-0.04-0.04-0.02-0.01-0.02-0.02-0.02-0.01-0.02-0.02-0.02-0.01-0.03-0.01-0.04-0.02-0.03-0.01-0.02-0.01h-0.03l-0.02-0.01h-0.08c-0.29 0-0.53 0.24-0.53 0.52 0 0.29 0.24 0.53 0.53 0.53s0.52-0.24 0.52-0.53z"/></g><g fill="none" stroke="#000" stroke-miterlimit="4.6955" stroke-opacity=".23529" stroke-width=".86667"><rect transform="scale(1,-1)" x="522.28" y="-678.37" width="21.419" height="14.615" opacity=".97" stroke-linecap="square" stroke-linejoin="bevel"/><path d="m522.28 678.37 10.921-6.7998 10.498 6.7998"/><rect transform="scale(1,-1)" x="558.13" y="-677.99" width="21.419" height="14.615" opacity=".97" stroke-linecap="square" stroke-linejoin="bevel"/><path d="m558.13 677.99 10.921-6.7998 10.498 6.7998"/><rect transform="scale(1,-1)" x="592.87" y="-677.81" width="21.419" height="14.615" opacity=".97" stroke-linecap="square" stroke-linejoin="bevel"/><path d="m592.87 677.81 10.921-6.7998 10.498 6.7998"/><rect transform="scale(1,-1)" x="625.73" y="-678.18" width="21.419" height="14.615" opacity=".97" stroke-linecap="square" stroke-linejoin="bevel"/><path d="m625.73 678.18 10.921-6.7998 10.498 6.7998"/><rect transform="scale(1,-1)" x="660.32" y="-678.05" width="21.419" height="14.615" opacity=".97" stroke-linecap="square" stroke-linejoin="bevel"/><path d="m660.32 678.05 10.921-6.7998 10.498 6.7998"/><rect transform="scale(1,-1)" x="521.56" y="-701.54" width="21.419" height="14.615" opacity=".97" stroke-linecap="square" stroke-linejoin="bevel"/><path d="m521.56 701.54 10.921-6.7998 10.498 6.7998"/><rect transform="scale(1,-1)" x="557.41" y="-701.16" width="21.419" height="14.615" opacity=".97" stroke-linecap="square" stroke-linejoin="bevel"/><path d="m557.41 701.16 10.921-6.7998 10.498 6.7998"/><rect transform="scale(1,-1)" x="592.15" y="-700.98" width="21.419" height="14.615" opacity=".97" stroke-linecap="square" stroke-linejoin="bevel"/><path d="m592.15 700.98 10.921-6.7998 10.498 6.7998"/><rect transform="scale(1,-1)" x="625.01" y="-701.35" width="21.419" height="14.615" opacity=".97" stroke-linecap="square" stroke-linejoin="bevel"/><path d="m625.01 701.35 10.921-6.7998 10.498 6.7998"/><rect transform="scale(1,-1)" x="522.03" y="-654.43" width="21.419" height="14.615" opacity=".97" stroke-linecap="square" stroke-linejoin="bevel"/><path d="m522.03 654.43 10.921-6.7998 10.498 6.7998"/><rect transform="scale(1,-1)" x="557.88" y="-654.05" width="21.419" height="14.615" opacity=".97" stroke-linecap="square" stroke-linejoin="bevel"/><path d="m557.88 654.05 10.921-6.7998 10.498 6.7998"/><rect transform="scale(1,-1)" x="592.62" y="-653.87" width="21.419" height="14.615" opacity=".97" stroke-linecap="square" stroke-linejoin="bevel"/><path d="m592.62 653.87 10.921-6.7998 10.498 6.7998"/><rect transform="scale(1,-1)" x="625.48" y="-654.24" width="21.419" height="14.615" opacity=".97" stroke-linecap="square" stroke-linejoin="bevel"/><path d="m625.48 654.24 10.921-6.7998 10.498 6.7998"/><rect transform="scale(1,-1)" x="660.07" y="-654.11" width="21.419" height="14.615" opacity=".97" stroke-linecap="square" stroke-linejoin="bevel"/><path d="m660.07 654.11 10.921-6.7998 10.498 6.7998"/><rect transform="scale(1,-1)" x="522.28" y="-629.74" width="21.419" height="14.615" opacity=".97" stroke-linecap="square" stroke-linejoin="bevel"/><path d="m522.28 629.74 10.921-6.7998 10.498 6.7998"/><rect transform="scale(1,-1)" x="592.87" y="-629.17" width="21.419" height="14.615" opacity=".97" stroke-linecap="square" stroke-linejoin="bevel"/><path d="m592.87 629.17 10.921-6.7998 10.498 6.7998"/><rect transform="scale(1,-1)" x="625.73" y="-629.54" width="21.419" height="14.615" opacity=".97" stroke-linecap="square" stroke-linejoin="bevel"/><path d="m625.73 629.54 10.921-6.7998 10.498 6.7998"/><rect transform="scale(1,-1)" x="660.32" y="-629.41" width="21.419" height="14.615" opacity=".97" stroke-linecap="square" stroke-linejoin="bevel"/><path d="m660.32 629.41 10.921-6.7998 10.498 6.7998"/></g><rect transform="scale(1,-1)" x="557.91" y="-629.7" width="21.419" height="14.615" fill="#f00" fill-opacity=".039216" fill-rule="evenodd" opacity=".97" stroke="#000" stroke-linecap="square" stroke-linejoin="bevel" stroke-miterlimit="4.6955" stroke-opacity=".23529" stroke-width=".86667"/><path d="m557.91 629.7 10.921-6.7998 10.498 6.7998" fill="none" stroke="#000" stroke-miterlimit="4.6955" stroke-opacity=".23529" stroke-width=".86667"/><g transform="matrix(1.5,0,0,-1.5,-320.83,1131.2)" fill="#e00000" fill-rule="evenodd" stroke="none" stroke-miterlimit="10.433" ns0:preamble="default_packages.tex" ns0:text="$$\\text{!}$$\n" xml:space="preserve"><path d="m593.28 340.87 0.38-4.53c0-0.32-0.26-0.5-0.52-0.5s-0.53 0.18-0.53 0.5l0.39 4.52c0.01 0.15 0.02 0.23 0.14 0.23 0.1 0 0.13-0.05 0.14-0.22z"/><path d="m593.66 342.42v-0.08l-0.01-0.02v-0.03l-0.01-0.02-0.01-0.03-0.02-0.04-0.01-0.03-0.01-0.02-0.02-0.02-0.01-0.02-0.02-0.02-0.01-0.02-0.04-0.04-0.02-0.01-0.02-0.02-0.02-0.01-0.02-0.02-0.02-0.01-0.03-0.01-0.04-0.02-0.03-0.01-0.02-0.01h-0.03l-0.02-0.01h-0.08c-0.29 0-0.53 0.24-0.53 0.52 0 0.29 0.24 0.53 0.53 0.53s0.52-0.24 0.52-0.53z"/></g><g stroke="#000"><path d="m554.32 604.19 8.7426 14.302" fill="none" stroke-miterlimit="10.433" stroke-opacity=".78431" stroke-width=".52267"/><rect transform="scale(1,-1)" x="422.69" y="-710.48" width="21.419" height="14.615" fill="#f00" fill-opacity=".039216" fill-rule="evenodd" opacity=".97" stroke-linecap="square" stroke-linejoin="bevel" stroke-miterlimit="4.6955" stroke-opacity=".23529" stroke-width=".86667"/><path d="m422.69 710.48 10.921-6.7998 10.498 6.7998" fill="none" stroke-miterlimit="4.6955" stroke-opacity=".23529" stroke-width=".86667"/></g><g transform="matrix(1.5,0,0,-1.5,-456.05,1212)" fill="#e00000" fill-rule="evenodd" stroke="none" stroke-miterlimit="10.433" ns0:preamble="default_packages.tex" ns0:text="$$\\text{!}$$\n" xml:space="preserve"><path d="m593.28 340.87 0.38-4.53c0-0.32-0.26-0.5-0.52-0.5s-0.53 0.18-0.53 0.5l0.39 4.52c0.01 0.15 0.02 0.23 0.14 0.23 0.1 0 0.13-0.05 0.14-0.22z"/><path d="m593.66 342.42v-0.08l-0.01-0.02v-0.03l-0.01-0.02-0.01-0.03-0.02-0.04-0.01-0.03-0.01-0.02-0.02-0.02-0.01-0.02-0.02-0.02-0.01-0.02-0.04-0.04-0.02-0.01-0.02-0.02-0.02-0.01-0.02-0.02-0.02-0.01-0.03-0.01-0.04-0.02-0.03-0.01-0.02-0.01h-0.03l-0.02-0.01h-0.08c-0.29 0-0.53 0.24-0.53 0.52 0 0.29 0.24 0.53 0.53 0.53s0.52-0.24 0.52-0.53z"/></g><rect transform="scale(1,-1)" x="459.23" y="-687.05" width="21.419" height="14.615" fill="#f00" fill-opacity=".039216" fill-rule="evenodd" opacity=".97" stroke="#000" stroke-linecap="square" stroke-linejoin="bevel" stroke-miterlimit="4.6955" stroke-opacity=".23529" stroke-width=".86667"/><path d="m459.23 687.05 10.921-6.7998 10.498 6.7998" fill="none" stroke="#000" stroke-miterlimit="4.6955" stroke-opacity=".23529" stroke-width=".86667"/><g transform="matrix(1.5,0,0,-1.5,-419.52,1188.5)" fill="#e00000" fill-rule="evenodd" stroke="none" stroke-miterlimit="10.433" ns0:preamble="default_packages.tex" ns0:text="$$\\text{!}$$\n" xml:space="preserve"><path d="m593.28 340.87 0.38-4.53c0-0.32-0.26-0.5-0.52-0.5s-0.53 0.18-0.53 0.5l0.39 4.52c0.01 0.15 0.02 0.23 0.14 0.23 0.1 0 0.13-0.05 0.14-0.22z"/><path d="m593.66 342.42v-0.08l-0.01-0.02v-0.03l-0.01-0.02-0.01-0.03-0.02-0.04-0.01-0.03-0.01-0.02-0.02-0.02-0.01-0.02-0.02-0.02-0.01-0.02-0.04-0.04-0.02-0.01-0.02-0.02-0.02-0.01-0.02-0.02-0.02-0.01-0.03-0.01-0.04-0.02-0.03-0.01-0.02-0.01h-0.03l-0.02-0.01h-0.08c-0.29 0-0.53 0.24-0.53 0.52 0 0.29 0.24 0.53 0.53 0.53s0.52-0.24 0.52-0.53z"/></g><g fill="none" stroke="#000" stroke-miterlimit="4.6955" stroke-opacity=".23529" stroke-width=".86667"><rect transform="scale(1,-1)" x="422.64" y="-686.8" width="21.419" height="14.615" opacity=".97" stroke-linecap="square" stroke-linejoin="bevel"/><path d="m422.64 686.8 10.921-6.7998 10.498 6.7998"/><rect transform="scale(1,-1)" x="459.23" y="-709.47" width="21.419" height="14.615" opacity=".97" stroke-linecap="square" stroke-linejoin="bevel"/><path d="m459.23 709.47 10.921-6.7998 10.498 6.7998"/></g><rect transform="scale(1,-1)" x="459.73" y="-663.61" width="21.419" height="14.615" fill="#f00" fill-opacity=".039216" fill-rule="evenodd" opacity=".97" stroke="#000" stroke-linecap="square" stroke-linejoin="bevel" stroke-miterlimit="4.6955" stroke-opacity=".23529" stroke-width=".86667"/><path d="m459.73 663.61 10.921-6.7998 10.498 6.7998" fill="none" stroke="#000" stroke-miterlimit="4.6955" stroke-opacity=".23529" stroke-width=".86667"/><g transform="matrix(1.5,0,0,-1.5,-419.01,1165.1)" fill="#e00000" fill-rule="evenodd" stroke="none" stroke-miterlimit="10.433" ns0:preamble="default_packages.tex" ns0:text="$$\\text{!}$$\n" xml:space="preserve"><path d="m593.28 340.87 0.38-4.53c0-0.32-0.26-0.5-0.52-0.5s-0.53 0.18-0.53 0.5l0.39 4.52c0.01 0.15 0.02 0.23 0.14 0.23 0.1 0 0.13-0.05 0.14-0.22z"/><path d="m593.66 342.42v-0.08l-0.01-0.02v-0.03l-0.01-0.02-0.01-0.03-0.02-0.04-0.01-0.03-0.01-0.02-0.02-0.02-0.01-0.02-0.02-0.02-0.01-0.02-0.04-0.04-0.02-0.01-0.02-0.02-0.02-0.01-0.02-0.02-0.02-0.01-0.03-0.01-0.04-0.02-0.03-0.01-0.02-0.01h-0.03l-0.02-0.01h-0.08c-0.29 0-0.53 0.24-0.53 0.52 0 0.29 0.24 0.53 0.53 0.53s0.52-0.24 0.52-0.53z"/></g><rect transform="scale(1,-1)" x="459.48" y="-639.68" width="21.419" height="14.615" fill="#f00" fill-opacity=".039216" fill-rule="evenodd" opacity=".97" stroke="#000" stroke-linecap="square" stroke-linejoin="bevel" stroke-miterlimit="4.6955" stroke-opacity=".23529" stroke-width=".86667"/><path d="m459.48 639.68 10.921-6.7998 10.498 6.7998" fill="none" stroke="#000" stroke-miterlimit="4.6955" stroke-opacity=".23529" stroke-width=".86667"/><g transform="matrix(1.5,0,0,-1.5,-419.26,1141.2)" fill="#e00000" fill-rule="evenodd" stroke="none" stroke-miterlimit="10.433" ns0:preamble="default_packages.tex" ns0:text="$$\\text{!}$$\n" xml:space="preserve"><path d="m593.28 340.87 0.38-4.53c0-0.32-0.26-0.5-0.52-0.5s-0.53 0.18-0.53 0.5l0.39 4.52c0.01 0.15 0.02 0.23 0.14 0.23 0.1 0 0.13-0.05 0.14-0.22z"/><path d="m593.66 342.42v-0.08l-0.01-0.02v-0.03l-0.01-0.02-0.01-0.03-0.02-0.04-0.01-0.03-0.01-0.02-0.02-0.02-0.01-0.02-0.02-0.02-0.01-0.02-0.04-0.04-0.02-0.01-0.02-0.02-0.02-0.01-0.02-0.02-0.02-0.01-0.03-0.01-0.04-0.02-0.03-0.01-0.02-0.01h-0.03l-0.02-0.01h-0.08c-0.29 0-0.53 0.24-0.53 0.52 0 0.29 0.24 0.53 0.53 0.53s0.52-0.24 0.52-0.53z"/></g><rect transform="scale(1,-1)" x="422.9" y="-639.68" width="21.419" height="14.615" fill="#f00" fill-opacity=".039216" fill-rule="evenodd" opacity=".97" stroke="#000" stroke-linecap="square" stroke-linejoin="bevel" stroke-miterlimit="4.6955" stroke-opacity=".23529" stroke-width=".86667"/><path d="m422.9 639.68 10.921-6.7998 10.498 6.7998" fill="none" stroke="#000" stroke-miterlimit="4.6955" stroke-opacity=".23529" stroke-width=".86667"/><g transform="matrix(1.5,0,0,-1.5,-455.85,1141.2)" fill="#e00000" fill-rule="evenodd" stroke="none" stroke-miterlimit="10.433" ns0:preamble="default_packages.tex" ns0:text="$$\\text{!}$$\n" xml:space="preserve"><path d="m593.28 340.87 0.38-4.53c0-0.32-0.26-0.5-0.52-0.5s-0.53 0.18-0.53 0.5l0.39 4.52c0.01 0.15 0.02 0.23 0.14 0.23 0.1 0 0.13-0.05 0.14-0.22z"/><path d="m593.66 342.42v-0.08l-0.01-0.02v-0.03l-0.01-0.02-0.01-0.03-0.02-0.04-0.01-0.03-0.01-0.02-0.02-0.02-0.01-0.02-0.02-0.02-0.01-0.02-0.04-0.04-0.02-0.01-0.02-0.02-0.02-0.01-0.02-0.02-0.02-0.01-0.03-0.01-0.04-0.02-0.03-0.01-0.02-0.01h-0.03l-0.02-0.01h-0.08c-0.29 0-0.53 0.24-0.53 0.52 0 0.29 0.24 0.53 0.53 0.53s0.52-0.24 0.52-0.53z"/></g><rect transform="scale(1,-1)" x="422.9" y="-663.36" width="21.419" height="14.615" fill="#f00" fill-opacity=".039216" fill-rule="evenodd" opacity=".97" stroke="#000" stroke-linecap="square" stroke-linejoin="bevel" stroke-miterlimit="4.6955" stroke-opacity=".23529" stroke-width=".86667"/><path d="m422.9 663.36 10.921-6.7998 10.498 6.7998" fill="none" stroke="#000" stroke-miterlimit="4.6955" stroke-opacity=".23529" stroke-width=".86667"/><g transform="matrix(1.5,0,0,-1.5,-455.85,1164.9)" fill="#e00000" fill-rule="evenodd" stroke="none" stroke-miterlimit="10.433" ns0:preamble="default_packages.tex" ns0:text="$$\\text{!}$$\n" xml:space="preserve"><path d="m593.28 340.87 0.38-4.53c0-0.32-0.26-0.5-0.52-0.5s-0.53 0.18-0.53 0.5l0.39 4.52c0.01 0.15 0.02 0.23 0.14 0.23 0.1 0 0.13-0.05 0.14-0.22z"/><path d="m593.66 342.42v-0.08l-0.01-0.02v-0.03l-0.01-0.02-0.01-0.03-0.02-0.04-0.01-0.03-0.01-0.02-0.02-0.02-0.01-0.02-0.02-0.02-0.01-0.02-0.04-0.04-0.02-0.01-0.02-0.02-0.02-0.01-0.02-0.02-0.02-0.01-0.03-0.01-0.04-0.02-0.03-0.01-0.02-0.01h-0.03l-0.02-0.01h-0.08c-0.29 0-0.53 0.24-0.53 0.52 0 0.29 0.24 0.53 0.53 0.53s0.52-0.24 0.52-0.53z"/></g><path d="m595.06 770.94h-186.64v-179.02h290.19v179.16h-9.5183" fill="none" stroke="#000" stroke-miterlimit="10.433" stroke-opacity=".23529" stroke-width="1.0433"/></g>
  <flowRoot fill="#000000" font-family="Verdana" font-size="40px" letter-spacing="0px" word-spacing="0px" style="line-height:1.25" xml:space="preserve"><flowRegion><rect x="-434.29" y="-28.909" width="1817.1" height="1228.6"/></flowRegion><flowPara/></flowRoot>
  <g fill="none" stroke="#000" stroke-miterlimit="4.6955" stroke-opacity=".23529" stroke-width="1.3">
   <rect x="103.89" y="28.351" width="32.128" height="21.923" opacity=".97" stroke-linecap="square" stroke-linejoin="bevel"/>
   <path d="m103.89 28.351 16.382 10.2 15.746-10.2"/>
   <rect x="157.66" y="28.925" width="32.128" height="21.923" opacity=".97" stroke-linecap="square" stroke-linejoin="bevel"/>
   <path d="m157.66 28.925 16.382 10.2 15.746-10.2"/>
   <rect x="209.78" y="29.193" width="32.128" height="21.923" opacity=".97" stroke-linecap="square" stroke-linejoin="bevel"/>
   <path d="m209.78 29.193 16.382 10.2 15.746-10.2"/>
   <rect x="259.06" y="28.638" width="32.128" height="21.923" opacity=".97" stroke-linecap="square" stroke-linejoin="bevel"/>
   <path d="m259.06 28.638 16.382 10.2 15.746-10.2"/>
   <rect x="313.08" y="26.697" width="32.128" height="21.923" opacity=".97" stroke-linecap="square" stroke-linejoin="bevel"/>
   <path d="m313.08 26.697 16.382 10.2 15.746-10.2"/>
  </g>
 </g>
</svg>
