<svg width="140mm" height="180mm" version="1.1" viewBox="0 0 218.09 313.81" xmlns="http://www.w3.org/2000/svg" xmlns:ns0="http://www.iki.fi/pav/software/textext/">
 <g transform="translate(.53454 1.2728)">
  <circle cx="77.241" cy="46.875" r="3.6374" fill="#0065ff" fill-opacity=".44928" fill-rule="evenodd" opacity=".97"/>
  <circle cx="67.352" cy="57.299" r="3.6374" fill="#0065ff" fill-opacity=".44928" fill-rule="evenodd" opacity=".97"/>
  <g fill="none" stroke="#000" stroke-opacity=".21739" stroke-width=".9">
   <path d="m1.0691 16.634h216.49"/>
   <path d="m18.174 0.33083v312.01"/>
   <path d="m114.39-1.2728v312.84"/>
  </g>
  <circle cx="58.398" cy="41.797" r="3.6338" fill="#f00" fill-opacity=".44928" fill-rule="evenodd" opacity=".97"/>
  <g fill="none" stroke="#000">
   <g stroke-linecap="square" stroke-linejoin="bevel" stroke-opacity=".47843" stroke-width=".72281">
    <rect x="38.22" y="33.205" width="59.868" height="32.874"/>
    <rect x="38.487" y="75.834" width="59.868" height="32.874"/>
    <rect x="131.76" y="32.537" width="59.868" height="32.874"/>
    <rect x="131.5" y="76.369" width="59.868" height="32.874"/>
    <rect x="38.22" y="122.87" width="59.868" height="32.874"/>
   </g>
   <path d="m0.56696 160.41h210.34" stroke-opacity=".21739" stroke-width=".9"/>
   <path d="m-0.53454 202.39h211.14" stroke-opacity=".21739" stroke-width=".9"/>
  </g>
  <g fill-rule="evenodd">
   <g transform="matrix(2.1907 0 0 -2.1907 -268.04 1737.8)" stroke="#000" stroke-miterlimit="10.433" ns0:preamble="default_packages.tex" ns0:text="$\\frac{3}{5}$\n$\\frac{2}{5}$\n" xml:space="preserve"><g fill-opacity=".86275"><path d="m152.52 712.58h0.0664l0.0332-7e-3 0.0266-7e-3 0.0664-0.014 0.0266-7e-3 0.0266-0.0133 0.0332-0.0133 0.0532-0.0266 0.0199-0.0199 0.0266-0.0199 0.0199-0.0133 0.0465-0.0465 0.0199-0.0266 0.0199-0.0199 0.0199-0.0332 0.0266-0.0532 0.0199-0.0332 0.0133-0.0332 7e-3 -0.0332 0.0133-0.0332 7e-3 -0.0399 0.0133-0.0399 7e-3 -0.0399v-0.0399l7e-3 -0.0399v-0.093c0-0.57173-0.3324-0.74458-0.59832-0.74458-0.18615 0-0.59832 0.0532-0.79112 0.32575 0.21939 7e-3 0.26592 0.15955 0.26592 0.25928 0 0.14625-0.11301 0.25262-0.25262 0.25262-0.13296 0-0.25927-0.0798-0.25927-0.26592 0-0.43877 0.47866-0.71799 1.0437-0.71799 0.64485 0 1.0903 0.43212 1.0903 0.89084 0 0.35899-0.29916 0.72463-0.80441 0.831 0.48531 0.17284 0.6648 0.51854 0.6648 0.80441 0 0.36564-0.42547 0.63155-0.94401 0.63155-0.5119 0-0.91079-0.24597-0.91079-0.61826 0-0.15291 0.10637-0.24597 0.24599-0.24597 0.1396 0 0.23267 0.11301 0.23267 0.23933 0 0.13295-0.0931 0.23267-0.23267 0.23932 0.15955 0.20609 0.47865 0.25263 0.6515 0.25263 0.21273 0 0.50525-0.0997 0.50525-0.4986 0-0.19945-0.0665-0.41218-0.18615-0.55179-0.1529-0.1795-0.28586-0.18615-0.51854-0.19944-0.11301-7e-3 -0.12631-7e-3 -0.14626-0.0133-0.0133 0-0.0465-0.0133-0.0465-0.0598 0-0.0665 0.0399-0.0665 0.11966-0.0665z" stroke-width="0"/><line x1="151.25" x2="153.89" y1="710.09" y2="710.09" stroke="#000" stroke-opacity=".86275" stroke-width=".30046"/><path d="m151.97 708.72 0.0199-7e-3 0.0266-7e-3h0.0199l0.0398-0.014h0.0199l0.0199-7e-3h0.0133l0.0199-7e-3h0.0332l0.0133-7e-3h0.0332l0.0133-7e-3h0.0532l0.0133-7e-3h0.1155c0.61161 0 0.97726 0.41882 0.97726 0.4853 0 0.0532-0.0332 0.0665-0.0598 0.0665-7e-3 0-0.0133 0-0.0333-0.0133-0.11302-0.0466-0.359-0.13296-0.7047-0.13296-0.1263 0-0.37228 7e-3 -0.67809 0.11966-0.0465 0.0266-0.0532 0.0266-0.0598 0.0266-0.0598 0-0.0598-0.0532-0.0598-0.12632v-1.3628c0-0.0798 0-0.13296 0.0731-0.13296 0.0399 0 0.0465 7e-3 0.0931 0.0598 0.19943 0.25927 0.4853 0.29251 0.64485 0.29251 0.27922 0 0.40552-0.21938 0.43212-0.25927 0.0798-0.15291 0.10637-0.32576 0.10637-0.59832 0-0.13296 0-0.40553-0.13297-0.61162-0.11966-0.1662-0.3191-0.27921-0.54513-0.27921-0.30581 0-0.61826 0.1662-0.73128 0.472 0.17285-0.0133 0.26592 0.10637 0.26592 0.22604 0 0.19943-0.17285 0.23932-0.23268 0.23932-0.0133 0-0.23268 0-0.23268-0.25262 0-0.41217 0.37893-0.831 0.93737-0.831 0.59832 0 1.1169 0.43877 1.1169 1.0238 0 0.51855-0.39889 1.0038-0.97726 1.0038-0.2061 0-0.44542-0.0532-0.6515-0.22603z" stroke-width="0"/><path d="m199.27 711.75h-0.15955c-0.0133-0.0997-0.0598-0.37229-0.11966-0.41883-0.0333-0.0266-0.39223-0.0266-0.45871-0.0266h-0.8576c0.49195 0.43212 0.65151 0.55843 0.93072 0.77781 0.3457 0.27257 0.6648 0.55844 0.6648 0.99721 0 0.55843-0.49195 0.89748-1.0836 0.89748-0.57837 0-0.9706-0.39888-0.9706-0.82435 0-0.23269 0.19943-0.25927 0.24597-0.25927 0.11301 0 0.24598 0.0798 0.24598 0.24597 0 0.0864-0.0332 0.24598-0.27257 0.24598 0.14625 0.32575 0.45871 0.42547 0.67809 0.42547 0.46537 0 0.70469-0.359 0.70469-0.73128 0-0.40553-0.28586-0.72464-0.43212-0.89084l-1.1235-1.0969c-0.0465-0.0399-0.0465-0.0532-0.0465-0.1795h1.9146z" stroke-width="0"/><line x1="196.93" x2="199.57" y1="709.96" y2="709.96" stroke="#000" stroke-opacity=".86275" stroke-width=".30046"/><path d="m197.65 708.6 0.0398-0.014h0.0199l0.02-7e-3 0.0199-7e-3h0.0199l0.0199-7e-3h0.0199l0.0133-7e-3h0.0332l0.0199-7e-3h0.0266l0.0133-7e-3h0.0535l0.0133-7e-3h0.1155c0.61826 0 0.97726 0.41882 0.97726 0.4853 0 0.0532-0.0332 0.0665-0.0532 0.0665-0.0133 0-0.0199 0-0.0399-0.0133-0.11301-0.0466-0.35899-0.13297-0.69804-0.13297-0.13295 0-0.37894 7e-3 -0.68474 0.11967-0.0399 0.0266-0.0532 0.0266-0.0598 0.0266-0.0599 0-0.0599-0.0532-0.0599-0.12631v-1.3628c0-0.0798 0-0.13297 0.0798-0.13297 0.0399 0 0.0399 7e-3 0.0931 0.0598 0.19944 0.25927 0.47866 0.2925 0.64486 0.2925 0.27922 0 0.40553-0.21938 0.42547-0.25927 0.0864-0.1529 0.11302-0.32575 0.11302-0.59832 0-0.13295 0-0.40552-0.13961-0.61162-0.11966-0.1662-0.3191-0.27921-0.54513-0.27921-0.29917 0-0.61162 0.1662-0.73129 0.47201 0.1795-0.0133 0.26592 0.10637 0.26592 0.22604 0 0.19943-0.17285 0.23932-0.23267 0.23932-7e-3 0-0.23268 0-0.23268-0.25262 0-0.41218 0.37893-0.83101 0.93737-0.83101 0.59832 0 1.1168 0.43877 1.1168 1.0238 0 0.51855-0.39887 1.0039-0.97725 1.0039-0.19944 0-0.44542-0.0532-0.64486-0.22604z" stroke-width="0"/></g><g fill="none" stroke="#000"><path d="m149.25 774.71 5.7341 7.8081" stroke-miterlimit="10.433" stroke-opacity=".40097" stroke-width=".21226"/><g stroke="#000" stroke-miterlimit="4" stroke-opacity=".62802" stroke-width=".22824"><path d="m146.8 696.56c0.76718-1.303 1.7833-3.2208 2.0609-4.0344 0.30291-0.76147-2e-3 -2.0404-0.1374-2.1608-1.0718-0.57708-2.1836-1.7016-2.4731-1.9485-0.44478-0.41073-1.3057-1.3573-1.936-2.1109-0.62496-0.76783-1.147-1.7874-1.3864-2.598-0.31941-1.066-0.48189-2.3841-0.62452-3.0351-0.0988-0.45126-0.26108-3.6826-0.2498-3.897 0.05-0.94927 0.15374-2.3102 0.2498-2.8978 0.0454-0.50983 0.51147-1.8018 0.72444-2.6729"/><path d="m149.58 690.44c-0.71198-0.50191-1.2225-1.0605-1.6282-1.6485l0.13025 0.0343"/><path d="m150.3 690.53c-0.43787-1.0534-0.65246-2.079-0.91179-3.1101" opacity=".97"/><path d="m153.22 685.07c-0.0502 1.9362-0.56151 3.8946-1.8236 5.5956"/><path d="m155.35 686.64c-0.42791 1.2214-0.96503 2.9368-3.4473 4.0718"/><path d="m153.15 690.87-3.922-0.42467"/><path d="m151.9 693.44c-0.20005-0.59121-0.40275-1.1824-0.49961-1.7736"/><path d="m149.14 693.44c0.60837-0.84817 0.69633-1.1713 0.78574-1.9074"/><path d="m154.64 695.47c-0.69724-0.89959-1.3556-2.0931-1.9141-3.1538"/><path d="m150.08 695.46c0.44685-0.85735 0.40471-1.7434 0.47463-2.623"/><path d="m146.8 696.56c-0.0492 0.074-0.052 0.18051-0.0164 0.30451 0.12862 0.44742 0.75846 1.1226 1.521 1.3208 0.26772 0.0425 1.4833 0.14429 1.7132 0.13386 0.70324-0.0319 1.0151-0.12904 1.5035-0.56005 0.40297-0.28736 0.66387-0.11079 1.274-0.0999 0.55249 0.0455 0.89154 0.16414 1.5238 0.05 0.44458-0.0724 1.1696-0.29808 1.1741-0.54957-0.0167-0.24697-0.2356-0.46589-0.54958-0.47463 0.15466-0.0693 0.26916-0.0985 0.49961-0.24357 0.0859-0.0963 0.17023-0.12228 0.14989-0.40593-0.82062-1.2028-2.5277-3.7392-2.4731-4.2467 0.21285-0.35355 0.26103-0.6705 0.025-0.92429"/><path d="m149.73 697.8c-0.87044 0.0751-1.6662-0.42403-1.9235-0.62451-0.23961-0.18819-0.36714-0.61083 0.16862-0.56207 0.67329 0.0628 2.9952 0.69384 2.9415 0.22482-0.0746-0.49516-0.76712-0.59146-0.84622-1.3208-0.064-0.4713 1.9282-0.43832 2.3638-0.19673 0.41439 0.25498 1.4674 0.0913 1.9485 0.0749 0.34731-0.014 0.43043 0.36053 0.43717 0.51211-0.0301 0.24515-0.48185 0.21573-0.49962 0.42467-0.0388 0.29205 0.32741 0.41103 0.62452 0.34973"/><path d="m142.31 673.88c0.0142-0.72556-0.15704-1.5547-0.39968-2.0734-0.3908-0.8552-1.5113-2.383-1.3989-2.4481 0.13592-0.43715 0.64703-0.44911 1.1241-0.4996 0.29931-2e-3 1.895 0.38036 2.9742 0.50238 2.4565-0.48591 2.7214-0.61896 4.0953-0.97701 1.2866-0.36714 2.6463-0.38651 3.9969-0.44966 1.5157 0.0206 2.431 0.3529 4.0406 0.63076 1.3655 0.17883 2.6703 0.55073 3.9532 1.0929 0.51267 0.22838 0.91889 0.44483 1.324 0.8993-0.64775 1.0353-1.6454 1.7627-1.9173 3.1288"/><path d="m147.01 671.52c0.38197-1.0057 1.7533-1.5927 3.16-2.0172 1.7411-0.5295 5.2423-0.49864 7.8689-0.67447"/><path d="m157.64 670.34c0.86736-0.40656 2.3004-0.67536 3.8075-0.23749"/><path d="m160.64 674.5-1.4489-1.9485"/><path d="m160.44 675.98-1.7736-2.9227"/><path d="m160.07 675.3c0.33441-0.25662 0.56353-0.52049 0.57455-0.79938"/><path d="m153.15 690.87 2.2732-1.7486c1.2452-0.7152 1.9899-1.8154 2.8228-2.8478 1.0111-1.0847 1.5095-2.5225 1.7736-4.1218 0.14156-2.0567 0.78543-4.1726 0.42467-6.1702"/><path d="m151.55 695.49c0.0323 0.0911 0.0804 0.5707 0.0734 1.0754-8e-3 0.58646-0.0984 1.1978-0.0984 1.1978"/><path d="m150.93 696.87c-0.0106-0.0435-0.0424-0.3397 0.0317-0.92226 0.0289-0.22698 0.24955-0.65355 0.24624-0.64527"/><path d="m148.99 691.42c0.58704 0.025 4.1343 0.37471 4.1343 0.37471"/><path d="m149.7 697.84c-3e-3 -0.30767 0.0394-0.54604 0.16862-0.75566"/><path d="m148.87 690.7c0.0449 3e-3 1.2156 0.13494 2.3148 0.34763 1.0498 0.20312 2.0826 0.4383 2.0068 0.54543"/></g></g><g stroke="#000" stroke-miterlimit="10.433"><g id="content" transform="matrix(1.5 0 0 -1.5 -349.38 1149.6)" fill-rule="evenodd" ns0:preamble="default_packages.tex" ns0:text="$$\\text{Physics}$$\n$$\\text{Literature}$$\n$$\\text{Priors}$$\n$$\\text{Documents}$$\n$$\\text{Estimated params}$$\n" xml:space="preserve"><g fill-opacity=".90196" stroke-width="0"><path d="m330.04 239.35-0.0102-0.0879v-0.90567c0-0.11153 7e-3 -0.13518 0.16558-0.13518h0.30078c0.53393 0 0.53393 0.35821 0.53393 0.52042 0 0.15883 0 0.52043-0.53393 0.52043h-0.46636l0.0102 0.0879h0.57112c0.40214 0 0.76713-0.27035 0.76713-0.6083 0-0.32779-0.33457-0.62519-0.79416-0.62519h-1.1896v0.10477h0.0811c0.25684 0 0.2636 0.0372 0.2636 0.15883v1.7674c0 0.12166-7e-3 0.15883-0.2636 0.15883h-0.0811v0.10477c0.11829-0.0102 0.36498-0.0102 0.49339-0.0102 0.12842 0 0.38187 0 0.50016 0.0102v-0.10477h-0.0811c-0.26023 0-0.26698-0.0372-0.26698-0.15883z"/><path d="m331.94 240.15-3e-3 7e-3v0.0511l-6e-3 0.0204v7e-3l-3e-3 0.0102-6e-3 0.014-0.01 0.01-7e-3 3e-3 -0.01 0.01-7e-3 3e-3h-0.0102l-7e-3 3e-3 -0.0102 3e-3h-0.0102l-0.0135 3e-3h-0.0242l-7e-3 3e-3h-0.1306v0.10476c0.11828-3e-3 0.28725-0.0102 0.3785-0.0102 0.0879 0 0.26359 7e-3 0.3785 0.0102v-0.10476c-0.22643 0-0.26361 0-0.26361-0.14869v-0.61843c0-0.35146 0.23995-0.53733 0.45624-0.53733 0.21289 0 0.25006 0.1791 0.25006 0.37173v0.78403c0 0.14869-0.0372 0.14869-0.26359 0.14869v0.10476c0.11828-3e-3 0.29063-0.0102 0.38187-0.0102 0.0879 0 0.2636 7e-3 0.37512 0.0102v-0.10476c-0.17236 0-0.25685 0-0.26022-0.10138v-0.63871c0-0.29063 0-0.39539-0.10476-0.51367-0.0473-0.0574-0.15883-0.12504-0.35484-0.12504-0.28387 0-0.43256 0.19939-0.49001 0.3278v-1.1726l-0.48326 0.0338v0.10477c0.23656 0 0.2636 0.0237 0.2636 0.18924z"/><path d="m334.74 239.28 7e-3 -0.0102 3e-3 -7e-3 6e-3 -0.0204 7e-3 -7e-3 3e-3 -0.0102 7e-3 -7e-3 3e-3 -0.0102 0.0306-0.0405 0.0102-0.0102 0.0135-0.0102 0.0204-0.0204 0.0135-7e-3 0.0102-0.0102 0.0135-7e-3 0.0102-3e-3 0.0102-7e-3 0.0135-3e-3 0.0102-7e-3 0.0102-3e-3 0.0135-3e-3 0.0102-3e-3h0.0102l0.0102-3e-3h7e-3l0.0102-3e-3h0.0514v-0.10475c-0.0777 7e-3 -0.17573 0.0102-0.25346 0.0102-0.0608 0-0.21966-7e-3 -0.294-0.0102v0.10475c0.10476 3e-3 0.15883 0.0574 0.15883 0.14194 0 0.0338-3e-3 0.0406-0.0202 0.0811l-0.33794 0.82796-0.37511-0.90568c-0.0135-0.0338-0.0203-0.0473-0.0203-0.0609 0-0.0845 0.12504-0.0845 0.18925-0.0845v-0.10476c-0.0879 3e-3 -0.3109 0.0102-0.36836 0.0102-0.0913 0-0.22642-3e-3 -0.3278-0.0102v0.10476c0.16221 0 0.22642 0 0.27374 0.11491l0.50691 1.2267c-0.0169 0.0439-0.0642 0.15545-0.0845 0.19938-0.0743 0.1825-0.16896 0.41568-0.38525 0.41568-0.0169 0-0.0946 0-0.15884-0.0609 0.10477-0.0135 0.1318-0.0879 0.1318-0.14193 0-0.0879-0.0642-0.13856-0.14193-0.13856-0.0676 0-0.14194 0.0405-0.14194 0.14194 0 0.15207 0.14194 0.27373 0.31091 0.27373 0.2129 0 0.35146-0.19263 0.43256-0.38525z"/><path d="m335.82 239.76 7e-3 3e-3h7e-3l0.0102 3e-3h0.0102l0.0135 3e-3 0.0102 3e-3 0.0405 9e-3 0.0135 7e-3 0.0169 3e-3 0.0135 7e-3 0.0169 7e-3 0.027 0.014 0.0169 0.0102 0.0135 7e-3 0.0405 0.0306 0.027 0.027 0.0306 0.0405 3e-3 0.0102 7e-3 7e-3 3e-3 0.0102 3e-3 7e-3 3e-3 0.0102 3e-3 7e-3 3e-3 0.0102v0.0102l3e-3 0.0102v0.0102l3e-3 0.0102v0.0339c0 0.16897-0.1149 0.30414-0.3785 0.30414-0.28386 0-0.40553-0.18924-0.46973-0.47649-0.0102-0.0439-0.0135-0.0574-0.0473-0.0574-0.0439 0-0.0439 0.0237-0.0439 0.0845v0.4427c0 0.0574 0 0.0811 0.0372 0.0811 0.0169 0 0.0202-3e-3 0.0845-0.0676 7e-3 -7e-3 7e-3 -0.0135 0.0676-0.0777 0.14869 0.14193 0.30077 0.14531 0.37174 0.14531 0.38525 0 0.5407-0.22642 0.5407-0.46637 0-0.1791-0.10138-0.28048-0.14193-0.32104-0.11152-0.10475-0.23995-0.13178-0.38188-0.15882-0.18925-0.0372-0.41567-0.0811-0.41567-0.27711 0-0.11491 0.0879-0.25346 0.3785-0.25346 0.37173 0 0.38526 0.30076 0.39201 0.40553 3e-3 0.0304 0.0338 0.0304 0.0405 0.0304 0.044 0 0.044-0.0169 0.044-0.0811v-0.33794c0-0.0574 0-0.0811-0.0372-0.0811-0.0169 0-0.0237 0-0.0676 0.0406-0.0102 0.0135-0.044 0.0439-0.0541 0.0541-0.12841-0.0946-0.26697-0.0946-0.31765-0.0946-0.41229 0-0.54072 0.22303-0.54072 0.41228 0 0.11828 0.0541 0.2129 0.14532 0.28726 0.10814 0.0845 0.20277 0.10475 0.44608 0.15207z"/><path d="m337.04 238.92-0.47311 0.0372v0.10476c0.21966 0 0.25007 0.0202 0.25007 0.18249v0.90568c0 0.14869-0.0372 0.14869-0.26359 0.14869v0.10477c0.10814-3e-3 0.29063-0.0102 0.37174-0.0102 0.11827 0 0.23656 7e-3 0.35145 0.0102v-0.10477c-0.22303 0-0.23656-0.0169-0.23656-0.14531z"/><path d="m337.06 238.34v-0.0102l-3e-3 -0.0102v-0.0172l-6e-3 -0.0204-3e-3 -7e-3 -3e-3 -0.0102-9e-3 -0.021-7e-3 -0.0102-3e-3 -7e-3 -0.024-0.024-7e-3 -3e-3 -7e-3 -7e-3 -7e-3 -3e-3 -7e-3 -7e-3 -7e-3 -3e-3 -0.0102-3e-3 -0.014-6e-3h-0.0102l-7e-3 -3e-3 -0.0102-3e-3h-0.0172l-7e-3 -3e-3h-0.0102c-0.10476 0-0.17911 0.0913-0.17911 0.17912 0 0.0912 0.0744 0.1791 0.17911 0.1791 0.0946 0 0.17911-0.071 0.17911-0.1791z"/><path d="m337.78 239.67v-0.0744l3e-3 -0.0237v-0.0202l3e-3 -0.0237v-0.0237l0.012-0.0808 7e-3 -0.0202 7e-3 -0.0338 0.0102-0.0372 0.0135-0.0304 0.0102-0.0338 0.027-0.054 0.0169-0.027 0.0135-0.0237 0.0169-0.0203 0.0338-0.0404 0.0202-0.0169 0.0338-0.027 0.0404-0.027 0.0169-0.0102 0.0404-0.014 0.0169-7e-3 0.0203-7e-3 0.0169-3e-3 0.0202-3e-3 0.0169-3e-3h0.0338c0.0304 0 0.24332 3e-3 0.36159 0.12502-0.13855 0.0102-0.15883 0.10815-0.15883 0.15208 0 0.0879 0.0609 0.15545 0.15546 0.15545 0.0879 0 0.15545-0.0574 0.15545-0.15883 0-0.22642-0.25684-0.35821-0.51705-0.35821-0.41905 0-0.72996 0.36159-0.72996 0.77727 0 0.43255 0.33457 0.76373 0.7232 0.76373 0.45284 0 0.56098-0.40214 0.56098-0.43594s-0.0338-0.0338-0.0439-0.0338c-0.0304 0-0.0372 0.0135-0.0439 0.0338-0.098 0.31091-0.31767 0.35146-0.44271 0.35146-0.17911 0-0.47311-0.14532-0.47311-0.68601z"/><path d="m339.58 239.76 7e-3 3e-3h0.0102l0.0102 3e-3h0.0102l0.0102 3e-3 0.054 0.012 0.0135 7e-3 0.0135 3e-3 0.0169 7e-3 0.027 0.014 0.0169 7e-3 0.0135 0.0102 0.0169 7e-3 0.0405 0.0306 0.0135 0.0135 0.0102 0.0135 0.0135 0.0135 0.0204 0.027 3e-3 0.0102 3e-3 7e-3 3e-3 0.0102 3e-3 7e-3 3e-3 0.0102 3e-3 7e-3 6e-3 0.0204v0.0102l3e-3 0.0102v0.0102l3e-3 0.0102v0.0237c0 0.16897-0.11828 0.30414-0.38188 0.30414-0.28386 0-0.40552-0.18924-0.46636-0.47649-0.0102-0.0439-0.0136-0.0574-0.0473-0.0574-0.0439 0-0.0439 0.0237-0.0439 0.0845v0.4427c0 0.0574 0 0.0811 0.0372 0.0811 0.0169 0 0.0202-3e-3 0.0811-0.0676 0.0102-7e-3 0.0102-0.0135 0.071-0.0777 0.14531 0.14193 0.29739 0.14531 0.36836 0.14531 0.38863 0 0.54408-0.22642 0.54408-0.46637 0-0.1791-0.10138-0.28048-0.14193-0.32104-0.11152-0.10475-0.24332-0.13178-0.38525-0.15882-0.18925-0.0372-0.41567-0.0811-0.41567-0.27711 0-0.11491 0.0879-0.25346 0.37849-0.25346 0.37173 0 0.38863 0.30076 0.39539 0.40553 3e-3 0.0304 0.0338 0.0304 0.0406 0.0304 0.0439 0 0.0439-0.0169 0.0439-0.0811v-0.33794c0-0.0574 0-0.0811-0.0372-0.0811-0.0169 0-0.0237 0-0.0676 0.0406-0.0102 0.0135-0.0439 0.0439-0.0574 0.0541-0.12842-0.0946-0.26698-0.0946-0.31767-0.0946-0.40889 0-0.53732 0.22303-0.53732 0.41228 0 0.11828 0.0541 0.2129 0.14531 0.28726 0.10477 0.0845 0.19939 0.10475 0.4427 0.15207z"/><path d="m359.97 239.75h-0.0845c-0.0372 0.34131-0.0845 0.76374-0.67926 0.76374h-0.27373c-0.15884 0-0.16559-0.0237-0.16559-0.13517v-1.7911c0-0.1149 0-0.15883 0.32104-0.15883h0.10815v-0.10476c-0.11828 0.0102-0.42582 0.0102-0.56437 0.0102-0.1318 0-0.39539 0-0.51367-0.0102v0.10476h0.0811c0.26021 0 0.26697 0.0372 0.26697 0.15545v1.7708c0 0.12166-7e-3 0.15883-0.26697 0.15883h-0.0811v0.10138h1.7573z"/><path d="m360.71 239.13-0.47312 0.0372v0.10475c0.21966 0 0.25008 0.0202 0.25008 0.18587v0.9023c0 0.15207-0.0372 0.15207-0.2636 0.15207v0.10139c0.10815-3e-3 0.29063-0.0102 0.37174-0.0102 0.11828 0 0.23656 7e-3 0.35146 0.0102v-0.10139c-0.22304 0-0.23656-0.0169-0.23656-0.14868z"/><path d="m360.73 238.55v-0.0102l-3e-3 -7e-3v-0.0204l-3e-3 -0.0102-3e-3 -7e-3 -3e-3 -0.0102-3e-3 -7e-3 -3e-3 -0.0102-6e-3 -0.014-7e-3 -7e-3 -3e-3 -7e-3 -0.014-0.014-3e-3 -7e-3 -7e-3 -7e-3 -7e-3 -3e-3 -7e-3 -7e-3 -0.014-6e-3 -0.0102-3e-3 -7e-3 -7e-3 -7e-3 -3e-3h-0.0102l-0.014-6e-3h-0.0102l-7e-3 -3e-3h-0.0274c-0.10477 0-0.17912 0.0912-0.17912 0.17572 0 0.0913 0.0743 0.17912 0.17912 0.17912 0.0946 0 0.1791-0.071 0.1791-0.17912z"/><path d="m361.63 239.27h0.48325v-0.10476h-0.48325v-0.61844h-0.0811c-3e-3 0.27711-0.10476 0.63534-0.43594 0.64885v0.0744h0.28725v0.92596c0 0.41229 0.31091 0.45284 0.43256 0.45284 0.23995 0 0.33457-0.23655 0.33457-0.45284v-0.18925h-0.0845v0.18249c0 0.25008-0.10138 0.37512-0.22642 0.37512-0.22642 0-0.22642-0.30415-0.22642-0.3616z"/><path d="m362.73 239.84 3e-3 -0.071c0.0202-0.50015 0.30415-0.58463 0.41905-0.58463 0.3447 0 0.37849 0.45284 0.37849 0.58463h-0.79754l-3e-3 0.071h0.93948c0.0743 0 0.0845 0 0.0845-0.071 0-0.33118-0.1825-0.65898-0.60154-0.65898-0.39201 0-0.70291 0.34807-0.70291 0.76712 0 0.44947 0.35483 0.77389 0.74346 0.77389 0.40891 0 0.56099-0.37174 0.56099-0.43594 0-0.0338-0.027-0.0406-0.0439-0.0406-0.0304 0-0.0372 0.0202-0.0439 0.0473-0.11828 0.3447-0.41904 0.3447-0.45284 0.3447-0.16897 0-0.30415-0.098-0.38187-0.22304-0.10139-0.16222-0.10139-0.38188-0.10139-0.50353z"/><path d="m364.42 239.5v-0.37174l-0.46973 0.0372v0.10475c0.23656 0 0.26359 0.0237 0.26359 0.18925v0.89892c0 0.15207-0.0372 0.15207-0.26359 0.15207v0.10139c0.13179-3e-3 0.29062-0.0102 0.38525-0.0102 0.13517 0 0.29063 0 0.4258 0.0102v-0.10139h-0.071c-0.2467 0-0.25346-0.0372-0.25346-0.15882v-0.51705c0-0.33456 0.14194-0.63195 0.39539-0.63195 0.0237 0 0.0304 0 0.0372 3e-3 -0.0102 3e-3 -0.0777 0.0439-0.0777 0.13179 0 0.0946 0.071 0.14194 0.14532 0.14194 0.0609 0 0.14531-0.0372 0.14531-0.14532 0-0.10814-0.10475-0.20614-0.25008-0.20614-0.2433 0-0.36497 0.22642-0.41228 0.37173z"/><path d="m366.3 240.36 3e-3 0.0135v0.0102l6e-3 0.027 3e-3 0.0102 6e-3 0.027 7e-3 0.0102 3e-3 0.0135 7e-3 0.0102 7e-3 0.0135 3e-3 0.0102 7e-3 0.0102 0.0102 0.0102 0.014 0.0204 0.0102 0.0102 7e-3 0.0102 0.0102 0.0102 0.0408 0.028 0.0135 7e-3 0.0102 7e-3 0.0675 0.015h0.027c0.071 0 0.27711-0.0473 0.27711-0.31766v-0.18925h-0.0845v0.18925c0 0.19601-0.0845 0.21628-0.12167 0.21628-0.11152 0-0.12503-0.15207-0.12503-0.16897v-0.6725c0-0.14193 0-0.27036-0.12167-0.39539-0.13179-0.1318-0.29738-0.18587-0.45959-0.18587-0.27711 0-0.51029 0.15883-0.51029 0.37849 0 0.10138 0.0676 0.15883 0.15545 0.15883 0.0946 0 0.15545-0.0676 0.15545-0.15207 0-0.0406-0.0169-0.15208-0.17235-0.15545 0.0912-0.11827 0.25684-0.15546 0.36497-0.15546 0.1656 0 0.35484 0.1318 0.35484 0.42919v0.5306c0 0.32106-0.23993 0.43257-0.392 0.43257-0.16559 0-0.30415-0.11489-0.30415-0.28387 0-0.18586 0.14193-0.46297 0.69615-0.48326v-0.071c-0.16896 0.0102-0.40552 0.0202-0.61842 0.12166-0.25346 0.11489-0.33794 0.28725-0.33794 0.43594 0 0.27035 0.32779 0.35484 0.5407 0.35484 0.22304 0 0.37511-0.13517 0.43932-0.29063z"/><path d="m367.44 239.27h0.48326v-0.10476h-0.48326v-0.61844h-0.0845c-3e-3 0.27711-0.10476 0.63534-0.43594 0.64885v0.0744h0.28725v0.92596c0 0.41229 0.31428 0.45284 0.43594 0.45284 0.23995 0 0.33118-0.23655 0.33118-0.45284v-0.18925h-0.0811v0.18249c0 0.25008-0.10139 0.37512-0.22642 0.37512-0.22643 0-0.22643-0.30415-0.22643-0.3616z"/><path d="m369.49 240.35v0.30077l0.48325-0.0372v-0.10138c-0.23318 0-0.26022-0.0237-0.26022-0.18924v-1.1929l-0.49677 0.0372v0.10476c0.23655 0 0.26359 0.0237 0.26359 0.18924v0.59479c0 0.294-0.16222 0.52043-0.40891 0.52043-0.28387 0-0.29738-0.15546-0.29738-0.33119v-1.1152l-0.4934 0.0372v0.10475c0.26359 0 0.26359 0.0102 0.26359 0.30753v0.50353c0 0.26359 0 0.56774 0.5103 0.56774 0.18924 0 0.33793-0.0946 0.43595-0.30077z"/><path d="m370.6 239.5v-0.37174l-0.46974 0.0372v0.10475c0.23656 0 0.2636 0.0237 0.2636 0.18925v0.89892c0 0.15207-0.0372 0.15207-0.2636 0.15207v0.10139c0.1318-3e-3 0.29064-0.0102 0.38526-0.0102 0.13517 0 0.29401 0 0.42919 0.0102v-0.10139h-0.071c-0.25007 0-0.25683-0.0372-0.25683-0.15882v-0.51705c0-0.33456 0.14194-0.63195 0.39877-0.63195 0.0237 0 0.0304 0 0.0372 3e-3 -0.0102 3e-3 -0.0777 0.0439-0.0777 0.13179 0 0.0946 0.071 0.14194 0.14193 0.14194 0.0642 0 0.14532-0.0372 0.14532-0.14532 0-0.10814-0.10138-0.20614-0.2467-0.20614-0.24669 0-0.36835 0.22642-0.41566 0.37173z"/><path d="m371.73 239.84 3e-3 -0.071c0.0202-0.50015 0.30414-0.58463 0.41905-0.58463 0.34808 0 0.38187 0.45284 0.38187 0.58463h-0.80092l-3e-3 0.071h0.94285c0.0743 0 0.0845 0 0.0845-0.071 0-0.33118-0.18249-0.65898-0.60491-0.65898-0.39202 0-0.69954 0.34807-0.69954 0.76712 0 0.44947 0.35146 0.77389 0.74009 0.77389 0.41229 0 0.56436-0.37174 0.56436-0.43594 0-0.0338-0.0304-0.0406-0.0439-0.0406-0.0304 0-0.0372 0.0202-0.0439 0.0473-0.11828 0.3447-0.42243 0.3447-0.45622 0.3447-0.16897 0-0.30414-0.098-0.38187-0.22304-0.10139-0.16222-0.10139-0.38188-0.10139-0.50353z"/><g stroke="#000"><g transform="matrix(0 -.3304 .3304 0 227.35 375.68)"><path d="m237.71 272.81-0.03-0.26v-2.68c0-0.33 0.02-0.4 0.48-0.4h0.89c1.59 0 1.59 1.05 1.59 1.54 0 0.47 0 1.54-1.59 1.54h-1.37l0.03 0.26h1.68c1.2 0 2.28-0.81 2.28-1.8 0-0.98-0.99-1.85-2.36-1.85h-3.52v0.31h0.24c0.77 0 0.79 0.11 0.79 0.47v5.23c0 0.36-0.02 0.47-0.79 0.47h-0.24v0.31c0.35-0.03 1.09-0.03 1.47-0.03s1.12 0 1.47 0.03v-0.31h-0.24c-0.76 0-0.78-0.11-0.78-0.47z"/><path d="m243.89 272.65v-1.1l-1.39 0.11v0.31c0.7 0 0.78 0.07 0.78 0.56v2.66c0 0.45-0.11 0.45-0.78 0.45v0.31c0.39-0.01 0.86-0.03 1.14-0.03 0.4 0 0.87 0 1.27 0.03v-0.31h-0.21c-0.74 0-0.76-0.11-0.76-0.47v-1.53c0-0.98 0.42-1.87 1.18-1.87 0.06 0 0.09 0 0.1 0.01-0.03 0.01-0.22 0.13-0.22 0.39 0 0.28 0.21 0.43 0.43 0.43 0.17 0 0.42-0.12 0.42-0.44s-0.31-0.61-0.73-0.61c-0.73 0-1.09 0.67-1.23 1.1z"/><path d="m247.89 271.55-1.39 0.11v0.31c0.64 0 0.73 0.06 0.73 0.55v2.67c0 0.45-0.11 0.45-0.77 0.45v0.31c0.31-0.01 0.85-0.03 1.09-0.03 0.35 0 0.7 0.02 1.04 0.03v-0.31c-0.66 0-0.7-0.05-0.7-0.44z"/><path d="m247.93 269.83v-0.06l-0.01-0.03v-0.03l-0.01-0.02v-0.03l-0.01-0.02-0.01-0.03-0.01-0.02-0.02-0.03-0.02-0.04-0.02-0.02-0.01-0.02-0.04-0.04-0.02-0.01-0.02-0.02-0.02-0.01-0.02-0.02-0.06-0.03-0.03-0.01-0.02-0.01-0.03-0.01-0.02-0.01h-0.05l-0.03-0.01h-0.05c-0.31 0-0.53 0.27-0.53 0.53s0.22 0.52 0.53 0.52c0.28 0 0.53-0.2 0.53-0.52z"/><path d="m253.59 273.82v-0.12l-0.01-0.12-0.04-0.22-0.02-0.12-0.03-0.11-0.03-0.1-0.04-0.11-0.15-0.3-0.06-0.09-0.06-0.1-0.07-0.08-0.07-0.09-0.07-0.08-0.08-0.08-0.16-0.14-0.27-0.18-0.09-0.05-0.1-0.05-0.2-0.08-0.11-0.03-0.1-0.03-0.11-0.02-0.22-0.02h-0.11l-0.01 0.21c0.43 0 0.86 0.22 1.12 0.65s0.26 1 0.26 1.38c0 0.36 0 0.9-0.22 1.33-0.22 0.45-0.66 0.74-1.15 0.74-0.43 0-0.87-0.21-1.14-0.67-0.25-0.44-0.25-1.04-0.25-1.4 0-0.39 0-0.92 0.24-1.36 0.27-0.46 0.74-0.67 1.14-0.67l0.01-0.21c-1.25 0-2.22 1.08-2.22 2.32 0 1.28 1.04 2.23 2.21 2.23 1.2 0 2.21-0.97 2.21-2.23z"/><path d="m255.54 272.65v-1.1l-1.39 0.11v0.31c0.7 0 0.78 0.07 0.78 0.56v2.66c0 0.45-0.11 0.45-0.78 0.45v0.31c0.39-0.01 0.86-0.03 1.14-0.03 0.4 0 0.87 0 1.27 0.03v-0.31h-0.21c-0.74 0-0.76-0.11-0.76-0.47v-1.53c0-0.98 0.42-1.87 1.18-1.87 0.07 0 0.09 0 0.11 0.01-0.03 0.01-0.23 0.13-0.23 0.39 0 0.28 0.21 0.43 0.43 0.43 0.17 0 0.42-0.12 0.42-0.44s-0.3-0.61-0.73-0.61c-0.73 0-1.09 0.67-1.23 1.1z"/><path d="m259.85 274.02h0.02l0.03 0.01h0.03l0.06 0.02 0.2 0.05 0.04 0.02 0.05 0.02 0.08 0.04 0.05 0.02 0.04 0.02 0.05 0.03 0.16 0.12 0.03 0.04 0.04 0.04 0.03 0.04 0.03 0.05 0.01 0.02 0.01 0.03 0.01 0.02 0.01 0.03 0.01 0.02 0.03 0.09v0.03l0.01 0.03v0.03l0.01 0.03v0.06c0 0.51-0.35 0.91-1.13 0.91-0.84 0-1.2-0.57-1.39-1.41-0.03-0.13-0.03-0.17-0.13-0.17-0.13 0-0.13 0.07-0.13 0.25v1.31c0 0.17 0 0.23 0.11 0.23 0.05 0 0.06-0.01 0.25-0.19 0.02-0.02 0.02-0.04 0.19-0.23 0.44 0.41 0.89 0.42 1.1 0.42 1.15 0 1.61-0.66 1.61-1.38 0-0.52-0.3-0.82-0.42-0.94-0.33-0.32-0.72-0.4-1.14-0.48-0.56-0.1-1.22-0.23-1.22-0.81 0-0.35 0.25-0.76 1.11-0.76 1.1 0 1.15 0.9 1.17 1.21 0.01 0.09 0.1 0.09 0.12 0.09 0.13 0 0.13-0.05 0.13-0.24v-1.01c0-0.16 0-0.23-0.11-0.23-0.05 0-0.07 0-0.2 0.11-0.03 0.05-0.13 0.13-0.17 0.16-0.38-0.27-0.79-0.27-0.94-0.27-1.21 0-1.59 0.66-1.59 1.22 0 0.35 0.16 0.62 0.42 0.84 0.32 0.26 0.6 0.32 1.32 0.46z"/></g><g transform="matrix(0 -.3438 .3438 0 217.15 349.44)"><path d="m224.61 287.09v0.31h0.24c0.77 0 0.79 0.11 0.79 0.47v5.23c0 0.36-0.02 0.47-0.79 0.47h-0.24v0.31h3.65l-0.27-0.31h-1.01c-0.46 0-0.48-0.07-0.48-0.4v-5.37c0-0.33 0.02-0.4 0.48-0.4h1c0.62 0 1.31 0.22 1.82 0.93 0.42 0.58 0.51 1.44 0.51 2.21 0 1.1-0.18 1.7-0.54 2.19-0.2 0.26-0.77 0.84-1.78 0.84l0.27 0.31c1.68 0 3.05-1.47 3.05-3.34 0-1.89-1.34-3.45-3.05-3.45z"/><path d="m236.57 291.75v-0.12l-0.01-0.11-0.02-0.12-0.04-0.22-0.03-0.11-0.08-0.22-0.04-0.1-0.1-0.2-0.12-0.18-0.14-0.18-0.07-0.08-0.08-0.07-0.08-0.08-0.08-0.07-0.27-0.18-0.09-0.05-0.1-0.05-0.2-0.08-0.11-0.03-0.1-0.02-0.22-0.04-0.11-0.01h-0.11l-0.01 0.22c0.43 0 0.86 0.21 1.12 0.64s0.26 1 0.26 1.38c0 0.36 0 0.9-0.22 1.33-0.22 0.45-0.66 0.74-1.15 0.74-0.43 0-0.87-0.21-1.14-0.67-0.25-0.43-0.25-1.04-0.25-1.4 0-0.39 0-0.92 0.24-1.36 0.27-0.46 0.74-0.66 1.14-0.66l0.01-0.22c-1.25 0-2.22 1.08-2.22 2.32 0 1.28 1.04 2.24 2.21 2.24 1.2 0 2.21-0.98 2.21-2.24z"/><path d="m238.3 291.71v-0.22l0.01-0.07v-0.07l0.01-0.06 0.01-0.07 0.01-0.06v-0.06l0.01-0.06 0.02-0.06 0.01-0.06 0.02-0.11 0.04-0.1 0.03-0.1 0.03-0.09 0.04-0.08 0.05-0.08 0.04-0.08 0.05-0.07 0.04-0.06 0.05-0.06 0.11-0.11 0.05-0.04 0.06-0.05 0.05-0.03 0.06-0.04 0.06-0.03 0.05-0.02 0.06-0.03 0.06-0.01 0.05-0.02 0.06-0.01 0.1-0.02h0.11c0.09 0 0.71 0.01 1.06 0.36-0.41 0.03-0.47 0.33-0.47 0.46 0 0.26 0.18 0.46 0.46 0.46 0.26 0 0.46-0.17 0.46-0.47 0-0.67-0.76-1.06-1.52-1.06-1.25 0-2.17 1.07-2.17 2.3 0 1.27 0.99 2.26 2.15 2.26 1.33 0 1.65-1.2 1.65-1.29 0-0.1-0.1-0.1-0.13-0.1-0.09 0-0.11 0.04-0.13 0.1-0.29 0.92-0.94 1.04-1.3 1.04-0.53 0-1.41-0.43-1.41-2.03z"/><path d="m245.46 293.09v0.9l1.44-0.11v-0.31c-0.7 0-0.78-0.07-0.78-0.56v-3.52l-1.47 0.11v0.3c0.7 0 0.78 0.07 0.78 0.56v1.77c0 0.86-0.48 1.54-1.21 1.54-0.84 0-0.88-0.47-0.88-0.99v-3.29l-1.46 0.11v0.3c0.78 0 0.78 0.03 0.78 0.92v1.49c0 0.77 0 1.68 1.51 1.68 0.56 0 1-0.28 1.29-0.9z"/><path d="m248.19 290.46v2.66c0 0.45-0.11 0.45-0.78 0.45v0.31c0.35-0.01 0.86-0.03 1.13-0.03 0.26 0 0.78 0.02 1.12 0.03v-0.31c-0.67 0-0.78 0-0.78-0.45v-1.83c0-1.03 0.71-1.58 1.35-1.58 0.62 0 0.73 0.53 0.73 1.1v2.31c0 0.45-0.11 0.45-0.77 0.45v0.31c0.35-0.01 0.85-0.03 1.12-0.03 0.26 0 0.78 0.02 1.12 0.03v-0.31c-0.67 0-0.78 0-0.78-0.45v-1.83c0-1.03 0.71-1.58 1.35-1.58 0.63 0 0.74 0.53 0.74 1.1v2.31c0 0.45-0.11 0.45-0.78 0.45v0.31c0.35-0.01 0.86-0.03 1.13-0.03 0.25 0 0.77 0.02 1.11 0.03v-0.31c-0.52 0-0.77 0-0.77-0.3v-1.9c0-0.85 0-1.16-0.31-1.52-0.14-0.16-0.47-0.36-1.05-0.36-0.84 0-1.28 0.59-1.45 0.97-0.14-0.86-0.87-0.97-1.32-0.97-0.73 0-1.2 0.42-1.48 1.04v-1.04l-1.41 0.11v0.3c0.7 0 0.78 0.07 0.78 0.56z"/><path d="m256.5 291.58 0.01-0.21c0.06-1.47 0.9-1.72 1.24-1.72 1.03 0 1.13 1.34 1.13 1.72h-2.37l-0.01 0.21h2.79c0.22 0 0.24 0 0.24-0.21 0-0.98-0.53-1.94-1.78-1.94-1.16 0-2.07 1.02-2.07 2.26 0 1.33 1.04 2.3 2.19 2.3 1.22 0 1.66-1.1 1.66-1.29 0-0.1-0.07-0.12-0.12-0.12-0.09 0-0.11 0.06-0.13 0.14-0.35 1.02-1.25 1.02-1.35 1.02-0.5 0-0.9-0.3-1.13-0.67-0.3-0.47-0.3-1.13-0.3-1.49z"/><path d="m260.92 290.46v2.66c0 0.45-0.11 0.45-0.78 0.45v0.31c0.35-0.01 0.86-0.03 1.13-0.03 0.26 0 0.78 0.02 1.12 0.03v-0.31c-0.67 0-0.78 0-0.78-0.45v-1.83c0-1.03 0.71-1.58 1.35-1.58 0.62 0 0.73 0.53 0.73 1.1v2.31c0 0.45-0.11 0.45-0.77 0.45v0.31c0.35-0.01 0.85-0.03 1.12-0.03 0.26 0 0.78 0.02 1.12 0.03v-0.31c-0.52 0-0.77 0-0.78-0.3v-1.9c0-0.85 0-1.16-0.31-1.52-0.14-0.16-0.47-0.36-1.04-0.36-0.73 0-1.2 0.42-1.48 1.04v-1.04l-1.41 0.11v0.3c0.7 0 0.78 0.07 0.78 0.56z"/><path d="m266.81 289.9h1.42v-0.3h-1.42v-1.83h-0.25c-0.01 0.81-0.31 1.88-1.29 1.92v0.21h0.85v2.75c0 1.22 0.93 1.34 1.28 1.34 0.71 0 0.99-0.71 0.99-1.34v-0.57h-0.25v0.55c0 0.73-0.3 1.11-0.67 1.11-0.66 0-0.66-0.9-0.66-1.07z"/><path d="m271.03 291.95 0.02 0.01h0.03l0.03 0.01h0.03l0.03 0.01 0.04 0.01 0.03 0.01 0.08 0.02 0.05 0.02 0.04 0.01 0.04 0.02 0.05 0.02 0.04 0.02 0.05 0.02 0.04 0.02 0.04 0.03 0.05 0.03 0.08 0.06 0.03 0.04 0.04 0.03 0.03 0.04 0.03 0.05 0.03 0.04 0.02 0.02 0.01 0.03 0.01 0.02 0.01 0.03 0.01 0.02 0.03 0.09v0.03l0.01 0.03v0.06l0.01 0.03v0.03c0 0.51-0.35 0.91-1.13 0.91-0.84 0-1.2-0.57-1.39-1.41-0.03-0.13-0.04-0.17-0.14-0.17-0.13 0-0.13 0.07-0.13 0.25v1.31c0 0.17 0 0.24 0.11 0.24 0.05 0 0.06-0.01 0.25-0.2 0.02-0.02 0.02-0.04 0.2-0.23 0.44 0.42 0.89 0.43 1.1 0.43 1.15 0 1.61-0.67 1.61-1.38 0-0.53-0.3-0.83-0.42-0.95-0.33-0.32-0.72-0.39-1.14-0.47-0.56-0.11-1.23-0.24-1.23-0.82 0-0.35 0.26-0.75 1.12-0.75 1.1 0 1.15 0.89 1.17 1.2 0.01 0.09 0.1 0.09 0.12 0.09 0.13 0 0.13-0.05 0.13-0.24v-1c0-0.17 0-0.24-0.11-0.24-0.05 0-0.07 0-0.2 0.12-0.03 0.04-0.13 0.13-0.17 0.16-0.38-0.28-0.79-0.28-0.94-0.28-1.22 0-1.6 0.66-1.6 1.22 0 0.35 0.16 0.63 0.43 0.84 0.32 0.26 0.6 0.32 1.32 0.46z"/></g><g transform="matrix(0 -.33537 .33537 0 213.78 400.11)"><path d="m210.22 311.04v0.12l-0.01 0.03v0.05l-0.01 0.02v0.02l-0.04 0.08-0.03 0.03-0.02 0.01-0.02 0.02-0.02 0.01h-0.01l-0.02 0.01h-0.01l-0.01 0.01h-0.02l-0.01 0.01h-0.02l-0.02 0.01h-0.03l-0.02 0.01h-0.04l-0.03 0.01h-0.09l-0.03 0.01h-0.52v0.31h5.75l0.42-2.56h-0.24c-0.25 1.53-0.48 2.25-2.2 2.25h-1.33c-0.46 0-0.48-0.07-0.48-0.39v-2.66h0.89c0.97 0 1.08 0.32 1.08 1.17h0.25v-2.64h-0.25c0 0.86-0.11 1.17-1.08 1.17h-0.89v-2.39c0-0.33 0.02-0.4 0.48-0.4h1.29c1.53 0 1.8 0.55 1.96 1.93h0.25l-0.28-2.23h-5.62v0.3h0.24c0.77 0 0.79 0.11 0.79 0.47z"/><path d="m217.72 309.88 0.02 0.01h0.02l0.06 0.02h0.04l0.03 0.01 0.08 0.02 0.04 0.02 0.04 0.01 0.05 0.01 0.04 0.02 0.05 0.02 0.08 0.04 0.05 0.03 0.04 0.02 0.12 0.09 0.08 0.08 0.09 0.12 0.01 0.03 0.02 0.02 0.01 0.03 0.01 0.02 0.01 0.03 0.01 0.02 0.01 0.03v0.03l0.01 0.03v0.03l0.01 0.03v0.1c0 0.5-0.35 0.9-1.12 0.9-0.84 0-1.2-0.56-1.39-1.41-0.03-0.13-0.04-0.17-0.14-0.17-0.13 0-0.13 0.07-0.13 0.25v1.31c0 0.17 0 0.24 0.11 0.24 0.05 0 0.06-0.01 0.25-0.2 0.02-0.02 0.02-0.04 0.2-0.23 0.44 0.42 0.89 0.43 1.1 0.43 1.14 0 1.6-0.66 1.6-1.38 0-0.53-0.3-0.82-0.42-0.94-0.32-0.32-0.71-0.4-1.13-0.48-0.56-0.11-1.23-0.24-1.23-0.82 0-0.34 0.26-0.75 1.12-0.75 1.09 0 1.14 0.89 1.16 1.2 0.01 0.09 0.1 0.09 0.12 0.09 0.13 0 0.13-0.05 0.13-0.24v-1c0-0.17 0-0.24-0.11-0.24-0.05 0-0.07 0-0.2 0.12-0.03 0.04-0.13 0.13-0.17 0.16-0.37-0.28-0.78-0.28-0.93-0.28-1.22 0-1.6 0.67-1.6 1.22 0 0.35 0.16 0.63 0.43 0.85 0.32 0.25 0.6 0.31 1.32 0.45z"/><path d="m221.3 307.84h1.42v-0.31h-1.42v-1.83h-0.25c-0.01 0.82-0.31 1.88-1.29 1.92v0.22h0.85v2.74c0 1.22 0.93 1.34 1.29 1.34 0.7 0 0.98-0.7 0.98-1.34v-0.57h-0.25v0.55c0 0.73-0.3 1.11-0.66 1.11-0.67 0-0.67-0.9-0.67-1.07z"/><path d="m225.21 307.42-1.4 0.11v0.31c0.65 0 0.74 0.06 0.74 0.54v2.68c0 0.44-0.11 0.44-0.77 0.44v0.31c0.31-0.01 0.85-0.03 1.09-0.03 0.35 0 0.7 0.02 1.04 0.03v-0.31c-0.66 0-0.7-0.05-0.7-0.43z"/><path d="m225.25 305.69v-0.06l-0.01-0.02v-0.03l-0.01-0.03v-0.02l-0.01-0.03-0.01-0.02-0.01-0.03-0.02-0.02-0.02-0.04-0.02-0.02-0.01-0.02-0.06-0.06-0.02-0.01-0.02-0.02-0.04-0.02-0.02-0.02-0.02-0.01-0.03-0.01-0.02-0.01h-0.02l-0.03-0.01-0.02-0.01h-0.08l-0.03-0.01c-0.31 0-0.53 0.27-0.53 0.53 0 0.27 0.22 0.53 0.53 0.53 0.28 0 0.53-0.21 0.53-0.53z"/><path d="m227.31 308.39v2.67c0 0.44-0.11 0.44-0.78 0.44v0.31c0.35-0.01 0.86-0.03 1.13-0.03 0.26 0 0.78 0.02 1.12 0.03v-0.31c-0.67 0-0.78 0-0.78-0.44v-1.83c0-1.03 0.71-1.59 1.34-1.59s0.74 0.53 0.74 1.1v2.32c0 0.44-0.11 0.44-0.77 0.44v0.31c0.34-0.01 0.85-0.03 1.12-0.03 0.26 0 0.78 0.02 1.12 0.03v-0.31c-0.67 0-0.78 0-0.78-0.44v-1.83c0-1.03 0.71-1.59 1.35-1.59 0.63 0 0.73 0.53 0.73 1.1v2.32c0 0.44-0.1 0.44-0.77 0.44v0.31c0.35-0.01 0.85-0.03 1.12-0.03 0.26 0 0.78 0.02 1.12 0.03v-0.31c-0.52 0-0.77 0-0.78-0.29v-1.9c0-0.86 0-1.16-0.31-1.52-0.14-0.17-0.46-0.37-1.04-0.37-0.84 0-1.28 0.6-1.45 0.97-0.14-0.86-0.88-0.97-1.33-0.97-0.72 0-1.19 0.43-1.47 1.04v-1.04l-1.41 0.11v0.31c0.7 0 0.78 0.07 0.78 0.55z"/><path d="m237.84 311.06v0.03l0.01 0.04v0.04l0.01 0.04 0.01 0.03 0.01 0.04 0.01 0.03 0.02 0.04 0.01 0.04 0.02 0.03 0.02 0.04 0.1 0.15 0.11 0.11 0.06 0.04 0.04 0.02 0.03 0.02 0.04 0.02 0.03 0.01 0.16 0.04h0.08c0.21 0 0.82-0.14 0.82-0.94v-0.56h-0.25v0.56c0 0.57-0.25 0.63-0.36 0.63-0.32 0-0.36-0.44-0.36-0.49v-1.99c0-0.42 0-0.81-0.36-1.17-0.39-0.39-0.89-0.55-1.37-0.55-0.82 0-1.51 0.47-1.51 1.12 0 0.3 0.2 0.47 0.46 0.47 0.28 0 0.46-0.2 0.46-0.46 0-0.12-0.05-0.44-0.51-0.45 0.27-0.35 0.76-0.46 1.08-0.46 0.49 0 1.06 0.39 1.06 1.27v1.57c0 0.94-0.72 1.28-1.17 1.28-0.49 0-0.9-0.35-0.9-0.84 0-0.55 0.42-1.37 2.07-1.43v-0.21c-0.51 0.03-1.21 0.06-1.84 0.36-0.75 0.33-1 0.85-1 1.29 0 0.8 0.97 1.05 1.6 1.05 0.66 0 1.12-0.4 1.31-0.86z"/><path d="m241.22 307.84h1.43v-0.31h-1.43v-1.83h-0.25c-0.01 0.82-0.31 1.88-1.28 1.92v0.22h0.84v2.74c0 1.22 0.93 1.34 1.29 1.34 0.71 0 0.99-0.7 0.99-1.34v-0.57h-0.25v0.55c0 0.73-0.3 1.11-0.67 1.11-0.67 0-0.67-0.9-0.67-1.07z"/><path d="m244.48 309.52 0.01-0.21c0.06-1.48 0.9-1.73 1.23-1.73 1.03 0 1.13 1.34 1.13 1.73h-2.36l-0.01 0.21h2.78c0.22 0 0.25 0 0.25-0.21 0-0.99-0.54-1.95-1.79-1.95-1.15 0-2.07 1.02-2.07 2.27 0 1.33 1.05 2.29 2.19 2.29 1.22 0 1.67-1.1 1.67-1.29 0-0.1-0.08-0.12-0.13-0.12-0.09 0-0.11 0.06-0.13 0.14-0.35 1.02-1.25 1.02-1.35 1.02-0.49 0-0.89-0.3-1.12-0.66-0.3-0.48-0.3-1.14-0.3-1.49z"/><path d="m251.59 311.27v0.65l1.46-0.11v-0.31c-0.69 0-0.77-0.07-0.77-0.55v-6.03l-1.44 0.11v0.3c0.7 0 0.78 0.07 0.78 0.56v2.15c-0.29-0.36-0.72-0.62-1.26-0.62l0.04 0.22c0.35 0 0.77 0.15 1.08 0.59 0.11 0.17 0.11 0.19 0.11 0.37v2.04c0 0.18 0 0.2-0.11 0.37-0.3 0.47-0.75 0.69-1.18 0.69-0.45 0-0.81-0.26-1.05-0.63-0.25-0.41-0.28-0.98-0.28-1.39 0-0.36 0.02-0.96 0.31-1.41 0.2-0.3 0.58-0.63 1.12-0.63l-0.04-0.22c-1.18 0-2.22 0.97-2.22 2.25 0 1.27 0.98 2.25 2.11 2.25 0.64 0 1.09-0.34 1.34-0.65z"/><path d="m258.37 308.08v-0.66l-1.44 0.11v0.31c0.71 0 0.78 0.06 0.78 0.49v4.65c0 0.45-0.11 0.45-0.78 0.45v0.31c0.34-0.01 0.86-0.03 1.12-0.03 0.27 0 0.78 0.02 1.12 0.03v-0.31c-0.66 0-0.77 0-0.77-0.45v-1.76l0.14-0.12c-0.14-0.21-0.14-0.22-0.14-0.42v-2.22c0.29-0.5 0.77-0.79 1.28-0.79 0.73 0 1.34 0.87 1.34 1.99 0 1.21-0.7 2.04-1.44 2.04-0.4 0-0.77-0.2-1.04-0.6l-0.14 0.12c0.05 0.16 0.47 0.7 1.22 0.7 1.19 0 2.23-0.97 2.23-2.26 0-1.26-0.97-2.24-2.09-2.24-0.77 0-1.19 0.44-1.39 0.66z"/><path d="m265.51 311.06v0.03l0.01 0.04v0.04l0.01 0.04 0.01 0.03 0.01 0.04 0.02 0.03 0.02 0.08 0.02 0.03 0.02 0.04 0.08 0.12 0.03 0.03 0.02 0.03 0.08 0.08 0.03 0.02 0.04 0.02 0.06 0.04 0.04 0.02 0.03 0.01 0.16 0.04h0.08c0.22 0 0.82-0.14 0.82-0.94v-0.56h-0.25v0.56c0 0.57-0.25 0.63-0.35 0.63-0.33 0-0.37-0.44-0.37-0.49v-1.99c0-0.42 0-0.81-0.36-1.17-0.39-0.39-0.89-0.55-1.37-0.55-0.82 0-1.5 0.47-1.5 1.12 0 0.3 0.19 0.47 0.45 0.47 0.28 0 0.46-0.2 0.46-0.46 0-0.12-0.05-0.44-0.51-0.45 0.27-0.35 0.76-0.46 1.08-0.46 0.49 0 1.06 0.39 1.06 1.27v1.57c0 0.94-0.72 1.28-1.17 1.28-0.49 0-0.9-0.35-0.9-0.84 0-0.55 0.42-1.37 2.07-1.43v-0.21c-0.51 0.03-1.21 0.06-1.84 0.36-0.75 0.33-0.99 0.85-0.99 1.29 0 0.8 0.96 1.05 1.59 1.05 0.66 0 1.12-0.4 1.31-0.86z"/><path d="m268.83 308.51v-1.09l-1.38 0.11v0.31c0.7 0 0.77 0.07 0.77 0.55v2.67c0 0.44-0.1 0.44-0.77 0.44v0.31c0.39-0.01 0.86-0.03 1.13-0.03 0.4 0 0.87 0 1.27 0.03v-0.31h-0.21c-0.74 0-0.76-0.11-0.76-0.46v-1.53c0-0.99 0.42-1.87 1.18-1.87 0.07 0 0.09 0 0.11 0.01-0.03 0.01-0.23 0.13-0.23 0.39 0 0.27 0.21 0.42 0.43 0.42 0.18 0 0.43-0.12 0.43-0.43 0-0.32-0.31-0.61-0.74-0.61-0.73 0-1.09 0.67-1.23 1.09z"/><path d="m274.39 311.06 0.01 0.03v0.04l0.02 0.08 0.01 0.03 0.01 0.04 0.01 0.03 0.01 0.04 0.02 0.04 0.01 0.03 0.02 0.04 0.06 0.09 0.03 0.03 0.04 0.06 0.03 0.03 0.03 0.02 0.03 0.03 0.09 0.06 0.04 0.02 0.03 0.02 0.04 0.01 0.03 0.01 0.12 0.03h0.09c0.21 0 0.82-0.14 0.82-0.94v-0.56h-0.25v0.56c0 0.57-0.25 0.63-0.36 0.63-0.33 0-0.37-0.44-0.37-0.49v-1.99c0-0.42 0-0.81-0.36-1.17-0.39-0.39-0.89-0.55-1.37-0.55-0.81 0-1.5 0.47-1.5 1.12 0 0.3 0.2 0.47 0.46 0.47 0.28 0 0.46-0.2 0.46-0.46 0-0.12-0.05-0.44-0.51-0.45 0.27-0.35 0.75-0.46 1.07-0.46 0.49 0 1.06 0.39 1.06 1.27v1.57c0 0.94-0.72 1.28-1.17 1.28-0.48 0-0.89-0.35-0.89-0.84 0-0.55 0.42-1.37 2.06-1.43v-0.21c-0.51 0.03-1.2 0.06-1.83 0.36-0.75 0.33-1 0.85-1 1.29 0 0.8 0.97 1.05 1.6 1.05 0.65 0 1.11-0.4 1.3-0.86z"/><path d="m277.15 308.39v2.67c0 0.44-0.11 0.44-0.78 0.44v0.31c0.35-0.01 0.86-0.03 1.13-0.03 0.26 0 0.78 0.02 1.11 0.03v-0.31c-0.66 0-0.77 0-0.77-0.44v-1.83c0-1.03 0.71-1.59 1.34-1.59s0.74 0.53 0.74 1.1v2.32c0 0.44-0.11 0.44-0.78 0.44v0.31c0.35-0.01 0.86-0.03 1.13-0.03 0.26 0 0.78 0.02 1.12 0.03v-0.31c-0.67 0-0.78 0-0.78-0.44v-1.83c0-1.03 0.71-1.59 1.35-1.59 0.62 0 0.73 0.53 0.73 1.1v2.32c0 0.44-0.11 0.44-0.78 0.44v0.31c0.35-0.01 0.86-0.03 1.13-0.03 0.26 0 0.78 0.02 1.12 0.03v-0.31c-0.52 0-0.77 0-0.78-0.29v-1.9c0-0.86 0-1.16-0.31-1.52-0.14-0.17-0.47-0.37-1.04-0.37-0.84 0-1.28 0.6-1.45 0.97-0.14-0.86-0.88-0.97-1.33-0.97-0.72 0-1.19 0.43-1.47 1.04v-1.04l-1.41 0.11v0.31c0.7 0 0.78 0.07 0.78 0.55z"/><path d="m286.43 309.88 0.02 0.01h0.03l0.02 0.01 0.04 0.01h0.03l0.04 0.01 0.03 0.01 0.04 0.01 0.04 0.02 0.05 0.01 0.04 0.01 0.04 0.02 0.05 0.02 0.08 0.04 0.05 0.03 0.04 0.02 0.04 0.03 0.05 0.03 0.11 0.11 0.09 0.12 0.02 0.03 0.01 0.02 0.01 0.03 0.01 0.02 0.01 0.03 0.01 0.02 0.01 0.03v0.03l0.02 0.06v0.09l0.01 0.04c0 0.5-0.35 0.9-1.13 0.9-0.84 0-1.2-0.56-1.39-1.41-0.03-0.13-0.04-0.17-0.14-0.17-0.13 0-0.13 0.07-0.13 0.25v1.31c0 0.17 0 0.24 0.11 0.24 0.05 0 0.06-0.01 0.25-0.2 0.02-0.02 0.02-0.04 0.2-0.23 0.44 0.42 0.89 0.43 1.1 0.43 1.15 0 1.6-0.66 1.6-1.38 0-0.53-0.3-0.82-0.41-0.94-0.33-0.32-0.72-0.4-1.14-0.48-0.56-0.11-1.23-0.24-1.23-0.82 0-0.34 0.26-0.75 1.12-0.75 1.09 0 1.15 0.89 1.16 1.2 0.02 0.09 0.1 0.09 0.12 0.09 0.13 0 0.13-0.05 0.13-0.24v-1c0-0.17 0-0.24-0.11-0.24-0.05 0-0.06 0-0.2 0.12-0.03 0.04-0.13 0.13-0.16 0.16-0.38-0.28-0.79-0.28-0.94-0.28-1.22 0-1.6 0.67-1.6 1.22 0 0.35 0.16 0.63 0.43 0.85 0.32 0.25 0.6 0.31 1.32 0.45z"/></g></g></g><g transform="matrix(.30432 0 0 .30432 210.24 256.43)" stroke="none"><circle cx="417.7" cy="184.79" r="3.6338" fill="#f00" fill-opacity=".44928" fill-rule="evenodd" opacity=".97"/></g></g><path d="m153.16 767.2 1.83 15.311" fill="none" stroke-opacity=".40097" stroke-width=".21226"/><path d="m157.37 772.02-2.379 10.492" fill="none" stroke-opacity=".40097" stroke-width=".21226"/><g transform="matrix(.41928 0 0 .41928 92.948 485.78)" fill-opacity=".90196" fill-rule="evenodd" stroke-opacity=".7343" stroke-width="0" ns0:preamble="default_packages.tex" ns0:text="$words$\n" xml:space="preserve"><path d="m153.32 710.49v0.02l0.01 0.03v0.02l0.02 0.04v0.03l0.01 0.05 0.02 0.05 0.03 0.15 0.01 0.02v0.02l0.01 0.02v0.03l0.01 0.02v0.02l0.01 0.02v0.01l0.01 0.02v0.04l0.01 0.01v0.03c0 0.18-0.14 0.27-0.29 0.27-0.12 0-0.3-0.08-0.37-0.28-0.03-0.07-0.5-1.97-0.57-2.23-0.07-0.3-0.09-0.47-0.09-0.65 0-0.11 0-0.13 0.01-0.18-0.23-0.53-0.53-0.84-0.92-0.84-0.79 0-0.79 0.74-0.79 0.91 0 0.32 0.05 0.7 0.52 1.93 0.1 0.29 0.16 0.43 0.16 0.63 0 0.45-0.32 0.82-0.81 0.82-0.95 0-1.32-1.44-1.32-1.53 0-0.1 0.1-0.1 0.12-0.1 0.1 0 0.11 0.02 0.16 0.18 0.27 0.92 0.66 1.23 1.01 1.23 0.09 0 0.25-0.01 0.25-0.33 0-0.25-0.11-0.53-0.18-0.7-0.44-1.17-0.56-1.62-0.56-2 0-0.91 0.67-1.25 1.41-1.25 0.17 0 0.64 0 1.04 0.69 0.26-0.63 0.95-0.69 1.25-0.69 0.75 0 1.18 0.62 1.45 1.22 0.33 0.77 0.65 2.1 0.65 2.58 0 0.55-0.27 0.7-0.44 0.7-0.25 0-0.5-0.26-0.5-0.48 0-0.13 0.07-0.19 0.16-0.27 0.11-0.11 0.35-0.37 0.35-0.84 0-0.34-0.29-1.32-0.54-1.82-0.26-0.53-0.61-0.88-1.1-0.88-0.47 0-0.74 0.3-0.74 0.87 0 0.28 0.07 0.58 0.11 0.72z"/><path d="m160.79 709.84v0.09l-0.01 0.1-0.02 0.18-0.02 0.08-0.02 0.09-0.02 0.08-0.03 0.08-0.03 0.07-0.16 0.28-0.1 0.12-0.16 0.16-0.06 0.04-0.07 0.05-0.06 0.04-0.07 0.03-0.07 0.04-0.14 0.06-0.07 0.02-0.16 0.04-0.16 0.02h-0.08l-0.08 0.01c-1.34 0-2.68-1.42-2.68-2.83 0-0.98 0.67-1.67 1.6-1.67l0.01 0.21c-0.43 0-0.87 0.31-0.87 1.09 0 0.48 0.26 1.56 0.58 2.06 0.5 0.77 1.06 0.92 1.34 0.92 0.58 0 0.88-0.48 0.88-1.08 0-0.38-0.2-1.43-0.58-2.07-0.35-0.58-0.89-0.92-1.35-0.92l-0.01-0.21c1.32 0 2.67 1.37 2.67 2.82z"/><path d="m161.82 707.71v-0.01l-0.01-0.02v-0.03l-0.02-0.06v-0.03l-0.01-0.04-0.02-0.06v-0.03l-0.01-0.01v-0.03l-0.01-0.01v-0.05l-0.01-0.01v-0.04c0-0.18 0.14-0.26 0.29-0.26 0.12 0 0.3 0.07 0.37 0.27 0.02 0.04 0.36 1.39 0.4 1.57 0.08 0.33 0.26 1.03 0.32 1.3 0.04 0.12 0.32 0.59 0.55 0.81 0.08 0.07 0.37 0.33 0.8 0.33 0.26 0 0.41-0.12 0.42-0.12-0.3-0.05-0.52-0.29-0.52-0.55 0-0.16 0.11-0.35 0.38-0.35s0.55 0.23 0.55 0.59c0 0.35-0.32 0.65-0.83 0.65-0.65 0-1.08-0.49-1.27-0.77-0.08 0.45-0.44 0.77-0.91 0.77-0.46 0-0.65-0.39-0.74-0.57-0.18-0.34-0.31-0.93-0.31-0.96 0-0.1 0.1-0.1 0.12-0.1 0.1 0 0.11 0.01 0.17 0.22 0.17 0.71 0.37 1.19 0.73 1.19 0.17 0 0.31-0.08 0.31-0.46 0-0.21-0.03-0.32-0.16-0.83z"/><path d="m170.86 713.91v0.04h-0.01v0.02h-0.01v0.01h-0.01v0.01h-0.01v0.01h-0.01l-0.01 0.01h-0.03v0.01h-0.04c-0.15 0-1.1-0.09-1.26-0.11-0.08-0.01-0.14-0.06-0.14-0.19 0-0.12 0.09-0.12 0.24-0.12 0.47 0 0.49-0.07 0.49-0.17l-0.03-0.2-0.59-2.35c-0.18 0.37-0.47 0.64-0.92 0.64-1.17 0-2.4-1.47-2.4-2.92 0-0.93 0.54-1.58 1.32-1.58l0.02 0.21c-0.5 0-0.64 0.55-0.64 0.94 0 0.49 0.32 1.72 0.55 2.17 0.31 0.59 0.76 0.96 1.16 0.96 0.65 0 0.79-0.82 0.79-0.88s-0.02-0.12-0.03-0.17l-0.5-1.94c-0.05-0.18-0.05-0.2-0.2-0.37-0.44-0.55-0.85-0.71-1.13-0.71l-0.02-0.21c0.2 0 0.7 0.03 1.3 0.74 0.08-0.42 0.43-0.74 0.91-0.74 0.34 0 0.57 0.22 0.73 0.54 0.17 0.36 0.3 0.97 0.3 0.99 0 0.1-0.09 0.1-0.12 0.1-0.1 0-0.11-0.05-0.14-0.18-0.17-0.65-0.35-1.24-0.76-1.24-0.26 0-0.29 0.26-0.29 0.46 0 0.24 0.02 0.31 0.06 0.48z"/><path d="m174.8 710.84h-0.05l-0.03-0.01h-0.02l-0.02-0.01-0.03-0.01h-0.02l-0.06-0.03-0.02-0.02-0.04-0.02-0.02-0.02-0.02-0.01-0.01-0.02-0.02-0.01-0.01-0.02-0.02-0.01-0.07-0.14v-0.02l-0.01-0.02v-0.02l-0.01-0.02v-0.04c0-0.14 0.09-0.29 0.31-0.29s0.46 0.17 0.46 0.56c0 0.45-0.43 0.86-1.19 0.86-1.31 0-1.68-1.02-1.68-1.45 0-0.78 0.74-0.93 1.02-0.99 0.52-0.1 1.04-0.21 1.04-0.75 0-0.26-0.23-1.1-1.42-1.1-0.14 0-0.91 0-1.14 0.53 0.38-0.05 0.63 0.25 0.63 0.53 0 0.23-0.16 0.35-0.37 0.35-0.26 0-0.56-0.21-0.56-0.66 0-0.57 0.57-0.96 1.43-0.96 1.61 0 2 1.2 2 1.64 0 0.36-0.19 0.61-0.31 0.73-0.27 0.28-0.56 0.33-1 0.42-0.36 0.08-0.75 0.15-0.75 0.59 0 0.29 0.24 0.9 1.11 0.9 0.25 0 0.75-0.07 0.9-0.46z"/></g></g></g>
   <g transform="translate(-11.528 -.75595)" fill-opacity=".44928">
    <g fill="#008300">
     <circle cx="190.53" cy="258.11" r="3.726" opacity=".97"/>
     <circle cx="181.27" cy="244.13" r="3.726" opacity=".97"/>
     <circle cx="169.37" cy="250.93" r="3.726" opacity=".97"/>
    </g>
    <circle cx="173.49" cy="261.71" r="3.6338" fill="#f00" opacity=".97"/>
    <circle cx="168.61" cy="240.91" r="3.6374" fill="#0065ff" opacity=".97"/>
    <circle cx="178.82" cy="233.92" r="3.6374" fill="#0065ff" opacity=".97"/>
    <g fill="#f80aff">
     <circle cx="181.43" cy="253.01" r="3.5885" opacity=".97"/>
     <circle cx="193.08" cy="89.441" r="3.5885" opacity=".97"/>
     <circle cx="153.11" cy="44.084" r="3.5885" opacity=".97"/>
    </g>
   </g>
   <g transform="matrix(.9 0 0 -.9 -95.799 946.29)" fill-opacity=".86275" stroke="#000" stroke-miterlimit="10.433" stroke-width="0" ns0:preamble="default_packages.tex" ns0:text="$p_1=\\cdots$\n$p_2=\\cdots$\n$p_3=\\cdots$\n$p_4=\\cdots$\n" xml:space="preserve"><path d="m164.46 732.86-0.01-0.03v-0.03l-0.01-0.03-0.01-0.02v-0.03l-0.03-0.06v-0.02l-0.02-0.04-0.01-0.01-0.01-0.02-0.01-0.01-0.01-0.02-0.01-0.01-0.02-0.01-0.01-0.01-0.02-0.01h-0.02l-0.01-0.01-0.02-0.01h-0.03l-0.02-0.01h-0.04l-0.01-0.01h-0.21c-0.12 0-0.23 0-0.23-0.19 0-0.08 0.05-0.12 0.13-0.12 0.27 0 0.56 0.03 0.84 0.03 0.33 0 0.67-0.03 0.99-0.03 0.05 0 0.18 0 0.18 0.2 0 0.11-0.1 0.11-0.24 0.11-0.5 0-0.5 0.07-0.5 0.15 0 0.12 0.42 1.74 0.49 1.99 0.13-0.29 0.41-0.63 0.92-0.63l-0.02 0.21c-0.65 0-0.78 0.83-0.78 0.89 0 0.02 0 0.04 0.03 0.16l0.49 1.94c0.07 0.27 0.34 0.55 0.51 0.7 0.35 0.31 0.64 0.38 0.81 0.38 0.4 0 0.64-0.35 0.64-0.94 0-0.58-0.33-1.72-0.51-2.1-0.34-0.7-0.82-1.03-1.19-1.03l0.02-0.21c1.15 0 2.4 1.45 2.4 2.91 0 0.93-0.57 1.59-1.33 1.59-0.5 0-0.98-0.36-1.3-0.75-0.1 0.54-0.53 0.75-0.9 0.75-0.46 0-0.65-0.39-0.74-0.57-0.18-0.34-0.31-0.93-0.31-0.96 0-0.1 0.1-0.1 0.12-0.1 0.1 0 0.11 0.01 0.17 0.22 0.17 0.71 0.37 1.19 0.73 1.19 0.17 0 0.31-0.08 0.31-0.46 0-0.23-0.03-0.34-0.07-0.51z"/><path d="m171.37 737v0.08l-0.01 0.01v0.05l-0.02 0.02v0.01l-0.01 0.01h-0.01l-0.01 0.01h-0.04l-0.01 0.01h-0.1c-0.45-0.44-1.09-0.45-1.37-0.45v-0.25c0.16 0 0.63 0 1.01 0.2v-3.55c0-0.23 0-0.32-0.7-0.32h-0.26v-0.25c0.12 0.01 0.98 0.03 1.24 0.03 0.22 0 1.1-0.02 1.25-0.03v0.25h-0.26c-0.7 0-0.7 0.09-0.7 0.32z"/><path d="m183.11 737.32h0.09l0.01 0.01h0.07l0.02 0.01h0.02l0.02 0.01h0.01l0.01 0.01h0.01l0.06 0.06v0.01l0.01 0.01v0.02l0.01 0.01v0.05c0 0.2-0.19 0.2-0.33 0.2h-5.97c-0.14 0-0.33 0-0.33-0.2s0.19-0.2 0.34-0.2z"/><path d="m183.12 735.4h0.15l0.02 0.01h0.02l0.02 0.01h0.01l0.01 0.01h0.01l0.01 0.01h0.01l0.03 0.03h0.01v0.02h0.01v0.01l0.01 0.01v0.03h0.01v0.06c0 0.19-0.19 0.19-0.34 0.19h-5.95c-0.15 0-0.34 0-0.34-0.19 0-0.2 0.19-0.2 0.33-0.2z"/><path d="m188.69 736.56v0.08l-0.01 0.02v0.03l-0.01 0.02-0.01 0.03-0.01 0.02-0.01 0.03-0.02 0.04-0.02 0.02-0.01 0.02-0.04 0.04-0.01 0.02-0.02 0.02-0.02 0.01-0.02 0.02-0.02 0.01-0.02 0.02-0.03 0.01-0.04 0.02-0.03 0.01-0.04 0.02h-0.03l-0.03 0.01h-0.05l-0.03 0.01c-0.29 0-0.52-0.24-0.52-0.53s0.23-0.53 0.52-0.53 0.53 0.24 0.53 0.53z"/><path d="m193.12 736.56v0.08l-0.01 0.02v0.03l-0.01 0.02-0.01 0.03-0.01 0.02-0.01 0.03-0.02 0.04-0.02 0.02-0.01 0.02-0.02 0.02-0.01 0.02-0.04 0.04-0.02 0.01-0.02 0.02-0.02 0.01-0.02 0.02-0.02 0.01-0.03 0.01-0.04 0.02-0.03 0.01-0.02 0.01h-0.03l-0.02 0.01h-0.06l-0.03 0.01c-0.28 0-0.52-0.24-0.52-0.53s0.24-0.53 0.52-0.53c0.3 0 0.53 0.24 0.53 0.53z"/><path d="m197.54 736.56v0.08l-0.01 0.02v0.03l-0.01 0.02-0.01 0.03-0.01 0.02-0.01 0.03-0.02 0.04-0.02 0.02-0.01 0.02-0.02 0.02-0.01 0.02-0.04 0.04-0.02 0.01-0.02 0.02-0.02 0.01-0.02 0.02-0.02 0.01-0.03 0.01-0.04 0.02-0.03 0.01-0.02 0.01h-0.03l-0.02 0.01h-0.06l-0.02 0.01c-0.29 0-0.53-0.24-0.53-0.53s0.24-0.53 0.53-0.53 0.52 0.24 0.52 0.53z"/><path d="m164.46 723.94-0.01-0.03v-0.03l-0.01-0.03-0.01-0.02v-0.03l-0.03-0.06v-0.02l-0.02-0.04-0.01-0.01-0.01-0.02-0.01-0.01-0.01-0.02-0.01-0.01-0.02-0.01-0.01-0.01-0.02-0.01h-0.02l-0.01-0.01-0.02-0.01h-0.03l-0.02-0.01h-0.04l-0.01-0.01h-0.21c-0.12 0-0.23 0-0.23-0.19 0-0.08 0.05-0.12 0.13-0.12 0.27 0 0.56 0.03 0.84 0.03 0.33 0 0.67-0.03 0.99-0.03 0.05 0 0.18 0 0.18 0.2 0 0.11-0.1 0.11-0.24 0.11-0.5 0-0.5 0.07-0.5 0.15 0 0.12 0.42 1.74 0.49 1.99 0.13-0.29 0.41-0.63 0.92-0.63l-0.02 0.21c-0.65 0-0.78 0.83-0.78 0.89 0 0.02 0 0.04 0.03 0.16l0.49 1.94c0.07 0.27 0.34 0.55 0.51 0.7 0.35 0.31 0.64 0.38 0.81 0.38 0.4 0 0.64-0.35 0.64-0.94 0-0.58-0.33-1.72-0.51-2.1-0.34-0.7-0.82-1.03-1.19-1.03l0.02-0.21c1.15 0 2.4 1.45 2.4 2.91 0 0.93-0.57 1.59-1.33 1.59-0.5 0-0.98-0.36-1.3-0.75-0.1 0.54-0.53 0.75-0.9 0.75-0.46 0-0.65-0.39-0.74-0.57-0.18-0.34-0.31-0.93-0.31-0.96 0-0.1 0.1-0.1 0.12-0.1 0.1 0 0.11 0.01 0.17 0.22 0.17 0.71 0.37 1.19 0.73 1.19 0.17 0 0.31-0.08 0.31-0.46 0-0.23-0.03-0.34-0.07-0.51z"/><path d="m172.56 724.93h-0.24c-0.02-0.16-0.09-0.57-0.18-0.64-0.06-0.04-0.6-0.04-0.7-0.04h-1.28c0.73 0.65 0.98 0.84 1.4 1.17 0.51 0.41 1 0.84 1 1.5 0 0.84-0.75 1.36-1.64 1.36-0.87 0-1.45-0.61-1.45-1.25 0-0.35 0.3-0.39 0.36-0.39 0.17 0 0.38 0.12 0.38 0.37 0 0.13-0.05 0.37-0.42 0.37 0.22 0.49 0.69 0.65 1.02 0.65 0.7 0 1.07-0.54 1.07-1.11 0-0.6-0.44-1.08-0.66-1.33l-1.69-1.66c-0.06-0.06-0.06-0.07-0.06-0.27h2.87z"/><path d="m183.13 728.56h0.09l0.01 0.01h0.07l0.02 0.01h0.02l0.02 0.01h0.01l0.01 0.01h0.01l0.06 0.06v0.01l0.01 0.01v0.02l0.01 0.01v0.05c0 0.2-0.19 0.2-0.33 0.2h-5.97c-0.14 0-0.33 0-0.33-0.2s0.19-0.2 0.34-0.2z"/><path d="m183.12 726.48h0.15l0.02 0.01h0.02l0.02 0.01h0.01l0.01 0.01h0.01l0.01 0.01h0.01l0.03 0.03h0.01v0.02h0.01v0.01l0.01 0.01v0.03h0.01v0.06c0 0.19-0.19 0.19-0.34 0.19h-5.95c-0.15 0-0.34 0-0.34-0.19 0-0.2 0.19-0.2 0.33-0.2z"/><path d="m188.69 727.64v0.08l-0.01 0.02v0.03l-0.01 0.02-0.01 0.03-0.01 0.02-0.01 0.03-0.01 0.02-0.02 0.02-0.02 0.04-0.04 0.04-0.01 0.02-0.02 0.02-0.02 0.01-0.02 0.02-0.02 0.01-0.02 0.02-0.03 0.01-0.04 0.02-0.03 0.01-0.02 0.01-0.03 0.01h-0.02l-0.03 0.01h-0.05l-0.03 0.01c-0.29 0-0.52-0.24-0.52-0.53s0.23-0.53 0.52-0.53 0.53 0.24 0.53 0.53z"/><path d="m193.12 727.64v0.08l-0.01 0.02v0.03l-0.01 0.02-0.01 0.03-0.01 0.02-0.01 0.03-0.02 0.04-0.02 0.02-0.01 0.02-0.04 0.04-0.01 0.02-0.02 0.02-0.02 0.01-0.02 0.02-0.02 0.01-0.02 0.02-0.02 0.01-0.03 0.01-0.04 0.02-0.03 0.01-0.02 0.01h-0.03l-0.03 0.01h-0.05l-0.03 0.01c-0.28 0-0.52-0.24-0.52-0.53s0.24-0.53 0.52-0.53c0.29 0 0.53 0.24 0.53 0.53z"/><path d="m197.54 727.64v0.08l-0.01 0.02v0.03l-0.01 0.02-0.01 0.03-0.01 0.02-0.01 0.03-0.02 0.04-0.02 0.02-0.01 0.02-0.02 0.02-0.01 0.02-0.04 0.04-0.02 0.01-0.02 0.02-0.02 0.01-0.02 0.02-0.02 0.01-0.03 0.01-0.04 0.02-0.03 0.01-0.02 0.01h-0.03l-0.02 0.01h-0.06l-0.02 0.01c-0.29 0-0.53-0.24-0.53-0.53s0.24-0.53 0.53-0.53 0.52 0.24 0.52 0.53z"/><path d="m164.43 714.65-0.01-0.03v-0.03l-0.01-0.03-0.01-0.02v-0.03l-0.03-0.06v-0.02l-0.02-0.04-0.01-0.01-0.01-0.02-0.01-0.01-0.01-0.02-0.01-0.01-0.02-0.01-0.01-0.01-0.02-0.01h-0.02l-0.04-0.02h-0.02l-0.02-0.01h-0.04l-0.01-0.01h-0.21c-0.12 0-0.23 0-0.23-0.19 0-0.08 0.05-0.12 0.13-0.12 0.27 0 0.56 0.03 0.84 0.03 0.33 0 0.67-0.03 0.99-0.03 0.05 0 0.18 0 0.18 0.2 0 0.11-0.1 0.11-0.24 0.11-0.5 0-0.5 0.07-0.5 0.15 0 0.12 0.42 1.74 0.49 1.99 0.13-0.29 0.41-0.63 0.91-0.63l-0.01 0.21c-0.65 0-0.78 0.83-0.78 0.89 0 0.02 0 0.04 0.03 0.16l0.48 1.94c0.08 0.27 0.34 0.55 0.52 0.7 0.35 0.31 0.64 0.38 0.81 0.38 0.4 0 0.64-0.35 0.64-0.94 0-0.58-0.33-1.72-0.51-2.1-0.34-0.7-0.82-1.03-1.19-1.03l0.01-0.21c1.16 0 2.41 1.45 2.41 2.91 0 0.93-0.57 1.59-1.33 1.59-0.5 0-0.98-0.36-1.3-0.75-0.11 0.54-0.53 0.75-0.9 0.75-0.46 0-0.65-0.39-0.74-0.57-0.18-0.34-0.31-0.93-0.31-0.96 0-0.1 0.1-0.1 0.12-0.1 0.1 0 0.11 0.01 0.17 0.22 0.17 0.71 0.37 1.19 0.73 1.19 0.17 0 0.31-0.08 0.31-0.46 0-0.23-0.03-0.34-0.07-0.51z"/><path d="m170.9 716.69h0.1l0.05-0.01h0.05l0.05-0.01 0.04-0.02 0.05-0.01 0.2-0.1 0.04-0.03 0.13-0.13 0.02-0.04 0.06-0.08 0.1-0.25 0.01-0.06 0.01-0.05 0.01-0.06 0.01-0.07 0.01-0.06v-0.14c0-0.86-0.5-1.12-0.91-1.12-0.28 0-0.89 0.08-1.19 0.49 0.33 0.02 0.41 0.25 0.41 0.39 0 0.22-0.17 0.38-0.39 0.38-0.19 0-0.39-0.12-0.39-0.4 0-0.65 0.73-1.08 1.57-1.08 0.98 0 1.65 0.65 1.65 1.34 0 0.55-0.45 1.09-1.22 1.25 0.73 0.26 1 0.78 1 1.21 0 0.55-0.63 0.96-1.41 0.96s-1.37-0.38-1.37-0.93c0-0.24 0.15-0.37 0.36-0.37 0.22 0 0.36 0.16 0.36 0.35 0 0.2-0.14 0.35-0.36 0.36 0.25 0.31 0.73 0.39 0.99 0.39 0.31 0 0.75-0.16 0.75-0.76 0-0.29-0.09-0.61-0.28-0.83-0.23-0.26-0.42-0.28-0.77-0.3-0.18-0.01-0.19-0.01-0.23-0.02-0.01 0-0.07-0.01-0.07-0.09 0-0.1 0.07-0.1 0.18-0.1z"/><path d="m183.08 719.11h0.09l0.01 0.01h0.07l0.02 0.01h0.02l0.02 0.01h0.01l0.01 0.01h0.01l0.06 0.06v0.01l0.01 0.01v0.02l0.01 0.01v0.05c0 0.2-0.19 0.2-0.33 0.2h-5.97c-0.14 0-0.33 0-0.33-0.2s0.19-0.2 0.34-0.2z"/><path d="m183.09 717.19h0.15l0.02 0.01h0.02l0.02 0.01h0.01l0.01 0.01h0.01l0.01 0.01h0.01l0.03 0.03h0.01v0.02h0.01v0.01l0.01 0.01v0.03h0.01v0.06c0 0.19-0.19 0.19-0.34 0.19h-5.95c-0.15 0-0.34 0-0.34-0.19 0-0.2 0.19-0.2 0.33-0.2z"/><path d="m188.66 718.35v0.08l-0.01 0.02v0.03l-0.01 0.02-0.01 0.03-0.01 0.02-0.01 0.03-0.01 0.02-0.02 0.02-0.02 0.04-0.04 0.04-0.01 0.02-0.02 0.02-0.02 0.01-0.02 0.02-0.02 0.01-0.02 0.02-0.03 0.01-0.04 0.02-0.03 0.01-0.02 0.01-0.03 0.01h-0.02l-0.03 0.01h-0.05l-0.03 0.01c-0.29 0-0.53-0.24-0.53-0.53s0.24-0.53 0.53-0.53 0.53 0.24 0.53 0.53z"/><path d="m193.09 718.35v0.08l-0.01 0.02v0.03l-0.01 0.02-0.01 0.03-0.01 0.02-0.01 0.03-0.02 0.04-0.02 0.02-0.01 0.02-0.04 0.04-0.01 0.02-0.02 0.02-0.02 0.01-0.02 0.02-0.02 0.01-0.02 0.02-0.02 0.01-0.03 0.01-0.04 0.02-0.03 0.01-0.02 0.01h-0.03l-0.03 0.01h-0.05l-0.03 0.01c-0.29 0-0.52-0.24-0.52-0.53s0.23-0.53 0.52-0.53 0.53 0.24 0.53 0.53z"/><path d="m197.51 718.35v0.08l-0.01 0.02v0.03l-0.01 0.02-0.01 0.03-0.01 0.02-0.01 0.03-0.02 0.04-0.02 0.02-0.01 0.02-0.02 0.02-0.01 0.02-0.04 0.04-0.02 0.01-0.02 0.02-0.02 0.01-0.02 0.02-0.02 0.01-0.03 0.01-0.04 0.02-0.03 0.01-0.02 0.01h-0.03l-0.02 0.01h-0.06l-0.02 0.01c-0.29 0-0.53-0.24-0.53-0.53s0.24-0.53 0.53-0.53c0.28 0 0.52 0.24 0.52 0.53z"/><path d="m164.44 705.39-0.01-0.03v-0.03l-0.01-0.03-0.01-0.02v-0.03l-0.03-0.06v-0.02l-0.02-0.04-0.01-0.01-0.01-0.02-0.01-0.01-0.01-0.02-0.01-0.01-0.02-0.01-0.01-0.01-0.02-0.01h-0.02l-0.04-0.02h-0.02l-0.02-0.01h-0.04l-0.01-0.01h-0.21c-0.12 0-0.23 0-0.23-0.19 0-0.08 0.05-0.12 0.13-0.12 0.27 0 0.56 0.03 0.84 0.03 0.33 0 0.67-0.03 0.99-0.03 0.05 0 0.18 0 0.18 0.2 0 0.11-0.1 0.11-0.24 0.11-0.5 0-0.5 0.07-0.5 0.15 0 0.12 0.42 1.74 0.49 1.99 0.13-0.29 0.41-0.63 0.91-0.63l-0.01 0.21c-0.65 0-0.78 0.83-0.78 0.89 0 0.02 0 0.04 0.03 0.16l0.48 1.94c0.08 0.27 0.34 0.55 0.52 0.7 0.35 0.31 0.64 0.38 0.81 0.38 0.4 0 0.64-0.35 0.64-0.94 0-0.58-0.33-1.72-0.51-2.1-0.34-0.7-0.82-1.03-1.19-1.03l0.01-0.21c1.16 0 2.41 1.45 2.41 2.91 0 0.93-0.57 1.59-1.33 1.59-0.5 0-0.98-0.36-1.3-0.75-0.1 0.54-0.53 0.75-0.9 0.75-0.46 0-0.65-0.39-0.74-0.57-0.18-0.34-0.31-0.93-0.31-0.96 0-0.1 0.1-0.1 0.12-0.1 0.1 0 0.11 0.01 0.17 0.22 0.17 0.71 0.37 1.19 0.73 1.19 0.17 0 0.31-0.08 0.31-0.46 0-0.23-0.03-0.34-0.07-0.51z"/><path d="m172.7 706.25v0.25h-0.77v3.1c0 0.15 0 0.2-0.16 0.2-0.08 0-0.11 0-0.18-0.1l-2.31-3.2v-0.25h2.05l0.05 0.25h-1.85l1.85 2.55v-2.55l-0.05-0.25v-0.57c0-0.23 0-0.32-0.56-0.32h-0.19v-0.25c0.35 0.02 0.79 0.03 1.04 0.03 0.26 0 0.71-0.01 1.06-0.03v0.25h-0.19c-0.56 0-0.56 0.09-0.56 0.32v0.57z"/><path d="m183.09 709.85h0.09l0.01 0.01h0.07l0.02 0.01h0.02l0.02 0.01h0.01l0.01 0.01h0.01l0.06 0.06v0.02h0.01v0.02l0.01 0.01v0.05c0 0.2-0.19 0.2-0.33 0.2h-5.97c-0.14 0-0.33 0-0.33-0.2s0.19-0.2 0.34-0.2z"/><path d="m183.1 707.93h0.15l0.02 0.01h0.02l0.02 0.01h0.01l0.01 0.01h0.01l0.01 0.01h0.01l0.04 0.04v0.01h0.01v0.02l0.01 0.01v0.02h0.01v0.06c0 0.19-0.19 0.19-0.34 0.19h-5.95c-0.15 0-0.34 0-0.34-0.19 0-0.2 0.19-0.2 0.33-0.2z"/><path d="m188.67 709.09v0.05l-0.01 0.03v0.02l-0.01 0.03v0.02l-0.01 0.03-0.01 0.02-0.01 0.03-0.01 0.02-0.02 0.02-0.01 0.02-0.02 0.02-0.01 0.02-0.04 0.04-0.01 0.02-0.02 0.01-0.02 0.02-0.02 0.01-0.03 0.02-0.06 0.03-0.03 0.01-0.02 0.01-0.03 0.01h-0.02l-0.03 0.01h-0.05l-0.03 0.01c-0.29 0-0.53-0.24-0.53-0.53s0.24-0.53 0.53-0.53 0.53 0.24 0.53 0.53z"/><path d="m193.1 709.09v0.08l-0.01 0.02v0.03l-0.01 0.02-0.01 0.03-0.01 0.02-0.01 0.03-0.01 0.02-0.02 0.02-0.02 0.04-0.04 0.04-0.01 0.02-0.02 0.02-0.02 0.01-0.02 0.02-0.02 0.01-0.02 0.02-0.03 0.01-0.04 0.02-0.03 0.01-0.02 0.01-0.03 0.01h-0.02l-0.03 0.01h-0.05l-0.03 0.01c-0.29 0-0.52-0.24-0.52-0.53s0.23-0.53 0.52-0.53 0.53 0.24 0.53 0.53z"/><path d="m197.52 709.09v0.08l-0.01 0.02v0.03l-0.01 0.02-0.01 0.03-0.01 0.02-0.01 0.03-0.02 0.04-0.02 0.02-0.01 0.02-0.04 0.04-0.01 0.02-0.02 0.02-0.02 0.01-0.02 0.02-0.02 0.01-0.02 0.02-0.02 0.01-0.03 0.01-0.04 0.02-0.03 0.01-0.02 0.01h-0.03l-0.03 0.01h-0.05l-0.02 0.01c-0.29 0-0.53-0.24-0.53-0.53s0.24-0.53 0.53-0.53c0.28 0 0.52 0.24 0.52 0.53z"/><g fill-rule="evenodd" stroke-miterlimit="10.433"><path d="m280.44 732.98-0.01-0.03v-0.03l-0.01-0.03-0.01-0.02v-0.03l-0.03-0.06v-0.02l-0.02-0.04-0.01-0.01-0.01-0.02-0.01-0.01-0.01-0.02-0.01-0.01-0.02-0.01-0.01-0.01-0.02-0.01h-0.02l-0.01-0.01-0.02-0.01h-0.03l-0.02-0.01h-0.04l-0.01-0.01h-0.21c-0.12 0-0.23 0-0.23-0.19 0-0.08 0.05-0.12 0.13-0.12 0.27 0 0.56 0.03 0.84 0.03 0.33 0 0.67-0.03 0.99-0.03 0.05 0 0.18 0 0.18 0.2 0 0.11-0.1 0.11-0.24 0.11-0.5 0-0.5 0.07-0.5 0.15 0 0.12 0.42 1.74 0.49 1.99 0.13-0.29 0.41-0.63 0.92-0.63l-0.02 0.21c-0.65 0-0.78 0.83-0.78 0.89 0 0.02 0 0.04 0.03 0.16l0.49 1.94c0.07 0.27 0.34 0.55 0.51 0.7 0.35 0.31 0.64 0.38 0.81 0.38 0.4 0 0.64-0.35 0.64-0.94 0-0.58-0.33-1.72-0.51-2.1-0.34-0.7-0.82-1.03-1.19-1.03l0.02-0.21c1.15 0 2.4 1.45 2.4 2.91 0 0.93-0.57 1.59-1.33 1.59-0.5 0-0.98-0.36-1.3-0.75-0.1 0.54-0.53 0.75-0.9 0.75-0.46 0-0.65-0.39-0.74-0.57-0.18-0.34-0.31-0.93-0.31-0.96 0-0.1 0.1-0.1 0.12-0.1 0.1 0 0.11 0.01 0.17 0.22 0.17 0.71 0.37 1.19 0.73 1.19 0.17 0 0.31-0.08 0.31-0.46 0-0.23-0.03-0.34-0.07-0.51z"/><path d="m287.35 737.12v0.08l-0.01 0.01v0.05l-0.02 0.02v0.01l-0.01 0.01h-0.01l-0.01 0.01h-0.04l-0.01 0.01h-0.1c-0.45-0.44-1.09-0.45-1.37-0.45v-0.25c0.16 0 0.63 0 1.01 0.2v-3.55c0-0.23 0-0.32-0.7-0.32h-0.26v-0.25c0.12 0.01 0.98 0.03 1.24 0.03 0.22 0 1.1-0.02 1.25-0.03v0.25h-0.26c-0.7 0-0.7 0.09-0.7 0.32z"/><path d="m299.09 737.44h0.09l0.01 0.01h0.07l0.02 0.01h0.02l0.02 0.01h0.01l0.01 0.01h0.01l0.06 0.06v0.01l0.01 0.01v0.02l0.01 0.01v0.05c0 0.2-0.19 0.2-0.33 0.2h-5.97c-0.14 0-0.33 0-0.33-0.2s0.19-0.2 0.34-0.2z"/><path d="m299.1 735.52h0.15l0.02 0.01h0.02l0.02 0.01h0.01l0.01 0.01h0.01l0.01 0.01h0.01l0.03 0.03h0.01v0.02h0.01v0.01l0.01 0.01v0.03h0.01v0.06c0 0.19-0.19 0.19-0.34 0.19h-5.95c-0.15 0-0.34 0-0.34-0.19 0-0.2 0.19-0.2 0.33-0.2z"/><path d="m304.67 736.68v0.08l-0.01 0.02v0.03l-0.01 0.02-0.01 0.03-0.01 0.02-0.01 0.03-0.02 0.04-0.02 0.02-0.01 0.02-0.04 0.04-0.01 0.02-0.02 0.02-0.02 0.01-0.02 0.02-0.02 0.01-0.02 0.02-0.03 0.01-0.04 0.02-0.03 0.01-0.04 0.02h-0.03l-0.03 0.01h-0.05l-0.03 0.01c-0.29 0-0.52-0.24-0.52-0.53s0.23-0.53 0.52-0.53 0.53 0.24 0.53 0.53z"/><path d="m309.1 736.68v0.08l-0.01 0.02v0.03l-0.01 0.02-0.01 0.03-0.01 0.02-0.01 0.03-0.02 0.04-0.02 0.02-0.01 0.02-0.02 0.02-0.01 0.02-0.04 0.04-0.02 0.01-0.02 0.02-0.02 0.01-0.02 0.02-0.02 0.01-0.03 0.01-0.04 0.02-0.03 0.01-0.02 0.01h-0.03l-0.02 0.01h-0.0601l-0.03 0.01c-0.28 0-0.52-0.24-0.52-0.53s0.24-0.53 0.52-0.53c0.3 0 0.53 0.24 0.53 0.53z"/><path d="m313.52 736.68v0.08l-0.01 0.02v0.03l-0.01 0.02-0.01 0.03-0.01 0.02-0.01 0.03-0.02 0.04-0.02 0.02-0.01 0.02-0.02 0.02-0.01 0.02-0.04 0.04-0.02 0.01-0.02 0.02-0.02 0.01-0.02 0.02-0.02 0.01-0.03 0.01-0.04 0.02-0.03 0.01-0.02 0.01h-0.03l-0.02 0.01h-0.06l-0.02 0.01c-0.29 0-0.53-0.24-0.53-0.53s0.24-0.53 0.53-0.53 0.52 0.24 0.52 0.53z"/><path d="m280.41 723.98-0.01-0.03v-0.03l-0.01-0.03-0.01-0.02v-0.03l-0.03-0.06v-0.02l-0.02-0.04-0.01-0.01-0.01-0.02-0.01-0.01-0.01-0.02-0.01-0.01-0.02-0.01-0.01-0.01-0.02-0.01h-0.02l-0.01-0.01-0.02-0.01h-0.03l-0.02-0.01h-0.04l-0.01-0.01h-0.21c-0.12 0-0.23 0-0.23-0.19 0-0.08 0.05-0.12 0.13-0.12 0.27 0 0.56 0.03 0.84 0.03 0.33 0 0.67-0.03 0.99-0.03 0.05 0 0.18 0 0.18 0.2 0 0.11-0.1 0.11-0.24 0.11-0.5 0-0.5 0.07-0.5 0.15 0 0.12 0.42 1.74 0.49 1.99 0.13-0.29 0.41-0.63 0.92-0.63l-0.02 0.21c-0.65 0-0.78 0.83-0.78 0.89 0 0.02 0 0.04 0.03 0.16l0.49 1.94c0.07 0.27 0.34 0.55 0.51 0.7 0.35 0.31 0.64 0.38 0.81 0.38 0.4 0 0.64-0.35 0.64-0.94 0-0.58-0.33-1.72-0.51-2.1-0.34-0.7-0.82-1.03-1.19-1.03l0.02-0.21c1.15 0 2.4 1.45 2.4 2.91 0 0.93-0.57 1.59-1.33 1.59-0.5 0-0.98-0.36-1.3-0.75-0.1 0.54-0.53 0.75-0.9 0.75-0.46 0-0.65-0.39-0.74-0.57-0.18-0.34-0.31-0.93-0.31-0.96 0-0.1 0.1-0.1 0.12-0.1 0.1 0 0.11 0.01 0.17 0.22 0.17 0.71 0.37 1.19 0.73 1.19 0.17 0 0.31-0.08 0.31-0.46 0-0.23-0.03-0.34-0.07-0.51z"/><path d="m288.51 724.97h-0.24c-0.02-0.16-0.09-0.57-0.18-0.64-0.06-0.04-0.6-0.04-0.7-0.04h-1.28c0.73 0.65 0.98 0.84 1.4 1.17 0.51 0.41 1 0.84 1 1.5 0 0.84-0.75 1.36-1.64 1.36-0.87 0-1.45-0.61-1.45-1.25 0-0.35 0.3-0.39 0.36-0.39 0.17 0 0.38 0.12 0.38 0.37 0 0.13-0.05 0.37-0.42 0.37 0.22 0.49 0.69 0.65 1.02 0.65 0.7 0 1.07-0.54 1.07-1.11 0-0.6-0.44-1.08-0.66-1.33l-1.69-1.66c-0.06-0.06-0.06-0.07-0.06-0.27h2.87z"/><path d="m299.09 728.6h0.09l0.01 0.01h0.07l0.02 0.01h0.02l0.02 0.01h0.01l0.01 0.01h0.01l0.06 0.06v0.01l0.01 0.01v0.02l0.01 0.01v0.05c0 0.2-0.19 0.2-0.33 0.2h-5.97c-0.14 0-0.33 0-0.33-0.2s0.19-0.2 0.34-0.2z"/><path d="m299.07 726.52h0.15l0.02 0.01h0.02l0.02 0.01h0.01l0.01 0.01h0.01l0.01 0.01h0.01l0.03 0.03h0.01v0.02h0.01v0.01l0.01 0.01v0.03h0.01v0.06c0 0.19-0.19 0.19-0.34 0.19h-5.95c-0.15 0-0.34 0-0.34-0.19 0-0.2 0.19-0.2 0.33-0.2z"/><path d="m304.64 727.68v0.08l-0.01 0.02v0.03l-0.01 0.02-0.01 0.03-0.01 0.02-0.01 0.03-0.01 0.02-0.02 0.02-0.02 0.04-0.04 0.04-0.01 0.02-0.02 0.02-0.02 0.01-0.02 0.02-0.02 0.01-0.02 0.02-0.03 0.01-0.04 0.02-0.03 0.01-0.02 0.01-0.03 0.01h-0.02l-0.03 0.01h-0.05l-0.03 0.01c-0.29 0-0.52-0.24-0.52-0.53s0.23-0.53 0.52-0.53 0.53 0.24 0.53 0.53z"/><path d="m309.07 727.68v0.08l-0.01 0.02v0.03l-0.01 0.02-0.01 0.03-0.01 0.02-0.01 0.03-0.02 0.04-0.02 0.02-0.01 0.02-0.04 0.04-0.01 0.02-0.02 0.02-0.02 0.01-0.02 0.02-0.02 0.01-0.02 0.02-0.02 0.01-0.03 0.01-0.04 0.02-0.03 0.01-0.02 0.01h-0.03l-0.03 0.01h-0.05l-0.03 0.01c-0.28 0-0.52-0.24-0.52-0.53s0.24-0.53 0.52-0.53c0.29 0 0.53 0.24 0.53 0.53z"/><path d="m313.49 727.68v0.08l-0.01 0.02v0.03l-0.01 0.02-0.01 0.03-0.01 0.02-0.01 0.03-0.02 0.04-0.02 0.02-0.01 0.02-0.02 0.02-0.01 0.02-0.04 0.04-0.02 0.01-0.02 0.02-0.02 0.01-0.02 0.02-0.02 0.01-0.03 0.01-0.04 0.02-0.03 0.01-0.02 0.01h-0.03l-0.02 0.01h-0.06l-0.02 0.01c-0.29 0-0.53-0.24-0.53-0.53s0.24-0.53 0.53-0.53 0.52 0.24 0.52 0.53z"/><path d="m280.14 714.84-0.01-0.03v-0.03l-0.01-0.03-0.01-0.02v-0.03l-0.03-0.06v-0.02l-0.02-0.04-0.01-0.01-0.01-0.02-0.01-0.01-0.01-0.02-0.01-0.01-0.02-0.01-0.01-0.01-0.02-0.01h-0.02l-0.04-0.02h-0.02l-0.02-0.01h-0.04l-0.01-0.01h-0.21c-0.12 0-0.23 0-0.23-0.19 0-0.08 0.05-0.12 0.13-0.12 0.27 0 0.56 0.03 0.84 0.03 0.33 0 0.67-0.03 0.99-0.03 0.05 0 0.18 0 0.18 0.2 0 0.11-0.1 0.11-0.24 0.11-0.5 0-0.5 0.07-0.5 0.15 0 0.12 0.42 1.74 0.49 1.99 0.13-0.29 0.41-0.63 0.91-0.63l-0.01 0.21c-0.65 0-0.78 0.83-0.78 0.89 0 0.02 0 0.04 0.03 0.16l0.48 1.94c0.08 0.27 0.34 0.55 0.52 0.7 0.35 0.31 0.64 0.38 0.81 0.38 0.4 0 0.64-0.35 0.64-0.94 0-0.58-0.33-1.72-0.51-2.1-0.34-0.7-0.82-1.03-1.19-1.03l0.01-0.21c1.16 0 2.41 1.45 2.41 2.91 0 0.93-0.57 1.59-1.33 1.59-0.5 0-0.98-0.36-1.3-0.75-0.11 0.54-0.53 0.75-0.9 0.75-0.46 0-0.65-0.39-0.74-0.57-0.18-0.34-0.31-0.93-0.31-0.96 0-0.1 0.1-0.1 0.12-0.1 0.1 0 0.11 0.01 0.17 0.22 0.17 0.71 0.37 1.19 0.73 1.19 0.17 0 0.31-0.08 0.31-0.46 0-0.23-0.03-0.34-0.07-0.51z"/><path d="m286.61 716.88h0.1l0.05-0.01h0.05l0.05-0.01 0.04-0.02 0.05-0.01 0.2-0.1 0.04-0.03 0.13-0.13 0.02-0.04 0.06-0.08 0.1-0.25 0.01-0.06 0.01-0.05 0.01-0.06 0.01-0.07 0.01-0.06v-0.14c0-0.86-0.5-1.12-0.91-1.12-0.28 0-0.89 0.08-1.19 0.49 0.33 0.02 0.41 0.25 0.41 0.39 0 0.22-0.17 0.38-0.39 0.38-0.19 0-0.39-0.12-0.39-0.4 0-0.65 0.73-1.08 1.57-1.08 0.98 0 1.65 0.65 1.65 1.34 0 0.55-0.45 1.09-1.22 1.25 0.73 0.26 1 0.78 1 1.21 0 0.55-0.63 0.96-1.41 0.96s-1.37-0.38-1.37-0.93c0-0.24 0.15-0.37 0.36-0.37 0.22 0 0.36 0.16 0.36 0.35 0 0.2-0.14 0.35-0.36 0.36 0.25 0.31 0.73 0.39 0.99 0.39 0.31 0 0.75-0.16 0.75-0.76 0-0.29-0.09-0.61-0.28-0.83-0.23-0.26-0.42-0.28-0.77-0.3-0.18-0.01-0.19-0.01-0.23-0.02-0.01 0-0.07-0.01-0.07-0.09 0-0.1 0.07-0.1 0.18-0.1z"/><path d="m298.79 719.3h0.09l0.01 0.01h0.07l0.02 0.01h0.02l0.02 0.01h0.01l0.01 0.01h0.01l0.06 0.06v0.01l0.01 0.01v0.02l0.01 0.01v0.05c0 0.2-0.19 0.2-0.33 0.2h-5.97c-0.14 0-0.33 0-0.33-0.2s0.19-0.2 0.34-0.2z"/><path d="m298.8 717.38h0.15l0.02 0.01h0.02l0.02 0.01h0.01l0.01 0.01h0.01l0.01 0.01h0.01l0.03 0.03h0.01v0.02h0.01v0.01l0.01 0.01v0.03h0.01v0.06c0 0.19-0.19 0.19-0.34 0.19h-5.95c-0.15 0-0.34 0-0.34-0.19 0-0.2 0.19-0.2 0.33-0.2z"/><path d="m304.37 718.54v0.08l-0.01 0.02v0.03l-0.01 0.02-0.01 0.03-0.01 0.02-0.01 0.03-0.01 0.02-0.02 0.02-0.02 0.04-0.04 0.04-0.01 0.02-0.02 0.02-0.02 0.01-0.02 0.02-0.02 0.01-0.02 0.02-0.03 0.01-0.04 0.02-0.03 0.01-0.02 0.01-0.03 0.01h-0.02l-0.03 0.01h-0.05l-0.03 0.01c-0.29 0-0.53-0.24-0.53-0.53s0.24-0.53 0.53-0.53 0.53 0.24 0.53 0.53z"/><path d="m308.8 718.54v0.08l-0.01 0.02v0.03l-0.01 0.02-0.01 0.03-0.01 0.02-0.01 0.03-0.02 0.04-0.02 0.02-0.01 0.02-0.04 0.04-0.01 0.02-0.02 0.02-0.02 0.01-0.02 0.02-0.02 0.01-0.02 0.02-0.02 0.01-0.03 0.01-0.04 0.02-0.03 0.01-0.02 0.01h-0.03l-0.03 0.01h-0.05l-0.03 0.01c-0.29 0-0.52-0.24-0.52-0.53s0.23-0.53 0.52-0.53 0.53 0.24 0.53 0.53z"/><path d="m313.22 718.54v0.08l-0.01 0.02v0.03l-0.01 0.02-0.01 0.03-0.01 0.02-0.01 0.03-0.02 0.04-0.02 0.02-0.01 0.02-0.02 0.02-0.01 0.02-0.04 0.04-0.02 0.01-0.02 0.02-0.02 0.01-0.02 0.02-0.02 0.01-0.03 0.01-0.04 0.02-0.03 0.01-0.02 0.01h-0.03l-0.02 0.01h-0.06l-0.02 0.01c-0.29 0-0.53-0.24-0.53-0.53s0.24-0.53 0.53-0.53c0.28 0 0.52 0.24 0.52 0.53z"/></g><g transform="translate(.70192 .75321)" fill-rule="evenodd" stroke-miterlimit="10.433"><path d="m279.7 705.01-0.01-0.03v-0.03l-0.01-0.03-0.01-0.02v-0.03l-0.03-0.06v-0.02l-0.02-0.04-0.01-0.01-0.01-0.02-0.01-0.01-0.01-0.02-0.01-0.01-0.02-0.01-0.01-0.01-0.02-0.01h-0.02l-0.04-0.02h-0.02l-0.02-0.01h-0.04l-0.01-0.01h-0.21c-0.12 0-0.23 0-0.23-0.19 0-0.08 0.05-0.12 0.13-0.12 0.27 0 0.56 0.03 0.84 0.03 0.33 0 0.67-0.03 0.99-0.03 0.05 0 0.18 0 0.18 0.2 0 0.11-0.1 0.11-0.24 0.11-0.5 0-0.5 0.07-0.5 0.15 0 0.12 0.42 1.74 0.49 1.99 0.13-0.29 0.41-0.63 0.91-0.63l-0.01 0.21c-0.65 0-0.78 0.83-0.78 0.89 0 0.02 0 0.04 0.03 0.16l0.48 1.94c0.08 0.27 0.34 0.55 0.52 0.7 0.35 0.31 0.64 0.38 0.81 0.38 0.4 0 0.64-0.35 0.64-0.94 0-0.58-0.33-1.72-0.51-2.1-0.34-0.7-0.82-1.03-1.19-1.03l0.01-0.21c1.16 0 2.41 1.45 2.41 2.91 0 0.93-0.57 1.59-1.33 1.59-0.5 0-0.98-0.36-1.3-0.75-0.1 0.54-0.53 0.75-0.9 0.75-0.46 0-0.65-0.39-0.74-0.57-0.18-0.34-0.31-0.93-0.31-0.96 0-0.1 0.1-0.1 0.12-0.1 0.1 0 0.11 0.01 0.17 0.22 0.17 0.71 0.37 1.19 0.73 1.19 0.17 0 0.31-0.08 0.31-0.46 0-0.23-0.03-0.34-0.07-0.51z"/><path d="m287.96 705.87v0.25h-0.77v3.1c0 0.15 0 0.2-0.16 0.2-0.08 0-0.11 0-0.18-0.1l-2.31-3.2v-0.25h2.05l0.05 0.25h-1.85l1.85 2.55v-2.55l-0.05-0.25v-0.57c0-0.23 0-0.32-0.56-0.32h-0.19v-0.25c0.35 0.02 0.79 0.03 1.04 0.03 0.26 0 0.71-0.01 1.06-0.03v0.25h-0.19c-0.56 0-0.56 0.09-0.56 0.32v0.57z"/><path d="m298.35 709.47h0.09l0.01 0.01h0.07l0.02 0.01h0.02l0.02 0.01h0.01l0.01 0.01h0.01l0.06 0.06v0.02h0.01v0.02l0.01 0.01v0.05c0 0.2-0.19 0.2-0.33 0.2h-5.97c-0.14 0-0.33 0-0.33-0.2s0.19-0.2 0.34-0.2z"/><path d="m298.36 707.55h0.15l0.02 0.01h0.02l0.02 0.01h0.01l0.01 0.01h0.01l0.01 0.01h0.01l0.04 0.04v0.01h0.01v0.02l0.01 0.01v0.02h0.01v0.06c0 0.19-0.19 0.19-0.34 0.19h-5.95c-0.15 0-0.34 0-0.34-0.19 0-0.2 0.19-0.2 0.33-0.2z"/><path d="m303.93 708.71v0.05l-0.01 0.03v0.02l-0.01 0.03v0.02l-0.01 0.03-0.01 0.02-0.01 0.03-0.01 0.02-0.02 0.02-0.01 0.02-0.02 0.02-0.01 0.02-0.04 0.04-0.01 0.02-0.02 0.01-0.02 0.02-0.02 0.01-0.03 0.02-0.06 0.03-0.03 0.01-0.02 0.01-0.03 0.01h-0.02l-0.03 0.01h-0.05l-0.03 0.01c-0.29 0-0.53-0.24-0.53-0.5301 0-0.2899 0.24-0.5299 0.53-0.5299s0.53 0.24 0.53 0.5299z"/><path d="m308.36 708.71v0.08l-0.01 0.02v0.03l-0.01 0.02-0.01 0.03-0.01 0.02-0.01 0.03-0.01 0.02-0.02 0.02-0.02 0.04-0.04 0.04-0.01 0.02-0.02 0.02-0.02 0.01-0.02 0.02-0.02 0.01-0.02 0.02-0.03 0.01-0.04 0.02-0.03 0.01-0.02 0.01-0.03 0.01h-0.02l-0.03 0.01h-0.05l-0.03 0.01c-0.29 0-0.52-0.24-0.52-0.5301 0-0.2899 0.23-0.5299 0.52-0.5299 0.29001 0 0.53 0.24 0.53 0.5299z"/><path d="m312.78 708.71v0.08l-0.01 0.02v0.03l-0.01 0.02-0.01 0.03-0.01 0.02-0.01 0.03-0.02 0.04-0.02 0.02-0.01 0.02-0.04 0.04-0.01 0.02-0.02 0.02-0.02 0.01-0.02 0.02-0.02 0.01-0.02 0.02-0.02 0.01-0.03 0.01-0.04 0.02-0.03 0.01-0.02 0.01h-0.03l-0.03 0.01h-0.05l-0.02 0.01c-0.29 0-0.53-0.24-0.53-0.5301 0-0.2899 0.24-0.5299 0.53-0.5299 0.28 0 0.52 0.24 0.52 0.5299z"/></g></g>
  </g>
  <g transform="translate(249.83 67.261)" fill="none" stroke="#000" stroke-opacity=".47843" stroke-width=".4">
   <g stroke="#000" stroke-opacity=".65217">
    <path d="m-92.321 143.37c1.6807 2.8546 3.9067 7.0557 4.5148 8.8381 0.6636 1.6681-0.0036 4.4698-0.30099 4.7337-2.3481 1.2642-4.7836 3.7276-5.4178 4.2686-0.97438 0.89979-2.8604 2.9734-4.2412 4.6243-1.3691 1.6821-2.5127 3.9156-3.0372 5.6914-0.69973 2.3352-1.0557 5.2229-1.3681 6.6491-0.21657 0.98858-0.57197 8.0676-0.54725 8.5371 0.10945 2.0796 0.3368 5.0611 0.54725 6.3481 0.0995 1.1169 1.1205 3.9471 1.587 5.8556"/>
    <path d="m-86.235 156.79c-1.5597 1.0996-2.6782 2.3232-3.5669 3.6115l0.28535-0.0752"/>
    <path d="m-84.658 156.58c-0.95923 2.3078-1.4293 4.5544-1.9975 6.8133" opacity=".97"/>
    <path d="m-78.26 168.55c-0.11005-4.2417-1.2301-8.532-3.9949-12.258"/>
    <path d="m-73.596 165.1c-0.93741-2.6756-2.1141-6.4336-7.5521-8.9202"/>
    <path d="m-78.421 155.84-8.5919 0.93033"/>
    <path d="m-81.157 150.21c-0.43824 1.2952-0.88231 2.5903-1.0945 3.8855"/>
    <path d="m-87.205 150.21c1.3328 1.8581 1.5255 2.5659 1.7213 4.1785"/>
    <path d="m-75.158 145.76c-1.5275 1.9707-2.9698 4.5854-4.1933 6.9091"/>
    <path d="m-85.152 145.77c0.97892 1.8782 0.8866 3.8194 1.0398 5.7462"/>
    <path d="m-92.321 143.37c-0.10778-0.16212-0.11402-0.39543-0.03588-0.66709 0.28178-0.98016 1.6616-2.4594 3.3321-2.8934 0.58649-0.0931 3.2495-0.3161 3.7531-0.29326 1.5406 0.0699 2.2239 0.28269 3.2938 1.2269 0.88279 0.62953 1.4544 0.24271 2.791 0.2189 1.2103-0.0997 1.9531-0.35958 3.3382-0.10946 0.97394 0.15858 2.5622 0.65302 2.5721 1.204-0.03655 0.54104-0.51613 1.0206-1.204 1.0398 0.33881 0.15183 0.58964 0.21569 1.0945 0.53357 0.18812 0.21092 0.37291 0.26789 0.32836 0.88929-1.7977 2.635-5.5374 8.1914-5.4178 9.3033 0.46629 0.77451 0.57186 1.4689 0.05473 2.0248"/>
    <path d="m-85.905 140.64c-1.9069-0.16462-3.6502 0.92891-4.2138 1.3681-0.52492 0.41225-0.8043 1.3381 0.36938 1.2313 1.475-0.13761 6.5617-1.52 6.4439-0.49252-0.16348 1.0848-1.6805 1.2957-1.8538 2.8936-0.14022 1.0325 4.2242 0.96023 5.1784 0.43097 0.90781-0.55858 3.2146-0.20011 4.2686-0.16418 0.76085 0.0306 0.94293-0.78981 0.95769-1.1219-0.06588-0.53706-1.0556-0.4726-1.0945-0.93033-0.08503-0.6398 0.71725-0.90044 1.3681-0.76615"/>
    <path d="m-102.17 193.06c0.0311 1.5895-0.34403 3.406-0.8756 4.5422-0.85613 1.8735-3.3108 5.2204-3.0646 5.3631 0.29777 0.95768 1.4174 0.98388 2.4626 1.0945 0.65571 5e-3 4.1514-0.83326 6.5156-1.1006 5.3815 1.0645 5.9617 1.356 8.9716 2.1404 2.8185 0.80428 5.7974 0.84672 8.756 0.98506 3.3204-0.0451 5.3256-0.7731 8.8518-1.3818 2.9913-0.39176 5.8498-1.2065 8.6603-2.3942 1.1231-0.5003 2.013-0.97449 2.9004-1.9701-1.419-2.2681-3.6046-3.8616-4.2002-6.8543"/>
    <path d="m-91.87 198.23c0.83678 2.2031 3.841 3.4892 6.9227 4.4191 3.8143 1.16 11.484 1.0924 17.238 1.4776"/>
    <path d="m-68.584 200.8c1.9001 0.89067 5.0395 1.4795 8.3412 0.52029"/>
    <path d="m-62.004 191.69-3.1741 4.2686"/>
   </g>
   <path d="m-62.441 188.46-3.8855 6.4028"/>
   <g stroke="#000" stroke-opacity=".65217">
    <path d="m-63.262 189.94c0.7326 0.56219 1.2345 1.1402 1.2587 1.7512"/>
    <path d="m-78.421 155.84 4.98 3.8308c2.7279 1.5668 4.3593 3.9771 6.1839 6.2387 2.215 2.3762 3.3069 5.5261 3.8855 9.0297 0.31011 4.5057 1.7206 9.1409 0.93033 13.517"/>
    <path d="m-81.924 145.72c0.07071-0.19953 0.17605-1.2502 0.16082-2.356-0.01766-1.2848-0.21554-2.624-0.21554-2.624"/>
    <path d="m-83.292 142.69c-0.02323 0.0954-0.09293 0.7442 0.06938 2.0204 0.06324 0.49724 0.54669 1.4317 0.53943 1.4136"/>
    <path d="m-87.533 154.64c1.286-0.0547 9.057-0.82087 9.057-0.82087"/>
    <path d="m-85.987 140.57c-0.0069 0.67401 0.08635 1.1962 0.3694 1.6554"/>
    <path d="m-87.793 156.2c0.09827-7e-3 2.6631-0.29562 5.071-0.76155 2.2997-0.44498 4.5623-0.96018 4.3964-1.1949"/>
   </g>
  </g>
  <g fill-opacity=".44928" fill-rule="evenodd">
   <g fill="#008300">
    <circle cx="66.367" cy="254.9" r="3.726" opacity=".97"/>
    <circle cx="76.384" cy="148.31" r="3.726" opacity=".97"/>
    <circle cx="76.195" cy="101.82" r="3.726" opacity=".97"/>
    <circle cx="146.31" cy="100.87" r="3.726" opacity=".97"/>
    <circle cx="178.82" cy="99.552" r="3.726" opacity=".97"/>
    <circle cx="147.82" cy="53.439" r="3.726" opacity=".97"/>
    <circle cx="159.35" cy="40.965" r="3.726" opacity=".97"/>
    <circle cx="176.36" cy="43.8" r="3.726" opacity=".97"/>
   </g>
   <g fill="#f00">
    <circle cx="63.91" cy="238.22" r="3.6338" opacity=".97"/>
    <circle cx="55.831" cy="244.51" r="3.6338" opacity=".97"/>
    <circle cx="50.781" cy="136.81" r="3.6338" opacity=".97"/>
    <circle cx="86.194" cy="137.75" r="3.6338" opacity=".97"/>
    <circle cx="90.337" cy="82.422" r="3.6338" opacity=".97"/>
    <circle cx="80.715" cy="89.371" r="3.6338" opacity=".97"/>
    <circle cx="52.118" cy="91.643" r="3.6338" opacity=".97"/>
    <circle cx="89.803" cy="49.415" r="3.6338" opacity=".97"/>
    <circle cx="52.652" cy="55.027" r="3.6338" opacity=".97"/>
    <circle cx="166.51" cy="88.035" r="3.6338" opacity=".97"/>
   </g>
   <g fill="#0065ff">
    <circle cx="50.149" cy="254.66" r="3.6374" opacity=".97"/>
    <circle cx="69.557" cy="266.1" r="3.6374" opacity=".97"/>
    <circle cx="57.463" cy="261.63" r="3.6374" opacity=".97"/>
    <circle cx="70.903" cy="129.22" r="3.6374" opacity=".97"/>
    <circle cx="59.186" cy="146.33" r="3.6374" opacity=".97"/>
    <circle cx="66.462" cy="81.976" r="3.6374" opacity=".97"/>
    <circle cx="59.753" cy="102.48" r="3.6374" opacity=".97"/>
    <circle cx="69.013" cy="92.087" r="3.6374" opacity=".97"/>
    <circle cx="90.274" cy="98.607" r="3.6374" opacity=".97"/>
    <circle cx="164.37" cy="57.165" r="3.6374" opacity=".97"/>
    <circle cx="180.54" cy="54.092" r="3.6374" opacity=".97"/>
    <circle cx="153.81" cy="86.966" r="3.6374" opacity=".97"/>
    <circle cx="163.17" cy="99.26" r="3.6374" opacity=".97"/>
   </g>
  </g>
 </g>
</svg>
