<svg width="260mm" height="110mm" version="1.1" viewBox="0 0 424.1 180.28" xmlns="http://www.w3.org/2000/svg" xmlns:ns0="http://www.iki.fi/pav/software/textext/">
 <defs>
  <marker id="d" overflow="visible" orient="auto">
   <path transform="matrix(-.4 0 0 -.4 -4 0)" d="m0 0 5-5-17.5 5 17.5 5z" fill-rule="evenodd" stroke="#000" stroke-width="1pt"/>
  </marker>
  <marker id="a" overflow="visible" orient="auto">
   <path transform="matrix(-.4 0 0 -.4 -4 0)" d="m0 0 5-5-17.5 5 17.5 5z" fill-rule="evenodd" stroke="#000" stroke-width="1pt"/>
  </marker>
  <marker id="e" overflow="visible" orient="auto">
   <path transform="matrix(-.4 0 0 -.4 -4 0)" d="m0 0 5-5-17.5 5 17.5 5z" fill-rule="evenodd" stroke="#000" stroke-width="1pt"/>
  </marker>
  <marker id="c" overflow="visible" orient="auto">
   <path transform="matrix(-.4 0 0 -.4 -4 0)" d="m0 0 5-5-17.5 5 17.5 5z" fill-rule="evenodd" stroke="#000" stroke-width="1pt"/>
  </marker>
  <marker id="f" overflow="visible" orient="auto">
   <path transform="matrix(-.4 0 0 -.4 -4 0)" d="m0 0 5-5-17.5 5 17.5 5z" fill-rule="evenodd" stroke="#000" stroke-width="1pt"/>
  </marker>
  <marker id="b" overflow="visible" orient="auto">
   <path transform="matrix(-.4 0 0 -.4 -4 0)" d="m0 0 5-5-17.5 5 17.5 5z" fill-rule="evenodd" stroke="#000" stroke-width="1pt"/>
  </marker>
 </defs>
 <g transform="translate(6.1615 33.654)">
  <g transform="translate(7.2378 -59.353)">
   <g transform="matrix(1.2506,0,0,-1.2506,-72.165,1072.2)" fill-rule="evenodd" stroke="#000" stroke-miterlimit="10.433" ns0:preamble="default_packages.tex" ns0:text="$x$\n$y$\n" xml:space="preserve"><g transform="matrix(.79961 0 0 -.79961 58.988 860.59)"><g transform="matrix(1.2506,0,0,-1.2506,-72.165,1072.2)" fill-rule="evenodd" stroke="#000" stroke-miterlimit="10.433" ns0:preamble="default_packages.tex" ns0:text="$x$\n$y$\n" xml:space="preserve"><g transform="rotate(180 212.4 757.83)" fill-rule="evenodd" stroke="#000" stroke-miterlimit="10.433" stroke-opacity=".62745"><g transform="matrix(.79961 0 0 -.79961 -41.225 831.43)" stroke="#000" stroke-opacity=".62745" stroke-width=".7"><g transform="matrix(1.2506,0,0,-1.2506,-72.165,1072.2)" fill-rule="evenodd" stroke="#000" stroke-miterlimit="10.433" stroke-opacity=".62745" stroke-width=".55973" ns0:preamble="default_packages.tex" ns0:text="$x$\n$y$\n" xml:space="preserve"><g transform="matrix(-.65715 0 0 -.65715 540.07 1459.9)" fill-rule="evenodd" stroke="#000" stroke-miterlimit="10.433" stroke-opacity=".62745" stroke-width="2.2826" ns0:preamble="default_packages.tex" ns0:text="$x_1 x_2 x f(x_1) f(x_2) f(x)$\n" xml:space="preserve"><g stroke="#000" stroke-opacity=".62745"><g transform="matrix(1.2168 0 0 -1.2168 183.62 863.82)"><g transform="translate(7.2378 -59.353)"><g transform="matrix(1.2506,0,0,-1.2506,-72.165,1072.2)" fill-rule="evenodd" stroke="#000" stroke-miterlimit="10.433" ns0:preamble="default_packages.tex" ns0:text="$x$\n$y$\n" xml:space="preserve"><g transform="matrix(.79961 0 0 -.79961 58.988 860.59)"><g transform="matrix(1.2506,0,0,-1.2506,-72.165,1072.2)" fill-rule="evenodd" stroke="#000" stroke-miterlimit="10.433" ns0:preamble="default_packages.tex" ns0:text="$x$\n$y$\n" xml:space="preserve"><g transform="rotate(180 212.4 757.83)" fill-rule="evenodd" stroke="#000" stroke-miterlimit="10.433"><g transform="matrix(.79961 0 0 -.79961 -41.225 831.43)" stroke-width=".7"><g transform="matrix(-1 0 0 -1 578.27 350.25)"><g transform="translate(7.2378 -59.353)"><g transform="matrix(1.2506,0,0,-1.2506,-72.165,1072.2)" fill-rule="evenodd" stroke="#000" stroke-miterlimit="10.433" ns0:preamble="default_packages.tex" ns0:text="$x$\n$y$\n" xml:space="preserve"><g transform="matrix(.79961 0 0 -.79961 58.988 860.59)"><g transform="matrix(1.2506,0,0,-1.2506,-72.165,1072.2)" fill-rule="evenodd" stroke="#000" stroke-miterlimit="10.433" ns0:preamble="default_packages.tex" ns0:text="$x$\n$y$\n" xml:space="preserve"><g transform="rotate(180 212.4 757.83)" stroke-opacity=".62745"><g transform="matrix(.79961 0 0 -.79961 -41.225 831.43)" stroke="#000" stroke-opacity=".62745" stroke-width=".7"><g transform="matrix(1.2506,0,0,-1.2506,-72.165,1072.2)" fill-rule="evenodd" stroke="#000" stroke-miterlimit="10.433" stroke-opacity=".62745" stroke-width=".55973" ns0:preamble="default_packages.tex" ns0:text="$x$\n$y$\n" xml:space="preserve"><g transform="matrix(-.65715 0 0 -.65715 540.07 1459.9)" fill-rule="evenodd" stroke="#000" stroke-miterlimit="10.433" stroke-opacity=".62745" stroke-width="2.2826" ns0:preamble="default_packages.tex" ns0:text="$x_1 x_2 x f(x_1) f(x_2) f(x)$\n" xml:space="preserve"><g stroke="#000" stroke-opacity=".62745"><path d="m434.49 969.51v114.13" fill-opacity=".62745" fill-rule="evenodd" marker-end="url(#f)" stroke="#000" stroke-miterlimit="10.433" stroke-opacity="1" stroke-width=".36504"/><path d="m427.92 977.24h142.81" fill="none" marker-end="url(#b)" stroke="#000" stroke-miterlimit="10.433" stroke-opacity="1" stroke-width=".36504"/><g fill-rule="evenodd" stroke="#000" stroke-miterlimit="10.433" stroke-opacity="1"><g transform="matrix(.6952 0 0 .6952 364.81 531.8)" stroke-width="3.2834" ns0:preamble="default_packages.tex" ns0:text="$x$\n$y$\n$\\langle y \\rangle$\n$\\langle x \\rangle$\n$\\text{Point of averages}$\n$\\text{Regression line}$\n$\\text{SD line}$\n$\\rho(x,y)\\sigma_y$\n$\\sigma_x$\n" xml:space="preserve"><g transform="matrix(1.5 0 0 1.5 69.402 -429.08)" fill-rule="evenodd" stroke="#000" stroke-miterlimit="10.433" stroke-opacity="1" stroke-width="0" ns0:preamble="default_packages.tex" ns0:text="$x f$\n" xml:space="preserve"><path d="m150.06 709.38 0.01 0.02 0.01 0.03v0.03l0.02 0.08 0.02 0.04 0.01 0.04 0.01 0.05 0.02 0.04 0.1 0.25 0.09 0.15 0.03 0.04 0.03 0.05 0.04 0.04 0.03 0.05 0.04 0.04 0.05 0.04 0.04 0.03 0.05 0.03 0.04 0.03 0.03 0.01 0.03 0.02 0.02 0.01 0.06 0.02h0.03l0.02 0.01 0.03 0.01h0.07l0.03 0.01h0.03c0.05 0 0.29 0 0.5-0.13-0.28-0.05-0.48-0.3-0.48-0.54 0-0.16 0.11-0.35 0.38-0.35 0.22 0 0.54 0.18 0.54 0.58 0 0.52-0.59 0.66-0.93 0.66-0.58 0-0.93-0.53-1.05-0.76-0.25 0.66-0.78 0.76-1.07 0.76-1.04 0-1.61-1.29-1.61-1.53 0-0.1 0.1-0.1 0.12-0.1 0.08 0 0.11 0.02 0.13 0.11 0.34 1.05 1 1.3 1.34 1.3 0.19 0 0.53-0.09 0.53-0.67 0-0.31-0.17-0.97-0.53-2.36-0.16-0.62-0.51-1.04-0.95-1.04-0.06 0-0.29 0-0.5 0.13 0.25 0.05 0.47 0.26 0.47 0.54 0 0.27-0.22 0.35-0.37 0.35-0.3 0-0.55-0.26-0.55-0.58 0-0.46 0.5-0.65 0.94-0.65 0.66 0 1.02 0.69 1.05 0.75 0.11-0.37 0.47-0.75 1.07-0.75 1.03 0 1.6 1.28 1.6 1.53 0 0.1-0.09 0.1-0.12 0.1-0.09 0-0.11-0.05-0.13-0.11-0.33-1.07-1.01-1.31-1.33-1.31-0.39 0-0.55 0.32-0.55 0.66 0 0.22 0.06 0.44 0.17 0.87z"/><path d="m17.293 815.97h0.85c0.2 0 0.3 0 0.3 0.2 0 0.11-0.1 0.11-0.27 0.11h-0.82l0.21 1.13c0.04 0.21 0.17 0.91 0.23 1.03 0.09 0.19 0.26 0.34 0.47 0.34 0.04 0 0.3 0 0.49-0.18-0.44-0.04-0.54-0.39-0.54-0.53 0-0.23 0.18-0.35 0.37-0.35 0.26 0 0.55 0.22 0.55 0.59 0 0.46-0.46 0.69-0.87 0.69-0.34 0-0.97-0.18-1.26-1.16-0.06-0.21-0.09-0.31-0.33-1.56h-0.69c-0.19 0-0.3 0-0.3-0.19 0-0.12 0.09-0.12 0.28-0.12h0.66l-0.75-3.93c-0.18-0.96-0.35-1.86-0.87-1.86-0.04 0-0.29 0-0.48 0.18 0.46 0.03 0.55 0.38 0.55 0.53 0 0.23-0.18 0.35-0.37 0.35-0.26 0-0.55-0.22-0.55-0.6 0-0.44 0.44-0.68 0.85-0.68 0.55 0 0.95 0.58 1.13 0.96 0.32 0.63 0.55 1.83 0.56 1.9z"/></g></g><g transform="matrix(.9337 0 0 .9337 199.58 454.77)" stroke-width="0" ns0:preamble="default_packages.tex" ns0:text="$$\\text{Neither concave nor convex}$$\n" xml:space="preserve"><path d="m248.13 701.83v0.01l-0.05 0.05v0.01h-0.01v0.01h-0.01l-0.02 0.02h-0.01v0.01h-0.03v0.01h-0.14l-0.01 0.01h-1.7v-0.31h0.29c0.15 0 0.35-0.01 0.5-0.02 0.23-0.03 0.24-0.04 0.24-0.23v-5.19c0-0.26 0-0.73-1.03-0.73v-0.31c0.35 0.01 0.84 0.03 1.17 0.03s0.81-0.02 1.16-0.03v0.31c-1.02 0-1.02 0.47-1.02 0.73v5.17c0.05-0.05 0.05-0.06 0.09-0.12l4.07-5.96c0.09-0.12 0.1-0.13 0.17-0.13 0.14 0 0.14 0.07 0.14 0.26v5.48c0 0.27 0 0.74 1.03 0.74v0.31c-0.35-0.01-0.84-0.04-1.17-0.04s-0.81 0.03-1.16 0.04v-0.31c1.02 0 1.02-0.47 1.02-0.74v-4.24z"/><path d="m254.4 697.47 0.01 0.2c0.06 1.48 0.9 1.73 1.24 1.73 1.02 0 1.12-1.34 1.12-1.73h-2.36l-0.01-0.2h2.78c0.22 0 0.25 0 0.25 0.2 0 0.99-0.54 1.95-1.78 1.95-1.16 0-2.08-1.02-2.08-2.27 0-1.33 1.05-2.29 2.19-2.29 1.22 0 1.67 1.1 1.67 1.29 0 0.1-0.08 0.12-0.13 0.12-0.09 0-0.11-0.06-0.13-0.14-0.35-1.02-1.24-1.02-1.35-1.02-0.49 0-0.89 0.3-1.12 0.66-0.3 0.48-0.3 1.14-0.3 1.5z"/><path d="m259.48 699.56-1.39-0.11v-0.31c0.65 0 0.74-0.06 0.74-0.54v-2.68c0-0.44-0.11-0.44-0.78-0.44v-0.31c0.32 0.01 0.86 0.03 1.09 0.03 0.35 0 0.7-0.02 1.04-0.03v0.31c-0.66 0-0.7 0.05-0.7 0.43z"/><path d="m259.52 701.29v0.09l-0.01 0.02v0.03l-0.01 0.03-0.01 0.02-0.01 0.03-0.02 0.04-0.02 0.02-0.01 0.03-0.01 0.02-0.02 0.02-0.02 0.01-0.02 0.02-0.01 0.02-0.02 0.01-0.02 0.02-0.02 0.01-0.03 0.02-0.06 0.03-0.03 0.01h-0.02l-0.03 0.01-0.02 0.01h-0.05l-0.03 0.01h-0.02c-0.31 0-0.53-0.27-0.53-0.53 0-0.27 0.22-0.53 0.53-0.53 0.27 0 0.52 0.21 0.52 0.53z"/><path d="m262.21 699.14h1.43v0.31h-1.43v1.83h-0.25c-0.01-0.81-0.31-1.88-1.28-1.92v-0.22h0.84v-2.74c0-1.22 0.93-1.34 1.29-1.34 0.71 0 0.99 0.71 0.99 1.34v0.57h-0.25v-0.55c0-0.73-0.3-1.11-0.67-1.11-0.67 0-0.67 0.9-0.67 1.07z"/><path d="m265.46 695.92v-0.07l-0.01-0.04v-0.06l-0.01-0.03v-0.03l-0.01-0.02-0.01-0.03-0.02-0.04-0.04-0.04-0.02-0.01-0.02-0.02-0.02-0.01h-0.03l-0.02-0.01-0.03-0.01h-0.03l-0.03-0.01h-0.08l-0.02-0.01h-0.38v-0.31c0.35 0.01 0.86 0.03 1.13 0.03 0.26 0 0.77-0.02 1.11-0.03v0.31c-0.66 0-0.77 0-0.77 0.44v1.83c0 1.04 0.7 1.59 1.34 1.59 0.63 0 0.74-0.53 0.74-1.1v-2.32c0-0.44-0.11-0.44-0.78-0.44v-0.31c0.35 0.01 0.86 0.03 1.13 0.03 0.26 0 0.78-0.02 1.12-0.03v0.31c-0.52 0-0.77 0-0.78 0.3v1.89c0 0.86 0 1.17-0.31 1.52-0.14 0.17-0.47 0.37-1.05 0.37-0.83 0-1.27-0.59-1.44-0.97v3.47l-1.44-0.1v-0.31c0.7 0 0.78-0.07 0.78-0.56z"/><path d="m271 697.47 0.01 0.2c0.06 1.48 0.9 1.73 1.24 1.73 1.03 0 1.13-1.34 1.13-1.73h-2.37l-0.01-0.2h2.79c0.22 0 0.25 0 0.25 0.2 0 0.99-0.54 1.95-1.79 1.95-1.16 0-2.07-1.02-2.07-2.27 0-1.33 1.04-2.29 2.19-2.29 1.22 0 1.67 1.1 1.67 1.29 0 0.1-0.09 0.12-0.14 0.12-0.08 0-0.1-0.06-0.12-0.14-0.35-1.02-1.25-1.02-1.35-1.02-0.5 0-0.9 0.3-1.13 0.66-0.3 0.48-0.3 1.14-0.3 1.5z"/><path d="m275.99 698.47v1.09l-1.39-0.11v-0.31c0.7 0 0.78-0.07 0.78-0.55v-2.67c0-0.44-0.11-0.44-0.78-0.44v-0.31c0.39 0.01 0.86 0.03 1.14 0.03 0.4 0 0.87 0 1.27-0.03v0.31h-0.21c-0.74 0-0.76 0.11-0.76 0.47v1.52c0 0.99 0.42 1.87 1.18 1.87 0.07 0 0.09 0 0.11-0.01-0.03-0.01-0.23-0.13-0.23-0.38 0-0.28 0.21-0.43 0.42-0.43 0.18 0 0.43 0.12 0.43 0.44 0 0.31-0.31 0.6-0.73 0.6-0.73 0-1.09-0.66-1.23-1.09z"/><path d="m282.71 697.34v0.14l0.01 0.08v0.07l0.01 0.06v0.07l0.01 0.07 0.05 0.3 0.03 0.1 0.03 0.11 0.03 0.09 0.04 0.1 0.12 0.24 0.05 0.07 0.15 0.18 0.05 0.05 0.05 0.04 0.06 0.04 0.05 0.04 0.06 0.04 0.06 0.03 0.05 0.02 0.12 0.04 0.05 0.02 0.06 0.01 0.1 0.02h0.11c0.09 0 0.71-0.01 1.06-0.37-0.41-0.03-0.47-0.32-0.47-0.45 0-0.26 0.18-0.46 0.46-0.46 0.26 0 0.46 0.17 0.46 0.47 0 0.67-0.75 1.06-1.52 1.06-1.25 0-2.17-1.07-2.17-2.3 0-1.28 0.99-2.26 2.15-2.26 1.33 0 1.65 1.19 1.65 1.29s-0.1 0.1-0.13 0.1c-0.09 0-0.11-0.04-0.13-0.1-0.29-0.92-0.93-1.04-1.3-1.04-0.53 0-1.41 0.43-1.41 2.03z"/><path d="m290.67 697.3v0.11l-0.01 0.12-0.02 0.12-0.04 0.22-0.03 0.11-0.08 0.22-0.04 0.1-0.1 0.2-0.12 0.18-0.07 0.09-0.14 0.16-0.16 0.16-0.08 0.06-0.09 0.07-0.18 0.12-0.09 0.05-0.1 0.05-0.1 0.04-0.1 0.03-0.11 0.04-0.1 0.02-0.22 0.04-0.11 0.01h-0.12l-0.01-0.22c0.44 0 0.87-0.22 1.13-0.64 0.26-0.43 0.26-1.01 0.26-1.38 0-0.36 0-0.9-0.22-1.34s-0.66-0.73-1.16-0.73c-0.42 0-0.86 0.21-1.13 0.66-0.25 0.44-0.25 1.05-0.25 1.41 0 0.38 0 0.92 0.24 1.36 0.27 0.45 0.73 0.66 1.13 0.66l0.01 0.22c-1.24 0-2.21-1.08-2.21-2.32 0-1.29 1.04-2.24 2.2-2.24 1.21 0 2.22 0.97 2.22 2.24z"/><path d="m292.05 698.59v-2.67c0-0.44-0.11-0.44-0.78-0.44v-0.31c0.35 0.01 0.86 0.03 1.13 0.03 0.26 0 0.78-0.02 1.12-0.03v0.31c-0.67 0-0.78 0-0.78 0.44v1.83c0 1.04 0.71 1.59 1.34 1.59s0.74-0.53 0.74-1.1v-2.32c0-0.44-0.11-0.44-0.78-0.44v-0.31c0.35 0.01 0.86 0.03 1.13 0.03 0.26 0 0.78-0.02 1.12-0.03v0.31c-0.52 0-0.77 0-0.78 0.3v1.89c0 0.86 0 1.17-0.31 1.52-0.14 0.17-0.47 0.37-1.05 0.37-0.72 0-1.19-0.43-1.47-1.04v1.04l-1.41-0.11v-0.31c0.7 0 0.78-0.07 0.78-0.55z"/><path d="m297.65 697.34v0.07l0.01 0.07v0.15l0.01 0.06v0.07l0.01 0.07 0.05 0.3 0.03 0.1 0.03 0.11 0.03 0.09 0.04 0.1 0.12 0.24 0.05 0.07 0.15 0.18 0.05 0.05 0.06 0.04 0.05 0.04 0.06 0.04 0.05 0.04 0.06 0.03 0.06 0.02 0.05 0.02 0.12 0.04 0.05 0.01 0.06 0.01 0.05 0.01h0.1c0.09 0 0.72-0.01 1.07-0.37-0.41-0.03-0.47-0.32-0.47-0.45 0-0.26 0.18-0.46 0.46-0.46 0.26 0 0.46 0.17 0.46 0.47 0 0.67-0.76 1.06-1.53 1.06-1.25 0-2.16-1.07-2.16-2.3 0-1.28 0.98-2.26 2.14-2.26 1.34 0 1.66 1.19 1.66 1.29s-0.1 0.1-0.13 0.1c-0.09 0-0.11-0.04-0.13-0.1-0.29-0.92-0.94-1.04-1.31-1.04-0.53 0-1.41 0.43-1.41 2.03z"/><path d="m304.24 695.92v-0.03l0.01-0.04v-0.04l0.01-0.03 0.02-0.08 0.01-0.03 0.02-0.04 0.01-0.04 0.04-0.06 0.02-0.04 0.08-0.12 0.11-0.11 0.06-0.04 0.04-0.02 0.03-0.02 0.04-0.01 0.03-0.02 0.16-0.04h0.08c0.21 0 0.82 0.14 0.82 0.94v0.56h-0.25v-0.56c0-0.57-0.25-0.63-0.36-0.63-0.33 0-0.37 0.44-0.37 0.49v1.99c0 0.42 0 0.81-0.36 1.17-0.38 0.39-0.88 0.55-1.36 0.55-0.82 0-1.51-0.47-1.51-1.12 0-0.3 0.2-0.47 0.46-0.47 0.28 0 0.46 0.2 0.46 0.46 0 0.12-0.05 0.44-0.51 0.46 0.27 0.34 0.76 0.45 1.08 0.45 0.49 0 1.06-0.39 1.06-1.27v-1.57c0-0.94-0.72-1.28-1.17-1.28-0.49 0-0.9 0.35-0.9 0.84 0 0.55 0.42 1.37 2.07 1.43v0.21c-0.51-0.03-1.21-0.06-1.84-0.35-0.75-0.34-1-0.86-1-1.3 0-0.8 0.97-1.05 1.6-1.05 0.66 0 1.12 0.4 1.31 0.86z"/><path d="m309.78 698.48v0.02l0.01 0.02 0.01 0.03 0.01 0.02 0.02 0.03 0.01 0.02 0.02 0.06 0.02 0.02 0.02 0.03 0.01 0.03 0.02 0.03 0.02 0.02 0.02 0.03 0.08 0.08 0.03 0.02 0.03 0.03 0.06 0.04 0.04 0.02 0.03 0.02 0.04 0.02 0.05 0.01 0.04 0.02 0.15 0.03h0.03l0.03 0.01h0.11v0.31c-0.23-0.02-0.52-0.03-0.74-0.03-0.24 0-0.7 0.02-0.87 0.03v-0.31c0.37-0.01 0.48-0.23 0.48-0.42 0-0.09-0.02-0.13-0.06-0.24l-1.02-2.53-1.12 2.77c-0.06 0.13-0.06 0.14-0.06 0.17 0 0.25 0.39 0.25 0.57 0.25v0.31c-0.3-0.01-0.86-0.03-1.09-0.03-0.26 0-0.66 0.01-0.96 0.03v-0.31c0.63 0 0.66-0.06 0.79-0.36l1.44-3.53c0.06-0.14 0.08-0.19 0.21-0.19s0.17 0.09 0.21 0.19z"/><path d="m311.71 697.47 0.01 0.2c0.06 1.48 0.9 1.73 1.24 1.73 1.03 0 1.13-1.34 1.13-1.73h-2.37l-0.01-0.2h2.79c0.21 0 0.24 0 0.24 0.2 0 0.99-0.53 1.95-1.78 1.95-1.16 0-2.07-1.02-2.07-2.27 0-1.33 1.04-2.29 2.19-2.29 1.22 0 1.66 1.1 1.66 1.29 0 0.1-0.07 0.12-0.13 0.12-0.08 0-0.1-0.06-0.12-0.14-0.35-1.02-1.25-1.02-1.35-1.02-0.5 0-0.9 0.3-1.13 0.66-0.3 0.48-0.3 1.14-0.3 1.5z"/><path d="m319.45 698.59v-2.67c0-0.44-0.11-0.44-0.78-0.44v-0.31c0.35 0.01 0.86 0.03 1.13 0.03 0.26 0 0.78-0.02 1.11-0.03v0.31c-0.66 0-0.77 0-0.77 0.44v1.83c0 1.04 0.71 1.59 1.34 1.59s0.74-0.53 0.74-1.1v-2.32c0-0.44-0.11-0.44-0.78-0.44v-0.31c0.35 0.01 0.86 0.03 1.13 0.03 0.26 0 0.78-0.02 1.12-0.03v0.31c-0.52 0-0.77 0-0.78 0.3v1.89c0 0.86 0 1.17-0.31 1.52-0.14 0.17-0.47 0.37-1.05 0.37-0.72 0-1.19-0.43-1.47-1.04v1.04l-1.41-0.11v-0.31c0.7 0 0.78-0.07 0.78-0.55z"/><path d="m328.58 697.3v0.11l-0.02 0.24-0.02 0.11-0.09 0.33-0.04 0.11-0.05 0.1-0.04 0.1-0.06 0.1-0.18 0.27-0.07 0.08-0.08 0.08-0.07 0.08-0.08 0.08-0.09 0.06-0.08 0.07-0.18 0.12-0.2 0.1-0.1 0.04-0.1 0.03-0.1 0.04-0.33 0.06-0.11 0.01h-0.11l-0.01-0.22c0.44 0 0.87-0.22 1.13-0.64 0.26-0.43 0.26-1.01 0.26-1.38 0-0.36 0-0.9-0.22-1.34s-0.66-0.73-1.16-0.73c-0.43 0-0.87 0.21-1.14 0.66-0.25 0.44-0.25 1.05-0.25 1.41 0 0.38 0 0.92 0.24 1.36 0.27 0.45 0.74 0.66 1.14 0.66l0.01 0.22c-1.25 0-2.21-1.08-2.21-2.32 0-1.29 1.03-2.24 2.2-2.24 1.21 0 2.21 0.97 2.21 2.24z"/><path d="m330.53 698.47v1.09l-1.38-0.11v-0.31c0.7 0 0.77-0.07 0.77-0.55v-2.67c0-0.44-0.1-0.44-0.77-0.44v-0.31c0.39 0.01 0.86 0.03 1.13 0.03 0.4 0 0.87 0 1.27-0.03v0.31h-0.21c-0.74 0-0.76 0.11-0.76 0.47v1.52c0 0.99 0.42 1.87 1.18 1.87 0.07 0 0.09 0 0.11-0.01-0.03-0.01-0.23-0.13-0.23-0.38 0-0.28 0.21-0.43 0.43-0.43 0.18 0 0.43 0.12 0.43 0.44 0 0.31-0.31 0.6-0.74 0.6-0.73 0-1.09-0.66-1.23-1.09z"/><path d="m337.26 697.34v0.29l0.01 0.06 0.01 0.07v0.07l0.05 0.3 0.03 0.1 0.03 0.11 0.03 0.09 0.04 0.1 0.08 0.16 0.05 0.08 0.04 0.07 0.15 0.18 0.05 0.05 0.06 0.04 0.05 0.04 0.06 0.04 0.05 0.04 0.06 0.03 0.06 0.02 0.05 0.02 0.12 0.04 0.05 0.01 0.06 0.01 0.05 0.01h0.1c0.09 0 0.72-0.01 1.07-0.37-0.41-0.03-0.47-0.32-0.47-0.45 0-0.26 0.18-0.46 0.46-0.46 0.26 0 0.46 0.17 0.46 0.47 0 0.67-0.76 1.06-1.53 1.06-1.25 0-2.16-1.07-2.16-2.3 0-1.28 0.98-2.26 2.14-2.26 1.34 0 1.66 1.19 1.66 1.29s-0.1 0.1-0.13 0.1c-0.09 0-0.11-0.04-0.13-0.1-0.29-0.92-0.94-1.04-1.31-1.04-0.53 0-1.4 0.43-1.4 2.03z"/><path d="m345.22 697.3v0.11l-0.02 0.24-0.02 0.11-0.09 0.33-0.04 0.11-0.15 0.3-0.18 0.27-0.07 0.08-0.08 0.08-0.07 0.08-0.08 0.08-0.09 0.06-0.08 0.07-0.09 0.06-0.1 0.06-0.09 0.05-0.1 0.05-0.1 0.04-0.1 0.03-0.1 0.04-0.33 0.06-0.11 0.01h-0.11l-0.01-0.22c0.44 0 0.87-0.22 1.13-0.64 0.25-0.43 0.25-1.01 0.25-1.38 0-0.36 0-0.9-0.22-1.34-0.21-0.44-0.65-0.73-1.15-0.73-0.43 0-0.87 0.21-1.14 0.66-0.25 0.44-0.25 1.05-0.25 1.41 0 0.38 0 0.92 0.24 1.36 0.27 0.45 0.74 0.66 1.14 0.66l0.01 0.22c-1.25 0-2.22-1.08-2.22-2.32 0-1.29 1.04-2.24 2.21-2.24 1.2 0 2.21 0.97 2.21 2.24z"/><path d="m346.6 698.59v-2.67c0-0.44-0.11-0.44-0.77-0.44v-0.31c0.34 0.01 0.85 0.03 1.12 0.03 0.26 0 0.78-0.02 1.12-0.03v0.31c-0.67 0-0.78 0-0.78 0.44v1.83c0 1.04 0.71 1.59 1.35 1.59 0.63 0 0.74-0.53 0.74-1.1v-2.32c0-0.44-0.11-0.44-0.78-0.44v-0.31c0.35 0.01 0.86 0.03 1.13 0.03 0.25 0 0.77-0.02 1.11-0.03v0.31c-0.52 0-0.77 0-0.78 0.3v1.89c0 0.86 0 1.17-0.3 1.52-0.15 0.17-0.47 0.37-1.05 0.37-0.73 0-1.2-0.43-1.48-1.04v1.04l-1.4-0.11v-0.31c0.69 0 0.77-0.07 0.77-0.55z"/><path d="m354.91 698.48 0.02 0.04 0.01 0.03 0.01 0.02 0.01 0.03 0.01 0.02 0.02 0.03 0.01 0.03 0.01 0.02 0.06 0.09 0.02 0.02 0.04 0.06 0.03 0.02 0.02 0.03 0.03 0.02 0.03 0.03 0.03 0.02 0.04 0.02 0.03 0.02 0.08 0.04 0.04 0.01 0.05 0.02 0.04 0.01 0.05 0.01 0.06 0.01h0.02l0.03 0.01h0.12v0.31c-0.23-0.02-0.52-0.03-0.75-0.03-0.24 0-0.7 0.02-0.87 0.03v-0.31c0.37-0.01 0.48-0.23 0.48-0.42 0-0.09-0.02-0.13-0.06-0.24l-1.02-2.53-1.11 2.77c-0.06 0.13-0.06 0.14-0.06 0.17 0 0.25 0.39 0.25 0.57 0.25v0.31c-0.3-0.01-0.86-0.03-1.09-0.03-0.27 0-0.67 0.01-0.97 0.03v-0.31c0.63 0 0.67-0.06 0.8-0.36l1.44-3.53c0.06-0.14 0.08-0.19 0.2-0.19 0.13 0 0.18 0.09 0.22 0.19z"/><path d="m356.85 697.47 0.01 0.2c0.06 1.48 0.9 1.73 1.24 1.73 1.02 0 1.12-1.34 1.12-1.73h-2.36l-0.01-0.2h2.78c0.22 0 0.25 0 0.25 0.2 0 0.99-0.54 1.95-1.78 1.95-1.16 0-2.08-1.02-2.08-2.27 0-1.33 1.05-2.29 2.19-2.29 1.22 0 1.67 1.1 1.67 1.29 0 0.1-0.08 0.12-0.13 0.12-0.09 0-0.11-0.06-0.13-0.14-0.35-1.02-1.24-1.02-1.35-1.02-0.49 0-0.89 0.3-1.12 0.66-0.3 0.48-0.3 1.14-0.3 1.5z"/><path d="m363.03 697.5 0.06 0.08 0.06 0.07 0.06 0.08 0.06 0.07 0.12 0.16 0.06 0.07 0.12 0.16 0.18 0.21 0.02 0.03 0.06 0.06 0.02 0.03 0.03 0.03 0.02 0.03 0.03 0.02 0.02 0.03c0.31 0.35 0.72 0.5 1.19 0.51v0.31c-0.26-0.02-0.56-0.03-0.82-0.03-0.3 0-0.83 0.02-0.96 0.03v-0.31c0.21-0.02 0.29-0.15 0.29-0.3 0-0.16-0.1-0.29-0.15-0.35l-0.62-0.78-0.78 1.01c-0.09 0.1-0.09 0.12-0.09 0.18 0 0.14 0.15 0.23 0.35 0.24v0.31c-0.26-0.01-0.91-0.03-1.07-0.03-0.21 0-0.68 0.01-0.95 0.03v-0.31c0.7 0 0.71-0.01 1.18-0.6l0.98-1.28-0.93-1.19c-0.48-0.57-1.07-0.59-1.28-0.59v-0.31c0.26 0.02 0.57 0.03 0.83 0.03 0.29 0 0.71-0.02 0.94-0.03v0.31c-0.21 0.03-0.29 0.16-0.29 0.31 0 0.21 0.29 0.54 0.9 1.26l0.76-1c0.08-0.1 0.21-0.26 0.21-0.32 0-0.09-0.09-0.24-0.36-0.25v-0.31c0.3 0.01 0.86 0.03 1.08 0.03 0.27 0 0.66-0.01 0.96-0.03v0.31c-0.54 0-0.72 0.02-0.95 0.31z"/></g><g transform="matrix(1.0207 0 0 1.0207 433.82 188.96)" stroke-width="3.3545"><g stroke="#000" stroke-miterlimit="10.433" stroke-opacity="1"><path d="m-148.42 764.63v111.81" fill="none" marker-end="url(#d)" stroke-width=".35764"/><path d="m-154.86 772.2h139.91" fill="none" marker-end="url(#a)" stroke-width=".35764"/><g transform="matrix(.68111 0 0 .68112 -216.69 335.79)" fill-rule="evenodd" stroke-width="3.2834" ns0:preamble="default_packages.tex" ns0:text="$x$\n$y$\n$\\langle y \\rangle$\n$\\langle x \\rangle$\n$\\text{Point of averages}$\n$\\text{Regression line}$\n$\\text{SD line}$\n$\\rho(x,y)\\sigma_y$\n$\\sigma_x$\n" xml:space="preserve"><g transform="matrix(1.5 0 0 1.5 69.402 -429.08)" fill-rule="evenodd" stroke="#000" stroke-miterlimit="10.433" stroke-opacity="1" stroke-width="0" ns0:preamble="default_packages.tex" ns0:text="$x f$\n" xml:space="preserve"><path d="m150.06 709.38 0.01 0.02 0.01 0.03v0.03l0.02 0.08 0.02 0.04 0.01 0.04 0.01 0.05 0.02 0.04 0.1 0.25 0.09 0.15 0.03 0.04 0.03 0.05 0.04 0.04 0.03 0.05 0.04 0.04 0.05 0.04 0.04 0.03 0.05 0.03 0.04 0.03 0.03 0.01 0.03 0.02 0.02 0.01 0.06 0.02h0.03l0.02 0.01 0.03 0.01h0.07l0.03 0.01h0.03c0.05 0 0.29 0 0.5-0.13-0.28-0.05-0.48-0.3-0.48-0.54 0-0.16 0.11-0.35 0.38-0.35 0.22 0 0.54 0.18 0.54 0.58 0 0.52-0.59 0.66-0.93 0.66-0.58 0-0.93-0.53-1.05-0.76-0.25 0.66-0.78 0.76-1.07 0.76-1.04 0-1.61-1.29-1.61-1.53 0-0.1 0.1-0.1 0.12-0.1 0.08 0 0.11 0.02 0.13 0.11 0.34 1.05 1 1.3 1.34 1.3 0.19 0 0.53-0.09 0.53-0.67 0-0.31-0.17-0.97-0.53-2.36-0.16-0.62-0.51-1.04-0.95-1.04-0.06 0-0.29 0-0.5 0.13 0.25 0.05 0.47 0.26 0.47 0.54 0 0.27-0.22 0.35-0.37 0.35-0.3 0-0.55-0.26-0.55-0.58 0-0.46 0.5-0.65 0.94-0.65 0.66 0 1.02 0.69 1.05 0.75 0.11-0.37 0.47-0.75 1.07-0.75 1.03 0 1.6 1.28 1.6 1.53 0 0.1-0.09 0.1-0.12 0.1-0.09 0-0.11-0.05-0.13-0.11-0.33-1.07-1.01-1.31-1.33-1.31-0.39 0-0.55 0.32-0.55 0.66 0 0.22 0.06 0.44 0.17 0.87z"/><path d="m17.293 815.97h0.85c0.2 0 0.3 0 0.3 0.2 0 0.11-0.1 0.11-0.27 0.11h-0.82l0.21 1.13c0.04 0.21 0.17 0.91 0.23 1.03 0.09 0.19 0.26 0.34 0.47 0.34 0.04 0 0.3 0 0.49-0.18-0.44-0.04-0.54-0.39-0.54-0.53 0-0.23 0.18-0.35 0.37-0.35 0.26 0 0.55 0.22 0.55 0.59 0 0.46-0.46 0.69-0.87 0.69-0.34 0-0.97-0.18-1.26-1.16-0.06-0.21-0.09-0.31-0.33-1.56h-0.69c-0.19 0-0.3 0-0.3-0.19 0-0.12 0.09-0.12 0.28-0.12h0.66l-0.75-3.93c-0.18-0.96-0.35-1.86-0.87-1.86-0.04 0-0.29 0-0.48 0.18 0.46 0.03 0.55 0.38 0.55 0.53 0 0.23-0.18 0.35-0.37 0.35-0.26 0-0.55-0.22-0.55-0.6 0-0.44 0.44-0.68 0.85-0.68 0.55 0 0.95 0.58 1.13 0.96 0.32 0.63 0.55 1.83 0.56 1.9z"/></g></g></g></g><g transform="matrix(.98166 0 0 .98166 131.76 410.2)" stroke-width="0" ns0:preamble="default_packages.tex" ns0:text="$\\text{Convex}$\n" xml:space="preserve"><path d="m149.27 710.52v-0.19l0.02-0.19 0.02-0.18 0.03-0.18 0.04-0.18 0.05-0.18 0.06-0.16 0.06-0.17 0.07-0.16 0.08-0.16 0.18-0.3 0.1-0.14 0.1-0.13 0.11-0.13 0.12-0.13 0.12-0.12 0.13-0.11 0.13-0.1 0.14-0.1 0.28-0.18 0.15-0.08 0.16-0.07 0.15-0.06 0.16-0.06 0.16-0.04 0.17-0.04 0.34-0.06 0.17-0.01h0.17c1.63 0 2.6 1.38 2.6 2.53 0 0.1 0 0.17-0.13 0.17-0.11 0-0.11-0.06-0.12-0.16-0.08-1.42-1.14-2.24-2.23-2.24-0.61 0-2.56 0.34-2.56 3.3 0 2.97 1.94 3.31 2.55 3.31 1.09 0 1.97-0.9 2.17-2.35 0.02-0.14 0.02-0.17 0.16-0.17 0.16 0 0.16 0.03 0.16 0.24v2.35c0 0.17 0 0.24-0.11 0.24-0.04 0-0.08 0-0.16-0.12l-0.49-0.74c-0.37 0.36-0.88 0.86-1.84 0.86-1.86 0-3.47-1.58-3.47-3.61z"/><path d="m160.6 709.25v0.12l-0.01 0.12-0.01 0.11-0.02 0.12-0.09 0.33-0.04 0.1-0.05 0.1-0.04 0.1-0.06 0.1-0.06 0.09-0.06 0.1-0.06 0.08-0.07 0.09-0.08 0.08-0.07 0.08-0.08 0.07-0.09 0.07-0.08 0.06-0.09 0.07-0.09 0.05-0.2 0.1-0.2 0.08-0.1 0.03-0.11 0.03-0.11 0.02-0.33 0.03-0.01-0.22c0.44 0 0.87-0.22 1.13-0.65s0.26-1 0.26-1.38c0-0.36 0-0.89-0.22-1.33-0.22-0.45-0.66-0.74-1.16-0.74-0.43 0-0.87 0.21-1.14 0.67-0.25 0.44-0.25 1.04-0.25 1.4 0 0.39 0 0.92 0.24 1.36 0.27 0.46 0.74 0.67 1.14 0.67l0.01 0.22c-1.25 0-2.21-1.09-2.21-2.33 0-1.28 1.03-2.23 2.2-2.23 1.21 0 2.21 0.97 2.21 2.23z"/><path d="m161.99 710.54v-2.66c0-0.45-0.11-0.45-0.78-0.45v-0.3c0.35 0.01 0.86 0.03 1.12 0.03s0.78-0.02 1.12-0.03v0.3c-0.67 0-0.78 0-0.78 0.45v1.83c0 1.03 0.71 1.59 1.35 1.59 0.63 0 0.74-0.54 0.74-1.1v-2.32c0-0.45-0.11-0.45-0.78-0.45v-0.3c0.35 0.01 0.86 0.03 1.13 0.03 0.26 0 0.77-0.02 1.11-0.03v0.3c-0.51 0-0.76 0-0.77 0.3v1.9c0 0.85 0 1.16-0.31 1.52-0.14 0.17-0.47 0.37-1.05 0.37-0.73 0-1.2-0.43-1.48-1.05v1.05l-1.4-0.11v-0.31c0.69 0 0.78-0.07 0.78-0.56z"/><path d="m170.29 710.43 0.01 0.02 0.01 0.03 0.01 0.02 0.01 0.03 0.01 0.02 0.01 0.03 0.02 0.02 0.01 0.03 0.02 0.03 0.01 0.03 0.02 0.02 0.06 0.09 0.1 0.1 0.06 0.04 0.04 0.03 0.03 0.02 0.04 0.02 0.04 0.01 0.04 0.02 0.05 0.01 0.05 0.02 0.1 0.02h0.08l0.03 0.01h0.06v0.31c-0.23-0.02-0.52-0.03-0.75-0.03-0.24 0-0.7 0.02-0.86 0.03v-0.31c0.36-0.01 0.47-0.24 0.47-0.43 0-0.09-0.02-0.13-0.06-0.24l-1.01-2.53-1.12 2.77c-0.06 0.13-0.06 0.15-0.06 0.17 0 0.26 0.39 0.26 0.57 0.26v0.31c-0.3-0.01-0.86-0.03-1.09-0.03-0.27 0-0.67 0.01-0.97 0.03v-0.31c0.63 0 0.67-0.06 0.8-0.37l1.44-3.53c0.06-0.13 0.08-0.18 0.21-0.18s0.17 0.08 0.21 0.18z"/><path d="m172.23 709.42 0.01 0.21c0.06 1.48 0.9 1.73 1.24 1.73 1.02 0 1.12-1.34 1.12-1.73h-2.36l-0.01-0.21h2.78c0.22 0 0.25 0 0.25 0.21 0 0.98-0.54 1.95-1.78 1.95-1.16 0-2.08-1.03-2.08-2.27 0-1.33 1.05-2.29 2.2-2.29 1.21 0 1.66 1.1 1.66 1.29 0 0.1-0.08 0.12-0.13 0.12-0.09 0-0.11-0.06-0.13-0.14-0.35-1.03-1.24-1.03-1.34-1.03-0.5 0-0.9 0.3-1.13 0.67-0.3 0.48-0.3 1.13-0.3 1.49z"/><path d="m178.41 709.46 0.06 0.07 0.06 0.08 0.06 0.07 0.06 0.08 0.12 0.15 0.12 0.16 0.24 0.28 0.03 0.03 0.02 0.03 0.03 0.04 0.02 0.03 0.03 0.02 0.02 0.03 0.05 0.05c0.31 0.36 0.72 0.51 1.19 0.52v0.31c-0.26-0.02-0.56-0.03-0.82-0.03-0.3 0-0.83 0.02-0.96 0.03v-0.31c0.21-0.02 0.29-0.15 0.29-0.31s-0.1-0.29-0.15-0.35l-0.62-0.77-0.77 1c-0.09 0.1-0.09 0.12-0.09 0.18 0 0.15 0.15 0.24 0.34 0.25v0.31c-0.25-0.01-0.91-0.03-1.07-0.03-0.21 0-0.68 0.01-0.95 0.03v-0.31c0.7 0 0.71-0.01 1.18-0.61l0.98-1.28-0.93-1.18c-0.48-0.58-1.07-0.6-1.28-0.6v-0.3c0.26 0.02 0.57 0.03 0.83 0.03 0.29 0 0.71-0.02 0.95-0.03v0.3c-0.22 0.03-0.29 0.16-0.29 0.31 0 0.22 0.29 0.55 0.89 1.26l0.76-0.99c0.08-0.11 0.21-0.27 0.21-0.33 0-0.09-0.09-0.24-0.36-0.25v-0.3c0.3 0.01 0.86 0.03 1.08 0.03 0.27 0 0.66-0.01 0.96-0.03v0.3c-0.54 0-0.72 0.02-0.95 0.31z"/></g></g><g transform="matrix(1.2168 0 0 -1.2168 183.62 863.82)"><g transform="translate(7.2378 -59.353)"><g transform="matrix(1.2506,0,0,-1.2506,-72.165,1072.2)" fill-rule="evenodd" stroke="#000" stroke-miterlimit="10.433" ns0:preamble="default_packages.tex" ns0:text="$x$\n$y$\n" xml:space="preserve"><g transform="matrix(.79961 0 0 -.79961 58.988 860.59)"><g transform="matrix(1.2506,0,0,-1.2506,-72.165,1072.2)" fill-rule="evenodd" stroke="#000" stroke-miterlimit="10.433" ns0:preamble="default_packages.tex" ns0:text="$x$\n$y$\n" xml:space="preserve"><g transform="rotate(180 212.4 757.83)" fill-rule="evenodd" stroke="#000" stroke-miterlimit="10.433"><g transform="matrix(.79961 0 0 -.79961 -41.225 831.43)" stroke-width=".7"><g transform="matrix(1.2506,0,0,-1.2506,-72.165,1072.2)" fill-rule="evenodd" stroke="#000" stroke-miterlimit="10.433" stroke-width=".55973" ns0:preamble="default_packages.tex" ns0:text="$x$\n$y$\n" xml:space="preserve"><g transform="matrix(-.65715 0 0 -.65715 540.07 1459.9)" fill-rule="evenodd" stroke="#000" stroke-miterlimit="10.433" stroke-opacity="1" stroke-width="2.2826" ns0:preamble="default_packages.tex" ns0:text="$x_1 x_2 x f(x_1) f(x_2) f(x)$\n" xml:space="preserve"><g transform="translate(258.65 -3.4795)" fill-rule="evenodd" stroke="#000" stroke-miterlimit="10.433" stroke-opacity="1" stroke-width="2.2826" ns0:preamble="default_packages.tex" ns0:text="$x_1 x_2 x f(x_1) f(x_2) f(x)$\n" xml:space="preserve"><g transform="matrix(1.0026 0 0 1.0026 31.971 78.78)" fill-rule="evenodd" stroke="#000" stroke-miterlimit="10.433" stroke-opacity="1" stroke-width="3.4151" ns0:preamble="default_packages.tex" ns0:text="$l(x)$\n" xml:space="preserve"><g transform="matrix(1.3845 0 0 1.3845 261.45 -437.1)" stroke-width="2.4667"><g stroke-width="2.4667"><g transform="matrix(-1.5178 0 0 1.5178 84.544 -324.43)" fill-rule="evenodd" stroke="#000" stroke-miterlimit="10.433" stroke-width=".69309"><g transform="matrix(.58158 0 0 -.58072 8.6337 1042.9)" fill-rule="evenodd" stroke="#000" stroke-miterlimit="10.433" stroke-opacity="1" stroke-width="1.1926"><g transform="matrix(1.2506,0,0,-1.2506,-72.165,1072.2)" fill-rule="evenodd" stroke="#000" stroke-miterlimit="10.433" stroke-width=".95363" ns0:preamble="default_packages.tex" ns0:text="$x$\n$y$\n" xml:space="preserve"><g fill="none" stroke="#000" stroke-miterlimit="10.433" stroke-opacity=".62745" stroke-width=".95363"><path d="m171.51 757.67c2.3058 20.083 8.54 40.757 15.171 40.686 6.0222-0.0646 10.291-20.242 20.34-20.479 7.9798 0.32845 13.636 26.955 19.191 26.957 5.3686 2e-3 12.905-27.257 19.3-46.312" fill="none" stroke="#003c88" stroke-miterlimit="10.433" stroke-opacity=".58454" stroke-width=".95363"/></g></g></g></g></g></g></g></g></g></g></g><g transform="matrix(-.65714 0 0 -.65714 741.95 1102)" fill-rule="evenodd" stroke="#000" stroke-miterlimit="10.433" stroke-opacity="1" stroke-width="2.2826" ns0:preamble="default_packages.tex" ns0:text="$x_1 x_2 x f(x_1) f(x_2) f(x)$\n" xml:space="preserve"><g transform="matrix(1.0026 0 0 1.0026 37.987 78.78)" fill-rule="evenodd" stroke="#000" stroke-miterlimit="10.433" stroke-opacity="1" stroke-width="3.4151" ns0:preamble="default_packages.tex" ns0:text="$l(x)$\n" xml:space="preserve"><g transform="matrix(1.3845 0 0 1.3845 287.6 -440.77)" stroke-width="2.4667"><g stroke-width="2.4667"><g transform="matrix(-1.5178 0 0 1.5178 84.71 -324.6)" fill-rule="evenodd" stroke="#000" stroke-miterlimit="10.433" stroke-opacity="1"><g transform="matrix(.57577 0 0 -.57504 -172.32 802.3)" stroke-width="1.2045"><g transform="matrix(1.2506,0,0,-1.2506,-72.165,1072.2)" fill-rule="evenodd" stroke="#000" stroke-miterlimit="10.433" stroke-width=".96316" ns0:preamble="default_packages.tex" ns0:text="$x$\n$y$\n" xml:space="preserve"><g fill="none" stroke="#000" stroke-miterlimit="10.433" stroke-opacity=".62745" stroke-width=".96316"><path d="m171.51 757.67c7.6897 25.267 22 51.109 37.039 51.316 12.208-0.15688 28.413-24.989 36.962-50.464" fill="none" stroke="#003c88" stroke-miterlimit="10.433" stroke-opacity=".58454" stroke-width=".96316"/></g></g></g><g transform="matrix(.58057 0 0 .57986 -244 696.49)" stroke-width="1.1945"><g transform="matrix(1.2506,0,0,-1.2506,-72.165,1072.2)" fill-rule="evenodd" stroke="#000" stroke-miterlimit="10.433" stroke-width=".95517" ns0:preamble="default_packages.tex" ns0:text="$x$\n$y$\n" xml:space="preserve"><g fill="none" stroke="#000" stroke-miterlimit="10.433" stroke-opacity=".62745" stroke-width=".95517"><path d="m171.51 757.67c7.6897 25.267 22 51.109 37.039 51.316 12.208-0.15688 28.413-24.989 36.962-50.464" fill="none" stroke="#003c88" stroke-miterlimit="10.433" stroke-opacity=".58454" stroke-width=".95517"/></g></g></g></g></g></g></g></g></g></g></g></g></g></g></g></g></g></g></g><g transform="matrix(.65714 0 0 .65714 -163.7 81.594)" stroke-opacity="1" stroke-width="2.2826" ns0:preamble="default_packages.tex" ns0:text="$x_1 x_2 x f(x_1) f(x_2) f(x)$\n" xml:space="preserve"><g transform="matrix(1.0026 0 0 1.0026 37.987 78.78)" fill-rule="evenodd" stroke="#000" stroke-miterlimit="10.433" stroke-opacity="1" stroke-width="3.4151" ns0:preamble="default_packages.tex" ns0:text="$l(x)$\n" xml:space="preserve"><g transform="matrix(.71844 0 0 .71844 145.04 269.01)" fill-rule="evenodd" stroke="#000" stroke-miterlimit="10.433" stroke-opacity="1"><g transform="matrix(1.3845 0 0 1.3845 435.87 -196.36)" stroke-width="3.4334"><g transform="translate(11.481)" stroke="#000" stroke-miterlimit="10.433" stroke-opacity="1"><path d="m-148.42 764.63v111.81" fill="none" marker-end="url(#e)" stroke-width=".36605"/><path d="m-154.86 772.2h139.91" fill="none" marker-end="url(#c)" stroke-width=".36605"/><g transform="matrix(.68111 0 0 .68112 -216.69 335.79)" fill-rule="evenodd" stroke-width="3.3606" ns0:preamble="default_packages.tex" ns0:text="$x$\n$y$\n$\\langle y \\rangle$\n$\\langle x \\rangle$\n$\\text{Point of averages}$\n$\\text{Regression line}$\n$\\text{SD line}$\n$\\rho(x,y)\\sigma_y$\n$\\sigma_x$\n" xml:space="preserve"><g transform="matrix(1.5 0 0 1.5 69.402 -429.08)" fill-rule="evenodd" stroke="#000" stroke-miterlimit="10.433" stroke-opacity="1" stroke-width="0" ns0:preamble="default_packages.tex" ns0:text="$x f$\n" xml:space="preserve"><path d="m150.06 709.38 0.01 0.02 0.01 0.03v0.03l0.02 0.08 0.02 0.04 0.01 0.04 0.01 0.05 0.02 0.04 0.1 0.25 0.09 0.15 0.03 0.04 0.03 0.05 0.04 0.04 0.03 0.05 0.04 0.04 0.05 0.04 0.04 0.03 0.05 0.03 0.04 0.03 0.03 0.01 0.03 0.02 0.02 0.01 0.06 0.02h0.03l0.02 0.01 0.03 0.01h0.07l0.03 0.01h0.03c0.05 0 0.29 0 0.5-0.13-0.28-0.05-0.48-0.3-0.48-0.54 0-0.16 0.11-0.35 0.38-0.35 0.22 0 0.54 0.18 0.54 0.58 0 0.52-0.59 0.66-0.93 0.66-0.58 0-0.93-0.53-1.05-0.76-0.25 0.66-0.78 0.76-1.07 0.76-1.04 0-1.61-1.29-1.61-1.53 0-0.1 0.1-0.1 0.12-0.1 0.08 0 0.11 0.02 0.13 0.11 0.34 1.05 1 1.3 1.34 1.3 0.19 0 0.53-0.09 0.53-0.67 0-0.31-0.17-0.97-0.53-2.36-0.16-0.62-0.51-1.04-0.95-1.04-0.06 0-0.29 0-0.5 0.13 0.25 0.05 0.47 0.26 0.47 0.54 0 0.27-0.22 0.35-0.37 0.35-0.3 0-0.55-0.26-0.55-0.58 0-0.46 0.5-0.65 0.94-0.65 0.66 0 1.02 0.69 1.05 0.75 0.11-0.37 0.47-0.75 1.07-0.75 1.03 0 1.6 1.28 1.6 1.53 0 0.1-0.09 0.1-0.12 0.1-0.09 0-0.11-0.05-0.13-0.11-0.33-1.07-1.01-1.31-1.33-1.31-0.39 0-0.55 0.32-0.55 0.66 0 0.22 0.06 0.44 0.17 0.87z"/><path d="m17.293 815.97h0.85c0.2 0 0.3 0 0.3 0.2 0 0.11-0.1 0.11-0.27 0.11h-0.82l0.21 1.13c0.04 0.21 0.17 0.91 0.23 1.03 0.09 0.19 0.26 0.34 0.47 0.34 0.04 0 0.3 0 0.49-0.18-0.44-0.04-0.54-0.39-0.54-0.53 0-0.23 0.18-0.35 0.37-0.35 0.26 0 0.55 0.22 0.55 0.59 0 0.46-0.46 0.69-0.87 0.69-0.34 0-0.97-0.18-1.26-1.16-0.06-0.21-0.09-0.31-0.33-1.56h-0.69c-0.19 0-0.3 0-0.3-0.19 0-0.12 0.09-0.12 0.28-0.12h0.66l-0.75-3.93c-0.18-0.96-0.35-1.86-0.87-1.86-0.04 0-0.29 0-0.48 0.18 0.46 0.03 0.55 0.38 0.55 0.53 0 0.23-0.18 0.35-0.37 0.35-0.26 0-0.55-0.22-0.55-0.6 0-0.44 0.44-0.68 0.85-0.68 0.55 0 0.95 0.58 1.13 0.96 0.32 0.63 0.55 1.83 0.56 1.9z"/></g></g></g><g transform="matrix(1.2202 0 0 -1.2202 -305.84 1230.5)"><g transform="matrix(1.2506,0,0,-1.2506,-72.165,1072.2)" fill-rule="evenodd" stroke="#000" stroke-miterlimit="10.433" ns0:preamble="default_packages.tex" ns0:text="$x$\n$y$\n" xml:space="preserve"><g transform="matrix(.79961 0 0 -.79961 58.988 860.59)"><g transform="matrix(1.2506,0,0,-1.2506,-72.165,1072.2)" fill-rule="evenodd" stroke="#000" stroke-miterlimit="10.433" ns0:preamble="default_packages.tex" ns0:text="$x$\n$y$\n" xml:space="preserve"/></g></g></g></g><g transform="matrix(1.3232 0 0 1.3232 36.65 113)" stroke-width="0" ns0:preamble="default_packages.tex" ns0:text="$\\text{Concave}$\n" xml:space="preserve"><path d="m149.27 710.52v-0.19l0.02-0.19 0.02-0.18 0.03-0.18 0.04-0.18 0.05-0.18 0.06-0.16 0.06-0.17 0.07-0.16 0.08-0.16 0.18-0.3 0.1-0.14 0.1-0.13 0.11-0.13 0.12-0.13 0.12-0.12 0.13-0.11 0.13-0.1 0.14-0.1 0.28-0.18 0.15-0.08 0.16-0.07 0.15-0.06 0.16-0.06 0.16-0.04 0.17-0.04 0.34-0.06 0.17-0.01h0.17c1.63 0 2.6 1.38 2.6 2.53 0 0.1 0 0.17-0.13 0.17-0.11 0-0.11-0.06-0.12-0.16-0.08-1.42-1.14-2.24-2.23-2.24-0.61 0-2.56 0.34-2.56 3.3 0 2.97 1.94 3.31 2.55 3.31 1.09 0 1.97-0.9 2.17-2.35 0.02-0.14 0.02-0.17 0.16-0.17 0.16 0 0.16 0.03 0.16 0.24v2.35c0 0.17 0 0.24-0.11 0.24-0.04 0-0.08 0-0.16-0.12l-0.49-0.74c-0.37 0.36-0.88 0.86-1.84 0.86-1.86 0-3.47-1.58-3.47-3.61z"/><path d="m160.6 709.25v0.12l-0.01 0.12-0.01 0.11-0.02 0.12-0.09 0.33-0.04 0.1-0.05 0.1-0.04 0.1-0.06 0.1-0.06 0.09-0.06 0.1-0.06 0.08-0.07 0.09-0.08 0.08-0.07 0.08-0.08 0.07-0.09 0.07-0.08 0.06-0.09 0.07-0.09 0.05-0.2 0.1-0.2 0.08-0.1 0.03-0.11 0.03-0.11 0.02-0.33 0.03-0.01-0.22c0.44 0 0.87-0.22 1.13-0.65s0.26-1 0.26-1.38c0-0.36 0-0.89-0.22-1.33-0.22-0.45-0.66-0.74-1.16-0.74-0.43 0-0.87 0.21-1.14 0.67-0.25 0.44-0.25 1.04-0.25 1.4 0 0.39 0 0.92 0.24 1.36 0.27 0.46 0.74 0.67 1.14 0.67l0.01 0.22c-1.25 0-2.21-1.09-2.21-2.33 0-1.28 1.03-2.23 2.2-2.23 1.21 0 2.21 0.97 2.21 2.23z"/><path d="m161.99 710.54v-2.66c0-0.45-0.11-0.45-0.78-0.45v-0.3c0.35 0.01 0.86 0.03 1.12 0.03s0.78-0.02 1.12-0.03v0.3c-0.67 0-0.78 0-0.78 0.45v1.83c0 1.03 0.71 1.59 1.35 1.59 0.63 0 0.74-0.54 0.74-1.1v-2.32c0-0.45-0.11-0.45-0.78-0.45v-0.3c0.35 0.01 0.86 0.03 1.13 0.03 0.26 0 0.77-0.02 1.11-0.03v0.3c-0.51 0-0.76 0-0.77 0.3v1.9c0 0.85 0 1.16-0.31 1.52-0.14 0.17-0.47 0.37-1.05 0.37-0.73 0-1.2-0.43-1.48-1.05v1.05l-1.4-0.11v-0.31c0.69 0 0.78-0.07 0.78-0.56z"/><path d="m167.59 709.29v0.15l0.01 0.07v0.14l0.01 0.07 0.06 0.36 0.03 0.11 0.06 0.2 0.04 0.09 0.03 0.09 0.05 0.08 0.04 0.07 0.1 0.14 0.05 0.06 0.15 0.15 0.06 0.04 0.05 0.04 0.12 0.06 0.05 0.03 0.12 0.04 0.05 0.01 0.06 0.02 0.05 0.01h0.05l0.06 0.01h0.05c0.09 0 0.71-0.01 1.06-0.37-0.4-0.03-0.46-0.33-0.46-0.46 0-0.26 0.17-0.45 0.45-0.45 0.26 0 0.46 0.16 0.46 0.46 0 0.68-0.76 1.07-1.52 1.07-1.25 0-2.17-1.08-2.17-2.31 0-1.27 0.99-2.25 2.15-2.25 1.33 0 1.65 1.19 1.65 1.29s-0.1 0.1-0.13 0.1c-0.09 0-0.11-0.04-0.13-0.1-0.29-0.93-0.93-1.05-1.3-1.05-0.53 0-1.41 0.43-1.41 2.03z"/><path d="m174.17 707.88 0.01-0.04v-0.03l0.03-0.12 0.01-0.03 0.01-0.04 0.01-0.03 0.02-0.04 0.02-0.03 0.01-0.04 0.04-0.06 0.02-0.04 0.03-0.03 0.02-0.03 0.08-0.08 0.06-0.04 0.03-0.03 0.03-0.02 0.04-0.01 0.03-0.02 0.04-0.01 0.03-0.02 0.04-0.01h0.04l0.04-0.01h0.09c0.21 0 0.82 0.13 0.82 0.94v0.56h-0.25v-0.56c0-0.58-0.25-0.64-0.36-0.64-0.33 0-0.37 0.45-0.37 0.5v1.99c0 0.41 0 0.8-0.36 1.17-0.39 0.39-0.89 0.55-1.36 0.55-0.82 0-1.51-0.47-1.51-1.13 0-0.29 0.2-0.46 0.46-0.46 0.28 0 0.46 0.19 0.46 0.45 0 0.12-0.05 0.45-0.51 0.46 0.27 0.35 0.76 0.46 1.07 0.46 0.49 0 1.06-0.39 1.06-1.27v-1.57c0-0.95-0.72-1.29-1.17-1.29-0.48 0-0.89 0.35-0.89 0.85 0 0.55 0.42 1.37 2.06 1.43v0.21c-0.51-0.03-1.2-0.06-1.83-0.36-0.75-0.34-1-0.85-1-1.29 0-0.81 0.97-1.05 1.6-1.05 0.65 0 1.11 0.39 1.3 0.86z"/><path d="m179.7 710.43 0.01 0.02 0.01 0.03 0.01 0.02 0.01 0.03 0.01 0.02 0.01 0.03 0.02 0.02 0.01 0.03 0.02 0.03 0.01 0.03 0.02 0.02 0.06 0.09 0.1 0.1 0.06 0.04 0.04 0.03 0.03 0.02 0.04 0.02 0.04 0.01 0.04 0.02 0.05 0.01 0.04 0.02 0.05 0.01 0.06 0.01h0.08l0.03 0.01h0.06v0.31c-0.23-0.02-0.52-0.03-0.75-0.03-0.24 0-0.7 0.02-0.87 0.03v-0.31c0.37-0.01 0.48-0.24 0.48-0.43 0-0.09-0.02-0.13-0.06-0.24l-1.02-2.53-1.11 2.77c-0.06 0.13-0.06 0.15-0.06 0.17 0 0.26 0.39 0.26 0.57 0.26v0.31c-0.3-0.01-0.86-0.03-1.09-0.03-0.27 0-0.67 0.01-0.97 0.03v-0.31c0.63 0 0.67-0.06 0.8-0.37l1.44-3.53c0.06-0.13 0.08-0.18 0.21-0.18s0.16 0.08 0.21 0.18z"/><path d="m181.64 709.42 0.01 0.21c0.06 1.48 0.9 1.73 1.24 1.73 1.02 0 1.12-1.34 1.12-1.73h-2.36l-0.01-0.21h2.78c0.22 0 0.25 0 0.25 0.21 0 0.98-0.54 1.95-1.78 1.95-1.16 0-2.08-1.03-2.08-2.27 0-1.33 1.05-2.29 2.2-2.29 1.21 0 1.66 1.1 1.66 1.29 0 0.1-0.08 0.12-0.13 0.12-0.09 0-0.11-0.06-0.13-0.14-0.35-1.03-1.25-1.03-1.34-1.03-0.5 0-0.9 0.3-1.13 0.67-0.3 0.48-0.3 1.13-0.3 1.49z"/></g></g></g></g></g></g></g></g></g></g></g></g></g></g></g></g></g></g></g></g></g></g></g></g>
  </g>
 </g>
</svg>