<svg width="260mm" height="110mm" version="1.1" viewBox="0 0 424.1 180.28" xmlns="http://www.w3.org/2000/svg" xmlns:ns0="http://www.iki.fi/pav/software/textext/">
 <defs>
  <marker id="g" overflow="visible" orient="auto">
   <path transform="matrix(-.4 0 0 -.4 -4 0)" d="m0 0 5-5-17.5 5 17.5 5z" fill-rule="evenodd" stroke="#000" stroke-width="1pt"/>
  </marker>
  <marker id="c" overflow="visible" orient="auto">
   <path transform="matrix(-.4 0 0 -.4 -4 0)" d="m0 0 5-5-17.5 5 17.5 5z" fill-rule="evenodd" stroke="#000" stroke-width="1pt"/>
  </marker>
  <marker id="h" overflow="visible" orient="auto">
   <path transform="matrix(-.4 0 0 -.4 -4 0)" d="m0 0 5-5-17.5 5 17.5 5z" fill-rule="evenodd" stroke="#000" stroke-width="1pt"/>
  </marker>
  <marker id="d" overflow="visible" orient="auto">
   <path transform="matrix(-.4 0 0 -.4 -4 0)" d="m0 0 5-5-17.5 5 17.5 5z" fill-rule="evenodd" stroke="#000" stroke-width="1pt"/>
  </marker>
  <marker id="a" overflow="visible" orient="auto">
   <path transform="scale(.2) translate(7.4 1)" d="m-2.5-1c0 2.76-2.24 5-5 5s-5-2.24-5-5 2.24-5 5-5 5 2.24 5 5z" fill="#f00" fill-opacity=".31373" fill-rule="evenodd" stroke="#f00" stroke-opacity=".31373" stroke-width="1pt"/>
  </marker>
  <marker id="b" overflow="visible" orient="auto">
   <path transform="matrix(.2 0 0 .2 1.48 .2)" d="m-2.5-1c0 2.76-2.24 5-5 5s-5-2.24-5-5 2.24-5 5-5 5 2.24 5 5z" fill="#f00" fill-opacity=".31373" fill-rule="evenodd" stroke="#f00" stroke-opacity=".31373" stroke-width="1pt"/>
  </marker>
  <marker id="i" overflow="visible" orient="auto">
   <path transform="matrix(-.4 0 0 -.4 -4 0)" d="m0 0 5-5-17.5 5 17.5 5z" fill-rule="evenodd" stroke="#000" stroke-width="1pt"/>
  </marker>
  <marker id="e" overflow="visible" orient="auto">
   <path transform="matrix(-.4 0 0 -.4 -4 0)" d="m0 0 5-5-17.5 5 17.5 5z" fill-rule="evenodd" stroke="#000" stroke-width="1pt"/>
  </marker>
  <marker id="f" overflow="visible" orient="auto">
   <path transform="matrix(-.4 0 0 -.4 -4 0)" d="m0 0 5-5-17.5 5 17.5 5z" fill-rule="evenodd" stroke="#000" stroke-width="1pt"/>
  </marker>
 </defs>
 <g transform="translate(6.1615 33.654)">
  <g transform="translate(7.2378 -59.353)">
   <g transform="matrix(1.2506,0,0,-1.2506,-72.165,1072.2)" fill-rule="evenodd" stroke="#000" stroke-miterlimit="10.433" ns0:preamble="default_packages.tex" ns0:text="$x$\n$y$\n" xml:space="preserve"><g transform="matrix(.79961 0 0 -.79961 58.988 860.59)"><g transform="matrix(1.2506,0,0,-1.2506,-72.165,1072.2)" fill-rule="evenodd" stroke="#000" stroke-miterlimit="10.433" ns0:preamble="default_packages.tex" ns0:text="$x$\n$y$\n" xml:space="preserve"><g transform="rotate(180 212.4 757.83)" fill-rule="evenodd" stroke="#000" stroke-miterlimit="10.433" stroke-opacity=".62745"><g transform="matrix(.79961 0 0 -.79961 -41.225 831.43)" stroke="#000" stroke-opacity=".62745" stroke-width=".7"><g transform="matrix(1.2506,0,0,-1.2506,-72.165,1072.2)" fill-rule="evenodd" stroke="#000" stroke-miterlimit="10.433" stroke-opacity=".62745" stroke-width=".55973" ns0:preamble="default_packages.tex" ns0:text="$x$\n$y$\n" xml:space="preserve"><g transform="matrix(-.65715 0 0 -.65715 540.07 1459.9)" fill-rule="evenodd" stroke="#000" stroke-miterlimit="10.433" stroke-opacity=".62745" stroke-width="2.2826" ns0:preamble="default_packages.tex" ns0:text="$x_1 x_2 x f(x_1) f(x_2) f(x)$\n" xml:space="preserve"><g stroke="#000" stroke-opacity=".62745"><g transform="matrix(1.2168 0 0 -1.2168 183.62 863.82)"><g transform="translate(7.2378 -59.353)"><g transform="matrix(1.2506,0,0,-1.2506,-72.165,1072.2)" fill-rule="evenodd" stroke="#000" stroke-miterlimit="10.433" ns0:preamble="default_packages.tex" ns0:text="$x$\n$y$\n" xml:space="preserve"><g transform="matrix(.79961 0 0 -.79961 58.988 860.59)"><g transform="matrix(1.2506,0,0,-1.2506,-72.165,1072.2)" fill-rule="evenodd" stroke="#000" stroke-miterlimit="10.433" ns0:preamble="default_packages.tex" ns0:text="$x$\n$y$\n" xml:space="preserve"><g transform="rotate(180 212.4 757.83)" fill-rule="evenodd" stroke="#000" stroke-miterlimit="10.433"><g transform="matrix(.79961 0 0 -.79961 -41.225 831.43)" stroke-width=".7"><g transform="matrix(-1 0 0 -1 578.27 350.25)"><g transform="translate(7.2378 -59.353)"><g transform="matrix(1.2506,0,0,-1.2506,-72.165,1072.2)" fill-rule="evenodd" stroke="#000" stroke-miterlimit="10.433" ns0:preamble="default_packages.tex" ns0:text="$x$\n$y$\n" xml:space="preserve"><g transform="matrix(.79961 0 0 -.79961 58.988 860.59)"><g transform="matrix(1.2506,0,0,-1.2506,-72.165,1072.2)" fill-rule="evenodd" stroke="#000" stroke-miterlimit="10.433" ns0:preamble="default_packages.tex" ns0:text="$x$\n$y$\n" xml:space="preserve"><g transform="rotate(180 212.4 757.83)" fill-rule="evenodd" stroke="#000" stroke-miterlimit="10.433" stroke-opacity=".62745"><g transform="matrix(.79961 0 0 -.79961 -41.225 831.43)" stroke="#000" stroke-opacity=".62745" stroke-width=".7"><g transform="matrix(1.2506,0,0,-1.2506,-72.165,1072.2)" fill-rule="evenodd" stroke="#000" stroke-miterlimit="10.433" stroke-opacity=".62745" stroke-width=".55973" ns0:preamble="default_packages.tex" ns0:text="$x$\n$y$\n" xml:space="preserve"><g transform="matrix(-.65715 0 0 -.65715 540.07 1459.9)" fill-rule="evenodd" stroke="#000" stroke-miterlimit="10.433" stroke-opacity=".62745" stroke-width="2.2826" ns0:preamble="default_packages.tex" ns0:text="$x_1 x_2 x f(x_1) f(x_2) f(x)$\n" xml:space="preserve"><g stroke="#000" stroke-opacity=".62745"><g fill-rule="evenodd" stroke="#000" stroke-miterlimit="10.433"><path d="m434.49 969.51v114.13" fill-opacity=".62745" marker-end="url(#h)" stroke-opacity=".62745" stroke-width=".36504"/><path d="m427.92 977.24h142.81" fill-opacity=".62745" marker-end="url(#d)" stroke-opacity=".62745" stroke-width=".36504"/><g transform="matrix(.6952 0 0 .6952 364.81 531.8)" fill-opacity=".78431" stroke-opacity=".78431" stroke-width="3.2834" ns0:preamble="default_packages.tex" ns0:text="$x$\n$y$\n$\\langle y \\rangle$\n$\\langle x \\rangle$\n$\\text{Point of averages}$\n$\\text{Regression line}$\n$\\text{SD line}$\n$\\rho(x,y)\\sigma_y$\n$\\sigma_x$\n" xml:space="preserve"><g transform="matrix(1.5 0 0 1.5 69.402 -429.08)" fill-opacity=".62745" fill-rule="evenodd" stroke="#000" stroke-miterlimit="10.433" stroke-opacity=".78431" stroke-width="0" ns0:preamble="default_packages.tex" ns0:text="$x f$\n" xml:space="preserve"><path d="m150.06 709.38 0.01 0.02 0.01 0.03v0.03l0.02 0.08 0.02 0.04 0.01 0.04 0.01 0.05 0.02 0.04 0.1 0.25 0.09 0.15 0.03 0.04 0.03 0.05 0.04 0.04 0.03 0.05 0.04 0.04 0.05 0.04 0.04 0.03 0.05 0.03 0.04 0.03 0.03 0.01 0.03 0.02 0.02 0.01 0.06 0.02h0.03l0.02 0.01 0.03 0.01h0.07l0.03 0.01h0.03c0.05 0 0.29 0 0.5-0.13-0.28-0.05-0.48-0.3-0.48-0.54 0-0.16 0.11-0.35 0.38-0.35 0.22 0 0.54 0.18 0.54 0.58 0 0.52-0.59 0.66-0.93 0.66-0.58 0-0.93-0.53-1.05-0.76-0.25 0.66-0.78 0.76-1.07 0.76-1.04 0-1.61-1.29-1.61-1.53 0-0.1 0.1-0.1 0.12-0.1 0.08 0 0.11 0.02 0.13 0.11 0.34 1.05 1 1.3 1.34 1.3 0.19 0 0.53-0.09 0.53-0.67 0-0.31-0.17-0.97-0.53-2.36-0.16-0.62-0.51-1.04-0.95-1.04-0.06 0-0.29 0-0.5 0.13 0.25 0.05 0.47 0.26 0.47 0.54 0 0.27-0.22 0.35-0.37 0.35-0.3 0-0.55-0.26-0.55-0.58 0-0.46 0.5-0.65 0.94-0.65 0.66 0 1.02 0.69 1.05 0.75 0.11-0.37 0.47-0.75 1.07-0.75 1.03 0 1.6 1.28 1.6 1.53 0 0.1-0.09 0.1-0.12 0.1-0.09 0-0.11-0.05-0.13-0.11-0.33-1.07-1.01-1.31-1.33-1.31-0.39 0-0.55 0.32-0.55 0.66 0 0.22 0.06 0.44 0.17 0.87z"/><path d="m17.293 815.97h0.85c0.2 0 0.3 0 0.3 0.2 0 0.11-0.1 0.11-0.27 0.11h-0.82l0.21 1.13c0.04 0.21 0.17 0.91 0.23 1.03 0.09 0.19 0.26 0.34 0.47 0.34 0.04 0 0.3 0 0.49-0.18-0.44-0.04-0.54-0.39-0.54-0.53 0-0.23 0.18-0.35 0.37-0.35 0.26 0 0.55 0.22 0.55 0.59 0 0.46-0.46 0.69-0.87 0.69-0.34 0-0.97-0.18-1.26-1.16-0.06-0.21-0.09-0.31-0.33-1.56h-0.69c-0.19 0-0.3 0-0.3-0.19 0-0.12 0.09-0.12 0.28-0.12h0.66l-0.75-3.93c-0.18-0.96-0.35-1.86-0.87-1.86-0.04 0-0.29 0-0.48 0.18 0.46 0.03 0.55 0.38 0.55 0.53 0 0.23-0.18 0.35-0.37 0.35-0.26 0-0.55-0.22-0.55-0.6 0-0.44 0.44-0.68 0.85-0.68 0.55 0 0.95 0.58 1.13 0.96 0.32 0.63 0.55 1.83 0.56 1.9z"/></g></g><g transform="matrix(.9337 0 0 .9337 199.58 454.77)" fill-opacity=".39216" stroke-opacity=".31373" stroke-width="0" ns0:preamble="default_packages.tex" ns0:text="$$\\text{Neither concave nor convex}$$\n" xml:space="preserve"><path d="m248.13 701.83v0.01l-0.05 0.05v0.01h-0.01v0.01h-0.01l-0.02 0.02h-0.01v0.01h-0.03v0.01h-0.14l-0.01 0.01h-1.7v-0.31h0.29c0.15 0 0.35-0.01 0.5-0.02 0.23-0.03 0.24-0.04 0.24-0.23v-5.19c0-0.26 0-0.73-1.03-0.73v-0.31c0.35 0.01 0.84 0.03 1.17 0.03s0.81-0.02 1.16-0.03v0.31c-1.02 0-1.02 0.47-1.02 0.73v5.17c0.05-0.05 0.05-0.06 0.09-0.12l4.07-5.96c0.09-0.12 0.1-0.13 0.17-0.13 0.14 0 0.14 0.07 0.14 0.26v5.48c0 0.27 0 0.74 1.03 0.74v0.31c-0.35-0.01-0.84-0.04-1.17-0.04s-0.81 0.03-1.16 0.04v-0.31c1.02 0 1.02-0.47 1.02-0.74v-4.24z"/><path d="m254.4 697.47 0.01 0.2c0.06 1.48 0.9 1.73 1.24 1.73 1.02 0 1.12-1.34 1.12-1.73h-2.36l-0.01-0.2h2.78c0.22 0 0.25 0 0.25 0.2 0 0.99-0.54 1.95-1.78 1.95-1.16 0-2.08-1.02-2.08-2.27 0-1.33 1.05-2.29 2.19-2.29 1.22 0 1.67 1.1 1.67 1.29 0 0.1-0.08 0.12-0.13 0.12-0.09 0-0.11-0.06-0.13-0.14-0.35-1.02-1.24-1.02-1.35-1.02-0.49 0-0.89 0.3-1.12 0.66-0.3 0.48-0.3 1.14-0.3 1.5z"/><path d="m259.48 699.56-1.39-0.11v-0.31c0.65 0 0.74-0.06 0.74-0.54v-2.68c0-0.44-0.11-0.44-0.78-0.44v-0.31c0.32 0.01 0.86 0.03 1.09 0.03 0.35 0 0.7-0.02 1.04-0.03v0.31c-0.66 0-0.7 0.05-0.7 0.43z"/><path d="m259.52 701.29v0.09l-0.01 0.02v0.03l-0.01 0.03-0.01 0.02-0.01 0.03-0.02 0.04-0.02 0.02-0.01 0.03-0.01 0.02-0.02 0.02-0.02 0.01-0.02 0.02-0.01 0.02-0.02 0.01-0.02 0.02-0.02 0.01-0.03 0.02-0.06 0.03-0.03 0.01h-0.02l-0.03 0.01-0.02 0.01h-0.05l-0.03 0.01h-0.02c-0.31 0-0.53-0.27-0.53-0.53 0-0.27 0.22-0.53 0.53-0.53 0.27 0 0.52 0.21 0.52 0.53z"/><path d="m262.21 699.14h1.43v0.31h-1.43v1.83h-0.25c-0.01-0.81-0.31-1.88-1.28-1.92v-0.22h0.84v-2.74c0-1.22 0.93-1.34 1.29-1.34 0.71 0 0.99 0.71 0.99 1.34v0.57h-0.25v-0.55c0-0.73-0.3-1.11-0.67-1.11-0.67 0-0.67 0.9-0.67 1.07z"/><path d="m265.46 695.92v-0.07l-0.01-0.04v-0.06l-0.01-0.03v-0.03l-0.01-0.02-0.01-0.03-0.02-0.04-0.04-0.04-0.02-0.01-0.02-0.02-0.02-0.01h-0.03l-0.02-0.01-0.03-0.01h-0.03l-0.03-0.01h-0.08l-0.02-0.01h-0.38v-0.31c0.35 0.01 0.86 0.03 1.13 0.03 0.26 0 0.77-0.02 1.11-0.03v0.31c-0.66 0-0.77 0-0.77 0.44v1.83c0 1.04 0.7 1.59 1.34 1.59 0.63 0 0.74-0.53 0.74-1.1v-2.32c0-0.44-0.11-0.44-0.78-0.44v-0.31c0.35 0.01 0.86 0.03 1.13 0.03 0.26 0 0.78-0.02 1.12-0.03v0.31c-0.52 0-0.77 0-0.78 0.3v1.89c0 0.86 0 1.17-0.31 1.52-0.14 0.17-0.47 0.37-1.05 0.37-0.83 0-1.27-0.59-1.44-0.97v3.47l-1.44-0.1v-0.31c0.7 0 0.78-0.07 0.78-0.56z"/><path d="m271 697.47 0.01 0.2c0.06 1.48 0.9 1.73 1.24 1.73 1.03 0 1.13-1.34 1.13-1.73h-2.37l-0.01-0.2h2.79c0.22 0 0.25 0 0.25 0.2 0 0.99-0.54 1.95-1.79 1.95-1.16 0-2.07-1.02-2.07-2.27 0-1.33 1.04-2.29 2.19-2.29 1.22 0 1.67 1.1 1.67 1.29 0 0.1-0.09 0.12-0.14 0.12-0.08 0-0.1-0.06-0.12-0.14-0.35-1.02-1.25-1.02-1.35-1.02-0.5 0-0.9 0.3-1.13 0.66-0.3 0.48-0.3 1.14-0.3 1.5z"/><path d="m275.99 698.47v1.09l-1.39-0.11v-0.31c0.7 0 0.78-0.07 0.78-0.55v-2.67c0-0.44-0.11-0.44-0.78-0.44v-0.31c0.39 0.01 0.86 0.03 1.14 0.03 0.4 0 0.87 0 1.27-0.03v0.31h-0.21c-0.74 0-0.76 0.11-0.76 0.47v1.52c0 0.99 0.42 1.87 1.18 1.87 0.07 0 0.09 0 0.11-0.01-0.03-0.01-0.23-0.13-0.23-0.38 0-0.28 0.21-0.43 0.42-0.43 0.18 0 0.43 0.12 0.43 0.44 0 0.31-0.31 0.6-0.73 0.6-0.73 0-1.09-0.66-1.23-1.09z"/><path d="m282.71 697.34v0.14l0.01 0.08v0.07l0.01 0.06v0.07l0.01 0.07 0.05 0.3 0.03 0.1 0.03 0.11 0.03 0.09 0.04 0.1 0.12 0.24 0.05 0.07 0.15 0.18 0.05 0.05 0.05 0.04 0.06 0.04 0.05 0.04 0.06 0.04 0.06 0.03 0.05 0.02 0.12 0.04 0.05 0.02 0.06 0.01 0.1 0.02h0.11c0.09 0 0.71-0.01 1.06-0.37-0.41-0.03-0.47-0.32-0.47-0.45 0-0.26 0.18-0.46 0.46-0.46 0.26 0 0.46 0.17 0.46 0.47 0 0.67-0.75 1.06-1.52 1.06-1.25 0-2.17-1.07-2.17-2.3 0-1.28 0.99-2.26 2.15-2.26 1.33 0 1.65 1.19 1.65 1.29s-0.1 0.1-0.13 0.1c-0.09 0-0.11-0.04-0.13-0.1-0.29-0.92-0.93-1.04-1.3-1.04-0.53 0-1.41 0.43-1.41 2.03z"/><path d="m290.67 697.3v0.11l-0.01 0.12-0.02 0.12-0.04 0.22-0.03 0.11-0.08 0.22-0.04 0.1-0.1 0.2-0.12 0.18-0.07 0.09-0.14 0.16-0.16 0.16-0.08 0.06-0.09 0.07-0.18 0.12-0.09 0.05-0.1 0.05-0.1 0.04-0.1 0.03-0.11 0.04-0.1 0.02-0.22 0.04-0.11 0.01h-0.12l-0.01-0.22c0.44 0 0.87-0.22 1.13-0.64 0.26-0.43 0.26-1.01 0.26-1.38 0-0.36 0-0.9-0.22-1.34s-0.66-0.73-1.16-0.73c-0.42 0-0.86 0.21-1.13 0.66-0.25 0.44-0.25 1.05-0.25 1.41 0 0.38 0 0.92 0.24 1.36 0.27 0.45 0.73 0.66 1.13 0.66l0.01 0.22c-1.24 0-2.21-1.08-2.21-2.32 0-1.29 1.04-2.24 2.2-2.24 1.21 0 2.22 0.97 2.22 2.24z"/><path d="m292.05 698.59v-2.67c0-0.44-0.11-0.44-0.78-0.44v-0.31c0.35 0.01 0.86 0.03 1.13 0.03 0.26 0 0.78-0.02 1.12-0.03v0.31c-0.67 0-0.78 0-0.78 0.44v1.83c0 1.04 0.71 1.59 1.34 1.59s0.74-0.53 0.74-1.1v-2.32c0-0.44-0.11-0.44-0.78-0.44v-0.31c0.35 0.01 0.86 0.03 1.13 0.03 0.26 0 0.78-0.02 1.12-0.03v0.31c-0.52 0-0.77 0-0.78 0.3v1.89c0 0.86 0 1.17-0.31 1.52-0.14 0.17-0.47 0.37-1.05 0.37-0.72 0-1.19-0.43-1.47-1.04v1.04l-1.41-0.11v-0.31c0.7 0 0.78-0.07 0.78-0.55z"/><path d="m297.65 697.34v0.07l0.01 0.07v0.15l0.01 0.06v0.07l0.01 0.07 0.05 0.3 0.03 0.1 0.03 0.11 0.03 0.09 0.04 0.1 0.12 0.24 0.05 0.07 0.15 0.18 0.05 0.05 0.06 0.04 0.05 0.04 0.06 0.04 0.05 0.04 0.06 0.03 0.06 0.02 0.05 0.02 0.12 0.04 0.05 0.01 0.06 0.01 0.05 0.01h0.1c0.09 0 0.72-0.01 1.07-0.37-0.41-0.03-0.47-0.32-0.47-0.45 0-0.26 0.18-0.46 0.46-0.46 0.26 0 0.46 0.17 0.46 0.47 0 0.67-0.76 1.06-1.53 1.06-1.25 0-2.16-1.07-2.16-2.3 0-1.28 0.98-2.26 2.14-2.26 1.34 0 1.66 1.19 1.66 1.29s-0.1 0.1-0.13 0.1c-0.09 0-0.11-0.04-0.13-0.1-0.29-0.92-0.94-1.04-1.31-1.04-0.53 0-1.41 0.43-1.41 2.03z"/><path d="m304.24 695.92v-0.03l0.01-0.04v-0.04l0.01-0.03 0.02-0.08 0.01-0.03 0.02-0.04 0.01-0.04 0.04-0.06 0.02-0.04 0.08-0.12 0.11-0.11 0.06-0.04 0.04-0.02 0.03-0.02 0.04-0.01 0.03-0.02 0.16-0.04h0.08c0.21 0 0.82 0.14 0.82 0.94v0.56h-0.25v-0.56c0-0.57-0.25-0.63-0.36-0.63-0.33 0-0.37 0.44-0.37 0.49v1.99c0 0.42 0 0.81-0.36 1.17-0.38 0.39-0.88 0.55-1.36 0.55-0.82 0-1.51-0.47-1.51-1.12 0-0.3 0.2-0.47 0.46-0.47 0.28 0 0.46 0.2 0.46 0.46 0 0.12-0.05 0.44-0.51 0.46 0.27 0.34 0.76 0.45 1.08 0.45 0.49 0 1.06-0.39 1.06-1.27v-1.57c0-0.94-0.72-1.28-1.17-1.28-0.49 0-0.9 0.35-0.9 0.84 0 0.55 0.42 1.37 2.07 1.43v0.21c-0.51-0.03-1.21-0.06-1.84-0.35-0.75-0.34-1-0.86-1-1.3 0-0.8 0.97-1.05 1.6-1.05 0.66 0 1.12 0.4 1.31 0.86z"/><path d="m309.78 698.48v0.02l0.01 0.02 0.01 0.03 0.01 0.02 0.02 0.03 0.01 0.02 0.02 0.06 0.02 0.02 0.02 0.03 0.01 0.03 0.02 0.03 0.02 0.02 0.02 0.03 0.08 0.08 0.03 0.02 0.03 0.03 0.06 0.04 0.04 0.02 0.03 0.02 0.04 0.02 0.05 0.01 0.04 0.02 0.15 0.03h0.03l0.03 0.01h0.11v0.31c-0.23-0.02-0.52-0.03-0.74-0.03-0.24 0-0.7 0.02-0.87 0.03v-0.31c0.37-0.01 0.48-0.23 0.48-0.42 0-0.09-0.02-0.13-0.06-0.24l-1.02-2.53-1.12 2.77c-0.06 0.13-0.06 0.14-0.06 0.17 0 0.25 0.39 0.25 0.57 0.25v0.31c-0.3-0.01-0.86-0.03-1.09-0.03-0.26 0-0.66 0.01-0.96 0.03v-0.31c0.63 0 0.66-0.06 0.79-0.36l1.44-3.53c0.06-0.14 0.08-0.19 0.21-0.19s0.17 0.09 0.21 0.19z"/><path d="m311.71 697.47 0.01 0.2c0.06 1.48 0.9 1.73 1.24 1.73 1.03 0 1.13-1.34 1.13-1.73h-2.37l-0.01-0.2h2.79c0.21 0 0.24 0 0.24 0.2 0 0.99-0.53 1.95-1.78 1.95-1.16 0-2.07-1.02-2.07-2.27 0-1.33 1.04-2.29 2.19-2.29 1.22 0 1.66 1.1 1.66 1.29 0 0.1-0.07 0.12-0.13 0.12-0.08 0-0.1-0.06-0.12-0.14-0.35-1.02-1.25-1.02-1.35-1.02-0.5 0-0.9 0.3-1.13 0.66-0.3 0.48-0.3 1.14-0.3 1.5z"/><path d="m319.45 698.59v-2.67c0-0.44-0.11-0.44-0.78-0.44v-0.31c0.35 0.01 0.86 0.03 1.13 0.03 0.26 0 0.78-0.02 1.11-0.03v0.31c-0.66 0-0.77 0-0.77 0.44v1.83c0 1.04 0.71 1.59 1.34 1.59s0.74-0.53 0.74-1.1v-2.32c0-0.44-0.11-0.44-0.78-0.44v-0.31c0.35 0.01 0.86 0.03 1.13 0.03 0.26 0 0.78-0.02 1.12-0.03v0.31c-0.52 0-0.77 0-0.78 0.3v1.89c0 0.86 0 1.17-0.31 1.52-0.14 0.17-0.47 0.37-1.05 0.37-0.72 0-1.19-0.43-1.47-1.04v1.04l-1.41-0.11v-0.31c0.7 0 0.78-0.07 0.78-0.55z"/><path d="m328.58 697.3v0.11l-0.02 0.24-0.02 0.11-0.09 0.33-0.04 0.11-0.05 0.1-0.04 0.1-0.06 0.1-0.18 0.27-0.07 0.08-0.08 0.08-0.07 0.08-0.08 0.08-0.09 0.06-0.08 0.07-0.18 0.12-0.2 0.1-0.1 0.04-0.1 0.03-0.1 0.04-0.33 0.06-0.11 0.01h-0.11l-0.01-0.22c0.44 0 0.87-0.22 1.13-0.64 0.26-0.43 0.26-1.01 0.26-1.38 0-0.36 0-0.9-0.22-1.34s-0.66-0.73-1.16-0.73c-0.43 0-0.87 0.21-1.14 0.66-0.25 0.44-0.25 1.05-0.25 1.41 0 0.38 0 0.92 0.24 1.36 0.27 0.45 0.74 0.66 1.14 0.66l0.01 0.22c-1.25 0-2.21-1.08-2.21-2.32 0-1.29 1.03-2.24 2.2-2.24 1.21 0 2.21 0.97 2.21 2.24z"/><path d="m330.53 698.47v1.09l-1.38-0.11v-0.31c0.7 0 0.77-0.07 0.77-0.55v-2.67c0-0.44-0.1-0.44-0.77-0.44v-0.31c0.39 0.01 0.86 0.03 1.13 0.03 0.4 0 0.87 0 1.27-0.03v0.31h-0.21c-0.74 0-0.76 0.11-0.76 0.47v1.52c0 0.99 0.42 1.87 1.18 1.87 0.07 0 0.09 0 0.11-0.01-0.03-0.01-0.23-0.13-0.23-0.38 0-0.28 0.21-0.43 0.43-0.43 0.18 0 0.43 0.12 0.43 0.44 0 0.31-0.31 0.6-0.74 0.6-0.73 0-1.09-0.66-1.23-1.09z"/><path d="m337.26 697.34v0.29l0.01 0.06 0.01 0.07v0.07l0.05 0.3 0.03 0.1 0.03 0.11 0.03 0.09 0.04 0.1 0.08 0.16 0.05 0.08 0.04 0.07 0.15 0.18 0.05 0.05 0.06 0.04 0.05 0.04 0.06 0.04 0.05 0.04 0.06 0.03 0.06 0.02 0.05 0.02 0.12 0.04 0.05 0.01 0.06 0.01 0.05 0.01h0.1c0.09 0 0.72-0.01 1.07-0.37-0.41-0.03-0.47-0.32-0.47-0.45 0-0.26 0.18-0.46 0.46-0.46 0.26 0 0.46 0.17 0.46 0.47 0 0.67-0.76 1.06-1.53 1.06-1.25 0-2.16-1.07-2.16-2.3 0-1.28 0.98-2.26 2.14-2.26 1.34 0 1.66 1.19 1.66 1.29s-0.1 0.1-0.13 0.1c-0.09 0-0.11-0.04-0.13-0.1-0.29-0.92-0.94-1.04-1.31-1.04-0.53 0-1.4 0.43-1.4 2.03z"/><path d="m345.22 697.3v0.11l-0.02 0.24-0.02 0.11-0.09 0.33-0.04 0.11-0.15 0.3-0.18 0.27-0.07 0.08-0.08 0.08-0.07 0.08-0.08 0.08-0.09 0.06-0.08 0.07-0.09 0.06-0.1 0.06-0.09 0.05-0.1 0.05-0.1 0.04-0.1 0.03-0.1 0.04-0.33 0.06-0.11 0.01h-0.11l-0.01-0.22c0.44 0 0.87-0.22 1.13-0.64 0.25-0.43 0.25-1.01 0.25-1.38 0-0.36 0-0.9-0.22-1.34-0.21-0.44-0.65-0.73-1.15-0.73-0.43 0-0.87 0.21-1.14 0.66-0.25 0.44-0.25 1.05-0.25 1.41 0 0.38 0 0.92 0.24 1.36 0.27 0.45 0.74 0.66 1.14 0.66l0.01 0.22c-1.25 0-2.22-1.08-2.22-2.32 0-1.29 1.04-2.24 2.21-2.24 1.2 0 2.21 0.97 2.21 2.24z"/><path d="m346.6 698.59v-2.67c0-0.44-0.11-0.44-0.77-0.44v-0.31c0.34 0.01 0.85 0.03 1.12 0.03 0.26 0 0.78-0.02 1.12-0.03v0.31c-0.67 0-0.78 0-0.78 0.44v1.83c0 1.04 0.71 1.59 1.35 1.59 0.63 0 0.74-0.53 0.74-1.1v-2.32c0-0.44-0.11-0.44-0.78-0.44v-0.31c0.35 0.01 0.86 0.03 1.13 0.03 0.25 0 0.77-0.02 1.11-0.03v0.31c-0.52 0-0.77 0-0.78 0.3v1.89c0 0.86 0 1.17-0.3 1.52-0.15 0.17-0.47 0.37-1.05 0.37-0.73 0-1.2-0.43-1.48-1.04v1.04l-1.4-0.11v-0.31c0.69 0 0.77-0.07 0.77-0.55z"/><path d="m354.91 698.48 0.02 0.04 0.01 0.03 0.01 0.02 0.01 0.03 0.01 0.02 0.02 0.03 0.01 0.03 0.01 0.02 0.06 0.09 0.02 0.02 0.04 0.06 0.03 0.02 0.02 0.03 0.03 0.02 0.03 0.03 0.03 0.02 0.04 0.02 0.03 0.02 0.08 0.04 0.04 0.01 0.05 0.02 0.04 0.01 0.05 0.01 0.06 0.01h0.02l0.03 0.01h0.12v0.31c-0.23-0.02-0.52-0.03-0.75-0.03-0.24 0-0.7 0.02-0.87 0.03v-0.31c0.37-0.01 0.48-0.23 0.48-0.42 0-0.09-0.02-0.13-0.06-0.24l-1.02-2.53-1.11 2.77c-0.06 0.13-0.06 0.14-0.06 0.17 0 0.25 0.39 0.25 0.57 0.25v0.31c-0.3-0.01-0.86-0.03-1.09-0.03-0.27 0-0.67 0.01-0.97 0.03v-0.31c0.63 0 0.67-0.06 0.8-0.36l1.44-3.53c0.06-0.14 0.08-0.19 0.2-0.19 0.13 0 0.18 0.09 0.22 0.19z"/><path d="m356.85 697.47 0.01 0.2c0.06 1.48 0.9 1.73 1.24 1.73 1.02 0 1.12-1.34 1.12-1.73h-2.36l-0.01-0.2h2.78c0.22 0 0.25 0 0.25 0.2 0 0.99-0.54 1.95-1.78 1.95-1.16 0-2.08-1.02-2.08-2.27 0-1.33 1.05-2.29 2.19-2.29 1.22 0 1.67 1.1 1.67 1.29 0 0.1-0.08 0.12-0.13 0.12-0.09 0-0.11-0.06-0.13-0.14-0.35-1.02-1.24-1.02-1.35-1.02-0.49 0-0.89 0.3-1.12 0.66-0.3 0.48-0.3 1.14-0.3 1.5z"/><path d="m363.03 697.5 0.06 0.08 0.06 0.07 0.06 0.08 0.06 0.07 0.12 0.16 0.06 0.07 0.12 0.16 0.18 0.21 0.02 0.03 0.06 0.06 0.02 0.03 0.03 0.03 0.02 0.03 0.03 0.02 0.02 0.03c0.31 0.35 0.72 0.5 1.19 0.51v0.31c-0.26-0.02-0.56-0.03-0.82-0.03-0.3 0-0.83 0.02-0.96 0.03v-0.31c0.21-0.02 0.29-0.15 0.29-0.3 0-0.16-0.1-0.29-0.15-0.35l-0.62-0.78-0.78 1.01c-0.09 0.1-0.09 0.12-0.09 0.18 0 0.14 0.15 0.23 0.35 0.24v0.31c-0.26-0.01-0.91-0.03-1.07-0.03-0.21 0-0.68 0.01-0.95 0.03v-0.31c0.7 0 0.71-0.01 1.18-0.6l0.98-1.28-0.93-1.19c-0.48-0.57-1.07-0.59-1.28-0.59v-0.31c0.26 0.02 0.57 0.03 0.83 0.03 0.29 0 0.71-0.02 0.94-0.03v0.31c-0.21 0.03-0.29 0.16-0.29 0.31 0 0.21 0.29 0.54 0.9 1.26l0.76-1c0.08-0.1 0.21-0.26 0.21-0.32 0-0.09-0.09-0.24-0.36-0.25v-0.31c0.3 0.01 0.86 0.03 1.08 0.03 0.27 0 0.66-0.01 0.96-0.03v0.31c-0.54 0-0.72 0.02-0.95 0.31z"/></g><g transform="matrix(1.0207 0 0 1.0207 433.82 188.96)" fill-opacity=".78431" stroke-opacity=".78431" stroke-width="3.3545"><g fill-opacity=".78431" fill-rule="evenodd" stroke="#000" stroke-miterlimit="10.433"><path d="m-148.42 764.63v111.81" marker-end="url(#g)" stroke-opacity=".62745" stroke-width=".35764"/><path d="m-154.86 772.2h139.91" marker-end="url(#c)" stroke-opacity=".62745" stroke-width=".35764"/><g transform="matrix(.68111 0 0 .68112 -216.69 335.79)" stroke-opacity=".78431" stroke-width="3.2834" ns0:preamble="default_packages.tex" ns0:text="$x$\n$y$\n$\\langle y \\rangle$\n$\\langle x \\rangle$\n$\\text{Point of averages}$\n$\\text{Regression line}$\n$\\text{SD line}$\n$\\rho(x,y)\\sigma_y$\n$\\sigma_x$\n" xml:space="preserve"><g transform="matrix(1.5 0 0 1.5 69.402 -429.08)" fill-opacity=".62745" fill-rule="evenodd" stroke="#000" stroke-miterlimit="10.433" stroke-opacity=".78431" stroke-width="0" ns0:preamble="default_packages.tex" ns0:text="$x f$\n" xml:space="preserve"><path d="m150.06 709.38 0.01 0.02 0.01 0.03v0.03l0.02 0.08 0.02 0.04 0.01 0.04 0.01 0.05 0.02 0.04 0.1 0.25 0.09 0.15 0.03 0.04 0.03 0.05 0.04 0.04 0.03 0.05 0.04 0.04 0.05 0.04 0.04 0.03 0.05 0.03 0.04 0.03 0.03 0.01 0.03 0.02 0.02 0.01 0.06 0.02h0.03l0.02 0.01 0.03 0.01h0.07l0.03 0.01h0.03c0.05 0 0.29 0 0.5-0.13-0.28-0.05-0.48-0.3-0.48-0.54 0-0.16 0.11-0.35 0.38-0.35 0.22 0 0.54 0.18 0.54 0.58 0 0.52-0.59 0.66-0.93 0.66-0.58 0-0.93-0.53-1.05-0.76-0.25 0.66-0.78 0.76-1.07 0.76-1.04 0-1.61-1.29-1.61-1.53 0-0.1 0.1-0.1 0.12-0.1 0.08 0 0.11 0.02 0.13 0.11 0.34 1.05 1 1.3 1.34 1.3 0.19 0 0.53-0.09 0.53-0.67 0-0.31-0.17-0.97-0.53-2.36-0.16-0.62-0.51-1.04-0.95-1.04-0.06 0-0.29 0-0.5 0.13 0.25 0.05 0.47 0.26 0.47 0.54 0 0.27-0.22 0.35-0.37 0.35-0.3 0-0.55-0.26-0.55-0.58 0-0.46 0.5-0.65 0.94-0.65 0.66 0 1.02 0.69 1.05 0.75 0.11-0.37 0.47-0.75 1.07-0.75 1.03 0 1.6 1.28 1.6 1.53 0 0.1-0.09 0.1-0.12 0.1-0.09 0-0.11-0.05-0.13-0.11-0.33-1.07-1.01-1.31-1.33-1.31-0.39 0-0.55 0.32-0.55 0.66 0 0.22 0.06 0.44 0.17 0.87z"/><path d="m17.293 815.97h0.85c0.2 0 0.3 0 0.3 0.2 0 0.11-0.1 0.11-0.27 0.11h-0.82l0.21 1.13c0.04 0.21 0.17 0.91 0.23 1.03 0.09 0.19 0.26 0.34 0.47 0.34 0.04 0 0.3 0 0.49-0.18-0.44-0.04-0.54-0.39-0.54-0.53 0-0.23 0.18-0.35 0.37-0.35 0.26 0 0.55 0.22 0.55 0.59 0 0.46-0.46 0.69-0.87 0.69-0.34 0-0.97-0.18-1.26-1.16-0.06-0.21-0.09-0.31-0.33-1.56h-0.69c-0.19 0-0.3 0-0.3-0.19 0-0.12 0.09-0.12 0.28-0.12h0.66l-0.75-3.93c-0.18-0.96-0.35-1.86-0.87-1.86-0.04 0-0.29 0-0.48 0.18 0.46 0.03 0.55 0.38 0.55 0.53 0 0.23-0.18 0.35-0.37 0.35-0.26 0-0.55-0.22-0.55-0.6 0-0.44 0.44-0.68 0.85-0.68 0.55 0 0.95 0.58 1.13 0.96 0.32 0.63 0.55 1.83 0.56 1.9z"/></g></g></g></g><g transform="matrix(.98166 0 0 .98166 131.76 410.2)" fill-opacity=".39216" stroke-opacity=".31373" stroke-width="0" ns0:preamble="default_packages.tex" ns0:text="$\\text{Convex}$\n" xml:space="preserve"><path d="m149.27 710.52v-0.19l0.02-0.19 0.02-0.18 0.03-0.18 0.04-0.18 0.05-0.18 0.06-0.16 0.06-0.17 0.07-0.16 0.08-0.16 0.18-0.3 0.1-0.14 0.1-0.13 0.11-0.13 0.12-0.13 0.12-0.12 0.13-0.11 0.13-0.1 0.14-0.1 0.28-0.18 0.15-0.08 0.16-0.07 0.15-0.06 0.16-0.06 0.16-0.04 0.17-0.04 0.34-0.06 0.17-0.01h0.17c1.63 0 2.6 1.38 2.6 2.53 0 0.1 0 0.17-0.13 0.17-0.11 0-0.11-0.06-0.12-0.16-0.08-1.42-1.14-2.24-2.23-2.24-0.61 0-2.56 0.34-2.56 3.3 0 2.97 1.94 3.31 2.55 3.31 1.09 0 1.97-0.9 2.17-2.35 0.02-0.14 0.02-0.17 0.16-0.17 0.16 0 0.16 0.03 0.16 0.24v2.35c0 0.17 0 0.24-0.11 0.24-0.04 0-0.08 0-0.16-0.12l-0.49-0.74c-0.37 0.36-0.88 0.86-1.84 0.86-1.86 0-3.47-1.58-3.47-3.61z"/><path d="m160.6 709.25v0.12l-0.01 0.12-0.01 0.11-0.02 0.12-0.09 0.33-0.04 0.1-0.05 0.1-0.04 0.1-0.06 0.1-0.06 0.09-0.06 0.1-0.06 0.08-0.07 0.09-0.08 0.08-0.07 0.08-0.08 0.07-0.09 0.07-0.08 0.06-0.09 0.07-0.09 0.05-0.2 0.1-0.2 0.08-0.1 0.03-0.11 0.03-0.11 0.02-0.33 0.03-0.01-0.22c0.44 0 0.87-0.22 1.13-0.65s0.26-1 0.26-1.38c0-0.36 0-0.89-0.22-1.33-0.22-0.45-0.66-0.74-1.16-0.74-0.43 0-0.87 0.21-1.14 0.67-0.25 0.44-0.25 1.04-0.25 1.4 0 0.39 0 0.92 0.24 1.36 0.27 0.46 0.74 0.67 1.14 0.67l0.01 0.22c-1.25 0-2.21-1.09-2.21-2.33 0-1.28 1.03-2.23 2.2-2.23 1.21 0 2.21 0.97 2.21 2.23z"/><path d="m161.99 710.54v-2.66c0-0.45-0.11-0.45-0.78-0.45v-0.3c0.35 0.01 0.86 0.03 1.12 0.03s0.78-0.02 1.12-0.03v0.3c-0.67 0-0.78 0-0.78 0.45v1.83c0 1.03 0.71 1.59 1.35 1.59 0.63 0 0.74-0.54 0.74-1.1v-2.32c0-0.45-0.11-0.45-0.78-0.45v-0.3c0.35 0.01 0.86 0.03 1.13 0.03 0.26 0 0.77-0.02 1.11-0.03v0.3c-0.51 0-0.76 0-0.77 0.3v1.9c0 0.85 0 1.16-0.31 1.52-0.14 0.17-0.47 0.37-1.05 0.37-0.73 0-1.2-0.43-1.48-1.05v1.05l-1.4-0.11v-0.31c0.69 0 0.78-0.07 0.78-0.56z"/><path d="m170.29 710.43 0.01 0.02 0.01 0.03 0.01 0.02 0.01 0.03 0.01 0.02 0.01 0.03 0.02 0.02 0.01 0.03 0.02 0.03 0.01 0.03 0.02 0.02 0.06 0.09 0.1 0.1 0.06 0.04 0.04 0.03 0.03 0.02 0.04 0.02 0.04 0.01 0.04 0.02 0.05 0.01 0.05 0.02 0.1 0.02h0.08l0.03 0.01h0.06v0.31c-0.23-0.02-0.52-0.03-0.75-0.03-0.24 0-0.7 0.02-0.86 0.03v-0.31c0.36-0.01 0.47-0.24 0.47-0.43 0-0.09-0.02-0.13-0.06-0.24l-1.01-2.53-1.12 2.77c-0.06 0.13-0.06 0.15-0.06 0.17 0 0.26 0.39 0.26 0.57 0.26v0.31c-0.3-0.01-0.86-0.03-1.09-0.03-0.27 0-0.67 0.01-0.97 0.03v-0.31c0.63 0 0.67-0.06 0.8-0.37l1.44-3.53c0.06-0.13 0.08-0.18 0.21-0.18s0.17 0.08 0.21 0.18z"/><path d="m172.23 709.42 0.01 0.21c0.06 1.48 0.9 1.73 1.24 1.73 1.02 0 1.12-1.34 1.12-1.73h-2.36l-0.01-0.21h2.78c0.22 0 0.25 0 0.25 0.21 0 0.98-0.54 1.95-1.78 1.95-1.16 0-2.08-1.03-2.08-2.27 0-1.33 1.05-2.29 2.2-2.29 1.21 0 1.66 1.1 1.66 1.29 0 0.1-0.08 0.12-0.13 0.12-0.09 0-0.11-0.06-0.13-0.14-0.35-1.03-1.24-1.03-1.34-1.03-0.5 0-0.9 0.3-1.13 0.67-0.3 0.48-0.3 1.13-0.3 1.49z"/></g></g><g transform="matrix(1.2168 0 0 -1.2168 183.62 863.82)"><g transform="translate(7.2378 -59.353)"><g transform="matrix(1.2506,0,0,-1.2506,-72.165,1072.2)" fill-rule="evenodd" stroke="#000" stroke-miterlimit="10.433" ns0:preamble="default_packages.tex" ns0:text="$x$\n$y$\n" xml:space="preserve"><g transform="matrix(.79961 0 0 -.79961 58.988 860.59)"><g transform="matrix(1.2506,0,0,-1.2506,-72.165,1072.2)" fill-rule="evenodd" stroke="#000" stroke-miterlimit="10.433" ns0:preamble="default_packages.tex" ns0:text="$x$\n$y$\n" xml:space="preserve"><g transform="rotate(180 212.4 757.83)" fill-rule="evenodd" stroke="#000" stroke-miterlimit="10.433"><g transform="matrix(.79961 0 0 -.79961 -41.225 831.43)" stroke-width=".7"><g transform="matrix(1.2506,0,0,-1.2506,-72.165,1072.2)" fill-rule="evenodd" stroke="#000" stroke-miterlimit="10.433" stroke-width=".55973" ns0:preamble="default_packages.tex" ns0:text="$x$\n$y$\n" xml:space="preserve"><g transform="matrix(-.65715 0 0 -.65715 540.07 1459.9)" fill-rule="evenodd" stroke="#000" stroke-miterlimit="10.433" stroke-opacity="1" stroke-width="2.2826" ns0:preamble="default_packages.tex" ns0:text="$x_1 x_2 x f(x_1) f(x_2) f(x)$\n" xml:space="preserve"><g transform="translate(258.65 -3.4795)" fill-rule="evenodd" stroke="#000" stroke-miterlimit="10.433" stroke-opacity="1" stroke-width="2.2826" ns0:preamble="default_packages.tex" ns0:text="$x_1 x_2 x f(x_1) f(x_2) f(x)$\n" xml:space="preserve"><g transform="matrix(1.0026 0 0 1.0026 31.971 78.78)" fill-rule="evenodd" stroke="#000" stroke-miterlimit="10.433" stroke-opacity="1" stroke-width="3.4151" ns0:preamble="default_packages.tex" ns0:text="$l(x)$\n" xml:space="preserve"><g transform="matrix(1.3845 0 0 1.3845 261.45 -437.1)" stroke-width="2.4667"><g stroke-width="2.4667"><g transform="matrix(-1.5178 0 0 1.5178 84.544 -324.43)" fill-rule="evenodd" stroke="#000" stroke-miterlimit="10.433" stroke-width=".69309"><g transform="matrix(.58158 0 0 -.58072 8.6337 1042.9)" fill-rule="evenodd" stroke="#000" stroke-miterlimit="10.433" stroke-opacity=".31373" stroke-width="1.1926"><g transform="matrix(1.2506,0,0,-1.2506,-72.165,1072.2)" fill-rule="evenodd" stroke="#000" stroke-miterlimit="10.433" stroke-opacity=".31373" stroke-width=".95363" ns0:preamble="default_packages.tex" ns0:text="$x$\n$y$\n" xml:space="preserve"><g fill="none" stroke="#000" stroke-miterlimit="10.433" stroke-opacity=".31373" stroke-width=".95363"><path d="m171.51 757.67c2.3058 20.083 8.54 40.757 15.171 40.686 6.0222-0.0646 10.291-20.242 20.34-20.479 7.9798 0.32845 13.636 26.955 19.191 26.957 5.3686 2e-3 12.905-27.257 19.3-46.312" fill="none" stroke="#000" stroke-miterlimit="10.433" stroke-opacity=".31373" stroke-width=".95363"/></g></g></g></g></g></g></g></g></g></g></g><g transform="matrix(-.65714 0 0 -.65714 741.95 1102)" fill-rule="evenodd" stroke="#000" stroke-miterlimit="10.433" stroke-opacity="1" stroke-width="2.2826" ns0:preamble="default_packages.tex" ns0:text="$x_1 x_2 x f(x_1) f(x_2) f(x)$\n" xml:space="preserve"><g transform="matrix(1.0026 0 0 1.0026 37.987 78.78)" fill-rule="evenodd" stroke="#000" stroke-miterlimit="10.433" stroke-opacity="1" stroke-width="3.4151" ns0:preamble="default_packages.tex" ns0:text="$l(x)$\n" xml:space="preserve"><g transform="matrix(1.3845 0 0 1.3845 287.6 -440.77)" stroke-width="2.4667"><g stroke-width="2.4667"><g transform="matrix(-1.5178 0 0 1.5178 84.71 -324.6)" fill-rule="evenodd" stroke-miterlimit="10.433"><g transform="matrix(.58057 0 0 .57986 -244 696.49)" stroke="#000" stroke-opacity="1" stroke-width="1.1945"><g transform="matrix(1.2506,0,0,-1.2506,-72.165,1072.2)" fill-rule="evenodd" stroke="#000" stroke-miterlimit="10.433" stroke-opacity=".31373" stroke-width=".95517" ns0:preamble="default_packages.tex" ns0:text="$x$\n$y$\n" xml:space="preserve"><g fill="none" stroke="#000" stroke-miterlimit="10.433" stroke-opacity=".31373" stroke-width=".95517"><path d="m171.51 757.67c7.6897 25.267 22 51.109 37.039 51.316 12.208-0.15688 28.413-24.989 36.962-50.464" fill="none" stroke="#000" stroke-miterlimit="10.433" stroke-opacity=".31373" stroke-width=".95517"/></g></g></g><rect transform="matrix(-.79961 0 0 -.79961 -136.93 592.78)" x="-160.33" y="-262.08" width="128.93" height="128.93" fill="#fff" opacity=".97" stroke="#fff" stroke-linecap="square" stroke-opacity=".97585" stroke-width=".86678"/></g><path d="m212.46 767.82v80.763" fill="none" marker-end="url(#f)" stroke="#000" stroke-miterlimit="10.433" stroke-opacity=".47059" stroke-width=".26299"/><g fill-rule="evenodd"><rect transform="scale(1,-1)" x="98.619" y="-892.55" width="155.11" height="156.28" fill-opacity=".36715" opacity=".97" stroke="none"/><g transform="matrix(.58989 0 0 .58989 53.714 437.04)" stroke="#000" stroke-miterlimit="10.433" stroke-opacity="1" stroke-width="6.2725" ns0:preamble="default_packages.tex" ns0:text="$f(x) \\geq l(x)$\n" xml:space="preserve"><rect transform="scale(1,-1)" x="72.836" y="-774.33" width="263.74" height="263.74" fill="#fffdff" opacity=".97" stroke="#000" stroke-linecap="square" stroke-miterlimit="10.433" stroke-opacity=".62745" stroke-width=".39382"/></g><path d="m167.77 872.02h0.70235c0.16333 0 0.245 0 0.245 0.16334 0 0.0898-0.0817 0.0898-0.2205 0.0898h-0.67785l0.1715 0.92285c0.0327 0.1715 0.14701 0.74318 0.19601 0.84118 0.0735 0.15517 0.21233 0.27767 0.38384 0.27767 0.0327 0 0.245 0 0.40017-0.147-0.35934-0.0327-0.44101-0.31851-0.44101-0.43284 0-0.18784 0.14701-0.28584 0.30217-0.28584 0.21234 0 0.44918 0.17967 0.44918 0.48184 0 0.37568-0.37567 0.56351-0.71051 0.56351-0.27767 0-0.79218-0.147-1.0372-0.94735-0.049-0.1715-0.0735-0.25317-0.2695-1.274h-0.55533c-0.15517 0-0.24501 0-0.24501-0.15517 0-0.098 0.0735-0.098 0.22051-0.098h0.539l-0.60434-3.2096c-0.147-0.78401-0.28584-1.519-0.71051-1.519-0.0327 0-0.23684 0-0.39201 0.147 0.37568 0.0245 0.44918 0.31034 0.44918 0.43284 0 0.18784-0.147 0.28584-0.30217 0.28584-0.21234 0-0.44918-0.17967-0.44918-0.49001 0-0.35934 0.35934-0.55534 0.69418-0.55534 0.44917 0 0.77585 0.47367 0.91468 0.78401 0.26134 0.51451 0.44917 1.4945 0.45733 1.5517z" fill="#003c88" fill-opacity=".78431" stroke-miterlimit="10.433" stroke-width="0"/><g stroke-miterlimit="10.433" stroke-width="0"><g fill-opacity=".78431"><path d="m172.33 866.82v0.024l-8e-3 8e-3v8e-3l-0.016 0.016v8e-3h-8e-3v8e-3h-8e-3v8e-3h-8e-3v8e-3l-0.032 0.032v8e-3h-8e-3l-8e-3 8e-3v8e-3h-8e-3l-8e-3 8e-3v8e-3h-8e-3l-0.016 0.016c-1.0127 1.0208-1.274 2.5562-1.274 3.7976 0 1.4129 0.31034 2.8257 1.3067 3.8384 0.10617 0.098 0.10617 0.11434 0.10617 0.13884 0 0.0572-0.0327 0.0817-0.0817 0.0817-0.0817 0-0.80852-0.55534-1.2904-1.5844-0.4165-0.89018-0.51451-1.7967-0.51451-2.4745 0-0.63701 0.0898-1.617 0.53901-2.5317 0.49001-0.99634 1.1842-1.5272 1.2659-1.5272 0.049 0 0.0817 0.0245 0.0817 0.0817z"/><path d="m175.53 871.23v0.0163l0.016 0.049 0.032 0.1308 0.0163 0.0408 8e-3 0.0327 0.0652 0.1632 0.0245 0.0408 0.0163 0.0408 0.049 0.0816 0.0245 0.0327 0.0327 0.0408 0.0245 0.0327 0.0327 0.0408 0.0654 0.0654 0.0327 0.0245 0.0816 0.049 0.0245 8e-3 0.0163 0.0163 0.0245 8e-3 0.0163 8e-3 0.0245 8e-3h0.0245l0.049 0.016h0.049l0.0245 8e-3h0.0245c0.0408 0 0.23683 0 0.40834-0.10617-0.22868-0.0408-0.38384-0.245-0.38384-0.44101 0-0.13066 0.0817-0.28583 0.30217-0.28583 0.17967 0 0.441 0.147 0.441 0.47367 0 0.42467-0.48184 0.53901-0.75134 0.53901-0.47368 0-0.75951-0.43284-0.85751-0.62068-0.20417 0.53901-0.64518 0.62068-0.88202 0.62068-0.84934 0-1.3148-1.0535-1.3148-1.2495 0-0.0817 0.0898-0.0817 0.10617-0.0817 0.0653 0 0.0898 0.0163 0.098 0.0898 0.27767 0.85751 0.81668 1.0617 1.0944 1.0617 0.15517 0 0.441-0.0735 0.441-0.54718 0-0.25317-0.13883-0.79218-0.441-1.9274-0.13067-0.50634-0.41651-0.84935-0.77585-0.84935-0.049 0-0.23684 0-0.40834 0.10617 0.20417 0.0408 0.38384 0.21234 0.38384 0.44101 0 0.2205-0.17967 0.28584-0.294 0.28584-0.25317 0-0.44918-0.21234-0.44918-0.47368 0-0.37567 0.40018-0.53084 0.75952-0.53084 0.539 0 0.83301 0.56351 0.85751 0.61251 0.098-0.30217 0.392-0.61251 0.88201-0.61251 0.83302 0 1.2985 1.0454 1.2985 1.2495 0 0.0817-0.0735 0.0817-0.098 0.0817-0.0735 0-0.0898-0.0408-0.10617-0.0898-0.2695-0.87384-0.81667-1.0698-1.078-1.0698-0.31851 0-0.44918 0.26134-0.44918 0.53901 0 0.17967 0.049 0.35934 0.13884 0.71051z"/><path d="m179.81 870.8v0.2531l-8e-3 0.13884-8e-3 0.13883-0.0163 0.147-0.0163 0.15517-0.049 0.32668-0.0327 0.16333-0.0408 0.1715-0.0408 0.17151-0.049 0.1715-0.0572 0.1715-0.0653 0.1715-0.0327 0.0898-0.0408 0.0898-0.0327 0.0817-0.0408 0.0898c-0.49001 0.99635-1.1924 1.5272-1.274 1.5272-0.049 0-0.0817-0.0327-0.0817-0.0817 0-0.0245 0-0.0408 0.15516-0.18784 0.80035-0.80851 1.2659-2.0989 1.2659-3.7894 0-1.3884-0.30217-2.8175-1.3149-3.8384-0.10616-0.098-0.10616-0.11434-0.10616-0.13884 0-0.049 0.0327-0.0817 0.0817-0.0817 0.0817 0 0.81667 0.55535 1.2985 1.5844 0.40834 0.89018 0.50634 1.7885 0.50634 2.4745z"/></g><path d="m188.37 871.4 0.0163 8e-3 8e-3 8e-3h8e-3l8e-3 8e-3h8e-3l8e-3 8e-3h8e-3l0.016 0.016h8e-3l0.016 0.016h8e-3v8e-3l8e-3 8e-3h8e-3v8e-3l0.016 0.016v8e-3l8e-3 8e-3v0.016h8e-3v0.04c0 0.0817-0.0327 0.13066-0.16333 0.18783l-4.4836 2.107c-0.11434 0.0572-0.147 0.0572-0.16334 0.0572-0.098 0-0.16333-0.0735-0.16333-0.16333 0-0.0898 0.0653-0.13067 0.15517-0.17151l4.2794-2.009-4.2631-2.0009c-0.16334-0.0735-0.1715-0.13884-0.1715-0.18784 0-0.0898 0.0735-0.16333 0.16333-0.16333 0.0245 0 0.0408 0 0.14701 0.0572z"/><path d="m188.24 867.66h0.0572l0.0245 8e-3h0.0729l8e-3 8e-3h0.0243l8e-3 8e-3h8e-3l0.0163 8e-3 8e-3 8e-3h8e-3l0.016 0.016v8e-3l8e-3 8e-3h8e-3v8e-3l8e-3 8e-3v0.024h8e-3v0.048c0 0.16334-0.1715 0.16334-0.294 0.16334h-4.3856c-0.1225 0-0.294 0-0.294-0.16334 0-0.16333 0.147-0.16333 0.28583-0.16333z"/><path d="m193.87 873.9v0.027l-9e-3 9e-3v9e-3l-9e-3 9e-3v9e-3h-9e-3v9e-3h-9e-3v9e-3h-9e-3l-9e-3 9e-3h-0.027v9e-3h-0.036c-0.21183 0-0.88412-0.0735-1.1144-0.0921-0.0737-9e-3 -0.17498-0.0188-0.17498-0.19339 0-0.10126 0.0829-0.10126 0.22103-0.10126 0.44205 0 0.45126-0.0829 0.45126-0.15656l-0.0276-0.18424-1.1512-4.5679c-0.0276-0.10134-0.0461-0.16578-0.0461-0.31311 0-0.52496 0.40521-0.83808 0.82885-0.83808 0.30391 0 0.53415 0.17502 0.6907 0.50651 0.16577 0.34995 0.27629 0.88414 0.27629 0.90251 0 0.0921-0.0829 0.0921-0.11052 0.0921-0.0921 0-0.1013-0.0457-0.12893-0.16578-0.15656-0.59863-0.33154-1.142-0.69991-1.142-0.27629 0-0.27629 0.29474-0.27629 0.42362 0 0.22107 0.0185 0.26713 0.0553 0.44206z" fill="#f00" fill-opacity=".78431"/><g fill-opacity=".78431"><path d="m196.75 866.82v0.016l-8e-3 8e-3v8e-3l-8e-3 8e-3v8e-3h-8e-3v8e-3l-0.016 0.016v8e-3h-8e-3l-8e-3 8e-3v8e-3h-8e-3v8e-3h-8e-3v8e-3h-8e-3v8e-3l-8e-3 8e-3h-8e-3v8e-3l-8e-3 8e-3h-8e-3v8e-3l-8e-3 8e-3h-8e-3v8e-3l-8e-3 8e-3c-1.0208 1.0208-1.2822 2.5562-1.2822 3.7976 0 1.4129 0.31033 2.8257 1.3148 3.8384 0.10617 0.098 0.10617 0.11434 0.10617 0.13884 0 0.0572-0.0327 0.0817-0.0817 0.0817-0.0817 0-0.81668-0.55534-1.2985-1.5844-0.41651-0.89018-0.51451-1.7967-0.51451-2.4745 0-0.63701 0.0898-1.617 0.53901-2.5317 0.49001-0.99634 1.1924-1.5272 1.274-1.5272 0.049 0 0.0817 0.0245 0.0817 0.0817z"/><path d="m199.94 871.23 8e-3 0.0163 8e-3 0.0245v0.0245l0.016 0.0654 0.0163 0.0327 8e-3 0.0327 8e-3 0.0408 0.0163 0.0327 0.0815 0.204 0.0735 0.1224 0.0245 0.0327 0.0245 0.0408 0.0327 0.0327 0.0245 0.0408 0.0654 0.0654 0.0816 0.049 0.0327 0.0245 0.0245 8e-3 0.0245 0.0163 0.0163 8e-3 0.049 0.016h0.0163l0.049 0.016h0.049l0.0327 8e-3h0.0245c0.0408 0 0.23684 0 0.40834-0.10617-0.22867-0.0408-0.392-0.245-0.392-0.44101 0-0.13066 0.0898-0.28583 0.31033-0.28583 0.17967 0 0.44101 0.147 0.44101 0.47367 0 0.42467-0.48184 0.53901-0.75951 0.53901-0.47367 0-0.75951-0.43284-0.85751-0.62068-0.20417 0.53901-0.64518 0.62068-0.88202 0.62068-0.84118 0-1.3067-1.0535-1.3067-1.2495 0-0.0817 0.0817-0.0817 0.098-0.0817 0.0653 0 0.0898 0.0163 0.10616 0.0898 0.27768 0.85751 0.81668 1.0617 1.0944 1.0617 0.14701 0 0.43284-0.0735 0.43284-0.54718 0-0.25317-0.13883-0.79218-0.43284-1.9274-0.13066-0.50634-0.4165-0.84935-0.77584-0.84935-0.049 0-0.23684 0-0.40834 0.10617 0.20417 0.0408 0.38384 0.21234 0.38384 0.44101 0 0.2205-0.17967 0.28584-0.30217 0.28584-0.24501 0-0.44918-0.21234-0.44918-0.47368 0-0.37567 0.40834-0.53084 0.76768-0.53084 0.53901 0 0.83302 0.56351 0.85752 0.61251 0.0898-0.30217 0.38384-0.61251 0.87384-0.61251 0.84118 0 1.3067 1.0454 1.3067 1.2495 0 0.0817-0.0735 0.0817-0.098 0.0817-0.0735 0-0.0898-0.0408-0.10617-0.0898-0.2695-0.87384-0.82485-1.0698-1.0862-1.0698-0.31851 0-0.44918 0.26134-0.44918 0.53901 0 0.17967 0.049 0.35934 0.13884 0.71051z"/><path d="m204.23 870.8v0.1225l-8e-3 0.0653v0.0653l-8e-3 0.13884-8e-3 0.13883-0.0163 0.147-0.0163 0.15517-0.0163 0.16334-0.0327 0.16334-0.0327 0.16333-0.0327 0.1715-0.049 0.17151-0.049 0.1715-0.0572 0.1715-0.0653 0.1715-0.0654 0.1796-0.0408 0.0817-0.0408 0.0898c-0.49001 0.99635-1.1924 1.5272-1.274 1.5272-0.049 0-0.0817-0.0327-0.0817-0.0817 0-0.0245 0-0.0408 0.15517-0.18784 0.80034-0.80851 1.2658-2.0989 1.2658-3.7894 0-1.3884-0.30217-2.8175-1.3148-3.8384-0.10617-0.098-0.10617-0.11434-0.10617-0.13884 0-0.049 0.0327-0.0817 0.0817-0.0817 0.0817 0 0.81668 0.55535 1.2985 1.5844 0.41651 0.89018 0.51451 1.7885 0.51451 2.4745z"/></g></g></g><g stroke-miterlimit="10.433"><g fill="none" stroke="#000"><path d="m185 846.12v-89.613" stroke-opacity=".31373" stroke-width=".49531"/><path d="m109.37 749.14v111.81" marker-end="url(#i)" stroke-opacity="1" stroke-width=".26299"/><path d="m102.92 756.71h139.91" marker-end="url(#e)" stroke-opacity="1" stroke-width=".26299"/></g><g transform="matrix(.68111 0 0 .68112 41.1 320.3)" fill-rule="evenodd" stroke-opacity="0" ns0:preamble="default_packages.tex" ns0:text="$x$\n$y$\n$\\langle y \\rangle$\n$\\langle x \\rangle$\n$\\text{Point of averages}$\n$\\text{Regression line}$\n$\\text{SD line}$\n$\\rho(x,y)\\sigma_y$\n$\\sigma_x$\n" xml:space="preserve"><g transform="matrix(1.5 0 0 1.5 69.402 -429.08)" fill-rule="evenodd" stroke="#000" stroke-miterlimit="10.433" stroke-opacity="1" stroke-width="0" ns0:preamble="default_packages.tex" ns0:text="$x f$\n" xml:space="preserve"><path d="m150.06 709.38 0.01 0.02 0.01 0.03v0.03l0.02 0.08 0.02 0.04 0.01 0.04 0.01 0.05 0.02 0.04 0.1 0.25 0.09 0.15 0.03 0.04 0.03 0.05 0.04 0.04 0.03 0.05 0.04 0.04 0.05 0.04 0.04 0.03 0.05 0.03 0.04 0.03 0.03 0.01 0.03 0.02 0.02 0.01 0.06 0.02h0.03l0.02 0.01 0.03 0.01h0.07l0.03 0.01h0.03c0.05 0 0.29 0 0.5-0.13-0.28-0.05-0.48-0.3-0.48-0.54 0-0.16 0.11-0.35 0.38-0.35 0.22 0 0.54 0.18 0.54 0.58 0 0.52-0.59 0.66-0.93 0.66-0.58 0-0.93-0.53-1.05-0.76-0.25 0.66-0.78 0.76-1.07 0.76-1.04 0-1.61-1.29-1.61-1.53 0-0.1 0.1-0.1 0.12-0.1 0.08 0 0.11 0.02 0.13 0.11 0.34 1.05 1 1.3 1.34 1.3 0.19 0 0.53-0.09 0.53-0.67 0-0.31-0.17-0.97-0.53-2.36-0.16-0.62-0.51-1.04-0.95-1.04-0.06 0-0.29 0-0.5 0.13 0.25 0.05 0.47 0.26 0.47 0.54 0 0.27-0.22 0.35-0.37 0.35-0.3 0-0.55-0.26-0.55-0.58 0-0.46 0.5-0.65 0.94-0.65 0.66 0 1.02 0.69 1.05 0.75 0.11-0.37 0.47-0.75 1.07-0.75 1.03 0 1.6 1.28 1.6 1.53 0 0.1-0.09 0.1-0.12 0.1-0.09 0-0.11-0.05-0.13-0.11-0.33-1.07-1.01-1.31-1.33-1.31-0.39 0-0.55 0.32-0.55 0.66 0 0.22 0.06 0.44 0.17 0.87z"/><path d="m17.293 815.97h0.85c0.2 0 0.3 0 0.3 0.2 0 0.11-0.1 0.11-0.27 0.11h-0.82l0.21 1.13c0.04 0.21 0.17 0.91 0.23 1.03 0.09 0.19 0.26 0.34 0.47 0.34 0.04 0 0.3 0 0.49-0.18-0.44-0.04-0.54-0.39-0.54-0.53 0-0.23 0.18-0.35 0.37-0.35 0.26 0 0.55 0.22 0.55 0.59 0 0.46-0.46 0.69-0.87 0.69-0.34 0-0.97-0.18-1.26-1.16-0.06-0.21-0.09-0.31-0.33-1.56h-0.69c-0.19 0-0.3 0-0.3-0.19 0-0.12 0.09-0.12 0.28-0.12h0.66l-0.75-3.93c-0.18-0.96-0.35-1.86-0.87-1.86-0.04 0-0.29 0-0.48 0.18 0.46 0.03 0.55 0.38 0.55 0.53 0 0.23-0.18 0.35-0.37 0.35-0.26 0-0.55-0.22-0.55-0.6 0-0.44 0.44-0.68 0.85-0.68 0.55 0 0.95 0.58 1.13 0.96 0.32 0.63 0.55 1.83 0.56 1.9z"/></g></g><g stroke="#000"><g transform="matrix(-1.2137 0 0 -1.2137 475.46 614.41)" fill-rule="evenodd" stroke-opacity="1" stroke-width=".86678"><g transform="matrix(1.2506 0 0 -1.2506 -14.164 818.87)" fill-rule="evenodd" stroke="#000" stroke-miterlimit="10.433" stroke-width=".69309" ns0:preamble="default_packages.tex" ns0:text="$x$\n$y$\n" xml:space="preserve"><g fill="none" stroke="#000" stroke-miterlimit="10.433" stroke-opacity=".62745" stroke-width=".69309"><path d="m171.51 757.67c7.6897 25.267 22 51.109 37.039 51.316 12.208-0.15688 28.413-24.989 36.962-50.464" fill="none" stroke="#003c88" stroke-miterlimit="10.433" stroke-opacity=".58454" stroke-width=".69309"/></g></g></g><path d="m138.67 813.04v-56.442" fill="none" stroke-dasharray="1.98122539, 0.49530635" stroke-opacity=".31373" stroke-width=".49531"/><path d="m207.44 825.05v-68.282" fill="none" stroke-dasharray="1.98122539, 0.49530635" stroke-opacity=".31373" stroke-width=".49531"/></g><g fill-rule="evenodd" stroke-width="0"><g fill-opacity=".78431"><path d="m137.05 753.91 0.01 0.0199 0.01 0.0299v0.0299l0.02 0.0798 0.02 0.0399 0.01 0.0399 0.01 0.0499 0.0199 0.0399 0.02 0.0499 0.0199 0.0499 0.02 0.0499 0.0199 0.0499 0.02 0.0499 0.0897 0.1497 0.0299 0.0399 0.0299 0.0499 0.0399 0.0399 0.0299 0.0499 0.0399 0.0399 0.0499 0.0399 0.0399 0.0299 0.0499 0.0299 0.0399 0.0299 0.0299 0.01 0.0299 0.0199 0.0199 0.01 0.0598 0.02h0.0299l0.0199 0.01 0.0299 0.01h0.0698l0.0299 0.01h0.0299c0.0499 0 0.28925 0 0.4987-0.12967-0.27927-0.0499-0.47876-0.29922-0.47876-0.5386 0-0.15959 0.10972-0.34909 0.37902-0.34909 0.21943 0 0.53861 0.17953 0.53861 0.5785 0 0.51865-0.58848 0.65829-0.9276 0.65829-0.5785 0-0.9276-0.52863-1.0473-0.75804-0.24935 0.6583-0.77798 0.75804-1.0672 0.75804-1.0373 0-1.6058-1.2867-1.6058-1.526 0-0.0997 0.0997-0.0997 0.11969-0.0997 0.0798 0 0.10972 0.0199 0.12967 0.10972 0.33912 1.0473 0.99741 1.2966 1.3365 1.2966 0.18951 0 0.52863-0.0898 0.52863-0.66827 0-0.3092-0.16956-0.96749-0.52863-2.3539-0.15958-0.6184-0.50868-1.0373-0.94754-1.0373-0.0598 0-0.28925 0-0.49871 0.12966 0.24935 0.0499 0.46878 0.25933 0.46878 0.53861 0 0.2693-0.21943 0.34909-0.36904 0.34909-0.29922 0-0.54858-0.25933-0.54858-0.5785 0-0.45881 0.49871-0.64832 0.93757-0.64832 0.6583 0 1.0174 0.68822 1.0473 0.74806 0.10971-0.36904 0.46878-0.74806 1.0672-0.74806 1.0273 0 1.5959 1.2767 1.5959 1.526 0 0.0997-0.0898 0.0997-0.11969 0.0997-0.0898 0-0.10972-0.0499-0.12967-0.10972-0.32914-1.0672-1.0074-1.3066-1.3266-1.3066-0.38899 0-0.54858 0.31917-0.54858 0.65829 0 0.21943 0.0598 0.43887 0.16956 0.86775z"/><path d="m141.75 753.83v0.09l-0.01 0.01v0.04l-0.01 0.01v0.01l-0.02 0.02h-0.01l-0.01 0.01h-0.04l-0.01 0.01h-0.1c-0.44884-0.43886-1.0772-0.44883-1.3665-0.44883v-0.24936c0.16956 0 0.62837 0 1.0074 0.19948v-3.5408c0-0.2294 0-0.31917-0.69819-0.31917h-0.25932v-0.24936c0.11969 0.01 0.97746 0.0299 1.2368 0.0299 0.21943 0 1.0972-0.0199 1.2468-0.0299v0.24936h-0.25933c-0.69819 0-0.69819 0.0898-0.69819 0.31917z"/><path d="m206.54 754.24v0.0199l0.02 0.0598 0.04 0.1596 0.0199 0.0499 0.01 0.0399 0.0199 0.0499 0.02 0.0499 0.0398 0.0998 0.0299 0.0499 0.0199 0.0499 0.0598 0.0998 0.0299 0.0399 0.0399 0.0499 0.0299 0.0399 0.0399 0.0499 0.0798 0.0798 0.0399 0.0299 0.0998 0.0598 0.0199 0.01 0.0299 0.0199 0.0299 0.01 0.02 0.01 0.0299 0.01h0.0299l0.0598 0.02h0.0598l0.0299 0.01h0.0299c0.0499 0 0.28926 0 0.49871-0.12966-0.27927-0.0499-0.47876-0.29923-0.47876-0.53861 0-0.15958 0.10972-0.34909 0.37902-0.34909 0.21943 0 0.53861 0.17953 0.53861 0.5785 0 0.51866-0.58848 0.65829-0.9276 0.65829-0.56853 0-0.91763-0.52863-1.0373-0.75803-0.24935 0.65829-0.78796 0.75803-1.0772 0.75803-1.0373 0-1.6058-1.2867-1.6058-1.526 0-0.0997 0.0997-0.0997 0.11969-0.0997 0.0798 0 0.10972 0.0199 0.12967 0.10971 0.33912 1.0473 0.99741 1.2966 1.3365 1.2966 0.1895 0 0.5386-0.0898 0.5386-0.66827 0-0.3092-0.16956-0.96749-0.5386-2.3539-0.15959-0.61839-0.50869-1.0373-0.94755-1.0373-0.0598 0-0.28925 0-0.49871 0.12967 0.24936 0.0499 0.46879 0.25932 0.46879 0.5386 0 0.2693-0.21943 0.3491-0.36905 0.3491-0.29922 0-0.54857-0.25933-0.54857-0.57851 0-0.45881 0.4987-0.64832 0.93757-0.64832 0.65829 0 1.0174 0.68822 1.0473 0.74807 0.11969-0.36905 0.47876-0.74807 1.0772-0.74807 1.0174 0 1.5859 1.2767 1.5859 1.526 0 0.0997-0.0898 0.0997-0.11969 0.0997-0.0898 0-0.10972-0.0499-0.12967-0.10971-0.32914-1.0672-0.99742-1.3066-1.3166-1.3066-0.38899 0-0.54858 0.31917-0.54858 0.6583 0 0.21943 0.0599 0.43886 0.16956 0.86775z"/><path d="m212.41 751.01h-0.23938c-0.0199-0.15958-0.0898-0.56852-0.17953-0.63834-0.0499-0.0399-0.58848-0.0399-0.68822-0.0399h-1.2867c0.73809 0.64832 0.97747 0.83783 1.3964 1.167 0.51865 0.40894 0.99741 0.83783 0.99741 1.4961 0 0.83783-0.73809 1.3565-1.6358 1.3565-0.85778 0-1.4462-0.60843-1.4462-1.2468 0-0.3491 0.29922-0.389 0.36904-0.389 0.16956 0 0.36904 0.11969 0.36904 0.36905 0 0.12966-0.0499 0.36904-0.40894 0.36904 0.21944 0.48874 0.68822 0.64832 1.0174 0.64832 0.69819 0 1.0573-0.5386 1.0573-1.1071 0-0.59845-0.42889-1.0772-0.64832-1.3266l-1.6856-1.6557c-0.0698-0.0599-0.0698-0.0698-0.0698-0.2693h2.8726z"/><path d="m185.54 753.39 0.01 0.0199v0.0299l0.01 0.0299 0.03 0.1197 0.02 0.0399 0.01 0.0499 0.0199 0.0399 0.01 0.0499 0.02 0.0499 0.0199 0.0499 0.0299 0.0499 0.0199 0.0499 0.0299 0.0499 0.0199 0.0499 0.0299 0.0499 0.0299 0.0399 0.0399 0.0499 0.0299 0.0399 0.0399 0.0499 0.0798 0.0798 0.0499 0.0299 0.0399 0.0299 0.0499 0.0299 0.0299 0.01 0.02 0.0199 0.0598 0.02 0.02 0.01h0.0299l0.0598 0.02h0.0598l0.0299 0.01h0.0399c0.0499 0 0.28925 0 0.4987-0.12966-0.27927-0.0499-0.47876-0.29923-0.47876-0.53861 0-0.15958 0.10972-0.34909 0.37902-0.34909 0.21943 0 0.52863 0.17953 0.52863 0.5785 0 0.51865-0.5785 0.65829-0.91762 0.65829-0.5785 0-0.9276-0.52863-1.0473-0.75803-0.24935 0.65829-0.78795 0.75803-1.0772 0.75803-1.0273 0-1.5959-1.2867-1.5959-1.526 0-0.0997 0.0997-0.0997 0.11969-0.0997 0.0798 0 0.10972 0.0199 0.12966 0.10972 0.33913 1.0473 0.98745 1.2966 1.3266 1.2966 0.18951 0 0.5386-0.0898 0.5386-0.66827 0-0.3092-0.16956-0.96749-0.5386-2.3539-0.15959-0.6184-0.50868-1.0373-0.93757-1.0373-0.0599 0-0.28925 0-0.49871 0.12966 0.24935 0.0499 0.46878 0.25933 0.46878 0.53861 0 0.2693-0.21943 0.34909-0.36904 0.34909-0.29922 0-0.54858-0.25932-0.54858-0.5785 0-0.45881 0.49871-0.64832 0.93757-0.64832 0.64832 0 1.0074 0.68822 1.0373 0.74806 0.11969-0.36904 0.47876-0.74806 1.0772-0.74806 1.0273 0 1.5959 1.2767 1.5959 1.526 0 0.0997-0.0898 0.0997-0.11969 0.0997-0.0898 0-0.10972-0.0499-0.12967-0.10972-0.32914-1.0672-1.0074-1.3066-1.3266-1.3066-0.38899 0-0.54858 0.31917-0.54858 0.65829 0 0.21944 0.0598 0.43887 0.16956 0.86776z"/><path d="m118.95 820.65h0.85778c0.19948 0 0.29922 0 0.29922 0.19948 0 0.10972-0.0997 0.10972-0.2693 0.10972h-0.82785l0.20945 1.1271c0.0399 0.20945 0.17954 0.90764 0.23938 1.0273 0.0898 0.18951 0.25933 0.33913 0.46879 0.33913 0.0399 0 0.29922 0 0.48873-0.17954-0.43886-0.0399-0.5386-0.38899-0.5386-0.52863 0-0.2294 0.17953-0.34909 0.36904-0.34909 0.25933 0 0.54858 0.21943 0.54858 0.58847 0 0.45881-0.45881 0.68822-0.86775 0.68822-0.33912 0-0.96749-0.17954-1.2667-1.157-0.0598-0.20946-0.0898-0.3092-0.32915-1.556h-0.67824c-0.18951 0-0.29922 0-0.29922-0.18951 0-0.11969 0.0898-0.11969 0.27927-0.11969h0.64832l-0.73808-3.9198c-0.17954-0.95752-0.3491-1.8552-0.86776-1.8552-0.0399 0-0.28925 0-0.47875 0.17954 0.45881 0.0299 0.54857 0.37902 0.54857 0.52863 0 0.2294-0.17953 0.34909-0.36904 0.34909-0.25933 0-0.54858-0.21943-0.54858-0.59844 0-0.43887 0.43886-0.67825 0.8478-0.67825 0.54858 0 0.94755 0.5785 1.1271 0.95752 0.3092 0.62837 0.53861 1.8253 0.54858 1.8951z"/><path d="m123.78 814.3v0.04h-0.01v0.01l-0.02 0.02v0.01h-0.01v0.01l-0.01 0.01h-0.01v0.01l-0.04 0.04v0.01h-0.01l-0.01 0.01v0.01h-0.01l-0.01 0.01v0.01h-0.01l-0.02 0.02c-1.2368 1.2468-1.556 3.1219-1.556 4.638 0 1.7255 0.37902 3.4511 1.5959 4.6878 0.12966 0.11969 0.12966 0.13964 0.12966 0.16956 0 0.0698-0.0399 0.0997-0.0997 0.0997-0.0997 0-0.98744-0.67824-1.5759-1.935-0.50869-1.0872-0.62838-2.1943-0.62838-3.0222 0-0.77798 0.10972-1.9749 0.6583-3.092 0.59845-1.2168 1.4462-1.8652 1.546-1.8652 0.0599 0 0.0997 0.0299 0.0997 0.0997z"/><path d="m127.68 819.68v0.0199l0.02 0.0598 0.04 0.1596 0.0199 0.0499 0.01 0.0399 0.0398 0.0998 0.02 0.0499 0.0199 0.0499 0.0299 0.0499 0.0199 0.0499 0.0598 0.0998 0.0299 0.0399 0.0399 0.0499 0.0299 0.0399 0.0399 0.0499 0.0798 0.0798 0.0399 0.0299 0.0998 0.0598 0.0299 0.01 0.0199 0.0199 0.0299 0.01 0.0199 0.01 0.0299 0.01h0.0299l0.0598 0.02h0.0598l0.0299 0.01h0.0399c0.0499 0 0.27927 0 0.48873-0.12966-0.27927-0.0499-0.46878-0.29923-0.46878-0.53861 0-0.15958 0.0997-0.34909 0.36904-0.34909 0.21943 0 0.5386 0.17953 0.5386 0.5785 0 0.51866-0.58847 0.65829-0.92759 0.65829-0.56853 0-0.91762-0.52863-1.0373-0.75803-0.24936 0.65829-0.78796 0.75803-1.0772 0.75803-1.0373 0-1.6058-1.2867-1.6058-1.526 0-0.0997 0.10971-0.0997 0.11969-0.0997 0.0798 0 0.10971 0.0199 0.12966 0.10971 0.33912 1.0473 0.99742 1.2966 1.3365 1.2966 0.18951 0 0.5386-0.0898 0.5386-0.66827 0-0.30919-0.16956-0.96749-0.5386-2.3539-0.15959-0.61839-0.50868-1.0373-0.94754-1.0373-0.0599 0-0.28926 0-0.49871 0.12967 0.24935 0.0499 0.46878 0.25932 0.46878 0.5386 0 0.2693-0.21943 0.3491-0.35907 0.3491-0.29922 0-0.54858-0.25933-0.54858-0.57851 0-0.45881 0.49871-0.64832 0.9276-0.64832 0.6583 0 1.0174 0.68822 1.0473 0.74807 0.11969-0.36905 0.47876-0.74807 1.0772-0.74807 1.0174 0 1.5859 1.2767 1.5859 1.526 0 0.0997-0.0898 0.0997-0.11969 0.0997-0.0898 0-0.10972-0.0499-0.12967-0.10971-0.31917-1.0672-0.99741-1.3066-1.3166-1.3066-0.38899 0-0.54857 0.31917-0.54857 0.6583 0 0.21943 0.0598 0.43886 0.16956 0.86775z"/><path d="m132.37 819.6v0.12l-0.01 0.01v0.02h-0.01v0.02h-0.01v0.01h-0.02v0.01h-0.05v0.01h-0.11c-0.43886-0.43887-1.0772-0.44884-1.3665-0.44884v-0.24935c0.16956 0 0.62837 0 1.0174 0.19948v-3.5408c0-0.2294 0-0.31917-0.69819-0.31917h-0.26931v-0.24935c0.12967 0.01 0.98744 0.0299 1.2468 0.0299 0.20946 0 1.0872-0.0199 1.2468-0.0299v0.24935h-0.2693c-0.69819 0-0.69819 0.0898-0.69819 0.31917z"/><path d="m136.1 819.05v0.3092l-0.02 0.33912-0.0199 0.17953-0.02 0.18951-0.0299 0.19948-0.0299 0.19949-0.0399 0.19948-0.0499 0.20946-0.0499 0.20945-0.0598 0.20946-0.0698 0.20946-0.0798 0.20946-0.0399 0.10971-0.0499 0.10972-0.0499 0.0997-0.0499 0.10971c-0.58847 1.2168-1.4462 1.8652-1.546 1.8652-0.0598 0-0.0997-0.0399-0.0997-0.0997 0-0.0299 0-0.0499 0.18951-0.22941 0.97747-0.98744 1.536-2.5634 1.536-4.628 0-1.6956-0.36905-3.4411-1.5959-4.6878-0.12966-0.11969-0.12966-0.13964-0.12966-0.16957 0-0.0598 0.0399-0.0997 0.0997-0.0997 0.0997 0 0.98744 0.67825 1.5759 1.935 0.50868 1.0872 0.62837 2.1843 0.62837 3.0222z"/><path d="m212.5 830.87h0.8478c0.19949 0 0.29923 0 0.29923 0.19948 0 0.10971-0.0997 0.10971-0.2693 0.10971h-0.81788l0.19948 1.1271c0.0399 0.20946 0.17953 0.90765 0.23938 1.0273 0.0898 0.18951 0.25933 0.33912 0.46878 0.33912 0.0399 0 0.29923 0 0.48874-0.17953-0.43886-0.0399-0.53861-0.38899-0.53861-0.52863 0-0.22941 0.17954-0.3491 0.36905-0.3491 0.25933 0 0.54858 0.21943 0.54858 0.58848 0 0.45881-0.45882 0.68821-0.86776 0.68821-0.33912 0-0.96749-0.17953-1.2567-1.157-0.0599-0.20945-0.0898-0.3092-0.32915-1.556h-0.68821c-0.18951 0-0.29923 0-0.29923-0.1895 0-0.11969 0.0898-0.11969 0.27928-0.11969h0.65829l-0.74806-3.9198c-0.17953-0.95752-0.34909-1.8552-0.86775-1.8552-0.0399 0-0.28925 0-0.47876 0.17954 0.45881 0.0299 0.54858 0.37901 0.54858 0.52863 0 0.2294-0.17953 0.34909-0.36904 0.34909-0.25933 0-0.54858-0.21943-0.54858-0.59845 0-0.43886 0.43886-0.67824 0.8478-0.67824 0.54858 0 0.94755 0.5785 1.1271 0.95752 0.31917 0.62837 0.54858 1.8253 0.55855 1.8951z"/><path d="m217.09 824.53v0.01l-0.01 0.01v0.02h-0.01v0.01l-0.01 0.01v0.01l-0.01 0.01h-0.01v0.01l-0.06 0.06v0.01h-0.01v0.01l-0.01 0.01h-0.01v0.01l-0.01 0.01h-0.01l-0.01 0.01v0.01c-1.2468 1.2468-1.5659 3.1219-1.5659 4.638 0 1.7255 0.37902 3.451 1.6058 4.6878 0.12966 0.11969 0.12966 0.13964 0.12966 0.16956 0 0.0698-0.0399 0.0997-0.0997 0.0997-0.0997 0-0.99741-0.67824-1.5859-1.935-0.50868-1.0872-0.62837-2.1943-0.62837-3.0222 0-0.77799 0.10972-1.9749 0.6583-3.092 0.59845-1.2168 1.4562-1.8652 1.556-1.8652 0.0598 0 0.0997 0.0299 0.0997 0.0997z"/><path d="m220.98 829.9 0.01 0.0199v0.0299l0.01 0.0299 0.03 0.1197 0.02 0.0399 0.01 0.0499 0.02 0.0399 0.01 0.0499 0.02 0.0499 0.0199 0.0499 0.0299 0.0499 0.0199 0.0499 0.0299 0.0499 0.0199 0.0499 0.0299 0.0499 0.0299 0.0399 0.0399 0.0499 0.0299 0.0399 0.0399 0.0499 0.0798 0.0798 0.0499 0.0299 0.0399 0.0299 0.0499 0.0299 0.0299 0.01 0.02 0.0199 0.0598 0.02 0.0199 0.01h0.0299l0.0598 0.02h0.0598l0.0299 0.01h0.0399c0.0499 0 0.28925 0 0.49871-0.12967-0.27928-0.0499-0.47876-0.29922-0.47876-0.5386 0-0.15959 0.10972-0.34909 0.37902-0.34909 0.20946 0 0.52863 0.17953 0.52863 0.5785 0 0.51865-0.5785 0.65829-0.91762 0.65829-0.5785 0-0.9276-0.52863-1.0473-0.75804-0.24935 0.6583-0.78796 0.75804-1.0772 0.75804-1.0273 0-1.5959-1.2867-1.5959-1.526 0-0.0997 0.0997-0.0997 0.11969-0.0997 0.0798 0 0.10971 0.0199 0.12966 0.10972 0.33912 1.0473 0.98744 1.2966 1.3266 1.2966 0.18951 0 0.53861-0.0898 0.53861-0.66827 0-0.3092-0.16956-0.96749-0.53861-2.3539-0.15958-0.6184-0.50868-1.0373-0.93757-1.0373-0.0598 0-0.28925 0-0.4987 0.12966 0.24935 0.0499 0.46878 0.25933 0.46878 0.53861 0 0.2693-0.21943 0.34909-0.36904 0.34909-0.29923 0-0.54858-0.25933-0.54858-0.5785 0-0.45881 0.49871-0.64832 0.93757-0.64832 0.64832 0 1.0074 0.68822 1.0373 0.74806 0.11969-0.36904 0.47876-0.74806 1.0772-0.74806 1.0273 0 1.5959 1.2767 1.5959 1.526 0 0.0997-0.0997 0.0997-0.12966 0.0997-0.0798 0-0.0997-0.0499-0.11969-0.10972-0.32915-1.0672-1.0074-1.3066-1.3266-1.3066-0.38899 0-0.54858 0.31917-0.54858 0.65829 0 0.21943 0.0598 0.43887 0.16956 0.86775z"/><path d="m226.86 826.68h-0.22941c-0.0299-0.15959-0.0898-0.56853-0.18951-0.63834-0.0499-0.0399-0.58847-0.0399-0.68821-0.0399h-1.2767c0.72811 0.64832 0.97746 0.83783 1.3864 1.167 0.51866 0.40895 0.99742 0.83783 0.99742 1.4961 0 0.83783-0.73809 1.3565-1.6258 1.3565-0.86775 0-1.4562-0.60842-1.4562-1.2468 0-0.34909 0.29922-0.38899 0.36904-0.38899 0.16956 0 0.36904 0.11969 0.36904 0.36905 0 0.12966-0.0399 0.36904-0.40894 0.36904 0.21943 0.48873 0.68822 0.64832 1.0174 0.64832 0.69819 0 1.0672-0.53861 1.0672-1.1071 0-0.59845-0.43886-1.0772-0.65829-1.3266l-1.6856-1.6557c-0.0698-0.0598-0.0698-0.0698-0.0698-0.26931h2.8726z"/><path d="m229.75 829.33v0.3092l-0.01 0.16956-0.01 0.16957-0.02 0.17953-0.0199 0.18951-0.0299 0.19948-0.0299 0.19949-0.0399 0.19948-0.0399 0.20946-0.0598 0.20945-0.0598 0.20946-0.0698 0.20946-0.0798 0.20945-0.0399 0.10972-0.0499 0.10972-0.0399 0.0997-0.0499 0.10971c-0.59845 1.2168-1.4562 1.8652-1.556 1.8652-0.0598 0-0.0997-0.0399-0.0997-0.0997 0-0.0299 0-0.0499 0.1895-0.22941 0.97747-0.98744 1.546-2.5634 1.546-4.628 0-1.6956-0.36905-3.4411-1.6058-4.6879-0.12966-0.11969-0.12966-0.13963-0.12966-0.16956 0-0.0598 0.0399-0.0997 0.0997-0.0997 0.0997 0 0.99741 0.67824 1.5859 1.935 0.4987 1.0872 0.61839 2.1843 0.61839 3.0222z"/><path d="m191.33 852.87h0.8478c0.19948 0 0.29923 0 0.29923 0.19948 0 0.10972-0.0997 0.10972-0.26931 0.10972h-0.81788l0.20946 1.1271c0.0399 0.20945 0.17954 0.90764 0.23938 1.0273 0.0798 0.18951 0.24935 0.33912 0.45881 0.33912 0.0399 0 0.29923 0 0.48873-0.17953-0.43886-0.0399-0.5386-0.38899-0.5386-0.52863 0-0.22941 0.17954-0.3491 0.36904-0.3491 0.25933 0 0.54858 0.21944 0.54858 0.58848 0 0.45881-0.45881 0.68822-0.86775 0.68822-0.32915 0-0.95752-0.17954-1.2567-1.157-0.0598-0.20945-0.0898-0.30919-0.32915-1.556h-0.68822c-0.1895 0-0.29922 0-0.29922-0.18951 0-0.11969 0.0898-0.11969 0.27928-0.11969h0.65829l-0.74806-3.9198c-0.17954-0.95752-0.3491-1.8552-0.86775-1.8552-0.0399 0-0.28925 0-0.47876 0.17954 0.45881 0.0299 0.54858 0.37902 0.54858 0.52863 0 0.2294-0.17954 0.34909-0.36905 0.34909-0.25933 0-0.5386-0.21943-0.5386-0.59845 0-0.43886 0.42889-0.67824 0.83783-0.67824 0.54858 0 0.94754 0.5785 1.1271 0.95752 0.31917 0.62837 0.54857 1.8253 0.55855 1.8951z"/><path d="m196.28 846.59v0.02l-0.01 0.01v0.01l-0.01 0.01v0.01h-0.01v0.01l-0.02 0.02v0.01h-0.01l-0.01 0.01v0.01h-0.01v0.01h-0.01v0.01h-0.01v0.01l-0.01 0.01h-0.01v0.01l-0.01 0.01h-0.01v0.01l-0.01 0.01h-0.01v0.01l-0.01 0.01c-1.2468 1.2468-1.5659 3.1219-1.5659 4.638 0 1.7255 0.37901 3.4511 1.6058 4.6878 0.12966 0.11969 0.12966 0.13964 0.12966 0.16956 0 0.0698-0.0399 0.0997-0.0997 0.0997-0.0997 0-0.99742-0.67824-1.5859-1.935-0.50868-1.0872-0.62837-2.1943-0.62837-3.0222 0-0.77799 0.10971-1.9749 0.65829-3.092 0.59845-1.2168 1.4562-1.8652 1.556-1.8652 0.0598 0 0.0997 0.0299 0.0997 0.0997z"/><path d="m200.17 851.97 0.01 0.0199 0.01 0.0299v0.0299l0.02 0.0798 0.02 0.0399 0.01 0.0399 0.01 0.0499 0.0199 0.0399 0.02 0.0499 0.0796 0.1996 0.0897 0.1497 0.0299 0.0399 0.0299 0.0499 0.0399 0.0399 0.0299 0.0499 0.0798 0.0798 0.0998 0.0598 0.0399 0.0299 0.0299 0.01 0.0199 0.0199 0.0897 0.03h0.0199l0.0598 0.02h0.0598l0.0399 0.01h0.0299c0.0499 0 0.28925 0 0.49871-0.12966-0.27928-0.0499-0.47876-0.29923-0.47876-0.53861 0-0.15958 0.10971-0.34909 0.37902-0.34909 0.21943 0 0.5386 0.17953 0.5386 0.5785 0 0.51865-0.58848 0.65829-0.9276 0.65829-0.5785 0-0.92759-0.52863-1.0473-0.75803-0.24936 0.65829-0.78796 0.75803-1.0672 0.75803-1.0373 0-1.6058-1.2867-1.6058-1.526 0-0.0998 0.0997-0.0998 0.11969-0.0998 0.0798 0 0.10972 0.02 0.12967 0.10972 0.33912 1.0473 0.99741 1.2966 1.3266 1.2966 0.18951 0 0.53861-0.0898 0.53861-0.66827 0-0.3092-0.16957-0.96749-0.53861-2.3539-0.15959-0.6184-0.49871-1.0373-0.93757-1.0373-0.0598 0-0.28925 0-0.49871 0.12966 0.24936 0.0499 0.46879 0.25933 0.46879 0.53861 0 0.2693-0.21943 0.34909-0.36905 0.34909-0.29922 0-0.54857-0.25932-0.54857-0.5785 0-0.45881 0.4987-0.64832 0.93757-0.64832 0.65829 0 1.0074 0.68822 1.0373 0.74806 0.11969-0.36904 0.47876-0.74806 1.0772-0.74806 1.0273 0 1.5959 1.2767 1.5959 1.526 0 0.0997-0.0898 0.0997-0.11969 0.0997-0.0898 0-0.10971-0.0499-0.12966-0.10972-0.32915-1.0672-1.0074-1.3066-1.3266-1.3066-0.389 0-0.54858 0.31917-0.54858 0.65829 0 0.21944 0.0598 0.43887 0.16956 0.86776z"/></g><path d="m205.4 851.45v0.1496l-0.01 0.0798v0.0798l-0.02 0.33912-0.02 0.17953-0.0199 0.18951-0.0199 0.19949-0.0798 0.39896-0.0399 0.20946-0.0599 0.20946-0.0598 0.20945-0.0698 0.20946-0.0798 0.20946-0.0399 0.10971-0.0399 0.10972-0.0499 0.0997-0.0499 0.10972c-0.59845 1.2168-1.4562 1.8652-1.556 1.8652-0.0599 0-0.0997-0.0399-0.0997-0.0997 0-0.0299 0-0.0499 0.18951-0.2294 0.97747-0.98745 1.546-2.5634 1.546-4.628 0-1.6956-0.36904-3.4411-1.6058-4.6878-0.12967-0.11969-0.12967-0.13964-0.12967-0.16956 0-0.0598 0.0399-0.0997 0.0997-0.0997 0.0997 0 0.99742 0.67825 1.5859 1.935 0.50868 1.0872 0.62837 2.1843 0.62837 3.0222z"/><g fill-opacity=".78431"><path d="m188.69 819.69h-0.01v0.04l-0.01 0.01v0.01l-0.03 0.03h-0.01v0.01h-0.03l-0.01 0.01h-0.04c-0.22 0-0.95-0.08-1.21-0.1-0.08-0.01-0.19-0.02-0.19-0.21003 0-0.11 0.1-0.11 0.25-0.11 0.48 0 0.49-0.09 0.49-0.17l-0.03-0.2-1.26-4.96c-0.03-0.11-0.05-0.18-0.05-0.34 0-0.57 0.44-0.91 0.91-0.91 0.33 0 0.58 0.19 0.75 0.55 0.18 0.38 0.29 0.96 0.29 0.98 0 0.1-0.08 0.1-0.11 0.1-0.1 0-0.11-0.05-0.14-0.18-0.17-0.65-0.36-1.24-0.76-1.24-0.3 0-0.3 0.32-0.3 0.46 0 0.24 0.01 0.29 0.06 0.48z"/><path d="m192.38 810.52v0.03l-0.01 0.01v0.01h-0.01v0.01l-0.01 0.01v0.01h-0.01v0.01h-0.01v0.01h-0.01v0.01h-0.01v0.01l-0.05 0.05v0.01h-0.01l-0.04 0.04c-1.24 1.25-1.56 3.13-1.56 4.65 0 1.73 0.38 3.46 1.6 4.7 0.13 0.12 0.13 0.14 0.13 0.17 0 0.07-0.04 0.1-0.1 0.1-0.1 0-0.99-0.68-1.58-1.94-0.51-1.09-0.63-2.2-0.63-3.03 0-0.78 0.11-1.98 0.66-3.1 0.6-1.22 1.45-1.87 1.55-1.87 0.06 0 0.1 0.03 0.1 0.1z"/><path d="m195.69 816.2v0.02l0.02 0.06 0.04 0.16 0.02 0.05 0.01 0.04 0.08 0.2 0.03 0.05 0.02 0.05 0.06 0.1 0.03 0.04 0.03 0.05 0.04 0.04 0.04 0.05 0.08 0.08 0.04 0.03 0.1 0.06 0.02 0.01 0.03 0.02 0.03 0.01 0.02 0.01 0.03 0.01h0.03l0.06 0.02h0.06l0.03 0.01h0.03c0.05 0 0.29 0 0.5-0.13-0.28-0.05-0.48-0.3-0.48-0.54 0-0.16 0.11-0.35 0.38-0.35 0.22 0 0.54 0.18 0.54 0.58 0 0.52-0.59 0.66-0.93 0.66-0.57 0-0.93-0.53-1.04-0.76-0.25 0.66-0.79 0.76-1.08 0.76-1.04 0-1.61-1.29-1.61-1.53 0-0.1 0.1-0.1 0.12-0.1 0.08 0 0.11 0.02 0.13 0.11 0.34 1.05 1 1.3 1.34 1.3 0.19 0 0.54-0.09 0.54-0.67 0-0.31-0.17-0.97-0.54-2.36-0.16-0.62-0.51-1.04-0.95-1.04-0.06 0-0.29 0-0.5 0.13 0.25 0.05 0.47 0.26 0.47 0.54 0 0.27-0.22 0.35-0.37 0.35-0.3 0-0.55-0.26-0.55-0.58 0-0.46 0.5-0.65 0.94-0.65 0.66 0 1.02 0.69 1.05 0.75 0.12-0.37 0.48-0.75 1.08-0.75 1.02 0 1.59 1.28 1.59 1.53 0 0.1-0.09 0.1-0.12 0.1-0.09 0-0.11-0.05-0.13-0.11-0.33-1.07-1-1.31-1.32-1.31-0.39 0-0.55 0.32-0.55 0.66 0 0.22 0.06 0.44 0.17 0.87z"/><path d="m200.61 815.39v0.31l-0.02 0.34-0.02 0.18-0.02 0.19-0.06 0.4-0.04 0.2-0.1 0.42-0.06 0.21-0.07 0.21-0.08 0.21-0.04 0.11-0.05 0.11-0.05 0.1-0.05 0.11c-0.6 1.22-1.45 1.87-1.55 1.87-0.06 0-0.1-0.04-0.1-0.1 0-0.03 0-0.05 0.19-0.23 0.97-0.99003 1.54-2.57 1.54-4.64 0-1.7-0.37-3.45-1.6-4.7-0.13-0.12-0.13-0.14-0.13-0.17 0-0.06 0.04-0.1 0.1-0.1 0.1 0 0.99 0.68 1.58 1.94 0.51 1.09 0.63 2.19 0.63 3.03z"/></g></g><path d="m138.67 813.04 68.768 12.002" fill="none" marker-end="url(#a)" marker-start="url(#b)" stroke="#f00" stroke-opacity=".31373" stroke-width=".7583"/></g><g fill-rule="evenodd"><ellipse transform="scale(1,-1)" cx="184.98" cy="-821.07" rx=".94273" ry=".94273" fill="#f00" fill-opacity=".31373" opacity=".97" stroke="#000" stroke-linecap="square" stroke-miterlimit="10.433" stroke-opacity=".31373" stroke-width=".49531"/><ellipse transform="scale(1,-1)" cx="184.97" cy="-846.31" rx=".94273" ry=".94273" fill="#0000fb" fill-opacity=".31373" opacity=".97" stroke="#000" stroke-linecap="square" stroke-miterlimit="10.433" stroke-opacity=".31373" stroke-width=".49531"/><rect transform="scale(1,-1)" x="159.61" y="-877.93" width="48.543" height="13.585" fill-opacity=".1401" opacity=".97" stroke="none"/><g transform="matrix(.95579 0 0 .95579 -42.055 207.96)" stroke="#000" stroke-miterlimit="10.433" stroke-opacity="1" stroke-width="0" ns0:preamble="default_packages.tex" ns0:text="$\\text{Concave}$\n" xml:space="preserve"><path d="m149.27 710.52v-0.19l0.02-0.19 0.02-0.18 0.03-0.18 0.04-0.18 0.05-0.18 0.06-0.16 0.06-0.17 0.07-0.16 0.08-0.16 0.18-0.3 0.1-0.14 0.1-0.13 0.11-0.13 0.12-0.13 0.12-0.12 0.13-0.11 0.13-0.1 0.14-0.1 0.28-0.18 0.15-0.08 0.16-0.07 0.15-0.06 0.16-0.06 0.16-0.04 0.17-0.04 0.34-0.06 0.17-0.01h0.17c1.63 0 2.6 1.38 2.6 2.53 0 0.1 0 0.17-0.13 0.17-0.11 0-0.11-0.06-0.12-0.16-0.08-1.42-1.14-2.24-2.23-2.24-0.61 0-2.56 0.34-2.56 3.3 0 2.97 1.94 3.31 2.55 3.31 1.09 0 1.97-0.9 2.17-2.35 0.02-0.14 0.02-0.17 0.16-0.17 0.16 0 0.16 0.03 0.16 0.24v2.35c0 0.17 0 0.24-0.11 0.24-0.04 0-0.08 0-0.16-0.12l-0.49-0.74c-0.37 0.36-0.88 0.86-1.84 0.86-1.86 0-3.47-1.58-3.47-3.61z"/><path d="m160.6 709.25v0.12l-0.01 0.12-0.01 0.11-0.02 0.12-0.09 0.33-0.04 0.1-0.05 0.1-0.04 0.1-0.06 0.1-0.06 0.09-0.06 0.1-0.06 0.08-0.07 0.09-0.08 0.08-0.07 0.08-0.08 0.07-0.09 0.07-0.08 0.06-0.09 0.07-0.09 0.05-0.2 0.1-0.2 0.08-0.1 0.03-0.11 0.03-0.11 0.02-0.33 0.03-0.01-0.22c0.44 0 0.87-0.22 1.13-0.65s0.26-1 0.26-1.38c0-0.36 0-0.89-0.22-1.33-0.22-0.45-0.66-0.74-1.16-0.74-0.43 0-0.87 0.21-1.14 0.67-0.25 0.44-0.25 1.04-0.25 1.4 0 0.39 0 0.92 0.24 1.36 0.27 0.46 0.74 0.67 1.14 0.67l0.01 0.22c-1.25 0-2.21-1.09-2.21-2.33 0-1.28 1.03-2.23 2.2-2.23 1.21 0 2.21 0.97 2.21 2.23z"/><path d="m161.99 710.54v-2.66c0-0.45-0.11-0.45-0.78-0.45v-0.3c0.35 0.01 0.86 0.03 1.12 0.03s0.78-0.02 1.12-0.03v0.3c-0.67 0-0.78 0-0.78 0.45v1.83c0 1.03 0.71 1.59 1.35 1.59 0.63 0 0.74-0.54 0.74-1.1v-2.32c0-0.45-0.11-0.45-0.78-0.45v-0.3c0.35 0.01 0.86 0.03 1.13 0.03 0.26 0 0.77-0.02 1.11-0.03v0.3c-0.51 0-0.76 0-0.77 0.3v1.9c0 0.85 0 1.16-0.31 1.52-0.14 0.17-0.47 0.37-1.05 0.37-0.73 0-1.2-0.43-1.48-1.05v1.05l-1.4-0.11v-0.31c0.69 0 0.78-0.07 0.78-0.56z"/><path d="m167.59 709.29v0.15l0.01 0.07v0.14l0.01 0.07 0.06 0.36 0.03 0.11 0.06 0.2 0.04 0.09 0.03 0.09 0.05 0.08 0.04 0.07 0.1 0.14 0.05 0.06 0.15 0.15 0.06 0.04 0.05 0.04 0.12 0.06 0.05 0.03 0.12 0.04 0.05 0.01 0.06 0.02 0.05 0.01h0.05l0.06 0.01h0.05c0.09 0 0.71-0.01 1.06-0.37-0.4-0.03-0.46-0.33-0.46-0.46 0-0.26 0.17-0.45 0.45-0.45 0.26 0 0.46 0.16 0.46 0.46 0 0.68-0.76 1.07-1.52 1.07-1.25 0-2.17-1.08-2.17-2.31 0-1.27 0.99-2.25 2.15-2.25 1.33 0 1.65 1.19 1.65 1.29s-0.1 0.1-0.13 0.1c-0.09 0-0.11-0.04-0.13-0.1-0.29-0.93-0.93-1.05-1.3-1.05-0.53 0-1.41 0.43-1.41 2.03z"/><path d="m174.17 707.88 0.01-0.04v-0.03l0.03-0.12 0.01-0.03 0.01-0.04 0.01-0.03 0.02-0.04 0.02-0.03 0.01-0.04 0.04-0.06 0.02-0.04 0.03-0.03 0.02-0.03 0.08-0.08 0.06-0.04 0.03-0.03 0.03-0.02 0.04-0.01 0.03-0.02 0.04-0.01 0.03-0.02 0.04-0.01h0.04l0.04-0.01h0.09c0.21 0 0.82 0.13 0.82 0.94v0.56h-0.25v-0.56c0-0.58-0.25-0.64-0.36-0.64-0.33 0-0.37 0.45-0.37 0.5v1.99c0 0.41 0 0.8-0.36 1.17-0.39 0.39-0.89 0.55-1.36 0.55-0.82 0-1.51-0.47-1.51-1.13 0-0.29 0.2-0.46 0.46-0.46 0.28 0 0.46 0.19 0.46 0.45 0 0.12-0.05 0.45-0.51 0.46 0.27 0.35 0.76 0.46 1.07 0.46 0.49 0 1.06-0.39 1.06-1.27v-1.57c0-0.95-0.72-1.29-1.17-1.29-0.48 0-0.89 0.35-0.89 0.85 0 0.55 0.42 1.37 2.06 1.43v0.21c-0.51-0.03-1.2-0.06-1.83-0.36-0.75-0.34-1-0.85-1-1.29 0-0.81 0.97-1.05 1.6-1.05 0.65 0 1.11 0.39 1.3 0.86z"/><path d="m179.7 710.43 0.01 0.02 0.01 0.03 0.01 0.02 0.01 0.03 0.01 0.02 0.01 0.03 0.02 0.02 0.01 0.03 0.02 0.03 0.01 0.03 0.02 0.02 0.06 0.09 0.1 0.1 0.06 0.04 0.04 0.03 0.03 0.02 0.04 0.02 0.04 0.01 0.04 0.02 0.05 0.01 0.04 0.02 0.05 0.01 0.06 0.01h0.08l0.03 0.01h0.06v0.31c-0.23-0.02-0.52-0.03-0.75-0.03-0.24 0-0.7 0.02-0.87 0.03v-0.31c0.37-0.01 0.48-0.24 0.48-0.43 0-0.09-0.02-0.13-0.06-0.24l-1.02-2.53-1.11 2.77c-0.06 0.13-0.06 0.15-0.06 0.17 0 0.26 0.39 0.26 0.57 0.26v0.31c-0.3-0.01-0.86-0.03-1.09-0.03-0.27 0-0.67 0.01-0.97 0.03v-0.31c0.63 0 0.67-0.06 0.8-0.37l1.44-3.53c0.06-0.13 0.08-0.18 0.21-0.18s0.16 0.08 0.21 0.18z"/><path d="m181.64 709.42 0.01 0.21c0.06 1.48 0.9 1.73 1.24 1.73 1.02 0 1.12-1.34 1.12-1.73h-2.36l-0.01-0.21h2.78c0.22 0 0.25 0 0.25 0.21 0 0.98-0.54 1.95-1.78 1.95-1.16 0-2.08-1.03-2.08-2.27 0-1.33 1.05-2.29 2.2-2.29 1.21 0 1.66 1.1 1.66 1.29 0 0.1-0.08 0.12-0.13 0.12-0.09 0-0.11-0.06-0.13-0.14-0.35-1.03-1.25-1.03-1.34-1.03-0.5 0-0.9 0.3-1.13 0.67-0.3 0.48-0.3 1.13-0.3 1.49z"/></g></g></g></g></g></g></g></g></g></g></g></g></g></g></g></g></g></g></g></g></g></g></g></g></g></g></g></g></g></g></g></g></g></g></g></g></g>
  </g>
 </g>
</svg>