<svg width="260mm" height="110mm" version="1.1" viewBox="0 0 424.1 180.28" xmlns="http://www.w3.org/2000/svg" xmlns:ns0="http://www.iki.fi/pav/software/textext/">
 <defs>
  <marker id="h" overflow="visible" orient="auto">
   <path transform="matrix(-.4 0 0 -.4 -4 0)" d="m0 0 5-5-17.5 5 17.5 5z" fill-rule="evenodd" stroke="#000" stroke-width="1pt"/>
  </marker>
  <marker id="d" overflow="visible" orient="auto">
   <path transform="matrix(-.4 0 0 -.4 -4 0)" d="m0 0 5-5-17.5 5 17.5 5z" fill-rule="evenodd" stroke="#000" stroke-width="1pt"/>
  </marker>
  <marker id="j" overflow="visible" orient="auto">
   <path transform="matrix(-.4 0 0 -.4 -4 0)" d="m0 0 5-5-17.5 5 17.5 5z" fill-rule="evenodd" stroke="#000" stroke-width="1pt"/>
  </marker>
  <marker id="f" overflow="visible" orient="auto">
   <path transform="matrix(-.4 0 0 -.4 -4 0)" d="m0 0 5-5-17.5 5 17.5 5z" fill-rule="evenodd" stroke="#000" stroke-width="1pt"/>
  </marker>
  <marker id="k" overflow="visible" orient="auto">
   <path transform="matrix(-.4 0 0 -.4 -4 0)" d="m0 0 5-5-17.5 5 17.5 5z" fill-rule="evenodd" stroke="#000" stroke-width="1pt"/>
  </marker>
  <marker id="e" overflow="visible" orient="auto">
   <path transform="matrix(-.4 0 0 -.4 -4 0)" d="m0 0 5-5-17.5 5 17.5 5z" fill-rule="evenodd" stroke="#000" stroke-width="1pt"/>
  </marker>
  <marker id="i" overflow="visible" orient="auto">
   <path transform="matrix(-.4 0 0 -.4 -4 0)" d="m0 0 5-5-17.5 5 17.5 5z" fill-rule="evenodd" stroke="#000" stroke-width="1pt"/>
  </marker>
  <marker id="c" overflow="visible" orient="auto">
   <path transform="matrix(-.4 0 0 -.4 -4 0)" d="m0 0 5-5-17.5 5 17.5 5z" fill-rule="evenodd" stroke="#000" stroke-width="1pt"/>
  </marker>
  <marker id="b" overflow="visible" orient="auto">
   <path transform="matrix(.2 0 0 .2 1.48 .2)" d="m-2.5-1c0 2.76-2.24 5-5 5s-5-2.24-5-5 2.24-5 5-5 5 2.24 5 5z" fill="#f00" fill-opacity=".31373" fill-rule="evenodd" stroke="#f00" stroke-opacity=".31373" stroke-width="1pt"/>
  </marker>
  <marker id="a" overflow="visible" orient="auto">
   <path transform="matrix(.2 0 0 .2 1.48 .2)" d="m-2.5-1c0 2.76-2.24 5-5 5s-5-2.24-5-5 2.24-5 5-5 5 2.24 5 5z" fill="#f00" fill-opacity=".31373" fill-rule="evenodd" stroke="#f00" stroke-opacity=".31373" stroke-width="1pt"/>
  </marker>
  <marker id="g" overflow="visible" orient="auto">
   <path transform="matrix(-.4 0 0 -.4 -4 0)" d="m0 0 5-5-17.5 5 17.5 5z" fill-rule="evenodd" stroke="#000" stroke-width="1pt"/>
  </marker>
 </defs>
 <g transform="translate(6.1615 33.654)">
  <g transform="translate(7.2378 -59.353)">
   <g transform="matrix(1.2506,0,0,-1.2506,-72.165,1072.2)" fill-rule="evenodd" stroke="#000" stroke-miterlimit="10.433" ns0:preamble="default_packages.tex" ns0:text="$x$\n$y$\n" xml:space="preserve"><g transform="matrix(.79961 0 0 -.79961 58.988 860.59)"><g transform="matrix(1.2506,0,0,-1.2506,-72.165,1072.2)" fill-rule="evenodd" stroke="#000" stroke-miterlimit="10.433" ns0:preamble="default_packages.tex" ns0:text="$x$\n$y$\n" xml:space="preserve"><g transform="rotate(180 212.4 757.83)" fill-rule="evenodd" stroke="#000" stroke-miterlimit="10.433" stroke-opacity=".62745"><g transform="matrix(.79961 0 0 -.79961 -41.225 831.43)" stroke="#000" stroke-opacity=".62745" stroke-width=".7"><g transform="matrix(1.2506,0,0,-1.2506,-72.165,1072.2)" fill-rule="evenodd" stroke="#000" stroke-miterlimit="10.433" stroke-opacity=".62745" stroke-width=".55973" ns0:preamble="default_packages.tex" ns0:text="$x$\n$y$\n" xml:space="preserve"><g transform="matrix(-.65715 0 0 -.65715 540.07 1459.9)" fill-rule="evenodd" stroke="#000" stroke-miterlimit="10.433" stroke-opacity=".62745" stroke-width="2.2826" ns0:preamble="default_packages.tex" ns0:text="$x_1 x_2 x f(x_1) f(x_2) f(x)$\n" xml:space="preserve"><g transform="matrix(1.0026 0 0 1.0026 37.987 78.78)" fill-rule="evenodd" stroke-miterlimit="10.433" stroke-width="3.4151"><g transform="matrix(-1.5131 0 0 1.5112 489.39 -234.16)" fill-rule="evenodd" stroke="#000" stroke-miterlimit="10.433" stroke-opacity=".31373" stroke-width=".96316" ns0:preamble="default_packages.tex" ns0:text="$x$\n$y$\n" xml:space="preserve"><g fill="none" stroke="#000" stroke-miterlimit="10.433" stroke-opacity=".31373" stroke-width=".96316"><path d="m171.51 757.67c7.6897 25.267 22 51.109 37.039 51.316 12.208-0.15688 28.413-24.989 36.962-50.464" fill="none" stroke="#000" stroke-miterlimit="10.433" stroke-opacity=".31373" stroke-width=".96316"/></g></g></g><g transform="matrix(1.2168 0 0 -1.2168 183.62 863.82)"><g transform="translate(7.2378 -59.353)"><g transform="matrix(1.2506,0,0,-1.2506,-72.165,1072.2)" fill-rule="evenodd" stroke="#000" stroke-miterlimit="10.433" ns0:preamble="default_packages.tex" ns0:text="$x$\n$y$\n" xml:space="preserve"><g transform="matrix(.79961 0 0 -.79961 58.988 860.59)"><g transform="matrix(1.2506,0,0,-1.2506,-72.165,1072.2)" fill-rule="evenodd" stroke="#000" stroke-miterlimit="10.433" ns0:preamble="default_packages.tex" ns0:text="$x$\n$y$\n" xml:space="preserve"><g transform="rotate(180 212.4 757.83)" fill-rule="evenodd" stroke="#000" stroke-miterlimit="10.433"><g transform="matrix(.79961 0 0 -.79961 -41.225 831.43)" stroke-width=".7"><g transform="matrix(-1 0 0 -1 578.27 350.25)"><g transform="translate(7.2378 -59.353)"><g transform="matrix(1.2506,0,0,-1.2506,-72.165,1072.2)" fill-rule="evenodd" stroke="#000" stroke-miterlimit="10.433" ns0:preamble="default_packages.tex" ns0:text="$x$\n$y$\n" xml:space="preserve"><g transform="matrix(.79961 0 0 -.79961 58.988 860.59)"><g transform="matrix(1.2506,0,0,-1.2506,-72.165,1072.2)" fill-rule="evenodd" stroke="#000" stroke-miterlimit="10.433" ns0:preamble="default_packages.tex" ns0:text="$x$\n$y$\n" xml:space="preserve"><g transform="matrix(.65714 0 0 .65714 -163.7 81.594)" stroke-opacity="1" stroke-width="2.2826" ns0:preamble="default_packages.tex" ns0:text="$x_1 x_2 x f(x_1) f(x_2) f(x)$\n" xml:space="preserve"><g transform="matrix(1.0026 0 0 1.0026 37.987 78.78)" fill-rule="evenodd" stroke="#000" stroke-miterlimit="10.433" stroke-opacity="1" stroke-width="3.4151" ns0:preamble="default_packages.tex" ns0:text="$l(x)$\n" xml:space="preserve"><g transform="matrix(.71844 0 0 .71844 145.04 269.01)" fill-rule="evenodd" stroke="#000" stroke-miterlimit="10.433"><g transform="matrix(1.3845 0 0 1.3845 435.87 -196.36)" stroke-opacity="1" stroke-width="3.4334"><g transform="translate(11.481)" fill-rule="evenodd" stroke="#000" stroke-miterlimit="10.433"><path d="m-148.42 764.63v111.81" fill-opacity=".39216" marker-end="url(#j)" stroke-opacity=".62745" stroke-width=".36605"/><path d="m-154.86 772.2h139.91" fill-opacity=".39216" marker-end="url(#f)" stroke-opacity=".62745" stroke-width=".36605"/><g transform="matrix(.68111 0 0 .68112 -216.69 335.79)" stroke-opacity="1" stroke-width="3.3606" ns0:preamble="default_packages.tex" ns0:text="$x$\n$y$\n$\\langle y \\rangle$\n$\\langle x \\rangle$\n$\\text{Point of averages}$\n$\\text{Regression line}$\n$\\text{SD line}$\n$\\rho(x,y)\\sigma_y$\n$\\sigma_x$\n" xml:space="preserve"><g transform="matrix(1.5 0 0 1.5 69.402 -429.08)" fill-opacity=".62745" fill-rule="evenodd" stroke="#000" stroke-miterlimit="10.433" stroke-opacity="1" stroke-width="0" ns0:preamble="default_packages.tex" ns0:text="$x f$\n" xml:space="preserve"><path d="m150.06 709.38 0.01 0.02 0.01 0.03v0.03l0.02 0.08 0.02 0.04 0.01 0.04 0.01 0.05 0.02 0.04 0.1 0.25 0.09 0.15 0.03 0.04 0.03 0.05 0.04 0.04 0.03 0.05 0.04 0.04 0.05 0.04 0.04 0.03 0.05 0.03 0.04 0.03 0.03 0.01 0.03 0.02 0.02 0.01 0.06 0.02h0.03l0.02 0.01 0.03 0.01h0.07l0.03 0.01h0.03c0.05 0 0.29 0 0.5-0.13-0.28-0.05-0.48-0.3-0.48-0.54 0-0.16 0.11-0.35 0.38-0.35 0.22 0 0.54 0.18 0.54 0.58 0 0.52-0.59 0.66-0.93 0.66-0.58 0-0.93-0.53-1.05-0.76-0.25 0.66-0.78 0.76-1.07 0.76-1.04 0-1.61-1.29-1.61-1.53 0-0.1 0.1-0.1 0.12-0.1 0.08 0 0.11 0.02 0.13 0.11 0.34 1.05 1 1.3 1.34 1.3 0.19 0 0.53-0.09 0.53-0.67 0-0.31-0.17-0.97-0.53-2.36-0.16-0.62-0.51-1.04-0.95-1.04-0.06 0-0.29 0-0.5 0.13 0.25 0.05 0.47 0.26 0.47 0.54 0 0.27-0.22 0.35-0.37 0.35-0.3 0-0.55-0.26-0.55-0.58 0-0.46 0.5-0.65 0.94-0.65 0.66 0 1.02 0.69 1.05 0.75 0.11-0.37 0.47-0.75 1.07-0.75 1.03 0 1.6 1.28 1.6 1.53 0 0.1-0.09 0.1-0.12 0.1-0.09 0-0.11-0.05-0.13-0.11-0.33-1.07-1.01-1.31-1.33-1.31-0.39 0-0.55 0.32-0.55 0.66 0 0.22 0.06 0.44 0.17 0.87z"/><path d="m17.293 815.97h0.85c0.2 0 0.3 0 0.3 0.2 0 0.11-0.1 0.11-0.27 0.11h-0.82l0.21 1.13c0.04 0.21 0.17 0.91 0.23 1.03 0.09 0.19 0.26 0.34 0.47 0.34 0.04 0 0.3 0 0.49-0.18-0.44-0.04-0.54-0.39-0.54-0.53 0-0.23 0.18-0.35 0.37-0.35 0.26 0 0.55 0.22 0.55 0.59 0 0.46-0.46 0.69-0.87 0.69-0.34 0-0.97-0.18-1.26-1.16-0.06-0.21-0.09-0.31-0.33-1.56h-0.69c-0.19 0-0.3 0-0.3-0.19 0-0.12 0.09-0.12 0.28-0.12h0.66l-0.75-3.93c-0.18-0.96-0.35-1.86-0.87-1.86-0.04 0-0.29 0-0.48 0.18 0.46 0.03 0.55 0.38 0.55 0.53 0 0.23-0.18 0.35-0.37 0.35-0.26 0-0.55-0.22-0.55-0.6 0-0.44 0.44-0.68 0.85-0.68 0.55 0 0.95 0.58 1.13 0.96 0.32 0.63 0.55 1.83 0.56 1.9z"/></g></g></g><g transform="matrix(1.2202 0 0 -1.2202 -305.84 1230.5)"><g transform="matrix(1.2506,0,0,-1.2506,-72.165,1072.2)" fill-rule="evenodd" stroke="#000" stroke-miterlimit="10.433" ns0:preamble="default_packages.tex" ns0:text="$x$\n$y$\n" xml:space="preserve"/></g></g><g transform="matrix(1.3232 0 0 1.3232 36.65 113)" fill-opacity=".39216" stroke-opacity=".31373" stroke-width="0" ns0:preamble="default_packages.tex" ns0:text="$\\text{Concave}$\n" xml:space="preserve"><path d="m149.27 710.52v-0.19l0.02-0.19 0.02-0.18 0.03-0.18 0.04-0.18 0.05-0.18 0.06-0.16 0.06-0.17 0.07-0.16 0.08-0.16 0.18-0.3 0.1-0.14 0.1-0.13 0.11-0.13 0.12-0.13 0.12-0.12 0.13-0.11 0.13-0.1 0.14-0.1 0.28-0.18 0.15-0.08 0.16-0.07 0.15-0.06 0.16-0.06 0.16-0.04 0.17-0.04 0.34-0.06 0.17-0.01h0.17c1.63 0 2.6 1.38 2.6 2.53 0 0.1 0 0.17-0.13 0.17-0.11 0-0.11-0.06-0.12-0.16-0.08-1.42-1.14-2.24-2.23-2.24-0.61 0-2.56 0.34-2.56 3.3 0 2.97 1.94 3.31 2.55 3.31 1.09 0 1.97-0.9 2.17-2.35 0.02-0.14 0.02-0.17 0.16-0.17 0.16 0 0.16 0.03 0.16 0.24v2.35c0 0.17 0 0.24-0.11 0.24-0.04 0-0.08 0-0.16-0.12l-0.49-0.74c-0.37 0.36-0.88 0.86-1.84 0.86-1.86 0-3.47-1.58-3.47-3.61z"/><path d="m160.6 709.25v0.12l-0.01 0.12-0.01 0.11-0.02 0.12-0.09 0.33-0.04 0.1-0.05 0.1-0.04 0.1-0.06 0.1-0.06 0.09-0.06 0.1-0.06 0.08-0.07 0.09-0.08 0.08-0.07 0.08-0.08 0.07-0.09 0.07-0.08 0.06-0.09 0.07-0.09 0.05-0.2 0.1-0.2 0.08-0.1 0.03-0.11 0.03-0.11 0.02-0.33 0.03-0.01-0.22c0.44 0 0.87-0.22 1.13-0.65s0.26-1 0.26-1.38c0-0.36 0-0.89-0.22-1.33-0.22-0.45-0.66-0.74-1.16-0.74-0.43 0-0.87 0.21-1.14 0.67-0.25 0.44-0.25 1.04-0.25 1.4 0 0.39 0 0.92 0.24 1.36 0.27 0.46 0.74 0.67 1.14 0.67l0.01 0.22c-1.25 0-2.21-1.09-2.21-2.33 0-1.28 1.03-2.23 2.2-2.23 1.21 0 2.21 0.97 2.21 2.23z"/><path d="m161.99 710.54v-2.66c0-0.45-0.11-0.45-0.78-0.45v-0.3c0.35 0.01 0.86 0.03 1.12 0.03s0.78-0.02 1.12-0.03v0.3c-0.67 0-0.78 0-0.78 0.45v1.83c0 1.03 0.71 1.59 1.35 1.59 0.63 0 0.74-0.54 0.74-1.1v-2.32c0-0.45-0.11-0.45-0.78-0.45v-0.3c0.35 0.01 0.86 0.03 1.13 0.03 0.26 0 0.77-0.02 1.11-0.03v0.3c-0.51 0-0.76 0-0.77 0.3v1.9c0 0.85 0 1.16-0.31 1.52-0.14 0.17-0.47 0.37-1.05 0.37-0.73 0-1.2-0.43-1.48-1.05v1.05l-1.4-0.11v-0.31c0.69 0 0.78-0.07 0.78-0.56z"/><path d="m167.59 709.29v0.15l0.01 0.07v0.14l0.01 0.07 0.06 0.36 0.03 0.11 0.06 0.2 0.04 0.09 0.03 0.09 0.05 0.08 0.04 0.07 0.1 0.14 0.05 0.06 0.15 0.15 0.06 0.04 0.05 0.04 0.12 0.06 0.05 0.03 0.12 0.04 0.05 0.01 0.06 0.02 0.05 0.01h0.05l0.06 0.01h0.05c0.09 0 0.71-0.01 1.06-0.37-0.4-0.03-0.46-0.33-0.46-0.46 0-0.26 0.17-0.45 0.45-0.45 0.26 0 0.46 0.16 0.46 0.46 0 0.68-0.76 1.07-1.52 1.07-1.25 0-2.17-1.08-2.17-2.31 0-1.27 0.99-2.25 2.15-2.25 1.33 0 1.65 1.19 1.65 1.29s-0.1 0.1-0.13 0.1c-0.09 0-0.11-0.04-0.13-0.1-0.29-0.93-0.93-1.05-1.3-1.05-0.53 0-1.41 0.43-1.41 2.03z"/><path d="m174.17 707.88 0.01-0.04v-0.03l0.03-0.12 0.01-0.03 0.01-0.04 0.01-0.03 0.02-0.04 0.02-0.03 0.01-0.04 0.04-0.06 0.02-0.04 0.03-0.03 0.02-0.03 0.08-0.08 0.06-0.04 0.03-0.03 0.03-0.02 0.04-0.01 0.03-0.02 0.04-0.01 0.03-0.02 0.04-0.01h0.04l0.04-0.01h0.09c0.21 0 0.82 0.13 0.82 0.94v0.56h-0.25v-0.56c0-0.58-0.25-0.64-0.36-0.64-0.33 0-0.37 0.45-0.37 0.5v1.99c0 0.41 0 0.8-0.36 1.17-0.39 0.39-0.89 0.55-1.36 0.55-0.82 0-1.51-0.47-1.51-1.13 0-0.29 0.2-0.46 0.46-0.46 0.28 0 0.46 0.19 0.46 0.45 0 0.12-0.05 0.45-0.51 0.46 0.27 0.35 0.76 0.46 1.07 0.46 0.49 0 1.06-0.39 1.06-1.27v-1.57c0-0.95-0.72-1.29-1.17-1.29-0.48 0-0.89 0.35-0.89 0.85 0 0.55 0.42 1.37 2.06 1.43v0.21c-0.51-0.03-1.2-0.06-1.83-0.36-0.75-0.34-1-0.85-1-1.29 0-0.81 0.97-1.05 1.6-1.05 0.65 0 1.11 0.39 1.3 0.86z"/><path d="m179.7 710.43 0.01 0.02 0.01 0.03 0.01 0.02 0.01 0.03 0.01 0.02 0.01 0.03 0.02 0.02 0.01 0.03 0.02 0.03 0.01 0.03 0.02 0.02 0.06 0.09 0.1 0.1 0.06 0.04 0.04 0.03 0.03 0.02 0.04 0.02 0.04 0.01 0.04 0.02 0.05 0.01 0.04 0.02 0.05 0.01 0.06 0.01h0.08l0.03 0.01h0.06v0.31c-0.23-0.02-0.52-0.03-0.75-0.03-0.24 0-0.7 0.02-0.87 0.03v-0.31c0.37-0.01 0.48-0.24 0.48-0.43 0-0.09-0.02-0.13-0.06-0.24l-1.02-2.53-1.11 2.77c-0.06 0.13-0.06 0.15-0.06 0.17 0 0.26 0.39 0.26 0.57 0.26v0.31c-0.3-0.01-0.86-0.03-1.09-0.03-0.27 0-0.67 0.01-0.97 0.03v-0.31c0.63 0 0.67-0.06 0.8-0.37l1.44-3.53c0.06-0.13 0.08-0.18 0.21-0.18s0.16 0.08 0.21 0.18z"/><path d="m181.64 709.42 0.01 0.21c0.06 1.48 0.9 1.73 1.24 1.73 1.02 0 1.12-1.34 1.12-1.73h-2.36l-0.01-0.21h2.78c0.22 0 0.25 0 0.25 0.21 0 0.98-0.54 1.95-1.78 1.95-1.16 0-2.08-1.03-2.08-2.27 0-1.33 1.05-2.29 2.2-2.29 1.21 0 1.66 1.1 1.66 1.29 0 0.1-0.08 0.12-0.13 0.12-0.09 0-0.11-0.06-0.13-0.14-0.35-1.03-1.25-1.03-1.34-1.03-0.5 0-0.9 0.3-1.13 0.67-0.3 0.48-0.3 1.13-0.3 1.49z"/></g></g></g></g><g transform="rotate(180 212.4 757.83)" stroke-opacity=".62745"><g transform="matrix(.79961 0 0 -.79961 -41.225 831.43)" stroke="#000" stroke-opacity=".62745" stroke-width=".7"><g transform="matrix(1.2506,0,0,-1.2506,-72.165,1072.2)" fill-rule="evenodd" stroke="#000" stroke-miterlimit="10.433" stroke-opacity=".62745" stroke-width=".55973" ns0:preamble="default_packages.tex" ns0:text="$x$\n$y$\n" xml:space="preserve"><g transform="matrix(-.65715 0 0 -.65715 540.07 1459.9)" fill-rule="evenodd" stroke="#000" stroke-miterlimit="10.433" stroke-opacity=".62745" stroke-width="2.2826" ns0:preamble="default_packages.tex" ns0:text="$x_1 x_2 x f(x_1) f(x_2) f(x)$\n" xml:space="preserve"><g stroke="#000" stroke-opacity=".62745"><g fill-rule="evenodd" stroke="#000" stroke-miterlimit="10.433"><path d="m434.49 969.51v114.13" fill-opacity=".62745" marker-end="url(#k)" stroke-opacity=".62745" stroke-width=".36504"/><path d="m427.92 977.24h142.81" fill-opacity=".62745" marker-end="url(#e)" stroke-opacity=".62745" stroke-width=".36504"/><g transform="matrix(.6952 0 0 .6952 364.81 531.8)" fill-opacity=".78431" stroke-opacity=".78431" stroke-width="3.2834" ns0:preamble="default_packages.tex" ns0:text="$x$\n$y$\n$\\langle y \\rangle$\n$\\langle x \\rangle$\n$\\text{Point of averages}$\n$\\text{Regression line}$\n$\\text{SD line}$\n$\\rho(x,y)\\sigma_y$\n$\\sigma_x$\n" xml:space="preserve"><g transform="matrix(1.5 0 0 1.5 69.402 -429.08)" fill-opacity=".62745" fill-rule="evenodd" stroke="#000" stroke-miterlimit="10.433" stroke-opacity=".78431" stroke-width="0" ns0:preamble="default_packages.tex" ns0:text="$x f$\n" xml:space="preserve"><path d="m150.06 709.38 0.01 0.02 0.01 0.03v0.03l0.02 0.08 0.02 0.04 0.01 0.04 0.01 0.05 0.02 0.04 0.1 0.25 0.09 0.15 0.03 0.04 0.03 0.05 0.04 0.04 0.03 0.05 0.04 0.04 0.05 0.04 0.04 0.03 0.05 0.03 0.04 0.03 0.03 0.01 0.03 0.02 0.02 0.01 0.06 0.02h0.03l0.02 0.01 0.03 0.01h0.07l0.03 0.01h0.03c0.05 0 0.29 0 0.5-0.13-0.28-0.05-0.48-0.3-0.48-0.54 0-0.16 0.11-0.35 0.38-0.35 0.22 0 0.54 0.18 0.54 0.58 0 0.52-0.59 0.66-0.93 0.66-0.58 0-0.93-0.53-1.05-0.76-0.25 0.66-0.78 0.76-1.07 0.76-1.04 0-1.61-1.29-1.61-1.53 0-0.1 0.1-0.1 0.12-0.1 0.08 0 0.11 0.02 0.13 0.11 0.34 1.05 1 1.3 1.34 1.3 0.19 0 0.53-0.09 0.53-0.67 0-0.31-0.17-0.97-0.53-2.36-0.16-0.62-0.51-1.04-0.95-1.04-0.06 0-0.29 0-0.5 0.13 0.25 0.05 0.47 0.26 0.47 0.54 0 0.27-0.22 0.35-0.37 0.35-0.3 0-0.55-0.26-0.55-0.58 0-0.46 0.5-0.65 0.94-0.65 0.66 0 1.02 0.69 1.05 0.75 0.11-0.37 0.47-0.75 1.07-0.75 1.03 0 1.6 1.28 1.6 1.53 0 0.1-0.09 0.1-0.12 0.1-0.09 0-0.11-0.05-0.13-0.11-0.33-1.07-1.01-1.31-1.33-1.31-0.39 0-0.55 0.32-0.55 0.66 0 0.22 0.06 0.44 0.17 0.87z"/><path d="m17.293 815.97h0.85c0.2 0 0.3 0 0.3 0.2 0 0.11-0.1 0.11-0.27 0.11h-0.82l0.21 1.13c0.04 0.21 0.17 0.91 0.23 1.03 0.09 0.19 0.26 0.34 0.47 0.34 0.04 0 0.3 0 0.49-0.18-0.44-0.04-0.54-0.39-0.54-0.53 0-0.23 0.18-0.35 0.37-0.35 0.26 0 0.55 0.22 0.55 0.59 0 0.46-0.46 0.69-0.87 0.69-0.34 0-0.97-0.18-1.26-1.16-0.06-0.21-0.09-0.31-0.33-1.56h-0.69c-0.19 0-0.3 0-0.3-0.19 0-0.12 0.09-0.12 0.28-0.12h0.66l-0.75-3.93c-0.18-0.96-0.35-1.86-0.87-1.86-0.04 0-0.29 0-0.48 0.18 0.46 0.03 0.55 0.38 0.55 0.53 0 0.23-0.18 0.35-0.37 0.35-0.26 0-0.55-0.22-0.55-0.6 0-0.44 0.44-0.68 0.85-0.68 0.55 0 0.95 0.58 1.13 0.96 0.32 0.63 0.55 1.83 0.56 1.9z"/></g></g><g transform="matrix(.9337 0 0 .9337 199.58 454.77)" fill-opacity=".39216" stroke-opacity=".31373" stroke-width="0" ns0:preamble="default_packages.tex" ns0:text="$$\\text{Neither concave nor convex}$$\n" xml:space="preserve"><path d="m248.13 701.83v0.01l-0.05 0.05v0.01h-0.01v0.01h-0.01l-0.02 0.02h-0.01v0.01h-0.03v0.01h-0.14l-0.01 0.01h-1.7v-0.31h0.29c0.15 0 0.35-0.01 0.5-0.02 0.23-0.03 0.24-0.04 0.24-0.23v-5.19c0-0.26 0-0.73-1.03-0.73v-0.31c0.35 0.01 0.84 0.03 1.17 0.03s0.81-0.02 1.16-0.03v0.31c-1.02 0-1.02 0.47-1.02 0.73v5.17c0.05-0.05 0.05-0.06 0.09-0.12l4.07-5.96c0.09-0.12 0.1-0.13 0.17-0.13 0.14 0 0.14 0.07 0.14 0.26v5.48c0 0.27 0 0.74 1.03 0.74v0.31c-0.35-0.01-0.84-0.04-1.17-0.04s-0.81 0.03-1.16 0.04v-0.31c1.02 0 1.02-0.47 1.02-0.74v-4.24z"/><path d="m254.4 697.47 0.01 0.2c0.06 1.48 0.9 1.73 1.24 1.73 1.02 0 1.12-1.34 1.12-1.73h-2.36l-0.01-0.2h2.78c0.22 0 0.25 0 0.25 0.2 0 0.99-0.54 1.95-1.78 1.95-1.16 0-2.08-1.02-2.08-2.27 0-1.33 1.05-2.29 2.19-2.29 1.22 0 1.67 1.1 1.67 1.29 0 0.1-0.08 0.12-0.13 0.12-0.09 0-0.11-0.06-0.13-0.14-0.35-1.02-1.24-1.02-1.35-1.02-0.49 0-0.89 0.3-1.12 0.66-0.3 0.48-0.3 1.14-0.3 1.5z"/><path d="m259.48 699.56-1.39-0.11v-0.31c0.65 0 0.74-0.06 0.74-0.54v-2.68c0-0.44-0.11-0.44-0.78-0.44v-0.31c0.32 0.01 0.86 0.03 1.09 0.03 0.35 0 0.7-0.02 1.04-0.03v0.31c-0.66 0-0.7 0.05-0.7 0.43z"/><path d="m259.52 701.29v0.09l-0.01 0.02v0.03l-0.01 0.03-0.01 0.02-0.01 0.03-0.02 0.04-0.02 0.02-0.01 0.03-0.01 0.02-0.02 0.02-0.02 0.01-0.02 0.02-0.01 0.02-0.02 0.01-0.02 0.02-0.02 0.01-0.03 0.02-0.06 0.03-0.03 0.01h-0.02l-0.03 0.01-0.02 0.01h-0.05l-0.03 0.01h-0.02c-0.31 0-0.53-0.27-0.53-0.53 0-0.27 0.22-0.53 0.53-0.53 0.27 0 0.52 0.21 0.52 0.53z"/><path d="m262.21 699.14h1.43v0.31h-1.43v1.83h-0.25c-0.01-0.81-0.31-1.88-1.28-1.92v-0.22h0.84v-2.74c0-1.22 0.93-1.34 1.29-1.34 0.71 0 0.99 0.71 0.99 1.34v0.57h-0.25v-0.55c0-0.73-0.3-1.11-0.67-1.11-0.67 0-0.67 0.9-0.67 1.07z"/><path d="m265.46 695.92v-0.07l-0.01-0.04v-0.06l-0.01-0.03v-0.03l-0.01-0.02-0.01-0.03-0.02-0.04-0.04-0.04-0.02-0.01-0.02-0.02-0.02-0.01h-0.03l-0.02-0.01-0.03-0.01h-0.03l-0.03-0.01h-0.08l-0.02-0.01h-0.38v-0.31c0.35 0.01 0.86 0.03 1.13 0.03 0.26 0 0.77-0.02 1.11-0.03v0.31c-0.66 0-0.77 0-0.77 0.44v1.83c0 1.04 0.7 1.59 1.34 1.59 0.63 0 0.74-0.53 0.74-1.1v-2.32c0-0.44-0.11-0.44-0.78-0.44v-0.31c0.35 0.01 0.86 0.03 1.13 0.03 0.26 0 0.78-0.02 1.12-0.03v0.31c-0.52 0-0.77 0-0.78 0.3v1.89c0 0.86 0 1.17-0.31 1.52-0.14 0.17-0.47 0.37-1.05 0.37-0.83 0-1.27-0.59-1.44-0.97v3.47l-1.44-0.1v-0.31c0.7 0 0.78-0.07 0.78-0.56z"/><path d="m271 697.47 0.01 0.2c0.06 1.48 0.9 1.73 1.24 1.73 1.03 0 1.13-1.34 1.13-1.73h-2.37l-0.01-0.2h2.79c0.22 0 0.25 0 0.25 0.2 0 0.99-0.54 1.95-1.79 1.95-1.16 0-2.07-1.02-2.07-2.27 0-1.33 1.04-2.29 2.19-2.29 1.22 0 1.67 1.1 1.67 1.29 0 0.1-0.09 0.12-0.14 0.12-0.08 0-0.1-0.06-0.12-0.14-0.35-1.02-1.25-1.02-1.35-1.02-0.5 0-0.9 0.3-1.13 0.66-0.3 0.48-0.3 1.14-0.3 1.5z"/><path d="m275.99 698.47v1.09l-1.39-0.11v-0.31c0.7 0 0.78-0.07 0.78-0.55v-2.67c0-0.44-0.11-0.44-0.78-0.44v-0.31c0.39 0.01 0.86 0.03 1.14 0.03 0.4 0 0.87 0 1.27-0.03v0.31h-0.21c-0.74 0-0.76 0.11-0.76 0.47v1.52c0 0.99 0.42 1.87 1.18 1.87 0.07 0 0.09 0 0.11-0.01-0.03-0.01-0.23-0.13-0.23-0.38 0-0.28 0.21-0.43 0.42-0.43 0.18 0 0.43 0.12 0.43 0.44 0 0.31-0.31 0.6-0.73 0.6-0.73 0-1.09-0.66-1.23-1.09z"/><path d="m282.71 697.34v0.14l0.01 0.08v0.07l0.01 0.06v0.07l0.01 0.07 0.05 0.3 0.03 0.1 0.03 0.11 0.03 0.09 0.04 0.1 0.12 0.24 0.05 0.07 0.15 0.18 0.05 0.05 0.05 0.04 0.06 0.04 0.05 0.04 0.06 0.04 0.06 0.03 0.05 0.02 0.12 0.04 0.05 0.02 0.06 0.01 0.1 0.02h0.11c0.09 0 0.71-0.01 1.06-0.37-0.41-0.03-0.47-0.32-0.47-0.45 0-0.26 0.18-0.46 0.46-0.46 0.26 0 0.46 0.17 0.46 0.47 0 0.67-0.75 1.06-1.52 1.06-1.25 0-2.17-1.07-2.17-2.3 0-1.28 0.99-2.26 2.15-2.26 1.33 0 1.65 1.19 1.65 1.29s-0.1 0.1-0.13 0.1c-0.09 0-0.11-0.04-0.13-0.1-0.29-0.92-0.93-1.04-1.3-1.04-0.53 0-1.41 0.43-1.41 2.03z"/><path d="m290.67 697.3v0.11l-0.01 0.12-0.02 0.12-0.04 0.22-0.03 0.11-0.08 0.22-0.04 0.1-0.1 0.2-0.12 0.18-0.07 0.09-0.14 0.16-0.16 0.16-0.08 0.06-0.09 0.07-0.18 0.12-0.09 0.05-0.1 0.05-0.1 0.04-0.1 0.03-0.11 0.04-0.1 0.02-0.22 0.04-0.11 0.01h-0.12l-0.01-0.22c0.44 0 0.87-0.22 1.13-0.64 0.26-0.43 0.26-1.01 0.26-1.38 0-0.36 0-0.9-0.22-1.34s-0.66-0.73-1.16-0.73c-0.42 0-0.86 0.21-1.13 0.66-0.25 0.44-0.25 1.05-0.25 1.41 0 0.38 0 0.92 0.24 1.36 0.27 0.45 0.73 0.66 1.13 0.66l0.01 0.22c-1.24 0-2.21-1.08-2.21-2.32 0-1.29 1.04-2.24 2.2-2.24 1.21 0 2.22 0.97 2.22 2.24z"/><path d="m292.05 698.59v-2.67c0-0.44-0.11-0.44-0.78-0.44v-0.31c0.35 0.01 0.86 0.03 1.13 0.03 0.26 0 0.78-0.02 1.12-0.03v0.31c-0.67 0-0.78 0-0.78 0.44v1.83c0 1.04 0.71 1.59 1.34 1.59s0.74-0.53 0.74-1.1v-2.32c0-0.44-0.11-0.44-0.78-0.44v-0.31c0.35 0.01 0.86 0.03 1.13 0.03 0.26 0 0.78-0.02 1.12-0.03v0.31c-0.52 0-0.77 0-0.78 0.3v1.89c0 0.86 0 1.17-0.31 1.52-0.14 0.17-0.47 0.37-1.05 0.37-0.72 0-1.19-0.43-1.47-1.04v1.04l-1.41-0.11v-0.31c0.7 0 0.78-0.07 0.78-0.55z"/><path d="m297.65 697.34v0.07l0.01 0.07v0.15l0.01 0.06v0.07l0.01 0.07 0.05 0.3 0.03 0.1 0.03 0.11 0.03 0.09 0.04 0.1 0.12 0.24 0.05 0.07 0.15 0.18 0.05 0.05 0.06 0.04 0.05 0.04 0.06 0.04 0.05 0.04 0.06 0.03 0.06 0.02 0.05 0.02 0.12 0.04 0.05 0.01 0.06 0.01 0.05 0.01h0.1c0.09 0 0.72-0.01 1.07-0.37-0.41-0.03-0.47-0.32-0.47-0.45 0-0.26 0.18-0.46 0.46-0.46 0.26 0 0.46 0.17 0.46 0.47 0 0.67-0.76 1.06-1.53 1.06-1.25 0-2.16-1.07-2.16-2.3 0-1.28 0.98-2.26 2.14-2.26 1.34 0 1.66 1.19 1.66 1.29s-0.1 0.1-0.13 0.1c-0.09 0-0.11-0.04-0.13-0.1-0.29-0.92-0.94-1.04-1.31-1.04-0.53 0-1.41 0.43-1.41 2.03z"/><path d="m304.24 695.92v-0.03l0.01-0.04v-0.04l0.01-0.03 0.02-0.08 0.01-0.03 0.02-0.04 0.01-0.04 0.04-0.06 0.02-0.04 0.08-0.12 0.11-0.11 0.06-0.04 0.04-0.02 0.03-0.02 0.04-0.01 0.03-0.02 0.16-0.04h0.08c0.21 0 0.82 0.14 0.82 0.94v0.56h-0.25v-0.56c0-0.57-0.25-0.63-0.36-0.63-0.33 0-0.37 0.44-0.37 0.49v1.99c0 0.42 0 0.81-0.36 1.17-0.38 0.39-0.88 0.55-1.36 0.55-0.82 0-1.51-0.47-1.51-1.12 0-0.3 0.2-0.47 0.46-0.47 0.28 0 0.46 0.2 0.46 0.46 0 0.12-0.05 0.44-0.51 0.46 0.27 0.34 0.76 0.45 1.08 0.45 0.49 0 1.06-0.39 1.06-1.27v-1.57c0-0.94-0.72-1.28-1.17-1.28-0.49 0-0.9 0.35-0.9 0.84 0 0.55 0.42 1.37 2.07 1.43v0.21c-0.51-0.03-1.21-0.06-1.84-0.35-0.75-0.34-1-0.86-1-1.3 0-0.8 0.97-1.05 1.6-1.05 0.66 0 1.12 0.4 1.31 0.86z"/><path d="m309.78 698.48v0.02l0.01 0.02 0.01 0.03 0.01 0.02 0.02 0.03 0.01 0.02 0.02 0.06 0.02 0.02 0.02 0.03 0.01 0.03 0.02 0.03 0.02 0.02 0.02 0.03 0.08 0.08 0.03 0.02 0.03 0.03 0.06 0.04 0.04 0.02 0.03 0.02 0.04 0.02 0.05 0.01 0.04 0.02 0.15 0.03h0.03l0.03 0.01h0.11v0.31c-0.23-0.02-0.52-0.03-0.74-0.03-0.24 0-0.7 0.02-0.87 0.03v-0.31c0.37-0.01 0.48-0.23 0.48-0.42 0-0.09-0.02-0.13-0.06-0.24l-1.02-2.53-1.12 2.77c-0.06 0.13-0.06 0.14-0.06 0.17 0 0.25 0.39 0.25 0.57 0.25v0.31c-0.3-0.01-0.86-0.03-1.09-0.03-0.26 0-0.66 0.01-0.96 0.03v-0.31c0.63 0 0.66-0.06 0.79-0.36l1.44-3.53c0.06-0.14 0.08-0.19 0.21-0.19s0.17 0.09 0.21 0.19z"/><path d="m311.71 697.47 0.01 0.2c0.06 1.48 0.9 1.73 1.24 1.73 1.03 0 1.13-1.34 1.13-1.73h-2.37l-0.01-0.2h2.79c0.21 0 0.24 0 0.24 0.2 0 0.99-0.53 1.95-1.78 1.95-1.16 0-2.07-1.02-2.07-2.27 0-1.33 1.04-2.29 2.19-2.29 1.22 0 1.66 1.1 1.66 1.29 0 0.1-0.07 0.12-0.13 0.12-0.08 0-0.1-0.06-0.12-0.14-0.35-1.02-1.25-1.02-1.35-1.02-0.5 0-0.9 0.3-1.13 0.66-0.3 0.48-0.3 1.14-0.3 1.5z"/><path d="m319.45 698.59v-2.67c0-0.44-0.11-0.44-0.78-0.44v-0.31c0.35 0.01 0.86 0.03 1.13 0.03 0.26 0 0.78-0.02 1.11-0.03v0.31c-0.66 0-0.77 0-0.77 0.44v1.83c0 1.04 0.71 1.59 1.34 1.59s0.74-0.53 0.74-1.1v-2.32c0-0.44-0.11-0.44-0.78-0.44v-0.31c0.35 0.01 0.86 0.03 1.13 0.03 0.26 0 0.78-0.02 1.12-0.03v0.31c-0.52 0-0.77 0-0.78 0.3v1.89c0 0.86 0 1.17-0.31 1.52-0.14 0.17-0.47 0.37-1.05 0.37-0.72 0-1.19-0.43-1.47-1.04v1.04l-1.41-0.11v-0.31c0.7 0 0.78-0.07 0.78-0.55z"/><path d="m328.58 697.3v0.11l-0.02 0.24-0.02 0.11-0.09 0.33-0.04 0.11-0.05 0.1-0.04 0.1-0.06 0.1-0.18 0.27-0.07 0.08-0.08 0.08-0.07 0.08-0.08 0.08-0.09 0.06-0.08 0.07-0.18 0.12-0.2 0.1-0.1 0.04-0.1 0.03-0.1 0.04-0.33 0.06-0.11 0.01h-0.11l-0.01-0.22c0.44 0 0.87-0.22 1.13-0.64 0.26-0.43 0.26-1.01 0.26-1.38 0-0.36 0-0.9-0.22-1.34s-0.66-0.73-1.16-0.73c-0.43 0-0.87 0.21-1.14 0.66-0.25 0.44-0.25 1.05-0.25 1.41 0 0.38 0 0.92 0.24 1.36 0.27 0.45 0.74 0.66 1.14 0.66l0.01 0.22c-1.25 0-2.21-1.08-2.21-2.32 0-1.29 1.03-2.24 2.2-2.24 1.21 0 2.21 0.97 2.21 2.24z"/><path d="m330.53 698.47v1.09l-1.38-0.11v-0.31c0.7 0 0.77-0.07 0.77-0.55v-2.67c0-0.44-0.1-0.44-0.77-0.44v-0.31c0.39 0.01 0.86 0.03 1.13 0.03 0.4 0 0.87 0 1.27-0.03v0.31h-0.21c-0.74 0-0.76 0.11-0.76 0.47v1.52c0 0.99 0.42 1.87 1.18 1.87 0.07 0 0.09 0 0.11-0.01-0.03-0.01-0.23-0.13-0.23-0.38 0-0.28 0.21-0.43 0.43-0.43 0.18 0 0.43 0.12 0.43 0.44 0 0.31-0.31 0.6-0.74 0.6-0.73 0-1.09-0.66-1.23-1.09z"/><path d="m337.26 697.34v0.29l0.01 0.06 0.01 0.07v0.07l0.05 0.3 0.03 0.1 0.03 0.11 0.03 0.09 0.04 0.1 0.08 0.16 0.05 0.08 0.04 0.07 0.15 0.18 0.05 0.05 0.06 0.04 0.05 0.04 0.06 0.04 0.05 0.04 0.06 0.03 0.06 0.02 0.05 0.02 0.12 0.04 0.05 0.01 0.06 0.01 0.05 0.01h0.1c0.09 0 0.72-0.01 1.07-0.37-0.41-0.03-0.47-0.32-0.47-0.45 0-0.26 0.18-0.46 0.46-0.46 0.26 0 0.46 0.17 0.46 0.47 0 0.67-0.76 1.06-1.53 1.06-1.25 0-2.16-1.07-2.16-2.3 0-1.28 0.98-2.26 2.14-2.26 1.34 0 1.66 1.19 1.66 1.29s-0.1 0.1-0.13 0.1c-0.09 0-0.11-0.04-0.13-0.1-0.29-0.92-0.94-1.04-1.31-1.04-0.53 0-1.4 0.43-1.4 2.03z"/><path d="m345.22 697.3v0.11l-0.02 0.24-0.02 0.11-0.09 0.33-0.04 0.11-0.15 0.3-0.18 0.27-0.07 0.08-0.08 0.08-0.07 0.08-0.08 0.08-0.09 0.06-0.08 0.07-0.09 0.06-0.1 0.06-0.09 0.05-0.1 0.05-0.1 0.04-0.1 0.03-0.1 0.04-0.33 0.06-0.11 0.01h-0.11l-0.01-0.22c0.44 0 0.87-0.22 1.13-0.64 0.25-0.43 0.25-1.01 0.25-1.38 0-0.36 0-0.9-0.22-1.34-0.21-0.44-0.65-0.73-1.15-0.73-0.43 0-0.87 0.21-1.14 0.66-0.25 0.44-0.25 1.05-0.25 1.41 0 0.38 0 0.92 0.24 1.36 0.27 0.45 0.74 0.66 1.14 0.66l0.01 0.22c-1.25 0-2.22-1.08-2.22-2.32 0-1.29 1.04-2.24 2.21-2.24 1.2 0 2.21 0.97 2.21 2.24z"/><path d="m346.6 698.59v-2.67c0-0.44-0.11-0.44-0.77-0.44v-0.31c0.34 0.01 0.85 0.03 1.12 0.03 0.26 0 0.78-0.02 1.12-0.03v0.31c-0.67 0-0.78 0-0.78 0.44v1.83c0 1.04 0.71 1.59 1.35 1.59 0.63 0 0.74-0.53 0.74-1.1v-2.32c0-0.44-0.11-0.44-0.78-0.44v-0.31c0.35 0.01 0.86 0.03 1.13 0.03 0.25 0 0.77-0.02 1.11-0.03v0.31c-0.52 0-0.77 0-0.78 0.3v1.89c0 0.86 0 1.17-0.3 1.52-0.15 0.17-0.47 0.37-1.05 0.37-0.73 0-1.2-0.43-1.48-1.04v1.04l-1.4-0.11v-0.31c0.69 0 0.77-0.07 0.77-0.55z"/><path d="m354.91 698.48 0.02 0.04 0.01 0.03 0.01 0.02 0.01 0.03 0.01 0.02 0.02 0.03 0.01 0.03 0.01 0.02 0.06 0.09 0.02 0.02 0.04 0.06 0.03 0.02 0.02 0.03 0.03 0.02 0.03 0.03 0.03 0.02 0.04 0.02 0.03 0.02 0.08 0.04 0.04 0.01 0.05 0.02 0.04 0.01 0.05 0.01 0.06 0.01h0.02l0.03 0.01h0.12v0.31c-0.23-0.02-0.52-0.03-0.75-0.03-0.24 0-0.7 0.02-0.87 0.03v-0.31c0.37-0.01 0.48-0.23 0.48-0.42 0-0.09-0.02-0.13-0.06-0.24l-1.02-2.53-1.11 2.77c-0.06 0.13-0.06 0.14-0.06 0.17 0 0.25 0.39 0.25 0.57 0.25v0.31c-0.3-0.01-0.86-0.03-1.09-0.03-0.27 0-0.67 0.01-0.97 0.03v-0.31c0.63 0 0.67-0.06 0.8-0.36l1.44-3.53c0.06-0.14 0.08-0.19 0.2-0.19 0.13 0 0.18 0.09 0.22 0.19z"/><path d="m356.85 697.47 0.01 0.2c0.06 1.48 0.9 1.73 1.24 1.73 1.02 0 1.12-1.34 1.12-1.73h-2.36l-0.01-0.2h2.78c0.22 0 0.25 0 0.25 0.2 0 0.99-0.54 1.95-1.78 1.95-1.16 0-2.08-1.02-2.08-2.27 0-1.33 1.05-2.29 2.19-2.29 1.22 0 1.67 1.1 1.67 1.29 0 0.1-0.08 0.12-0.13 0.12-0.09 0-0.11-0.06-0.13-0.14-0.35-1.02-1.24-1.02-1.35-1.02-0.49 0-0.89 0.3-1.12 0.66-0.3 0.48-0.3 1.14-0.3 1.5z"/><path d="m363.03 697.5 0.06 0.08 0.06 0.07 0.06 0.08 0.06 0.07 0.12 0.16 0.06 0.07 0.12 0.16 0.18 0.21 0.02 0.03 0.06 0.06 0.02 0.03 0.03 0.03 0.02 0.03 0.03 0.02 0.02 0.03c0.31 0.35 0.72 0.5 1.19 0.51v0.31c-0.26-0.02-0.56-0.03-0.82-0.03-0.3 0-0.83 0.02-0.96 0.03v-0.31c0.21-0.02 0.29-0.15 0.29-0.3 0-0.16-0.1-0.29-0.15-0.35l-0.62-0.78-0.78 1.01c-0.09 0.1-0.09 0.12-0.09 0.18 0 0.14 0.15 0.23 0.35 0.24v0.31c-0.26-0.01-0.91-0.03-1.07-0.03-0.21 0-0.68 0.01-0.95 0.03v-0.31c0.7 0 0.71-0.01 1.18-0.6l0.98-1.28-0.93-1.19c-0.48-0.57-1.07-0.59-1.28-0.59v-0.31c0.26 0.02 0.57 0.03 0.83 0.03 0.29 0 0.71-0.02 0.94-0.03v0.31c-0.21 0.03-0.29 0.16-0.29 0.31 0 0.21 0.29 0.54 0.9 1.26l0.76-1c0.08-0.1 0.21-0.26 0.21-0.32 0-0.09-0.09-0.24-0.36-0.25v-0.31c0.3 0.01 0.86 0.03 1.08 0.03 0.27 0 0.66-0.01 0.96-0.03v0.31c-0.54 0-0.72 0.02-0.95 0.31z"/></g><g transform="matrix(1.0207 0 0 1.0207 433.82 188.96)" fill-opacity=".78431" stroke-opacity=".78431" stroke-width="3.3545"><g fill-opacity=".78431" fill-rule="evenodd" stroke="#000" stroke-miterlimit="10.433"><path d="m-148.42 764.63v111.81" marker-end="url(#h)" stroke-opacity=".62745" stroke-width=".35764"/><path d="m-154.86 772.2h139.91" marker-end="url(#d)" stroke-opacity=".62745" stroke-width=".35764"/><g transform="matrix(.68111 0 0 .68112 -216.69 335.79)" stroke-opacity=".78431" stroke-width="3.2834" ns0:preamble="default_packages.tex" ns0:text="$x$\n$y$\n$\\langle y \\rangle$\n$\\langle x \\rangle$\n$\\text{Point of averages}$\n$\\text{Regression line}$\n$\\text{SD line}$\n$\\rho(x,y)\\sigma_y$\n$\\sigma_x$\n" xml:space="preserve"><g transform="matrix(1.5 0 0 1.5 69.402 -429.08)" fill-opacity=".62745" fill-rule="evenodd" stroke="#000" stroke-miterlimit="10.433" stroke-opacity=".78431" stroke-width="0" ns0:preamble="default_packages.tex" ns0:text="$x f$\n" xml:space="preserve"><path d="m150.06 709.38 0.01 0.02 0.01 0.03v0.03l0.02 0.08 0.02 0.04 0.01 0.04 0.01 0.05 0.02 0.04 0.1 0.25 0.09 0.15 0.03 0.04 0.03 0.05 0.04 0.04 0.03 0.05 0.04 0.04 0.05 0.04 0.04 0.03 0.05 0.03 0.04 0.03 0.03 0.01 0.03 0.02 0.02 0.01 0.06 0.02h0.03l0.02 0.01 0.03 0.01h0.07l0.03 0.01h0.03c0.05 0 0.29 0 0.5-0.13-0.28-0.05-0.48-0.3-0.48-0.54 0-0.16 0.11-0.35 0.38-0.35 0.22 0 0.54 0.18 0.54 0.58 0 0.52-0.59 0.66-0.93 0.66-0.58 0-0.93-0.53-1.05-0.76-0.25 0.66-0.78 0.76-1.07 0.76-1.04 0-1.61-1.29-1.61-1.53 0-0.1 0.1-0.1 0.12-0.1 0.08 0 0.11 0.02 0.13 0.11 0.34 1.05 1 1.3 1.34 1.3 0.19 0 0.53-0.09 0.53-0.67 0-0.31-0.17-0.97-0.53-2.36-0.16-0.62-0.51-1.04-0.95-1.04-0.06 0-0.29 0-0.5 0.13 0.25 0.05 0.47 0.26 0.47 0.54 0 0.27-0.22 0.35-0.37 0.35-0.3 0-0.55-0.26-0.55-0.58 0-0.46 0.5-0.65 0.94-0.65 0.66 0 1.02 0.69 1.05 0.75 0.11-0.37 0.47-0.75 1.07-0.75 1.03 0 1.6 1.28 1.6 1.53 0 0.1-0.09 0.1-0.12 0.1-0.09 0-0.11-0.05-0.13-0.11-0.33-1.07-1.01-1.31-1.33-1.31-0.39 0-0.55 0.32-0.55 0.66 0 0.22 0.06 0.44 0.17 0.87z"/><path d="m17.293 815.97h0.85c0.2 0 0.3 0 0.3 0.2 0 0.11-0.1 0.11-0.27 0.11h-0.82l0.21 1.13c0.04 0.21 0.17 0.91 0.23 1.03 0.09 0.19 0.26 0.34 0.47 0.34 0.04 0 0.3 0 0.49-0.18-0.44-0.04-0.54-0.39-0.54-0.53 0-0.23 0.18-0.35 0.37-0.35 0.26 0 0.55 0.22 0.55 0.59 0 0.46-0.46 0.69-0.87 0.69-0.34 0-0.97-0.18-1.26-1.16-0.06-0.21-0.09-0.31-0.33-1.56h-0.69c-0.19 0-0.3 0-0.3-0.19 0-0.12 0.09-0.12 0.28-0.12h0.66l-0.75-3.93c-0.18-0.96-0.35-1.86-0.87-1.86-0.04 0-0.29 0-0.48 0.18 0.46 0.03 0.55 0.38 0.55 0.53 0 0.23-0.18 0.35-0.37 0.35-0.26 0-0.55-0.22-0.55-0.6 0-0.44 0.44-0.68 0.85-0.68 0.55 0 0.95 0.58 1.13 0.96 0.32 0.63 0.55 1.83 0.56 1.9z"/></g></g></g></g><g transform="matrix(.98166 0 0 .98166 131.76 410.2)" fill-opacity=".39216" stroke-opacity=".31373" stroke-width="0" ns0:preamble="default_packages.tex" ns0:text="$\\text{Convex}$\n" xml:space="preserve"><path d="m149.27 710.52v-0.19l0.02-0.19 0.02-0.18 0.03-0.18 0.04-0.18 0.05-0.18 0.06-0.16 0.06-0.17 0.07-0.16 0.08-0.16 0.18-0.3 0.1-0.14 0.1-0.13 0.11-0.13 0.12-0.13 0.12-0.12 0.13-0.11 0.13-0.1 0.14-0.1 0.28-0.18 0.15-0.08 0.16-0.07 0.15-0.06 0.16-0.06 0.16-0.04 0.17-0.04 0.34-0.06 0.17-0.01h0.17c1.63 0 2.6 1.38 2.6 2.53 0 0.1 0 0.17-0.13 0.17-0.11 0-0.11-0.06-0.12-0.16-0.08-1.42-1.14-2.24-2.23-2.24-0.61 0-2.56 0.34-2.56 3.3 0 2.97 1.94 3.31 2.55 3.31 1.09 0 1.97-0.9 2.17-2.35 0.02-0.14 0.02-0.17 0.16-0.17 0.16 0 0.16 0.03 0.16 0.24v2.35c0 0.17 0 0.24-0.11 0.24-0.04 0-0.08 0-0.16-0.12l-0.49-0.74c-0.37 0.36-0.88 0.86-1.84 0.86-1.86 0-3.47-1.58-3.47-3.61z"/><path d="m160.6 709.25v0.12l-0.01 0.12-0.01 0.11-0.02 0.12-0.09 0.33-0.04 0.1-0.05 0.1-0.04 0.1-0.06 0.1-0.06 0.09-0.06 0.1-0.06 0.08-0.07 0.09-0.08 0.08-0.07 0.08-0.08 0.07-0.09 0.07-0.08 0.06-0.09 0.07-0.09 0.05-0.2 0.1-0.2 0.08-0.1 0.03-0.11 0.03-0.11 0.02-0.33 0.03-0.01-0.22c0.44 0 0.87-0.22 1.13-0.65s0.26-1 0.26-1.38c0-0.36 0-0.89-0.22-1.33-0.22-0.45-0.66-0.74-1.16-0.74-0.43 0-0.87 0.21-1.14 0.67-0.25 0.44-0.25 1.04-0.25 1.4 0 0.39 0 0.92 0.24 1.36 0.27 0.46 0.74 0.67 1.14 0.67l0.01 0.22c-1.25 0-2.21-1.09-2.21-2.33 0-1.28 1.03-2.23 2.2-2.23 1.21 0 2.21 0.97 2.21 2.23z"/><path d="m161.99 710.54v-2.66c0-0.45-0.11-0.45-0.78-0.45v-0.3c0.35 0.01 0.86 0.03 1.12 0.03s0.78-0.02 1.12-0.03v0.3c-0.67 0-0.78 0-0.78 0.45v1.83c0 1.03 0.71 1.59 1.35 1.59 0.63 0 0.74-0.54 0.74-1.1v-2.32c0-0.45-0.11-0.45-0.78-0.45v-0.3c0.35 0.01 0.86 0.03 1.13 0.03 0.26 0 0.77-0.02 1.11-0.03v0.3c-0.51 0-0.76 0-0.77 0.3v1.9c0 0.85 0 1.16-0.31 1.52-0.14 0.17-0.47 0.37-1.05 0.37-0.73 0-1.2-0.43-1.48-1.05v1.05l-1.4-0.11v-0.31c0.69 0 0.78-0.07 0.78-0.56z"/><path d="m170.29 710.43 0.01 0.02 0.01 0.03 0.01 0.02 0.01 0.03 0.01 0.02 0.01 0.03 0.02 0.02 0.01 0.03 0.02 0.03 0.01 0.03 0.02 0.02 0.06 0.09 0.1 0.1 0.06 0.04 0.04 0.03 0.03 0.02 0.04 0.02 0.04 0.01 0.04 0.02 0.05 0.01 0.05 0.02 0.1 0.02h0.08l0.03 0.01h0.06v0.31c-0.23-0.02-0.52-0.03-0.75-0.03-0.24 0-0.7 0.02-0.86 0.03v-0.31c0.36-0.01 0.47-0.24 0.47-0.43 0-0.09-0.02-0.13-0.06-0.24l-1.01-2.53-1.12 2.77c-0.06 0.13-0.06 0.15-0.06 0.17 0 0.26 0.39 0.26 0.57 0.26v0.31c-0.3-0.01-0.86-0.03-1.09-0.03-0.27 0-0.67 0.01-0.97 0.03v-0.31c0.63 0 0.67-0.06 0.8-0.37l1.44-3.53c0.06-0.13 0.08-0.18 0.21-0.18s0.17 0.08 0.21 0.18z"/><path d="m172.23 709.42 0.01 0.21c0.06 1.48 0.9 1.73 1.24 1.73 1.02 0 1.12-1.34 1.12-1.73h-2.36l-0.01-0.21h2.78c0.22 0 0.25 0 0.25 0.21 0 0.98-0.54 1.95-1.78 1.95-1.16 0-2.08-1.03-2.08-2.27 0-1.33 1.05-2.29 2.2-2.29 1.21 0 1.66 1.1 1.66 1.29 0 0.1-0.08 0.12-0.13 0.12-0.09 0-0.11-0.06-0.13-0.14-0.35-1.03-1.24-1.03-1.34-1.03-0.5 0-0.9 0.3-1.13 0.67-0.3 0.48-0.3 1.13-0.3 1.49z"/><path d="m178.41 709.46 0.06 0.07 0.06 0.08 0.06 0.07 0.06 0.08 0.12 0.15 0.12 0.16 0.24 0.28 0.03 0.03 0.02 0.03 0.03 0.04 0.02 0.03 0.03 0.02 0.02 0.03 0.05 0.05c0.31 0.36 0.72 0.51 1.19 0.52v0.31c-0.26-0.02-0.56-0.03-0.82-0.03-0.3 0-0.83 0.02-0.96 0.03v-0.31c0.21-0.02 0.29-0.15 0.29-0.31s-0.1-0.29-0.15-0.35l-0.62-0.77-0.77 1c-0.09 0.1-0.09 0.12-0.09 0.18 0 0.15 0.15 0.24 0.34 0.25v0.31c-0.25-0.01-0.91-0.03-1.07-0.03-0.21 0-0.68 0.01-0.95 0.03v-0.31c0.7 0 0.71-0.01 1.18-0.61l0.98-1.28-0.93-1.18c-0.48-0.58-1.07-0.6-1.28-0.6v-0.3c0.26 0.02 0.57 0.03 0.83 0.03 0.29 0 0.71-0.02 0.95-0.03v0.3c-0.22 0.03-0.29 0.16-0.29 0.31 0 0.22 0.29 0.55 0.89 1.26l0.76-0.99c0.08-0.11 0.21-0.27 0.21-0.33 0-0.09-0.09-0.24-0.36-0.25v-0.3c0.3 0.01 0.86 0.03 1.08 0.03 0.27 0 0.66-0.01 0.96-0.03v0.3c-0.54 0-0.72 0.02-0.95 0.31z"/></g></g><g transform="matrix(1.2168 0 0 -1.2168 183.62 863.82)"><g transform="translate(7.2378 -59.353)"><g transform="matrix(1.2506,0,0,-1.2506,-72.165,1072.2)" fill-rule="evenodd" stroke="#000" stroke-miterlimit="10.433" ns0:preamble="default_packages.tex" ns0:text="$x$\n$y$\n" xml:space="preserve"><g transform="matrix(.79961 0 0 -.79961 58.988 860.59)"><g transform="matrix(1.2506,0,0,-1.2506,-72.165,1072.2)" fill-rule="evenodd" stroke="#000" stroke-miterlimit="10.433" ns0:preamble="default_packages.tex" ns0:text="$x$\n$y$\n" xml:space="preserve"><g transform="rotate(180 212.4 757.83)" fill-rule="evenodd" stroke="#000" stroke-miterlimit="10.433"><g transform="matrix(.79961 0 0 -.79961 -41.225 831.43)" stroke-width=".7"><g transform="matrix(1.2506,0,0,-1.2506,-72.165,1072.2)" fill-rule="evenodd" stroke="#000" stroke-miterlimit="10.433" stroke-width=".55973" ns0:preamble="default_packages.tex" ns0:text="$x$\n$y$\n" xml:space="preserve"><g transform="matrix(-.65715 0 0 -.65715 540.07 1459.9)" fill-rule="evenodd" stroke="#000" stroke-miterlimit="10.433" stroke-opacity="1" stroke-width="2.2826" ns0:preamble="default_packages.tex" ns0:text="$x_1 x_2 x f(x_1) f(x_2) f(x)$\n" xml:space="preserve"><g transform="translate(258.65 -3.4795)" fill-rule="evenodd" stroke="#000" stroke-miterlimit="10.433" stroke-opacity="1" stroke-width="2.2826" ns0:preamble="default_packages.tex" ns0:text="$x_1 x_2 x f(x_1) f(x_2) f(x)$\n" xml:space="preserve"><g transform="matrix(1.0026 0 0 1.0026 31.971 78.78)" fill-rule="evenodd" stroke="#000" stroke-miterlimit="10.433" stroke-opacity="1" stroke-width="3.4151" ns0:preamble="default_packages.tex" ns0:text="$l(x)$\n" xml:space="preserve"><g transform="matrix(1.3845 0 0 1.3845 261.45 -437.1)" stroke-width="2.4667"><g stroke-width="2.4667"><g transform="matrix(-1.5178 0 0 1.5178 84.544 -324.43)" fill-rule="evenodd" stroke="#000" stroke-miterlimit="10.433" stroke-width=".69309"><g transform="matrix(.58158 0 0 -.58072 8.6337 1042.9)" fill-rule="evenodd" stroke="#000" stroke-miterlimit="10.433" stroke-opacity=".31373" stroke-width="1.1926"><g transform="matrix(1.2506,0,0,-1.2506,-72.165,1072.2)" fill-rule="evenodd" stroke="#000" stroke-miterlimit="10.433" stroke-opacity=".31373" stroke-width=".95363" ns0:preamble="default_packages.tex" ns0:text="$x$\n$y$\n" xml:space="preserve"><g fill="none" stroke="#000" stroke-miterlimit="10.433" stroke-opacity=".31373" stroke-width=".95363"><path d="m171.51 757.67c2.3058 20.083 8.54 40.757 15.171 40.686 6.0222-0.0646 10.291-20.242 20.34-20.479 7.9798 0.32845 13.636 26.955 19.191 26.957 5.3686 2e-3 12.905-27.257 19.3-46.312" fill="none" stroke="#000" stroke-miterlimit="10.433" stroke-opacity=".31373" stroke-width=".95363"/></g></g></g></g></g></g></g></g></g><path d="m330.67 666.46v-73.668" fill="none" marker-end="url(#g)" stroke="#000" stroke-miterlimit="10.433" stroke-opacity=".47059" stroke-width=".23988"/><g fill-rule="evenodd"><rect transform="scale(-1,1)" x="-434.51" y="552.69" width="141.48" height="142.55" fill-opacity=".36715" opacity=".97" stroke="none"/><g stroke-miterlimit="10.433"><g transform="matrix(-.53807 0 0 -.53807 455.81 1093.8)" stroke="#000" stroke-opacity="1" stroke-width="6.2725" ns0:preamble="default_packages.tex" ns0:text="$f(x) \\geq l(x)$\n" xml:space="preserve"><rect transform="scale(1,-1)" x="36.295" y="-1007.9" width="263.74" height="263.74" fill="#fffdff" opacity=".97" stroke="#000" stroke-linecap="square" stroke-miterlimit="10.433" stroke-opacity=".62745" stroke-width=".39382"/></g><path d="m371.43 571.42h-0.64064c-0.14899 0-0.22348 0-0.22348-0.14897 0-0.082 0.0745-0.082 0.20113-0.082h0.61829l-0.15644-0.84174c-0.0298-0.15646-0.13408-0.67791-0.17878-0.76728-0.067-0.14155-0.19368-0.25326-0.35011-0.25326-0.0298 0-0.22348 0-0.36502 0.13406 0.32777 0.0296 0.40226 0.29052 0.40226 0.39481 0 0.17132-0.13409 0.26075-0.27562 0.26075-0.19368 0-0.40971-0.16389-0.40971-0.4395 0-0.3427 0.34267-0.51401 0.64809-0.51401 0.25327 0 0.72258 0.13405 0.94606 0.86408 0.0447 0.15646 0.067 0.23098 0.24582 1.1621h0.50654c0.14154 0 0.22349 0 0.22349 0.14155 0 0.0894-0.067 0.0894-0.20114 0.0894h-0.49164l0.55124 2.9276c0.13408 0.71517 0.26072 1.3856 0.64808 1.3856 0.0298 0 0.21603 0 0.35757-0.13406-0.34267-0.0223-0.40971-0.2831-0.40971-0.39481 0-0.17139 0.13409-0.26076 0.27563-0.26076 0.19368 0 0.40971 0.16389 0.40971 0.44693 0 0.32778-0.32778 0.50659-0.6332 0.50659-0.40971 0-0.70768-0.43207-0.83432-0.71517-0.23838-0.46927-0.4097-1.3632-0.41715-1.4154z" fill="#003c88" fill-opacity=".78431" stroke-width="0"/><g stroke-width="0"><g fill-opacity=".78431"><path d="m367.27 576.16v-0.021l7e-3 -7e-3v-7e-3l0.014-0.014v-7e-3h7e-3v-7e-3h7e-3v-7e-3h7e-3v-7e-3l0.028-0.028v-7e-3h7e-3l7e-3 -7e-3v-7e-3h7e-3l7e-3 -7e-3v-7e-3h7e-3l0.014-0.014c0.92371-0.93118 1.1621-2.3316 1.1621-3.464 0-1.2887-0.28307-2.5774-1.1919-3.5011-0.0968-0.0894-0.0968-0.10428-0.0968-0.12663 0-0.0519 0.0298-0.0745 0.0745-0.0745 0.0745 0 0.73748 0.50653 1.177 1.4451 0.37991 0.81197 0.4693 1.6389 0.4693 2.2572 0 0.58105-0.0819 1.475-0.49165 2.3093-0.44696 0.90877-1.0802 1.393-1.1546 1.393-0.0447 0-0.0745-0.0223-0.0745-0.0745z"/><path d="m364.36 572.14v-0.0151l-0.014-0.0446-0.028-0.1184-0.0149-0.0375-7e-3 -0.0296-0.0149-0.0374-0.0447-0.1125-0.0223-0.0375-0.0149-0.0375-0.0223-0.0375-0.0223-0.0374-0.0223-0.0296-0.0298-0.0375-0.0223-0.0296-0.0298-0.0375-0.0596-0.0592-0.0298-0.0223-0.0746-0.0446-0.0223-7e-3 -0.0149-0.0151-0.0223-7e-3 -0.0149-7e-3 -0.0223-7e-3h-0.0224l-0.0446-0.014h-0.0447l-0.0223-7e-3h-0.0224c-0.0373 0-0.21603 0-0.37246 0.0969 0.20858 0.0375 0.35012 0.22343 0.35012 0.40223 0 0.11921-0.0745 0.26069-0.27563 0.26069-0.16388 0-0.40226-0.13405-0.40226-0.432 0-0.38739 0.43951-0.49168 0.68533-0.49168 0.43206 0 0.69279 0.39481 0.78218 0.56613 0.18623-0.49161 0.5885-0.56613 0.80452-0.56613 0.77473 0 1.1993 0.96094 1.1993 1.1398 0 0.0745-0.082 0.0745-0.0968 0.0745-0.0596 0-0.0819-0.0151-0.0894-0.0819-0.25328-0.78214-0.74493-0.96837-0.99821-0.96837-0.14153 0-0.40226 0.067-0.40226 0.4991 0 0.23092 0.12664 0.7226 0.40226 1.7581 0.11919 0.46184 0.37992 0.77471 0.70768 0.77471 0.0447 0 0.21603 0 0.37247-0.0969-0.18623-0.0375-0.35012-0.19366-0.35012-0.40224 0-0.20115 0.16389-0.26076 0.26818-0.26076 0.23092 0 0.40971 0.19373 0.40971 0.43208 0 0.34263-0.36502 0.48418-0.69279 0.48418-0.49165 0-0.75983-0.51395-0.78217-0.5587-0.0894 0.27567-0.35757 0.5587-0.80452 0.5587-0.75983 0-1.1844-0.95352-1.1844-1.1397 0-0.0746 0.067-0.0746 0.0894-0.0746 0.067 0 0.0819 0.0375 0.0968 0.0819 0.24583 0.79706 0.74493 0.97586 0.9833 0.97586 0.29053 0 0.40972-0.23841 0.40972-0.49167 0-0.16389-0.0447-0.32772-0.12664-0.64808z"/><path d="m360.45 572.53v-0.2313l7e-3 -0.12664 7e-3 -0.12663 0.0149-0.13406 0.0149-0.14154 0.0223-0.14898 0.0223-0.14904 0.0298-0.14897 0.0373-0.15641 0.0373-0.15646 0.0447-0.1564 0.0521-0.15647 0.0596-0.1564 0.0298-0.082 0.0373-0.0819 0.0298-0.0745 0.0373-0.0819c0.44696-0.90877 1.0876-1.393 1.1621-1.393 0.0447 0 0.0745 0.0296 0.0745 0.0745 0 0.0223 0 0.0375-0.14153 0.17132-0.73003 0.73751-1.1546 1.9145-1.1546 3.4565 0 1.2664 0.27562 2.57 1.1993 3.5011 0.0968 0.0894 0.0968 0.10429 0.0968 0.12663 0 0.0447-0.0298 0.0745-0.0745 0.0745-0.0745 0-0.74493-0.50653-1.1844-1.4451-0.37247-0.81197-0.46186-1.6314-0.46186-2.2572z"/></g><path d="m356.88 571.98 0.0149-7e-3 7e-3 -7e-3h7e-3l7e-3 -7e-3h7e-3l7e-3 -7e-3h7e-3l0.014-0.014h7e-3l0.014-0.014h7e-3v-7e-3l7e-3 -7e-3h7e-3v-7e-3l0.014-0.014v-7e-3l7e-3 -7e-3v-0.014h7e-3v-0.035c0-0.0745-0.0298-0.1192-0.14899-0.17131l-4.0897-1.9219c-0.10428-0.0519-0.13408-0.0519-0.14898-0.0519-0.0894 0-0.14899 0.067-0.14899 0.14898 0 0.0819 0.0596 0.11914 0.14154 0.1564l3.9034 1.8325-3.8885 1.8251c-0.14898 0.067-0.15644 0.12663-0.15644 0.17131 0 0.082 0.067 0.14898 0.14899 0.14898 0.0223 0 0.0373 0 0.13409-0.0519z"/><path d="m356.77 575.4h0.0521l0.0223-7e-3h0.0657l7e-3 -7e-3h0.0219l7e-3 -7e-3h7e-3l0.0149-7e-3 7e-3 -7e-3h7e-3l0.014-0.014v-7e-3l8e-3 -7e-3h7e-3v-7e-3l7e-3 -7e-3v-0.021h7e-3v-0.042c0-0.14898-0.15643-0.14898-0.26817-0.14898h-4.0003c-0.11174 0-0.26817 0-0.26817 0.14898 0 0.14897 0.13408 0.14897 0.26072 0.14897z"/><path d="m347.62 569.7v-0.026l8e-3 -8e-3v-9e-3l8e-3 -9e-3v-8e-3h8e-3v-9e-3h8e-3v-9e-3h8e-3l8e-3 -9e-3h0.024v-9e-3h0.032c0.19321 0 0.80644 0.067 1.0164 0.084 0.0672 9e-3 0.15961 0.0171 0.15961 0.17645 0 0.0923-0.0756 0.0923-0.20161 0.0923-0.40321 0-0.41162 0.0756-0.41162 0.14286l0.0252 0.16803 1.05 4.1665c0.0252 0.0925 0.042 0.15128 0.042 0.28566 0 0.4788-0.36961 0.76439-0.75603 0.76439-0.27721 0-0.48722-0.15962-0.63002-0.46197-0.1512-0.31924-0.25201-0.80645-0.25201-0.8232 0-0.0841 0.0756-0.0841 0.10081-0.0841 0.084 0 0.0924 0.0414 0.1176 0.15121 0.1428 0.54608 0.3024 1.0416 0.63842 1.0416 0.25201 0 0.25201-0.26884 0.25201-0.3864 0-0.20162-0.0168-0.24361-0.0504-0.40323z" fill="#f00" fill-opacity=".78431"/><g fill-opacity=".78431"><path d="m344.99 576.16v-0.014l7e-3 -7e-3v-7e-3l7e-3 -7e-3v-7e-3h7e-3v-7e-3l0.014-0.014v-7e-3h7e-3l7e-3 -7e-3v-7e-3h7e-3v-7e-3h7e-3v-7e-3h7e-3v-7e-3l7e-3 -7e-3h7e-3v-7e-3l7e-3 -7e-3h7e-3v-7e-3l7e-3 -7e-3h7e-3v-7e-3l7e-3 -7e-3c0.93116-0.93118 1.1695-2.3316 1.1695-3.464 0-1.2887-0.28308-2.5774-1.1993-3.5011-0.0968-0.0894-0.0968-0.10428-0.0968-0.12663 0-0.0519 0.0298-0.0745 0.0745-0.0745 0.0745 0 0.74493 0.50653 1.1844 1.4451 0.37991 0.81197 0.46931 1.6389 0.46931 2.2572 0 0.58105-0.0819 1.475-0.49166 2.3093-0.44696 0.90877-1.0876 1.393-1.1621 1.393-0.0447 0-0.0745-0.0223-0.0745-0.0745z"/><path d="m342.09 572.14-7e-3 -0.0151-7e-3 -0.0223v-0.0223l-0.014-0.0592-0.0149-0.0296-7e-3 -0.0296-7e-3 -0.0375-0.0149-0.0296-0.0149-0.0374-0.0596-0.15-0.0446-0.075-0.0223-0.0374-0.0223-0.0296-0.0223-0.0375-0.0298-0.0296-0.0224-0.0375-0.0596-0.0592-0.0746-0.0446-0.0298-0.0223-0.0223-7e-3 -0.0223-0.0151-0.0149-7e-3 -0.0446-0.014h-0.0149l-0.0446-0.014h-0.0447l-0.0298-7e-3h-0.0224c-0.0373 0-0.21603 0-0.37246 0.0969 0.20858 0.0375 0.35756 0.22343 0.35756 0.40223 0 0.11921-0.0819 0.26069-0.28307 0.26069-0.16388 0-0.40226-0.13405-0.40226-0.432 0-0.38739 0.43951-0.49168 0.69279-0.49168 0.43205 0 0.69278 0.39481 0.78217 0.56613 0.18623-0.49161 0.58849-0.56613 0.80452-0.56613 0.76727 0 1.1919 0.96094 1.1919 1.1398 0 0.0745-0.0745 0.0745-0.0894 0.0745-0.0596 0-0.0819-0.0151-0.0968-0.0819-0.25327-0.78214-0.74492-0.96837-0.9982-0.96837-0.13408 0-0.39481 0.067-0.39481 0.4991 0 0.23092 0.12664 0.7226 0.39481 1.7581 0.11919 0.46184 0.37992 0.77471 0.70769 0.77471 0.0447 0 0.21602 0 0.37246-0.0969-0.18623-0.0375-0.35012-0.19366-0.35012-0.40224 0-0.20115 0.16389-0.26076 0.27563-0.26076 0.22347 0 0.40971 0.19373 0.40971 0.43208 0 0.34263-0.37247 0.48418-0.70024 0.48418-0.49165 0-0.75982-0.51395-0.78217-0.5587-0.0819 0.27567-0.35012 0.5587-0.79707 0.5587-0.76728 0-1.1919-0.95352-1.1919-1.1397 0-0.0746 0.067-0.0746 0.0894-0.0746 0.067 0 0.082 0.0375 0.0968 0.0819 0.24583 0.79706 0.75238 0.97586 0.99075 0.97586 0.29053 0 0.40971-0.23841 0.40971-0.49167 0-0.16389-0.0447-0.32772-0.12664-0.64808z"/><path d="m338.18 572.53v-0.1117l7e-3 -0.0598v-0.0598l7e-3 -0.12664 7e-3 -0.12663 0.0149-0.13406 0.0149-0.14154 0.0149-0.14898 0.0298-0.14904 0.0298-0.14897 0.0298-0.15641 0.0447-0.15646 0.0447-0.1564 0.0521-0.15647 0.0596-0.1564 0.0298-0.082 0.0298-0.0819 0.0373-0.0745 0.0373-0.0819c0.44696-0.90877 1.0876-1.393 1.1621-1.393 0.0447 0 0.0745 0.0296 0.0745 0.0745 0 0.0223 0 0.0375-0.14153 0.17132-0.73003 0.73751-1.1546 1.9145-1.1546 3.4565 0 1.2664 0.27563 2.57 1.1993 3.5011 0.0968 0.0894 0.0968 0.10429 0.0968 0.12663 0 0.0447-0.0298 0.0745-0.0745 0.0745-0.0745 0-0.74493-0.50653-1.1844-1.4451-0.37992-0.81197-0.46931-1.6314-0.46931-2.2572z"/></g></g></g></g><g stroke-miterlimit="10.433"><g fill="none" stroke="#000"><path d="m355.72 638.42v38.356" stroke-opacity=".31373" stroke-width=".45179"/><path d="m424.7 683.5v-101.99" marker-end="url(#i)" stroke-opacity="1" stroke-width=".23988"/><path d="m430.58 676.59h-127.62" marker-end="url(#c)" stroke-opacity="1" stroke-width=".23988"/></g><g transform="matrix(-.62127 0 0 -.62127 486.97 1074.7)" fill-rule="evenodd" stroke-opacity="0" ns0:preamble="default_packages.tex" ns0:text="$x$\n$y$\n$\\langle y \\rangle$\n$\\langle x \\rangle$\n$\\text{Point of averages}$\n$\\text{Regression line}$\n$\\text{SD line}$\n$\\rho(x,y)\\sigma_y$\n$\\sigma_x$\n" xml:space="preserve"><g transform="matrix(1.5 0 0 1.5 69.402 -429.08)" fill-rule="evenodd" stroke="#000" stroke-miterlimit="10.433" stroke-opacity="1" stroke-width="0" ns0:preamble="default_packages.tex" ns0:text="$x f$\n" xml:space="preserve"><path d="m150.06 709.38 0.01 0.02 0.01 0.03v0.03l0.02 0.08 0.02 0.04 0.01 0.04 0.01 0.05 0.02 0.04 0.1 0.25 0.09 0.15 0.03 0.04 0.03 0.05 0.04 0.04 0.03 0.05 0.04 0.04 0.05 0.04 0.04 0.03 0.05 0.03 0.04 0.03 0.03 0.01 0.03 0.02 0.02 0.01 0.06 0.02h0.03l0.02 0.01 0.03 0.01h0.07l0.03 0.01h0.03c0.05 0 0.29 0 0.5-0.13-0.28-0.05-0.48-0.3-0.48-0.54 0-0.16 0.11-0.35 0.38-0.35 0.22 0 0.54 0.18 0.54 0.58 0 0.52-0.59 0.66-0.93 0.66-0.58 0-0.93-0.53-1.05-0.76-0.25 0.66-0.78 0.76-1.07 0.76-1.04 0-1.61-1.29-1.61-1.53 0-0.1 0.1-0.1 0.12-0.1 0.08 0 0.11 0.02 0.13 0.11 0.34 1.05 1 1.3 1.34 1.3 0.19 0 0.53-0.09 0.53-0.67 0-0.31-0.17-0.97-0.53-2.36-0.16-0.62-0.51-1.04-0.95-1.04-0.06 0-0.29 0-0.5 0.13 0.25 0.05 0.47 0.26 0.47 0.54 0 0.27-0.22 0.35-0.37 0.35-0.3 0-0.55-0.26-0.55-0.58 0-0.46 0.5-0.65 0.94-0.65 0.66 0 1.02 0.69 1.05 0.75 0.11-0.37 0.47-0.75 1.07-0.75 1.03 0 1.6 1.28 1.6 1.53 0 0.1-0.09 0.1-0.12 0.1-0.09 0-0.11-0.05-0.13-0.11-0.33-1.07-1.01-1.31-1.33-1.31-0.39 0-0.55 0.32-0.55 0.66 0 0.22 0.06 0.44 0.17 0.87z"/><path d="m17.293 815.97h0.85c0.2 0 0.3 0 0.3 0.2 0 0.11-0.1 0.11-0.27 0.11h-0.82l0.21 1.13c0.04 0.21 0.17 0.91 0.23 1.03 0.09 0.19 0.26 0.34 0.47 0.34 0.04 0 0.3 0 0.49-0.18-0.44-0.04-0.54-0.39-0.54-0.53 0-0.23 0.18-0.35 0.37-0.35 0.26 0 0.55 0.22 0.55 0.59 0 0.46-0.46 0.69-0.87 0.69-0.34 0-0.97-0.18-1.26-1.16-0.06-0.21-0.09-0.31-0.33-1.56h-0.69c-0.19 0-0.3 0-0.3-0.19 0-0.12 0.09-0.12 0.28-0.12h0.66l-0.75-3.93c-0.18-0.96-0.35-1.86-0.87-1.86-0.04 0-0.29 0-0.48 0.18 0.46 0.03 0.55 0.38 0.55 0.53 0 0.23-0.18 0.35-0.37 0.35-0.26 0-0.55-0.22-0.55-0.6 0-0.44 0.44-0.68 0.85-0.68 0.55 0 0.95 0.58 1.13 0.96 0.32 0.63 0.55 1.83 0.56 1.9z"/></g></g><g stroke="#000"><g transform="matrix(1.3845 0 0 1.3845 212.05 -420.52)" fill-rule="evenodd" stroke-opacity="1" stroke-width=".69309"><g transform="matrix(.79961 0 0 -.79961 -41.225 831.43)" stroke-miterlimit="10.433" stroke-width=".86678"><g transform="matrix(1.2506,0,0,-1.2506,-72.165,1072.2)" fill-rule="evenodd" stroke="#000" stroke-miterlimit="10.433" stroke-width=".69309" ns0:preamble="default_packages.tex" ns0:text="$x$\n$y$\n" xml:space="preserve"><g fill="none" stroke="#000" stroke-miterlimit="10.433" stroke-opacity=".62745" stroke-width=".69309"><path d="m171.51 757.67c7.6897 25.267 22 51.109 37.039 51.316 12.208-0.15688 28.413-24.989 36.962-50.464" fill="none" stroke="#003c88" stroke-miterlimit="10.433" stroke-opacity=".58454" stroke-width=".69309"/></g></g></g></g><path d="m397.97 631.56v45.136" fill="none" stroke-dasharray="1.80716054, 0.45179014" stroke-opacity=".31373" stroke-width=".45179"/><path d="m335.24 642.14v34.401" fill="none" stroke-dasharray="1.80716052, 0.45179013" stroke-opacity=".31373" stroke-width=".45179"/></g><g fill-rule="evenodd" stroke-width="0"><g fill-opacity=".78431"><path d="m399.45 679.15-9e-3 -0.0181-9e-3 -0.0273v-0.0273l-0.018-0.0728-0.0182-0.0364-9e-3 -0.0364-9e-3 -0.0455-0.0182-0.0364-0.0182-0.0455-0.0181-0.0455-0.0182-0.0455-0.0181-0.0455-0.0183-0.0455-0.0819-0.1365-0.0273-0.0364-0.0273-0.0455-0.0364-0.0364-0.0273-0.0455-0.0364-0.0364-0.0455-0.0364-0.0364-0.0273-0.0455-0.0273-0.0364-0.0273-0.0273-9e-3 -0.0273-0.0182-0.0181-9e-3 -0.0546-0.018h-0.0273l-0.0181-9e-3 -0.0273-9e-3h-0.0637l-0.0273-9e-3h-0.0273c-0.0455 0-0.26384 0-0.45489 0.11827 0.25474 0.0455 0.4367 0.27294 0.4367 0.49128 0 0.14557-0.10008 0.31842-0.34572 0.31842-0.20015 0-0.49129-0.16375-0.49129-0.52767 0-0.47308 0.53678-0.60046 0.8461-0.60046 0.52768 0 0.84611 0.48219 0.95528 0.69145 0.22745-0.60047 0.70963-0.69145 0.97347-0.69145 0.94617 0 1.4648 1.1736 1.4648 1.392 0 0.0909-0.0909 0.0909-0.10917 0.0909-0.0728 0-0.10008-0.0181-0.11828-0.10008-0.30932-0.95527-0.90978-1.1827-1.2191-1.1827-0.17286 0-0.48219 0.0819-0.48219 0.60956 0 0.28203 0.15466 0.88249 0.48219 2.1471 0.14556 0.56407 0.46399 0.94617 0.86429 0.94617 0.0545 0 0.26384 0 0.45489-0.11826-0.22744-0.0455-0.42759-0.23655-0.42759-0.49129 0-0.24564 0.20015-0.31842 0.33662-0.31842 0.27293 0 0.50038 0.23654 0.50038 0.52767 0 0.4185-0.4549 0.59136-0.8552 0.59136-0.60046 0-0.92799-0.62775-0.95528-0.68234-0.10007 0.33662-0.42759 0.68234-0.97346 0.68234-0.93708 0-1.4557-1.1645-1.4557-1.392 0-0.0909 0.0819-0.0909 0.10917-0.0909 0.0819 0 0.10008 0.0455 0.11828 0.10008 0.30022 0.97346 0.91888 1.1918 1.21 1.1918 0.35481 0 0.50038-0.29113 0.50038-0.60045 0-0.20015-0.0545-0.40032-0.15466-0.79151z"/><path d="m395.17 679.22v-0.081l9e-3 -9e-3v-0.036l9e-3 -9e-3v-9e-3l0.018-0.018h9e-3l9e-3 -9e-3h0.036l9e-3 -9e-3h0.09c0.40941 0.4003 0.98257 0.4094 1.2464 0.4094v0.22745c-0.15466 0-0.57316 0-0.91887-0.18195v3.2297c0 0.20925 0 0.29113 0.63685 0.29113h0.23653v0.22745c-0.10917-9e-3 -0.89158-0.0273-1.1281-0.0273-0.20015 0-1.0008 0.0181-1.1372 0.0273v-0.22745h0.23655c0.63685 0 0.63685-0.0819 0.63685-0.29113z"/><path d="m336.07 678.85v-0.0181l-0.018-0.0546-0.036-0.1456-0.0182-0.0455-9e-3 -0.0364-0.0728-0.182-0.0273-0.0455-0.0182-0.0455-0.0546-0.091-0.0273-0.0364-0.0364-0.0455-0.0273-0.0364-0.0364-0.0455-0.0728-0.0728-0.0364-0.0273-0.091-0.0546-0.0182-9e-3 -0.0273-0.0182-0.0273-9e-3 -0.0182-9e-3 -0.0273-9e-3h-0.0273l-0.0546-0.018h-0.0546l-0.0273-9e-3h-0.0273c-0.0455 0-0.26384 0-0.45489 0.11827 0.25474 0.0455 0.4367 0.27294 0.4367 0.49129 0 0.14556-0.10008 0.31842-0.34572 0.31842-0.20016 0-0.49129-0.16376-0.49129-0.52767 0-0.47309 0.53678-0.60046 0.8461-0.60046 0.51858 0 0.83701 0.48219 0.94618 0.69143 0.22745-0.60045 0.71873-0.69143 0.98257-0.69143 0.94618 0 1.4648 1.1736 1.4648 1.392 0 0.0909-0.091 0.0909-0.10917 0.0909-0.0728 0-0.10008-0.0182-0.11827-0.10007-0.30933-0.95528-0.90979-1.1827-1.2191-1.1827-0.17285 0-0.49128 0.0819-0.49128 0.60956 0 0.28203 0.15466 0.88248 0.49128 2.1471 0.14557 0.56406 0.464 0.94617 0.8643 0.94617 0.0546 0 0.26384 0 0.45489-0.11827-0.22744-0.0455-0.4276-0.23654-0.4276-0.49128 0-0.24564 0.20016-0.31843 0.33663-0.31843 0.27293 0 0.50038 0.23654 0.50038 0.52768 0 0.4185-0.4549 0.59136-0.8552 0.59136-0.60046 0-0.92798-0.62775-0.95528-0.68235-0.10917 0.33663-0.43669 0.68235-0.98256 0.68235-0.92798 0-1.4466-1.1645-1.4466-1.392 0-0.091 0.0819-0.091 0.10917-0.091 0.0819 0 0.10008 0.0455 0.11827 0.10008 0.30023 0.97347 0.90979 1.1918 1.2009 1.1918 0.35482 0 0.50038-0.29113 0.50038-0.60046 0-0.20016-0.0546-0.40031-0.15466-0.79152z"/><path d="m330.71 681.79h0.21835c0.0182 0.14556 0.0819 0.51857 0.16376 0.58226 0.0455 0.0364 0.53678 0.0364 0.62776 0.0364h1.1736c-0.67324-0.59136-0.89159-0.76422-1.2737-1.0644-0.47309-0.37301-0.90979-0.76422-0.90979-1.3647 0-0.76422 0.67325-1.2373 1.492-1.2373 0.78242 0 1.3192 0.55498 1.3192 1.1372 0 0.31843-0.27294 0.35482-0.33662 0.35482-0.15466 0-0.33662-0.10917-0.33662-0.33663 0-0.11826 0.0455-0.33661 0.37301-0.33661-0.20015-0.4458-0.62775-0.59136-0.92798-0.59136-0.63685 0-0.96437 0.49128-0.96437 1.0099 0 0.54587 0.39121 0.98257 0.59136 1.21l1.5375 1.5102c0.0637 0.0546 0.0637 0.0637 0.0637 0.24564h-2.6202z"/><path d="m355.22 679.62-9e-3 -0.0181v-0.0273l-9e-3 -0.0273-0.027-0.1092-0.0182-0.0364-9e-3 -0.0455-0.0182-0.0364-9e-3 -0.0455-0.0364-0.091-0.0273-0.0455-0.0182-0.0455-0.0273-0.0455-0.0182-0.0455-0.0273-0.0455-0.0273-0.0364-0.0364-0.0455-0.0273-0.0364-0.0364-0.0455-0.0728-0.0728-0.0455-0.0273-0.0364-0.0273-0.0455-0.0273-0.0273-9e-3 -0.0182-0.0182-0.0546-0.018-0.0182-9e-3h-0.0273l-0.0546-0.018h-0.0546l-0.0273-9e-3h-0.0364c-0.0455 0-0.26384 0-0.4549 0.11826 0.25474 0.0455 0.4367 0.27294 0.4367 0.49129 0 0.14556-0.10008 0.31842-0.34572 0.31842-0.20015 0-0.48218-0.16375-0.48218-0.52767 0-0.47308 0.52767-0.60046 0.837-0.60046 0.52767 0 0.8461 0.48219 0.95527 0.69144 0.22745-0.60046 0.71873-0.69144 0.98257-0.69144 0.93708 0 1.4557 1.1736 1.4557 1.392 0 0.0909-0.091 0.0909-0.10918 0.0909-0.0728 0-0.10007-0.0181-0.11827-0.10008-0.30933-0.95528-0.90069-1.1827-1.21-1.1827-0.17286 0-0.49129 0.0819-0.49129 0.60956 0 0.28203 0.15467 0.88249 0.49129 2.1471 0.14556 0.56407 0.46399 0.94618 0.85519 0.94618 0.0546 0 0.26384 0 0.4549-0.11827-0.22745-0.0455-0.4276-0.23655-0.4276-0.49129 0-0.24564 0.20015-0.31842 0.33662-0.31842 0.27293 0 0.50038 0.23653 0.50038 0.52767 0 0.4185-0.45489 0.59136-0.8552 0.59136-0.59136 0-0.91888-0.62775-0.94617-0.68233-0.10918 0.33661-0.4367 0.68233-0.98257 0.68233-0.93708 0-1.4557-1.1645-1.4557-1.392 0-0.0909 0.0819-0.0909 0.10917-0.0909 0.0819 0 0.10008 0.0455 0.11828 0.10008 0.30023 0.97346 0.91888 1.1918 1.21 1.1918 0.35482 0 0.50038-0.29113 0.50038-0.60045 0-0.20016-0.0546-0.40031-0.15466-0.79152z"/><path d="m416.07 631.63h-0.78242c-0.18195 0-0.27293 0-0.27293-0.18195 0-0.10008 0.0909-0.10008 0.24564-0.10008h0.75512l-0.19105-1.0281c-0.0364-0.19105-0.16377-0.8279-0.21835-0.93707-0.0819-0.17286-0.23655-0.30934-0.4276-0.30934-0.0364 0-0.27293 0-0.44579 0.16377 0.4003 0.0364 0.49128 0.35481 0.49128 0.48219 0 0.20924-0.16376 0.31842-0.33662 0.31842-0.23655 0-0.50038-0.20016-0.50038-0.53677 0-0.4185 0.4185-0.62776 0.79151-0.62776 0.30932 0 0.88249 0.16377 1.1554 1.0554 0.0545 0.19106 0.0819 0.28204 0.30023 1.4193h0.61865c0.17286 0 0.27293 0 0.27293 0.17286 0 0.10917-0.0819 0.10917-0.25473 0.10917h-0.59136l0.67323 3.5755c0.16377 0.87339 0.31843 1.6922 0.79152 1.6922 0.0364 0 0.26384 0 0.43669-0.16376-0.4185-0.0273-0.50037-0.34572-0.50037-0.48219 0-0.20924 0.16375-0.31842 0.33661-0.31842 0.23655 0 0.50039 0.20015 0.50039 0.54586 0 0.40032-0.40031 0.61866-0.77332 0.61866-0.50038 0-0.8643-0.52767-1.0281-0.87339-0.28203-0.57316-0.49128-1.6649-0.50038-1.7286z"/><path d="m411.89 637.5v-0.036h9e-3v-9e-3l0.018-0.018v-9e-3h9e-3v-9e-3l9e-3 -9e-3h9e-3v-9e-3l0.036-0.036v-9e-3h9e-3l9e-3 -9e-3v-9e-3h9e-3l9e-3 -9e-3v-9e-3h9e-3l0.018-0.018c1.1281-1.1372 1.4193-2.8476 1.4193-4.2305 0-1.5739-0.34572-3.1479-1.4557-4.276-0.11827-0.10917-0.11827-0.12737-0.11827-0.15466 0-0.0637 0.0364-0.0909 0.0909-0.0909 0.0909 0 0.90069 0.61865 1.4375 1.765 0.464 0.99166 0.57317 2.0015 0.57317 2.7566 0 0.70963-0.10008 1.8014-0.60046 2.8203-0.54588 1.1099-1.3192 1.7013-1.4102 1.7013-0.0546 0-0.0909-0.0273-0.0909-0.0909z"/><path d="m408.33 632.59v-0.0181l-0.018-0.0546-0.036-0.1456-0.0182-0.0455-9e-3 -0.0364-0.0181-0.0455-0.0364-0.091-0.0181-0.0455-0.0273-0.0455-0.0182-0.0455-0.0546-0.091-0.0273-0.0364-0.0364-0.0455-0.0273-0.0364-0.0364-0.0455-0.0728-0.0728-0.0364-0.0273-0.091-0.0546-0.0273-9e-3 -0.0181-0.0181-0.0273-9e-3 -0.0182-9e-3 -0.0273-9e-3h-0.0273l-0.0546-0.018h-0.0546l-0.0273-9e-3h-0.0364c-0.0455 0-0.25474 0-0.44579 0.11827 0.25473 0.0455 0.42759 0.27294 0.42759 0.49128 0 0.14556-0.0909 0.31842-0.33662 0.31842-0.20015 0-0.49128-0.16375-0.49128-0.52767 0-0.47309 0.53677-0.60045 0.8461-0.60045 0.51858 0 0.837 0.48218 0.94617 0.69143 0.22746-0.60046 0.71874-0.69143 0.98257-0.69143 0.94618 0 1.4648 1.1736 1.4648 1.392 0 0.0909-0.10007 0.0909-0.10918 0.0909-0.0728 0-0.10007-0.0182-0.11826-0.10007-0.30933-0.95528-0.90979-1.1827-1.2191-1.1827-0.17286 0-0.49128 0.0819-0.49128 0.60956 0 0.28202 0.15466 0.88249 0.49128 2.1471 0.14557 0.56406 0.46399 0.94618 0.86429 0.94618 0.0546 0 0.26385 0 0.4549-0.11828-0.22745-0.0455-0.4276-0.23654-0.4276-0.49128 0-0.24564 0.20015-0.31843 0.32753-0.31843 0.27293 0 0.50038 0.23655 0.50038 0.52768 0 0.4185-0.4549 0.59136-0.8461 0.59136-0.60047 0-0.92798-0.62775-0.95528-0.68234-0.10918 0.33662-0.4367 0.68234-0.98257 0.68234-0.92798 0-1.4466-1.1645-1.4466-1.392 0-0.0909 0.0819-0.0909 0.10917-0.0909 0.0819 0 0.10008 0.0455 0.11828 0.10007 0.29113 0.97347 0.90978 1.1918 1.2009 1.1918 0.35481 0 0.50037-0.29113 0.50037-0.60046 0-0.20015-0.0545-0.4003-0.15466-0.79151z"/><path d="m404.07 632.66v-0.108l9e-3 -9e-3v-0.018h9e-3v-0.018h9e-3v-9e-3h0.018v-9e-3h0.045v-9e-3h0.099c0.4003 0.40031 0.98256 0.40941 1.2464 0.40941v0.22744c-0.15466 0-0.57316 0-0.92798-0.18195v3.2297c0 0.20924 0 0.29113 0.63684 0.29113h0.24565v0.22744c-0.11827-9e-3 -0.90068-0.0273-1.1372-0.0273-0.19106 0-0.99167 0.0181-1.1372 0.0273v-0.22744h0.24564c0.63685 0 0.63685-0.0819 0.63685-0.29113z"/><path d="m400.97 633.25v-0.2821l9e-3 -0.15466 9e-3 -0.15467 0.0181-0.16375 0.0182-0.17286 0.0546-0.36392 0.0364-0.18195 0.0455-0.19106 0.0455-0.19105 0.0545-0.19106 0.0637-0.19106 0.0728-0.19105 0.0364-0.10007 0.0455-0.10008 0.0455-0.0909 0.0455-0.10008c0.53677-1.1099 1.3192-1.7013 1.4102-1.7013 0.0545 0 0.0909 0.0364 0.0909 0.0909 0 0.0273 0 0.0455-0.17286 0.20926-0.8916 0.90068-1.4011 2.3381-1.4011 4.2214 0 1.5466 0.33662 3.1388 1.4557 4.276 0.11827 0.10918 0.11827 0.12737 0.11827 0.15468 0 0.0545-0.0364 0.0909-0.0909 0.0909-0.091 0-0.90069-0.61867-1.4375-1.765-0.46399-0.99166-0.57316-1.9924-0.57316-2.7566z"/><path d="m331.16 642.95h-0.77332c-0.18195 0-0.27293 0-0.27293-0.18195 0-0.10007 0.091-0.10007 0.24564-0.10007h0.74602l-0.18195-1.0281c-0.0364-0.19106-0.16377-0.82791-0.21835-0.93708-0.0819-0.17286-0.23655-0.30933-0.4276-0.30933-0.0364 0-0.27294 0-0.4458 0.16376 0.40031 0.0364 0.49129 0.35481 0.49129 0.48218 0 0.20926-0.16376 0.31843-0.33662 0.31843-0.23655 0-0.50039-0.20015-0.50039-0.53677 0-0.4185 0.41851-0.62775 0.79152-0.62775 0.30932 0 0.88249 0.16376 1.1463 1.0554 0.0546 0.19105 0.0819 0.28203 0.30023 1.4193h0.62775c0.17286 0 0.27293 0 0.27293 0.17285 0 0.10917-0.0819 0.10917-0.25474 0.10917h-0.60045l0.68233 3.5755c0.16377 0.8734 0.31843 1.6922 0.79152 1.6922 0.0364 0 0.26384 0 0.43669-0.16376-0.4185-0.0273-0.50038-0.34571-0.50038-0.48219 0-0.20925 0.16376-0.31842 0.33662-0.31842 0.23655 0 0.50039 0.20015 0.50039 0.54587 0 0.40031-0.40031 0.61865-0.77332 0.61865-0.50038 0-0.8643-0.52767-1.0281-0.87339-0.29113-0.57316-0.50038-1.6649-0.50948-1.7286z"/><path d="m326.95 648.85v-9e-3l9e-3 -9e-3v-0.018h9e-3v-9e-3l9e-3 -9e-3v-9e-3l9e-3 -9e-3h9e-3v-9e-3l0.054-0.054v-9e-3h9e-3v-9e-3l9e-3 -9e-3h9e-3v-9e-3l9e-3 -9e-3h9e-3l9e-3 -9e-3v-9e-3c1.1372-1.1372 1.4284-2.8476 1.4284-4.2305 0-1.5739-0.34572-3.1478-1.4648-4.276-0.11827-0.10917-0.11827-0.12737-0.11827-0.15466 0-0.0637 0.0364-0.0909 0.091-0.0909 0.091 0 0.90978 0.61865 1.4466 1.765 0.46399 0.99167 0.57316 2.0015 0.57316 2.7566 0 0.70964-0.10008 1.8014-0.60046 2.8203-0.54587 1.11-1.3283 1.7013-1.4193 1.7013-0.0546 0-0.091-0.0273-0.091-0.0909z"/><path d="m323.4 643.94-9e-3 -0.0181v-0.0273l-9e-3 -0.0273-0.027-0.1092-0.0182-0.0364-9e-3 -0.0455-0.0182-0.0364-9e-3 -0.0455-0.0364-0.091-0.0273-0.0455-0.0182-0.0455-0.0273-0.0455-0.0182-0.0455-0.0273-0.0455-0.0273-0.0364-0.0364-0.0455-0.0273-0.0364-0.0364-0.0455-0.0728-0.0728-0.0455-0.0273-0.0364-0.0273-0.0455-0.0273-0.0273-9e-3 -0.0182-0.0182-0.0546-0.018-0.0182-9e-3h-0.0273l-0.0546-0.018h-0.0546l-0.0273-9e-3h-0.0364c-0.0455 0-0.26384 0-0.4549 0.11827 0.25474 0.0455 0.4367 0.27293 0.4367 0.49128 0 0.14557-0.10008 0.31842-0.34572 0.31842-0.19105 0-0.48218-0.16375-0.48218-0.52767 0-0.47308 0.52767-0.60046 0.837-0.60046 0.52767 0 0.8461 0.48219 0.95527 0.69144 0.22745-0.60046 0.71873-0.69144 0.98257-0.69144 0.93708 0 1.4557 1.1736 1.4557 1.392 0 0.0909-0.091 0.0909-0.10918 0.0909-0.0728 0-0.10007-0.0181-0.11827-0.10008-0.30933-0.95527-0.90069-1.1827-1.21-1.1827-0.17286 0-0.49129 0.0819-0.49129 0.60956 0 0.28203 0.15467 0.88249 0.49129 2.1471 0.14556 0.56407 0.46399 0.94617 0.85519 0.94617 0.0546 0 0.26384 0 0.4549-0.11826-0.22745-0.0455-0.4276-0.23655-0.4276-0.49129 0-0.24564 0.20015-0.31842 0.33662-0.31842 0.27293 0 0.50038 0.23654 0.50038 0.52767 0 0.4185-0.45489 0.59136-0.8552 0.59136-0.59136 0-0.91888-0.62775-0.94617-0.68234-0.10918 0.33662-0.4367 0.68234-0.98257 0.68234-0.93708 0-1.4557-1.1645-1.4557-1.392 0-0.0909 0.091-0.0909 0.11827-0.0909 0.0728 0 0.091 0.0455 0.10918 0.10008 0.30023 0.97346 0.91888 1.1918 1.21 1.1918 0.35482 0 0.50038-0.29113 0.50038-0.60045 0-0.20016-0.0546-0.40032-0.15466-0.79152z"/><path d="m318.04 646.88h0.20925c0.0273 0.14557 0.0819 0.51858 0.17286 0.58226 0.0455 0.0364 0.53677 0.0364 0.62775 0.0364h1.1645c-0.66414-0.59136-0.89159-0.76422-1.2646-1.0644-0.47309-0.37302-0.90979-0.76422-0.90979-1.3647 0-0.76422 0.67324-1.2373 1.483-1.2373 0.79152 0 1.3283 0.55496 1.3283 1.1372 0 0.31842-0.27294 0.35481-0.33662 0.35481-0.15467 0-0.33662-0.10917-0.33662-0.33662 0-0.11827 0.0364-0.33662 0.37301-0.33662-0.20015-0.44579-0.62775-0.59136-0.92798-0.59136-0.63685 0-0.97347 0.49129-0.97347 1.0099 0 0.54587 0.4003 0.98257 0.60046 1.21l1.5375 1.5102c0.0637 0.0546 0.0637 0.0637 0.0637 0.24565h-2.6202z"/><path d="m315.4 644.47v-0.2821l9e-3 -0.15466 9e-3 -0.15468 0.0182-0.16375 0.0182-0.17286 0.0546-0.36392 0.0364-0.18195 0.0364-0.19106 0.0546-0.19105 0.0546-0.19106 0.0637-0.19106 0.0728-0.19104 0.0364-0.10008 0.0455-0.10008 0.0364-0.0909 0.0455-0.10008c0.54587-1.1099 1.3283-1.7013 1.4193-1.7013 0.0546 0 0.091 0.0364 0.091 0.0909 0 0.0273 0 0.0455-0.17286 0.20926-0.89159 0.90068-1.4102 2.3381-1.4102 4.2214 0 1.5466 0.33662 3.1388 1.4648 4.276 0.11827 0.10918 0.11827 0.12736 0.11827 0.15467 0 0.0545-0.0364 0.0909-0.091 0.0909-0.091 0-0.90979-0.61866-1.4466-1.765-0.45489-0.99166-0.56407-1.9924-0.56407-2.7566z"/><path d="m351.01 664.21h-0.77332c-0.18196 0-0.27294 0-0.27294-0.18195 0-0.10008 0.091-0.10008 0.24564-0.10008h0.74603l-0.19106-1.0281c-0.0364-0.19105-0.16376-0.8279-0.21834-0.93707-0.0728-0.17286-0.22745-0.30933-0.41851-0.30933-0.0364 0-0.27293 0-0.44579 0.16376 0.40031 0.0364 0.49128 0.35481 0.49128 0.48218 0 0.20926-0.16376 0.31843-0.33662 0.31843-0.23654 0-0.50038-0.20016-0.50038-0.53678 0-0.4185 0.4185-0.62775 0.79151-0.62775 0.30023 0 0.8734 0.16377 1.1463 1.0554 0.0546 0.19105 0.0819 0.28202 0.30023 1.4193h0.62775c0.17286 0 0.27294 0 0.27294 0.17286 0 0.10917-0.0819 0.10917-0.25474 0.10917h-0.60046l0.68234 3.5754c0.16376 0.8734 0.31843 1.6922 0.79151 1.6922 0.0364 0 0.26384 0 0.4367-0.16377-0.4185-0.0273-0.50038-0.34572-0.50038-0.48218 0-0.20925 0.16376-0.31842 0.33662-0.31842 0.23654 0 0.49128 0.20015 0.49128 0.54587 0 0.4003-0.3912 0.61865-0.76422 0.61865-0.50038 0-0.86429-0.52767-1.028-0.87339-0.29113-0.57317-0.50038-1.6649-0.50948-1.7286z"/><path d="m346.66 670.02v-0.018l9e-3 -9e-3v-9e-3l9e-3 -9e-3v-9e-3h9e-3v-9e-3l0.018-0.018v-9e-3h9e-3l9e-3 -9e-3v-9e-3h9e-3v-9e-3h9e-3v-9e-3h9e-3v-9e-3l9e-3 -9e-3h9e-3v-9e-3l9e-3 -9e-3h9e-3v-9e-3l9e-3 -9e-3h9e-3v-9e-3l9e-3 -9e-3c1.1372-1.1372 1.4284-2.8476 1.4284-4.2305 0-1.5739-0.34571-3.1479-1.4648-4.276-0.11827-0.10917-0.11827-0.12737-0.11827-0.15466 0-0.0637 0.0364-0.0909 0.091-0.0909 0.091 0 0.90979 0.61865 1.4466 1.765 0.46399 0.99167 0.57317 2.0015 0.57317 2.7566 0 0.70964-0.10008 1.8014-0.60046 2.8203-0.54587 1.1099-1.3283 1.7013-1.4193 1.7013-0.0546 0-0.091-0.0273-0.091-0.091z"/><path d="m343.12 665.12-9e-3 -0.0181-9e-3 -0.0273v-0.0273l-0.018-0.0728-0.0182-0.0364-9e-3 -0.0364-9e-3 -0.0455-0.0182-0.0364-0.091-0.2275-0.0819-0.1365-0.0273-0.0364-0.0273-0.0455-0.0364-0.0364-0.0273-0.0455-0.0728-0.0728-0.091-0.0546-0.0364-0.0273-0.0273-9e-3 -0.0182-0.0181-0.0819-0.027h-0.0182l-0.0546-0.018h-0.0546l-0.0364-9e-3h-0.0273c-0.0455 0-0.26384 0-0.45489 0.11827 0.25474 0.0455 0.43669 0.27294 0.43669 0.49129 0 0.14556-0.10007 0.31842-0.34571 0.31842-0.20016 0-0.49129-0.16376-0.49129-0.52767 0-0.47309 0.53678-0.60046 0.8461-0.60046 0.52768 0 0.8461 0.48219 0.95528 0.69143 0.22744-0.60045 0.71873-0.69143 0.97347-0.69143 0.94617 0 1.4648 1.1736 1.4648 1.392 0 0.091-0.091 0.091-0.10917 0.091-0.0728 0-0.10008-0.0182-0.11828-0.10008-0.30932-0.95528-0.90978-1.1827-1.21-1.1827-0.17286 0-0.49128 0.0819-0.49128 0.60956 0 0.28203 0.15466 0.88249 0.49128 2.1471 0.14557 0.56407 0.45489 0.94617 0.8552 0.94617 0.0546 0 0.26384 0 0.45489-0.11826-0.22745-0.0455-0.4276-0.23655-0.4276-0.49129 0-0.24564 0.20015-0.31842 0.33662-0.31842 0.27294 0 0.50038 0.23653 0.50038 0.52767 0 0.4185-0.45489 0.59136-0.85519 0.59136-0.60046 0-0.91889-0.62775-0.94618-0.68234-0.10918 0.33662-0.4367 0.68234-0.98257 0.68234-0.93708 0-1.4557-1.1645-1.4557-1.392 0-0.0909 0.0819-0.0909 0.10918-0.0909 0.0819 0 0.10008 0.0455 0.11827 0.10008 0.30023 0.97346 0.91888 1.1918 1.21 1.1918 0.35481 0 0.50038-0.29113 0.50038-0.60045 0-0.20016-0.0546-0.40032-0.15467-0.79152z"/></g><path d="m338.34 665.59v-0.1365l9e-3 -0.0728v-0.0728l9e-3 -0.15467 9e-3 -0.15466 0.0182-0.16376 0.0182-0.17286 0.0182-0.18196 0.0364-0.18195 0.0364-0.18196 0.0364-0.19106 0.1092-0.3821 0.0637-0.19106 0.0728-0.19106 0.0364-0.10007 0.0364-0.10008 0.0455-0.0909 0.0455-0.10008c0.54587-1.1099 1.3283-1.7013 1.4193-1.7013 0.0546 0 0.091 0.0364 0.091 0.0909 0 0.0273 0 0.0455-0.17286 0.20925-0.89159 0.90069-1.4102 2.3382-1.4102 4.2214 0 1.5466 0.33662 3.1388 1.4648 4.276 0.11827 0.10917 0.11827 0.12737 0.11827 0.15466 0 0.0545-0.0364 0.0909-0.091 0.0909-0.091 0-0.90978-0.61866-1.4466-1.765-0.46399-0.99167-0.57316-1.9924-0.57316-2.7566z"/><g fill-opacity=".78431"><path d="m353.1 630.18h9e-3v-0.036l9e-3 -9e-3v-9e-3l0.027-0.027h9e-3v-9e-3h0.027l9e-3 -9e-3h0.036c0.20067 0 0.86654 0.073 1.1037 0.0912 0.073 9e-3 0.17331 0.0183 0.17331 0.19158 0 0.10034-0.0912 0.10034-0.22803 0.10034-0.43783 0-0.44695 0.0821-0.44695 0.15506l0.0274 0.18243 1.1493 4.5242c0.0274 0.10033 0.0456 0.16418 0.0456 0.31013 0 0.51992-0.40134 0.83005-0.83005 0.83005-0.30101 0-0.52905-0.17331-0.68411-0.50168-0.16419-0.34662-0.26452-0.87566-0.26452-0.8939 0-0.0912 0.073-0.0912 0.10033-0.0912 0.0912 0 0.10034 0.0456 0.1277 0.16419 0.15507 0.59289 0.32838 1.1311 0.69323 1.1311 0.27365 0 0.27365-0.29189 0.27365-0.41959 0-0.21891-9e-3 -0.26452-0.0547-0.43783z"/><path d="m349.97 638.48v-0.027l9e-3 -9e-3v-9e-3h9e-3v-9e-3l9e-3 -9e-3v-9e-3h9e-3v-9e-3h9e-3v-9e-3h9e-3v-9e-3h9e-3v-9e-3l0.045-0.045v-9e-3h9e-3l0.036-0.036c1.1311-1.1402 1.4229-2.855 1.4229-4.2415 0-1.578-0.34661-3.156-1.4594-4.2871-0.11857-0.10946-0.11857-0.1277-0.11857-0.15507 0-0.0639 0.0365-0.0912 0.0912-0.0912 0.0912 0 0.90302 0.62026 1.4412 1.7696 0.46519 0.99424 0.57465 2.0067 0.57465 2.7638 0 0.71147-0.10034 1.806-0.60202 2.8276-0.54728 1.1128-1.3226 1.7057-1.4138 1.7057-0.0547 0-0.0912-0.0274-0.0912-0.0912z"/><path d="m346.95 633.3v-0.0182l-0.018-0.0548-0.036-0.146-0.0182-0.0456-9e-3 -0.0365-0.0183-0.0456-0.0546-0.1368-0.0274-0.0456-0.0182-0.0456-0.0548-0.0912-0.0274-0.0365-0.0274-0.0456-0.0365-0.0365-0.0365-0.0456-0.073-0.073-0.0365-0.0274-0.0912-0.0548-0.0182-9e-3 -0.0274-0.0182-0.0274-9e-3 -0.0182-9e-3 -0.0274-9e-3h-0.0274l-0.0548-0.018h-0.0548l-0.0274-9e-3h-0.0274c-0.0456 0-0.26452 0-0.45607 0.11857 0.2554 0.0456 0.43783 0.27365 0.43783 0.49256 0 0.14594-0.10034 0.31925-0.34662 0.31925-0.20067 0-0.49256-0.16418-0.49256-0.52904 0-0.47432 0.53817-0.60202 0.8483-0.60202 0.51992 0 0.84829 0.48344 0.94863 0.69323 0.22803-0.60201 0.72059-0.69323 0.98511-0.69323 0.94863 0 1.4686 1.1767 1.4686 1.3956 0 0.0912-0.0912 0.0912-0.10946 0.0912-0.073 0-0.10033-0.0183-0.11858-0.10034-0.31012-0.95775-0.91214-1.1858-1.2223-1.1858-0.1733 0-0.49255 0.0821-0.49255 0.61113 0 0.28277 0.15506 0.88478 0.49255 2.1527 0.14595 0.56553 0.4652 0.94863 0.86654 0.94863 0.0547 0 0.26452 0 0.45607-0.11858-0.22804-0.0456-0.42871-0.23716-0.42871-0.49256 0-0.24628 0.20067-0.31925 0.3375-0.31925 0.27364 0 0.50167 0.23716 0.50167 0.52904 0 0.41959-0.45607 0.5929-0.85741 0.5929-0.60201 0-0.93039-0.62938-0.95775-0.68411-0.10946 0.33749-0.43783 0.68411-0.98511 0.68411-0.93039 0-1.4503-1.1676-1.4503-1.3956 0-0.0912 0.0821-0.0912 0.10946-0.0912 0.0821 0 0.10033 0.0456 0.11857 0.10034 0.30101 0.97599 0.91215 1.1949 1.204 1.1949 0.35574 0 0.50168-0.29189 0.50168-0.60202 0-0.20067-0.0547-0.40134-0.15506-0.79356z"/><path d="m342.46 634.04v-0.2829l9e-3 -0.15506 9e-3 -0.15507 0.0183-0.16418 0.0182-0.17331 0.0548-0.36486 0.0365-0.18242 0.0912-0.3831 0.0547-0.19155 0.0639-0.19155 0.073-0.19155 0.0365-0.10034 0.0456-0.10034 0.0456-0.0912 0.0456-0.10034c0.54728-1.1128 1.3226-1.7057 1.4138-1.7057 0.0547 0 0.0912 0.0365 0.0912 0.0912 0 0.0274 0 0.0456-0.17331 0.2098-0.88477 0.90305-1.4047 2.3442-1.4047 4.2324 0 1.5506 0.3375 3.1469 1.4594 4.2871 0.11858 0.10946 0.11858 0.1277 0.11858 0.15506 0 0.0547-0.0365 0.0912-0.0912 0.0912-0.0912 0-0.90302-0.62026-1.4412-1.7696-0.46519-0.99424-0.57465-1.9976-0.57465-2.7638z"/></g></g><path d="m397.97 631.56-62.726 10.587" fill="none" marker-end="url(#a)" marker-start="url(#b)" stroke="#f00" stroke-opacity=".31373" stroke-width=".69168"/></g><g fill-rule="evenodd"><ellipse transform="scale(-1,1)" cx="-355.73" cy="638.73" rx=".8599" ry=".8599" fill="#f00" fill-opacity=".31373" opacity=".97" stroke="#000" stroke-linecap="square" stroke-miterlimit="10.433" stroke-opacity=".31373" stroke-width=".45179"/><ellipse transform="scale(-1,1)" cx="-355.74" cy="661.76" rx=".8599" ry=".8599" fill="#0000fb" fill-opacity=".31373" opacity=".97" stroke="#000" stroke-linecap="square" stroke-miterlimit="10.433" stroke-opacity=".31373" stroke-width=".45179"/><rect transform="scale(-1,1)" x="-378.88" y="565.99" width="44.278" height="12.392" fill-opacity=".1401" opacity=".97" stroke="none"/><g transform="matrix(-.87727 0 0 -.87727 559.26 1183.2)" stroke="#000" stroke-miterlimit="10.433" stroke-opacity="1" stroke-width="0" ns0:preamble="default_packages.tex" ns0:text="$\\text{Convex}$\n" xml:space="preserve"><path d="m149.27 710.52v-0.19l0.02-0.19 0.02-0.18 0.03-0.18 0.04-0.18 0.05-0.18 0.06-0.16 0.06-0.17 0.07-0.16 0.08-0.16 0.18-0.3 0.1-0.14 0.1-0.13 0.11-0.13 0.12-0.13 0.12-0.12 0.13-0.11 0.13-0.1 0.14-0.1 0.28-0.18 0.15-0.08 0.16-0.07 0.15-0.06 0.16-0.06 0.16-0.04 0.17-0.04 0.34-0.06 0.17-0.01h0.17c1.63 0 2.6 1.38 2.6 2.53 0 0.1 0 0.17-0.13 0.17-0.11 0-0.11-0.06-0.12-0.16-0.08-1.42-1.14-2.24-2.23-2.24-0.61 0-2.56 0.34-2.56 3.3 0 2.97 1.94 3.31 2.55 3.31 1.09 0 1.97-0.9 2.17-2.35 0.02-0.14 0.02-0.17 0.16-0.17 0.16 0 0.16 0.03 0.16 0.24v2.35c0 0.17 0 0.24-0.11 0.24-0.04 0-0.08 0-0.16-0.12l-0.49-0.74c-0.37 0.36-0.88 0.86-1.84 0.86-1.86 0-3.47-1.58-3.47-3.61z"/><path d="m160.6 709.25v0.12l-0.01 0.12-0.01 0.11-0.02 0.12-0.09 0.33-0.04 0.1-0.05 0.1-0.04 0.1-0.06 0.1-0.06 0.09-0.06 0.1-0.06 0.08-0.07 0.09-0.08 0.08-0.07 0.08-0.08 0.07-0.09 0.07-0.08 0.06-0.09 0.07-0.09 0.05-0.2 0.1-0.2 0.08-0.1 0.03-0.11 0.03-0.11 0.02-0.33 0.03-0.01-0.22c0.44 0 0.87-0.22 1.13-0.65s0.26-1 0.26-1.38c0-0.36 0-0.89-0.22-1.33-0.22-0.45-0.66-0.74-1.16-0.74-0.43 0-0.87 0.21-1.14 0.67-0.25 0.44-0.25 1.04-0.25 1.4 0 0.39 0 0.92 0.24 1.36 0.27 0.46 0.74 0.67 1.14 0.67l0.01 0.22c-1.25 0-2.21-1.09-2.21-2.33 0-1.28 1.03-2.23 2.2-2.23 1.21 0 2.21 0.97 2.21 2.23z"/><path d="m161.99 710.54v-2.66c0-0.45-0.11-0.45-0.78-0.45v-0.3c0.35 0.01 0.86 0.03 1.12 0.03s0.78-0.02 1.12-0.03v0.3c-0.67 0-0.78 0-0.78 0.45v1.83c0 1.03 0.71 1.59 1.35 1.59 0.63 0 0.74-0.54 0.74-1.1v-2.32c0-0.45-0.11-0.45-0.78-0.45v-0.3c0.35 0.01 0.86 0.03 1.13 0.03 0.26 0 0.77-0.02 1.11-0.03v0.3c-0.51 0-0.76 0-0.77 0.3v1.9c0 0.85 0 1.16-0.31 1.52-0.14 0.17-0.47 0.37-1.05 0.37-0.73 0-1.2-0.43-1.48-1.05v1.05l-1.4-0.11v-0.31c0.69 0 0.78-0.07 0.78-0.56z"/><path d="m170.29 710.43 0.01 0.02 0.01 0.03 0.01 0.02 0.01 0.03 0.01 0.02 0.01 0.03 0.02 0.02 0.01 0.03 0.02 0.03 0.01 0.03 0.02 0.02 0.06 0.09 0.1 0.1 0.06 0.04 0.04 0.03 0.03 0.02 0.04 0.02 0.04 0.01 0.04 0.02 0.05 0.01 0.05 0.02 0.1 0.02h0.08l0.03 0.01h0.06v0.31c-0.23-0.02-0.52-0.03-0.75-0.03-0.24 0-0.7 0.02-0.86 0.03v-0.31c0.36-0.01 0.47-0.24 0.47-0.43 0-0.09-0.02-0.13-0.06-0.24l-1.01-2.53-1.12 2.77c-0.06 0.13-0.06 0.15-0.06 0.17 0 0.26 0.39 0.26 0.57 0.26v0.31c-0.3-0.01-0.86-0.03-1.09-0.03-0.27 0-0.67 0.01-0.97 0.03v-0.31c0.63 0 0.67-0.06 0.8-0.37l1.44-3.53c0.06-0.13 0.08-0.18 0.21-0.18s0.17 0.08 0.21 0.18z"/><path d="m172.23 709.42 0.01 0.21c0.06 1.48 0.9 1.73 1.24 1.73 1.02 0 1.12-1.34 1.12-1.73h-2.36l-0.01-0.21h2.78c0.22 0 0.25 0 0.25 0.21 0 0.98-0.54 1.95-1.78 1.95-1.16 0-2.08-1.03-2.08-2.27 0-1.33 1.05-2.29 2.2-2.29 1.21 0 1.66 1.1 1.66 1.29 0 0.1-0.08 0.12-0.13 0.12-0.09 0-0.11-0.06-0.13-0.14-0.35-1.03-1.24-1.03-1.34-1.03-0.5 0-0.9 0.3-1.13 0.67-0.3 0.48-0.3 1.13-0.3 1.49z"/><path d="m178.41 709.46 0.06 0.07 0.06 0.08 0.06 0.07 0.06 0.08 0.12 0.15 0.12 0.16 0.24 0.28 0.03 0.03 0.02 0.03 0.03 0.04 0.02 0.03 0.03 0.02 0.02 0.03 0.05 0.05c0.31 0.36 0.72 0.51 1.19 0.52v0.31c-0.26-0.02-0.56-0.03-0.82-0.03-0.3 0-0.83 0.02-0.96 0.03v-0.31c0.21-0.02 0.29-0.15 0.29-0.31s-0.1-0.29-0.15-0.35l-0.62-0.77-0.77 1c-0.09 0.1-0.09 0.12-0.09 0.18 0 0.15 0.15 0.24 0.34 0.25v0.31c-0.25-0.01-0.91-0.03-1.07-0.03-0.21 0-0.68 0.01-0.95 0.03v-0.31c0.7 0 0.71-0.01 1.18-0.61l0.98-1.28-0.93-1.18c-0.48-0.58-1.07-0.6-1.28-0.6v-0.3c0.26 0.02 0.57 0.03 0.83 0.03 0.29 0 0.71-0.02 0.95-0.03v0.3c-0.22 0.03-0.29 0.16-0.29 0.31 0 0.22 0.29 0.55 0.89 1.26l0.76-0.99c0.08-0.11 0.21-0.27 0.21-0.33 0-0.09-0.09-0.24-0.36-0.25v-0.3c0.3 0.01 0.86 0.03 1.08 0.03 0.27 0 0.66-0.01 0.96-0.03v0.3c-0.54 0-0.72 0.02-0.95 0.31z"/></g></g></g></g></g></g></g></g></g></g></g></g></g></g></g></g></g></g></g></g></g></g></g></g></g></g></g></g></g></g></g></g></g></g>
  </g>
 </g>
</svg>
