<svg width="150mm" height="75mm" version="1.1" viewBox="0 0 223.71 109.61" xmlns="http://www.w3.org/2000/svg" xmlns:ns0="http://www.iki.fi/pav/software/textext/">
 <defs>
  <marker id="a" overflow="visible" orient="auto">
   <path transform="matrix(.2 0 0 .2 1.48 .2)" d="m-2.5-1c0 2.76-2.24 5-5 5s-5-2.24-5-5 2.24-5 5-5 5 2.24 5 5z" fill="#f00" fill-opacity=".62745" fill-rule="evenodd" stroke="#f00" stroke-opacity=".62745" stroke-width="1pt"/>
  </marker>
  <marker id="b" overflow="visible" orient="auto">
   <path transform="matrix(.2 0 0 .2 1.48 .2)" d="m-2.5-1c0 2.76-2.24 5-5 5s-5-2.24-5-5 2.24-5 5-5 5 2.24 5 5z" fill="#f00" fill-opacity=".62745" fill-rule="evenodd" stroke="#f00" stroke-opacity=".62745" stroke-width="1pt"/>
  </marker>
  <marker id="DotS" overflow="visible" orient="auto">
   <path transform="matrix(.2 0 0 .2 1.48 .2)" d="m-2.5-1c0 2.76-2.24 5-5 5s-5-2.24-5-5 2.24-5 5-5 5 2.24 5 5z" fill="#f00" fill-opacity=".62745" fill-rule="evenodd" stroke="#f00" stroke-opacity=".62745" stroke-width="1pt"/>
  </marker>
  <marker id="c" overflow="visible" orient="auto">
   <path transform="matrix(.2 0 0 .2 1.48 .2)" d="m-2.5-1c0 2.76-2.24 5-5 5s-5-2.24-5-5 2.24-5 5-5 5 2.24 5 5z" fill="#f00" fill-opacity=".62745" fill-rule="evenodd" stroke="#f00" stroke-opacity=".62745" stroke-width="1pt"/>
  </marker>
 </defs>
 <g transform="translate(-29.451 5.7699)">
  <g transform="translate(7.2378 -59.353)">
   <g transform="matrix(1.2506,0,0,-1.2506,-72.165,1072.2)" fill-rule="evenodd" stroke="#000" stroke-miterlimit="10.433" ns0:preamble="default_packages.tex" ns0:text="$x$\n$y$\n" xml:space="preserve"><g transform="matrix(.79961 0 0 -.79961 58.988 860.59)"><g transform="matrix(1.2506,0,0,-1.2506,-72.165,1072.2)" fill-rule="evenodd" stroke="#000" stroke-miterlimit="10.433" ns0:preamble="default_packages.tex" ns0:text="$x$\n$y$\n" xml:space="preserve"><g transform="rotate(180 212.4 757.83)" fill-rule="evenodd" stroke="#000" stroke-miterlimit="10.433" stroke-opacity=".62745"><g transform="matrix(.79961 0 0 -.79961 -41.225 831.43)" stroke="#000" stroke-opacity=".62745" stroke-width=".7"><g transform="matrix(1.2506,0,0,-1.2506,-72.165,1072.2)" fill-rule="evenodd" stroke="#000" stroke-miterlimit="10.433" stroke-opacity=".62745" stroke-width=".55973" ns0:preamble="default_packages.tex" ns0:text="$x$\n$y$\n" xml:space="preserve"><g transform="matrix(-.65715 0 0 -.65715 540.07 1459.9)" fill-rule="evenodd" stroke="#000" stroke-miterlimit="10.433" stroke-opacity=".62745" stroke-width="2.2826" ns0:preamble="default_packages.tex" ns0:text="$x_1 x_2 x f(x_1) f(x_2) f(x)$\n" xml:space="preserve"><g stroke="#000" stroke-opacity=".62745"><g transform="matrix(1.2168 0 0 -1.2168 183.62 863.82)"><g transform="translate(7.2378 -59.353)"><g transform="matrix(1.2506,0,0,-1.2506,-72.165,1072.2)" fill-rule="evenodd" stroke="#000" stroke-miterlimit="10.433" ns0:preamble="default_packages.tex" ns0:text="$x$\n$y$\n" xml:space="preserve"><g transform="matrix(.79961 0 0 -.79961 58.988 860.59)"><g transform="matrix(1.2506,0,0,-1.2506,-72.165,1072.2)" fill-rule="evenodd" stroke="#000" stroke-miterlimit="10.433" ns0:preamble="default_packages.tex" ns0:text="$x$\n$y$\n" xml:space="preserve"><g transform="rotate(180 212.4 757.83)" fill-rule="evenodd" stroke="#000" stroke-miterlimit="10.433"><g transform="matrix(.79961 0 0 -.79961 -41.225 831.43)" stroke-width=".7"><g transform="matrix(-1 0 0 -1 578.27 350.25)"><g transform="translate(7.2378 -59.353)"><g transform="matrix(1.2506,0,0,-1.2506,-72.165,1072.2)" fill-rule="evenodd" stroke="#000" stroke-miterlimit="10.433" ns0:preamble="default_packages.tex" ns0:text="$x$\n$y$\n" xml:space="preserve"><g transform="matrix(.79961 0 0 -.79961 58.988 860.59)"><g transform="matrix(1.2506,0,0,-1.2506,-72.165,1072.2)" fill-rule="evenodd" stroke="#000" stroke-miterlimit="10.433" ns0:preamble="default_packages.tex" ns0:text="$x$\n$y$\n" xml:space="preserve"><g transform="rotate(180 212.4 757.83)" fill-rule="evenodd" stroke="#000" stroke-miterlimit="10.433" stroke-opacity=".62745"><g transform="matrix(.79961 0 0 -.79961 -41.225 831.43)" stroke="#000" stroke-opacity=".62745" stroke-width=".7"><g transform="matrix(1.2506,0,0,-1.2506,-72.165,1072.2)" fill-rule="evenodd" stroke="#000" stroke-miterlimit="10.433" stroke-opacity=".62745" stroke-width=".55973" ns0:preamble="default_packages.tex" ns0:text="$x$\n$y$\n" xml:space="preserve"><g transform="matrix(-.65715 0 0 -.65715 540.07 1459.9)" fill-rule="evenodd" stroke="#000" stroke-miterlimit="10.433" stroke-opacity=".62745" stroke-width="2.2826" ns0:preamble="default_packages.tex" ns0:text="$x_1 x_2 x f(x_1) f(x_2) f(x)$\n" xml:space="preserve"><g stroke="#000" stroke-opacity=".62745"><g transform="matrix(.98166 0 0 .98166 -9.7089 408.25)" fill-rule="evenodd" stroke="#000" stroke-miterlimit="10.433" stroke-opacity="1" stroke-width="0" ns0:preamble="default_packages.tex" ns0:text="$\\text{Convex}$\n" xml:space="preserve"><path d="m169.25 710.86v-0.19l0.02-0.19 0.02-0.18 0.03-0.18 0.04-0.18 0.05-0.18 0.06-0.16 0.06-0.17 0.07-0.16 0.08-0.16 0.18-0.3 0.1-0.14 0.1-0.13 0.11-0.13 0.12-0.13 0.12-0.12 0.13-0.11 0.13-0.1 0.14-0.1 0.28-0.18 0.15-0.08 0.16-0.07 0.15-0.06 0.16-0.06 0.16-0.04 0.17-0.04 0.34-0.06 0.17-0.01h0.17c1.63 0 2.6 1.38 2.6 2.53 0 0.1 0 0.17-0.13 0.17-0.11 0-0.11-0.06-0.12-0.16-0.08-1.42-1.14-2.24-2.23-2.24-0.61 0-2.56 0.34-2.56 3.3 0 2.97 1.94 3.31 2.55 3.31 1.09 0 1.97-0.9 2.17-2.35 0.02-0.14 0.02-0.17 0.16-0.17 0.16 0 0.16 0.03 0.16 0.24v2.35c0 0.17 0 0.24-0.11 0.24-0.04 0-0.08 0-0.16-0.12l-0.49-0.74c-0.37 0.36-0.88 0.86-1.84 0.86-1.86 0-3.47-1.58-3.47-3.61z"/><path d="m180.58 709.59v0.12l-0.01 0.12-0.01 0.11-0.02 0.12-0.09 0.33-0.04 0.1-0.05 0.1-0.04 0.1-0.06 0.1-0.06 0.09-0.06 0.1-0.06 0.08-0.07 0.09-0.08 0.08-0.07 0.08-0.08 0.07-0.09 0.07-0.08 0.06-0.09 0.07-0.09 0.05-0.2 0.1-0.2 0.08-0.1 0.03-0.11 0.03-0.11 0.02-0.33 0.03-0.01-0.22c0.44 0 0.87-0.22 1.13-0.65s0.26-1 0.26-1.38c0-0.36 0-0.89-0.22-1.33-0.22-0.45-0.66-0.74-1.16-0.74-0.43 0-0.87 0.21-1.14 0.67-0.25 0.44-0.25 1.04-0.25 1.4 0 0.39 0 0.92 0.24 1.36 0.27 0.46 0.74 0.67 1.14 0.67l0.01 0.22c-1.25 0-2.21-1.09-2.21-2.33 0-1.28 1.03-2.23 2.2-2.23 1.21 0 2.21 0.97 2.21 2.23z"/><path d="m181.97 710.88v-2.66c0-0.45-0.11-0.45-0.78-0.45v-0.3c0.35 0.01 0.86 0.03 1.12 0.03s0.78-0.02 1.12-0.03v0.3c-0.67 0-0.78 0-0.78 0.45v1.83c0 1.03 0.71 1.59 1.35 1.59 0.63 0 0.74-0.54 0.74-1.1v-2.32c0-0.45-0.11-0.45-0.78-0.45v-0.3c0.35 0.01 0.86 0.03 1.13 0.03 0.26 0 0.77-0.02 1.11-0.03v0.3c-0.51 0-0.76 0-0.77 0.3v1.9c0 0.85 0 1.16-0.31 1.52-0.14 0.17-0.47 0.37-1.05 0.37-0.73 0-1.2-0.43-1.48-1.05v1.05l-1.4-0.11v-0.31c0.69 0 0.78-0.07 0.78-0.56z"/><path d="m190.27 710.77 0.01 0.02 0.01 0.03 0.01 0.02 0.01 0.03 0.01 0.02 0.01 0.03 0.02 0.02 0.01 0.03 0.02 0.03 0.01 0.03 0.02 0.02 0.06 0.09 0.1 0.1 0.06 0.04 0.04 0.03 0.03 0.02 0.04 0.02 0.04 0.01 0.04 0.02 0.05 0.01 0.05 0.02 0.1 0.02h0.08l0.03 0.01h0.06v0.31c-0.23-0.02-0.52-0.03-0.75-0.03-0.24 0-0.7 0.02-0.86 0.03v-0.31c0.36-0.01 0.47-0.24 0.47-0.43 0-0.09-0.02-0.13-0.06-0.24l-1.01-2.53-1.12 2.77c-0.06 0.13-0.06 0.15-0.06 0.17 0 0.26 0.39 0.26 0.57 0.26v0.31c-0.3-0.01-0.86-0.03-1.09-0.03-0.27 0-0.67 0.01-0.97 0.03v-0.31c0.63 0 0.67-0.06 0.8-0.37l1.44-3.53c0.06-0.13 0.08-0.18 0.21-0.18s0.17 0.08 0.21 0.18z"/><path d="m192.21 709.76 0.01 0.21c0.06 1.48 0.9 1.73 1.24 1.73 1.02 0 1.12-1.34 1.12-1.73h-2.36l-0.01-0.21h2.78c0.22 0 0.25 0 0.25 0.21 0 0.98-0.54 1.95-1.78 1.95-1.16 0-2.08-1.03-2.08-2.27 0-1.33 1.05-2.29 2.2-2.29 1.21 0 1.66 1.1 1.66 1.29 0 0.1-0.08 0.12-0.13 0.12-0.09 0-0.11-0.06-0.13-0.14-0.35-1.03-1.24-1.03-1.34-1.03-0.5 0-0.9 0.3-1.13 0.67-0.3 0.48-0.3 1.13-0.3 1.49z"/><path d="m198.39 709.8 0.06 0.07 0.06 0.08 0.06 0.07 0.06 0.08 0.12 0.15 0.12 0.16 0.24 0.28 0.03 0.03 0.02 0.03 0.03 0.04 0.02 0.03 0.03 0.02 0.02 0.03 0.05 0.05c0.31 0.36 0.72 0.51 1.19 0.52v0.31c-0.26-0.02-0.56-0.03-0.82-0.03-0.3 0-0.83 0.02-0.96 0.03v-0.31c0.21-0.02 0.29-0.15 0.29-0.31s-0.1-0.29-0.15-0.35l-0.62-0.77-0.77 1c-0.09 0.1-0.09 0.12-0.09 0.18 0 0.15 0.15 0.24 0.34 0.25v0.31c-0.25-0.01-0.91-0.03-1.07-0.03-0.21 0-0.68 0.01-0.95 0.03v-0.31c0.7 0 0.71-0.01 1.18-0.61l0.98-1.28-0.93-1.18c-0.48-0.58-1.07-0.6-1.28-0.6v-0.3c0.26 0.02 0.57 0.03 0.83 0.03 0.29 0 0.71-0.02 0.95-0.03v0.3c-0.22 0.03-0.29 0.16-0.29 0.31 0 0.22 0.29 0.55 0.89 1.26l0.76-0.99c0.08-0.11 0.21-0.27 0.21-0.33 0-0.09-0.09-0.24-0.36-0.25v-0.3c0.3 0.01 0.86 0.03 1.08 0.03 0.27 0 0.66-0.01 0.96-0.03v0.3c-0.54 0-0.72 0.02-0.95 0.31z"/></g><g transform="matrix(1.2168 0 0 -1.2168 183.62 863.82)"><g transform="translate(7.2378 -59.353)"><g transform="matrix(1.2506,0,0,-1.2506,-72.165,1072.2)" fill-rule="evenodd" stroke="#000" stroke-miterlimit="10.433" ns0:preamble="default_packages.tex" ns0:text="$x$\n$y$\n" xml:space="preserve"><g transform="matrix(.79961 0 0 -.79961 58.988 860.59)"><g transform="matrix(1.2506,0,0,-1.2506,-72.165,1072.2)" fill-rule="evenodd" stroke="#000" stroke-miterlimit="10.433" ns0:preamble="default_packages.tex" ns0:text="$x$\n$y$\n" xml:space="preserve"><g transform="rotate(180 212.4 757.83)" fill-rule="evenodd" stroke="#000" stroke-miterlimit="10.433"><g transform="matrix(-.65714 0 0 -.65714 741.95 1102)" fill="#003f87" fill-opacity=".18841" fill-rule="evenodd" stroke="#000" stroke-miterlimit="10.433" stroke-opacity="1" stroke-width=".57921" ns0:preamble="default_packages.tex" ns0:text="$x_1 x_2 x f(x_1) f(x_2) f(x)$\n" xml:space="preserve"><g transform="matrix(1.0026 0 0 1.0026 37.987 78.78)" fill="#003f87" fill-opacity=".18841" fill-rule="evenodd" stroke="#000" stroke-miterlimit="10.433" stroke-opacity="1" stroke-width=".57771" ns0:preamble="default_packages.tex" ns0:text="$l(x)$\n" xml:space="preserve"><g transform="matrix(1.3845 0 0 1.3845 287.6 -440.77)" fill="#003f87" fill-opacity=".18841" stroke="#000" stroke-miterlimit="10.433" stroke-opacity="1" stroke-width=".41728"><g fill="#003f87" fill-opacity=".18841" stroke="#000" stroke-miterlimit="10.433" stroke-opacity="1" stroke-width=".41728"><g transform="matrix(-1.5178 0 0 1.5178 84.71 -324.6)" fill="#003f87" fill-opacity=".18841" fill-rule="evenodd" stroke="#000" stroke-miterlimit="10.433" stroke-opacity="1"><g transform="matrix(.57577 0 0 -.57504 -172.32 802.3)" stroke-width=".4778"><g transform="matrix(1.2506,0,0,-1.2506,-72.165,1072.2)" fill="#003f87" fill-opacity=".18841" fill-rule="evenodd" stroke="#000" stroke-miterlimit="10.433" stroke-opacity="1" stroke-width=".38205" ns0:preamble="default_packages.tex" ns0:text="$x$\n$y$\n" xml:space="preserve"><g fill-opacity=".18841" stroke-miterlimit="10.433"><path d="m201.29 793.92 36.983 23.119s12.062-2.2702 16.713-11.239c4.3196-8.3311 1.2579-23.394 1.1075-23.752-0.11644-0.27721-11.035-20.92-17.547-26.269-10.961-9.0038-19.871-4.5448-19.871-4.5448l-31.103 15.023z" fill="#005baa" fill-opacity=".15686" stroke="#006ac8" stroke-opacity=".10628" stroke-width=".80264"/><path d="m143.26 813.81 22.082-64.611-39.232 38.638-46.736-21.251 33.444 49.586z" fill="#005baa" fill-opacity=".15686" stroke="#006ac8" stroke-opacity=".10628" stroke-width=".80264"/><path d="m236.49 799.05 1.8675-34.707" fill="none" marker-end="url(#c)" marker-start="url(#DotS)" stroke="#f00" stroke-miterlimit="10.433" stroke-opacity=".62745" stroke-width=".8526"/><path d="m150.81 767.42-56.953 11.49" fill="none" marker-end="url(#a)" marker-start="url(#b)" stroke="#f00" stroke-miterlimit="10.433" stroke-opacity=".62745" stroke-width=".8526"/><g transform="matrix(-.59939 0 0 .59939 412.63 415.32)" fill="#000" fill-opacity="1" fill-rule="evenodd" stroke="#000" stroke-opacity="1" stroke-width="0" ns0:preamble="default_packages.tex" ns0:text="$$\\text{set}$$\n" xml:space="preserve"><path d="m329.66 695.79 0.0207-0.0104h0.0311l0.0311-0.0104h0.0311l0.0311-0.0104 0.1656-0.0416 0.0414-0.0207 0.0414-0.0104 0.0518-0.0207 0.0414-0.0207 0.0518-0.0207 0.0414-0.0207 0.0414-0.0311 0.0518-0.0207 0.1242-0.0933 0.0414-0.0414 0.0311-0.0414 0.0414-0.0414 0.0622-0.0828 0.0104-0.0311 0.0104-0.0207 0.0104-0.0311 0.0104-0.0207 0.0104-0.0311 0.0104-0.0207 0.0208-0.0622v-0.0311l0.0104-0.0311v-0.0311l0.0104-0.0311v-0.0725c0-0.518-0.3626-0.93238-1.1707-0.93238-0.87022 0-1.2328 0.58014-1.4297 1.4607-0.0311 0.13467-0.0414 0.17611-0.14503 0.17611-0.13468 0-0.13468-0.0725-0.13468-0.259v-1.3571c0-0.17612 0-0.24864 0.11396-0.24864 0.0518 0 0.0622 0.0104 0.25899 0.2072 0.0207 0.0207 0.0207 0.0414 0.19684 0.23828 0.45583-0.43512 0.92203-0.44548 1.1396-0.44548 1.1914 0 1.6679 0.69411 1.6679 1.4297 0 0.54907-0.3108 0.85987-0.43511 0.98419-0.34188 0.32115-0.74591 0.40403-1.181 0.48691-0.58015 0.11396-1.2639 0.24864-1.2639 0.84951 0 0.35223 0.26936 0.77699 1.15 0.77699 1.1396 0 1.1914-0.92203 1.2121-1.2432 0.0104-0.0932 0.1036-0.0932 0.12432-0.0932 0.13467 0 0.13467 0.0518 0.13467 0.24863v1.036c0 0.17611 0 0.24863-0.11395 0.24863-0.0518 0-0.0725 0-0.2072-0.12431-0.0311-0.0414-0.13468-0.13468-0.17612-0.16576-0.39367 0.29007-0.81843 0.29007-0.97382 0.29007-1.2536 0-1.6472-0.68375-1.6472-1.2639 0-0.36259 0.16576-0.65267 0.44547-0.88059 0.32116-0.25899 0.61123-0.32115 1.3571-0.46619z"/><path d="m332.73 696.17 0.0104 0.20719c0.0622 1.5333 0.93238 1.7923 1.2846 1.7923 1.0671 0 1.1707-1.3882 1.1707-1.7923h-2.4553l-0.0104-0.20719h2.8904c0.22791 0 0.25899 0 0.25899 0.20719 0 1.0256-0.55943 2.0202-1.8544 2.0202-1.2017 0-2.1445-1.0567-2.1445-2.3517 0-1.3779 1.0774-2.3724 2.2688-2.3724 1.2639 0 1.7301 1.1396 1.7301 1.3364 0 0.1036-0.0829 0.12432-0.13468 0.12432-0.0932 0-0.11395-0.0622-0.13467-0.14504-0.3626-1.0567-1.295-1.0567-1.3986-1.0567-0.518 0-0.93239 0.31079-1.1707 0.68375-0.31079 0.49727-0.31079 1.181-0.31079 1.554z"/><path d="m337.96 697.9h1.4815v0.32116h-1.4815v1.8958h-0.25899c-0.0104-0.83915-0.32116-1.9476-1.3364-1.9891v-0.22792h0.88058v-2.8386c0-1.2639 0.96347-1.3882 1.3364-1.3882 0.73555 0 1.0153 0.73555 1.0153 1.3882v0.59051h-0.24864v-0.56979c0-0.75627-0.31079-1.1499-0.69411-1.1499-0.69411 0-0.69411 0.93238-0.69411 1.1085z"/><g id="content" transform="matrix(1.5 0 0 -1.5 -57.997 1154.1)" stroke="#000" stroke-opacity="1" ns0:preamble="default_packages.tex" ns0:text="$\\text{Nonconvex set}$\n" xml:space="preserve"><path d="m337.01 301.85-0.021-0.021v-7e-3l-0.035-0.035h-7e-3v-7e-3h-7e-3v-7e-3h-0.014l-7e-3 -7e-3h-0.021l-7e-3 -7e-3h-1.3773v0.2354h0.2202c0.11391 0 0.26578 7e-3 0.37968 0.0152 0.17465 0.0228 0.18225 0.0304 0.18225 0.17464v3.9334c0 0.20503 0 0.56193-0.78213 0.56193v0.2278c0.26577-7e-3 0.63785-0.0228 0.88844-0.0228s0.62266 0.0152 0.88844 0.0228v-0.2278c-0.78213 0-0.78213-0.3569-0.78213-0.56193v-3.9182c0.038 0.038 0.0455 0.0455 0.0759 0.0911l3.0906 4.5258c0.0607 0.0835 0.0759 0.0911 0.1215 0.0911 0.10631 0 0.10631-0.0455 0.10631-0.18984v-4.1688c0-0.20503 0-0.55433 0.78213-0.55433v-0.2354c-0.26578 7e-3 -0.63785 0.0228-0.88844 0.0228-0.243 0-0.61508-0.0152-0.88085-0.0228v0.2354c0.78214 0 0.78214 0.3493 0.78214 0.55433v3.2196z"/><path d="m344.49 305.29v-0.0911l-7e-3 -0.0911-7e-3 -0.0835-0.0152-0.0911-0.0684-0.2505-0.0304-0.0759-0.114-0.2277-0.0455-0.0683-0.0456-0.0759-0.0531-0.0607-0.0531-0.0683-0.0532-0.0607-0.0607-0.0607-0.0607-0.0532-0.0607-0.0531-0.0683-0.0456-0.0607-0.0531-0.0759-0.038-0.0683-0.038-0.0759-0.038-0.1518-0.0608-0.0835-0.0228-0.0759-0.0228-0.0835-0.0152-0.2505-0.021-7e-3 0.16705c0.33412 0 0.66064 0.16706 0.85048 0.49358 0.19743 0.32652 0.19743 0.75936 0.19743 1.0479 0 0.27336 0 0.67582-0.16705 1.0099-0.16706 0.3417-0.49358 0.56192-0.87325 0.56192-0.32653 0-0.66064-0.15947-0.86567-0.50877-0.18984-0.33411-0.18984-0.78973-0.18984-1.0631 0-0.29615 0-0.6986 0.18225-1.0327 0.20502-0.34931 0.56192-0.50877 0.86565-0.50877l7e-3 -0.16705c-0.9492 0-1.6858 0.82769-1.6858 1.7693 0 0.97197 0.78973 1.6934 1.6782 1.6934 0.91123 0 1.6782-0.73657 1.6782-1.6934z"/><path d="m345.53 304.31v2.0199c0 0.34171-0.0835 0.34171-0.5923 0.34171v0.2278c0.26577-7e-3 0.65305-0.0228 0.85807-0.0228 0.19743 0 0.5923 0.0152 0.85048 0.0228v-0.2278c-0.50877 0-0.5923 0-0.5923-0.34171v-1.3896c0-0.78214 0.53914-1.2074 1.0251-1.2074 0.47839 0 0.55432 0.41005 0.55432 0.83528v1.7617c0 0.34171-0.0759 0.34171-0.5847 0.34171v0.2278c0.26577-7e-3 0.64545-0.0228 0.85047-0.0228 0.19744 0 0.5923 0.0152 0.85048 0.0228v-0.2278c-0.39486 0-0.5847 0-0.59229-0.22782v-1.4428c0-0.64546 0-0.88085-0.23541-1.1542-0.1063-0.12908-0.3493-0.28096-0.78973-0.28096-0.55432 0-0.91122 0.32653-1.1238 0.79733v-0.79733l-1.0707 0.0835v0.23539c0.53155 0 0.5923 0.0532 0.5923 0.42524z"/><path d="m349.79 305.26v-0.1669l7e-3 -0.0531v-0.0532l7e-3 -0.0531v-0.0456l7e-3 -0.0455 7e-3 -0.0456 0.014-0.091 0.0152-0.0456 0.0152-0.0835 0.0228-0.0759 0.0304-0.0759 0.0228-0.0683 0.0304-0.0683 0.0304-0.0607 0.038-0.0532 0.0304-0.0532 0.038-0.0531 0.038-0.0456 0.038-0.038 0.0456-0.038 0.038-0.038 0.0456-0.0304 0.038-0.0304 0.0455-0.0228 0.038-0.0228 0.0456-0.0228 0.0455-0.0152 0.038-0.0152 0.0456-7e-3 0.038-0.0152 0.0455-7e-3h0.038l0.038-7e-3h0.038c0.0683 0 0.54673 7e-3 0.8125 0.28097-0.31133 0.0228-0.3569 0.25057-0.3569 0.3493 0 0.19743 0.13668 0.3417 0.34931 0.3417 0.19743 0 0.3493-0.12149 0.3493-0.3493 0-0.51636-0.57711-0.8125-1.1618-0.8125-0.94159 0-1.6402 0.8201-1.6402 1.7541 0 0.96438 0.75175 1.7085 1.625 1.7085 1.0175 0 1.2605-0.90362 1.2605-0.97956 0-0.0759-0.0759-0.0759-0.0987-0.0759-0.0683 0-0.0835 0.0304-0.0987 0.0759-0.22021 0.70619-0.7138 0.79732-0.99476 0.79732-0.40245 0-1.0631-0.32652-1.0631-1.5415z"/><path d="m355.83 305.29v-0.0911l-7e-3 -0.0911-7e-3 -0.0835-0.0152-0.0911-0.0684-0.2505-0.0608-0.1518-0.038-0.0759-0.0456-0.0759-0.038-0.0683-0.0531-0.0759-0.0456-0.0607-0.0531-0.0683-0.0532-0.0607-0.0607-0.0607-0.0607-0.0532-0.0683-0.0531-0.0607-0.0456-0.0683-0.0531-0.0683-0.038-0.1518-0.076-0.1518-0.0608-0.0759-0.0228-0.0835-0.0228-0.0835-0.0152-0.2505-0.021-7e-3 0.16705c0.33411 0 0.66064 0.16706 0.85806 0.49358 0.19743 0.32652 0.19743 0.75936 0.19743 1.0479 0 0.27336 0 0.67582-0.16705 1.0099-0.16707 0.3417-0.50118 0.56192-0.88085 0.56192-0.32652 0-0.66064-0.15947-0.86566-0.50877-0.18225-0.33411-0.18225-0.78973-0.18225-1.0631 0-0.29615 0-0.6986 0.17465-1.0327 0.20503-0.34931 0.56192-0.50877 0.86567-0.50877l7e-3 -0.16705c-0.9492 0-1.6782 0.82769-1.6782 1.7693 0 0.97197 0.78213 1.6934 1.6706 1.6934 0.91881 0 1.6782-0.73657 1.6782-1.6934z"/><path d="m356.89 304.31v2.0199c0 0.34171-0.0835 0.34171-0.59229 0.34171v0.2278c0.26577-7e-3 0.65304-0.0228 0.85046-0.0228 0.19744 0 0.5923 0.0152 0.85048 0.0228v-0.2278c-0.50876 0-0.59229 0-0.59229-0.34171v-1.3896c0-0.78214 0.53914-1.2074 1.0251-1.2074 0.47839 0 0.56192 0.41005 0.56192 0.83528v1.7617c0 0.34171-0.0835 0.34171-0.5923 0.34171v0.2278c0.26577-7e-3 0.65305-0.0228 0.85807-0.0228 0.19743 0 0.58471 0.0152 0.84289 0.0228v-0.2278c-0.38727 0-0.57711 0-0.58471-0.22782v-1.4428c0-0.64546 0-0.88085-0.2354-1.1542-0.1063-0.12908-0.35689-0.28096-0.79731-0.28096-0.55434 0-0.91123 0.32653-1.1238 0.79733v-0.79733l-1.0631 0.0835v0.23539c0.53154 0 0.59229 0.0532 0.59229 0.42524z"/><path d="m363.19 304.39 7e-3 -0.0152 7e-3 -0.0228 7e-3 -0.0152 7e-3 -0.0228 7e-3 -0.0152 0.0152-0.0228 7e-3 -0.0152 7e-3 -0.0228 0.0152-0.0228 7e-3 -0.0228 0.0152-0.0152 0.0456-0.0684 0.038-0.038 0.0228-0.0152 0.0152-0.0228 0.0228-0.0152 0.0304-0.0152 0.0228-0.0228 0.0228-0.0152 0.0304-0.0152 0.0304-7e-3 0.0304-0.0152 0.038-7e-3 0.038-0.0152 0.076-0.014h0.0608l0.0228-7e-3h0.0456v-0.2354c-0.17466 0.0152-0.39487 0.0228-0.56952 0.0228-0.18225 0-0.52396-0.0152-0.65305-0.0228v0.2354c0.27337 7e-3 0.35691 0.18225 0.35691 0.32652 0 0.0683-0.0152 0.0987-0.038 0.18225l-0.77454 1.9212-0.85047-2.1034c-0.0455-0.0987-0.0455-0.1139-0.0455-0.12909 0-0.19743 0.29614-0.19743 0.43282-0.19743v-0.2354c-0.2278 7e-3 -0.65303 0.0228-0.82769 0.0228-0.20502 0-0.50877-7e-3 -0.73657-0.0228v0.2354c0.47839 0 0.50877 0.0455 0.60748 0.28096l1.0935 2.6805c0.0456 0.0987 0.0607 0.13669 0.15946 0.13669 0.0987 0 0.12909-0.0607 0.15946-0.13669z"/><path d="m364.66 305.16 7e-3 -0.15946c0.0456-1.1238 0.68343-1.3137 0.9416-1.3137 0.78214 0 0.85048 1.0175 0.85048 1.3137h-1.7921l-7e-3 0.15946h2.111c0.16705 0 0.18984 0 0.18984-0.15946 0-0.74417-0.40246-1.4807-1.3517-1.4807-0.88085 0-1.5794 0.78213-1.5794 1.7237 0 1.01 0.79732 1.7389 1.6706 1.7389 0.91882 0 1.2605-0.83528 1.2605-0.97956 0-0.0759-0.0607-0.0911-0.0987-0.0911-0.0683 0-0.0835 0.0456-0.0987 0.10631-0.25819 0.78214-0.9416 0.78214-1.0175 0.78214-0.37968 0-0.68342-0.22782-0.85807-0.50877-0.22781-0.36449-0.22781-0.85808-0.22781-1.1314z"/><path d="m369.35 305.13 0.0456-0.0531 0.0455-0.0607 0.0456-0.0531 0.0455-0.0607 0.0911-0.1139 0.0912-0.1214 0.0531-0.0531 0.038-0.0532 0.0455-0.0532 0.0455-0.0531 0.0228-0.0228 0.0152-0.0228 0.0228-0.0304 0.038-0.038 0.0152-0.0228 0.038-0.038c0.23541-0.27336 0.54673-0.38727 0.90364-0.39486v-0.2354c-0.19744 0.0152-0.42525 0.0228-0.62268 0.0228-0.2278 0-0.63026-0.0152-0.72898-0.0228v0.2354c0.15947 0.0152 0.22022 0.1139 0.22022 0.2354 0 0.12149-0.0759 0.22021-0.11391 0.26578l-0.4708 0.58469-0.5847-0.75935c-0.0683-0.0759-0.0683-0.0911-0.0683-0.13668 0-0.11391 0.1139-0.18225 0.26577-0.18984v-0.2354c-0.19743 7e-3 -0.6986 0.0228-0.8201 0.0228-0.15947 0-0.51636-7e-3 -0.72139-0.0228v0.2354c0.53155 0 0.53915 7e-3 0.89604 0.4632l0.74417 0.97198-0.7062 0.89603c-0.36448 0.44043-0.81251 0.45562-0.97198 0.45562v0.2278c0.19744-0.0152 0.43284-0.0228 0.63027-0.0228 0.22021 0 0.53914 0.0152 0.72139 0.0228v-0.2278c-0.16706-0.0228-0.22022-0.1215-0.22022-0.23541 0-0.16705 0.22022-0.41764 0.67583-0.95678l0.57711 0.75176c0.0607 0.0835 0.15947 0.20502 0.15947 0.25059 0 0.0683-0.0683 0.18225-0.27338 0.18984v0.2278c0.22781-7e-3 0.65305-0.0228 0.82011-0.0228 0.20502 0 0.50117 7e-3 0.72898 0.0228v-0.2278c-0.41005 0-0.54674-0.0152-0.72139-0.23541z"/><path d="m375.28 305.44h0.0152l0.0228 7e-3h0.0228l0.0456 0.014 0.152 0.035 0.0304 0.0152 0.038 0.0152 0.0304 7e-3 0.0304 0.0228 0.038 0.0152 0.0304 0.0152 0.038 0.0228 0.1216 0.0912 0.0228 0.0304 0.0304 0.0304 0.0228 0.0304 0.0228 0.038 7e-3 0.0152 7e-3 0.0228 7e-3 0.0152 7e-3 0.0228 7e-3 0.0152 0.014 0.0456 7e-3 0.0152v0.0228l7e-3 0.0228v0.0228l7e-3 0.0304v0.0456c0 0.38727-0.26578 0.69101-0.85807 0.69101-0.63026 0-0.90363-0.43283-1.0479-1.0783-0.0228-0.0911-0.0304-0.1215-0.10631-0.1215-0.0987 0-0.0987 0.0531-0.0987 0.18225v1.0023c0 0.1215 0 0.17465 0.0835 0.17465 0.038 0 0.0455-7e-3 0.18984-0.14428 0.0152-0.0152 0.0152-0.0304 0.14427-0.17464 0.33412 0.31132 0.67583 0.31892 0.83529 0.31892 0.87326 0 1.2226-0.50117 1.2226-1.0479 0-0.39487-0.22781-0.62268-0.31893-0.7138-0.25059-0.243-0.54673-0.30374-0.86566-0.36448-0.42524-0.0835-0.92642-0.17466-0.92642-0.61509 0-0.26577 0.19744-0.5771 0.84289-0.5771 0.83528 0 0.87326 0.68341 0.88844 0.91882 7e-3 0.0683 0.0759 0.0683 0.0911 0.0683 0.0987 0 0.0987-0.0456 0.0987-0.18225v-0.76695c0-0.12909 0-0.18224-0.0835-0.18224-0.038 0-0.0531 0-0.15187 0.0911-0.0228 0.0304-0.0987 0.0987-0.12909 0.1215-0.28856-0.21262-0.59989-0.21262-0.71379-0.21262-0.91882 0-1.2074 0.50876-1.2074 0.93401 0 0.25817 0.12149 0.4708 0.32652 0.63785 0.2354 0.19743 0.44801 0.243 0.99475 0.3493z"/><path d="m377.53 305.16 7e-3 -0.15946c0.0455-1.1238 0.68342-1.3137 0.94159-1.3137 0.78214 0 0.85807 1.0175 0.85807 1.3137h-1.7997l-7e-3 0.15946h2.1186c0.16706 0 0.18984 0 0.18984-0.15946 0-0.74417-0.41005-1.4807-1.3592-1.4807-0.88084 0-1.5718 0.78213-1.5718 1.7237 0 1.01 0.78973 1.7389 1.663 1.7389 0.92642 0 1.2681-0.83528 1.2681-0.97956 0-0.0759-0.0607-0.0911-0.0987-0.0911-0.0683 0-0.0835 0.0456-0.0987 0.10631-0.26577 0.78214-0.94919 0.78214-1.0251 0.78214-0.37967 0-0.68342-0.22782-0.85806-0.50877-0.22781-0.36449-0.22781-0.85808-0.22781-1.1314z"/><path d="m381.36 303.88h1.0859v-0.23539h-1.0859v-1.382h-0.18984c-7e-3 0.61508-0.23541 1.42-0.97957 1.4504v0.16705h0.64545v2.0806c0 0.92641 0.70619 1.0175 0.97956 1.0175 0.53915 0 0.74418-0.53153 0.74418-1.0175v-0.42523h-0.18225v0.41005c0 0.56191-0.22781 0.85048-0.50877 0.85048-0.50876 0-0.50876-0.69102-0.50876-0.82011z"/></g></g></g></g></g><g transform="matrix(.58057 0 0 .57986 -244 696.49)" stroke-width=".47383"/></g></g></g></g></g></g></g></g></g></g></g></g></g></g></g></g></g></g></g></g></g></g></g></g></g></g></g></g></g></g></g></g></g></g></g></g>
  </g>
 </g>
</svg>
