<?xml version="1.0" encoding="UTF-8"?>
<svg width="119.8mm" height="108.23mm" version="1.1" viewBox="0 0 210.45 190.71" xmlns="http://www.w3.org/2000/svg" xmlns:cc="http://creativecommons.org/ns#" xmlns:dc="http://purl.org/dc/elements/1.1/" xmlns:ns26="http://www.iki.fi/pav/software/textext/" xmlns:rdf="http://www.w3.org/1999/02/22-rdf-syntax-ns#">
 <defs>
  <marker id="marker5324" overflow="visible" orient="auto">
   <path transform="matrix(-.4 0 0 -.4 -4 0)" d="m0 0 5-5-17.5 5 17.5 5z" fill="#980000" fill-opacity=".56818" fill-rule="evenodd" stroke="#980000" stroke-opacity=".56818" stroke-width="1pt"/>
  </marker>
  <marker id="marker5314" overflow="visible" orient="auto">
   <path transform="matrix(-.4 0 0 -.4 -4 0)" d="m0 0 5-5-17.5 5 17.5 5z" fill="#980000" fill-opacity=".56818" fill-rule="evenodd" stroke="#980000" stroke-opacity=".56818" stroke-width="1pt"/>
  </marker>
  <marker id="marker5304" overflow="visible" orient="auto">
   <path transform="matrix(-.4 0 0 -.4 -4 0)" d="m0 0 5-5-17.5 5 17.5 5z" fill="#980000" fill-opacity=".56818" fill-rule="evenodd" stroke="#980000" stroke-opacity=".56818" stroke-width="1pt"/>
  </marker>
  <marker id="marker5294" overflow="visible" orient="auto">
   <path transform="matrix(-.4 0 0 -.4 -4 0)" d="m0 0 5-5-17.5 5 17.5 5z" fill="#980000" fill-opacity=".56818" fill-rule="evenodd" stroke="#980000" stroke-opacity=".56818" stroke-width="1pt"/>
  </marker>
  <marker id="marker5284" overflow="visible" orient="auto">
   <path transform="matrix(-.4 0 0 -.4 -4 0)" d="m0 0 5-5-17.5 5 17.5 5z" fill="#980000" fill-opacity=".56818" fill-rule="evenodd" stroke="#980000" stroke-opacity=".56818" stroke-width="1pt"/>
  </marker>
  <marker id="marker5274" overflow="visible" orient="auto">
   <path transform="matrix(-.4 0 0 -.4 -4 0)" d="m0 0 5-5-17.5 5 17.5 5z" fill="#980000" fill-opacity=".56818" fill-rule="evenodd" stroke="#980000" stroke-opacity=".56818" stroke-width="1pt"/>
  </marker>
  <marker id="marker5264" overflow="visible" orient="auto">
   <path transform="matrix(-.4 0 0 -.4 -4 0)" d="m0 0 5-5-17.5 5 17.5 5z" fill="#980000" fill-opacity=".56818" fill-rule="evenodd" stroke="#980000" stroke-opacity=".56818" stroke-width="1pt"/>
  </marker>
  <marker id="Arrow1Mend" overflow="visible" orient="auto">
   <path transform="matrix(-.4 0 0 -.4 -4 0)" d="m0 0 5-5-17.5 5 17.5 5z" fill-opacity=".45455" fill-rule="evenodd" stroke="#000" stroke-opacity=".45455" stroke-width="1pt"/>
  </marker>
  <marker id="Arrow1Mend-0" overflow="visible" orient="auto">
   <path transform="matrix(-.4 0 0 -.4 -4 0)" d="m0 0 5-5-17.5 5 17.5 5z" fill-opacity=".45455" fill-rule="evenodd" stroke="#000" stroke-opacity=".45455" stroke-width="1pt"/>
  </marker>
 </defs>
 <metadata>
  <rdf:RDF>
   <cc:Work rdf:about="">
    <dc:format>image/svg+xml</dc:format>
    <dc:type rdf:resource="http://purl.org/dc/dcmitype/StillImage"/>
    <dc:title/>
   </cc:Work>
  </rdf:RDF>
 </metadata>
 <g transform="translate(.086142 -53.172)">
  <g transform="translate(25.637 1.6124)" fill="#0069ff" fill-rule="evenodd">
   <ellipse transform="matrix(.49642 -.86809 .71054 .70366 0 0)" cx="-36.659" cy="148.03" rx="72.395" ry="35.942" fill-opacity=".07" stroke-width=".82651"/>
   <g fill-opacity=".1">
    <ellipse transform="matrix(.53912 -.84223 .52556 .85076 0 0)" cx="8.0011" cy="171.76" rx="54.813" ry="27.855"/>
    <ellipse transform="matrix(.52651 -.85017 .80321 .59569 0 0)" cx="-58.069" cy="159.43" rx="37.035" ry="17.986"/>
    <ellipse transform="matrix(.53335 -.8459 .82566 .56417 0 0)" cx="-63.428" cy="161.67" rx="24.364" ry="11.979"/>
    <ellipse transform="matrix(.53137 -.84714 .77207 .63554 0 0)" cx="-48.452" cy="164.74" rx="15.202" ry="7.1607"/>
   </g>
  </g>
  <g fill="none">
   <path d="m0.11857 224.67h208.05" fill="#000" fill-opacity=".1" marker-end="url(#Arrow1Mend)" stroke="#000" stroke-opacity=".4" stroke-width=".69929"/>
   <g stroke="#980000" stroke-opacity=".56818">
    <path d="m87.787 214.04-0.22392-34.326" marker-end="url(#marker5264)" stroke-width=".6332"/>
    <path d="m87.691 178.88 16.711-0.2014" marker-end="url(#marker5274)" stroke-width=".71252"/>
    <path d="m105.43 178.68-0.0267-9.358" marker-end="url(#marker5284)" stroke-width=".61193"/>
    <path d="m105.45 168.4 8.4002-0.14947" marker-end="url(#marker5294)" stroke-width=".62828"/>
    <path d="m114.88 168.17-0.15944-6.3153" marker-end="url(#marker5304)" stroke-width=".63071"/>
    <path d="m114.73 160.97 6.5632-0.0388" marker-end="url(#marker5314)" stroke-width=".72603"/>
    <path d="m122.34 160.85-0.16985-5.131" marker-end="url(#marker5324)" stroke-width=".635"/>
   </g>
   <path d="m13.695 243.88v-189.33" fill="#000" fill-opacity=".1" marker-end="url(#Arrow1Mend-0)" stroke="#000" stroke-opacity=".4" stroke-width=".69929"/>
  </g>
  <g transform="matrix(1.4355,0,0,1.4355,29.48,259.68)" ns26:alignment="middle center" ns26:jacobian_sqrt="0.849361" ns26:pdfconverter="inkscape" ns26:preamble="C:\\Users\\User\\AppData\\Roaming\\inkscape\\extensions\\textext\\default_packages.tex" ns26:scale="2.4076355951901767" ns26:texconverter="pdflatex" ns26:text="$$x_1 x_1^1 x_1^2 x_1^0 x_1^3 x_2^1 x_2^2 x_2^0 x_2^3$$" ns26:version="1.1.0">
   <g id="id-a93926dd-c2d2-44fb-a8f6-0ced4dd004dc" transform="translate(-260.19,-137.98)">
    <g fill-opacity=".8">
     <g id="id-da855989-bb94-4b4d-a134-91994d10320f" transform="matrix(.88463 0 0 .88463 150.12 -9.3471)">
      <g transform="translate(259.89,146.72)" fill-opacity=".8">
       <path d="m2.4906-2.8885c0.05233-0.20934 0.24859-0.98126 0.82426-0.98126 0.03925 0 0.24859 0 0.41867 0.10467-0.2355 0.05233-0.3925 0.24859-0.3925 0.45792 0 0.13084 0.09158 0.28784 0.314 0.28784 0.18317 0 0.44484-0.14392 0.44484-0.48409 0-0.43176-0.48409-0.54951-0.77193-0.54951-0.48409 0-0.77193 0.44484-0.87659 0.62801-0.20934-0.54951-0.65418-0.62801-0.90276-0.62801-0.86351 0-1.3476 1.0728-1.3476 1.2822 0 0.09158 0.09158 0.09158 0.10467 0.09158 0.06542 0 0.09158-0.02617 0.10467-0.09158 0.28784-0.88968 0.83734-1.099 1.1252-1.099 0.157 0 0.44484 0.0785 0.44484 0.56259 0 0.26167-0.14392 0.81118-0.44484 1.9887-0.13084 0.51026-0.43176 0.86351-0.79809 0.86351-0.05233 0-0.2355 0-0.41867-0.10467 0.20934-0.05233 0.3925-0.22242 0.3925-0.45792 0-0.22242-0.18317-0.28784-0.30092-0.28784-0.26167 0-0.45792 0.20934-0.45792 0.48409 0 0.37942 0.40559 0.54951 0.77193 0.54951 0.56259 0 0.86351-0.58876 0.87659-0.62801 0.10467 0.30092 0.40559 0.62801 0.90276 0.62801 0.86351 0 1.3345-1.0728 1.3345-1.2822 0-0.09158-0.06542-0.09158-0.09158-0.09158-0.0785 0-0.09158 0.03925-0.11775 0.09158-0.27475 0.90276-0.83734 1.099-1.099 1.099-0.32709 0-0.45792-0.26167-0.45792-0.54951 0-0.18317 0.03925-0.36634 0.13084-0.73268z" fill-opacity=".7"/>
      </g>
     </g>
     <g transform="matrix(.88463 0 0 .88463 150.12 -9.3471)">
      <g transform="translate(265.58,148.21)" fill-opacity=".8">
       <path d="m0.72712-4.3221c0-0.157 0-0.157-0.17008-0.157-0.37942 0.36634-0.90276 0.36634-1.1383 0.36634v0.20934c0.13084 0 0.52334 0 0.83734-0.157v2.97c0 0.19625 0 0.27475-0.57567 0.27475h-0.22242v0.20934c0.10467 0 0.82426-0.02617 1.0336-0.02617 0.18317 0 0.91585 0.02617 1.0467 0.02617v-0.20934h-0.22242c-0.58876 0-0.58876-0.0785-0.58876-0.27475z" fill-opacity=".7"/>
      </g>
     </g>
     <g transform="matrix(.64906 0 0 .64906 115.13 25.354)">
      <g transform="translate(270.05,146.72)" fill-opacity=".8">
       <path d="m30.638 0.78545c0.0625-0.25 0.29688-1.1719 0.98438-1.1719 0.04687 0 0.29688 0 0.5 0.125-0.28125 0.0625-0.46875 0.29688-0.46875 0.54688 0 0.15625 0.10938 0.34375 0.375 0.34375 0.21875 0 0.53125-0.17188 0.53125-0.57812 0-0.51562-0.57812-0.65625-0.92188-0.65625-0.57812 0-0.92188 0.53125-1.0469 0.75-0.25-0.65625-0.78125-0.75-1.0781-0.75-1.0313 0-1.6094 1.2812-1.6094 1.5313 0 0.10938 0.10938 0.10938 0.125 0.10938 0.07813 0 0.10938-0.03125 0.125-0.10938 0.34375-1.0625 1-1.3125 1.3438-1.3125 0.1875 0 0.53125 0.09375 0.53125 0.67188 0 0.3125-0.17188 0.96875-0.53125 2.375-0.15625 0.60937-0.51562 1.0312-0.95312 1.0312-0.0625 0-0.28125 0-0.5-0.125 0.25-0.0625 0.46875-0.26562 0.46875-0.54688 0-0.26562-0.21875-0.34375-0.35938-0.34375-0.3125 0-0.54688 0.25-0.54688 0.57812 0 0.45312 0.48438 0.65625 0.92188 0.65625 0.67188 0 1.0312-0.70312 1.0469-0.75 0.125 0.35938 0.48438 0.75 1.0781 0.75 1.0312 0 1.5938-1.2812 1.5938-1.5312 0-0.10938-0.07813-0.10938-0.10938-0.10938-0.09375 0-0.10938 0.046875-0.14062 0.10938-0.32812 1.0781-1 1.3125-1.3125 1.3125-0.39062 0-0.54688-0.3125-0.54688-0.65625 0-0.21875 0.04687-0.4375 0.15625-0.875z" fill-opacity=".7"/>
      </g>
     </g>
     <g id="id-5e548f3c-dbe5-4da9-9c01-fdda0794648f" transform="matrix(.64906 0 0 .64906 115.13 25.354)">
      <g transform="translate(275.75,142.61)" fill-opacity=".8">
       <path d="m29.638-0.6364c0-0.1875 0-0.1875-0.20312-0.1875-0.45312 0.4375-1.0781 0.4375-1.3594 0.4375v0.25c0.15625 0 0.625 0 1-0.1875v3.5469c0 0.23438 0 0.32812-0.6875 0.32812h-0.26562v0.25c0.125 0 0.98438-0.03125 1.2344-0.03125 0.21875 0 1.0938 0.03125 1.25 0.03125v-0.25h-0.26562c-0.70312 0-0.70312-0.09375-0.70312-0.32812z" fill-opacity=".7"/>
      </g>
     </g>
     <g transform="matrix(.64906 0 0 .64906 115.13 25.354)">
      <g transform="translate(275.75,149.18)" fill-opacity=".8">
       <path id="id-a1d749e2-363b-48e6-b792-ad32ab6a126f" d="m29.638-0.6364c0-0.1875 0-0.1875-0.20312-0.1875-0.45312 0.4375-1.0781 0.4375-1.3594 0.4375v0.25c0.15625 0 0.625 0 1-0.1875v3.5469c0 0.23438 0 0.32812-0.6875 0.32812h-0.26562v0.25c0.125 0 0.98438-0.03125 1.2344-0.03125 0.21875 0 1.0938 0.03125 1.25 0.03125v-0.25h-0.26562c-0.70312 0-0.70312-0.09375-0.70312-0.32812z" fill-opacity=".7"/>
      </g>
     </g>
     <g transform="matrix(.64906 0 0 .64906 116.56 25.595)">
      <g transform="translate(280.22,146.72)" fill-opacity=".8">
       <path d="m30.638 0.78545c0.0625-0.25 0.29688-1.1719 0.98438-1.1719 0.04687 0 0.29688 0 0.5 0.125-0.28125 0.0625-0.46875 0.29688-0.46875 0.54688 0 0.15625 0.10938 0.34375 0.375 0.34375 0.21875 0 0.53125-0.17188 0.53125-0.57812 0-0.51562-0.57812-0.65625-0.92188-0.65625-0.57812 0-0.92188 0.53125-1.0469 0.75-0.25-0.65625-0.78125-0.75-1.0781-0.75-1.0313 0-1.6094 1.2812-1.6094 1.5313 0 0.10938 0.10938 0.10938 0.125 0.10938 0.07813 0 0.10938-0.03125 0.125-0.10938 0.34375-1.0625 1-1.3125 1.3438-1.3125 0.1875 0 0.53125 0.09375 0.53125 0.67188 0 0.3125-0.17188 0.96875-0.53125 2.375-0.15625 0.60937-0.51562 1.0312-0.95312 1.0312-0.0625 0-0.28125 0-0.5-0.125 0.25-0.0625 0.46875-0.26562 0.46875-0.54688 0-0.26562-0.21875-0.34375-0.35938-0.34375-0.3125 0-0.54688 0.25-0.54688 0.57812 0 0.45312 0.48438 0.65625 0.92188 0.65625 0.67188 0 1.0312-0.70312 1.0469-0.75 0.125 0.35938 0.48438 0.75 1.0781 0.75 1.0312 0 1.5938-1.2812 1.5938-1.5312 0-0.10938-0.07813-0.10938-0.10938-0.10938-0.09375 0-0.10938 0.046875-0.14062 0.10938-0.32812 1.0781-1 1.3125-1.3125 1.3125-0.39062 0-0.54688-0.3125-0.54688-0.65625 0-0.21875 0.04687-0.4375 0.15625-0.875z" fill-opacity=".7"/>
      </g>
     </g>
     <g transform="matrix(.64906 0 0 .64906 116.56 25.595)">
      <g transform="translate(285.91,142.61)" fill-opacity=".8">
       <path d="m30.826 2.5354h-0.23438c-0.01563 0.15625-0.09375 0.5625-0.1875 0.625-0.04687 0.046875-0.57812 0.046875-0.6875 0.046875h-1.2813c0.73438-0.64062 0.98438-0.84375 1.3906-1.1719 0.51562-0.40625 1-0.84375 1-1.5 0-0.84375-0.73438-1.3594-1.625-1.3594-0.85938 0-1.4531 0.60938-1.4531 1.25 0 0.34375 0.29688 0.39063 0.375 0.39063 0.15625 0 0.35938-0.125 0.35938-0.375 0-0.125-0.04687-0.375-0.40625-0.375 0.21875-0.48438 0.6875-0.64062 1.0156-0.64062 0.70312 0 1.0625 0.54688 1.0625 1.1094 0 0.60938-0.4375 1.0781-0.65625 1.3281l-1.6719 1.6719c-0.07813 0.0625-0.07813 0.078125-0.07813 0.26562h2.875z" fill-opacity=".7"/>
      </g>
     </g>
     <g transform="matrix(.64906 0 0 .64906 116.56 25.595)">
      <g transform="translate(285.91,149.18)" fill-opacity=".8">
       <path d="m29.638-0.6364c0-0.1875 0-0.1875-0.20312-0.1875-0.45312 0.4375-1.0781 0.4375-1.3594 0.4375v0.25c0.15625 0 0.625 0 1-0.1875v3.5469c0 0.23438 0 0.32812-0.6875 0.32812h-0.26562v0.25c0.125 0 0.98438-0.03125 1.2344-0.03125 0.21875 0 1.0938 0.03125 1.25 0.03125v-0.25h-0.26562c-0.70312 0-0.70312-0.09375-0.70312-0.32812z" fill-opacity=".7"/>
      </g>
     </g>
     <g transform="matrix(.64906 0 0 .64906 102.52 39.546)">
      <g transform="translate(290.38,146.72)" fill-opacity=".8">
       <path id="id-62a7020c-84f5-4e65-845f-d619f369a7af" d="m11.434-21.642c0.0625-0.25 0.29688-1.1719 0.98438-1.1719 0.04687 0 0.29688 0 0.5 0.125-0.28125 0.0625-0.46875 0.29688-0.46875 0.54688 0 0.15625 0.10938 0.34375 0.375 0.34375 0.21875 0 0.53125-0.17188 0.53125-0.57812 0-0.51562-0.57812-0.65625-0.92187-0.65625-0.57812 0-0.92188 0.53125-1.0469 0.75-0.25-0.65625-0.78125-0.75-1.0781-0.75-1.0312 0-1.6094 1.2812-1.6094 1.5312 0 0.10938 0.10938 0.10938 0.125 0.10938 0.07813 0 0.10938-0.03125 0.125-0.10938 0.34375-1.0625 1-1.3125 1.3438-1.3125 0.1875 0 0.53125 0.09375 0.53125 0.67188 0 0.3125-0.17188 0.96875-0.53125 2.375-0.15625 0.60938-0.51562 1.0312-0.95312 1.0312-0.0625 0-0.28125 0-0.5-0.125 0.25-0.0625 0.46875-0.26562 0.46875-0.54688 0-0.26562-0.21875-0.34375-0.35938-0.34375-0.3125 0-0.54688 0.25-0.54688 0.57812 0 0.45312 0.48438 0.65625 0.92188 0.65625 0.67188 0 1.0312-0.70312 1.0469-0.75 0.125 0.35938 0.48438 0.75 1.0781 0.75 1.0312 0 1.5938-1.2812 1.5938-1.5312 0-0.10938-0.07813-0.10938-0.10938-0.10938-0.09375 0-0.10938 0.04687-0.14062 0.10938-0.32812 1.0781-1 1.3125-1.3125 1.3125-0.39062 0-0.54688-0.3125-0.54688-0.65625 0-0.21875 0.04687-0.4375 0.15625-0.875z" fill-opacity=".7"/>
      </g>
     </g>
     <g id="id-2e797095-085b-4844-97ce-188f19ec97bb" transform="matrix(.64906 0 0 .64906 102.52 39.546)">
      <g transform="translate(296.07,142.61)" fill-opacity=".8">
       <path d="m11.699-20.845c0-0.76562-0.09375-1.3281-0.40625-1.8125-0.21875-0.3125-0.65625-0.59375-1.2031-0.59375-1.625 0-1.625 1.9062-1.625 2.4062s0 2.3594 1.625 2.3594c1.6094 0 1.6094-1.8594 1.6094-2.3594zm-1.6094 2.1562c-0.32812 0-0.75-0.1875-0.89062-0.75-0.09375-0.40625-0.09375-0.98438-0.09375-1.5s0-1.0469 0.09375-1.4219c0.15625-0.54688 0.59375-0.70312 0.89062-0.70312 0.375 0 0.73438 0.23438 0.85938 0.64062 0.10938 0.375 0.125 0.875 0.125 1.4844 0 0.51562 0 1.0312-0.09375 1.4688-0.14062 0.64062-0.60938 0.78125-0.89062 0.78125z" fill-opacity=".7"/>
      </g>
     </g>
     <g transform="matrix(.64906 0 0 .64906 102.52 39.546)">
      <g transform="translate(296.07,149.18)" fill-opacity=".8">
       <path d="m10.434-23.064c0-0.1875 0-0.1875-0.20312-0.1875-0.45312 0.4375-1.0781 0.4375-1.3594 0.4375v0.25c0.15625 0 0.625 0 1-0.1875v3.5469c0 0.23438 0 0.32812-0.6875 0.32812h-0.26562v0.25c0.125 0 0.98438-0.03125 1.2344-0.03125 0.21875 0 1.0938 0.03125 1.25 0.03125v-0.25h-0.26562c-0.70312 0-0.70312-0.09375-0.70312-0.32812z" fill-opacity=".7"/>
      </g>
     </g>
     <g id="id-6a3ef2cc-40cf-40db-b71a-d17ad6cb3d0e" transform="matrix(.68825 0 0 .68825 25.542 -16.044)">
      <g transform="translate(310.71,146.72)" fill-opacity=".8">
       <path d="m3.3281-3.0156c0.0625-0.25 0.29688-1.1719 0.98438-1.1719 0.046875 0 0.29688 0 0.5 0.125-0.28125 0.0625-0.46875 0.29688-0.46875 0.54688 0 0.15625 0.10938 0.34375 0.375 0.34375 0.21875 0 0.53125-0.17188 0.53125-0.57812 0-0.51562-0.57812-0.65625-0.92188-0.65625-0.57812 0-0.92188 0.53125-1.0469 0.75-0.25-0.65625-0.78125-0.75-1.0781-0.75-1.0312 0-1.6094 1.2812-1.6094 1.5312 0 0.10938 0.10938 0.10938 0.125 0.10938 0.078125 0 0.10938-0.03125 0.125-0.10938 0.34375-1.0625 1-1.3125 1.3438-1.3125 0.1875 0 0.53125 0.09375 0.53125 0.67188 0 0.3125-0.17188 0.96875-0.53125 2.375-0.15625 0.60938-0.51562 1.0312-0.95312 1.0312-0.0625 0-0.28125 0-0.5-0.125 0.25-0.0625 0.46875-0.26562 0.46875-0.54688 0-0.26562-0.21875-0.34375-0.35938-0.34375-0.3125 0-0.54688 0.25-0.54688 0.57812 0 0.45312 0.48438 0.65625 0.92188 0.65625 0.67188 0 1.0312-0.70312 1.0469-0.75 0.125 0.35938 0.48438 0.75 1.0781 0.75 1.0312 0 1.5938-1.2812 1.5938-1.5312 0-0.10938-0.078125-0.10938-0.10938-0.10938-0.09375 0-0.10938 0.046875-0.14062 0.10938-0.32812 1.0781-1 1.3125-1.3125 1.3125-0.39062 0-0.54688-0.3125-0.54688-0.65625 0-0.21875 0.046875-0.4375 0.15625-0.875z" fill-opacity=".7"/>
      </g>
     </g>
     <g transform="matrix(.68825 0 0 .68825 25.542 -16.044)">
      <g transform="translate(316.4,142.61)" fill-opacity=".8">
       <path id="id-9aff0c0e-5eab-46fc-8eee-23a62a48ccac" d="m2.3281-4.4375c0-0.1875 0-0.1875-0.20312-0.1875-0.45312 0.4375-1.0781 0.4375-1.3594 0.4375v0.25c0.15625 0 0.625 0 1-0.1875v3.5469c0 0.23438 0 0.32812-0.6875 0.32812h-0.26562v0.25c0.125 0 0.98438-0.03125 1.2344-0.03125 0.21875 0 1.0938 0.03125 1.25 0.03125v-0.25h-0.26562c-0.70312 0-0.70312-0.09375-0.70312-0.32812z" fill-opacity=".7"/>
      </g>
     </g>
     <g transform="matrix(.68825 0 0 .68825 25.542 -16.044)">
      <g transform="translate(316.4,149.18)" fill-opacity=".8">
       <path d="m3.5156-1.2656h-0.23438c-0.015625 0.15625-0.09375 0.5625-0.1875 0.625-0.046875 0.046875-0.57812 0.046875-0.6875 0.046875h-1.2812c0.73438-0.64062 0.98438-0.84375 1.3906-1.1719 0.51562-0.40625 1-0.84375 1-1.5 0-0.84375-0.73438-1.3594-1.625-1.3594-0.85938 0-1.4531 0.60938-1.4531 1.25 0 0.34375 0.29688 0.39062 0.375 0.39062 0.15625 0 0.35938-0.125 0.35938-0.375 0-0.125-0.046875-0.375-0.40625-0.375 0.21875-0.48438 0.6875-0.64062 1.0156-0.64062 0.70312 0 1.0625 0.54688 1.0625 1.1094 0 0.60938-0.4375 1.0781-0.65625 1.3281l-1.6719 1.6719c-0.078125 0.0625-0.078125 0.078125-0.078125 0.26562h2.875z" fill-opacity=".7"/>
      </g>
     </g>
     <g transform="matrix(.68825 0 0 .68825 19.02 -24.463)">
      <g transform="translate(320.87,146.72)" fill-opacity=".8">
       <path d="m3.3281-3.0156c0.0625-0.25 0.29688-1.1719 0.98438-1.1719 0.046875 0 0.29688 0 0.5 0.125-0.28125 0.0625-0.46875 0.29688-0.46875 0.54688 0 0.15625 0.10938 0.34375 0.375 0.34375 0.21875 0 0.53125-0.17188 0.53125-0.57812 0-0.51562-0.57812-0.65625-0.92188-0.65625-0.57812 0-0.92188 0.53125-1.0469 0.75-0.25-0.65625-0.78125-0.75-1.0781-0.75-1.0312 0-1.6094 1.2812-1.6094 1.5312 0 0.10938 0.10938 0.10938 0.125 0.10938 0.078125 0 0.10938-0.03125 0.125-0.10938 0.34375-1.0625 1-1.3125 1.3438-1.3125 0.1875 0 0.53125 0.09375 0.53125 0.67188 0 0.3125-0.17188 0.96875-0.53125 2.375-0.15625 0.60938-0.51562 1.0312-0.95312 1.0312-0.0625 0-0.28125 0-0.5-0.125 0.25-0.0625 0.46875-0.26562 0.46875-0.54688 0-0.26562-0.21875-0.34375-0.35938-0.34375-0.3125 0-0.54688 0.25-0.54688 0.57812 0 0.45312 0.48438 0.65625 0.92188 0.65625 0.67188 0 1.0312-0.70312 1.0469-0.75 0.125 0.35938 0.48438 0.75 1.0781 0.75 1.0312 0 1.5938-1.2812 1.5938-1.5312 0-0.10938-0.078125-0.10938-0.10938-0.10938-0.09375 0-0.10938 0.046875-0.14062 0.10938-0.32812 1.0781-1 1.3125-1.3125 1.3125-0.39062 0-0.54688-0.3125-0.54688-0.65625 0-0.21875 0.046875-0.4375 0.15625-0.875z" fill-opacity=".7"/>
      </g>
     </g>
     <g id="id-6110a62f-cb15-4ed1-be9a-313357240ffb" transform="matrix(.68825 0 0 .68825 19.02 -24.463)">
      <g transform="translate(326.56,142.61)" fill-opacity=".8">
       <path id="id-11a73f17-91e0-41fb-8da2-37cfaaec699f" d="m3.5156-1.2656h-0.23438c-0.015625 0.15625-0.09375 0.5625-0.1875 0.625-0.046875 0.046875-0.57812 0.046875-0.6875 0.046875h-1.2812c0.73438-0.64062 0.98438-0.84375 1.3906-1.1719 0.51562-0.40625 1-0.84375 1-1.5 0-0.84375-0.73438-1.3594-1.625-1.3594-0.85938 0-1.4531 0.60938-1.4531 1.25 0 0.34375 0.29688 0.39062 0.375 0.39062 0.15625 0 0.35938-0.125 0.35938-0.375 0-0.125-0.046875-0.375-0.40625-0.375 0.21875-0.48438 0.6875-0.64062 1.0156-0.64062 0.70312 0 1.0625 0.54688 1.0625 1.1094 0 0.60938-0.4375 1.0781-0.65625 1.3281l-1.6719 1.6719c-0.078125 0.0625-0.078125 0.078125-0.078125 0.26562h2.875z" fill-opacity=".7"/>
      </g>
     </g>
     <g transform="matrix(.68825 0 0 .68825 19.02 -24.463)">
      <g transform="translate(326.56,149.18)" fill-opacity=".8">
       <path id="id-3b5bf4b5-91f2-4a8a-b939-20827e39ffae" d="m3.5156-1.2656h-0.23438c-0.015625 0.15625-0.09375 0.5625-0.1875 0.625-0.046875 0.046875-0.57812 0.046875-0.6875 0.046875h-1.2812c0.73438-0.64062 0.98438-0.84375 1.3906-1.1719 0.51562-0.40625 1-0.84375 1-1.5 0-0.84375-0.73438-1.3594-1.625-1.3594-0.85938 0-1.4531 0.60938-1.4531 1.25 0 0.34375 0.29688 0.39062 0.375 0.39062 0.15625 0 0.35938-0.125 0.35938-0.375 0-0.125-0.046875-0.375-0.40625-0.375 0.21875-0.48438 0.6875-0.64062 1.0156-0.64062 0.70312 0 1.0625 0.54688 1.0625 1.1094 0 0.60938-0.4375 1.0781-0.65625 1.3281l-1.6719 1.6719c-0.078125 0.0625-0.078125 0.078125-0.078125 0.26562h2.875z" fill-opacity=".7"/>
      </g>
     </g>
     <g id="id-a74c4fd6-1f31-4105-a933-a2075fee92ce" transform="matrix(.68825 0 0 .68825 11.579 6.5774)">
      <g transform="translate(331.03,146.72)" fill-opacity=".8">
       <path d="m2.9684-1.7597c0.0625-0.25 0.29688-1.1719 0.98438-1.1719 0.046875 0 0.29688 0 0.5 0.125-0.28125 0.0625-0.46875 0.29688-0.46875 0.54688 0 0.15625 0.10938 0.34375 0.375 0.34375 0.21875 0 0.53125-0.17188 0.53125-0.57812 0-0.51562-0.57812-0.65625-0.92188-0.65625-0.57812 0-0.92188 0.53125-1.0469 0.75-0.25-0.65625-0.78125-0.75-1.0781-0.75-1.0312 0-1.6094 1.2812-1.6094 1.5312 0 0.10938 0.10938 0.10938 0.125 0.10938 0.078125 0 0.10938-0.03125 0.125-0.10938 0.34375-1.0625 1-1.3125 1.3438-1.3125 0.1875 0 0.53125 0.09375 0.53125 0.67188 0 0.3125-0.17188 0.96875-0.53125 2.375-0.15625 0.60938-0.51562 1.0312-0.95312 1.0312-0.0625 0-0.28125 0-0.5-0.125 0.25-0.0625 0.46875-0.26562 0.46875-0.54688 0-0.26562-0.21875-0.34375-0.35938-0.34375-0.3125 0-0.54688 0.25-0.54688 0.57812 0 0.45312 0.48438 0.65625 0.92188 0.65625 0.67188 0 1.0312-0.70312 1.0469-0.75 0.125 0.35938 0.48438 0.75 1.0781 0.75 1.0312 0 1.5938-1.2812 1.5938-1.5312 0-0.10938-0.078125-0.10938-0.10938-0.10938-0.09375 0-0.10938 0.046875-0.14062 0.10938-0.32812 1.0781-1 1.3125-1.3125 1.3125-0.39062 0-0.54688-0.3125-0.54688-0.65625 0-0.21875 0.046875-0.4375 0.15625-0.875z" fill-opacity=".7"/>
      </g>
     </g>
     <g id="id-23b70c5b-837d-48b4-833e-cf33c40f10bd" transform="matrix(.68825 0 0 .68825 11.579 6.5774)">
      <g transform="translate(336.73,142.61)" fill-opacity=".8">
       <path d="m3.2341-0.9629c0-0.76562-0.09375-1.3281-0.40625-1.8125-0.21875-0.3125-0.65625-0.59375-1.2031-0.59375-1.625 0-1.625 1.9062-1.625 2.4062s0 2.3594 1.625 2.3594c1.6094 0 1.6094-1.8594 1.6094-2.3594zm-1.6094 2.1562c-0.32812 0-0.75-0.1875-0.89062-0.75-0.09375-0.40625-0.09375-0.98438-0.09375-1.5s0-1.0469 0.09375-1.4219c0.15625-0.54688 0.59375-0.70312 0.89062-0.70312 0.375 0 0.73438 0.23438 0.85938 0.64062 0.10938 0.375 0.125 0.875 0.125 1.4844 0 0.51562 0 1.0312-0.09375 1.4688-0.14062 0.64062-0.60938 0.78125-0.89062 0.78125z" fill-opacity=".7"/>
      </g>
     </g>
     <g id="id-9e4de5f7-4e4f-4f50-adfb-b5bc7a7d563f" transform="matrix(.68825 0 0 .68825 11.579 6.5774)">
      <g transform="translate(336.73,149.18)" fill-opacity=".8">
       <path d="m3.1559-0.009697h-0.23438c-0.015625 0.15625-0.09375 0.5625-0.1875 0.625-0.046875 0.046875-0.57812 0.046875-0.6875 0.046875h-1.2812c0.73438-0.64062 0.98438-0.84375 1.3906-1.1719 0.51562-0.40625 1-0.84375 1-1.5 0-0.84375-0.73438-1.3594-1.625-1.3594-0.85938 0-1.4531 0.60938-1.4531 1.25 0 0.34375 0.29688 0.39062 0.375 0.39062 0.15625 0 0.35938-0.125 0.35938-0.375 0-0.125-0.046875-0.375-0.40625-0.375 0.21875-0.48438 0.6875-0.64062 1.0156-0.64062 0.70312 0 1.0625 0.54688 1.0625 1.1094 0 0.60938-0.4375 1.0781-0.65625 1.3281l-1.6719 1.6719c-0.078125 0.0625-0.078125 0.078125-0.078125 0.26562h2.875z" fill-opacity=".7"/>
      </g>
     </g>
     <g transform="matrix(.68825 0 0 .68825 4.9692 -32.94)">
      <g transform="translate(341.2,146.72)" fill-opacity=".8">
       <path id="id-95fa966b-dc4d-410f-a1ec-c3c1790c21de" d="m3.3689-2.526c0.0625-0.25 0.29688-1.1719 0.98438-1.1719 0.046875 0 0.29688 0 0.5 0.125-0.28125 0.0625-0.46875 0.29688-0.46875 0.54688 0 0.15625 0.10938 0.34375 0.375 0.34375 0.21875 0 0.53125-0.17188 0.53125-0.57812 0-0.51562-0.57812-0.65625-0.92188-0.65625-0.57812 0-0.92188 0.53125-1.0469 0.75-0.25-0.65625-0.78125-0.75-1.0781-0.75-1.0312 0-1.6094 1.2812-1.6094 1.5312 0 0.10938 0.10938 0.10938 0.125 0.10938 0.078125 0 0.10938-0.03125 0.125-0.10938 0.34375-1.0625 1-1.3125 1.3438-1.3125 0.1875 0 0.53125 0.09375 0.53125 0.67188 0 0.3125-0.17188 0.96875-0.53125 2.375-0.15625 0.60938-0.51562 1.0312-0.95312 1.0312-0.0625 0-0.28125 0-0.5-0.125 0.25-0.0625 0.46875-0.26562 0.46875-0.54688 0-0.26562-0.21875-0.34375-0.35938-0.34375-0.3125 0-0.54688 0.25-0.54688 0.57812 0 0.45312 0.48438 0.65625 0.92188 0.65625 0.67188 0 1.0312-0.70312 1.0469-0.75 0.125 0.35938 0.48438 0.75 1.0781 0.75 1.0312 0 1.5938-1.2812 1.5938-1.5312 0-0.10938-0.078125-0.10938-0.10938-0.10938-0.09375 0-0.10938 0.046875-0.14062 0.10938-0.32812 1.0781-1 1.3125-1.3125 1.3125-0.39062 0-0.54688-0.3125-0.54688-0.65625 0-0.21875 0.046875-0.4375 0.15625-0.875z" fill-opacity=".7"/>
      </g>
     </g>
     <g transform="matrix(.68825 0 0 .68825 4.9692 -32.94)">
      <g transform="translate(346.89,142.61)" fill-opacity=".8">
       <path id="id-ab8b3564-d24e-4543-acf1-6ab1ca08508a" d="m1.947-1.8385c0.54688 0 0.9375 0.375 0.9375 1.125 0 0.85938-0.51562 1.125-0.90625 1.125-0.28125 0-0.90625-0.078125-1.1875-0.5 0.32812 0 0.40625-0.23438 0.40625-0.39062 0-0.21875-0.17188-0.375-0.39062-0.375-0.1875 0-0.39062 0.125-0.39062 0.40625 0 0.65625 0.71875 1.0781 1.5625 1.0781 0.96875 0 1.6406-0.65625 1.6406-1.3438 0-0.54688-0.4375-1.0938-1.2031-1.25 0.71875-0.26562 0.98438-0.78125 0.98438-1.2188 0-0.54688-0.625-0.95312-1.4062-0.95312-0.76562 0-1.3594 0.375-1.3594 0.9375 0 0.23438 0.15625 0.35938 0.35938 0.35938 0.21875 0 0.35938-0.15625 0.35938-0.34375 0-0.20312-0.14062-0.35938-0.35938-0.375 0.25-0.29688 0.71875-0.375 0.98438-0.375 0.3125 0 0.75 0.15625 0.75 0.75 0 0.29688-0.09375 0.625-0.28125 0.82812-0.21875 0.26562-0.42188 0.28125-0.76562 0.3125-0.17188 0.015625-0.1875 0.015625-0.21875 0.015625-0.015625 0-0.078125 0.015625-0.078125 0.09375 0 0.09375 0.0625 0.09375 0.1875 0.09375z" fill-opacity=".7"/>
      </g>
     </g>
     <g transform="matrix(.68825 0 0 .68825 4.9692 -32.94)">
      <g transform="translate(346.89,149.18)" fill-opacity=".8">
       <path id="id-28879c6c-4de5-4e5a-b5ae-075589834aec" d="m3.5564-0.77601h-0.23438c-0.015625 0.15625-0.09375 0.5625-0.1875 0.625-0.046875 0.046875-0.57812 0.046875-0.6875 0.046875h-1.2812c0.73438-0.64062 0.98438-0.84375 1.3906-1.1719 0.51562-0.40625 1-0.84375 1-1.5 0-0.84375-0.73438-1.3594-1.625-1.3594-0.85938 0-1.4531 0.60938-1.4531 1.25 0 0.34375 0.29688 0.39062 0.375 0.39062 0.15625 0 0.35938-0.125 0.35938-0.375 0-0.125-0.046875-0.375-0.40625-0.375 0.21875-0.48438 0.6875-0.64062 1.0156-0.64062 0.70312 0 1.0625 0.54688 1.0625 1.1094 0 0.60938-0.4375 1.0781-0.65625 1.3281l-1.6719 1.6719c-0.078125 0.0625-0.078125 0.078125-0.078125 0.26562h2.875z" fill-opacity=".7"/>
      </g>
     </g>
     <g transform="matrix(.64906 0 0 .64906 84.058 25.672)">
      <g transform="translate(341.2,146.72)" fill-opacity=".8">
       <path d="m30.638 0.78545c0.0625-0.25 0.29688-1.1719 0.98438-1.1719 0.04687 0 0.29688 0 0.5 0.125-0.28125 0.0625-0.46875 0.29688-0.46875 0.54688 0 0.15625 0.10938 0.34375 0.375 0.34375 0.21875 0 0.53125-0.17188 0.53125-0.57812 0-0.51562-0.57812-0.65625-0.92188-0.65625-0.57812 0-0.92188 0.53125-1.0469 0.75-0.25-0.65625-0.78125-0.75-1.0781-0.75-1.0313 0-1.6094 1.2812-1.6094 1.5313 0 0.10938 0.10938 0.10938 0.125 0.10938 0.07813 0 0.10938-0.03125 0.125-0.10938 0.34375-1.0625 1-1.3125 1.3438-1.3125 0.1875 0 0.53125 0.09375 0.53125 0.67188 0 0.3125-0.17188 0.96875-0.53125 2.375-0.15625 0.60937-0.51562 1.0312-0.95312 1.0312-0.0625 0-0.28125 0-0.5-0.125 0.25-0.0625 0.46875-0.26562 0.46875-0.54688 0-0.26562-0.21875-0.34375-0.35938-0.34375-0.3125 0-0.54688 0.25-0.54688 0.57812 0 0.45312 0.48438 0.65625 0.92188 0.65625 0.67188 0 1.0312-0.70312 1.0469-0.75 0.125 0.35938 0.48438 0.75 1.0781 0.75 1.0312 0 1.5938-1.2812 1.5938-1.5312 0-0.10938-0.07813-0.10938-0.10938-0.10938-0.09375 0-0.10938 0.046875-0.14062 0.10938-0.32812 1.0781-1 1.3125-1.3125 1.3125-0.39062 0-0.54688-0.3125-0.54688-0.65625 0-0.21875 0.04687-0.4375 0.15625-0.875z" fill-opacity=".7"/>
      </g>
     </g>
     <g transform="matrix(.64906 0 0 .64906 84.058 25.672)">
      <g transform="translate(346.89,142.61)" fill-opacity=".8">
       <path d="m29.216 1.4729c0.54688 0 0.9375 0.375 0.9375 1.125 0 0.85937-0.51562 1.125-0.90625 1.125-0.28125 0-0.90625-0.078125-1.1875-0.5 0.32812 0 0.40625-0.23438 0.40625-0.39062 0-0.21875-0.17188-0.375-0.39062-0.375-0.1875 0-0.39062 0.125-0.39062 0.40625 0 0.65625 0.71875 1.0781 1.5625 1.0781 0.96875 0 1.6406-0.65625 1.6406-1.3437 0-0.54688-0.4375-1.0938-1.2031-1.25 0.71875-0.26562 0.98438-0.78125 0.98438-1.2188 0-0.54688-0.625-0.95312-1.4062-0.95312-0.76563 0-1.3594 0.375-1.3594 0.9375 0 0.23438 0.15625 0.35938 0.35938 0.35938 0.21875 0 0.35938-0.15625 0.35938-0.34375 0-0.20312-0.14063-0.35938-0.35938-0.375 0.25-0.29688 0.71875-0.375 0.98438-0.375 0.3125 0 0.75 0.15625 0.75 0.75 0 0.29688-0.09375 0.625-0.28125 0.82813-0.21875 0.26562-0.42188 0.28125-0.76562 0.3125-0.17188 0.015625-0.1875 0.015625-0.21875 0.015625-0.01563 0-0.07813 0.015625-0.07813 0.09375 0 0.09375 0.0625 0.09375 0.1875 0.09375z" fill-opacity=".7"/>
      </g>
     </g>
     <g transform="matrix(.64906 0 0 .64906 123.75 25.801)">
      <g transform="translate(285.91,149.18)" fill-opacity=".8">
       <path d="m29.638-0.6364c0-0.1875 0-0.1875-0.20312-0.1875-0.45312 0.4375-1.0781 0.4375-1.3594 0.4375v0.25c0.15625 0 0.625 0 1-0.1875v3.5469c0 0.23438 0 0.32812-0.6875 0.32812h-0.26562v0.25c0.125 0 0.98438-0.03125 1.2344-0.03125 0.21875 0 1.0938 0.03125 1.25 0.03125v-0.25h-0.26562c-0.70312 0-0.70312-0.09375-0.70312-0.32812z" fill-opacity=".7"/>
      </g>
     </g>
     <g transform="matrix(.83734 0 0 .83734 -28.91 -123.91)">
      <g transform="translate(320.87,146.72)" fill-opacity=".8">
       <path d="m2.9784-3.1761c0.055289-0.22116 0.26262-1.0367 0.8708-1.0367 0.041467 0 0.26262 0 0.44231 0.11058-0.2488 0.055289-0.41467 0.26262-0.41467 0.48378 0 0.13822 0.096756 0.30409 0.33173 0.30409 0.19351 0 0.46996-0.15205 0.46996-0.51142 0-0.45614-0.51142-0.58054-0.81551-0.58054-0.51142 0-0.81551 0.46996-0.92609 0.66347-0.22116-0.58054-0.69111-0.66347-0.95374-0.66347-0.91227 0-1.4237 1.1334-1.4237 1.3546 0 0.096755 0.096756 0.096755 0.11058 0.096755 0.069111 0 0.096756-0.027644 0.11058-0.096755 0.30409-0.93991 0.88463-1.1611 1.1887-1.1611 0.16587 0 0.46996 0.082933 0.46996 0.59436 0 0.27645-0.15204 0.85698-0.46996 2.101-0.13822 0.53907-0.45614 0.91227-0.84316 0.91227-0.055289 0-0.2488 0-0.44231-0.11058 0.22116-0.055289 0.41467-0.23498 0.41467-0.48378 0-0.23498-0.19351-0.30409-0.31791-0.30409-0.27645 0-0.48378 0.22116-0.48378 0.51142 0 0.40085 0.42849 0.58054 0.81551 0.58054 0.59436 0 0.91227-0.622 0.92609-0.66347 0.11058 0.31791 0.42849 0.66347 0.95374 0.66347 0.91227 0 1.4099-1.1334 1.4099-1.3546 0-0.096755-0.069111-0.096755-0.096756-0.096755-0.082933 0-0.096756 0.041466-0.1244 0.096755-0.29027 0.95374-0.88463 1.1611-1.1611 1.1611-0.34556 0-0.48378-0.27645-0.48378-0.58054 0-0.19351 0.041467-0.38702 0.13822-0.77405z" fill-opacity=".8"/>
      </g>
     </g>
     <g transform="matrix(.83734 0 0 .83734 -28.91 -123.91)">
      <g transform="translate(326.56,149.18)" fill-opacity=".8">
       <path d="m2.4873-1.9121h-0.20733c-0.013822 0.13822-0.082933 0.4976-0.16587 0.55289-0.041467 0.041467-0.51142 0.041467-0.60818 0.041467h-1.1334c0.64965-0.56671 0.8708-0.7464 1.2302-1.0367 0.45614-0.35938 0.88463-0.7464 0.88463-1.3269 0-0.7464-0.64965-1.2025-1.4375-1.2025-0.76023 0-1.2855 0.53907-1.2855 1.1058 0 0.30409 0.26262 0.34556 0.33173 0.34556 0.13822 0 0.31791-0.11058 0.31791-0.33173 0-0.11058-0.041467-0.33173-0.35938-0.33173 0.19351-0.42849 0.60818-0.56671 0.89845-0.56671 0.622 0 0.93991 0.48378 0.93991 0.98138 0 0.53907-0.38702 0.95374-0.58054 1.1749l-1.479 1.479c-0.069111 0.055289-0.069111 0.069111-0.069111 0.23498h2.5433z" fill-opacity=".8"/>
      </g>
     </g>
    </g>
    <path d="m247.2 106.18 3.2855-9.2e-4" fill="none" stroke="#980000" stroke-opacity=".68182" stroke-width=".31186"/>
    <path d="m247.3 81.68 3.2855-9.2e-4" fill="none" stroke="#980000" stroke-opacity=".68182" stroke-width=".31186"/>
   </g>
  </g>
  <g transform="translate(25.637 1.6124)" fill="none" stroke="#850000" stroke-opacity=".2" stroke-width=".51282">
   <path d="m62.149 213v9.175" fill="#980000" fill-opacity=".6"/>
   <path d="m79.79 177.26v45.063" fill="#000" fill-opacity=".1"/>
   <path d="m89.244 166.56v55.603"/>
   <path d="m96.7 159.23v62.834"/>
  </g>
  <circle cx="87.774" cy="214.11" r="1.2778" fill="#980000" fill-opacity=".6" fill-rule="evenodd"/>
  <g fill="none" stroke="#980000" stroke-opacity=".68182" stroke-width=".44768">
   <path d="m87.787 228.51-0.0013-4.7165"/>
   <path d="m105.46 228.63-1e-3 -4.7165"/>
   <path d="m114.89 228.47-1e-3 -4.7165"/>
   <path d="m122.36 228.36-1e-3 -4.7165"/>
   <path d="m11.057 168.42 4.7165-1e-3"/>
   <path d="m11.107 160.98 4.7165-1e-3"/>
  </g>
  <ellipse transform="matrix(-.5597 -.8287 .83526 -.54986 0 0)" cx="-193.89" cy="22.292" rx="1.1947" ry="1.2309" fill="#0069ff" fill-opacity=".56061" fill-rule="evenodd"/>
  <ellipse transform="matrix(.50481 -.86323 .82602 .56364 0 0)" cx="-51.582" cy="181.95" rx="30.095" ry="14.828" fill="#0069ff" fill-opacity=".1" fill-rule="evenodd"/>
 </g>
 <ellipse transform="matrix(.54522 -.83829 .77753 .62884 0 0)" cx="7.1291" cy="158.29" rx="19.411" ry="9.3634" fill="#0069ff" fill-opacity=".1" fill-rule="evenodd" stroke-width=".63819"/>
 <g fill="#980000" fill-opacity=".6" stroke="#980000" stroke-opacity=".2">
  <path d="m87.873 160.86h-72.234" stroke-width=".4662px"/>
  <path d="m87.777 125.71h-71.992" stroke-width=".46542px"/>
  <path d="m105.53 115.23h-89.674" stroke-width=".47304"/>
  <path d="m114.82 107.8h-98.9" stroke-width=".45244"/>
 </g>
</svg>
