<svg width="218.03mm" height="82.73mm" version="1.1" viewBox="0 0 353.08 113.02" xmlns="http://www.w3.org/2000/svg" xmlns:ns0="http://www.iki.fi/pav/software/textext/">
 <defs>
  <marker id="f" overflow="visible" orient="auto">
   <path transform="matrix(-.4 0 0 -.4 -4 0)" d="m0 0 5-5-17.5 5 17.5 5z" fill-opacity=".52174" fill-rule="evenodd" stroke="#000" stroke-opacity=".57488" stroke-width="1pt"/>
  </marker>
  <marker id="Arrow1Mend" overflow="visible" orient="auto">
   <path transform="matrix(-.4 0 0 -.4 -4 0)" d="m0 0 5-5-17.5 5 17.5 5z" fill-opacity=".49758" fill-rule="evenodd" stroke="#000" stroke-opacity=".57488" stroke-width="1pt"/>
  </marker>
  <marker id="e" overflow="visible" orient="auto">
   <path transform="matrix(.4 0 0 .4 4 0)" d="m0 0 5-5-17.5 5 17.5 5z" fill-opacity=".4058" fill-rule="evenodd" stroke="#000" stroke-opacity=".4058" stroke-width="1pt"/>
  </marker>
  <marker id="b" overflow="visible" orient="auto">
   <path transform="matrix(.4 0 0 .4 4 0)" d="m0 0 5-5-17.5 5 17.5 5z" fill="#f00" fill-opacity=".60386" fill-rule="evenodd" stroke="#f00" stroke-opacity=".60386" stroke-width="1pt"/>
  </marker>
  <marker id="a" overflow="visible" orient="auto">
   <path transform="matrix(.4 0 0 .4 4 0)" d="m0 0 5-5-17.5 5 17.5 5z" fill="#f00" fill-opacity=".60386" fill-rule="evenodd" stroke="#f00" stroke-opacity=".60386" stroke-width="1pt"/>
  </marker>
  <marker id="d" overflow="visible" orient="auto">
   <path transform="matrix(.4 0 0 .4 4 0)" d="m0 0 5-5-17.5 5 17.5 5z" fill-opacity=".4058" fill-rule="evenodd" stroke="#000" stroke-opacity=".4058" stroke-width="1pt"/>
  </marker>
  <marker id="c" overflow="visible" orient="auto">
   <path transform="matrix(.4 0 0 .4 4 0)" d="m0 0 5-5-17.5 5 17.5 5z" fill-opacity=".4058" fill-rule="evenodd" stroke="#000" stroke-opacity=".4058" stroke-width="1pt"/>
  </marker>
 </defs>
 <g transform="translate(-29.695 4.4143)">
  <g transform="translate(7.2378,-59.353)">
   <g transform="matrix(1.2506,0,0,-1.2506,-72.165,1072.2)" fill-rule="evenodd" stroke="#000" stroke-miterlimit="10.433" ns0:preamble="default_packages.tex" ns0:text="$x$\n$y$\n" xml:space="preserve"><g transform="matrix(.79961 0 0 -.79961 58.988 860.59)"><g transform="matrix(1.2506,0,0,-1.2506,-72.165,1072.2)" fill-rule="evenodd" stroke="#000" stroke-miterlimit="10.433" ns0:preamble="default_packages.tex" ns0:text="$x$\n$y$\n" xml:space="preserve"><g transform="rotate(180,212.4,757.83)" fill-rule="evenodd" stroke="#000" stroke-miterlimit="10.433" stroke-opacity=".62745"><g transform="matrix(.79961 0 0 -.79961 -41.225 831.43)" stroke="#000" stroke-opacity=".62745" stroke-width=".7"><g transform="matrix(1.2506,0,0,-1.2506,-72.165,1072.2)" fill-rule="evenodd" stroke="#000" stroke-miterlimit="10.433" stroke-opacity=".62745" stroke-width=".55973" ns0:preamble="default_packages.tex" ns0:text="$x$\n$y$\n" xml:space="preserve"><g transform="matrix(-.65715 0 0 -.65715 540.07 1459.9)" fill-rule="evenodd" stroke="#000" stroke-miterlimit="10.433" stroke-opacity=".62745" stroke-width="2.2826" ns0:preamble="default_packages.tex" ns0:text="$x_1 x_2 x f(x_1) f(x_2) f(x)$\n" xml:space="preserve"><g stroke="#000" stroke-opacity=".62745"><g transform="matrix(1.2168,0,0,-1.2168,183.62,863.82)"><g transform="translate(7.2378,-59.353)"><g transform="matrix(1.2506,0,0,-1.2506,-72.165,1072.2)" fill-rule="evenodd" stroke="#000" stroke-miterlimit="10.433" ns0:preamble="default_packages.tex" ns0:text="$x$\n$y$\n" xml:space="preserve"><g transform="matrix(.79961 0 0 -.79961 58.988 860.59)"><g transform="matrix(1.2506,0,0,-1.2506,-72.165,1072.2)" fill-rule="evenodd" stroke="#000" stroke-miterlimit="10.433" ns0:preamble="default_packages.tex" ns0:text="$x$\n$y$\n" xml:space="preserve"><g transform="rotate(180,212.4,757.83)" fill-rule="evenodd" stroke="#000" stroke-miterlimit="10.433"><g transform="matrix(.79961 0 0 -.79961 -41.225 831.43)" stroke-width=".7"><g transform="rotate(180,289.14,175.12)"><g transform="translate(7.2378,-59.353)"><g transform="matrix(1.2506,0,0,-1.2506,-72.165,1072.2)" fill-rule="evenodd" stroke="#000" stroke-miterlimit="10.433" ns0:preamble="default_packages.tex" ns0:text="$x$\n$y$\n" xml:space="preserve"><g transform="matrix(.79961 0 0 -.79961 58.988 860.59)"><g transform="matrix(1.2506,0,0,-1.2506,-72.165,1072.2)" fill-rule="evenodd" stroke="#000" stroke-miterlimit="10.433" ns0:preamble="default_packages.tex" ns0:text="$x$\n$y$\n" xml:space="preserve"><g transform="rotate(180,210.82,756.39)" stroke-opacity=".62745"><g transform="matrix(.79961 0 0 -.79961 -41.225 831.43)" stroke="#000" stroke-opacity=".62745" stroke-width=".7"><g transform="matrix(1.2506,0,0,-1.2506,-72.165,1072.2)" fill-rule="evenodd" stroke="#000" stroke-miterlimit="10.433" stroke-opacity=".62745" stroke-width=".55973" ns0:preamble="default_packages.tex" ns0:text="$x$\n$y$\n" xml:space="preserve"><g transform="matrix(-.65715 0 0 -.65715 540.07 1459.9)" fill-rule="evenodd" stroke="#000" stroke-miterlimit="10.433" stroke-opacity=".62745" stroke-width="2.2826" ns0:preamble="default_packages.tex" ns0:text="$x_1 x_2 x f(x_1) f(x_2) f(x)$\n" xml:space="preserve"><g stroke="#000" stroke-opacity=".62745"><g transform="matrix(1.2168,0,0,-1.2168,183.62,863.82)"><g transform="translate(7.2378,-59.353)"><g transform="matrix(1.2506,0,0,-1.2506,-72.165,1072.2)" fill-rule="evenodd" stroke="#000" stroke-miterlimit="10.433" ns0:preamble="default_packages.tex" ns0:text="$x$\n$y$\n" xml:space="preserve"><g transform="matrix(.79961 0 0 -.79961 58.988 860.59)"><g transform="matrix(1.2506,0,0,-1.2506,-72.165,1072.2)" fill-rule="evenodd" stroke="#000" stroke-miterlimit="10.433" ns0:preamble="default_packages.tex" ns0:text="$x$\n$y$\n" xml:space="preserve"><g transform="rotate(180,212.4,757.83)" fill-rule="evenodd" stroke="#000" stroke-miterlimit="10.433"><g transform="matrix(-.65714 0 0 -.65714 741.95 1102)" fill-rule="evenodd" stroke="#000" stroke-miterlimit="10.433" stroke-opacity="1" stroke-width="2.2826" ns0:preamble="default_packages.tex" ns0:text="$x_1 x_2 x f(x_1) f(x_2) f(x)$\n" xml:space="preserve"><g transform="matrix(1.0026,0,0,1.0026,37.987,78.78)" fill-rule="evenodd" stroke="#000" stroke-miterlimit="10.433" stroke-opacity="1" stroke-width="3.4151" ns0:preamble="default_packages.tex" ns0:text="$l(x)$\n" xml:space="preserve"><g transform="matrix(1.3845,0,0,1.3845,287.6,-440.77)" stroke-width="2.4667"><g stroke-width="2.4667"><g transform="matrix(-1.5178,0,0,1.5178,84.71,-324.6)" fill-rule="evenodd" stroke="#000" stroke-miterlimit="10.433" stroke-width=".69309"><g transform="matrix(.58057 0 0 .57986 -175.31 697.26)" fill-rule="evenodd" stroke="#000" stroke-miterlimit="10.433" stroke-opacity="1" stroke-width="1.1945"><g transform="matrix(1.2506,0,0,-1.2506,-72.165,1072.2)" fill-rule="evenodd" stroke="#000" stroke-miterlimit="10.433" stroke-width=".95517" ns0:preamble="default_packages.tex" ns0:text="$x$\n$y$\n" xml:space="preserve"><g fill="none" stroke="#000" stroke-miterlimit="10.433" stroke-opacity=".62745" stroke-width=".95517"><path d="m171.51 757.67c7.6897 25.267 22 51.109 37.039 51.316 12.208-0.15688 28.413-24.989 36.962-50.464" fill="none" stroke="#003c88" stroke-miterlimit="10.433" stroke-opacity=".58454" stroke-width=".81886"/></g></g></g></g></g></g></g></g></g></g></g></g></g></g></g></g></g></g></g><g transform="matrix(.65714 0 0 .65714 -163.7 81.594)" stroke-opacity="1" stroke-width="2.2826" ns0:preamble="default_packages.tex" ns0:text="$x_1 x_2 x f(x_1) f(x_2) f(x)$\n" xml:space="preserve"><g transform="matrix(1.0026,0,0,1.0026,37.987,78.78)" fill-rule="evenodd" stroke="#000" stroke-miterlimit="10.433" stroke-opacity="1" stroke-width="3.4151" ns0:preamble="default_packages.tex" ns0:text="$l(x)$\n" xml:space="preserve"><g transform="matrix(.71844 0 0 .71844 145.04 269.01)" stroke="#000" stroke-opacity="1" stroke-width="4.7534"><g transform="matrix(1.3845,0,0,1.3845,435.87,-196.36)" fill-rule="evenodd" stroke="#000" stroke-miterlimit="10.433" stroke-opacity="1" stroke-width="3.4334"><g transform="translate(11.481)" stroke-opacity="1" stroke-width="3.4334"><path transform="matrix(.32285 0 0 -.32285 -200.92 939.36)" d="m539.54 242.84c-18.459 55.715-41.211 110.6-74.126 159.46-16.694 24.186-36.078 47.61-61.531 62.95-15.629 9.2088-34.785 15.24-52.773 9.8204-20.86-6.3219-37.822-21.222-52.675-36.661-29.729-31.911-52.465-69.637-72.127-108.38-13.65-27.205-25.53-55.279-35.833-83.911-1.419-0.0437-0.25342 3.2726-0.64895 4.4756-0.37478 96.694-0.20693 210.39-0.28524 307.08 139.29-34.982 212.14 42.562 350.61 0.10818-0.0119-97.901-0.0231-216.95-0.034-314.85 0.0233-0.33301-0.50228-0.40999-0.584-0.0967z" fill="#f00" fill-opacity=".15686" stroke="none"/><g stroke-miterlimit="10.433"><g stroke="#000" stroke-opacity="1"><path d="m-148.42 764.63v131.64" fill-opacity=".49758" marker-end="url(#Arrow1Mend)" stroke="#000" stroke-miterlimit="10.433" stroke-opacity=".57488" stroke-width=".8365"/><path d="m-153.94 771.54h139.91" fill-opacity=".52174" marker-end="url(#f)" stroke="#000" stroke-miterlimit="10.433" stroke-opacity=".57488" stroke-width=".8365"/><g transform="matrix(.68111 0 0 .68112 -216.69 335.79)" fill-rule="evenodd" stroke-width="3.3606" ns0:preamble="default_packages.tex" ns0:text="$x$\n$y$\n$\\langle y \\rangle$\n$\\langle x \\rangle$\n$\\text{Point of averages}$\n$\\text{Regression line}$\n$\\text{SD line}$\n$\\rho(x,y)\\sigma_y$\n$\\sigma_x$\n" xml:space="preserve"><g transform="matrix(1.5,0,0,1.5,69.402,-429.08)" fill-rule="evenodd" stroke="#000" stroke-miterlimit="10.433" stroke-opacity="1" stroke-width="3.3606" ns0:preamble="default_packages.tex" ns0:text="$x f$\n" xml:space="preserve"><path transform="matrix(.316 0 0 -.316 -30.834 876.82)" d="m191.02 145.79c0.0105 29.622-0.0211 59.247 0.0158 88.867 17.997 53.431 42.021 104.99 72.76 152.31 16.783 25.233 35.608 49.728 59.614 68.529 10.507 7.8845 22.304 15.008 35.476 17.048 12.803 1.1464 25.723-1.785 37.079-7.7172 13.293-6.619 24.804-16.221 35.027-26.896 19.605-19.201 34.696-42.431 48.396-66.054 23.097-40.66 41.054-84.063 55.377-128.53 1.2813-4.9033 3.8933-9.5885 4.3473-14.628v-82.924c-89.036 18.795-207.72-24.766-347.79-0.29988z" fill="#005baa" fill-opacity=".15686" stroke="none"/><g stroke-width="0"><path d="m151.38 706.92 0.01 0.02 0.01 0.03v0.03l0.02 0.08 0.02 0.04 0.01 0.04 0.01 0.05 0.02 0.04 0.1 0.25 0.09 0.15 0.03 0.04 0.03 0.05 0.04 0.04 0.03 0.05 0.04 0.04 0.05 0.04 0.04 0.03 0.05 0.03 0.04 0.03 0.03 0.01 0.03 0.02 0.02 0.01 0.06 0.02h0.03l0.02 0.01 0.03 0.01h0.07l0.03 0.01h0.03c0.05 0 0.29 0 0.5-0.13-0.28-0.05-0.48-0.3-0.48-0.54 0-0.16 0.11-0.35 0.38-0.35 0.22 0 0.54 0.18 0.54 0.58 0 0.52-0.59 0.66-0.93 0.66-0.58 0-0.93-0.53-1.05-0.76-0.25 0.66-0.78 0.76-1.07 0.76-1.04 0-1.61-1.29-1.61-1.53 0-0.1 0.1-0.1 0.12-0.1 0.08 0 0.11 0.02 0.13 0.11 0.34 1.05 1 1.3 1.34 1.3 0.19 0 0.53-0.09 0.53-0.67 0-0.31-0.17-0.97-0.53-2.36-0.16-0.62-0.51-1.04-0.95-1.04-0.06 0-0.29 0-0.5 0.13 0.25 0.05 0.47 0.26 0.47 0.54 0 0.27-0.22 0.35-0.37 0.35-0.3 0-0.55-0.26-0.55-0.58 0-0.46 0.5-0.65 0.94-0.65 0.66 0 1.02 0.69 1.05 0.75 0.11-0.37 0.47-0.75 1.07-0.75 1.03 0 1.6 1.28 1.6 1.53 0 0.1-0.09 0.1-0.12 0.1-0.09 0-0.11-0.05-0.13-0.11-0.33-1.07-1.01-1.31-1.33-1.31-0.39 0-0.55 0.32-0.55 0.66 0 0.22 0.06 0.44 0.17 0.87z" fill-opacity=".78431"/><path d="m15.171 834.05h0.85c0.2 0 0.3 0 0.3 0.2 0 0.11-0.1 0.11-0.27 0.11h-0.82l0.21 1.13c0.04 0.21 0.17 0.91 0.23 1.03 0.09 0.19 0.26 0.34 0.47 0.34 0.04 0 0.3 0 0.49-0.18-0.44-0.04-0.54-0.39-0.54-0.53 0-0.23 0.18-0.35 0.37-0.35 0.26 0 0.55 0.22 0.55 0.59 0 0.46-0.46 0.69-0.87 0.69-0.34 0-0.97-0.18-1.26-1.16-0.06-0.21-0.09-0.31-0.33-1.56h-0.69c-0.19 0-0.3 0-0.3-0.19 0-0.12 0.09-0.12 0.28-0.12h0.66l-0.75-3.93c-0.18-0.96-0.35-1.86-0.87-1.86-0.04 0-0.29 0-0.48 0.18 0.46 0.03 0.55 0.38 0.55 0.53 0 0.23-0.18 0.35-0.37 0.35-0.26 0-0.55-0.22-0.55-0.6 0-0.44 0.44-0.68 0.85-0.68 0.55 0 0.95 0.58 1.13 0.96 0.32 0.63 0.55 1.83 0.56 1.9z" fill-opacity=".78431"/><g fill-opacity=".82353" fill-rule="evenodd" stroke-miterlimit="10.433" stroke-width="0"><path d="m338.41 826.87h1.1904c0.2801 0 0.42015 0 0.42015 0.2801 0 0.15404-0.14004 0.15404-0.37813 0.15404h-1.1484l0.29411 1.5825c0.056 0.2941 0.23808 1.2744 0.32211 1.4426 0.12605 0.26609 0.36414 0.47618 0.65824 0.47618 0.0561 0 0.42015 0 0.68625-0.25209-0.61622-0.0561-0.75628-0.54622-0.75628-0.74227 0-0.32212 0.25209-0.49017 0.51818-0.49017 0.36413 0 0.77027 0.3081 0.77027 0.82628 0 0.64423-0.64422 0.96635-1.2184 0.96635-0.47617 0-1.3584-0.25208-1.7646-1.6245-0.084-0.29411-0.12605-0.43417-0.46217-2.1848h-0.96635c-0.26609 0-0.42015 0-0.42015-0.26611 0-0.16805 0.12605-0.16805 0.39214-0.16805h0.92433l-1.0504-5.504c-0.25209-1.3445-0.49017-2.6049-1.2184-2.6049-0.056 0-0.40615 0-0.67225 0.25209 0.64422 0.0419 0.77027 0.53221 0.77027 0.74227 0 0.32212-0.25209 0.49019-0.51818 0.49019-0.36412 0-0.77028-0.30811-0.77028-0.84029 0-0.61623 0.61623-0.95236 1.1904-0.95236 0.77027 0 1.3305 0.8123 1.5825 1.3445 0.44816 0.88232 0.77027 2.5629 0.78428 2.661z"/><path d="m339.04 713.55h1.1904c0.28011 0 0.42016 0 0.42016 0.28009 0 0.15406-0.14005 0.15406-0.37814 0.15406h-1.1484l0.29411 1.5825c0.056 0.29411 0.23808 1.2744 0.32211 1.4426 0.12605 0.26608 0.36413 0.47617 0.65823 0.47617 0.0561 0 0.42016 0 0.68625-0.25209-0.61622-0.0561-0.75626-0.54621-0.75626-0.74227 0-0.32211 0.25209-0.49016 0.51817-0.49016 0.36414 0 0.77028 0.30809 0.77028 0.82627 0 0.64423-0.64423 0.96636-1.2184 0.96636-0.47617 0-1.3584-0.25208-1.7646-1.6245-0.084-0.29411-0.12605-0.43416-0.46216-2.1848h-0.96634c-0.2661 0-0.42015 0-0.42015-0.26611 0-0.16805 0.12604-0.16805 0.39213-0.16805h0.92433l-1.0504-5.504c-0.25209-1.3445-0.49018-2.6049-1.2185-2.6049-0.0561 0-0.40614 0-0.67225 0.25209 0.64425 0.0419 0.7703 0.5322 0.7703 0.74227 0 0.32211-0.2521 0.49019-0.5182 0.49019-0.36413 0-0.77027-0.30813-0.77027-0.8403 0-0.61624 0.61622-0.95236 1.1904-0.95236 0.77028 0 1.3305 0.8123 1.5825 1.3445 0.44816 0.88233 0.77028 2.5629 0.78428 2.661z"/></g></g></g></g></g><path d="m77.901 834.43h-46.582" fill="none" marker-start="url(#b)" stroke="#f00" stroke-opacity=".60386" stroke-width="1.4215"/><path d="m24.635 834.62h46.582" fill="none" marker-start="url(#a)" stroke="#f00" stroke-opacity=".60386" stroke-width="1.4215"/><g fill-rule="evenodd" stroke="#000"><path d="m219.63 861.15c-5.9594-17.987-13.305-35.706-23.931-51.482-5.3895-7.8084-11.648-15.371-19.865-20.323-5.0457-2.973-11.23-4.9203-17.037-3.1705-6.7345 2.041-12.211 6.8514-17.006 11.836-9.5979 10.302-16.938 22.482-23.286 34.991-4.4068 8.7832-8.2422 17.847-11.569 27.09-0.45812 0.0141-0.0818-1.0566-0.20951-1.4449-0.121-31.217 0.20096-67.79 0.17566-99.007 58.704 9.9109 65.579-16.601 112.39-1.106-4e-3 31.607 0.52852 70.979 0.52452 102.59 7e-3 0.10751-0.16216 0.13236-0.18854 0.0312z" fill="#f00" fill-opacity=".15686" stroke="#bf0000" stroke-opacity=".067633" stroke-width="1.2202"/><g transform="matrix(1.5,0,0,-1.5,-45.239,1154.6)" fill-opacity=".82353" stroke-opacity="1" stroke-width="0" ns0:preamble="default_packages.tex" ns0:text="epi f hyp f\n\n" xml:space="preserve"><path d="m134.43 177.82 8e-3 -0.17186c0.0491-1.2113 0.7366-1.4159 1.0149-1.4159 0.83482 0 0.91666 1.0967 0.91666 1.4159h-1.9315l-8e-3 0.17186h2.2753c0.18005 0 0.2046 0 0.2046-0.17186 0-0.80207-0.44197-1.5959-1.4569-1.5959-0.9494 0-1.7023 0.84299-1.7023 1.8578 0 1.0885 0.85936 1.8742 1.7924 1.8742 0.99849 0 1.3668-0.90028 1.3668-1.0558 0-0.0819-0.0655-0.0982-0.1064-0.0982-0.0736 0-0.09 0.0491-0.10639 0.11458-0.28645 0.843-1.0149 0.843-1.1049 0.843-0.40103 0-0.7284-0.24553-0.91665-0.54836-0.24553-0.39285-0.24553-0.92484-0.24553-1.2195z"/><path d="m138.54 176.64v-0.54017l-1.1703 0.09v0.25371c0.58109 0 0.63838 0.0491 0.63838 0.40923v3.8058c0 0.36012-0.09 0.36012-0.63838 0.36012v0.25372c0.27828-8e-3 0.70386-0.0245 0.91666-0.0245 0.21278 0 0.63019 0.0164 0.91665 0.0245v-0.25372c-0.54836 0-0.63839 0-0.63839-0.36012v-1.4405l0.11459-0.10636c-0.11459-0.17187-0.11459-0.18006-0.11459-0.34375v-1.8088c0.23735-0.41741 0.63839-0.65475 1.0558-0.65475 0.59746 0 1.0967 0.72023 1.0967 1.6369 0 0.98214-0.57292 1.6696-1.1785 1.6696-0.32738 0-0.63838-0.1637-0.85935-0.49926l-0.11459 0.10637c0.041 0.13095 0.38467 0.56472 1.0067 0.56472 0.97394 0 1.8251-0.79389 1.8251-1.8415 0-1.0312-0.79388-1.8415-1.7106-1.8415-0.63838 0-0.98212 0.36011-1.1458 0.54018z"/><path d="m143.12 176.1-1.1458 0.09v0.25372c0.53198 0 0.60564 0.0491 0.60564 0.45014v2.1852c0 0.3683-0.09 0.3683-0.63838 0.3683v0.24553c0.2619-8e-3 0.70386-0.0245 0.90028-0.0245 0.28646 0 0.57291 0.0163 0.85117 0.0245v-0.24553c-0.54017 0-0.57291-0.0409-0.57291-0.36011z"/><path d="m143.15 174.69v-0.049l-8e-3 -0.0245v-0.0245l-8e-3 -0.0163v-0.0245l-8e-3 -0.0245-0.0164-0.0327-0.0163-0.0245-0.0163-0.0327-0.0328-0.0327-8e-3 -0.0163-0.0163-0.0163-0.0163-8e-3 -0.0164-0.0163-0.0163-8e-3 -0.0164-0.0163-0.0328-0.0159-0.0245-8e-3 -0.0328-0.0159-0.0245-8e-3 -0.0163-8e-3h-0.0246l-0.0163-8e-3h-0.0655c-0.25373 0-0.43378 0.22098-0.43378 0.43377s0.18005 0.42559 0.43378 0.42559c0.22915 0 0.43377-0.17187 0.43377-0.42559z"/><path d="m133.7 256.27v0.0835l-8e-3 0.0303v0.0227l-8e-3 0.0227v0.0152l-8e-3 0.0227-8e-3 0.0152-8e-3 0.0151-0.0152 0.0304-0.0152 8e-3 -8e-3 0.0151-0.0455 0.0238-0.0228 8e-3 -0.0152 8e-3h-0.0228l-0.0228 8e-3h-0.0228l-0.0303 8e-3h-0.10619l-0.0227 8e-3h-0.20473v0.2275c0.26543-8e-3 0.65218-0.0227 0.85695-0.0227 0.19717 0 0.59152 0.0152 0.84936 0.0227v-0.2275c-0.50809 0-0.59152 0-0.59152-0.34127v-1.3878c0-0.78112 0.53844-1.2058 1.0162-1.2058s0.56118 0.4095 0.56118 0.83418v1.7594c0 0.34126-0.0834 0.34126-0.59152 0.34126v0.2275c0.26542-8e-3 0.65219-0.0227 0.85695-0.0227 0.19717 0 0.59152 0.0152 0.84937 0.0227v-0.2275c-0.39435 0-0.58393 0-0.59152-0.22752v-1.4408c0-0.6446 0-0.87969-0.23508-1.1527-0.10617-0.12893-0.35644-0.2806-0.79628-0.2806-0.63702 0-0.96313 0.45501-1.092 0.74319v-2.6391l-1.092 0.0835v0.23509c0.53084 0 0.59151 0.053 0.59151 0.41709z"/><path d="m139.99 254.3 0.0229-0.0681 0.0152-0.0152 8e-3 -0.0227 0.0152-0.0152 8e-3 -0.0227 8e-3 -0.0151 0.0455-0.0606 0.0303-0.0303 0.0228-0.0303 0.0455-0.0454 0.0303-0.0151 0.0228-0.0227 0.0303-0.0152 0.0455-0.0304 0.0303-0.0151 0.0455-0.0159 0.0303-8e-3 0.0683-0.0238h0.0228l0.0228-8e-3h0.0379l0.0228-8e-3h0.0683v-0.23509c-0.16684 0.0152-0.39435 0.0227-0.56119 0.0227-0.1365 0-0.49293-0.0152-0.65977-0.0227v0.23509c0.23509 8e-3 0.35643 0.1365 0.35643 0.32609 0 0.0758-8e-3 0.091-0.0455 0.18201l-0.76593 1.8504-0.84179-2.0248c-0.0303-0.0758-0.0455-0.10614-0.0455-0.1365 0-0.19717 0.28059-0.19717 0.42468-0.19717v-0.23509c-0.19717 8e-3 -0.69769 0.0227-0.82662 0.0227-0.19717 0-0.50052-8e-3 -0.72802-0.0227v0.23509c0.36401 0 0.5081 0 0.60668 0.26542l1.1375 2.7452c-0.038 0.0986-0.14409 0.34884-0.18959 0.44743-0.16684 0.4171-0.37918 0.93278-0.86453 0.93278-0.0303 0-0.20475 0-0.34885-0.13651 0.23509-0.0303 0.28819-0.18958 0.28819-0.31093 0-0.19717-0.13651-0.3185-0.31094-0.3185-0.15167 0-0.31852 0.0986-0.31852 0.3261 0 0.33367 0.31852 0.60667 0.69011 0.60667 0.47777 0 0.78868-0.43225 0.9707-0.85693z"/><path d="m142.14 254.01v-0.50052l-1.0845 0.0835v0.23509c0.53086 0 0.58394 0.0454 0.58394 0.37918v3.5264c0 0.33368-0.0834 0.33368-0.58394 0.33368v0.23509c0.25026-8e-3 0.6446-0.0227 0.84179-0.0227 0.20475 0 0.59151 0.0151 0.85695 0.0227v-0.23509c-0.50811 0-0.59152 0-0.59152-0.33368v-1.3347l0.10616-0.0987c-0.10616-0.15925-0.10616-0.16683-0.10616-0.3185v-1.676c0.21992-0.38677 0.59152-0.6067 0.97829-0.6067 0.55359 0 1.0086 0.66736 1.0086 1.5167 0 0.91002-0.52327 1.547-1.0844 1.547-0.30335 0-0.59152-0.15167-0.79627-0.46259l-0.10617 0.0986c0.038 0.12134 0.35643 0.52328 0.93279 0.52328 0.89486 0 1.6836-0.73562 1.6836-1.7063 0-0.95554-0.73561-1.7063-1.5774-1.7063-0.59152 0-0.91004 0.33367-1.0617 0.50051z"/></g><g transform="matrix(.68111 0 0 .68112 29.669 345.76)" stroke-opacity=".15686" stroke-width="1.7915" ns0:preamble="default_packages.tex" ns0:text="$x$\n$y$\n$\\langle y \\rangle$\n$\\langle x \\rangle$\n$\\text{Point of averages}$\n$\\text{Regression line}$\n$\\text{SD line}$\n$\\rho(x,y)\\sigma_y$\n$\\sigma_x$\n" xml:space="preserve"><g transform="matrix(1.5,0,0,1.5,69.402,-429.08)" fill-rule="evenodd" stroke="#000" stroke-miterlimit="10.433" stroke-opacity=".15686" stroke-width="1.1943" ns0:preamble="default_packages.tex" ns0:text="$x f$\n" xml:space="preserve"><path d="m29.526 841.6c0.0033-9.3604-0.0067-18.722 5e-3 -28.082 5.687-16.884 13.278-33.176 22.992-48.128 5.3033-7.9736 11.252-15.714 18.838-21.655 3.3203-2.4915 7.048-4.7425 11.21-5.3872 4.0457-0.36224 8.1283 0.56407 11.717 2.4386 4.2006 2.0916 7.8379 5.1257 11.068 8.499 6.195 6.0673 10.964 13.408 15.293 20.873 7.2988 12.848 12.973 26.564 17.499 40.615 0.4049 1.5494 1.2303 3.0299 1.3737 4.6224v26.204c-33.812-6.9949-65.572 7.9778-110 2e-4z" fill="#005baa" fill-opacity=".15686" stroke="#0045db" stroke-miterlimit="10.433" stroke-opacity=".066667" stroke-width="1.1943"/></g></g></g><g fill="none" stroke="#000" stroke-opacity=".4058" stroke-width="1.4215"><path d="m-30.644 849.94c9.9451 12.83 21.313 24.777 36.363 31.226" marker-start="url(#e)"/><path d="m213.93 832.55c9.9451 12.83 23.699 40.27 38.748 46.719" marker-start="url(#d)"/><path d="m191.58 864.43c14.036 8.1543 44.73 14.512 61.1 14.836" marker-start="url(#c)"/></g></g></g><g transform="matrix(1.2202,0,0,-1.2202,-305.84,1230.5)"/></g></g></g></g></g></g></g></g></g></g></g></g></g></g></g></g></g></g></g></g></g></g></g></g>
  </g>
 </g>
 <g transform="matrix(.68201 0 0 -.68201 -68.712 489.93)" fill-opacity=".78431" fill-rule="evenodd" stroke="#000" stroke-miterlimit="10.433" stroke-width="0" ns0:preamble="default_packages.tex" ns0:text="$$\\text{function graph}$$\n$$\\text{sets}$$\n" xml:space="preserve"><path d="m265.89 700.36v1.5626c0 1.1957 0.65221 1.8479 1.2501 1.8479 0.0407 0 0.24457 0 0.44838-0.0951-0.16304-0.0544-0.40763-0.23098-0.40763-0.57067 0-0.31251 0.21741-0.58426 0.58427-0.58426 0.39404 0 0.59785 0.27175 0.59785 0.59784 0 0.50274-0.50274 0.93755-1.2229 0.93755-0.95113 0-2.1061-0.70655-2.1061-2.1468v-1.549h-1.0598v-0.42122h1.0598v-4.3752c0-0.59785-0.14947-0.59785-1.0462-0.59785v-0.42121c0.52991 0.0136 1.1549 0.0407 1.5354 0.0407 0.5435 0 1.1821 0 1.7256-0.0407v0.42121h-0.28533c-1.0055 0-1.0326 0.14947-1.0326 0.63861v4.3344h1.549v0.42122z"/><path d="m272.95 695.61v-1.2229l1.9566 0.14947v0.42121c-0.95112 0-1.0598 0.0951-1.0598 0.74731v4.7964l-1.9974-0.14946v-0.42121c0.95112 0 1.0598-0.0951 1.0598-0.74731v-2.405c0-1.1685-0.65221-2.0925-1.6441-2.0925-1.1278 0-1.1821 0.63862-1.1821 1.3316v4.4839l-1.9974-0.14946v-0.42121c1.0598 0 1.0598-0.0408 1.0598-1.2365v-2.0245c0-1.0462 0-2.2827 2.0517-2.2827 0.7609 0 1.3588 0.38046 1.7528 1.2229z"/><path d="m276.66 699.19v-3.6279c0-0.59785-0.14946-0.59785-1.0462-0.59785v-0.42121c0.46198 0.0136 1.1549 0.0408 1.5218 0.0408 0.35327 0 1.0598-0.0272 1.5218-0.0408v0.42121c-0.91037 0-1.0598 0-1.0598 0.59785v2.4865c0 1.4131 0.96471 2.1604 1.8343 2.1604 0.85601 0 1.0055-0.72014 1.0055-1.4946v-3.1523c0-0.59785-0.14946-0.59785-1.0598-0.59785v-0.42121c0.47556 0.0136 1.1685 0.0408 1.5354 0.0408 0.33969 0 1.0462-0.0272 1.5082-0.0408v0.42121c-0.70656 0-1.0462 0-1.0598 0.40763v2.568c0 1.1685 0 1.5897-0.40763 2.0653-0.20381 0.23098-0.63861 0.50273-1.4267 0.50273-0.9919 0-1.6305-0.58426-2.011-1.4131v1.4131l-1.9022-0.14946v-0.42121c0.93754 0 1.0462-0.0951 1.0462-0.74731z"/><path d="m284.28 697.49v0.29889l0.0136 0.0951v0.0815l0.0135 0.0951 0.0136 0.0951 0.0135 0.0815v0.0815l0.0136 0.0815 0.0272 0.0815 0.0136 0.0815 0.0272 0.13587 0.0407 0.14947 0.0544 0.12228 0.0408 0.13588 0.0544 0.10868 0.0679 0.10868 0.0544 0.10869 0.0679 0.0951 0.0544 0.0815 0.0679 0.0815 0.1494 0.1494 0.0679 0.0544 0.0815 0.0544 0.0679 0.0544 0.0815 0.0544 0.0679 0.0407 0.163 0.0544 0.0679 0.0272 0.0815 0.0272 0.0815 0.0136 0.0679 0.0135 0.0679 0.0136h0.1358c0.12228 0 0.97829-0.0136 1.4538-0.50274-0.55709-0.0407-0.6386-0.43479-0.6386-0.61144 0-0.35327 0.24457-0.62502 0.62501-0.62502 0.35328 0 0.62503 0.23099 0.62503 0.63861 0 0.91037-1.0326 1.4403-2.0653 1.4403-1.6984 0-2.9485-1.4539-2.9485-3.1251 0-1.7392 1.3452-3.0708 2.9077-3.0708 1.8207 0 2.2555 1.6169 2.2555 1.7528 0 0.13587-0.13587 0.13587-0.17663 0.13587-0.1223 0-0.14947-0.0544-0.17664-0.13587-0.39404-1.25-1.2772-1.4131-1.78-1.4131-0.70655 0-1.9022 0.58427-1.9022 2.7583z"/><path d="m291.05 699.93h1.943v0.42121h-1.943v2.4865h-0.3261c-0.0272-1.1006-0.42121-2.5544-1.7528-2.6088v-0.29892h1.1549v-3.723c0-1.6577 1.25-1.8207 1.7392-1.8207 0.96471 0 1.3452 0.96472 1.3452 1.8207v0.77448h-0.33969v-0.74732c0-0.99188-0.40763-1.5082-0.91036-1.5082-0.91036 0-0.91036 1.2229-0.91036 1.4539z"/><path d="m296.38 700.51-1.9022-0.14946v-0.42121c0.88318 0 1.0055-0.0815 1.0055-0.73373v-3.6414c0-0.59785-0.14946-0.59785-1.0598-0.59785v-0.42121c0.4348 0.0136 1.1685 0.0408 1.4946 0.0408 0.47557 0 0.95113-0.0272 1.4131-0.0408v0.42121c-0.89677 0-0.95111 0.0679-0.95111 0.58426z"/><path d="m296.43 702.86v0.0815l-0.0136 0.0407v0.0272l-0.0135 0.0407-0.0136 0.0407v0.0272l-0.0135 0.0407-0.0272 0.0272-0.0135 0.0272-0.0136 0.0272-0.0135 0.0407-0.1223 0.1223-0.0272 0.0135-0.0272 0.0272-0.0272 0.0135-0.0272 0.0272-0.0272 0.0135-0.0407 0.0136-0.0272 0.0135-0.0272 0.0136h-0.0407l-0.0272 0.0135-0.0407 0.0135h-0.0679l-0.0272 0.0135h-0.0407c-0.42121 0-0.72013-0.36687-0.72013-0.72014 0-0.36686 0.29892-0.72014 0.72013-0.72014 0.38046 0 0.72013 0.28534 0.72013 0.72014z"/><path d="m304.12 697.43v0.14945l-0.0136 0.16306-0.0272 0.16305-0.0544 0.29892-0.0407 0.14946-0.0544 0.14947-0.0544 0.14945-0.0544 0.13588-0.0679 0.13587-0.0679 0.13588-0.163 0.24458-0.0951 0.12228-0.1902 0.21736-0.21737 0.21737-0.10868 0.0815-0.12229 0.0951-0.12228 0.0815-0.1223 0.0815-0.12228 0.0679-0.13588 0.0679-0.13587 0.0544-0.13588 0.0407-0.14946 0.0544-0.13588 0.0272-0.14945 0.0272-0.14947 0.0272-0.14946 0.0135h-0.16304l-0.0136-0.29892c0.59784 0 1.1821-0.29893 1.5354-0.8696 0.35327-0.58426 0.35327-1.3723 0.35327-1.8751 0-0.48914 0-1.2229-0.29891-1.8207-0.29893-0.59784-0.89678-0.99188-1.5762-0.99188-0.57068 0-1.1685 0.28534-1.5354 0.89678-0.33968 0.59784-0.33968 1.4267-0.33968 1.9158 0 0.51634 0 1.2501 0.32609 1.8479 0.36686 0.61144 1.0055 0.89678 1.5354 0.89678l0.0136 0.29892c-1.6849 0-3.0028-1.4674-3.0028-3.1523 0-1.7528 1.4131-3.0436 2.9892-3.0436 1.6441 0 3.0164 1.318 3.0164 3.0436z"/><path d="m306 699.19v-3.6279c0-0.59785-0.14946-0.59785-1.0598-0.59785v-0.42121c0.47556 0.0136 1.1685 0.0408 1.5354 0.0408 0.35328 0 1.0598-0.0272 1.5218-0.0408v0.42121c-0.91036 0-1.0598 0-1.0598 0.59785v2.4865c0 1.4131 0.96471 2.1604 1.8207 2.1604s1.0055-0.72014 1.0055-1.4946v-3.1523c0-0.59785-0.14947-0.59785-1.0598-0.59785v-0.42121c0.47556 0.0136 1.1685 0.0408 1.5354 0.0408 0.35328 0 1.0598-0.0272 1.5218-0.0408v0.42121c-0.70655 0-1.0462 0-1.0598 0.40763v2.568c0 1.1685 0 1.5897-0.42121 2.0653-0.19022 0.23098-0.63862 0.50273-1.4267 0.50273-0.9783 0-1.6169-0.58426-1.9974-1.4131v1.4131l-1.9158-0.14946v-0.42121c0.95112 0 1.0598-0.0951 1.0598-0.74731z"/><path d="m317.97 696.33v0.0812l0.0136 0.0136v0.0814l0.0135 0.0136v0.0407l0.0135 0.0272v0.0272l0.0136 0.0272v0.0136l0.0405 0.0816v0.0272l0.0136 0.0272 0.0135 0.0135 0.0136 0.0272 0.0272 0.0272 0.0136 0.0272 0.0135 0.0272 0.0272 0.0272 0.0135 0.0272c0.52992-0.38045 1.087-0.42122 1.3452-0.42122v0.31251c-1.1821 0-1.1821 1.3452-1.1821 1.6577 0 0.36686 0.0135 0.80166 0.2174 1.1278 0.10868 0.16305 0.42122 0.54349 0.96472 0.54349 1.1821 0 1.1821-1.3452 1.1821-1.6577 0-0.36687-0.0135-0.80166-0.2174-1.1278-0.10868-0.16304-0.42121-0.5435-0.9647-0.5435v-0.31251c1.2636 0 2.1876 0.93754 2.1876 1.9702 0 0.50274-0.2174 1.0055-0.5435 1.3044 0.48916 0.46197 0.96472 0.52991 1.2093 0.52991 0.0272 0 0.0951 0 0.13587-0.0136-0.14946-0.0544-0.2174-0.20381-0.2174-0.36686 0-0.23099 0.17664-0.38044 0.39405-0.38044 0.13587 0 0.39403 0.0951 0.39403 0.39403 0 0.23098-0.16305 0.66579-0.69296 0.66579-0.27175 0-0.85601-0.0815-1.4267-0.63862-0.57067 0.44839-1.1414 0.48915-1.4403 0.48915-1.2636 0-2.2012-0.92394-2.2012-1.9702 0-0.59785 0.29893-1.1006 0.63862-1.3859-0.17665-0.20381-0.42122-0.65221-0.42122-1.1278 0-0.40762 0.17663-0.92394 0.59785-1.1957-0.81525-0.23099-1.2365-0.81525-1.2365-1.3452 0-0.9783 1.3316-1.7256 2.9892-1.7256l0.0135 0.31252c-1.3723 0-2.3099 0.69297-2.3099 1.4131 0 0.61144 0.51632 1.1142 1.1142 1.1549h0.80166c1.1685 0 2.6767 0 2.6767-1.1549 0-0.73372-0.95113-1.4131-2.2827-1.4131l-0.0135-0.31252c1.6033 0 3.0028 0.69297 3.0028 1.7528 0 0.46198-0.19023 1.1549-0.88319 1.5354-0.70655 0.38045-1.4946 0.38045-2.3235 0.38045-0.33969 0-0.92394 0-1.0191 0.0136-0.43479 0.0407-0.72013 0.46198-0.72013 0.89677z"/><path d="m325.56 699.02v1.481l-1.8751-0.14946v-0.42121c0.93753 0 1.0462-0.0951 1.0462-0.74731v-3.6279c0-0.59785-0.14947-0.59785-1.0462-0.59785v-0.42121c0.52991 0.0136 1.1549 0.0408 1.5354 0.0408 0.5435 0 1.1821 0 1.7256-0.0408v0.42121h-0.28532c-1.0055 0-1.0326 0.14947-1.0326 0.63862v2.0653c0 1.3452 0.57066 2.5409 1.6033 2.5409 0.0951 0 0.12229 0 0.14947-0.0136-0.0407-0.0135-0.31252-0.17663-0.31252-0.51632 0-0.38045 0.28534-0.58426 0.58427-0.58426 0.24457 0 0.58426 0.16305 0.58426 0.59785 0 0.42121-0.42122 0.81524-1.0055 0.81524-0.99188 0-1.481-0.89676-1.6712-1.481z"/><path d="m333.12 695.56v-0.0407l0.0135-0.0544 0.0136-0.0544 0.0135-0.0407 0.0136-0.0544 0.0135-0.0544 0.0136-0.0407 0.0135-0.0544 0.0272-0.0544 0.0135-0.0407 0.0272-0.0407 0.0272-0.0544 0.0544-0.0814 0.0272-0.0408 0.0407-0.0407 0.0272-0.0407 0.0407-0.0407 0.0408-0.0272 0.0407-0.0407 0.0814-0.0544 0.0408-0.0272 0.0407-0.0272 0.0544-0.0135 0.0544-0.0272 0.0407-0.0135 0.0544-0.0136 0.1088-0.027h0.1223c0.28533 0 1.1006 0.19022 1.1006 1.2772v0.76089h-0.3261v-0.76089c0-0.77449-0.33969-0.85601-0.48915-0.85601-0.44838 0-0.50273 0.59784-0.50273 0.66578v2.7039c0 0.57067 0 1.1006-0.48915 1.5897-0.52991 0.52991-1.2093 0.74731-1.8615 0.74731-1.1006 0-2.0381-0.63862-2.0381-1.5218 0-0.40763 0.27175-0.63861 0.62501-0.63861 0.36687 0 0.61144 0.27175 0.61144 0.62503 0 0.16304-0.0544 0.59785-0.67938 0.62501 0.35328 0.46199 1.0191 0.61144 1.4539 0.61144 0.66578 0 1.4403-0.52991 1.4403-1.7256v-2.1332c0-1.2772-0.9783-1.7392-1.5897-1.7392-0.66578 0-1.2093 0.47557-1.2093 1.1414 0 0.74731 0.55709 1.8615 2.799 1.943v0.28533c-0.69296-0.0407-1.6441-0.0815-2.5001-0.47557-1.0055-0.46197-1.3452-1.1685-1.3452-1.7664 0-1.087 1.3044-1.4267 2.1604-1.4267 0.89676 0 1.5218 0.5435 1.78 1.1685z"/><path d="m337.71 699.62v0.88318l-1.9566-0.14946v-0.42121c0.96471 0 1.0598-0.0815 1.0598-0.66579v-6.3182c0-0.61144-0.14945-0.61144-1.0598-0.61144v-0.42121c0.46197 0.0136 1.1685 0.0407 1.5218 0.0407 0.36686 0 1.0462-0.0272 1.5218-0.0407v0.42121c-0.89678 0-1.0462 0-1.0462 0.61144v2.3914l0.19024 0.17664c-0.19024 0.27175-0.19024 0.28534-0.19024 0.55709v3.0164c0.39405 0.67937 1.0462 1.0734 1.7392 1.0734 0.99188 0 1.8207-1.1821 1.8207-2.7039 0-1.6441-0.95112-2.7718-1.9566-2.7718-0.5435 0-1.0598 0.27175-1.4131 0.82884l-0.19024-0.17664c0.0679-0.21739 0.62503-0.95113 1.6577-0.95113 1.6169 0 3.03 1.318 3.03 3.0708 0 1.712-1.318 3.0436-2.8398 3.0436-1.0598 0-1.6169-0.59784-1.8886-0.88318z"/><path d="m344.38 695.56v-0.1903l-0.0135-0.0408v-0.0407l-0.0135-0.0407-0.0136-0.0272v-0.0407l-0.0135-0.0272-0.0136-0.0272-0.0272-0.0135-0.0135-0.0272-0.0272-0.0135-0.0272-0.0136-0.0272-0.0272-0.0272-0.0135h-0.0272l-0.0407-0.0135-0.0407-0.0136h-0.0408l-0.0407-0.0135h-0.0951l-0.0272-0.0136h-0.5161v-0.4212c0.46198 0.0135 1.1549 0.0407 1.5218 0.0407 0.35327 0 1.0598-0.0272 1.5218-0.0407v0.4212c-0.91036 0-1.0598 0-1.0598 0.59785v2.4865c0 1.4131 0.96471 2.1604 1.8343 2.1604 0.85601 0 0.99188-0.72014 0.99188-1.4946v-3.1523c0-0.59785-0.13587-0.59785-1.0462-0.59785v-0.4212c0.47555 0.0135 1.1685 0.0407 1.5218 0.0407 0.35328 0 1.0598-0.0272 1.5218-0.0407v0.4212c-0.70654 0-1.0462 0-1.0598 0.40763v2.568c0 1.1685 0 1.5897-0.42121 2.0653-0.19022 0.23098-0.62502 0.50273-1.4131 0.50273-1.1413 0-1.7392-0.80166-1.9702-1.318v4.7148l-1.943-0.13587v-0.42121c0.93754 0 1.0462-0.0951 1.0462-0.7609z"/><path d="m599.07 689.5h0.0564l0.0846-0.0282 0.0565-0.0141h0.0423l0.0564-0.0141 0.0565-0.0141 0.0565-0.0282 0.0706-0.0141 0.0564-0.0282 0.0565-0.0141 0.0706-0.0282 0.0565-0.0282 0.0565-0.0423 0.0706-0.0282 0.0564-0.0423 0.0565-0.0282 0.0564-0.0423 0.0565-0.0565 0.0565-0.0423 0.0565-0.0565 0.0423-0.0564 0.0423-0.0565 0.0423-0.0706 0.0141-0.0282 0.0282-0.0282 0.0141-0.0423 0.0141-0.0282 0.0282-0.0846 0.0141-0.0282v-0.0423l0.0141-0.0423v-0.0423l0.0141-0.0423v-0.1411c0-0.71974-0.49395-1.2701-1.5806-1.2701-1.1855 0-1.6935 0.79031-1.9617 1.9899-0.0423 0.18346-0.0564 0.23991-0.19758 0.23991-0.18346 0-0.18346-0.0988-0.18346-0.35281v-1.8488c0-0.23992 0-0.3387 0.15524-0.3387 0.0706 0 0.0847 0.0141 0.35282 0.28225 0.0282 0.0282 0.0282 0.0564 0.28225 0.31048 0.62095-0.57862 1.256-0.59273 1.5524-0.59273 1.6088 0 2.258 0.93143 2.258 1.9475 0 0.73386-0.42338 1.1572-0.59273 1.3266-0.4516 0.45161-1.002 0.56451-1.5947 0.67741-0.79031 0.15524-1.7358 0.3387-1.7358 1.1431 0 0.49395 0.36693 1.0726 1.5806 1.0726 1.5524 0 1.6088-1.2701 1.6371-1.6935 0.0141-0.12702 0.14113-0.12702 0.16935-0.12702 0.18347 0 0.18347 0.0706 0.18347 0.33871v1.4113c0 0.23992 0 0.33871-0.15524 0.33871-0.0706 0-0.0988 0-0.26814-0.16936-0.0423-0.0564-0.18347-0.18346-0.25403-0.2258-0.52217 0.39516-1.1008 0.39516-1.3125 0.39516-1.7217 0-2.258-0.94555-2.258-1.7218 0-0.49394 0.2258-0.8891 0.60684-1.1996 0.45161-0.36693 0.84676-0.45161 1.8629-0.64919z"/><path d="m603.25 690.02 0.0141 0.29637c0.0847 2.0887 1.2701 2.4415 1.75 2.4415 1.4395 0 1.5806-1.8911 1.5806-2.4415h-3.3306l-0.0141-0.29637h3.9233c0.31047 0 0.35281 0 0.35281 0.29637 0 1.383-0.76208 2.752-2.512 2.752-1.6371 0-2.9354-1.4536-2.9354-3.2036 0-1.877 1.4818-3.2318 3.1048-3.2318 1.7076 0 2.3427 1.5524 2.3427 1.8205 0 0.14112-0.1129 0.16935-0.18346 0.16935-0.12702 0-0.15524-0.0847-0.18347-0.19758-0.49394-1.4395-1.75-1.4395-1.8911-1.4395-0.70563 0-1.2701 0.40927-1.5947 0.93144-0.42338 0.6774-0.42338 1.5947-0.42338 2.1028z"/><path d="m610.37 692.39h2.004v0.43749h-2.004v2.5826h-0.35282c-0.0141-1.1572-0.43749-2.6532-1.8205-2.7096v-0.31048h1.1996v-3.8669c0-1.7217 1.2984-1.8911 1.8064-1.8911 1.002 0 1.3972 0.98788 1.3972 1.8911v0.79031h-0.35282v-0.76208c0-1.0443-0.42338-1.5665-0.94555-1.5665-0.93143 0-0.93143 1.2701-0.93143 1.5101z"/><path d="m616.33 689.5h0.0705l0.0282-0.0141 0.0564-0.0141 0.0423-0.0141h0.0565l0.0423-0.0141 0.0565-0.0141 0.0565-0.0282 0.0706-0.0141 0.0565-0.0282 0.0564-0.0141 0.0706-0.0282 0.0565-0.0282 0.0706-0.0423 0.0565-0.0282 0.0564-0.0423 0.0565-0.0282 0.0706-0.0423 0.0423-0.0565 0.0565-0.0423 0.0565-0.0565 0.0423-0.0564 0.0423-0.0565 0.0423-0.0706 0.0282-0.0282 0.0141-0.0282 0.0141-0.0423 0.0141-0.0282 0.0282-0.0846 0.0141-0.0282v-0.0423l0.0282-0.0846v-0.1411l0.0141-0.0423c0-0.71974-0.49394-1.2701-1.5947-1.2701-1.1855 0-1.6935 0.79031-1.9617 1.9899-0.0423 0.18346-0.0564 0.23991-0.19757 0.23991-0.18347 0-0.18347-0.0988-0.18347-0.35281v-1.8488c0-0.23992 0-0.3387 0.15524-0.3387 0.0706 0 0.0847 0.0141 0.35282 0.28225 0.0282 0.0282 0.0282 0.0564 0.28225 0.31048 0.62096-0.57862 1.256-0.59273 1.5524-0.59273 1.6088 0 2.258 0.93143 2.258 1.9475 0 0.73386-0.40927 1.1572-0.57862 1.3266-0.46572 0.45161-1.0161 0.56451-1.6088 0.67741-0.79031 0.15524-1.7359 0.3387-1.7359 1.1431 0 0.49395 0.36693 1.0726 1.5806 1.0726 1.5524 0 1.623-1.2701 1.6371-1.6935 0.0282-0.12702 0.14112-0.12702 0.16935-0.12702 0.18346 0 0.18346 0.0706 0.18346 0.33871v1.4113c0 0.23992 0 0.33871-0.14113 0.33871-0.0847 0-0.1129 0-0.28225-0.16936-0.0423-0.0564-0.18346-0.18346-0.23991-0.2258-0.53628 0.39516-1.1149 0.39516-1.3266 0.39516-1.7218 0-2.258-0.94555-2.258-1.7218 0-0.49394 0.22581-0.8891 0.60685-1.1996 0.4516-0.36693 0.84676-0.45161 1.8629-0.64919z"/></g>
</svg>
