<?xml version="1.0" encoding="UTF-8"?>
<svg width="91.948mm" height="57.512mm" version="1.1" viewBox="0 0 46.914 29.997" xmlns="http://www.w3.org/2000/svg" xmlns:cc="http://creativecommons.org/ns#" xmlns:dc="http://purl.org/dc/elements/1.1/" xmlns:ns1="http://www.iki.fi/pav/software/textext/" xmlns:rdf="http://www.w3.org/1999/02/22-rdf-syntax-ns#">
 <metadata>
  <rdf:RDF>
   <cc:Work rdf:about="">
    <dc:format>image/svg+xml</dc:format>
    <dc:type rdf:resource="http://purl.org/dc/dcmitype/StillImage"/>
    <dc:title/>
   </cc:Work>
  </rdf:RDF>
 </metadata>
 <g transform="translate(-42.69 -45.071)">
  <g transform="matrix(.33054 0 0 .33054 42.218 58.779)" fill-opacity=".79546" ns1:alignment="middle center" ns1:jacobian_sqrt="0.849361" ns1:pdfconverter="inkscape" ns1:preamble="C:\\Users\\User\\AppData\\Roaming\\inkscape\\extensions\\textext\\default_packages.tex" ns1:scale="2.4076355951901767" ns1:texconverter="pdflatex" ns1:text="$$\\boldsymbol{J}$$" ns1:version="1.1.0">
   <g id="id-5236530c-89bf-4edd-bdd1-557a0ff23b8d" transform="translate(-302.54,-139.88)" fill-opacity=".79546">
    <g id="id-4155b2ca-d4ea-4d6f-8b83-d573c2c8386a" fill-opacity=".79546">
     <g transform="translate(301.98,146.72)" fill-opacity=".79546">
      <path d="m6-6.1875c0.046875-0.14062 0.046875-0.15625 0.125-0.15625 0.10938-0.03125 0.25-0.03125 0.375-0.03125 0.26562 0 0.42188 0 0.42188-0.28125 0-0.015625-0.015625-0.1875-0.21875-0.1875-0.1875 0-0.40625 0.03125-0.625 0.03125h-0.6875c-0.39062 0-1.3438-0.03125-1.7344-0.03125-0.125 0-0.29688 0-0.29688 0.29688 0 0.17188 0.15625 0.17188 0.34375 0.17188h0.34375c0.39062 0 0.40625 0 0.64062 0.03125l-1.2031 4.8438c-0.25 1.0156-0.875 1.3125-1.3281 1.3125-0.09375 0-0.51562-0.015625-0.82812-0.23438 0.54688-0.14062 0.71875-0.60938 0.71875-0.875 0-0.32812-0.26562-0.5625-0.59375-0.5625-0.40625 0-0.89062 0.3125-0.89062 0.9375 0 0.6875 0.6875 1.0938 1.6406 1.0938 1.1094 0 2.3281-0.46875 2.6094-1.625z" fill-opacity=".79546"/>
     </g>
    </g>
   </g>
  </g>
  <g transform="matrix(.84936 0 0 .84936 45.178 54.706)" ns1:alignment="middle center" ns1:jacobian_sqrt="0.849361" ns1:pdfconverter="inkscape" ns1:preamble="C:\\Users\\User\\AppData\\Roaming\\inkscape\\extensions\\textext\\default_packages.tex" ns1:scale="2.4076355951901767" ns1:texconverter="pdflatex" ns1:text="$$=()$$" ns1:version="1.1.0">
   <g transform="translate(-297.05,-139.24)">
    <rect transform="rotate(90)" x="155.28" y="-346.6" width="4.3389" height="38.603" fill-opacity=".07" fill-rule="evenodd" stroke-opacity=".68182" stroke-width=".43183"/>
    <g id="id-e4aa3d4a-15b1-449b-9af2-4b063a931abb" transform="matrix(.50743 0 0 .50743 147.44 71.954)" fill-opacity=".79546">
     <g transform="translate(298.03,147.23)" fill-opacity=".79546">
      <path d="m6.8438-3.2656c0.15625 0 0.34375 0 0.34375-0.1875 0-0.20312-0.1875-0.20312-0.32812-0.20312h-5.9688c-0.14062 0-0.32812 0-0.32812 0.20312 0 0.1875 0.1875 0.1875 0.32812 0.1875zm0.015625 1.9375c0.14062 0 0.32812 0 0.32812-0.20312 0-0.1875-0.1875-0.1875-0.34375-0.1875h-5.9531c-0.14062 0-0.32812 0-0.32812 0.1875 0 0.20312 0.1875 0.20312 0.32812 0.20312z" fill-opacity=".79546"/>
     </g>
    </g>
    <path d="m306.68 162.41c0-0.10801 0-0.16203-0.17539-0.7561-1.2596-4.3206-1.5944-10.855-1.5944-16.148 0-5.9949 0.38265-11.99 1.6422-16.256 0.12755-0.43206 0.12755-0.48605 0.12755-0.5941 0-0.27003-0.0319-0.37807-0.0957-0.37807-0.11161 0-1.0204 2.3763-1.6263 6.7508-0.5102 3.7807-0.63775 7.6149-0.63775 10.477 0 2.7004 0.11161 6.859 0.66964 10.801 0.62181 4.2127 1.4827 6.4809 1.5944 6.4809 0.0638 0 0.0957-0.10802 0.0957-0.37807z" fill-opacity=".7" stroke-width="1.878"/>
    <path d="m350.03 145.53c0-2.7081-0.11161-6.964-0.66964-10.998-0.60586-4.3111-1.4827-6.6322-1.5785-6.6322-0.0638 0-0.11161 0.16581-0.11161 0.38689 0 0.11055 0 0.16581 0.19133 0.82905 1.0045 3.4819 1.5784 9.064 1.5784 16.415 0 6.0797-0.36671 12.27-1.6263 16.691-0.14349 0.44215-0.14349 0.4974-0.14349 0.60796 0 0.22109 0.0478 0.38691 0.11161 0.38691 0.0957 0 1.0204-2.4318 1.6103-6.9085 0.52613-3.869 0.63775-7.7928 0.63775-10.777z" fill-opacity=".7" stroke-width="1.8998"/>
    <g>
     <rect transform="rotate(90)" x="138.99" y="-346.61" width="4.3389" height="38.551" fill-opacity=".07" fill-rule="evenodd" stroke-opacity=".68182" stroke-width=".43154"/>
     <g transform="matrix(.40979 0 0 .43175 230.91 29.792)" fill-opacity=".8">
      <g id="id-1d800493-a183-4650-80fc-942088364d3e" transform="translate(-68.816 139.65)">
       <g transform="translate(298.98,146.72)" fill-opacity=".8">
        <path d="m1.2275-9.5216c0-0.28125-0.23437-0.51562-0.51562-0.51562-0.29688 0-0.53125 0.23437-0.53125 0.51562 0 0.29688 0.23438 0.53125 0.53125 0.53125 0.28125 0 0.51562-0.23438 0.51562-0.53125z" fill-opacity=".8"/>
       </g>
      </g>
      <g transform="translate(-68.816 139.65)">
       <g transform="translate(303.41,146.72)" fill-opacity=".8">
        <path id="id-9a555ae2-f461-450c-9e1f-fc9f4688a8be" d="m1.2275-9.5216c0-0.28125-0.23437-0.51562-0.51562-0.51562-0.29688 0-0.53125 0.23437-0.53125 0.51562 0 0.29688 0.23438 0.53125 0.53125 0.53125 0.28125 0 0.51562-0.23438 0.51562-0.53125z" fill-opacity=".8"/>
       </g>
      </g>
      <g transform="translate(-68.816 139.65)">
       <g transform="translate(307.84,146.72)" fill-opacity=".8">
        <path id="id-3004f16a-d003-425b-b4c2-f8a7939d4c5b" d="m1.2275-9.5216c0-0.28125-0.23437-0.51562-0.51562-0.51562-0.29688 0-0.53125 0.23437-0.53125 0.51562 0 0.29688 0.23438 0.53125 0.53125 0.53125 0.28125 0 0.51562-0.23438 0.51562-0.53125z" fill-opacity=".8"/>
       </g>
      </g>
      <g id="id-4690c157-9fdc-4100-bbd3-041f8cdde58e" transform="matrix(.82441 0 0 .82441 -41.209 40.033)">
       <g transform="translate(289.64,164.65)" fill-opacity=".8">
        <path d="m44.934 73.155c0.01563-0.03125 0.04687-0.09375 0.04687-0.14062 0-0.0625-0.01563-0.07813-0.23438-0.07813h-6.8906c-0.21875 0-0.23438 0.01563-0.23438 0.07813 0 0.04687 0.03125 0.10938 0.04687 0.14062l3.3594 6.7344c0.07813 0.125 0.10938 0.1875 0.26562 0.1875 0.17188 0 0.20312-0.0625 0.28125-0.1875zm-6.0781 0.5h5.4688l-2.7188 5.4844z" fill-opacity=".8"/>
       </g>
      </g>
      <g transform="matrix(.82441 0 0 .82441 -41.209 40.033)">
       <g transform="translate(297.94,164.65)" fill-opacity=".8">
        <path id="id-13c534b8-6c55-44c5-a4bc-dacc2a1708fd" d="m40.809 75.764h0.85938c0.20312 0 0.29688 0 0.29688-0.20312 0-0.10938-0.09375-0.10938-0.26562-0.10938h-0.82812l0.20312-1.1406c0.04687-0.20312 0.1875-0.90625 0.25-1.0312 0.07813-0.1875 0.25-0.34375 0.46875-0.34375 0.03125 0 0.29688 0 0.48438 0.1875-0.4375 0.03125-0.54688 0.39062-0.54688 0.53125 0 0.23438 0.1875 0.35938 0.375 0.35938 0.26562 0 0.54688-0.23438 0.54688-0.60938 0-0.45312-0.45312-0.6875-0.85938-0.6875-0.34375 0-0.96875 0.1875-1.2656 1.1719-0.0625 0.20312-0.09375 0.3125-0.32812 1.5625h-0.6875c-0.20312 0-0.3125 0-0.3125 0.1875 0 0.125 0.09375 0.125 0.28125 0.125h0.65625l-0.73438 3.9375c-0.1875 0.96875-0.35938 1.875-0.875 1.875-0.04687 0-0.28125 0-0.48438-0.1875 0.46875-0.03125 0.5625-0.39062 0.5625-0.53125 0-0.23438-0.1875-0.35938-0.375-0.35938-0.26562 0-0.54688 0.23438-0.54688 0.60938 0 0.4375 0.4375 0.6875 0.84375 0.6875 0.54688 0 0.95312-0.59375 1.125-0.96875 0.32812-0.625 0.54688-1.8281 0.5625-1.9062z" fill-opacity=".8"/>
       </g>
      </g>
      <g transform="matrix(.82441 0 0 .82441 -41.209 40.033)">
       <g transform="translate(302.82,166.15)" fill-opacity=".8">
        <path id="id-cfb401be-c291-4e63-a41e-53436de5c86d" d="m39.481 75.311c0-0.1875 0-0.1875-0.20312-0.1875-0.45312 0.4375-1.0781 0.4375-1.3594 0.4375v0.25c0.15625 0 0.625 0 1-0.1875v3.5469c0 0.23438 0 0.32812-0.6875 0.32812h-0.26562v0.25c0.125 0 0.98438-0.03125 1.2344-0.03125 0.21875 0 1.0938 0.03125 1.25 0.03125v-0.25h-0.26562c-0.70312 0-0.70312-0.09375-0.70312-0.32812z" fill-opacity=".8"/>
       </g>
      </g>
      <g transform="matrix(.82441 0 0 .82441 -21.137 23.692)">
       <g transform="translate(289.64,182.59)" fill-opacity=".8">
        <path d="m20.984 98.004c0.01563-0.03125 0.04687-0.09375 0.04687-0.14062 0-0.0625-0.01563-0.07813-0.23438-0.07813h-6.8906c-0.21875 0-0.23438 0.01563-0.23438 0.07813 0 0.04687 0.03125 0.10938 0.04687 0.14062l3.3594 6.7344c0.07813 0.125 0.10938 0.1875 0.26562 0.1875 0.17188 0 0.20312-0.0625 0.28125-0.1875zm-6.0781 0.5h5.4688l-2.7188 5.4844z" fill-opacity=".8"/>
       </g>
      </g>
      <g transform="matrix(.82441 0 0 .82441 -21.137 23.692)">
       <g transform="translate(297.94,182.59)" fill-opacity=".8">
        <path d="m16.859 100.61h0.85938c0.20312 0 0.29688 0 0.29688-0.20312 0-0.10938-0.09375-0.10938-0.26562-0.10938h-0.82812l0.20312-1.1406c0.04687-0.20312 0.1875-0.90625 0.25-1.0312 0.07813-0.1875 0.25-0.34375 0.46875-0.34375 0.03125 0 0.29688 0 0.48438 0.1875-0.4375 0.03125-0.54688 0.39062-0.54688 0.53125 0 0.23438 0.1875 0.35938 0.375 0.35938 0.26562 0 0.54688-0.23438 0.54688-0.60938 0-0.45312-0.45312-0.6875-0.85938-0.6875-0.34375 0-0.96875 0.1875-1.2656 1.1719-0.0625 0.20312-0.09375 0.3125-0.32812 1.5625h-0.6875c-0.20312 0-0.3125 0-0.3125 0.1875 0 0.125 0.09375 0.125 0.28125 0.125h0.65625l-0.73438 3.9375c-0.1875 0.96875-0.35938 1.875-0.875 1.875-0.04687 0-0.28125 0-0.48438-0.1875 0.46875-0.0312 0.5625-0.39062 0.5625-0.53125 0-0.23438-0.1875-0.35938-0.375-0.35938-0.26562 0-0.54688 0.23438-0.54688 0.60938 0 0.4375 0.4375 0.6875 0.84375 0.6875 0.54688 0 0.95312-0.59375 1.125-0.96875 0.32812-0.625 0.54688-1.8281 0.5625-1.9062z" fill-opacity=".8"/>
       </g>
      </g>
      <g transform="matrix(.82441 0 0 .82441 -21.137 23.692)">
       <g transform="translate(302.82,184.08)" fill-opacity=".8">
        <path d="m16.718 103.33h-0.23438c-0.01563 0.15625-0.09375 0.5625-0.1875 0.625-0.04687 0.0469-0.57812 0.0469-0.6875 0.0469h-1.2812c0.73438-0.64062 0.98438-0.84375 1.3906-1.1719 0.51562-0.40625 1-0.84375 1-1.5 0-0.84375-0.73438-1.3594-1.625-1.3594-0.85938 0-1.4531 0.60938-1.4531 1.25 0 0.34375 0.29688 0.39062 0.375 0.39062 0.15625 0 0.35938-0.125 0.35938-0.375 0-0.125-0.04687-0.375-0.40625-0.375 0.21875-0.48438 0.6875-0.64062 1.0156-0.64062 0.70312 0 1.0625 0.54688 1.0625 1.1094 0 0.60938-0.4375 1.0781-0.65625 1.3281l-1.6719 1.6719c-0.07813 0.0625-0.07813 0.0781-0.07813 0.26562h2.875z" fill-opacity=".8"/>
       </g>
      </g>
      <g transform="matrix(.82441 0 0 .82441 -9.8937 133.16)">
       <g transform="translate(289.16,200.52)" fill-opacity=".8">
        <path id="id-dde3fc8a-2832-4d0e-88d9-4ffede3d4d1e" d="m7.7812-6.5938c0.015625-0.03125 0.046875-0.09375 0.046875-0.14062 0-0.0625-0.015625-0.078125-0.23438-0.078125h-6.8906c-0.21875 0-0.23438 0.015625-0.23438 0.078125 0 0.046875 0.03125 0.10938 0.046875 0.14062l3.3594 6.7344c0.078125 0.125 0.10938 0.1875 0.26562 0.1875 0.17188 0 0.20312-0.0625 0.28125-0.1875zm-6.0781 0.5h5.4688l-2.7188 5.4844z" fill-opacity=".8"/>
       </g>
      </g>
      <g id="id-371f3981-5e42-49c5-bdf6-d437bf8997fe" transform="matrix(.82441 0 0 .82441 -9.8937 133.16)">
       <g transform="translate(297.47,200.52)" fill-opacity=".8">
        <path id="id-8b50c554-cacb-4975-82ad-4bb402478f3d" d="m3.6562-3.9844h0.85938c0.20312 0 0.29688 0 0.29688-0.20312 0-0.10938-0.09375-0.10938-0.26562-0.10938h-0.82812l0.20312-1.1406c0.046875-0.20312 0.1875-0.90625 0.25-1.0312 0.078125-0.1875 0.25-0.34375 0.46875-0.34375 0.03125 0 0.29688 0 0.48438 0.1875-0.4375 0.03125-0.54688 0.39062-0.54688 0.53125 0 0.23438 0.1875 0.35938 0.375 0.35938 0.26562 0 0.54688-0.23438 0.54688-0.60938 0-0.45312-0.45312-0.6875-0.85938-0.6875-0.34375 0-0.96875 0.1875-1.2656 1.1719-0.0625 0.20312-0.09375 0.3125-0.32812 1.5625h-0.6875c-0.20312 0-0.3125 0-0.3125 0.1875 0 0.125 0.09375 0.125 0.28125 0.125h0.65625l-0.73438 3.9375c-0.1875 0.96875-0.35938 1.875-0.875 1.875-0.046875 0-0.28125 0-0.48438-0.1875 0.46875-0.03125 0.5625-0.39062 0.5625-0.53125 0-0.23438-0.1875-0.35938-0.375-0.35938-0.26562 0-0.54688 0.23438-0.54688 0.60938 0 0.4375 0.4375 0.6875 0.84375 0.6875 0.54688 0 0.95312-0.59375 1.125-0.96875 0.32812-0.625 0.54688-1.8281 0.5625-1.9062z" fill-opacity=".8"/>
       </g>
      </g>
      <g transform="matrix(.82441 0 0 .82441 -9.8937 133.16)">
       <g transform="translate(302.34,202.01)" fill-opacity=".8">
        <path d="m0.84375-0.4375c-0.015625 0.09375-0.0625 0.26562-0.0625 0.28125 0 0.15625 0.125 0.21875 0.23438 0.21875 0.125 0 0.23438-0.078125 0.28125-0.14062 0.03125-0.0625 0.078125-0.29688 0.125-0.4375 0.03125-0.125 0.10938-0.45312 0.14062-0.625 0.046875-0.15625 0.09375-0.3125 0.125-0.46875 0.078125-0.28125 0.09375-0.34375 0.29688-0.625 0.1875-0.28125 0.51562-0.64062 1.0469-0.64062 0.39062 0 0.40625 0.35938 0.40625 0.48438 0 0.42188-0.29688 1.1875-0.40625 1.4844-0.078125 0.20312-0.10938 0.26562-0.10938 0.375 0 0.375 0.29688 0.59375 0.65625 0.59375 0.70312 0 1-0.95312 1-1.0625 0-0.09375-0.078125-0.09375-0.10938-0.09375-0.09375 0-0.09375 0.046875-0.125 0.125-0.15625 0.5625-0.46875 0.84375-0.73438 0.84375-0.15625 0-0.1875-0.09375-0.1875-0.25s0.046875-0.25 0.17188-0.5625c0.078125-0.21875 0.35938-0.95312 0.35938-1.3438 0-0.67188-0.53125-0.79688-0.90625-0.79688-0.57812 0-0.96875 0.35938-1.1719 0.64062-0.046875-0.48438-0.45312-0.64062-0.75-0.64062s-0.45312 0.21875-0.54688 0.375c-0.15625 0.26562-0.25 0.65625-0.25 0.70312 0 0.078125 0.09375 0.078125 0.125 0.078125 0.09375 0 0.09375-0.015625 0.14062-0.20312 0.10938-0.40625 0.25-0.75 0.51562-0.75 0.1875 0 0.23438 0.15625 0.23438 0.34375 0 0.125-0.0625 0.39062-0.125 0.57812-0.046875 0.1875-0.10938 0.46875-0.14062 0.625z" fill-opacity=".8"/>
       </g>
      </g>
     </g>
     <rect transform="rotate(90)" x="130.68" y="-346.7" width="4.3389" height="38.687" fill-opacity=".07" fill-rule="evenodd" stroke-opacity=".68182" stroke-width=".4323"/>
     <rect transform="rotate(90)" x="147.26" y="-346.57" width="4.3389" height="38.535" fill-opacity=".07" fill-rule="evenodd" stroke-opacity=".68182" stroke-width=".43146"/>
    </g>
    <g transform="translate(.18206 -1.7295)" fill="none" stroke="#000" stroke-opacity=".1" stroke-width=".312">
     <g fill="#000" fill-opacity=".24621" stroke="#000" stroke-opacity=".2" stroke-width=".21122">
      <path d="m308.9 134.68h12.781"/>
      <path d="m331.96 134.71h12.963"/>
      <path d="m309.01 142.89h12.781"/>
      <path d="m332.06 142.92h12.963"/>
      <path d="m309.4 159.14h12.781"/>
      <path d="m332.46 159.17h12.963"/>
     </g>
     <g transform="matrix(3.2102 0 0 3.2102 368.68 94.437)" ns1:alignment="middle center" ns1:jacobian_sqrt="3.21017" ns1:pdfconverter="inkscape" ns1:preamble="C:\\Users\\User\\AppData\\Roaming\\inkscape\\extensions\\textext\\default_packages.tex" ns1:scale="2.4076355951901767" ns1:texconverter="pdflatex" ns1:text="$$x^{\\top}$$" ns1:version="1.1.0">
      <defs id="id-7ed59b4b-6669-4b90-bac3-dae2194a9c5b"></defs>
      <g transform="translate(-299.71 -137.76)" fill="#000" fill-opacity=".77273">
       <g transform="matrix(.12288 0 0 .12288 249.88 132.57)">
        <g transform="translate(305.11 142.61)" fill="#000" fill-opacity=".77273">
         <path d="m3.2812-4.5h2.125c0.10938 0 0.28125 0 0.28125-0.15625 0-0.1875-0.15625-0.1875-0.28125-0.1875h-4.5938c-0.10938 0-0.28125 0-0.28125 0.17188s0.17188 0.17188 0.28125 0.17188h2.125v4.2344c0 0.10938 0 0.26562 0.17188 0.26562s0.17188-0.17188 0.17188-0.26562z" fill="#000" fill-opacity=".77273" stroke="none"/>
        </g>
       </g>
       <g transform="matrix(.12288 0 0 .12288 249.9 135.17)">
        <g transform="translate(305.11 142.61)" fill="#000" fill-opacity=".77273">
         <path d="m3.2812-4.5h2.125c0.10938 0 0.28125 0 0.28125-0.15625 0-0.1875-0.15625-0.1875-0.28125-0.1875h-4.5938c-0.10938 0-0.28125 0-0.28125 0.17188s0.17188 0.17188 0.28125 0.17188h2.125v4.2344c0 0.10938 0 0.26562 0.17188 0.26562s0.17188-0.17188 0.17188-0.26562z" fill="#000" fill-opacity=".77273" stroke="none"/>
        </g>
       </g>
       <g transform="matrix(.12288 0 0 .12288 250.01 140.22)">
        <g transform="translate(305.11 142.61)" fill="#000" fill-opacity=".77273">
         <path d="m3.2812-4.5h2.125c0.10938 0 0.28125 0 0.28125-0.15625 0-0.1875-0.15625-0.1875-0.28125-0.1875h-4.5938c-0.10938 0-0.28125 0-0.28125 0.17188s0.17188 0.17188 0.28125 0.17188h2.125v4.2344c0 0.10938 0 0.26562 0.17188 0.26562s0.17188-0.17188 0.17188-0.26562z" fill="#000" fill-opacity=".77273" stroke="none"/>
        </g>
       </g>
      </g>
     </g>
    </g>
   </g>
  </g>
 </g>
</svg>
