<svg width="260mm" height="110mm" version="1.1" viewBox="0 0 424.1 180.28" xmlns="http://www.w3.org/2000/svg" xmlns:ns0="http://www.iki.fi/pav/software/textext/">
 <defs>
  <marker id="g" overflow="visible" orient="auto">
   <path transform="matrix(-.4 0 0 -.4 -4 0)" d="m0 0 5-5-17.5 5 17.5 5z" fill-rule="evenodd" stroke="#000" stroke-width="1pt"/>
  </marker>
  <marker id="c" overflow="visible" orient="auto">
   <path transform="matrix(-.4 0 0 -.4 -4 0)" d="m0 0 5-5-17.5 5 17.5 5z" fill-rule="evenodd" stroke="#000" stroke-width="1pt"/>
  </marker>
  <marker id="h" overflow="visible" orient="auto">
   <path transform="matrix(-.4 0 0 -.4 -4 0)" d="m0 0 5-5-17.5 5 17.5 5z" fill-rule="evenodd" stroke="#000" stroke-width="1pt"/>
  </marker>
  <marker id="e" overflow="visible" orient="auto">
   <path transform="matrix(-.4 0 0 -.4 -4 0)" d="m0 0 5-5-17.5 5 17.5 5z" fill-rule="evenodd" stroke="#000" stroke-width="1pt"/>
  </marker>
  <marker id="i" overflow="visible" orient="auto">
   <path transform="matrix(-.4 0 0 -.4 -4 0)" d="m0 0 5-5-17.5 5 17.5 5z" fill-rule="evenodd" stroke="#000" stroke-width="1pt"/>
  </marker>
  <marker id="d" overflow="visible" orient="auto">
   <path transform="matrix(-.4 0 0 -.4 -4 0)" d="m0 0 5-5-17.5 5 17.5 5z" fill-rule="evenodd" stroke="#000" stroke-width="1pt"/>
  </marker>
  <marker id="b" overflow="visible" orient="auto">
   <path transform="matrix(.2 0 0 .2 1.48 .2)" d="m-2.5-1c0 2.76-2.24 5-5 5s-5-2.24-5-5 2.24-5 5-5 5 2.24 5 5z" fill="#f00" fill-opacity=".31373" fill-rule="evenodd" stroke="#f00" stroke-opacity=".31373" stroke-width="1pt"/>
  </marker>
  <marker id="a" overflow="visible" orient="auto">
   <path transform="matrix(.2 0 0 .2 1.48 .2)" d="m-2.5-1c0 2.76-2.24 5-5 5s-5-2.24-5-5 2.24-5 5-5 5 2.24 5 5z" fill="#f00" fill-opacity=".31373" fill-rule="evenodd" stroke="#f00" stroke-opacity=".31373" stroke-width="1pt"/>
  </marker>
  <marker id="f" overflow="visible" orient="auto">
   <path transform="matrix(-.4 0 0 -.4 -4 0)" d="m0 0 5-5-17.5 5 17.5 5z" fill-rule="evenodd" stroke="#000" stroke-width="1pt"/>
  </marker>
 </defs>
 <g transform="translate(6.1615 33.654)">
  <g transform="translate(7.2378 -59.353)">
   <g transform="matrix(1.2506,0,0,-1.2506,-72.165,1072.2)" fill-rule="evenodd" stroke="#000" stroke-miterlimit="10.433" ns0:preamble="default_packages.tex" ns0:text="$x$\n$y$\n" xml:space="preserve"><g transform="matrix(.79961 0 0 -.79961 58.988 860.59)"><g transform="matrix(1.2506,0,0,-1.2506,-72.165,1072.2)" fill-rule="evenodd" stroke="#000" stroke-miterlimit="10.433" ns0:preamble="default_packages.tex" ns0:text="$x$\n$y$\n" xml:space="preserve"><g transform="rotate(180 212.4 757.83)" fill-rule="evenodd" stroke="#000" stroke-miterlimit="10.433" stroke-opacity=".62745"><g transform="matrix(.79961 0 0 -.79961 -41.225 831.43)" stroke="#000" stroke-opacity=".62745" stroke-width=".7"><g transform="matrix(1.2506,0,0,-1.2506,-72.165,1072.2)" fill-rule="evenodd" stroke="#000" stroke-miterlimit="10.433" stroke-opacity=".62745" stroke-width=".55973" ns0:preamble="default_packages.tex" ns0:text="$x$\n$y$\n" xml:space="preserve"><g transform="matrix(-.65715 0 0 -.65715 540.07 1459.9)" fill-rule="evenodd" stroke="#000" stroke-miterlimit="10.433" stroke-opacity=".62745" stroke-width="2.2826" ns0:preamble="default_packages.tex" ns0:text="$x_1 x_2 x f(x_1) f(x_2) f(x)$\n" xml:space="preserve"><g stroke="#000" stroke-opacity=".62745"><g transform="matrix(1.2168 0 0 -1.2168 183.62 863.82)"><g transform="translate(7.2378 -59.353)"><g transform="matrix(1.2506,0,0,-1.2506,-72.165,1072.2)" fill-rule="evenodd" stroke="#000" stroke-miterlimit="10.433" ns0:preamble="default_packages.tex" ns0:text="$x$\n$y$\n" xml:space="preserve"><g transform="matrix(.79961 0 0 -.79961 58.988 860.59)"><g transform="matrix(1.2506,0,0,-1.2506,-72.165,1072.2)" fill-rule="evenodd" stroke="#000" stroke-miterlimit="10.433" ns0:preamble="default_packages.tex" ns0:text="$x$\n$y$\n" xml:space="preserve"><g transform="rotate(180 212.4 757.83)" fill-rule="evenodd" stroke="#000" stroke-miterlimit="10.433"><g transform="matrix(.79961 0 0 -.79961 -41.225 831.43)" stroke-width=".7"><g transform="matrix(-1 0 0 -1 578.27 350.25)"><g transform="translate(7.2378 -59.353)"><g transform="matrix(1.2506,0,0,-1.2506,-72.165,1072.2)" fill-rule="evenodd" stroke="#000" stroke-miterlimit="10.433" ns0:preamble="default_packages.tex" ns0:text="$x$\n$y$\n" xml:space="preserve"><g transform="matrix(.79961 0 0 -.79961 58.988 860.59)"><g transform="matrix(1.2506,0,0,-1.2506,-72.165,1072.2)" fill-rule="evenodd" stroke="#000" stroke-miterlimit="10.433" ns0:preamble="default_packages.tex" ns0:text="$x$\n$y$\n" xml:space="preserve"><g transform="rotate(180 212.4 757.83)" stroke-opacity=".62745"><g transform="matrix(.79961 0 0 -.79961 -41.225 831.43)" stroke="#000" stroke-opacity=".62745" stroke-width=".7"><g transform="matrix(1.2506,0,0,-1.2506,-72.165,1072.2)" fill-rule="evenodd" stroke="#000" stroke-miterlimit="10.433" stroke-opacity=".62745" stroke-width=".55973" ns0:preamble="default_packages.tex" ns0:text="$x$\n$y$\n" xml:space="preserve"><g transform="matrix(-.65715 0 0 -.65715 540.07 1459.9)" fill-rule="evenodd" stroke="#000" stroke-miterlimit="10.433" stroke-opacity=".62745" stroke-width="2.2826" ns0:preamble="default_packages.tex" ns0:text="$x_1 x_2 x f(x_1) f(x_2) f(x)$\n" xml:space="preserve"><g stroke="#000" stroke-opacity=".62745"><g transform="matrix(1.0207 0 0 1.0207 433.82 188.96)" fill-opacity=".78431" fill-rule="evenodd" stroke="#000" stroke-miterlimit="10.433" stroke-opacity=".78431" stroke-width="3.3545"><g fill-opacity=".78431" fill-rule="evenodd" stroke="#000" stroke-miterlimit="10.433"><path d="m-148.42 764.63v111.81" marker-end="url(#g)" stroke-opacity=".62745" stroke-width=".35764"/><path d="m-154.86 772.2h139.91" marker-end="url(#c)" stroke-opacity=".62745" stroke-width=".35764"/><g transform="matrix(.68111 0 0 .68112 -216.69 335.79)" stroke-opacity=".78431" stroke-width="3.2834" ns0:preamble="default_packages.tex" ns0:text="$x$\n$y$\n$\\langle y \\rangle$\n$\\langle x \\rangle$\n$\\text{Point of averages}$\n$\\text{Regression line}$\n$\\text{SD line}$\n$\\rho(x,y)\\sigma_y$\n$\\sigma_x$\n" xml:space="preserve"><g transform="matrix(1.5 0 0 1.5 69.402 -429.08)" fill-opacity=".62745" fill-rule="evenodd" stroke="#000" stroke-miterlimit="10.433" stroke-opacity=".78431" stroke-width="0" ns0:preamble="default_packages.tex" ns0:text="$x f$\n" xml:space="preserve"><path d="m150.06 709.38 0.01 0.02 0.01 0.03v0.03l0.02 0.08 0.02 0.04 0.01 0.04 0.01 0.05 0.02 0.04 0.1 0.25 0.09 0.15 0.03 0.04 0.03 0.05 0.04 0.04 0.03 0.05 0.04 0.04 0.05 0.04 0.04 0.03 0.05 0.03 0.04 0.03 0.03 0.01 0.03 0.02 0.02 0.01 0.06 0.02h0.03l0.02 0.01 0.03 0.01h0.07l0.03 0.01h0.03c0.05 0 0.29 0 0.5-0.13-0.28-0.05-0.48-0.3-0.48-0.54 0-0.16 0.11-0.35 0.38-0.35 0.22 0 0.54 0.18 0.54 0.58 0 0.52-0.59 0.66-0.93 0.66-0.58 0-0.93-0.53-1.05-0.76-0.25 0.66-0.78 0.76-1.07 0.76-1.04 0-1.61-1.29-1.61-1.53 0-0.1 0.1-0.1 0.12-0.1 0.08 0 0.11 0.02 0.13 0.11 0.34 1.05 1 1.3 1.34 1.3 0.19 0 0.53-0.09 0.53-0.67 0-0.31-0.17-0.97-0.53-2.36-0.16-0.62-0.51-1.04-0.95-1.04-0.06 0-0.29 0-0.5 0.13 0.25 0.05 0.47 0.26 0.47 0.54 0 0.27-0.22 0.35-0.37 0.35-0.3 0-0.55-0.26-0.55-0.58 0-0.46 0.5-0.65 0.94-0.65 0.66 0 1.02 0.69 1.05 0.75 0.11-0.37 0.47-0.75 1.07-0.75 1.03 0 1.6 1.28 1.6 1.53 0 0.1-0.09 0.1-0.12 0.1-0.09 0-0.11-0.05-0.13-0.11-0.33-1.07-1.01-1.31-1.33-1.31-0.39 0-0.55 0.32-0.55 0.66 0 0.22 0.06 0.44 0.17 0.87z"/><path d="m17.293 815.97h0.85c0.2 0 0.3 0 0.3 0.2 0 0.11-0.1 0.11-0.27 0.11h-0.82l0.21 1.13c0.04 0.21 0.17 0.91 0.23 1.03 0.09 0.19 0.26 0.34 0.47 0.34 0.04 0 0.3 0 0.49-0.18-0.44-0.04-0.54-0.39-0.54-0.53 0-0.23 0.18-0.35 0.37-0.35 0.26 0 0.55 0.22 0.55 0.59 0 0.46-0.46 0.69-0.87 0.69-0.34 0-0.97-0.18-1.26-1.16-0.06-0.21-0.09-0.31-0.33-1.56h-0.69c-0.19 0-0.3 0-0.3-0.19 0-0.12 0.09-0.12 0.28-0.12h0.66l-0.75-3.93c-0.18-0.96-0.35-1.86-0.87-1.86-0.04 0-0.29 0-0.48 0.18 0.46 0.03 0.55 0.38 0.55 0.53 0 0.23-0.18 0.35-0.37 0.35-0.26 0-0.55-0.22-0.55-0.6 0-0.44 0.44-0.68 0.85-0.68 0.55 0 0.95 0.58 1.13 0.96 0.32 0.63 0.55 1.83 0.56 1.9z"/></g></g></g></g><g transform="matrix(.98166 0 0 .98166 131.76 410.2)" fill-opacity=".39216" fill-rule="evenodd" stroke="#000" stroke-miterlimit="10.433" stroke-opacity=".31373" stroke-width="0" ns0:preamble="default_packages.tex" ns0:text="$\\text{Convex}$\n" xml:space="preserve"><path d="m149.27 710.52v-0.19l0.02-0.19 0.02-0.18 0.03-0.18 0.04-0.18 0.05-0.18 0.06-0.16 0.06-0.17 0.07-0.16 0.08-0.16 0.18-0.3 0.1-0.14 0.1-0.13 0.11-0.13 0.12-0.13 0.12-0.12 0.13-0.11 0.13-0.1 0.14-0.1 0.28-0.18 0.15-0.08 0.16-0.07 0.15-0.06 0.16-0.06 0.16-0.04 0.17-0.04 0.34-0.06 0.17-0.01h0.17c1.63 0 2.6 1.38 2.6 2.53 0 0.1 0 0.17-0.13 0.17-0.11 0-0.11-0.06-0.12-0.16-0.08-1.42-1.14-2.24-2.23-2.24-0.61 0-2.56 0.34-2.56 3.3 0 2.97 1.94 3.31 2.55 3.31 1.09 0 1.97-0.9 2.17-2.35 0.02-0.14 0.02-0.17 0.16-0.17 0.16 0 0.16 0.03 0.16 0.24v2.35c0 0.17 0 0.24-0.11 0.24-0.04 0-0.08 0-0.16-0.12l-0.49-0.74c-0.37 0.36-0.88 0.86-1.84 0.86-1.86 0-3.47-1.58-3.47-3.61z"/><path d="m160.6 709.25v0.12l-0.01 0.12-0.01 0.11-0.02 0.12-0.09 0.33-0.04 0.1-0.05 0.1-0.04 0.1-0.06 0.1-0.06 0.09-0.06 0.1-0.06 0.08-0.07 0.09-0.08 0.08-0.07 0.08-0.08 0.07-0.09 0.07-0.08 0.06-0.09 0.07-0.09 0.05-0.2 0.1-0.2 0.08-0.1 0.03-0.11 0.03-0.11 0.02-0.33 0.03-0.01-0.22c0.44 0 0.87-0.22 1.13-0.65s0.26-1 0.26-1.38c0-0.36 0-0.89-0.22-1.33-0.22-0.45-0.66-0.74-1.16-0.74-0.43 0-0.87 0.21-1.14 0.67-0.25 0.44-0.25 1.04-0.25 1.4 0 0.39 0 0.92 0.24 1.36 0.27 0.46 0.74 0.67 1.14 0.67l0.01 0.22c-1.25 0-2.21-1.09-2.21-2.33 0-1.28 1.03-2.23 2.2-2.23 1.21 0 2.21 0.97 2.21 2.23z"/><path d="m161.99 710.54v-2.66c0-0.45-0.11-0.45-0.78-0.45v-0.3c0.35 0.01 0.86 0.03 1.12 0.03s0.78-0.02 1.12-0.03v0.3c-0.67 0-0.78 0-0.78 0.45v1.83c0 1.03 0.71 1.59 1.35 1.59 0.63 0 0.74-0.54 0.74-1.1v-2.32c0-0.45-0.11-0.45-0.78-0.45v-0.3c0.35 0.01 0.86 0.03 1.13 0.03 0.26 0 0.77-0.02 1.11-0.03v0.3c-0.51 0-0.76 0-0.77 0.3v1.9c0 0.85 0 1.16-0.31 1.52-0.14 0.17-0.47 0.37-1.05 0.37-0.73 0-1.2-0.43-1.48-1.05v1.05l-1.4-0.11v-0.31c0.69 0 0.78-0.07 0.78-0.56z"/><path d="m170.29 710.43 0.01 0.02 0.01 0.03 0.01 0.02 0.01 0.03 0.01 0.02 0.01 0.03 0.02 0.02 0.01 0.03 0.02 0.03 0.01 0.03 0.02 0.02 0.06 0.09 0.1 0.1 0.06 0.04 0.04 0.03 0.03 0.02 0.04 0.02 0.04 0.01 0.04 0.02 0.05 0.01 0.05 0.02 0.1 0.02h0.08l0.03 0.01h0.06v0.31c-0.23-0.02-0.52-0.03-0.75-0.03-0.24 0-0.7 0.02-0.86 0.03v-0.31c0.36-0.01 0.47-0.24 0.47-0.43 0-0.09-0.02-0.13-0.06-0.24l-1.01-2.53-1.12 2.77c-0.06 0.13-0.06 0.15-0.06 0.17 0 0.26 0.39 0.26 0.57 0.26v0.31c-0.3-0.01-0.86-0.03-1.09-0.03-0.27 0-0.67 0.01-0.97 0.03v-0.31c0.63 0 0.67-0.06 0.8-0.37l1.44-3.53c0.06-0.13 0.08-0.18 0.21-0.18s0.17 0.08 0.21 0.18z"/><path d="m172.23 709.42 0.01 0.21c0.06 1.48 0.9 1.73 1.24 1.73 1.02 0 1.12-1.34 1.12-1.73h-2.36l-0.01-0.21h2.78c0.22 0 0.25 0 0.25 0.21 0 0.98-0.54 1.95-1.78 1.95-1.16 0-2.08-1.03-2.08-2.27 0-1.33 1.05-2.29 2.2-2.29 1.21 0 1.66 1.1 1.66 1.29 0 0.1-0.08 0.12-0.13 0.12-0.09 0-0.11-0.06-0.13-0.14-0.35-1.03-1.24-1.03-1.34-1.03-0.5 0-0.9 0.3-1.13 0.67-0.3 0.48-0.3 1.13-0.3 1.49z"/><path d="m178.41 709.46 0.06 0.07 0.06 0.08 0.06 0.07 0.06 0.08 0.12 0.15 0.12 0.16 0.24 0.28 0.03 0.03 0.02 0.03 0.03 0.04 0.02 0.03 0.03 0.02 0.02 0.03 0.05 0.05c0.31 0.36 0.72 0.51 1.19 0.52v0.31c-0.26-0.02-0.56-0.03-0.82-0.03-0.3 0-0.83 0.02-0.96 0.03v-0.31c0.21-0.02 0.29-0.15 0.29-0.31s-0.1-0.29-0.15-0.35l-0.62-0.77-0.77 1c-0.09 0.1-0.09 0.12-0.09 0.18 0 0.15 0.15 0.24 0.34 0.25v0.31c-0.25-0.01-0.91-0.03-1.07-0.03-0.21 0-0.68 0.01-0.95 0.03v-0.31c0.7 0 0.71-0.01 1.18-0.61l0.98-1.28-0.93-1.18c-0.48-0.58-1.07-0.6-1.28-0.6v-0.3c0.26 0.02 0.57 0.03 0.83 0.03 0.29 0 0.71-0.02 0.95-0.03v0.3c-0.22 0.03-0.29 0.16-0.29 0.31 0 0.22 0.29 0.55 0.89 1.26l0.76-0.99c0.08-0.11 0.21-0.27 0.21-0.33 0-0.09-0.09-0.24-0.36-0.25v-0.3c0.3 0.01 0.86 0.03 1.08 0.03 0.27 0 0.66-0.01 0.96-0.03v0.3c-0.54 0-0.72 0.02-0.95 0.31z"/></g><g transform="matrix(1.2168 0 0 -1.2168 183.62 863.82)"><g transform="translate(7.2378 -59.353)"><g transform="matrix(1.2506,0,0,-1.2506,-72.165,1072.2)" fill-rule="evenodd" stroke="#000" stroke-miterlimit="10.433" ns0:preamble="default_packages.tex" ns0:text="$x$\n$y$\n" xml:space="preserve"><g transform="matrix(.79961 0 0 -.79961 58.988 860.59)"><g transform="matrix(1.2506,0,0,-1.2506,-72.165,1072.2)" fill-rule="evenodd" stroke="#000" stroke-miterlimit="10.433" ns0:preamble="default_packages.tex" ns0:text="$x$\n$y$\n" xml:space="preserve"><g transform="rotate(180 212.4 757.83)" fill-rule="evenodd" stroke="#000" stroke-miterlimit="10.433"><g transform="matrix(-.65714 0 0 -.65714 741.95 1102)" fill-rule="evenodd" stroke="#000" stroke-miterlimit="10.433" stroke-opacity="1" stroke-width="2.2826" ns0:preamble="default_packages.tex" ns0:text="$x_1 x_2 x f(x_1) f(x_2) f(x)$\n" xml:space="preserve"><g transform="matrix(1.0026 0 0 1.0026 37.987 78.78)" fill-rule="evenodd" stroke="#000" stroke-miterlimit="10.433" stroke-opacity="1" stroke-width="3.4151" ns0:preamble="default_packages.tex" ns0:text="$l(x)$\n" xml:space="preserve"><g transform="matrix(1.3845 0 0 1.3845 287.6 -440.77)" stroke-width="2.4667"><g stroke-width="2.4667"><g transform="matrix(-1.5178 0 0 1.5178 84.71 -324.6)" fill-rule="evenodd" stroke="#000" stroke-miterlimit="10.433" stroke-opacity="1"><g transform="matrix(.57577 0 0 -.57504 -172.32 802.3)" stroke-width="1.2045"><g transform="matrix(1.2506,0,0,-1.2506,-72.165,1072.2)" fill-rule="evenodd" stroke="#000" stroke-miterlimit="10.433" stroke-opacity=".31373" stroke-width=".96316" ns0:preamble="default_packages.tex" ns0:text="$x$\n$y$\n" xml:space="preserve"><g fill="none" stroke="#000" stroke-miterlimit="10.433" stroke-opacity=".31373" stroke-width=".96316"><path d="m171.51 757.67c7.6897 25.267 22 51.109 37.039 51.316 12.208-0.15688 28.413-24.989 36.962-50.464" fill="none" stroke="#000" stroke-miterlimit="10.433" stroke-opacity=".31373" stroke-width=".96316"/></g></g></g><g transform="matrix(.58057 0 0 .57986 -244 696.49)" stroke-width="1.1945"><g transform="matrix(1.2506,0,0,-1.2506,-72.165,1072.2)" fill-rule="evenodd" stroke="#000" stroke-miterlimit="10.433" stroke-opacity=".31373" stroke-width=".95517" ns0:preamble="default_packages.tex" ns0:text="$x$\n$y$\n" xml:space="preserve"><g fill="none" stroke="#000" stroke-miterlimit="10.433" stroke-opacity=".31373" stroke-width=".95517"><path d="m171.51 757.67c7.6897 25.267 22 51.109 37.039 51.316 12.208-0.15688 28.413-24.989 36.962-50.464" fill="none" stroke="#000" stroke-miterlimit="10.433" stroke-opacity=".31373" stroke-width=".95517"/></g></g></g></g></g></g></g></g><g transform="matrix(.79961 0 0 -.79961 -41.225 831.43)" stroke-width=".7"><g transform="matrix(1.2506,0,0,-1.2506,-72.165,1072.2)" fill-rule="evenodd" stroke="#000" stroke-miterlimit="10.433" stroke-width=".55973" ns0:preamble="default_packages.tex" ns0:text="$x$\n$y$\n" xml:space="preserve"><g transform="matrix(-.65715 0 0 -.65715 540.07 1459.9)" fill-rule="evenodd" stroke="#000" stroke-miterlimit="10.433" stroke-opacity="1" stroke-width="2.2826" ns0:preamble="default_packages.tex" ns0:text="$x_1 x_2 x f(x_1) f(x_2) f(x)$\n" xml:space="preserve"><g transform="translate(258.65 -3.4795)" fill-rule="evenodd" stroke="#000" stroke-miterlimit="10.433" stroke-opacity="1" stroke-width="2.2826" ns0:preamble="default_packages.tex" ns0:text="$x_1 x_2 x f(x_1) f(x_2) f(x)$\n" xml:space="preserve"><g transform="matrix(1.0026 0 0 1.0026 31.971 78.78)" fill-rule="evenodd" stroke="#000" stroke-miterlimit="10.433" stroke-opacity="1" stroke-width="3.4151" ns0:preamble="default_packages.tex" ns0:text="$l(x)$\n" xml:space="preserve"><g transform="matrix(1.3845 0 0 1.3845 261.45 -437.1)" stroke-width="2.4667"><g stroke-width="2.4667"><path d="m-65.969 1131.7v80.763" fill="none" marker-end="url(#f)" stroke="#000" stroke-miterlimit="10.433" stroke-opacity=".47059" stroke-width=".26299"/><g fill-rule="evenodd"><rect transform="scale(1,-1)" x="-179.81" y="-1256.4" width="155.11" height="156.28" fill-opacity=".36715" opacity=".97" stroke="none"/><g stroke-miterlimit="10.433"><g transform="matrix(.58989 0 0 .58989 -224.71 800.9)" stroke="#000" stroke-opacity="1" stroke-width="6.2725" ns0:preamble="default_packages.tex" ns0:text="$f(x) \\geq l(x)$\n" xml:space="preserve"><rect transform="scale(1,-1)" x="72.836" y="-774.33" width="263.74" height="263.74" fill="#fffdff" opacity=".97" stroke="#000" stroke-linecap="square" stroke-miterlimit="10.433" stroke-opacity=".62745" stroke-width=".39382"/></g><path d="m-110.66 1235.9h0.70234c0.16334 0 0.245 0 0.245 0.1634 0 0.09-0.0817 0.09-0.2205 0.09h-0.67784l0.1715 0.9229c0.0327 0.1715 0.147 0.7431 0.196 0.8411 0.0735 0.1552 0.21234 0.2777 0.38384 0.2777 0.0327 0 0.24501 0 0.40017-0.147-0.35933-0.033-0.441-0.3185-0.441-0.4328 0-0.1879 0.147-0.2859 0.30217-0.2859 0.21234 0 0.44917 0.1797 0.44917 0.4819 0 0.3756-0.37567 0.5635-0.71051 0.5635-0.27767 0-0.79218-0.147-1.0372-0.9474-0.049-0.1715-0.0735-0.2531-0.26951-1.274h-0.55533c-0.15517 0-0.245 0-0.245-0.1552 0-0.098 0.0735-0.098 0.2205-0.098h0.539l-0.60433-3.2095c-0.14701-0.784-0.28584-1.519-0.71052-1.519-0.0327 0-0.23683 0-0.392 0.147 0.37567 0.025 0.44917 0.3103 0.44917 0.4328 0 0.1878-0.147 0.2858-0.30217 0.2858-0.21234 0-0.44917-0.1796-0.44917-0.49 0-0.3593 0.35934-0.5553 0.69417-0.5553 0.44918 0 0.77585 0.4737 0.91469 0.784 0.26133 0.5145 0.44916 1.4945 0.45733 1.5517z" fill="#003c88" fill-opacity=".78431" stroke-width="0"/><g stroke-width="0"><g fill-opacity=".78431"><path d="m-106.09 1230.7v0.03l-8e-3 0.01v0.01l-0.016 0.02v0.01h-8e-3v0.01h-8e-3v0.01h-8e-3v0.01l-0.032 0.04v0.01h-8e-3l-8e-3 0.01v0.01h-8e-3l-8e-3 0.01v0.01h-8e-3l-0.016 0.02c-1.0127 1.0209-1.274 2.5562-1.274 3.7976 0 1.4128 0.31034 2.8257 1.3067 3.8384 0.10617 0.098 0.10617 0.1143 0.10617 0.1388 0 0.057-0.0327 0.082-0.0817 0.082-0.0817 0-0.80851-0.5554-1.2904-1.5844-0.41651-0.8902-0.51451-1.7967-0.51451-2.4745 0-0.637 0.0898-1.617 0.53901-2.5317 0.49-0.9964 1.1842-1.5272 1.2658-1.5272 0.049 0 0.0817 0.024 0.0817 0.082z"/><path d="m-102.9 1235.1v0.016l0.016 0.048 0.032 0.132 0.0163 0.041 8e-3 0.033 0.0652 0.164 0.0245 0.041 0.0163 0.041 0.049 0.082 0.0245 0.033 0.0327 0.041 0.0245 0.033 0.0327 0.041 0.0654 0.066 0.0327 0.024 0.0816 0.048 0.0245 0.01 0.0163 0.016 0.0245 0.01 0.0163 0.01 0.0245 0.01h0.0245l0.049 0.02h0.049l0.0245 0.01h0.0245c0.0408 0 0.23684 0 0.40834-0.1062-0.22867-0.041-0.38384-0.245-0.38384-0.441 0-0.1307 0.0817-0.2858 0.30217-0.2858 0.17967 0 0.44101 0.147 0.44101 0.4736 0 0.4247-0.48184 0.539-0.75135 0.539-0.47367 0-0.75951-0.4328-0.85751-0.6206-0.20417 0.539-0.64518 0.6206-0.88201 0.6206-0.84935 0-1.3149-1.0535-1.3149-1.2495 0-0.082 0.0898-0.082 0.10617-0.082 0.0653 0 0.0898 0.016 0.098 0.09 0.27767 0.8575 0.81668 1.0617 1.0944 1.0617 0.15517 0 0.44101-0.073 0.44101-0.5472 0-0.2532-0.13884-0.7922-0.44101-1.9274-0.13067-0.5063-0.4165-0.8493-0.77584-0.8493-0.049 0-0.23684 0-0.40834 0.1062 0.20417 0.041 0.38384 0.2123 0.38384 0.441 0 0.2205-0.17967 0.2858-0.29401 0.2858-0.25317 0-0.44917-0.2123-0.44917-0.4737 0-0.3756 0.40017-0.5308 0.75951-0.5308 0.53901 0 0.83301 0.5635 0.85751 0.6125 0.098-0.3022 0.39201-0.6125 0.88202-0.6125 0.83301 0 1.2985 1.0453 1.2985 1.2495 0 0.082-0.0735 0.082-0.098 0.082-0.0735 0-0.0898-0.041-0.10617-0.09-0.26951-0.8738-0.81668-1.0698-1.078-1.0698-0.3185 0-0.44917 0.2613-0.44917 0.539 0 0.1797 0.049 0.3593 0.13883 0.7105z"/><path d="m-98.62 1234.7v0.252l-0.0164 0.2776-0.01633 0.147-0.01633 0.1552-0.0245 0.1633-0.0245 0.1634-0.03267 0.1633-0.08166 0.343-0.049 0.1715-0.05717 0.1715-0.06534 0.1715-0.03267 0.09-0.04083 0.09-0.03267 0.082-0.04083 0.09c-0.49001 0.9963-1.1924 1.5272-1.274 1.5272-0.049 0-0.0817-0.033-0.0817-0.082 0-0.024 0-0.041 0.15517-0.1878 0.80036-0.8085 1.2659-2.0989 1.2659-3.7894 0-1.3884-0.30217-2.8176-1.3149-3.8384-0.10617-0.098-0.10617-0.1143-0.10617-0.1388 0-0.049 0.0327-0.082 0.0817-0.082 0.0817 0 0.81669 0.5553 1.2985 1.5843 0.40834 0.8902 0.50634 1.7886 0.50634 2.4746z"/></g><path d="m-89.73 1238 0.01633 0.01 0.0082 0.01h0.0082l0.0082 0.01h0.0082l0.0082 0.01h0.0082l0.0164 0.02h0.0082l0.0164 0.02h0.0082v0.01l0.0082 0.01h0.0082v0.01l0.0164 0.02v0.01l0.0082 0.01v0.02h0.0082v0.05c0 0.082-0.03267 0.1307-0.16334 0.1878l-4.4836 2.1071c-0.11434 0.057-0.147 0.057-0.16334 0.057-0.098 0-0.16334-0.073-0.16334-0.1634 0-0.09 0.06534-0.1306 0.15517-0.1715l4.2794-2.009-4.2631-2.0009c-0.16334-0.074-0.1715-0.1388-0.1715-0.1878 0-0.09 0.0735-0.1633 0.16334-0.1633 0.0245 0 0.04083 0 0.147 0.057z"/><path d="m-89.853 1234.2h0.05717l0.0245 0.01h0.07359l0.0082 0.01h0.02453l0.0082 0.01h0.0082l0.01633 0.01 0.0082 0.01h0.0082l0.0164 0.02v0.01l0.0082 0.01h0.0082v0.01l0.0082 0.01v0.03h0.0082v0.06c0 0.1633-0.1715 0.1633-0.294 0.1633h-4.3856c-0.1225 0-0.294 0-0.294-0.1633s0.147-0.1633 0.28584-0.1633z"/><path d="m-84.556 1237.8v0.03l-0.0092 0.01v0.01l-0.0092 0.01v0.01h-0.0092v0.01h-0.0092v0.01h-0.0092l-0.0092 0.01h-0.0276v0.01h-0.0368c-0.21182 0-0.88411-0.073-1.1143-0.092-0.07366-0.01-0.17498-0.019-0.17498-0.1934 0-0.1013 0.08289-0.1013 0.22103-0.1013 0.44205 0 0.45126-0.083 0.45126-0.1565l-0.0276-0.1843-1.1512-4.5678c-0.0276-0.1014-0.04606-0.1658-0.04606-0.3131 0-0.525 0.40521-0.8381 0.82885-0.8381 0.30391 0 0.53415 0.175 0.69071 0.5065 0.16577 0.3499 0.27628 0.8841 0.27628 0.9025 0 0.092-0.08288 0.092-0.11051 0.092-0.0921 0-0.1013-0.046-0.12893-0.1658-0.15657-0.5986-0.33154-1.1419-0.69992-1.1419-0.27628 0-0.27628 0.2947-0.27628 0.4236 0 0.2211 0.01846 0.2671 0.05529 0.4421z" fill="#f00" fill-opacity=".78431"/><g fill-opacity=".78431"><path d="m-81.674 1230.7v0.02l-0.0082 0.01v0.01l-0.0082 0.01v0.01h-0.0082v0.01l-0.0164 0.02v0.01h-0.0082l-0.0082 0.01v0.01h-0.0082v0.01h-0.0082v0.01h-0.0082v0.01l-0.0082 0.01h-0.0082v0.01l-0.0082 0.01h-0.0082v0.01l-0.0082 0.01h-0.0082v0.01l-0.0082 0.01c-1.0208 1.0209-1.2822 2.5562-1.2822 3.7976 0 1.4128 0.31034 2.8257 1.3149 3.8384 0.10617 0.098 0.10617 0.1143 0.10617 0.1388 0 0.057-0.03267 0.082-0.08167 0.082-0.08167 0-0.81668-0.5554-1.2985-1.5844-0.41651-0.8902-0.51451-1.7967-0.51451-2.4745 0-0.637 0.08983-1.617 0.53901-2.5317 0.49001-0.9964 1.1924-1.5272 1.274-1.5272 0.049 0 0.08167 0.024 0.08167 0.082z"/><path d="m-78.489 1235.1 0.0082 0.016 0.0082 0.024v0.024l0.0164 0.066 0.01633 0.033 0.0082 0.033 0.0082 0.041 0.01633 0.033 0.08165 0.205 0.0735 0.123 0.0245 0.033 0.0245 0.041 0.03267 0.033 0.0245 0.041 0.06534 0.066 0.08166 0.048 0.03267 0.024 0.0245 0.01 0.0245 0.016 0.01633 0.01 0.049 0.02h0.01633l0.049 0.02h0.049l0.03267 0.01h0.0245c0.04083 0 0.23684 0 0.40834-0.1062-0.22867-0.041-0.39201-0.245-0.39201-0.441 0-0.1307 0.08984-0.2858 0.31034-0.2858 0.17967 0 0.44101 0.147 0.44101 0.4736 0 0.4247-0.48184 0.539-0.75951 0.539-0.47367 0-0.75951-0.4328-0.85751-0.6206-0.20417 0.539-0.64518 0.6206-0.88201 0.6206-0.84118 0-1.3067-1.0535-1.3067-1.2495 0-0.082 0.08167-0.082 0.098-0.082 0.06533 0 0.08984 0.016 0.10617 0.09 0.27767 0.8575 0.81668 1.0617 1.0944 1.0617 0.147 0 0.43284-0.073 0.43284-0.5472 0-0.2532-0.13884-0.7922-0.43284-1.9274-0.13067-0.5063-0.41651-0.8493-0.77584-0.8493-0.049 0-0.23684 0-0.40834 0.1062 0.20417 0.041 0.38384 0.2123 0.38384 0.441 0 0.2205-0.17967 0.2858-0.30217 0.2858-0.245 0-0.44917-0.2123-0.44917-0.4737 0-0.3756 0.40834-0.5308 0.76768-0.5308 0.53901 0 0.83301 0.5635 0.85751 0.6125 0.08983-0.3022 0.38384-0.6125 0.87385-0.6125 0.84118 0 1.3067 1.0453 1.3067 1.2495 0 0.082-0.0735 0.082-0.098 0.082-0.0735 0-0.08984-0.041-0.10617-0.09-0.2695-0.8738-0.82485-1.0698-1.0862-1.0698-0.3185 0-0.44917 0.2613-0.44917 0.539 0 0.1797 0.049 0.3593 0.13884 0.7105z"/><path d="m-74.202 1234.7v0.122l-0.0082 0.065v0.065l-0.0164 0.2776-0.01633 0.147-0.01633 0.1552-0.01633 0.1633-0.03267 0.1634-0.03267 0.1633-0.03267 0.1715-0.098 0.343-0.05717 0.1715-0.06533 0.1715-0.06534 0.18-0.04083 0.082-0.04083 0.09c-0.49001 0.9963-1.1924 1.5272-1.274 1.5272-0.049 0-0.08167-0.033-0.08167-0.082 0-0.024 0-0.041 0.15517-0.1878 0.80035-0.8085 1.2659-2.0989 1.2659-3.7894 0-1.3884-0.30217-2.8176-1.3149-3.8384-0.10617-0.098-0.10617-0.1143-0.10617-0.1388 0-0.049 0.03267-0.082 0.08167-0.082 0.08167 0 0.81668 0.5553 1.2985 1.5843 0.41651 0.8902 0.51451 1.7886 0.51451 2.4746z"/></g></g></g></g><g stroke-miterlimit="10.433"><g fill="none" stroke="#000"><path d="m-93.428 1184.8v-64.396" stroke-opacity=".31373" stroke-width=".49531"/><path d="m-169.06 1113v111.81" marker-end="url(#i)" stroke-opacity="1" stroke-width=".26299"/><path d="m-175.5 1120.6h139.91" marker-end="url(#d)" stroke-opacity="1" stroke-width=".26299"/></g><g transform="matrix(.68111 0 0 .68112 -237.33 684.15)" fill-rule="evenodd" stroke-opacity="0" ns0:preamble="default_packages.tex" ns0:text="$x$\n$y$\n$\\langle y \\rangle$\n$\\langle x \\rangle$\n$\\text{Point of averages}$\n$\\text{Regression line}$\n$\\text{SD line}$\n$\\rho(x,y)\\sigma_y$\n$\\sigma_x$\n" xml:space="preserve"><g transform="matrix(1.5 0 0 1.5 69.402 -429.08)" fill-rule="evenodd" stroke="#000" stroke-miterlimit="10.433" stroke-opacity="1" stroke-width="0" ns0:preamble="default_packages.tex" ns0:text="$x f$\n" xml:space="preserve"><path d="m150.06 709.38 0.01 0.02 0.01 0.03v0.03l0.02 0.08 0.02 0.04 0.01 0.04 0.01 0.05 0.02 0.04 0.1 0.25 0.09 0.15 0.03 0.04 0.03 0.05 0.04 0.04 0.03 0.05 0.04 0.04 0.05 0.04 0.04 0.03 0.05 0.03 0.04 0.03 0.03 0.01 0.03 0.02 0.02 0.01 0.06 0.02h0.03l0.02 0.01 0.03 0.01h0.07l0.03 0.01h0.03c0.05 0 0.29 0 0.5-0.13-0.28-0.05-0.48-0.3-0.48-0.54 0-0.16 0.11-0.35 0.38-0.35 0.22 0 0.54 0.18 0.54 0.58 0 0.52-0.59 0.66-0.93 0.66-0.58 0-0.93-0.53-1.05-0.76-0.25 0.66-0.78 0.76-1.07 0.76-1.04 0-1.61-1.29-1.61-1.53 0-0.1 0.1-0.1 0.12-0.1 0.08 0 0.11 0.02 0.13 0.11 0.34 1.05 1 1.3 1.34 1.3 0.19 0 0.53-0.09 0.53-0.67 0-0.31-0.17-0.97-0.53-2.36-0.16-0.62-0.51-1.04-0.95-1.04-0.06 0-0.29 0-0.5 0.13 0.25 0.05 0.47 0.26 0.47 0.54 0 0.27-0.22 0.35-0.37 0.35-0.3 0-0.55-0.26-0.55-0.58 0-0.46 0.5-0.65 0.94-0.65 0.66 0 1.02 0.69 1.05 0.75 0.11-0.37 0.47-0.75 1.07-0.75 1.03 0 1.6 1.28 1.6 1.53 0 0.1-0.09 0.1-0.12 0.1-0.09 0-0.11-0.05-0.13-0.11-0.33-1.07-1.01-1.31-1.33-1.31-0.39 0-0.55 0.32-0.55 0.66 0 0.22 0.06 0.44 0.17 0.87z"/><path d="m17.293 815.97h0.85c0.2 0 0.3 0 0.3 0.2 0 0.11-0.1 0.11-0.27 0.11h-0.82l0.21 1.13c0.04 0.21 0.17 0.91 0.23 1.03 0.09 0.19 0.26 0.34 0.47 0.34 0.04 0 0.3 0 0.49-0.18-0.44-0.04-0.54-0.39-0.54-0.53 0-0.23 0.18-0.35 0.37-0.35 0.26 0 0.55 0.22 0.55 0.59 0 0.46-0.46 0.69-0.87 0.69-0.34 0-0.97-0.18-1.26-1.16-0.06-0.21-0.09-0.31-0.33-1.56h-0.69c-0.19 0-0.3 0-0.3-0.19 0-0.12 0.09-0.12 0.28-0.12h0.66l-0.75-3.93c-0.18-0.96-0.35-1.86-0.87-1.86-0.04 0-0.29 0-0.48 0.18 0.46 0.03 0.55 0.38 0.55 0.53 0 0.23-0.18 0.35-0.37 0.35-0.26 0-0.55-0.22-0.55-0.6 0-0.44 0.44-0.68 0.85-0.68 0.55 0 0.95 0.58 1.13 0.96 0.32 0.63 0.55 1.83 0.56 1.9z"/></g></g><g stroke="#000"><g transform="matrix(-1.2137 0 0 -1.2137 126.48 1285.9)" fill-rule="evenodd" stroke-opacity="1" stroke-width=".86678"><g transform="matrix(1.2506,0,0,-1.2506,-72.165,1072.2)" fill-rule="evenodd" stroke="#000" stroke-miterlimit="10.433" stroke-width=".69309" ns0:preamble="default_packages.tex" ns0:text="$x$\n$y$\n" xml:space="preserve"><g fill="none" stroke="#000" stroke-miterlimit="10.433" stroke-opacity=".62745" stroke-width=".69309"><path d="m171.51 757.67c2.3058 20.083 8.54 40.757 15.171 40.686 6.0222-0.0646 10.291-20.242 20.34-20.479 7.9798 0.32845 13.636 26.955 19.191 26.957 5.3686 2e-3 12.905-27.257 19.3-46.312" fill="none" stroke="#003c88" stroke-miterlimit="10.433" stroke-opacity=".58454" stroke-width=".69309"/></g></g></g><path d="m-145.55 1175.7v-54.868" fill="none" stroke-dasharray="1.98122539, 0.49530635" stroke-opacity=".31373" stroke-width=".49531"/><path d="m-61.27 1189.6v-68.282" fill="none" stroke-dasharray="1.98122539, 0.49530635" stroke-opacity=".31373" stroke-width=".49531"/></g><g fill-opacity=".78431" fill-rule="evenodd" stroke-width="0"><path d="m-146.06 1117.6 0.01 0.02 0.01 0.03v0.03l0.02 0.08 0.02 0.04 0.01 0.04 0.01 0.05 0.0199 0.04 0.02 0.05 0.0199 0.05 0.02 0.05 0.0199 0.05 0.02 0.05 0.0897 0.15 0.0299 0.04 0.0299 0.05 0.0399 0.04 0.0299 0.05 0.0399 0.04 0.0499 0.04 0.0399 0.03 0.0499 0.03 0.0399 0.03 0.0299 0.01 0.0299 0.02 0.0199 0.01 0.0598 0.02h0.0299l0.0199 0.01 0.0299 0.01h0.0698l0.0299 0.01h0.0299c0.0499 0 0.28925 0 0.4987-0.1297-0.27927-0.05-0.47876-0.2992-0.47876-0.5386 0-0.1596 0.10972-0.3491 0.37902-0.3491 0.21943 0 0.53861 0.1795 0.53861 0.5785 0 0.5187-0.58848 0.6583-0.9276 0.6583-0.5785 0-0.9276-0.5286-1.0473-0.758-0.24935 0.6583-0.77798 0.758-1.0672 0.758-1.0373 0-1.6058-1.2867-1.6058-1.5261 0-0.1 0.0997-0.1 0.11969-0.1 0.0798 0 0.10972 0.02 0.12967 0.1098 0.33912 1.0472 0.99741 1.2966 1.3365 1.2966 0.18951 0 0.52863-0.09 0.52863-0.6683 0-0.3092-0.16956-0.9675-0.52863-2.3539-0.15958-0.6184-0.50868-1.0373-0.94754-1.0373-0.0598 0-0.28925 0-0.49871 0.1297 0.24935 0.05 0.46878 0.2593 0.46878 0.5386 0 0.2693-0.21943 0.3491-0.36904 0.3491-0.29922 0-0.54858-0.2593-0.54858-0.5785 0-0.4588 0.49871-0.6483 0.93757-0.6483 0.6583 0 1.0174 0.6882 1.0473 0.748 0.10971-0.369 0.46878-0.748 1.0672-0.748 1.0273 0 1.5959 1.2767 1.5959 1.526 0 0.1-0.0898 0.1-0.11969 0.1-0.0898 0-0.10972-0.05-0.12967-0.1097-0.32914-1.0672-1.0074-1.3066-1.3266-1.3066-0.38899 0-0.54858 0.3192-0.54858 0.6583 0 0.2194 0.0598 0.4388 0.16956 0.8677z"/><path d="m-141.36 1117.5v0.09l-0.01 0.01v0.04l-0.01 0.01v0.01l-0.02 0.02h-0.01l-0.01 0.01h-0.04l-0.01 0.01h-0.1c-0.44884-0.4389-1.0772-0.4489-1.3665-0.4489v-0.2493c0.16956 0 0.62837 0 1.0074 0.1995v-3.5409c0-0.2294 0-0.3191-0.69819-0.3191h-0.25932v-0.2494c0.11969 0.01 0.97746 0.03 1.2368 0.03 0.21943 0 1.0972-0.02 1.2468-0.03v0.2494h-0.25933c-0.69819 0-0.69819 0.09-0.69819 0.3191z"/><path d="m-61.989 1118.1v0.02l0.02 0.06 0.04 0.16 0.01995 0.05 0.01 0.04 0.0798 0.2 0.02992 0.05 0.01995 0.05 0.05984 0.1 0.02992 0.04 0.0399 0.05 0.02992 0.04 0.0399 0.05 0.0798 0.08 0.0399 0.03 0.09974 0.06 0.01995 0.01 0.02992 0.02 0.02992 0.01 0.01995 0.01 0.02992 0.01h0.02992l0.05984 0.02h0.05984l0.02992 0.01h0.02992c0.04987 0 0.28925 0 0.49871-0.1296-0.27928-0.05-0.47876-0.2993-0.47876-0.5386 0-0.1596 0.10972-0.3491 0.37902-0.3491 0.21943 0 0.5386 0.1795 0.5386 0.5785 0 0.5186-0.58848 0.6583-0.9276 0.6583-0.56853 0-0.91762-0.5287-1.0373-0.7581-0.24935 0.6583-0.78796 0.7581-1.0772 0.7581-1.0373 0-1.6058-1.2867-1.6058-1.5261 0-0.1 0.09974-0.1 0.11969-0.1 0.07979 0 0.10972 0.02 0.12966 0.1097 0.33912 1.0473 0.99742 1.2967 1.3365 1.2967 0.18951 0 0.5386-0.09 0.5386-0.6683 0-0.3092-0.16956-0.9675-0.5386-2.3539-0.15959-0.6184-0.50868-1.0373-0.94754-1.0373-0.05985 0-0.28925 0-0.49871 0.1297 0.24935 0.05 0.46879 0.2593 0.46879 0.5386 0 0.2693-0.21943 0.3491-0.36904 0.3491-0.29922 0-0.54858-0.2594-0.54858-0.5786 0-0.4588 0.49871-0.6483 0.93757-0.6483 0.65829 0 1.0174 0.6882 1.0473 0.7481 0.11969-0.3691 0.47876-0.7481 1.0772-0.7481 1.0174 0 1.5859 1.2767 1.5859 1.5261 0 0.1-0.08977 0.1-0.11969 0.1-0.08977 0-0.10972-0.05-0.12966-0.1097-0.32915-1.0673-0.99742-1.3067-1.3166-1.3067-0.38899 0-0.54858 0.3192-0.54858 0.6583 0 0.2195 0.05985 0.4389 0.16956 0.8678z"/><path d="m-56.114 1114.9h-0.23938c-0.01995-0.1596-0.08977-0.5686-0.17954-0.6384-0.04987-0.04-0.58848-0.04-0.68822-0.04h-1.2867c0.73809 0.6483 0.97747 0.8379 1.3964 1.167 0.51866 0.4089 0.99742 0.8378 0.99742 1.4961 0 0.8379-0.73809 1.3565-1.6358 1.3565-0.85778 0-1.4463-0.6084-1.4463-1.2468 0-0.3491 0.29922-0.389 0.36904-0.389 0.16956 0 0.36904 0.1197 0.36904 0.3691 0 0.1297-0.04987 0.369-0.40894 0.369 0.21943 0.4888 0.68822 0.6484 1.0174 0.6484 0.69819 0 1.0573-0.5386 1.0573-1.1072 0-0.5984-0.42889-1.0772-0.64832-1.3265l-1.6856-1.6557c-0.06982-0.06-0.06982-0.07-0.06982-0.2693h2.8726z"/><path d="m-92.884 1117.2 0.01 0.02v0.03l0.01 0.03 0.03 0.12 0.01995 0.04 0.01 0.05 0.01995 0.04 0.01 0.05 0.0399 0.1 0.02992 0.05 0.01995 0.05 0.02992 0.05 0.01995 0.05 0.02992 0.05 0.02992 0.04 0.0399 0.05 0.02992 0.04 0.0399 0.05 0.0798 0.08 0.04987 0.03 0.0399 0.03 0.04987 0.03 0.02992 0.01 0.01995 0.02 0.05984 0.02 0.01995 0.01h0.02992l0.05984 0.02h0.05984l0.02992 0.01h0.0399c0.04987 0 0.28925 0 0.49871-0.1297-0.27928-0.05-0.47876-0.2992-0.47876-0.5386 0-0.1595 0.10972-0.3491 0.37902-0.3491 0.21943 0 0.52863 0.1796 0.52863 0.5785 0 0.5187-0.5785 0.6583-0.91762 0.6583-0.5785 0-0.9276-0.5286-1.0473-0.758-0.24935 0.6583-0.78796 0.758-1.0772 0.758-1.0273 0-1.5959-1.2866-1.5959-1.526 0-0.1 0.09974-0.1 0.11969-0.1 0.07979 0 0.10972 0.02 0.12966 0.1097 0.33912 1.0473 0.98744 1.2967 1.3266 1.2967 0.18951 0 0.5386-0.09 0.5386-0.6683 0-0.3092-0.16956-0.9675-0.5386-2.3539-0.15959-0.6184-0.50868-1.0373-0.93757-1.0373-0.05985 0-0.28925 0-0.49871 0.1296 0.24935 0.05 0.46879 0.2594 0.46879 0.5386 0 0.2693-0.21943 0.3491-0.36904 0.3491-0.29922 0-0.54858-0.2593-0.54858-0.5785 0-0.4588 0.49871-0.6483 0.93757-0.6483 0.64832 0 1.0074 0.6882 1.0373 0.7481 0.11969-0.3691 0.47876-0.7481 1.0772-0.7481 1.0273 0 1.5959 1.2767 1.5959 1.5261 0 0.1-0.08977 0.1-0.11969 0.1-0.08977 0-0.10972-0.05-0.12966-0.1098-0.32915-1.0672-1.0074-1.3066-1.3266-1.3066-0.38899 0-0.54858 0.3192-0.54858 0.6583 0 0.2195 0.05984 0.4389 0.16956 0.8678z"/><path d="m-165.27 1179.4h0.85778c0.19948 0 0.29922 0 0.29922 0.1995 0 0.1097-0.0997 0.1097-0.2693 0.1097h-0.82785l0.20945 1.1271c0.0399 0.2094 0.17954 0.9076 0.23938 1.0273 0.0898 0.1895 0.25933 0.3391 0.46879 0.3391 0.0399 0 0.29922 0 0.48873-0.1795-0.43886-0.04-0.5386-0.389-0.5386-0.5286 0-0.2294 0.17953-0.3491 0.36904-0.3491 0.25933 0 0.54858 0.2194 0.54858 0.5884 0 0.4589-0.45881 0.6883-0.86775 0.6883-0.33912 0-0.96749-0.1796-1.2667-1.157-0.0598-0.2095-0.0898-0.3092-0.32915-1.556h-0.67824c-0.18951 0-0.29922 0-0.29922-0.1895 0-0.1197 0.0898-0.1197 0.27927-0.1197h0.64832l-0.73808-3.9198c-0.17954-0.9576-0.3491-1.8552-0.86776-1.8552-0.0399 0-0.28925 0-0.47875 0.1795 0.45881 0.03 0.54857 0.379 0.54857 0.5286 0 0.2294-0.17953 0.3491-0.36904 0.3491-0.25933 0-0.54858-0.2194-0.54858-0.5984 0-0.4389 0.43886-0.6783 0.8478-0.6783 0.54858 0 0.94755 0.5785 1.1271 0.9575 0.3092 0.6284 0.53861 1.8253 0.54858 1.8951z"/><path d="m-160.86 1173v0.04h-0.01v0.01l-0.02 0.02v0.01h-0.01v0.01l-0.01 0.01h-0.01v0.01l-0.04 0.04v0.01h-0.01l-0.01 0.01v0.01h-0.01l-0.01 0.01v0.01h-0.01l-0.02 0.02c-1.2368 1.2468-1.556 3.1219-1.556 4.638 0 1.7255 0.37902 3.4511 1.5959 4.6879 0.12966 0.1197 0.12966 0.1396 0.12966 0.1695 0 0.07-0.0399 0.1-0.0997 0.1-0.0997 0-0.98744-0.6782-1.5759-1.935-0.50869-1.0871-0.62838-2.1943-0.62838-3.0221 0-0.778 0.10972-1.9749 0.6583-3.092 0.59845-1.2169 1.4462-1.8652 1.546-1.8652 0.0599 0 0.0997 0.03 0.0997 0.1z"/><path d="m-156.96 1178.4v0.02l0.02 0.06 0.04 0.16 0.0199 0.05 0.01 0.04 0.0398 0.1 0.02 0.05 0.0199 0.05 0.0299 0.05 0.0199 0.05 0.0598 0.1 0.0299 0.04 0.0399 0.05 0.0299 0.04 0.0399 0.05 0.0798 0.08 0.0399 0.03 0.0998 0.06 0.0299 0.01 0.0199 0.02 0.0299 0.01 0.0199 0.01 0.0299 0.01h0.0299l0.0598 0.02h0.0598l0.0299 0.01h0.0399c0.0499 0 0.27927 0 0.48873-0.1297-0.27927-0.05-0.46878-0.2992-0.46878-0.5386 0-0.1595 0.0997-0.3491 0.36904-0.3491 0.21943 0 0.5386 0.1796 0.5386 0.5785 0 0.5187-0.58847 0.6583-0.92759 0.6583-0.56853 0-0.91762-0.5286-1.0373-0.758-0.24936 0.6583-0.78796 0.758-1.0772 0.758-1.0373 0-1.6058-1.2866-1.6058-1.526 0-0.1 0.10971-0.1 0.11969-0.1 0.0798 0 0.10971 0.02 0.12966 0.1097 0.33912 1.0473 0.99742 1.2966 1.3365 1.2966 0.18951 0 0.5386-0.09 0.5386-0.6682 0-0.3092-0.16956-0.9675-0.5386-2.3539-0.15959-0.6184-0.50868-1.0373-0.94754-1.0373-0.0599 0-0.28926 0-0.49871 0.1296 0.24935 0.05 0.46878 0.2594 0.46878 0.5386 0 0.2693-0.21943 0.3491-0.35907 0.3491-0.29922 0-0.54858-0.2593-0.54858-0.5785 0-0.4588 0.49871-0.6483 0.9276-0.6483 0.6583 0 1.0174 0.6882 1.0473 0.7481 0.11969-0.3691 0.47876-0.7481 1.0772-0.7481 1.0174 0 1.5859 1.2767 1.5859 1.5261 0 0.1-0.0898 0.1-0.11969 0.1-0.0898 0-0.10972-0.05-0.12967-0.1098-0.31917-1.0672-0.99741-1.3066-1.3166-1.3066-0.38899 0-0.54857 0.3192-0.54857 0.6583 0 0.2195 0.0598 0.4389 0.16956 0.8678z"/><path d="m-152.27 1178.3v0.12l-0.01 0.01v0.02h-0.01v0.02h-0.01v0.01h-0.02v0.01h-0.05v0.01h-0.11c-0.43886-0.4389-1.0772-0.4488-1.3665-0.4488v-0.2494c0.16956 0 0.62837 0 1.0174 0.1995v-3.5408c0-0.2294 0-0.3192-0.69819-0.3192h-0.26931v-0.2494c0.12967 0.01 0.98744 0.03 1.2468 0.03 0.20946 0 1.0872-0.02 1.2468-0.03v0.2494h-0.2693c-0.69819 0-0.69819 0.09-0.69819 0.3192z"/><path d="m-148.54 1177.8v0.31l-0.02 0.3392-0.0199 0.1795-0.02 0.1895-0.0598 0.399-0.0399 0.1995-0.0499 0.2094-0.0499 0.2095-0.0598 0.2094-0.0698 0.2095-0.0798 0.2094-0.0399 0.1098-0.0499 0.1097-0.0499 0.1-0.0499 0.1097c-0.58847 1.2168-1.4462 1.8652-1.546 1.8652-0.0598 0-0.0997-0.04-0.0997-0.1 0-0.03 0-0.05 0.18951-0.2295 0.97747-0.9874 1.536-2.5633 1.536-4.628 0-1.6956-0.36905-3.441-1.5959-4.6878-0.12966-0.1197-0.12966-0.1396-0.12966-0.1696 0-0.06 0.0399-0.1 0.0997-0.1 0.0997 0 0.98744 0.6783 1.5759 1.935 0.50868 1.0872 0.62837 2.1844 0.62837 3.0222z"/><path d="m-56.278 1194.8h0.8478c0.19948 0 0.29922 0 0.29922 0.1995 0 0.1097-0.09974 0.1097-0.2693 0.1097h-0.81788l0.19948 1.1271c0.0399 0.2094 0.17954 0.9076 0.23938 1.0273 0.08977 0.1895 0.25933 0.3391 0.46878 0.3391 0.0399 0 0.29922 0 0.48873-0.1795-0.43886-0.04-0.5386-0.389-0.5386-0.5286 0-0.2294 0.17954-0.3491 0.36904-0.3491 0.25933 0 0.54858 0.2194 0.54858 0.5884 0 0.4589-0.45881 0.6883-0.86775 0.6883-0.33912 0-0.96749-0.1796-1.2567-1.157-0.05985-0.2095-0.08977-0.3092-0.32915-1.556h-0.68822c-0.18951 0-0.29922 0-0.29922-0.1895 0-0.1197 0.08977-0.1197 0.27928-0.1197h0.65829l-0.74806-3.9199c-0.17954-0.9575-0.3491-1.8551-0.86775-1.8551-0.0399 0-0.28925 0-0.47876 0.1795 0.45881 0.03 0.54858 0.379 0.54858 0.5286 0 0.2294-0.17953 0.3491-0.36904 0.3491-0.25933 0-0.54858-0.2194-0.54858-0.5984 0-0.4389 0.43886-0.6783 0.8478-0.6783 0.54858 0 0.94754 0.5785 1.1271 0.9575 0.31917 0.6284 0.54858 1.8253 0.55855 1.8951z"/><path d="m-51.738 1188.4v0.01l-0.01 0.01v0.02h-0.01v0.01l-0.01 0.01v0.01l-0.01 0.01h-0.01v0.01l-0.06 0.06v0.01h-0.01v0.01l-0.01 0.01h-0.01v0.01l-0.01 0.01h-0.01l-0.01 0.01v0.01c-1.2468 1.2468-1.5659 3.1219-1.5659 4.638 0 1.7255 0.37902 3.4511 1.6058 4.6879 0.12966 0.1196 0.12966 0.1396 0.12966 0.1695 0 0.07-0.0399 0.1-0.09974 0.1-0.09974 0-0.99742-0.6782-1.5859-1.935-0.50868-1.0872-0.62837-2.1943-0.62837-3.0221 0-0.778 0.10972-1.9749 0.65829-3.092 0.59845-1.2169 1.4562-1.8652 1.556-1.8652 0.05984 0 0.09974 0.03 0.09974 0.1z"/><path d="m-47.848 1193.7 0.01 0.02v0.03l0.01 0.03 0.03 0.12 0.01995 0.04 0.01 0.05 0.01995 0.04 0.01 0.05 0.0399 0.1 0.02992 0.05 0.01995 0.05 0.02992 0.05 0.01995 0.05 0.02992 0.05 0.02992 0.04 0.0399 0.05 0.02992 0.04 0.0399 0.05 0.0798 0.08 0.04987 0.03 0.0399 0.03 0.04987 0.03 0.02992 0.01 0.01995 0.02 0.05984 0.02 0.01995 0.01h0.02992l0.05984 0.02h0.05984l0.02992 0.01h0.0399c0.04987 0 0.28925 0 0.49871-0.1297-0.27928-0.05-0.47876-0.2992-0.47876-0.5386 0-0.1596 0.10972-0.3491 0.37902-0.3491 0.20946 0 0.52863 0.1796 0.52863 0.5785 0 0.5187-0.5785 0.6583-0.91762 0.6583-0.5785 0-0.9276-0.5286-1.0473-0.758-0.24935 0.6583-0.78796 0.758-1.0772 0.758-1.0273 0-1.5959-1.2866-1.5959-1.526 0-0.1 0.09974-0.1 0.11969-0.1 0.07979 0 0.10972 0.02 0.12966 0.1097 0.33912 1.0473 0.98744 1.2966 1.3266 1.2966 0.18951 0 0.5386-0.09 0.5386-0.6682 0-0.3092-0.16956-0.9675-0.5386-2.3539-0.15959-0.6184-0.50868-1.0373-0.93757-1.0373-0.05984 0-0.28925 0-0.49871 0.1296 0.24935 0.05 0.46878 0.2593 0.46878 0.5386 0 0.2693-0.21943 0.3491-0.36904 0.3491-0.29922 0-0.54858-0.2593-0.54858-0.5785 0-0.4588 0.49871-0.6483 0.93757-0.6483 0.64832 0 1.0074 0.6882 1.0373 0.7481 0.11969-0.3691 0.47876-0.7481 1.0772-0.7481 1.0273 0 1.5959 1.2767 1.5959 1.526 0 0.1-0.09974 0.1-0.12966 0.1-0.07979 0-0.09974-0.05-0.11969-0.1097-0.32915-1.0672-1.0074-1.3066-1.3266-1.3066-0.38899 0-0.54858 0.3192-0.54858 0.6583 0 0.2194 0.05984 0.4389 0.16956 0.8678z"/><path d="m-41.973 1190.5h-0.22941c-0.02992-0.1595-0.08977-0.5685-0.18951-0.6383-0.04987-0.04-0.58848-0.04-0.68822-0.04h-1.2767c0.72811 0.6483 0.97747 0.8378 1.3864 1.167 0.51866 0.4089 0.99742 0.8378 0.99742 1.4961 0 0.8378-0.73809 1.3565-1.6258 1.3565-0.86775 0-1.4562-0.6084-1.4562-1.2468 0-0.3491 0.29922-0.389 0.36904-0.389 0.16956 0 0.36904 0.1197 0.36904 0.3691 0 0.1296-0.0399 0.369-0.40894 0.369 0.21943 0.4887 0.68822 0.6483 1.0174 0.6483 0.69819 0 1.0672-0.5386 1.0672-1.1071 0-0.5984-0.43886-1.0772-0.6583-1.3266l-1.6856-1.6557c-0.06982-0.06-0.06982-0.07-0.06982-0.2693h2.8726z"/><path d="m-39.08 1193.2v0.31l-0.01 0.1696-0.01 0.1695-0.01995 0.1796-0.01995 0.1895-0.02992 0.1994-0.02992 0.1995-0.0399 0.1995-0.0399 0.2095-0.05984 0.2094-0.05985 0.2095-0.06982 0.2094-0.07979 0.2095-0.0399 0.1097-0.04987 0.1097-0.0399 0.1-0.04987 0.1097c-0.59845 1.2169-1.4562 1.8652-1.556 1.8652-0.05984 0-0.09974-0.04-0.09974-0.1 0-0.03 0-0.05 0.18951-0.2294 0.97747-0.9874 1.546-2.5633 1.546-4.628 0-1.6956-0.36904-3.4411-1.6058-4.6879-0.12966-0.1196-0.12966-0.1396-0.12966-0.1695 0-0.06 0.0399-0.1 0.09974-0.1 0.09974 0 0.99742 0.6782 1.5859 1.935 0.49871 1.0872 0.6184 2.1843 0.6184 3.0221z"/></g><path d="m-145.55 1175.7 84.291 14.579" fill="none" marker-end="url(#a)" marker-start="url(#b)" stroke="#f00" stroke-opacity=".31373" stroke-width=".7583"/><g fill-rule="evenodd" stroke="#000"><ellipse transform="scale(1,-1)" cx="-93.447" cy="-1184.5" rx=".94273" ry=".94273" fill="#f00" fill-opacity=".31373" opacity=".97" stroke-linecap="square" stroke-opacity=".31373" stroke-width=".49531"/><ellipse transform="scale(1,-1)" cx="-93.396" cy="-1167.5" rx=".94273" ry=".94273" fill="#0000fb" fill-opacity=".31373" opacity=".97" stroke-linecap="square" stroke-opacity=".31373" stroke-width=".49531"/><g id="content" transform="matrix(.91478 0 0 .91478 -399.21 608.69)" stroke-opacity="1" stroke-width="0" ns0:preamble="default_packages.tex" ns0:text="$$\\text{Neither concave nor convex}$$\n" xml:space="preserve"><path d="m248.13 701.83v0.01l-0.05 0.05v0.01h-0.01v0.01h-0.01l-0.02 0.02h-0.01v0.01h-0.03v0.01h-0.14l-0.01 0.01h-1.7v-0.31h0.29c0.15 0 0.35-0.01 0.5-0.02 0.23-0.03 0.24-0.04 0.24-0.23v-5.19c0-0.26 0-0.73-1.03-0.73v-0.31c0.35 0.01 0.84 0.03 1.17 0.03s0.81-0.02 1.16-0.03v0.31c-1.02 0-1.02 0.47-1.02 0.73v5.17c0.05-0.05 0.05-0.06 0.09-0.12l4.07-5.96c0.09-0.12 0.1-0.13 0.17-0.13 0.14 0 0.14 0.07 0.14 0.26v5.48c0 0.27 0 0.74 1.03 0.74v0.31c-0.35-0.01-0.84-0.04-1.17-0.04s-0.81 0.03-1.16 0.04v-0.31c1.02 0 1.02-0.47 1.02-0.74v-4.24z"/><path d="m254.4 697.47 0.01 0.2c0.06 1.48 0.9 1.73 1.24 1.73 1.02 0 1.12-1.34 1.12-1.73h-2.36l-0.01-0.2h2.78c0.22 0 0.25 0 0.25 0.2 0 0.99-0.54 1.95-1.78 1.95-1.16 0-2.08-1.02-2.08-2.27 0-1.33 1.05-2.29 2.19-2.29 1.22 0 1.67 1.1 1.67 1.29 0 0.1-0.08 0.12-0.13 0.12-0.09 0-0.11-0.06-0.13-0.14-0.35-1.02-1.24-1.02-1.35-1.02-0.49 0-0.89 0.3-1.12 0.66-0.3 0.48-0.3 1.14-0.3 1.5z"/><path d="m259.48 699.56-1.39-0.11v-0.31c0.65 0 0.74-0.06 0.74-0.54v-2.68c0-0.44-0.11-0.44-0.78-0.44v-0.31c0.32 0.01 0.86 0.03 1.09 0.03 0.35 0 0.7-0.02 1.04-0.03v0.31c-0.66 0-0.7 0.05-0.7 0.43z"/><path d="m259.52 701.29v0.09l-0.01 0.02v0.03l-0.01 0.03-0.01 0.02-0.01 0.03-0.02 0.04-0.02 0.02-0.01 0.03-0.01 0.02-0.02 0.02-0.02 0.01-0.02 0.02-0.01 0.02-0.02 0.01-0.02 0.02-0.02 0.01-0.03 0.02-0.06 0.03-0.03 0.01h-0.02l-0.03 0.01-0.02 0.01h-0.05l-0.03 0.01h-0.02c-0.31 0-0.53-0.27-0.53-0.53 0-0.27 0.22-0.53 0.53-0.53 0.27 0 0.52 0.21 0.52 0.53z"/><path d="m262.21 699.14h1.43v0.31h-1.43v1.83h-0.25c-0.01-0.81-0.31-1.88-1.28-1.92v-0.22h0.84v-2.74c0-1.22 0.93-1.34 1.29-1.34 0.71 0 0.99 0.71 0.99 1.34v0.57h-0.25v-0.55c0-0.73-0.3-1.11-0.67-1.11-0.67 0-0.67 0.9-0.67 1.07z"/><path d="m265.46 695.92v-0.07l-0.01-0.04v-0.06l-0.01-0.03v-0.03l-0.01-0.02-0.01-0.03-0.02-0.04-0.04-0.04-0.02-0.01-0.02-0.02-0.02-0.01h-0.03l-0.02-0.01-0.03-0.01h-0.03l-0.03-0.01h-0.08l-0.02-0.01h-0.38v-0.31c0.35 0.01 0.86 0.03 1.13 0.03 0.26 0 0.77-0.02 1.11-0.03v0.31c-0.66 0-0.77 0-0.77 0.44v1.83c0 1.04 0.7 1.59 1.34 1.59 0.63 0 0.74-0.53 0.74-1.1v-2.32c0-0.44-0.11-0.44-0.78-0.44v-0.31c0.35 0.01 0.86 0.03 1.13 0.03 0.26 0 0.78-0.02 1.12-0.03v0.31c-0.52 0-0.77 0-0.78 0.3v1.89c0 0.86 0 1.17-0.31 1.52-0.14 0.17-0.47 0.37-1.05 0.37-0.83 0-1.27-0.59-1.44-0.97v3.47l-1.44-0.1v-0.31c0.7 0 0.78-0.07 0.78-0.56z"/><path d="m271 697.47 0.01 0.2c0.06 1.48 0.9 1.73 1.24 1.73 1.03 0 1.13-1.34 1.13-1.73h-2.37l-0.01-0.2h2.79c0.22 0 0.25 0 0.25 0.2 0 0.99-0.54 1.95-1.79 1.95-1.16 0-2.07-1.02-2.07-2.27 0-1.33 1.04-2.29 2.19-2.29 1.22 0 1.67 1.1 1.67 1.29 0 0.1-0.09 0.12-0.14 0.12-0.08 0-0.1-0.06-0.12-0.14-0.35-1.02-1.25-1.02-1.35-1.02-0.5 0-0.9 0.3-1.13 0.66-0.3 0.48-0.3 1.14-0.3 1.5z"/><path d="m275.99 698.47v1.09l-1.39-0.11v-0.31c0.7 0 0.78-0.07 0.78-0.55v-2.67c0-0.44-0.11-0.44-0.78-0.44v-0.31c0.39 0.01 0.86 0.03 1.14 0.03 0.4 0 0.87 0 1.27-0.03v0.31h-0.21c-0.74 0-0.76 0.11-0.76 0.47v1.52c0 0.99 0.42 1.87 1.18 1.87 0.07 0 0.09 0 0.11-0.01-0.03-0.01-0.23-0.13-0.23-0.38 0-0.28 0.21-0.43 0.42-0.43 0.18 0 0.43 0.12 0.43 0.44 0 0.31-0.31 0.6-0.73 0.6-0.73 0-1.09-0.66-1.23-1.09z"/><path d="m282.71 697.34v0.14l0.01 0.08v0.07l0.01 0.06v0.07l0.01 0.07 0.05 0.3 0.03 0.1 0.03 0.11 0.03 0.09 0.04 0.1 0.12 0.24 0.05 0.07 0.15 0.18 0.05 0.05 0.05 0.04 0.06 0.04 0.05 0.04 0.06 0.04 0.06 0.03 0.05 0.02 0.12 0.04 0.05 0.02 0.06 0.01 0.1 0.02h0.11c0.09 0 0.71-0.01 1.06-0.37-0.41-0.03-0.47-0.32-0.47-0.45 0-0.26 0.18-0.46 0.46-0.46 0.26 0 0.46 0.17 0.46 0.47 0 0.67-0.75 1.06-1.52 1.06-1.25 0-2.17-1.07-2.17-2.3 0-1.28 0.99-2.26 2.15-2.26 1.33 0 1.65 1.19 1.65 1.29s-0.1 0.1-0.13 0.1c-0.09 0-0.11-0.04-0.13-0.1-0.29-0.92-0.93-1.04-1.3-1.04-0.53 0-1.41 0.43-1.41 2.03z"/><path d="m290.67 697.3v0.11l-0.01 0.12-0.02 0.12-0.04 0.22-0.03 0.11-0.08 0.22-0.04 0.1-0.1 0.2-0.12 0.18-0.07 0.09-0.14 0.16-0.16 0.16-0.08 0.06-0.09 0.07-0.18 0.12-0.09 0.05-0.1 0.05-0.1 0.04-0.1 0.03-0.11 0.04-0.1 0.02-0.22 0.04-0.11 0.01h-0.12l-0.01-0.22c0.44 0 0.87-0.22 1.13-0.64 0.26-0.43 0.26-1.01 0.26-1.38 0-0.36 0-0.9-0.22-1.34s-0.66-0.73-1.16-0.73c-0.42 0-0.86 0.21-1.13 0.66-0.25 0.44-0.25 1.05-0.25 1.41 0 0.38 0 0.92 0.24 1.36 0.27 0.45 0.73 0.66 1.13 0.66l0.01 0.22c-1.24 0-2.21-1.08-2.21-2.32 0-1.29 1.04-2.24 2.2-2.24 1.21 0 2.22 0.97 2.22 2.24z"/><path d="m292.05 698.59v-2.67c0-0.44-0.11-0.44-0.78-0.44v-0.31c0.35 0.01 0.86 0.03 1.13 0.03 0.26 0 0.78-0.02 1.12-0.03v0.31c-0.67 0-0.78 0-0.78 0.44v1.83c0 1.04 0.71 1.59 1.34 1.59s0.74-0.53 0.74-1.1v-2.32c0-0.44-0.11-0.44-0.78-0.44v-0.31c0.35 0.01 0.86 0.03 1.13 0.03 0.26 0 0.78-0.02 1.12-0.03v0.31c-0.52 0-0.77 0-0.78 0.3v1.89c0 0.86 0 1.17-0.31 1.52-0.14 0.17-0.47 0.37-1.05 0.37-0.72 0-1.19-0.43-1.47-1.04v1.04l-1.41-0.11v-0.31c0.7 0 0.78-0.07 0.78-0.55z"/><path d="m297.65 697.34v0.07l0.01 0.07v0.15l0.01 0.06v0.07l0.01 0.07 0.05 0.3 0.03 0.1 0.03 0.11 0.03 0.09 0.04 0.1 0.12 0.24 0.05 0.07 0.15 0.18 0.05 0.05 0.06 0.04 0.05 0.04 0.06 0.04 0.05 0.04 0.06 0.03 0.06 0.02 0.05 0.02 0.12 0.04 0.05 0.01 0.06 0.01 0.05 0.01h0.1c0.09 0 0.72-0.01 1.07-0.37-0.41-0.03-0.47-0.32-0.47-0.45 0-0.26 0.18-0.46 0.46-0.46 0.26 0 0.46 0.17 0.46 0.47 0 0.67-0.76 1.06-1.53 1.06-1.25 0-2.16-1.07-2.16-2.3 0-1.28 0.98-2.26 2.14-2.26 1.34 0 1.66 1.19 1.66 1.29s-0.1 0.1-0.13 0.1c-0.09 0-0.11-0.04-0.13-0.1-0.29-0.92-0.94-1.04-1.31-1.04-0.53 0-1.41 0.43-1.41 2.03z"/><path d="m304.24 695.92v-0.03l0.01-0.04v-0.04l0.01-0.03 0.02-0.08 0.01-0.03 0.02-0.04 0.01-0.04 0.04-0.06 0.02-0.04 0.08-0.12 0.11-0.11 0.06-0.04 0.04-0.02 0.03-0.02 0.04-0.01 0.03-0.02 0.16-0.04h0.08c0.21 0 0.82 0.14 0.82 0.94v0.56h-0.25v-0.56c0-0.57-0.25-0.63-0.36-0.63-0.33 0-0.37 0.44-0.37 0.49v1.99c0 0.42 0 0.81-0.36 1.17-0.38 0.39-0.88 0.55-1.36 0.55-0.82 0-1.51-0.47-1.51-1.12 0-0.3 0.2-0.47 0.46-0.47 0.28 0 0.46 0.2 0.46 0.46 0 0.12-0.05 0.44-0.51 0.46 0.27 0.34 0.76 0.45 1.08 0.45 0.49 0 1.06-0.39 1.06-1.27v-1.57c0-0.94-0.72-1.28-1.17-1.28-0.49 0-0.9 0.35-0.9 0.84 0 0.55 0.42 1.37 2.07 1.43v0.21c-0.51-0.03-1.21-0.06-1.84-0.35-0.75-0.34-1-0.86-1-1.3 0-0.8 0.97-1.05 1.6-1.05 0.66 0 1.12 0.4 1.31 0.86z"/><path d="m309.78 698.48v0.02l0.01 0.02 0.01 0.03 0.01 0.02 0.02 0.03 0.01 0.02 0.02 0.06 0.02 0.02 0.02 0.03 0.01 0.03 0.02 0.03 0.02 0.02 0.02 0.03 0.08 0.08 0.03 0.02 0.03 0.03 0.06 0.04 0.04 0.02 0.03 0.02 0.04 0.02 0.05 0.01 0.04 0.02 0.15 0.03h0.03l0.03 0.01h0.11v0.31c-0.23-0.02-0.52-0.03-0.74-0.03-0.24 0-0.7 0.02-0.87 0.03v-0.31c0.37-0.01 0.48-0.23 0.48-0.42 0-0.09-0.02-0.13-0.06-0.24l-1.02-2.53-1.12 2.77c-0.06 0.13-0.06 0.14-0.06 0.17 0 0.25 0.39 0.25 0.57 0.25v0.31c-0.3-0.01-0.86-0.03-1.09-0.03-0.26 0-0.66 0.01-0.96 0.03v-0.31c0.63 0 0.66-0.06 0.79-0.36l1.44-3.53c0.06-0.14 0.08-0.19 0.21-0.19s0.17 0.09 0.21 0.19z"/><path d="m311.71 697.47 0.01 0.2c0.06 1.48 0.9 1.73 1.24 1.73 1.03 0 1.13-1.34 1.13-1.73h-2.37l-0.01-0.2h2.79c0.21 0 0.24 0 0.24 0.2 0 0.99-0.53 1.95-1.78 1.95-1.16 0-2.07-1.02-2.07-2.27 0-1.33 1.04-2.29 2.19-2.29 1.22 0 1.66 1.1 1.66 1.29 0 0.1-0.07 0.12-0.13 0.12-0.08 0-0.1-0.06-0.12-0.14-0.35-1.02-1.25-1.02-1.35-1.02-0.5 0-0.9 0.3-1.13 0.66-0.3 0.48-0.3 1.14-0.3 1.5z"/><path d="m319.45 698.59v-2.67c0-0.44-0.11-0.44-0.78-0.44v-0.31c0.35 0.01 0.86 0.03 1.13 0.03 0.26 0 0.78-0.02 1.11-0.03v0.31c-0.66 0-0.77 0-0.77 0.44v1.83c0 1.04 0.71 1.59 1.34 1.59s0.74-0.53 0.74-1.1v-2.32c0-0.44-0.11-0.44-0.78-0.44v-0.31c0.35 0.01 0.86 0.03 1.13 0.03 0.26 0 0.78-0.02 1.12-0.03v0.31c-0.52 0-0.77 0-0.78 0.3v1.89c0 0.86 0 1.17-0.31 1.52-0.14 0.17-0.47 0.37-1.05 0.37-0.72 0-1.19-0.43-1.47-1.04v1.04l-1.41-0.11v-0.31c0.7 0 0.78-0.07 0.78-0.55z"/><path d="m328.58 697.3v0.11l-0.02 0.24-0.02 0.11-0.09 0.33-0.04 0.11-0.05 0.1-0.04 0.1-0.06 0.1-0.18 0.27-0.07 0.08-0.08 0.08-0.07 0.08-0.08 0.08-0.09 0.06-0.08 0.07-0.18 0.12-0.2 0.1-0.1 0.04-0.1 0.03-0.1 0.04-0.33 0.06-0.11 0.01h-0.11l-0.01-0.22c0.44 0 0.87-0.22 1.13-0.64 0.26-0.43 0.26-1.01 0.26-1.38 0-0.36 0-0.9-0.22-1.34s-0.66-0.73-1.16-0.73c-0.43 0-0.87 0.21-1.14 0.66-0.25 0.44-0.25 1.05-0.25 1.41 0 0.38 0 0.92 0.24 1.36 0.27 0.45 0.74 0.66 1.14 0.66l0.01 0.22c-1.25 0-2.21-1.08-2.21-2.32 0-1.29 1.03-2.24 2.2-2.24 1.21 0 2.21 0.97 2.21 2.24z"/><path d="m330.53 698.47v1.09l-1.38-0.11v-0.31c0.7 0 0.77-0.07 0.77-0.55v-2.67c0-0.44-0.1-0.44-0.77-0.44v-0.31c0.39 0.01 0.86 0.03 1.13 0.03 0.4 0 0.87 0 1.27-0.03v0.31h-0.21c-0.74 0-0.76 0.11-0.76 0.47v1.52c0 0.99 0.42 1.87 1.18 1.87 0.07 0 0.09 0 0.11-0.01-0.03-0.01-0.23-0.13-0.23-0.38 0-0.28 0.21-0.43 0.43-0.43 0.18 0 0.43 0.12 0.43 0.44 0 0.31-0.31 0.6-0.74 0.6-0.73 0-1.09-0.66-1.23-1.09z"/><path d="m337.26 697.34v0.29l0.01 0.06 0.01 0.07v0.07l0.05 0.3 0.03 0.1 0.03 0.11 0.03 0.09 0.04 0.1 0.08 0.16 0.05 0.08 0.04 0.07 0.15 0.18 0.05 0.05 0.06 0.04 0.05 0.04 0.06 0.04 0.05 0.04 0.06 0.03 0.06 0.02 0.05 0.02 0.12 0.04 0.05 0.01 0.06 0.01 0.05 0.01h0.1c0.09 0 0.72-0.01 1.07-0.37-0.41-0.03-0.47-0.32-0.47-0.45 0-0.26 0.18-0.46 0.46-0.46 0.26 0 0.46 0.17 0.46 0.47 0 0.67-0.76 1.06-1.53 1.06-1.25 0-2.16-1.07-2.16-2.3 0-1.28 0.98-2.26 2.14-2.26 1.34 0 1.66 1.19 1.66 1.29s-0.1 0.1-0.13 0.1c-0.09 0-0.11-0.04-0.13-0.1-0.29-0.92-0.94-1.04-1.31-1.04-0.53 0-1.4 0.43-1.4 2.03z"/><path d="m345.22 697.3v0.11l-0.02 0.24-0.02 0.11-0.09 0.33-0.04 0.11-0.15 0.3-0.18 0.27-0.07 0.08-0.08 0.08-0.07 0.08-0.08 0.08-0.09 0.06-0.08 0.07-0.09 0.06-0.1 0.06-0.09 0.05-0.1 0.05-0.1 0.04-0.1 0.03-0.1 0.04-0.33 0.06-0.11 0.01h-0.11l-0.01-0.22c0.44 0 0.87-0.22 1.13-0.64 0.25-0.43 0.25-1.01 0.25-1.38 0-0.36 0-0.9-0.22-1.34-0.21-0.44-0.65-0.73-1.15-0.73-0.43 0-0.87 0.21-1.14 0.66-0.25 0.44-0.25 1.05-0.25 1.41 0 0.38 0 0.92 0.24 1.36 0.27 0.45 0.74 0.66 1.14 0.66l0.01 0.22c-1.25 0-2.22-1.08-2.22-2.32 0-1.29 1.04-2.24 2.21-2.24 1.2 0 2.21 0.97 2.21 2.24z"/><path d="m346.6 698.59v-2.67c0-0.44-0.11-0.44-0.77-0.44v-0.31c0.34 0.01 0.85 0.03 1.12 0.03 0.26 0 0.78-0.02 1.12-0.03v0.31c-0.67 0-0.78 0-0.78 0.44v1.83c0 1.04 0.71 1.59 1.35 1.59 0.63 0 0.74-0.53 0.74-1.1v-2.32c0-0.44-0.11-0.44-0.78-0.44v-0.31c0.35 0.01 0.86 0.03 1.13 0.03 0.25 0 0.77-0.02 1.11-0.03v0.31c-0.52 0-0.77 0-0.78 0.3v1.89c0 0.86 0 1.17-0.3 1.52-0.15 0.17-0.47 0.37-1.05 0.37-0.73 0-1.2-0.43-1.48-1.04v1.04l-1.4-0.11v-0.31c0.69 0 0.77-0.07 0.77-0.55z"/><path d="m354.91 698.48 0.02 0.04 0.01 0.03 0.01 0.02 0.01 0.03 0.01 0.02 0.02 0.03 0.01 0.03 0.01 0.02 0.06 0.09 0.02 0.02 0.04 0.06 0.03 0.02 0.02 0.03 0.03 0.02 0.03 0.03 0.03 0.02 0.04 0.02 0.03 0.02 0.08 0.04 0.04 0.01 0.05 0.02 0.04 0.01 0.05 0.01 0.06 0.01h0.02l0.03 0.01h0.12v0.31c-0.23-0.02-0.52-0.03-0.75-0.03-0.24 0-0.7 0.02-0.87 0.03v-0.31c0.37-0.01 0.48-0.23 0.48-0.42 0-0.09-0.02-0.13-0.06-0.24l-1.02-2.53-1.11 2.77c-0.06 0.13-0.06 0.14-0.06 0.17 0 0.25 0.39 0.25 0.57 0.25v0.31c-0.3-0.01-0.86-0.03-1.09-0.03-0.27 0-0.67 0.01-0.97 0.03v-0.31c0.63 0 0.67-0.06 0.8-0.36l1.44-3.53c0.06-0.14 0.08-0.19 0.2-0.19 0.13 0 0.18 0.09 0.22 0.19z"/><path d="m356.85 697.47 0.01 0.2c0.06 1.48 0.9 1.73 1.24 1.73 1.02 0 1.12-1.34 1.12-1.73h-2.36l-0.01-0.2h2.78c0.22 0 0.25 0 0.25 0.2 0 0.99-0.54 1.95-1.78 1.95-1.16 0-2.08-1.02-2.08-2.27 0-1.33 1.05-2.29 2.19-2.29 1.22 0 1.67 1.1 1.67 1.29 0 0.1-0.08 0.12-0.13 0.12-0.09 0-0.11-0.06-0.13-0.14-0.35-1.02-1.24-1.02-1.35-1.02-0.49 0-0.89 0.3-1.12 0.66-0.3 0.48-0.3 1.14-0.3 1.5z"/><path d="m363.03 697.5 0.06 0.08 0.06 0.07 0.06 0.08 0.06 0.07 0.12 0.16 0.06 0.07 0.12 0.16 0.18 0.21 0.02 0.03 0.06 0.06 0.02 0.03 0.03 0.03 0.02 0.03 0.03 0.02 0.02 0.03c0.31 0.35 0.72 0.5 1.19 0.51v0.31c-0.26-0.02-0.56-0.03-0.82-0.03-0.3 0-0.83 0.02-0.96 0.03v-0.31c0.21-0.02 0.29-0.15 0.29-0.3 0-0.16-0.1-0.29-0.15-0.35l-0.62-0.78-0.78 1.01c-0.09 0.1-0.09 0.12-0.09 0.18 0 0.14 0.15 0.23 0.35 0.24v0.31c-0.26-0.01-0.91-0.03-1.07-0.03-0.21 0-0.68 0.01-0.95 0.03v-0.31c0.7 0 0.71-0.01 1.18-0.6l0.98-1.28-0.93-1.19c-0.48-0.57-1.07-0.59-1.28-0.59v-0.31c0.26 0.02 0.57 0.03 0.83 0.03 0.29 0 0.71-0.02 0.94-0.03v0.31c-0.21 0.03-0.29 0.16-0.29 0.31 0 0.21 0.29 0.54 0.9 1.26l0.76-1c0.08-0.1 0.21-0.26 0.21-0.32 0-0.09-0.09-0.24-0.36-0.25v-0.31c0.3 0.01 0.86 0.03 1.08 0.03 0.27 0 0.66-0.01 0.96-0.03v0.31c-0.54 0-0.72 0.02-0.95 0.31z"/></g></g><path d="m-123.55 1201.1v-80.328" fill="none" stroke="#000" stroke-opacity=".31373" stroke-width=".49531"/></g><g fill-rule="evenodd"><g stroke-miterlimit="10.433"><ellipse transform="scale(1,-1)" cx="-123.55" cy="-1179.5" rx=".94273" ry=".94273" fill="#f00" fill-opacity=".31373" opacity=".97" stroke="#000" stroke-linecap="square" stroke-opacity=".31373" stroke-width=".49531"/><ellipse transform="scale(1,-1)" cx="-123.55" cy="-1201" rx=".94273" ry=".94273" fill="#0000fb" fill-opacity=".31373" opacity=".97" stroke="#000" stroke-linecap="square" stroke-opacity=".31373" stroke-width=".49531"/><path d="m-94.378 1230.6-0.01632 0.01-0.0082 0.01h-0.0082l-0.0082 0.01h-0.0082l-0.0082 0.01h-0.0082l-0.0164 0.02h-0.0082l-0.0164 0.02h-0.0082v0.01l-0.0082 0.01h-0.0082v0.01l-0.0164 0.02v0.01l-0.0082 0.01v0.02h-0.0082v0.05c0 0.082 0.03265 0.1306 0.16334 0.1878l4.4836 2.107c0.11433 0.057 0.147 0.057 0.16334 0.057 0.098 0 0.16334-0.074 0.16334-0.1633 0-0.09-0.06537-0.1308-0.15517-0.1716l-4.2794-2.009 4.2631-2.0009c0.16334-0.073 0.1715-0.1388 0.1715-0.1878 0-0.09-0.0735-0.1634-0.16334-0.1634-0.02449 0-0.04081 0-0.147 0.057z" stroke-width="0"/></g><rect transform="scale(1,-1)" x="-118.94" y="-1241.4" width="48.543" height="13.585" fill-opacity=".1401" opacity=".97" stroke="none"/></g></g></g></g></g></g></g></g></g></g></g></g></g></g></g></g></g></g></g><g transform="matrix(.65714 0 0 .65714 -163.7 81.594)" stroke-opacity="1" stroke-width="2.2826" ns0:preamble="default_packages.tex" ns0:text="$x_1 x_2 x f(x_1) f(x_2) f(x)$\n" xml:space="preserve"><g transform="matrix(1.0026 0 0 1.0026 37.987 78.78)" fill-rule="evenodd" stroke="#000" stroke-miterlimit="10.433" stroke-opacity="1" stroke-width="3.4151" ns0:preamble="default_packages.tex" ns0:text="$l(x)$\n" xml:space="preserve"><g transform="matrix(.71844 0 0 .71844 145.04 269.01)" fill-rule="evenodd" stroke="#000" stroke-miterlimit="10.433"><g transform="matrix(1.3845 0 0 1.3845 435.87 -196.36)" stroke-opacity="1" stroke-width="3.4334"><g transform="translate(11.481)" fill-rule="evenodd" stroke="#000" stroke-miterlimit="10.433"><path d="m-148.42 764.63v111.81" fill-opacity=".39216" marker-end="url(#h)" stroke-opacity=".62745" stroke-width=".36605"/><path d="m-154.86 772.2h139.91" fill-opacity=".39216" marker-end="url(#e)" stroke-opacity=".62745" stroke-width=".36605"/><g transform="matrix(.68111 0 0 .68112 -216.69 335.79)" stroke-opacity="1" stroke-width="3.3606" ns0:preamble="default_packages.tex" ns0:text="$x$\n$y$\n$\\langle y \\rangle$\n$\\langle x \\rangle$\n$\\text{Point of averages}$\n$\\text{Regression line}$\n$\\text{SD line}$\n$\\rho(x,y)\\sigma_y$\n$\\sigma_x$\n" xml:space="preserve"><g transform="matrix(1.5 0 0 1.5 69.402 -429.08)" fill-opacity=".62745" fill-rule="evenodd" stroke="#000" stroke-miterlimit="10.433" stroke-opacity="1" stroke-width="0" ns0:preamble="default_packages.tex" ns0:text="$x f$\n" xml:space="preserve"><path d="m150.06 709.38 0.01 0.02 0.01 0.03v0.03l0.02 0.08 0.02 0.04 0.01 0.04 0.01 0.05 0.02 0.04 0.1 0.25 0.09 0.15 0.03 0.04 0.03 0.05 0.04 0.04 0.03 0.05 0.04 0.04 0.05 0.04 0.04 0.03 0.05 0.03 0.04 0.03 0.03 0.01 0.03 0.02 0.02 0.01 0.06 0.02h0.03l0.02 0.01 0.03 0.01h0.07l0.03 0.01h0.03c0.05 0 0.29 0 0.5-0.13-0.28-0.05-0.48-0.3-0.48-0.54 0-0.16 0.11-0.35 0.38-0.35 0.22 0 0.54 0.18 0.54 0.58 0 0.52-0.59 0.66-0.93 0.66-0.58 0-0.93-0.53-1.05-0.76-0.25 0.66-0.78 0.76-1.07 0.76-1.04 0-1.61-1.29-1.61-1.53 0-0.1 0.1-0.1 0.12-0.1 0.08 0 0.11 0.02 0.13 0.11 0.34 1.05 1 1.3 1.34 1.3 0.19 0 0.53-0.09 0.53-0.67 0-0.31-0.17-0.97-0.53-2.36-0.16-0.62-0.51-1.04-0.95-1.04-0.06 0-0.29 0-0.5 0.13 0.25 0.05 0.47 0.26 0.47 0.54 0 0.27-0.22 0.35-0.37 0.35-0.3 0-0.55-0.26-0.55-0.58 0-0.46 0.5-0.65 0.94-0.65 0.66 0 1.02 0.69 1.05 0.75 0.11-0.37 0.47-0.75 1.07-0.75 1.03 0 1.6 1.28 1.6 1.53 0 0.1-0.09 0.1-0.12 0.1-0.09 0-0.11-0.05-0.13-0.11-0.33-1.07-1.01-1.31-1.33-1.31-0.39 0-0.55 0.32-0.55 0.66 0 0.22 0.06 0.44 0.17 0.87z"/><path d="m17.293 815.97h0.85c0.2 0 0.3 0 0.3 0.2 0 0.11-0.1 0.11-0.27 0.11h-0.82l0.21 1.13c0.04 0.21 0.17 0.91 0.23 1.03 0.09 0.19 0.26 0.34 0.47 0.34 0.04 0 0.3 0 0.49-0.18-0.44-0.04-0.54-0.39-0.54-0.53 0-0.23 0.18-0.35 0.37-0.35 0.26 0 0.55 0.22 0.55 0.59 0 0.46-0.46 0.69-0.87 0.69-0.34 0-0.97-0.18-1.26-1.16-0.06-0.21-0.09-0.31-0.33-1.56h-0.69c-0.19 0-0.3 0-0.3-0.19 0-0.12 0.09-0.12 0.28-0.12h0.66l-0.75-3.93c-0.18-0.96-0.35-1.86-0.87-1.86-0.04 0-0.29 0-0.48 0.18 0.46 0.03 0.55 0.38 0.55 0.53 0 0.23-0.18 0.35-0.37 0.35-0.26 0-0.55-0.22-0.55-0.6 0-0.44 0.44-0.68 0.85-0.68 0.55 0 0.95 0.58 1.13 0.96 0.32 0.63 0.55 1.83 0.56 1.9z"/></g></g></g><g transform="matrix(1.2202 0 0 -1.2202 -305.84 1230.5)"><g transform="matrix(1.2506,0,0,-1.2506,-72.165,1072.2)" fill-rule="evenodd" stroke="#000" stroke-miterlimit="10.433" ns0:preamble="default_packages.tex" ns0:text="$x$\n$y$\n" xml:space="preserve"/></g></g><g transform="matrix(1.3232 0 0 1.3232 36.65 113)" fill-opacity=".39216" stroke-opacity=".31373" stroke-width="0" ns0:preamble="default_packages.tex" ns0:text="$\\text{Concave}$\n" xml:space="preserve"><path d="m149.27 710.52v-0.19l0.02-0.19 0.02-0.18 0.03-0.18 0.04-0.18 0.05-0.18 0.06-0.16 0.06-0.17 0.07-0.16 0.08-0.16 0.18-0.3 0.1-0.14 0.1-0.13 0.11-0.13 0.12-0.13 0.12-0.12 0.13-0.11 0.13-0.1 0.14-0.1 0.28-0.18 0.15-0.08 0.16-0.07 0.15-0.06 0.16-0.06 0.16-0.04 0.17-0.04 0.34-0.06 0.17-0.01h0.17c1.63 0 2.6 1.38 2.6 2.53 0 0.1 0 0.17-0.13 0.17-0.11 0-0.11-0.06-0.12-0.16-0.08-1.42-1.14-2.24-2.23-2.24-0.61 0-2.56 0.34-2.56 3.3 0 2.97 1.94 3.31 2.55 3.31 1.09 0 1.97-0.9 2.17-2.35 0.02-0.14 0.02-0.17 0.16-0.17 0.16 0 0.16 0.03 0.16 0.24v2.35c0 0.17 0 0.24-0.11 0.24-0.04 0-0.08 0-0.16-0.12l-0.49-0.74c-0.37 0.36-0.88 0.86-1.84 0.86-1.86 0-3.47-1.58-3.47-3.61z"/><path d="m160.6 709.25v0.12l-0.01 0.12-0.01 0.11-0.02 0.12-0.09 0.33-0.04 0.1-0.05 0.1-0.04 0.1-0.06 0.1-0.06 0.09-0.06 0.1-0.06 0.08-0.07 0.09-0.08 0.08-0.07 0.08-0.08 0.07-0.09 0.07-0.08 0.06-0.09 0.07-0.09 0.05-0.2 0.1-0.2 0.08-0.1 0.03-0.11 0.03-0.11 0.02-0.33 0.03-0.01-0.22c0.44 0 0.87-0.22 1.13-0.65s0.26-1 0.26-1.38c0-0.36 0-0.89-0.22-1.33-0.22-0.45-0.66-0.74-1.16-0.74-0.43 0-0.87 0.21-1.14 0.67-0.25 0.44-0.25 1.04-0.25 1.4 0 0.39 0 0.92 0.24 1.36 0.27 0.46 0.74 0.67 1.14 0.67l0.01 0.22c-1.25 0-2.21-1.09-2.21-2.33 0-1.28 1.03-2.23 2.2-2.23 1.21 0 2.21 0.97 2.21 2.23z"/><path d="m161.99 710.54v-2.66c0-0.45-0.11-0.45-0.78-0.45v-0.3c0.35 0.01 0.86 0.03 1.12 0.03s0.78-0.02 1.12-0.03v0.3c-0.67 0-0.78 0-0.78 0.45v1.83c0 1.03 0.71 1.59 1.35 1.59 0.63 0 0.74-0.54 0.74-1.1v-2.32c0-0.45-0.11-0.45-0.78-0.45v-0.3c0.35 0.01 0.86 0.03 1.13 0.03 0.26 0 0.77-0.02 1.11-0.03v0.3c-0.51 0-0.76 0-0.77 0.3v1.9c0 0.85 0 1.16-0.31 1.52-0.14 0.17-0.47 0.37-1.05 0.37-0.73 0-1.2-0.43-1.48-1.05v1.05l-1.4-0.11v-0.31c0.69 0 0.78-0.07 0.78-0.56z"/><path d="m167.59 709.29v0.15l0.01 0.07v0.14l0.01 0.07 0.06 0.36 0.03 0.11 0.06 0.2 0.04 0.09 0.03 0.09 0.05 0.08 0.04 0.07 0.1 0.14 0.05 0.06 0.15 0.15 0.06 0.04 0.05 0.04 0.12 0.06 0.05 0.03 0.12 0.04 0.05 0.01 0.06 0.02 0.05 0.01h0.05l0.06 0.01h0.05c0.09 0 0.71-0.01 1.06-0.37-0.4-0.03-0.46-0.33-0.46-0.46 0-0.26 0.17-0.45 0.45-0.45 0.26 0 0.46 0.16 0.46 0.46 0 0.68-0.76 1.07-1.52 1.07-1.25 0-2.17-1.08-2.17-2.31 0-1.27 0.99-2.25 2.15-2.25 1.33 0 1.65 1.19 1.65 1.29s-0.1 0.1-0.13 0.1c-0.09 0-0.11-0.04-0.13-0.1-0.29-0.93-0.93-1.05-1.3-1.05-0.53 0-1.41 0.43-1.41 2.03z"/><path d="m174.17 707.88 0.01-0.04v-0.03l0.03-0.12 0.01-0.03 0.01-0.04 0.01-0.03 0.02-0.04 0.02-0.03 0.01-0.04 0.04-0.06 0.02-0.04 0.03-0.03 0.02-0.03 0.08-0.08 0.06-0.04 0.03-0.03 0.03-0.02 0.04-0.01 0.03-0.02 0.04-0.01 0.03-0.02 0.04-0.01h0.04l0.04-0.01h0.09c0.21 0 0.82 0.13 0.82 0.94v0.56h-0.25v-0.56c0-0.58-0.25-0.64-0.36-0.64-0.33 0-0.37 0.45-0.37 0.5v1.99c0 0.41 0 0.8-0.36 1.17-0.39 0.39-0.89 0.55-1.36 0.55-0.82 0-1.51-0.47-1.51-1.13 0-0.29 0.2-0.46 0.46-0.46 0.28 0 0.46 0.19 0.46 0.45 0 0.12-0.05 0.45-0.51 0.46 0.27 0.35 0.76 0.46 1.07 0.46 0.49 0 1.06-0.39 1.06-1.27v-1.57c0-0.95-0.72-1.29-1.17-1.29-0.48 0-0.89 0.35-0.89 0.85 0 0.55 0.42 1.37 2.06 1.43v0.21c-0.51-0.03-1.2-0.06-1.83-0.36-0.75-0.34-1-0.85-1-1.29 0-0.81 0.97-1.05 1.6-1.05 0.65 0 1.11 0.39 1.3 0.86z"/><path d="m179.7 710.43 0.01 0.02 0.01 0.03 0.01 0.02 0.01 0.03 0.01 0.02 0.01 0.03 0.02 0.02 0.01 0.03 0.02 0.03 0.01 0.03 0.02 0.02 0.06 0.09 0.1 0.1 0.06 0.04 0.04 0.03 0.03 0.02 0.04 0.02 0.04 0.01 0.04 0.02 0.05 0.01 0.04 0.02 0.05 0.01 0.06 0.01h0.08l0.03 0.01h0.06v0.31c-0.23-0.02-0.52-0.03-0.75-0.03-0.24 0-0.7 0.02-0.87 0.03v-0.31c0.37-0.01 0.48-0.24 0.48-0.43 0-0.09-0.02-0.13-0.06-0.24l-1.02-2.53-1.11 2.77c-0.06 0.13-0.06 0.15-0.06 0.17 0 0.26 0.39 0.26 0.57 0.26v0.31c-0.3-0.01-0.86-0.03-1.09-0.03-0.27 0-0.67 0.01-0.97 0.03v-0.31c0.63 0 0.67-0.06 0.8-0.37l1.44-3.53c0.06-0.13 0.08-0.18 0.21-0.18s0.16 0.08 0.21 0.18z"/><path d="m181.64 709.42 0.01 0.21c0.06 1.48 0.9 1.73 1.24 1.73 1.02 0 1.12-1.34 1.12-1.73h-2.36l-0.01-0.21h2.78c0.22 0 0.25 0 0.25 0.21 0 0.98-0.54 1.95-1.78 1.95-1.16 0-2.08-1.03-2.08-2.27 0-1.33 1.05-2.29 2.2-2.29 1.21 0 1.66 1.1 1.66 1.29 0 0.1-0.08 0.12-0.13 0.12-0.09 0-0.11-0.06-0.13-0.14-0.35-1.03-1.25-1.03-1.34-1.03-0.5 0-0.9 0.3-1.13 0.67-0.3 0.48-0.3 1.13-0.3 1.49z"/></g></g></g></g></g></g></g></g></g></g></g></g></g></g></g></g></g></g></g></g></g></g></g></g>
  </g>
 </g>
 <g transform="matrix(1.5 0 0 -1.5 -15.178 1155.7)" fill-opacity=".78431" fill-rule="evenodd" stroke="#000" stroke-miterlimit="10.433" stroke-width="0" ns0:preamble="default_packages.tex" ns0:text="$\\tilde{x}$\n" xml:space="preserve"><path d="m219.1 665.57-0.11748 0.11014c0-7e-3 -0.27167-0.35244-0.59474-0.35244-0.16887 0-0.35244 0.11013-0.47726 0.18356-0.19825 0.11747-0.33041 0.16888-0.45523 0.16888-0.27902 0-0.41853-0.16154-0.79299-0.56537l0.11748-0.11014c0 7e-3 0.27901 0.3451 0.60208 0.3451 0.16888 0 0.35244-0.11015 0.47726-0.17623 0.19825-0.11747 0.33042-0.16887 0.45523-0.16887 0.27168 0 0.41852 0.15419 0.78565 0.56537z"/><path d="m218.04 663.01 7e-3 0.0147 7e-3 0.022v0.0221l0.014 0.0588 0.0147 0.0294 7e-3 0.0294 7e-3 0.0367 0.0147 0.0294 0.0441 0.1101 0.0147 0.0368 0.0147 0.0367 0.0221 0.0368 0.0442 0.0734 0.0221 0.0294 0.0221 0.0367 0.0294 0.0294 0.0221 0.0367 0.0294 0.0294 0.0367 0.0294 0.0294 0.0221 0.0367 0.022 0.0294 0.0221 0.0221 7e-3 0.0221 0.0147 0.0147 7e-3 0.0442 0.014h0.0221l0.0147 7e-3 0.0221 7e-3h0.0515l0.0221 7e-3h0.0221c0.0368 0 0.21294 0 0.36712-0.0955-0.20558-0.0367-0.35243-0.22026-0.35243-0.39649 0-0.11747 0.0808-0.25698 0.27901-0.25698 0.16153 0 0.39649 0.13216 0.39649 0.42586 0 0.38181-0.4332 0.4846-0.68285 0.4846-0.42586 0-0.68285-0.38915-0.77095-0.55802-0.18356 0.4846-0.57272 0.55802-0.78564 0.55802-0.76362 0-1.1821-0.94718-1.1821-1.1234 0-0.0734 0.0734-0.0734 0.0881-0.0734 0.0587 0 0.0808 0.0147 0.0955 0.0808 0.24965 0.77096 0.73425 0.95453 0.98389 0.95453 0.13951 0 0.38915-0.0661 0.38915-0.49196 0-0.22761-0.12481-0.71222-0.38915-1.7328-0.11748-0.45523-0.37446-0.76361-0.69753-0.76361-0.044 0-0.21294 0-0.36712 0.0955 0.18355 0.0367 0.34509 0.19089 0.34509 0.39649 0 0.19824-0.16154 0.25698-0.27167 0.25698-0.22028 0-0.40383-0.1909-0.40383-0.42586 0-0.33776 0.36712-0.47726 0.69019-0.47726 0.4846 0 0.74893 0.50663 0.77095 0.55068 0.0808-0.27166 0.3451-0.55068 0.78565-0.55068 0.75627 0 1.1748 0.93984 1.1748 1.1234 0 0.0734-0.0661 0.0734-0.0881 0.0734-0.0661 0-0.0808-0.0367-0.0955-0.0808-0.24231-0.78564-0.74159-0.96186-0.97655-0.96186-0.28636 0-0.40384 0.23496-0.40384 0.48461 0 0.16152 0.044 0.32306 0.12482 0.63878z"/></g>
</svg>
