<?xml version="1.0" encoding="UTF-8"?>
<svg width="100mm" height="100mm" version="1.1" viewBox="0 0 126.21 137.12" xmlns="http://www.w3.org/2000/svg" xmlns:cc="http://creativecommons.org/ns#" xmlns:dc="http://purl.org/dc/elements/1.1/" xmlns:ns6="http://www.iki.fi/pav/software/textext/" xmlns:rdf="http://www.w3.org/1999/02/22-rdf-syntax-ns#">
 <defs>
  <marker id="marker1225" overflow="visible" orient="auto">
   <path transform="matrix(-.4 0 0 -.4 -4 0)" d="m0 0 5-5-17.5 5 17.5 5z" fill-opacity=".32576" fill-rule="evenodd" stroke="#000" stroke-opacity=".32576" stroke-width="1pt"/>
  </marker>
  <marker id="Arrow1Mend" overflow="visible" orient="auto">
   <path transform="matrix(-.4 0 0 -.4 -4 0)" d="m0 0 5-5-17.5 5 17.5 5z" fill-opacity=".32576" fill-rule="evenodd" stroke="#000" stroke-opacity=".32576" stroke-width="1pt"/>
  </marker>
  <marker id="marker1225-7" overflow="visible" orient="auto">
   <path transform="matrix(-.4 0 0 -.4 -4 0)" d="m0 0 5-5-17.5 5 17.5 5z" fill-opacity=".32576" fill-rule="evenodd" stroke="#000" stroke-opacity=".32576" stroke-width="1pt"/>
  </marker>
 </defs>
 <metadata>
  <rdf:RDF>
   <cc:Work rdf:about="">
    <dc:format>image/svg+xml</dc:format>
    <dc:type rdf:resource="http://purl.org/dc/dcmitype/StillImage"/>
    <dc:title/>
   </cc:Work>
  </rdf:RDF>
 </metadata>
 <g transform="translate(-50.236 -10.348)">
  <g fill="#004ca0" fill-opacity=".08" fill-rule="evenodd">
   <ellipse cx="119.81" cy="128.61" rx="16.335" ry="8.2515"/>
   <ellipse cx="119.3" cy="129.06" rx="10.547" ry="5.595"/>
   <ellipse cx="121.59" cy="129.14" rx="23.296" ry="10.576"/>
   <ellipse cx="122.43" cy="128.95" rx="28.18" ry="13.465"/>
   <ellipse cx="123.8" cy="128.51" rx="32.717" ry="16.669"/>
   <ellipse cx="119.14" cy="129.29" rx="5.5429" ry="2.4396"/>
  </g>
  <g fill="none">
   <path d="m97.898 64.87c-0.06393 0.85334 1.2345 2.5554 3.6255 3.0157 8.176 1.5736 27.792 2.6229 38.117-0.22387 2.6859-0.74048 5.1025-1.7838 5.3496-3.4883" stroke="#004ca0" stroke-opacity=".43" stroke-width=".95"/>
   <path d="m97.898 64.87c0.03518-0.49898 2.055-1.8843 4.4474-2.2981 8.1806-1.4149 27.034-3.6637 37.367-1.112 2.7147 0.67034 5.4745 1.2931 5.2779 2.7136" stroke="#004ca0" stroke-opacity=".19697" stroke-width=".95"/>
   <path d="m76.721 104.73h98.465" marker-end="url(#Arrow1Mend)" stroke="#000" stroke-opacity=".32576" stroke-width=".63754"/>
   <path d="m77.17 104.49-26.303 34.518" marker-end="url(#marker1225)" stroke="#000" stroke-opacity=".32576" stroke-width=".5281"/>
   <path d="m89.02 29.487c0.10809 0.46342 1.628 8.0124 1.893 9.3091 4.2093 20.602 15.192 56.597 27.576 56.743" stroke="#004ca0" stroke-opacity=".43182" stroke-width=".57"/>
   <path d="m158.65 29.453c-4.4708 21.506-26.703 66.233-40.165 66.086" stroke="#004ca0" stroke-opacity=".43182" stroke-width=".57"/>
   <path d="m77.06 105.06-0.18578-77.713" marker-end="url(#marker1225-7)" stroke="#000" stroke-opacity=".32576" stroke-width=".66146"/>
   <g stroke="#004ca0">
    <path d="m103.61 78.753c-0.0447 0.54994 0.86346 1.6469 2.5358 1.9434 5.7186 1.0141 19.439 1.6903 26.661-0.14428 1.8786-0.4772 3.5689-1.1496 3.7417-2.248" stroke-opacity=".43182" stroke-width=".97"/>
    <path d="m103.61 78.753c0.0381-0.55608 1.4965-1.7209 3.1633-2.1339 5.6993-1.4123 18.835-3.6648 26.033-1.1099 1.8723 0.66456 3.9056 1.459 3.7419 2.795" stroke-opacity=".19697" stroke-width=".97"/>
    <g stroke-width=".98">
     <path d="m108.47 87.125c-0.0297 0.53436 0.5716 1.6002 1.6787 1.8884 3.7856 0.98541 12.868 1.6424 17.649-0.14018 1.2436-0.46369 2.3625-1.117 2.4769-2.1844" stroke-opacity=".43182"/>
     <path d="m108.47 87.125c0.0893-0.6391 1.0028-1.3546 2.1099-1.6461 3.7856-0.99672 12.465-2.4768 17.246-0.67371 1.2436 0.46901 2.5534 0.97306 2.4485 1.8837" stroke-opacity=".19697"/>
     <path d="m112.93 92.586c-0.0166 0.36058 0.32088 1.0798 0.94238 1.2742 2.1252 0.66494 7.2239 1.1083 9.9079-0.09458 0.69814-0.31288 1.3263-0.75373 1.3905-1.474" stroke-opacity=".43182"/>
     <path d="m112.98 92.59c0.014-0.34298 0.53333-1.0563 1.1502-1.311 2.1094-0.87108 6.9711-2.2604 9.6351-0.68459 0.69296 0.40989 1.3006 0.66656 1.3644 1.6101" stroke-opacity=".19697"/>
    </g>
    <path d="m94.289 52.087c-0.07668 0.90105 1.5952 2.7029 4.4637 3.1888 9.8086 1.6616 33.341 2.7695 45.729-0.23639 3.2222-0.78187 6.1214-1.8835 6.4178-3.6833" stroke-opacity=".43182" stroke-width=".9"/>
    <path d="m94.289 52.087c0.05613-0.59779 2.6601-2.1796 5.5213-2.6507 9.7835-1.611 32.333-4.1805 44.689-1.2661 3.214 0.75807 6.6712 1.4867 6.4004 3.186" stroke-opacity=".19697" stroke-width=".9"/>
    <path d="m90.692 36.801c-0.08921 1.0214 1.9284 3.0403 5.2653 3.5911 11.41 1.8835 38.786 3.1393 53.196-0.26795 3.7484-0.88626 7.3244-2.1027 7.6692-4.1428" stroke-opacity=".43182" stroke-width=".848"/>
    <path d="m90.692 36.801c0.07598-0.9417 3.147-2.9796 6.4776-3.679 11.389-2.3917 37.638-6.2062 52.021-1.8796 3.7413 1.1254 8.0185 2.3723 7.6318 4.7391" stroke-opacity=".19697" stroke-width=".848"/>
   </g>
  </g>
  <g fill="#a60000" fill-opacity=".5947" fill-rule="evenodd">
   <ellipse cx="151.51" cy="33.521" rx="1.519" ry="1.5662"/>
   <ellipse cx="114.41" cy="81.39" rx="1.7151" ry="1.7588"/>
   <circle cx="101.31" cy="63.419" r="1.4233"/>
   <ellipse cx="114.84" cy="136.55" rx="2.3229" ry="1.9125"/>
   <ellipse cx="152.24" cy="120.24" rx="1.6817" ry="1.3499"/>
   <ellipse cx="104.26" cy="122.02" rx="1.5406" ry="1.2777"/>
  </g>
  <g transform="matrix(.6541 0 0 .6541 114.5 142.68)" ns6:alignment="middle center" ns6:inkscapeversion="1.0" ns6:jacobian_sqrt="0.352778" ns6:pdfconverter="inkscape" ns6:preamble="C:\\Users\\User\\AppData\\Roaming\\inkscape\\extensions\\textext\\default_packages.tex" ns6:scale="1.0" ns6:texconverter="pdflatex" ns6:text="$$\\mathbf{x}_1 \\mathbf{x}_2 \\mathbf{x}_3$$" ns6:version="1.1.0">
   <defs id="id-d6f3c813-11d4-41b8-99ae-4ed737992fbe"></defs>
   <g transform="translate(-290.07 -142.3)">
    <g transform="translate(-4.4133 1.3966)">
     <g transform="translate(289.85,146.72)">
      <path id="id-f73ed9fc-4975-4242-9349-1398b4f56eba" d="m3.4531-2.4531 1.1562-1.2969c0.14062-0.14062 0.20312-0.20312 1.0156-0.20312v-0.46875c-0.34375 0.015625-0.85938 0.03125-0.90625 0.03125-0.25 0-0.75-0.03125-1.0312-0.03125v0.46875c0.14062 0 0.26562 0.015625 0.375 0.078125-0.03125 0.0625-0.03125 0.09375-0.078125 0.125l-0.82812 0.9375-0.98438-1.1406h0.40625v-0.46875c-0.26562 0-0.89062 0.03125-1.2188 0.03125-0.3125 0-0.76562-0.03125-1.0938-0.03125v0.46875h0.71875l1.5469 1.8281-1.3125 1.4688c-0.15625 0.1875-0.51562 0.1875-1 0.1875v0.46875c0.34375-0.015625 0.875-0.03125 0.92188-0.03125 0.25 0 0.82812 0.015625 1.0156 0.03125v-0.46875c-0.17188 0-0.35938-0.046875-0.35938-0.10938 0-0.015625 0-0.015625 0.0625-0.09375l0.96875-1.0938 1.0938 1.2969h-0.39062v0.46875c0.26562-0.015625 0.875-0.03125 1.2031-0.03125 0.3125 0 0.76562 0.015625 1.0938 0.03125v-0.46875h-0.70312z"/>
     </g>
    </g>
    <g id="id-a4147734-798c-41bf-bc33-04cf5141133d" transform="translate(-4.4133 1.3966)">
     <g transform="translate(295.9 148.21)">
      <path d="m2.3281-4.4375c0-0.1875 0-0.1875-0.20312-0.1875-0.45312 0.4375-1.0781 0.4375-1.3594 0.4375v0.25c0.15625 0 0.625 0 1-0.1875v3.5469c0 0.23438 0 0.32812-0.6875 0.32812h-0.26562v0.25c0.125 0 0.98438-0.03125 1.2344-0.03125 0.21875 0 1.0938 0.03125 1.25 0.03125v-0.25h-0.26562c-0.70312 0-0.70312-0.09375-0.70312-0.32812z"/>
     </g>
    </g>
    <g transform="translate(-43.127 -32.848)">
     <g transform="translate(300.37 146.72)">
      <path d="m7.9564-5.7713 1.1562-1.2969c0.14062-0.14062 0.20312-0.20312 1.0156-0.20312v-0.46875c-0.34375 0.015625-0.85938 0.03125-0.90625 0.03125-0.25 0-0.75-0.03125-1.0312-0.03125v0.46875c0.14062 0 0.26562 0.015625 0.375 0.078125-0.03125 0.0625-0.03125 0.09375-0.078125 0.125l-0.82812 0.9375-0.98438-1.1406h0.40625v-0.46875c-0.26562 0-0.89062 0.03125-1.2188 0.03125-0.3125 0-0.76562-0.03125-1.0938-0.03125v0.46875h0.71875l1.5469 1.8281-1.3125 1.4688c-0.15625 0.1875-0.51562 0.1875-1 0.1875v0.46875c0.34375-0.015625 0.875-0.03125 0.92188-0.03125 0.25 0 0.82812 0.015625 1.0156 0.03125v-0.46875c-0.17188 0-0.35938-0.046875-0.35938-0.10938 0-0.015625 0-0.015625 0.0625-0.09375l0.96875-1.0938 1.0938 1.2969h-0.39062v0.46875c0.26562-0.015625 0.875-0.03125 1.2031-0.03125 0.3125 0 0.76563 0.015625 1.0938 0.03125v-0.46875h-0.70313z"/>
     </g>
    </g>
    <g id="id-68d64169-0fe0-4723-89fb-337b5aab926e" transform="translate(-43.127 -32.848)">
     <g transform="translate(306.41 148.21)">
      <path d="m8.0189-4.5838h-0.23438c-0.015625 0.15625-0.09375 0.5625-0.1875 0.625-0.046875 0.046875-0.57812 0.046875-0.6875 0.046875h-1.2812c0.73438-0.64062 0.98438-0.84375 1.3906-1.1719 0.51562-0.40625 1-0.84375 1-1.5 0-0.84375-0.73438-1.3594-1.625-1.3594-0.85938 0-1.4531 0.60938-1.4531 1.25 0 0.34375 0.29688 0.39062 0.375 0.39062 0.15625 0 0.35938-0.125 0.35938-0.375 0-0.125-0.046875-0.375-0.40625-0.375 0.21875-0.48438 0.6875-0.64062 1.0156-0.64062 0.70312 0 1.0625 0.54688 1.0625 1.1094 0 0.60938-0.4375 1.0781-0.65625 1.3281l-1.6719 1.6719c-0.078125 0.0625-0.078125 0.078125-0.078125 0.26562h2.875z"/>
     </g>
    </g>
    <g id="id-8ce4e5cf-b443-41c5-bf15-bc171a6925bd" transform="translate(40.502 -32.681)">
     <g transform="translate(310.88 146.72)">
      <path d="m2.671-5.8608 1.1562-1.2969c0.14062-0.14062 0.20312-0.20312 1.0156-0.20312v-0.46875c-0.34375 0.015625-0.85938 0.03125-0.90625 0.03125-0.25 0-0.75-0.03125-1.0312-0.03125v0.46875c0.14062 0 0.26562 0.015625 0.375 0.078125-0.03125 0.0625-0.03125 0.09375-0.078125 0.125l-0.82812 0.9375-0.98438-1.1406h0.40625v-0.46875c-0.26562 0-0.89062 0.03125-1.2188 0.03125-0.3125 0-0.76562-0.03125-1.0938-0.03125v0.46875h0.71875l1.5469 1.8281-1.3125 1.4688c-0.15625 0.1875-0.51562 0.1875-1 0.1875v0.46875c0.34375-0.015625 0.875-0.03125 0.92188-0.03125 0.25 0 0.82812 0.015625 1.0156 0.03125v-0.46875c-0.17188 0-0.35938-0.046875-0.35938-0.10938 0-0.015625 0-0.015625 0.0625-0.09375l0.96875-1.0938 1.0938 1.2969h-0.39062v0.46875c0.26562-0.015625 0.875-0.03125 1.2031-0.03125 0.3125 0 0.76562 0.015625 1.0938 0.03125v-0.46875h-0.70312z"/>
     </g>
    </g>
    <g transform="translate(40.502 -32.681)">
     <g transform="translate(316.93 148.21)">
      <path d="m1.1242-5.7358c0.54688 0 0.9375 0.375 0.9375 1.125 0 0.85938-0.51562 1.125-0.90625 1.125-0.28125 0-0.90625-0.078125-1.1875-0.5 0.32812 0 0.40625-0.23438 0.40625-0.39062 0-0.21875-0.17188-0.375-0.39062-0.375-0.1875 0-0.39062 0.125-0.39062 0.40625 0 0.65625 0.71875 1.0781 1.5625 1.0781 0.96875 0 1.6406-0.65625 1.6406-1.3438 0-0.54688-0.4375-1.0938-1.2031-1.25 0.71875-0.26562 0.98438-0.78125 0.98438-1.2188 0-0.54688-0.625-0.95312-1.4062-0.95312-0.76562 0-1.3594 0.375-1.3594 0.9375 0 0.23438 0.15625 0.35938 0.35938 0.35938 0.21875 0 0.35938-0.15625 0.35938-0.34375 0-0.20312-0.14062-0.35938-0.35938-0.375 0.25-0.29688 0.71875-0.375 0.98438-0.375 0.3125 0 0.75 0.15625 0.75 0.75 0 0.29688-0.09375 0.625-0.28125 0.82812-0.21875 0.26562-0.42188 0.28125-0.76562 0.3125-0.17188 0.015625-0.1875 0.015625-0.21875 0.015625-0.015625 0-0.078125 0.015625-0.078125 0.09375 0 0.09375 0.0625 0.09375 0.1875 0.09375z"/>
     </g>
    </g>
   </g>
  </g>
  <g transform="matrix(.68126 0 0 .68126 86.312 10.348)" ns6:alignment="middle center" ns6:inkscapeversion="1.0" ns6:jacobian_sqrt="0.352778" ns6:pdfconverter="inkscape" ns6:preamble="C:\\Users\\User\\AppData\\Roaming\\inkscape\\extensions\\textext\\default_packages.tex" ns6:scale="1.0" ns6:texconverter="pdflatex" ns6:text="$$f(\\mathbf{x_1} )&lt;f(\\mathbf{x_2} )&lt;f(\\mathbf{x_3} )$$" ns6:version="1.1.0">
   <defs></defs>
   <g id="id-16a43b02-5079-4c68-b643-68db487413fd" transform="translate(-255.74 -139.24)">
    <g id="id-9086b255-e113-443f-90d2-e9ed6251a08e">
     <g transform="translate(255.2 146.72)">
      <path id="id-2be8499a-54be-404f-8378-3207311b2eef" d="m3.6562-3.9844h0.85938c0.20312 0 0.29688 0 0.29688-0.20312 0-0.10938-0.09375-0.10938-0.26562-0.10938h-0.82812l0.20312-1.1406c0.046875-0.20312 0.1875-0.90625 0.25-1.0312 0.078125-0.1875 0.25-0.34375 0.46875-0.34375 0.03125 0 0.29688 0 0.48438 0.1875-0.4375 0.03125-0.54688 0.39062-0.54688 0.53125 0 0.23438 0.1875 0.35938 0.375 0.35938 0.26562 0 0.54688-0.23438 0.54688-0.60938 0-0.45312-0.45312-0.6875-0.85938-0.6875-0.34375 0-0.96875 0.1875-1.2656 1.1719-0.0625 0.20312-0.09375 0.3125-0.32812 1.5625h-0.6875c-0.20312 0-0.3125 0-0.3125 0.1875 0 0.125 0.09375 0.125 0.28125 0.125h0.65625l-0.73438 3.9375c-0.1875 0.96875-0.35938 1.875-0.875 1.875-0.046875 0-0.28125 0-0.48438-0.1875 0.46875-0.03125 0.5625-0.39062 0.5625-0.53125 0-0.23438-0.1875-0.35938-0.375-0.35938-0.26562 0-0.54688 0.23438-0.54688 0.60938 0 0.4375 0.4375 0.6875 0.84375 0.6875 0.54688 0 0.95312-0.59375 1.125-0.96875 0.32812-0.625 0.54688-1.8281 0.5625-1.9062z"/>
     </g>
    </g>
    <g transform="translate(261.16 146.72)">
     <path d="m3.2969 2.3906c0-0.03125 0-0.046875-0.17188-0.21875-1.2344-1.25-1.5625-3.1406-1.5625-4.6719 0-1.7344 0.375-3.4688 1.6094-4.7031 0.125-0.125 0.125-0.14062 0.125-0.17188 0-0.078125-0.03125-0.10938-0.09375-0.10938-0.10938 0-1 0.6875-1.5938 1.9531-0.5 1.0938-0.625 2.2031-0.625 3.0312 0 0.78125 0.10938 1.9844 0.65625 3.125 0.60938 1.2188 1.4531 1.875 1.5625 1.875 0.0625 0 0.09375-0.03125 0.09375-0.10938z"/>
    </g>
    <g id="id-598f378c-3d06-4fe0-b5bc-0264546f2fff">
     <g transform="translate(265.03 146.72)">
      <path id="id-5c0011f0-c3b7-4366-8425-d733d1277e0a" d="m3.4531-2.4531 1.1562-1.2969c0.14062-0.14062 0.20312-0.20312 1.0156-0.20312v-0.46875c-0.34375 0.015625-0.85938 0.03125-0.90625 0.03125-0.25 0-0.75-0.03125-1.0312-0.03125v0.46875c0.14062 0 0.26562 0.015625 0.375 0.078125-0.03125 0.0625-0.03125 0.09375-0.078125 0.125l-0.82812 0.9375-0.98438-1.1406h0.40625v-0.46875c-0.26562 0-0.89062 0.03125-1.2188 0.03125-0.3125 0-0.76562-0.03125-1.0938-0.03125v0.46875h0.71875l1.5469 1.8281-1.3125 1.4688c-0.15625 0.1875-0.51562 0.1875-1 0.1875v0.46875c0.34375-0.015625 0.875-0.03125 0.92188-0.03125 0.25 0 0.82812 0.015625 1.0156 0.03125v-0.46875c-0.17188 0-0.35938-0.046875-0.35938-0.10938 0-0.015625 0-0.015625 0.0625-0.09375l0.96875-1.0938 1.0938 1.2969h-0.39062v0.46875c0.26562-0.015625 0.875-0.03125 1.2031-0.03125 0.3125 0 0.76562 0.015625 1.0938 0.03125v-0.46875h-0.70312z"/>
     </g>
    </g>
    <g id="id-b19db21c-a835-44e8-9b15-447f238d4b8b">
     <g transform="translate(271.08 148.21)">
      <path id="id-9156098a-b223-48ab-a480-aa90d30fa74d" d="m2.7812-4.3281c0-0.25-0.046875-0.25-0.34375-0.25-0.4375 0.35938-1 0.45312-1.5625 0.45312h-0.17188v0.39062h0.17188c0.28125 0 0.70312-0.046875 1-0.14062v3.4844h-1.0938v0.39062c0.32812-0.03125 1.1719-0.03125 1.5469-0.03125 0.25 0 0.5 0.015625 0.75 0.015625 0.21875 0 0.57812 0 0.78125 0.015625v-0.39062h-1.0781z"/>
     </g>
    </g>
    <g id="id-f2818bf1-3a9a-430b-be51-eafa916a457f">
     <g transform="translate(276.09 146.72)">
      <path id="id-cbfc061c-4df0-4704-84ac-09bd5203d1af" d="m2.875-2.5c0-0.76562-0.10938-1.9688-0.65625-3.1094-0.59375-1.2188-1.4531-1.875-1.5469-1.875-0.0625 0-0.10938 0.046875-0.10938 0.10938 0 0.03125 0 0.046875 0.1875 0.23438 0.98438 0.98438 1.5469 2.5625 1.5469 4.6406 0 1.7188-0.35938 3.4688-1.5938 4.7188-0.14062 0.125-0.14062 0.14062-0.14062 0.17188 0 0.0625 0.046875 0.10938 0.10938 0.10938 0.09375 0 1-0.6875 1.5781-1.9531 0.51562-1.0938 0.625-2.2031 0.625-3.0469z"/>
     </g>
    </g>
    <g transform="translate(282.73 146.72)">
     <path d="m6.7344-4.9688c0.10938-0.0625 0.1875-0.10938 0.1875-0.21875s-0.09375-0.20312-0.20312-0.20312c-0.03125 0-0.046875 0-0.17188 0.078125l-5.5312 2.5938c-0.10938 0.0625-0.1875 0.10938-0.1875 0.21875 0 0.125 0.078125 0.17188 0.1875 0.23438l5.5312 2.5938c0.125 0.078125 0.14062 0.078125 0.17188 0.078125 0.10938 0 0.20312-0.09375 0.20312-0.20312s-0.078125-0.15625-0.1875-0.21875l-5.2344-2.4844z"/>
    </g>
    <g transform="translate(293.25 146.72)">
     <path id="id-f4abe4f0-7de3-43fc-a36f-92cb5ec9009e" d="m3.6562-3.9844h0.85938c0.20312 0 0.29688 0 0.29688-0.20312 0-0.10938-0.09375-0.10938-0.26562-0.10938h-0.82812l0.20312-1.1406c0.046875-0.20312 0.1875-0.90625 0.25-1.0312 0.078125-0.1875 0.25-0.34375 0.46875-0.34375 0.03125 0 0.29688 0 0.48438 0.1875-0.4375 0.03125-0.54688 0.39062-0.54688 0.53125 0 0.23438 0.1875 0.35938 0.375 0.35938 0.26562 0 0.54688-0.23438 0.54688-0.60938 0-0.45312-0.45312-0.6875-0.85938-0.6875-0.34375 0-0.96875 0.1875-1.2656 1.1719-0.0625 0.20312-0.09375 0.3125-0.32812 1.5625h-0.6875c-0.20312 0-0.3125 0-0.3125 0.1875 0 0.125 0.09375 0.125 0.28125 0.125h0.65625l-0.73438 3.9375c-0.1875 0.96875-0.35938 1.875-0.875 1.875-0.046875 0-0.28125 0-0.48438-0.1875 0.46875-0.03125 0.5625-0.39062 0.5625-0.53125 0-0.23438-0.1875-0.35938-0.375-0.35938-0.26562 0-0.54688 0.23438-0.54688 0.60938 0 0.4375 0.4375 0.6875 0.84375 0.6875 0.54688 0 0.95312-0.59375 1.125-0.96875 0.32812-0.625 0.54688-1.8281 0.5625-1.9062z"/>
    </g>
    <g transform="translate(299.2 146.72)">
     <path id="id-4e595128-c158-47f2-8d3a-e8b3f0f0793d" d="m3.2969 2.3906c0-0.03125 0-0.046875-0.17188-0.21875-1.2344-1.25-1.5625-3.1406-1.5625-4.6719 0-1.7344 0.375-3.4688 1.6094-4.7031 0.125-0.125 0.125-0.14062 0.125-0.17188 0-0.078125-0.03125-0.10938-0.09375-0.10938-0.10938 0-1 0.6875-1.5938 1.9531-0.5 1.0938-0.625 2.2031-0.625 3.0312 0 0.78125 0.10938 1.9844 0.65625 3.125 0.60938 1.2188 1.4531 1.875 1.5625 1.875 0.0625 0 0.09375-0.03125 0.09375-0.10938z"/>
    </g>
    <g id="id-40536577-d245-42b7-94f3-3ebb207498cb">
     <g transform="translate(303.07,146.72)">
      <path d="m3.4531-2.4531 1.1562-1.2969c0.14062-0.14062 0.20312-0.20312 1.0156-0.20312v-0.46875c-0.34375 0.015625-0.85938 0.03125-0.90625 0.03125-0.25 0-0.75-0.03125-1.0312-0.03125v0.46875c0.14062 0 0.26562 0.015625 0.375 0.078125-0.03125 0.0625-0.03125 0.09375-0.078125 0.125l-0.82812 0.9375-0.98438-1.1406h0.40625v-0.46875c-0.26562 0-0.89062 0.03125-1.2188 0.03125-0.3125 0-0.76562-0.03125-1.0938-0.03125v0.46875h0.71875l1.5469 1.8281-1.3125 1.4688c-0.15625 0.1875-0.51562 0.1875-1 0.1875v0.46875c0.34375-0.015625 0.875-0.03125 0.92188-0.03125 0.25 0 0.82812 0.015625 1.0156 0.03125v-0.46875c-0.17188 0-0.35938-0.046875-0.35938-0.10938 0-0.015625 0-0.015625 0.0625-0.09375l0.96875-1.0938 1.0938 1.2969h-0.39062v0.46875c0.26562-0.015625 0.875-0.03125 1.2031-0.03125 0.3125 0 0.76562 0.015625 1.0938 0.03125v-0.46875h-0.70312z"/>
     </g>
    </g>
    <g id="id-218cf530-7d36-4fe7-9550-86b71220751a">
     <g transform="translate(309.12 148.21)">
      <path id="id-4f89e1bf-5b51-4f76-87bf-2139a4fdd93e" d="m4.0312-1.5938h-0.4375c-0.015625 0.09375-0.078125 0.57812-0.20312 0.60938-0.15625 0.03125-0.5625 0.03125-0.73438 0.03125h-0.95312c0.39062-0.28125 0.78125-0.57812 1.1875-0.82812 0.5625-0.35938 1.1406-0.73438 1.1406-1.4375 0-0.82812-0.79688-1.3594-1.9062-1.3594-0.9375 0-1.6562 0.375-1.6562 1.0312 0 0.40625 0.32812 0.5625 0.54688 0.5625 0.25 0 0.53125-0.17188 0.53125-0.54688 0-0.34375-0.25-0.46875-0.26562-0.48438 0.25-0.15625 0.5625-0.17188 0.65625-0.17188 0.57812 0 1.0469 0.375 1.0469 0.98438 0 0.53125-0.35938 0.98438-0.76562 1.3281l-1.6562 1.4844c-0.078125 0.078125-0.09375 0.078125-0.09375 0.21875v0.17188h3.3281z"/>
     </g>
    </g>
    <g transform="translate(314.13 146.72)">
     <path id="id-9430ac45-3fdc-4f5b-afc5-325eaf440f6b" d="m2.875-2.5c0-0.76562-0.10938-1.9688-0.65625-3.1094-0.59375-1.2188-1.4531-1.875-1.5469-1.875-0.0625 0-0.10938 0.046875-0.10938 0.10938 0 0.03125 0 0.046875 0.1875 0.23438 0.98438 0.98438 1.5469 2.5625 1.5469 4.6406 0 1.7188-0.35938 3.4688-1.5938 4.7188-0.14062 0.125-0.14062 0.14062-0.14062 0.17188 0 0.0625 0.046875 0.10938 0.10938 0.10938 0.09375 0 1-0.6875 1.5781-1.9531 0.51562-1.0938 0.625-2.2031 0.625-3.0469z"/>
    </g>
    <g transform="translate(320.77,146.72)">
     <path d="m6.7344-4.9688c0.10938-0.0625 0.1875-0.10938 0.1875-0.21875s-0.09375-0.20312-0.20312-0.20312c-0.03125 0-0.046875 0-0.17188 0.078125l-5.5312 2.5938c-0.10938 0.0625-0.1875 0.10938-0.1875 0.21875 0 0.125 0.078125 0.17188 0.1875 0.23438l5.5312 2.5938c0.125 0.078125 0.14062 0.078125 0.17188 0.078125 0.10938 0 0.20312-0.09375 0.20312-0.20312s-0.078125-0.15625-0.1875-0.21875l-5.2344-2.4844z"/>
    </g>
    <g transform="translate(331.29 146.72)">
     <path id="id-2e9c2ac6-cc11-4f51-b460-dad2a71ece0f" d="m3.6562-3.9844h0.85938c0.20312 0 0.29688 0 0.29688-0.20312 0-0.10938-0.09375-0.10938-0.26562-0.10938h-0.82812l0.20312-1.1406c0.046875-0.20312 0.1875-0.90625 0.25-1.0312 0.078125-0.1875 0.25-0.34375 0.46875-0.34375 0.03125 0 0.29688 0 0.48438 0.1875-0.4375 0.03125-0.54688 0.39062-0.54688 0.53125 0 0.23438 0.1875 0.35938 0.375 0.35938 0.26562 0 0.54688-0.23438 0.54688-0.60938 0-0.45312-0.45312-0.6875-0.85938-0.6875-0.34375 0-0.96875 0.1875-1.2656 1.1719-0.0625 0.20312-0.09375 0.3125-0.32812 1.5625h-0.6875c-0.20312 0-0.3125 0-0.3125 0.1875 0 0.125 0.09375 0.125 0.28125 0.125h0.65625l-0.73438 3.9375c-0.1875 0.96875-0.35938 1.875-0.875 1.875-0.046875 0-0.28125 0-0.48438-0.1875 0.46875-0.03125 0.5625-0.39062 0.5625-0.53125 0-0.23438-0.1875-0.35938-0.375-0.35938-0.26562 0-0.54688 0.23438-0.54688 0.60938 0 0.4375 0.4375 0.6875 0.84375 0.6875 0.54688 0 0.95312-0.59375 1.125-0.96875 0.32812-0.625 0.54688-1.8281 0.5625-1.9062z"/>
    </g>
    <g transform="translate(337.24 146.72)">
     <path id="id-174acf82-daf9-4d2a-bd26-ebb600ce8cee" d="m3.2969 2.3906c0-0.03125 0-0.046875-0.17188-0.21875-1.2344-1.25-1.5625-3.1406-1.5625-4.6719 0-1.7344 0.375-3.4688 1.6094-4.7031 0.125-0.125 0.125-0.14062 0.125-0.17188 0-0.078125-0.03125-0.10938-0.09375-0.10938-0.10938 0-1 0.6875-1.5938 1.9531-0.5 1.0938-0.625 2.2031-0.625 3.0312 0 0.78125 0.10938 1.9844 0.65625 3.125 0.60938 1.2188 1.4531 1.875 1.5625 1.875 0.0625 0 0.09375-0.03125 0.09375-0.10938z"/>
    </g>
    <g transform="translate(341.11,146.72)">
     <path id="id-a68f1903-198b-4937-a868-c30c1afa9c0a" d="m3.4531-2.4531 1.1562-1.2969c0.14062-0.14062 0.20312-0.20312 1.0156-0.20312v-0.46875c-0.34375 0.015625-0.85938 0.03125-0.90625 0.03125-0.25 0-0.75-0.03125-1.0312-0.03125v0.46875c0.14062 0 0.26562 0.015625 0.375 0.078125-0.03125 0.0625-0.03125 0.09375-0.078125 0.125l-0.82812 0.9375-0.98438-1.1406h0.40625v-0.46875c-0.26562 0-0.89062 0.03125-1.2188 0.03125-0.3125 0-0.76562-0.03125-1.0938-0.03125v0.46875h0.71875l1.5469 1.8281-1.3125 1.4688c-0.15625 0.1875-0.51562 0.1875-1 0.1875v0.46875c0.34375-0.015625 0.875-0.03125 0.92188-0.03125 0.25 0 0.82812 0.015625 1.0156 0.03125v-0.46875c-0.17188 0-0.35938-0.046875-0.35938-0.10938 0-0.015625 0-0.015625 0.0625-0.09375l0.96875-1.0938 1.0938 1.2969h-0.39062v0.46875c0.26562-0.015625 0.875-0.03125 1.2031-0.03125 0.3125 0 0.76562 0.015625 1.0938 0.03125v-0.46875h-0.70312z"/>
    </g>
    <g id="id-db76f58f-127e-4d3c-b63c-1a42275618da">
     <g transform="translate(347.16 148.21)">
      <path d="m2.1094-2.2656c0.82812 0 0.85938 0.625 0.85938 1 0 0.29688 0 1-0.84375 1-0.1875 0-0.625-0.046875-0.92188-0.23438 0.15625-0.0625 0.32812-0.21875 0.32812-0.51562 0-0.32812-0.23438-0.5625-0.5625-0.5625-0.34375 0-0.57812 0.23438-0.57812 0.5625 0 0.71875 0.78125 1.0938 1.7656 1.0938 1.4531 0 1.9531-0.75 1.9531-1.3438 0-0.53125-0.4375-1.0156-1.2188-1.1875 0.5-0.1875 0.96875-0.54688 0.96875-1.125 0-0.54688-0.5625-1-1.6719-1-0.95312 0-1.5469 0.46875-1.5469 1.0469 0 0.35938 0.26562 0.54688 0.53125 0.54688 0.34375 0 0.53125-0.26562 0.53125-0.53125 0-0.35938-0.28125-0.48438-0.34375-0.5 0.28125-0.20312 0.64062-0.23438 0.78125-0.23438 0.6875 0 0.6875 0.45312 0.6875 0.64062 0 0.32812-0.14062 0.96875-0.82812 1-0.1875 0.015625-0.35938 0.015625-0.39062 0.03125-0.09375 0.03125-0.09375 0.10938-0.09375 0.15625 0 0.15625 0.09375 0.15625 0.21875 0.15625z"/>
     </g>
    </g>
    <g id="id-5a6df638-2b39-4b0e-b134-66dd4f54c28a">
     <g transform="translate(352.17 146.72)">
      <path d="m2.875-2.5c0-0.76562-0.10938-1.9688-0.65625-3.1094-0.59375-1.2188-1.4531-1.875-1.5469-1.875-0.0625 0-0.10938 0.046875-0.10938 0.10938 0 0.03125 0 0.046875 0.1875 0.23438 0.98438 0.98438 1.5469 2.5625 1.5469 4.6406 0 1.7188-0.35938 3.4688-1.5938 4.7188-0.14062 0.125-0.14062 0.14062-0.14062 0.17188 0 0.0625 0.046875 0.10938 0.10938 0.10938 0.09375 0 1-0.6875 1.5781-1.9531 0.51562-1.0938 0.625-2.2031 0.625-3.0469z"/>
     </g>
    </g>
   </g>
  </g>
  <path d="m101.43 63.191 13.209 18.157 37.168-47.902z" fill="none" stroke="#710000" stroke-opacity=".43" stroke-width=".703"/>
  <path d="m104.04 121.97 10.877 14.703 37.866-16.717-48.743 2.0138" fill="none" stroke="#710000" stroke-opacity=".42803" stroke-width=".69956"/>
 </g>
</svg>
