<?xml version="1.0" encoding="UTF-8"?>
<svg width="91.66mm" height="37.663mm" version="1.1" viewBox="0 0 91.66 37.663" xmlns="http://www.w3.org/2000/svg" xmlns:cc="http://creativecommons.org/ns#" xmlns:dc="http://purl.org/dc/elements/1.1/" xmlns:ns6="http://www.iki.fi/pav/software/textext/" xmlns:rdf="http://www.w3.org/1999/02/22-rdf-syntax-ns#">
 <metadata>
  <rdf:RDF>
   <cc:Work rdf:about="">
    <dc:format>image/svg+xml</dc:format>
    <dc:type rdf:resource="http://purl.org/dc/dcmitype/StillImage"/>
    <dc:title/>
   </cc:Work>
  </rdf:RDF>
 </metadata>
 <g transform="translate(-6.6852 -183.22)">
  <g fill="#a60000">
   <path d="m92.299 185.02-83.941 29.908" fill-opacity=".5947" stroke="#000" stroke-opacity=".18939" stroke-width=".654"/>
   <g fill-rule="evenodd">
    <ellipse cx="53.219" cy="215.29" rx="1.8844" ry="1.8394" fill-opacity=".5947"/>
    <ellipse cx="93.241" cy="184.52" rx="1.3142" ry="1.303" fill-opacity=".35227"/>
    <ellipse cx="32.268" cy="188.36" rx="1.5406" ry="1.5335" fill-opacity=".5947"/>
   </g>
  </g>
  <path d="m53.153 218.74 0.62801-0.70438c0.07639-0.0764 0.11032-0.11032 0.55161-0.11032v-0.2546c-0.1867 8e-3 -0.46675 0.017-0.49221 0.017-0.13579 0-0.40736-0.017-0.56011-0.017v0.2546c0.07639 0 0.14427 8e-3 0.20367 0.0424-0.01694 0.034-0.01694 0.0509-0.04243 0.0679l-0.44978 0.50919-0.53465-0.61952h0.22065v-0.25459c-0.14428 0-0.48373 0.017-0.66195 0.017-0.16972 0-0.41584-0.017-0.59405-0.017v0.25459h0.39038l0.84016 0.99293-0.71287 0.79773c-0.08486 0.10183-0.28005 0.10183-0.54313 0.10183v0.2546c0.1867-8e-3 0.47524-0.017 0.5007-0.017 0.13578 0 0.44979 8e-3 0.55162 0.017v-0.2546c-0.09335 0-0.19519-0.0255-0.19519-0.0594 0-8e-3 0-8e-3 0.03396-0.0509l0.52616-0.59405 0.59405 0.70437h-0.21216v0.2546c0.14427-8e-3 0.47525-0.017 0.65346-0.017 0.16972 0 0.41584 8e-3 0.59405 0.017v-0.2546h-0.3819z"/>
  <path d="m55.825 218.47c0-0.10184 0-0.10184-0.11033-0.10184-0.24611 0.23763-0.58557 0.23763-0.73832 0.23763v0.13578c0.08486 0 0.33946 0 0.54314-0.10184v1.9264c0 0.12729 0 0.17821-0.37341 0.17821h-0.14427v0.13579c0.06792 0 0.53465-0.017 0.67043-0.017 0.11881 0 0.59405 0.017 0.67892 0.017v-0.13579h-0.14427c-0.38189 0-0.38189-0.0509-0.38189-0.17821z"/>
  <path d="m26.741 186.97 0.628-0.70437c0.07638-0.0764 0.11032-0.11033 0.55162-0.11033v-0.25459c-0.1867 8e-3 -0.46676 0.0169-0.49222 0.0169-0.13578 0-0.40735-0.0169-0.56011-0.0169v0.25459c0.07638 0 0.14427 8e-3 0.20368 0.0424-0.01697 0.034-0.01697 0.0509-0.04243 0.0679l-0.44978 0.5092-0.53465-0.61953h0.22065v-0.25458c-0.14427 0-0.48373 0.0169-0.66195 0.0169-0.16973 0-0.41584-0.0169-0.59405-0.0169v0.25458h0.39038l0.84016 0.99293-0.71287 0.79773c-0.08486 0.10184-0.28005 0.10184-0.54314 0.10184v0.25459c0.1867-8e-3 0.47524-0.0169 0.5007-0.0169 0.13578 0 0.44978 8e-3 0.55162 0.0169v-0.25459c-0.09335 0-0.19519-0.0255-0.19519-0.0594 0-8e-3 0-8e-3 0.03394-0.0509l0.52616-0.59405 0.59405 0.70438h-0.21216v0.25459c0.14427-8e-3 0.47524-0.0169 0.65346-0.0169 0.16973 0 0.41584 8e-3 0.59406 0.0169v-0.25459h-0.38189z"/>
  <path d="m30.059 188.42h-0.1273c-0.0085 0.0849-0.05092 0.30551-0.10184 0.33945-0.02546 0.0255-0.314 0.0255-0.37341 0.0255h-0.69589c0.39886-0.34795 0.53465-0.45827 0.7553-0.63649 0.28006-0.22065 0.54314-0.45827 0.54314-0.8147 0-0.45828-0.39886-0.73833-0.8826-0.73833-0.46676 0-0.78924 0.33098-0.78924 0.67892 0 0.1867 0.16124 0.21217 0.20368 0.21217 0.08487 0 0.19519-0.0679 0.19519-0.20368 0-0.0679-0.02546-0.20368-0.22065-0.20368 0.11881-0.26308 0.37341-0.34794 0.55162-0.34794 0.38189 0 0.57708 0.29702 0.57708 0.60254 0 0.33097-0.23762 0.58556-0.35643 0.72135l-0.90806 0.90805c-0.04243 0.034-0.04243 0.0424-0.04243 0.14427h1.5615z"/>
  <path d="m94.803 187.48 0.628-0.70438c0.0764-0.0764 0.11032-0.11033 0.55162-0.11033v-0.25459c-0.18671 8e-3 -0.46676 0.0169-0.49222 0.0169-0.13578 0-0.40735-0.0169-0.56011-0.0169v0.25459c0.0764 0 0.14427 8e-3 0.20368 0.0424-0.017 0.034-0.017 0.0509-0.0424 0.0679l-0.44979 0.50919-0.53464-0.61951h0.22064v-0.2546c-0.14426 0-0.48373 0.0169-0.66194 0.0169-0.16973 0-0.41584-0.0169-0.59405-0.0169v0.2546h0.39038l0.84016 0.99291-0.71286 0.79774c-0.08487 0.10183-0.28005 0.10183-0.54314 0.10183v0.2546c0.1867-8e-3 0.47525-0.0169 0.5007-0.0169 0.13579 0 0.44979 8e-3 0.55162 0.0169v-0.2546c-0.09335 0-0.19518-0.0255-0.19518-0.0594 0-8e-3 0-8e-3 0.03396-0.0509l0.52616-0.59405 0.59406 0.70437h-0.21217v0.2546c0.14427-8e-3 0.47524-0.0169 0.65346-0.0169 0.16974 0 0.41584 8e-3 0.59406 0.0169v-0.2546h-0.38189z" fill-opacity=".4"/>
  <path d="m32.258 188.29 21.006 27.105 39.108-30.577-60.113 3.4722" fill="none" stroke="#710000" stroke-opacity=".18561" stroke-width=".69956"/>
  <circle cx="43.245" cy="202.45" r=".5426" fill-opacity=".65909" fill-rule="evenodd"/>
  <ellipse cx="8.3258" cy="214.91" rx="1.6406" ry="1.5692" fill="#a60000" fill-opacity=".5947" fill-rule="evenodd"/>
  <path d="m32.258 188.29 20.886 26.844-44.787-0.20365z" fill="none" stroke="#710000" stroke-opacity=".60606" stroke-width=".665"/>
  <g transform="matrix(.52424 0 0 .52424 10.036 216.72)" ns6:alignment="middle center" ns6:inkscapeversion="1.0" ns6:jacobian_sqrt="0.352778" ns6:pdfconverter="inkscape" ns6:preamble="C:\\Users\\User\\AppData\\Roaming\\inkscape\\extensions\\textext\\default_packages.tex" ns6:scale="1.0" ns6:texconverter="pdflatex" ns6:text="$$\\mathbf{x}_r$$" ns6:version="1.1.0">
   <g id="id-4996d7ed-e09c-4827-84d8-0e573be2e42c" transform="translate(-300.61,-142.3)">
    <g id="id-c4978c5d-1379-4fbe-b3dc-b4002b4c1a8c">
     <g transform="translate(300.4,146.72)">
      <path d="m-2.611-1.9304 1.1562-1.2969c0.14062-0.14062 0.20312-0.20312 1.0156-0.20312v-0.46875c-0.34375 0.015625-0.85938 0.03125-0.90625 0.03125-0.25 0-0.75-0.03125-1.0312-0.03125v0.46875c0.14062 0 0.26562 0.015625 0.375 0.078125-0.03125 0.0625-0.03125 0.09375-0.078125 0.125l-0.82812 0.9375-0.98438-1.1406h0.40625v-0.46875c-0.26562 0-0.89062 0.03125-1.2188 0.03125-0.3125 0-0.76562-0.03125-1.0938-0.03125v0.46875h0.71875l1.5469 1.8281-1.3125 1.4687c-0.15625 0.1875-0.51562 0.1875-1 0.1875v0.46875c0.34375-0.015625 0.875-0.03125 0.92188-0.03125 0.25 0 0.82812 0.015625 1.0156 0.03125v-0.46875c-0.17188 0-0.35938-0.046875-0.35938-0.10938 0-0.015625 0-0.015625 0.0625-0.09375l0.96875-1.0937 1.0938 1.2969h-0.39062v0.46875c0.26562-0.015625 0.875-0.03125 1.2031-0.03125 0.3125 0 0.76563 0.015625 1.0938 0.03125v-0.46875h-0.70312z"/>
     </g>
    </g>
    <g transform="translate(306.44,148.21)">
     <path id="id-407306d4-5a92-4072-b91c-6ffdddb6cb6c" d="m-4.4235-0.88348c0-0.046875 0.17188-0.67187 0.17188-0.70312 0.015625-0.0625 0.21875-0.40625 0.45312-0.57812 0.0625-0.046875 0.25-0.1875 0.5625-0.1875 0.0625 0 0.23438 0 0.375 0.09375-0.21875 0.0625-0.29688 0.26562-0.29688 0.39062 0 0.14062 0.10938 0.25 0.26562 0.25 0.17188 0 0.39062-0.125 0.39062-0.42188 0-0.35938-0.375-0.51562-0.73438-0.51562s-0.67188 0.15625-0.98438 0.5c-0.125-0.42188-0.54688-0.5-0.71875-0.5-0.25 0-0.42188 0.17188-0.54688 0.35938-0.15625 0.26562-0.25 0.67188-0.25 0.71875 0 0.078125 0.09375 0.078125 0.125 0.078125 0.09375 0 0.09375-0.015625 0.14062-0.20312 0.10938-0.42188 0.25-0.75 0.51562-0.75 0.1875 0 0.23438 0.15625 0.23438 0.34375 0 0.125-0.0625 0.39062-0.125 0.57812-0.046875 0.1875-0.10938 0.46875-0.14062 0.625l-0.23438 0.89062c-0.015625 0.09375-0.0625 0.26562-0.0625 0.28125 0 0.15625 0.125 0.21875 0.23438 0.21875s0.25-0.0625 0.29688-0.1875c0.015625-0.046875 0.09375-0.35938 0.14062-0.53125z"/>
    </g>
   </g>
  </g>
  <g transform="matrix(.5253 0 0 .5253 40.6 198.12)" fill-opacity=".47348" ns6:alignment="middle center" ns6:inkscapeversion="1.0" ns6:jacobian_sqrt="0.352778" ns6:pdfconverter="inkscape" ns6:preamble="C:\\Users\\User\\AppData\\Roaming\\inkscape\\extensions\\textext\\default_packages.tex" ns6:scale="1.0" ns6:texconverter="pdflatex" ns6:text="$$\\mathbf{x}_o$$" ns6:version="1.1.0">
   <g id="id-061aded2-21d1-4deb-a46e-d355e259dacd" transform="translate(-300.6,-142.3)" fill-opacity=".47348">
    <g id="id-bc45e4db-7bab-4b39-b519-e320c327e34a">
     <g transform="translate(300.38,146.72)" fill-opacity=".47348">
      <path d="m6.0269-2.8009 1.1562-1.2969c0.14062-0.14062 0.20312-0.20312 1.0156-0.20312v-0.46875c-0.34375 0.015625-0.85938 0.03125-0.90625 0.03125-0.25 0-0.75-0.03125-1.0312-0.03125v0.46875c0.14062 0 0.26562 0.015625 0.375 0.078125-0.03125 0.0625-0.03125 0.09375-0.078125 0.125l-0.82812 0.9375-0.98438-1.1406h0.40625v-0.46875c-0.26562 0-0.89062 0.03125-1.2188 0.03125-0.3125 0-0.76562-0.03125-1.0938-0.03125v0.46875h0.71875l1.5469 1.8281-1.3125 1.4688c-0.15625 0.1875-0.51562 0.1875-1 0.1875v0.46875c0.34375-0.015625 0.875-0.03125 0.92188-0.03125 0.25 0 0.82812 0.015625 1.0156 0.03125v-0.46875c-0.17188 0-0.35938-0.046875-0.35938-0.10938 0-0.015625 0-0.015625 0.0625-0.09375l0.96875-1.0938 1.0938 1.2969h-0.39062v0.46875c0.26562-0.015625 0.875-0.03125 1.2031-0.03125 0.3125 0 0.76562 0.015625 1.0938 0.03125v-0.46875h-0.70312z" fill-opacity=".47348"/>
     </g>
    </g>
    <g transform="translate(306.43,148.21)" fill-opacity=".47348">
     <path d="m6.2769-2.2072c0-0.76562-0.57812-1.2188-1.2656-1.2188-1.0312 0-2 0.96875-2 1.9219 0 0.70313 0.5 1.2188 1.2656 1.2188 1 0 2-0.90625 2-1.9219zm-2 1.7344c-0.34375 0-0.6875-0.21875-0.6875-0.78125 0-0.28125 0.125-0.96875 0.40625-1.3594 0.29688-0.4375 0.70312-0.60938 1.0156-0.60938 0.375 0 0.6875 0.25 0.6875 0.76562 0 0.17188-0.078125 0.85938-0.39062 1.3438-0.26562 0.42188-0.67188 0.64063-1.0312 0.64063z" fill-opacity=".47348"/>
    </g>
   </g>
  </g>
 </g>
 <g transform="matrix(.84936 0 0 .84936 69.318 14.409)" ns6:alignment="middle center" ns6:jacobian_sqrt="0.849361" ns6:pdfconverter="inkscape" ns6:preamble="C:\\Users\\User\\AppData\\Roaming\\inkscape\\extensions\\textext\\default_packages.tex" ns6:scale="2.4076355951901767" ns6:texconverter="pdflatex" ns6:text="\\[ 3 \\]" ns6:version="1.1.0">
  <defs></defs>
  <g transform="translate(-303.56 -140.08)">
   <g>
    <g transform="translate(303.13 146.72)">
     <path d="m25.925-16.675c0.38928-0.12726 0.66627-0.45666 0.66627-0.83846 0-0.38928-0.41923-0.65879-0.87589-0.65879-0.47912 0-0.84594 0.28448-0.84594 0.6513 0 0.15721 0.1048 0.24704 0.24704 0.24704 0.14224 0 0.23956-0.1048 0.23956-0.24704 0-0.23207-0.22458-0.23207-0.29196-0.23207 0.14224-0.23956 0.45666-0.29945 0.62884-0.29945 0.20213 0 0.46414 0.1048 0.46414 0.53152 0 0.05989-0.01498 0.33688-0.13475 0.54649-0.14224 0.23207-0.30694 0.24704-0.42672 0.24704-0.03743 0.0075-0.14972 0.01498-0.18715 0.01498-0.03743 0.0075-0.06737 0.01498-0.06737 0.05988 0 0.05241 0.02994 0.05241 0.11229 0.05241h0.20961c0.38928 0 0.56895 0.32191 0.56895 0.79354 0 0.6513-0.32939 0.78605-0.53901 0.78605-0.20961 0-0.56895-0.08235-0.73365-0.35934 0.1647 0.02245 0.31442-0.08235 0.31442-0.26202 0-0.17218-0.12727-0.2695-0.26202-0.2695-0.11978 0-0.2695 0.06737-0.2695 0.27699 0 0.4342 0.44169 0.74862 0.96572 0.74862 0.58392 0 1.0181-0.4342 1.0181-0.9208 0-0.38928-0.30694-0.76359-0.80102-0.8684z" fill-opacity=".4"/>
    </g>
   </g>
  </g>
 </g>
</svg>
