<?xml version="1.0" encoding="UTF-8"?>
<svg width="300mm" height="150mm" version="1.1" viewBox="0 0 456.06 229.38" xmlns="http://www.w3.org/2000/svg" xmlns:cc="http://creativecommons.org/ns#" xmlns:dc="http://purl.org/dc/elements/1.1/" xmlns:ns6="http://www.iki.fi/pav/software/textext/" xmlns:rdf="http://www.w3.org/1999/02/22-rdf-syntax-ns#">
 <metadata>
  <rdf:RDF>
   <cc:Work rdf:about="">
    <dc:format>image/svg+xml</dc:format>
    <dc:type rdf:resource="http://purl.org/dc/dcmitype/StillImage"/>
    <dc:title/>
   </cc:Work>
  </rdf:RDF>
 </metadata>
 <g transform="translate(331.2 -402.26)">
  <ellipse transform="matrix(.48391 .87512 -.54342 .83946 0 0)" cx="432.26" cy="250.83" rx="16.03" ry="6.5553" fill="#4e8fff" fill-opacity=".15909" stroke-width=".77664"/>
  <ellipse transform="matrix(.44335 .89635 -.67987 .73333 0 0)" cx="488.53" cy="209.52" rx="9.9528" ry="4.368" fill="#4e8fff" fill-opacity=".15909" stroke-width=".75441"/>
  <g transform="matrix(.78378 0 0 .78378 -163.17 412.6)" ns6:alignment="middle center" ns6:inkscapeversion="1.0" ns6:jacobian_sqrt="0.352778" ns6:pdfconverter="inkscape" ns6:preamble="C:\\Users\\User\\AppData\\Roaming\\inkscape\\extensions\\textext\\default_packages.tex" ns6:scale="1.0" ns6:texconverter="pdflatex" ns6:text="$$f(\\mathbf x_1) \\leq f(\\mathbf x_r) &lt; f(\\mathbf x_n)$$" ns6:version="1.1.0">
   <g id="id-a3e4b689-3c1a-4c14-a2db-0c4a2888ddfc" transform="translate(-256.1 -139.24)">
    <g transform="translate(46.062 1.6784)">
     <g transform="translate(255.57,146.72)">
      <path id="id-617a4be7-c353-47fa-a493-f119e982b90a" d="m3.6562-3.9844h0.85938c0.20312 0 0.29688 0 0.29688-0.20312 0-0.10938-0.09375-0.10938-0.26562-0.10938h-0.82812l0.20312-1.1406c0.046875-0.20312 0.1875-0.90625 0.25-1.0312 0.078125-0.1875 0.25-0.34375 0.46875-0.34375 0.03125 0 0.29688 0 0.48438 0.1875-0.4375 0.03125-0.54688 0.39062-0.54688 0.53125 0 0.23438 0.1875 0.35938 0.375 0.35938 0.26562 0 0.54688-0.23438 0.54688-0.60938 0-0.45312-0.45312-0.6875-0.85938-0.6875-0.34375 0-0.96875 0.1875-1.2656 1.1719-0.0625 0.20312-0.09375 0.3125-0.32812 1.5625h-0.6875c-0.20312 0-0.3125 0-0.3125 0.1875 0 0.125 0.09375 0.125 0.28125 0.125h0.65625l-0.73438 3.9375c-0.1875 0.96875-0.35938 1.875-0.875 1.875-0.046875 0-0.28125 0-0.48438-0.1875 0.46875-0.03125 0.5625-0.39062 0.5625-0.53125 0-0.23438-0.1875-0.35938-0.375-0.35938-0.26562 0-0.54688 0.23438-0.54688 0.60938 0 0.4375 0.4375 0.6875 0.84375 0.6875 0.54688 0 0.95312-0.59375 1.125-0.96875 0.32812-0.625 0.54688-1.8281 0.5625-1.9062z"/>
     </g>
    </g>
    <g transform="translate(46.062 1.6784)">
     <g transform="translate(261.52,146.72)">
      <path id="id-58addb5b-6fd6-4377-9f06-3f2817c2044b" d="m3.2969 2.3906c0-0.03125 0-0.046875-0.17188-0.21875-1.2344-1.25-1.5625-3.1406-1.5625-4.6719 0-1.7344 0.375-3.4688 1.6094-4.7031 0.125-0.125 0.125-0.14062 0.125-0.17188 0-0.078125-0.03125-0.10938-0.09375-0.10938-0.10938 0-1 0.6875-1.5938 1.9531-0.5 1.0938-0.625 2.2031-0.625 3.0312 0 0.78125 0.10938 1.9844 0.65625 3.125 0.60938 1.2188 1.4531 1.875 1.5625 1.875 0.0625 0 0.09375-0.03125 0.09375-0.10938z"/>
     </g>
    </g>
    <g transform="translate(46.062 1.6784)">
     <g transform="translate(265.4 146.72)">
      <path d="m3.4531-2.4531 1.1562-1.2969c0.14062-0.14062 0.20312-0.20312 1.0156-0.20312v-0.46875c-0.34375 0.015625-0.85938 0.03125-0.90625 0.03125-0.25 0-0.75-0.03125-1.0312-0.03125v0.46875c0.14062 0 0.26562 0.015625 0.375 0.078125-0.03125 0.0625-0.03125 0.09375-0.078125 0.125l-0.82812 0.9375-0.98438-1.1406h0.40625v-0.46875c-0.26562 0-0.89062 0.03125-1.2188 0.03125-0.3125 0-0.76562-0.03125-1.0938-0.03125v0.46875h0.71875l1.5469 1.8281-1.3125 1.4688c-0.15625 0.1875-0.51562 0.1875-1 0.1875v0.46875c0.34375-0.015625 0.875-0.03125 0.92188-0.03125 0.25 0 0.82812 0.015625 1.0156 0.03125v-0.46875c-0.17188 0-0.35938-0.046875-0.35938-0.10938 0-0.015625 0-0.015625 0.0625-0.09375l0.96875-1.0938 1.0938 1.2969h-0.39062v0.46875c0.26562-0.015625 0.875-0.03125 1.2031-0.03125 0.3125 0 0.76562 0.015625 1.0938 0.03125v-0.46875h-0.70312z"/>
     </g>
    </g>
    <g transform="translate(46.062 1.6784)">
     <g transform="translate(271.44 148.21)">
      <path id="id-a12760bf-b598-4fe9-bfb8-cbbc443e8bfd" d="m2.3281-4.4375c0-0.1875 0-0.1875-0.20312-0.1875-0.45312 0.4375-1.0781 0.4375-1.3594 0.4375v0.25c0.15625 0 0.625 0 1-0.1875v3.5469c0 0.23438 0 0.32812-0.6875 0.32812h-0.26562v0.25c0.125 0 0.98438-0.03125 1.2344-0.03125 0.21875 0 1.0938 0.03125 1.25 0.03125v-0.25h-0.26562c-0.70312 0-0.70312-0.09375-0.70312-0.32812z"/>
     </g>
    </g>
    <g transform="translate(46.062 1.6784)">
     <g transform="translate(275.91 146.72)">
      <path d="m2.875-2.5c0-0.76562-0.10938-1.9688-0.65625-3.1094-0.59375-1.2188-1.4531-1.875-1.5469-1.875-0.0625 0-0.10938 0.046875-0.10938 0.10938 0 0.03125 0 0.046875 0.1875 0.23438 0.98438 0.98438 1.5469 2.5625 1.5469 4.6406 0 1.7188-0.35938 3.4688-1.5938 4.7188-0.14062 0.125-0.14062 0.14062-0.14062 0.17188 0 0.0625 0.046875 0.10938 0.10938 0.10938 0.09375 0 1-0.6875 1.5781-1.9531 0.51562-1.0938 0.625-2.2031 0.625-3.0469z"/>
     </g>
    </g>
    <g id="id-c5097482-bad2-47aa-8de7-10913e3ac6fb" transform="translate(-28.159 1.4919)">
     <g transform="translate(293.07 146.72)">
      <path id="id-18196b3c-8e28-443c-a347-de8dce9cce4b" d="m3.6562-3.9844h0.85938c0.20312 0 0.29688 0 0.29688-0.20312 0-0.10938-0.09375-0.10938-0.26562-0.10938h-0.82812l0.20312-1.1406c0.046875-0.20312 0.1875-0.90625 0.25-1.0312 0.078125-0.1875 0.25-0.34375 0.46875-0.34375 0.03125 0 0.29688 0 0.48438 0.1875-0.4375 0.03125-0.54688 0.39062-0.54688 0.53125 0 0.23438 0.1875 0.35938 0.375 0.35938 0.26562 0 0.54688-0.23438 0.54688-0.60938 0-0.45312-0.45312-0.6875-0.85938-0.6875-0.34375 0-0.96875 0.1875-1.2656 1.1719-0.0625 0.20312-0.09375 0.3125-0.32812 1.5625h-0.6875c-0.20312 0-0.3125 0-0.3125 0.1875 0 0.125 0.09375 0.125 0.28125 0.125h0.65625l-0.73438 3.9375c-0.1875 0.96875-0.35938 1.875-0.875 1.875-0.046875 0-0.28125 0-0.48438-0.1875 0.46875-0.03125 0.5625-0.39062 0.5625-0.53125 0-0.23438-0.1875-0.35938-0.375-0.35938-0.26562 0-0.54688 0.23438-0.54688 0.60938 0 0.4375 0.4375 0.6875 0.84375 0.6875 0.54688 0 0.95312-0.59375 1.125-0.96875 0.32812-0.625 0.54688-1.8281 0.5625-1.9062z"/>
     </g>
    </g>
    <g id="id-ddd835f4-2fa8-4fd8-a5f1-066f3dac875b" transform="translate(-28.159 1.4919)">
     <g transform="translate(299.02 146.72)">
      <path d="m3.2969 2.3906c0-0.03125 0-0.046875-0.17188-0.21875-1.2344-1.25-1.5625-3.1406-1.5625-4.6719 0-1.7344 0.375-3.4688 1.6094-4.7031 0.125-0.125 0.125-0.14062 0.125-0.17188 0-0.078125-0.03125-0.10938-0.09375-0.10938-0.10938 0-1 0.6875-1.5938 1.9531-0.5 1.0938-0.625 2.2031-0.625 3.0312 0 0.78125 0.10938 1.9844 0.65625 3.125 0.60938 1.2188 1.4531 1.875 1.5625 1.875 0.0625 0 0.09375-0.03125 0.09375-0.10938z"/>
     </g>
    </g>
    <g transform="translate(-28.159 1.4919)">
     <g transform="translate(302.89 146.72)">
      <path d="m3.4531-2.4531 1.1562-1.2969c0.14062-0.14062 0.20312-0.20312 1.0156-0.20312v-0.46875c-0.34375 0.015625-0.85938 0.03125-0.90625 0.03125-0.25 0-0.75-0.03125-1.0312-0.03125v0.46875c0.14062 0 0.26562 0.015625 0.375 0.078125-0.03125 0.0625-0.03125 0.09375-0.078125 0.125l-0.82812 0.9375-0.98438-1.1406h0.40625v-0.46875c-0.26562 0-0.89062 0.03125-1.2188 0.03125-0.3125 0-0.76562-0.03125-1.0938-0.03125v0.46875h0.71875l1.5469 1.8281-1.3125 1.4688c-0.15625 0.1875-0.51562 0.1875-1 0.1875v0.46875c0.34375-0.015625 0.875-0.03125 0.92188-0.03125 0.25 0 0.82812 0.015625 1.0156 0.03125v-0.46875c-0.17188 0-0.35938-0.046875-0.35938-0.10938 0-0.015625 0-0.015625 0.0625-0.09375l0.96875-1.0938 1.0938 1.2969h-0.39062v0.46875c0.26562-0.015625 0.875-0.03125 1.2031-0.03125 0.3125 0 0.76562 0.015625 1.0938 0.03125v-0.46875h-0.70312z"/>
     </g>
    </g>
    <g transform="translate(-28.159 1.4919)">
     <g transform="translate(308.94 148.21)">
      <path d="m1.6406-1.4062c0-0.046875 0.17188-0.67188 0.17188-0.70312 0.015625-0.0625 0.21875-0.40625 0.45312-0.57812 0.0625-0.046875 0.25-0.1875 0.5625-0.1875 0.0625 0 0.23438 0 0.375 0.09375-0.21875 0.0625-0.29688 0.26562-0.29688 0.39062 0 0.14062 0.10938 0.25 0.26562 0.25 0.17188 0 0.39062-0.125 0.39062-0.42188 0-0.35938-0.375-0.51562-0.73438-0.51562s-0.67188 0.15625-0.98438 0.5c-0.125-0.42188-0.54688-0.5-0.71875-0.5-0.25 0-0.42188 0.17188-0.54688 0.35938-0.15625 0.26562-0.25 0.67188-0.25 0.71875 0 0.078125 0.09375 0.078125 0.125 0.078125 0.09375 0 0.09375-0.015625 0.14062-0.20312 0.10938-0.42188 0.25-0.75 0.51562-0.75 0.1875 0 0.23438 0.15625 0.23438 0.34375 0 0.125-0.0625 0.39062-0.125 0.57812-0.046875 0.1875-0.10938 0.46875-0.14062 0.625l-0.23438 0.89062c-0.015625 0.09375-0.0625 0.26562-0.0625 0.28125 0 0.15625 0.125 0.21875 0.23438 0.21875s0.25-0.0625 0.29688-0.1875c0.015625-0.046875 0.09375-0.35938 0.14062-0.53125z"/>
     </g>
    </g>
    <g transform="translate(-28.159 1.4919)">
     <g transform="translate(313.35 146.72)">
      <path d="m2.875-2.5c0-0.76562-0.10938-1.9688-0.65625-3.1094-0.59375-1.2188-1.4531-1.875-1.5469-1.875-0.0625 0-0.10938 0.046875-0.10938 0.10938 0 0.03125 0 0.046875 0.1875 0.23438 0.98438 0.98438 1.5469 2.5625 1.5469 4.6406 0 1.7188-0.35938 3.4688-1.5938 4.7188-0.14062 0.125-0.14062 0.14062-0.14062 0.17188 0 0.0625 0.046875 0.10938 0.10938 0.10938 0.09375 0 1-0.6875 1.5781-1.9531 0.51562-1.0938 0.625-2.2031 0.625-3.0469z"/>
     </g>
    </g>
    <g transform="translate(-28.159 1.4919)">
     <g transform="translate(319.99 146.72)">
      <path id="id-17cd04cc-c050-464d-a54b-3f4fa622592c" d="m6.7344-4.9688c0.10938-0.0625 0.1875-0.10938 0.1875-0.21875s-0.09375-0.20312-0.20312-0.20312c-0.03125 0-0.046875 0-0.17188 0.078125l-5.5312 2.5938c-0.10938 0.0625-0.1875 0.10938-0.1875 0.21875 0 0.125 0.078125 0.17188 0.1875 0.23438l5.5312 2.5938c0.125 0.078125 0.14062 0.078125 0.17188 0.078125 0.10938 0 0.20312-0.09375 0.20312-0.20312s-0.078125-0.15625-0.1875-0.21875l-5.2344-2.4844z"/>
     </g>
    </g>
   </g>
  </g>
  <g fill="#a60000" fill-rule="evenodd">
   <g fill-opacity=".5947">
    <ellipse cx="-129.72" cy="544.78" rx="1.8844" ry="1.8394"/>
    <ellipse cx="-150.67" cy="517.85" rx="1.5406" ry="1.5335"/>
    <ellipse cx="-64.836" cy="601.57" rx="1.8844" ry="1.8394"/>
   </g>
   <ellipse cx="-24.814" cy="570.8" rx="1.3142" ry="1.303" fill-opacity=".35227"/>
   <ellipse cx="-85.787" cy="574.64" rx="1.5406" ry="1.5335" fill-opacity=".5947"/>
  </g>
  <path d="m-85.797 574.57 21.006 27.105 39.108-30.577-60.113 3.4722" fill="none" stroke="#710000" stroke-opacity=".18561" stroke-width=".69956"/>
  <g fill-opacity=".47348"></g>
  <ellipse cx="-51.11" cy="580.3" rx="1.8844" ry="1.8394" fill="#a60000" fill-opacity=".5947" fill-rule="evenodd"/>
  <path d="m-85.432 575.01 20.566 26.584 13.881-21.145z" fill="none" stroke="#710000" stroke-opacity=".60606" stroke-width=".665"/>
  <path d="m-280.72 520.06 20.886 26.844-67.682 8.1068z" fill="none" stroke="#710000" stroke-opacity=".60606" stroke-width=".665"/>
  <g fill="#a60000" fill-opacity=".5947" fill-rule="evenodd">
   <ellipse cx="-259.88" cy="547.07" rx="1.8844" ry="1.8394"/>
   <ellipse cx="-280.83" cy="520.14" rx="1.5406" ry="1.5335"/>
   <ellipse cx="-328.13" cy="555.22" rx="1.8844" ry="1.8394"/>
  </g>
  <g fill-opacity=".47348"></g>
  <g transform="matrix(.82656 0 0 .82656 -6.2515 522)" ns6:alignment="middle center" ns6:inkscapeversion="1.0" ns6:jacobian_sqrt="0.352778" ns6:pdfconverter="inkscape" ns6:preamble="C:\\Users\\User\\AppData\\Roaming\\inkscape\\extensions\\textext\\default_packages.tex" ns6:scale="1.0" ns6:texconverter="pdflatex" ns6:text=" $$f(\\mathbf x_c) &lt; f(\\mathbf x_{3})$$" ns6:version="1.1.0">
   <g transform="translate(-275.5 -139.24)">
    <g id="id-9d24c5cd-1e2d-4208-b588-91a87ee5e9dd">
     <g transform="translate(274.97 146.72)">
      <path d="m3.6562-3.9844h0.85938c0.20312 0 0.29688 0 0.29688-0.20312 0-0.10938-0.09375-0.10938-0.26562-0.10938h-0.82812l0.20312-1.1406c0.046875-0.20312 0.1875-0.90625 0.25-1.0312 0.078125-0.1875 0.25-0.34375 0.46875-0.34375 0.03125 0 0.29688 0 0.48438 0.1875-0.4375 0.03125-0.54688 0.39062-0.54688 0.53125 0 0.23438 0.1875 0.35938 0.375 0.35938 0.26562 0 0.54688-0.23438 0.54688-0.60938 0-0.45312-0.45312-0.6875-0.85938-0.6875-0.34375 0-0.96875 0.1875-1.2656 1.1719-0.0625 0.20312-0.09375 0.3125-0.32812 1.5625h-0.6875c-0.20312 0-0.3125 0-0.3125 0.1875 0 0.125 0.09375 0.125 0.28125 0.125h0.65625l-0.73438 3.9375c-0.1875 0.96875-0.35938 1.875-0.875 1.875-0.046875 0-0.28125 0-0.48438-0.1875 0.46875-0.03125 0.5625-0.39062 0.5625-0.53125 0-0.23438-0.1875-0.35938-0.375-0.35938-0.26562 0-0.54688 0.23438-0.54688 0.60938 0 0.4375 0.4375 0.6875 0.84375 0.6875 0.54688 0 0.95312-0.59375 1.125-0.96875 0.32812-0.625 0.54688-1.8281 0.5625-1.9062z"/>
     </g>
    </g>
    <g id="id-8902119b-98b8-4532-a6d3-40d8270afc6c">
     <g transform="translate(280.92 146.72)">
      <path id="id-6f6582ac-eed4-4064-8683-3514d4083f0d" d="m3.2969 2.3906c0-0.03125 0-0.046875-0.17188-0.21875-1.2344-1.25-1.5625-3.1406-1.5625-4.6719 0-1.7344 0.375-3.4688 1.6094-4.7031 0.125-0.125 0.125-0.14062 0.125-0.17188 0-0.078125-0.03125-0.10938-0.09375-0.10938-0.10938 0-1 0.6875-1.5938 1.9531-0.5 1.0938-0.625 2.2031-0.625 3.0312 0 0.78125 0.10938 1.9844 0.65625 3.125 0.60938 1.2188 1.4531 1.875 1.5625 1.875 0.0625 0 0.09375-0.03125 0.09375-0.10938z"/>
     </g>
    </g>
    <g id="id-06eef3cf-0127-48c5-aa2a-d2652f2e810c">
     <g transform="translate(284.8 146.72)">
      <path id="id-39a699ba-2167-4405-8474-5f6c67d7baec" d="m3.4531-2.4531 1.1562-1.2969c0.14062-0.14062 0.20312-0.20312 1.0156-0.20312v-0.46875c-0.34375 0.015625-0.85938 0.03125-0.90625 0.03125-0.25 0-0.75-0.03125-1.0312-0.03125v0.46875c0.14062 0 0.26562 0.015625 0.375 0.078125-0.03125 0.0625-0.03125 0.09375-0.078125 0.125l-0.82812 0.9375-0.98438-1.1406h0.40625v-0.46875c-0.26562 0-0.89062 0.03125-1.2188 0.03125-0.3125 0-0.76562-0.03125-1.0938-0.03125v0.46875h0.71875l1.5469 1.8281-1.3125 1.4688c-0.15625 0.1875-0.51562 0.1875-1 0.1875v0.46875c0.34375-0.015625 0.875-0.03125 0.92188-0.03125 0.25 0 0.82812 0.015625 1.0156 0.03125v-0.46875c-0.17188 0-0.35938-0.046875-0.35938-0.10938 0-0.015625 0-0.015625 0.0625-0.09375l0.96875-1.0938 1.0938 1.2969h-0.39062v0.46875c0.26562-0.015625 0.875-0.03125 1.2031-0.03125 0.3125 0 0.76562 0.015625 1.0938 0.03125v-0.46875h-0.70312z"/>
     </g>
    </g>
    <g transform="translate(290.84 148.21)">
     <path id="id-638bb5f6-d0c8-4c6c-8d51-f5c6a6a1686e" d="m3.0469-2.6719c-0.25 0.046875-0.34375 0.23438-0.34375 0.39062 0 0.1875 0.14062 0.26562 0.26562 0.26562 0.15625 0 0.39062-0.10938 0.39062-0.45312 0-0.46875-0.53125-0.60938-0.90625-0.60938-1.0469 0-2.0156 0.96875-2.0156 1.9375 0 0.59375 0.40625 1.2031 1.2812 1.2031 1.1875 0 1.7344-0.6875 1.7344-0.78125 0-0.046875-0.0625-0.125-0.125-0.125-0.03125 0-0.046875 0.015625-0.10938 0.078125-0.54688 0.64062-1.3594 0.64062-1.4844 0.64062-0.5 0-0.71875-0.34375-0.71875-0.78125 0-0.1875 0.09375-0.95312 0.45312-1.4375 0.26562-0.34375 0.625-0.53125 0.98438-0.53125 0.09375 0 0.42188 0.015625 0.59375 0.20312z"/>
    </g>
    <g transform="translate(294.9 146.72)">
     <path d="m2.875-2.5c0-0.76562-0.10938-1.9688-0.65625-3.1094-0.59375-1.2188-1.4531-1.875-1.5469-1.875-0.0625 0-0.10938 0.046875-0.10938 0.10938 0 0.03125 0 0.046875 0.1875 0.23438 0.98438 0.98438 1.5469 2.5625 1.5469 4.6406 0 1.7188-0.35938 3.4688-1.5938 4.7188-0.14062 0.125-0.14062 0.14062-0.14062 0.17188 0 0.0625 0.046875 0.10938 0.10938 0.10938 0.09375 0 1-0.6875 1.5781-1.9531 0.51562-1.0938 0.625-2.2031 0.625-3.0469z"/>
    </g>
    <g transform="translate(301.54 146.72)">
     <path id="id-618739da-cc02-468c-a993-b70103242e3a" d="m6.7344-4.9688c0.10938-0.0625 0.1875-0.10938 0.1875-0.21875s-0.09375-0.20312-0.20312-0.20312c-0.03125 0-0.046875 0-0.17188 0.078125l-5.5312 2.5938c-0.10938 0.0625-0.1875 0.10938-0.1875 0.21875 0 0.125 0.078125 0.17188 0.1875 0.23438l5.5312 2.5938c0.125 0.078125 0.14062 0.078125 0.17188 0.078125 0.10938 0 0.20312-0.09375 0.20312-0.20312s-0.078125-0.15625-0.1875-0.21875l-5.2344-2.4844z"/>
    </g>
    <g transform="translate(312.06 146.72)">
     <path d="m3.6562-3.9844h0.85938c0.20312 0 0.29688 0 0.29688-0.20312 0-0.10938-0.09375-0.10938-0.26562-0.10938h-0.82812l0.20312-1.1406c0.046875-0.20312 0.1875-0.90625 0.25-1.0312 0.078125-0.1875 0.25-0.34375 0.46875-0.34375 0.03125 0 0.29688 0 0.48438 0.1875-0.4375 0.03125-0.54688 0.39062-0.54688 0.53125 0 0.23438 0.1875 0.35938 0.375 0.35938 0.26562 0 0.54688-0.23438 0.54688-0.60938 0-0.45312-0.45312-0.6875-0.85938-0.6875-0.34375 0-0.96875 0.1875-1.2656 1.1719-0.0625 0.20312-0.09375 0.3125-0.32812 1.5625h-0.6875c-0.20312 0-0.3125 0-0.3125 0.1875 0 0.125 0.09375 0.125 0.28125 0.125h0.65625l-0.73438 3.9375c-0.1875 0.96875-0.35938 1.875-0.875 1.875-0.046875 0-0.28125 0-0.48438-0.1875 0.46875-0.03125 0.5625-0.39062 0.5625-0.53125 0-0.23438-0.1875-0.35938-0.375-0.35938-0.26562 0-0.54688 0.23438-0.54688 0.60938 0 0.4375 0.4375 0.6875 0.84375 0.6875 0.54688 0 0.95312-0.59375 1.125-0.96875 0.32812-0.625 0.54688-1.8281 0.5625-1.9062z"/>
    </g>
    <g id="id-45f2b1c7-2a31-45b6-8935-7b261879e36c">
     <g transform="translate(318.01,146.72)">
      <path d="m3.2969 2.3906c0-0.03125 0-0.046875-0.17188-0.21875-1.2344-1.25-1.5625-3.1406-1.5625-4.6719 0-1.7344 0.375-3.4688 1.6094-4.7031 0.125-0.125 0.125-0.14062 0.125-0.17188 0-0.078125-0.03125-0.10938-0.09375-0.10938-0.10938 0-1 0.6875-1.5938 1.9531-0.5 1.0938-0.625 2.2031-0.625 3.0312 0 0.78125 0.10938 1.9844 0.65625 3.125 0.60938 1.2188 1.4531 1.875 1.5625 1.875 0.0625 0 0.09375-0.03125 0.09375-0.10938z"/>
     </g>
    </g>
    <g transform="translate(321.88 146.72)">
     <path d="m3.4531-2.4531 1.1562-1.2969c0.14062-0.14062 0.20312-0.20312 1.0156-0.20312v-0.46875c-0.34375 0.015625-0.85938 0.03125-0.90625 0.03125-0.25 0-0.75-0.03125-1.0312-0.03125v0.46875c0.14062 0 0.26562 0.015625 0.375 0.078125-0.03125 0.0625-0.03125 0.09375-0.078125 0.125l-0.82812 0.9375-0.98438-1.1406h0.40625v-0.46875c-0.26562 0-0.89062 0.03125-1.2188 0.03125-0.3125 0-0.76562-0.03125-1.0938-0.03125v0.46875h0.71875l1.5469 1.8281-1.3125 1.4688c-0.15625 0.1875-0.51562 0.1875-1 0.1875v0.46875c0.34375-0.015625 0.875-0.03125 0.92188-0.03125 0.25 0 0.82812 0.015625 1.0156 0.03125v-0.46875c-0.17188 0-0.35938-0.046875-0.35938-0.10938 0-0.015625 0-0.015625 0.0625-0.09375l0.96875-1.0938 1.0938 1.2969h-0.39062v0.46875c0.26562-0.015625 0.875-0.03125 1.2031-0.03125 0.3125 0 0.76562 0.015625 1.0938 0.03125v-0.46875h-0.70312z"/>
    </g>
    <g transform="translate(327.93 148.21)">
     <path d="m1.9062-2.3281c0.54688 0 0.9375 0.375 0.9375 1.125 0 0.85938-0.51562 1.125-0.90625 1.125-0.28125 0-0.90625-0.078125-1.1875-0.5 0.32812 0 0.40625-0.23438 0.40625-0.39062 0-0.21875-0.17188-0.375-0.39062-0.375-0.1875 0-0.39062 0.125-0.39062 0.40625 0 0.65625 0.71875 1.0781 1.5625 1.0781 0.96875 0 1.6406-0.65625 1.6406-1.3438 0-0.54688-0.4375-1.0938-1.2031-1.25 0.71875-0.26562 0.98438-0.78125 0.98438-1.2188 0-0.54688-0.625-0.95312-1.4062-0.95312-0.76562 0-1.3594 0.375-1.3594 0.9375 0 0.23438 0.15625 0.35938 0.35938 0.35938 0.21875 0 0.35938-0.15625 0.35938-0.34375 0-0.20312-0.14062-0.35938-0.35938-0.375 0.25-0.29688 0.71875-0.375 0.98438-0.375 0.3125 0 0.75 0.15625 0.75 0.75 0 0.29688-0.09375 0.625-0.28125 0.82812-0.21875 0.26562-0.42188 0.28125-0.76562 0.3125-0.17188 0.015625-0.1875 0.015625-0.21875 0.015625-0.015625 0-0.078125 0.015625-0.078125 0.09375 0 0.09375 0.0625 0.09375 0.1875 0.09375z"/>
    </g>
    <g transform="translate(332.4 146.72)">
     <path d="m2.875-2.5c0-0.76562-0.10938-1.9688-0.65625-3.1094-0.59375-1.2188-1.4531-1.875-1.5469-1.875-0.0625 0-0.10938 0.046875-0.10938 0.10938 0 0.03125 0 0.046875 0.1875 0.23438 0.98438 0.98438 1.5469 2.5625 1.5469 4.6406 0 1.7188-0.35938 3.4688-1.5938 4.7188-0.14062 0.125-0.14062 0.14062-0.14062 0.17188 0 0.0625 0.046875 0.10938 0.10938 0.10938 0.09375 0 1-0.6875 1.5781-1.9531 0.51562-1.0938 0.625-2.2031 0.625-3.0469z"/>
    </g>
   </g>
  </g>
  <g transform="matrix(.80301 0 0 .80301 -234.63 467.97)" ns6:alignment="middle center" ns6:inkscapeversion="1.0" ns6:jacobian_sqrt="0.352778" ns6:pdfconverter="inkscape" ns6:preamble="C:\\Users\\User\\AppData\\Roaming\\inkscape\\extensions\\textext\\default_packages.tex" ns6:scale="1.0" ns6:texconverter="pdflatex" ns6:text=" $$f(\\mathbf x_e) &lt; f(\\mathbf{x}_r)$$" ns6:version="1.1.0">
   <g id="id-09cb3b77-944f-439f-9244-fdf75e19708e" transform="translate(-275.42 -139.24)">
    <g transform="translate(274.89 146.72)">
     <path id="id-70899be6-8c2d-4f08-9164-56161117087e" d="m3.6562-3.9844h0.85938c0.20312 0 0.29688 0 0.29688-0.20312 0-0.10938-0.09375-0.10938-0.26562-0.10938h-0.82812l0.20312-1.1406c0.046875-0.20312 0.1875-0.90625 0.25-1.0312 0.078125-0.1875 0.25-0.34375 0.46875-0.34375 0.03125 0 0.29688 0 0.48438 0.1875-0.4375 0.03125-0.54688 0.39062-0.54688 0.53125 0 0.23438 0.1875 0.35938 0.375 0.35938 0.26562 0 0.54688-0.23438 0.54688-0.60938 0-0.45312-0.45312-0.6875-0.85938-0.6875-0.34375 0-0.96875 0.1875-1.2656 1.1719-0.0625 0.20312-0.09375 0.3125-0.32812 1.5625h-0.6875c-0.20312 0-0.3125 0-0.3125 0.1875 0 0.125 0.09375 0.125 0.28125 0.125h0.65625l-0.73438 3.9375c-0.1875 0.96875-0.35938 1.875-0.875 1.875-0.046875 0-0.28125 0-0.48438-0.1875 0.46875-0.03125 0.5625-0.39062 0.5625-0.53125 0-0.23438-0.1875-0.35938-0.375-0.35938-0.26562 0-0.54688 0.23438-0.54688 0.60938 0 0.4375 0.4375 0.6875 0.84375 0.6875 0.54688 0 0.95312-0.59375 1.125-0.96875 0.32812-0.625 0.54688-1.8281 0.5625-1.9062z"/>
    </g>
    <g transform="translate(280.84 146.72)">
     <path d="m3.2969 2.3906c0-0.03125 0-0.046875-0.17188-0.21875-1.2344-1.25-1.5625-3.1406-1.5625-4.6719 0-1.7344 0.375-3.4688 1.6094-4.7031 0.125-0.125 0.125-0.14062 0.125-0.17188 0-0.078125-0.03125-0.10938-0.09375-0.10938-0.10938 0-1 0.6875-1.5938 1.9531-0.5 1.0938-0.625 2.2031-0.625 3.0312 0 0.78125 0.10938 1.9844 0.65625 3.125 0.60938 1.2188 1.4531 1.875 1.5625 1.875 0.0625 0 0.09375-0.03125 0.09375-0.10938z"/>
    </g>
    <g transform="translate(284.72 146.72)">
     <path id="id-9ed80dcf-b28a-4347-a878-1d8fbda8058b" d="m3.4531-2.4531 1.1562-1.2969c0.14062-0.14062 0.20312-0.20312 1.0156-0.20312v-0.46875c-0.34375 0.015625-0.85938 0.03125-0.90625 0.03125-0.25 0-0.75-0.03125-1.0312-0.03125v0.46875c0.14062 0 0.26562 0.015625 0.375 0.078125-0.03125 0.0625-0.03125 0.09375-0.078125 0.125l-0.82812 0.9375-0.98438-1.1406h0.40625v-0.46875c-0.26562 0-0.89062 0.03125-1.2188 0.03125-0.3125 0-0.76562-0.03125-1.0938-0.03125v0.46875h0.71875l1.5469 1.8281-1.3125 1.4688c-0.15625 0.1875-0.51562 0.1875-1 0.1875v0.46875c0.34375-0.015625 0.875-0.03125 0.92188-0.03125 0.25 0 0.82812 0.015625 1.0156 0.03125v-0.46875c-0.17188 0-0.35938-0.046875-0.35938-0.10938 0-0.015625 0-0.015625 0.0625-0.09375l0.96875-1.0938 1.0938 1.2969h-0.39062v0.46875c0.26562-0.015625 0.875-0.03125 1.2031-0.03125 0.3125 0 0.76562 0.015625 1.0938 0.03125v-0.46875h-0.70312z"/>
    </g>
    <g id="id-28a30482-e5a6-4ca0-9fcb-f97b9c6f32fb">
     <g transform="translate(290.76 148.21)">
      <path d="m1.5625-1.5938c0.1875 0 0.75-0.015625 1.125-0.14062 0.51562-0.1875 0.60938-0.51562 0.60938-0.71875 0-0.39062-0.39062-0.625-0.85938-0.625-0.84375 0-1.9688 0.64062-1.9688 1.8438 0 0.70312 0.4375 1.2969 1.25 1.2969 1.1875 0 1.7344-0.6875 1.7344-0.78125 0-0.046875-0.0625-0.125-0.125-0.125-0.03125 0-0.046875 0.015625-0.10938 0.078125-0.54688 0.64062-1.3594 0.64062-1.4844 0.64062-0.42188 0-0.70312-0.28125-0.70312-0.84375 0-0.09375 0-0.23438 0.09375-0.625zm-0.39062-0.1875c0.29688-1.0156 1.0625-1.0938 1.2656-1.0938 0.29688 0 0.5625 0.15625 0.5625 0.42188 0 0.67188-1.1875 0.67188-1.4844 0.67188z"/>
     </g>
    </g>
    <g id="id-7c4175ad-f20a-46f4-9263-741a7d312b3e">
     <g transform="translate(295.04 146.72)">
      <path id="id-a58e6764-bb98-45fc-a175-0ac02583a32a" d="m2.875-2.5c0-0.76562-0.10938-1.9688-0.65625-3.1094-0.59375-1.2188-1.4531-1.875-1.5469-1.875-0.0625 0-0.10938 0.046875-0.10938 0.10938 0 0.03125 0 0.046875 0.1875 0.23438 0.98438 0.98438 1.5469 2.5625 1.5469 4.6406 0 1.7188-0.35938 3.4688-1.5938 4.7188-0.14062 0.125-0.14062 0.14062-0.14062 0.17188 0 0.0625 0.046875 0.10938 0.10938 0.10938 0.09375 0 1-0.6875 1.5781-1.9531 0.51562-1.0938 0.625-2.2031 0.625-3.0469z"/>
     </g>
    </g>
    <g id="id-115b8eca-13e3-404c-9b46-3e3894a64a9d">
     <g transform="translate(301.68 146.72)">
      <path d="m6.7344-4.9688c0.10938-0.0625 0.1875-0.10938 0.1875-0.21875s-0.09375-0.20312-0.20312-0.20312c-0.03125 0-0.046875 0-0.17188 0.078125l-5.5312 2.5938c-0.10938 0.0625-0.1875 0.10938-0.1875 0.21875 0 0.125 0.078125 0.17188 0.1875 0.23438l5.5312 2.5938c0.125 0.078125 0.14062 0.078125 0.17188 0.078125 0.10938 0 0.20312-0.09375 0.20312-0.20312s-0.078125-0.15625-0.1875-0.21875l-5.2344-2.4844z"/>
     </g>
    </g>
    <g id="id-9ee497c2-b07c-49a4-bc21-f2b0ea273a6d">
     <g transform="translate(312.2 146.72)">
      <path d="m3.6562-3.9844h0.85938c0.20312 0 0.29688 0 0.29688-0.20312 0-0.10938-0.09375-0.10938-0.26562-0.10938h-0.82812l0.20312-1.1406c0.046875-0.20312 0.1875-0.90625 0.25-1.0312 0.078125-0.1875 0.25-0.34375 0.46875-0.34375 0.03125 0 0.29688 0 0.48438 0.1875-0.4375 0.03125-0.54688 0.39062-0.54688 0.53125 0 0.23438 0.1875 0.35938 0.375 0.35938 0.26562 0 0.54688-0.23438 0.54688-0.60938 0-0.45312-0.45312-0.6875-0.85938-0.6875-0.34375 0-0.96875 0.1875-1.2656 1.1719-0.0625 0.20312-0.09375 0.3125-0.32812 1.5625h-0.6875c-0.20312 0-0.3125 0-0.3125 0.1875 0 0.125 0.09375 0.125 0.28125 0.125h0.65625l-0.73438 3.9375c-0.1875 0.96875-0.35938 1.875-0.875 1.875-0.046875 0-0.28125 0-0.48438-0.1875 0.46875-0.03125 0.5625-0.39062 0.5625-0.53125 0-0.23438-0.1875-0.35938-0.375-0.35938-0.26562 0-0.54688 0.23438-0.54688 0.60938 0 0.4375 0.4375 0.6875 0.84375 0.6875 0.54688 0 0.95312-0.59375 1.125-0.96875 0.32812-0.625 0.54688-1.8281 0.5625-1.9062z"/>
     </g>
    </g>
    <g transform="translate(318.15 146.72)">
     <path d="m3.2969 2.3906c0-0.03125 0-0.046875-0.17188-0.21875-1.2344-1.25-1.5625-3.1406-1.5625-4.6719 0-1.7344 0.375-3.4688 1.6094-4.7031 0.125-0.125 0.125-0.14062 0.125-0.17188 0-0.078125-0.03125-0.10938-0.09375-0.10938-0.10938 0-1 0.6875-1.5938 1.9531-0.5 1.0938-0.625 2.2031-0.625 3.0312 0 0.78125 0.10938 1.9844 0.65625 3.125 0.60938 1.2188 1.4531 1.875 1.5625 1.875 0.0625 0 0.09375-0.03125 0.09375-0.10938z"/>
    </g>
    <g transform="translate(322.02 146.72)">
     <path d="m3.4531-2.4531 1.1562-1.2969c0.14062-0.14062 0.20312-0.20312 1.0156-0.20312v-0.46875c-0.34375 0.015625-0.85938 0.03125-0.90625 0.03125-0.25 0-0.75-0.03125-1.0312-0.03125v0.46875c0.14062 0 0.26562 0.015625 0.375 0.078125-0.03125 0.0625-0.03125 0.09375-0.078125 0.125l-0.82812 0.9375-0.98438-1.1406h0.40625v-0.46875c-0.26562 0-0.89062 0.03125-1.2188 0.03125-0.3125 0-0.76562-0.03125-1.0938-0.03125v0.46875h0.71875l1.5469 1.8281-1.3125 1.4688c-0.15625 0.1875-0.51562 0.1875-1 0.1875v0.46875c0.34375-0.015625 0.875-0.03125 0.92188-0.03125 0.25 0 0.82812 0.015625 1.0156 0.03125v-0.46875c-0.17188 0-0.35938-0.046875-0.35938-0.10938 0-0.015625 0-0.015625 0.0625-0.09375l0.96875-1.0938 1.0938 1.2969h-0.39062v0.46875c0.26562-0.015625 0.875-0.03125 1.2031-0.03125 0.3125 0 0.76562 0.015625 1.0938 0.03125v-0.46875h-0.70312z"/>
    </g>
    <g transform="translate(328.07 148.21)">
     <path d="m1.6406-1.4062c0-0.046875 0.17188-0.67188 0.17188-0.70312 0.015625-0.0625 0.21875-0.40625 0.45312-0.57812 0.0625-0.046875 0.25-0.1875 0.5625-0.1875 0.0625 0 0.23438 0 0.375 0.09375-0.21875 0.0625-0.29688 0.26562-0.29688 0.39062 0 0.14062 0.10938 0.25 0.26562 0.25 0.17188 0 0.39062-0.125 0.39062-0.42188 0-0.35938-0.375-0.51562-0.73438-0.51562s-0.67188 0.15625-0.98438 0.5c-0.125-0.42188-0.54688-0.5-0.71875-0.5-0.25 0-0.42188 0.17188-0.54688 0.35938-0.15625 0.26562-0.25 0.67188-0.25 0.71875 0 0.078125 0.09375 0.078125 0.125 0.078125 0.09375 0 0.09375-0.015625 0.14062-0.20312 0.10938-0.42188 0.25-0.75 0.51562-0.75 0.1875 0 0.23438 0.15625 0.23438 0.34375 0 0.125-0.0625 0.39062-0.125 0.57812-0.046875 0.1875-0.10938 0.46875-0.14062 0.625l-0.23438 0.89062c-0.015625 0.09375-0.0625 0.26562-0.0625 0.28125 0 0.15625 0.125 0.21875 0.23438 0.21875s0.25-0.0625 0.29688-0.1875c0.015625-0.046875 0.09375-0.35938 0.14062-0.53125z"/>
    </g>
    <g transform="translate(332.48 146.72)">
     <path d="m2.875-2.5c0-0.76562-0.10938-1.9688-0.65625-3.1094-0.59375-1.2188-1.4531-1.875-1.5469-1.875-0.0625 0-0.10938 0.046875-0.10938 0.10938 0 0.03125 0 0.046875 0.1875 0.23438 0.98438 0.98438 1.5469 2.5625 1.5469 4.6406 0 1.7188-0.35938 3.4688-1.5938 4.7188-0.14062 0.125-0.14062 0.14062-0.14062 0.17188 0 0.0625 0.046875 0.10938 0.10938 0.10938 0.09375 0 1-0.6875 1.5781-1.9531 0.51562-1.0938 0.625-2.2031 0.625-3.0469z"/>
    </g>
   </g>
  </g>
  <path d="m-153.33 512.38 0.95845-1.075c0.11657-0.11657 0.16835-0.16838 0.84186-0.16838v-0.38856c-0.28496 0.0122-0.71236 0.0258-0.75121 0.0258-0.20722 0-0.62169-0.0258-0.85483-0.0258v0.38856c0.11657 0 0.22018 0.0122 0.31085 0.0647-0.0259 0.0519-0.0259 0.0776-0.0647 0.10365l-0.68646 0.77712-0.81596-0.9455h0.33674v-0.38853c-0.22017 0-0.73826 0.0258-1.0102 0.0258-0.25903 0-0.63464-0.0258-0.90663-0.0258v0.38853h0.59579l1.2822 1.5154-1.0879 1.2175c-0.12959 0.15542-0.42744 0.15542-0.82893 0.15542v0.38855c0.28493-0.0122 0.72531-0.0258 0.76417-0.0258 0.20722 0 0.68644 0.0122 0.84186 0.0258v-0.38855c-0.1424 0-0.29789-0.0389-0.29789-0.0907 0-0.0122 0-0.0122 0.0518-0.0776l0.80301-0.90663 0.90664 1.075h-0.32382v0.38854c0.2202-0.0122 0.72532-0.0258 0.99729-0.0258 0.25905 0 0.63466 0.0122 0.90666 0.0258v-0.38854h-0.58285z"/>
  <path d="m-148.26 514.6h-0.19426c-0.0122 0.12959-0.0776 0.46628-0.15543 0.51808-0.0389 0.0389-0.47922 0.0389-0.56989 0.0389h-1.062c0.60871-0.53103 0.81597-0.69938 1.1527-0.97138 0.42741-0.33675 0.82891-0.69941 0.82891-1.2434 0-0.69941-0.60873-1.1268-1.347-1.1268-0.71236 0-1.2045 0.50513-1.2045 1.0362 0 0.28493 0.24608 0.3238 0.31085 0.3238 0.12957 0 0.29789-0.10365 0.29789-0.31085 0-0.10364-0.0389-0.31086-0.33674-0.31086 0.18132-0.40149 0.56988-0.53101 0.84186-0.53101 0.58283 0 0.88071 0.45331 0.88071 0.91958 0 0.50511-0.36264 0.89367-0.54397 1.1009l-1.3858 1.3858c-0.0647 0.0519-0.0647 0.0647-0.0647 0.22018h2.3831z"/>
  <path d="m-288.85 517.43 0.95845-1.075c0.11657-0.11657 0.16835-0.16838 0.84186-0.16838v-0.38856c-0.28496 0.0122-0.71236 0.0258-0.75121 0.0258-0.20722 0-0.62169-0.0258-0.85483-0.0258v0.38856c0.11657 0 0.22018 0.0122 0.31085 0.0647-0.0259 0.0519-0.0259 0.0776-0.0647 0.10365l-0.68646 0.77712-0.81596-0.9455h0.33674v-0.38853c-0.22017 0-0.73826 0.0258-1.0102 0.0258-0.25903 0-0.63464-0.0258-0.90663-0.0258v0.38853h0.59579l1.2822 1.5154-1.0879 1.2175c-0.12959 0.15542-0.42744 0.15542-0.82893 0.15542v0.38855c0.28493-0.0122 0.72531-0.0258 0.76417-0.0258 0.20722 0 0.68644 0.0122 0.84186 0.0258v-0.38855c-0.1424 0-0.29789-0.0389-0.29789-0.0907 0-0.0122 0-0.0122 0.0518-0.0776l0.80301-0.90663 0.90664 1.075h-0.32382v0.38854c0.2202-0.0122 0.72532-0.0258 0.99729-0.0258 0.25905 0 0.63466 0.0122 0.90666 0.0258v-0.38854h-0.58285z"/>
  <path d="m-283.79 519.65h-0.19426c-0.0122 0.12959-0.0776 0.46628-0.15543 0.51808-0.0389 0.0389-0.47922 0.0389-0.56989 0.0389h-1.062c0.60871-0.53103 0.81597-0.69938 1.1527-0.97138 0.42741-0.33675 0.82891-0.69941 0.82891-1.2434 0-0.69941-0.60873-1.1268-1.347-1.1268-0.71236 0-1.2045 0.50513-1.2045 1.0362 0 0.28493 0.24608 0.3238 0.31085 0.3238 0.12957 0 0.29789-0.10365 0.29789-0.31085 0-0.10364-0.0389-0.31086-0.33674-0.31086 0.18132-0.40149 0.56988-0.53101 0.84186-0.53101 0.58283 0 0.88071 0.45331 0.88071 0.91958 0 0.50511-0.36264 0.89367-0.54397 1.1009l-1.3858 1.3858c-0.0647 0.0519-0.0647 0.0647-0.0647 0.22018h2.3831z"/>
  <path d="m-87.746 569.32 0.95845-1.075c0.11657-0.11657 0.16835-0.16838 0.84186-0.16838v-0.38856c-0.28496 0.0122-0.71236 0.0258-0.75121 0.0258-0.20722 0-0.62169-0.0258-0.85483-0.0258v0.38856c0.11657 0 0.22018 0.0122 0.31085 0.0647-0.0259 0.0519-0.0259 0.0776-0.0647 0.10365l-0.68646 0.77712-0.81596-0.9455h0.33674v-0.38853c-0.22017 0-0.73826 0.0258-1.0102 0.0258-0.25903 0-0.63464-0.0258-0.90663-0.0258v0.38853h0.59579l1.2822 1.5154-1.0879 1.2175c-0.12959 0.15542-0.42744 0.15542-0.82893 0.15542v0.38855c0.28493-0.0122 0.72531-0.0258 0.76417-0.0258 0.20722 0 0.68644 0.0122 0.84186 0.0258v-0.38855c-0.1424 0-0.29789-0.0389-0.29789-0.0907 0-0.0122 0-0.0122 0.0518-0.0776l0.80301-0.90663 0.90664 1.075h-0.32382v0.38854c0.2202-0.0122 0.72532-0.0258 0.99729-0.0258 0.25905 0 0.63466 0.0122 0.90666 0.0258v-0.38854h-0.58285z"/>
  <path d="m-82.682 571.54h-0.19426c-0.0122 0.12959-0.0776 0.46628-0.15543 0.51808-0.0389 0.0389-0.47922 0.0389-0.56989 0.0389h-1.062c0.60871-0.53103 0.81597-0.69938 1.1527-0.97138 0.42741-0.33675 0.82891-0.69941 0.82891-1.2434 0-0.69941-0.60873-1.1268-1.347-1.1268-0.71236 0-1.2045 0.50513-1.2045 1.0362 0 0.28493 0.24608 0.3238 0.31085 0.3238 0.12957 0 0.29789-0.10365 0.29789-0.31085 0-0.10364-0.0389-0.31086-0.33674-0.31086 0.18132-0.40149 0.56988-0.53101 0.84186-0.53101 0.58283 0 0.88071 0.45331 0.88071 0.91958 0 0.50511-0.36264 0.89367-0.54397 1.1009l-1.3858 1.3858c-0.0647 0.0519-0.0647 0.0647-0.0647 0.22018h2.3831z"/>
  <path d="m-129.95 548.92 0.95845-1.075c0.11657-0.11657 0.16837-0.16837 0.84185-0.16837v-0.38856c-0.28493 0.0122-0.71234 0.0259-0.7512 0.0259-0.20723 0-0.62169-0.0259-0.85482-0.0259v0.38856c0.11658 0 0.22018 0.0122 0.31085 0.0647-0.0258 0.0519-0.0258 0.0776-0.0647 0.10364l-0.68645 0.77712-0.81597-0.94551h0.33675v-0.38855c-0.22018 0-0.73824 0.0259-1.0102 0.0259-0.25903 0-0.63463-0.0259-0.90662-0.0259v0.38855h0.59579l1.2822 1.5154-1.088 1.2175c-0.12957 0.15541-0.42741 0.15541-0.82892 0.15541v0.38856c0.28495-0.0122 0.7253-0.0259 0.76416-0.0259 0.20722 0 0.68645 0.0122 0.84186 0.0259v-0.38856c-0.14254 0-0.29788-0.0389-0.29788-0.0907 0-0.0122 0-0.0122 0.0519-0.0776l0.80303-0.9066 0.90662 1.075h-0.32379v0.38857c0.22018-0.0122 0.72529-0.0259 0.99729-0.0259 0.25903 0 0.63463 0.0122 0.90664 0.0259v-0.38857h-0.58285z"/>
  <path d="m-125.87 548.52c0-0.15542 0-0.15542-0.16838-0.15542-0.37561 0.36265-0.89368 0.36265-1.1268 0.36265v0.20722c0.12956 0 0.51807 0 0.82892-0.15542v2.9401c0 0.19426 0 0.27198-0.5699 0.27198h-0.22016v0.20723c0.10364 0 0.81595-0.0259 1.0232-0.0259 0.18132 0 0.90663 0.0259 1.0361 0.0259v-0.20723h-0.22016c-0.58284 0-0.58284-0.0776-0.58284-0.27198z"/>
  <path d="m-260.11 551.63 0.95845-1.075c0.11657-0.11657 0.16837-0.16837 0.84185-0.16837v-0.38856c-0.28493 0.0122-0.71234 0.0259-0.7512 0.0259-0.20723 0-0.62169-0.0259-0.85482-0.0259v0.38856c0.11658 0 0.22018 0.0122 0.31085 0.0647-0.0258 0.0519-0.0258 0.0776-0.0647 0.10364l-0.68645 0.77712-0.81597-0.94551h0.33675v-0.38855c-0.22018 0-0.73824 0.0259-1.0102 0.0259-0.25903 0-0.63463-0.0259-0.90662-0.0259v0.38855h0.59579l1.2822 1.5154-1.088 1.2175c-0.12957 0.15541-0.42741 0.15541-0.82892 0.15541v0.38856c0.28495-0.0122 0.7253-0.0259 0.76416-0.0259 0.20722 0 0.68645 0.0122 0.84186 0.0259v-0.38856c-0.14254 0-0.29788-0.0389-0.29788-0.0907 0-0.0122 0-0.0122 0.0519-0.0776l0.80303-0.9066 0.90662 1.075h-0.32379v0.38857c0.22018-0.0122 0.72529-0.0259 0.99729-0.0259 0.25903 0 0.63463 0.0122 0.90664 0.0259v-0.38857h-0.58285z"/>
  <path d="m-256.03 551.23c0-0.15542 0-0.15542-0.16838-0.15542-0.37561 0.36265-0.89368 0.36265-1.1268 0.36265v0.20722c0.12956 0 0.51807 0 0.82892-0.15542v2.9401c0 0.19426 0 0.27198-0.5699 0.27198h-0.22016v0.20723c0.10364 0 0.81595-0.0259 1.0232-0.0259 0.18132 0 0.90663 0.0259 1.0361 0.0259v-0.20723h-0.22016c-0.58284 0-0.58284-0.0776-0.58284-0.27198z"/>
  <path d="m-23.841 574.82 0.95844-1.075c0.11659-0.11657 0.16837-0.16838 0.84187-0.16838v-0.38854c-0.28495 0.0122-0.71236 0.0258-0.75122 0.0258-0.20722 0-0.62168-0.0258-0.85482-0.0258v0.38854c0.1166 0 0.22018 0.0122 0.31085 0.0647-0.0259 0.0519-0.0259 0.0776-0.0647 0.10364l-0.68646 0.7771-0.81595-0.94548h0.33673v-0.38856c-0.22016 0-0.73824 0.0258-1.0102 0.0258-0.25905 0-0.63465-0.0258-0.90663-0.0258v0.38856h0.59578l1.2822 1.5154-1.0879 1.2175c-0.12958 0.15541-0.42742 0.15541-0.82893 0.15541v0.38857c0.28494-0.0122 0.7253-0.0258 0.76415-0.0258 0.20724 0 0.68646 0.0122 0.84187 0.0258v-0.38857c-0.14254 0-0.29788-0.0389-0.29788-0.0907 0-0.0122 0-0.0122 0.0519-0.0776l0.803-0.90662 0.90664 1.075h-0.32381v0.38856c0.22018-0.0122 0.7253-0.0258 0.99729-0.0258 0.25906 0 0.63465 0.0122 0.90664 0.0258v-0.38856h-0.58283z" fill-opacity=".4"/>
  <path d="m-20.111 576.16c0.45331 0 0.7771 0.31084 0.7771 0.93254 0 0.71234-0.4274 0.93253-0.7512 0.93253-0.23314 0-0.75121-0.0647-0.98435-0.41446 0.272 0 0.33675-0.19428 0.33675-0.32379 0-0.18134-0.14254-0.31085-0.32379-0.31085-0.15543 0-0.32379 0.10364-0.32379 0.33675 0 0.54396 0.59578 0.89368 1.2952 0.89368 0.803 0 1.3599-0.54398 1.3599-1.1139 0-0.45333-0.36265-0.90664-0.9973-1.0362 0.5958-0.22019 0.81596-0.6476 0.81596-1.0102 0-0.45332-0.51805-0.79007-1.1656-0.79007-0.63466 0-1.1268 0.31083-1.1268 0.77711 0 0.19427 0.12957 0.29788 0.29789 0.29788 0.18133 0 0.29788-0.12959 0.29788-0.28492 0-0.1684-0.11659-0.29791-0.29788-0.31086 0.20723-0.2461 0.59578-0.31084 0.81597-0.31084 0.25902 0 0.62169 0.12956 0.62169 0.6217 0 0.24608-0.0777 0.51805-0.23314 0.68643-0.18133 0.22018-0.34969 0.23315-0.63464 0.25904-0.14239 0.0122-0.15541 0.0122-0.18133 0.0122-0.0122 0-0.0647 0.0122-0.0647 0.0776 0 0.0776 0.0519 0.0776 0.15543 0.0776z" fill-opacity=".4"/>
  <path d="m-328.43 559.95 0.95844-1.075c0.11659-0.11657 0.16837-0.16838 0.84187-0.16838v-0.38854c-0.28495 0.0122-0.71236 0.0258-0.75122 0.0258-0.20722 0-0.62168-0.0258-0.85482-0.0258v0.38854c0.1166 0 0.22018 0.0122 0.31085 0.0647-0.0259 0.0519-0.0259 0.0776-0.0647 0.10364l-0.68646 0.7771-0.81595-0.94548h0.33673v-0.38856c-0.22016 0-0.73824 0.0258-1.0102 0.0258-0.25905 0-0.63465-0.0258-0.90663-0.0258v0.38856h0.59578l1.2822 1.5154-1.0879 1.2175c-0.12958 0.15541-0.42742 0.15541-0.82893 0.15541v0.38857c0.28494-0.0122 0.7253-0.0258 0.76415-0.0258 0.20724 0 0.68646 0.0122 0.84187 0.0258v-0.38857c-0.14254 0-0.29788-0.0389-0.29788-0.0907 0-0.0122 0-0.0122 0.0519-0.0776l0.803-0.90662 0.90664 1.075h-0.32381v0.38856c0.22018-0.0122 0.7253-0.0258 0.99729-0.0258 0.25906 0 0.63465 0.0122 0.90664 0.0258v-0.38856h-0.58283z"/>
  <path d="m-324.7 561.29c0.45331 0 0.7771 0.31084 0.7771 0.93254 0 0.71234-0.4274 0.93253-0.7512 0.93253-0.23314 0-0.75121-0.0647-0.98435-0.41446 0.272 0 0.33675-0.19428 0.33675-0.32379 0-0.18134-0.14254-0.31085-0.32379-0.31085-0.15543 0-0.32379 0.10364-0.32379 0.33675 0 0.54396 0.59578 0.89368 1.2952 0.89368 0.803 0 1.3599-0.54398 1.3599-1.1139 0-0.45333-0.36265-0.90664-0.9973-1.0362 0.5958-0.22019 0.81596-0.6476 0.81596-1.0102 0-0.45332-0.51805-0.79007-1.1656-0.79007-0.63466 0-1.1268 0.31083-1.1268 0.77711 0 0.19427 0.12957 0.29788 0.29789 0.29788 0.18133 0 0.29788-0.12959 0.29788-0.28492 0-0.1684-0.11659-0.29791-0.29788-0.31086 0.20723-0.2461 0.59578-0.31084 0.81597-0.31084 0.25902 0 0.62169 0.12956 0.62169 0.6217 0 0.24608-0.0777 0.51805-0.23314 0.68643-0.18133 0.22018-0.34969 0.23315-0.63464 0.25904-0.14239 0.0122-0.15541 0.0122-0.18133 0.0122-0.0122 0-0.0647 0.0122-0.0647 0.0776 0 0.0776 0.0519 0.0776 0.15543 0.0776z"/>
  <path d="m-64.143 605.91 0.95845-1.075c0.11657-0.11657 0.16837-0.16837 0.84185-0.16837v-0.38856c-0.28493 0.0122-0.71234 0.0259-0.7512 0.0259-0.20723 0-0.62169-0.0259-0.85482-0.0259v0.38856c0.11658 0 0.22018 0.0122 0.31085 0.0647-0.0258 0.0519-0.0258 0.0776-0.0647 0.10364l-0.68645 0.77712-0.81597-0.94551h0.33675v-0.38855c-0.22018 0-0.73824 0.0259-1.0102 0.0259-0.25903 0-0.63463-0.0259-0.90662-0.0259v0.38855h0.59579l1.2822 1.5154-1.088 1.2175c-0.12957 0.15541-0.42741 0.15541-0.82892 0.15541v0.38856c0.28495-0.0122 0.7253-0.0259 0.76416-0.0259 0.20722 0 0.68645 0.0122 0.84186 0.0259v-0.38856c-0.14254 0-0.29788-0.0389-0.29788-0.0907 0-0.0122 0-0.0122 0.0519-0.0776l0.80303-0.9066 0.90662 1.075h-0.32379v0.38857c0.22018-0.0122 0.72529-0.0259 0.99729-0.0259 0.25903 0 0.63463 0.0122 0.90664 0.0259v-0.38857h-0.58285z"/>
  <path d="m-60.064 605.5c0-0.15542 0-0.15542-0.16838-0.15542-0.37561 0.36265-0.89368 0.36265-1.1268 0.36265v0.20722c0.12956 0 0.51807 0 0.82892-0.15542v2.9401c0 0.19426 0 0.27198-0.5699 0.27198h-0.22016v0.20723c0.10364 0 0.81595-0.0259 1.0232-0.0259 0.18132 0 0.90663 0.0259 1.0361 0.0259v-0.20723h-0.22016c-0.58284 0-0.58284-0.0776-0.58284-0.27198z"/>
  <g transform="matrix(.78378 0 0 .78378 -88.49 467.16)" ns6:alignment="middle center" ns6:inkscapeversion="1.0" ns6:jacobian_sqrt="0.352778" ns6:pdfconverter="inkscape" ns6:preamble="C:\\Users\\User\\AppData\\Roaming\\inkscape\\extensions\\textext\\default_packages.tex" ns6:scale="1.0" ns6:texconverter="pdflatex" ns6:text="$$f(\\mathbf x_1) \\leq f(\\mathbf x_r) &lt; f(\\mathbf x_n)$$" ns6:version="1.1.0">
   <g transform="translate(-256.1 -139.24)">
    <g transform="translate(46.062 1.6784)">
     <g transform="translate(255.57,146.72)">
      <path d="m3.6562-3.9844h0.85938c0.20312 0 0.29688 0 0.29688-0.20312 0-0.10938-0.09375-0.10938-0.26562-0.10938h-0.82812l0.20312-1.1406c0.046875-0.20312 0.1875-0.90625 0.25-1.0312 0.078125-0.1875 0.25-0.34375 0.46875-0.34375 0.03125 0 0.29688 0 0.48438 0.1875-0.4375 0.03125-0.54688 0.39062-0.54688 0.53125 0 0.23438 0.1875 0.35938 0.375 0.35938 0.26562 0 0.54688-0.23438 0.54688-0.60938 0-0.45312-0.45312-0.6875-0.85938-0.6875-0.34375 0-0.96875 0.1875-1.2656 1.1719-0.0625 0.20312-0.09375 0.3125-0.32812 1.5625h-0.6875c-0.20312 0-0.3125 0-0.3125 0.1875 0 0.125 0.09375 0.125 0.28125 0.125h0.65625l-0.73438 3.9375c-0.1875 0.96875-0.35938 1.875-0.875 1.875-0.046875 0-0.28125 0-0.48438-0.1875 0.46875-0.03125 0.5625-0.39062 0.5625-0.53125 0-0.23438-0.1875-0.35938-0.375-0.35938-0.26562 0-0.54688 0.23438-0.54688 0.60938 0 0.4375 0.4375 0.6875 0.84375 0.6875 0.54688 0 0.95312-0.59375 1.125-0.96875 0.32812-0.625 0.54688-1.8281 0.5625-1.9062z"/>
     </g>
    </g>
    <g transform="translate(46.062 1.6784)">
     <g transform="translate(261.52,146.72)">
      <path d="m3.2969 2.3906c0-0.03125 0-0.046875-0.17188-0.21875-1.2344-1.25-1.5625-3.1406-1.5625-4.6719 0-1.7344 0.375-3.4688 1.6094-4.7031 0.125-0.125 0.125-0.14062 0.125-0.17188 0-0.078125-0.03125-0.10938-0.09375-0.10938-0.10938 0-1 0.6875-1.5938 1.9531-0.5 1.0938-0.625 2.2031-0.625 3.0312 0 0.78125 0.10938 1.9844 0.65625 3.125 0.60938 1.2188 1.4531 1.875 1.5625 1.875 0.0625 0 0.09375-0.03125 0.09375-0.10938z"/>
     </g>
    </g>
    <g transform="translate(46.062 1.6784)">
     <g transform="translate(265.4 146.72)">
      <path d="m3.4531-2.4531 1.1562-1.2969c0.14062-0.14062 0.20312-0.20312 1.0156-0.20312v-0.46875c-0.34375 0.015625-0.85938 0.03125-0.90625 0.03125-0.25 0-0.75-0.03125-1.0312-0.03125v0.46875c0.14062 0 0.26562 0.015625 0.375 0.078125-0.03125 0.0625-0.03125 0.09375-0.078125 0.125l-0.82812 0.9375-0.98438-1.1406h0.40625v-0.46875c-0.26562 0-0.89062 0.03125-1.2188 0.03125-0.3125 0-0.76562-0.03125-1.0938-0.03125v0.46875h0.71875l1.5469 1.8281-1.3125 1.4688c-0.15625 0.1875-0.51562 0.1875-1 0.1875v0.46875c0.34375-0.015625 0.875-0.03125 0.92188-0.03125 0.25 0 0.82812 0.015625 1.0156 0.03125v-0.46875c-0.17188 0-0.35938-0.046875-0.35938-0.10938 0-0.015625 0-0.015625 0.0625-0.09375l0.96875-1.0938 1.0938 1.2969h-0.39062v0.46875c0.26562-0.015625 0.875-0.03125 1.2031-0.03125 0.3125 0 0.76562 0.015625 1.0938 0.03125v-0.46875h-0.70312z"/>
     </g>
    </g>
    <g transform="translate(46.062 1.6784)">
     <g transform="translate(275.91 146.72)">
      <path d="m2.875-2.5c0-0.76562-0.10938-1.9688-0.65625-3.1094-0.59375-1.2188-1.4531-1.875-1.5469-1.875-0.0625 0-0.10938 0.046875-0.10938 0.10938 0 0.03125 0 0.046875 0.1875 0.23438 0.98438 0.98438 1.5469 2.5625 1.5469 4.6406 0 1.7188-0.35938 3.4688-1.5938 4.7188-0.14062 0.125-0.14062 0.14062-0.14062 0.17188 0 0.0625 0.046875 0.10938 0.10938 0.10938 0.09375 0 1-0.6875 1.5781-1.9531 0.51562-1.0938 0.625-2.2031 0.625-3.0469z"/>
     </g>
    </g>
    <g transform="translate(-28.159 1.4919)">
     <g transform="translate(293.07 146.72)">
      <path d="m3.6562-3.9844h0.85938c0.20312 0 0.29688 0 0.29688-0.20312 0-0.10938-0.09375-0.10938-0.26562-0.10938h-0.82812l0.20312-1.1406c0.046875-0.20312 0.1875-0.90625 0.25-1.0312 0.078125-0.1875 0.25-0.34375 0.46875-0.34375 0.03125 0 0.29688 0 0.48438 0.1875-0.4375 0.03125-0.54688 0.39062-0.54688 0.53125 0 0.23438 0.1875 0.35938 0.375 0.35938 0.26562 0 0.54688-0.23438 0.54688-0.60938 0-0.45312-0.45312-0.6875-0.85938-0.6875-0.34375 0-0.96875 0.1875-1.2656 1.1719-0.0625 0.20312-0.09375 0.3125-0.32812 1.5625h-0.6875c-0.20312 0-0.3125 0-0.3125 0.1875 0 0.125 0.09375 0.125 0.28125 0.125h0.65625l-0.73438 3.9375c-0.1875 0.96875-0.35938 1.875-0.875 1.875-0.046875 0-0.28125 0-0.48438-0.1875 0.46875-0.03125 0.5625-0.39062 0.5625-0.53125 0-0.23438-0.1875-0.35938-0.375-0.35938-0.26562 0-0.54688 0.23438-0.54688 0.60938 0 0.4375 0.4375 0.6875 0.84375 0.6875 0.54688 0 0.95312-0.59375 1.125-0.96875 0.32812-0.625 0.54688-1.8281 0.5625-1.9062z"/>
     </g>
    </g>
    <g transform="translate(-28.159 1.4919)">
     <g transform="translate(299.02 146.72)">
      <path d="m3.2969 2.3906c0-0.03125 0-0.046875-0.17188-0.21875-1.2344-1.25-1.5625-3.1406-1.5625-4.6719 0-1.7344 0.375-3.4688 1.6094-4.7031 0.125-0.125 0.125-0.14062 0.125-0.17188 0-0.078125-0.03125-0.10938-0.09375-0.10938-0.10938 0-1 0.6875-1.5938 1.9531-0.5 1.0938-0.625 2.2031-0.625 3.0312 0 0.78125 0.10938 1.9844 0.65625 3.125 0.60938 1.2188 1.4531 1.875 1.5625 1.875 0.0625 0 0.09375-0.03125 0.09375-0.10938z"/>
     </g>
    </g>
    <g transform="translate(-28.159 1.4919)">
     <g transform="translate(302.89 146.72)">
      <path d="m3.4531-2.4531 1.1562-1.2969c0.14062-0.14062 0.20312-0.20312 1.0156-0.20312v-0.46875c-0.34375 0.015625-0.85938 0.03125-0.90625 0.03125-0.25 0-0.75-0.03125-1.0312-0.03125v0.46875c0.14062 0 0.26562 0.015625 0.375 0.078125-0.03125 0.0625-0.03125 0.09375-0.078125 0.125l-0.82812 0.9375-0.98438-1.1406h0.40625v-0.46875c-0.26562 0-0.89062 0.03125-1.2188 0.03125-0.3125 0-0.76562-0.03125-1.0938-0.03125v0.46875h0.71875l1.5469 1.8281-1.3125 1.4688c-0.15625 0.1875-0.51562 0.1875-1 0.1875v0.46875c0.34375-0.015625 0.875-0.03125 0.92188-0.03125 0.25 0 0.82812 0.015625 1.0156 0.03125v-0.46875c-0.17188 0-0.35938-0.046875-0.35938-0.10938 0-0.015625 0-0.015625 0.0625-0.09375l0.96875-1.0938 1.0938 1.2969h-0.39062v0.46875c0.26562-0.015625 0.875-0.03125 1.2031-0.03125 0.3125 0 0.76562 0.015625 1.0938 0.03125v-0.46875h-0.70312z"/>
     </g>
    </g>
    <g transform="translate(-28.159 1.4919)">
     <g transform="translate(308.94 148.21)">
      <path d="m1.6406-1.4062c0-0.046875 0.17188-0.67188 0.17188-0.70312 0.015625-0.0625 0.21875-0.40625 0.45312-0.57812 0.0625-0.046875 0.25-0.1875 0.5625-0.1875 0.0625 0 0.23438 0 0.375 0.09375-0.21875 0.0625-0.29688 0.26562-0.29688 0.39062 0 0.14062 0.10938 0.25 0.26562 0.25 0.17188 0 0.39062-0.125 0.39062-0.42188 0-0.35938-0.375-0.51562-0.73438-0.51562s-0.67188 0.15625-0.98438 0.5c-0.125-0.42188-0.54688-0.5-0.71875-0.5-0.25 0-0.42188 0.17188-0.54688 0.35938-0.15625 0.26562-0.25 0.67188-0.25 0.71875 0 0.078125 0.09375 0.078125 0.125 0.078125 0.09375 0 0.09375-0.015625 0.14062-0.20312 0.10938-0.42188 0.25-0.75 0.51562-0.75 0.1875 0 0.23438 0.15625 0.23438 0.34375 0 0.125-0.0625 0.39062-0.125 0.57812-0.046875 0.1875-0.10938 0.46875-0.14062 0.625l-0.23438 0.89062c-0.015625 0.09375-0.0625 0.26562-0.0625 0.28125 0 0.15625 0.125 0.21875 0.23438 0.21875s0.25-0.0625 0.29688-0.1875c0.015625-0.046875 0.09375-0.35938 0.14062-0.53125z"/>
     </g>
    </g>
    <g transform="translate(-28.159 1.4919)">
     <g transform="translate(313.35 146.72)">
      <path d="m2.875-2.5c0-0.76562-0.10938-1.9688-0.65625-3.1094-0.59375-1.2188-1.4531-1.875-1.5469-1.875-0.0625 0-0.10938 0.046875-0.10938 0.10938 0 0.03125 0 0.046875 0.1875 0.23438 0.98438 0.98438 1.5469 2.5625 1.5469 4.6406 0 1.7188-0.35938 3.4688-1.5938 4.7188-0.14062 0.125-0.14062 0.14062-0.14062 0.17188 0 0.0625 0.046875 0.10938 0.10938 0.10938 0.09375 0 1-0.6875 1.5781-1.9531 0.51562-1.0938 0.625-2.2031 0.625-3.0469z"/>
     </g>
    </g>
    <g transform="translate(-28.159 1.4919)">
     <g transform="translate(319.99 146.72)">
      <path d="m6.7344-4.9688c0.10938-0.0625 0.1875-0.10938 0.1875-0.21875s-0.09375-0.20312-0.20312-0.20312c-0.03125 0-0.046875 0-0.17188 0.078125l-5.5312 2.5938c-0.10938 0.0625-0.1875 0.10938-0.1875 0.21875 0 0.125 0.078125 0.17188 0.1875 0.23438l5.5312 2.5938c0.125 0.078125 0.14062 0.078125 0.17188 0.078125 0.10938 0 0.20312-0.09375 0.20312-0.20312s-0.078125-0.15625-0.1875-0.21875l-5.2344-2.4844z"/>
     </g>
    </g>
    <path d="m321.06 150.09h-0.24785c-0.0156 0.16534-0.099 0.59491-0.19831 0.661-0.0496 0.0496-0.61143 0.0496-0.72711 0.0496h-1.355c0.77664-0.67753 1.0411-0.89232 1.4707-1.2394 0.54532-0.42965 1.0576-0.89236 1.0576-1.5864 0-0.89236-0.77667-1.4377-1.7186-1.4377-0.90888 0-1.5368 0.64448-1.5368 1.322 0 0.36354 0.31397 0.41313 0.39661 0.41313 0.16531 0 0.38007-0.13224 0.38007-0.3966 0-0.13224-0.0496-0.39662-0.42964-0.39662 0.23134-0.51225 0.72709-0.6775 1.0741-0.6775 0.74361 0 1.1237 0.57836 1.1237 1.1733 0 0.64446-0.46268 1.1402-0.69404 1.4046l-1.7682 1.7682c-0.0826 0.0662-0.0826 0.0825-0.0826 0.28092h3.0406z"/>
   </g>
  </g>
  <g fill="#a60000" fill-rule="evenodd">
   <ellipse cx="74.878" cy="602.3" rx="1.8844" ry="1.8394" fill-opacity=".5947"/>
   <ellipse cx="114.9" cy="571.53" rx="1.3142" ry="1.303" fill-opacity=".35227"/>
   <ellipse cx="53.927" cy="575.37" rx="1.5406" ry="1.5335" fill-opacity=".38"/>
  </g>
  <path d="m53.917 575.3 21.006 27.105 39.108-30.577-60.113 3.4722" fill="none" stroke="#710000" stroke-opacity=".18561" stroke-width=".7"/>
  <g transform="matrix(.82987 0 0 .82987 79.703 583.97)" fill-opacity=".4" ns6:alignment="middle center" ns6:inkscapeversion="1.0" ns6:jacobian_sqrt="0.352778" ns6:pdfconverter="inkscape" ns6:preamble="C:\\Users\\User\\AppData\\Roaming\\inkscape\\extensions\\textext\\default_packages.tex" ns6:scale="1.0" ns6:texconverter="pdflatex" ns6:text="$$\\mathbf{x}_c$$" ns6:version="1.1.0">
   <g transform="translate(-300.79 -142.3)" fill-opacity=".4">
    <g transform="translate(300.57 146.72)">
     <path d="m7.0663-5.3056 1.1562-1.2969c0.14062-0.14062 0.20312-0.20312 1.0156-0.20312v-0.46875c-0.34375 0.015625-0.85938 0.03125-0.90625 0.03125-0.25 0-0.75-0.03125-1.0312-0.03125v0.46875c0.14062 0 0.26562 0.015625 0.375 0.078125-0.03125 0.0625-0.03125 0.09375-0.078125 0.125l-0.82812 0.9375-0.98438-1.1406h0.40625v-0.46875c-0.26562 0-0.89062 0.03125-1.2188 0.03125-0.3125 0-0.76562-0.03125-1.0938-0.03125v0.46875h0.71875l1.5469 1.8281-1.3125 1.4688c-0.15625 0.1875-0.51562 0.1875-1 0.1875v0.46875c0.34375-0.015625 0.875-0.03125 0.92188-0.03125 0.25 0 0.82812 0.015625 1.0156 0.03125v-0.46875c-0.17188 0-0.35938-0.046875-0.35938-0.10938 0-0.015625 0-0.015625 0.0625-0.09375l0.96875-1.0938 1.0938 1.2969h-0.39062v0.46875c0.26562-0.015625 0.875-0.03125 1.2031-0.03125 0.3125 0 0.76562 0.015625 1.0938 0.03125v-0.46875h-0.70312z" fill-opacity=".4"/>
    </g>
    <g transform="translate(306.62 148.21)">
     <path d="m6.66-5.5244c-0.25 0.046875-0.34375 0.23438-0.34375 0.39062 0 0.1875 0.14062 0.26562 0.26562 0.26562 0.15625 0 0.39062-0.10938 0.39062-0.45312 0-0.46875-0.53125-0.60938-0.90625-0.60938-1.0469 0-2.0156 0.96875-2.0156 1.9375 0 0.59375 0.40625 1.2031 1.2812 1.2031 1.1875 0 1.7344-0.6875 1.7344-0.78125 0-0.046875-0.0625-0.125-0.125-0.125-0.03125 0-0.046875 0.015625-0.10938 0.078125-0.54688 0.64062-1.3594 0.64062-1.4844 0.64062-0.5 0-0.71875-0.34375-0.71875-0.78125 0-0.1875 0.09375-0.95312 0.45312-1.4375 0.26562-0.34375 0.625-0.53125 0.98438-0.53125 0.09375 0 0.42188 0.015625 0.59375 0.20312z" fill-opacity=".4"/>
    </g>
   </g>
  </g>
  <g fill="#a60000" fill-rule="evenodd">
   <ellipse cx="88.667" cy="580.97" rx="1.3142" ry="1.303" fill-opacity=".35227"/>
   <ellipse cx="91.891" cy="589.23" rx="1.8844" ry="1.8394" fill-opacity=".5947"/>
   <ellipse cx="65.838" cy="590.87" rx="1.8844" ry="1.8394" fill-opacity=".5947"/>
  </g>
  <path d="m58.17 590.63 0.95845-1.075c0.11657-0.11657 0.16834-0.16838 0.84186-0.16838v-0.38856c-0.28496 0.0122-0.71236 0.0258-0.75122 0.0258-0.20721 0-0.62168-0.0258-0.85482-0.0258v0.38856c0.11657 0 0.22018 0.0122 0.31085 0.0647-0.0259 0.0519-0.0259 0.0776-0.0647 0.10365l-0.68646 0.77712-0.81597-0.9455h0.33675v-0.38853c-0.22017 0-0.73826 0.0258-1.0102 0.0258-0.25903 0-0.63464-0.0258-0.90663-0.0258v0.38853h0.59578l1.2822 1.5154-1.0879 1.2175c-0.12959 0.15542-0.42744 0.15542-0.82894 0.15542v0.38855c0.28494-0.0122 0.72532-0.0258 0.76418-0.0258 0.20722 0 0.68643 0.0122 0.84186 0.0258v-0.38855c-0.14241 0-0.29789-0.0389-0.29789-0.0907 0-0.0122 0-0.0122 0.0518-0.0776l0.80301-0.90663 0.90663 1.075h-0.32381v0.38854c0.2202-0.0122 0.72531-0.0258 0.99729-0.0258 0.25905 0 0.63466 0.0122 0.90666 0.0258v-0.38854h-0.58285z"/>
  <path d="m63.234 592.85h-0.19426c-0.0122 0.12959-0.0776 0.46628-0.15543 0.51808-0.0389 0.0389-0.47922 0.0389-0.56989 0.0389h-1.062c0.60871-0.53103 0.81596-0.69938 1.1527-0.97138 0.42741-0.33675 0.82891-0.69941 0.82891-1.2434 0-0.69941-0.60873-1.1268-1.347-1.1268-0.71236 0-1.2045 0.50513-1.2045 1.0362 0 0.28493 0.24607 0.3238 0.31084 0.3238 0.12958 0 0.2979-0.10365 0.2979-0.31085 0-0.10364-0.0389-0.31086-0.33674-0.31086 0.18132-0.40149 0.56988-0.53101 0.84186-0.53101 0.58282 0 0.88071 0.45331 0.88071 0.91958 0 0.50511-0.36264 0.89367-0.54397 1.1009l-1.3858 1.3858c-0.0647 0.0519-0.0647 0.0647-0.0647 0.22018h2.3831z"/>
  <path d="m75.025 606.83 0.95845-1.075c0.11657-0.11657 0.16837-0.16837 0.84184-0.16837v-0.38856c-0.28492 0.0122-0.71233 0.0259-0.75119 0.0259-0.20723 0-0.62169-0.0259-0.85482-0.0259v0.38856c0.11657 0 0.22018 0.0122 0.31085 0.0647-0.0258 0.0519-0.0258 0.0776-0.0647 0.10364l-0.68645 0.77712-0.81597-0.94551h0.33675v-0.38855c-0.22018 0-0.73824 0.0259-1.0102 0.0259-0.25903 0-0.63463-0.0259-0.90662-0.0259v0.38855h0.59579l1.2822 1.5154-1.088 1.2175c-0.12957 0.15541-0.42741 0.15541-0.82892 0.15541v0.38856c0.28495-0.0122 0.7253-0.0259 0.76415-0.0259 0.20723 0 0.68646 0.0122 0.84187 0.0259v-0.38856c-0.14254 0-0.29788-0.0389-0.29788-0.0907 0-0.0122 0-0.0122 0.0519-0.0776l0.80303-0.9066 0.90662 1.075h-0.32379v0.38857c0.22018-0.0122 0.72529-0.0259 0.99729-0.0259 0.25903 0 0.63463 0.0122 0.90664 0.0259v-0.38857h-0.58285z"/>
  <path d="m79.104 606.42c0-0.15542 0-0.15542-0.16838-0.15542-0.37561 0.36265-0.89368 0.36265-1.1268 0.36265v0.20722c0.12955 0 0.51807 0 0.82891-0.15542v2.9401c0 0.19426 0 0.27198-0.56989 0.27198h-0.22016v0.20723c0.10364 0 0.81595-0.0259 1.0232-0.0259 0.18132 0 0.90663 0.0259 1.0361 0.0259v-0.20723h-0.22016c-0.58284 0-0.58284-0.0776-0.58284-0.27198z"/>
  <path d="m97.21 589.94 0.95844-1.075c0.11658-0.11657 0.16837-0.16838 0.84187-0.16838v-0.38854c-0.28496 0.0122-0.71237 0.0258-0.75123 0.0258-0.20721 0-0.62167-0.0258-0.85481-0.0258v0.38854c0.1166 0 0.22017 0.0122 0.31084 0.0647-0.0259 0.0519-0.0259 0.0776-0.0647 0.10364l-0.68646 0.7771-0.81595-0.94548h0.33673v-0.38856c-0.22016 0-0.73824 0.0258-1.0102 0.0258-0.25905 0-0.63465-0.0258-0.90663-0.0258v0.38856h0.59578l1.2822 1.5154-1.0879 1.2175c-0.12958 0.15541-0.42742 0.15541-0.82893 0.15541v0.38857c0.28494-0.0122 0.7253-0.0258 0.76415-0.0258 0.20724 0 0.68646 0.0122 0.84187 0.0258v-0.38857c-0.14254 0-0.29788-0.0389-0.29788-0.0907 0-0.0122 0-0.0122 0.0519-0.0776l0.803-0.90662 0.90664 1.075h-0.32381v0.38856c0.22019-0.0122 0.7253-0.0258 0.99729-0.0258 0.25906 0 0.63465 0.0122 0.90664 0.0258v-0.38856h-0.58283z" fill-opacity=".99242"/>
  <path d="m100.94 591.28c0.45331 0 0.7771 0.31084 0.7771 0.93254 0 0.71234-0.4274 0.93253-0.7512 0.93253-0.23314 0-0.75121-0.0647-0.98435-0.41446 0.27201 0 0.33675-0.19428 0.33675-0.32379 0-0.18134-0.14253-0.31085-0.32378-0.31085-0.15543 0-0.3238 0.10364-0.3238 0.33675 0 0.54396 0.59578 0.89368 1.2952 0.89368 0.803 0 1.3599-0.54398 1.3599-1.1139 0-0.45333-0.36264-0.90664-0.9973-1.0362 0.5958-0.22019 0.81596-0.6476 0.81596-1.0102 0-0.45332-0.51804-0.79007-1.1656-0.79007-0.63467 0-1.1268 0.31083-1.1268 0.77711 0 0.19427 0.12956 0.29788 0.29788 0.29788 0.18133 0 0.29789-0.12959 0.29789-0.28492 0-0.1684-0.1166-0.29791-0.29789-0.31086 0.20723-0.2461 0.59579-0.31084 0.81597-0.31084 0.25903 0 0.6217 0.12956 0.6217 0.6217 0 0.24608-0.0777 0.51805-0.23314 0.68643-0.18133 0.22018-0.3497 0.23315-0.63464 0.25904-0.1424 0.0122-0.15542 0.0122-0.18133 0.0122-0.0122 0-0.0647 0.0122-0.0647 0.0776 0 0.0776 0.0519 0.0776 0.15543 0.0776z" fill-opacity=".99242"/>
  <path d="m119.75 571.29 0.95844-1.075c0.1166-0.11657 0.16837-0.16838 0.84187-0.16838v-0.38854c-0.28494 0.0122-0.71235 0.0258-0.75121 0.0258-0.20723 0-0.62168-0.0258-0.85483-0.0258v0.38854c0.1166 0 0.22019 0.0122 0.31086 0.0647-0.0259 0.0519-0.0259 0.0776-0.0647 0.10364l-0.68646 0.7771-0.81595-0.94548h0.33673v-0.38856c-0.22016 0-0.73824 0.0258-1.0102 0.0258-0.25905 0-0.63465-0.0258-0.90664-0.0258v0.38856h0.59579l1.2822 1.5154-1.0879 1.2175c-0.12959 0.15541-0.42742 0.15541-0.82893 0.15541v0.38857c0.28494-0.0122 0.7253-0.0258 0.76415-0.0258 0.20724 0 0.68646 0.0122 0.84187 0.0258v-0.38857c-0.14254 0-0.29788-0.0389-0.29788-0.0907 0-0.0122 0-0.0122 0.0519-0.0776l0.803-0.90662 0.90664 1.075h-0.32381v0.38856c0.22018-0.0122 0.72529-0.0258 0.99729-0.0258 0.25906 0 0.63465 0.0122 0.90664 0.0258v-0.38856h-0.58283z" fill-opacity=".4"/>
  <path d="m123.48 572.63c0.4533 0 0.7771 0.31084 0.7771 0.93254 0 0.71234-0.4274 0.93253-0.7512 0.93253-0.23314 0-0.75121-0.0647-0.98435-0.41446 0.27199 0 0.33674-0.19428 0.33674-0.32379 0-0.18134-0.14254-0.31085-0.32379-0.31085-0.15542 0-0.32378 0.10364-0.32378 0.33675 0 0.54396 0.59578 0.89368 1.2952 0.89368 0.803 0 1.3599-0.54398 1.3599-1.1139 0-0.45333-0.36266-0.90664-0.99731-1.0362 0.59581-0.22019 0.81597-0.6476 0.81597-1.0102 0-0.45332-0.51806-0.79007-1.1656-0.79007-0.63467 0-1.1268 0.31083-1.1268 0.77711 0 0.19427 0.12958 0.29788 0.2979 0.29788 0.18133 0 0.29787-0.12959 0.29787-0.28492 0-0.1684-0.11658-0.29791-0.29787-0.31086 0.20723-0.2461 0.59577-0.31084 0.81597-0.31084 0.25902 0 0.62168 0.12956 0.62168 0.6217 0 0.24608-0.0777 0.51805-0.23314 0.68643-0.18133 0.22018-0.34968 0.23315-0.63464 0.25904-0.14238 0.0122-0.1554 0.0122-0.18133 0.0122-0.0122 0-0.0647 0.0122-0.0647 0.0776 0 0.0776 0.0519 0.0776 0.15543 0.0776z" fill-opacity=".4"/>
  <path d="m53.057 570.57 0.95846-1.075c0.11657-0.11657 0.16835-0.16838 0.84186-0.16838v-0.38856c-0.28496 0.0122-0.71236 0.0258-0.75121 0.0258-0.20723 0-0.62169-0.0258-0.85484-0.0258v0.38856c0.11658 0 0.22019 0.0122 0.31086 0.0647-0.0259 0.0519-0.0259 0.0776-0.0647 0.10365l-0.68645 0.77712-0.81596-0.9455h0.33673v-0.38853c-0.22016 0-0.73825 0.0258-1.0102 0.0258-0.25903 0-0.63463-0.0258-0.90662-0.0258v0.38853h0.59579l1.2822 1.5154-1.0879 1.2175c-0.12959 0.15542-0.42744 0.15542-0.82893 0.15542v0.38855c0.28493-0.0122 0.72531-0.0258 0.76417-0.0258 0.20722 0 0.68644 0.0122 0.84186 0.0258v-0.38855c-0.1424 0-0.29789-0.0389-0.29789-0.0907 0-0.0122 0-0.0122 0.0518-0.0776l0.80301-0.90663 0.90664 1.075h-0.32382v0.38854c0.2202-0.0122 0.72532-0.0258 0.99729-0.0258 0.25905 0 0.63466 0.0122 0.90666 0.0258v-0.38854h-0.58286z" fill-opacity=".7"/>
  <path d="m58.122 572.8h-0.19426c-0.0122 0.12959-0.0776 0.46628-0.15543 0.51808-0.0389 0.0389-0.47922 0.0389-0.56989 0.0389h-1.062c0.60871-0.53103 0.81597-0.69938 1.1527-0.97138 0.42741-0.33675 0.82891-0.69941 0.82891-1.2434 0-0.69941-0.60873-1.1268-1.347-1.1268-0.71236 0-1.2045 0.50513-1.2045 1.0362 0 0.28493 0.24608 0.3238 0.31085 0.3238 0.12957 0 0.29789-0.10365 0.29789-0.31085 0-0.10364-0.0389-0.31086-0.33674-0.31086 0.18132-0.40149 0.56988-0.53101 0.84186-0.53101 0.58283 0 0.88071 0.45331 0.88071 0.91958 0 0.50511-0.36264 0.89367-0.54398 1.1009l-1.3858 1.3858c-0.0647 0.0519-0.0647 0.0647-0.0647 0.22018h2.3831z" fill-opacity=".7"/>
  <path d="m53.917 575.3 34.778 5.7129-13.773 21.392" fill="none" stroke="#710000" stroke-opacity=".19" stroke-width=".7"/>
  <path d="m66.044 590.97 8.8783 11.436 16.41-12.799z" fill="none" stroke="#710000" stroke-opacity=".60606" stroke-width=".665"/>
  <g transform="translate(-52.947 -179.88)">
   <ellipse cx="-166.91" cy="695.91" rx="1.3142" ry="1.303" fill="#a60000" fill-opacity=".35227" fill-rule="evenodd"/>
   <path d="m-162.43 695.72 0.95844-1.075c0.11659-0.11657 0.16837-0.16838 0.84186-0.16838v-0.38854c-0.28494 0.0122-0.71235 0.0258-0.75121 0.0258-0.20722 0-0.62168-0.0258-0.85482-0.0258v0.38854c0.11661 0 0.22018 0.0122 0.31085 0.0647-0.0259 0.0519-0.0259 0.0776-0.0647 0.10364l-0.68646 0.7771-0.81595-0.94548h0.33674v-0.38856c-0.22017 0-0.73824 0.0258-1.0102 0.0258-0.25905 0-0.63465-0.0258-0.90664-0.0258v0.38856h0.5958l1.2822 1.5154-1.0879 1.2175c-0.12956 0.15541-0.42741 0.15541-0.82892 0.15541v0.38857c0.28494-0.0122 0.72529-0.0258 0.76415-0.0258 0.20724 0 0.68646 0.0122 0.84187 0.0258v-0.38857c-0.14255 0-0.29787-0.0389-0.29787-0.0907 0-0.0122 0-0.0122 0.0519-0.0776l0.80299-0.90662 0.90664 1.075h-0.32382v0.38856c0.22019-0.0122 0.7253-0.0258 0.99731-0.0258 0.25905 0 0.63463 0.0122 0.90663 0.0258v-0.38856h-0.58283z" fill-opacity=".4"/>
   <path d="m-158.7 697.06c0.4533 0 0.7771 0.31084 0.7771 0.93254 0 0.71234-0.4274 0.93253-0.7512 0.93253-0.23314 0-0.75121-0.0647-0.98435-0.41446 0.272 0 0.33674-0.19428 0.33674-0.32379 0-0.18134-0.14253-0.31085-0.32378-0.31085-0.15542 0-0.32379 0.10364-0.32379 0.33675 0 0.54396 0.59579 0.89368 1.2952 0.89368 0.803 0 1.3599-0.54398 1.3599-1.1139 0-0.45333-0.36264-0.90664-0.99731-1.0362 0.59581-0.22019 0.81597-0.6476 0.81597-1.0102 0-0.45332-0.51806-0.79007-1.1656-0.79007-0.63467 0-1.1268 0.31083-1.1268 0.77711 0 0.19427 0.12957 0.29788 0.29789 0.29788 0.18133 0 0.29788-0.12959 0.29788-0.28492 0-0.1684-0.11659-0.29791-0.29788-0.31086 0.20723-0.2461 0.59578-0.31084 0.81597-0.31084 0.25903 0 0.62169 0.12956 0.62169 0.6217 0 0.24608-0.0777 0.51805-0.23314 0.68643-0.18132 0.22018-0.34969 0.23315-0.63464 0.25904-0.1424 0.0122-0.15541 0.0122-0.18133 0.0122-0.0122 0-0.0647 0.0122-0.0647 0.0776 0 0.0776 0.0519 0.0776 0.15544 0.0776z" fill-opacity=".4"/>
   <path d="m-227.9 699.67 21.006 27.105 39.108-30.577-60.113 3.4722" fill="none" stroke="#710000" stroke-opacity=".18561" stroke-width=".69956"/>
  </g>
  <ellipse cx="-89.819" cy="513.75" rx="1.3142" ry="1.303" fill="#a60000" fill-opacity=".35227" fill-rule="evenodd"/>
  <path d="m-85.336 513.56 0.95844-1.075c0.11659-0.11657 0.16837-0.16838 0.84186-0.16838v-0.38854c-0.28494 0.0122-0.71235 0.0258-0.75121 0.0258-0.20722 0-0.62168-0.0258-0.85482-0.0258v0.38854c0.11661 0 0.22018 0.0122 0.31085 0.0647-0.0259 0.0519-0.0259 0.0776-0.0647 0.10364l-0.68646 0.7771-0.81595-0.94548h0.33674v-0.38856c-0.22017 0-0.73824 0.0258-1.0102 0.0258-0.25905 0-0.63465-0.0258-0.90664-0.0258v0.38856h0.5958l1.2822 1.5154-1.0879 1.2175c-0.12956 0.15541-0.42741 0.15541-0.82892 0.15541v0.38857c0.28494-0.0122 0.72529-0.0258 0.76415-0.0258 0.20724 0 0.68646 0.0122 0.84187 0.0258v-0.38857c-0.14255 0-0.29787-0.0389-0.29787-0.0907 0-0.0122 0-0.0122 0.0519-0.0776l0.80299-0.90662 0.90664 1.075h-0.32382v0.38856c0.22019-0.0122 0.7253-0.0258 0.99731-0.0258 0.25905 0 0.63463 0.0122 0.90663 0.0258v-0.38856h-0.58283z" fill-opacity=".4"/>
  <path d="m-81.605 514.9c0.4533 0 0.7771 0.31084 0.7771 0.93254 0 0.71234-0.4274 0.93253-0.7512 0.93253-0.23314 0-0.75121-0.0647-0.98435-0.41446 0.272 0 0.33674-0.19428 0.33674-0.32379 0-0.18134-0.14253-0.31085-0.32378-0.31085-0.15542 0-0.32379 0.10364-0.32379 0.33675 0 0.54396 0.59579 0.89368 1.2952 0.89368 0.803 0 1.3599-0.54398 1.3599-1.1139 0-0.45333-0.36264-0.90664-0.99731-1.0362 0.59581-0.22019 0.81597-0.6476 0.81597-1.0102 0-0.45332-0.51806-0.79007-1.1656-0.79007-0.63467 0-1.1268 0.31083-1.1268 0.77711 0 0.19427 0.12957 0.29788 0.29789 0.29788 0.18133 0 0.29788-0.12959 0.29788-0.28492 0-0.1684-0.11659-0.29791-0.29788-0.31086 0.20723-0.2461 0.59578-0.31084 0.81597-0.31084 0.25903 0 0.62169 0.12956 0.62169 0.6217 0 0.24608-0.0777 0.51805-0.23314 0.68643-0.18132 0.22018-0.34969 0.23315-0.63464 0.25904-0.1424 0.0122-0.15541 0.0122-0.18133 0.0122-0.0122 0-0.0647 0.0122-0.0647 0.0776 0 0.0776 0.0519 0.0776 0.15544 0.0776z" fill-opacity=".4"/>
  <path d="m-150.8 517.52 21.006 27.105 39.108-30.577-60.113 3.4722" fill="none" stroke="#710000" stroke-opacity=".18561" stroke-width=".69956"/>
  <path d="m-47.037 583.97 0.95844-1.075c0.11659-0.11657 0.16837-0.16838 0.84187-0.16838v-0.38854c-0.28495 0.0122-0.71236 0.0258-0.75122 0.0258-0.20722 0-0.62168-0.0258-0.85482-0.0258v0.38854c0.1166 0 0.22018 0.0122 0.31085 0.0647-0.0259 0.0519-0.0259 0.0776-0.0647 0.10364l-0.68646 0.7771-0.81595-0.94548h0.33673v-0.38856c-0.22016 0-0.73824 0.0258-1.0102 0.0258-0.25905 0-0.63465-0.0258-0.90663-0.0258v0.38856h0.59578l1.2822 1.5154-1.0879 1.2175c-0.12958 0.15541-0.42742 0.15541-0.82893 0.15541v0.38857c0.28494-0.0122 0.7253-0.0258 0.76415-0.0258 0.20724 0 0.68646 0.0122 0.84187 0.0258v-0.38857c-0.14254 0-0.29788-0.0389-0.29788-0.0907 0-0.0122 0-0.0122 0.0519-0.0776l0.803-0.90662 0.90664 1.075h-0.32381v0.38856c0.22018-0.0122 0.7253-0.0258 0.99729-0.0258 0.25906 0 0.63465 0.0122 0.90664 0.0258v-0.38856h-0.58283z" fill-opacity=".9697"/>
  <path d="m-43.307 585.31c0.45331 0 0.7771 0.31084 0.7771 0.93254 0 0.71234-0.4274 0.93253-0.7512 0.93253-0.23314 0-0.75121-0.0647-0.98435-0.41446 0.272 0 0.33675-0.19428 0.33675-0.32379 0-0.18134-0.14254-0.31085-0.32379-0.31085-0.15543 0-0.32379 0.10364-0.32379 0.33675 0 0.54396 0.59578 0.89368 1.2952 0.89368 0.803 0 1.3599-0.54398 1.3599-1.1139 0-0.45333-0.36265-0.90664-0.9973-1.0362 0.5958-0.22019 0.81596-0.6476 0.81596-1.0102 0-0.45332-0.51805-0.79007-1.1656-0.79007-0.63466 0-1.1268 0.31083-1.1268 0.77711 0 0.19427 0.12957 0.29788 0.29789 0.29788 0.18133 0 0.29788-0.12959 0.29788-0.28492 0-0.1684-0.11659-0.29791-0.29788-0.31086 0.20723-0.2461 0.59578-0.31084 0.81597-0.31084 0.25902 0 0.62169 0.12956 0.62169 0.6217 0 0.24608-0.0777 0.51805-0.23314 0.68643-0.18133 0.22018-0.34969 0.23315-0.63464 0.25904-0.14239 0.0122-0.15541 0.0122-0.18133 0.0122-0.0122 0-0.0647 0.0122-0.0647 0.0776 0 0.0776 0.0519 0.0776 0.15543 0.0776z" fill-opacity=".9697"/>
  <rect transform="matrix(.94515 .32662 -.94528 .32627 0 0)" x="545.32" y="687" width="47.791" height="47.814" fill-opacity=".11" fill-rule="evenodd"/>
  <path d="m-179.18 417.86h-30.041v38.019" fill="none" stroke="#000" stroke-opacity=".31439" stroke-width=".865"/>
  <path d="m-88.817 417.87h30.041v38.019" fill="none" stroke="#000" stroke-opacity=".31439" stroke-width=".865"/>
  <rect transform="matrix(.94515 .32662 -.94528 .32627 0 0)" x="587.67" y="808.94" width="47.791" height="47.814" fill-opacity=".11" fill-rule="evenodd"/>
  <rect transform="matrix(.94515 .32662 -.94528 .32627 0 0)" x="667.23" y="729.32" width="47.791" height="47.814" fill-opacity=".11" fill-rule="evenodd"/>
  <g fill="none" stroke="#000" stroke-opacity=".31439" stroke-width=".865">
   <path d="m-13.606 471.5h30.041v38.019"/>
   <path d="m-254.42 471.48h-30.041v38.019"/>
   <path d="m-103.98 471.49h-29.091v38.019"/>
   <path d="m-164.05 471.49h28.878v38.019"/>
  </g>
  <rect transform="matrix(.94515 .32662 -.94528 .32627 0 0)" x="789.14" y="771.65" width="47.791" height="47.814" fill-opacity=".11" fill-rule="evenodd"/>
  <path d="m61.605 525.13h30.041v38.019" fill="none" stroke="#000" stroke-opacity=".31439" stroke-width=".865"/>
  <path d="m-28.762 525.12h-30.041v38.019" fill="none" stroke="#000" stroke-opacity=".31439" stroke-width=".865"/>
  <g fill="#005b00" fill-opacity=".59091" font-family="sans-serif" font-size="10.583px" stroke-opacity=".22348" stroke-width=".26458">
   <text x="-196.50641" y="415.56174" style="line-height:1.25" xml:space="preserve"><tspan x="-196.50641" y="415.56174" fill="#005b00" fill-opacity=".59091" font-family="'Courier New'" font-weight="bold" stroke-opacity=".22348" stroke-width=".26458">Y</tspan></text>
   <text x="-270.90005" y="469.5621" style="line-height:1.25" xml:space="preserve"><tspan x="-270.90005" y="469.5621" fill="#005b00" fill-opacity=".59091" font-family="'Courier New'" font-weight="bold" stroke-opacity=".22348" stroke-width=".26458">Y</tspan></text>
   <text x="-121.87428" y="469.65997" style="line-height:1.25" xml:space="preserve"><tspan x="-121.87428" y="469.65997" fill="#005b00" fill-opacity=".59091" font-family="'Courier New'" font-weight="bold" stroke-opacity=".22348" stroke-width=".26458">Y</tspan></text>
   <text x="-44.362072" y="522.00952" style="line-height:1.25" xml:space="preserve"><tspan x="-44.362072" y="522.00952" fill="#005b00" fill-opacity=".59091" font-family="'Courier New'" font-weight="bold" stroke-opacity=".22348" stroke-width=".26458">Y</tspan></text>
  </g>
  <g fill="#b10000" fill-opacity=".46591" font-family="sans-serif" font-size="10.583px" stroke-opacity=".22348" stroke-width=".26458">
   <text x="-75.626266" y="416.21259" style="line-height:1.25" xml:space="preserve"><tspan x="-75.626266" y="416.21259" fill="#b10000" fill-opacity=".46591" font-family="'Courier New'" font-weight="bold" stroke-opacity=".22348" stroke-width=".26458">N</tspan></text>
   <text x="-1.1649768" y="470.05505" style="line-height:1.25" xml:space="preserve"><tspan x="-1.1649768" y="470.05505" fill="#b10000" fill-opacity=".46591" font-family="'Courier New'" font-weight="bold" stroke-opacity=".22348" stroke-width=".26458">N</tspan></text>
   <text x="-150.07896" y="469.56207" style="line-height:1.25" xml:space="preserve"><tspan x="-150.07896" y="469.56207" fill="#b10000" fill-opacity=".46591" font-family="'Courier New'" font-weight="bold" stroke-opacity=".22348" stroke-width=".26458">N</tspan></text>
   <text x="74.173195" y="522.67999" style="line-height:1.25" xml:space="preserve"><tspan x="74.173195" y="522.67999" fill="#b10000" fill-opacity=".46591" font-family="'Courier New'" font-weight="bold" stroke-opacity=".22348" stroke-width=".26458">N</tspan></text>
  </g>
  <g fill="#004ca0" fill-opacity=".08" fill-rule="evenodd">
   <g transform="matrix(.72929 0 0 .72929 -397.63 457.06)">
    <ellipse cx="119.81" cy="128.61" rx="16.335" ry="8.2515"/>
    <ellipse cx="119.3" cy="129.06" rx="10.547" ry="5.595"/>
    <ellipse cx="121.59" cy="129.14" rx="23.296" ry="10.576"/>
    <ellipse cx="122.43" cy="128.95" rx="28.18" ry="13.465"/>
    <ellipse cx="123.8" cy="128.51" rx="32.717" ry="16.669"/>
    <ellipse cx="119.14" cy="129.29" rx="5.5429" ry="2.4396"/>
   </g>
   <g transform="matrix(.71433 .14695 -.14695 .71433 -211.91 423.04)">
    <ellipse cx="119.99" cy="141.24" rx="23.296" ry="10.576"/>
    <ellipse cx="120.83" cy="141.05" rx="28.18" ry="13.465"/>
    <ellipse cx="122.5" cy="140.69" rx="32.717" ry="16.669"/>
    <ellipse cx="118.21" cy="140.71" rx="16.335" ry="8.2515"/>
    <ellipse cx="117.7" cy="141.16" rx="10.547" ry="5.595"/>
    <ellipse cx="117.84" cy="141.47" rx="5.5429" ry="2.4396"/>
   </g>
   <g transform="matrix(.72929 0 0 .72929 -144.28 494.08)">
    <ellipse cx="119.81" cy="128.61" rx="16.335" ry="8.2515"/>
    <ellipse cx="119.3" cy="129.06" rx="10.547" ry="5.595"/>
    <ellipse cx="121.59" cy="129.14" rx="23.296" ry="10.576"/>
    <ellipse cx="122.43" cy="128.95" rx="28.18" ry="13.465"/>
    <ellipse cx="123.8" cy="128.51" rx="32.717" ry="16.669"/>
    <ellipse cx="119.14" cy="129.29" rx="5.5429" ry="2.4396"/>
   </g>
  </g>
  <g transform="matrix(-.27584 -.67511 .67511 -.27584 90.053 711.74)" fill="#ff4c32" fill-rule="evenodd">
   <g fill-opacity=".083333">
    <ellipse cx="165.55" cy="68.568" rx="22.579" ry="10.251"/>
    <ellipse cx="164.69" cy="68.588" rx="15.832" ry="7.9977"/>
    <ellipse cx="164.2" cy="69.024" rx="10.223" ry="5.4229"/>
   </g>
   <g fill-opacity=".07">
    <ellipse transform="matrix(.67559 -.73728 .86056 .50934 0 0)" cx="73.797" cy="135.15" rx="14.383" ry="23.583" stroke-width=".7668"/>
    <ellipse transform="matrix(.6555 -.7552 .85393 .52039 0 0)" cx="74.893" cy="136.81" rx="10.882" ry="18.436" stroke-width=".79734"/>
    <ellipse transform="matrix(.6555 -.7552 .85393 .52039 0 0)" cx="74.553" cy="137.82" rx="7.0262" ry="12.501" stroke-width=".79734"/>
   </g>
  </g>
  <ellipse transform="rotate(65.74)" cx="572.28" cy="175.6" rx="4.9209" ry="3.0194" fill="#4e8fff" fill-opacity=".16667" stroke-width=".72929"/>
  <path d="m-150.68 517.78 20.886 26.844-67.682 8.1068z" fill="none" stroke="#710000" stroke-opacity=".19" stroke-width=".665"/>
  <path d="m-150.68 517.78 20.886 26.844-33.898-4.3693z" fill="none" stroke="#710000" stroke-opacity=".60606" stroke-width=".665"/>
  <ellipse cx="-163.4" cy="540.37" rx="1.6406" ry="1.5692" fill="#a60000" fill-opacity=".5947" fill-rule="evenodd"/>
  <path d="m-167.42 545.08 0.95844-1.075c0.11659-0.11657 0.16837-0.16838 0.84187-0.16838v-0.38854c-0.28495 0.0122-0.71236 0.0258-0.75122 0.0258-0.20722 0-0.62168-0.0258-0.85482-0.0258v0.38854c0.1166 0 0.22018 0.0122 0.31085 0.0647-0.0259 0.0519-0.0259 0.0776-0.0647 0.10364l-0.68646 0.7771-0.81595-0.94548h0.33673v-0.38856c-0.22016 0-0.73824 0.0258-1.0102 0.0258-0.25905 0-0.63465-0.0258-0.90663-0.0258v0.38856h0.59578l1.2822 1.5154-1.0879 1.2175c-0.12958 0.15541-0.42742 0.15541-0.82893 0.15541v0.38857c0.28494-0.0122 0.7253-0.0258 0.76415-0.0258 0.20724 0 0.68646 0.0122 0.84187 0.0258v-0.38857c-0.14254 0-0.29788-0.0389-0.29788-0.0907 0-0.0122 0-0.0122 0.0519-0.0776l0.803-0.90662 0.90664 1.075h-0.32381v0.38856c0.22018-0.0122 0.7253-0.0258 0.99729-0.0258 0.25906 0 0.63465 0.0122 0.90664 0.0258v-0.38856h-0.58283z"/>
  <path d="m-163.69 546.42c0.45331 0 0.7771 0.31084 0.7771 0.93254 0 0.71234-0.4274 0.93253-0.7512 0.93253-0.23314 0-0.75121-0.0647-0.98435-0.41446 0.272 0 0.33675-0.19428 0.33675-0.32379 0-0.18134-0.14254-0.31085-0.32379-0.31085-0.15543 0-0.32379 0.10364-0.32379 0.33675 0 0.54396 0.59578 0.89368 1.2952 0.89368 0.803 0 1.3599-0.54398 1.3599-1.1139 0-0.45333-0.36265-0.90664-0.9973-1.0362 0.5958-0.22019 0.81596-0.6476 0.81596-1.0102 0-0.45332-0.51805-0.79007-1.1656-0.79007-0.63466 0-1.1268 0.31083-1.1268 0.77711 0 0.19427 0.12957 0.29788 0.29789 0.29788 0.18133 0 0.29788-0.12959 0.29788-0.28492 0-0.1684-0.11659-0.29791-0.29788-0.31086 0.20723-0.2461 0.59578-0.31084 0.81597-0.31084 0.25902 0 0.62169 0.12956 0.62169 0.6217 0 0.24608-0.0777 0.51805-0.23314 0.68643-0.18133 0.22018-0.34969 0.23315-0.63464 0.25904-0.14239 0.0122-0.15541 0.0122-0.18133 0.0122-0.0122 0-0.0647 0.0122-0.0647 0.0776 0 0.0776 0.0519 0.0776 0.15543 0.0776z"/>
  <ellipse cx="-198.35" cy="553.02" rx="1.3142" ry="1.303" fill="#a60000" fill-opacity=".35227" fill-rule="evenodd"/>
  <g transform="matrix(.84936 0 0 .84936 -198.52 560.87)" stroke-width="0" ns6:alignment="middle center" ns6:inkscapeversion="1.0" ns6:jacobian_sqrt="0.849361" ns6:pdfconverter="inkscape" ns6:preamble="C:\\Users\\User\\AppData\\Roaming\\inkscape\\extensions\\textext\\default_packages.tex" ns6:scale="2.4076355951901767" ns6:texconverter="pdflatex" ns6:text="$$\\mathbf{x}_e = \\mathbf{x}_e =$$" ns6:version="1.1.0">
   <g id="id-86cb1ca2-fc4f-40a9-af10-c3d8eb87bc0f" transform="translate(-283.62 -142.3)" stroke-width="0">
    <g transform="translate(-157.7 -2.9204)">
     <g transform="translate(296.49 146.72)" stroke-width="0">
      <path d="m6.8438-3.2656c0.15625 0 0.34375 0 0.34375-0.1875 0-0.20312-0.1875-0.20312-0.32812-0.20312h-5.9688c-0.14062 0-0.32812 0-0.32812 0.20312 0 0.1875 0.1875 0.1875 0.32812 0.1875zm0.015625 1.9375c0.14062 0 0.32812 0 0.32812-0.20312 0-0.1875-0.1875-0.1875-0.34375-0.1875h-5.9531c-0.14062 0-0.32812 0-0.32812 0.1875 0 0.20312 0.1875 0.20312 0.32812 0.20312z"/>
     </g>
    </g>
    <g transform="translate(-245.98 -19.348)">
     <g transform="translate(307.01 146.72)" stroke-width="0">
      <path id="id-5d5b3a1e-997c-46d9-a1d3-26df1749077e" d="m89.605 13.974 1.1562-1.2969c0.14062-0.14062 0.20312-0.20312 1.0156-0.20312v-0.46875c-0.34375 0.01563-0.85938 0.03125-0.90625 0.03125-0.25 0-0.75-0.03125-1.0312-0.03125v0.46875c0.14062 0 0.26562 0.01563 0.375 0.07813-0.03125 0.0625-0.03125 0.09375-0.07813 0.125l-0.82812 0.9375-0.98438-1.1406h0.40625v-0.46875c-0.26562 0-0.89062 0.03125-1.2188 0.03125-0.3125 0-0.76562-0.03125-1.0938-0.03125v0.46875h0.71875l1.5469 1.8281-1.3125 1.4688c-0.15625 0.1875-0.51562 0.1875-1 0.1875v0.46875c0.34375-0.01563 0.875-0.03125 0.92188-0.03125 0.25 0 0.82812 0.01563 1.0156 0.03125v-0.46875c-0.17188 0-0.35938-0.04687-0.35938-0.10938 0-0.01563 0-0.01563 0.0625-0.09375l0.96875-1.0938 1.0938 1.2969h-0.39062v0.46875c0.26562-0.01563 0.875-0.03125 1.2031-0.03125 0.3125 0 0.76562 0.01563 1.0938 0.03125v-0.46875h-0.70312z"/>
     </g>
    </g>
    <g id="id-9dbfd8dc-7b47-4d8b-a705-df226a2fbbec" transform="translate(-245.92 -19.166)">
     <g transform="translate(313.05 148.21)" stroke-width="0">
      <path d="m87.714 14.833c0.1875 0 0.75-0.01563 1.125-0.14062 0.51562-0.1875 0.60938-0.51562 0.60938-0.71875 0-0.39062-0.39062-0.625-0.85938-0.625-0.84375 0-1.9688 0.64062-1.9688 1.8438 0 0.70312 0.4375 1.2969 1.25 1.2969 1.1875 0 1.7344-0.6875 1.7344-0.78125 0-0.04687-0.0625-0.125-0.125-0.125-0.03125 0-0.04687 0.01563-0.10938 0.07813-0.54688 0.64062-1.3594 0.64062-1.4844 0.64062-0.42188 0-0.70312-0.28125-0.70312-0.84375 0-0.09375 0-0.23438 0.09375-0.625zm-0.39062-0.1875c0.29688-1.0156 1.0625-1.0938 1.2656-1.0938 0.29688 0 0.5625 0.15625 0.5625 0.42188 0 0.67188-1.1875 0.67188-1.4844 0.67188z"/>
     </g>
    </g>
   </g>
   <path d="m191.88 26.308c0.15625 0 0.34375 0 0.34375-0.1875 0-0.20313-0.1875-0.20313-0.32813-0.20313h-5.9688c-0.14062 0-0.32812 0-0.32812 0.20313 0 0.1875 0.1875 0.1875 0.32812 0.1875zm0.0156 1.9375c0.14063 0 0.32813 0 0.32813-0.20313 0-0.1875-0.1875-0.1875-0.34375-0.1875h-5.9531c-0.14062 0-0.32812 0-0.32812 0.1875 0 0.20313 0.1875 0.20313 0.32812 0.20313z"/>
   <g transform="matrix(.92802 0 0 .92802 193.97 24.991)" ns6:alignment="middle center" ns6:inkscapeversion="1.0" ns6:jacobian_sqrt="0.849361" ns6:pdfconverter="inkscape" ns6:preamble="C:\\Users\\User\\AppData\\Roaming\\inkscape\\extensions\\textext\\default_packages.tex" ns6:scale="2.4076355951901767" ns6:texconverter="pdflatex" ns6:text="$$\\mathbf{x}_c$$" ns6:version="1.1.0">
    <g transform="translate(-300.79 -142.3)">
     <g transform="translate(300.57 146.72)">
      <path d="m3.4531-2.4531 1.1562-1.2969c0.14062-0.14062 0.20312-0.20312 1.0156-0.20312v-0.46875c-0.34375 0.015625-0.85938 0.03125-0.90625 0.03125-0.25 0-0.75-0.03125-1.0312-0.03125v0.46875c0.14062 0 0.26562 0.015625 0.375 0.078125-0.03125 0.0625-0.03125 0.09375-0.078125 0.125l-0.82812 0.9375-0.98438-1.1406h0.40625v-0.46875c-0.26562 0-0.89062 0.03125-1.2188 0.03125-0.3125 0-0.76562-0.03125-1.0938-0.03125v0.46875h0.71875l1.5469 1.8281-1.3125 1.4688c-0.15625 0.1875-0.51562 0.1875-1 0.1875v0.46875c0.34375-0.015625 0.875-0.03125 0.92188-0.03125 0.25 0 0.82812 0.015625 1.0156 0.03125v-0.46875c-0.17188 0-0.35938-0.046875-0.35938-0.10938 0-0.015625 0-0.015625 0.0625-0.09375l0.96875-1.0938 1.0938 1.2969h-0.39062v0.46875c0.26562-0.015625 0.875-0.03125 1.2031-0.03125 0.3125 0 0.76562 0.015625 1.0938 0.03125v-0.46875h-0.70312z"/>
     </g>
     <g transform="translate(306.62 148.21)">
      <path id="id-082dc56c-41ac-4dbc-aa0a-72c9ec7304be" d="m3.0469-2.6719c-0.25 0.046875-0.34375 0.23438-0.34375 0.39062 0 0.1875 0.14062 0.26562 0.26562 0.26562 0.15625 0 0.39062-0.10938 0.39062-0.45312 0-0.46875-0.53125-0.60938-0.90625-0.60938-1.0469 0-2.0156 0.96875-2.0156 1.9375 0 0.59375 0.40625 1.2031 1.2812 1.2031 1.1875 0 1.7344-0.6875 1.7344-0.78125 0-0.046875-0.0625-0.125-0.125-0.125-0.03125 0-0.046875 0.015625-0.10938 0.078125-0.54688 0.64062-1.3594 0.64062-1.4844 0.64062-0.5 0-0.71875-0.34375-0.71875-0.78125 0-0.1875 0.09375-0.95312 0.45312-1.4375 0.26562-0.34375 0.625-0.53125 0.98438-0.53125 0.09375 0 0.42188 0.015625 0.59375 0.20312z"/>
     </g>
    </g>
   </g>
  </g>
  <g transform="matrix(.84936 0 0 .84936 -154.37 543.36)" stroke-width=".41535" ns6:alignment="middle center" ns6:inkscapeversion="1.0" ns6:jacobian_sqrt="0.352778" ns6:pdfconverter="inkscape" ns6:preamble="C:\\Users\\User\\AppData\\Roaming\\inkscape\\extensions\\textext\\default_packages.tex" ns6:scale="1.0" ns6:texconverter="pdflatex" ns6:text="$$\\mathbf{x}_r$$" ns6:version="1.1.0">
   <g transform="translate(-300.61 -142.3)" stroke-width=".41535">
    <g transform="translate(300.4 146.72)">
     <path d="m3.4531-2.4531 1.1562-1.2969c0.14062-0.14062 0.20312-0.20312 1.0156-0.20312v-0.46875c-0.34375 0.015625-0.85938 0.03125-0.90625 0.03125-0.25 0-0.75-0.03125-1.0312-0.03125v0.46875c0.14062 0 0.26562 0.015625 0.375 0.078125-0.03125 0.0625-0.03125 0.09375-0.078125 0.125l-0.82812 0.9375-0.98438-1.1406h0.40625v-0.46875c-0.26562 0-0.89062 0.03125-1.2188 0.03125-0.3125 0-0.76562-0.03125-1.0938-0.03125v0.46875h0.71875l1.5469 1.8281-1.3125 1.4688c-0.15625 0.1875-0.51562 0.1875-1 0.1875v0.46875c0.34375-0.015625 0.875-0.03125 0.92188-0.03125 0.25 0 0.82812 0.015625 1.0156 0.03125v-0.46875c-0.17188 0-0.35938-0.046875-0.35938-0.10938 0-0.015625 0-0.015625 0.0625-0.09375l0.96875-1.0938 1.0938 1.2969h-0.39062v0.46875c0.26562-0.015625 0.875-0.03125 1.2031-0.03125 0.3125 0 0.76562 0.015625 1.0938 0.03125v-0.46875h-0.70312z"/>
    </g>
    <g transform="translate(306.44 148.21)">
     <path d="m1.6406-1.4062c0-0.046875 0.17188-0.67188 0.17188-0.70312 0.015625-0.0625 0.21875-0.40625 0.45312-0.57812 0.0625-0.046875 0.25-0.1875 0.5625-0.1875 0.0625 0 0.23438 0 0.375 0.09375-0.21875 0.0625-0.29688 0.26562-0.29688 0.39062 0 0.14062 0.10938 0.25 0.26562 0.25 0.17188 0 0.39062-0.125 0.39062-0.42188 0-0.35938-0.375-0.51562-0.73438-0.51562s-0.67188 0.15625-0.98438 0.5c-0.125-0.42188-0.54688-0.5-0.71875-0.5-0.25 0-0.42188 0.17188-0.54688 0.35938-0.15625 0.26562-0.25 0.67188-0.25 0.71875 0 0.078125 0.09375 0.078125 0.125 0.078125 0.09375 0 0.09375-0.015625 0.14062-0.20312 0.10938-0.42188 0.25-0.75 0.51562-0.75 0.1875 0 0.23438 0.15625 0.23438 0.34375 0 0.125-0.0625 0.39062-0.125 0.57812-0.046875 0.1875-0.10938 0.46875-0.14062 0.625l-0.23438 0.89062c-0.015625 0.09375-0.0625 0.26562-0.0625 0.28125 0 0.15625 0.125 0.21875 0.23438 0.21875s0.25-0.0625 0.29688-0.1875c0.015625-0.046875 0.09375-0.35938 0.14062-0.53125z"/>
    </g>
   </g>
  </g>
  <path d="m-155.88 544.67c0.13271 0 0.29197 0 0.29197-0.15925 0-0.17253-0.15926-0.17253-0.2787-0.17253h-5.0696c-0.11944 0-0.2787 0-0.2787 0.17253 0 0.15925 0.15926 0.15925 0.2787 0.15925zm0.0133 1.6456c0.11944 0 0.2787 0 0.2787-0.17253 0-0.15925-0.15926-0.15925-0.29197-0.15925h-5.0564c-0.11944 0-0.2787 0-0.2787 0.15925 0 0.17253 0.15926 0.17253 0.2787 0.17253z"/>
  <g transform="matrix(.84936 0 0 .84936 -325.61 437.95)" fill-opacity=".4" stroke-width="0">
   <g transform="translate(-246.53 -20.261)">
    <g transform="translate(307.01 146.72)" fill-opacity=".4" stroke-width="0">
     <path d="m89.605 13.974 1.1562-1.2969c0.14062-0.14062 0.20312-0.20312 1.0156-0.20312v-0.46875c-0.34375 0.01563-0.85938 0.03125-0.90625 0.03125-0.25 0-0.75-0.03125-1.0312-0.03125v0.46875c0.14062 0 0.26562 0.01563 0.375 0.07813-0.03125 0.0625-0.03125 0.09375-0.07813 0.125l-0.82812 0.9375-0.98438-1.1406h0.40625v-0.46875c-0.26562 0-0.89062 0.03125-1.2188 0.03125-0.3125 0-0.76562-0.03125-1.0938-0.03125v0.46875h0.71875l1.5469 1.8281-1.3125 1.4688c-0.15625 0.1875-0.51562 0.1875-1 0.1875v0.46875c0.34375-0.01563 0.875-0.03125 0.92188-0.03125 0.25 0 0.82812 0.01563 1.0156 0.03125v-0.46875c-0.17188 0-0.35938-0.04687-0.35938-0.10938 0-0.01563 0-0.01563 0.0625-0.09375l0.96875-1.0938 1.0938 1.2969h-0.39062v0.46875c0.26562-0.01563 0.875-0.03125 1.2031-0.03125 0.3125 0 0.76562 0.01563 1.0938 0.03125v-0.46875h-0.70312z" fill-opacity=".4"/>
    </g>
   </g>
   <g transform="translate(-246.47 -20.079)">
    <g transform="translate(313.05 148.21)" fill-opacity=".4" stroke-width="0">
     <path d="m87.714 14.833c0.1875 0 0.75-0.01563 1.125-0.14062 0.51562-0.1875 0.60938-0.51562 0.60938-0.71875 0-0.39062-0.39062-0.625-0.85938-0.625-0.84375 0-1.9688 0.64062-1.9688 1.8438 0 0.70312 0.4375 1.2969 1.25 1.2969 1.1875 0 1.7344-0.6875 1.7344-0.78125 0-0.04687-0.0625-0.125-0.125-0.125-0.03125 0-0.04687 0.01563-0.10938 0.07813-0.54688 0.64062-1.3594 0.64062-1.4844 0.64062-0.42188 0-0.70312-0.28125-0.70312-0.84375 0-0.09375 0-0.23438 0.09375-0.625zm-0.39062-0.1875c0.29688-1.0156 1.0625-1.0938 1.2656-1.0938 0.29688 0 0.5625 0.15625 0.5625 0.42188 0 0.67188-1.1875 0.67188-1.4844 0.67188z" fill-opacity=".4"/>
    </g>
   </g>
  </g>
  <g fill-opacity=".6" font-family="sans-serif" font-size="10.583px" stroke-width=".26458">
   <text x="-156.46088" y="577.41266" style="line-height:1.25" xml:space="preserve"><tspan x="-156.46088" y="577.41266" fill="#000000" fill-opacity=".6" font-family="'Times New Roman'" stroke-width=".26458">reflection</tspan></text>
   <text x="-302.51154" y="577.75006" style="line-height:1.25" xml:space="preserve"><tspan x="-302.51154" y="577.75006" fill="#000000" fill-opacity=".6" font-family="'Times New Roman'" stroke-width=".26458">expansion</tspan></text>
   <text x="-83.267014" y="631.24573" style="line-height:1.25" xml:space="preserve"><tspan x="-83.267014" y="631.24573" fill="#000000" fill-opacity=".6" font-family="'Times New Roman'" stroke-width=".26458">contraction</tspan></text>
   <text x="68.078865" y="631.5011" style="line-height:1.25" xml:space="preserve"><tspan x="68.078865" y="631.5011" fill="#000000" fill-opacity=".6" font-family="'Times New Roman'" stroke-width=".26458">shrink</tspan></text>
  </g>
 </g>
</svg>
