<?xml version="1.0" encoding="UTF-8"?>
<svg width="90mm" height="45mm" version="1.1" viewBox="0 0 73.205 37.663" xmlns="http://www.w3.org/2000/svg" xmlns:cc="http://creativecommons.org/ns#" xmlns:dc="http://purl.org/dc/elements/1.1/" xmlns:ns6="http://www.iki.fi/pav/software/textext/" xmlns:rdf="http://www.w3.org/1999/02/22-rdf-syntax-ns#">
 <metadata>
  <rdf:RDF>
   <cc:Work rdf:about="">
    <dc:format>image/svg+xml</dc:format>
    <dc:type rdf:resource="http://purl.org/dc/dcmitype/StillImage"/>
    <dc:title/>
   </cc:Work>
  </rdf:RDF>
 </metadata>
 <g transform="translate(-49.093 -250)">
  <g fill="#a60000">
   <path d="m116.4 251.92-58.095 20.692" fill-opacity=".5947" stroke="#000" stroke-opacity=".18939" stroke-width=".654"/>
   <g fill-rule="evenodd">
    <ellipse cx="77.364" cy="282.07" rx="1.8844" ry="1.8394" fill-opacity=".5947"/>
    <ellipse cx="117.39" cy="251.3" rx="1.3142" ry="1.303" fill-opacity=".35227"/>
    <ellipse cx="56.413" cy="255.14" rx="1.5406" ry="1.5335" fill-opacity=".5947"/>
   </g>
  </g>
  <path d="m77.298 285.52 0.62801-0.70438c0.0764-0.0764 0.11032-0.11032 0.55161-0.11032v-0.2546c-0.1867 8e-3 -0.46676 0.017-0.49221 0.017-0.13579 0-0.40736-0.017-0.56011-0.017v0.2546c0.0764 0 0.14427 8e-3 0.20367 0.0424-0.01691 0.034-0.01691 0.0509-0.0424 0.0679l-0.44978 0.50919-0.53465-0.61952h0.22065v-0.25459c-0.14428 0-0.48374 0.017-0.66195 0.017-0.16973 0-0.41584-0.017-0.59406-0.017v0.25459h0.39039l0.84016 0.99293-0.71287 0.79773c-0.0849 0.10184-0.28005 0.10184-0.54314 0.10184v0.25459c0.18671-8e-3 0.47525-0.017 0.50071-0.017 0.13578 0 0.44978 8e-3 0.55162 0.017v-0.25459c-0.0934 0-0.19519-0.0255-0.19519-0.0594 0-8e-3 0-8e-3 0.034-0.0509l0.52616-0.59405 0.59406 0.70437h-0.21217v0.2546c0.14428-8e-3 0.47525-0.017 0.65347-0.017 0.16972 0 0.41583 8e-3 0.59405 0.017v-0.25461h-0.38189z"/>
  <path d="m79.97 285.25c0-0.10183 0-0.10183-0.11032-0.10183-0.24611 0.23762-0.58557 0.23762-0.73832 0.23762v0.13578c0.0849 0 0.33945 0 0.54313-0.10184v1.9264c0 0.12729 0 0.17821-0.37341 0.17821h-0.14427v0.13579c0.0679 0 0.53465-0.017 0.67043-0.017 0.11881 0 0.59406 0.017 0.67892 0.017v-0.13579h-0.14427c-0.38189 0-0.38189-0.0509-0.38189-0.17821z"/>
  <path d="m50.85 253.02 0.628-0.70437c0.0764-0.0764 0.11033-0.11033 0.55163-0.11033v-0.25459c-0.18671 8e-3 -0.46676 0.0169-0.49222 0.0169-0.13579 0-0.40735-0.0169-0.56011-0.0169v0.25459c0.0764 0 0.14427 8e-3 0.20368 0.0424-0.01699 0.034-0.01699 0.0509-0.0424 0.0679l-0.44979 0.5092-0.53465-0.61953h0.22065v-0.25458c-0.14427 0-0.48373 0.0169-0.66195 0.0169-0.16973 0-0.41583-0.0169-0.59405-0.0169v0.25458h0.39038l0.84016 0.99293-0.71287 0.79773c-0.0849 0.10184-0.28005 0.10184-0.54313 0.10184v0.25459c0.1867-8e-3 0.47524-0.0169 0.5007-0.0169 0.13579 0 0.44979 8e-3 0.55162 0.0169v-0.25459c-0.0934 0-0.19518-0.0255-0.19518-0.0594 0-8e-3 0-8e-3 0.0339-0.0509l0.52616-0.59405 0.59405 0.70438h-0.21216v0.25459c0.14427-8e-3 0.47524-0.0169 0.65346-0.0169 0.16973 0 0.41584 8e-3 0.59406 0.0169v-0.25459h-0.3819z"/>
  <path d="m54.168 254.47h-0.1273c-8e-3 0.0849-0.0509 0.30551-0.10183 0.33945-0.02551 0.0255-0.31401 0.0255-0.37341 0.0255h-0.69589c0.39886-0.34796 0.53464-0.45827 0.75529-0.6365 0.28006-0.22065 0.54314-0.45827 0.54314-0.8147 0-0.45828-0.39886-0.73833-0.8826-0.73833-0.46675 0-0.78924 0.33099-0.78924 0.67892 0 0.1867 0.16124 0.21218 0.20368 0.21218 0.0849 0 0.19519-0.0679 0.19519-0.20368 0-0.0679-0.02551-0.20369-0.22065-0.20369 0.11881-0.26308 0.3734-0.34793 0.55162-0.34793 0.38189 0 0.57708 0.29702 0.57708 0.60253 0 0.33097-0.23762 0.58556-0.35643 0.72135l-0.90806 0.90805c-0.0424 0.034-0.0424 0.0424-0.0424 0.14428h1.5615z"/>
  <path d="m118.95 254.26 0.628-0.70438c0.0764-0.0764 0.11032-0.11033 0.55162-0.11033v-0.25459c-0.18671 8e-3 -0.46676 0.0169-0.49222 0.0169-0.13578 0-0.40735-0.0169-0.56011-0.0169v0.25459c0.0764 0 0.14427 8e-3 0.20368 0.0424-0.017 0.034-0.017 0.0509-0.0424 0.0679l-0.44979 0.50919-0.53464-0.61951h0.22064v-0.2546c-0.14426 0-0.48373 0.0169-0.66194 0.0169-0.16973 0-0.41584-0.0169-0.59405-0.0169v0.2546h0.39037l0.84016 0.99291-0.71286 0.79774c-0.0849 0.10183-0.28005 0.10183-0.54314 0.10183v0.2546c0.18671-8e-3 0.47525-0.0169 0.50071-0.0169 0.13579 0 0.44978 8e-3 0.55162 0.0169v-0.2546c-0.0934 0-0.19519-0.0255-0.19519-0.0594 0-8e-3 0-8e-3 0.034-0.0509l0.52616-0.59405 0.59406 0.70437h-0.21217v0.2546c0.14427-8e-3 0.47524-0.0169 0.65346-0.0169 0.16974 0 0.41584 8e-3 0.59406 0.0169v-0.2546h-0.38189z" fill-opacity=".70454"/>
  <path d="m121.39 255.14c0.29702 0 0.50918 0.20368 0.50918 0.61103 0 0.46676-0.28005 0.61103-0.49221 0.61103-0.15276 0-0.49222-0.0424-0.64498-0.27157 0.17822 0 0.22065-0.1273 0.22065-0.21216 0-0.11882-0.0934-0.20368-0.21216-0.20368-0.10184 0-0.21216 0.0679-0.21216 0.22065 0 0.35643 0.39038 0.58557 0.84865 0.58557 0.52615 0 0.89108-0.35643 0.89108-0.72984 0-0.29703-0.23762-0.59406-0.65347-0.67892 0.39039-0.14427 0.53465-0.42433 0.53465-0.66194 0-0.29703-0.33945-0.51768-0.76377-0.51768-0.41585 0-0.73833 0.20367-0.73833 0.50919 0 0.12729 0.0849 0.19518 0.19519 0.19518 0.11881 0 0.19518-0.0849 0.19518-0.18669 0-0.11033-0.0764-0.1952-0.19518-0.20368 0.13578-0.16125 0.39037-0.20368 0.53465-0.20368 0.16972 0 0.40735 0.0849 0.40735 0.40736 0 0.16124-0.0509 0.33945-0.15276 0.44978-0.11881 0.14427-0.22913 0.15276-0.41584 0.16973-0.0933 8e-3 -0.10183 8e-3 -0.11881 8e-3 -8e-3 0-0.0424 8e-3 -0.0424 0.0509 0 0.0509 0.034 0.0509 0.10184 0.0509z" fill-opacity=".70454"/>
  <path d="m56.403 255.07 21.006 27.105 39.108-30.577-60.113 3.4722" fill="none" stroke="#710000" stroke-opacity=".18561" stroke-width=".69956"/>
  <circle cx="67.509" cy="269.34" r=".5426" fill-opacity=".65909" fill-rule="evenodd"/>
  <g fill-opacity=".47348">
   <g transform="matrix(.52424 0 0 .52424 34.181 283.5)" ns6:alignment="middle center" ns6:inkscapeversion="1.0" ns6:jacobian_sqrt="0.352778" ns6:pdfconverter="inkscape" ns6:preamble="C:\\Users\\User\\AppData\\Roaming\\inkscape\\extensions\\textext\\default_packages.tex" ns6:scale="1.0" ns6:texconverter="pdflatex" ns6:text="$$\\mathbf{x}_r$$" ns6:version="1.1.0">
    <g transform="translate(-300.61,-142.3)" fill-opacity=".47348"></g>
   </g>
   <g transform="matrix(.5253 0 0 .5253 64.745 264.9)" ns6:alignment="middle center" ns6:inkscapeversion="1.0" ns6:jacobian_sqrt="0.352778" ns6:pdfconverter="inkscape" ns6:preamble="C:\\Users\\User\\AppData\\Roaming\\inkscape\\extensions\\textext\\default_packages.tex" ns6:scale="1.0" ns6:texconverter="pdflatex" ns6:text="$$\\mathbf{x}_o$$" ns6:version="1.1.0">
    <g transform="translate(-300.6,-142.3)" fill-opacity=".47348">
     <g transform="translate(300.38,146.72)">
      <path d="m8.1752-0.68236 1.1562-1.2969c0.14062-0.14062 0.20312-0.20312 1.0156-0.20312v-0.46875c-0.34375 0.015625-0.85938 0.03125-0.90625 0.03125-0.25 0-0.75-0.03125-1.0312-0.03125v0.46875c0.14062 0 0.26562 0.015625 0.375 0.078125-0.03125 0.0625-0.03125 0.09375-0.078125 0.125l-0.82812 0.9375-0.98438-1.1406h0.40625v-0.46875c-0.26562 0-0.89062 0.03125-1.2188 0.03125-0.3125 0-0.76562-0.03125-1.0938-0.03125v0.46875h0.71875l1.5469 1.8281-1.3125 1.4688c-0.15625 0.1875-0.51562 0.1875-1 0.1875v0.46875c0.34375-0.015625 0.875-0.03125 0.92188-0.03125 0.25 0 0.82812 0.015625 1.0156 0.03125v-0.46875c-0.17188 0-0.35938-0.046875-0.35938-0.10938 0-0.015625 0-0.015625 0.0625-0.09375l0.96875-1.0938 1.0938 1.2969h-0.39062v0.46875c0.26562-0.015625 0.875-0.03125 1.2031-0.03125 0.3125 0 0.76563 0.015625 1.0938 0.03125v-0.46875h-0.70313z" fill-opacity=".47348"/>
     </g>
     <g transform="translate(306.43,148.21)">
      <path d="m8.4252-0.08861c0-0.76562-0.57812-1.2187-1.2656-1.2187-1.0312 0-2 0.96875-2 1.9219 0 0.70313 0.5 1.2188 1.2656 1.2188 1 0 2-0.90625 2-1.9219zm-2 1.7344c-0.34375 0-0.6875-0.21875-0.6875-0.78125 0-0.28125 0.125-0.96875 0.40625-1.3594 0.29688-0.4375 0.70312-0.60937 1.0156-0.60937 0.375 0 0.6875 0.25 0.6875 0.76562 0 0.17188-0.078125 0.85938-0.39062 1.3438-0.26562 0.42188-0.67188 0.64062-1.0312 0.64062z" fill-opacity=".47348"/>
     </g>
    </g>
   </g>
   <g transform="matrix(.51652 0 0 .51652 7.2024 292.39)" ns6:alignment="middle center" ns6:inkscapeversion="1.0" ns6:jacobian_sqrt="0.352778" ns6:pdfconverter="inkscape" ns6:preamble="C:\\Users\\User\\AppData\\Roaming\\inkscape\\extensions\\textext\\default_packages.tex" ns6:scale="1.0" ns6:texconverter="pdflatex" ns6:text="$$\\mathbf{x}_e$$" ns6:version="1.1.0">
    <g transform="translate(-300.68,-142.3)" fill-opacity=".47348"></g>
   </g>
  </g>
  <g transform="matrix(.54349 0 0 .54349 90.376 263.28)" ns6:alignment="middle center" ns6:inkscapeversion="1.0" ns6:jacobian_sqrt="0.352778" ns6:pdfconverter="inkscape" ns6:preamble="C:\\Users\\User\\AppData\\Roaming\\inkscape\\extensions\\textext\\default_packages.tex" ns6:scale="1.0" ns6:texconverter="pdflatex" ns6:text="$$\\mathbf{x}_c$$" ns6:version="1.1.0">
   <g id="id-94dbbf05-93d2-44e5-b0fa-4d6863260e7d" transform="translate(-300.79,-142.3)">
    <g id="id-3973b304-71f3-404d-8b6d-744034f0c09c">
     <g transform="translate(300.57,146.72)">
      <path id="id-d25dd639-c53e-4f4e-be7a-a7f36512e97c" d="m3.4531-2.4531 1.1562-1.2969c0.14062-0.14062 0.20312-0.20312 1.0156-0.20312v-0.46875c-0.34375 0.015625-0.85938 0.03125-0.90625 0.03125-0.25 0-0.75-0.03125-1.0312-0.03125v0.46875c0.14062 0 0.26562 0.015625 0.375 0.078125-0.03125 0.0625-0.03125 0.09375-0.078125 0.125l-0.82812 0.9375-0.98438-1.1406h0.40625v-0.46875c-0.26562 0-0.89062 0.03125-1.2188 0.03125-0.3125 0-0.76562-0.03125-1.0938-0.03125v0.46875h0.71875l1.5469 1.8281-1.3125 1.4688c-0.15625 0.1875-0.51562 0.1875-1 0.1875v0.46875c0.34375-0.015625 0.875-0.03125 0.92188-0.03125 0.25 0 0.82812 0.015625 1.0156 0.03125v-0.46875c-0.17188 0-0.35938-0.046875-0.35938-0.10938 0-0.015625 0-0.015625 0.0625-0.09375l0.96875-1.0938 1.0938 1.2969h-0.39062v0.46875c0.26562-0.015625 0.875-0.03125 1.2031-0.03125 0.3125 0 0.76562 0.015625 1.0938 0.03125v-0.46875h-0.70312z"/>
     </g>
    </g>
    <g transform="translate(306.62,148.21)">
     <path id="id-25b889b0-fc5e-4080-889b-681552fdd1ba" d="m3.0469-2.6719c-0.25 0.046875-0.34375 0.23438-0.34375 0.39062 0 0.1875 0.14062 0.26562 0.26562 0.26562 0.15625 0 0.39062-0.10938 0.39062-0.45312 0-0.46875-0.53125-0.60938-0.90625-0.60938-1.0469 0-2.0156 0.96875-2.0156 1.9375 0 0.59375 0.40625 1.2031 1.2812 1.2031 1.1875 0 1.7344-0.6875 1.7344-0.78125 0-0.046875-0.0625-0.125-0.125-0.125-0.03125 0-0.046875 0.015625-0.10938 0.078125-0.54688 0.64062-1.3594 0.64062-1.4844 0.64062-0.5 0-0.71875-0.34375-0.71875-0.78125 0-0.1875 0.09375-0.95312 0.45312-1.4375 0.26562-0.34375 0.625-0.53125 0.98438-0.53125 0.09375 0 0.42188 0.015625 0.59375 0.20312z"/>
    </g>
   </g>
  </g>
  <ellipse cx="91.09" cy="260.8" rx="1.8844" ry="1.8394" fill="#a60000" fill-opacity=".5947" fill-rule="evenodd"/>
  <path d="m56.768 255.51 20.566 26.584 13.881-21.145z" fill="none" stroke="#710000" stroke-opacity=".60606" stroke-width=".665"/>
 </g>
</svg>
