<?xml version="1.0" encoding="UTF-8"?>
<svg width="130mm" height="120mm" version="1.1" viewBox="0 0 97.948 90.288" xmlns="http://www.w3.org/2000/svg" xmlns:cc="http://creativecommons.org/ns#" xmlns:dc="http://purl.org/dc/elements/1.1/" xmlns:ns0="http://www.iki.fi/pav/software/textext/" xmlns:rdf="http://www.w3.org/1999/02/22-rdf-syntax-ns#">
 <metadata>
  <rdf:RDF>
   <cc:Work rdf:about="">
    <dc:format>image/svg+xml</dc:format>
    <dc:type rdf:resource="http://purl.org/dc/dcmitype/StillImage"/>
    <dc:title/>
   </cc:Work>
  </rdf:RDF>
 </metadata>
 <defs>
  <marker id="marker10076" overflow="visible" orient="auto">
   <path transform="scale(.4) rotate(180) translate(10)" d="m0 0 5-5-17.5 5 17.5 5-5-5z" fill="#b10000" fill-opacity=".5" fill-rule="evenodd" stroke="#b10000" stroke-opacity=".5" stroke-width="1pt"/>
  </marker>
  <marker id="marker1506" overflow="visible" orient="auto">
   <path transform="matrix(-.4 0 0 -.4 -4 0)" d="m0 0 5-5-17.5 5 17.5 5z" fill-opacity=".41288" fill-rule="evenodd" stroke="#000" stroke-opacity=".41288" stroke-width="1pt"/>
  </marker>
  <marker id="marker1496" overflow="visible" orient="auto">
   <path transform="matrix(-.4 0 0 -.4 -4 0)" d="m0 0 5-5-17.5 5 17.5 5z" fill-opacity=".41288" fill-rule="evenodd" stroke="#000" stroke-opacity=".41288" stroke-width="1pt"/>
  </marker>
 </defs>
 <g transform="translate(-54.51 -111.73)" fill="none" stroke="#000" stroke-opacity=".41288">
  <path d="m61.444 202.02v-89.61" marker-end="url(#marker1496)" stroke-width=".34396"/>
  <path d="m54.51 158.93h97.209" marker-end="url(#marker1506)" stroke-width=".3752"/>
 </g>
 <g transform="matrix(.64046 0 0 .64046 95.262 84.139)" ns0:alignment="middle center" ns0:inkscapeversion="1.0" ns0:jacobian_sqrt="0.352778" ns0:pdfconverter="inkscape" ns0:preamble="C:\\Users\\User\\AppData\\Roaming\\inkscape\\extensions\\textext\\default_packages.tex" ns0:scale="1.0" ns0:texconverter="pdflatex" ns0:text="$$x y$$" ns0:version="1.1.0">
  <g transform="translate(-300.45 -142.31)">
   <g fill-opacity=".73864">
    <g transform="translate(300.16 146.72)">
     <path d="m2.9415-58.566c0.048043-0.1922 0.22824-0.90093 0.75678-0.90093 0.036034 0 0.22824 0 0.3844 0.09609-0.21622 0.04804-0.36037 0.22824-0.36037 0.42044 0 0.12012 0.084088 0.26427 0.2883 0.26427 0.16817 0 0.40842-0.13214 0.40842-0.44446 0-0.39641-0.44446-0.50452-0.70873-0.50452-0.44446 0-0.70873 0.40842-0.80483 0.5766-0.1922-0.50452-0.60062-0.5766-0.82886-0.5766-0.79282 0-1.2373 0.98502-1.2373 1.1772 0 0.08408 0.084083 0.08408 0.096096 0.08408 0.060067 0 0.084083-0.02403 0.096096-0.08408 0.26427-0.81685 0.7688-1.009 1.0331-1.009 0.14415 0 0.40842 0.07208 0.40842 0.51654 0 0.24025-0.13214 0.74477-0.40842 1.8259-0.12013 0.46848-0.39641 0.79282-0.73276 0.79282-0.048044 0-0.21622 0-0.3844-0.09609 0.1922-0.04804 0.36037-0.20421 0.36037-0.42044 0-0.20421-0.16817-0.26428-0.27629-0.26428-0.24025 0-0.42044 0.1922-0.42044 0.44446 0 0.34836 0.37239 0.50452 0.70873 0.50452 0.51654 0 0.79282-0.54056 0.80483-0.5766 0.096097 0.27629 0.37239 0.5766 0.82886 0.5766 0.79282 0 1.2253-0.98502 1.2253-1.1772 0-0.08409-0.060065-0.08409-0.084088-0.08409-0.072076 0-0.084088 0.03602-0.10811 0.08409-0.25226 0.82886-0.7688 1.009-1.009 1.009-0.30031 0-0.42044-0.24025-0.42044-0.50452 0-0.16818 0.03603-0.33635 0.12012-0.6727z" fill-opacity=".73864"/>
     <path d="m-129.05-8.7322c14.256-48.358 40.505-60.742 55.435-67.511 5.0123-2.2724 17.16-2.4821 26.126-9.6635 7.2557-5.8112 16.435-28.486 34.832-33.827" fill="none" stroke="#005ee5" stroke-opacity=".73864" stroke-width=".74361"/>
     <path d="m-38.458-97.476-24.773 35.248" fill-opacity=".8" stroke="#000" stroke-opacity=".8" stroke-width=".7023"/>
     <path d="m-38.458-97.476v35.399" fill-opacity=".2" stroke="#000" stroke-dasharray="3.34624, 0.55770600000000004" stroke-opacity=".6" stroke-width=".55771"/>
    </g>
    <g transform="translate(156.32 15.951)">
     <path d="m3.7944-3.9375c0.036057-0.10817 0.036057-0.12019 0.036057-0.18029 0-0.13221-0.10817-0.20433-0.22836-0.20433-0.072115 0-0.19231 0.048077-0.26442 0.15625-0.012019 0.048076-0.084134 0.27644-0.10817 0.42067-0.060095 0.19231-0.10817 0.40865-0.15625 0.61298l-0.34856 1.3822c-0.024038 0.10817-0.36057 0.64903-0.86538 0.64903-0.38461 0-0.46875-0.33654-0.46875-0.625 0-0.34855 0.13221-0.82932 0.38461-1.5024 0.12019-0.3125 0.15625-0.39663 0.15625-0.55288 0-0.33654-0.24038-0.625-0.625-0.625-0.73317 0-1.0096 1.1178-1.0096 1.1779 0 0.084134 0.072115 0.084134 0.084134 0.084134 0.084134 0 0.084134-0.024038 0.12019-0.14423 0.21634-0.72115 0.51682-0.94951 0.78124-0.94951 0.060095 0 0.19231 0 0.19231 0.24038 0 0.19231-0.084134 0.39663-0.13221 0.54086-0.3125 0.8173-0.44471 1.25-0.44471 1.6106 0 0.68509 0.48077 0.91345 0.93749 0.91345 0.30048 0 0.55288-0.13221 0.76922-0.34855-0.096153 0.39663-0.19231 0.78124-0.49278 1.1899-0.20433 0.2524-0.49278 0.48077-0.84134 0.48077-0.10817 0-0.45673-0.024038-0.58894-0.32452 0.12019 0 0.22836 0 0.32452-0.096153 0.084134-0.060096 0.15625-0.16827 0.15625-0.3125 0-0.24038-0.20433-0.26442-0.27644-0.26442-0.18029 0-0.43269 0.12019-0.43269 0.49278 0 0.38461 0.33654 0.67307 0.8173 0.67307 0.78124 0 1.5745-0.69711 1.7909-1.5625z" fill-opacity=".73864"/>
    </g>
   </g>
  </g>
 </g>
 <g transform="matrix(.35278 0 0 .35278 41.318 45.325)" ns0:alignment="middle center" ns0:inkscapeversion="1.0" ns0:jacobian_sqrt="0.352778" ns0:pdfconverter="inkscape" ns0:preamble="C:\\Users\\User\\AppData\\Roaming\\inkscape\\extensions\\textext\\default_packages.tex" ns0:scale="1.0" ns0:texconverter="pdflatex" ns0:text="$$x_1 x_2 x_3 x_4 x_5$$" ns0:version="1.1.0">
  <g transform="translate(-277.72 -125.42)">
   <g id="id-f60eea50-828c-49a0-bba6-61024773f7da">
    <g transform="translate(280.22 146.72)">
     <path d="m80.959-11.318c0.0625-0.25 0.29688-1.1719 0.98438-1.1719 0.04687 0 0.29688 0 0.5 0.125-0.28125 0.0625-0.46875 0.29688-0.46875 0.54688 0 0.15625 0.10938 0.34375 0.375 0.34375 0.21875 0 0.53125-0.17188 0.53125-0.57812 0-0.51562-0.57812-0.65625-0.92188-0.65625-0.57812 0-0.92188 0.53125-1.0469 0.75-0.25-0.65625-0.78125-0.75-1.0781-0.75-1.0312 0-1.6094 1.2812-1.6094 1.5312 0 0.10938 0.10938 0.10938 0.125 0.10938 0.07813 0 0.10938-0.03125 0.125-0.10938 0.34375-1.0625 1-1.3125 1.3438-1.3125 0.1875 0 0.53125 0.09375 0.53125 0.67188 0 0.3125-0.17188 0.96875-0.53125 2.375-0.15625 0.60938-0.51562 1.0312-0.95312 1.0312-0.0625 0-0.28125 0-0.5-0.125 0.25-0.0625 0.46875-0.26562 0.46875-0.54688 0-0.26562-0.21875-0.34375-0.35938-0.34375-0.3125 0-0.54688 0.25-0.54688 0.57812 0 0.45312 0.48438 0.65625 0.92188 0.65625 0.67188 0 1.0312-0.70312 1.0469-0.75 0.125 0.35938 0.48438 0.75 1.0781 0.75 1.0312 0 1.5938-1.2812 1.5938-1.5312 0-0.10938-0.07813-0.10938-0.10938-0.10938-0.09375 0-0.10938 0.046875-0.14062 0.10938-0.32812 1.0781-1 1.3125-1.3125 1.3125-0.39062 0-0.54688-0.3125-0.54688-0.65625 0-0.21875 0.04687-0.4375 0.15625-0.875z" fill-opacity=".8"/>
    </g>
   </g>
   <g id="id-c981ccbc-8939-48c5-86d5-b0d627f5402e">
    <g transform="translate(285.91 148.21)">
     <path id="id-f753687a-9186-46b2-98b5-9161c7325e9a" d="m79.959-12.739c0-0.1875 0-0.1875-0.20312-0.1875-0.45312 0.4375-1.0781 0.4375-1.3594 0.4375v0.25c0.15625 0 0.625 0 1-0.1875v3.5469c0 0.23438 0 0.32812-0.6875 0.32812h-0.26562v0.25c0.125 0 0.98438-0.03125 1.2344-0.03125 0.21875 0 1.0938 0.03125 1.25 0.03125v-0.25h-0.26562c-0.70312 0-0.70312-0.09375-0.70312-0.32812z" fill-opacity=".8"/>
    </g>
   </g>
   <g transform="translate(20.507 -8.3894)">
    <g transform="translate(290.38 146.72)">
     <path d="m4.872-3.1321c0.0625-0.25 0.29688-1.1719 0.98438-1.1719 0.046875 0 0.29688 0 0.5 0.125-0.28125 0.0625-0.46875 0.29688-0.46875 0.54688 0 0.15625 0.10938 0.34375 0.375 0.34375 0.21875 0 0.53125-0.17188 0.53125-0.57812 0-0.51562-0.57812-0.65625-0.92188-0.65625-0.57812 0-0.92188 0.53125-1.0469 0.75-0.25-0.65625-0.78125-0.75-1.0781-0.75-1.0312 0-1.6094 1.2812-1.6094 1.5312 0 0.10938 0.10938 0.10938 0.125 0.10938 0.078125 0 0.10938-0.03125 0.125-0.10938 0.34375-1.0625 1-1.3125 1.3438-1.3125 0.1875 0 0.53125 0.09375 0.53125 0.67188 0 0.3125-0.17188 0.96875-0.53125 2.375-0.15625 0.60938-0.51562 1.0313-0.95312 1.0313-0.0625 0-0.28125 0-0.5-0.125 0.25-0.0625 0.46875-0.26562 0.46875-0.54688 0-0.26563-0.21875-0.34375-0.35938-0.34375-0.3125 0-0.54688 0.25-0.54688 0.57813 0 0.45312 0.48438 0.65625 0.92188 0.65625 0.67188 0 1.0312-0.70312 1.0469-0.75 0.125 0.35938 0.48438 0.75 1.0781 0.75 1.0312 0 1.5938-1.2813 1.5938-1.5313 0-0.10938-0.078125-0.10938-0.10938-0.10938-0.09375 0-0.10938 0.046875-0.14062 0.10938-0.32812 1.0781-1 1.3125-1.3125 1.3125-0.39062 0-0.54688-0.3125-0.54688-0.65625 0-0.21875 0.046875-0.4375 0.15625-0.875z" fill-opacity=".8"/>
    </g>
   </g>
   <g transform="translate(20.507 -8.3894)">
    <g transform="translate(296.07 148.21)">
     <path d="m5.0595-1.3821h-0.23438c-0.015625 0.15625-0.09375 0.5625-0.1875 0.625-0.046875 0.046875-0.57812 0.046875-0.6875 0.046875h-1.2812c0.73438-0.64063 0.98438-0.84375 1.3906-1.1719 0.51562-0.40625 1-0.84375 1-1.5 0-0.84375-0.73438-1.3594-1.625-1.3594-0.85938 0-1.4531 0.60938-1.4531 1.25 0 0.34375 0.29688 0.39062 0.375 0.39062 0.15625 0 0.35938-0.125 0.35938-0.375 0-0.125-0.046875-0.375-0.40625-0.375 0.21875-0.48438 0.6875-0.64062 1.0156-0.64062 0.70312 0 1.0625 0.54688 1.0625 1.1094 0 0.60938-0.4375 1.0781-0.65625 1.3281l-1.6719 1.6719c-0.078125 0.0625-0.078125 0.078125-0.078125 0.26562h2.875z" fill-opacity=".8"/>
    </g>
   </g>
   <g fill-rule="evenodd">
    <circle cx="360.35" cy="130.49" r="2.0682" fill="#1077e6" fill-opacity=".6"/>
    <circle cx="315.37" cy="130.49" r="2.0682" fill="#1077e6" fill-opacity=".6"/>
    <circle cx="253.57" cy="130.78" r="2.0682" fill="#f00" fill-opacity=".4053"/>
   </g>
  </g>
  <g transform="matrix(.92855 0 0 .92855 86.102 -61.824)" ns0:alignment="middle center" ns0:inkscapeversion="1.0" ns0:jacobian_sqrt="0.352778" ns0:pdfconverter="inkscape" ns0:preamble="C:\\Users\\User\\AppData\\Roaming\\inkscape\\extensions\\textext\\default_packages.tex" ns0:scale="1.0" ns0:texconverter="pdflatex" ns0:text="$$f(x_1)f(x_2) f(x_3) f(x_4) f(x_5)$$" ns0:version="1.1.0">
   <g transform="translate(-246.5 -139.24)">
    <g transform="translate(245.97 146.72)">
     <path d="m1.7112-4.3608h0.85938c0.20312 0 0.29688 0 0.29688-0.20312 0-0.10938-0.09375-0.10938-0.26562-0.10938h-0.82812l0.20312-1.1406c0.046875-0.20312 0.1875-0.90625 0.25-1.0312 0.078125-0.1875 0.25-0.34375 0.46875-0.34375 0.03125 0 0.29688 0 0.48438 0.1875-0.4375 0.03125-0.54688 0.39062-0.54688 0.53125 0 0.23438 0.1875 0.35938 0.375 0.35938 0.26562 0 0.54688-0.23438 0.54688-0.60938 0-0.45312-0.45312-0.6875-0.85938-0.6875-0.34375 0-0.96875 0.1875-1.2656 1.1719-0.0625 0.20312-0.09375 0.3125-0.32812 1.5625h-0.6875c-0.20312 0-0.3125 0-0.3125 0.1875 0 0.125 0.09375 0.125 0.28125 0.125h0.65625l-0.73437 3.9375c-0.1875 0.96875-0.35938 1.875-0.875 1.875-0.046875 0-0.28125 0-0.48438-0.1875 0.46875-0.03125 0.5625-0.39062 0.5625-0.53125 0-0.23438-0.1875-0.35938-0.375-0.35938-0.26563 0-0.54688 0.23438-0.54688 0.60938 0 0.4375 0.4375 0.6875 0.84375 0.6875 0.54688 0 0.95312-0.59375 1.125-0.96875 0.32812-0.625 0.54687-1.8281 0.5625-1.9063z" fill-opacity=".8"/>
    </g>
    <g transform="translate(251.92 146.72)">
     <path d="m0.56757 2.0142c0-0.03125 0-0.046875-0.17188-0.21875-1.2344-1.25-1.5625-3.1406-1.5625-4.6719 0-1.7344 0.375-3.4688 1.6094-4.7031 0.125-0.125 0.125-0.14062 0.125-0.17188 0-0.078125-0.03125-0.10938-0.09375-0.10938-0.10938 0-1 0.6875-1.5937 1.9531-0.5 1.0938-0.625 2.2031-0.625 3.0312 0 0.78125 0.10938 1.9844 0.65625 3.125 0.60937 1.2187 1.4531 1.875 1.5625 1.875 0.0625 0 0.09375-0.03125 0.09375-0.10938z" fill-opacity=".8"/>
    </g>
    <g transform="translate(255.79 146.72)">
     <path id="id-9829917d-255d-4926-89f6-4db33806057a" d="m0.59882-3.3921c0.0625-0.25 0.29688-1.1719 0.98437-1.1719 0.046875 0 0.29688 0 0.5 0.125-0.28125 0.0625-0.46875 0.29688-0.46875 0.54688 0 0.15625 0.10938 0.34375 0.375 0.34375 0.21875 0 0.53125-0.17188 0.53125-0.57812 0-0.51562-0.57812-0.65625-0.92188-0.65625-0.57812 0-0.92187 0.53125-1.0469 0.75-0.25-0.65625-0.78125-0.75-1.0781-0.75-1.0312 0-1.6094 1.2812-1.6094 1.5312 0 0.10938 0.10938 0.10938 0.125 0.10938 0.078125 0 0.10938-0.03125 0.125-0.10938 0.34375-1.0625 1-1.3125 1.3437-1.3125 0.1875 0 0.53125 0.09375 0.53125 0.67188 0 0.3125-0.17188 0.96875-0.53125 2.375-0.15625 0.60938-0.51562 1.0313-0.95312 1.0313-0.0625 0-0.28125 0-0.5-0.125 0.25-0.0625 0.46875-0.26562 0.46875-0.54688 0-0.26562-0.21875-0.34375-0.35938-0.34375-0.3125 0-0.54688 0.25-0.54688 0.57813 0 0.45312 0.48438 0.65625 0.92188 0.65625 0.67187 0 1.0312-0.70312 1.0469-0.75 0.125 0.35938 0.48438 0.75 1.0781 0.75 1.0312 0 1.5937-1.2813 1.5937-1.5313 0-0.10938-0.078125-0.10938-0.10938-0.10938-0.09375 0-0.10938 0.046875-0.14062 0.10938-0.32812 1.0781-1 1.3125-1.3125 1.3125-0.39062 0-0.54688-0.3125-0.54688-0.65625 0-0.21875 0.046875-0.4375 0.15625-0.875z" fill-opacity=".8"/>
    </g>
    <g transform="translate(261.49 148.21)">
     <path d="m-0.40118-4.814c0-0.1875 0-0.1875-0.20312-0.1875-0.45312 0.4375-1.0781 0.4375-1.3594 0.4375v0.25c0.15625 0 0.625 0 1-0.1875v3.5469c0 0.23438 0 0.32812-0.6875 0.32812h-0.26562v0.25c0.125 0 0.98437-0.03125 1.2344-0.03125 0.21875 0 1.0938 0.03125 1.25 0.03125v-0.25h-0.26562c-0.70312 0-0.70312-0.09375-0.70312-0.32812z" fill-opacity=".8"/>
    </g>
    <g id="id-d6ec24f4-0ba4-43f1-885b-15011902f7fa">
     <g transform="translate(265.96 146.72)">
      <path id="id-5d6f1c53-5fb1-4e06-b950-6ecb6a096a5a" d="m-0.9523-2.8451c0-0.76562-0.10938-1.9688-0.65625-3.1094-0.59375-1.2188-1.4531-1.875-1.5469-1.875-0.0625 0-0.10938 0.046875-0.10938 0.10938 0 0.03125 0 0.046875 0.1875 0.23438 0.98438 0.98438 1.5469 2.5625 1.5469 4.6406 0 1.7188-0.35938 3.4688-1.5938 4.7188-0.14062 0.125-0.14062 0.14062-0.14062 0.17188 0 0.0625 0.046875 0.10938 0.10938 0.10938 0.09375 0 1-0.6875 1.5781-1.9531 0.51562-1.0938 0.625-2.2031 0.625-3.0469z" fill-opacity=".8"/>
     </g>
    </g>
   </g>
  </g>
 </g>
 <circle cx="70.426" cy="24.604" r=".33723" fill-opacity=".8" fill-rule="evenodd"/>
 <g transform="matrix(.47845 0 0 .47845 -68.807 14.03)">
  <g transform="translate(261.53,149.97)">
   <path d="m3.3281-3.0156c0.0625-0.25 0.29688-1.1719 0.98438-1.1719 0.046875 0 0.29688 0 0.5 0.125-0.28125 0.0625-0.46875 0.29688-0.46875 0.54688 0 0.15625 0.10938 0.34375 0.375 0.34375 0.21875 0 0.53125-0.17188 0.53125-0.57812 0-0.51562-0.57812-0.65625-0.92188-0.65625-0.57812 0-0.92188 0.53125-1.0469 0.75-0.25-0.65625-0.78125-0.75-1.0781-0.75-1.0312 0-1.6094 1.2812-1.6094 1.5312 0 0.10938 0.10938 0.10938 0.125 0.10938 0.078125 0 0.10938-0.03125 0.125-0.10938 0.34375-1.0625 1-1.3125 1.3438-1.3125 0.1875 0 0.53125 0.09375 0.53125 0.67188 0 0.3125-0.17188 0.96875-0.53125 2.375-0.15625 0.60938-0.51562 1.0312-0.95312 1.0312-0.0625 0-0.28125 0-0.5-0.125 0.25-0.0625 0.46875-0.26562 0.46875-0.54688 0-0.26562-0.21875-0.34375-0.35938-0.34375-0.3125 0-0.54688 0.25-0.54688 0.57812 0 0.45312 0.48438 0.65625 0.92188 0.65625 0.67188 0 1.0312-0.70312 1.0469-0.75 0.125 0.35938 0.48438 0.75 1.0781 0.75 1.0312 0 1.5938-1.2812 1.5938-1.5312 0-0.10938-0.078125-0.10938-0.10938-0.10938-0.09375 0-0.10938 0.046875-0.14062 0.10938-0.32812 1.0781-1 1.3125-1.3125 1.3125-0.39062 0-0.54688-0.3125-0.54688-0.65625 0-0.21875 0.046875-0.4375 0.15625-0.875z"/>
  </g>
  <g transform="translate(285.5,149.97)">
   <path id="id-daa45e18-73b3-43ac-928b-f8d9979cf03c" d="m6.8438-3.2656c0.15625 0 0.34375 0 0.34375-0.1875 0-0.20312-0.1875-0.20312-0.32812-0.20312h-5.9688c-0.14062 0-0.32812 0-0.32812 0.20312 0 0.1875 0.1875 0.1875 0.32812 0.1875zm0.015625 1.9375c0.14062 0 0.32812 0 0.32812-0.20312 0-0.1875-0.1875-0.1875-0.34375-0.1875h-5.9531c-0.14062 0-0.32812 0-0.32812 0.1875 0 0.20312 0.1875 0.20312 0.32812 0.20312z"/>
  </g>
  <g transform="translate(296.02,149.97)">
   <path id="id-d883e366-9407-4364-9e63-3aa1c49b5b7b" d="m3.3281-3.0156c0.0625-0.25 0.29688-1.1719 0.98438-1.1719 0.046875 0 0.29688 0 0.5 0.125-0.28125 0.0625-0.46875 0.29688-0.46875 0.54688 0 0.15625 0.10938 0.34375 0.375 0.34375 0.21875 0 0.53125-0.17188 0.53125-0.57812 0-0.51562-0.57812-0.65625-0.92188-0.65625-0.57812 0-0.92188 0.53125-1.0469 0.75-0.25-0.65625-0.78125-0.75-1.0781-0.75-1.0312 0-1.6094 1.2812-1.6094 1.5312 0 0.10938 0.10938 0.10938 0.125 0.10938 0.078125 0 0.10938-0.03125 0.125-0.10938 0.34375-1.0625 1-1.3125 1.3438-1.3125 0.1875 0 0.53125 0.09375 0.53125 0.67188 0 0.3125-0.17188 0.96875-0.53125 2.375-0.15625 0.60938-0.51562 1.0312-0.95312 1.0312-0.0625 0-0.28125 0-0.5-0.125 0.25-0.0625 0.46875-0.26562 0.46875-0.54688 0-0.26562-0.21875-0.34375-0.35938-0.34375-0.3125 0-0.54688 0.25-0.54688 0.57812 0 0.45312 0.48438 0.65625 0.92188 0.65625 0.67188 0 1.0312-0.70312 1.0469-0.75 0.125 0.35938 0.48438 0.75 1.0781 0.75 1.0312 0 1.5938-1.2812 1.5938-1.5312 0-0.10938-0.078125-0.10938-0.10938-0.10938-0.09375 0-0.10938 0.046875-0.14062 0.10938-0.32812 1.0781-1 1.3125-1.3125 1.3125-0.39062 0-0.54688-0.3125-0.54688-0.65625 0-0.21875 0.046875-0.4375 0.15625-0.875z"/>
  </g>
  <g transform="translate(309.35,149.97)">
   <path d="m6.5625-2.2969c0.17188 0 0.35938 0 0.35938-0.20312 0-0.1875-0.1875-0.1875-0.35938-0.1875h-5.3906c-0.17188 0-0.34375 0-0.34375 0.1875 0 0.20312 0.17188 0.20312 0.34375 0.20312z"/>
  </g>
  <g id="id-abc91a4a-3a4b-4514-9086-3b8909fd4d8e">
   <g transform="translate(322.11,143.23)">
    <path d="m3.6562-3.9844h0.85938c0.20312 0 0.29688 0 0.29688-0.20312 0-0.10938-0.09375-0.10938-0.26562-0.10938h-0.82812l0.20312-1.1406c0.046875-0.20312 0.1875-0.90625 0.25-1.0312 0.078125-0.1875 0.25-0.34375 0.46875-0.34375 0.03125 0 0.29688 0 0.48438 0.1875-0.4375 0.03125-0.54688 0.39062-0.54688 0.53125 0 0.23438 0.1875 0.35938 0.375 0.35938 0.26562 0 0.54688-0.23438 0.54688-0.60938 0-0.45312-0.45312-0.6875-0.85938-0.6875-0.34375 0-0.96875 0.1875-1.2656 1.1719-0.0625 0.20312-0.09375 0.3125-0.32812 1.5625h-0.6875c-0.20312 0-0.3125 0-0.3125 0.1875 0 0.125 0.09375 0.125 0.28125 0.125h0.65625l-0.73438 3.9375c-0.1875 0.96875-0.35938 1.875-0.875 1.875-0.046875 0-0.28125 0-0.48438-0.1875 0.46875-0.03125 0.5625-0.39062 0.5625-0.53125 0-0.23438-0.1875-0.35938-0.375-0.35938-0.26562 0-0.54688 0.23438-0.54688 0.60938 0 0.4375 0.4375 0.6875 0.84375 0.6875 0.54688 0 0.95312-0.59375 1.125-0.96875 0.32812-0.625 0.54688-1.8281 0.5625-1.9062z"/>
   </g>
  </g>
  <g id="id-9544b882-0449-44e2-9307-614cfff968cf">
   <g transform="translate(328.06,143.23)">
    <path d="m3.2969 2.3906c0-0.03125 0-0.046875-0.17188-0.21875-1.2344-1.25-1.5625-3.1406-1.5625-4.6719 0-1.7344 0.375-3.4688 1.6094-4.7031 0.125-0.125 0.125-0.14062 0.125-0.17188 0-0.078125-0.03125-0.10938-0.09375-0.10938-0.10938 0-1 0.6875-1.5938 1.9531-0.5 1.0938-0.625 2.2031-0.625 3.0312 0 0.78125 0.10938 1.9844 0.65625 3.125 0.60938 1.2188 1.4531 1.875 1.5625 1.875 0.0625 0 0.09375-0.03125 0.09375-0.10938z"/>
   </g>
  </g>
  <g transform="translate(331.93,143.23)">
   <path id="id-d85f5b68-5dbf-4f24-9e57-595a65480c8e" d="m3.3281-3.0156c0.0625-0.25 0.29688-1.1719 0.98438-1.1719 0.046875 0 0.29688 0 0.5 0.125-0.28125 0.0625-0.46875 0.29688-0.46875 0.54688 0 0.15625 0.10938 0.34375 0.375 0.34375 0.21875 0 0.53125-0.17188 0.53125-0.57812 0-0.51562-0.57812-0.65625-0.92188-0.65625-0.57812 0-0.92188 0.53125-1.0469 0.75-0.25-0.65625-0.78125-0.75-1.0781-0.75-1.0312 0-1.6094 1.2812-1.6094 1.5312 0 0.10938 0.10938 0.10938 0.125 0.10938 0.078125 0 0.10938-0.03125 0.125-0.10938 0.34375-1.0625 1-1.3125 1.3438-1.3125 0.1875 0 0.53125 0.09375 0.53125 0.67188 0 0.3125-0.17188 0.96875-0.53125 2.375-0.15625 0.60938-0.51562 1.0312-0.95312 1.0312-0.0625 0-0.28125 0-0.5-0.125 0.25-0.0625 0.46875-0.26562 0.46875-0.54688 0-0.26562-0.21875-0.34375-0.35938-0.34375-0.3125 0-0.54688 0.25-0.54688 0.57812 0 0.45312 0.48438 0.65625 0.92188 0.65625 0.67188 0 1.0312-0.70312 1.0469-0.75 0.125 0.35938 0.48438 0.75 1.0781 0.75 1.0312 0 1.5938-1.2812 1.5938-1.5312 0-0.10938-0.078125-0.10938-0.10938-0.10938-0.09375 0-0.10938 0.046875-0.14062 0.10938-0.32812 1.0781-1 1.3125-1.3125 1.3125-0.39062 0-0.54688-0.3125-0.54688-0.65625 0-0.21875 0.046875-0.4375 0.15625-0.875z"/>
  </g>
  <g transform="translate(343.05,143.23)">
   <path d="m1.5372-2.3255c0-0.76562-0.10938-1.9688-0.65625-3.1094-0.59375-1.2188-1.4531-1.875-1.5469-1.875-0.0625 0-0.10938 0.046875-0.10938 0.10938 0 0.03125 0 0.046875 0.1875 0.23438 0.98438 0.98438 1.5469 2.5625 1.5469 4.6406 0 1.7188-0.35938 3.4688-1.5938 4.7188-0.14062 0.125-0.14062 0.14062-0.14062 0.17188 0 0.0625 0.046875 0.10938 0.10938 0.10938 0.09375 0 1-0.6875 1.5781-1.9531 0.51562-1.0938 0.625-2.2031 0.625-3.0469z"/>
  </g>
  <path transform="matrix(1,0,0,-1,320.51,147.48)" d="m0.0017188 0.0015312h28.008" fill="none" stroke="#000" stroke-miterlimit="10" stroke-width=".398"/>
  <g id="id-ea5aa908-26e9-40e7-9453-7777db05309d">
   <g transform="translate(320.51,156.81)">
    <path id="id-9380e1c8-01ec-4f01-a734-5de950d455ce" d="m3.6562-3.9844h0.85938c0.20312 0 0.29688 0 0.29688-0.20312 0-0.10938-0.09375-0.10938-0.26562-0.10938h-0.82812l0.20312-1.1406c0.046875-0.20312 0.1875-0.90625 0.25-1.0312 0.078125-0.1875 0.25-0.34375 0.46875-0.34375 0.03125 0 0.29688 0 0.48438 0.1875-0.4375 0.03125-0.54688 0.39062-0.54688 0.53125 0 0.23438 0.1875 0.35938 0.375 0.35938 0.26562 0 0.54688-0.23438 0.54688-0.60938 0-0.45312-0.45312-0.6875-0.85938-0.6875-0.34375 0-0.96875 0.1875-1.2656 1.1719-0.0625 0.20312-0.09375 0.3125-0.32812 1.5625h-0.6875c-0.20312 0-0.3125 0-0.3125 0.1875 0 0.125 0.09375 0.125 0.28125 0.125h0.65625l-0.73438 3.9375c-0.1875 0.96875-0.35938 1.875-0.875 1.875-0.046875 0-0.28125 0-0.48438-0.1875 0.46875-0.03125 0.5625-0.39062 0.5625-0.53125 0-0.23438-0.1875-0.35938-0.375-0.35938-0.26562 0-0.54688 0.23438-0.54688 0.60938 0 0.4375 0.4375 0.6875 0.84375 0.6875 0.54688 0 0.95312-0.59375 1.125-0.96875 0.32812-0.625 0.54688-1.8281 0.5625-1.9062z"/>
   </g>
  </g>
  <g transform="translate(326.46,151.94)">
   <path d="m1.7969-2.3125c0-0.015625 0.046875-0.10938 0.046875-0.1875 0-0.17188-0.15625-0.28125-0.3125-0.28125-0.20312 0-0.25 0.15625-0.28125 0.21875l-0.76562 2.1562c-0.015625 0.0625-0.015625 0.078125-0.015625 0.09375 0 0.078125 0.20312 0.125 0.20312 0.125 0.046875 0 0.0625-0.03125 0.09375-0.09375z"/>
  </g>
  <g transform="translate(329.65,156.81)">
   <path d="m3.2969 2.3906c0-0.03125 0-0.046875-0.17188-0.21875-1.2344-1.25-1.5625-3.1406-1.5625-4.6719 0-1.7344 0.375-3.4688 1.6094-4.7031 0.125-0.125 0.125-0.14062 0.125-0.17188 0-0.078125-0.03125-0.10938-0.09375-0.10938-0.10938 0-1 0.6875-1.5938 1.9531-0.5 1.0938-0.625 2.2031-0.625 3.0312 0 0.78125 0.10938 1.9844 0.65625 3.125 0.60938 1.2188 1.4531 1.875 1.5625 1.875 0.0625 0 0.09375-0.03125 0.09375-0.10938z"/>
  </g>
  <g transform="translate(333.53,156.81)">
   <path id="id-b25a45cb-b492-4439-ad4b-c80cf79d6bff" d="m3.3281-3.0156c0.0625-0.25 0.29688-1.1719 0.98438-1.1719 0.046875 0 0.29688 0 0.5 0.125-0.28125 0.0625-0.46875 0.29688-0.46875 0.54688 0 0.15625 0.10938 0.34375 0.375 0.34375 0.21875 0 0.53125-0.17188 0.53125-0.57812 0-0.51562-0.57812-0.65625-0.92188-0.65625-0.57812 0-0.92188 0.53125-1.0469 0.75-0.25-0.65625-0.78125-0.75-1.0781-0.75-1.0312 0-1.6094 1.2812-1.6094 1.5312 0 0.10938 0.10938 0.10938 0.125 0.10938 0.078125 0 0.10938-0.03125 0.125-0.10938 0.34375-1.0625 1-1.3125 1.3438-1.3125 0.1875 0 0.53125 0.09375 0.53125 0.67188 0 0.3125-0.17188 0.96875-0.53125 2.375-0.15625 0.60938-0.51562 1.0312-0.95312 1.0312-0.0625 0-0.28125 0-0.5-0.125 0.25-0.0625 0.46875-0.26562 0.46875-0.54688 0-0.26562-0.21875-0.34375-0.35938-0.34375-0.3125 0-0.54688 0.25-0.54688 0.57812 0 0.45312 0.48438 0.65625 0.92188 0.65625 0.67188 0 1.0312-0.70312 1.0469-0.75 0.125 0.35938 0.48438 0.75 1.0781 0.75 1.0312 0 1.5938-1.2812 1.5938-1.5312 0-0.10938-0.078125-0.10938-0.10938-0.10938-0.09375 0-0.10938 0.046875-0.14062 0.10938-0.32812 1.0781-1 1.3125-1.3125 1.3125-0.39062 0-0.54688-0.3125-0.54688-0.65625 0-0.21875 0.046875-0.4375 0.15625-0.875z"/>
  </g>
  <g transform="translate(344.64,156.81)">
   <path d="m1.5372-2.3255c0-0.76562-0.10938-1.9688-0.65625-3.1094-0.59375-1.2188-1.4531-1.875-1.5469-1.875-0.0625 0-0.10938 0.046875-0.10938 0.10938 0 0.03125 0 0.046875 0.1875 0.23438 0.98438 0.98438 1.5469 2.5625 1.5469 4.6406 0 1.7188-0.35938 3.4688-1.5938 4.7188-0.14062 0.125-0.14062 0.14062-0.14062 0.17188 0 0.0625 0.046875 0.10938 0.10938 0.10938 0.09375 0 1-0.6875 1.5781-1.9531 0.51562-1.0938 0.625-2.2031 0.625-3.0469z"/>
  </g>
 </g>
 <g transform="matrix(.25411 0 0 .25411 58.954 85.346)" ns0:alignment="middle center" ns0:inkscapeversion="1.0" ns0:jacobian_sqrt="0.352778" ns0:pdfconverter="inkscape" ns0:preamble="C:\\Users\\User\\AppData\\Roaming\\inkscape\\extensions\\textext\\default_packages.tex" ns0:scale="1.0" ns0:texconverter="pdflatex" ns0:text="$$n+1 n$$" ns0:version="1.1.0">
  <g transform="translate(-291.36,-140.08)">
   <g id="id-156f5c1d-d5a9-4c2e-9c14-3b932545719c"></g>
  </g>
 </g>
 <g transform="matrix(.19009 0 0 .19009 59.047 85.206)" ns0:alignment="middle center" ns0:jacobian_sqrt="1.33333" ns0:pdfconverter="inkscape" ns0:preamble="C:\\Users\\User\\AppData\\Roaming\\inkscape\\extensions\\textext\\default_packages.tex" ns0:scale="1.0" ns0:texconverter="pdflatex" ns0:text="$$2 1$$" ns0:version="1.1.0">
  <defs></defs>
  <g transform="translate(-301.14 -140.08)">
   <g id="id-26e60f2e-7ea3-4461-b9f9-3bd1eeed79bc">
    <g transform="matrix(1.2107 0 0 1.2107 301.1 148.26)">
     <path id="id-ce89c267-fcee-4f06-896d-87c468770e9c" d="m1.2656-0.76562 1.0625-1.0312c1.5469-1.375 2.1406-1.9062 2.1406-2.9062 0-1.1406-0.89062-1.9375-2.1094-1.9375-1.125 0-1.8594 0.92188-1.8594 1.8125 0 0.54688 0.5 0.54688 0.53125 0.54688 0.17188 0 0.51562-0.10938 0.51562-0.53125 0-0.25-0.1875-0.51562-0.53125-0.51562-0.078125 0-0.09375 0-0.125 0.015625 0.21875-0.65625 0.76562-1.0156 1.3438-1.0156 0.90625 0 1.3281 0.8125 1.3281 1.625 0 0.79688-0.48438 1.5781-1.0469 2.2031l-1.9062 2.125c-0.10938 0.10938-0.10938 0.14062-0.10938 0.375h3.7031l0.26562-1.7344h-0.23438c-0.0625 0.29688-0.125 0.73438-0.23438 0.89062-0.0625 0.078125-0.71875 0.078125-0.9375 0.078125z"/>
    </g>
    <g transform="matrix(1.1475 0 0 1.1475 387.75 147.84)">
     <path d="m2.9375-6.375c0-0.25 0-0.26562-0.23438-0.26562-0.625 0.64062-1.5 0.64062-1.8125 0.64062v0.3125c0.20312 0 0.78125 0 1.2969-0.26562v5.1719c0 0.35938-0.03125 0.46875-0.92188 0.46875h-0.3125v0.3125c0.34375-0.03125 1.2031-0.03125 1.6094-0.03125 0.39062 0 1.2656 0 1.6094 0.03125v-0.3125h-0.3125c-0.90625 0-0.92188-0.10938-0.92188-0.46875z"/>
    </g>
    <g transform="matrix(1.1475 0 0 1.1475 478.25 130.56)">
     <path d="m2.9375-6.375c0-0.25 0-0.26562-0.23438-0.26562-0.625 0.64062-1.5 0.64062-1.8125 0.64062v0.3125c0.20312 0 0.78125 0 1.2969-0.26562v5.1719c0 0.35938-0.03125 0.46875-0.92188 0.46875h-0.3125v0.3125c0.34375-0.03125 1.2031-0.03125 1.6094-0.03125 0.39062 0 1.2656 0 1.6094 0.03125v-0.3125h-0.3125c-0.90625 0-0.92188-0.10938-0.92188-0.46875z"/>
    </g>
    <g transform="matrix(1.1475 0 0 1.1475 482.11 164.94)">
     <path d="m2.9375-6.375c0-0.25 0-0.26562-0.23438-0.26562-0.625 0.64062-1.5 0.64062-1.8125 0.64062v0.3125c0.20312 0 0.78125 0 1.2969-0.26562v5.1719c0 0.35938-0.03125 0.46875-0.92188 0.46875h-0.3125v0.3125c0.34375-0.03125 1.2031-0.03125 1.6094-0.03125 0.39062 0 1.2656 0 1.6094 0.03125v-0.3125h-0.3125c-0.90625 0-0.92188-0.10938-0.92188-0.46875z"/>
    </g>
   </g>
  </g>
 </g>
 <path d="m83.047 6.5889-48.536 68.967" fill="none" stroke="#000" stroke-opacity=".2" stroke-width=".44635"/>
 <path d="m71.435 8.1277c5.6762-2.5784 8.2969 0.32793 8.9188 0.70007" fill="none" marker-end="url(#marker10076)" stroke="#b10000" stroke-opacity=".66288" stroke-width=".28492"/>
 <text x="59.128693" y="9.1069784" fill="#a60000" fill-opacity=".74621" font-family="sans-serif" font-size="9.01px" stroke-width=".22525" style="line-height:1.25" xml:space="preserve"><tspan x="59.128693" y="9.1069784" fill="#a60000" fill-opacity=".74621" font-family="'Times New Roman'" font-size="3.9044px" stroke-width=".22525">tangent</tspan></text>
</svg>
