<?xml version="1.0" encoding="UTF-8"?>
<svg width="130mm" height="120mm" version="1.1" viewBox="0 0 97.948 90.288" xmlns="http://www.w3.org/2000/svg" xmlns:cc="http://creativecommons.org/ns#" xmlns:dc="http://purl.org/dc/elements/1.1/" xmlns:ns0="http://www.iki.fi/pav/software/textext/" xmlns:rdf="http://www.w3.org/1999/02/22-rdf-syntax-ns#">
 <metadata>
  <rdf:RDF>
   <cc:Work rdf:about="">
    <dc:format>image/svg+xml</dc:format>
    <dc:type rdf:resource="http://purl.org/dc/dcmitype/StillImage"/>
    <dc:title/>
   </cc:Work>
  </rdf:RDF>
 </metadata>
 <defs>
  <marker id="marker1506" overflow="visible" orient="auto">
   <path transform="matrix(-.4 0 0 -.4 -4 0)" d="m0 0 5-5-17.5 5 17.5 5z" fill-opacity=".41288" fill-rule="evenodd" stroke="#000" stroke-opacity=".41288" stroke-width="1pt"/>
  </marker>
  <marker id="marker1496" overflow="visible" orient="auto">
   <path transform="matrix(-.4 0 0 -.4 -4 0)" d="m0 0 5-5-17.5 5 17.5 5z" fill-opacity=".41288" fill-rule="evenodd" stroke="#000" stroke-opacity=".41288" stroke-width="1pt"/>
  </marker>
 </defs>
 <g transform="translate(-54.51 -111.73)" fill="none" stroke="#000" stroke-opacity=".41288">
  <path d="m61.444 202.02v-89.61" marker-end="url(#marker1496)" stroke-width=".34396"/>
  <path d="m54.51 158.93h97.209" marker-end="url(#marker1506)" stroke-width=".3752"/>
 </g>
 <g transform="matrix(.64046 0 0 .64046 95.262 84.139)" ns0:alignment="middle center" ns0:inkscapeversion="1.0" ns0:jacobian_sqrt="0.352778" ns0:pdfconverter="inkscape" ns0:preamble="C:\\Users\\User\\AppData\\Roaming\\inkscape\\extensions\\textext\\default_packages.tex" ns0:scale="1.0" ns0:texconverter="pdflatex" ns0:text="$$x y$$" ns0:version="1.1.0">
  <g transform="translate(-300.45 -142.31)">
   <g fill-opacity=".73864">
    <g transform="translate(300.16 146.72)">
     <path d="m2.9415-58.566c0.048043-0.1922 0.22824-0.90093 0.75678-0.90093 0.036034 0 0.22824 0 0.3844 0.09609-0.21622 0.04804-0.36037 0.22824-0.36037 0.42044 0 0.12012 0.084088 0.26427 0.2883 0.26427 0.16817 0 0.40842-0.13214 0.40842-0.44446 0-0.39641-0.44446-0.50452-0.70873-0.50452-0.44446 0-0.70873 0.40842-0.80483 0.5766-0.1922-0.50452-0.60062-0.5766-0.82886-0.5766-0.79282 0-1.2373 0.98502-1.2373 1.1772 0 0.08408 0.084083 0.08408 0.096096 0.08408 0.060067 0 0.084083-0.02403 0.096096-0.08408 0.26427-0.81685 0.7688-1.009 1.0331-1.009 0.14415 0 0.40842 0.07208 0.40842 0.51654 0 0.24025-0.13214 0.74477-0.40842 1.8259-0.12013 0.46848-0.39641 0.79282-0.73276 0.79282-0.048044 0-0.21622 0-0.3844-0.09609 0.1922-0.04804 0.36037-0.20421 0.36037-0.42044 0-0.20421-0.16817-0.26428-0.27629-0.26428-0.24025 0-0.42044 0.1922-0.42044 0.44446 0 0.34836 0.37239 0.50452 0.70873 0.50452 0.51654 0 0.79282-0.54056 0.80483-0.5766 0.096097 0.27629 0.37239 0.5766 0.82886 0.5766 0.79282 0 1.2253-0.98502 1.2253-1.1772 0-0.08409-0.060065-0.08409-0.084088-0.08409-0.072076 0-0.084088 0.03602-0.10811 0.08409-0.25226 0.82886-0.7688 1.009-1.009 1.009-0.30031 0-0.42044-0.24025-0.42044-0.50452 0-0.16818 0.03603-0.33635 0.12012-0.6727z" fill-opacity=".73864"/>
     <path d="m-129.05-8.7322c14.256-48.358 40.505-60.742 55.435-67.511 5.0123-2.2724 17.16-2.4821 26.126-9.6635 7.2557-5.8112 16.435-28.486 34.832-33.827" fill="none" stroke="#005ee5" stroke-opacity=".73864" stroke-width=".74361"/>
    </g>
    <g transform="translate(156.32 15.951)">
     <path d="m3.7944-3.9375c0.036057-0.10817 0.036057-0.12019 0.036057-0.18029 0-0.13221-0.10817-0.20433-0.22836-0.20433-0.072115 0-0.19231 0.048077-0.26442 0.15625-0.012019 0.048076-0.084134 0.27644-0.10817 0.42067-0.060095 0.19231-0.10817 0.40865-0.15625 0.61298l-0.34856 1.3822c-0.024038 0.10817-0.36057 0.64903-0.86538 0.64903-0.38461 0-0.46875-0.33654-0.46875-0.625 0-0.34855 0.13221-0.82932 0.38461-1.5024 0.12019-0.3125 0.15625-0.39663 0.15625-0.55288 0-0.33654-0.24038-0.625-0.625-0.625-0.73317 0-1.0096 1.1178-1.0096 1.1779 0 0.084134 0.072115 0.084134 0.084134 0.084134 0.084134 0 0.084134-0.024038 0.12019-0.14423 0.21634-0.72115 0.51682-0.94951 0.78124-0.94951 0.060095 0 0.19231 0 0.19231 0.24038 0 0.19231-0.084134 0.39663-0.13221 0.54086-0.3125 0.8173-0.44471 1.25-0.44471 1.6106 0 0.68509 0.48077 0.91345 0.93749 0.91345 0.30048 0 0.55288-0.13221 0.76922-0.34855-0.096153 0.39663-0.19231 0.78124-0.49278 1.1899-0.20433 0.2524-0.49278 0.48077-0.84134 0.48077-0.10817 0-0.45673-0.024038-0.58894-0.32452 0.12019 0 0.22836 0 0.32452-0.096153 0.084134-0.060096 0.15625-0.16827 0.15625-0.3125 0-0.24038-0.20433-0.26442-0.27644-0.26442-0.18029 0-0.43269 0.12019-0.43269 0.49278 0 0.38461 0.33654 0.67307 0.8173 0.67307 0.78124 0 1.5745-0.69711 1.7909-1.5625z" fill-opacity=".73864"/>
    </g>
   </g>
  </g>
 </g>
 <g transform="matrix(.35278 0 0 .35278 41.318 45.325)" ns0:alignment="middle center" ns0:inkscapeversion="1.0" ns0:jacobian_sqrt="0.352778" ns0:pdfconverter="inkscape" ns0:preamble="C:\\Users\\User\\AppData\\Roaming\\inkscape\\extensions\\textext\\default_packages.tex" ns0:scale="1.0" ns0:texconverter="pdflatex" ns0:text="$$x_1 x_2 x_3 x_4 x_5$$" ns0:version="1.1.0">
  <g transform="translate(-277.72 -125.42)">
   <circle cx="360.35" cy="130.49" r="2.0682" fill="#1077e6" fill-opacity=".6" fill-rule="evenodd"/>
   <circle cx="253.57" cy="130.78" r="2.0682" fill="#f00" fill-opacity=".4053" fill-rule="evenodd"/>
  </g>
  <g transform="matrix(.92855 0 0 .92855 86.102 -61.824)" ns0:alignment="middle center" ns0:inkscapeversion="1.0" ns0:jacobian_sqrt="0.352778" ns0:pdfconverter="inkscape" ns0:preamble="C:\\Users\\User\\AppData\\Roaming\\inkscape\\extensions\\textext\\default_packages.tex" ns0:scale="1.0" ns0:texconverter="pdflatex" ns0:text="$$f(x_1)f(x_2) f(x_3) f(x_4) f(x_5)$$" ns0:version="1.1.0">
   <g transform="translate(-246.5 -139.24)"></g>
  </g>
 </g>
 <g transform="matrix(1.354 0 0 1.354 -31.27 -26.71)">
  <g transform="matrix(.35335 0 0 .35335 -27.728 30.094)">
   <g transform="translate(261.53,149.97)">
    <path d="m3.3281-3.0156c0.0625-0.25 0.29688-1.1719 0.98438-1.1719 0.046875 0 0.29688 0 0.5 0.125-0.28125 0.0625-0.46875 0.29688-0.46875 0.54688 0 0.15625 0.10938 0.34375 0.375 0.34375 0.21875 0 0.53125-0.17188 0.53125-0.57812 0-0.51562-0.57812-0.65625-0.92188-0.65625-0.57812 0-0.92188 0.53125-1.0469 0.75-0.25-0.65625-0.78125-0.75-1.0781-0.75-1.0312 0-1.6094 1.2812-1.6094 1.5312 0 0.10938 0.10938 0.10938 0.125 0.10938 0.078125 0 0.10938-0.03125 0.125-0.10938 0.34375-1.0625 1-1.3125 1.3438-1.3125 0.1875 0 0.53125 0.09375 0.53125 0.67188 0 0.3125-0.17188 0.96875-0.53125 2.375-0.15625 0.60938-0.51562 1.0312-0.95312 1.0312-0.0625 0-0.28125 0-0.5-0.125 0.25-0.0625 0.46875-0.26562 0.46875-0.54688 0-0.26562-0.21875-0.34375-0.35938-0.34375-0.3125 0-0.54688 0.25-0.54688 0.57812 0 0.45312 0.48438 0.65625 0.92188 0.65625 0.67188 0 1.0312-0.70312 1.0469-0.75 0.125 0.35938 0.48438 0.75 1.0781 0.75 1.0312 0 1.5938-1.2812 1.5938-1.5312 0-0.10938-0.078125-0.10938-0.10938-0.10938-0.09375 0-0.10938 0.046875-0.14062 0.10938-0.32812 1.0781-1 1.3125-1.3125 1.3125-0.39062 0-0.54688-0.3125-0.54688-0.65625 0-0.21875 0.046875-0.4375 0.15625-0.875z"/>
   </g>
   <g transform="translate(285.5,149.97)">
    <path id="id-daa45e18-73b3-43ac-928b-f8d9979cf03c" d="m6.8438-3.2656c0.15625 0 0.34375 0 0.34375-0.1875 0-0.20312-0.1875-0.20312-0.32812-0.20312h-5.9688c-0.14062 0-0.32812 0-0.32812 0.20312 0 0.1875 0.1875 0.1875 0.32812 0.1875zm0.015625 1.9375c0.14062 0 0.32812 0 0.32812-0.20312 0-0.1875-0.1875-0.1875-0.34375-0.1875h-5.9531c-0.14062 0-0.32812 0-0.32812 0.1875 0 0.20312 0.1875 0.20312 0.32812 0.20312z"/>
   </g>
   <g transform="translate(296.02,149.97)">
    <path id="id-d883e366-9407-4364-9e63-3aa1c49b5b7b" d="m3.3281-3.0156c0.0625-0.25 0.29688-1.1719 0.98438-1.1719 0.046875 0 0.29688 0 0.5 0.125-0.28125 0.0625-0.46875 0.29688-0.46875 0.54688 0 0.15625 0.10938 0.34375 0.375 0.34375 0.21875 0 0.53125-0.17188 0.53125-0.57812 0-0.51562-0.57812-0.65625-0.92188-0.65625-0.57812 0-0.92188 0.53125-1.0469 0.75-0.25-0.65625-0.78125-0.75-1.0781-0.75-1.0312 0-1.6094 1.2812-1.6094 1.5312 0 0.10938 0.10938 0.10938 0.125 0.10938 0.078125 0 0.10938-0.03125 0.125-0.10938 0.34375-1.0625 1-1.3125 1.3438-1.3125 0.1875 0 0.53125 0.09375 0.53125 0.67188 0 0.3125-0.17188 0.96875-0.53125 2.375-0.15625 0.60938-0.51562 1.0312-0.95312 1.0312-0.0625 0-0.28125 0-0.5-0.125 0.25-0.0625 0.46875-0.26562 0.46875-0.54688 0-0.26562-0.21875-0.34375-0.35938-0.34375-0.3125 0-0.54688 0.25-0.54688 0.57812 0 0.45312 0.48438 0.65625 0.92188 0.65625 0.67188 0 1.0312-0.70312 1.0469-0.75 0.125 0.35938 0.48438 0.75 1.0781 0.75 1.0312 0 1.5938-1.2812 1.5938-1.5312 0-0.10938-0.078125-0.10938-0.10938-0.10938-0.09375 0-0.10938 0.046875-0.14062 0.10938-0.32812 1.0781-1 1.3125-1.3125 1.3125-0.39062 0-0.54688-0.3125-0.54688-0.65625 0-0.21875 0.046875-0.4375 0.15625-0.875z"/>
   </g>
   <g transform="translate(309.35,149.97)">
    <path d="m6.5625-2.2969c0.17188 0 0.35938 0 0.35938-0.20312 0-0.1875-0.1875-0.1875-0.35938-0.1875h-5.3906c-0.17188 0-0.34375 0-0.34375 0.1875 0 0.20312 0.17188 0.20312 0.34375 0.20312z"/>
   </g>
   <g id="id-abc91a4a-3a4b-4514-9086-3b8909fd4d8e">
    <g transform="translate(322.11,143.23)">
     <path d="m3.6562-3.9844h0.85938c0.20312 0 0.29688 0 0.29688-0.20312 0-0.10938-0.09375-0.10938-0.26562-0.10938h-0.82812l0.20312-1.1406c0.046875-0.20312 0.1875-0.90625 0.25-1.0312 0.078125-0.1875 0.25-0.34375 0.46875-0.34375 0.03125 0 0.29688 0 0.48438 0.1875-0.4375 0.03125-0.54688 0.39062-0.54688 0.53125 0 0.23438 0.1875 0.35938 0.375 0.35938 0.26562 0 0.54688-0.23438 0.54688-0.60938 0-0.45312-0.45312-0.6875-0.85938-0.6875-0.34375 0-0.96875 0.1875-1.2656 1.1719-0.0625 0.20312-0.09375 0.3125-0.32812 1.5625h-0.6875c-0.20312 0-0.3125 0-0.3125 0.1875 0 0.125 0.09375 0.125 0.28125 0.125h0.65625l-0.73438 3.9375c-0.1875 0.96875-0.35938 1.875-0.875 1.875-0.046875 0-0.28125 0-0.48438-0.1875 0.46875-0.03125 0.5625-0.39062 0.5625-0.53125 0-0.23438-0.1875-0.35938-0.375-0.35938-0.26562 0-0.54688 0.23438-0.54688 0.60938 0 0.4375 0.4375 0.6875 0.84375 0.6875 0.54688 0 0.95312-0.59375 1.125-0.96875 0.32812-0.625 0.54688-1.8281 0.5625-1.9062z"/>
    </g>
   </g>
   <g id="id-9544b882-0449-44e2-9307-614cfff968cf">
    <g transform="translate(328.06,143.23)">
     <path d="m3.2969 2.3906c0-0.03125 0-0.046875-0.17188-0.21875-1.2344-1.25-1.5625-3.1406-1.5625-4.6719 0-1.7344 0.375-3.4688 1.6094-4.7031 0.125-0.125 0.125-0.14062 0.125-0.17188 0-0.078125-0.03125-0.10938-0.09375-0.10938-0.10938 0-1 0.6875-1.5938 1.9531-0.5 1.0938-0.625 2.2031-0.625 3.0312 0 0.78125 0.10938 1.9844 0.65625 3.125 0.60938 1.2188 1.4531 1.875 1.5625 1.875 0.0625 0 0.09375-0.03125 0.09375-0.10938z"/>
    </g>
   </g>
   <g transform="translate(331.93,143.23)">
    <path id="id-d85f5b68-5dbf-4f24-9e57-595a65480c8e" d="m3.3281-3.0156c0.0625-0.25 0.29688-1.1719 0.98438-1.1719 0.046875 0 0.29688 0 0.5 0.125-0.28125 0.0625-0.46875 0.29688-0.46875 0.54688 0 0.15625 0.10938 0.34375 0.375 0.34375 0.21875 0 0.53125-0.17188 0.53125-0.57812 0-0.51562-0.57812-0.65625-0.92188-0.65625-0.57812 0-0.92188 0.53125-1.0469 0.75-0.25-0.65625-0.78125-0.75-1.0781-0.75-1.0312 0-1.6094 1.2812-1.6094 1.5312 0 0.10938 0.10938 0.10938 0.125 0.10938 0.078125 0 0.10938-0.03125 0.125-0.10938 0.34375-1.0625 1-1.3125 1.3438-1.3125 0.1875 0 0.53125 0.09375 0.53125 0.67188 0 0.3125-0.17188 0.96875-0.53125 2.375-0.15625 0.60938-0.51562 1.0312-0.95312 1.0312-0.0625 0-0.28125 0-0.5-0.125 0.25-0.0625 0.46875-0.26562 0.46875-0.54688 0-0.26562-0.21875-0.34375-0.35938-0.34375-0.3125 0-0.54688 0.25-0.54688 0.57812 0 0.45312 0.48438 0.65625 0.92188 0.65625 0.67188 0 1.0312-0.70312 1.0469-0.75 0.125 0.35938 0.48438 0.75 1.0781 0.75 1.0312 0 1.5938-1.2812 1.5938-1.5312 0-0.10938-0.078125-0.10938-0.10938-0.10938-0.09375 0-0.10938 0.046875-0.14062 0.10938-0.32812 1.0781-1 1.3125-1.3125 1.3125-0.39062 0-0.54688-0.3125-0.54688-0.65625 0-0.21875 0.046875-0.4375 0.15625-0.875z"/>
   </g>
   <g transform="translate(343.05,143.23)">
    <path d="m1.5372-2.3255c0-0.76562-0.10938-1.9688-0.65625-3.1094-0.59375-1.2188-1.4531-1.875-1.5469-1.875-0.0625 0-0.10938 0.046875-0.10938 0.10938 0 0.03125 0 0.046875 0.1875 0.23438 0.98438 0.98438 1.5469 2.5625 1.5469 4.6406 0 1.7188-0.35938 3.4688-1.5938 4.7188-0.14062 0.125-0.14062 0.14062-0.14062 0.17188 0 0.0625 0.046875 0.10938 0.10938 0.10938 0.09375 0 1-0.6875 1.5781-1.9531 0.51562-1.0938 0.625-2.2031 0.625-3.0469z"/>
   </g>
   <path transform="matrix(1,0,0,-1,320.51,147.48)" d="m0.0017188 0.0015312h28.008" fill="none" stroke="#000" stroke-miterlimit="10" stroke-width=".398"/>
   <g id="id-ea5aa908-26e9-40e7-9453-7777db05309d">
    <g transform="translate(320.51,156.81)">
     <path id="id-9380e1c8-01ec-4f01-a734-5de950d455ce" d="m3.6562-3.9844h0.85938c0.20312 0 0.29688 0 0.29688-0.20312 0-0.10938-0.09375-0.10938-0.26562-0.10938h-0.82812l0.20312-1.1406c0.046875-0.20312 0.1875-0.90625 0.25-1.0312 0.078125-0.1875 0.25-0.34375 0.46875-0.34375 0.03125 0 0.29688 0 0.48438 0.1875-0.4375 0.03125-0.54688 0.39062-0.54688 0.53125 0 0.23438 0.1875 0.35938 0.375 0.35938 0.26562 0 0.54688-0.23438 0.54688-0.60938 0-0.45312-0.45312-0.6875-0.85938-0.6875-0.34375 0-0.96875 0.1875-1.2656 1.1719-0.0625 0.20312-0.09375 0.3125-0.32812 1.5625h-0.6875c-0.20312 0-0.3125 0-0.3125 0.1875 0 0.125 0.09375 0.125 0.28125 0.125h0.65625l-0.73438 3.9375c-0.1875 0.96875-0.35938 1.875-0.875 1.875-0.046875 0-0.28125 0-0.48438-0.1875 0.46875-0.03125 0.5625-0.39062 0.5625-0.53125 0-0.23438-0.1875-0.35938-0.375-0.35938-0.26562 0-0.54688 0.23438-0.54688 0.60938 0 0.4375 0.4375 0.6875 0.84375 0.6875 0.54688 0 0.95312-0.59375 1.125-0.96875 0.32812-0.625 0.54688-1.8281 0.5625-1.9062z"/>
    </g>
   </g>
   <g transform="translate(326.46,151.94)">
    <path d="m1.7969-2.3125c0-0.015625 0.046875-0.10938 0.046875-0.1875 0-0.17188-0.15625-0.28125-0.3125-0.28125-0.20312 0-0.25 0.15625-0.28125 0.21875l-0.76562 2.1562c-0.015625 0.0625-0.015625 0.078125-0.015625 0.09375 0 0.078125 0.20312 0.125 0.20312 0.125 0.046875 0 0.0625-0.03125 0.09375-0.09375z"/>
   </g>
   <g transform="translate(329.65,156.81)">
    <path d="m3.2969 2.3906c0-0.03125 0-0.046875-0.17188-0.21875-1.2344-1.25-1.5625-3.1406-1.5625-4.6719 0-1.7344 0.375-3.4688 1.6094-4.7031 0.125-0.125 0.125-0.14062 0.125-0.17188 0-0.078125-0.03125-0.10938-0.09375-0.10938-0.10938 0-1 0.6875-1.5938 1.9531-0.5 1.0938-0.625 2.2031-0.625 3.0312 0 0.78125 0.10938 1.9844 0.65625 3.125 0.60938 1.2188 1.4531 1.875 1.5625 1.875 0.0625 0 0.09375-0.03125 0.09375-0.10938z"/>
   </g>
   <g transform="translate(333.53,156.81)">
    <path id="id-b25a45cb-b492-4439-ad4b-c80cf79d6bff" d="m3.3281-3.0156c0.0625-0.25 0.29688-1.1719 0.98438-1.1719 0.046875 0 0.29688 0 0.5 0.125-0.28125 0.0625-0.46875 0.29688-0.46875 0.54688 0 0.15625 0.10938 0.34375 0.375 0.34375 0.21875 0 0.53125-0.17188 0.53125-0.57812 0-0.51562-0.57812-0.65625-0.92188-0.65625-0.57812 0-0.92188 0.53125-1.0469 0.75-0.25-0.65625-0.78125-0.75-1.0781-0.75-1.0312 0-1.6094 1.2812-1.6094 1.5312 0 0.10938 0.10938 0.10938 0.125 0.10938 0.078125 0 0.10938-0.03125 0.125-0.10938 0.34375-1.0625 1-1.3125 1.3438-1.3125 0.1875 0 0.53125 0.09375 0.53125 0.67188 0 0.3125-0.17188 0.96875-0.53125 2.375-0.15625 0.60938-0.51562 1.0312-0.95312 1.0312-0.0625 0-0.28125 0-0.5-0.125 0.25-0.0625 0.46875-0.26562 0.46875-0.54688 0-0.26562-0.21875-0.34375-0.35938-0.34375-0.3125 0-0.54688 0.25-0.54688 0.57812 0 0.45312 0.48438 0.65625 0.92188 0.65625 0.67188 0 1.0312-0.70312 1.0469-0.75 0.125 0.35938 0.48438 0.75 1.0781 0.75 1.0312 0 1.5938-1.2812 1.5938-1.5312 0-0.10938-0.078125-0.10938-0.10938-0.10938-0.09375 0-0.10938 0.046875-0.14062 0.10938-0.32812 1.0781-1 1.3125-1.3125 1.3125-0.39062 0-0.54688-0.3125-0.54688-0.65625 0-0.21875 0.046875-0.4375 0.15625-0.875z"/>
   </g>
   <g transform="translate(344.64,156.81)">
    <path d="m1.5372-2.3255c0-0.76562-0.10938-1.9688-0.65625-3.1094-0.59375-1.2188-1.4531-1.875-1.5469-1.875-0.0625 0-0.10938 0.046875-0.10938 0.10938 0 0.03125 0 0.046875 0.1875 0.23438 0.98438 0.98438 1.5469 2.5625 1.5469 4.6406 0 1.7188-0.35938 3.4688-1.5938 4.7188-0.14062 0.125-0.14062 0.14062-0.14062 0.17188 0 0.0625 0.046875 0.10938 0.10938 0.10938 0.09375 0 1-0.6875 1.5781-1.9531 0.51562-1.0938 0.625-2.2031 0.625-3.0469z"/>
   </g>
  </g>
  <g transform="matrix(.18767 0 0 .18767 66.627 82.763)" ns0:alignment="middle center" ns0:inkscapeversion="1.0" ns0:jacobian_sqrt="0.352778" ns0:pdfconverter="inkscape" ns0:preamble="C:\\Users\\User\\AppData\\Roaming\\inkscape\\extensions\\textext\\default_packages.tex" ns0:scale="1.0" ns0:texconverter="pdflatex" ns0:text="$$n+1 n$$" ns0:version="1.1.0">
   <g transform="translate(-291.36,-140.08)">
    <g transform="translate(291.06,146.72)">
     <path d="m0.875-0.59375c-0.03125 0.15625-0.09375 0.39062-0.09375 0.4375 0 0.17188 0.14062 0.26562 0.29688 0.26562 0.125 0 0.29688-0.078125 0.375-0.28125 0-0.015625 0.125-0.48438 0.1875-0.73438l0.21875-0.89062c0.046875-0.23438 0.10938-0.45312 0.17188-0.67188 0.03125-0.17188 0.10938-0.46875 0.125-0.5 0.14062-0.3125 0.67188-1.2188 1.625-1.2188 0.45312 0 0.53125 0.375 0.53125 0.70312 0 0.60938-0.48438 1.8906-0.64062 2.3125-0.09375 0.23438-0.10938 0.35938-0.10938 0.46875 0 0.46875 0.35938 0.8125 0.82812 0.8125 0.9375 0 1.2969-1.4531 1.2969-1.5312 0-0.10938-0.078125-0.10938-0.10938-0.10938-0.10938 0-0.10938 0.03125-0.15625 0.1875-0.20312 0.67188-0.53125 1.2344-1.0156 1.2344-0.17188 0-0.23438-0.09375-0.23438-0.32812 0-0.25 0.078125-0.48438 0.17188-0.70312 0.1875-0.53125 0.60938-1.625 0.60938-2.2031 0-0.65625-0.42188-1.0625-1.1406-1.0625-0.90625 0-1.3906 0.64062-1.5625 0.875-0.046875-0.5625-0.45312-0.875-0.92188-0.875-0.45312 0-0.64062 0.39062-0.73438 0.5625-0.17188 0.34375-0.29688 0.9375-0.29688 0.96875 0 0.10938 0.09375 0.10938 0.10938 0.10938 0.10938 0 0.10938-0.015625 0.17188-0.23438 0.17188-0.70312 0.375-1.1875 0.73438-1.1875 0.1875 0 0.29688 0.125 0.29688 0.45312 0 0.21875-0.03125 0.32812-0.15625 0.84375z"/>
    </g>
    <g id="id-156f5c1d-d5a9-4c2e-9c14-3b932545719c">
     <g transform="translate(299.26,146.72)">
      <path d="m4.0781-2.2969h2.7812c0.14062 0 0.32812 0 0.32812-0.20312 0-0.1875-0.1875-0.1875-0.32812-0.1875h-2.7812v-2.7969c0-0.14062 0-0.32812-0.20312-0.32812s-0.20312 0.1875-0.20312 0.32812v2.7969h-2.7812c-0.14062 0-0.32812 0-0.32812 0.1875 0 0.20312 0.1875 0.20312 0.32812 0.20312h2.7812v2.7969c0 0.14062 0 0.32812 0.20312 0.32812s0.20312-0.1875 0.20312-0.32812z"/>
     </g>
    </g>
    <g transform="translate(309.22,146.72)">
     <path d="m2.9375-6.375c0-0.25 0-0.26562-0.23438-0.26562-0.625 0.64062-1.5 0.64062-1.8125 0.64062v0.3125c0.20312 0 0.78125 0 1.2969-0.26562v5.1719c0 0.35938-0.03125 0.46875-0.92188 0.46875h-0.3125v0.3125c0.34375-0.03125 1.2031-0.03125 1.6094-0.03125 0.39062 0 1.2656 0 1.6094 0.03125v-0.3125h-0.3125c-0.90625 0-0.92188-0.10938-0.92188-0.46875z"/>
    </g>
    <g transform="translate(314.2,146.72)">
     <path d="m43.805-2.2365c-0.03125 0.15625-0.09375 0.39062-0.09375 0.4375 0 0.17188 0.14062 0.26562 0.29688 0.26562 0.125 0 0.29688-0.078125 0.375-0.28125 0-0.015625 0.125-0.48438 0.1875-0.73438l0.21875-0.89062c0.04687-0.23438 0.10938-0.45312 0.17188-0.67188 0.03125-0.17188 0.10938-0.46875 0.125-0.5 0.14062-0.3125 0.67188-1.2188 1.625-1.2188 0.45312 0 0.53125 0.375 0.53125 0.70312 0 0.60938-0.48438 1.8906-0.64062 2.3125-0.09375 0.23438-0.10938 0.35938-0.10938 0.46875 0 0.46875 0.35938 0.8125 0.82812 0.8125 0.9375 0 1.2969-1.4531 1.2969-1.5312 0-0.10938-0.07813-0.10938-0.10938-0.10938-0.10938 0-0.10938 0.03125-0.15625 0.1875-0.20312 0.67188-0.53125 1.2344-1.0156 1.2344-0.17188 0-0.23438-0.09375-0.23438-0.32812 0-0.25 0.07813-0.48438 0.17188-0.70312 0.1875-0.53125 0.60938-1.625 0.60938-2.2031 0-0.65625-0.42188-1.0625-1.1406-1.0625-0.90625 0-1.3906 0.64062-1.5625 0.875-0.04687-0.5625-0.45312-0.875-0.92188-0.875-0.45312 0-0.64062 0.39062-0.73438 0.5625-0.17188 0.34375-0.29688 0.9375-0.29688 0.96875 0 0.10938 0.09375 0.10938 0.10938 0.10938 0.10938 0 0.10938-0.015625 0.17188-0.23438 0.17188-0.70312 0.375-1.1875 0.73438-1.1875 0.1875 0 0.29688 0.125 0.29688 0.45312 0 0.21875-0.03125 0.32812-0.15625 0.84375z"/>
    </g>
   </g>
  </g>
  <path d="m91.974 81.182c-0.0059 0.02932-0.01759 0.07331-0.01759 0.0821 0 0.03226 0.02639 0.04985 0.05571 0.04985 0.02346 0 0.05572-0.01466 0.07038-0.05278 0-0.0029 0.02346-0.0909 0.03519-0.13782l0.04105-0.16714c0.0088-0.04398 0.02053-0.08504 0.03225-0.12609 0.0059-0.03226 0.02053-0.08797 0.02346-0.09383 0.02639-0.05865 0.12609-0.22872 0.30496-0.22872 0.08504 0 0.0997 0.07038 0.0997 0.13196 0 0.11436-0.0909 0.35481-0.12022 0.43398-0.01759 0.04398-0.02053 0.06744-0.02053 0.08797 0 0.08797 0.06744 0.15248 0.15541 0.15248 0.17594 0 0.24338-0.27271 0.24338-0.28737 0-0.02053-0.01466-0.02053-0.02053-0.02053-0.02053 0-0.02053 0.0059-0.02932 0.03519-0.03812 0.12609-0.0997 0.23165-0.1906 0.23165-0.03226 0-0.04398-0.01759-0.04398-0.06158 0-0.04692 0.01466-0.0909 0.03225-0.13196 0.03519-0.0997 0.11436-0.30496 0.11436-0.41346 0-0.12316-0.07917-0.1994-0.21406-0.1994-0.17008 0-0.26098 0.12022-0.29323 0.16421-0.0088-0.10556-0.08504-0.16421-0.17301-0.16421-0.08504 0-0.12023 0.07331-0.13782 0.10556-0.03226 0.06451-0.05571 0.17594-0.05571 0.1818 0 0.02053 0.01759 0.02053 0.02053 0.02053 0.02053 0 0.02053-0.0029 0.03225-0.04398 0.03226-0.13195 0.07038-0.22286 0.13782-0.22286 0.03519 0 0.05571 0.02346 0.05571 0.08504 0 0.04105-0.0059 0.06158-0.02932 0.15834z"/>
  <path d="m92.497 85.891c-6e-3 0.02932-0.0176 0.07331-0.0176 0.0821 0 0.03226 0.0264 0.04985 0.0557 0.04985 0.0235 0 0.0557-0.01466 0.0704-0.05278 0-0.0029 0.0234-0.0909 0.0352-0.13782l0.0411-0.16714c9e-3 -0.04399 0.0205-0.08504 0.0322-0.12609 6e-3 -0.03226 0.0205-0.08797 0.0235-0.09383 0.0264-0.05865 0.12609-0.22872 0.30496-0.22872 0.085 0 0.0997 0.07037 0.0997 0.13195 0 0.11436-0.0909 0.35481-0.12022 0.43398-0.0176 0.04398-0.0205 0.06744-0.0205 0.08797 0 0.08797 0.0674 0.15248 0.15541 0.15248 0.17594 0 0.24338-0.27271 0.24338-0.28737 0-0.02053-0.0147-0.02053-0.0205-0.02053-0.0205 0-0.0205 0.0059-0.0293 0.03519-0.0381 0.12609-0.0997 0.23165-0.19061 0.23165-0.0323 0-0.044-0.01759-0.044-0.06158 0-0.04692 0.0147-0.0909 0.0323-0.13196 0.0352-0.0997 0.11436-0.30496 0.11436-0.41346 0-0.12316-0.0792-0.1994-0.21406-0.1994-0.17008 0-0.26098 0.12022-0.29324 0.16421-9e-3 -0.10556-0.085-0.16421-0.173-0.16421-0.085 0-0.12023 0.07331-0.13782 0.10556-0.0323 0.06451-0.0557 0.17594-0.0557 0.1818 0 0.02053 0.0176 0.02053 0.0205 0.02053 0.0205 0 0.0205-0.0029 0.0323-0.04399 0.0323-0.13195 0.0704-0.22286 0.13782-0.22286 0.0352 0 0.0557 0.02346 0.0557 0.08504 0 0.04105-6e-3 0.06158-0.0293 0.15834z"/>
 </g>
</svg>
