<?xml version="1.0" encoding="UTF-8"?>
<svg width="130mm" height="120mm" version="1.1" viewBox="0 0 97.948 90.288" xmlns="http://www.w3.org/2000/svg" xmlns:cc="http://creativecommons.org/ns#" xmlns:dc="http://purl.org/dc/elements/1.1/" xmlns:ns0="http://www.iki.fi/pav/software/textext/" xmlns:rdf="http://www.w3.org/1999/02/22-rdf-syntax-ns#">
 <metadata>
  <rdf:RDF>
   <cc:Work rdf:about="">
    <dc:format>image/svg+xml</dc:format>
    <dc:type rdf:resource="http://purl.org/dc/dcmitype/StillImage"/>
    <dc:title/>
   </cc:Work>
  </rdf:RDF>
 </metadata>
 <defs>
  <marker id="marker1506" overflow="visible" orient="auto">
   <path transform="matrix(-.4 0 0 -.4 -4 0)" d="m0 0 5-5-17.5 5 17.5 5z" fill-opacity=".41288" fill-rule="evenodd" stroke="#000" stroke-opacity=".41288" stroke-width="1pt"/>
  </marker>
  <marker id="marker1496" overflow="visible" orient="auto">
   <path transform="matrix(-.4 0 0 -.4 -4 0)" d="m0 0 5-5-17.5 5 17.5 5z" fill-opacity=".41288" fill-rule="evenodd" stroke="#000" stroke-opacity=".41288" stroke-width="1pt"/>
  </marker>
 </defs>
 <g transform="translate(-54.51 -111.73)" fill="none" stroke="#000" stroke-opacity=".41288">
  <path d="m61.444 202.02v-89.61" marker-end="url(#marker1496)" stroke-width=".34396"/>
  <path d="m54.51 158.93h97.209" marker-end="url(#marker1506)" stroke-width=".3752"/>
 </g>
 <g transform="matrix(.64046 0 0 .64046 95.262 84.139)" ns0:alignment="middle center" ns0:inkscapeversion="1.0" ns0:jacobian_sqrt="0.352778" ns0:pdfconverter="inkscape" ns0:preamble="C:\\Users\\User\\AppData\\Roaming\\inkscape\\extensions\\textext\\default_packages.tex" ns0:scale="1.0" ns0:texconverter="pdflatex" ns0:text="$$x y$$" ns0:version="1.1.0">
  <g transform="translate(-300.45 -142.31)">
   <g transform="translate(300.16 146.72)" fill-opacity=".73864">
    <path d="m2.9415-58.566c0.048043-0.1922 0.22824-0.90093 0.75678-0.90093 0.036034 0 0.22824 0 0.3844 0.09609-0.21622 0.04804-0.36037 0.22824-0.36037 0.42044 0 0.12012 0.084088 0.26427 0.2883 0.26427 0.16817 0 0.40842-0.13214 0.40842-0.44446 0-0.39641-0.44446-0.50452-0.70873-0.50452-0.44446 0-0.70873 0.40842-0.80483 0.5766-0.1922-0.50452-0.60062-0.5766-0.82886-0.5766-0.79282 0-1.2373 0.98502-1.2373 1.1772 0 0.08408 0.084083 0.08408 0.096096 0.08408 0.060067 0 0.084083-0.02403 0.096096-0.08408 0.26427-0.81685 0.7688-1.009 1.0331-1.009 0.14415 0 0.40842 0.07208 0.40842 0.51654 0 0.24025-0.13214 0.74477-0.40842 1.8259-0.12013 0.46848-0.39641 0.79282-0.73276 0.79282-0.048044 0-0.21622 0-0.3844-0.09609 0.1922-0.04804 0.36037-0.20421 0.36037-0.42044 0-0.20421-0.16817-0.26428-0.27629-0.26428-0.24025 0-0.42044 0.1922-0.42044 0.44446 0 0.34836 0.37239 0.50452 0.70873 0.50452 0.51654 0 0.79282-0.54056 0.80483-0.5766 0.096097 0.27629 0.37239 0.5766 0.82886 0.5766 0.79282 0 1.2253-0.98502 1.2253-1.1772 0-0.08409-0.060065-0.08409-0.084088-0.08409-0.072076 0-0.084088 0.03602-0.10811 0.08409-0.25226 0.82886-0.7688 1.009-1.009 1.009-0.30031 0-0.42044-0.24025-0.42044-0.50452 0-0.16818 0.03603-0.33635 0.12012-0.6727z" fill-opacity=".73864"/>
    <path d="m-129.05-8.7322c14.256-48.358 40.505-60.742 55.435-67.511 5.0123-2.2724 17.16-2.4821 26.126-9.6635 7.2557-5.8112 16.435-28.486 34.832-33.827" fill="none" stroke="#005ee5" stroke-opacity=".73864" stroke-width=".74361"/>
    <g stroke="#000">
     <g fill-opacity=".2" stroke-opacity=".2">
      <path d="m-38.458-97.476-24.773 35.248" stroke-width=".7023"/>
      <path d="m-63.231-62.227v-16.751" stroke-dasharray="3.34624, 0.55770600000000004" stroke-width=".55771"/>
      <path d="m-128.76-62.099v52.372" stroke-dasharray="3.34624, 0.55770600000000004" stroke-width=".55771"/>
     </g>
     <path d="m-111.62-46.307 11.959-15.856" fill-opacity="1" stroke-opacity=".79545" stroke-width=".7023"/>
     <path d="m-38.458-97.476v35.399" fill-opacity=".2" stroke-dasharray="3.34624, 0.55770600000000004" stroke-opacity=".2" stroke-width=".55771"/>
    </g>
   </g>
   <g transform="translate(156.32 15.951)" fill-opacity=".73864">
    <path d="m3.7944-3.9375c0.036057-0.10817 0.036057-0.12019 0.036057-0.18029 0-0.13221-0.10817-0.20433-0.22836-0.20433-0.072115 0-0.19231 0.048077-0.26442 0.15625-0.012019 0.048076-0.084134 0.27644-0.10817 0.42067-0.060095 0.19231-0.10817 0.40865-0.15625 0.61298l-0.34856 1.3822c-0.024038 0.10817-0.36057 0.64903-0.86538 0.64903-0.38461 0-0.46875-0.33654-0.46875-0.625 0-0.34855 0.13221-0.82932 0.38461-1.5024 0.12019-0.3125 0.15625-0.39663 0.15625-0.55288 0-0.33654-0.24038-0.625-0.625-0.625-0.73317 0-1.0096 1.1178-1.0096 1.1779 0 0.084134 0.072115 0.084134 0.084134 0.084134 0.084134 0 0.084134-0.024038 0.12019-0.14423 0.21634-0.72115 0.51682-0.94951 0.78124-0.94951 0.060095 0 0.19231 0 0.19231 0.24038 0 0.19231-0.084134 0.39663-0.13221 0.54086-0.3125 0.8173-0.44471 1.25-0.44471 1.6106 0 0.68509 0.48077 0.91345 0.93749 0.91345 0.30048 0 0.55288-0.13221 0.76922-0.34855-0.096153 0.39663-0.19231 0.78124-0.49278 1.1899-0.20433 0.2524-0.49278 0.48077-0.84134 0.48077-0.10817 0-0.45673-0.024038-0.58894-0.32452 0.12019 0 0.22836 0 0.32452-0.096153 0.084134-0.060096 0.15625-0.16827 0.15625-0.3125 0-0.24038-0.20433-0.26442-0.27644-0.26442-0.18029 0-0.43269 0.12019-0.43269 0.49278 0 0.38461 0.33654 0.67307 0.8173 0.67307 0.78124 0 1.5745-0.69711 1.7909-1.5625z" fill-opacity=".73864"/>
   </g>
   <g transform="matrix(.55171 0 0 .55171 252.87 132.82)" ns0:alignment="middle center" ns0:inkscapeversion="1.0" ns0:jacobian_sqrt="0.352778" ns0:pdfconverter="inkscape" ns0:preamble="C:\\Users\\User\\AppData\\Roaming\\inkscape\\extensions\\textext\\default_packages.tex" ns0:scale="1.0" ns0:texconverter="pdflatex" ns0:text="$$x_{n+1}=x_n-\\frac{f(x_n)}{f^{'}(x_n)}$$" ns0:version="1.1.0">
    <g transform="matrix(1.354 0 0 1.354 -378.12 -181.24)">
     <g transform="translate(261.53,149.97)">
      <path d="m3.3281-3.0156c0.0625-0.25 0.29688-1.1719 0.98438-1.1719 0.046875 0 0.29688 0 0.5 0.125-0.28125 0.0625-0.46875 0.29688-0.46875 0.54688 0 0.15625 0.10938 0.34375 0.375 0.34375 0.21875 0 0.53125-0.17188 0.53125-0.57812 0-0.51562-0.57812-0.65625-0.92188-0.65625-0.57812 0-0.92188 0.53125-1.0469 0.75-0.25-0.65625-0.78125-0.75-1.0781-0.75-1.0312 0-1.6094 1.2812-1.6094 1.5312 0 0.10938 0.10938 0.10938 0.125 0.10938 0.078125 0 0.10938-0.03125 0.125-0.10938 0.34375-1.0625 1-1.3125 1.3438-1.3125 0.1875 0 0.53125 0.09375 0.53125 0.67188 0 0.3125-0.17188 0.96875-0.53125 2.375-0.15625 0.60938-0.51562 1.0312-0.95312 1.0312-0.0625 0-0.28125 0-0.5-0.125 0.25-0.0625 0.46875-0.26562 0.46875-0.54688 0-0.26562-0.21875-0.34375-0.35938-0.34375-0.3125 0-0.54688 0.25-0.54688 0.57812 0 0.45312 0.48438 0.65625 0.92188 0.65625 0.67188 0 1.0312-0.70312 1.0469-0.75 0.125 0.35938 0.48438 0.75 1.0781 0.75 1.0312 0 1.5938-1.2812 1.5938-1.5312 0-0.10938-0.078125-0.10938-0.10938-0.10938-0.09375 0-0.10938 0.046875-0.14062 0.10938-0.32812 1.0781-1 1.3125-1.3125 1.3125-0.39062 0-0.54688-0.3125-0.54688-0.65625 0-0.21875 0.046875-0.4375 0.15625-0.875z"/>
     </g>
     <g transform="translate(285.5,149.97)">
      <path id="id-daa45e18-73b3-43ac-928b-f8d9979cf03c" d="m6.8438-3.2656c0.15625 0 0.34375 0 0.34375-0.1875 0-0.20312-0.1875-0.20312-0.32812-0.20312h-5.9688c-0.14062 0-0.32812 0-0.32812 0.20312 0 0.1875 0.1875 0.1875 0.32812 0.1875zm0.015625 1.9375c0.14062 0 0.32812 0 0.32812-0.20312 0-0.1875-0.1875-0.1875-0.34375-0.1875h-5.9531c-0.14062 0-0.32812 0-0.32812 0.1875 0 0.20312 0.1875 0.20312 0.32812 0.20312z"/>
     </g>
     <g transform="translate(296.02,149.97)">
      <path id="id-d883e366-9407-4364-9e63-3aa1c49b5b7b" d="m3.3281-3.0156c0.0625-0.25 0.29688-1.1719 0.98438-1.1719 0.046875 0 0.29688 0 0.5 0.125-0.28125 0.0625-0.46875 0.29688-0.46875 0.54688 0 0.15625 0.10938 0.34375 0.375 0.34375 0.21875 0 0.53125-0.17188 0.53125-0.57812 0-0.51562-0.57812-0.65625-0.92188-0.65625-0.57812 0-0.92188 0.53125-1.0469 0.75-0.25-0.65625-0.78125-0.75-1.0781-0.75-1.0312 0-1.6094 1.2812-1.6094 1.5312 0 0.10938 0.10938 0.10938 0.125 0.10938 0.078125 0 0.10938-0.03125 0.125-0.10938 0.34375-1.0625 1-1.3125 1.3438-1.3125 0.1875 0 0.53125 0.09375 0.53125 0.67188 0 0.3125-0.17188 0.96875-0.53125 2.375-0.15625 0.60938-0.51562 1.0312-0.95312 1.0312-0.0625 0-0.28125 0-0.5-0.125 0.25-0.0625 0.46875-0.26562 0.46875-0.54688 0-0.26562-0.21875-0.34375-0.35938-0.34375-0.3125 0-0.54688 0.25-0.54688 0.57812 0 0.45312 0.48438 0.65625 0.92188 0.65625 0.67188 0 1.0312-0.70312 1.0469-0.75 0.125 0.35938 0.48438 0.75 1.0781 0.75 1.0312 0 1.5938-1.2812 1.5938-1.5312 0-0.10938-0.078125-0.10938-0.10938-0.10938-0.09375 0-0.10938 0.046875-0.14062 0.10938-0.32812 1.0781-1 1.3125-1.3125 1.3125-0.39062 0-0.54688-0.3125-0.54688-0.65625 0-0.21875 0.046875-0.4375 0.15625-0.875z"/>
     </g>
     <g transform="translate(309.35,149.97)">
      <path d="m6.5625-2.2969c0.17188 0 0.35938 0 0.35938-0.20312 0-0.1875-0.1875-0.1875-0.35938-0.1875h-5.3906c-0.17188 0-0.34375 0-0.34375 0.1875 0 0.20312 0.17188 0.20312 0.34375 0.20312z"/>
     </g>
     <g id="id-abc91a4a-3a4b-4514-9086-3b8909fd4d8e">
      <g transform="translate(322.11,143.23)">
       <path d="m3.6562-3.9844h0.85938c0.20312 0 0.29688 0 0.29688-0.20312 0-0.10938-0.09375-0.10938-0.26562-0.10938h-0.82812l0.20312-1.1406c0.046875-0.20312 0.1875-0.90625 0.25-1.0312 0.078125-0.1875 0.25-0.34375 0.46875-0.34375 0.03125 0 0.29688 0 0.48438 0.1875-0.4375 0.03125-0.54688 0.39062-0.54688 0.53125 0 0.23438 0.1875 0.35938 0.375 0.35938 0.26562 0 0.54688-0.23438 0.54688-0.60938 0-0.45312-0.45312-0.6875-0.85938-0.6875-0.34375 0-0.96875 0.1875-1.2656 1.1719-0.0625 0.20312-0.09375 0.3125-0.32812 1.5625h-0.6875c-0.20312 0-0.3125 0-0.3125 0.1875 0 0.125 0.09375 0.125 0.28125 0.125h0.65625l-0.73438 3.9375c-0.1875 0.96875-0.35938 1.875-0.875 1.875-0.046875 0-0.28125 0-0.48438-0.1875 0.46875-0.03125 0.5625-0.39062 0.5625-0.53125 0-0.23438-0.1875-0.35938-0.375-0.35938-0.26562 0-0.54688 0.23438-0.54688 0.60938 0 0.4375 0.4375 0.6875 0.84375 0.6875 0.54688 0 0.95312-0.59375 1.125-0.96875 0.32812-0.625 0.54688-1.8281 0.5625-1.9062z"/>
      </g>
     </g>
     <g id="id-9544b882-0449-44e2-9307-614cfff968cf">
      <g transform="translate(328.06,143.23)">
       <path d="m3.2969 2.3906c0-0.03125 0-0.046875-0.17188-0.21875-1.2344-1.25-1.5625-3.1406-1.5625-4.6719 0-1.7344 0.375-3.4688 1.6094-4.7031 0.125-0.125 0.125-0.14062 0.125-0.17188 0-0.078125-0.03125-0.10938-0.09375-0.10938-0.10938 0-1 0.6875-1.5938 1.9531-0.5 1.0938-0.625 2.2031-0.625 3.0312 0 0.78125 0.10938 1.9844 0.65625 3.125 0.60938 1.2188 1.4531 1.875 1.5625 1.875 0.0625 0 0.09375-0.03125 0.09375-0.10938z"/>
      </g>
     </g>
     <g transform="translate(331.93,143.23)">
      <path id="id-d85f5b68-5dbf-4f24-9e57-595a65480c8e" d="m3.3281-3.0156c0.0625-0.25 0.29688-1.1719 0.98438-1.1719 0.046875 0 0.29688 0 0.5 0.125-0.28125 0.0625-0.46875 0.29688-0.46875 0.54688 0 0.15625 0.10938 0.34375 0.375 0.34375 0.21875 0 0.53125-0.17188 0.53125-0.57812 0-0.51562-0.57812-0.65625-0.92188-0.65625-0.57812 0-0.92188 0.53125-1.0469 0.75-0.25-0.65625-0.78125-0.75-1.0781-0.75-1.0312 0-1.6094 1.2812-1.6094 1.5312 0 0.10938 0.10938 0.10938 0.125 0.10938 0.078125 0 0.10938-0.03125 0.125-0.10938 0.34375-1.0625 1-1.3125 1.3438-1.3125 0.1875 0 0.53125 0.09375 0.53125 0.67188 0 0.3125-0.17188 0.96875-0.53125 2.375-0.15625 0.60938-0.51562 1.0312-0.95312 1.0312-0.0625 0-0.28125 0-0.5-0.125 0.25-0.0625 0.46875-0.26562 0.46875-0.54688 0-0.26562-0.21875-0.34375-0.35938-0.34375-0.3125 0-0.54688 0.25-0.54688 0.57812 0 0.45312 0.48438 0.65625 0.92188 0.65625 0.67188 0 1.0312-0.70312 1.0469-0.75 0.125 0.35938 0.48438 0.75 1.0781 0.75 1.0312 0 1.5938-1.2812 1.5938-1.5312 0-0.10938-0.078125-0.10938-0.10938-0.10938-0.09375 0-0.10938 0.046875-0.14062 0.10938-0.32812 1.0781-1 1.3125-1.3125 1.3125-0.39062 0-0.54688-0.3125-0.54688-0.65625 0-0.21875 0.046875-0.4375 0.15625-0.875z"/>
     </g>
     <g transform="translate(343.05,143.23)">
      <path d="m1.5372-2.3255c0-0.76562-0.10938-1.9688-0.65625-3.1094-0.59375-1.2188-1.4531-1.875-1.5469-1.875-0.0625 0-0.10938 0.046875-0.10938 0.10938 0 0.03125 0 0.046875 0.1875 0.23438 0.98438 0.98438 1.5469 2.5625 1.5469 4.6406 0 1.7188-0.35938 3.4688-1.5938 4.7188-0.14062 0.125-0.14062 0.14062-0.14062 0.17188 0 0.0625 0.046875 0.10938 0.10938 0.10938 0.09375 0 1-0.6875 1.5781-1.9531 0.51562-1.0938 0.625-2.2031 0.625-3.0469z"/>
     </g>
    </g>
    <path d="m55.87 18.451h37.924" fill="none" stroke="#000" stroke-miterlimit="10" stroke-width=".53891"/>
    <g transform="matrix(1.354 0 0 1.354 -378.12 -181.24)">
     <g id="id-ea5aa908-26e9-40e7-9453-7777db05309d">
      <g transform="translate(320.51,156.81)">
       <path id="id-9380e1c8-01ec-4f01-a734-5de950d455ce" d="m3.6562-3.9844h0.85938c0.20312 0 0.29688 0 0.29688-0.20312 0-0.10938-0.09375-0.10938-0.26562-0.10938h-0.82812l0.20312-1.1406c0.046875-0.20312 0.1875-0.90625 0.25-1.0312 0.078125-0.1875 0.25-0.34375 0.46875-0.34375 0.03125 0 0.29688 0 0.48438 0.1875-0.4375 0.03125-0.54688 0.39062-0.54688 0.53125 0 0.23438 0.1875 0.35938 0.375 0.35938 0.26562 0 0.54688-0.23438 0.54688-0.60938 0-0.45312-0.45312-0.6875-0.85938-0.6875-0.34375 0-0.96875 0.1875-1.2656 1.1719-0.0625 0.20312-0.09375 0.3125-0.32812 1.5625h-0.6875c-0.20312 0-0.3125 0-0.3125 0.1875 0 0.125 0.09375 0.125 0.28125 0.125h0.65625l-0.73438 3.9375c-0.1875 0.96875-0.35938 1.875-0.875 1.875-0.046875 0-0.28125 0-0.48438-0.1875 0.46875-0.03125 0.5625-0.39062 0.5625-0.53125 0-0.23438-0.1875-0.35938-0.375-0.35938-0.26562 0-0.54688 0.23438-0.54688 0.60938 0 0.4375 0.4375 0.6875 0.84375 0.6875 0.54688 0 0.95312-0.59375 1.125-0.96875 0.32812-0.625 0.54688-1.8281 0.5625-1.9062z"/>
      </g>
     </g>
     <g transform="translate(326.46,151.94)">
      <path d="m1.7969-2.3125c0-0.015625 0.046875-0.10938 0.046875-0.1875 0-0.17188-0.15625-0.28125-0.3125-0.28125-0.20312 0-0.25 0.15625-0.28125 0.21875l-0.76562 2.1562c-0.015625 0.0625-0.015625 0.078125-0.015625 0.09375 0 0.078125 0.20312 0.125 0.20312 0.125 0.046875 0 0.0625-0.03125 0.09375-0.09375z"/>
     </g>
     <g transform="translate(329.65,156.81)">
      <path d="m3.2969 2.3906c0-0.03125 0-0.046875-0.17188-0.21875-1.2344-1.25-1.5625-3.1406-1.5625-4.6719 0-1.7344 0.375-3.4688 1.6094-4.7031 0.125-0.125 0.125-0.14062 0.125-0.17188 0-0.078125-0.03125-0.10938-0.09375-0.10938-0.10938 0-1 0.6875-1.5938 1.9531-0.5 1.0938-0.625 2.2031-0.625 3.0312 0 0.78125 0.10938 1.9844 0.65625 3.125 0.60938 1.2188 1.4531 1.875 1.5625 1.875 0.0625 0 0.09375-0.03125 0.09375-0.10938z"/>
     </g>
     <g transform="translate(333.53,156.81)">
      <path id="id-b25a45cb-b492-4439-ad4b-c80cf79d6bff" d="m3.3281-3.0156c0.0625-0.25 0.29688-1.1719 0.98438-1.1719 0.046875 0 0.29688 0 0.5 0.125-0.28125 0.0625-0.46875 0.29688-0.46875 0.54688 0 0.15625 0.10938 0.34375 0.375 0.34375 0.21875 0 0.53125-0.17188 0.53125-0.57812 0-0.51562-0.57812-0.65625-0.92188-0.65625-0.57812 0-0.92188 0.53125-1.0469 0.75-0.25-0.65625-0.78125-0.75-1.0781-0.75-1.0312 0-1.6094 1.2812-1.6094 1.5312 0 0.10938 0.10938 0.10938 0.125 0.10938 0.078125 0 0.10938-0.03125 0.125-0.10938 0.34375-1.0625 1-1.3125 1.3438-1.3125 0.1875 0 0.53125 0.09375 0.53125 0.67188 0 0.3125-0.17188 0.96875-0.53125 2.375-0.15625 0.60938-0.51562 1.0312-0.95312 1.0312-0.0625 0-0.28125 0-0.5-0.125 0.25-0.0625 0.46875-0.26562 0.46875-0.54688 0-0.26562-0.21875-0.34375-0.35938-0.34375-0.3125 0-0.54688 0.25-0.54688 0.57812 0 0.45312 0.48438 0.65625 0.92188 0.65625 0.67188 0 1.0312-0.70312 1.0469-0.75 0.125 0.35938 0.48438 0.75 1.0781 0.75 1.0312 0 1.5938-1.2812 1.5938-1.5312 0-0.10938-0.078125-0.10938-0.10938-0.10938-0.09375 0-0.10938 0.046875-0.14062 0.10938-0.32812 1.0781-1 1.3125-1.3125 1.3125-0.39062 0-0.54688-0.3125-0.54688-0.65625 0-0.21875 0.046875-0.4375 0.15625-0.875z"/>
     </g>
     <g transform="translate(344.64,156.81)">
      <path d="m1.5372-2.3255c0-0.76562-0.10938-1.9688-0.65625-3.1094-0.59375-1.2188-1.4531-1.875-1.5469-1.875-0.0625 0-0.10938 0.046875-0.10938 0.10938 0 0.03125 0 0.046875 0.1875 0.23438 0.98438 0.98438 1.5469 2.5625 1.5469 4.6406 0 1.7188-0.35938 3.4688-1.5938 4.7188-0.14062 0.125-0.14062 0.14062-0.14062 0.17188 0 0.0625 0.046875 0.10938 0.10938 0.10938 0.09375 0 1-0.6875 1.5781-1.9531 0.51562-1.0938 0.625-2.2031 0.625-3.0469z"/>
     </g>
    </g>
    <g transform="matrix(.64306 0 0 .64306 -16.58 20.043)" ns0:alignment="middle center" ns0:jacobian_sqrt="1.33333" ns0:pdfconverter="inkscape" ns0:preamble="C:\\Users\\User\\AppData\\Roaming\\inkscape\\extensions\\textext\\default_packages.tex" ns0:scale="1.0" ns0:texconverter="pdflatex" ns0:text="$$4$$" ns0:version="1.1.0">
     <defs></defs>
     <g transform="translate(-303.41 -139.97)">
      <g></g>
     </g>
    </g>
    <g transform="matrix(.64306 0 0 .64306 29.711 20.042)" ns0:alignment="middle center" ns0:jacobian_sqrt="1.33333" ns0:pdfconverter="inkscape" ns0:preamble="C:\\Users\\User\\AppData\\Roaming\\inkscape\\extensions\\textext\\default_packages.tex" ns0:scale="1.0" ns0:texconverter="pdflatex" ns0:text="$$4$$" ns0:version="1.1.0">
     <defs></defs>
     <g transform="translate(-303.41 -139.97)">
      <g>
       <g transform="translate(303.13 146.72)">
        <path d="m2.9375-1.6406v0.85938c0 0.35938-0.03125 0.46875-0.76562 0.46875h-0.20312v0.3125c0.40625-0.03125 0.92188-0.03125 1.3438-0.03125s0.9375 0 1.3594 0.03125v-0.3125h-0.21875c-0.73438 0-0.75-0.10938-0.75-0.46875v-0.85938h0.98438v-0.3125h-0.98438v-4.5312c0-0.20312 0-0.26562-0.17188-0.26562-0.078125 0-0.10938 0-0.1875 0.125l-3.0625 4.6719v0.3125zm0.046875-0.3125h-2.4219l2.4219-3.7188z"/>
       </g>
      </g>
     </g>
    </g>
    <g transform="matrix(.64306 0 0 .64306 80.811 29.45)" ns0:alignment="middle center" ns0:jacobian_sqrt="1.33333" ns0:pdfconverter="inkscape" ns0:preamble="C:\\Users\\User\\AppData\\Roaming\\inkscape\\extensions\\textext\\default_packages.tex" ns0:scale="1.0" ns0:texconverter="pdflatex" ns0:text="$$4$$" ns0:version="1.1.0">
     <defs></defs>
     <g transform="translate(-303.41 -139.97)">
      <g>
       <g transform="translate(303.13 146.72)">
        <path d="m2.9375-1.6406v0.85938c0 0.35938-0.03125 0.46875-0.76562 0.46875h-0.20312v0.3125c0.40625-0.03125 0.92188-0.03125 1.3438-0.03125s0.9375 0 1.3594 0.03125v-0.3125h-0.21875c-0.73438 0-0.75-0.10938-0.75-0.46875v-0.85938h0.98438v-0.3125h-0.98438v-4.5312c0-0.20312 0-0.26562-0.17188-0.26562-0.078125 0-0.10938 0-0.1875 0.125l-3.0625 4.6719v0.3125zm0.046875-0.3125h-2.4219l2.4219-3.7188z"/>
       </g>
      </g>
     </g>
    </g>
    <g transform="matrix(.64306 0 0 .64306 78.628 11.011)" ns0:alignment="middle center" ns0:jacobian_sqrt="1.33333" ns0:pdfconverter="inkscape" ns0:preamble="C:\\Users\\User\\AppData\\Roaming\\inkscape\\extensions\\textext\\default_packages.tex" ns0:scale="1.0" ns0:texconverter="pdflatex" ns0:text="$$4$$" ns0:version="1.1.0">
     <defs></defs>
     <g transform="translate(-303.41 -139.97)">
      <g>
       <g transform="translate(303.13 146.72)">
        <path d="m2.9375-1.6406v0.85938c0 0.35938-0.03125 0.46875-0.76562 0.46875h-0.20312v0.3125c0.40625-0.03125 0.92188-0.03125 1.3438-0.03125s0.9375 0 1.3594 0.03125v-0.3125h-0.21875c-0.73438 0-0.75-0.10938-0.75-0.46875v-0.85938h0.98438v-0.3125h-0.98438v-4.5312c0-0.20312 0-0.26562-0.17188-0.26562-0.078125 0-0.10938 0-0.1875 0.125l-3.0625 4.6719v0.3125zm0.046875-0.3125h-2.4219l2.4219-3.7188z"/>
       </g>
      </g>
     </g>
    </g>
   </g>
  </g>
 </g>
 <g stroke="#000">
  <path d="m54.575 36.378-41.969 10.811" fill-opacity=".2" stroke-opacity=".2" stroke-width=".44979"/>
  <path d="m23.587 57.303v-10.129" fill-opacity=".5" stroke-dasharray="2.14313, 0.35718800000000001" stroke-opacity=".6" stroke-width=".35719"/>
  <path d="m12.606 80.731 10.98-33.557" fill-opacity=".2" stroke-opacity=".2" stroke-width=".44979"/>
 </g>
 <g transform="matrix(.35278 0 0 .35278 41.318 45.325)" ns0:alignment="middle center" ns0:inkscapeversion="1.0" ns0:jacobian_sqrt="0.352778" ns0:pdfconverter="inkscape" ns0:preamble="C:\\Users\\User\\AppData\\Roaming\\inkscape\\extensions\\textext\\default_packages.tex" ns0:scale="1.0" ns0:texconverter="pdflatex" ns0:text="$$x_1 x_2 x_3 x_4 x_5$$" ns0:version="1.1.0">
  <g transform="translate(-277.72 -125.42)">
   <g id="id-f60eea50-828c-49a0-bba6-61024773f7da">
    <g transform="translate(280.22 146.72)">
     <path d="m80.959-11.318c0.0625-0.25 0.29688-1.1719 0.98438-1.1719 0.04687 0 0.29688 0 0.5 0.125-0.28125 0.0625-0.46875 0.29688-0.46875 0.54688 0 0.15625 0.10938 0.34375 0.375 0.34375 0.21875 0 0.53125-0.17188 0.53125-0.57812 0-0.51562-0.57812-0.65625-0.92188-0.65625-0.57812 0-0.92188 0.53125-1.0469 0.75-0.25-0.65625-0.78125-0.75-1.0781-0.75-1.0312 0-1.6094 1.2812-1.6094 1.5312 0 0.10938 0.10938 0.10938 0.125 0.10938 0.07813 0 0.10938-0.03125 0.125-0.10938 0.34375-1.0625 1-1.3125 1.3438-1.3125 0.1875 0 0.53125 0.09375 0.53125 0.67188 0 0.3125-0.17188 0.96875-0.53125 2.375-0.15625 0.60938-0.51562 1.0312-0.95312 1.0312-0.0625 0-0.28125 0-0.5-0.125 0.25-0.0625 0.46875-0.26562 0.46875-0.54688 0-0.26562-0.21875-0.34375-0.35938-0.34375-0.3125 0-0.54688 0.25-0.54688 0.57812 0 0.45312 0.48438 0.65625 0.92188 0.65625 0.67188 0 1.0312-0.70312 1.0469-0.75 0.125 0.35938 0.48438 0.75 1.0781 0.75 1.0312 0 1.5938-1.2812 1.5938-1.5312 0-0.10938-0.07813-0.10938-0.10938-0.10938-0.09375 0-0.10938 0.046875-0.14062 0.10938-0.32812 1.0781-1 1.3125-1.3125 1.3125-0.39062 0-0.54688-0.3125-0.54688-0.65625 0-0.21875 0.04687-0.4375 0.15625-0.875z" fill-opacity=".2"/>
    </g>
   </g>
   <g id="id-c981ccbc-8939-48c5-86d5-b0d627f5402e">
    <g transform="translate(285.91 148.21)">
     <path id="id-f753687a-9186-46b2-98b5-9161c7325e9a" d="m79.959-12.739c0-0.1875 0-0.1875-0.20312-0.1875-0.45312 0.4375-1.0781 0.4375-1.3594 0.4375v0.25c0.15625 0 0.625 0 1-0.1875v3.5469c0 0.23438 0 0.32812-0.6875 0.32812h-0.26562v0.25c0.125 0 0.98438-0.03125 1.2344-0.03125 0.21875 0 1.0938 0.03125 1.25 0.03125v-0.25h-0.26562c-0.70312 0-0.70312-0.09375-0.70312-0.32812z" fill-opacity=".2"/>
    </g>
   </g>
   <g transform="translate(20.507 -8.3894)">
    <g transform="translate(290.38 146.72)">
     <path d="m4.872-3.1321c0.0625-0.25 0.29688-1.1719 0.98438-1.1719 0.046875 0 0.29688 0 0.5 0.125-0.28125 0.0625-0.46875 0.29688-0.46875 0.54688 0 0.15625 0.10938 0.34375 0.375 0.34375 0.21875 0 0.53125-0.17188 0.53125-0.57812 0-0.51562-0.57812-0.65625-0.92188-0.65625-0.57812 0-0.92188 0.53125-1.0469 0.75-0.25-0.65625-0.78125-0.75-1.0781-0.75-1.0312 0-1.6094 1.2812-1.6094 1.5312 0 0.10938 0.10938 0.10938 0.125 0.10938 0.078125 0 0.10938-0.03125 0.125-0.10938 0.34375-1.0625 1-1.3125 1.3438-1.3125 0.1875 0 0.53125 0.09375 0.53125 0.67188 0 0.3125-0.17188 0.96875-0.53125 2.375-0.15625 0.60938-0.51562 1.0313-0.95312 1.0313-0.0625 0-0.28125 0-0.5-0.125 0.25-0.0625 0.46875-0.26562 0.46875-0.54688 0-0.26563-0.21875-0.34375-0.35938-0.34375-0.3125 0-0.54688 0.25-0.54688 0.57813 0 0.45312 0.48438 0.65625 0.92188 0.65625 0.67188 0 1.0312-0.70312 1.0469-0.75 0.125 0.35938 0.48438 0.75 1.0781 0.75 1.0312 0 1.5938-1.2813 1.5938-1.5313 0-0.10938-0.078125-0.10938-0.10938-0.10938-0.09375 0-0.10938 0.046875-0.14062 0.10938-0.32812 1.0781-1 1.3125-1.3125 1.3125-0.39062 0-0.54688-0.3125-0.54688-0.65625 0-0.21875 0.046875-0.4375 0.15625-0.875z" fill-opacity=".2"/>
    </g>
   </g>
   <g transform="translate(20.507 -8.3894)">
    <g transform="translate(296.07 148.21)">
     <path d="m5.0595-1.3821h-0.23438c-0.015625 0.15625-0.09375 0.5625-0.1875 0.625-0.046875 0.046875-0.57812 0.046875-0.6875 0.046875h-1.2812c0.73438-0.64063 0.98438-0.84375 1.3906-1.1719 0.51562-0.40625 1-0.84375 1-1.5 0-0.84375-0.73438-1.3594-1.625-1.3594-0.85938 0-1.4531 0.60938-1.4531 1.25 0 0.34375 0.29688 0.39062 0.375 0.39062 0.15625 0 0.35938-0.125 0.35938-0.375 0-0.125-0.046875-0.375-0.40625-0.375 0.21875-0.48438 0.6875-0.64062 1.0156-0.64062 0.70312 0 1.0625 0.54688 1.0625 1.1094 0 0.60938-0.4375 1.0781-0.65625 1.3281l-1.6719 1.6719c-0.078125 0.0625-0.078125 0.078125-0.078125 0.26562h2.875z" fill-opacity=".2"/>
    </g>
   </g>
   <g id="id-c034cf49-b693-4358-ab81-37aead2614fd" transform="translate(-102.77 -9.0885)">
    <g transform="translate(300.54 146.72)">
     <path id="id-aced7b4c-51bb-494f-a329-6af6159e65bb" d="m3.4517-3.4276c0.0625-0.25 0.29688-1.1719 0.98438-1.1719 0.046875 0 0.29688 0 0.5 0.125-0.28125 0.0625-0.46875 0.29688-0.46875 0.54688 0 0.15625 0.10938 0.34375 0.375 0.34375 0.21875 0 0.53125-0.17188 0.53125-0.57812 0-0.51562-0.57812-0.65625-0.92188-0.65625-0.57812 0-0.92188 0.53125-1.0469 0.75-0.25-0.65625-0.78125-0.75-1.0781-0.75-1.0312 0-1.6094 1.2812-1.6094 1.5312 0 0.10938 0.10938 0.10938 0.125 0.10938 0.078125 0 0.10938-0.03125 0.125-0.10938 0.34375-1.0625 1-1.3125 1.3437-1.3125 0.1875 0 0.53125 0.09375 0.53125 0.67188 0 0.3125-0.17188 0.96875-0.53125 2.375-0.15625 0.60937-0.51562 1.0312-0.95312 1.0312-0.0625 0-0.28125 0-0.5-0.125 0.25-0.0625 0.46875-0.26562 0.46875-0.54687 0-0.26562-0.21875-0.34375-0.35937-0.34375-0.3125 0-0.54688 0.25-0.54688 0.57812 0 0.45312 0.48438 0.65625 0.92187 0.65625 0.67188 0 1.0312-0.70312 1.0469-0.75 0.125 0.35937 0.48438 0.75 1.0781 0.75 1.0312 0 1.5938-1.2812 1.5938-1.5312 0-0.10938-0.078125-0.10938-0.10938-0.10938-0.09375 0-0.10938 0.046875-0.14062 0.10938-0.32812 1.0781-1 1.3125-1.3125 1.3125-0.39062 0-0.54688-0.3125-0.54688-0.65625 0-0.21875 0.046875-0.4375 0.15625-0.875z" fill-opacity=".2"/>
    </g>
   </g>
   <g id="id-e3dfc6f8-acf7-4e17-8d59-be4cfd7b8b7e" transform="translate(-102.77 -9.0885)">
    <g transform="translate(306.24 148.21)">
     <path d="m2.0298-2.7401c0.54688 0 0.9375 0.375 0.9375 1.125 0 0.85937-0.51562 1.125-0.90625 1.125-0.28125 0-0.90625-0.078125-1.1875-0.5 0.32812 0 0.40625-0.23437 0.40625-0.39062 0-0.21875-0.17188-0.375-0.39062-0.375-0.1875 0-0.39062 0.125-0.39062 0.40625 0 0.65625 0.71875 1.0781 1.5625 1.0781 0.96875 0 1.6406-0.65625 1.6406-1.3437 0-0.54688-0.4375-1.0938-1.2031-1.25 0.71875-0.26562 0.98438-0.78125 0.98438-1.2188 0-0.54688-0.625-0.95312-1.4062-0.95312-0.76562 0-1.3594 0.375-1.3594 0.9375 0 0.23438 0.15625 0.35938 0.35937 0.35938 0.21875 0 0.35938-0.15625 0.35938-0.34375 0-0.20312-0.14062-0.35938-0.35938-0.375 0.25-0.29688 0.71875-0.375 0.98438-0.375 0.3125 0 0.75 0.15625 0.75 0.75 0 0.29688-0.09375 0.625-0.28125 0.82812-0.21875 0.26562-0.42188 0.28125-0.76562 0.3125-0.17188 0.015625-0.1875 0.015625-0.21875 0.015625-0.015625 0-0.078125 0.015625-0.078125 0.09375 0 0.09375 0.0625 0.09375 0.1875 0.09375z" fill-opacity=".2"/>
    </g>
   </g>
   <g transform="translate(-82.496 -9.6711)">
    <g transform="translate(310.71 146.72)">
     <path d="m3.9461-2.8096c0.0625-0.25 0.29688-1.1719 0.98438-1.1719 0.046875 0 0.29688 0 0.5 0.125-0.28125 0.0625-0.46875 0.29688-0.46875 0.54688 0 0.15625 0.10938 0.34375 0.375 0.34375 0.21875 0 0.53125-0.17188 0.53125-0.57812 0-0.51562-0.57812-0.65625-0.92188-0.65625-0.57812 0-0.92188 0.53125-1.0469 0.75-0.25-0.65625-0.78125-0.75-1.0781-0.75-1.0312 0-1.6094 1.2812-1.6094 1.5312 0 0.10938 0.10938 0.10938 0.125 0.10938 0.078125 0 0.10938-0.03125 0.125-0.10938 0.34375-1.0625 1-1.3125 1.3438-1.3125 0.1875 0 0.53125 0.09375 0.53125 0.67188 0 0.3125-0.17188 0.96875-0.53125 2.375-0.15625 0.60938-0.51562 1.0312-0.95312 1.0312-0.0625 0-0.28125 0-0.5-0.125 0.25-0.0625 0.46875-0.26562 0.46875-0.54688 0-0.26562-0.21875-0.34375-0.35938-0.34375-0.3125 0-0.54688 0.25-0.54688 0.57812 0 0.45312 0.48438 0.65625 0.92188 0.65625 0.67188 0 1.0312-0.70312 1.0469-0.75 0.125 0.35938 0.48438 0.75 1.0781 0.75 1.0312 0 1.5938-1.2812 1.5938-1.5312 0-0.10938-0.078125-0.10938-0.10938-0.10938-0.09375 0-0.10938 0.046875-0.14062 0.10938-0.32812 1.0781-1 1.3125-1.3125 1.3125-0.39062 0-0.54688-0.3125-0.54688-0.65625 0-0.21875 0.046875-0.4375 0.15625-0.875z"/>
    </g>
   </g>
   <g transform="translate(-82.496 -9.6711)">
    <g transform="translate(316.4 148.21)">
     <path d="m4.3054-0.93465v-0.25h-0.78125v-3.1094c0-0.14062 0-0.20312-0.14062-0.20312-0.09375 0-0.125 0-0.1875 0.10938l-2.3125 3.2031v0.25h2.0625v0.5625c0 0.25 0 0.32812-0.57812 0.32812h-0.1875v0.25c0.35938-0.015625 0.79688-0.03125 1.0469-0.03125 0.26562 0 0.70312 0.015625 1.0625 0.03125v-0.25h-0.1875c-0.57812 0-0.57812-0.078125-0.57812-0.32812v-0.5625zm-1.3125-2.7969v2.5469h-1.8438z"/>
    </g>
   </g>
   <g id="id-00c2fd87-c6b1-44cb-88df-083cb6bb323d" transform="translate(-77.369 -18.527)">
    <g transform="translate(320.87 146.72)">
     <path d="m3.3281-4.6635c0.0625-0.25 0.29688-1.1719 0.98438-1.1719 0.046875 0 0.29688 0 0.5 0.125-0.28125 0.0625-0.46875 0.29688-0.46875 0.54688 0 0.15625 0.10938 0.34375 0.375 0.34375 0.21875 0 0.53125-0.17188 0.53125-0.57812 0-0.51562-0.57812-0.65625-0.92188-0.65625-0.57812 0-0.92188 0.53125-1.0469 0.75-0.25-0.65625-0.78125-0.75-1.0781-0.75-1.0312 0-1.6094 1.2812-1.6094 1.5312 0 0.10938 0.10938 0.10938 0.125 0.10938 0.078125 0 0.10938-0.03125 0.125-0.10938 0.34375-1.0625 1-1.3125 1.3438-1.3125 0.1875 0 0.53125 0.09375 0.53125 0.67188 0 0.3125-0.17188 0.96875-0.53125 2.375-0.15625 0.60938-0.51562 1.0312-0.95312 1.0312-0.0625 0-0.28125 0-0.5-0.125 0.25-0.0625 0.46875-0.26562 0.46875-0.54688 0-0.26562-0.21875-0.34375-0.35938-0.34375-0.3125 0-0.54688 0.25-0.54688 0.57812 0 0.45312 0.48438 0.65625 0.92188 0.65625 0.67188 0 1.0312-0.70312 1.0469-0.75 0.125 0.35938 0.48438 0.75 1.0781 0.75 1.0312 0 1.5938-1.2812 1.5938-1.5312 0-0.10938-0.078125-0.10938-0.10938-0.10938-0.09375 0-0.10938 0.046875-0.14062 0.10938-0.32812 1.0781-1 1.3125-1.3125 1.3125-0.39062 0-0.54688-0.3125-0.54688-0.65625 0-0.21875 0.046875-0.4375 0.15625-0.875z" fill-opacity=".79924"/>
    </g>
   </g>
   <g id="id-79d863fa-2bb0-4411-ad69-04b950c3a3ed" transform="translate(-77.369 -18.527)">
    <g transform="translate(326.56 148.21)">
     <path id="id-229f1c3c-b4da-4343-867e-01a3e76ddedd" d="m1.0781-5.5385c0.35938 0.09375 0.5625 0.09375 0.67188 0.09375 0.92188 0 1.4688-0.625 1.4688-0.73438 0-0.078125-0.046875-0.09375-0.078125-0.09375-0.015625 0-0.03125 0-0.0625 0.015625-0.17188 0.0625-0.53125 0.20312-1.0469 0.20312-0.20312 0-0.5625-0.015625-1.0156-0.1875-0.078125-0.03125-0.09375-0.03125-0.09375-0.03125-0.09375 0-0.09375 0.078125-0.09375 0.1875v2.0469c0 0.125 0 0.20312 0.10938 0.20312 0.0625 0 0.078125 0 0.14062-0.09375 0.29688-0.375 0.73438-0.4375 0.96875-0.4375 0.42188 0 0.60938 0.32812 0.64062 0.39062 0.125 0.23438 0.17188 0.5 0.17188 0.90625 0 0.20312 0 0.60938-0.21875 0.92188-0.17188 0.25-0.46875 0.42188-0.8125 0.42188-0.45312 0-0.92188-0.25-1.0938-0.71875 0.26562 0.015625 0.40625-0.15625 0.40625-0.34375 0-0.29688-0.26562-0.34375-0.35938-0.34375 0 0-0.34375 0-0.34375 0.375 0 0.625 0.57812 1.25 1.4062 1.25 0.89062 0 1.6719-0.65625 1.6719-1.5469 0-0.78125-0.59375-1.5-1.4531-1.5-0.3125 0-0.67188 0.0625-0.98438 0.32812z" fill-opacity=".79924"/>
    </g>
   </g>
   <g fill="#1077e6" fill-rule="evenodd">
    <circle cx="248.93" cy="130.49" r="2.0682" fill-opacity=".6"/>
    <g fill-opacity=".2">
     <circle cx="360.35" cy="130.49" r="2.0682"/>
     <circle cx="315.37" cy="130.49" r="2.0682"/>
     <circle cx="196.45" cy="130.82" r="2.0682"/>
    </g>
    <circle cx="227.44" cy="130.82" r="2.0682" fill-opacity=".6"/>
   </g>
   <circle cx="253.57" cy="130.78" r="2.0682" fill="#f00" fill-opacity=".4053" fill-rule="evenodd"/>
  </g>
  <g transform="matrix(.92855 0 0 .92855 86.102 -61.824)" ns0:alignment="middle center" ns0:inkscapeversion="1.0" ns0:jacobian_sqrt="0.352778" ns0:pdfconverter="inkscape" ns0:preamble="C:\\Users\\User\\AppData\\Roaming\\inkscape\\extensions\\textext\\default_packages.tex" ns0:scale="1.0" ns0:texconverter="pdflatex" ns0:text="$$f(x_1)f(x_2) f(x_3) f(x_4) f(x_5)$$" ns0:version="1.1.0">
   <g transform="translate(-246.5 -139.24)">
    <g transform="translate(245.97 146.72)">
     <path d="m1.7112-4.3608h0.85938c0.20312 0 0.29688 0 0.29688-0.20312 0-0.10938-0.09375-0.10938-0.26562-0.10938h-0.82812l0.20312-1.1406c0.046875-0.20312 0.1875-0.90625 0.25-1.0312 0.078125-0.1875 0.25-0.34375 0.46875-0.34375 0.03125 0 0.29688 0 0.48438 0.1875-0.4375 0.03125-0.54688 0.39062-0.54688 0.53125 0 0.23438 0.1875 0.35938 0.375 0.35938 0.26562 0 0.54688-0.23438 0.54688-0.60938 0-0.45312-0.45312-0.6875-0.85938-0.6875-0.34375 0-0.96875 0.1875-1.2656 1.1719-0.0625 0.20312-0.09375 0.3125-0.32812 1.5625h-0.6875c-0.20312 0-0.3125 0-0.3125 0.1875 0 0.125 0.09375 0.125 0.28125 0.125h0.65625l-0.73437 3.9375c-0.1875 0.96875-0.35938 1.875-0.875 1.875-0.046875 0-0.28125 0-0.48438-0.1875 0.46875-0.03125 0.5625-0.39062 0.5625-0.53125 0-0.23438-0.1875-0.35938-0.375-0.35938-0.26563 0-0.54688 0.23438-0.54688 0.60938 0 0.4375 0.4375 0.6875 0.84375 0.6875 0.54688 0 0.95312-0.59375 1.125-0.96875 0.32812-0.625 0.54687-1.8281 0.5625-1.9063z" fill-opacity=".2"/>
    </g>
    <g transform="translate(251.92 146.72)">
     <path d="m0.56757 2.0142c0-0.03125 0-0.046875-0.17188-0.21875-1.2344-1.25-1.5625-3.1406-1.5625-4.6719 0-1.7344 0.375-3.4688 1.6094-4.7031 0.125-0.125 0.125-0.14062 0.125-0.17188 0-0.078125-0.03125-0.10938-0.09375-0.10938-0.10938 0-1 0.6875-1.5937 1.9531-0.5 1.0938-0.625 2.2031-0.625 3.0312 0 0.78125 0.10938 1.9844 0.65625 3.125 0.60937 1.2187 1.4531 1.875 1.5625 1.875 0.0625 0 0.09375-0.03125 0.09375-0.10938z" fill-opacity=".2"/>
    </g>
    <g transform="translate(255.79 146.72)">
     <path id="id-9829917d-255d-4926-89f6-4db33806057a" d="m0.59882-3.3921c0.0625-0.25 0.29688-1.1719 0.98437-1.1719 0.046875 0 0.29688 0 0.5 0.125-0.28125 0.0625-0.46875 0.29688-0.46875 0.54688 0 0.15625 0.10938 0.34375 0.375 0.34375 0.21875 0 0.53125-0.17188 0.53125-0.57812 0-0.51562-0.57812-0.65625-0.92188-0.65625-0.57812 0-0.92187 0.53125-1.0469 0.75-0.25-0.65625-0.78125-0.75-1.0781-0.75-1.0312 0-1.6094 1.2812-1.6094 1.5312 0 0.10938 0.10938 0.10938 0.125 0.10938 0.078125 0 0.10938-0.03125 0.125-0.10938 0.34375-1.0625 1-1.3125 1.3437-1.3125 0.1875 0 0.53125 0.09375 0.53125 0.67188 0 0.3125-0.17188 0.96875-0.53125 2.375-0.15625 0.60938-0.51562 1.0313-0.95312 1.0313-0.0625 0-0.28125 0-0.5-0.125 0.25-0.0625 0.46875-0.26562 0.46875-0.54688 0-0.26562-0.21875-0.34375-0.35938-0.34375-0.3125 0-0.54688 0.25-0.54688 0.57813 0 0.45312 0.48438 0.65625 0.92188 0.65625 0.67187 0 1.0312-0.70312 1.0469-0.75 0.125 0.35938 0.48438 0.75 1.0781 0.75 1.0312 0 1.5937-1.2813 1.5937-1.5313 0-0.10938-0.078125-0.10938-0.10938-0.10938-0.09375 0-0.10938 0.046875-0.14062 0.10938-0.32812 1.0781-1 1.3125-1.3125 1.3125-0.39062 0-0.54688-0.3125-0.54688-0.65625 0-0.21875 0.046875-0.4375 0.15625-0.875z" fill-opacity=".2"/>
    </g>
    <g transform="translate(261.49 148.21)">
     <path d="m-0.40118-4.814c0-0.1875 0-0.1875-0.20312-0.1875-0.45312 0.4375-1.0781 0.4375-1.3594 0.4375v0.25c0.15625 0 0.625 0 1-0.1875v3.5469c0 0.23438 0 0.32812-0.6875 0.32812h-0.26562v0.25c0.125 0 0.98437-0.03125 1.2344-0.03125 0.21875 0 1.0938 0.03125 1.25 0.03125v-0.25h-0.26562c-0.70312 0-0.70312-0.09375-0.70312-0.32812z" fill-opacity=".2"/>
    </g>
    <g id="id-d6ec24f4-0ba4-43f1-885b-15011902f7fa">
     <g transform="translate(265.96 146.72)">
      <path id="id-5d6f1c53-5fb1-4e06-b950-6ecb6a096a5a" d="m-0.9523-2.8451c0-0.76562-0.10938-1.9688-0.65625-3.1094-0.59375-1.2188-1.4531-1.875-1.5469-1.875-0.0625 0-0.10938 0.046875-0.10938 0.10938 0 0.03125 0 0.046875 0.1875 0.23438 0.98438 0.98438 1.5469 2.5625 1.5469 4.6406 0 1.7188-0.35938 3.4688-1.5938 4.7188-0.14062 0.125-0.14062 0.14062-0.14062 0.17188 0 0.0625 0.046875 0.10938 0.10938 0.10938 0.09375 0 1-0.6875 1.5781-1.9531 0.51562-1.0938 0.625-2.2031 0.625-3.0469z" fill-opacity=".2"/>
     </g>
    </g>
    <g id="id-46d6a082-d177-41dc-8255-4f112e17c76b" transform="translate(-88.342 26.101)">
     <g transform="translate(269.83 146.72)">
      <path id="id-5e6f15b2-06dd-4d4c-b175-9282fad407fe" d="m3.6562-3.9844h0.85938c0.20312 0 0.29688 0 0.29688-0.20312 0-0.10938-0.09375-0.10938-0.26562-0.10938h-0.82812l0.20312-1.1406c0.046875-0.20312 0.1875-0.90625 0.25-1.0312 0.078125-0.1875 0.25-0.34375 0.46875-0.34375 0.03125 0 0.29688 0 0.48438 0.1875-0.4375 0.03125-0.54688 0.39062-0.54688 0.53125 0 0.23438 0.1875 0.35938 0.375 0.35938 0.26562 0 0.54688-0.23438 0.54688-0.60938 0-0.45312-0.45312-0.6875-0.85938-0.6875-0.34375 0-0.96875 0.1875-1.2656 1.1719-0.0625 0.20312-0.09375 0.3125-0.32812 1.5625h-0.6875c-0.20312 0-0.3125 0-0.3125 0.1875 0 0.125 0.09375 0.125 0.28125 0.125h0.65625l-0.73438 3.9375c-0.1875 0.96875-0.35938 1.875-0.875 1.875-0.046875 0-0.28125 0-0.48438-0.1875 0.46875-0.03125 0.5625-0.39062 0.5625-0.53125 0-0.23438-0.1875-0.35938-0.375-0.35938-0.26562 0-0.54688 0.23438-0.54688 0.60938 0 0.4375 0.4375 0.6875 0.84375 0.6875 0.54688 0 0.95312-0.59375 1.125-0.96875 0.32812-0.625 0.54688-1.8281 0.5625-1.9062z" fill-opacity=".2"/>
     </g>
    </g>
    <g id="id-b2844a03-4ccf-4328-a597-9ae4f50d76cc" transform="translate(-88.342 26.101)">
     <g transform="translate(275.78 146.72)">
      <path id="id-2dcdbe17-b2f2-486e-80b6-1066d7d3e52a" d="m2.2765 2.3906c0-0.03125 0-0.046875-0.17188-0.21875-1.2344-1.25-1.5625-3.1406-1.5625-4.6719 0-1.7344 0.375-3.4688 1.6094-4.7031 0.125-0.125 0.125-0.14062 0.125-0.17188 0-0.078125-0.03125-0.10938-0.09375-0.10938-0.10938 0-1 0.6875-1.5937 1.9531-0.5 1.0938-0.625 2.2031-0.625 3.0312 0 0.78125 0.10938 1.9844 0.65625 3.125 0.60937 1.2188 1.4531 1.875 1.5625 1.875 0.0625 0 0.09375-0.03125 0.09375-0.10938z" fill-opacity=".2"/>
     </g>
    </g>
    <g id="id-8e00686b-a8b8-48e2-85bd-1111c2d2001a" transform="translate(-88.342 26.101)">
     <g transform="translate(279.66 146.72)">
      <path d="m2.3077-3.0156c0.0625-0.25 0.29688-1.1719 0.98438-1.1719 0.046875 0 0.29688 0 0.5 0.125-0.28125 0.0625-0.46875 0.29688-0.46875 0.54688 0 0.15625 0.10938 0.34375 0.375 0.34375 0.21875 0 0.53125-0.17188 0.53125-0.57812 0-0.51562-0.57812-0.65625-0.92188-0.65625-0.57812 0-0.92188 0.53125-1.0469 0.75-0.25-0.65625-0.78125-0.75-1.0781-0.75-1.0312 0-1.6094 1.2812-1.6094 1.5312 0 0.10938 0.10938 0.10938 0.125 0.10938 0.078125 0 0.10938-0.03125 0.125-0.10938 0.34375-1.0625 1-1.3125 1.3437-1.3125 0.1875 0 0.53125 0.09375 0.53125 0.67188 0 0.3125-0.17188 0.96875-0.53125 2.375-0.15625 0.60938-0.51562 1.0312-0.95312 1.0312-0.0625 0-0.28125 0-0.5-0.125 0.25-0.0625 0.46875-0.26562 0.46875-0.54688 0-0.26562-0.21875-0.34375-0.35938-0.34375-0.3125 0-0.54688 0.25-0.54688 0.57812 0 0.45312 0.48438 0.65625 0.92188 0.65625 0.67188 0 1.0312-0.70312 1.0469-0.75 0.125 0.35938 0.48438 0.75 1.0781 0.75 1.0312 0 1.5938-1.2812 1.5938-1.5312 0-0.10938-0.078125-0.10938-0.10938-0.10938-0.09375 0-0.10938 0.046875-0.14062 0.10938-0.32812 1.0781-1 1.3125-1.3125 1.3125-0.39062 0-0.54688-0.3125-0.54688-0.65625 0-0.21875 0.046875-0.4375 0.15625-0.875z" fill-opacity=".2"/>
     </g>
    </g>
    <g id="id-fbd6338f-276f-4b6b-b33a-9b247f334f8b" transform="translate(-88.342 26.101)">
     <g transform="translate(285.35 148.21)">
      <path d="m2.4952-1.2656h-0.23438c-0.015625 0.15625-0.09375 0.5625-0.1875 0.625-0.046875 0.046875-0.57812 0.046875-0.6875 0.046875h-1.2812c0.73438-0.64062 0.98437-0.84375 1.3906-1.1719 0.51562-0.40625 1-0.84375 1-1.5 0-0.84375-0.73438-1.3594-1.625-1.3594-0.85938 0-1.4531 0.60938-1.4531 1.25 0 0.34375 0.29688 0.39062 0.375 0.39062 0.15625 0 0.35938-0.125 0.35938-0.375 0-0.125-0.046875-0.375-0.40625-0.375 0.21875-0.48438 0.6875-0.64062 1.0156-0.64062 0.70312 0 1.0625 0.54688 1.0625 1.1094 0 0.60938-0.4375 1.0781-0.65625 1.3281l-1.6719 1.6719c-0.078125 0.0625-0.078125 0.078125-0.078125 0.26562h2.875z" fill-opacity=".2"/>
     </g>
    </g>
    <g transform="translate(-88.342 26.101)">
     <g transform="translate(289.82 146.72)">
      <path d="m0.90073-2.5444c0-0.76562-0.10938-1.9688-0.65625-3.1094-0.59375-1.2188-1.4531-1.875-1.5469-1.875-0.0625 0-0.10938 0.046875-0.10938 0.10938 0 0.03125 0 0.046875 0.1875 0.23438 0.98437 0.98438 1.5469 2.5625 1.5469 4.6406 0 1.7187-0.35937 3.4687-1.5937 4.7188-0.14062 0.125-0.14062 0.14062-0.14062 0.17188 0 0.0625 0.046875 0.10938 0.10938 0.10938 0.09375 0 1-0.6875 1.5781-1.9531 0.51562-1.0938 0.625-2.2031 0.625-3.0469z" fill-opacity=".2"/>
     </g>
    </g>
    <g id="id-6b64fad1-dbfe-4e38-a96b-65b6367ce43e" transform="translate(-225.62 170.91)">
     <g transform="translate(293.69 146.72)">
      <path d="m3.6562-3.9844h0.85938c0.20312 0 0.29688 0 0.29688-0.20312 0-0.10938-0.09375-0.10938-0.26562-0.10938h-0.82812l0.20312-1.1406c0.046875-0.20312 0.1875-0.90625 0.25-1.0312 0.078125-0.1875 0.25-0.34375 0.46875-0.34375 0.03125 0 0.29688 0 0.48438 0.1875-0.4375 0.03125-0.54688 0.39062-0.54688 0.53125 0 0.23438 0.1875 0.35938 0.375 0.35938 0.26562 0 0.54688-0.23438 0.54688-0.60938 0-0.45312-0.45312-0.6875-0.85938-0.6875-0.34375 0-0.96875 0.1875-1.2656 1.1719-0.0625 0.20312-0.09375 0.3125-0.32812 1.5625h-0.6875c-0.20312 0-0.3125 0-0.3125 0.1875 0 0.125 0.09375 0.125 0.28125 0.125h0.65625l-0.73438 3.9375c-0.1875 0.96875-0.35938 1.875-0.875 1.875-0.046875 0-0.28125 0-0.48438-0.1875 0.46875-0.03125 0.5625-0.39062 0.5625-0.53125 0-0.23438-0.1875-0.35938-0.375-0.35938-0.26562 0-0.54688 0.23438-0.54688 0.60938 0 0.4375 0.4375 0.6875 0.84375 0.6875 0.54688 0 0.95312-0.59375 1.125-0.96875 0.32812-0.625 0.54688-1.8281 0.5625-1.9062z" fill-opacity=".2"/>
     </g>
    </g>
    <g id="id-6970f070-b189-4256-95cc-e9bac5c81d0e" transform="translate(-225.62 170.91)">
     <g transform="translate(299.64 146.72)">
      <path d="m2.1655 2.5903c0-0.03125 0-0.046875-0.17188-0.21875-1.2344-1.25-1.5625-3.1406-1.5625-4.6719 0-1.7344 0.375-3.4688 1.6094-4.7031 0.125-0.125 0.125-0.14062 0.125-0.17188 0-0.078125-0.03125-0.10938-0.09375-0.10938-0.10938 0-1 0.6875-1.5938 1.9531-0.5 1.0938-0.625 2.2031-0.625 3.0312 0 0.78125 0.10938 1.9844 0.65625 3.125 0.60938 1.2188 1.4531 1.875 1.5625 1.875 0.0625 0 0.09375-0.03125 0.09375-0.10938z" fill-opacity=".2"/>
     </g>
    </g>
    <g transform="translate(-225.62 170.91)">
     <g transform="translate(303.52 146.72)">
      <path id="id-09e16ed7-b374-40cb-b26a-fd081230a09a" d="m2.1968-2.816c0.0625-0.25 0.29688-1.1719 0.98438-1.1719 0.046875 0 0.29688 0 0.5 0.125-0.28125 0.0625-0.46875 0.29688-0.46875 0.54688 0 0.15625 0.10938 0.34375 0.375 0.34375 0.21875 0 0.53125-0.17188 0.53125-0.57812 0-0.51562-0.57812-0.65625-0.92188-0.65625-0.57812 0-0.92188 0.53125-1.0469 0.75-0.25-0.65625-0.78125-0.75-1.0781-0.75-1.0313 0-1.6094 1.2812-1.6094 1.5312 0 0.10938 0.10938 0.10938 0.125 0.10938 0.078125 0 0.10938-0.03125 0.125-0.10938 0.34375-1.0625 1-1.3125 1.3438-1.3125 0.1875 0 0.53125 0.09375 0.53125 0.67188 0 0.3125-0.17188 0.96875-0.53125 2.375-0.15625 0.60938-0.51563 1.0312-0.95313 1.0312-0.0625 0-0.28125 0-0.5-0.125 0.25-0.0625 0.46875-0.26562 0.46875-0.54688 0-0.26562-0.21875-0.34375-0.35938-0.34375-0.3125 0-0.54688 0.25-0.54688 0.57812 0 0.45312 0.48438 0.65625 0.92188 0.65625 0.67188 0 1.0313-0.70312 1.0469-0.75 0.125 0.35938 0.48438 0.75 1.0781 0.75 1.0312 0 1.5938-1.2812 1.5938-1.5312 0-0.10938-0.078125-0.10938-0.10938-0.10938-0.09375 0-0.10938 0.046875-0.14062 0.10938-0.32812 1.0781-1 1.3125-1.3125 1.3125-0.39062 0-0.54688-0.3125-0.54688-0.65625 0-0.21875 0.046875-0.4375 0.15625-0.875z" fill-opacity=".2"/>
     </g>
    </g>
    <g id="id-b56b796b-8a8b-4e99-9528-054eb8a2b63b" transform="translate(-225.62 170.91)">
     <g transform="translate(309.21 148.21)">
      <path id="id-0df9a1d8-4a97-43e0-9c44-85b17dcecb5b" d="m0.77492-2.1285c0.54688 0 0.9375 0.375 0.9375 1.125 0 0.85938-0.51562 1.125-0.90625 1.125-0.28125 0-0.90625-0.078125-1.1875-0.5 0.32812 0 0.40625-0.23438 0.40625-0.39062 0-0.21875-0.17188-0.375-0.39062-0.375-0.1875 0-0.39062 0.125-0.39062 0.40625 0 0.65625 0.71875 1.0781 1.5625 1.0781 0.96875 0 1.6406-0.65625 1.6406-1.3438 0-0.54688-0.4375-1.0938-1.2031-1.25 0.71875-0.26562 0.98438-0.78125 0.98438-1.2188 0-0.54688-0.625-0.95312-1.4063-0.95312-0.76562 0-1.3594 0.375-1.3594 0.9375 0 0.23438 0.15625 0.35938 0.35938 0.35938 0.21875 0 0.35938-0.15625 0.35938-0.34375 0-0.20312-0.14062-0.35938-0.35938-0.375 0.25-0.29688 0.71875-0.375 0.98438-0.375 0.3125 0 0.75 0.15625 0.75 0.75 0 0.29688-0.09375 0.625-0.28125 0.82812-0.21875 0.26562-0.42188 0.28125-0.76563 0.3125-0.17188 0.015625-0.1875 0.015625-0.21875 0.015625-0.015625 0-0.078125 0.015625-0.078125 0.09375 0 0.09375 0.0625 0.09375 0.1875 0.09375z" fill-opacity=".2"/>
     </g>
    </g>
    <g id="id-b6c8eab1-df0a-442d-b88b-8c9c80c7c45d" transform="translate(-225.62 170.91)">
     <g transform="translate(313.68 146.72)">
      <path d="m0.87854-2.3447c0-0.76562-0.10938-1.9688-0.65625-3.1094-0.59375-1.2188-1.4531-1.875-1.5469-1.875-0.0625 0-0.10938 0.046875-0.10938 0.10938 0 0.03125 0 0.046875 0.1875 0.23438 0.98437 0.98438 1.5469 2.5625 1.5469 4.6406 0 1.7187-0.35938 3.4688-1.5937 4.7188-0.14062 0.125-0.14062 0.14062-0.14062 0.17188 0 0.0625 0.046875 0.10938 0.10938 0.10938 0.09375 0 1-0.6875 1.5781-1.9531 0.51562-1.0938 0.625-2.2031 0.625-3.0469z" fill-opacity=".2"/>
     </g>
    </g>
    <g id="id-6ccbec0c-f25f-4f70-a513-45274c4d1dca" transform="translate(-217.09 103.4)">
     <g transform="translate(317.56 146.72)">
      <path d="m3.6562-3.9844h0.85938c0.20312 0 0.29688 0 0.29688-0.20312 0-0.10938-0.09375-0.10938-0.26562-0.10938h-0.82812l0.20312-1.1406c0.046875-0.20312 0.1875-0.90625 0.25-1.0312 0.078125-0.1875 0.25-0.34375 0.46875-0.34375 0.03125 0 0.29688 0 0.48438 0.1875-0.4375 0.03125-0.54688 0.39062-0.54688 0.53125 0 0.23438 0.1875 0.35938 0.375 0.35938 0.26562 0 0.54688-0.23438 0.54688-0.60938 0-0.45312-0.45312-0.6875-0.85938-0.6875-0.34375 0-0.96875 0.1875-1.2656 1.1719-0.0625 0.20312-0.09375 0.3125-0.32812 1.5625h-0.6875c-0.20312 0-0.3125 0-0.3125 0.1875 0 0.125 0.09375 0.125 0.28125 0.125h0.65625l-0.73438 3.9375c-0.1875 0.96875-0.35938 1.875-0.875 1.875-0.046875 0-0.28125 0-0.48438-0.1875 0.46875-0.03125 0.5625-0.39062 0.5625-0.53125 0-0.23438-0.1875-0.35938-0.375-0.35938-0.26562 0-0.54688 0.23438-0.54688 0.60938 0 0.4375 0.4375 0.6875 0.84375 0.6875 0.54688 0 0.95312-0.59375 1.125-0.96875 0.32812-0.625 0.54688-1.8281 0.5625-1.9062z" fill-opacity=".79924"/>
     </g>
    </g>
    <g transform="translate(-217.09 103.4)">
     <g transform="translate(323.5 146.72)">
      <path id="id-801500e0-eed8-4bda-94ae-bb65f8b30a3c" d="m2.1212 2.435c0-0.03125 0-0.046875-0.17188-0.21875-1.2344-1.25-1.5625-3.1406-1.5625-4.6719 0-1.7344 0.375-3.4688 1.6094-4.7031 0.125-0.125 0.125-0.14062 0.125-0.17188 0-0.078125-0.03125-0.10938-0.09375-0.10938-0.10938 0-1 0.6875-1.5938 1.9531-0.5 1.0938-0.625 2.2031-0.625 3.0312 0 0.78125 0.10938 1.9844 0.65625 3.125 0.60938 1.2187 1.4531 1.875 1.5625 1.875 0.0625 0 0.09375-0.03125 0.09375-0.10938z" fill-opacity=".79924"/>
     </g>
    </g>
    <g id="id-a2b9f3f9-a84d-4464-999e-454aa8e0199c" transform="translate(-217.09 103.4)">
     <g transform="translate(327.38 146.72)">
      <path id="id-edb077e8-e105-4e47-8f27-d06675ccdeab" d="m2.1524-2.9713c0.0625-0.25 0.29688-1.1719 0.98438-1.1719 0.046875 0 0.29688 0 0.5 0.125-0.28125 0.0625-0.46875 0.29688-0.46875 0.54688 0 0.15625 0.10938 0.34375 0.375 0.34375 0.21875 0 0.53125-0.17188 0.53125-0.57812 0-0.51562-0.57812-0.65625-0.92188-0.65625-0.57812 0-0.92188 0.53125-1.0469 0.75-0.25-0.65625-0.78125-0.75-1.0781-0.75-1.0313 0-1.6094 1.2812-1.6094 1.5312 0 0.10938 0.10938 0.10938 0.125 0.10938 0.078125 0 0.10938-0.03125 0.125-0.10938 0.34375-1.0625 1-1.3125 1.3438-1.3125 0.1875 0 0.53125 0.09375 0.53125 0.67188 0 0.3125-0.17188 0.96875-0.53125 2.375-0.15625 0.60938-0.51563 1.0313-0.95313 1.0313-0.0625 0-0.28125 0-0.5-0.125 0.25-0.0625 0.46875-0.26562 0.46875-0.54688 0-0.26563-0.21875-0.34375-0.35938-0.34375-0.3125 0-0.54688 0.25-0.54688 0.57813 0 0.45312 0.48438 0.65625 0.92188 0.65625 0.67188 0 1.0313-0.70312 1.0469-0.75 0.125 0.35938 0.48438 0.75 1.0781 0.75 1.0312 0 1.5938-1.2813 1.5938-1.5313 0-0.10938-0.078125-0.10938-0.10938-0.10938-0.09375 0-0.10938 0.046875-0.14062 0.10938-0.32812 1.0781-1 1.3125-1.3125 1.3125-0.39062 0-0.54688-0.3125-0.54688-0.65625 0-0.21875 0.046875-0.4375 0.15625-0.875z" fill-opacity=".79924"/>
     </g>
    </g>
    <g transform="translate(-217.09 103.4)">
     <g transform="translate(333.07 148.21)">
      <path d="m2.5118-1.0963v-0.25h-0.78125v-3.1094c0-0.14062 0-0.20312-0.14062-0.20312-0.09375 0-0.125 0-0.1875 0.10938l-2.3125 3.2031v0.25h2.0625v0.5625c0 0.25 0 0.32812-0.57813 0.32812h-0.1875v0.25c0.35938-0.015625 0.79688-0.03125 1.0469-0.03125 0.26562 0 0.70312 0.015625 1.0625 0.03125v-0.25h-0.1875c-0.57812 0-0.57812-0.078125-0.57812-0.32812v-0.5625zm-1.3125-2.7969v2.5469h-1.8438z" fill-opacity=".79924"/>
     </g>
    </g>
    <g id="id-9b63de74-cd2b-4834-9900-51140f83a28a" transform="translate(-217.09 103.4)">
     <g transform="translate(337.54 146.72)">
      <path d="m0.82091-2.4713c0-0.76562-0.10938-1.9688-0.65625-3.1094-0.59375-1.2188-1.4531-1.875-1.5469-1.875-0.0625 0-0.10938 0.046875-0.10938 0.10938 0 0.03125 0 0.046875 0.1875 0.23438 0.98437 0.98438 1.5469 2.5625 1.5469 4.6406 0 1.7187-0.35938 3.4687-1.5937 4.7188-0.14062 0.125-0.14062 0.14062-0.14062 0.17188 0 0.0625 0.046875 0.10938 0.10938 0.10938 0.09375 0 1-0.6875 1.5781-1.9531 0.51562-1.0938 0.625-2.2031 0.625-3.0469z" fill-opacity=".79924"/>
     </g>
    </g>
   </g>
  </g>
 </g>
 <g fill-opacity=".2" fill-rule="evenodd">
  <circle cx="70.426" cy="24.604" r=".33723"/>
  <circle cx="54.565" cy="36.368" r=".33723"/>
  <circle cx="12.618" cy="80.629" r=".33723"/>
 </g>
 <g fill-opacity=".79924">
  <circle cx="23.633" cy="57.249" r=".33723" fill-rule="evenodd"/>
  <path d="m59.329 85.383c0.11669 0.03044 0.18265 0.03044 0.21816 0.03044 0.29934 0 0.4769-0.20294 0.4769-0.23845 0-0.02537-0.01522-0.03044-0.02537-0.03044-0.0051 0-0.01014 0-0.0203 0.0051-0.0558 0.0203-0.17249 0.06596-0.33992 0.06596-0.06596 0-0.18265-0.0051-0.32977-0.06088-0.02537-0.01014-0.03044-0.01014-0.03044-0.01014-0.03044 0-0.03044 0.02537-0.03044 0.06088v0.66462c0 0.04059 0 0.06596 0.03551 0.06596 0.02029 0 0.02537 0 0.04566-0.03044 0.0964-0.12176 0.23845-0.14206 0.31455-0.14206 0.13698 0 0.19786 0.10655 0.20801 0.12683 0.04059 0.0761 0.0558 0.16235 0.0558 0.29426 0 0.06596 0 0.19786-0.07103 0.29934-0.0558 0.08117-0.1522 0.13698-0.26382 0.13698-0.14713 0-0.29934-0.08117-0.35514-0.23338 0.08625 0.0051 0.13191-0.05073 0.13191-0.11162 0-0.09639-0.08625-0.11162-0.11669-0.11162 0 0-0.11162 0-0.11162 0.12176 0 0.20294 0.18772 0.40587 0.45661 0.40587 0.28918 0 0.54286-0.21308 0.54286-0.50227 0-0.25368-0.19279-0.48705-0.47183-0.48705-0.10147 0-0.21816 0.02029-0.31963 0.10655z" fill-opacity="1" stroke-width=".92041"/>
 </g>
</svg>
