<?xml version="1.0" encoding="UTF-8"?>
<svg width="130mm" height="100mm" version="1.1" viewBox="0 0 172.34 116.61" xmlns="http://www.w3.org/2000/svg" xmlns:cc="http://creativecommons.org/ns#" xmlns:dc="http://purl.org/dc/elements/1.1/" xmlns:ns1="http://www.iki.fi/pav/software/textext/" xmlns:rdf="http://www.w3.org/1999/02/22-rdf-syntax-ns#">
 <defs>
  <marker id="marker1119" overflow="visible" orient="auto">
   <path transform="matrix(-.4 0 0 -.4 -4 0)" d="m0 0 5-5-17.5 5 17.5 5z" fill-opacity=".27652" fill-rule="evenodd" stroke="#000" stroke-opacity=".29924" stroke-width="1pt"/>
  </marker>
  <marker id="marker1109" overflow="visible" orient="auto">
   <path transform="matrix(-.4 0 0 -.4 -4 0)" d="m0 0 5-5-17.5 5 17.5 5z" fill-opacity=".27652" fill-rule="evenodd" stroke="#000" stroke-opacity=".29924" stroke-width="1pt"/>
  </marker>
 </defs>
 <metadata>
  <rdf:RDF>
   <cc:Work rdf:about="">
    <dc:format>image/svg+xml</dc:format>
    <dc:type rdf:resource="http://purl.org/dc/dcmitype/StillImage"/>
    <dc:title/>
   </cc:Work>
  </rdf:RDF>
 </metadata>
 <g transform="translate(-25.925 -7.482)">
  <path d="m30.736 124.09v-115.1" fill-opacity=".27652" marker-end="url(#marker1119)" stroke="#000" stroke-opacity=".29924" stroke-width=".76729"/>
  <path d="m25.925 116.8h134.17" fill-opacity=".27652" marker-end="url(#marker1109)" stroke="#000" stroke-opacity=".29924" stroke-width=".76729"/>
  <g fill="#f00" fill-opacity=".45076" stroke="#000" stroke-opacity=".21591" stroke-width=".74083">
   <path d="m40.416 102.49 103.26-32.006"/>
   <path d="m37.709 76.719 106.2 18.619"/>
   <path d="m37.523 89.254 107.51-5.4753"/>
   <path d="m37.191 81.907 107.28 9.2033"/>
   <path d="m38.56 95.705 105.83-18.209"/>
  </g>
  <path d="m43.511 108.83 97.335-45.127" fill="none" stroke="#e70000" stroke-opacity=".61742" stroke-width=".74083"/>
  <path d="m139.84 106.18-101.35-41.479" fill="none" stroke="#e70000" stroke-opacity=".61742" stroke-width=".74083"/>
  <g fill="#f00" fill-opacity=".45076" stroke="#000" stroke-opacity=".21591" stroke-width=".74083">
   <path d="m38.904 69.184 102.47 33.551"/>
   <path d="m37.187 85.306 108.02 2.6184"/>
   <path d="m38.462 72.684 104.12 26.631"/>
   <path d="m39.421 98.798 104.62-24.794"/>
   <path d="m42.012 105.38 100.19-38.014"/>
   <path d="m37.996 92.641 106.82-11.579"/>
  </g>
  <g transform="matrix(1.6316 0 0 4.2499 144.59 63.585)" fill-opacity=".19318" ns1:alignment="middle center" ns1:jacobian_sqrt="0.849361" ns1:pdfconverter="inkscape" ns1:preamble="C:\\Users\\User\\AppData\\Roaming\\inkscape\\extensions\\textext\\default_packages.tex" ns1:scale="2.4076355951901767" ns1:texconverter="pdflatex" ns1:text="$$\\}$$" ns1:version="1.1.0">
   <defs></defs>
   <g transform="translate(-303.85 -139.24)" fill-opacity=".19318">
    <g id="id-1ac6ab0c-6f18-414d-af42-78dbe1452b2b" fill-opacity=".19318">
     <g transform="translate(303.13 146.72)" fill-opacity=".19318">
      <path d="m2.1562 1.1719c0 0.39062-0.26562 1.0312-1.3438 1.0938-0.0625 0.015625-0.09375 0.0625-0.09375 0.10938 0 0.125 0.10938 0.125 0.20312 0.125 0.96875 0 1.8906-0.5 1.9062-1.25v-2.2812c0-0.39062 0-0.70312 0.39062-1.0312 0.34375-0.29688 0.73438-0.3125 0.95312-0.3125 0.046875-0.015625 0.078125-0.0625 0.078125-0.125 0-0.09375-0.046875-0.09375-0.15625-0.10938-0.65625-0.03125-1.1406-0.39062-1.25-0.875-0.015625-0.10938-0.015625-0.14062-0.015625-0.5v-1.9688c0-0.42188 0-0.73438-0.48438-1.1094-0.40625-0.3125-1.0938-0.42188-1.4219-0.42188-0.09375 0-0.20312 0-0.20312 0.125 0 0.09375 0.0625 0.09375 0.15625 0.10938 0.625 0.03125 1.125 0.35938 1.25 0.85938 0.03125 0.09375 0.03125 0.10938 0.03125 0.46875v2.0938c0 0.45312 0.078125 0.625 0.39062 0.95312 0.21875 0.20312 0.5 0.29688 0.78125 0.375-0.8125 0.23438-1.1719 0.70312-1.1719 1.2812z" fill-opacity=".19318"/>
     </g>
    </g>
   </g>
  </g>
  <text x="152.05679" y="84.769852" fill="#000000" fill-opacity=".8447" font-family="'Times New Roman'" font-size="6.4528px" stroke-width=".16132" style="line-height:1.25" xml:space="preserve"><tspan x="152.05679" y="84.769852">support lines</tspan><tspan x="152.05679" y="92.854279">(subderivatives)</tspan></text>
  <path d="m46.096 34.724c6.9018 21.653 18.882 42.103 45.437 51.708 24.2-12.457 49.425-19.867 52.313-66.844" fill="none" stroke="#0078ff" stroke-opacity=".75758" stroke-width=".756"/>
  <circle cx="91.582" cy="86.467" r="1.1103" fill="#f00" fill-opacity=".76515"/>
 </g>
</svg>
