<?xml version="1.0" encoding="UTF-8" standalone="no"?>
<svg
   xmlns:ns0="http://www.iki.fi/pav/software/textext/"
   xmlns:dc="http://purl.org/dc/elements/1.1/"
   xmlns:cc="http://creativecommons.org/ns#"
   xmlns:rdf="http://www.w3.org/1999/02/22-rdf-syntax-ns#"
   xmlns:svg="http://www.w3.org/2000/svg"
   xmlns="http://www.w3.org/2000/svg"
   xmlns:sodipodi="http://sodipodi.sourceforge.net/DTD/sodipodi-0.dtd"
   xmlns:inkscape="http://www.inkscape.org/namespaces/inkscape"
   width="180mm"
   height="120mm"
   version="1.1"
   viewBox="0 0 124.48 92.365"
   id="svg197"
   sodipodi:docname="drawing-20.svg"
   inkscape:version="0.92.2 (5c3e80d, 2017-08-06)">
  <metadata
     id="metadata201">
    <rdf:RDF>
      <cc:Work
         rdf:about="">
        <dc:format>image/svg+xml</dc:format>
        <dc:type
           rdf:resource="http://purl.org/dc/dcmitype/StillImage" />
        <dc:title></dc:title>
      </cc:Work>
    </rdf:RDF>
  </metadata>
  <sodipodi:namedview
     pagecolor="#ffffff"
     bordercolor="#666666"
     borderopacity="1"
     objecttolerance="10"
     gridtolerance="10"
     guidetolerance="10"
     inkscape:pageopacity="0"
     inkscape:pageshadow="2"
     inkscape:window-width="1920"
     inkscape:window-height="1017"
     id="namedview199"
     showgrid="false"
     inkscape:zoom="0.84372685"
     inkscape:cx="-254.10628"
     inkscape:cy="455.26334"
     inkscape:window-x="-8"
     inkscape:window-y="-8"
     inkscape:window-maximized="1"
     inkscape:current-layer="g195" />
  <defs
     id="defs14">
    <marker
       inkscape:stockid="Arrow1Mend"
       orient="auto"
       refY="0.0"
       refX="0.0"
       id="marker1347"
       style="overflow:visible;"
       inkscape:isstock="true">
      <path
         id="path1345"
         d="M 0.0,0.0 L 5.0,-5.0 L -12.5,0.0 L 5.0,5.0 L 0.0,0.0 z "
         style="fill-rule:evenodd;stroke:#000000;stroke-width:1pt;stroke-opacity:0.50980392;fill:#000000;fill-opacity:0.50980392"
         transform="scale(0.4) rotate(180) translate(10,0)" />
    </marker>
    <marker
       inkscape:stockid="Arrow1Mend"
       orient="auto"
       refY="0.0"
       refX="0.0"
       id="marker1298"
       style="overflow:visible;"
       inkscape:isstock="true">
      <path
         id="path1044"
         d="M 0.0,0.0 L 5.0,-5.0 L -12.5,0.0 L 5.0,5.0 L 0.0,0.0 z "
         style="fill-rule:evenodd;stroke:#000000;stroke-width:1pt;stroke-opacity:0.50980392;fill:#000000;fill-opacity:0.50980392"
         transform="scale(0.4) rotate(180) translate(10,0)" />
    </marker>
    <marker
       id="b"
       overflow="visible"
       orient="auto">
      <path
         transform="matrix(-.4 0 0 -.4 -4 0)"
         d="m0 0 5-5-17.5 5 17.5 5z"
         fill-opacity=".70588"
         fill-rule="evenodd"
         stroke="#000"
         stroke-opacity=".70588"
         stroke-width="1pt"
         id="path2" />
    </marker>
    <marker
       id="Arrow1Mend"
       overflow="visible"
       orient="auto">
      <path
         transform="matrix(-.4 0 0 -.4 -4 0)"
         d="m0 0 5-5-17.5 5 17.5 5z"
         fill-rule="evenodd"
         stroke="#000"
         stroke-width="1pt"
         id="path5" />
    </marker>
    <marker
       id="a"
       overflow="visible"
       orient="auto">
      <path
         transform="matrix(-.4 0 0 -.4 -4 0)"
         d="m0 0 5-5-17.5 5 17.5 5z"
         fill-opacity=".70588"
         fill-rule="evenodd"
         stroke="#000"
         stroke-opacity=".70588"
         stroke-width="1pt"
         id="path8" />
    </marker>
    <marker
       id="c"
       overflow="visible"
       orient="auto">
      <path
         transform="matrix(-.4 0 0 -.4 -4 0)"
         d="m0 0 5-5-17.5 5 17.5 5z"
         fill-rule="evenodd"
         stroke="#000"
         stroke-width="1pt"
         id="path11" />
    </marker>
  </defs>
  <g
     transform="translate(-6.1465 -25.316)"
     id="g195">
    <rect
       x="42.597"
       y="31.219"
       width="19.676"
       height="77.642"
       fill="#00f"
       fill-opacity=".091787"
       id="rect16"
       style="fill:#0077ff;fill-opacity:0.091787" />
    <text
       x="167.42221"
       y="111.89294"
       fill="#000000"
       font-family="Verdana"
       font-size="3.5278px"
       letter-spacing="0px"
       stroke-width=".26458"
       word-spacing="0px"
       style="line-height:1.25"
       xml:space="preserve"
       id="text22"><tspan
         x="167.42221"
         y="121.54843"
         style="font-feature-settings:normal;font-variant-caps:normal;font-variant-ligatures:normal;font-variant-numeric:normal"
         id="tspan18" /><tspan
         x="167.42221"
         y="134.7776"
         style="font-feature-settings:normal;font-variant-caps:normal;font-variant-ligatures:normal;font-variant-numeric:normal"
         id="tspan20" /></text>
    <g
       fill="none"
       stroke="#000"
       id="g30">
      <path
         d="m16.036 117.68v-90.369"
         marker-end="url(#Arrow1Mend)"
         stroke-width=".3"
         id="path24"
         style="fill:#000000;fill-opacity:0.50980395;stroke:#000000;stroke-opacity:0.50980395;stroke-width:0.461825;stroke-miterlimit:4;stroke-dasharray:none;marker-end:url(#marker1347)" />
      <path
         d="m107.61 58.44c-8.9863-1.1642-21.44-5.6836-28.673-5.736-7.0289 0.0139-13.247 24.657-21.065 22.724-2.4103-0.82092-10.56-11.97-11.679-13.13-1.7914-1.8573-8.367-13.396-14.931-15.218-3.3815-0.77933-7.8267-10.789-13.346-12.68"
         stroke-width=".865"
         id="path26"
         style="fill:none;fill-opacity:0.091787;stroke:#000000;stroke-opacity:0.74396133;stroke-width:0.70198844;stroke-miterlimit:4;stroke-dasharray:none" />
      <path
         d="m6.1479 109.16h100.87"
         marker-end="url(#c)"
         stroke-width=".31739"
         id="path28"
         style="fill:#000000;fill-opacity:0.50980395;stroke-width:0.461825;stroke-miterlimit:4;stroke-dasharray:none;stroke:#000000;stroke-opacity:0.50980395;marker-end:url(#marker1298)" />
    </g>
    <rect
       x="42.598"
       y="108.86"
       width="19.647"
       height=".8212"
       fill="#0000fb"
       fill-opacity=".26087"
       stroke="#00f"
       stroke-linecap="square"
       stroke-linejoin="bevel"
       stroke-opacity=".38164"
       stroke-width=".31242"
       id="rect32"
       style="stroke:#005cff;stroke-opacity:0.38164002;fill:#0073fb;fill-opacity:0.26087001" />
    <g
       id="content"
       transform="matrix(.53382 0 0 -.53382 -28.899 490.41)"
       fill-rule="evenodd"
       stroke="#000"
       stroke-miterlimit="10.433"
       stroke-width="0"
       ns0:preamble="default_packages.tex"
       ns0:text="$\\boldsymbol{x}_n$\n"
       xml:space="preserve"><path
         d="m154.06 711.11-0.04-0.01-0.03-0.01-0.03-0.02-0.06-0.02-0.03-0.02-0.02-0.02-0.03-0.02-0.02-0.01-0.03-0.02-0.02-0.03-0.08-0.08-0.02-0.03-0.01-0.02-0.02-0.03-0.01-0.02-0.02-0.03-0.01-0.02-0.01-0.03-0.01-0.02-0.01-0.03-0.01-0.02v-0.03l-0.01-0.03v-0.02l-0.01-0.03v-0.07c0-0.22 0.17-0.45 0.5-0.45 0.35 0 0.72 0.28 0.72 0.77 0 0.53-0.53 0.87-1.14 0.87-0.57 0-0.94-0.42-1.07-0.6-0.25 0.42-0.81 0.6-1.38 0.6-1.25 0-1.93-1.22-1.93-1.54 0-0.14 0.15-0.14 0.24-0.14 0.12 0 0.19 0 0.23 0.12 0.29 0.91 1.01 1.21 1.41 1.21 0.38 0 0.56-0.18 0.56-0.5 0-0.19-0.14-0.73-0.23-1.09l-0.33-1.36c-0.15-0.61-0.51-0.91-0.85-0.91-0.05 0-0.28 0-0.48 0.15 0.36 0.1 0.54 0.44 0.54 0.69 0 0.22-0.17 0.45-0.5 0.45-0.35 0-0.72-0.28-0.72-0.77 0-0.53 0.53-0.87 1.14-0.87 0.57 0 0.93 0.42 1.06 0.6 0.25-0.42 0.81-0.6 1.38-0.6 1.26 0 1.93 1.22 1.93 1.54 0 0.14-0.14 0.14-0.23 0.14-0.12 0-0.19 0-0.23-0.13-0.29-0.9-1.01-1.2-1.42-1.2-0.38 0-0.56 0.18-0.56 0.5 0 0.21 0.13 0.74 0.22 1.1 0.07 0.26 0.3 1.2 0.35 1.35 0.15 0.6 0.5 0.91 0.85 0.91 0.05 0 0.28 0 0.48-0.15z"
         id="path34"
         style="fill:#000000;fill-opacity:0.78431374" /><path
         d="m156.13 706.07v-0.02l-0.01-0.01v-0.02l-0.01-0.01v-0.02l-0.01-0.02v-0.03l-0.01-0.02v-0.02l-0.01-0.01v-0.03l-0.01-0.01v-0.04l-0.01-0.01v-0.02c0-0.15 0.13-0.22 0.24-0.22 0.13 0 0.24 0.09 0.27 0.15 0.04 0.07 0.09 0.29 0.13 0.44 0.03 0.13 0.11 0.45 0.15 0.62 0.04 0.15 0.08 0.31 0.12 0.47 0.08 0.28 0.09 0.34 0.29 0.62s0.53 0.64 1.05 0.64c0.41 0 0.42-0.35 0.42-0.48 0-0.42-0.31-1.19-0.42-1.49-0.07-0.19-0.1-0.25-0.1-0.37 0-0.37 0.3-0.6 0.66-0.6 0.7 0 1.01 0.96 1.01 1.07 0 0.09-0.09 0.09-0.11 0.09-0.1 0-0.11-0.05-0.14-0.12-0.16-0.56-0.46-0.84-0.74-0.84-0.14 0-0.17 0.09-0.17 0.24 0 0.16 0.03 0.25 0.16 0.56 0.08 0.22 0.37 0.96 0.37 1.35 0 0.67-0.54 0.79-0.91 0.79-0.58 0-0.97-0.36-1.18-0.63-0.05 0.47-0.46 0.63-0.75 0.63-0.3 0-0.46-0.22-0.55-0.38-0.15-0.25-0.25-0.65-0.25-0.69 0-0.09 0.1-0.09 0.12-0.09 0.09 0 0.1 0.02 0.15 0.21 0.1 0.41 0.24 0.75 0.51 0.75 0.18 0 0.23-0.15 0.23-0.34 0-0.13-0.06-0.39-0.11-0.57-0.05-0.19-0.12-0.48-0.16-0.63z"
         id="path36"
         style="fill:#000000;fill-opacity:0.78431374" /></g>    <ellipse
       cx="51.792"
       cy="109.02"
       rx=".78009"
       ry=".8025"
       id="ellipse39"
       style="fill:#000000;fill-opacity:0.78431374" />
    <g
       fill-rule="evenodd"
       stroke="#000"
       stroke-miterlimit="10.433"
       id="g79">
      <g
         transform="matrix(.53365 0 0 -.53365 -19.097 490.38)"
         stroke-width="0"
         ns0:preamble="default_packages.tex"
         ns0:text="$\\boldsymbol{x}_{n+1}$\n"
         xml:space="preserve"
         id="g51"><path
           d="m154.06 711.11-0.04-0.01-0.03-0.01-0.03-0.02-0.06-0.02-0.03-0.02-0.02-0.02-0.03-0.02-0.02-0.01-0.03-0.02-0.02-0.03-0.08-0.08-0.02-0.03-0.01-0.02-0.02-0.03-0.01-0.02-0.02-0.03-0.01-0.02-0.01-0.03-0.01-0.02-0.01-0.03-0.01-0.02v-0.03l-0.01-0.03v-0.02l-0.01-0.03v-0.07c0-0.22 0.17-0.45 0.5-0.45 0.35 0 0.72 0.28 0.72 0.77 0 0.53-0.53 0.87-1.14 0.87-0.57 0-0.94-0.42-1.07-0.6-0.25 0.42-0.81 0.6-1.38 0.6-1.25 0-1.93-1.22-1.93-1.54 0-0.14 0.15-0.14 0.24-0.14 0.12 0 0.19 0 0.23 0.12 0.29 0.91 1.01 1.21 1.41 1.21 0.38 0 0.56-0.18 0.56-0.5 0-0.19-0.14-0.73-0.23-1.09l-0.33-1.36c-0.15-0.61-0.51-0.91-0.85-0.91-0.05 0-0.28 0-0.48 0.15 0.36 0.1 0.54 0.44 0.54 0.69 0 0.22-0.17 0.45-0.5 0.45-0.35 0-0.72-0.28-0.72-0.77 0-0.53 0.53-0.87 1.14-0.87 0.57 0 0.93 0.42 1.06 0.6 0.25-0.42 0.81-0.6 1.38-0.6 1.26 0 1.93 1.22 1.93 1.54 0 0.14-0.14 0.14-0.23 0.14-0.12 0-0.19 0-0.23-0.13-0.29-0.9-1.01-1.2-1.42-1.2-0.38 0-0.56 0.18-0.56 0.5 0 0.21 0.13 0.74 0.22 1.1 0.07 0.26 0.3 1.2 0.35 1.35 0.15 0.6 0.5 0.91 0.85 0.91 0.05 0 0.28 0 0.48-0.15z"
           id="path41"
           style="fill:#000000;fill-opacity:0.78431374" /><path
           d="m156.13 706.07v-0.02l-0.01-0.01v-0.02l-0.01-0.01v-0.02l-0.01-0.02v-0.03l-0.01-0.02v-0.02l-0.01-0.01v-0.03l-0.01-0.01v-0.04l-0.01-0.01v-0.02c0-0.15 0.13-0.22 0.24-0.22 0.13 0 0.24 0.09 0.27 0.15 0.04 0.07 0.09 0.29 0.13 0.44 0.03 0.13 0.11 0.45 0.15 0.62 0.04 0.15 0.08 0.31 0.12 0.47 0.08 0.28 0.09 0.34 0.29 0.62s0.53 0.64 1.05 0.64c0.41 0 0.42-0.35 0.42-0.48 0-0.42-0.31-1.19-0.42-1.49-0.07-0.19-0.1-0.25-0.1-0.37 0-0.37 0.3-0.6 0.66-0.6 0.7 0 1.01 0.96 1.01 1.07 0 0.09-0.09 0.09-0.11 0.09-0.1 0-0.11-0.05-0.14-0.12-0.16-0.56-0.46-0.84-0.74-0.84-0.14 0-0.17 0.09-0.17 0.24 0 0.16 0.03 0.25 0.16 0.56 0.08 0.22 0.37 0.96 0.37 1.35 0 0.67-0.54 0.79-0.91 0.79-0.58 0-0.97-0.36-1.18-0.63-0.05 0.47-0.46 0.63-0.75 0.63-0.3 0-0.46-0.22-0.55-0.38-0.15-0.25-0.25-0.65-0.25-0.69 0-0.09 0.1-0.09 0.12-0.09 0.09 0 0.1 0.02 0.15 0.21 0.1 0.41 0.24 0.75 0.51 0.75 0.18 0 0.23-0.15 0.23-0.34 0-0.13-0.06-0.39-0.11-0.57-0.05-0.19-0.12-0.48-0.16-0.63z"
           id="path43"
           style="fill:#000000;fill-opacity:0.78431374" /><path
           d="m163.44 707.2h2.14c0.09 0 0.26 0 0.26 0.17s-0.16 0.17-0.26 0.17h-2.14v2.14c0 0.09 0 0.25-0.17 0.25s-0.17-0.15-0.17-0.25v-2.14h-2.15c-0.09 0-0.26 0-0.26-0.16 0-0.18 0.16-0.18 0.26-0.18h2.15v-2.13c0-0.09 0-0.26 0.16-0.26 0.18 0 0.18 0.16 0.18 0.26z"
           id="path45"
           style="fill:#000000;fill-opacity:0.78431374" /><path
           d="m168.66 710.05v0.11l-0.01 0.01v0.03h-0.01v0.01l-0.02 0.02h-0.01l-0.01 0.01h-0.04v0.01h-0.11c-0.45-0.44-1.08-0.45-1.37-0.45v-0.25c0.17 0 0.63 0 1.02 0.2v-3.55c0-0.23 0-0.32-0.7-0.32h-0.27v-0.25c0.13 0.01 0.99 0.03 1.25 0.03 0.21 0 1.09-0.02 1.25-0.03v0.25h-0.27c-0.7 0-0.7 0.09-0.7 0.32z"
           id="path47"
           style="fill:#000000;fill-opacity:0.78431374" /><path
           d="m236.63 711.07-0.04-0.01-0.03-0.01-0.03-0.02-0.06-0.02-0.03-0.02-0.02-0.02-0.03-0.02-0.02-0.01-0.03-0.02-0.02-0.03-0.08-0.08-0.02-0.03-0.01-0.02-0.02-0.03-0.01-0.02-0.02-0.03-0.01-0.02-0.01-0.03-0.01-0.02-0.01-0.03-0.01-0.02v-0.03l-0.01-0.03v-0.02l-0.01-0.03v-0.07c0-0.22 0.17-0.45 0.5-0.45 0.35 0 0.72 0.28 0.72 0.77 0 0.53-0.53 0.87-1.14 0.87-0.57 0-0.94-0.42-1.07-0.6-0.25 0.42-0.81 0.6-1.38 0.6-1.25 0-1.93-1.22-1.93-1.54 0-0.14 0.15-0.14 0.24-0.14 0.12 0 0.19 0 0.23 0.12 0.29 0.91 1.01 1.21 1.41 1.21 0.38 0 0.56-0.18 0.56-0.5 0-0.19-0.14-0.73-0.23-1.09l-0.33-1.36c-0.15-0.61-0.51-0.91-0.85-0.91-0.05 0-0.28 0-0.48 0.15 0.36 0.1 0.54 0.44 0.54 0.69 0 0.22-0.17 0.45-0.5 0.45-0.35 0-0.72-0.28-0.72-0.77 0-0.53 0.53-0.87 1.14-0.87 0.57 0 0.93 0.42 1.06 0.6 0.25-0.42 0.81-0.6 1.38-0.6 1.26 0 1.93 1.22 1.93 1.54 0 0.14-0.14 0.14-0.23 0.14-0.12 0-0.19 0-0.23-0.13-0.29-0.9-1.01-1.2-1.42-1.2-0.38 0-0.56 0.18-0.56 0.5 0 0.21 0.13 0.74 0.22 1.1 0.07 0.26 0.3 1.2 0.35 1.35 0.15 0.6 0.5 0.91 0.85 0.91 0.05 0 0.28 0 0.48-0.15z"
           stroke-miterlimit="10.433"
           stroke-width="0"
           id="path49"
           style="fill:#000000;fill-opacity:0.78431374" /></g>      <g
         transform="matrix(.33954 -.16278 -.16278 -.33954 171.34 366.98)"
         fill="#f00"
         stroke-width="0"
         ns0:preamble="default_packages.tex"
         ns0:text="$\\text{local model}$\n"
         xml:space="preserve"
         id="g73"><path
           d="m136.47 798.48-1.2414-0.73806 0.13767-0.27776c0.62718 0.31087 0.72995 0.28369 0.94313-0.14639l2.296-4.6322c0.19984-0.4032 0.10124-0.45205-0.49903-0.74958l0.13323-0.26881c0.29124 0.15551 0.75722 0.40881 0.98122 0.51984 0.22399 0.11106 0.6719 0.31071 1.0078 0.46608l-0.13323 0.26879c-0.6003-0.29755-0.69886-0.34641-0.89871 0.0568z"
           id="path53" /><path
           d="m143.69 796.74-0.0622 0.10309-0.0623 0.10307-0.0578 0.0942-0.0712 0.0986-0.0668 0.0897-0.0757 0.0853-0.0847 0.0808-0.1606 0.1438-0.0892 0.0674-0.0982 0.063-0.0848 0.0584-0.0982 0.063-0.0982 0.0406-0.10274 0.0496-0.0983 0.0405-0.1072 0.0361-0.20553 0.0544-0.10728 0.0138-0.11173 0.0228-0.10283 5e-3 -0.11177-4.4e-4 -0.10283 5e-3 -0.10736-9e-3 -0.11629-0.0134-0.10294-0.0174-0.11188-0.0221-0.0985-0.0266-0.10301-0.0398-0.103-0.0398-0.11196-0.0444 0.0887-0.20154c0.39422 0.19539 0.8772 0.18925 1.3011-0.0805 0.42391-0.26981 0.67706-0.78051 0.84581-1.121 0.15989-0.32256 0.39525-0.79743 0.39355-1.2894 3e-3 -0.50089-0.26271-0.95612-0.71071-1.1782-0.38527-0.19097-0.87275-0.19822-1.31 0.0985-0.4194 0.28321-0.68585 0.82079-0.84573 1.1434-0.1732 0.34942-0.40858 0.8243-0.38894 1.3251 0.0377 0.53206 0.35651 0.9245 0.7149 1.1022l-0.0887 0.20154c-1.111-0.55068-1.496-1.9581-0.94535-3.0691 0.56845-1.1468 1.9222-1.5362 2.9615-1.021 1.0841 0.53736 1.5583 1.855 0.99871 2.9839z"
           id="path55" /><path
           d="m145.22 797.54-0.0355 0.0717-0.0622 0.1254-0.0221 0.0671-0.0311 0.0627-0.0221 0.0671-0.0266 0.0538-0.0708 0.2328-9e-3 0.0625-0.031 0.10743-0.0173 0.10293-9e-3 0.10736-0.0126 0.094-4e-3 0.0984 8.5e-4 0.0894 0.0137 0.0849 5e-3 0.0805 0.0137 0.0849 0.0181 0.076 0.0225 0.067 0.0315 0.0715 0.0225 0.067 0.027 0.0581 0.036 0.0625 0.0404 0.0535 0.0315 0.0491 0.0404 0.0535 0.0448 0.0446 0.0359 0.0402 0.0493 0.0355 0.0359 0.0401 0.0493 0.0356 0.0447 0.0222 0.0403 0.0311 0.0447 0.0222c0.0806 0.0399 0.64954 0.3108 1.123 0.14371-0.35403-0.20898-0.27455-0.50441-0.21682-0.62089 0.11549-0.23295 0.36112-0.32325 0.61199-0.1989 0.23296 0.11549 0.34109 0.34765 0.20787 0.61644-0.302 0.60926-1.1561 0.62117-1.846 0.27921-1.111-0.55068-1.4557-1.9269-0.90944-3.029 0.56401-1.1379 1.8863-1.5763 2.9166-1.0656 1.2006 0.59509 0.95883 1.8034 0.91442 1.893-0.0444 0.0896-0.134 0.0452-0.16087 0.0318-0.0806-0.0399-0.0808-0.0847-0.072-0.14733 0.15323-0.96204-0.37591-1.3582-0.70742-1.5226-0.47488-0.23537-1.4453-0.23647-2.1559 1.1971z"
           id="path57" /><path
           d="m151.75 799.2 0.0178-0.0359 0.0223-0.0224 0.0267-0.0315 0.0178-0.0358 0.0267-0.0315 0.0223-0.0225 0.0357-0.027 0.0223-0.0224 0.0357-0.0269 0.0223-0.0224 0.0357-0.027 0.0624-0.036 0.0357-0.0271 0.0312-0.018 0.0402-0.0136 0.0268-9e-3 0.0804-0.0272 0.0268-9e-3 0.0358-4e-3 0.0492-0.01 0.0358-4e-3 0.0314 5e-3 0.0448-4.3e-4 0.0314 5e-3 0.0448-4.3e-4 0.0403 9e-3 0.0359 0.0178 0.0403 9e-3 0.0359 0.0178 0.0447 0.0222c0.18814 0.0932 0.668 0.47621 0.30828 1.202l-0.2487 0.50174-0.22399-0.11106 0.2487-0.50174c0.25758-0.51967 0.0692-0.68002-0.0292-0.72887-0.29567-0.14655-0.53135 0.23887-0.55355 0.28366l-0.88377 1.783c-0.18209 0.36735-0.35528 0.71678-0.84215 0.88841-0.52264 0.17624-1.0417 0.0975-1.4718-0.11528-0.7347-0.36416-1.1352-1.0873-0.84212-1.6786 0.12878-0.25984 0.37451-0.32776 0.60747-0.2123 0.25087 0.12436 0.32777 0.37452 0.2123 0.60748-0.0533 0.10751-0.24464 0.38099-0.66123 0.18565 0.0865 0.43351 0.47665 0.74968 0.76337 0.89178 0.43903 0.21761 1.1229 0.12132 1.5138-0.66714l0.16431-0.3315 0.0932-0.18816 0.43967-0.88701c0.42189-0.85118-0.0722-1.4756-0.4754-1.6754-0.43904-0.21761-0.96183-0.086-1.1839 0.36188-0.24426 0.4928-0.23212 1.414 1.2196 2.2005l-0.0932 0.18816c-0.44362-0.25338-1.0575-0.59113-1.4887-1.1397-0.51203-0.63325-0.50954-1.2012-0.31412-1.5955 0.35972-0.72574 1.3264-0.51443 1.8909-0.23465 0.59135 0.2931 0.8303 0.84682 0.7918 1.3523z"
           id="path59" /><path
           d="m152.08 806.22-1.2324-0.73364 0.13767-0.27773c0.62718 0.31086 0.72995 0.28367 0.94312-0.1464l2.296-4.6322c0.19985-0.40318 0.10125-0.45203-0.49902-0.74959l0.13323-0.26879c0.29123 0.15552 0.75722 0.40881 0.98121 0.51983 0.21504 0.10662 0.66296 0.30628 0.9989 0.46164l-0.13324 0.26879c-0.60029-0.29755-0.69885-0.34639-0.8987 0.0568z"
           id="path61" /><path
           d="m158.48 805.51 1.1813-2.3833c0.19984-0.40319 0.10125-0.45204-0.49903-0.74958l0.13323-0.2688c0.30916 0.16439 0.75722 0.40881 0.99914 0.52871 0.23295 0.1155 0.70774 0.32849 1.0168 0.47052l-0.13324 0.26879c-0.6003-0.29755-0.69885-0.34639-0.89871 0.0568l-0.8127 1.6396c-0.45743 0.92284-0.07 1.7399 0.50345 2.0241 0.55549 0.27534 0.89387-0.15963 1.1426-0.66138l1.0303-2.0787c0.19986-0.40319 0.10126-0.45204-0.49901-0.74959l0.13323-0.2688c0.30914 0.16441 0.75722 0.40881 0.99913 0.52872 0.23295 0.1155 0.70775 0.32847 1.0168 0.47052l-0.13323 0.26879c-0.60031-0.29754-0.69886-0.3464-0.89871 0.0568l-0.81271 1.6396c-0.45743 0.92287-0.07 1.7399 0.50345 2.0242 0.5555 0.27534 0.90284-0.1552 1.1515-0.65695l1.0303-2.0787c0.19984-0.40319 0.0923-0.45648-0.49903-0.74959l0.13323-0.26879c0.30916 0.16439 0.75722 0.40881 0.99017 0.52427 0.23296 0.1155 0.70775 0.32849 1.0168 0.47052l-0.13324 0.26878c-0.4659-0.23092-0.68989-0.34195-0.83209-0.0776l-0.8438 1.7024c-0.37748 0.76158-0.51515 1.0393-0.95278 1.2242-0.20094 0.0901-0.57647 0.12722-1.0961-0.13038-0.75262-0.37305-0.88039-1.106-0.86395-1.522-0.5118 0.71734-1.2237 0.48725-1.6269 0.28742-0.6451-0.31976-0.87526-0.91376-0.85078-1.5936l-0.46631 0.94077-1.2145-0.72474 0.13767-0.27776c0.62719 0.31089 0.72996 0.28369 0.94757-0.15534z"
           id="path63" /><path
           d="m169.72 809.64-0.0533 0.10752-0.0622 0.10308-0.0578 0.0942-0.0712 0.0986-0.2271 0.2559-0.0803 0.0719-0.2676 0.2022-0.0937 0.054-0.0982 0.063-0.0893 0.0451-0.10274 0.0496-0.1072 0.0361-0.0983 0.0405-0.10277 0.0272-0.11172 0.0228-0.0983 0.0182-0.11172 0.0228-0.11179-4.3e-4 -0.10282 5e-3 -0.11178-4.3e-4 -0.21473-0.018-0.10294-0.0174-0.11187-0.0221-0.10744-0.031-0.103-0.0398-0.10299-0.0398-0.10301-0.0398 0.0887-0.20156c0.39424 0.19541 0.8772 0.18925 1.3011-0.0805 0.41495-0.27424 0.66809-0.78495 0.83685-1.1254 0.15988-0.32256 0.39524-0.79742 0.39354-1.2894 0.0118-0.49645-0.25375-0.95169-0.70174-1.1737-0.38527-0.19096-0.87275-0.19821-1.319 0.0941-0.4194 0.2832-0.68586 0.82079-0.84574 1.1433-0.17319 0.34943-0.40857 0.8243-0.38893 1.3251 0.0377 0.53206 0.36546 0.92895 0.72385 1.1066l-0.0887 0.20156c-1.12-0.55514-1.496-1.9581-0.94535-3.0691 0.56845-1.1469 1.9132-1.5406 2.9615-1.021 1.0841 0.53737 1.5493 1.8506 0.98977 2.9795z"
           id="path65" /><path
           d="m174.33 810.16 0.28866-0.58237 1.2593 0.74694-0.13323 0.26879c-0.62717-0.31087-0.72994-0.28368-0.94754 0.15536l-2.6779 5.4027-1.2324-0.73362 0.13767-0.27776c0.62718 0.31087 0.72994 0.28368 0.94312-0.14639l0.95482-1.9263c-0.41971 0.19376-0.92045 0.23576-1.4043-4e-3l0.13356-0.17935c0.31358 0.15543 0.7565 0.20756 1.2341-0.058 0.17406-0.1035 0.18294-0.12139 0.26287-0.28267l0.90153-1.8188c0.0799-0.16127 0.0888-0.17919 0.0657-0.38035-0.0557-0.56331-0.36111-0.96027-0.74638-1.1512-0.40319-0.19985-0.84121-0.12678-1.225 0.10709-0.41503 0.25188-0.69061 0.7403-0.87269 1.1076-0.16432 0.33151-0.40843 0.86902-0.34844 1.401 0.0504 0.37101 0.24441 0.83545 0.72825 1.0753l-0.13356 0.17934c-1.0572-0.52404-1.5628-1.8684-0.99436-3.0152 0.55957-1.1289 1.8728-1.5718 2.8943-1.0655 0.57343 0.28424 0.83007 0.77975 0.91195 1.1775z"
           id="path67" /><path
           d="m176.1 812.99-0.0843 0.1926c-0.60351 1.3527 0.038 1.9497 0.33376 2.0963 0.92285 0.45743 1.6076-0.69876 1.7808-1.0482l-2.1145-1.0481 0.0843-0.1926 2.4908 1.2346c0.19711 0.0978 0.22399 0.11106 0.13073 0.29918-0.43523 0.87806-1.3498 1.5073-2.4698 0.95222-1.0304-0.51072-1.3972-1.8422-0.84656-2.9532 0.59066-1.1916 1.9578-1.5855 2.9792-1.0792 1.0931 0.5418 1.0078 1.7272 0.9234 1.8975-0.0444 0.0896-0.12498 0.072-0.16978 0.0497-0.0806-0.0399-0.0719-0.10265-0.0543-0.18316 0.14379-1.0783-0.66254-1.478-0.75214-1.5224-0.43903-0.21761-0.93066-0.1264-1.301 0.10291-0.48195 0.29684-0.77061 0.87922-0.9305 1.2018z"
           id="path69" /><path
           d="m178.61 819.37-1.2324-0.73363 0.13767-0.27775c0.62719 0.31088 0.72994 0.28368 0.94312-0.14638l2.296-4.6322c0.19983-0.4032 0.10125-0.45204-0.49902-0.74959l0.13323-0.2688c0.29123 0.15552 0.75721 0.40882 0.97225 0.5154 0.22399 0.11106 0.6719 0.31071 1.0079 0.46607l-0.13323 0.26879c-0.60031-0.29755-0.69886-0.3464-0.89871 0.0568z"
           id="path71" /></g>      <g
         transform="matrix(.42483 0 0 -.44265 -116.49 336.89)"
         fill-rule="evenodd"
         stroke="#000"
         stroke-miterlimit="10.433"
         ns0:preamble="default_packages.tex"
         ns0:text="$$f$$\n"
         xml:space="preserve"
         id="g77"><path
           d="m 305.60283,697.97544 h 1.19053 c 0.27687,0 0.41531,0 0.41531,0.27687 0,0.15228 -0.13844,0.15228 -0.37377,0.15228 h -1.14901 l 0.29071,1.5643 c 0.0553,0.29072 0.24918,1.2736 0.33224,1.43972 0.12459,0.26302 0.35993,0.47068 0.65065,0.47068 0.0553,0 0.40145,0 0.66448,-0.24918 -0.59527,-0.0553 -0.7337,-0.5399 -0.7337,-0.74755 0,-0.3184 0.24918,-0.48452 0.51221,-0.48452 0.34608,0 0.74754,0.30456 0.74754,0.8306 0,0.6368 -0.62295,0.94136 -1.19053,0.94136 -0.47068,0 -1.34282,-0.24919 -1.75813,-1.60584 -0.083,-0.29071 -0.12459,-0.42914 -0.45682,-2.15957 h -0.9552 c -0.26303,0 -0.4153,0 -0.4153,-0.26303 0,-0.16612 0.12459,-0.16612 0.38761,-0.16612 h 0.91367 l -1.03826,-5.42662 c -0.24918,-1.32897 -0.48452,-2.58872 -1.20437,-2.58872 -0.0553,0 -0.38762,0 -0.65065,0.24918 0.6368,0.0415 0.76139,0.5399 0.76139,0.74755 0,0.3184 -0.24918,0.47067 -0.5122,0.47067 -0.35993,0 -0.76139,-0.2907 -0.76139,-0.81676 0,-0.62295 0.60911,-0.9552 1.16285,-0.9552 0.76138,0 1.31512,0.81677 1.5643,1.34282 0.44299,0.85829 0.76139,2.5195 0.77523,2.6164 z"
           id="path75"
           style="fill:#000000;fill-opacity:0.78431373;stroke-width:0"
           inkscape:connector-curvature="0" /></g>    </g>
    <path
       d="m51.792 70.645v38.42"
       fill="none"
       stroke="#000"
       stroke-dasharray="1.68,0.28"
       stroke-opacity=".21256"
       stroke-width=".28"
       id="path81" />
    <ellipse
       cx="62.306"
       cy="73.927"
       rx=".64394"
       ry=".66244"
       fill="#f00"
       id="ellipse83" />
    <path
       d="m31.813 34.615c34.517 78.271 62.43 43.518 73.618 19.355"
       fill="none"
       stroke="#ef0000"
       stroke-width=".28072"
       id="path85"
       style="stroke-width:0.52501485;stroke-miterlimit:4;stroke-dasharray:none;stroke:#ef0000;stroke-opacity:0.50980395" />
    <circle
       cx="51.645"
       cy="69.131"
       r=".83626"
       fill="#f00"
       id="circle87" />
    <ellipse
       cx="62.175"
       cy="109.07"
       rx=".78009"
       ry=".8025"
       id="ellipse89"
       style="fill:#000000;fill-opacity:0.78431374" />
    <ellipse
       cx="76.073"
       cy="82.906"
       rx=".68453"
       ry=".7042"
       fill="#f00"
       id="ellipse91" />
    <path
       d="m76.038 83.17v25.725"
       fill="none"
       stroke="#f00"
       stroke-dasharray="1.68, 0.28000000000000003"
       stroke-opacity=".31765"
       stroke-width=".28"
       id="path93" />
    <ellipse
       cx="76.072"
       cy="109.03"
       rx=".78009"
       ry=".8025"
       id="ellipse95"
       style="fill:#000000;fill-opacity:0.78431374" />
    <g
       transform="matrix(.29174 0 0 -.29174 12.506 299.75)"
       fill-rule="evenodd"
       stroke="#000"
       stroke-miterlimit="10.433"
       stroke-opacity=".78431"
       ns0:preamble="default_packages.tex"
       ns0:text="$$\\text{Trust region}$$\n$$\\text{outside trust region (too far away)}$$\n"
       xml:space="preserve"
       id="g193"><g
         fill-opacity=".70588"
         stroke-width="0"
         id="g187"><path
           d="m230.98 686.97v0.13924l-0.0116 0.13923-0.0116 0.12764-0.0232 0.13924-0.0348 0.12763-0.0348 0.12764-0.0348 0.12762-0.0464 0.11604-0.058 0.12763-0.058 0.11603-0.058 0.10442-0.0696 0.11603-0.0696 0.10443-0.0812 0.10442-0.1624 0.1856-0.0928 0.0928-0.1856 0.1624-0.10444 0.0812-0.0928 0.0697-0.11603 0.058-0.10442 0.0696-0.11603 0.0465-0.11603 0.0464-0.11603 0.0465-0.12764 0.0348-0.11602 0.0348-0.12764 0.0232-0.12762 0.0116-0.25527 0.0232-0.0116-0.25526c0.51054 0 0.99786-0.25527 1.2995-0.75419 0.30167-0.48733 0.30167-1.1603 0.30167-1.6012 0-0.4061 0-1.0327-0.25526-1.5432-0.25527-0.52213-0.75419-0.84701-1.3343-0.84701-0.49893 0-1.0095 0.24366-1.3227 0.7658-0.29007 0.51052-0.29007 1.2183-0.29007 1.6244 0 0.45252 0 1.0791 0.27847 1.578 0.31327 0.53374 0.85862 0.7774 1.3227 0.7774l0.0116 0.25526c-1.4504 0-2.5759-1.2647-2.5759-2.7035 0-1.4852 1.2067-2.5874 2.5642-2.5874 1.3924 0 2.5643 1.1255 2.5643 2.5874z"
           id="path97" /><path
           d="m235.83 685.41v-1.0327l1.6708 0.12763v0.34809c-0.81222 0-0.90504 0.0812-0.90504 0.64976v4.0958l-1.694-0.12763v-0.3597c0.8006 0 0.89343-0.0812 0.89343-0.64976v-2.0421c0-1.0095-0.54535-1.7868-1.3924-1.7868-0.97465 0-1.0211 0.53373-1.0211 1.1371v3.829l-1.7056-0.12763v-0.3597c0.90503 0 0.90503-0.0348 0.90503-1.0559v-1.7288c0-0.90504 0-1.9493 1.7636-1.9493 0.64976 0 1.1603 0.32488 1.4852 1.0327z"
           id="path99" /><path
           d="m239.74 689.11h1.6476v0.3597h-1.6476v2.1233h-0.29008c-0.0116-0.95145-0.35969-2.1814-1.4968-2.2278v-0.25527h0.98625v-3.1792c0-1.4156 1.0791-1.5548 1.4852-1.5548 0.82381 0 1.1487 0.8122 1.1487 1.5548v0.64977h-0.29007v-0.62656c0-0.85862-0.34809-1.2879-0.7774-1.2879-0.76579 0-0.76579 1.0443-0.76579 1.2415z"
           id="path101" /><path
           d="m244.63 686.73h0.058l0.1044-0.0348h0.0464l0.0348-0.0116 0.0465-0.0116 0.0464-0.0232 0.058-0.0116 0.0464-0.0232 0.0465-0.0116 0.058-0.0232 0.0465-0.0232 0.058-0.0348 0.0464-0.0232 0.0464-0.0348 0.058-0.0232 0.0464-0.0348 0.0813-0.0813 0.0464-0.0465 0.0348-0.0465 0.0348-0.0464 0.0348-0.058 0.0232-0.0232 0.0116-0.0232 0.0116-0.0348 0.0116-0.0232 0.0116-0.0348 0.0117-0.0348 0.0116-0.0232 0.0116-0.0348v-0.0348l0.0116-0.0348v-0.0696l0.0116-0.0465v-0.0348c0-0.59174-0.4061-1.0443-1.3111-1.0443-0.97465 0-1.3924 0.64976-1.6128 1.636-0.0348 0.15084-0.0464 0.19725-0.16245 0.19725-0.15084 0-0.15084-0.0812-0.15084-0.29007v-1.52c0-0.19726 0-0.27847 0.12764-0.27847 0.058 0 0.0696 0.0116 0.29007 0.23206 0.0232 0.0232 0.0232 0.0465 0.23206 0.25526 0.51053-0.47572 1.0327-0.48732 1.2763-0.48732 1.3344 0 1.8681 0.76579 1.8681 1.6012 0 0.60336-0.34808 0.95144-0.48732 1.0907-0.3829 0.37129-0.83541 0.46412-1.3227 0.55694-0.64976 0.12764-1.4272 0.27847-1.4272 0.93984 0 0.40611 0.30167 0.88182 1.2995 0.88182 1.2763 0 1.3343-1.0443 1.3576-1.3924 0.0116-0.10443 0.11602-0.10443 0.13923-0.10443 0.15084 0 0.15084 0.058 0.15084 0.27847v1.1603c0 0.19725 0 0.27847-0.12764 0.27847-0.058 0-0.0812 0-0.23206-0.13923-0.0348-0.0465-0.15083-0.15084-0.19724-0.18565-0.44091 0.32488-0.91664 0.32488-1.0907 0.32488-1.4156 0-1.8565-0.7774-1.8565-1.4156 0-0.40611 0.18565-0.73099 0.49894-0.98625 0.37129-0.30169 0.69617-0.3713 1.5316-0.53375z"
           id="path103" /><path
           d="m248.83 689.6-1.6244-0.12763v-0.3597c0.75419 0 0.85862-0.0696 0.85862-0.63816v-3.098c0-0.52213-0.12764-0.52213-0.90503-0.52213v-0.34809c0.3713 0.0116 0.99785 0.0348 1.2763 0.0348 0.40611 0 0.81221-0.0232 1.2067-0.0348v0.34809c-0.7658 0-0.81221 0.058-0.81221 0.51053z"
           id="path105" /><path
           d="m248.88 691.61v0.058l-0.0116 0.0348v0.0348l-0.0116 0.0348-0.0116 0.0232v0.0348l-0.0116 0.0232-0.0232 0.0348-0.0348 0.0696-0.0464 0.0464-0.0117 0.0232-0.0464 0.0464-0.0232 0.0116-0.0232 0.0232-0.0696 0.0348-0.0348 0.0232-0.0232 0.0116h-0.0232l-0.0348 0.0116-0.0232 0.0116h-0.0348l-0.0232 0.0116h-0.0928c-0.35969 0-0.61496-0.31329-0.61496-0.60336 0-0.31328 0.25527-0.61495 0.61496-0.61495 0.32488 0 0.61496 0.24366 0.61496 0.61495z"
           id="path107" /><path
           d="m254.39 685.13v-0.75419l1.7056 0.12763v0.34809c-0.81221 0-0.90503 0.0812-0.90503 0.64976v6.9966l-1.6708-0.12764v-0.35968c0.8122 0 0.90503-0.0812 0.90503-0.63817v-2.4946c-0.33649 0.41771-0.83542 0.71939-1.462 0.71939l0.058-0.25527c0.39451 0 0.88183-0.17404 1.2415-0.69617 0.12763-0.19726 0.12763-0.22046 0.12763-0.41771v-2.367c0-0.20886 0-0.23206-0.12763-0.42931-0.34809-0.54534-0.87022-0.8006-1.3575-0.8006-0.52215 0-0.93985 0.29007-1.2183 0.73098-0.30169 0.47572-0.3365 1.1371-0.3365 1.6012 0 0.42932 0.0232 1.1255 0.3597 1.636 0.24366 0.35968 0.68457 0.74258 1.3111 0.74258l-0.058 0.25527c-1.3576 0-2.5759-1.1371-2.5759-2.6223 0-1.462 1.1371-2.5991 2.4482-2.5991 0.74259 0 1.2647 0.3945 1.5548 0.75419z"
           id="path109" /><path
           d="m257.7 687.16 0.0116 0.24366c0.0696 1.7172 1.0443 2.0073 1.4388 2.0073 1.1951 0 1.3111-1.5548 1.3111-2.0073h-2.7499l-0.0116-0.24366h3.2372c0.24366 0 0.29008 0 0.29008 0.24366 0 1.1371-0.62657 2.2626-2.0769 2.2626-1.3459 0-2.4018-1.1951-2.4018-2.6339 0-1.5432 1.2067-2.6571 2.541-2.6571 1.4156 0 1.9377 1.2763 1.9377 1.4968 0 0.11603-0.0928 0.13923-0.15084 0.13923-0.10443 0-0.12764-0.0696-0.15085-0.16243-0.40609-1.1835-1.4504-1.1835-1.5664-1.1835-0.58015 0-1.0443 0.33648-1.3111 0.7658-0.3481 0.55694-0.3481 1.3111-0.3481 1.7288z"
           id="path111" /><path
           d="m267.41 689.11h1.6476v0.3597h-1.6476v2.1233h-0.29007c-0.0116-0.95145-0.3597-2.1814-1.4968-2.2278v-0.25527h0.98625v-3.1792c0-1.4156 1.0791-1.5548 1.4968-1.5548 0.8122 0 1.1371 0.8122 1.1371 1.5548v0.64977h-0.29007v-0.62656c0-0.85862-0.34808-1.2879-0.76579-1.2879-0.7774 0-0.7774 1.0443-0.7774 1.2415z"
           id="path113" /><path
           d="m271.83 688.32v1.2763l-1.6012-0.12763v-0.3597c0.80061 0 0.89343-0.0812 0.89343-0.64976v-3.0864c0-0.52213-0.12763-0.52213-0.89343-0.52213v-0.34809c0.44091 0.0116 0.98625 0.0348 1.3111 0.0348 0.46412 0 1.0094 0 1.4736-0.0348v0.34809h-0.24366c-0.85862 0-0.88183 0.12763-0.88183 0.54534v1.7752c0 1.1487 0.48733 2.1698 1.3692 2.1698 0.0812 0 0.10443 0 0.12763-0.0116-0.0348-0.0116-0.26687-0.15084-0.26687-0.45251 0-0.32488 0.24367-0.48733 0.49893-0.48733 0.20886 0 0.49893 0.12764 0.49893 0.49893 0 0.3713-0.35969 0.70778-0.85862 0.70778-0.84702 0-1.2647-0.7774-1.4272-1.2763z"
           id="path115" /><path
           d="m278.95 685.41v-1.0327l1.6592 0.12763v0.34809c-0.8006 0-0.89343 0.0812-0.89343 0.64976v4.0958l-1.7056-0.12763v-0.3597c0.81222 0 0.90504-0.0812 0.90504-0.64976v-2.0421c0-1.0095-0.55694-1.7868-1.404-1.7868-0.97465 0-1.0211 0.53373-1.0211 1.1371v3.829l-1.694-0.12763v-0.3597c0.90504 0 0.90504-0.0348 0.90504-1.0559v-1.7288c0-0.90504 0-1.9493 1.752-1.9493 0.64977 0 1.1603 0.32488 1.4968 1.0327z"
           id="path117" /><path
           d="m283.26 686.73h0.058l0.0232-0.0116 0.0464-0.0116 0.0348-0.0116h0.0464l0.0348-0.0116 0.0464-0.0116 0.0464-0.0232 0.058-0.0116 0.0465-0.0232 0.0464-0.0116 0.058-0.0232 0.0464-0.0232 0.0464-0.0348 0.058-0.0232 0.0464-0.0348 0.0465-0.0232 0.058-0.0348 0.0348-0.0465 0.0464-0.0348 0.0464-0.0465 0.0348-0.0465 0.0348-0.0464 0.0348-0.058 0.0232-0.0232 0.0116-0.0232 0.0116-0.0348 0.0116-0.0232 0.0232-0.0696 0.0116-0.0232v-0.0348l0.0232-0.0696v-0.1161l0.0116-0.0348c0-0.59174-0.4061-1.0443-1.3111-1.0443-0.97465 0-1.3924 0.64976-1.6128 1.636-0.0348 0.15084-0.0464 0.19725-0.16245 0.19725-0.15084 0-0.15084-0.0812-0.15084-0.29007v-1.52c0-0.19726 0-0.27847 0.12764-0.27847 0.058 0 0.0696 0.0116 0.29007 0.23206 0.0232 0.0232 0.0232 0.0465 0.23206 0.25526 0.51053-0.47572 1.0327-0.48732 1.2763-0.48732 1.3344 0 1.8565 0.76579 1.8565 1.6012 0 0.60336-0.33649 0.95144-0.47572 1.0907-0.3829 0.37129-0.83542 0.46412-1.3227 0.55694-0.64976 0.12764-1.4272 0.27847-1.4272 0.93984 0 0.40611 0.30167 0.88182 1.2995 0.88182 1.2647 0 1.3343-1.0443 1.3459-1.3924 0.0232-0.10443 0.12763-0.10443 0.13924-0.10443 0.15084 0 0.15084 0.058 0.15084 0.27847v1.1603c0 0.19725 0 0.27847-0.11604 0.27847-0.0696 0-0.0812 0-0.24366-0.13923-0.0232-0.0465-0.13923-0.15084-0.18565-0.18565-0.4409 0.32488-0.91662 0.32488-1.0907 0.32488-1.4156 0-1.8565-0.7774-1.8565-1.4156 0-0.40611 0.18565-0.73099 0.49893-0.98625 0.3713-0.30169 0.69618-0.3713 1.5316-0.53375z"
           id="path119" /><path
           d="m287.41 689.11h1.6476v0.3597h-1.6476v2.1233h-0.29009c-0.0116-0.95145-0.35968-2.1814-1.4968-2.2278v-0.25527h0.98625v-3.1792c0-1.4156 1.0791-1.5548 1.4968-1.5548 0.81222 0 1.1371 0.8122 1.1371 1.5548v0.64977h-0.29007v-0.62656c0-0.85862-0.33649-1.2879-0.7658-1.2879-0.77739 0-0.77739 1.0443-0.77739 1.2415z"
           id="path121" /><path
           d="m295.7 688.32v1.2763l-1.6128-0.12763v-0.3597c0.81221 0 0.90504-0.0812 0.90504-0.64976v-3.0864c0-0.52213-0.12764-0.52213-0.90504-0.52213v-0.34809c0.45252 0.0116 0.99786 0.0348 1.3227 0.0348 0.46412 0 1.0094 0 1.4736-0.0348v0.34809h-0.24366c-0.85861 0-0.88182 0.12763-0.88182 0.54534v1.7752c0 1.1487 0.48733 2.1698 1.3691 2.1698 0.0812 0 0.10444 0 0.12764-0.0116-0.0348-0.0116-0.26686-0.15084-0.26686-0.45251 0-0.32488 0.24366-0.48733 0.49892-0.48733 0.20886 0 0.49893 0.12764 0.49893 0.49893 0 0.3713-0.3597 0.70778-0.85863 0.70778-0.84701 0-1.2647-0.7774-1.4272-1.2763z"
           id="path123" /><path
           d="m299.57 687.16 0.0116 0.24366c0.0697 1.7172 1.0443 2.0073 1.4388 2.0073 1.1951 0 1.3111-1.5548 1.3111-2.0073h-2.7499l-0.0116-0.24366h3.2372c0.25527 0 0.29007 0 0.29007 0.24366 0 1.1371-0.62656 2.2626-2.0769 2.2626-1.3459 0-2.4018-1.1951-2.4018-2.6339 0-1.5432 1.2067-2.6571 2.541-2.6571 1.4156 0 1.9377 1.2763 1.9377 1.4968 0 0.11603-0.0928 0.13923-0.15084 0.13923-0.10442 0-0.12763-0.0696-0.15084-0.16243-0.4061-1.1835-1.4504-1.1835-1.5664-1.1835-0.58014 0-1.0443 0.33648-1.3111 0.7658-0.34809 0.55694-0.34809 1.3111-0.34809 1.7288z"
           id="path125" /><path
           d="m304.66 686.04v0.0696l0.0116 0.0116v0.0696l0.0116 0.0116v0.0348l0.0116 0.0232v0.0232l0.0116 0.0116v0.0232l0.0232 0.0464v0.0232l0.0116 0.0116 0.0232 0.0464 0.0117 0.0232 0.0232 0.0232 0.0232 0.0464 0.0232 0.0232 0.0116 0.0232c0.45251-0.32489 0.92824-0.3597 1.1487-0.3597v0.26687c-1.0095 0-1.0095 1.1487-1.0095 1.4156 0 0.31328 0.0116 0.67297 0.18565 0.96305 0.0928 0.13924 0.35969 0.46412 0.82381 0.46412 1.0095 0 1.0095-1.1487 1.0095-1.4156 0-0.31327-0.0116-0.68457-0.18565-0.97465-0.0928-0.13923-0.3597-0.45251-0.82381-0.45251v-0.26687c1.0791 0 1.8681 0.789 1.8681 1.6824 0 0.41771-0.17404 0.84702-0.46412 1.1139 0.40611 0.39449 0.82382 0.45252 1.0327 0.45252 0.0232 0 0.0812 0 0.11603-0.0116-0.12764-0.0464-0.18565-0.17403-0.18565-0.31327 0-0.19726 0.15084-0.33648 0.33649-0.33648 0.11603 0 0.33648 0.0812 0.33648 0.34808 0 0.19725-0.13924 0.56855-0.59174 0.56855-0.23206 0-0.74259-0.0697-1.2183-0.54535-0.48733 0.38291-0.97465 0.41771-1.2299 0.41771-1.0791 0-1.8797-0.8006-1.8797-1.6824 0-0.51053 0.25527-0.95144 0.54534-1.1951-0.15085-0.16244-0.35969-0.54534-0.35969-0.95145 0-0.35968 0.15083-0.8006 0.51053-1.021-0.69618-0.19726-1.0675-0.69618-1.0675-1.1603 0-0.82382 1.1487-1.462 2.5643-1.462l0.0116 0.26687c-1.1719 0-1.9725 0.59175-1.9725 1.1951 0 0.53373 0.44091 0.96303 0.95144 0.99785h0.68458c0.99785 0 2.2858 0 2.2858-0.99785 0-0.61496-0.82382-1.1951-1.9493-1.1951l-0.0116-0.26687c1.3575 0 2.5642 0.59175 2.5642 1.4852 0 0.4061-0.16244 0.99786-0.75419 1.3111-0.60335 0.32488-1.2763 0.32488-1.9841 0.32488-0.29007 0-0.789 0-0.87021 0.0116-0.3713 0.0464-0.61497 0.40611-0.61497 0.77741z"
           id="path127" /><path
           d="m311.26 689.6-1.6244-0.12763v-0.3597c0.75419 0 0.85863-0.0696 0.85863-0.63816v-3.098c0-0.52213-0.12764-0.52213-0.90504-0.52213v-0.34809c0.3713 0.0116 0.99786 0.0348 1.2763 0.0348 0.4061 0 0.81221-0.0232 1.2067-0.0348v0.34809c-0.76579 0-0.8122 0.058-0.8122 0.51053z"
           id="path129" /><path
           d="m311.3 691.61v0.058l-0.0116 0.0348v0.0348l-0.0116 0.0348v0.0232l-0.0116 0.0348-0.0116 0.0232-0.0116 0.0348-0.0232 0.0232-0.0232 0.0464-0.0232 0.0232-0.0116 0.0232-0.0696 0.0696-0.0232 0.0116-0.0232 0.0232-0.0696 0.0348-0.0232 0.0232-0.0348 0.0116h-0.0232l-0.0348 0.0116-0.0232 0.0116h-0.0232l-0.0348 0.0116h-0.0928c-0.35969 0-0.61496-0.31329-0.61496-0.60336 0-0.31328 0.25527-0.61495 0.61496-0.61495 0.32488 0 0.61496 0.24366 0.61496 0.61495z"
           id="path131" /><path
           d="m317.87 686.97v0.13924l-0.0116 0.13923-0.0116 0.12764-0.0232 0.13924-0.0348 0.12763-0.0348 0.12764-0.0348 0.12762-0.0464 0.11604-0.058 0.12763-0.058 0.11603-0.058 0.10442-0.0697 0.11603-0.0696 0.10443-0.0812 0.10442-0.1624 0.1856-0.0928 0.0928-0.1856 0.1624-0.10443 0.0812-0.10443 0.0697-0.10442 0.058-0.10443 0.0696-0.11602 0.0465-0.11604 0.0464-0.11602 0.0465-0.12764 0.0348-0.11603 0.0348-0.12763 0.0232-0.3829 0.0348-0.0116-0.25526c0.51053 0 0.99786-0.25527 1.2995-0.75419 0.30168-0.48733 0.30168-1.1603 0.30168-1.6012 0-0.4061 0-1.0327-0.25527-1.5432-0.25526-0.52213-0.75419-0.84701-1.3343-0.84701-0.49893 0-1.0095 0.24366-1.3228 0.7658-0.29007 0.51052-0.29007 1.2183-0.29007 1.6244 0 0.45252 0 1.0791 0.27847 1.578 0.31328 0.53374 0.85862 0.7774 1.3227 0.7774l0.0116 0.25526c-1.4504 0-2.5759-1.2647-2.5759-2.7035 0-1.4852 1.2067-2.5874 2.5643-2.5874 1.3924 0 2.5642 1.1255 2.5642 2.5874z"
           id="path133" /><path
           d="m319.47 688.46v-3.0864c0-0.52213-0.12764-0.52213-0.90503-0.52213v-0.34809c0.4061 0.0116 0.99785 0.0348 1.3111 0.0348 0.30167 0 0.90503-0.0232 1.2995-0.0348v0.34809c-0.77741 0-0.90504 0-0.90504 0.52213v2.1233c0 1.1951 0.82381 1.8449 1.5664 1.8449 0.71938 0 0.84702-0.62656 0.84702-1.2763v-2.6919c0-0.52213-0.12764-0.52213-0.89343-0.52213v-0.34809c0.4061 0.0116 0.98625 0.0348 1.2995 0.0348 0.30168 0 0.90503-0.0232 1.2995-0.0348v0.34809c-0.60336 0-0.89343 0-0.90503 0.34809v2.2046c0 0.98625 0 1.346-0.35969 1.7636-0.16244 0.19725-0.54534 0.42931-1.2067 0.42931-0.84702 0-1.3924-0.49893-1.7172-1.2067v1.2067l-1.636-0.12763v-0.3597c0.8122 0 0.90503-0.0812 0.90503-0.64976z"
           id="path135" /><path
           d="m239.99 668.5v0.0348h-0.0116v0.0232h-0.0116v0.0116l-0.0232 0.0232v0.0116h-0.0116v0.0116h-0.0116v0.0116l-0.058 0.058h-0.0116v0.0116l-0.0348 0.0348-0.0116 0.0117-0.0116 0.0116c-1.4504 1.4504-1.8217 3.6317-1.8217 5.3954 0 2.0073 0.44091 4.0146 1.8681 5.4534 0.15083 0.13923 0.15083 0.16245 0.15083 0.19726 0 0.0812-0.0464 0.11602-0.11602 0.11602-0.11604 0-1.1603-0.789-1.8449-2.251-0.59174-1.2647-0.73098-2.5526-0.73098-3.5157 0-0.89344 0.13924-2.2974 0.7658-3.5969 0.69617-1.4156 1.694-2.1698 1.8101-2.1698 0.0696 0 0.11602 0.0348 0.11602 0.11604z"
           id="path137" /><path
           d="m242.66 675.88h1.6476v0.35969h-1.6476v2.1233h-0.29007c-0.0116-0.95144-0.35969-2.1814-1.4968-2.2278v-0.25527h0.98625v-3.1792c0-1.4156 1.0791-1.5548 1.4968-1.5548 0.81221 0 1.1371 0.81221 1.1371 1.5548v0.64976h-0.29007v-0.62656c0-0.85862-0.34809-1.2879-0.76579-1.2879-0.77741 0-0.77741 1.0443-0.77741 1.2415z"
           id="path139" /><path
           d="m250.6 673.74v0.13923l-0.0116 0.13924-0.0116 0.12764-0.0232 0.13923-0.0348 0.12764-0.0348 0.12762-0.0348 0.12764-0.0464 0.11602-0.058 0.12764-0.0464 0.11603-0.0697 0.10443-0.0696 0.11602-0.0696 0.10444-0.0697 0.10442-0.0812 0.0928-0.0928 0.0928-0.0812 0.0928-0.0928 0.0812-0.10442 0.0812-0.0928 0.0812-0.10442 0.0696-0.10443 0.058-0.11603 0.0696-0.11603 0.0465-0.11603 0.0464-0.11603 0.0465-0.11603 0.0348-0.12763 0.0348-0.12763 0.0232-0.3829 0.0348-0.0116-0.25527c0.51052 0 1.0094-0.25526 1.3111-0.75419 0.30167-0.48733 0.30167-1.1603 0.30167-1.6012 0-0.4061 0-1.0327-0.25526-1.5432-0.25527-0.52214-0.7658-0.84702-1.346-0.84702-0.49893 0-1.0095 0.24367-1.3227 0.7658-0.29007 0.51053-0.29007 1.2183-0.29007 1.6244 0 0.45251 0 1.0791 0.27847 1.578 0.31328 0.53374 0.85862 0.7774 1.3227 0.7774l0.0116 0.25527c-1.4504 0-2.5642-1.2647-2.5642-2.7035 0-1.4852 1.1951-2.5875 2.5526-2.5875 1.404 0 2.5643 1.1255 2.5643 2.5875z"
           id="path141" /><path
           d="m256.7 673.74v0.13923l-0.0116 0.13924-0.0116 0.12764-0.0232 0.13923-0.0348 0.12764-0.0348 0.12762-0.0348 0.12764-0.0464 0.11602-0.058 0.12764-0.0465 0.11603-0.0696 0.10443-0.0696 0.11602-0.0696 0.10444-0.0697 0.10442-0.0812 0.0928-0.0928 0.0928-0.0812 0.0928-0.0928 0.0812-0.10443 0.0812-0.0928 0.0812-0.10442 0.0696-0.10443 0.058-0.11603 0.0696-0.11603 0.0465-0.11603 0.0464-0.11603 0.0465-0.11603 0.0348-0.12763 0.0348-0.12763 0.0232-0.3829 0.0348-0.0116-0.25527c0.51053 0 1.0095-0.25526 1.3112-0.75419 0.30167-0.48733 0.30167-1.1603 0.30167-1.6012 0-0.4061 0-1.0327-0.25526-1.5432-0.25527-0.52214-0.7658-0.84702-1.346-0.84702-0.49893 0-1.0095 0.24367-1.3227 0.7658-0.29007 0.51053-0.29007 1.2183-0.29007 1.6244 0 0.45251 0 1.0791 0.27847 1.578 0.31328 0.53374 0.85862 0.7774 1.3227 0.7774l0.0116 0.25527c-1.4504 0-2.5642-1.2647-2.5642-2.7035 0-1.4852 1.1951-2.5875 2.5526-2.5875 1.404 0 2.5643 1.1255 2.5643 2.5875z"
           id="path143" /><path
           d="m262.91 676.24v1.3343c0 1.0095 0.55694 1.5664 1.0675 1.5664 0.0348 0 0.20885 0 0.3829-0.0812-0.13924-0.0464-0.34809-0.19725-0.34809-0.48732 0-0.25527 0.18564-0.48733 0.49893-0.48733 0.33648 0 0.51053 0.23206 0.51053 0.49893 0 0.42931-0.42931 0.8122-1.0443 0.8122-0.81221 0-1.7985-0.61495-1.7985-1.8333v-1.3227h-0.91664v-0.35969h0.91664v-3.7362c0-0.52213-0.12763-0.52213-0.89343-0.52213v-0.34809c0.44091 0.0116 0.98625 0.0348 1.3111 0.0348 0.46412 0 1.0095 0 1.4736-0.0348v0.34809h-0.24367c-0.85862 0-0.88183 0.12764-0.88183 0.54535v3.7129h1.3228v0.35969z"
           id="path145" /><path
           d="m268.27 672.15 0.0116-0.0464v-0.0348l0.0116-0.0465 0.0116-0.0464 0.0116-0.0348 0.0116-0.0464 0.0116-0.0465 0.0116-0.0348 0.0232-0.0464 0.0116-0.0348 0.0232-0.0465 0.0696-0.1044 0.0348-0.0348 0.0464-0.0696 0.0696-0.0696 0.1392-0.0928 0.0464-0.0232 0.0348-0.0232 0.0464-0.0116 0.0348-0.0116 0.1392-0.0348h0.1044c0.24367 0 0.95145 0.16244 0.95145 1.0907v0.64976h-0.29009v-0.64976c0-0.67298-0.29007-0.74259-0.41769-0.74259-0.38291 0-0.42932 0.52213-0.42932 0.58014v2.309c0 0.48733 0 0.92824-0.41771 1.3576-0.45251 0.45251-1.0327 0.63816-1.5896 0.63816-0.93984 0-1.7404-0.54533-1.7404-1.2995 0-0.34809 0.23206-0.54534 0.53374-0.54534 0.32488 0 0.53373 0.23206 0.53373 0.52214 0 0.13923-0.058 0.52213-0.59175 0.53373 0.31328 0.4061 0.87022 0.53374 1.2415 0.53374 0.56854 0 1.2299-0.45252 1.2299-1.4736v-1.8217c0-1.1023-0.83542-1.4852-1.3576-1.4852-0.55694 0-1.0327 0.39451-1.0327 0.97465 0 0.63817 0.48732 1.5896 2.3902 1.6592v0.24366c-0.59175-0.0348-1.404-0.0696-2.1233-0.41771-0.87023-0.39449-1.1603-0.98625-1.1603-1.4968 0-0.92823 1.1255-1.2183 1.8565-1.2183 0.75419 0 1.2879 0.46412 1.5084 0.99785z"
           id="path147" /><path
           d="m272.13 675.09v1.2763l-1.6128-0.12764v-0.35969c0.81221 0 0.90503-0.0812 0.90503-0.64977v-3.0864c0-0.52213-0.12764-0.52213-0.90503-0.52213v-0.34809c0.45251 0.0116 0.99785 0.0348 1.3227 0.0348 0.46411 0 1.0095 0 1.462-0.0348v0.34809h-0.23206c-0.85862 0-0.88183 0.12764-0.88183 0.54535v1.7752c0 1.1487 0.48733 2.1698 1.3576 2.1698 0.0812 0 0.10442 0 0.12762-0.0116-0.0348-0.0116-0.26686-0.15084-0.26686-0.45252 0-0.32489 0.24366-0.48732 0.49892-0.48732 0.20886 0 0.49893 0.12763 0.49893 0.49892s-0.35969 0.70779-0.85861 0.70779c-0.83542 0-1.2531-0.7774-1.4156-1.2763z"
           id="path149" /><path
           d="m282.42 672.15 0.0116-0.0464v-0.0348l0.0116-0.0465 0.0116-0.0464 0.0116-0.0348 0.0116-0.0464 0.0116-0.0465 0.0116-0.0348 0.0232-0.0464 0.0232-0.0348 0.0116-0.0465 0.0696-0.1044 0.0348-0.0348 0.0232-0.0348 0.0348-0.0348 0.0232-0.0348 0.0348-0.0348 0.1392-0.0928 0.0464-0.0232 0.0348-0.0232 0.0464-0.0116 0.0348-0.0116 0.0464-0.0116 0.0465-0.0116 0.0464-0.0116h0.1044c0.24367 0 0.95144 0.16244 0.95144 1.0907v0.64976h-0.29007v-0.64976c0-0.67298-0.29008-0.74259-0.4177-0.74259-0.38291 0-0.42932 0.52213-0.42932 0.58014v2.309c0 0.48733 0 0.92824-0.4177 1.3576-0.45252 0.45251-1.0327 0.63816-1.5896 0.63816-0.93985 0-1.7405-0.54533-1.7405-1.2995 0-0.34809 0.23206-0.54534 0.53375-0.54534 0.32488 0 0.53373 0.23206 0.53373 0.52214 0 0.13923-0.058 0.52213-0.59176 0.53373 0.31329 0.4061 0.88183 0.53374 1.2531 0.53374 0.55694 0 1.2183-0.45252 1.2183-1.4736v-1.8217c0-1.1023-0.83542-1.4852-1.3459-1.4852-0.56855 0-1.0443 0.39451-1.0443 0.97465 0 0.63817 0.48733 1.5896 2.3902 1.6592v0.24366c-0.59175-0.0348-1.3924-0.0696-2.1233-0.41771-0.87023-0.39449-1.1603-0.98625-1.1603-1.4968 0-0.92823 1.1255-1.2183 1.8565-1.2183 0.75419 0 1.2879 0.46412 1.5084 0.99785z"
           id="path151" /><path
           d="m291.19 675.15 0.0116 0.0465 0.0232 0.0464 0.0232 0.058 0.0232 0.0348 0.0232 0.0465 0.0232 0.0464 0.0464 0.0696 0.0348 0.0348 0.0464 0.0696 0.0348 0.0232 0.058 0.058 0.0348 0.0232 0.0232 0.0232 0.0348 0.0116 0.0348 0.0232 0.0232 0.0116 0.0348 0.0232 0.0696 0.0232 0.0348 0.0117 0.0348 0.0116h0.0348l0.0696 0.0232h0.0812l0.0348 0.0116h0.0696v0.35968c-0.25527-0.0232-0.58016-0.0348-0.83542-0.0348-0.33649 0-0.85862 0.0232-1.0791 0.0348v-0.35968c0.41771-0.0116 0.67297-0.22046 0.67297-0.55695 0-0.0696 0-0.0928-0.058-0.23206l-1.0559-2.9588-1.1487 3.214c-0.0465 0.13923-0.058 0.16244-0.058 0.22045 0 0.31329 0.45252 0.31329 0.68458 0.31329v0.35968c-0.33649-0.0116-0.92824-0.0348-1.2067-0.0348-0.34808 0-0.67297 0.0116-1.0211 0.0348v-0.35968c0.4177 0 0.60335-0.0232 0.71939-0.17405 0.0696-0.0696 0.18564-0.41771 0.26686-0.62657l-0.98625-2.7963-1.1023 3.0748c-0.058 0.13923-0.058 0.16244-0.058 0.20885 0 0.31329 0.45252 0.31329 0.68458 0.31329v0.35968c-0.34809-0.0116-0.99785-0.0348-1.2647-0.0348-0.0464 0-0.66137 0.0116-1.0791 0.0348v-0.35968c0.58015 0 0.71938-0.0348 0.85862-0.40611l1.462-4.0726c0.058-0.16244 0.0928-0.25527 0.24366-0.25527 0.15083 0 0.17403 0.0697 0.23206 0.23206l1.1603 3.2604 1.1835-3.272c0.0464-0.12763 0.0812-0.22046 0.23206-0.22046 0.15084 0 0.18565 0.10443 0.23206 0.22046z"
           id="path153" /><path
           d="m295.92 672.15v-0.0464l0.0116-0.0348 0.0116-0.0465 0.0116-0.0464 0.0116-0.0348 0.0116-0.0464 0.0116-0.0465 0.0116-0.0348 0.0232-0.0464 0.0116-0.0348 0.0232-0.0465 0.0928-0.1392 0.0348-0.0348 0.0232-0.0348 0.0696-0.0696 0.174-0.116 0.0464-0.0232 0.0464-0.0116 0.0348-0.0116 0.0465-0.0116 0.0928-0.0232h0.1044c0.24367 0 0.95145 0.16244 0.95145 1.0907v0.64976h-0.29008v-0.64976c0-0.67298-0.29008-0.74259-0.4177-0.74259-0.38291 0-0.42932 0.52213-0.42932 0.58014v2.309c0 0.48733 0 0.92824-0.41771 1.3576-0.45251 0.45251-1.0327 0.63816-1.5896 0.63816-0.93984 0-1.7404-0.54533-1.7404-1.2995 0-0.34809 0.23206-0.54534 0.53374-0.54534 0.32488 0 0.53373 0.23206 0.53373 0.52214 0 0.13923-0.0696 0.52213-0.59175 0.53373 0.31328 0.4061 0.88182 0.53374 1.2415 0.53374 0.56854 0 1.2299-0.45252 1.2299-1.4736v-1.8217c0-1.1023-0.83542-1.4852-1.3576-1.4852-0.55694 0-1.0327 0.39451-1.0327 0.97465 0 0.63817 0.48733 1.5896 2.3902 1.6592v0.24366c-0.59175-0.0348-1.404-0.0696-2.1233-0.41771-0.87023-0.39449-1.1603-0.98625-1.1603-1.4968 0-0.92823 1.1255-1.2183 1.8449-1.2183 0.76579 0 1.2995 0.46412 1.52 0.99785z"
           id="path155" /><path
           d="m302.32 675.15 0.0116 0.0232 0.0232 0.0348 0.0232 0.0696 0.0232 0.0232 0.0117 0.0348 0.0116 0.0232 0.0232 0.0232 0.0348 0.058 0.0348 0.0464 0.0348 0.0348 0.0348 0.0465 0.0348 0.0348 0.0465 0.0348 0.0348 0.0348 0.0465 0.0232 0.0696 0.0464 0.0464 0.0232 0.0348 0.0232 0.0348 0.0116 0.0465 0.0116 0.0348 0.0232h0.0348l0.1044 0.0348h0.0696l0.0348 0.0116h0.1392v0.35968c-0.26687-0.0232-0.60336-0.0348-0.87022-0.0348-0.20886 0-0.7542 0.0232-1.0095 0.0348v-0.35968c0.35969-0.0116 0.54534-0.20886 0.54534-0.49893 0-0.11604-0.0116-0.13924-0.0696-0.27847l-1.1719-2.8311-1.2763 3.098c-0.0464 0.11602-0.0696 0.16243-0.0696 0.20884 0 0.30169 0.4293 0.30169 0.64975 0.30169v0.35968c-0.30167-0.0116-1.0675-0.0348-1.2647-0.0348-0.31327 0-0.77739 0.0116-1.1255 0.0348v-0.35968c0.55695 0 0.77741 0 0.93984-0.40611l1.7404-4.2003c-0.0696-0.15084-0.22046-0.53373-0.29008-0.68458-0.25526-0.63816-0.58014-1.4272-1.3227-1.4272-0.058 0-0.32489 0-0.54534 0.20885 0.35969 0.0464 0.45251 0.30168 0.45251 0.48733 0 0.29007-0.22045 0.47572-0.48732 0.47572-0.23206 0-0.48733-0.15084-0.48733-0.48733 0-0.52213 0.48733-0.93984 1.0675-0.93984 0.73099 0 1.2067 0.66137 1.4736 1.3111z"
           id="path157" /><path
           d="m306.96 674.15v0.3596l-0.0232 0.3945-0.0232 0.22046-0.0232 0.22045-0.0348 0.22045-0.0348 0.23206-0.0464 0.23206-0.058 0.24366-0.058 0.24367-0.0696 0.24366-0.0812 0.24366-0.0928 0.25526-0.0464 0.11604-0.058 0.12763-0.058 0.11603-0.058 0.12763c-0.68458 1.4156-1.6824 2.1698-1.7985 2.1698-0.0697 0-0.11603-0.0465-0.11603-0.11602 0-0.0348 0-0.058 0.22046-0.26687 1.1371-1.1371 1.7868-2.9704 1.7868-5.3838 0-1.9725-0.4293-4.003-1.8565-5.4534-0.15084-0.13923-0.15084-0.16243-0.15084-0.19724 0-0.0697 0.0464-0.11604 0.11603-0.11604 0.11603 0 1.1603 0.789 1.8333 2.251 0.59175 1.2647 0.73098 2.5526 0.73098 3.5157z"
           id="path159" /><g
           fill-rule="evenodd"
           stroke-miterlimit="10.433"
           id="g185"><path
             d="m157.56 688.99h1.6476v0.3597h-1.6476v2.1233h-0.29007c-0.0116-0.95144-0.3597-2.1814-1.4968-2.2278v-0.25527h0.98625v-3.1792c0-1.4156 1.0791-1.5548 1.4968-1.5548 0.81221 0 1.1371 0.8122 1.1371 1.5548v0.64977h-0.29007v-0.62656c0-0.85862-0.34808-1.2879-0.76579-1.2879-0.7774 0-0.7774 1.0443-0.7774 1.2415z"
             id="path161" /><path
             d="m161.98 688.2v1.2763l-1.6012-0.12763v-0.3597c0.80061 0 0.89343-0.0812 0.89343-0.64977v-3.0864c0-0.52213-0.12763-0.52213-0.89343-0.52213v-0.3481c0.44091 0.0116 0.98625 0.0348 1.3111 0.0348 0.46412 0 1.0094 0 1.4736-0.0348v0.3481h-0.24366c-0.85862 0-0.88183 0.12763-0.88183 0.54534v1.7752c0 1.1487 0.48733 2.1698 1.3692 2.1698 0.0812 0 0.10443 0 0.12763-0.0116-0.0348-0.0116-0.26687-0.15084-0.26687-0.45252 0-0.32488 0.24367-0.48732 0.49893-0.48732 0.20886 0 0.49893 0.12764 0.49893 0.49893s-0.35969 0.70778-0.85862 0.70778c-0.84702 0-1.2647-0.7774-1.4272-1.2763z"
             id="path163" /><path
             d="m169.11 685.29v-1.0327l1.6592 0.12762v0.3481c-0.8006 0-0.89343 0.0812-0.89343 0.64976v4.0958l-1.7056-0.12763v-0.3597c0.81222 0 0.90504-0.0812 0.90504-0.64977v-2.0421c0-1.0094-0.55694-1.7868-1.404-1.7868-0.97465 0-1.0211 0.53374-1.0211 1.1371v3.829l-1.694-0.12763v-0.3597c0.90503 0 0.90503-0.0348 0.90503-1.0559v-1.7288c0-0.90503 0-1.9493 1.752-1.9493 0.64977 0 1.1603 0.32488 1.4968 1.0327z"
             id="path165" /><path
             d="m173.41 686.61h0.058l0.0232-0.0116 0.0465-0.0116 0.0348-0.0116h0.0464l0.0348-0.0116 0.0464-0.0116 0.0464-0.0232 0.058-0.0116 0.0465-0.0232 0.0464-0.0116 0.058-0.0232 0.0464-0.0232 0.0464-0.0348 0.058-0.0232 0.0465-0.0348 0.0464-0.0232 0.058-0.0348 0.0348-0.0465 0.0464-0.0348 0.0464-0.0465 0.0348-0.0465 0.0348-0.0464 0.0348-0.058 0.0232-0.0232 0.0116-0.0232 0.0116-0.0348 0.0116-0.0232 0.0232-0.0696 0.0116-0.0232v-0.0348l0.0232-0.0696v-0.1161l0.0116-0.0348c0-0.59175-0.4061-1.0443-1.3112-1.0443-0.97465 0-1.3923 0.64976-1.6128 1.636-0.0348 0.15084-0.0464 0.19725-0.16246 0.19725-0.15083 0-0.15083-0.0812-0.15083-0.29007v-1.52c0-0.19725 0-0.27847 0.12764-0.27847 0.058 0 0.0696 0.0116 0.29006 0.23206 0.0232 0.0232 0.0232 0.0465 0.23207 0.25527 0.51053-0.47572 1.0327-0.48733 1.2763-0.48733 1.3344 0 1.8565 0.7658 1.8565 1.6012 0 0.60336-0.33648 0.95144-0.47571 1.0907-0.38293 0.37129-0.83545 0.46412-1.3228 0.55694-0.64976 0.12764-1.4272 0.27847-1.4272 0.93984 0 0.40611 0.30167 0.88182 1.2995 0.88182 1.2647 0 1.3343-1.0443 1.3459-1.3924 0.0232-0.10443 0.12763-0.10443 0.13924-0.10443 0.15084 0 0.15084 0.058 0.15084 0.27847v1.1603c0 0.19725 0 0.27847-0.11604 0.27847-0.0696 0-0.0812 0-0.24366-0.13923-0.0232-0.0464-0.13923-0.15085-0.18565-0.18565-0.4409 0.32488-0.91662 0.32488-1.0907 0.32488-1.4156 0-1.8565-0.7774-1.8565-1.4156 0-0.4061 0.18565-0.73098 0.49893-0.98625 0.3713-0.30168 0.69618-0.3713 1.5316-0.53374z"
             id="path167" /><path
             d="m177.57 688.99h1.6476v0.3597h-1.6476v2.1233h-0.29009c-0.0116-0.95144-0.35968-2.1814-1.4968-2.2278v-0.25527h0.98625v-3.1792c0-1.4156 1.0791-1.5548 1.4968-1.5548 0.81222 0 1.1371 0.8122 1.1371 1.5548v0.64977h-0.29007v-0.62656c0-0.85862-0.33649-1.2879-0.7658-1.2879-0.77739 0-0.77739 1.0443-0.77739 1.2415z"
             id="path169" /><path
             d="m185.85 688.2v1.2763l-1.6128-0.12763v-0.3597c0.81221 0 0.90504-0.0812 0.90504-0.64977v-3.0864c0-0.52213-0.12764-0.52213-0.90504-0.52213v-0.3481c0.45252 0.0116 0.99786 0.0348 1.3227 0.0348 0.46412 0 1.0094 0 1.4736-0.0348v0.3481h-0.24366c-0.85861 0-0.88182 0.12763-0.88182 0.54534v1.7752c0 1.1487 0.48733 2.1698 1.3692 2.1698 0.0812 0 0.10443 0 0.12763-0.0116-0.0348-0.0116-0.26686-0.15084-0.26686-0.45252 0-0.32488 0.24366-0.48732 0.49892-0.48732 0.20886 0 0.49893 0.12764 0.49893 0.49893s-0.3597 0.70778-0.85862 0.70778c-0.84702 0-1.2647-0.7774-1.4272-1.2763z"
             id="path171" /><path
             d="m189.73 687.04 0.0116 0.24367c0.0697 1.7172 1.0443 2.0073 1.4388 2.0073 1.1951 0 1.3111-1.5548 1.3111-2.0073h-2.7499l-0.0116-0.24367h3.2372c0.25527 0 0.29008 0 0.29008 0.24367 0 1.1371-0.62657 2.2626-2.0769 2.2626-1.3459 0-2.4018-1.1951-2.4018-2.6339 0-1.5432 1.2067-2.6571 2.541-2.6571 1.4156 0 1.9377 1.2763 1.9377 1.4968 0 0.11602-0.0928 0.13923-0.15085 0.13923-0.10442 0-0.12762-0.0696-0.15084-0.16244-0.4061-1.1835-1.4504-1.1835-1.5664-1.1835-0.58015 0-1.0443 0.33648-1.3111 0.76579-0.34809 0.55694-0.34809 1.3111-0.34809 1.7288z"
             id="path173" /><path
             d="m194.81 685.91v0.0696l0.0116 0.0116v0.0696l0.0116 0.0116v0.0348l0.0116 0.0232v0.0232l0.0116 0.0116v0.0232l0.0232 0.0464v0.0232l0.0116 0.0116 0.0232 0.0464 0.0117 0.0232 0.0232 0.0232 0.0232 0.0464 0.0232 0.0232 0.0116 0.0232c0.45251-0.32489 0.92824-0.35969 1.1487-0.35969v0.26686c-1.0095 0-1.0095 1.1487-1.0095 1.4156 0 0.31327 0.0116 0.67297 0.18565 0.96304 0.0928 0.13924 0.35969 0.46412 0.82381 0.46412 1.0095 0 1.0095-1.1487 1.0095-1.4156 0-0.31328-0.0116-0.68458-0.18565-0.97465-0.0928-0.13923-0.3597-0.45252-0.82381-0.45252v-0.26686c1.0791 0 1.8681 0.78899 1.8681 1.6824 0 0.41771-0.17404 0.84702-0.46412 1.1139 0.40611 0.3945 0.82382 0.45252 1.0327 0.45252 0.0232 0 0.0812 0 0.11602-0.0116-0.12764-0.0464-0.18565-0.17404-0.18565-0.31328 0-0.19725 0.15084-0.33648 0.33649-0.33648 0.11603 0 0.33648 0.0812 0.33648 0.34809 0 0.19725-0.13924 0.56855-0.59174 0.56855-0.23206 0-0.74259-0.0697-1.2183-0.54535-0.48733 0.3829-0.97465 0.41771-1.2299 0.41771-1.0791 0-1.8797-0.8006-1.8797-1.6824 0-0.51053 0.25527-0.95144 0.54534-1.1951-0.15084-0.16243-0.35969-0.54533-0.35969-0.95144 0-0.35969 0.15083-0.8006 0.51053-1.0211-0.69618-0.19725-1.0675-0.69618-1.0675-1.1603 0-0.82381 1.1487-1.462 2.5643-1.462l0.0116 0.26687c-1.1719 0-1.9725 0.59174-1.9725 1.1951 0 0.53374 0.44091 0.96304 0.95144 0.99786h0.68458c0.99785 0 2.2858 0 2.2858-0.99786 0-0.61496-0.82382-1.1951-1.9493-1.1951l-0.0116-0.26687c1.3575 0 2.5642 0.59175 2.5642 1.4852 0 0.4061-0.16243 0.99785-0.75419 1.3111-0.60335 0.32488-1.2763 0.32488-1.9841 0.32488-0.29007 0-0.789 0-0.87021 0.0116-0.3713 0.0464-0.61496 0.40611-0.61496 0.77741z"
             id="path175" /><path
             d="m201.41 689.48-1.6244-0.12763v-0.3597c0.7542 0 0.85863-0.0696 0.85863-0.63817v-3.098c0-0.52213-0.12764-0.52213-0.90504-0.52213v-0.3481c0.3713 0.0116 0.99786 0.0348 1.2763 0.0348 0.4061 0 0.81221-0.0232 1.2067-0.0348v0.3481c-0.7658 0-0.81221 0.058-0.81221 0.51053z"
             id="path177" /><path
             d="m201.46 691.48v0.058l-0.0116 0.0348v0.0348l-0.0116 0.0348v0.0232l-0.0116 0.0348-0.0116 0.0232-0.0116 0.0348-0.0232 0.0232-0.0232 0.0464-0.0232 0.0232-0.0116 0.0232-0.0696 0.0696-0.0232 0.0116-0.0232 0.0232-0.0696 0.0348-0.0232 0.0232-0.0348 0.0116h-0.0232l-0.0348 0.0116-0.0232 0.0116h-0.0232l-0.0348 0.0116h-0.0928c-0.35969 0-0.61496-0.31329-0.61496-0.60336 0-0.31328 0.25527-0.61495 0.61496-0.61495 0.32488 0 0.61496 0.24366 0.61496 0.61495z"
             id="path179" /><path
             d="m208.02 686.84v0.13924l-0.0116 0.13923-0.0116 0.12764-0.0232 0.13924-0.1044 0.38289-0.0464 0.11604-0.058 0.12762-0.058 0.11604-0.058 0.10442-0.0697 0.11602-0.0696 0.10444-0.0812 0.10442-0.1624 0.1856-0.0928 0.0928-0.1856 0.1624-0.10443 0.0812-0.10442 0.0697-0.10443 0.058-0.10443 0.0696-0.11602 0.0465-0.11604 0.0465-0.11602 0.0465-0.12764 0.0348-0.11603 0.0348-0.12763 0.0232-0.3829 0.0348-0.0116-0.25527c0.51053 0 0.99786-0.25526 1.2995-0.75419 0.30168-0.48732 0.30168-1.1603 0.30168-1.6012 0-0.40611 0-1.0327-0.25527-1.5432-0.25526-0.52213-0.75419-0.84701-1.3343-0.84701-0.49893 0-1.0095 0.24366-1.3228 0.76579-0.29006 0.51053-0.29006 1.2183-0.29006 1.6244 0 0.45252 0 1.0791 0.27848 1.578 0.31328 0.53373 0.85862 0.77739 1.3227 0.77739l0.0116 0.25527c-1.4504 0-2.5759-1.2647-2.5759-2.7035 0-1.4852 1.2067-2.5874 2.5643-2.5874 1.3924 0 2.5642 1.1255 2.5642 2.5874z"
             id="path181" /><path
             d="m209.63 688.34v-3.0864c0-0.52213-0.12764-0.52213-0.90503-0.52213v-0.3481c0.4061 0.0116 0.99785 0.0348 1.3111 0.0348 0.30167 0 0.90503-0.0232 1.2995-0.0348v0.3481c-0.77741 0-0.90504 0-0.90504 0.52213v2.1233c0 1.1951 0.82381 1.8449 1.5664 1.8449 0.71938 0 0.84702-0.62656 0.84702-1.2763v-2.6919c0-0.52213-0.12764-0.52213-0.89343-0.52213v-0.3481c0.4061 0.0116 0.98625 0.0348 1.2995 0.0348 0.30168 0 0.90503-0.0232 1.2995-0.0348v0.3481c-0.60336 0-0.89343 0-0.90503 0.34808v2.2046c0 0.98625 0 1.3459-0.35969 1.7636-0.16244 0.19726-0.54534 0.42932-1.2067 0.42932-0.84703 0-1.3924-0.49893-1.7172-1.2067v1.2067l-1.636-0.12763v-0.3597c0.8122 0 0.90503-0.0812 0.90503-0.64977z"
             id="path183" /></g></g><path
         d="m233.57 679.51-12.597-20.727"
         fill="none"
         marker-end="url(#b)"
         stroke="#000"
         stroke-miterlimit="10.433"
         stroke-opacity=".65217"
         stroke-width=".90834"
         id="path189" /><path
         d="m159.28 679.85-13.944-22.945"
         fill="none"
         marker-end="url(#a)"
         stroke="#000"
         stroke-miterlimit="10.433"
         stroke-opacity=".65217"
         stroke-width="1.0055"
         id="path191" /></g>  </g>
</svg>
