<?xml version="1.0" encoding="UTF-8"?>
<svg width="120mm" height="110mm" version="1.1" viewBox="0 0 101.53 90.288" xmlns="http://www.w3.org/2000/svg" xmlns:cc="http://creativecommons.org/ns#" xmlns:dc="http://purl.org/dc/elements/1.1/" xmlns:ns0="http://www.iki.fi/pav/software/textext/" xmlns:rdf="http://www.w3.org/1999/02/22-rdf-syntax-ns#" xmlns:xlink="http://www.w3.org/1999/xlink">
 <metadata>
  <rdf:RDF>
   <cc:Work rdf:about="">
    <dc:format>image/svg+xml</dc:format>
    <dc:type rdf:resource="http://purl.org/dc/dcmitype/StillImage"/>
    <dc:title/>
   </cc:Work>
  </rdf:RDF>
 </metadata>
 <defs>
  <linearGradient id="linearGradient8084">
   <stop stop-color="#c30000" stop-opacity=".8" offset="0"/>
   <stop stop-color="#c30000" stop-opacity=".82" offset="1"/>
  </linearGradient>
  <linearGradient id="linearGradient6948">
   <stop stop-color="#f00" stop-opacity=".6" offset="0"/>
   <stop stop-color="#c30000" stop-opacity=".75" offset="1"/>
  </linearGradient>
  <marker id="marker1506" overflow="visible" orient="auto">
   <path transform="matrix(-.4 0 0 -.4 -4 0)" d="m0 0 5-5-17.5 5 17.5 5z" fill-opacity=".58333" fill-rule="evenodd" stroke="#000" stroke-opacity=".58333" stroke-width="1pt"/>
  </marker>
  <marker id="marker1496" overflow="visible" orient="auto">
   <path transform="matrix(-.4 0 0 -.4 -4 0)" d="m0 0 5-5-17.5 5 17.5 5z" fill-opacity=".58333" fill-rule="evenodd" stroke="#000" stroke-opacity=".58333" stroke-width="1pt"/>
  </marker>
  <linearGradient id="linearGradient2275" x1="-64.214" x2="-53.742" y1="-31.621" y2="-48.718" gradientTransform="translate(2.0422 1.18)" gradientUnits="userSpaceOnUse" xlink:href="#linearGradient6948"/>
  <linearGradient id="linearGradient2275-8-4" x1="-117.11" x2="-127.66" y1="-53.046" y2="-54.653" gradientTransform="translate(62.208 -16.141)" gradientUnits="userSpaceOnUse">
   <stop stop-color="#f00" stop-opacity=".5" offset="0"/>
   <stop stop-color="#f00" stop-opacity=".6" offset="1"/>
  </linearGradient>
  <linearGradient id="linearGradient2275-8-4-7" x1="-100.84" x2="-109.09" y1="-56.988" y2="-60.654" gradientTransform="translate(33.69 -14.491)" gradientUnits="userSpaceOnUse">
   <stop stop-color="#f00" stop-opacity=".6" offset="0"/>
   <stop stop-color="#c30000" stop-opacity=".7" offset="1"/>
  </linearGradient>
  <linearGradient id="linearGradient2275-8-4-7-8" x1="-91.547" x2="-93.313" y1="-63.414" y2="-69.277" gradientTransform="translate(14.991 -12.959)" gradientUnits="userSpaceOnUse" xlink:href="#linearGradient6948"/>
  <linearGradient id="linearGradient2275-8-4-7-8-4" x1="-105.77" x2="-106.25" y1="-65.683" y2="-71.841" gradientTransform="translate(27.084 -18.199)" gradientUnits="userSpaceOnUse">
   <stop stop-color="#c30000" stop-opacity=".75" offset="0"/>
   <stop stop-color="#c30000" stop-opacity=".8" offset="1"/>
  </linearGradient>
  <linearGradient id="linearGradient2275-8-4-7-8-4-2" x1="-125.16" x2="-131.61" y1="-65.811" y2="-73.3" gradientTransform="translate(45.569 -25.88)" gradientUnits="userSpaceOnUse" xlink:href="#linearGradient8084"/>
  <linearGradient id="linearGradient2275-8-4-7-8-4-2-6" x1="-131.16" x2="-134.49" y1="-62.679" y2="-64.82" gradientTransform="translate(43.695 -37.709)" gradientUnits="userSpaceOnUse" xlink:href="#linearGradient8084"/>
  <linearGradient id="linearGradient2275-8-4-7-8-4-2-6-56" x1="-131.16" x2="-134.49" y1="-62.679" y2="-64.82" gradientTransform="rotate(-8.7947 -368.11 -301.76)" gradientUnits="userSpaceOnUse" xlink:href="#linearGradient8084"/>
  <linearGradient id="linearGradient2275-8-4-7-8-4-2-6-55" x1="-131.16" x2="-134.49" y1="-62.679" y2="-64.82" gradientTransform="matrix(.33587 .090994 -.086143 .35479 70.137 49.8)" gradientUnits="userSpaceOnUse" xlink:href="#linearGradient8084"/>
  <linearGradient id="linearGradient2275-8-4-7-8-4-2-6-59" x1="-131.16" x2="-134.49" y1="-62.679" y2="-64.82" gradientTransform="matrix(.30136 .092305 -.10087 .27577 66.097 46.739)" gradientUnits="userSpaceOnUse" xlink:href="#linearGradient8084"/>
  <linearGradient id="linearGradient2275-8-4-7-8-4-2-6-9" x1="-131.16" x2="-134.49" y1="-62.679" y2="-64.82" gradientTransform="matrix(.44142 -.46404 .46404 .44142 126.27 -14.804)" gradientUnits="userSpaceOnUse" xlink:href="#linearGradient8084"/>
  <linearGradient id="linearGradient2275-3" x1="-66.082" x2="-53.833" y1="-34.302" y2="-48.827" gradientTransform="matrix(.43014 -.47452 .47452 .43014 110.19 36.006)" gradientUnits="userSpaceOnUse" xlink:href="#linearGradient6948"/>
 </defs>
 <g transform="translate(-51.414 -111.73)">
  <g fill="#1077e6" fill-opacity=".4053" fill-rule="evenodd">
   <ellipse cx="109.06" cy="176.07" rx="15.114" ry="15.172"/>
   <ellipse cx="116.16" cy="165.72" rx="14.498" ry="14.679"/>
   <ellipse cx="114.64" cy="151.86" rx="8.0909" ry="8.2387"/>
   <ellipse cx="106.93" cy="150.5" rx="8.2071" ry="8.1655"/>
   <ellipse cx="81.62" cy="125.99" rx="1.5344" ry="1.5625"/>
   <ellipse cx="82.404" cy="127.07" rx="1.5344" ry="1.5625"/>
   <ellipse cx="84.68" cy="129.36" rx="2.5724" ry="2.6194"/>
   <ellipse cx="88.139" cy="130.48" rx="3.9529" ry="4.0251"/>
   <ellipse cx="91.304" cy="130.17" rx="3.973" ry="4.0456"/>
   <ellipse cx="94.188" cy="132.06" rx="3.9571" ry="4.0294"/>
   <ellipse cx="98.916" cy="137.44" rx="7.7193" ry="7.8603"/>
   <ellipse cx="99.633" cy="142.18" rx="5.0401" ry="5.1322"/>
   <ellipse cx="100.88" cy="147.32" rx="5.1541" ry="5.2483"/>
  </g>
  <path d="m61.444 202.02v-89.61" fill="none" marker-end="url(#marker1496)" stroke="#000" stroke-opacity=".58333" stroke-width=".34396"/>
  <path d="m51.414 194.29h100.63" fill="none" marker-end="url(#marker1506)" stroke="#000" stroke-opacity=".58333" stroke-width=".34396"/>
 </g>
 <g transform="matrix(.64046 0 0 .64046 98.358 84.139)" ns0:alignment="middle center" ns0:inkscapeversion="1.0" ns0:jacobian_sqrt="0.352778" ns0:pdfconverter="inkscape" ns0:preamble="C:\\Users\\User\\AppData\\Roaming\\inkscape\\extensions\\textext\\default_packages.tex" ns0:scale="1.0" ns0:texconverter="pdflatex" ns0:text="$$x y$$" ns0:version="1.1.0">
  <defs></defs>
  <g transform="translate(-300.45 -142.31)">
   <g>
    <g transform="translate(300.16 146.72)" fill-opacity=".73864">
     <path d="m3.3281-3.0156c0.0625-0.25 0.29688-1.1719 0.98438-1.1719 0.046875 0 0.29688 0 0.5 0.125-0.28125 0.0625-0.46875 0.29688-0.46875 0.54688 0 0.15625 0.10938 0.34375 0.375 0.34375 0.21875 0 0.53125-0.17188 0.53125-0.57812 0-0.51562-0.57812-0.65625-0.92188-0.65625-0.57812 0-0.92188 0.53125-1.0469 0.75-0.25-0.65625-0.78125-0.75-1.0781-0.75-1.0312 0-1.6094 1.2812-1.6094 1.5312 0 0.10938 0.10938 0.10938 0.125 0.10938 0.078125 0 0.10938-0.03125 0.125-0.10938 0.34375-1.0625 1-1.3125 1.3438-1.3125 0.1875 0 0.53125 0.09375 0.53125 0.67188 0 0.3125-0.17188 0.96875-0.53125 2.375-0.15625 0.60938-0.51562 1.0312-0.95312 1.0312-0.0625 0-0.28125 0-0.5-0.125 0.25-0.0625 0.46875-0.26562 0.46875-0.54688 0-0.26562-0.21875-0.34375-0.35938-0.34375-0.3125 0-0.54688 0.25-0.54688 0.57812 0 0.45312 0.48438 0.65625 0.92188 0.65625 0.67188 0 1.0312-0.70312 1.0469-0.75 0.125 0.35938 0.48438 0.75 1.0781 0.75 1.0312 0 1.5938-1.2812 1.5938-1.5312 0-0.10938-0.078125-0.10938-0.10938-0.10938-0.09375 0-0.10938 0.046875-0.14062 0.10938-0.32812 1.0781-1 1.3125-1.3125 1.3125-0.39062 0-0.54688-0.3125-0.54688-0.65625 0-0.21875 0.046875-0.4375 0.15625-0.875z" fill-opacity=".73864"/>
    </g>
    <g transform="translate(155.32 15.861)" fill-opacity=".73864">
     <path d="m4.8438-3.7969c0.046875-0.14062 0.046875-0.15625 0.046875-0.23438 0-0.17188-0.14062-0.26562-0.29688-0.26562-0.09375 0-0.25 0.0625-0.34375 0.20312-0.015625 0.0625-0.10938 0.35938-0.14062 0.54688-0.078125 0.25-0.14062 0.53125-0.20312 0.79688l-0.45312 1.7969c-0.03125 0.14062-0.46875 0.84375-1.125 0.84375-0.5 0-0.60938-0.4375-0.60938-0.8125 0-0.45312 0.17188-1.0781 0.5-1.9531 0.15625-0.40625 0.20312-0.51562 0.20312-0.71875 0-0.4375-0.3125-0.8125-0.8125-0.8125-0.95312 0-1.3125 1.4531-1.3125 1.5312 0 0.10938 0.09375 0.10938 0.10938 0.10938 0.10938 0 0.10938-0.03125 0.15625-0.1875 0.28125-0.9375 0.67188-1.2344 1.0156-1.2344 0.078125 0 0.25 0 0.25 0.3125 0 0.25-0.10938 0.51562-0.17188 0.70312-0.40625 1.0625-0.57812 1.625-0.57812 2.0938 0 0.89062 0.625 1.1875 1.2188 1.1875 0.39062 0 0.71875-0.17188 1-0.45312-0.125 0.51562-0.25 1.0156-0.64062 1.5469-0.26562 0.32812-0.64062 0.625-1.0938 0.625-0.14062 0-0.59375-0.03125-0.76562-0.42188 0.15625 0 0.29688 0 0.42188-0.125 0.10938-0.078125 0.20312-0.21875 0.20312-0.40625 0-0.3125-0.26562-0.34375-0.35938-0.34375-0.23438 0-0.5625 0.15625-0.5625 0.64062 0 0.5 0.4375 0.875 1.0625 0.875 1.0156 0 2.0469-0.90625 2.3281-2.0312z" fill-opacity=".73864"/>
    </g>
    <g fill="#c30000" fill-rule="evenodd">
     <circle cx="249.1" cy="93.975" r=".86645" fill-opacity=".63258"/>
     <circle cx="246.36" cy="73.451" r=".86645" fill-opacity=".64015"/>
     <circle cx="237.87" cy="112.59" r=".86645" fill-opacity=".59848"/>
    </g>
   </g>
   <g fill="#c30000" fill-rule="evenodd">
    <circle cx="234.11" cy="71.227" r=".86645" fill-opacity=".68182"/>
    <circle cx="224.32" cy="66.707" r=".86645" fill-opacity=".7"/>
    <circle cx="221.94" cy="59.269" r=".86645" fill-opacity=".75"/>
    <circle cx="221.22" cy="51.395" r=".86645" fill-opacity=".8"/>
    <circle cx="213.64" cy="42.409" r=".86645" fill-opacity=".82"/>
    <circle cx="209.06" cy="39.369" r=".86645" fill-opacity=".87"/>
    <circle cx="203.55" cy="40.817" r=".86645" fill-opacity=".9"/>
    <circle cx="198.93" cy="38.538" r=".86645" fill-opacity=".92"/>
    <circle cx="196.62" cy="36.003" r=".86645" fill-opacity=".95"/>
    <circle cx="194.12" cy="33.083" r=".86645" fill-opacity=".96"/>
   </g>
  </g>
  <path d="m-62.172-30.441 5.5417-8.9957 4.8758-8.1459" fill="#f00" fill-opacity=".20454" stroke="url(#linearGradient2275)" stroke-width=".38998"/>
  <g fill="#c30000" fill-opacity=".20454" stroke-width=".38998">
   <path d="m-54.901-69.188-6.0024-0.97974-4.5916-0.72299" stroke="url(#linearGradient2275-8-4)"/>
   <path d="m-67.146-71.479-5.1386-2.3491-3.1154-1.3167" stroke="url(#linearGradient2275-8-4-7)"/>
   <path d="m-76.557-76.373-1.254-4.0969-0.51216-1.7659" stroke="url(#linearGradient2275-8-4-7-8)"/>
   <path d="m-78.69-83.882-0.32368-3.9834-0.1491-2.1744" stroke="url(#linearGradient2275-8-4-7-8-4)"/>
   <path d="m-79.588-91.691c-1.5626-2.0284-5.4016-5.9635-6.6543-7.609" stroke="url(#linearGradient2275-8-4-7-8-4-2)"/>
   <path d="m-87.463-100.39c-1.8161-1.1446-1.1827-0.80098-3.3314-2.1411" stroke="url(#linearGradient2275-8-4-7-8-4-2-6)"/>
   <path d="m-97.389-101.72c-1.9697-0.85346-1.2912-0.61074-3.6196-1.6066" stroke="url(#linearGradient2275-8-4-7-8-4-2-6-56)"/>
  </g>
 </g>
 <g fill="#c30000" fill-opacity=".20454">
  <path d="m31.485 15.628c-0.51136-0.57133-0.32823-0.39179-0.93448-1.0628" stroke="url(#linearGradient2275-8-4-7-8-4-2-6-55)" stroke-width=".21828"/>
  <path d="m32.894 17.348c-0.43184-0.48327-0.27562-0.33005-0.78798-0.89797" stroke="url(#linearGradient2275-8-4-7-8-4-2-6-59)" stroke-width=".19791"/>
  <path d="m39.293 18.391c-1.3328 0.33749-0.89374 0.19524-2.4641 0.60078" stroke="url(#linearGradient2275-8-4-7-8-4-2-6-9)" stroke-width=".24977"/>
 </g>
 <path d="m65.45 52.629-0.77756-6.0952-0.80478-5.9849" fill="#f00" fill-opacity=".20454" stroke="url(#linearGradient2275-3)" stroke-width=".24977"/>
</svg>
