<?xml version="1.0" encoding="UTF-8" standalone="no"?>
<!-- Created with Inkscape (http://www.inkscape.org/) -->

<svg
   xmlns:ns0="http://www.iki.fi/pav/software/textext/"
   xmlns:dc="http://purl.org/dc/elements/1.1/"
   xmlns:cc="http://creativecommons.org/ns#"
   xmlns:rdf="http://www.w3.org/1999/02/22-rdf-syntax-ns#"
   xmlns:svg="http://www.w3.org/2000/svg"
   xmlns="http://www.w3.org/2000/svg"
   xmlns:sodipodi="http://sodipodi.sourceforge.net/DTD/sodipodi-0.dtd"
   xmlns:inkscape="http://www.inkscape.org/namespaces/inkscape"
   width="127.61311mm"
   height="108.40517mm"
   viewBox="0 0 127.61311 108.40517"
   version="1.1"
   id="svg8"
   inkscape:version="0.92.2 (5c3e80d, 2017-08-06)"
   sodipodi:docname="R_geom.svg">
  <sodipodi:namedview
     id="base"
     pagecolor="#ffffff"
     bordercolor="#666666"
     borderopacity="1.0"
     inkscape:pageopacity="0.0"
     inkscape:pageshadow="2"
     inkscape:zoom="0.90509668"
     inkscape:cx="-86.427301"
     inkscape:cy="389.31582"
     inkscape:document-units="mm"
     inkscape:current-layer="layer1"
     showgrid="false"
     inkscape:window-width="1920"
     inkscape:window-height="1017"
     inkscape:window-x="1912"
     inkscape:window-y="-8"
     inkscape:window-maximized="1"
     showguides="true"
     inkscape:guide-bbox="true"
     fit-margin-top="0"
     fit-margin-left="0"
     fit-margin-right="0"
     fit-margin-bottom="0" />
  <defs
     id="defs2">
    <marker
       inkscape:stockid="Arrow1Mend"
       orient="auto"
       refY="0"
       refX="0"
       id="marker4357"
       style="overflow:visible"
       inkscape:isstock="true">
      <path
         id="path4355"
         d="M 0,0 5,-5 -12.5,0 5,5 Z"
         style="fill:#000000;fill-opacity:0.5024155;fill-rule:evenodd;stroke:#000000;stroke-width:1.00000003pt;stroke-opacity:0.5024155"
         transform="matrix(-0.4,0,0,-0.4,-4,0)"
         inkscape:connector-curvature="0" />
    </marker>
    <marker
       inkscape:collect="always"
       inkscape:isstock="true"
       style="overflow:visible"
       id="marker3270"
       refX="0"
       refY="0"
       orient="auto"
       inkscape:stockid="Arrow1Mend">
      <path
         transform="matrix(-0.4,0,0,-0.4,-4,0)"
         style="fill:#fe0000;fill-opacity:0.71980681;fill-rule:evenodd;stroke:#fe0000;stroke-width:1.00000003pt;stroke-opacity:0.71980681"
         d="M 0,0 5,-5 -12.5,0 5,5 Z"
         id="path3268"
         inkscape:connector-curvature="0" />
    </marker>
    <marker
       inkscape:stockid="Arrow1Mend"
       orient="auto"
       refY="0"
       refX="0"
       id="marker2676"
       style="overflow:visible"
       inkscape:isstock="true"
       inkscape:collect="always">
      <path
         id="path2674"
         d="M 0,0 5,-5 -12.5,0 5,5 Z"
         style="fill:#000000;fill-opacity:1;fill-rule:evenodd;stroke:#000000;stroke-width:1.00000003pt;stroke-opacity:1"
         transform="matrix(-0.4,0,0,-0.4,-4,0)"
         inkscape:connector-curvature="0" />
    </marker>
    <marker
       inkscape:stockid="Arrow1Mend"
       orient="auto"
       refY="0"
       refX="0"
       id="marker2548"
       style="overflow:visible"
       inkscape:isstock="true">
      <path
         id="path2546"
         d="M 0,0 5,-5 -12.5,0 5,5 Z"
         style="fill:#000000;fill-opacity:0.41062802;fill-rule:evenodd;stroke:#000000;stroke-width:1.00000003pt;stroke-opacity:0.41062802"
         transform="matrix(-0.4,0,0,-0.4,-4,0)"
         inkscape:connector-curvature="0" />
    </marker>
    <marker
       inkscape:collect="always"
       inkscape:isstock="true"
       style="overflow:visible"
       id="marker1947"
       refX="0"
       refY="0"
       orient="auto"
       inkscape:stockid="Arrow1Mend">
      <path
         transform="matrix(-0.4,0,0,-0.4,-4,0)"
         style="fill:#000000;fill-opacity:1;fill-rule:evenodd;stroke:#000000;stroke-width:1.00000003pt;stroke-opacity:1"
         d="M 0,0 5,-5 -12.5,0 5,5 Z"
         id="path1945"
         inkscape:connector-curvature="0" />
    </marker>
    <marker
       inkscape:stockid="Arrow1Mend"
       orient="auto"
       refY="0"
       refX="0"
       id="marker1889"
       style="overflow:visible"
       inkscape:isstock="true"
       inkscape:collect="always">
      <path
         id="path1887"
         d="M 0,0 5,-5 -12.5,0 5,5 Z"
         style="fill:#0000ff;fill-opacity:0.52173911;fill-rule:evenodd;stroke:#0000ff;stroke-width:1.00000003pt;stroke-opacity:0.52173911"
         transform="matrix(-0.4,0,0,-0.4,-4,0)"
         inkscape:connector-curvature="0" />
    </marker>
    <marker
       inkscape:isstock="true"
       style="overflow:visible"
       id="marker1837"
       refX="0"
       refY="0"
       orient="auto"
       inkscape:stockid="Arrow1Mend"
       inkscape:collect="always">
      <path
         transform="matrix(-0.4,0,0,-0.4,-4,0)"
         style="fill:#009600;fill-opacity:0.72946861;fill-rule:evenodd;stroke:#009600;stroke-width:1.00000003pt;stroke-opacity:0.72946861"
         d="M 0,0 5,-5 -12.5,0 5,5 Z"
         id="path1835"
         inkscape:connector-curvature="0" />
    </marker>
    <marker
       inkscape:isstock="true"
       style="overflow:visible"
       id="marker1505"
       refX="0"
       refY="0"
       orient="auto"
       inkscape:stockid="Arrow1Mend">
      <path
         transform="matrix(-0.4,0,0,-0.4,-4,0)"
         style="fill:#000000;fill-opacity:1;fill-rule:evenodd;stroke:#000000;stroke-width:1.00000003pt;stroke-opacity:1"
         d="M 0,0 5,-5 -12.5,0 5,5 Z"
         id="path1503"
         inkscape:connector-curvature="0" />
    </marker>
    <marker
       inkscape:isstock="true"
       style="overflow:visible"
       id="marker1451"
       refX="0"
       refY="0"
       orient="auto"
       inkscape:stockid="Arrow1Mend">
      <path
         transform="matrix(-0.4,0,0,-0.4,-4,0)"
         style="fill:#000000;fill-opacity:0.41062802;fill-rule:evenodd;stroke:#000000;stroke-width:1.00000003pt;stroke-opacity:0.41062802"
         d="M 0,0 5,-5 -12.5,0 5,5 Z"
         id="path1449"
         inkscape:connector-curvature="0" />
    </marker>
    <marker
       inkscape:isstock="true"
       style="overflow:visible"
       id="marker1344"
       refX="0"
       refY="0"
       orient="auto"
       inkscape:stockid="Arrow1Mend">
      <path
         transform="matrix(-0.4,0,0,-0.4,-4,0)"
         style="fill:#ff27ff;fill-opacity:0.54106278;fill-rule:evenodd;stroke:#ff27ff;stroke-width:1.00000003pt;stroke-opacity:0.54106278"
         d="M 0,0 5,-5 -12.5,0 5,5 Z"
         id="path1342"
         inkscape:connector-curvature="0" />
    </marker>
  </defs>
  <metadata
     id="metadata5">
    <rdf:RDF>
      <cc:Work
         rdf:about="">
        <dc:format>image/svg+xml</dc:format>
        <dc:type
           rdf:resource="http://purl.org/dc/dcmitype/StillImage" />
        <dc:title></dc:title>
      </cc:Work>
    </rdf:RDF>
  </metadata>
  <g
     inkscape:label="Layer 1"
     inkscape:groupmode="layer"
     id="layer1"
     transform="translate(-37.40747,-48.185199)">
    <path
       style="fill:#000000;fill-opacity:0.09178742;stroke:none;stroke-width:0.26458332px;stroke-linecap:butt;stroke-linejoin:miter;stroke-opacity:1"
       d="M 112.47094,57.328516 85.536782,124.86944 112.73948,107.54171 Z"
       id="path7569"
       inkscape:connector-curvature="0" />
    <path
       style="fill:none;stroke:#000000;stroke-width:0.26458332px;stroke-linecap:butt;stroke-linejoin:miter;stroke-opacity:0.41062802;marker-end:url(#marker1451)"
       d="M 63.476512,115.12309 V 48.706608"
       id="path1441"
       inkscape:connector-curvature="0" />
    <path
       style="fill:none;stroke:#000000;stroke-width:0.31696528px;stroke-linecap:butt;stroke-linejoin:miter;stroke-opacity:1"
       d="m 41.316887,95.596223 -3.62414,53.349947 112.663503,-31.22923 2.206,-51.560778 z"
       id="path1483"
       inkscape:connector-curvature="0" />
    <path
       style="fill:none;stroke:#000000;stroke-width:0.58543509;stroke-linecap:butt;stroke-linejoin:miter;stroke-miterlimit:4;stroke-dasharray:none;stroke-opacity:1;marker-end:url(#marker1505)"
       d="M 63.476512,115.12309 111.46868,57.428743"
       id="path1485"
       inkscape:connector-curvature="0" />
    <path
       style="fill:none;stroke:#000000;stroke-width:0.62202191;stroke-linecap:butt;stroke-linejoin:miter;stroke-miterlimit:4;stroke-dasharray:none;stroke-opacity:1;marker-end:url(#marker1947)"
       d="m 63.478474,115.12502 48.258746,-7.48308"
       id="path1487"
       inkscape:connector-curvature="0" />
    <path
       style="fill:none;stroke:#0000ff;stroke-width:0.66299999;stroke-linecap:butt;stroke-linejoin:miter;stroke-miterlimit:4;stroke-dasharray:none;stroke-opacity:0.52173911;marker-end:url(#marker1889)"
       d="M 112.73948,107.54171 112.47094,57.328517"
       id="path1489"
       inkscape:connector-curvature="0" />
    <path
       style="fill:none;stroke:#ff27ff;stroke-width:0.79000002;stroke-linecap:butt;stroke-linejoin:miter;stroke-miterlimit:4;stroke-dasharray:none;stroke-opacity:0.54106278;marker-end:url(#marker1344)"
       d="m 63.502264,115.23764 20.826756,9.27847"
       id="path1813"
       inkscape:connector-curvature="0" />
    <g
       style="font-style:normal;font-variant:normal;font-weight:normal;font-stretch:normal;letter-spacing:normal;word-spacing:normal;text-anchor:start;fill:#000000;fill-opacity:1;fill-rule:evenodd;stroke:#000000;stroke-linecap:butt;stroke-linejoin:miter;stroke-miterlimit:10.43299961;stroke-dasharray:none;stroke-dashoffset:0;stroke-opacity:1"
       id="content"
       transform="matrix(2.5564914,0,0,-2.5564914,-291.34381,1973.1834)"
       xml:space="preserve"
       stroke-miterlimit="10.433"
       font-style="normal"
       font-variant="normal"
       font-weight="normal"
       font-stretch="normal"
       font-size-adjust="none"
       letter-spacing="normal"
       word-spacing="normal"
       ns0:text="$\\bar{y} \\boldsymbol{1}$\n"
       ns0:preamble="default_packages.tex"><polygon
         transform="matrix(0.24279015,0,0,0.24279015,103.5403,551.41486)"
         style="fill:#000000;stroke-width:0"
         points="153.68,712.99 150.08,712.99 150.08,712.68 153.68,712.68 "
         id="polygon2478" /><path
         style="fill:#000000;stroke-width:0"
         inkscape:connector-curvature="0"
         d="m 140.82315,724.01682 v 0.003 0 0.003 h 0.003 v 0.005 0.003 0.003 l 0.003,0.003 v 0.003 0 0.003 l 0.003,0.003 v 0.003 0.003 0 0.003 0 0.003 0.003 0 l 0.003,0.003 v 0 0.003 0.003 0.003 0.003 0.003 0.003 0 0.003 c 0,0.0437 -0.034,0.0655 -0.0704,0.0655 -0.0243,0 -0.0631,-0.0146 -0.0849,-0.0509 -0.005,-0.0121 -0.0243,-0.0874 -0.034,-0.13111 -0.017,-0.0631 -0.034,-0.12625 -0.0486,-0.1918 l -0.10925,-0.4346 c -0.01,-0.0364 -0.11411,-0.20636 -0.27435,-0.20636 -0.1214,0 -0.1481,0.10682 -0.1481,0.19665 0,0.11169 0.0412,0.25979 0.12382,0.47344 0.0388,0.0971 0.0462,0.12383 0.0462,0.17238 0,0.10926 -0.0753,0.1991 -0.19667,0.1991 -0.23065,0 -0.32048,-0.34962 -0.32048,-0.37148 0,-0.0243 0.0243,-0.0243 0.0291,-0.0243 0.0243,0 0.0267,0.005 0.0388,0.0437 0.0655,0.22579 0.16267,0.29863 0.24522,0.29863 0.0194,0 0.0607,0 0.0607,-0.0777 0,-0.0607 -0.0243,-0.12381 -0.0412,-0.16995 -0.0971,-0.25492 -0.14081,-0.39332 -0.14081,-0.505 0,-0.21609 0.15295,-0.28649 0.2962,-0.28649 0.0947,0 0.17481,0.0389 0.24279,0.10683 -0.0315,-0.12382 -0.0607,-0.24279 -0.15539,-0.37147 -0.0655,-0.0826 -0.15538,-0.15053 -0.26707,-0.15053 -0.034,0 -0.14324,0.007 -0.18452,0.0995 0.0388,0 0.0705,0 0.1044,0.0291 0.0243,0.0219 0.0486,0.0534 0.0486,0.0995 0,0.0752 -0.0655,0.0849 -0.0898,0.0849 -0.0558,0 -0.13597,-0.0389 -0.13597,-0.15781 0,-0.11897 0.10683,-0.2088 0.25736,-0.2088 0.24764,0 0.49772,0.2185 0.5657,0.49043 z"
         id="path2480" /><path
         style="fill:#000000;stroke-width:0"
         inkscape:connector-curvature="0"
         d="m 141.99043,724.44193 v 0.005 0.005 0.005 0.005 0.005 0.003 0.005 0.005 0.003 0.003 l -0.003,0.005 v 0.003 0.003 l -0.003,0.003 v 0.003 l -0.003,0.003 v 0.003 l -0.003,0.003 -0.003,0.003 -0.003,0.003 -0.003,0.003 h -0.003 l -0.003,0.003 v 0 h -0.003 -0.003 v 0.003 h -0.003 -0.003 v 0 h -0.003 -0.003 l -0.003,0.003 h -0.003 -0.003 -0.003 -0.003 -0.003 -0.003 -0.003 -0.003 -0.003 c -0.0268,0 -0.0316,0 -0.0534,-0.0169 -0.18695,-0.13597 -0.43702,-0.13597 -0.48801,-0.13597 h -0.0486 v -0.11411 h 0.0486 c 0.0389,0 0.17239,0.003 0.31563,0.0486 v -1.24794 h -0.33748 v -0.11169 c 0.10683,0.007 0.36418,0.007 0.48315,0.007 0.11654,0 0.3739,0 0.48073,-0.007 v 0.11169 h -0.33991 z"
         id="path2482" /></g>    <path
       inkscape:connector-curvature="0"
       id="path2666"
       d="m 63.478473,115.12502 -25.79347,41.02394"
       style="fill:none;stroke:#000000;stroke-width:0.26458332px;stroke-linecap:butt;stroke-linejoin:miter;stroke-opacity:0.41062802;marker-end:url(#marker2676)" />
    <path
       inkscape:connector-curvature="0"
       id="path2712"
       d="M 63.478473,115.12502 H 164.44406"
       style="fill:none;stroke:#000000;stroke-width:0.29255015px;stroke-linecap:butt;stroke-linejoin:miter;stroke-opacity:0.41062802;marker-end:url(#marker2548)" />
    <g
       ns0:preamble="default_packages.tex"
       ns0:text="$\\text{Observed} \\mathbf{y}$\n"
       word-spacing="normal"
       letter-spacing="normal"
       font-size-adjust="none"
       font-stretch="normal"
       font-weight="normal"
       font-variant="normal"
       font-style="normal"
       stroke-miterlimit="10.433"
       xml:space="preserve"
       transform="matrix(1.2284039,1.9647632,1.8299001,-1.3189369,-1485.8117,734.82958)"
       id="g2776"
       style="font-style:normal;font-variant:normal;font-weight:normal;font-stretch:normal;letter-spacing:normal;word-spacing:normal;text-anchor:start;fill:#000000;fill-opacity:1;fill-rule:evenodd;stroke:#000000;stroke-linecap:butt;stroke-linejoin:miter;stroke-miterlimit:10.43299961;stroke-dasharray:none;stroke-dashoffset:0;stroke-opacity:1"><path
         id="path2758"
         d="m 159.8606,747.47089 -0.0445,0.0306 -0.0481,0.0254 -0.0457,0.0237 -0.0469,0.0221 -0.0469,0.0221 -0.0479,0.0157 -0.0479,0.0156 -0.0496,0.0132 -0.0488,0.009 -0.0465,0.008 -0.0504,0.007 -0.0473,7e-4 -0.0497,0.003 -0.0468,-0.002 -0.0481,-0.004 -0.0482,-0.004 -0.0458,-0.006 -0.045,-0.0112 -0.0466,-0.0131 -0.0442,-0.0148 -0.0459,-0.0171 -0.0397,-0.0178 -0.0429,-0.0222 -0.0389,-0.0216 -0.0405,-0.0239 -0.0398,-0.0279 -0.0351,-0.031 -0.0351,-0.0312 -0.0351,-0.0312 -0.0304,-0.0343 -0.0295,-0.0384 -0.0295,-0.0384 0.0587,-0.0402 c 0.14017,0.2039 0.53615,0.42571 1.13225,0.0176 0.61723,-0.42258 0.59427,-0.87906 0.44645,-1.09497 v 0 c -0.15411,-0.2254 -0.57446,-0.39604 -1.18231,0.0201 -0.60548,0.41454 -0.52976,0.86248 -0.39639,1.05726 l -0.0589,0.0404 c -0.28608,-0.41769 -0.15866,-1.03228 0.32244,-1.36165 0.47636,-0.32625 1.08763,-0.21379 1.37199,0.20164 0.29265,0.42697 0.16262,1.03303 -0.30677,1.35436 z"
         inkscape:connector-curvature="0"
         style="fill:#000000;stroke-width:0" /><path
         id="path2760"
         d="m 160.13775,748.06703 -0.73926,0.5061 -0.20558,-0.35559 0.0727,-0.0501 c 0.11231,0.16441 0.14176,0.17181 0.25439,0.0948 l 1.38937,-0.95114 0.0402,0.0587 c -6.7e-4,0.004 -0.0185,0.0435 -0.0853,0.18253 0.0782,-0.002 0.26056,0.0177 0.37783,0.18942 l -0.0556,0.0243 c -0.0721,-0.10572 -0.1849,-0.14916 -0.31028,-0.14603 -0.0718,5e-4 -0.0789,0.006 -0.12104,0.0346 v 0 l -0.47867,0.32789 c -0.0445,0.0307 -0.0469,0.0323 -0.0668,0.0836 -0.0687,0.18151 -7.6e-4,0.3211 0.0377,0.37739 0.0721,0.10572 0.19116,0.14834 0.3189,0.14367 0.13795,-0.005 0.27421,-0.0878 0.37046,-0.15366 0.0865,-0.0598 0.222,-0.15907 0.28111,-0.29928 0.0391,-0.0991 0.0553,-0.24131 -0.0313,-0.36802 l 0.0556,-0.0243 c 0.191,0.27941 0.13063,0.6792 -0.16976,0.88484 -0.29568,0.20248 -0.68549,0.13152 -0.86865,-0.13601 -0.12542,-0.18298 -0.0825,-0.35713 -0.0659,-0.42361 z"
         inkscape:connector-curvature="0"
         style="fill:#000000;stroke-width:0" /><path
         id="path2762"
         d="m 161.51123,749.15694 0.003,0.004 0.007,0.005 0.005,0.007 0.007,0.005 0.007,0.005 0.009,0.007 0.009,0.007 0.007,0.005 0.0106,0.01 0.009,0.007 0.0114,0.006 0.0114,0.006 0.0106,0.01 0.0138,0.005 0.0132,0.009 0.0114,0.006 0.0138,0.005 0.0149,0.008 0.0139,0.005 0.0138,0.005 0.0117,0.003 0.0157,0.004 0.0145,4.8e-4 0.0158,0.003 0.0151,-0.003 0.008,10e-4 0.008,-0.003 0.006,-7.1e-4 0.008,-0.003 0.006,-7.1e-4 0.008,-0.003 0.008,-0.003 0.006,-7.1e-4 0.007,-0.005 0.008,-0.003 0.007,-0.005 0.009,-0.007 0.008,-0.003 0.007,-0.005 c 0.11967,-0.082 0.15733,-0.22835 0.032,-0.41141 -0.13525,-0.19693 -0.32658,-0.19005 -0.55657,-0.0982 -0.0329,0.0123 -0.044,0.0164 -0.0583,-0.005 -0.0225,-0.0328 -0.006,-0.044 0.0337,-0.0716 l 0.30963,-0.21231 c 0.0375,-0.0257 0.0538,-0.0372 0.0716,-0.0111 0.01,0.014 0.007,0.0156 -0.004,0.0891 -0.001,0.008 -0.006,0.0114 -0.0216,0.0839 0.16699,0.037 0.24157,0.14138 0.27533,0.19067 0.18444,0.27014 0.10377,0.4839 -0.0652,0.59957 -0.12201,0.0837 -0.24067,0.0613 -0.28809,0.0525 -0.12815,-0.0262 -0.20956,-0.10464 -0.29582,-0.19042 -0.11575,-0.11375 -0.2516,-0.25171 -0.38772,-0.1585 -0.082,0.0566 -0.13659,0.18313 0.002,0.38496 0.17625,0.25851 0.39599,0.12533 0.4719,0.0805 0.0226,-0.0122 0.0371,0.01 0.0403,0.0141 0.0209,0.0305 0.007,0.0402 -0.0355,0.0691 l -0.23702,0.16231 c -0.04,0.0274 -0.0562,0.0388 -0.074,0.0127 -0.008,-0.0117 -0.0112,-0.0165 -0.004,-0.0662 0.005,-0.0138 0.01,-0.0514 0.0102,-0.0656 -0.12674,-0.0442 -0.19267,-0.1404 -0.21677,-0.1756 -0.19591,-0.28639 -0.0998,-0.48315 0.032,-0.5731 0.0796,-0.055 0.17281,-0.0598 0.26622,-0.0341 0.11242,0.0334 0.17151,0.0894 0.32004,0.23589 z"
         inkscape:connector-curvature="0"
         style="fill:#000000;stroke-width:0" /><path
         id="path2764"
         d="m 161.89996,749.91106 -0.0477,0.0361 c -0.33767,0.25192 -0.26142,0.48918 -0.20679,0.56899 0.16559,0.24166 0.49603,0.0499 0.58757,-0.0128 l -0.38118,-0.55592 0.0477,-0.0361 0.44668,0.65242 c 0.0355,0.0515 0.0402,0.0587 -0.01,0.0923 -0.23003,0.15739 -0.5444,0.18658 -0.74363,-0.10438 -0.18609,-0.27246 -0.0909,-0.6513 0.20016,-0.85054 0.31195,-0.21395 0.70454,-0.12385 0.88924,0.14647 0.19592,0.28639 0.009,0.56633 -0.0361,0.59684 -0.0235,0.0162 -0.0409,10e-6 -0.049,-0.0114 -0.0144,-0.0211 -0.004,-0.0355 0.0126,-0.053 0.18709,-0.2453 0.0425,-0.4565 0.0264,-0.47997 -0.0803,-0.11733 -0.21498,-0.16303 -0.33879,-0.15756 -0.16084,0.007 -0.31338,0.11119 -0.3979,0.16898 z"
         inkscape:connector-curvature="0"
         style="fill:#000000;stroke-width:0" /><path
         id="path2766"
         d="m 162.46702,751.24282 -0.2585,0.17625 -0.19755,-0.34388 0.0726,-0.05 c 0.11231,0.16439 0.14177,0.17179 0.25676,0.093 l 0.62425,-0.42741 c 0.10572,-0.0721 0.088,-0.098 -0.0198,-0.25538 l 0.0702,-0.0483 c 0.0606,0.0929 0.13111,0.20668 0.17611,0.27237 0.0647,0.0935 0.14019,0.20391 0.21072,0.2935 l -0.0702,0.0483 -0.0339,-0.0492 c -0.11887,-0.1737 -0.14789,-0.16072 -0.23241,-0.10285 l -0.35902,0.24593 c -0.23004,0.15738 -0.37138,0.39901 -0.25087,0.57501 0.0112,0.0165 0.0144,0.0211 0.0196,0.0244 -0.003,-0.008 -0.004,-0.0726 0.0561,-0.11431 0.0656,-0.0451 0.13307,-0.0221 0.1684,0.0295 0.029,0.0423 0.041,0.12019 -0.0337,0.17169 -0.075,0.0516 -0.19297,0.0252 -0.26208,-0.0756 -0.11557,-0.16905 -0.0163,-0.36112 0.0625,-0.46301 z"
         inkscape:connector-curvature="0"
         style="fill:#000000;stroke-width:0" /><path
         id="path2768"
         d="m 163.48973,752.74172 -0.003,0.006 -0.005,0.007 -0.003,0.006 -0.005,0.007 -0.003,0.006 -0.004,0.0101 -0.003,0.006 -0.005,0.007 -0.003,0.0101 -0.005,0.007 -0.001,0.008 -0.004,0.0101 -0.004,0.0101 -0.003,0.0101 -0.001,0.008 -0.003,0.0117 1.7e-4,0.0108 -0.003,0.0101 -7.1e-4,0.01 0.001,0.0128 -0.003,0.0117 -7.3e-4,0.0101 0.001,0.0128 0.004,0.0111 0.001,0.0128 0.005,0.0134 0.003,0.0152 0.005,0.0134 0.005,0.0134 0.005,0.007 0.003,0.004 0.005,0.007 0.003,0.008 0.005,0.007 0.005,0.007 -0.0726,0.05 c -0.0319,-0.0573 -0.0765,-0.12686 -0.11341,-0.18088 -0.0388,-0.0562 -0.11561,-0.15869 -0.14514,-0.19706 l 0.0726,-0.05 c 0.0598,0.0831 0.13186,0.0718 0.17643,0.0412 0.0211,-0.0144 0.0273,-0.0254 0.0467,-0.0526 l 0.43148,-0.64351 -0.83004,0.18221 c -0.0402,0.007 -0.0449,0.01 -0.0496,0.0131 -0.061,0.0419 0.002,0.13332 0.0306,0.17554 l -0.0726,0.05 c -0.046,-0.0719 -0.13111,-0.20667 -0.16808,-0.26062 -0.0435,-0.0633 -0.10981,-0.15576 -0.16154,-0.2203 l 0.0727,-0.05 c 0.0992,0.14581 0.12018,0.14521 0.21376,0.12592 l 1.05981,-0.22921 c 0.0402,-0.007 0.0551,-0.0101 0.076,0.0202 0.0209,0.0305 0.009,0.0529 -0.009,0.0782 z"
         inkscape:connector-curvature="0"
         style="fill:#000000;stroke-width:0" /><path
         id="path2770"
         d="m 164.03846,753.03476 -0.0476,0.036 c -0.33767,0.25192 -0.26141,0.48918 -0.20679,0.56898 0.16559,0.24166 0.49444,0.0476 0.58598,-0.0152 l -0.37954,-0.5536 0.0476,-0.036 0.44667,0.65241 c 0.0355,0.0515 0.0402,0.0587 -0.01,0.0924 -0.23004,0.15738 -0.54441,0.18657 -0.74363,-0.10448 -0.18609,-0.27245 -0.0924,-0.65364 0.19854,-0.85287 0.31196,-0.21394 0.70615,-0.12151 0.89084,0.14878 0.19428,0.28407 0.008,0.56632 -0.0361,0.59683 -0.0235,0.0162 -0.0409,0 -0.049,-0.0114 -0.0144,-0.0211 -0.004,-0.0355 0.0126,-0.053 0.18551,-0.24763 0.0425,-0.45651 0.0264,-0.47998 -0.0803,-0.11733 -0.21499,-0.16302 -0.33879,-0.15756 -0.16084,0.007 -0.31338,0.11118 -0.3979,0.16897 z"
         inkscape:connector-curvature="0"
         style="fill:#000000;stroke-width:0" /><path
         id="path2772"
         d="m 165.59153,754.42222 0.15278,-0.10412 0.21042,0.36263 -0.0702,0.0483 c -0.11231,-0.1644 -0.14176,-0.17179 -0.25674,-0.093 l -1.41516,0.96883 -0.20559,-0.35559 0.0727,-0.05 c 0.1123,0.1644 0.14175,0.17181 0.2544,0.0947 l 0.50481,-0.34511 c -0.13105,-0.0104 -0.26119,-0.0694 -0.34635,-0.19375 l 0.0563,-0.0286 c 0.0566,0.082 0.15893,0.1566 0.31434,0.15706 0.0575,-10e-4 0.0622,-0.005 0.10446,-0.0337 v 0 l 0.47634,-0.32627 c 0.0423,-0.029 0.0468,-0.0323 0.0692,-0.0852 0.0645,-0.14752 0.0437,-0.2885 -0.0253,-0.3894 -0.0705,-0.10346 -0.18952,-0.14601 -0.31729,-0.14126 -0.13804,0.005 -0.27428,0.0877 -0.37047,0.15364 -0.0865,0.0598 -0.222,0.15908 -0.28112,0.2993 -0.0391,0.0991 -0.0553,0.24128 0.0298,0.36568 l -0.0563,0.0287 c -0.18936,-0.27708 -0.1283,-0.6808 0.17217,-0.88645 0.2957,-0.20248 0.68317,-0.12991 0.86632,0.1376 0.10083,0.14813 0.0961,0.30651 0.0612,0.41659 z"
         inkscape:connector-curvature="0"
         style="fill:#000000;stroke-width:0" /><path
         id="path2774"
         d="m 166.26153,757.00695 -0.004,0.0102 -0.003,0.006 -6.8e-4,0.004 -0.002,0.002 -6.7e-4,0.004 -6.9e-4,0.004 -6.8e-4,0.004 -6.9e-4,0.004 -6.7e-4,0.004 -6.8e-4,0.004 -6.9e-4,0.004 0.003,0.004 -6.8e-4,0.004 7e-4,0.006 0.003,0.004 7e-4,0.006 0.003,0.004 0.003,0.008 0.003,0.004 7.1e-4,0.006 0.002,0.002 0.003,0.004 0.002,0.002 0.003,0.004 7.1e-4,0.006 0.003,0.004 0.002,0.002 0.003,0.004 0.003,0.004 0.003,0.004 0.005,0.007 0.003,0.004 7e-4,0.006 0.003,0.004 0.005,0.007 0.003,0.004 0.005,0.007 0.005,0.007 0.003,0.004 0.005,0.007 0.005,0.007 -0.11034,0.0754 c -0.0336,-0.0598 -0.0797,-0.13155 -0.11823,-0.18789 -0.0402,-0.0587 -0.11726,-0.16102 -0.15334,-0.20869 l 0.11034,-0.0754 c 0.003,0.004 0.0754,0.11035 0.10364,0.0911 0.002,-0.002 0.0193,-0.027 0.02,-0.0311 l 0.38786,-0.66192 -0.83301,0.13254 0.0869,0.12663 -0.11035,0.0754 c -0.0484,-0.0808 -0.19062,-0.29346 -0.19062,-0.29346 -0.0451,-0.0657 -0.12218,-0.16798 -0.19024,-0.26271 l 0.11035,-0.0754 0.10247,0.15044 1.22352,-0.19652 0.0757,-0.1311 c 0.0774,-0.12872 0.18314,-0.31149 0.0706,-0.47579 -0.0225,-0.0328 -0.0279,-0.0361 -0.0479,-0.0499 0.006,0.0275 0.0115,0.10237 -0.0706,0.15862 -0.0772,0.0532 -0.1723,0.0352 -0.227,-0.0443 -0.0451,-0.0657 -0.047,-0.16429 0.0443,-0.227 0.11733,-0.0803 0.28908,-0.036 0.38547,0.10492 0.12214,0.17833 0.0722,0.41249 -0.0187,0.5674 z"
         inkscape:connector-curvature="0"
         style="fill:#000000;stroke-width:0" /></g>    <g
       style="font-style:normal;font-variant:normal;font-weight:normal;font-stretch:normal;letter-spacing:normal;word-spacing:normal;text-anchor:start;fill:#000000;fill-opacity:1;fill-rule:evenodd;stroke:#000000;stroke-linecap:butt;stroke-linejoin:miter;stroke-miterlimit:10.43299961;stroke-dasharray:none;stroke-dashoffset:0;stroke-opacity:1"
       id="g3461"
       transform="matrix(2.8542174,0.04050754,0.04050754,-2.8542174,-375.15896,2184.1043)"
       xml:space="preserve"
       stroke-miterlimit="10.433"
       font-style="normal"
       font-variant="normal"
       font-weight="normal"
       font-stretch="normal"
       font-size-adjust="none"
       letter-spacing="normal"
       word-spacing="normal"
       ns0:text="$\\text{Fitted} \\hat{\\mathbf{y}}$\n"
       ns0:preamble="default_packages.tex"><path
         style="fill:#000000;stroke-width:0"
         inkscape:connector-curvature="0"
         d="m 150.40048,730.09441 -1.06641,-0.20564 0.0116,-0.0603 0.0467,0.009 c 0.14984,0.0289 0.15785,0.008 0.17137,-0.0618 l 0.19513,-1.0119 c 0.0135,-0.0701 0.0137,-0.0922 -0.13609,-0.12111 l -0.0467,-0.009 0.0113,-0.0584 c 0.0669,0.0191 0.21874,0.0483 0.29463,0.063 0.0798,0.0154 0.25492,0.0492 0.32614,0.0567 l -0.0113,0.0584 -0.0642,-0.0124 c -0.18294,-0.0353 -0.18782,-0.01 -0.20094,0.0581 l -0.0916,0.47481 0.16541,0.0319 c 0.18682,0.0361 0.21791,-0.0204 0.24981,-0.18595 l 0.0487,0.009 -0.0987,0.51179 -0.0487,-0.009 c 0.0312,-0.16151 0.024,-0.22948 -0.16275,-0.26551 l -0.1654,-0.0319 -0.0942,0.48844 c -0.0124,0.0642 -0.011,0.0786 0.0784,0.0959 l 0.23352,0.045 c 0.2919,0.0563 0.36118,-0.0414 0.44374,-0.30196 l 0.0467,0.009 z"
         id="path3443" /><path
         style="fill:#000000;stroke-width:0"
         inkscape:connector-curvature="0"
         d="m 150.96774,729.72747 -0.26637,-0.0735 0.0116,-0.0603 c 0.12455,0.0239 0.1443,0.0157 0.1627,-0.0797 l 0.10019,-0.51957 c 0.0169,-0.0876 -0.005,-0.0917 -0.1349,-0.11684 l 0.0113,-0.0584 c 0.0619,0.014 0.1662,0.0383 0.2129,0.0472 0.0681,0.0131 0.13698,0.0223 0.20353,0.0331 l -0.0113,0.0584 c -0.12843,-0.0248 -0.13808,-0.0166 -0.15273,0.0593 z"
         id="path3445" /><path
         style="fill:#000000;stroke-width:0"
         inkscape:connector-curvature="0"
         d="m 150.91098,730.06368 -0.002,0.006 -0.002,0.006 -0.003,0.005 -0.002,0.006 -0.003,0.003 -0.002,0.006 -0.003,0.005 -0.003,0.003 -0.003,0.003 -0.005,0.005 -0.003,0.003 -0.003,0.003 -0.005,0.003 -0.003,0.003 -0.005,0.003 -0.005,0.003 -0.004,0.002 -0.005,0.003 -0.004,0.002 -0.005,0.003 -0.004,0.002 -0.004,0.002 -0.004,0.002 -0.006,6.7e-4 -0.004,0.002 -0.006,6.7e-4 -0.004,0.002 -0.006,-0.002 -0.004,0.002 -0.006,-0.002 -0.004,-6.7e-4 -0.006,-0.002 c -0.0603,-0.0116 -0.093,-0.0724 -0.0832,-0.12303 0.01,-0.0506 0.0624,-0.0929 0.12264,-0.0813 0.0545,0.0105 0.0953,0.0608 0.0836,0.12109 z"
         id="path3447" /><path
         style="fill:#000000;stroke-width:0"
         inkscape:connector-curvature="0"
         d="m 151.51475,729.7482 0.27633,0.0533 -0.0116,0.0603 -0.27633,-0.0533 -0.0683,0.35416 -0.0487,-0.009 c 0.0284,-0.15801 0.01,-0.37553 -0.17934,-0.42009 l 0.008,-0.0428 0.1654,0.032 0.10282,-0.5332 c 0.0458,-0.23741 0.23126,-0.22586 0.30132,-0.21236 0.13622,0.0262 0.16444,0.173 0.14042,0.29754 l -0.0211,0.10897 -0.0487,-0.009 0.0203,-0.10508 c 0.0278,-0.144 -0.0163,-0.22921 -0.0864,-0.24271 -0.13038,-0.0252 -0.16453,0.15193 -0.1709,0.18502 z"
         id="path3449" /><path
         style="fill:#000000;stroke-width:0"
         inkscape:connector-curvature="0"
         d="m 152.26785,729.89341 0.27826,0.0537 -0.0116,0.0603 -0.27828,-0.0537 -0.0683,0.35417 -0.0487,-0.009 c 0.0284,-0.158 0.01,-0.37552 -0.17741,-0.41971 l 0.008,-0.0428 0.1654,0.0319 0.10283,-0.53319 c 0.0458,-0.2374 0.22931,-0.22624 0.29936,-0.21272 0.13817,0.0267 0.16639,0.17336 0.14237,0.29791 l -0.0211,0.10896 -0.0487,-0.009 0.0203,-0.10508 c 0.0278,-0.14399 -0.0163,-0.2292 -0.0883,-0.24308 -0.13037,-0.0252 -0.16453,0.15194 -0.17091,0.18502 z"
         id="path3451" /><path
         style="fill:#000000;stroke-width:0"
         inkscape:connector-curvature="0"
         d="m 152.96527,729.68881 -0.006,0.0413 c -0.0439,0.29026 0.11022,0.37043 0.17638,0.38318 0.19849,0.0383 0.26824,-0.21873 0.28288,-0.29462 l -0.45926,-0.0886 0.006,-0.0413 0.54098,0.10433 c 0.0428,0.008 0.0487,0.009 0.0407,0.0503 -0.0367,0.19071 -0.17826,0.3592 -0.41956,0.31267 -0.22573,-0.0435 -0.36611,-0.27849 -0.31958,-0.51979 0.0499,-0.25881 0.29026,-0.40623 0.51405,-0.36307 0.23545,0.0454 0.28176,0.27635 0.27462,0.31332 -0.004,0.0195 -0.0201,0.0204 -0.0298,0.0185 -0.0175,-0.003 -0.0192,-0.0158 -0.0201,-0.0321 -0.0294,-0.21357 -0.20266,-0.24697 -0.22406,-0.2511 -0.0953,-0.0184 -0.18445,0.025 -0.24308,0.0884 -0.0764,0.0821 -0.1008,0.20864 -0.11431,0.27868 z"
         id="path3453" /><path
         style="fill:#000000;stroke-width:0"
         inkscape:connector-curvature="0"
         d="m 154.41453,729.61508 0.0244,-0.12649 0.27999,0.0762 -0.0113,0.0584 c -0.13428,-0.0259 -0.15246,-0.0154 -0.17085,0.0801 l -0.22628,1.17343 -0.27611,-0.0754 0.0116,-0.0603 c 0.13622,0.0262 0.15441,0.0157 0.17243,-0.0778 l 0.0807,-0.41838 c -0.0699,0.0592 -0.16338,0.0936 -0.26846,0.0734 l 0.0161,-0.0413 c 0.0681,0.0131 0.15547,-3.2e-4 0.23267,-0.0762 0.0278,-0.029 0.0285,-0.0329 0.0354,-0.0678 v 0 l 0.0762,-0.39503 c 0.007,-0.035 0.008,-0.0389 -0.008,-0.0761 -0.0404,-0.10467 -0.11968,-0.16436 -0.20336,-0.1805 -0.0876,-0.0169 -0.16738,0.0202 -0.2264,0.0855 -0.066,0.07 -0.0928,0.17788 -0.10819,0.25766 -0.0139,0.072 -0.032,0.18758 0.005,0.28564 0.0312,0.0686 0.0908,0.14669 0.19589,0.16695 l -0.0161,0.0413 c -0.22767,-0.0439 -0.39523,-0.27401 -0.3472,-0.5231 0.0473,-0.24519 0.27477,-0.39912 0.49466,-0.35672 0.12455,0.024 0.19972,0.1051 0.23637,0.17678 z"
         id="path3455" /><polygon
         style="fill:#000000;stroke-width:0"
         transform="matrix(0.19459763,0.03752517,-0.03752517,0.19459763,147.49691,585.55481)"
         points="177.64,712.63 178.8,713.64 179.95,712.63 180.13,712.81 178.8,714.16 177.46,712.81 "
         id="polygon3457" /><path
         style="fill:#000000;stroke-width:0"
         inkscape:connector-curvature="0"
         d="m 155.99226,730.65217 6.8e-4,0.006 0.003,0.005 -3.8e-4,0.002 0.002,0.003 0.002,0.003 0.002,0.003 -3.7e-4,0.002 0.002,0.003 0.003,0.003 0.002,0.003 0.002,0.003 0.002,3.8e-4 0.003,0.003 0.003,0.003 0.004,6.7e-4 0.003,0.003 0.004,6.7e-4 0.003,0.003 0.006,0.002 0.002,0.003 0.004,6.7e-4 0.002,3.8e-4 0.004,6.8e-4 0.004,6.7e-4 0.002,0.003 0.004,6.7e-4 0.004,6.7e-4 0.004,6.8e-4 0.004,6.7e-4 0.004,6.6e-4 0.004,6.8e-4 0.004,6.7e-4 0.005,0.003 0.004,6.7e-4 0.006,0.002 0.004,6.7e-4 0.006,0.002 0.004,6.7e-4 0.006,0.002 0.006,0.002 0.006,0.002 -0.0176,0.0915 c -0.0459,-0.0129 -0.10393,-0.0262 -0.15259,-0.0356 -0.0487,-0.009 -0.13698,-0.0223 -0.17823,-0.0282 l 0.0177,-0.0914 c 0.004,6.6e-4 0.0915,0.0176 0.096,-0.006 3.8e-4,-0.002 -0.003,-0.0229 -0.005,-0.0252 l -0.13027,-0.5176 -0.3477,0.47388 0.10508,0.0202 -0.0176,0.0915 c -0.0634,-0.0163 -0.23822,-0.0521 -0.24016,-0.0525 -0.0545,-0.0105 -0.14282,-0.0234 -0.22299,-0.0368 l 0.0176,-0.0915 0.12456,0.024 0.51174,-0.69655 -0.0268,-0.10203 c -0.0248,-0.10167 -0.062,-0.24405 -0.20011,-0.2707 -0.0272,-0.005 -0.0315,-0.004 -0.0482,-0.002 0.016,0.0112 0.0559,0.0452 0.0428,0.1132 -0.0124,0.0642 -0.0681,0.10192 -0.13426,0.0892 -0.0545,-0.0105 -0.10378,-0.0584 -0.0891,-0.13426 0.0188,-0.0973 0.12561,-0.15944 0.24236,-0.13694 0.14985,0.0289 0.23982,0.16937 0.27098,0.29042 z"
         id="path3459" /></g>    <g
       ns0:preamble="default_packages.tex"
       ns0:text="$\\mathcal{C}(X)$\n"
       word-spacing="normal"
       letter-spacing="normal"
       font-size-adjust="none"
       font-stretch="normal"
       font-weight="normal"
       font-variant="normal"
       font-style="normal"
       stroke-miterlimit="10.433"
       xml:space="preserve"
       transform="matrix(0.553526,0,0,-0.553526,57.086446,465.2461)"
       id="g3613"
       style="font-style:normal;font-variant:normal;font-weight:normal;font-stretch:normal;letter-spacing:normal;word-spacing:normal;text-anchor:start;fill:#000000;fill-opacity:1;fill-rule:evenodd;stroke:#000000;stroke-linecap:butt;stroke-linejoin:miter;stroke-miterlimit:10.43299961;stroke-dasharray:none;stroke-dashoffset:0;stroke-opacity:1"><path
         id="path3605"
         d="m 153.66,708.68 v 0.01 0 0 0.01 0 0 0 0 l -0.01,0.01 v 0 0.01 0 0 l -0.01,0.01 v 0 0 0.01 h -0.01 v 0 0 h -0.01 v 0.01 0 h -0.01 v 0 h -0.01 v 0 h -0.01 v 0 0 h -0.01 v 0 h -0.01 v 0 h -0.01 c -0.17,0 -0.41,-0.15 -0.42,-0.15 -0.2,-0.12 -0.24,-0.19 -0.36,-0.36 -0.31,-0.47 -0.75,-0.81 -1.4,-0.81 -0.89,0 -1.7,0.65 -1.7,2.14 0,0.89 0.36,2.08 0.89,2.86 0.44,0.64 0.97,1.15 2,1.15 0.38,0 0.62,-0.14 0.62,-0.5 0,-0.35 -0.37,-1.06 -0.49,-1.26 -0.06,-0.11 -0.06,-0.12 -0.06,-0.15 0,-0.07 0.05,-0.07 0.11,-0.07 0.2,0 0.57,0.22 0.69,0.38 0.02,0.04 0.6,1.02 0.6,1.52 0,0.55 -0.45,0.63 -0.81,0.63 -1.45,0 -2.63,-0.95 -3.09,-1.5 -1.19,-1.43 -1.31,-2.97 -1.31,-3.49 0,-1.45 0.74,-2.25 1.9,-2.25 1.6,0 2.93,1.55 2.93,1.79 z"
         inkscape:connector-curvature="0"
         style="fill:#000000;stroke-width:0" /><path
         id="path3607"
         d="m 157.84,704.74 v 0.01 0 0 0.01 0 0 0.01 h -0.01 v 0 0.01 0 0.01 h -0.01 v 0.01 h -0.01 v 0.01 l -0.01,0.01 v 0 0.01 h -0.01 v 0.01 h -0.01 v 0 0.01 h -0.01 v 0.01 h -0.01 v 0.01 h -0.01 v 0.01 h -0.01 v 0.01 l -0.01,0.01 v 0 l -0.01,0.01 -0.01,0.01 v 0 l -0.01,0.01 -0.01,0.01 v 0 l -0.01,0.01 -0.01,0.01 c -1.25,1.25 -1.57,3.13 -1.57,4.65 0,1.73 0.38,3.46 1.61,4.7 0.13,0.12 0.13,0.14 0.13,0.17 0,0.07 -0.04,0.1 -0.1,0.1 -0.1,0 -1,-0.68 -1.59,-1.94 -0.5,-1.09 -0.62,-2.2 -0.62,-3.03 0,-0.78 0.11,-1.98 0.65,-3.1 0.6,-1.22 1.46,-1.87 1.56,-1.87 0.06,0 0.1,0.03 0.1,0.1 z"
         inkscape:connector-curvature="0"
         style="fill:#000000;stroke-width:0" /><path
         id="path3609"
         d="m 163.25,711.21 -0.84,1.97 c -0.03,0.08 -0.05,0.12 -0.05,0.13 0,0.06 0.17,0.25 0.59,0.29 0.1,0.01 0.2,0.02 0.2,0.19 0,0.12 -0.12,0.12 -0.15,0.12 -0.41,0 -0.84,-0.03 -1.26,-0.03 -0.25,0 -0.86,0.03 -1.11,0.03 -0.06,0 -0.18,0 -0.18,-0.2 0,-0.11 0.1,-0.11 0.23,-0.11 0.59,0 0.66,-0.1 0.75,-0.32 l 1.17,-2.77 -2.1,-2.25 -0.13,-0.11 c -0.49,-0.53 -0.96,-0.69 -1.47,-0.72 -0.13,-0.01 -0.22,-0.01 -0.22,-0.2 0,-0.01 0,-0.1 0.13,-0.1 0.3,0 0.63,0.03 0.94,0.03 0.37,0 0.76,-0.03 1.12,-0.03 0.06,0 0.18,0 0.18,0.19 0,0.1 -0.1,0.11 -0.12,0.11 -0.09,0.01 -0.4,0.03 -0.4,0.31 0,0.16 0.15,0.32 0.27,0.45 l 1.01,1.07 0.9,0.97 1.01,-2.37 c 0.04,-0.11 0.05,-0.12 0.05,-0.14 0,-0.08 -0.19,-0.25 -0.58,-0.29 -0.11,-0.01 -0.2,-0.02 -0.2,-0.19 0,-0.11 0.11,-0.11 0.15,-0.11 0.28,0 0.98,0.03 1.26,0.03 0.25,0 0.85,-0.03 1.1,-0.03 0.07,0 0.19,0 0.19,0.18 0,0.12 -0.1,0.12 -0.18,0.12 -0.66,0.01 -0.69,0.04 -0.86,0.44 -0.38,0.92 -1.05,2.47 -1.28,3.07 0.68,0.7 1.72,1.88 2.04,2.15 0.29,0.24 0.67,0.48 1.27,0.51 0.13,0.01 0.22,0.01 0.22,0.2 0,0.01 0,0.11 -0.13,0.11 -0.3,0 -0.63,-0.03 -0.94,-0.03 -0.37,0 -0.75,0.03 -1.1,0.03 -0.06,0 -0.19,0 -0.19,-0.2 0,-0.07 0.05,-0.1 0.11,-0.11 0.09,-0.01 0.4,-0.03 0.4,-0.31 0,-0.13 -0.1,-0.26 -0.18,-0.35 z"
         inkscape:connector-curvature="0"
         style="fill:#000000;stroke-width:0" /><path
         id="path3611"
         d="m 170.33,709.61 v 0.07 0.08 0.08 0.08 l -0.01,0.17 -0.01,0.17 -0.02,0.18 -0.02,0.19 -0.03,0.2 -0.03,0.2 -0.04,0.2 -0.05,0.21 -0.05,0.21 -0.06,0.21 -0.07,0.21 -0.08,0.21 -0.04,0.11 -0.05,0.11 -0.05,0.1 -0.05,0.11 c -0.6,1.22 -1.45,1.87 -1.55,1.87 -0.06,0 -0.1,-0.04 -0.1,-0.1 0,-0.03 0,-0.05 0.19,-0.23 0.97,-0.99 1.54,-2.57 1.54,-4.64 0,-1.7 -0.37,-3.45 -1.6,-4.7 -0.13,-0.12 -0.13,-0.14 -0.13,-0.17 0,-0.06 0.04,-0.1 0.1,-0.1 0.1,0 0.99,0.68 1.58,1.94 0.51,1.09 0.63,2.19 0.63,3.03 z"
         inkscape:connector-curvature="0"
         style="fill:#000000;stroke-width:0" /></g>    <g
       style="font-style:normal;font-variant:normal;font-weight:normal;font-stretch:normal;letter-spacing:normal;word-spacing:normal;text-anchor:start;fill:#000000;fill-opacity:1;fill-rule:evenodd;stroke:#000000;stroke-linecap:butt;stroke-linejoin:miter;stroke-miterlimit:10.43299961;stroke-dasharray:none;stroke-dashoffset:0;stroke-opacity:1"
       id="g3765"
       transform="matrix(2.6118498,0,0,-2.6118498,-673.96182,2020.9636)"
       xml:space="preserve"
       stroke-miterlimit="10.433"
       font-style="normal"
       font-variant="normal"
       font-weight="normal"
       font-stretch="normal"
       font-size-adjust="none"
       letter-spacing="normal"
       word-spacing="normal"
       ns0:text="$$\\text{Residuals}$$\n$$\\mathbf{y}-\\bar{\\mathbf{y}}$$\n"
       ns0:preamble="default_packages.tex"><path
         style="fill:#0000ff;fill-opacity:0.82608696;stroke-width:0"
         inkscape:connector-curvature="0"
         d="m 302.58535,740.74511 0.0204,0.004 0.0204,0.006 0.0203,0.004 0.0181,0.006 0.0203,0.009 0.0181,0.006 0.0181,0.006 0.0181,0.009 0.0181,0.009 0.0158,0.009 0.0181,0.0114 0.0158,0.009 0.0135,0.0114 0.0158,0.009 0.0135,0.0113 0.0135,0.0135 0.0135,0.0114 0.0135,0.0113 0.0113,0.0135 0.0113,0.0135 0.009,0.0135 0.009,0.0136 0.009,0.0135 0.009,0.0135 0.007,0.0135 0.006,0.0158 0.004,0.0158 0.004,0.0135 0.002,0.0158 0.004,0.0159 v 0.0158 0.0181 c 0,0.21486 -0.25557,0.40485 -0.58803,0.40485 h -0.70827 v -0.0701 h 0.0543 c 0.17415,0 0.17867,-0.0249 0.17867,-0.10628 v -1.18287 c 0,-0.0814 -0.004,-0.10628 -0.17867,-0.10628 h -0.0543 v -0.0701 c 0.0814,0.006 0.242,0.006 0.33021,0.006 0.0859,0 0.24652,0 0.32795,-0.006 v 0.0701 h -0.0543 c -0.17416,0 -0.17642,0.0249 -0.17642,0.10628 v 0.56768 0.0498 0.58126 c 0,0.052 0,0.0791 0.0475,0.0859 0.0226,0.004 0.0882,0.004 0.13344,0.004 0.20356,0 0.45687,-0.009 0.45687,-0.33472 0,-0.15605 -0.0543,-0.337 -0.38902,-0.337 h -0.24879 v -0.0498 h 0.25784 c 0.0362,0 0.13117,0 0.21033,-0.077 0.0859,-0.0814 0.0859,-0.14927 0.0859,-0.30081 0,-0.147 0,-0.23522 0.0928,-0.32115 0.0927,-0.0814 0.21488,-0.095 0.28273,-0.095 0.17641,0 0.21485,0.18546 0.21485,0.24653 0,0.0135 0,0.0384 -0.0293,0.0384 -0.0249,0 -0.0249,-0.0203 -0.0272,-0.0361 -0.0135,-0.15832 -0.0928,-0.19903 -0.14927,-0.19903 -0.11083,0 -0.12665,0.11535 -0.16058,0.32342 l -0.0272,0.18094 c -0.0407,0.14249 -0.15152,0.21712 -0.27592,0.26009 z"
         id="path3737" /><path
         style="fill:#0000ff;fill-opacity:0.82608696;stroke-width:0"
         inkscape:connector-curvature="0"
         d="m 303.51264,740.50086 0.002,0.0452 c 0.0135,0.33473 0.20355,0.39127 0.28045,0.39127 0.23069,0 0.25331,-0.30307 0.25331,-0.39127 h -0.53376 l -0.002,-0.0452 h 0.62876 c 0.0498,0 0.0565,0 0.0565,0.0452 0,0.22391 -0.12214,0.44102 -0.40259,0.44102 -0.26236,0 -0.47043,-0.23068 -0.47043,-0.5134 0,-0.3008 0.23747,-0.51794 0.49756,-0.51794 0.27368,0 0.37546,0.24879 0.37546,0.29177 0,0.0226 -0.0181,0.0272 -0.0293,0.0272 -0.0204,0 -0.0249,-0.0135 -0.0293,-0.0317 -0.0769,-0.2307 -0.28046,-0.2307 -0.30307,-0.2307 -0.11309,0 -0.20356,0.0679 -0.25558,0.14928 -0.0679,0.10856 -0.0679,0.25783 -0.0679,0.33925 z"
         id="path3739" /><path
         style="fill:#0000ff;fill-opacity:0.82608696;stroke-width:0"
         inkscape:connector-curvature="0"
         d="m 304.73397,740.41718 0.004,-0.002 h 0.004 l 0.007,-0.002 h 0.006 l 0.009,-0.002 0.006,-0.002 0.009,-0.002 0.009,-0.002 0.009,-0.002 0.009,-0.004 0.0112,-0.002 0.009,-0.004 0.009,-0.004 0.0112,-0.004 0.009,-0.004 0.0113,-0.006 0.009,-0.004 0.009,-0.006 0.009,-0.006 0.009,-0.006 0.009,-0.009 0.009,-0.009 0.006,-0.009 0.006,-0.009 0.007,-0.009 0.002,-0.006 0.004,-0.004 0.002,-0.007 0.002,-0.004 0.002,-0.006 0.002,-0.004 0.002,-0.006 v -0.007 l 0.002,-0.006 v -0.006 l 0.002,-0.006 v -0.006 -0.006 -0.009 c 0,-0.11309 -0.0791,-0.20356 -0.25331,-0.20356 -0.18998,0 -0.27141,0.12666 -0.31437,0.31891 -0.007,0.0293 -0.009,0.0384 -0.0317,0.0384 -0.0293,0 -0.0293,-0.0158 -0.0293,-0.0565 v -0.29628 c 0,-0.0384 0,-0.0543 0.0249,-0.0543 0.0113,0 0.0135,0.002 0.0565,0.0452 0.004,0.004 0.004,0.009 0.0452,0.0519 0.0995,-0.095 0.2013,-0.0973 0.24879,-0.0973 0.25784,0 0.36188,0.15153 0.36188,0.31212 0,0.11986 -0.0679,0.18772 -0.095,0.21485 -0.0747,0.0701 -0.16285,0.0882 -0.25558,0.10628 -0.12665,0.0249 -0.27818,0.0543 -0.27818,0.18547 0,0.077 0.0588,0.16962 0.2533,0.16962 0.24653,0 0.25784,-0.20129 0.26236,-0.2714 0.002,-0.0204 0.0226,-0.0204 0.0272,-0.0204 0.0293,0 0.0293,0.0113 0.0293,0.0543 v 0.22618 c 0,0.0384 0,0.0543 -0.0249,0.0543 -0.0113,0 -0.0158,0 -0.0452,-0.0272 -0.006,-0.009 -0.0293,-0.0293 -0.0384,-0.0361 -0.0837,0.0633 -0.17641,0.0633 -0.21033,0.0633 -0.27594,0 -0.36188,-0.14928 -0.36188,-0.27594 0,-0.0791 0.0363,-0.14248 0.0973,-0.19223 0.0724,-0.0565 0.1357,-0.0701 0.29854,-0.10173 z"
         id="path3741" /><path
         style="fill:#0000ff;fill-opacity:0.82608696;stroke-width:0"
         inkscape:connector-curvature="0"
         d="m 305.5527,740.97355 -0.31664,-0.0249 v -0.0701 c 0.14702,0 0.16738,-0.0136 0.16738,-0.12214 v -0.60614 c 0,-0.0995 -0.0249,-0.0995 -0.17642,-0.0995 v -0.0701 c 0.0724,0.002 0.1945,0.007 0.24879,0.007 0.0791,0 0.15605,-0.004 0.23296,-0.007 v 0.0701 c -0.14702,0 -0.15607,0.0113 -0.15607,0.0973 z"
         id="path3743" /><path
         style="fill:#0000ff;fill-opacity:0.82608696;stroke-width:0"
         inkscape:connector-curvature="0"
         d="m 305.56175,741.36482 v 0.006 l -0.002,0.006 v 0.006 l -0.002,0.004 v 0.006 l -0.002,0.006 -0.002,0.004 -0.002,0.006 -0.002,0.004 -0.002,0.004 -0.002,0.004 -0.004,0.006 -0.002,0.004 -0.004,0.004 -0.004,0.002 -0.002,0.004 -0.004,0.004 -0.004,0.002 -0.004,0.004 -0.004,0.002 -0.004,0.004 -0.006,0.002 -0.004,0.002 -0.004,0.002 -0.006,0.002 h -0.004 l -0.004,0.002 -0.006,0.002 h -0.007 -0.004 l -0.006,0.002 h -0.004 c -0.0701,0 -0.11987,-0.061 -0.11987,-0.11987 0,-0.061 0.0498,-0.11987 0.11987,-0.11987 0.0633,0 0.11986,0.0475 0.11986,0.11987 z"
         id="path3745" /><path
         style="fill:#0000ff;fill-opacity:0.82608696;stroke-width:0"
         inkscape:connector-curvature="0"
         d="m 306.63606,740.10505 v -0.14927 l 0.33021,0.0249 v 0.0701 c -0.15605,0 -0.17416,0.0158 -0.17416,0.12439 v 1.3638 l -0.32569,-0.0226 v -0.0701 c 0.15833,0 0.17642,-0.0158 0.17642,-0.12666 v -0.484 c -0.0656,0.0791 -0.16283,0.13797 -0.28497,0.13797 l 0.009,-0.0498 c 0.0791,0 0.17415,-0.0339 0.24427,-0.13345 0.0249,-0.0384 0.0249,-0.043 0.0249,-0.0837 v 0 -0.46138 c 0,-0.0407 0,-0.0452 -0.0249,-0.0837 -0.0679,-0.10628 -0.16964,-0.15605 -0.26688,-0.15605 -0.10173,0 -0.18319,0.0588 -0.23748,0.14249 -0.0588,0.0928 -0.0656,0.22165 -0.0656,0.31437 0,0.0814 0.007,0.21713 0.0701,0.31891 0.0475,0.0679 0.13345,0.14248 0.25557,0.14248 l -0.009,0.0498 c -0.26688,0 -0.50209,-0.21938 -0.50209,-0.50888 0,-0.28724 0.22164,-0.50888 0.47721,-0.50888 0.14476,0 0.24653,0.077 0.30307,0.14926 z"
         id="path3747" /><path
         style="fill:#0000ff;fill-opacity:0.82608696;stroke-width:0"
         inkscape:connector-curvature="0"
         d="m 307.91166,740.15934 v -0.20356 l 0.32569,0.0249 v 0.0701 c -0.15833,0 -0.17642,0.0158 -0.17642,0.12439 v 0.79838 l -0.33021,-0.0249 v -0.0701 c 0.15607,0 0.17415,-0.0159 0.17415,-0.1244 v -0.40032 c 0,-0.19452 -0.10856,-0.34831 -0.2714,-0.34831 -0.18998,0 -0.19903,0.10628 -0.19903,0.22165 v 0.74636 l -0.33247,-0.0249 v -0.0701 c 0.17642,0 0.17642,-0.006 0.17642,-0.20581 v -0.337 c 0,-0.17415 0,-0.37996 0.34377,-0.37996 0.1244,0 0.22391,0.0633 0.2895,0.20355 z"
         id="path3749" /><path
         style="fill:#0000ff;fill-opacity:0.82608696;stroke-width:0"
         inkscape:connector-curvature="0"
         d="m 309.03346,740.1503 v -0.006 l 0.002,-0.009 0.002,-0.009 0.002,-0.006 0.002,-0.009 0.002,-0.009 0.002,-0.006 0.002,-0.009 0.004,-0.009 0.002,-0.007 0.004,-0.006 0.004,-0.009 0.004,-0.006 0.004,-0.006 0.004,-0.006 0.006,-0.006 0.004,-0.006 0.006,-0.006 0.007,-0.004 0.006,-0.006 0.006,-0.004 0.007,-0.004 0.006,-0.004 0.006,-0.004 0.009,-0.002 0.009,-0.004 0.006,-0.002 0.009,-0.002 0.009,-0.002 0.009,-0.002 h 0.009 0.0112 c 0.0475,0 0.1832,0.0317 0.1832,0.21259 v 0.12666 h -0.0543 v -0.12666 c 0,-0.12891 -0.0565,-0.14248 -0.0814,-0.14248 -0.0746,0 -0.0837,0.0995 -0.0837,0.11082 v 0.45008 c 0,0.095 0,0.1832 -0.0814,0.26461 -0.0882,0.0882 -0.20129,0.1244 -0.30985,0.1244 -0.1832,0 -0.33925,-0.10628 -0.33925,-0.25332 0,-0.0679 0.0452,-0.10628 0.10401,-0.10628 0.061,0 0.10173,0.0452 0.10173,0.10401 0,0.0272 -0.009,0.0995 -0.11309,0.10401 0.0588,0.077 0.16963,0.10173 0.242,0.10173 0.11083,0 0.23975,-0.0882 0.23975,-0.28722 v -0.0837 -0.0475 -0.22391 c 0,-0.2126 -0.16285,-0.28949 -0.26463,-0.28949 -0.11081,0 -0.20129,0.0791 -0.20129,0.18998 0,0.1244 0.0928,0.30986 0.46592,0.32342 v 0 0.0475 c -0.11535,-0.006 -0.27367,-0.0135 -0.41616,-0.0791 -0.16736,-0.077 -0.22391,-0.1945 -0.22391,-0.29402 0,-0.18093 0.21712,-0.23748 0.35962,-0.23748 0.14926,0 0.2533,0.0905 0.29627,0.19452 z"
         id="path3751" /><path
         style="fill:#0000ff;fill-opacity:0.82608696;stroke-width:0"
         inkscape:connector-curvature="0"
         d="m 309.80923,741.53897 -0.32569,-0.0226 v -0.0701 c 0.15832,0 0.17641,-0.0158 0.17641,-0.12666 v -1.16929 c 0,-0.0995 -0.0249,-0.0995 -0.17641,-0.0995 v -0.0701 c 0.0746,0.002 0.19451,0.006 0.25105,0.006 0.0565,0 0.1651,-0.004 0.24878,-0.006 v 0.0701 c -0.15152,0 -0.17414,0 -0.17414,0.0995 z"
         id="path3753" /><path
         style="fill:#0000ff;fill-opacity:0.82608696;stroke-width:0"
         inkscape:connector-curvature="0"
         d="m 310.50357,740.41718 0.004,-0.002 h 0.006 l 0.007,-0.002 h 0.006 l 0.006,-0.002 0.009,-0.002 0.009,-0.002 0.009,-0.002 0.009,-0.002 0.009,-0.004 0.009,-0.002 0.0113,-0.004 0.009,-0.004 0.0112,-0.004 0.009,-0.004 0.009,-0.006 0.0112,-0.004 0.009,-0.006 0.009,-0.006 0.009,-0.006 0.009,-0.009 0.006,-0.009 0.009,-0.009 0.006,-0.009 0.006,-0.009 0.002,-0.006 0.002,-0.004 0.002,-0.007 0.002,-0.004 0.002,-0.006 0.002,-0.004 0.002,-0.006 0.002,-0.007 v -0.006 l 0.002,-0.006 v -0.006 l 0.002,-0.006 v -0.006 -0.009 c 0,-0.11309 -0.0791,-0.20356 -0.25558,-0.20356 -0.18771,0 -0.26914,0.12666 -0.3121,0.31891 -0.007,0.0293 -0.009,0.0384 -0.0317,0.0384 -0.0293,0 -0.0293,-0.0158 -0.0293,-0.0565 v -0.29628 c 0,-0.0384 0,-0.0543 0.0249,-0.0543 0.0113,0 0.0135,0.002 0.0565,0.0452 0.004,0.004 0.004,0.009 0.043,0.0519 0.0995,-0.095 0.20129,-0.0973 0.24878,-0.0973 0.2601,0 0.36414,0.15153 0.36414,0.31212 0,0.11986 -0.0679,0.18772 -0.095,0.21485 -0.0747,0.0701 -0.16284,0.0882 -0.25783,0.10628 -0.12666,0.0249 -0.27594,0.0543 -0.27594,0.18547 0,0.077 0.0565,0.16962 0.25106,0.16962 0.24878,0 0.2601,-0.20129 0.26461,-0.2714 0.002,-0.0204 0.0226,-0.0204 0.0272,-0.0204 0.0293,0 0.0293,0.0113 0.0293,0.0543 v 0.22618 c 0,0.0384 0,0.0543 -0.0249,0.0543 -0.0113,0 -0.0158,0 -0.0452,-0.0272 -0.006,-0.009 -0.0293,-0.0293 -0.0384,-0.0361 -0.0859,0.0633 -0.17869,0.0633 -0.21262,0.0633 -0.27366,0 -0.3596,-0.14928 -0.3596,-0.27594 0,-0.0791 0.0361,-0.14248 0.0973,-0.19223 0.0724,-0.0565 0.13345,-0.0701 0.29629,-0.10173 z"
         id="path3755" /><path
         style="fill:#0000ff;fill-opacity:0.82608696;stroke-width:0"
         inkscape:connector-curvature="0"
         d="m 304.45838,739.03586 0.002,0.006 0.002,0.004 0.002,0.002 0.002,0.002 v 0.002 l 0.002,0.002 0.002,0.002 0.002,0.002 0.002,0.002 0.002,0.002 0.002,0.002 h 0.004 l 0.002,0.002 0.004,0.002 h 0.004 l 0.004,0.002 0.004,0.002 h 0.007 l 0.006,0.002 h 0.002 0.002 0.004 0.004 l 0.002,0.002 h 0.004 0.004 0.004 0.004 0.002 0.007 l 0.004,0.002 h 0.004 0.004 0.007 0.004 0.006 0.004 0.006 0.007 0.004 0.007 v 0.10628 c -0.0543,-0.004 -0.11987,-0.006 -0.17642,-0.006 -0.0565,0 -0.15832,0.004 -0.20582,0.006 v -0.10628 c 0.004,0 0.10628,0 0.10628,-0.0272 0,-0.002 -0.009,-0.0249 -0.0113,-0.0272 l -0.26009,-0.55185 -0.28724,0.60613 h 0.12213 v 0.10628 c -0.0746,-0.004 -0.27592,-0.006 -0.27819,-0.006 -0.0633,0 -0.1651,0.004 -0.25783,0.006 v -0.10628 h 0.14475 l 0.42068,-0.89111 -0.0519,-0.10856 c -0.0498,-0.10856 -0.12213,-0.26009 -0.28045,-0.26009 -0.0317,0 -0.0363,0.002 -0.0543,0.009 0.0204,0.009 0.0724,0.0407 0.0724,0.1176 0,0.0746 -0.0543,0.12892 -0.13117,0.12892 -0.0633,0 -0.12892,-0.043 -0.12892,-0.13119 0,-0.11307 0.10628,-0.2058 0.242,-0.2058 0.17188,0 0.30307,0.14022 0.36414,0.26688 z"
         id="path3757" /><path
         style="fill:#0000ff;fill-opacity:0.82608696;stroke-width:0"
         inkscape:connector-curvature="0"
         d="m 306.70651,738.70791 h 0.007 0.009 0.006 0.002 l 0.004,0.002 h 0.002 0.004 0.002 0.004 l 0.002,0.002 h 0.002 0.004 l 0.002,0.002 h 0.002 l 0.002,0.002 h 0.002 l 0.004,0.002 v 0.002 l 0.002,0.002 0.002,0.002 0.002,0.002 v 0 l 0.002,0.002 v 0 0.002 h 0.002 v 0.002 0.002 0 0.002 l 0.002,0.002 v 0.002 0.002 0 0.002 0.002 0.002 c 0,0.0452 -0.0407,0.0452 -0.0791,0.0452 h -1.21907 c -0.0384,0 -0.0791,0 -0.0791,-0.0452 0,-0.0452 0.0407,-0.0452 0.0791,-0.0452 z"
         id="path3759" /></g>    <g
       ns0:preamble="default_packages.tex"
       ns0:text="$\\hat{\\mathbf{y}}-\\bar{y} \\boldsymbol{1}$\n"
       word-spacing="normal"
       letter-spacing="normal"
       font-size-adjust="none"
       font-stretch="normal"
       font-weight="normal"
       font-variant="normal"
       font-style="normal"
       stroke-miterlimit="10.433"
       xml:space="preserve"
       transform="matrix(2.2057968,0,0,-2.2057968,-241.99403,1718.3164)"
       id="g3931"
       style="font-style:normal;font-variant:normal;font-weight:normal;font-stretch:normal;letter-spacing:normal;word-spacing:normal;text-anchor:start;fill:#000000;fill-opacity:1;fill-rule:evenodd;stroke:#000000;stroke-linecap:butt;stroke-linejoin:miter;stroke-miterlimit:10.43299961;stroke-dasharray:none;stroke-dashoffset:0;stroke-opacity:1"><polygon
         id="polygon3919"
         points="151.82,713.64 152.96,712.63 153.14,712.81 151.82,714.16 150.48,712.81 150.66,712.63 "
         transform="matrix(0.28887391,0,0,0.28887391,111.82381,520.20322)"
         style="fill:#008600;fill-opacity:1;stroke-width:0" /><path
         id="path3921"
         d="m 156.24106,725.55212 0.002,0.009 0.002,0.006 0.002,0.002 0.002,0.002 v 0.002 l 0.002,0.002 0.002,0.002 0.002,0.002 0.002,0.002 0.002,0.002 0.006,0.002 h 0.002 l 0.006,0.002 0.002,0.002 h 0.006 l 0.006,0.002 h 0.009 l 0.006,0.002 h 0.009 l 0.002,0.002 h 0.006 0.002 0.006 0.002 l 0.006,0.002 h 0.006 0.006 0.006 0.006 0.006 0.006 0.006 l 0.006,0.002 h 0.009 0.006 0.009 0.006 0.009 0.009 0.009 0.009 v 0.13577 c -0.0693,-0.006 -0.15599,-0.009 -0.22821,-0.009 -0.0722,0 -0.20221,0.006 -0.26287,0.009 v -0.13577 c 0.006,0 0.13576,0 0.13576,-0.0347 0,-0.002 -0.0116,-0.0318 -0.0145,-0.0347 l -0.3322,-0.70485 -0.36399,0.77418 h 0.156 v 0.13577 c -0.0953,-0.006 -0.35532,-0.009 -0.35821,-0.009 -0.0809,0 -0.21088,0.006 -0.32931,0.009 v -0.13577 h 0.18488 l 0.5373,-1.13816 -0.0664,-0.13866 c -0.0606,-0.13865 -0.1531,-0.3322 -0.3582,-0.3322 -0.0405,0 -0.0462,0.002 -0.0693,0.0116 0.0259,0.0116 0.0924,0.0491 0.0924,0.15021 0,0.0953 -0.0693,0.16466 -0.16755,0.16466 -0.0809,0 -0.16466,-0.0549 -0.16466,-0.16755 0,-0.14443 0.13577,-0.26287 0.3091,-0.26287 0.22243,0 0.38998,0.17621 0.46508,0.34087 z"
         inkscape:connector-curvature="0"
         style="fill:#008600;fill-opacity:1;stroke-width:0" /><path
         id="path3923"
         d="m 159.11246,725.13326 h 0.0116 0.009 0.009 0.002 0.006 0.002 l 0.006,0.002 h 0.002 0.006 0.002 l 0.006,0.002 h 0.002 0.002 l 0.002,0.002 0.006,0.002 h 0.002 l 0.002,0.002 0.002,0.002 h 0.002 v 0.002 l 0.002,0.002 0.002,0.002 v 0 0.002 l 0.002,0.002 v 0 0.002 0.002 0 l 0.002,0.002 v 0.002 0.002 0 0.002 0.002 0.002 0.002 c 0,0.0577 -0.052,0.0577 -0.10111,0.0577 h -1.55703 c -0.0491,0 -0.1011,0 -0.1011,-0.0577 0,-0.0577 0.052,-0.0577 0.1011,-0.0577 z"
         inkscape:connector-curvature="0"
         style="fill:#008600;fill-opacity:1;stroke-width:0" /><polygon
         id="polygon3925"
         points="168.47,712.68 172.07,712.68 172.07,712.99 168.47,712.99 "
         transform="matrix(0.28887391,0,0,0.28887391,111.82381,520.20322)"
         style="fill:#008600;fill-opacity:1;stroke-width:0" /><path
         id="path3927"
         d="m 161.49279,725.56657 v 0.002 0 l 0.002,0.002 v 0 0.006 0.002 l 0.002,0.002 v 0.002 0.002 0 l 0.002,0.002 v 0.002 0.002 0.002 0 0.002 h 0.002 v 0.002 0.002 0 0.002 0 0.002 0.002 0.002 0.002 0.002 0.002 0 0.002 c 0,0.052 -0.0405,0.078 -0.0838,0.078 -0.0289,0 -0.0751,-0.0173 -0.10111,-0.0607 -0.006,-0.0145 -0.0289,-0.10399 -0.0405,-0.15598 -0.0202,-0.0752 -0.0405,-0.15022 -0.0577,-0.22822 l -0.13,-0.51709 c -0.0116,-0.0433 -0.13288,-0.24553 -0.32353,-0.24553 -0.14733,0 -0.17911,0.1271 -0.17911,0.23398 0,0.13288 0.0491,0.3091 0.14733,0.56331 0.0462,0.11555 0.0577,0.14732 0.0577,0.2051 0,0.12999 -0.0924,0.23687 -0.23688,0.23687 -0.27443,0 -0.38131,-0.41598 -0.38131,-0.44197 0,-0.0289 0.0289,-0.0289 0.0347,-0.0289 0.0289,0 0.0318,0.006 0.0462,0.052 0.078,0.26867 0.19356,0.35532 0.29177,0.35532 0.0232,0 0.0722,0 0.0722,-0.0924 0,-0.0722 -0.0289,-0.14733 -0.0491,-0.20221 -0.11555,-0.30331 -0.16755,-0.46797 -0.16755,-0.60085 0,-0.2571 0.182,-0.34088 0.35243,-0.34088 0.11266,0 0.21088,0.0462 0.29176,0.12711 -0.0375,-0.14733 -0.0722,-0.28888 -0.18777,-0.44198 -0.0751,-0.0982 -0.18487,-0.17911 -0.31776,-0.17911 -0.0405,0 -0.17044,0.009 -0.21954,0.11845 0.0462,0 0.0838,0 0.12422,0.0347 0.0289,0.026 0.0577,0.0636 0.0577,0.11843 0,0.0896 -0.078,0.10111 -0.10689,0.10111 -0.0664,0 -0.16177,-0.0462 -0.16177,-0.18777 0,-0.14154 0.1271,-0.24843 0.30621,-0.24843 0.29754,0 0.59508,0.25998 0.67308,0.58353 z"
         inkscape:connector-curvature="0"
         style="fill:#008600;fill-opacity:1;stroke-width:0" /><path
         id="path3929"
         d="m 162.7212,726.17859 v 0.006 0.006 0.006 0.006 0.006 0.002 l -0.002,0.006 v 0.006 0.002 0.002 0.006 l -0.002,0.002 v 0.002 0.002 l -0.002,0.002 -0.002,0.002 v 0.002 l -0.002,0.002 -0.002,0.002 -0.002,0.002 -0.002,0.002 h -0.002 v 0.002 h -0.002 -0.002 v 0 l -0.002,0.002 h -0.002 v 0 h -0.002 -0.002 -0.002 l -0.002,0.002 h -0.002 -0.002 -0.002 -0.002 -0.002 -0.002 -0.002 -0.002 -0.002 c -0.0318,0 -0.0375,0 -0.0636,-0.0202 -0.22242,-0.16176 -0.51996,-0.16176 -0.58063,-0.16176 h -0.0577 v -0.13577 h 0.0577 c 0.0462,0 0.2051,0.002 0.37554,0.0577 v -1.48481 h -0.40154 v -0.13288 c 0.12711,0.009 0.43332,0.009 0.57486,0.009 0.14155,0 0.44487,0 0.57197,-0.009 v 0.13288 h -0.40153 z"
         inkscape:connector-curvature="0"
         style="fill:#008600;fill-opacity:1;stroke-width:0" /></g>    <path
       style="fill:none;stroke:#009600;stroke-width:0.72010326;stroke-linecap:butt;stroke-linejoin:miter;stroke-miterlimit:4;stroke-dasharray:none;stroke-opacity:0.72946861;marker-end:url(#marker1837)"
       d="M 85.536784,124.86944 111.78127,108.21697"
       id="path1827"
       inkscape:connector-curvature="0" />
    <g
       style="font-style:normal;font-variant:normal;font-weight:normal;font-stretch:normal;letter-spacing:normal;word-spacing:normal;text-anchor:start;fill:#000000;fill-opacity:1;fill-rule:evenodd;stroke:#000000;stroke-linecap:butt;stroke-linejoin:miter;stroke-miterlimit:10.43299961;stroke-dasharray:none;stroke-dashoffset:0;stroke-opacity:1"
       id="g4254"
       transform="matrix(0.58330681,0,0,-0.58330681,3.6555696,532.14703)"
       xml:space="preserve"
       stroke-miterlimit="10.433"
       font-style="normal"
       font-variant="normal"
       font-weight="normal"
       font-stretch="normal"
       font-size-adjust="none"
       letter-spacing="normal"
       word-spacing="normal"
       ns0:text="$\\theta$\n"
       ns0:preamble="default_packages.tex"><path
         style="fill:#000000;stroke-width:0"
         inkscape:connector-curvature="0"
         d="m 153.25,712.09 v 0.07 0.06 l -0.01,0.07 v 0.08 l -0.01,0.07 v 0.08 l -0.01,0.08 -0.01,0.09 -0.02,0.08 -0.01,0.08 -0.02,0.09 -0.02,0.08 -0.02,0.09 -0.03,0.08 -0.03,0.08 -0.03,0.09 -0.03,0.07 -0.04,0.08 -0.04,0.08 -0.04,0.07 -0.05,0.06 -0.05,0.07 -0.05,0.06 -0.06,0.05 -0.06,0.05 -0.04,0.02 -0.03,0.03 -0.03,0.02 -0.04,0.01 -0.04,0.02 -0.03,0.02 -0.04,0.01 -0.04,0.01 -0.04,0.01 -0.05,0.01 -0.04,0.01 h -0.04 l -0.05,0.01 h -0.05 l -0.01,-0.22 c 0.49,0 0.55,-0.64 0.55,-1.2 0,-0.49 -0.08,-1 -0.32,-1.98 h -2.08 c 0.17,0.64 0.37,1.43 0.77,2.14 0.27,0.48 0.63,1.04 1.08,1.04 l 0.01,0.22 c -1.38,0 -2.92,-2.8 -2.92,-5.08 0,-0.93 0.29,-2.03 1.2,-2.03 v 0.21 c -0.33,0 -0.54,0.29 -0.54,1.22 0,0.41 0.06,0.99 0.32,1.96 h 2.07 c -0.11,-0.45 -0.32,-1.3 -0.7,-2.01 -0.35,-0.68 -0.72,-1.17 -1.15,-1.17 v -0.21 c 1.4,0 2.92,2.85 2.92,5.07 z"
         id="path4252" /></g>    <ellipse
       ry="0.46065849"
       rx="0.47247022"
       cy="115.08714"
       cx="63.5"
       id="path4343"
       style="fill:#000000;fill-opacity:1;stroke:#000000;stroke-width:0.46299997;stroke-linecap:square;stroke-linejoin:bevel;stroke-miterlimit:4;stroke-dasharray:none;stroke-dashoffset:0;stroke-opacity:1" />
    <path
       inkscape:connector-curvature="0"
       id="path4345"
       d="M 43.095213,147.58333 38.0853,155.47494"
       style="fill:none;stroke:#000000;stroke-width:0.1627318px;stroke-linecap:butt;stroke-linejoin:miter;stroke-opacity:0.5120773" />
    <path
       inkscape:connector-curvature="0"
       id="path4347"
       d="m 63.476375,89.573895 1.37e-4,-40.867287"
       style="fill:none;stroke:#000000;stroke-width:0.24855456;stroke-linecap:butt;stroke-linejoin:miter;stroke-miterlimit:4;stroke-dasharray:none;stroke-opacity:0.5024155;marker-end:url(#marker4357)" />
    <path
       inkscape:connector-curvature="0"
       id="path4469"
       d="m 150.662,115.13103 h 12.52259"
       style="fill:none;stroke:#000000;stroke-width:0.26069999px;stroke-linecap:butt;stroke-linejoin:miter;stroke-opacity:0.57004831" />
    <path
       style="fill:none;stroke:#fe0000;stroke-width:0.64645404;stroke-linecap:butt;stroke-linejoin:miter;stroke-miterlimit:4;stroke-dasharray:none;stroke-opacity:0.71980681;marker-end:url(#marker3270)"
       d="M 85.547716,124.86489 111.99059,57.633625"
       id="path3260"
       inkscape:connector-curvature="0" />
    <g
       ns0:preamble="default_packages.tex"
       ns0:text="$\\mathbf{y}-\\hat{y}\\boldsymbol{1}$\n"
       word-spacing="normal"
       letter-spacing="normal"
       font-size-adjust="none"
       font-stretch="normal"
       font-weight="normal"
       font-variant="normal"
       font-style="normal"
       stroke-miterlimit="10.433"
       xml:space="preserve"
       transform="matrix(0.53257679,-0.01180391,-0.01180391,-0.53257679,22.276224,475.13893)"
       id="g4584"
       style="font-style:normal;font-variant:normal;font-weight:normal;font-stretch:normal;letter-spacing:normal;word-spacing:normal;text-anchor:start;fill:#ff0000;fill-opacity:0.88405798;fill-rule:evenodd;stroke:#f40000;stroke-linecap:butt;stroke-linejoin:miter;stroke-miterlimit:10.43299961;stroke-dasharray:none;stroke-dashoffset:0;stroke-opacity:1"><path
         id="path4574"
         d="m 163.9416,710.5221 0.0107,0.0321 0.0107,0.0214 0.0107,0.0107 0.0107,0.0107 v 0.0107 l 0.0107,0.0107 0.0107,0.0107 0.0107,0.0107 0.0107,0.0107 0.0107,0.0107 0.0214,0.0107 h 0.0107 l 0.0214,0.0107 0.0107,0.0107 h 0.0214 l 0.0214,0.0107 h 0.0321 l 0.0214,0.0107 h 0.0321 l 0.0107,0.0107 h 0.0214 0.0107 0.0214 0.0107 l 0.0214,0.0107 h 0.0214 0.0214 0.0214 0.0214 0.0214 0.0214 0.0214 l 0.0214,0.0107 h 0.0321 0.0214 0.0321 0.0214 0.0321 0.0321 0.0321 0.0321 v 0.50256 c -0.25662,-0.0214 -0.57741,-0.0321 -0.84472,-0.0321 -0.26732,0 -0.7485,0.0214 -0.97304,0.0321 v -0.50256 c 0.0214,0 0.50256,0 0.50256,-0.12831 0,-0.0107 -0.0428,-0.11762 -0.0535,-0.12832 l -1.22966,-2.60903 -1.34729,2.86566 h 0.57741 v 0.50256 c -0.35286,-0.0214 -1.31521,-0.0321 -1.3259,-0.0321 -0.2994,0 -0.78057,0.0214 -1.21897,0.0321 v -0.50256 h 0.68433 l 1.98885,-4.21294 -0.24593,-0.51325 c -0.22455,-0.51325 -0.56672,-1.22967 -1.3259,-1.22967 -0.1497,0 -0.17108,0.0107 -0.25663,0.0428 0.0962,0.0428 0.34217,0.18178 0.34217,0.55603 0,0.35286 -0.25662,0.60948 -0.62018,0.60948 -0.29939,0 -0.60948,-0.20316 -0.60948,-0.62018 0,-0.53463 0.50255,-0.97304 1.14412,-0.97304 0.82334,0 1.44352,0.65226 1.72153,1.26175 z"
         style="fill:#ff0000;fill-opacity:0.88405798;stroke:#f40000;stroke-width:0;stroke-opacity:1"
         inkscape:connector-curvature="0" /><path
         id="path4576"
         d="m 170.79909,707.70096 h 0.04 0.03 0.03 0.01 0.02 0.01 l 0.02,0.01 h 0.01 0.02 0.01 l 0.02,0.01 h 0.01 0.01 l 0.01,0.01 0.02,0.01 h 0.01 l 0.01,0.01 0.01,0.01 h 0.01 v 0.01 l 0.01,0.01 0.01,0.01 v 0 0.01 l 0.01,0.01 v 0 0.01 0.01 0 l 0.01,0.01 v 0.01 0.01 0 0.01 0.01 0.01 0.01 c 0,0.2 -0.18,0.2 -0.35,0.2 h -5.39 c -0.17,0 -0.35,0 -0.35,-0.2 0,-0.2 0.18,-0.2 0.35,-0.2 z"
         style="fill:#ff0000;fill-opacity:0.88405798;stroke:#f40000;stroke-width:0;stroke-opacity:1"
         inkscape:connector-curvature="0" /></g>    <path
       style="fill:#000000;fill-opacity:0.31400966;stroke:#000000;stroke-width:0.39796811px;stroke-linecap:butt;stroke-linejoin:miter;stroke-opacity:0.73429954"
       d="m 87.970368,118.15997 -2.298453,6.55789 4.969974,-2.99157 c 0.274579,-1.42948 0.07292,-2.76057 -2.671521,-3.56632 z"
       id="path4167"
       inkscape:connector-curvature="0"
       sodipodi:nodetypes="cccc" />
    <g
       ns0:preamble="default_packages.tex"
       ns0:text="$\\hat{\\mathbf{y}}$\n"
       word-spacing="normal"
       letter-spacing="normal"
       font-size-adjust="none"
       font-stretch="normal"
       font-weight="normal"
       font-variant="normal"
       font-style="normal"
       stroke-miterlimit="10.433"
       xml:space="preserve"
       transform="matrix(0.62730604,0,0,-0.62730604,35.590441,537.11865)"
       id="g6939"
       style="font-style:normal;font-variant:normal;font-weight:normal;font-stretch:normal;letter-spacing:normal;word-spacing:normal;text-anchor:start;fill:#0000ff;fill-opacity:0.78260869;fill-rule:evenodd;stroke:#000000;stroke-linecap:butt;stroke-linejoin:miter;stroke-miterlimit:10.43299961;stroke-dasharray:none;stroke-dashoffset:0;stroke-opacity:1"><polygon
         id="polygon6935"
         points="153.14,712.81 151.82,714.16 150.48,712.81 150.66,712.63 151.82,713.64 152.96,712.63 "
         style="fill:#0000ff;fill-opacity:0.78260869;stroke-width:0" /><path
         id="path6937"
         d="m 153.76,710.86 0.01,0.03 0.01,0.02 0.01,0.01 0.01,0.01 v 0.01 l 0.01,0.01 0.01,0.01 0.01,0.01 0.01,0.01 0.01,0.01 0.02,0.01 h 0.01 l 0.02,0.01 0.01,0.01 h 0.02 l 0.02,0.01 h 0.03 l 0.02,0.01 h 0.03 l 0.01,0.01 h 0.02 0.01 0.02 0.01 l 0.02,0.01 h 0.02 0.02 0.02 0.02 0.02 0.02 0.02 l 0.02,0.01 h 0.03 0.02 0.03 0.02 0.03 0.03 0.03 0.03 v 0.47 c -0.24,-0.02 -0.54,-0.03 -0.79,-0.03 -0.25,0 -0.7,0.02 -0.91,0.03 v -0.47 c 0.02,0 0.47,0 0.47,-0.12 0,-0.01 -0.04,-0.11 -0.05,-0.12 l -1.15,-2.44 -1.26,2.68 h 0.54 v 0.47 c -0.33,-0.02 -1.23,-0.03 -1.24,-0.03 -0.28,0 -0.73,0.02 -1.14,0.03 v -0.47 h 0.64 l 1.86,-3.94 -0.23,-0.48 c -0.21,-0.48 -0.53,-1.15 -1.24,-1.15 -0.14,0 -0.16,0.01 -0.24,0.04 0.09,0.04 0.32,0.17 0.32,0.52 0,0.33 -0.24,0.57 -0.58,0.57 -0.28,0 -0.57,-0.19 -0.57,-0.58 0,-0.5 0.47,-0.91 1.07,-0.91 0.77,0 1.35,0.61 1.61,1.18 z"
         inkscape:connector-curvature="0"
         style="fill:#0000ff;fill-opacity:0.78260869;stroke-width:0" /></g>    <g
       style="font-style:normal;font-variant:normal;font-weight:normal;font-stretch:normal;letter-spacing:normal;word-spacing:normal;text-anchor:start;fill:#ff0000;fill-opacity:0.92753625;fill-rule:evenodd;stroke:#ff0000;stroke-linecap:butt;stroke-linejoin:miter;stroke-miterlimit:10.43299961;stroke-dasharray:none;stroke-dashoffset:0;stroke-opacity:1"
       id="content-9"
       transform="matrix(2.3649668,0,0,-2.3649668,-224.67384,1807.4185)"
       xml:space="preserve"
       stroke-miterlimit="10.433"
       font-style="normal"
       font-variant="normal"
       font-weight="normal"
       font-stretch="normal"
       font-size-adjust="none"
       letter-spacing="normal"
       word-spacing="normal"
       ns0:text="$\\bar{y} \\boldsymbol{1}$\n"
       ns0:preamble="default_packages.tex"><polygon
         transform="matrix(0.24279015,0,0,0.24279015,103.5403,551.41486)"
         style="fill:#ff0000;fill-opacity:0.92753625;stroke:#ff0000;stroke-width:0;stroke-opacity:1"
         points="153.68,712.99 150.08,712.99 150.08,712.68 153.68,712.68 "
         id="polygon2478-8" /><path
         style="fill:#ff0000;fill-opacity:0.92753625;stroke:#ff0000;stroke-width:0;stroke-opacity:1"
         inkscape:connector-curvature="0"
         d="m 140.82315,724.01682 v 0.003 0 0.003 h 0.003 v 0.005 0.003 0.003 l 0.003,0.003 v 0.003 0 0.003 l 0.003,0.003 v 0.003 0.003 0 0.003 0 0.003 0.003 0 l 0.003,0.003 v 0 0.003 0.003 0.003 0.003 0.003 0.003 0 0.003 c 0,0.0437 -0.034,0.0655 -0.0704,0.0655 -0.0243,0 -0.0631,-0.0146 -0.0849,-0.0509 -0.005,-0.0121 -0.0243,-0.0874 -0.034,-0.13111 -0.017,-0.0631 -0.034,-0.12625 -0.0486,-0.1918 l -0.10925,-0.4346 c -0.01,-0.0364 -0.11411,-0.20636 -0.27435,-0.20636 -0.1214,0 -0.1481,0.10682 -0.1481,0.19665 0,0.11169 0.0412,0.25979 0.12382,0.47344 0.0388,0.0971 0.0462,0.12383 0.0462,0.17238 0,0.10926 -0.0753,0.1991 -0.19667,0.1991 -0.23065,0 -0.32048,-0.34962 -0.32048,-0.37148 0,-0.0243 0.0243,-0.0243 0.0291,-0.0243 0.0243,0 0.0267,0.005 0.0388,0.0437 0.0655,0.22579 0.16267,0.29863 0.24522,0.29863 0.0194,0 0.0607,0 0.0607,-0.0777 0,-0.0607 -0.0243,-0.12381 -0.0412,-0.16995 -0.0971,-0.25492 -0.14081,-0.39332 -0.14081,-0.505 0,-0.21609 0.15295,-0.28649 0.2962,-0.28649 0.0947,0 0.17481,0.0389 0.24279,0.10683 -0.0315,-0.12382 -0.0607,-0.24279 -0.15539,-0.37147 -0.0655,-0.0826 -0.15538,-0.15053 -0.26707,-0.15053 -0.034,0 -0.14324,0.007 -0.18452,0.0995 0.0388,0 0.0705,0 0.1044,0.0291 0.0243,0.0219 0.0486,0.0534 0.0486,0.0995 0,0.0752 -0.0655,0.0849 -0.0898,0.0849 -0.0558,0 -0.13597,-0.0389 -0.13597,-0.15781 0,-0.11897 0.10683,-0.2088 0.25736,-0.2088 0.24764,0 0.49772,0.2185 0.5657,0.49043 z"
         id="path2480-1" /><path
         style="fill:#ff0000;fill-opacity:0.92753625;stroke:#ff0000;stroke-width:0;stroke-opacity:1"
         inkscape:connector-curvature="0"
         d="m 141.99043,724.44193 v 0.005 0.005 0.005 0.005 0.005 0.003 0.005 0.005 0.003 0.003 l -0.003,0.005 v 0.003 0.003 l -0.003,0.003 v 0.003 l -0.003,0.003 v 0.003 l -0.003,0.003 -0.003,0.003 -0.003,0.003 -0.003,0.003 h -0.003 l -0.003,0.003 v 0 h -0.003 -0.003 v 0.003 h -0.003 -0.003 v 0 h -0.003 -0.003 l -0.003,0.003 h -0.003 -0.003 -0.003 -0.003 -0.003 -0.003 -0.003 -0.003 -0.003 c -0.0268,0 -0.0316,0 -0.0534,-0.0169 -0.18695,-0.13597 -0.43702,-0.13597 -0.48801,-0.13597 h -0.0486 v -0.11411 h 0.0486 c 0.0389,0 0.17239,0.003 0.31563,0.0486 v -1.24794 h -0.33748 v -0.11169 c 0.10683,0.007 0.36418,0.007 0.48315,0.007 0.11654,0 0.3739,0 0.48073,-0.007 v 0.11169 h -0.33991 z"
         id="path2482-2" /></g>    <path
       style="fill:#000000;fill-opacity:0.37198067;stroke:#000000;stroke-width:0.26458332px;stroke-linecap:butt;stroke-linejoin:miter;stroke-opacity:0.51690823"
       d="m 109.2934,109.50937 v -4.31181 l 3.35991,-1.93984 v 4.24191 l -3.34474,2.32832 z"
       id="path7575"
       inkscape:connector-curvature="0"
       sodipodi:nodetypes="cccccc" />
  </g>
</svg>
