<svg width="190mm" height="140mm" version="1.1" viewBox="0 0 321.92 228.89" xmlns="http://www.w3.org/2000/svg" xmlns:ns0="http://www.iki.fi/pav/software/textext/">
 <defs>
  <marker id="Arrow1Mend" overflow="visible" orient="auto">
   <path transform="matrix(-.4 0 0 -.4 -4 0)" d="m0 0 5-5-17.5 5 17.5 5z" fill-opacity=".5942" fill-rule="evenodd" stroke="#000" stroke-opacity=".5942" stroke-width="1pt"/>
  </marker>
  <marker id="e" overflow="visible" orient="auto">
   <path transform="matrix(-.4 0 0 -.4 -4 0)" d="m0 0 5-5-17.5 5 17.5 5z" fill-opacity=".5942" fill-rule="evenodd" stroke="#000" stroke-opacity=".5942" stroke-width="1pt"/>
  </marker>
  <marker id="a" overflow="visible" orient="auto">
   <path transform="matrix(-.4 0 0 -.4 -4 0)" d="m0 0 5-5-17.5 5 17.5 5z" fill-opacity=".5942" fill-rule="evenodd" stroke="#000" stroke-opacity=".5942" stroke-width="1pt"/>
  </marker>
  <marker id="b" overflow="visible" orient="auto">
   <path transform="matrix(-.4 0 0 -.4 -4 0)" d="m0 0 5-5-17.5 5 17.5 5z" fill-opacity=".5942" fill-rule="evenodd" stroke="#000" stroke-opacity=".5942" stroke-width="1pt"/>
  </marker>
  <marker id="g" overflow="visible" orient="auto">
   <path transform="matrix(-.4 0 0 -.4 -4 0)" d="m0 0 5-5-17.5 5 17.5 5z" fill-opacity=".5942" fill-rule="evenodd" stroke="#000" stroke-opacity=".5942" stroke-width="1pt"/>
  </marker>
  <marker id="d" overflow="visible" orient="auto">
   <path transform="matrix(-.4 0 0 -.4 -4 0)" d="m0 0 5-5-17.5 5 17.5 5z" fill-opacity=".5942" fill-rule="evenodd" stroke="#000" stroke-opacity=".5942" stroke-width="1pt"/>
  </marker>
  <marker id="f" overflow="visible" orient="auto">
   <path transform="matrix(-.4 0 0 -.4 -4 0)" d="m0 0 5-5-17.5 5 17.5 5z" fill-opacity=".5942" fill-rule="evenodd" stroke="#000" stroke-opacity=".5942" stroke-width="1pt"/>
  </marker>
  <marker id="c" overflow="visible" orient="auto">
   <path transform="matrix(-.4 0 0 -.4 -4 0)" d="m0 0 5-5-17.5 5 17.5 5z" fill-opacity=".5942" fill-rule="evenodd" stroke="#000" stroke-opacity=".5942" stroke-width="1pt"/>
  </marker>
 </defs>
 <g transform="translate(-8.3236 -18.58)" stroke="#000">
  <path d="m15.234 113.52h143.54" fill="none" marker-end="url(#Arrow1Mend)" stroke-opacity=".5942" stroke-width=".665"/>
  <path d="m18.982 117.85v-97.959" fill="none" marker-end="url(#e)" stroke-opacity=".5942" stroke-width=".665"/>
  <g id="content" transform="matrix(.69602 0 0 -.69602 -160.92 606.79)" fill-rule="evenodd" stroke-miterlimit="10.433" stroke-width="2.1551" ns0:preamble="default_packages.tex" ns0:text="$$ 4 6 8 10 12 14 16 18$$\n" xml:space="preserve"><g fill-opacity=".78431" stroke-width="0"><path d="m276.2 696.97v-0.86c0-0.36-0.02-0.47-0.76-0.47h-0.21v-0.31c0.41 0.03 0.93 0.03 1.35 0.03s0.94 0 1.35-0.03v0.31h-0.21c-0.74 0-0.75 0.11-0.75 0.47v0.86h0.99v0.31h-0.99v4.52c0 0.2 0 0.26-0.16 0.26-0.09 0-0.12 0-0.2-0.12l-3.07-4.66h0.28l2.44 3.7v-3.7h-2.72v-0.31z"/><path d="m296.29 698.78v0.24c0 2.51 1.24 2.87 1.75 2.87 0.24 0 0.66-0.06 0.88-0.4-0.15 0-0.55 0-0.55-0.45 0-0.3 0.24-0.45 0.46-0.45 0.15 0 0.45 0.09 0.45 0.47 0 0.6-0.43 1.08-1.26 1.08-1.28 0-2.63-1.29-2.63-3.48 0-2.65 1.16-3.36 2.09-3.36 1.11 0 2.05 0.94 2.05 2.25 0 1.26-0.88 2.21-1.99 2.21l-0.01-0.23c0.16 0 0.62 0 0.93-0.61 0.18-0.37 0.18-0.88 0.18-1.36s0-0.98-0.17-1.33c-0.3-0.6-0.76-0.65-0.99-0.65-0.63 0-0.93 0.6-0.99 0.74-0.18 0.47-0.18 1.27-0.18 1.44 0 0.78 0.32 1.77 1.22 1.77l0.01 0.23c-0.68 0-1.05-0.5-1.25-0.98z"/><path d="m319.74 699.16 0.07 0.03 0.06 0.04 0.06 0.03 0.07 0.04 0.12 0.08 0.05 0.04 0.06 0.04 0.05 0.04 0.06 0.04 0.05 0.05 0.05 0.04 0.04 0.05 0.05 0.04 0.16 0.2 0.12 0.2 0.03 0.06 0.02 0.05 0.02 0.06 0.02 0.05 0.03 0.18 0.01 0.05v0.06l0.01 0.07c0 0.91-0.89 1.48-1.8 1.48l-0.01-0.25c0.73 0 1.37-0.52 1.37-1.23 0-0.57-0.39-1.05-0.99-1.4l-1.24 0.8c-0.46 0.3-0.5 0.64-0.5 0.8 0 0.61 0.65 1.03 1.36 1.03l0.01 0.25c-1 0-1.8-0.74-1.8-1.66 0-0.18 0.02-0.63 0.43-1.1 0.11-0.12 0.48-0.36 0.73-0.53l0.23-0.15 1.23-0.78c0.28-0.18 0.75-0.48 0.75-1.09 0-0.73-0.75-1.25-1.57-1.25-0.86 0-1.57 0.61-1.57 1.44 0 0.58 0.31 1.21 1.16 1.68l-0.23 0.15c-0.58-0.29-1.43-0.85-1.43-1.83 0-1.05 1.01-1.72 2.06-1.72 1.13 0 2.08 0.83 2.08 1.89 0 0.36-0.12 0.8-0.49 1.22-0.19 0.21-0.35 0.31-0.99 0.71z"/><path d="m338.84 701.85v0.15l-0.01 0.01v0.03l-0.01 0.01v0.01l-0.02 0.02h-0.01l-0.01 0.01h-0.01l-0.01 0.01h-0.07l-0.01 0.01h-0.07c-0.62-0.64-1.5-0.64-1.81-0.64v-0.31c0.2 0 0.78 0 1.3 0.26v-5.14c0-0.36-0.03-0.48-0.93-0.48h-0.31v-0.31c0.34 0.03 1.21 0.03 1.61 0.03s1.27 0 1.62-0.03v0.31h-0.32c-0.9 0-0.93 0.11-0.93 0.48z"/><path d="m345.48 698.67v0.15l-0.01 0.15v0.15l-0.01 0.14-0.03 0.45-0.02 0.14-0.02 0.15-0.03 0.14-0.03 0.15-0.04 0.14-0.05 0.14-0.04 0.14-0.12 0.28c-0.46 0.96-1.28 1.12-1.7 1.12-0.59 0-1.32-0.26-1.73-1.19-0.32-0.68-0.37-1.46-0.37-2.25 0-0.75 0.04-1.64 0.45-2.39 0.43-0.81 1.16-1.01 1.64-1.01v0.22c-0.39 0-0.97 0.25-1.15 1.2-0.11 0.6-0.11 1.51-0.11 2.1 0 0.63 0 1.29 0.08 1.83 0.19 1.18 0.93 1.27 1.18 1.27 0.33 0 0.99-0.18 1.18-1.16 0.1-0.56 0.1-1.32 0.1-1.94 0-0.75 0-1.42-0.11-2.06-0.15-0.94-0.72-1.24-1.17-1.24v-0.22c0.54 0 1.3 0.21 1.74 1.15 0.32 0.69 0.37 1.46 0.37 2.25z"/><path d="m359.7 701.7v0.16l-0.01 0.01v0.02l-0.01 0.01v0.01l-0.03 0.03h-0.02l-0.01 0.01h-0.07l-0.01 0.01h-0.07c-0.61-0.64-1.49-0.64-1.81-0.64v-0.31c0.2 0 0.79 0 1.31 0.26v-5.14c0-0.36-0.03-0.48-0.93-0.48h-0.32v-0.31c0.35 0.03 1.22 0.03 1.61 0.03 0.4 0 1.27 0 1.62-0.03v0.31h-0.32c-0.9 0-0.93 0.11-0.93 0.48z"/><path d="m363.02 696.1 1.06 1.03c1.55 1.37 2.15 1.9 2.15 2.9 0 1.13-0.9 1.93-2.11 1.93-1.13 0-1.87-0.92-1.87-1.8 0-0.56 0.5-0.56 0.53-0.56 0.17 0 0.52 0.12 0.52 0.53 0 0.26-0.18 0.51-0.53 0.51h-0.13c0.23 0.64 0.77 1.01 1.35 1.01 0.9 0 1.33-0.81 1.33-1.62 0-0.8-0.5-1.58-1.04-2.2l-1.92-2.12c-0.11-0.11-0.11-0.13-0.11-0.37h3.7l0.28 1.73h-0.25c-0.05-0.3-0.12-0.74-0.22-0.89-0.07-0.08-0.73-0.08-0.95-0.08z"/><path d="m380.83 701.77v0.09l-0.01 0.01v0.07l-0.01 0.01v0.02l-0.01 0.01v0.01h-0.01v0.01h-0.01l-0.01 0.01h-0.02v0.01h-0.08l-0.01 0.01h-0.06c-0.62-0.64-1.5-0.64-1.82-0.64v-0.31c0.2 0 0.79 0 1.31 0.26v-5.14c0-0.36-0.03-0.48-0.93-0.48h-0.32v-0.31c0.35 0.03 1.22 0.03 1.62 0.03s1.26 0 1.61-0.03v0.31h-0.32c-0.89 0-0.92 0.11-0.92 0.48z"/><path d="m385.81 697.05v-0.86c0-0.36-0.02-0.47-0.76-0.47h-0.21v-0.31c0.41 0.03 0.93 0.03 1.35 0.03s0.94 0 1.35-0.03v0.31h-0.21c-0.73 0-0.75 0.11-0.75 0.47v0.86h0.99v0.31h-0.99v4.52c0 0.2 0 0.26-0.16 0.26-0.09 0-0.12 0-0.2-0.12l-3.06-4.66h0.27l2.44 3.7v-3.7h-2.71v-0.31z"/><path d="m402.2 701.94v0.13l-0.01 0.01v0.04l-0.01 0.01v0.01l-0.01 0.01v0.01h-0.01v0.01h-0.01l-0.01 0.01h-0.02v0.01h-0.08v0.01h-0.07c-0.62-0.64-1.5-0.64-1.82-0.64v-0.31c0.2 0 0.79 0 1.31 0.26v-5.14c0-0.36-0.03-0.48-0.93-0.48h-0.32v-0.31c0.35 0.03 1.22 0.03 1.62 0.03s1.27 0 1.62-0.03v0.31h-0.32c-0.9 0-0.93 0.11-0.93 0.48z"/><path d="m405.56 698.84v0.24c0 2.51 1.24 2.87 1.75 2.87 0.24 0 0.66-0.06 0.88-0.4-0.15 0-0.55 0-0.55-0.45 0-0.3 0.24-0.45 0.46-0.45 0.16 0 0.46 0.09 0.46 0.47 0 0.6-0.44 1.08-1.27 1.08-1.28 0-2.62-1.29-2.62-3.48 0-2.65 1.15-3.36 2.08-3.36 1.11 0 2.05 0.94 2.05 2.25 0 1.26-0.88 2.21-1.99 2.21l-0.01-0.23c0.16 0 0.62 0 0.93-0.61 0.18-0.37 0.18-0.88 0.18-1.36s0-0.98-0.17-1.33c-0.3-0.6-0.76-0.65-0.99-0.65-0.63 0-0.93 0.6-0.99 0.74-0.18 0.47-0.18 1.27-0.18 1.44 0 0.78 0.32 1.77 1.22 1.77l0.01 0.23c-0.68 0-1.05-0.5-1.25-0.98z"/><path d="m424.04 701.9v0.15l-0.01 0.01v0.03l-0.01 0.01v0.01l-0.02 0.02h-0.01v0.01h-0.02l-0.01 0.01h-0.07l-0.01 0.01h-0.07c-0.62-0.64-1.49-0.64-1.81-0.64v-0.31c0.2 0 0.78 0 1.3 0.26v-5.14c0-0.36-0.03-0.48-0.92-0.48h-0.32v-0.31c0.35 0.03 1.21 0.03 1.61 0.03s1.27 0 1.62-0.03v0.31h-0.32c-0.9 0-0.93 0.11-0.93 0.48z"/><path d="m429.17 699.14 0.07 0.03 0.06 0.04 0.07 0.03 0.24 0.16 0.05 0.04 0.06 0.04 0.05 0.04 0.05 0.05 0.05 0.04 0.09 0.09 0.16 0.2 0.03 0.05 0.04 0.05 0.03 0.05 0.02 0.05 0.03 0.06 0.02 0.05 0.02 0.06 0.02 0.05 0.01 0.06 0.02 0.06 0.01 0.06v0.05l0.01 0.06v0.07c0 0.91-0.89 1.48-1.8 1.48l-0.01-0.25c0.73 0 1.37-0.52 1.37-1.23 0-0.57-0.39-1.05-0.99-1.4l-1.23 0.8c-0.46 0.3-0.5 0.64-0.5 0.8 0 0.61 0.65 1.03 1.35 1.03l0.01 0.25c-0.99 0-1.8-0.74-1.8-1.66 0-0.18 0.02-0.63 0.44-1.1 0.11-0.12 0.48-0.36 0.73-0.53l0.23-0.15 1.22-0.78c0.28-0.18 0.75-0.48 0.75-1.09 0-0.73-0.75-1.25-1.57-1.25-0.85 0-1.57 0.61-1.57 1.44 0 0.58 0.32 1.21 1.17 1.68l-0.23 0.15c-0.58-0.29-1.44-0.85-1.44-1.83 0-1.05 1.02-1.72 2.06-1.72 1.13 0 2.08 0.83 2.08 1.89 0 0.36-0.11 0.8-0.49 1.22-0.19 0.21-0.35 0.31-0.99 0.71z"/></g><g fill-opacity=".47059" stroke="#000" stroke-miterlimit="10.433" stroke-opacity=".47059" stroke-width="1.0775"><path d="m361.43 708.7v-3.6995"/><g fill-rule="evenodd"><path d="m382.95 708.68v-3.6995"/><path d="m340.01 708.57v-3.6995"/><path d="m318.46 708.72v-3.6995"/><path d="m425.84 708.48v-3.6995"/><path d="m404.38 708.62v-3.6995"/><path d="m276.03 708.62v-3.6995"/><path d="m297.2 708.48v-3.6995"/></g></g><g fill="#d20000" fill-opacity=".54589"><ellipse transform="scale(1,-1)" cx="360.92" cy="-799.09" rx="3.5759" ry="3.4384" stroke="none"/><g fill-rule="evenodd" stroke="none"><ellipse transform="scale(1,-1)" cx="382.73" cy="-789.28" rx="3.5759" ry="3.4384"/><ellipse transform="scale(1,-1)" cx="350.76" cy="-771.33" rx="3.5759" ry="3.4384"/><ellipse transform="scale(1,-1)" cx="372.36" cy="-763.12" rx="3.5759" ry="3.4384"/><ellipse transform="scale(1,-1)" cx="275.69" cy="-726.55" rx="3.5759" ry="3.4384"/><ellipse transform="scale(1,-1)" cx="308.19" cy="-732.79" rx="3.5759" ry="3.4384"/><ellipse transform="scale(1,-1)" cx="286.64" cy="-742.24" rx="3.5759" ry="3.4384"/><ellipse transform="scale(1,-1)" cx="318.49" cy="-756.18" rx="3.5759" ry="3.4384"/><ellipse transform="scale(1,-1)" cx="297.25" cy="-759.37" rx="3.5759" ry="3.4384"/><ellipse transform="scale(1,-1)" cx="340.42" cy="-768.26" rx="3.5759" ry="3.4384"/><ellipse transform="scale(1,-1)" cx="329.42" cy="-776.68" rx="3.5759" ry="3.4384"/></g><path d="m259.42 726.55 184.13 94.463" stroke="#005ce6" stroke-miterlimit="10.433" stroke-opacity=".70588" stroke-width="1.3864"/></g><g fill-rule="evenodd" stroke-miterlimit="10.433"><g fill-opacity=".78431" stroke-width="0"><path d="m249.79 722.13v-0.86c0-0.36-0.02-0.47-0.76-0.47h-0.21v-0.31c0.41 0.03 0.93 0.03 1.35 0.03s0.94 0 1.35-0.03v0.31h-0.21c-0.74 0-0.75 0.11-0.75 0.47v0.86h0.99v0.31h-0.99v4.52c0 0.2 0 0.26-0.16 0.26-0.09 0-0.12 0-0.2-0.12l-3.07-4.66h0.28l2.44 3.7v-3.7h-2.72v-0.31z"/><path d="m247.98 746.19v0.24c0 2.51 1.24 2.87 1.75 2.87 0.24 0 0.66-0.06 0.88-0.4-0.15 0-0.55 0-0.55-0.45 0-0.3 0.24-0.45 0.46-0.45 0.15 0 0.45 0.09 0.45 0.47 0 0.6-0.43 1.08-1.26 1.08-1.28 0-2.63-1.29-2.63-3.48 0-2.65 1.16-3.36 2.09-3.36 1.11 0 2.05 0.94 2.05 2.25 0 1.26-0.88 2.21-1.99 2.21l-0.01-0.23c0.16 0 0.62 0 0.93-0.61 0.18-0.37 0.18-0.88 0.18-1.36s0-0.98-0.17-1.33c-0.3-0.6-0.76-0.65-0.99-0.65-0.63 0-0.93 0.6-0.99 0.74-0.18 0.47-0.18 1.27-0.18 1.44 0 0.78 0.32 1.77 1.22 1.77l0.01 0.23c-0.68 0-1.05-0.5-1.25-0.98z"/><path d="m249.84 767.94 0.07 0.03 0.06 0.04 0.06 0.03 0.07 0.04 0.12 0.08 0.05 0.04 0.06 0.04 0.05 0.04 0.06 0.04 0.05 0.05 0.05 0.04 0.04 0.05 0.05 0.04 0.16 0.2 0.12 0.2 0.03 0.06 0.02 0.05 0.02 0.06 0.02 0.05 0.03 0.18 0.01 0.05v0.06l0.01 0.07c0 0.91-0.89 1.48-1.8 1.48l-0.01-0.25c0.73 0 1.37-0.52 1.37-1.23 0-0.57-0.39-1.05-0.99-1.4l-1.24 0.8c-0.46 0.3-0.5 0.64-0.5 0.8 0 0.61 0.65 1.03 1.36 1.03l0.01 0.25c-1 0-1.8-0.74-1.8-1.66 0-0.18 0.02-0.63 0.43-1.1 0.11-0.12 0.48-0.36 0.73-0.53l0.23-0.15 1.23-0.78c0.28-0.18 0.75-0.48 0.75-1.09 0-0.73-0.75-1.25-1.57-1.25-0.86 0-1.57 0.61-1.57 1.44 0 0.58 0.31 1.21 1.16 1.68l-0.23 0.15c-0.58-0.29-1.43-0.85-1.43-1.83 0-1.05 1.01-1.72 2.06-1.72 1.13 0 2.08 0.83 2.08 1.89 0 0.36-0.12 0.8-0.49 1.22-0.19 0.21-0.35 0.31-0.99 0.71z"/><path d="m245.79 793.16v0.15l-0.01 0.01v0.03l-0.01 0.01v0.01l-0.02 0.02h-0.01l-0.01 0.01h-0.01l-0.01 0.01h-0.07l-0.01 0.01h-0.07c-0.62-0.64-1.5-0.64-1.81-0.64v-0.31c0.2 0 0.78 0 1.3 0.26v-5.14c0-0.36-0.03-0.48-0.93-0.48h-0.31v-0.31c0.34 0.03 1.21 0.03 1.61 0.03s1.27 0 1.62-0.03v0.31h-0.32c-0.9 0-0.93 0.11-0.93 0.48z"/><path d="m252.43 789.98v0.15l-0.01 0.15v0.15l-0.01 0.14-0.03 0.45-0.02 0.14-0.02 0.15-0.03 0.14-0.03 0.15-0.04 0.14-0.05 0.14-0.04 0.14-0.12 0.28c-0.46 0.96-1.28 1.12-1.7 1.12-0.59 0-1.32-0.26-1.73-1.19-0.32-0.68-0.37-1.46-0.37-2.25 0-0.75 0.04-1.64 0.45-2.39 0.43-0.81 1.16-1.01 1.64-1.01v0.22c-0.39 0-0.97 0.25-1.15 1.2-0.11 0.6-0.11 1.51-0.11 2.1 0 0.63 0 1.29 0.08 1.83 0.19 1.18 0.93 1.27 1.18 1.27 0.33 0 0.99-0.18 1.18-1.16 0.1-0.56 0.1-1.32 0.1-1.94 0-0.75 0-1.42-0.11-2.06-0.15-0.94-0.72-1.24-1.17-1.24v-0.22c0.54 0 1.3 0.21 1.74 1.15 0.32 0.69 0.37 1.46 0.37 2.25z"/><path d="m245.24 815.23v0.16l-0.01 0.01v0.02l-0.01 0.01v0.01l-0.03 0.03h-0.02l-0.01 0.01h-0.07l-0.01 0.01h-0.07c-0.61-0.64-1.49-0.64-1.81-0.64v-0.31c0.2 0 0.79 0 1.31 0.26v-5.14c0-0.36-0.03-0.48-0.93-0.48h-0.32v-0.31c0.35 0.03 1.22 0.03 1.61 0.03 0.4 0 1.27 0 1.62-0.03v0.31h-0.32c-0.9 0-0.93 0.11-0.93 0.48z"/><path d="m248.56 809.63 1.06 1.03c1.55 1.37 2.15 1.9 2.15 2.9 0 1.13-0.9 1.93-2.11 1.93-1.13 0-1.87-0.92-1.87-1.8 0-0.56 0.5-0.56 0.53-0.56 0.17 0 0.52 0.12 0.52 0.53 0 0.26-0.18 0.51-0.53 0.51h-0.13c0.23 0.64 0.77 1.01 1.35 1.01 0.9 0 1.33-0.81 1.33-1.62 0-0.8-0.5-1.58-1.04-2.2l-1.92-2.12c-0.11-0.11-0.11-0.13-0.11-0.37h3.7l0.28 1.73h-0.25c-0.05-0.3-0.12-0.74-0.22-0.89-0.07-0.08-0.73-0.08-0.95-0.08z"/></g><g fill-opacity=".47059" stroke="#000" stroke-opacity=".47059" stroke-width="1.0775"><path d="m258.3 723.56h-3.6995"/><path d="m258.37 745.59h-3.6995"/><path d="m258.44 767.85h-3.6995"/><path d="m258.23 789.85h-3.6995"/><path d="m258.37 812.18h-3.6995"/></g></g><g fill="#d20000" fill-rule="evenodd" stroke="none"><g fill-opacity=".54589"><ellipse transform="scale(1,-1)" cx="562.93" cy="-559.66" rx="3.5759" ry="3.4384"/><ellipse transform="scale(1,-1)" cx="562.87" cy="-562.17" rx="3.5759" ry="3.4384"/><ellipse transform="scale(1,-1)" cx="562.87" cy="-563.4" rx="3.5759" ry="3.4384"/><ellipse transform="scale(1,-1)" cx="562.93" cy="-565.37" rx="3.5759" ry="3.4384"/><ellipse transform="scale(1,-1)" cx="562.87" cy="-574.39" rx="3.5759" ry="3.4384"/><ellipse transform="scale(1,-1)" cx="562.9" cy="-579.93" rx="3.5759" ry="3.4384"/><ellipse transform="scale(1,-1)" cx="562.9" cy="-578.47" rx="3.5759" ry="3.4384"/><ellipse transform="scale(1,-1)" cx="562.9" cy="-588.82" rx="3.5759" ry="3.4384"/><ellipse transform="scale(1,-1)" cx="562.87" cy="-586.71" rx="3.5759" ry="3.4384"/><ellipse transform="scale(1,-1)" cx="562.73" cy="-595.16" rx="3.5759" ry="3.4384"/><ellipse transform="scale(1,-1)" cx="562.83" cy="-599.31" rx="3.5759" ry="3.4384"/><ellipse transform="scale(1,-1)" cx="520.15" cy="-713.78" rx="3.5759" ry="3.4384"/><ellipse transform="scale(1,-1)" cx="530.62" cy="-732.02" rx="3.5759" ry="3.4384"/><ellipse transform="scale(1,-1)" cx="541.66" cy="-747.28" rx="3.5759" ry="3.4384"/><ellipse transform="scale(1,-1)" cx="552.31" cy="-759.67" rx="3.5759" ry="3.4384"/><ellipse transform="scale(1,-1)" cx="562.78" cy="-769.17" rx="3.5759" ry="3.4384"/><ellipse transform="scale(1,-1)" cx="573.62" cy="-776.27" rx="3.5759" ry="3.4384"/><ellipse transform="scale(1,-1)" cx="584.47" cy="-780.59" rx="3.5759" ry="3.4384"/><ellipse transform="scale(1,-1)" cx="627.38" cy="-768.98" rx="3.5759" ry="3.4384"/><ellipse transform="scale(1,-1)" cx="616.73" cy="-776.18" rx="3.5759" ry="3.4384"/><ellipse transform="scale(1,-1)" cx="605.98" cy="-780.31" rx="3.5759" ry="3.4384"/><ellipse transform="scale(1,-1)" cx="595.32" cy="-781.46" rx="3.5759" ry="3.4384"/><ellipse transform="scale(1,-1)" cx="680.09" cy="-638.7" rx="3.5759" ry="3.4384" stroke-width="1"/></g><g fill-opacity=".5451"><ellipse transform="scale(1,-1)" cx="275.59" cy="-561.16" rx="3.5759" ry="3.4384"/><ellipse transform="scale(1,-1)" cx="383.12" cy="-599.03" rx="3.5759" ry="3.4384"/><ellipse transform="scale(1,-1)" cx="361.55" cy="-591.62" rx="3.5759" ry="3.4384"/><ellipse transform="scale(1,-1)" cx="350.8" cy="-587.77" rx="3.5759" ry="3.4384"/><ellipse transform="scale(1,-1)" cx="329.21" cy="-580.15" rx="3.5759" ry="3.4384"/><ellipse transform="scale(1,-1)" cx="340.16" cy="-583.89" rx="3.5759" ry="3.4384"/><ellipse transform="scale(1,-1)" cx="318.56" cy="-576.21" rx="3.5759" ry="3.4384"/><ellipse transform="scale(1,-1)" cx="308.09" cy="-572.37" rx="3.5759" ry="3.4384"/><ellipse transform="scale(1,-1)" cx="297.24" cy="-569.11" rx="3.5759" ry="3.4384"/><ellipse transform="scale(1,-1)" cx="286.4" cy="-564.89" rx="3.5759" ry="3.4384"/></g></g><path d="m253.04 530.28h206.23" fill="none" marker-end="url(#a)" stroke="#000" stroke-miterlimit="4" stroke-opacity=".5942" stroke-width=".95543"/><path d="m258.42 524.05v140.74" fill="none" marker-end="url(#b)" stroke="#000" stroke-miterlimit="4" stroke-opacity=".5942" stroke-width=".95543"/><g fill-rule="evenodd" stroke-miterlimit="10.433"><g fill-opacity=".78431"><g stroke-width="0"><path d="m276.15 518.55v-0.86c0-0.36-0.02-0.47-0.76-0.47h-0.21v-0.31c0.41 0.03 0.93 0.03 1.35 0.03s0.94 0 1.35-0.03v0.31h-0.21c-0.74 0-0.75 0.11-0.75 0.47v0.86h0.99v0.31h-0.99v4.52c0 0.2 0 0.26-0.16 0.26-0.09 0-0.12 0-0.2-0.12l-3.07-4.66h0.28l2.44 3.7v-3.7h-2.72v-0.31z"/><path d="m296.25 520.36v0.24c0 2.51 1.24 2.87 1.75 2.87 0.23999 0 0.65999-0.06 0.88-0.4-0.15 0-0.55 0-0.55-0.45 0-0.3 0.24-0.45 0.46-0.45 0.14999 0 0.45 0.09 0.45 0.47 0 0.6-0.43 1.08-1.26 1.08-1.28 0-2.63-1.29-2.63-3.48 0-2.65 1.16-3.36 2.09-3.36 1.11 0 2.05 0.94 2.05 2.25 0 1.26-0.88 2.21-1.99 2.21l-0.01-0.23c0.16 0 0.62 0 0.93-0.61 0.18-0.37 0.18-0.88 0.18-1.36s0-0.98-0.17-1.33c-0.3-0.6-0.76-0.65-0.99-0.65-0.63 0-0.93 0.6-0.99 0.74-0.18 0.47-0.18 1.27-0.18 1.44 0 0.78 0.32 1.77 1.22 1.77l0.01 0.23c-0.68 0-1.05-0.5-1.25-0.98z"/><path d="m319.69 520.74 0.07 0.03 0.06 0.04 0.06 0.03 0.07 0.04 0.12 0.08 0.05 0.04 0.06 0.04 0.05 0.04 0.06 0.04 0.05 0.05 0.05 0.04 0.04 0.05 0.05 0.04 0.16 0.2 0.12 0.2 0.03 0.06 0.02 0.05 0.02 0.06 0.02 0.05 0.03 0.18 0.01 0.05v0.06l0.01 0.07c0 0.91-0.89 1.48-1.8 1.48l-0.01-0.25c0.73 0 1.37-0.52 1.37-1.23 0-0.57-0.39-1.05-0.99-1.4l-1.24 0.8c-0.46 0.3-0.5 0.64-0.5 0.8 0 0.61 0.65 1.03 1.36 1.03l0.01 0.25c-1 0-1.8-0.74-1.8-1.66 0-0.18 0.02-0.63 0.43-1.1 0.11-0.12 0.48-0.36 0.73-0.53l0.23-0.15 1.23-0.78c0.28-0.18 0.75-0.48 0.75-1.09 0-0.73-0.75-1.25-1.57-1.25-0.86 0-1.57 0.61-1.57 1.44 0 0.58 0.31 1.21 1.16 1.68l-0.23 0.15c-0.58-0.29-1.43-0.85-1.43-1.83 0-1.05 1.01-1.72 2.06-1.72 1.13 0 2.08 0.83 2.08 1.89 0 0.36-0.12 0.8-0.49 1.22-0.19 0.21-0.35 0.31-0.99 0.71z"/><path d="m338.8 523.43v0.15l-0.01 0.01v0.03l-0.01 0.01v0.01l-0.02 0.02h-0.01l-0.01 0.01h-0.01l-0.01 0.01h-0.07l-0.01 0.01h-0.07c-0.62-0.64-1.5-0.64-1.81-0.64v-0.31c0.2 0 0.78 0 1.3 0.26v-5.14c0-0.36-0.03-0.47999-0.93-0.47999h-0.31v-0.31c0.34 0.03 1.21 0.03 1.61 0.03s1.27 0 1.62-0.03v0.31h-0.32c-0.9 0-0.93 0.11-0.93 0.47999z"/><path d="m345.44 520.25v0.15l-0.01 0.15v0.15l-0.01 0.14-0.03 0.45-0.02 0.14-0.02 0.15-0.03 0.14-0.03 0.15-0.04 0.14-0.05 0.14-0.04 0.14-0.12 0.28c-0.46 0.96-1.28 1.12-1.7 1.12-0.59 0-1.32-0.26-1.73-1.19-0.32-0.68-0.37-1.46-0.37-2.25 0-0.75 0.04-1.64 0.45-2.39 0.43-0.81 1.16-1.01 1.64-1.01v0.22c-0.39 0-0.97 0.25-1.15 1.2-0.11 0.6-0.11 1.51-0.11 2.1 0 0.63 0 1.29 0.08 1.83 0.19 1.18 0.93 1.27 1.18 1.27 0.33 0 0.99-0.18 1.18-1.16 0.1-0.56 0.1-1.32 0.1-1.94 0-0.75 0-1.42-0.11-2.06-0.15-0.94-0.72-1.24-1.17-1.24v-0.22c0.54 0 1.3 0.21 1.74 1.15 0.32 0.69 0.37 1.46 0.37 2.25z"/><path d="m359.65 523.28v0.16l-0.01 0.01v0.02l-0.01 0.01v0.01l-0.03 0.03h-0.02l-0.01 0.01h-0.07l-0.01 0.01h-0.07c-0.61-0.64-1.49-0.64-1.81-0.64v-0.31c0.2 0 0.79 0 1.31 0.26001v-5.14c0-0.36-0.03-0.48-0.93-0.48h-0.32v-0.31c0.35 0.03 1.22 0.03 1.61 0.03 0.4 0 1.27 0 1.62-0.03v0.31h-0.31999c-0.90001 0-0.93 0.11-0.93 0.48z"/><path d="m362.97 517.68 1.06 1.03c1.55 1.37 2.15 1.9 2.15 2.9 0 1.13-0.9 1.93-2.11 1.93-1.13 0-1.87-0.92-1.87-1.8 0-0.56 0.5-0.56 0.53-0.56 0.17 0 0.52 0.12 0.52 0.53 0 0.26-0.18 0.51-0.53 0.51h-0.13c0.23 0.64 0.77 1.01 1.35 1.01 0.9 0 1.33-0.81 1.33-1.62 0-0.8-0.5-1.58-1.04-2.2l-1.92-2.12c-0.11-0.11-0.11-0.13-0.11-0.37h3.7l0.28 1.73h-0.25c-0.05-0.3-0.12-0.74-0.22-0.89-0.07-0.08-0.73-0.08-0.95-0.08z"/><path d="m380.78 523.35v0.09l-0.01 0.01v0.07l-0.01 0.01v0.02l-0.01 0.01v0.01h-0.01v0.01h-0.01l-0.01 0.01h-0.02v0.01h-0.08l-0.01 0.01h-0.06c-0.62-0.63999-1.5-0.63999-1.82-0.63999v-0.31c0.2 0 0.79 0 1.31 0.25999v-5.14c0-0.36-0.03-0.48-0.93-0.48h-0.32001v-0.31c0.35 0.03 1.22 0.03 1.62 0.03s1.26 0 1.61-0.03v0.31h-0.31999c-0.89001 0-0.92001 0.11-0.92001 0.48z"/><path d="m385.76 518.63v-0.86c0-0.36-0.02-0.47-0.76-0.47h-0.21v-0.31c0.41 0.03 0.93 0.03 1.35 0.03s0.94 0 1.35-0.03v0.31h-0.21001c-0.72999 0-0.74999 0.11-0.74999 0.47v0.86h0.99v0.31h-0.99v4.52c0 0.2 0 0.26-0.16 0.26-0.09 0-0.12 0-0.2-0.12l-3.06-4.66h0.27001l2.44 3.7v-3.7h-2.71v-0.31z"/><path d="m402.15 523.52v0.13l-0.01 0.01v0.04l-0.01 0.01v0.01l-0.01 0.01v0.01h-0.01v0.01h-0.01l-0.01 0.01h-0.02v0.01h-0.08v0.01h-0.07c-0.62-0.64-1.5-0.64-1.82-0.64v-0.31c0.2 0 0.79 0 1.31 0.26v-5.14c0-0.36-0.03-0.48-0.93-0.48h-0.32v-0.31c0.35 0.03 1.22 0.03 1.62 0.03s1.27 0 1.62-0.03v0.31h-0.32c-0.9 0-0.92999 0.11-0.92999 0.48z"/><path d="m405.51 520.42v0.24c0 2.51 1.24 2.87 1.75 2.87 0.24 0 0.66-0.06 0.88-0.4-0.15 0-0.55 0-0.55-0.45 0-0.3 0.24-0.45 0.46-0.45 0.16 0 0.46 0.09 0.46 0.47 0 0.6-0.44 1.08-1.27 1.08-1.28 0-2.62-1.29-2.62-3.48 0-2.65 1.15-3.36 2.08-3.36 1.11 0 2.05 0.94 2.05 2.25 0 1.26-0.88 2.21-1.99 2.21l-0.01-0.23c0.16 0 0.62 0 0.93-0.61 0.18-0.37 0.18-0.88 0.18-1.36s0-0.98-0.17-1.33c-0.3-0.6-0.76-0.65-0.99-0.65-0.63 0-0.93 0.6-0.99 0.74-0.18 0.47-0.18 1.27-0.18 1.44 0 0.78 0.32 1.77 1.22 1.77l0.01 0.23c-0.68 0-1.05-0.5-1.25-0.98z"/><path d="m423.99 523.49v0.15l-0.01 0.01v0.03l-0.01 0.01v0.01l-0.02 0.02h-0.01v0.01h-0.02l-0.01 0.01h-0.07l-0.01 0.01h-0.07c-0.62-0.63999-1.49-0.63999-1.81-0.63999v-0.31c0.19999 0 0.77999 0 1.3 0.25999v-5.14c0-0.36-0.03-0.48-0.92-0.48h-0.32v-0.31c0.35 0.03 1.21 0.03 1.61 0.03s1.27 0 1.62-0.03v0.31h-0.32c-0.9 0-0.93 0.11-0.93 0.48z"/><path d="m429.12 520.73 0.07 0.03 0.06 0.04 0.07 0.03 0.24 0.16 0.05 0.04 0.06 0.04 0.05 0.04 0.05 0.05 0.05 0.04 0.09 0.09 0.16 0.2 0.03 0.05 0.04 0.05 0.03 0.05 0.02 0.05 0.03 0.06 0.02 0.05 0.02 0.06 0.02 0.05 0.01 0.06 0.02 0.06 0.01 0.06v0.05l0.01 0.06v0.07c0 0.91-0.88999 1.48-1.8 1.48l-0.01-0.25c0.73 0 1.37-0.52 1.37-1.23 0-0.57-0.39-1.05-0.99-1.4l-1.23 0.8c-0.46 0.3-0.5 0.64-0.5 0.8 0 0.61 0.65 1.03 1.35 1.03l0.01 0.25c-0.99 0-1.8-0.74-1.8-1.66 0-0.18 0.02-0.63 0.44-1.1 0.11-0.12 0.48-0.36 0.73-0.53l0.23-0.15 1.22-0.78c0.28-0.18 0.75-0.48 0.75-1.09 0-0.73-0.75-1.25-1.57-1.25-0.85 0-1.57 0.61-1.57 1.44 0 0.58 0.32 1.21 1.17 1.68l-0.23 0.15c-0.58-0.29-1.44-0.85-1.44-1.83 0-1.05 1.02-1.72 2.06-1.72 1.13 0 2.08 0.83 2.08 1.89 0 0.36-0.11 0.8-0.49 1.22-0.18999 0.21-0.35 0.31-0.99 0.71z"/></g><g stroke="#000" stroke-opacity=".47059" stroke-width="1.0775"><path d="m361.38 530.28v-3.6995"/><path d="m382.9 530.26v-3.6995"/><path d="m339.96 530.16v-3.6995"/><path d="m318.41 530.3v-3.6995"/><path d="m425.79 530.06v-3.6995"/><path d="m404.33 530.21v-3.6995"/><path d="m275.98 530.21v-3.6995"/><path d="m297.15 530.06v-3.6995"/></g></g><path d="m259.37 548.13 184.13 94.463" fill="#d20000" fill-opacity=".54589" stroke="#005ce6" stroke-opacity=".70588" stroke-width="1.3864"/><g fill-opacity=".78431"><g stroke-width="0"><path d="m249.74 543.72v-0.86c0-0.36-0.02-0.47-0.76-0.47h-0.21v-0.31c0.41 0.03 0.93 0.03 1.35 0.03s0.94 0 1.35-0.03v0.31h-0.21c-0.74 0-0.75 0.11-0.75 0.47v0.86h0.99v0.31h-0.99v4.52c0 0.2 0 0.26-0.16 0.26-0.09 0-0.12 0-0.2-0.12l-3.07-4.66h0.28l2.44 3.7v-3.7h-2.72v-0.31z"/><path d="m247.93 567.78v0.24c0 2.51 1.24 2.87 1.75 2.87 0.24 0 0.66-0.06 0.88-0.4-0.15 0-0.55 0-0.55-0.45 0-0.3 0.24-0.45 0.46-0.45 0.15 0 0.45 0.09 0.45 0.47 0 0.6-0.43 1.08-1.26 1.08-1.28 0-2.63-1.29-2.63-3.48 0-2.65 1.16-3.36 2.09-3.36 1.11 0 2.05 0.94 2.05 2.25 0 1.26-0.88 2.21-1.99 2.21l-0.01-0.23c0.16 0 0.62 0 0.93-0.61 0.18-0.37 0.18-0.88 0.18-1.36s0-0.98-0.17-1.33c-0.3-0.6-0.76-0.65-0.99-0.65-0.63 0-0.93 0.6-0.99 0.74-0.18 0.47-0.18 1.27-0.18 1.44 0 0.78 0.32 1.77 1.22 1.77l0.01 0.23c-0.68 0-1.05-0.5-1.25-0.98z"/><path d="m249.79 589.52 0.07 0.03 0.06 0.04 0.06 0.03 0.07 0.04 0.12 0.08 0.05 0.04 0.06 0.04 0.05 0.04 0.06 0.04 0.05 0.05 0.05 0.04 0.04 0.05 0.05 0.04 0.16 0.2 0.12 0.2 0.03 0.06 0.02 0.05 0.02 0.06 0.02 0.05 0.03 0.18 0.01 0.05v0.06l0.01 0.07c0 0.91-0.89 1.48-1.8 1.48l-0.01-0.25c0.73 0 1.37-0.52 1.37-1.23 0-0.57-0.39-1.05-0.99-1.4l-1.24 0.8c-0.46 0.3-0.5 0.64-0.5 0.8 0 0.61 0.65 1.03 1.36 1.03l0.01 0.25c-1 0-1.8-0.74-1.8-1.66 0-0.18 0.02-0.63 0.43-1.1 0.11-0.12 0.48-0.36 0.73-0.53l0.23-0.15 1.23-0.78c0.28-0.18 0.75-0.48 0.75-1.09 0-0.73-0.75-1.25-1.57-1.25-0.86 0-1.57 0.61-1.57 1.44 0 0.58 0.31 1.21 1.16 1.68l-0.23 0.15c-0.58-0.29-1.43-0.85-1.43-1.83 0-1.05 1.01-1.72 2.06-1.72 1.13 0 2.08 0.83 2.08 1.89 0 0.36-0.12 0.8-0.49 1.22-0.19 0.21-0.35 0.31-0.99 0.71z"/><path d="m245.75 614.75v0.15l-0.01 0.01v0.03l-0.01 0.01v0.01l-0.02 0.02h-0.01l-0.01 0.01h-0.01l-0.01 0.01h-0.07l-0.01 0.01h-0.07c-0.62-0.64-1.5-0.64-1.81-0.64v-0.31c0.2 0 0.78 0 1.3 0.26v-5.14c0-0.36-0.03-0.48-0.93-0.48h-0.31v-0.31c0.34 0.03 1.21 0.03 1.61 0.03s1.27 0 1.62-0.03v0.31h-0.32c-0.9 0-0.93 0.11-0.93 0.48z"/><path d="m252.39 611.57v0.15l-0.01 0.15v0.15l-0.01 0.14-0.03 0.45-0.02 0.14-0.02 0.15-0.03 0.14-0.03 0.15-0.04 0.14-0.05 0.14-0.04 0.14-0.12 0.28c-0.46 0.96-1.28 1.12-1.7 1.12-0.59 0-1.32-0.26-1.73-1.19-0.32-0.68-0.37-1.46-0.37-2.25 0-0.75 0.04-1.64 0.45-2.39 0.43-0.81 1.16-1.01 1.64-1.01v0.22c-0.39 0-0.97 0.25-1.15 1.2-0.11 0.6-0.11 1.51-0.11 2.1 0 0.63 0 1.29 0.08 1.83 0.19 1.18 0.93 1.27 1.18 1.27 0.33 0 0.99-0.18 1.18-1.16 0.1-0.56 0.1-1.32 0.1-1.94 0-0.75 0-1.42-0.11-2.06-0.15-0.94-0.72-1.24-1.17-1.24v-0.22c0.54 0 1.3 0.21 1.74 1.15 0.32 0.69 0.37 1.46 0.37 2.25z"/><path d="m245.2 636.82v0.16l-0.01 0.01v0.02l-0.01 0.01v0.01l-0.03 0.03h-0.02l-0.01 0.01h-0.07l-0.01 0.01h-0.07c-0.61-0.64003-1.49-0.64003-1.81-0.64003v-0.31c0.2 0 0.79 0 1.31 0.26v-5.14c0-0.36-0.03-0.48-0.93-0.48h-0.32v-0.31c0.35 0.03 1.22 0.03 1.61 0.03 0.4 0 1.27 0 1.62-0.03v0.31h-0.32c-0.9 0-0.93 0.11-0.93 0.48z"/><path d="m248.52 631.22 1.06 1.03c1.55 1.37 2.15 1.9 2.15 2.9 0 1.13-0.9 1.93-2.11 1.93-1.13 0-1.87-0.92-1.87-1.8 0-0.56 0.5-0.56 0.53-0.56 0.17 0 0.52 0.12 0.52 0.53 0 0.26-0.18 0.51-0.53 0.51h-0.13c0.23 0.64 0.77 1.01 1.35 1.01 0.9 0 1.33-0.81 1.33-1.62 0-0.8-0.5-1.58-1.04-2.2l-1.92-2.12c-0.11-0.11-0.11-0.13-0.11-0.37h3.7l0.28 1.73h-0.25c-0.05-0.3-0.12-0.74-0.22-0.89-0.07-0.08-0.73-0.08-0.95-0.08z"/></g><g stroke="#000" stroke-opacity=".47059" stroke-width="1.0775"><path d="m258.25 545.14h-3.6995"/><path d="m258.32 567.17h-3.6995"/><path d="m258.39 589.44h-3.6995"/><path d="m258.18 611.43h-3.6995"/><path d="m258.32 633.77h-3.6995"/></g></g></g><path d="m497.55 529.67h206.23" fill="none" marker-end="url(#g)" stroke="#000" stroke-miterlimit="4" stroke-opacity=".5942" stroke-width=".95543"/><path d="m502.94 523.45v140.74" fill="none" marker-end="url(#d)" stroke="#000" stroke-miterlimit="4" stroke-opacity=".5942" stroke-width=".95543"/><g fill-rule="evenodd" stroke-miterlimit="10.433"><g fill-opacity=".78431"><g stroke-width="0"><path d="m520.66 517.95v-0.86c0-0.36-0.02-0.47-0.76-0.47h-0.21v-0.31c0.41 0.03 0.93 0.03 1.35 0.03s0.94 0 1.35-0.03v0.31h-0.21c-0.74 0-0.75 0.11-0.75 0.47v0.86h0.99v0.31h-0.99v4.52c0 0.2 0 0.26-0.16 0.26-0.09 0-0.12 0-0.2-0.12l-3.07-4.66h0.28l2.44 3.7v-3.7h-2.72v-0.31z"/><path d="m540.76 519.76v0.24c0 2.51 1.24 2.87 1.75 2.87 0.23999 0 0.65999-0.06 0.88-0.4-0.15 0-0.55 0-0.55-0.45 0-0.3 0.24-0.45 0.46-0.45 0.14999 0 0.45 0.09 0.45 0.47 0 0.6-0.43 1.08-1.26 1.08-1.28 0-2.63-1.29-2.63-3.48 0-2.65 1.16-3.36 2.09-3.36 1.11 0 2.05 0.94 2.05 2.25 0 1.26-0.88 2.21-1.99 2.21l-0.01-0.23c0.16 0 0.62 0 0.93-0.61 0.18-0.37 0.18-0.88 0.18-1.36s0-0.98-0.17-1.33c-0.3-0.6-0.76-0.65-0.99-0.65-0.63 0-0.93 0.6-0.99 0.74-0.18 0.47-0.18 1.27-0.18 1.44 0 0.78 0.32 1.77 1.22 1.77l0.01 0.23c-0.68 0-1.05-0.5-1.25-0.98z"/><path d="m564.2 520.13 0.07 0.03 0.06 0.04 0.06 0.03 0.07 0.04 0.12 0.08 0.05 0.04 0.06 0.04 0.05 0.04 0.06 0.04 0.05 0.05 0.05 0.04 0.04 0.05 0.05 0.04 0.16 0.2 0.12 0.2 0.03 0.06 0.02 0.05 0.02 0.06 0.02 0.05 0.03 0.18 0.01 0.05v0.06l0.01 0.07c0 0.91-0.89 1.48-1.8 1.48l-0.01-0.25c0.73 0 1.37-0.52 1.37-1.23 0-0.57-0.39-1.05-0.99-1.4l-1.24 0.8c-0.46 0.3-0.5 0.64-0.5 0.8 0 0.61 0.65 1.03 1.36 1.03l0.01 0.25c-1 0-1.8-0.74-1.8-1.66 0-0.18 0.02-0.63 0.43-1.1 0.11-0.12 0.48-0.36 0.73-0.53l0.23-0.15 1.23-0.78c0.28-0.18 0.75-0.48 0.75-1.09 0-0.73-0.75-1.25-1.57-1.25-0.86 0-1.57 0.61-1.57 1.44 0 0.58 0.31 1.21 1.16 1.68l-0.23 0.15c-0.58-0.29-1.43-0.85-1.43-1.83 0-1.05 1.01-1.72 2.06-1.72 1.13 0 2.08 0.83 2.08 1.89 0 0.36-0.12 0.8-0.49 1.22-0.19 0.21-0.35 0.31-0.99 0.71z"/><path d="m583.31 522.83v0.15l-0.01 0.01v0.03l-0.01 0.01v0.01l-0.02 0.02h-0.01l-0.01 0.01h-0.01l-0.01 0.01h-0.07l-0.01 0.01h-0.07c-0.62-0.64-1.5-0.64-1.81-0.64v-0.31c0.2 0 0.78 0 1.3 0.26v-5.14c0-0.36-0.03-0.47999-0.93-0.47999h-0.31v-0.31c0.34 0.03 1.21 0.03 1.61 0.03s1.27 0 1.62-0.03v0.31h-0.32c-0.9 0-0.93 0.11-0.93 0.47999z"/><path d="m589.95 519.65v0.15l-0.01 0.15v0.15l-0.01 0.14-0.03 0.45-0.02 0.14-0.02 0.15-0.03 0.14-0.03 0.15-0.04 0.14-0.05 0.14-0.04 0.14-0.12 0.28c-0.46 0.96-1.28 1.12-1.7 1.12-0.59 0-1.32-0.26-1.73-1.19-0.32-0.68-0.37-1.46-0.37-2.25 0-0.75 0.04-1.64 0.45-2.39 0.43-0.81 1.16-1.01 1.64-1.01v0.22c-0.39 0-0.97 0.25-1.15 1.2-0.11 0.6-0.11 1.51-0.11 2.1 0 0.63 0 1.29 0.08 1.83 0.19 1.18 0.93 1.27 1.18 1.27 0.33 0 0.99-0.18 1.18-1.16 0.1-0.56 0.1-1.32 0.1-1.94 0-0.75 0-1.42-0.11-2.06-0.15-0.94-0.72-1.24-1.17-1.24v-0.22c0.54 0 1.3 0.21 1.74 1.15 0.32 0.69 0.37 1.46 0.37 2.25z"/><path d="m604.16 522.68v0.16l-0.01 0.01v0.02l-0.01 0.01v0.01l-0.03 0.03h-0.02l-0.01 0.01h-0.07l-0.01 0.01h-0.07c-0.61-0.64-1.49-0.64-1.81-0.64v-0.31c0.2 0 0.79 0 1.31 0.26001v-5.14c0-0.36-0.03-0.48-0.93-0.48h-0.32v-0.31c0.35 0.03 1.22 0.03 1.61 0.03 0.4 0 1.27 0 1.62-0.03v0.31h-0.31999c-0.90001 0-0.93 0.11-0.93 0.48z"/><path d="m607.48 517.08 1.06 1.03c1.55 1.37 2.15 1.9 2.15 2.9 0 1.13-0.9 1.93-2.11 1.93-1.13 0-1.87-0.92-1.87-1.8 0-0.56 0.5-0.56 0.53-0.56 0.17 0 0.52 0.12 0.52 0.53 0 0.26-0.18 0.51-0.53 0.51h-0.13c0.23 0.64 0.77 1.01 1.35 1.01 0.9 0 1.33-0.81 1.33-1.62 0-0.8-0.5-1.58-1.04-2.2l-1.92-2.12c-0.11-0.11-0.11-0.13-0.11-0.37h3.7l0.28 1.73h-0.25c-0.05-0.3-0.12-0.74-0.22-0.89-0.07-0.08-0.73-0.08-0.95-0.08z"/><path d="m625.3 522.75v0.09l-0.01 0.01v0.07l-0.01 0.01v0.02l-0.01 0.01v0.01h-0.01v0.01h-0.01l-0.01 0.01h-0.02v0.01h-0.08l-0.01 0.01h-0.06c-0.62-0.63999-1.5-0.63999-1.82-0.63999v-0.31c0.2 0 0.79 0 1.31 0.25999v-5.14c0-0.36-0.03-0.48-0.93-0.48h-0.32001v-0.31c0.35 0.03 1.22 0.03 1.62 0.03s1.26 0 1.61-0.03v0.31h-0.31999c-0.89001 0-0.92001 0.11-0.92001 0.48z"/><path d="m630.28 518.03v-0.86c0-0.36-0.02-0.47-0.76-0.47h-0.21v-0.31c0.41 0.03 0.93 0.03 1.35 0.03s0.94 0 1.35-0.03v0.31h-0.21001c-0.72999 0-0.74999 0.11-0.74999 0.47v0.86h0.99v0.31h-0.99v4.52c0 0.2 0 0.26-0.16 0.26-0.09 0-0.12 0-0.2-0.12l-3.06-4.66h0.27001l2.44 3.7v-3.7h-2.71v-0.31z"/><path d="m646.66 522.92v0.13l-0.01 0.01v0.04l-0.01 0.01v0.01l-0.01 0.01v0.01h-0.01v0.01h-0.01l-0.01 0.01h-0.02v0.01h-0.08v0.01h-0.07c-0.62-0.64-1.5-0.64-1.82-0.64v-0.31c0.2 0 0.79 0 1.31 0.26v-5.14c0-0.36-0.03-0.48-0.93-0.48h-0.32v-0.31c0.35 0.03 1.22 0.03 1.62 0.03s1.27 0 1.62-0.03v0.31h-0.32c-0.9 0-0.92999 0.11-0.92999 0.48z"/><path d="m650.02 519.82v0.24c0 2.51 1.24 2.87 1.75 2.87 0.24 0 0.66-0.06 0.88-0.4-0.15 0-0.55 0-0.55-0.45 0-0.3 0.24-0.45 0.46-0.45 0.16 0 0.46 0.09 0.46 0.47 0 0.6-0.44 1.08-1.27 1.08-1.28 0-2.62-1.29-2.62-3.48 0-2.65 1.15-3.36 2.08-3.36 1.11 0 2.05 0.94 2.05 2.25 0 1.26-0.88 2.21-1.99 2.21l-0.01-0.23c0.16 0 0.62 0 0.93-0.61 0.18-0.37 0.18-0.88 0.18-1.36s0-0.98-0.17-1.33c-0.3-0.6-0.76-0.65-0.99-0.65-0.63 0-0.93 0.6-0.99 0.74-0.18 0.47-0.18 1.27-0.18 1.44 0 0.78 0.32 1.77 1.22 1.77l0.01 0.23c-0.68 0-1.05-0.5-1.25-0.98z"/><path d="m668.5 522.88v0.15l-0.01 0.01v0.03l-0.01 0.01v0.01l-0.02 0.02h-0.01v0.01h-0.02l-0.01 0.01h-0.07l-0.01 0.01h-0.07c-0.62-0.63999-1.49-0.63999-1.81-0.63999v-0.31c0.19999 0 0.77999 0 1.3 0.25999v-5.14c0-0.36-0.03-0.48-0.92-0.48h-0.32v-0.31c0.35 0.03 1.21 0.03 1.61 0.03s1.27 0 1.62-0.03v0.31h-0.32c-0.9 0-0.93 0.11-0.93 0.48z"/><path d="m673.63 520.12 0.07 0.03 0.06 0.04 0.07 0.03 0.24 0.16 0.05 0.04 0.06 0.04 0.05 0.04 0.05 0.05 0.05 0.04 0.09 0.09 0.16 0.2 0.03 0.05 0.04 0.05 0.03 0.05 0.02 0.05 0.03 0.06 0.02 0.05 0.02 0.06 0.02 0.05 0.01 0.06 0.02 0.06 0.01 0.06v0.05l0.01 0.06v0.07c0 0.91-0.88999 1.48-1.8 1.48l-0.01-0.25c0.73 0 1.37-0.52 1.37-1.23 0-0.57-0.39-1.05-0.99-1.4l-1.23 0.8c-0.46 0.3-0.5 0.64-0.5 0.8 0 0.61 0.65 1.03 1.35 1.03l0.01 0.25c-0.99 0-1.8-0.74-1.8-1.66 0-0.18 0.02-0.63 0.44-1.1 0.11-0.12 0.48-0.36 0.73-0.53l0.23-0.15 1.22-0.78c0.28-0.18 0.75-0.48 0.75-1.09 0-0.73-0.75-1.25-1.57-1.25-0.85 0-1.57 0.61-1.57 1.44 0 0.58 0.32 1.21 1.17 1.68l-0.23 0.15c-0.58-0.29-1.44-0.85-1.44-1.83 0-1.05 1.02-1.72 2.06-1.72 1.13 0 2.08 0.83 2.08 1.89 0 0.36-0.11 0.8-0.49 1.22-0.18999 0.21-0.35 0.31-0.99 0.71z"/></g><g stroke="#000" stroke-opacity=".47059" stroke-width="1.0057"><path d="m605.89 529.68v-3.6995"/><path d="m627.41 529.66v-3.6995"/><path d="m584.48 529.55v-3.6995"/><path d="m562.93 529.7v-3.6995"/><path d="m670.3 529.46v-3.6995"/><path d="m648.85 529.6v-3.6995"/><path d="m520.5 529.6v-3.6995"/><path d="m541.66 529.46v-3.6995"/></g></g><path d="m503.89 547.53 184.13 94.463" fill="#d20000" fill-opacity=".54589" stroke="#005ce6" stroke-opacity=".70588" stroke-width="1.3864"/><g fill-opacity=".78431"><g stroke-width="0"><path d="m494.26 543.11v-0.86c0-0.36-0.02-0.47-0.76-0.47h-0.21v-0.31c0.41 0.03 0.93 0.03 1.35 0.03s0.94 0 1.35-0.03v0.31h-0.21c-0.74 0-0.75 0.11-0.75 0.47v0.86h0.99v0.31h-0.99v4.52c0 0.2 0 0.26-0.16 0.26-0.09 0-0.12 0-0.2-0.12l-3.07-4.66h0.28l2.44 3.7v-3.7h-2.72v-0.31z"/><path d="m492.45 567.17v0.24c0 2.51 1.24 2.87 1.75 2.87 0.24 0 0.66-0.06 0.88-0.4-0.15 0-0.55 0-0.55-0.45 0-0.3 0.24-0.45 0.46-0.45 0.15 0 0.45 0.09 0.45 0.47 0 0.6-0.43 1.08-1.26 1.08-1.28 0-2.63-1.29-2.63-3.48 0-2.65 1.16-3.36 2.09-3.36 1.11 0 2.05 0.94 2.05 2.25 0 1.26-0.88 2.21-1.99 2.21l-0.01-0.23c0.16 0 0.62 0 0.93-0.61 0.18-0.37 0.18-0.88 0.18-1.36s0-0.98-0.17-1.33c-0.3-0.6-0.76-0.65-0.99-0.65-0.63 0-0.93 0.6-0.99 0.74-0.18 0.47-0.18 1.27-0.18 1.44 0 0.78 0.32 1.77 1.22 1.77l0.01 0.23c-0.68 0-1.05-0.5-1.25-0.98z"/><path d="m494.3 588.92 0.07 0.03 0.06 0.04 0.06 0.03 0.07 0.04 0.12 0.08 0.05 0.04 0.06 0.04 0.05 0.04 0.06 0.04 0.05 0.05 0.05 0.04 0.04 0.05 0.05 0.04 0.16 0.2 0.12 0.2 0.03 0.06 0.02 0.05 0.02 0.06 0.02 0.05 0.03 0.18 0.01 0.05v0.06l0.01 0.07c0 0.91-0.89 1.48-1.8 1.48l-0.01-0.25c0.73 0 1.37-0.52 1.37-1.23 0-0.57-0.39-1.05-0.99-1.4l-1.24 0.8c-0.46 0.3-0.5 0.64-0.5 0.8 0 0.61 0.65 1.03 1.36 1.03l0.01 0.25c-1 0-1.8-0.74-1.8-1.66 0-0.18 0.02-0.63 0.43-1.1 0.11-0.12 0.48-0.36 0.73-0.53l0.23-0.15 1.23-0.78c0.28-0.18 0.75-0.48 0.75-1.09 0-0.73-0.75-1.25-1.57-1.25-0.86 0-1.57 0.61-1.57 1.44 0 0.58 0.31 1.21 1.16 1.68l-0.23 0.15c-0.58-0.29-1.43-0.85-1.43-1.83 0-1.05 1.01-1.72 2.06-1.72 1.13 0 2.08 0.83 2.08 1.89 0 0.36-0.12 0.8-0.49 1.22-0.19 0.21-0.35 0.31-0.99 0.71z"/><path d="m490.26 614.14v0.15l-0.01 0.01v0.03l-0.01 0.01v0.01l-0.02 0.02h-0.01l-0.01 0.01h-0.01l-0.01 0.01h-0.07l-0.01 0.01h-0.07c-0.62-0.64-1.5-0.64-1.81-0.64v-0.31c0.2 0 0.78 0 1.3 0.26v-5.14c0-0.36-0.03-0.48-0.93-0.48h-0.31v-0.31c0.34 0.03 1.21 0.03 1.61 0.03s1.27 0 1.62-0.03v0.31h-0.32c-0.9 0-0.93 0.11-0.93 0.48z"/><path d="m496.9 610.96v0.15l-0.01 0.15v0.15l-0.01 0.14-0.03 0.45-0.02 0.14-0.02 0.15-0.03 0.14-0.03 0.15-0.04 0.14-0.05 0.14-0.04 0.14-0.12 0.28c-0.46 0.96-1.28 1.12-1.7 1.12-0.59 0-1.32-0.26-1.73-1.19-0.32-0.68-0.37-1.46-0.37-2.25 0-0.75 0.04-1.64 0.45-2.39 0.43-0.81 1.16-1.01 1.64-1.01v0.22c-0.39 0-0.97 0.25-1.15 1.2-0.11 0.6-0.11 1.51-0.11 2.1 0 0.63 0 1.29 0.08 1.83 0.19 1.18 0.93 1.27 1.18 1.27 0.33 0 0.99-0.18 1.18-1.16 0.1-0.56 0.1-1.32 0.1-1.94 0-0.75 0-1.42-0.11-2.06-0.15-0.94-0.72-1.24-1.17-1.24v-0.22c0.54 0 1.3 0.21 1.74 1.15 0.32 0.69 0.37 1.46 0.37 2.25z"/><path d="m489.71 636.21v0.16l-0.01 0.01v0.02l-0.01 0.01v0.01l-0.03 0.03h-0.02l-0.01 0.01h-0.07l-0.01 0.01h-0.07c-0.61-0.64003-1.49-0.64003-1.81-0.64003v-0.31c0.2 0 0.79 0 1.31 0.26v-5.14c0-0.36-0.03-0.48-0.93-0.48h-0.32v-0.31c0.35 0.03 1.22 0.03 1.61 0.03 0.4 0 1.27 0 1.62-0.03v0.31h-0.32c-0.9 0-0.93 0.11-0.93 0.48z"/><path d="m493.03 630.61 1.06 1.03c1.55 1.37 2.15 1.9 2.15 2.9 0 1.13-0.9 1.93-2.11 1.93-1.13 0-1.87-0.92-1.87-1.8 0-0.56 0.5-0.56 0.53-0.56 0.17 0 0.52 0.12 0.52 0.53 0 0.26-0.18 0.51-0.53 0.51h-0.13c0.23 0.64 0.77 1.01 1.35 1.01 0.9 0 1.33-0.81 1.33-1.62 0-0.8-0.5-1.58-1.04-2.2l-1.92-2.12c-0.11-0.11-0.11-0.13-0.11-0.37h3.7l0.28 1.73h-0.25c-0.05-0.3-0.12-0.74-0.22-0.89-0.07-0.08-0.73-0.08-0.95-0.08z"/></g><g stroke="#000" stroke-opacity=".47059" stroke-width="1.0057"><path d="m502.77 544.54h-3.6995"/><path d="m502.83 566.57h-3.6995"/><path d="m502.9 588.83h-3.6995"/><path d="m502.7 610.83h-3.6995"/><path d="m502.83 633.16h-3.6995"/></g></g></g><path d="m497.35 708.67h206.23" fill="none" marker-end="url(#f)" stroke="#000" stroke-miterlimit="4" stroke-opacity=".5942" stroke-width=".95543"/><path d="m502.73 702.45v140.74" fill="none" marker-end="url(#c)" stroke="#000" stroke-miterlimit="4" stroke-opacity=".5942" stroke-width=".95543"/><g fill-rule="evenodd"><g stroke-miterlimit="10.433"><g fill-opacity=".78431" stroke-width="0"><path d="m520.46 696.95v-0.86c0-0.36-0.02-0.47-0.76-0.47h-0.21v-0.31c0.41 0.03 0.93 0.03 1.35 0.03s0.94 0 1.35-0.03v0.31h-0.21c-0.74 0-0.75 0.11-0.75 0.47v0.86h0.99v0.31h-0.99v4.52c0 0.2 0 0.26-0.16 0.26-0.09 0-0.12 0-0.2-0.12l-3.07-4.66h0.28l2.44 3.7v-3.7h-2.72v-0.31z"/><path d="m540.56 698.76v0.24c0 2.51 1.24 2.87 1.75 2.87 0.23999 0 0.65999-0.06 0.88-0.4-0.15 0-0.55 0-0.55-0.45 0-0.3 0.24-0.45 0.46-0.45 0.14999 0 0.45 0.09 0.45 0.47 0 0.6-0.43 1.08-1.26 1.08-1.28 0-2.63-1.29-2.63-3.48 0-2.65 1.16-3.36 2.09-3.36 1.11 0 2.05 0.94 2.05 2.25 0 1.26-0.88 2.21-1.99 2.21l-0.01-0.23c0.16 0 0.62 0 0.93-0.61 0.18-0.37 0.18-0.88 0.18-1.36s0-0.98-0.17-1.33c-0.3-0.6-0.76-0.65-0.99-0.65-0.63 0-0.93 0.6-0.99 0.74-0.18 0.47-0.18 1.27-0.18 1.44 0 0.78 0.32 1.77 1.22 1.77l0.01 0.23c-0.68 0-1.05-0.5-1.25-0.98z"/><path d="m564 699.14 0.07 0.03 0.06 0.04 0.06 0.03 0.07 0.04 0.12 0.08 0.05 0.04 0.06 0.04 0.05 0.04 0.06 0.04 0.05 0.05 0.05 0.04 0.04 0.05 0.05 0.04 0.16 0.2 0.12 0.2 0.03 0.06 0.02 0.05 0.02 0.06 0.02 0.05 0.03 0.18 0.01 0.05v0.06l0.01 0.07c0 0.91-0.89 1.48-1.8 1.48l-0.01-0.25c0.73 0 1.37-0.52 1.37-1.23 0-0.57-0.39-1.05-0.99-1.4l-1.24 0.8c-0.46 0.3-0.5 0.64-0.5 0.8 0 0.61 0.65 1.03 1.36 1.03l0.01 0.25c-1 0-1.8-0.74-1.8-1.66 0-0.18 0.02-0.63 0.43-1.1 0.11-0.12 0.48-0.36 0.73-0.53l0.23-0.15 1.23-0.78c0.28-0.18 0.75-0.48 0.75-1.09 0-0.73-0.75-1.25-1.57-1.25-0.86 0-1.57 0.61-1.57 1.44 0 0.58 0.31 1.21 1.16 1.68l-0.23 0.15c-0.58-0.29-1.43-0.85-1.43-1.83 0-1.05 1.01-1.72 2.06-1.72 1.13 0 2.08 0.83 2.08 1.89 0 0.36-0.12 0.8-0.49 1.22-0.19 0.21-0.35 0.31-0.99 0.71z"/><path d="m583.11 701.83v0.15l-0.01 0.01v0.03l-0.01 0.01v0.01l-0.02 0.02h-0.01l-0.01 0.01h-0.01l-0.01 0.01h-0.07l-0.01 0.01h-0.07c-0.62-0.64-1.5-0.64-1.81-0.64v-0.31c0.2 0 0.78 0 1.3 0.26v-5.14c0-0.36-0.03-0.47999-0.93-0.47999h-0.31v-0.31c0.34 0.03 1.21 0.03 1.61 0.03s1.27 0 1.62-0.03v0.31h-0.32c-0.9 0-0.93 0.11-0.93 0.47999z"/><path d="m589.75 698.65v0.15l-0.01 0.15v0.15l-0.01 0.14-0.03 0.45-0.02 0.14-0.02 0.15-0.03 0.14-0.03 0.15-0.04 0.14-0.05 0.14-0.04 0.14-0.12 0.28c-0.46 0.96-1.28 1.12-1.7 1.12-0.59 0-1.32-0.26-1.73-1.19-0.32-0.68-0.37-1.46-0.37-2.25 0-0.75 0.04-1.64 0.45-2.39 0.43-0.81 1.16-1.01 1.64-1.01v0.22c-0.39 0-0.97 0.25-1.15 1.2-0.11 0.6-0.11 1.51-0.11 2.1 0 0.63 0 1.29 0.08 1.83 0.19 1.18 0.93 1.27 1.18 1.27 0.33 0 0.99-0.18 1.18-1.16 0.1-0.56 0.1-1.32 0.1-1.94 0-0.75 0-1.42-0.11-2.06-0.15-0.94-0.72-1.24-1.17-1.24v-0.22c0.54 0 1.3 0.21 1.74 1.15 0.32 0.69 0.37 1.46 0.37 2.25z"/><path d="m603.96 701.68v0.16l-0.01 0.01v0.02l-0.01 0.01v0.01l-0.03 0.03h-0.02l-0.01 0.01h-0.07l-0.01 0.01h-0.07c-0.61-0.64-1.49-0.64-1.81-0.64v-0.31c0.2 0 0.79 0 1.31 0.26001v-5.14c0-0.36-0.03-0.48-0.93-0.48h-0.32v-0.31c0.35 0.03 1.22 0.03 1.61 0.03 0.4 0 1.27 0 1.62-0.03v0.31h-0.31999c-0.90001 0-0.93 0.11-0.93 0.48z"/><path d="m607.28 696.08 1.06 1.03c1.55 1.37 2.15 1.9 2.15 2.9 0 1.13-0.9 1.93-2.11 1.93-1.13 0-1.87-0.92-1.87-1.8 0-0.56 0.5-0.56 0.53-0.56 0.17 0 0.52 0.12 0.52 0.53 0 0.26-0.18 0.51-0.53 0.51h-0.13c0.23 0.64 0.77 1.01 1.35 1.01 0.9 0 1.33-0.81 1.33-1.62 0-0.8-0.5-1.58-1.04-2.2l-1.92-2.12c-0.11-0.11-0.11-0.13-0.11-0.37h3.7l0.28 1.73h-0.25c-0.05-0.3-0.12-0.74-0.22-0.89-0.07-0.08-0.73-0.08-0.95-0.08z"/><path d="m625.09 701.75v0.09l-0.01 0.01v0.07l-0.01 0.01v0.02l-0.01 0.01v0.01h-0.01v0.01h-0.01l-0.01 0.01h-0.02v0.01h-0.08l-0.01 0.01h-0.06c-0.62-0.63999-1.5-0.63999-1.82-0.63999v-0.31c0.2 0 0.79 0 1.31 0.25999v-5.14c0-0.36-0.03-0.48-0.93-0.48h-0.32001v-0.31c0.35 0.03 1.22 0.03 1.62 0.03s1.26 0 1.61-0.03v0.31h-0.31999c-0.89001 0-0.92001 0.11-0.92001 0.48z"/><path d="m630.07 697.03v-0.86c0-0.36-0.02-0.47-0.76-0.47h-0.21v-0.31c0.41 0.03 0.93 0.03 1.35 0.03s0.94 0 1.35-0.03v0.31h-0.21001c-0.72999 0-0.74999 0.11-0.74999 0.47v0.86h0.99v0.31h-0.99v4.52c0 0.2 0 0.26-0.16 0.26-0.09 0-0.12 0-0.2-0.12l-3.06-4.66h0.27001l2.44 3.7v-3.7h-2.71v-0.31z"/><path d="m646.46 701.92v0.13l-0.01 0.01v0.04l-0.01 0.01v0.01l-0.01 0.01v0.01h-0.01v0.01h-0.01l-0.01 0.01h-0.02v0.01h-0.08v0.01h-0.07c-0.62-0.64-1.5-0.64-1.82-0.64v-0.31c0.2 0 0.79 0 1.31 0.26v-5.14c0-0.36-0.03-0.48-0.93-0.48h-0.32v-0.31c0.35 0.03 1.22 0.03 1.62 0.03s1.27 0 1.62-0.03v0.31h-0.32c-0.9 0-0.92999 0.11-0.92999 0.48z"/><path d="m649.82 698.82v0.24c0 2.51 1.24 2.87 1.75 2.87 0.24 0 0.66-0.06 0.88-0.4-0.15 0-0.55 0-0.55-0.45 0-0.3 0.24-0.45 0.46-0.45 0.16 0 0.46 0.09 0.46 0.47 0 0.6-0.44 1.08-1.27 1.08-1.28 0-2.62-1.29-2.62-3.48 0-2.65 1.15-3.36 2.08-3.36 1.11 0 2.05 0.94 2.05 2.25 0 1.26-0.88 2.21-1.99 2.21l-0.01-0.23c0.16 0 0.62 0 0.93-0.61 0.18-0.37 0.18-0.88 0.18-1.36s0-0.98-0.17-1.33c-0.3-0.6-0.76-0.65-0.99-0.65-0.63 0-0.93 0.6-0.99 0.74-0.18 0.47-0.18 1.27-0.18 1.44 0 0.78 0.32 1.77 1.22 1.77l0.01 0.23c-0.68 0-1.05-0.5-1.25-0.98z"/><path d="m668.3 701.89v0.15l-0.01 0.01v0.03l-0.01 0.01v0.01l-0.02 0.02h-0.01v0.01h-0.02l-0.01 0.01h-0.07l-0.01 0.01h-0.07c-0.62-0.63999-1.49-0.63999-1.81-0.63999v-0.31c0.19999 0 0.77999 0 1.3 0.25999v-5.14c0-0.36-0.03-0.48-0.92-0.48h-0.32v-0.31c0.35 0.03 1.21 0.03 1.61 0.03s1.27 0 1.62-0.03v0.31h-0.32c-0.9 0-0.93 0.11-0.93 0.48z"/><path d="m673.43 699.13 0.07 0.03 0.06 0.04 0.07 0.03 0.24 0.16 0.05 0.04 0.06 0.04 0.05 0.04 0.05 0.05 0.05 0.04 0.09 0.09 0.16 0.2 0.03 0.05 0.04 0.05 0.03 0.05 0.02 0.05 0.03 0.06 0.02 0.05 0.02 0.06 0.02 0.05 0.01 0.06 0.02 0.06 0.01 0.06v0.05l0.01 0.06v0.07c0 0.91-0.88999 1.48-1.8 1.48l-0.01-0.25c0.73 0 1.37-0.52 1.37-1.23 0-0.57-0.39-1.05-0.99-1.4l-1.23 0.8c-0.46 0.3-0.5 0.64-0.5 0.8 0 0.61 0.65 1.03 1.35 1.03l0.01 0.25c-0.99 0-1.8-0.74-1.8-1.66 0-0.18 0.02-0.63 0.44-1.1 0.11-0.12 0.48-0.36 0.73-0.53l0.23-0.15 1.22-0.78c0.28-0.18 0.75-0.48 0.75-1.09 0-0.73-0.75-1.25-1.57-1.25-0.85 0-1.57 0.61-1.57 1.44 0 0.58 0.32 1.21 1.17 1.68l-0.23 0.15c-0.58-0.29-1.44-0.85-1.44-1.83 0-1.05 1.02-1.72 2.06-1.72 1.13 0 2.08 0.83 2.08 1.89 0 0.36-0.11 0.8-0.49 1.22-0.18999 0.21-0.35 0.31-0.99 0.71z"/></g><g fill-opacity=".47059" stroke="#000" stroke-opacity=".47059" stroke-width="1.0775"><path d="m605.69 708.68v-3.6995"/><path d="m627.21 708.66v-3.6995"/><path d="m584.28 708.56v-3.6995"/><path d="m562.72 708.7v-3.6995"/><path d="m670.1 708.46v-3.6995"/><path d="m648.64 708.6v-3.6995"/><path d="m520.29 708.6v-3.6995"/><path d="m541.46 708.46v-3.6995"/></g></g><g fill="#d20000" fill-opacity=".54589"><path d="m503.68 726.53 184.13 94.463" stroke="#005ce6" stroke-miterlimit="10.433" stroke-opacity=".70588" stroke-width="1.3864"/></g><g stroke-miterlimit="10.433"><g fill-opacity=".78431" stroke-width="0"><path d="m494.05 722.12v-0.86c0-0.36-0.02-0.47-0.76-0.47h-0.21v-0.31c0.41 0.03 0.93 0.03 1.35 0.03s0.94 0 1.35-0.03v0.31h-0.21c-0.74 0-0.75 0.11-0.75 0.47v0.86h0.99v0.31h-0.99v4.52c0 0.2 0 0.26-0.16 0.26-0.09 0-0.12 0-0.2-0.12l-3.07-4.66h0.28l2.44 3.7v-3.7h-2.72v-0.31z"/><path d="m492.24 746.17v0.24c0 2.51 1.24 2.87 1.75 2.87 0.24 0 0.66-0.06 0.88-0.4-0.15 0-0.55 0-0.55-0.45 0-0.3 0.24-0.45 0.46-0.45 0.15 0 0.45 0.09 0.45 0.47 0 0.6-0.43 1.08-1.26 1.08-1.28 0-2.63-1.29-2.63-3.48 0-2.65 1.16-3.36 2.09-3.36 1.11 0 2.05 0.94 2.05 2.25 0 1.26-0.88 2.21-1.99 2.21l-0.01-0.23c0.16 0 0.62 0 0.93-0.61 0.18-0.37 0.18-0.88 0.18-1.36s0-0.98-0.17-1.33c-0.3-0.6-0.76-0.65-0.99-0.65-0.63 0-0.93 0.6-0.99 0.74-0.18 0.47-0.18 1.27-0.18 1.44 0 0.78 0.32 1.77 1.22 1.77l0.01 0.23c-0.68 0-1.05-0.5-1.25-0.98z"/><path d="m494.1 767.92 0.07 0.03 0.06 0.04 0.06 0.03 0.07 0.04 0.12 0.08 0.05 0.04 0.06 0.04 0.05 0.04 0.06 0.04 0.05 0.05 0.05 0.04 0.04 0.05 0.05 0.04 0.16 0.2 0.12 0.2 0.03 0.06 0.02 0.05 0.02 0.06 0.02 0.05 0.03 0.18 0.01 0.05v0.06l0.01 0.07c0 0.91-0.89 1.48-1.8 1.48l-0.01-0.25c0.73 0 1.37-0.52 1.37-1.23 0-0.57-0.39-1.05-0.99-1.4l-1.24 0.8c-0.46 0.3-0.5 0.64-0.5 0.8 0 0.61 0.65 1.03 1.36 1.03l0.01 0.25c-1 0-1.8-0.74-1.8-1.66 0-0.18 0.02-0.63 0.43-1.1 0.11-0.12 0.48-0.36 0.73-0.53l0.23-0.15 1.23-0.78c0.28-0.18 0.75-0.48 0.75-1.09 0-0.73-0.75-1.25-1.57-1.25-0.86 0-1.57 0.61-1.57 1.44 0 0.58 0.31 1.21 1.16 1.68l-0.23 0.15c-0.58-0.29-1.43-0.85-1.43-1.83 0-1.05 1.01-1.72 2.06-1.72 1.13 0 2.08 0.83 2.08 1.89 0 0.36-0.12 0.8-0.49 1.22-0.19 0.21-0.35 0.31-0.99 0.71z"/><path d="m490.06 793.14v0.15l-0.01 0.01v0.03l-0.01 0.01v0.01l-0.02 0.02h-0.01l-0.01 0.01h-0.01l-0.01 0.01h-0.07l-0.01 0.01h-0.07c-0.62-0.64-1.5-0.64-1.81-0.64v-0.31c0.2 0 0.78 0 1.3 0.26v-5.14c0-0.36-0.03-0.48-0.93-0.48h-0.31v-0.31c0.34 0.03 1.21 0.03 1.61 0.03s1.27 0 1.62-0.03v0.31h-0.32c-0.9 0-0.93 0.11-0.93 0.48z"/><path d="m496.7 789.96v0.15l-0.01 0.15v0.15l-0.01 0.14-0.03 0.45-0.02 0.14-0.02 0.15-0.03 0.14-0.03 0.15-0.04 0.14-0.05 0.14-0.04 0.14-0.12 0.28c-0.46 0.96-1.28 1.12-1.7 1.12-0.59 0-1.32-0.26-1.73-1.19-0.32-0.68-0.37-1.46-0.37-2.25 0-0.75 0.04-1.64 0.45-2.39 0.43-0.81 1.16-1.01 1.64-1.01v0.22c-0.39 0-0.97 0.25-1.15 1.2-0.11 0.6-0.11 1.51-0.11 2.1 0 0.63 0 1.29 0.08 1.83 0.19 1.18 0.93 1.27 1.18 1.27 0.33 0 0.99-0.18 1.18-1.16 0.1-0.56 0.1-1.32 0.1-1.94 0-0.75 0-1.42-0.11-2.06-0.15-0.94-0.72-1.24-1.17-1.24v-0.22c0.54 0 1.3 0.21 1.74 1.15 0.32 0.69 0.37 1.46 0.37 2.25z"/><path d="m489.51 815.21v0.16l-0.01 0.01v0.02l-0.01 0.01v0.01l-0.03 0.03h-0.02l-0.01 0.01h-0.07l-0.01 0.01h-0.07c-0.61-0.64003-1.49-0.64003-1.81-0.64003v-0.31c0.2 0 0.79 0 1.31 0.26v-5.14c0-0.36-0.03-0.48-0.93-0.48h-0.32v-0.31c0.35 0.03 1.22 0.03 1.61 0.03 0.4 0 1.27 0 1.62-0.03v0.31h-0.32c-0.9 0-0.93 0.11-0.93 0.48z"/><path d="m492.83 809.61 1.06 1.03c1.55 1.37 2.15 1.9 2.15 2.9 0 1.13-0.9 1.93-2.11 1.93-1.13 0-1.87-0.92-1.87-1.8 0-0.56 0.5-0.56 0.53-0.56 0.17 0 0.52 0.12 0.52 0.53 0 0.26-0.18 0.51-0.53 0.51h-0.13c0.23 0.64 0.77 1.01 1.35 1.01 0.9 0 1.33-0.81 1.33-1.62 0-0.8-0.5-1.58-1.04-2.2l-1.92-2.12c-0.11-0.11-0.11-0.13-0.11-0.37h3.7l0.28 1.73h-0.25c-0.05-0.3-0.12-0.74-0.22-0.89-0.07-0.08-0.73-0.08-0.95-0.08z"/></g><g fill-opacity=".47059" stroke="#000" stroke-opacity=".47059" stroke-width="1.0775"><path d="m502.56 723.54h-3.6995"/><path d="m502.63 745.57h-3.6995"/><path d="m502.7 767.84h-3.6995"/><path d="m502.49 789.83h-3.6995"/><path d="m502.63 812.16h-3.6995"/></g></g><ellipse transform="scale(1,-1)" cx="372.51" cy="-642.26" rx="3.5759" ry="3.4384" fill="#d20000" fill-opacity=".5451" stroke="none"/></g></g>
 </g>
</svg>
