<svg width="120mm" height="120mm" version="1.1" viewBox="0 0 97.938 85.218" xmlns="http://www.w3.org/2000/svg" xmlns:ns0="http://www.iki.fi/pav/software/textext/">
 <defs>
  <marker id="a" overflow="visible" orient="auto">
   <path transform="matrix(-.4 0 0 -.4 -4 0)" d="m0 0 5-5-17.5 5 17.5 5z" fill-rule="evenodd" stroke="#000" stroke-width="1pt"/>
  </marker>
  <marker id="b" overflow="visible" orient="auto">
   <path transform="matrix(-.4 0 0 -.4 -4 0)" d="m0 0 5-5-17.5 5 17.5 5z" fill-rule="evenodd" stroke="#000" stroke-width="1pt"/>
  </marker>
 </defs>
 <g transform="translate(-7.0761 -81.574)">
  <g transform="matrix(1.2506,0,0,-1.2506,-72.165,1072.2)" fill-rule="evenodd" stroke="#000" stroke-miterlimit="10.433" ns0:preamble="default_packages.tex" ns0:text="$x$\n$y$\n" xml:space="preserve"><g transform="matrix(.79961 0 0 -.79961 58.988 860.59)"><g transform="matrix(1.2506,0,0,-1.2506,-72.165,1072.2)" fill-rule="evenodd" stroke="#000" stroke-miterlimit="10.433" ns0:preamble="default_packages.tex" ns0:text="$x$\n$y$\n" xml:space="preserve"><g><path d="m69.613 717.63v73.667" fill-opacity=".78431" marker-end="url(#a)" stroke-opacity=".62745" stroke-width=".23988"/><path d="m62.079 726.02h77.841" fill-opacity=".78431" marker-end="url(#b)" stroke-opacity=".62745" stroke-width=".23988"/><g transform="matrix(.6181 0 0 .6181 -9.306 314.95)" fill-rule="evenodd" stroke-miterlimit="10.433" stroke-width="2.4268" ns0:preamble="default_packages.tex" ns0:text="$X Y \\bar{x} \\bar{y} (x_i, y_i)$\n" xml:space="preserve"><rect transform="scale(1,-1)" x="184.02" y="-710.08" width="49.233" height="48.438" fill="#0f6cbc" fill-opacity=".30918" fill-rule="evenodd" opacity=".97" stroke="none"/><g><g fill-opacity=".78431" stroke-width="0"><path d="m239.51 661.22-0.52656 1.2349c-0.0188 0.0502-0.0314 0.0752-0.0314 0.0815 0 0.0376 0.10657 0.15672 0.36986 0.1818 0.0627 7e-3 0.12537 0.0125 0.12537 0.1191 0 0.0752-0.0752 0.0752-0.094 0.0752-0.25702 0-0.52657-0.0188-0.78985-0.0188-0.15672 0-0.5391 0.0188-0.69583 0.0188-0.0376 0-0.11283 0-0.11283-0.12537 0-0.069 0.0627-0.069 0.14418-0.069 0.36986 0 0.40746-0.0627 0.46388-0.2006l0.7397-1.7364-1.3164-1.4104-0.0815-0.069c-0.30716-0.33223-0.60179-0.43253-0.92149-0.45134-0.0815-7e-3 -0.13791-7e-3 -0.13791-0.12537 0-7e-3 0-0.0627 0.0815-0.0627 0.18806 0 0.39492 0.0188 0.58925 0.0188 0.23195 0 0.47642-0.0188 0.69582-0.0188 0.0439 0 0.11911 0 0.11911 0.1191 0 0.0627-0.069 0.069-0.0752 0.069-0.0627 7e-3 -0.25074 0.0188-0.25074 0.19433 0 0.1003 0.094 0.2006 0.16925 0.28209l0.63313 0.67075 0.56418 0.60806 0.63314-1.4857c0.025-0.069 0.0313-0.0752 0.0313-0.0878 0-0.0502-0.11911-0.15671-0.36358-0.18179-0.069-7e-3 -0.12538-0.0125-0.12538-0.1191 0-0.069 0.069-0.069 0.094-0.069 0.17551 0 0.61432 0.0188 0.78984 0.0188 0.15672 0 0.53285-0.0188 0.68956-0.0188 0.0439 0 0.1191 0 0.1191 0.11283 0 0.0752-0.0627 0.0752-0.11283 0.0752-0.42001 7e-3 -0.43254 0.025-0.53911 0.27582-0.2382 0.57672-0.65821 1.5484-0.80239 1.9245 0.42627 0.43881 1.0782 1.1785 1.2788 1.3478 0.18179 0.15045 0.42 0.3009 0.79612 0.31971 0.0815 7e-3 0.13791 7e-3 0.13791 0.12537 0 7e-3 0 0.069-0.0815 0.069-0.18806 0-0.39493-0.0188-0.58926-0.0188-0.23193 0-0.47014 0.0188-0.69581 0.0188-0.0377 0-0.11284 0-0.11284-0.12537 0-0.0439 0.025-0.0627 0.069-0.069 0.0565-7e-3 0.25075-0.0188 0.25075-0.19434 0-0.0815-0.069-0.16298-0.1191-0.2194z"/><path d="m125.29 771.02 0.0939 0.0939c0.19447 0.19447 0.41577 0.42248 0.87177 0.456 0.0738 7e-3 0.13412 7e-3 0.13412 0.12742 0 0.0537-0.0335 0.0804-0.0872 0.0804-0.17436 0-0.36883-0.0201-0.54989-0.0201-0.21459 0-0.4493 0.0201-0.66388 0.0201-0.0403 0-0.12742 0-0.12742-0.12741 0-0.0738 0.0671-0.0805 0.10059-0.0805 0.0469 0 0.24141-0.0134 0.24141-0.15423 0-0.1073-0.15423-0.28165-0.18106-0.31518l-1.5558-1.7838-0.73094 1.985c-0.0403 0.0872-0.0403 0.10059-0.0403 0.10729 0 0.16094 0.32189 0.16094 0.39565 0.16094 0.0939 0 0.15424 0 0.15424 0.13412 0 0.0738-0.0804 0.0738-0.10059 0.0738-0.18106 0-0.65048-0.0201-0.83824-0.0201-0.16765 0-0.58342 0.0201-0.75107 0.0201-0.0403 0-0.12741 0-0.12741-0.13412 0-0.0738 0.0671-0.0738 0.15423-0.0738 0.40236 0 0.42918-0.0603 0.48954-0.22799l0.82483-2.1861c7e-3 -0.0201 0.0268-0.0939 0.0268-0.114s-0.26824-1.0931-0.30177-1.2138c-0.0872-0.36882-0.0939-0.38894-0.63036-0.39565-0.12741 0-0.18106 0-0.18106-0.13411 0-0.0671 0.0804-0.0671 0.0939-0.0671 0.18776 0 0.65718 0.0201 0.84494 0.0201 0.18777 0 0.66389-0.0201 0.85165-0.0201 0.0469 0 0.12742 0 0.12742 0.12741 0 0.0738-0.0603 0.0738-0.18777 0.0738-0.0134 0-0.14082 0-0.25482 0.0134-0.14083 0.0134-0.17435 0.0269-0.17435 0.1073 0 0.0469 0.0537 0.28165 0.0939 0.42247l0.22801 0.93883c0.0335 0.12741 0.0403 0.14754 0.0939 0.20789z"/><polygon transform="matrix(.76605 0 0 .76605 54.879 111.25)" points="167.07 712.68 170.67 712.68 170.67 712.99 167.07 712.99"/><path d="m184.4 655.25v0.0153l0.016 0.046 0.032 0.1224 0.0153 0.0383 8e-3 0.0307 0.0612 0.1532 0.023 0.0383 0.0153 0.0383 0.046 0.0766 0.023 0.0306 0.0306 0.0383 0.023 0.0306 0.0306 0.0383 0.0612 0.0612 0.0306 0.023 0.0766 0.046 0.0153 8e-3 0.023 0.0153 0.023 8e-3 0.0153 8e-3 0.023 8e-3h0.023l0.046 0.016h0.046l0.023 8e-3h0.023c0.0383 0 0.22216 0 0.38303-0.0996-0.2145-0.0383-0.36771-0.22981-0.36771-0.41367 0-0.12256 0.0843-0.26811 0.2911-0.26811 0.16853 0 0.41367 0.13789 0.41367 0.44431 0 0.39834-0.45197 0.50559-0.71243 0.50559-0.43665 0-0.70476-0.40601-0.79669-0.5822-0.19151 0.50559-0.60518 0.5822-0.82733 0.5822-0.7967 0-1.2334-0.98821-1.2334-1.1721 0-0.0766 0.0766-0.0766 0.0919-0.0766 0.0613 0 0.0843 0.0153 0.0996 0.0843 0.26045 0.80435 0.76605 0.99587 1.0265 0.99587 0.14555 0 0.41367-0.0689 0.41367-0.51326 0-0.23747-0.13023-0.74306-0.41367-1.8079-0.12256-0.47496-0.39068-0.7967-0.72774-0.7967-0.046 0-0.22216 0-0.38303 0.0996 0.19151 0.0383 0.36005 0.19917 0.36005 0.41367 0 0.20683-0.16854 0.26811-0.28344 0.26811-0.22216 0-0.41367-0.19917-0.41367-0.4443 0-0.35239 0.37536-0.49794 0.71243-0.49794 0.50559 0 0.78137 0.52858 0.80435 0.57454 0.0919-0.28344 0.3677-0.57454 0.82733-0.57454 0.78137 0 1.218 0.98055 1.218 1.1721 0 0.0766-0.0689 0.0766-0.0919 0.0766-0.069 0-0.0843-0.0383-0.0996-0.0843-0.2528-0.81967-0.76605-1.0035-1.0112-1.0035-0.29876 0-0.42132 0.24514-0.42132 0.5056 0 0.16853 0.046 0.33706 0.13022 0.66646z"/><polygon transform="matrix(.76605 0 0 .76605 -12 166.51)" points="172.81 712.99 172.81 712.68 176.41 712.68 176.41 712.99"/><path d="m123.05 711.1v0.016l8e-3 0.0153v0.024l8e-3 8e-3v0.024l8e-3 8e-3v0.04l8e-3 8e-3v0.04c0 0.13789-0.10725 0.20683-0.22216 0.20683-0.0766 0-0.19917-0.046-0.26812-0.16087-0.0153-0.0383-0.0766-0.27578-0.10724-0.41366-0.0536-0.19918-0.10725-0.39835-0.15321-0.60518l-0.34473-1.3712c-0.0306-0.11491-0.36004-0.65115-0.86563-0.65115-0.39069 0-0.47495 0.33707-0.47495 0.6205 0 0.35239 0.13022 0.81968 0.39068 1.4938 0.12257 0.30642 0.15321 0.39069 0.15321 0.5439 0 0.34472-0.24513 0.62816-0.62816 0.62816-0.72009 0-1.0035-1.1031-1.0035-1.1721 0-0.0766 0.0766-0.0766 0.0919-0.0766 0.0766 0 0.0843 0.0153 0.12257 0.13789 0.20683 0.71242 0.51325 0.94224 0.77371 0.94224 0.0613 0 0.18385 0 0.18385-0.24514 0-0.19151-0.0766-0.39068-0.12257-0.53623-0.30642-0.80436-0.44431-1.241-0.44431-1.5934 0-0.68178 0.48262-0.90394 0.92693-0.90394 0.29875 0 0.55921 0.12257 0.77371 0.33706-0.0996-0.39068-0.19152-0.76605-0.49794-1.172-0.19917-0.26046-0.49027-0.47495-0.83499-0.47495-0.10725 0-0.45197 0.023-0.5822 0.31408 0.12257 0 0.22215 0 0.3294 0.0919 0.0766 0.0689 0.15321 0.16853 0.15321 0.31408 0 0.23748-0.20683 0.26812-0.28344 0.26812-0.17619 0-0.42898-0.12257-0.42898-0.49793 0-0.37537 0.33706-0.6588 0.81201-0.6588 0.78137 0 1.5704 0.68944 1.7849 1.5474z"/><path d="m194.63 695.51v0.018l-6e-3 6e-3v6e-3h-6e-3v6e-3l-6e-3 6e-3v6e-3h-6e-3v6e-3h-6e-3v6e-3h-6e-3v6e-3h-6e-3v6e-3l-0.03 0.03v6e-3h-6e-3l-0.024 0.024c-0.76708 0.77325-0.96503 1.9362-0.96503 2.8765 0 1.0702 0.23507 2.1404 0.98977 2.9075 0.0804 0.0742 0.0804 0.0866 0.0804 0.10517 0 0.0433-0.0247 0.0619-0.0619 0.0619-0.0618 0-0.61861-0.42065-0.9774-1.2001-0.31548-0.67428-0.38972-1.3609-0.38972-1.8744 0-0.48251 0.0681-1.2248 0.40829-1.9177 0.37116-0.7547 0.89698-1.1568 0.95883-1.1568 0.0371 0 0.0619 0.0186 0.0619 0.0619z"/><path d="m197.05 698.84v0.0123l0.012 0.0372 0.024 0.0988 0.0124 0.0309 6e-3 0.0248 0.0123 0.0309 0.0124 0.0309 0.0123 0.0309 0.0124 0.0309 0.0186 0.0309 0.0124 0.0309 0.0372 0.0618 0.0186 0.0247 0.0247 0.0309 0.0186 0.0247 0.0247 0.0309 0.0494 0.0494 0.0247 0.0186 0.0618 0.0372 0.0124 6e-3 0.0186 0.0124 0.0186 6e-3 0.0124 6e-3 0.0186 6e-3h0.0186l0.0372 0.012h0.0372l0.0186 6e-3h0.0186c0.0309 0 0.1794 0 0.30931-0.0804-0.17322-0.0309-0.29694-0.18558-0.29694-0.33405 0-0.099 0.0681-0.21651 0.23508-0.21651 0.13609 0 0.33405 0.11135 0.33405 0.3588 0 0.32167-0.36498 0.40828-0.57531 0.40828-0.3526 0-0.56912-0.32787-0.64335-0.47015-0.15465 0.40828-0.4887 0.47015-0.6681 0.47015-0.64335 0-0.99595-0.79801-0.99595-0.94648 0-0.0619 0.0618-0.0619 0.0742-0.0619 0.0495 0 0.0681 0.0124 0.0804 0.0681 0.21033 0.64954 0.61861 0.8042 0.82893 0.8042 0.11754 0 0.33405-0.0556 0.33405-0.41448 0-0.19176-0.10516-0.60004-0.33405-1.4599-0.099-0.38355-0.31549-0.64336-0.58767-0.64336-0.0371 0-0.17941 0-0.30931 0.0804 0.15466 0.0309 0.29075 0.16083 0.29075 0.33405 0 0.16702-0.13609 0.2165-0.22889 0.2165-0.18558 0-0.33405-0.16083-0.33405-0.35878 0-0.28457 0.30312-0.4021 0.57531-0.4021 0.40828 0 0.63098 0.42684 0.64954 0.46396 0.0742-0.22889 0.29693-0.46396 0.6681-0.46396 0.63098 0 0.98358 0.79182 0.98358 0.94647 0 0.0619-0.0556 0.0619-0.0742 0.0619-0.0557 0-0.0681-0.0309-0.0804-0.0681-0.20413-0.66191-0.61861-0.81038-0.81656-0.81038-0.24125 0-0.34023 0.19796-0.34023 0.40829 0 0.13609 0.0371 0.27219 0.10516 0.53819z"/><path d="m199.91 698.75v0.036l-6e-3 6e-3v0.0124l-6e-3 6e-3v6e-3l-6e-3 6e-3v6e-3l-0.012 0.012v6e-3l-0.03 0.03h-6e-3l-6e-3 6e-3 -0.0123 6e-3 -6e-3 6e-3h-6e-3l-0.0124 6e-3h-0.0183l-6e-3 6e-3h-0.0307c-0.11754 0-0.24745-0.11134-0.24745-0.23506 0-0.0742 0.0557-0.16703 0.17322-0.16703 0.12991 0 0.24126 0.12372 0.24126 0.24126z"/><path d="m199.03 696.57-6e-3 -0.0124v-0.0123l-6e-3 -0.0186-6e-3 -0.0123v-0.0124l-6e-3 -6e-3v-0.0123l-6e-3 -0.0124v-0.0123l-6e-3 -0.0124v-0.0604c0-0.19795 0.17321-0.36498 0.40827-0.36498 0.43303 0 0.62481 0.59387 0.62481 0.66191 0 0.0556-0.0557 0.0556-0.0681 0.0556-0.0619 0-0.0681-0.0309-0.0866-0.0742-0.099-0.34642-0.29074-0.51963-0.45776-0.51963-0.0866 0-0.10516 0.0556-0.10516 0.14846 0 0.099 0.0309 0.17941 0.0681 0.27838 0.0433 0.11135 0.0866 0.22888 0.13609 0.34023 0.0371 0.10517 0.19796 0.49489 0.21033 0.54438 0.0186 0.0433 0.0309 0.099 0.0309 0.14228 0 0.19795-0.17321 0.36498-0.41446 0.36498-0.42684 0-0.6248-0.58768-0.6248-0.66192 0-0.0556 0.0619-0.0556 0.0742-0.0556 0.0556 0 0.0619 0.0247 0.0742 0.0681 0.11753 0.37116 0.30312 0.52582 0.46395 0.52582 0.0681 0 0.11135-0.0309 0.11135-0.14846 0-0.099-0.0309-0.16703-0.13609-0.43303z"/><path d="m201.82 696.99v0.068l-6e-3 0.0371v0.0371l-6e-3 0.0309v0.0309l-6e-3 0.0371-6e-3 0.0247-0.0124 0.0309-6e-3 0.0309-6e-3 0.0247-0.0124 0.0247-6e-3 0.0247-0.0123 0.0247-0.0124 0.0247-0.0123 0.0186-0.0124 0.0247-0.0186 0.0186-0.0123 0.0124-0.0124 0.0186-0.0186 0.0186-0.0186 0.0123-0.0123 0.0124-0.0186 0.0124-0.0186 6e-3 -0.0186 0.0124-0.0247 6e-3 -0.0372 0.012h-0.0247l-0.0186 6e-3h-0.0247c-0.20415 0-0.32168-0.15465-0.32168-0.32787 0-0.16702 0.11753-0.32167 0.32168-0.32167 0.0742 0 0.15465 0.0186 0.21651 0.0742 0.0186 0.0123 0.0247 0.0186 0.0309 0.0186 6e-3 0 0.0124-6e-3 0.0124-0.0866 0-0.45777-0.21652-0.82894-0.42065-1.0269-0.0681-0.0681-0.0681-0.0804-0.0681-0.099 0-0.0433 0.0309-0.0681 0.0619-0.0681 0.0681 0 0.56294 0.47014 0.56294 1.1939z"/><path d="m206.31 699.33v0.012l6e-3 0.0124v0.018l6e-3 6e-3v0.018l6e-3 6e-3v0.066c0 0.11135-0.0866 0.16702-0.17322 0.16702-0.0618 0-0.16083-0.0371-0.21651-0.1299-0.0124-0.0309-0.0619-0.2227-0.0866-0.33405-0.0433-0.16084-0.0866-0.32168-0.12372-0.4887l-0.27838-1.1073c-0.0247-0.0928-0.29075-0.52582-0.69902-0.52582-0.3155 0-0.38354 0.2722-0.38354 0.50107 0 0.28457 0.10516 0.66192 0.31548 1.2063 0.099 0.24744 0.12373 0.31549 0.12373 0.43922 0 0.27837-0.19795 0.50725-0.50726 0.50725-0.5815 0-0.81037-0.89079-0.81037-0.94647 0-0.0619 0.0618-0.0619 0.0742-0.0619 0.0619 0 0.0681 0.0124 0.099 0.11135 0.16702 0.5753 0.41446 0.76089 0.61861 0.76089 0.0495 0 0.15465 0 0.15465-0.19796 0-0.15465-0.0619-0.31548-0.10517-0.43302-0.24126-0.64954-0.35879-1.0021-0.35879-1.2867 0-0.55055 0.38973-0.72996 0.75471-0.72996 0.24125 0 0.45157 0.099 0.62479 0.27219-0.0804-0.31548-0.15466-0.61861-0.4021-0.94646-0.16084-0.21033-0.39591-0.38354-0.68047-0.38354-0.0866 0-0.35879 0.0186-0.46395 0.25363 0.099 0 0.1794 0 0.266 0.0742 0.0557 0.0556 0.11753 0.13609 0.11753 0.25363 0 0.19177-0.16702 0.21651-0.22888 0.21651-0.1361 0-0.34023-0.099-0.34023-0.40209 0-0.30312 0.27218-0.532 0.64953-0.532 0.63717 0 1.2743 0.55674 1.4476 1.2496z"/><path d="m207.72 698.75v0.03l-6e-3 6e-3v0.0184l-6e-3 6e-3v6e-3l-6e-3 6e-3v6e-3l-0.012 0.012v6e-3l-0.03 0.03h-6e-3l-6e-3 6e-3 -0.0124 6e-3 -6e-3 6e-3h-6e-3l-0.0123 6e-3h-0.0184l-6e-3 6e-3h-0.0308c-0.11753 0-0.24744-0.11134-0.24744-0.23506 0-0.0742 0.0556-0.16703 0.17321-0.16703 0.1299 0 0.24125 0.12372 0.24125 0.24126z"/><path d="m206.84 696.57-6e-3 -0.0124v-0.0123l-6e-3 -0.0186-6e-3 -0.0123v-0.0124l-6e-3 -6e-3v-0.0123l-6e-3 -0.0124v-0.0123l-6e-3 -0.0124v-0.0544l-6e-3 -6e-3c0-0.19795 0.17321-0.36498 0.41447-0.36498 0.43302 0 0.62479 0.59387 0.62479 0.66191 0 0.0556-0.0557 0.0556-0.0742 0.0556-0.0556 0-0.0619-0.0309-0.0804-0.0742-0.099-0.34642-0.29075-0.51963-0.45777-0.51963-0.0866 0-0.11135 0.0556-0.11135 0.14846 0 0.099 0.0309 0.17941 0.0742 0.27838 0.0433 0.11135 0.0866 0.22888 0.1361 0.34023 0.0371 0.10517 0.19794 0.49489 0.21032 0.54438 0.0186 0.0433 0.0309 0.099 0.0309 0.14228 0 0.19795-0.17321 0.36498-0.41447 0.36498-0.42683 0-0.62479-0.58768-0.62479-0.66192 0-0.0556 0.0619-0.0556 0.0742-0.0556 0.0556 0 0.0619 0.0247 0.0742 0.0681 0.11135 0.37116 0.30312 0.52582 0.46396 0.52582 0.0681 0 0.11135-0.0309 0.11135-0.14846 0-0.099-0.0309-0.16703-0.13609-0.43303z"/><path d="m210.16 698.52v0.0928l-6e-3 0.0495v0.0495l-6e-3 0.10516-6e-3 0.10517-6e-3 0.11134-0.0186 0.11753-0.0124 0.12372-0.0247 0.12373-0.0186 0.12372-0.0309 0.1299-0.0309 0.12992-0.0433 0.12991-0.0433 0.1299-0.0433 0.12991-0.0309 0.0681-0.0247 0.0681-0.0309 0.0619-0.0309 0.0681c-0.37116 0.7547-0.90316 1.1568-0.96502 1.1568-0.0371 0-0.0618-0.0247-0.0618-0.0619 0-0.0186 0-0.0309 0.11753-0.14228 0.60624-0.61242 0.95885-1.5898 0.95885-2.8704 0-1.0516-0.22889-2.1342-0.99596-2.9074-0.0804-0.0742-0.0804-0.0866-0.0804-0.10516 0-0.0371 0.0247-0.0619 0.0618-0.0619 0.0619 0 0.61861 0.42066 0.98359 1.2001 0.31549 0.67429 0.38972 1.3548 0.38972 1.8744z"/></g><path d="m124.8 709.89h109.18" fill-opacity=".39216" stroke="#000" stroke-opacity=".39216" stroke-width=".39052px"/><path d="m183.83 658.83v103" fill-opacity=".39216" stroke="#000" stroke-opacity=".39216" stroke-width=".39052px"/></g><rect transform="scale(1,-1)" x="184.02" y="-758.52" width="49.233" height="48.438" fill="#a00000" fill-opacity=".19608" opacity=".97" stroke="none"/><g fill-rule="evenodd"><rect transform="scale(1,-1)" x="134.43" y="-709.68" width="49.212" height="47.925" fill="#a00000" fill-opacity=".19608" opacity=".97" stroke="none"/><rect transform="scale(1,-1)" x="134.41" y="-758.52" width="49.233" height="48.438" fill="#0f6cbc" fill-opacity=".30918" opacity=".97" stroke="none"/><circle transform="scale(1,-1)" cx="156.1" cy="-700.6" r="1.0247" fill="#db0000" fill-opacity=".62745" opacity=".97" stroke="#000" stroke-linecap="square" stroke-miterlimit="10.433" stroke-opacity=".23529" stroke-width=".39052"/><circle transform="scale(1,-1)" cx="200.32" cy="-742.67" r="1.0247" fill="#db0000" fill-opacity=".62745" opacity=".97" stroke="#000" stroke-linecap="square" stroke-miterlimit="10.433" stroke-opacity=".23529" stroke-width=".39052"/></g><g font-family="Verdana" letter-spacing="0px" word-spacing="0px"><text transform="scale(1 -1)" x="161.409" y="-820.63495" fill="#000000" font-size="15.621px" stroke="none" stroke-width=".94772" style="line-height:1.25" xml:space="preserve"><tspan x="161.409" y="-806.38361" stroke-width=".94772"/></text>
<text transform="scale(1 -1)" x="260.86975" y="-741.92059" fill="#000000" font-size="15.621px" stroke="none" stroke-width=".94772" style="line-height:1.25" xml:space="preserve"><tspan x="260.86975" y="-727.66925" stroke-width=".94772"/></text>
<g id="content" transform="matrix(1.5 0 0 -1.5 52.078 1762.6)" fill-rule="evenodd" stroke="#000" stroke-miterlimit="10.433" ns0:preamble="default_packages.tex" ns0:text="$\\text{+-}$\n" xml:space="preserve"><text x="103.63738" y="695.60547" fill="#000000" font-size="10.414px" stroke="none" stroke-width=".63181" style="line-height:1.25" xml:space="preserve"><tspan x="103.63738" y="705.10638" font-family="'Courier New'" font-size="10.414px" stroke-width=".63181" style="font-feature-settings:normal;font-variant-caps:normal;font-variant-ligatures:normal;font-variant-numeric:normal"/></text><g stroke-miterlimit="10.433" stroke-opacity=".62745">
<text transform="scale(.99998 1)" x="100.98491" y="689.72455" fill="#ffffff" font-size="11.544px" stroke="#b00000" stroke-width=".18224" style="line-height:1.25" xml:space="preserve"><tspan x="100.98491" y="689.72455" fill="#ffffff" stroke="#b00000" stroke-miterlimit="10.433" stroke-opacity=".62745" stroke-width=".18224">+</tspan></text>
<text transform="scale(.98911 1.011)" x="66.496368" y="682.81006" fill="#f6ffff" font-size="16.737px" stroke="#0047a0" stroke-width=".18224" style="line-height:1.25" xml:space="preserve"><tspan x="66.496368" y="682.81006" fill="#f6ffff" font-family="'Courier New'" font-size="16.737px" stroke="#0047a0" stroke-miterlimit="10.433" stroke-opacity=".62745" stroke-width=".18224" style="font-feature-settings:normal;font-variant-caps:normal;font-variant-ligatures:normal;font-variant-numeric:normal">-</tspan></text>
<text transform="scale(.98911 1.011)" x="102.04271" y="715.27008" fill="#f6ffff" fill-rule="evenodd" font-size="16.737px" stroke="#0047a0" stroke-width=".18224" style="line-height:1.25" xml:space="preserve"><tspan x="102.04271" y="715.27008" fill="#f6ffff" font-family="'Courier New'" font-size="16.737px" stroke="#0047a0" stroke-miterlimit="10.433" stroke-opacity=".62745" stroke-width=".18224" style="font-feature-settings:normal;font-variant-caps:normal;font-variant-ligatures:normal;font-variant-numeric:normal">-</tspan></text>
<text transform="scale(.99998 1)" x="66.333282" y="721.94305" fill="#ffffff" fill-rule="evenodd" font-size="11.544px" stroke="#b00000" stroke-width=".18224" style="line-height:1.25" xml:space="preserve"><tspan x="66.333282" y="721.94305" fill="#ffffff" stroke="#b00000" stroke-miterlimit="10.433" stroke-opacity=".62745" stroke-width=".18224">+</tspan></text>
</g></g></g><circle transform="scale(1,-1)" cx="171.85" cy="-723.25" r="1.0247" fill="#f00" fill-opacity=".62745" opacity=".97" stroke="#000" stroke-linecap="square" stroke-miterlimit="10.433" stroke-opacity=".23529" stroke-width=".39052"/></g></g><circle transform="scale(1,-1)" cx="114.38" cy="-743.46" r=".63339" fill="#db0000" fill-opacity=".62745" fill-rule="evenodd" opacity=".97" stroke-linecap="square" stroke-miterlimit="10.433" stroke-opacity=".23529" stroke-width=".24138"/><circle transform="scale(1,-1)" cx="126.38" cy="-776.53" r=".63339" fill="#db0000" fill-opacity=".62745" fill-rule="evenodd" opacity=".97" stroke-linecap="square" stroke-miterlimit="10.433" stroke-opacity=".23529" stroke-width=".24138"/></g></g></g>
 </g>
</svg>
