<svg width="240mm" height="120mm" version="1.1" viewBox="0 0 717.83 328.79" xmlns="http://www.w3.org/2000/svg" xmlns:ns0="http://www.iki.fi/pav/software/textext/">
 <g transform="translate(206.49 -76.199)">
  <g transform="matrix(.94312 0 0 -.94312 -465.61 710.09)" fill-rule="evenodd" stroke="#000" stroke-miterlimit="10.433" ns0:preamble="default_packages.tex" ns0:text="$$\\text{Study the problem}$$\n$$\\text{Write rules}$$\n$$\\text{Evaluate}$$\n$$\\text{Launch!}$$\n$$\\text{Analyze errors}$$\n" xml:space="preserve"><g transform="matrix(1.5,0,0,-1.5,-343.34,974.21)" fill-rule="evenodd" stroke="#000" stroke-miterlimit="10.433" ns0:preamble="default_packages.tex" ns0:text="$$\\text{Rule-based systems}$$\n$$\\text{Classic machine learning}$$\n$$\\text{Deep learning}$$\n$$\\text{Input}$$\n$$\\text{Output}$$\n$$\\text{Features}$$\n$$\\text{Hand-designed program}$$\n$$\\text{Hand-designed features}$$\n$$\\text{Simple features}$$\n$$\\text{Mapping from features}$$\n$$\\text{Additional layers of more abstract features}$$\n\n" xml:space="preserve"><g transform="matrix(.70687 0 0 .70687 583.36 139.27)"><g transform="translate(12.052,-2.9878)" fill="#00f" fill-opacity=".83092" stroke="none"><g fill-rule="evenodd" stroke="#000" stroke-miterlimit="10.433"><g fill-opacity="0" stroke-linecap="square"><rect x="16.58" y="82.91" width="189.56" height="40.664" opacity=".97" stroke-width=".89493"/><rect x="-138.42" y="183.57" width="167.89" height="36.118" opacity=".97" stroke-width=".66146"/><rect x="152.51" y="184.66" width="167.89" height="36.118" opacity=".97" stroke-width=".66146"/></g><g transform="matrix(1.5,0,0,-1.5,-287.66,1078.9)" fill="#000" fill-rule="evenodd" stroke="#000" stroke-miterlimit="10.433" ns0:preamble="default_packages.tex" ns0:text="$$\\text{Imperative paradigms}$$\n$$\\text{Declarative paradigms}$$\n" xml:space="preserve"><g transform="matrix(1.1229,0,0,1.1229,-351.37,-328.31)" fill-opacity="1" ns0:preamble="default_packages.tex" ns0:text="$$\\text{statement oriented C, Pascal, Modula, Algol, Basic, Fortran, Ada}$$\n" xml:space="preserve"><g fill="none" stroke-miterlimit="10.433" stroke-opacity=".62745"><g stroke="#0000a0"><path d="m548.85 859.22-69.383-34.744" stroke-width="1.0261"/></g><g stroke="#a00000" stroke-width="1.0261"><path d="m548.85 859.22 71.326-35.759"/></g></g></g></g><g transform="matrix(1.5,0,0,-1.5,-287.7,1065.5)" fill="#000" fill-opacity=".66667" fill-rule="evenodd" stroke-width="0" ns0:preamble="default_packages.tex" ns0:text="$$\\text{patterns of thoughts for solving problems}$$\n$$\\text{step-by-step explanation of commands}$$\n$$\\text{declares what to be computed without specifying how it is to be achieved}$$\n" xml:space="preserve"><g transform="matrix(1.237,0,0,1.237,30.34,-388.54)" fill-rule="evenodd" stroke="#000" stroke-miterlimit="10.433" ns0:preamble="default_packages.tex" ns0:text="$$\\text{collection of functions e.g. Lisp, Haskell, ML, Scheme}$$\n" xml:space="preserve"><g fill-rule="evenodd" stroke="#000" stroke-miterlimit="10.433"><g fill="#000" fill-opacity=".70588"><g stroke="#000"><g transform="matrix(1.4343 0 0 1.4343 -162.37 -346.82)" fill-rule="evenodd" stroke-miterlimit="10.433" stroke-width="0" ns0:preamble="default_packages.tex" ns0:text="$$\\text{numbers from the scale with order and the exact differences between the values}$$\n" xml:space="preserve"/></g></g></g></g></g></g></g></g></g></g>
 </g>
 <g fill-rule="evenodd" stroke="#000" stroke-miterlimit="10.433" stroke-width="0">
  <g transform="matrix(1.8203 0 0 -1.8203 -188.21 1283.2)" ns0:preamble="default_packages.tex" ns0:text="$$\\text{Data types}$$\n" xml:space="preserve"><path d="m282.08 701.96v-0.31h0.24c0.76 0 0.78-0.11 0.78-0.47v-5.23c0-0.36-0.02-0.47-0.78-0.47h-0.24v-0.31h3.65l-0.27 0.31h-1.01c-0.47 0-0.49 0.07-0.49 0.4v5.37c0 0.33 0.02 0.4 0.49 0.4h1c0.62 0 1.3-0.22 1.81-0.93 0.43-0.58 0.52-1.44 0.52-2.21 0-1.1-0.19-1.7-0.55-2.19-0.2-0.27-0.77-0.84-1.77-0.84l0.27-0.31c1.67 0 3.05 1.47 3.05 3.34 0 1.89-1.35 3.45-3.05 3.45z"/><path d="m292.66 695.92v-0.03l0.02-0.08v-0.03l0.02-0.08 0.02-0.03 0.01-0.04 0.02-0.04 0.01-0.03 0.02-0.03 0.02-0.04 0.06-0.09 0.03-0.03 0.02-0.03 0.03-0.03 0.03-0.02 0.02-0.03 0.03-0.02 0.04-0.02 0.06-0.04 0.04-0.01 0.03-0.02 0.16-0.04h0.09c0.2 0 0.81 0.14 0.81 0.94v0.56h-0.25v-0.56c0-0.57-0.24-0.63-0.36-0.63-0.32 0-0.36 0.44-0.36 0.49v1.99c0 0.42 0 0.81-0.36 1.17-0.39 0.39-0.89 0.55-1.37 0.55-0.82 0-1.5-0.47-1.5-1.12 0-0.3 0.19-0.47 0.45-0.47 0.28 0 0.46 0.2 0.46 0.46 0 0.12-0.05 0.44-0.51 0.46 0.27 0.34 0.76 0.45 1.08 0.45 0.49 0 1.06-0.39 1.06-1.27v-1.57c0-0.94-0.72-1.28-1.17-1.28-0.49 0-0.9 0.35-0.9 0.84 0 0.55 0.42 1.37 2.07 1.43v0.21c-0.51-0.03-1.21-0.06-1.84-0.35-0.74-0.34-0.99-0.86-0.99-1.3 0-0.8 0.96-1.05 1.59-1.05 0.66 0 1.12 0.4 1.31 0.86z"/><path d="m296.04 699.14h1.43v0.31h-1.43v1.83h-0.24c-0.01-0.81-0.32-1.88-1.29-1.92v-0.22h0.85v-2.74c0-1.22 0.92-1.34 1.28-1.34 0.71 0 0.99 0.71 0.99 1.34v0.57h-0.25v-0.55c0-0.73-0.3-1.11-0.67-1.11-0.67 0-0.67 0.9-0.67 1.07z"/><path d="m301.51 695.92 0.01-0.03v-0.04l0.01-0.04 0.01-0.03 0.02-0.08 0.01-0.03 0.02-0.04 0.01-0.04 0.04-0.06 0.01-0.04 0.02-0.03 0.03-0.03 0.04-0.06 0.03-0.03 0.02-0.03 0.03-0.02 0.03-0.03 0.09-0.06 0.04-0.02 0.03-0.01 0.04-0.02 0.16-0.04h0.08c0.21 0 0.82 0.14 0.82 0.94v0.56h-0.25v-0.56c0-0.57-0.25-0.63-0.36-0.63-0.33 0-0.37 0.44-0.37 0.49v1.99c0 0.42 0 0.81-0.36 1.17-0.39 0.39-0.88 0.55-1.36 0.55-0.82 0-1.51-0.47-1.51-1.12 0-0.3 0.2-0.47 0.46-0.47 0.28 0 0.46 0.2 0.46 0.46 0 0.12-0.05 0.44-0.51 0.46 0.27 0.34 0.76 0.45 1.08 0.45 0.49 0 1.05-0.39 1.05-1.27v-1.57c0-0.94-0.71-1.28-1.16-1.28-0.49 0-0.9 0.35-0.9 0.84 0 0.55 0.42 1.37 2.06 1.43v0.21c-0.51-0.03-1.2-0.06-1.83-0.35-0.75-0.34-1-0.86-1-1.3 0-0.8 0.97-1.05 1.6-1.05 0.66 0 1.11 0.4 1.3 0.86z"/><path d="m308.22 699.14h1.42v0.31h-1.42v1.83h-0.25c-0.01-0.81-0.31-1.88-1.29-1.92v-0.22h0.85v-2.74c0-1.22 0.93-1.34 1.29-1.34 0.7 0 0.98 0.71 0.98 1.34v0.57h-0.25v-0.55c0-0.73-0.3-1.11-0.66-1.11-0.67 0-0.67 0.9-0.67 1.07z"/><path d="m314.24 698.51 0.01 0.03 0.01 0.02 0.01 0.03 0.02 0.03 0.01 0.02 0.01 0.03 0.02 0.02 0.01 0.03 0.06 0.08 0.13 0.13 0.04 0.03 0.03 0.02 0.04 0.03 0.03 0.02 0.03 0.01 0.04 0.02 0.03 0.01 0.03 0.02 0.04 0.01 0.06 0.02h0.03l0.03 0.01h0.03l0.02 0.01h0.15v0.31c-0.23-0.02-0.52-0.03-0.74-0.03-0.18 0-0.65 0.02-0.87 0.03v-0.31c0.31-0.01 0.47-0.17 0.47-0.42 0-0.1-0.01-0.12-0.06-0.24l-1.01-2.45-1.11 2.68c-0.04 0.1-0.06 0.14-0.06 0.18 0 0.25 0.37 0.25 0.56 0.25v0.31c-0.26-0.01-0.92-0.03-1.09-0.03-0.27 0-0.66 0.01-0.96 0.03v-0.31c0.48 0 0.66 0 0.81-0.34l1.49-3.63c-0.05-0.13-0.19-0.46-0.25-0.59-0.22-0.54-0.5-1.23-1.14-1.23-0.05 0-0.28 0-0.46 0.18 0.31 0.04 0.39 0.26 0.39 0.42 0 0.26-0.2 0.41-0.42 0.41-0.2 0-0.42-0.12-0.42-0.42 0-0.45 0.42-0.81 0.91-0.81 0.63 0 1.04 0.57 1.28 1.14z"/><path d="m317.07 698.91v0.65l-1.43-0.11v-0.31c0.7 0 0.77-0.06 0.77-0.49v-4.65c0-0.45-0.11-0.45-0.77-0.45v-0.31c0.33 0.01 0.85 0.03 1.11 0.03 0.27 0 0.78-0.02 1.13-0.03v0.31c-0.67 0-0.78 0-0.78 0.45v1.76l0.14 0.13c-0.14 0.2-0.14 0.21-0.14 0.41v2.22c0.29 0.5 0.78 0.79 1.29 0.79 0.72 0 1.33-0.87 1.33-1.99 0-1.21-0.7-2.04-1.43-2.04-0.4 0-0.78 0.2-1.05 0.61l-0.14-0.13c0.05-0.16 0.47-0.7 1.23-0.7 1.18 0 2.22 0.97 2.22 2.26 0 1.26-0.97 2.24-2.08 2.24-0.78 0-1.2-0.44-1.4-0.65z"/><path d="m322.27 697.47 0.01 0.2c0.06 1.48 0.89 1.73 1.23 1.73 1.03 0 1.13-1.34 1.13-1.73h-2.36l-0.01-0.2h2.78c0.22 0 0.25 0 0.25 0.2 0 0.99-0.54 1.95-1.79 1.95-1.15 0-2.07-1.02-2.07-2.27 0-1.33 1.05-2.29 2.19-2.29 1.22 0 1.67 1.1 1.67 1.29 0 0.1-0.08 0.12-0.13 0.12-0.09 0-0.11-0.06-0.13-0.14-0.35-1.02-1.25-1.02-1.35-1.02-0.5 0-0.89 0.3-1.12 0.66-0.3 0.48-0.3 1.14-0.3 1.5z"/><path d="m327.66 697.1 0.02-0.01h0.03l0.03-0.01h0.03l0.03-0.01 0.16-0.04 0.04-0.02 0.04-0.01 0.05-0.02 0.08-0.04 0.05-0.02 0.04-0.03 0.05-0.02 0.12-0.09 0.04-0.04 0.03-0.04 0.04-0.04 0.06-0.08 0.01-0.03 0.01-0.02 0.01-0.03 0.01-0.02 0.01-0.03 0.01-0.02 0.02-0.06v-0.03l0.01-0.03v-0.03l0.01-0.03v-0.07c0-0.5-0.35-0.9-1.13-0.9-0.84 0-1.19 0.56-1.38 1.41-0.03 0.13-0.04 0.17-0.14 0.17-0.13 0-0.13-0.07-0.13-0.25v-1.31c0-0.17 0-0.24 0.11-0.24 0.05 0 0.06 0.01 0.24 0.2 0.03 0.02 0.03 0.04 0.21 0.23 0.43-0.42 0.88-0.43 1.09-0.43 1.15 0 1.61 0.67 1.61 1.38 0 0.53-0.3 0.83-0.42 0.95-0.33 0.31-0.72 0.39-1.14 0.47-0.56 0.11-1.23 0.24-1.23 0.82 0 0.34 0.26 0.75 1.12 0.75 1.1 0 1.15-0.89 1.17-1.2 0.01-0.09 0.1-0.09 0.12-0.09 0.13 0 0.13 0.05 0.13 0.24v1c0 0.17 0 0.24-0.11 0.24-0.05 0-0.07 0-0.2-0.12-0.03-0.04-0.13-0.13-0.17-0.16-0.38 0.28-0.79 0.28-0.94 0.28-1.21 0-1.59-0.66-1.59-1.22 0-0.35 0.16-0.63 0.43-0.85 0.31-0.25 0.59-0.31 1.31-0.45z"/></g>
  <g transform="matrix(2.0437 0 0 -2.0437 -276.63 1302.8)" ns0:preamble="default_packages.tex" ns0:text="$$\\text{Categorical Numerical Nominal Ordinal Interval Interval Ratio}$$\n" xml:space="preserve"><path d="m213.14 583.73v-0.15391l0.0162-0.15388 0.0163-0.14581 0.0243-0.14579 0.0324-0.1458 0.0405-0.13769 0.0972-0.2754 0.0567-0.1296 0.0649-0.12959 0.0729-0.1215 0.0729-0.11344 0.0809-0.11343 0.0809-0.11344 0.0892-0.10525 0.0972-0.10527 0.0972-0.0892 0.10526-0.0972 0.10525-0.0809 0.11344-0.0809 0.22688-0.1458 0.1215-0.0648 0.12959-0.0567 0.1215-0.0486 0.12959-0.0405 0.12961-0.0405 0.13769-0.0324 0.1377-0.0243 0.27539-0.0324h0.1377c1.3203 0 2.106 1.1178 2.106 2.0493 0 0.0809 0 0.13771-0.10525 0.13771-0.0892 0-0.0892-0.0486-0.0972-0.12961-0.0649-1.1502-0.92338-1.8063-1.8063-1.8063-0.49408 0-2.0736 0.26729-2.0736 2.6648 0 2.4138 1.5714 2.681 2.0655 2.681 0.88288 0 1.6038-0.72899 1.7576-1.9035 0.0162-0.11343 0.0162-0.13769 0.12961-0.13769 0.12959 0 0.12959 0.0243 0.12959 0.1944v1.9034c0 0.1377 0 0.1944-0.0892 0.1944-0.0324 0-0.0649 0-0.12959-0.0972l-0.3969-0.59128c-0.29969 0.28349-0.71278 0.68847-1.4904 0.68847-1.5066 0-2.8106-1.2798-2.8106-2.924z"/><path d="m221.21 581.59v-0.0324l8e-3 -0.0243 8e-3 -0.0324v-0.0324l8e-3 -0.0243 8e-3 -0.0324 0.0162-0.0324 8e-3 -0.0243 0.0162-0.0324 8e-3 -0.0243 0.0162-0.0324 0.0162-0.0243 0.0163-0.0243 0.0162-0.0243 0.0163-0.0243 0.0243-0.0243 0.0162-0.0243 0.0486-0.0486 0.0163-0.0162 0.0243-0.0162 0.0324-0.0163 0.0486-0.0324 0.0324-0.0163 0.0243-8e-3 0.1296-0.032h0.0648c0.1782 0 0.66418 0.11343 0.66418 0.76138v0.45359h-0.20249v-0.45359c0-0.46169-0.1944-0.51029-0.28349-0.51029-0.2673 0-0.2997 0.35638-0.2997 0.39689v1.6119c0 0.34019 0 0.64798-0.2916 0.94768-0.31589 0.3159-0.72087 0.44548-1.1097 0.44548-0.66418 0-1.215-0.38069-1.215-0.91528 0-0.23489 0.15391-0.37259 0.3645-0.37259 0.22679 0 0.37258 0.16201 0.37258 0.37259 0 0.0892-0.0405 0.3564-0.41308 0.36449 0.2187 0.2835 0.61559 0.37261 0.87477 0.37261 0.3969 0 0.85858-0.3159 0.85858-1.0287v-1.2717c0-0.76949-0.58317-1.0368-0.94767-1.0368-0.3969 0-0.72898 0.27539-0.72898 0.68038 0 0.4455 0.34019 1.1097 1.6766 1.1583v0.17009c-0.41308-0.0243-0.98007-0.0486-1.4904-0.29159-0.59939-0.2754-0.80189-0.68849-0.80189-1.0449 0-0.64799 0.77759-0.85049 1.2879-0.85049 0.53459 0 0.90718 0.3159 1.0611 0.69658z"/><path d="m223.95 584.2h1.1583v0.25109h-1.1583v1.4823h-0.20251c-8e-3 -0.66418-0.24299-1.5228-1.0368-1.5552v-0.17819h0.68039v-2.2194c0-0.98817 0.75329-1.0854 1.0449-1.0854 0.57509 0 0.80189 0.56699 0.80189 1.0854v0.46169h-0.2025v-0.44548c0-0.59939-0.24299-0.89909-0.54268-0.89909-0.54269 0-0.54269 0.72899-0.54269 0.86669z"/><path d="m226.59 582.84 8e-3 0.1701c0.0486 1.1988 0.72899 1.4013 1.0044 1.4013 0.82619 0 0.90718-1.0854 0.90718-1.4013h-1.9116l-8e-3 -0.1701h2.2517c0.1782 0 0.2025 0 0.2025 0.1701 0 0.79379-0.43739 1.5795-1.4418 1.5795-0.93957 0-1.6848-0.83428-1.6848-1.8387 0-1.0773 0.85047-1.8549 1.782-1.8549 0.98007 0 1.3446 0.89098 1.3446 1.0449 0 0.0809-0.0649 0.0972-0.10526 0.0972-0.0729 0-0.0892-0.0486-0.10526-0.11343-0.28349-0.82619-1.0125-0.82619-1.0854-0.82619-0.40499 0-0.72898 0.2349-0.91528 0.53459-0.24299 0.38879-0.24299 0.91528-0.24299 1.2069z"/><path d="m230.14 582.05v0.0803l8e-3 8e-3v0.0404l8e-3 8e-3v0.0162l8e-3 0.0163v8e-3l0.016 0.0324v0.0163l8e-3 0.0162 8e-3 8e-3 8e-3 0.0162 8e-3 0.0163 0.016 0.0324 8e-3 0.0163 0.0163 0.0162 8e-3 0.0162 0.0163 8e-3c0.31589-0.2187 0.63988-0.243 0.79379-0.243v0.1863c-0.69659 0-0.69659 0.80189-0.69659 0.98818 0 0.2187 8e-3 0.4698 0.12959 0.67229 0.0649 0.0972 0.243 0.32399 0.567 0.32399 0.70467 0 0.70467-0.80188 0.70467-0.98817 0-0.2187-8e-3 -0.4779-0.12958-0.68039-0.0649-0.0972-0.2511-0.3159-0.57509-0.3159v-0.1863c0.75328 0 1.3122 0.5508 1.3122 1.1745 0 0.2997-0.1296 0.5913-0.33209 0.77759 0.29159 0.2754 0.58318 0.31589 0.72898 0.31589 0.0163 0 0.0566 0 0.0809-8e-3 -0.0892-0.0324-0.1296-0.12149-0.1296-0.21869 0-0.1377 0.10526-0.23491 0.2349-0.23491 0.0809 0 0.2349 0.0567 0.2349 0.243 0 0.13771-0.0972 0.39689-0.4131 0.39689-0.162 0-0.51838-0.0486-0.85857-0.38068-0.3402 0.26729-0.6804 0.29159-0.85858 0.29159-0.7452 0-1.3041-0.55889-1.3041-1.1745 0-0.35639 0.17821-0.66417 0.3807-0.83428-0.10526-0.12149-0.25109-0.38069-0.25109-0.66417 0-0.25111 0.10526-0.5589 0.35638-0.7128-0.48599-0.13769-0.74517-0.48599-0.74517-0.80999 0-0.57508 0.80187-1.0206 1.782-1.0206l8e-3 0.18629c-0.80999 0-1.3689 0.41309-1.3689 0.83428 0 0.37261 0.30779 0.6723 0.66419 0.6966h0.46978c0.6966 0 1.6038 0 1.6038-0.6966 0-0.42928-0.5751-0.83428-1.3689-0.83428l-8e-3 -0.18629c0.95578 0 1.7982 0.4131 1.7982 1.0368 0 0.28349-0.11344 0.69658-0.52649 0.91528-0.42929 0.2268-0.89908 0.2268-1.3932 0.2268-0.2025 0-0.55079 0-0.59939 8e-3 -0.2592 0.0324-0.42929 0.2835-0.42929 0.54269z"/><path d="m237.12 582.7v0.0972l-8e-3 0.0972-0.0163 0.0892-0.0162 0.0972-0.0162 0.0892-0.0243 0.0892-0.0324 0.0892-0.0324 0.0809-0.0324 0.0892-0.0405 0.0809-0.0405 0.0729-0.0486 0.0809-0.0486 0.0729-0.0567 0.0729-0.0567 0.0649-0.0566 0.0648-0.0649 0.0648-0.0649 0.0567-0.0648 0.0567-0.0729 0.0567-0.0729 0.0486-0.0729 0.0405-0.0729 0.0486-0.2427 0.0972-0.0892 0.0243-0.0809 0.0243-0.0892 0.0162-0.1784 0.016-0.0972 8e-3 -8e-3 -0.1782c0.3564 0 0.70469-0.1782 0.91529-0.52649 0.21059-0.34019 0.21059-0.80998 0.21059-1.1178 0-0.2916 0-0.72088-0.17819-1.0773-0.1782-0.36449-0.53459-0.59129-0.93958-0.59129-0.3402 0-0.69659 0.16201-0.91528 0.5346-0.2025 0.35639-0.2025 0.84237-0.2025 1.134 0 0.3159 0 0.75329 0.19439 1.1016 0.21871 0.3726 0.59939 0.54269 0.91528 0.54269l8e-3 0.1782c-1.0044 0-1.79-0.87479-1.79-1.8873 0-1.0368 0.84237-1.8063 1.782-1.8063 0.98007 0 1.7982 0.78568 1.7982 1.8063z"/><path d="m238.7 583.65v0.88288l-1.1259-0.0892v-0.2511c0.567 0 0.6318-0.0567 0.6318-0.4536v-2.1546c0-0.35639-0.0892-0.35639-0.6318-0.35639v-0.25109c0.3159 8e-3 0.69659 0.0243 0.92339 0.0243 0.32399 0 0.70469 0 1.0287-0.0243v0.25109h-0.17011c-0.59938 0-0.61557 0.0809-0.61557 0.3726v1.2393c0 0.79378 0.34018 1.5147 0.94768 1.5147 0.0567 0 0.0729 0 0.0892-8e-3 -0.0243-8e-3 -0.18629-0.10526-0.18629-0.3159 0-0.22679 0.17009-0.34828 0.34829-0.34828 0.14579 0 0.34828 0.0972 0.34828 0.35639 0 0.25918-0.25109 0.49409-0.59938 0.49409-0.58318 0-0.87478-0.54269-0.98818-0.88289z"/><path d="m241.94 584.54-1.134-0.0892v-0.2511c0.5265 0 0.5994-0.0486 0.5994-0.44548v-2.1627c0-0.35639-0.0892-0.35639-0.63179-0.35639v-0.25109c0.2592 8e-3 0.69659 0.0243 0.89099 0.0243 0.28349 0 0.56698-0.0162 0.84237-0.0243v0.25109c-0.53458 0-0.56699 0.0405-0.56699 0.34829z"/><path d="m241.97 585.94v0.0405l-8e-3 0.0243v0.0243l-8e-3 0.0243v0.0162l-8e-3 0.0243-8e-3 0.0162-8e-3 0.0243-0.0163 0.0162-8e-3 0.0163-8e-3 0.0162-0.0162 0.0162-8e-3 0.0163-0.0487 0.0487-0.0162 8e-3 -0.0162 0.0163-0.0163 8e-3 -0.0324 0.016-0.0163 0.0163-0.0243 8e-3h-0.0162l-0.0243 8e-3 -0.0163 8e-3h-0.0243l-0.0162 8e-3h-0.0649c-0.2511 0-0.42929-0.21058-0.42929-0.42118 0-0.2187 0.17819-0.42929 0.42929-0.42929 0.2268 0 0.42929 0.1701 0.42929 0.42929z"/><path d="m243.7 582.73v0.1782l8e-3 0.0567v0.0567l8e-3 0.0567 8e-3 0.0486 8e-3 0.0567v0.0486l8e-3 0.0485 0.0163 0.0486 8e-3 0.0405 0.0163 0.0892 0.0324 0.0809 0.0243 0.0809 0.0243 0.0729 0.0324 0.0729 0.0405 0.0649 0.0324 0.0567 0.0405 0.0567 0.0324 0.0567 0.0405 0.0486 0.0486 0.0405 0.081 0.081 0.0486 0.0324 0.0405 0.0324 0.0972 0.0486 0.0405 0.0243 0.0972 0.0324 0.0405 0.0163 0.0486 8e-3 0.0405 8e-3h0.0405l0.0486 8e-3h0.0405c0.0649 0 0.57509-8e-3 0.85857-0.2997-0.33208-0.0243-0.38068-0.2673-0.38068-0.37259 0-0.2025 0.1458-0.3645 0.37259-0.3645 0.2106 0 0.37259 0.1377 0.37259 0.37259 0 0.55079-0.61559 0.86669-1.2312 0.86669-1.0125 0-1.7577-0.87478-1.7577-1.8711 0-1.0287 0.80189-1.8225 1.7415-1.8225 1.0773 0 1.3365 0.96387 1.3365 1.0449 0 0.0809-0.0809 0.0809-0.10526 0.0809-0.0729 0-0.0892-0.0324-0.10526-0.0809-0.23488-0.7452-0.76138-0.84239-1.0611-0.84239-0.42119 0-1.134 0.34019-1.134 1.6362z"/><path d="m249.02 581.59 8e-3 -0.0324v-0.0243l0.016-0.0648 8e-3 -0.0243 0.016-0.0648 8e-3 -0.0243 0.0162-0.0324 8e-3 -0.0243 0.0162-0.0324 0.0163-0.0243 0.0324-0.0486 0.0243-0.0243 0.0163-0.0243 0.0162-0.0243 0.0486-0.0486 0.0486-0.0324 0.0243-0.0163 0.0486-0.0324 0.0324-0.0163 0.0324-8e-3 0.0243-8e-3 0.0972-0.024h0.0729c0.17009 0 0.66418 0.11343 0.66418 0.76138v0.45359h-0.20249v-0.45359c0-0.46169-0.20249-0.51029-0.2916-0.51029-0.26729 0-0.29969 0.35638-0.29969 0.39689v1.6119c0 0.34019 0 0.64798-0.29159 0.94768-0.31589 0.3159-0.72087 0.44548-1.1097 0.44548-0.65609 0-1.215-0.38069-1.215-0.91528 0-0.23489 0.162-0.37259 0.37259-0.37259 0.2268 0 0.36449 0.16201 0.36449 0.37259 0 0.0892-0.0324 0.3564-0.40499 0.36449 0.2187 0.2835 0.60749 0.37261 0.86668 0.37261 0.39689 0 0.85858-0.3159 0.85858-1.0287v-1.2717c0-0.76949-0.58318-1.0368-0.94768-1.0368-0.39689 0-0.72088 0.27539-0.72088 0.68038 0 0.4455 0.3402 1.1097 1.6686 1.1583v0.17009c-0.41309-0.0243-0.98007-0.0486-1.4823-0.29159-0.60748-0.2754-0.80999-0.68849-0.80999-1.0449 0-0.64799 0.78569-0.85049 1.2879-0.85049 0.53459 0 0.90718 0.3159 1.0611 0.69658z"/><path d="m251.8 586.56-1.1664-0.0892v-0.2511c0.56699 0 0.63179-0.0566 0.63179-0.4455v-4.1876c0-0.35639-0.0892-0.35639-0.63179-0.35639v-0.25109c0.26729 8e-3 0.69659 0.0243 0.89908 0.0243 0.2025 0 0.59128-0.0162 0.891-0.0243v0.25109c-0.5346 0-0.62371 0-0.62371 0.35639z"/><path d="m361.28 585.99-0.016 0.016v8e-3l-0.016 0.016v8e-3l-8e-3 8e-3h-8e-3v8e-3l-0.016 0.016h-8e-3l-8e-3 8e-3h-8e-3v8e-3h-0.032l-8e-3 8e-3h-1.4741v-0.24982h0.24177c0.11287 0 0.274-8e-3 0.39489-0.0162 0.18535-0.0242 0.19341-0.0322 0.19341-0.18536v-4.1746c0-0.21759 0-0.58829-0.83007-0.58829v-0.24983c0.28206 8e-3 0.67694 0.0242 0.94289 0.0242s0.66085-0.0162 0.9429-0.0242v0.24983c-0.83006 0-0.83006 0.3707-0.83006 0.58829v4.1665c0.0403-0.0403 0.0483-0.0483 0.0805-0.0967l3.28-4.8031c0.0725-0.0967 0.0805-0.10472 0.13702-0.10472 0.11285 0 0.11285 0.0563 0.11285 0.20952v4.4163c0 0.21758 0 0.5883 0.83008 0.5883v0.24983c-0.28206-8e-3 -0.67695-0.0242-0.94289-0.0242-0.26595 0-0.66084 0.0161-0.9429 0.0242v-0.24983c0.83007 0 0.83007-0.37072 0.83007-0.5883v-3.417z"/><path d="m368.59 581.26v-0.71725l1.1524 0.0887v0.24982c-0.56412 0-0.62054 0.0483-0.62054 0.44324v2.8448l-1.1847-0.0887v-0.24982c0.56413 0 0.62859-0.0564 0.62859-0.45131v-1.4184c0-0.70113-0.38682-1.2411-0.97513-1.2411-0.67695 0-0.7092 0.3707-0.7092 0.78978v2.6594l-1.1766-0.0887v-0.24983c0.6286 0 0.6286-0.0242 0.6286-0.73336v-1.2008c0-0.62859 0-1.3539 1.2169-1.3539 0.4513 0 0.8059 0.22564 1.0396 0.71723z"/><path d="m370.79 583.38v-2.1437c0-0.35459-0.0887-0.35459-0.6286-0.35459v-0.24983c0.28206 8e-3 0.69306 0.0242 0.91065 0.0242 0.20954 0 0.62861-0.0162 0.90261-0.0242v0.24983c-0.53995 0-0.62859 0-0.62859 0.35459v1.4748c0 0.83008 0.57218 1.2814 1.0799 1.2814 0.50771 0 0.59635-0.43519 0.59635-0.8865v-1.8697c0-0.35459-0.0887-0.35459-0.62053-0.35459v-0.24983c0.274 8e-3 0.68501 0.0242 0.90261 0.0242 0.20954 0 0.62859-0.0162 0.90259-0.0242v0.24983c-0.53994 0-0.62859 0-0.62859 0.35459v1.4748c0 0.83008 0.57218 1.2814 1.088 1.2814 0.50772 0 0.59637-0.43519 0.59637-0.8865v-1.8697c0-0.35459-0.0887-0.35459-0.62861-0.35459v-0.24983c0.28207 8e-3 0.68502 0.0242 0.90261 0.0242 0.20953 0 0.62861-0.0162 0.90261-0.0242v0.24983c-0.41907 0-0.62055 0-0.62861 0.2337v1.5312c0 0.69308 0 0.93485-0.24982 1.225-0.11287 0.137-0.37878 0.29818-0.83814 0.29818-0.67695 0-1.0316-0.48354-1.1686-0.78978-0.11287 0.70113-0.70919 0.78978-1.0638 0.78978-0.58832 0-0.96708-0.34653-1.1927-0.84619v0.84619l-1.1363-0.0887v-0.24983c0.56413 0 0.6286-0.0564 0.6286-0.45131z"/><path d="m377.48 582.48 8e-3 0.16923c0.0483 1.1927 0.72531 1.3942 0.99931 1.3942 0.83008 0 0.91067-1.0799 0.91067-1.3942h-1.91l-8e-3 -0.16923h2.2404c0.1773 0 0.20148 0 0.20148 0.16923 0 0.78979-0.42713 1.5715-1.4345 1.5715-0.93483 0-1.6763-0.83007-1.6763-1.8294 0-1.0718 0.84619-1.8455 1.773-1.8455 0.97513 0 1.3378 0.88648 1.3378 1.0396 0 0.0805-0.0645 0.0967-0.10474 0.0967-0.0725 0-0.0887-0.0483-0.10472-0.11285-0.28207-0.82202-0.99931-0.82202-1.0799-0.82202-0.40294 0-0.72531 0.23371-0.91065 0.53189-0.24178 0.38683-0.24178 0.91066-0.24178 1.2008z"/><path d="m381.5 583.29v0.87843l-1.1202-0.0887v-0.24983c0.56412 0 0.62859-0.0564 0.62859-0.45131v-2.1437c0-0.35458-0.0887-0.35458-0.62859-0.35458v-0.24982c0.3143 8e-3 0.69307 0.0242 0.91872 0.0242 0.32235 0 0.70113 0 1.0154-0.0242v0.24982h-0.16117c-0.59637 0-0.61248 0.0805-0.61248 0.37071v1.233c0 0.78977 0.33848 1.507 0.95096 1.507 0.0483 0 0.0645 0 0.0805-8e-3 -0.0242-8e-3 -0.17729-0.10472-0.17729-0.3143 0-0.22565 0.16117-0.34653 0.33847-0.34653 0.14507 0 0.34653 0.0967 0.34653 0.3546 0 0.25787-0.24982 0.49159-0.5883 0.49159-0.5883 0-0.87842-0.53995-0.99126-0.87843z"/><path d="m384.73 584.17-1.1283-0.0887v-0.24983c0.52384 0 0.59637-0.0483 0.59637-0.44324v-2.1518c0-0.35458-0.0887-0.35458-0.6286-0.35458v-0.24982c0.25788 8e-3 0.69306 0.0242 0.88649 0.0242 0.28206 0 0.56412-0.0161 0.83813-0.0242v0.24982c-0.53189 0-0.56413 0.0403-0.56413 0.34653z"/><path d="m384.76 585.56v0.0403l-8e-3 0.0242v0.0242l-8e-3 0.0242v0.0161l-8e-3 0.0242-8e-3 0.0161-8e-3 0.0242-0.0162 0.0161-8e-3 0.0162-8e-3 0.0161-0.0161 0.0161-8e-3 0.0162-0.0484 0.0484-0.0161 8e-3 -0.0161 0.0162-0.0162 8e-3 -0.0322 0.016-0.0162 0.0162-0.0242 8e-3h-0.0161l-0.0242 8e-3 -0.0162 8e-3h-0.0242l-0.0161 8e-3h-0.0646c-0.24982 0-0.42712-0.20952-0.42712-0.41906 0-0.21759 0.1773-0.42712 0.42712-0.42712 0.22565 0 0.42713 0.16923 0.42713 0.42712z"/><path d="m386.48 582.37v0.1773l8e-3 0.0564v0.0564l8e-3 0.0564 8e-3 0.0483 8e-3 0.0564v0.0483l8e-3 0.0483 0.0161 0.0483 8e-3 0.0403 0.0162 0.0887 0.0322 0.0805 0.0242 0.0805 0.0242 0.0725 0.0322 0.0725 0.0403 0.0645 0.0322 0.0564 0.0403 0.0564 0.0322 0.0564 0.0403 0.0483 0.0483 0.0403 0.0806 0.0806 0.0483 0.0322 0.0403 0.0322 0.0966 0.0484 0.0403 0.0242 0.0966 0.0322 0.0403 0.0162 0.0483 8e-3 0.0403 8e-3h0.0403l0.0483 8e-3h0.0403c0.0725 0 0.57218-8e-3 0.85425-0.29818-0.3304-0.0242-0.37876-0.26595-0.37876-0.37072 0-0.20147 0.14505-0.36266 0.37071-0.36266 0.20952 0 0.3707 0.13701 0.3707 0.37072 0 0.54801-0.61247 0.86231-1.225 0.86231-1.0074 0-1.7488-0.87037-1.7488-1.8616 0-1.0235 0.79783-1.8133 1.7327-1.8133 1.0718 0 1.3297 0.95902 1.3297 1.0396 0 0.0805-0.0805 0.0805-0.10473 0.0805-0.0725 0-0.0887-0.0322-0.10472-0.0805-0.23372-0.74143-0.75754-0.83813-1.0557-0.83813-0.41907 0-1.1283 0.33847-1.1283 1.6279z"/><path d="m391.78 581.24 8e-3 -0.0322v-0.0242l0.016-0.0644 8e-3 -0.0242 0.016-0.0644 8e-3 -0.0242 0.0161-0.0322 8e-3 -0.0242 0.0161-0.0322 0.0162-0.0242 0.0322-0.0484 0.0242-0.0242 0.0162-0.0242 0.0161-0.0242 0.0484-0.0484 0.0484-0.0322 0.0242-0.0162 0.0242-0.0161 0.0322-0.0161 0.0242-0.0162 0.0322-8e-3 0.0242-8e-3 0.0966-0.024h0.0725c0.16924 0 0.66084 0.11286 0.66084 0.75754v0.4513h-0.20147v-0.4513c0-0.45936-0.20148-0.50772-0.29013-0.50772-0.26594 0-0.29817 0.35459-0.29817 0.39489v1.6037c0 0.33847 0 0.64471-0.29013 0.9429-0.3143 0.31431-0.71726 0.44324-1.1041 0.44324-0.65278 0-1.2088-0.37878-1.2088-0.91067 0-0.2337 0.16117-0.3707 0.3707-0.3707 0.22566 0 0.37071 0.16118 0.37071 0.3707 0 0.0887-0.0403 0.3546-0.411 0.36266 0.21759 0.28206 0.61248 0.37072 0.86231 0.37072 0.39489 0 0.85425-0.3143 0.85425-1.0235v-1.2652c0-0.76561-0.58025-1.0316-0.9429-1.0316-0.38683 0-0.71724 0.274-0.71724 0.67695 0 0.44325 0.33848 1.1041 1.6601 1.1524v0.16923c-0.411-0.0242-0.97513-0.0483-1.4748-0.29011-0.60443-0.27401-0.8059-0.68502-0.8059-1.0396 0-0.64472 0.78172-0.8462 1.2814-0.8462 0.5319 0 0.9026 0.3143 1.0557 0.69307z"/><path d="m394.54 586.19-1.1605-0.0887v-0.24983c0.56413 0 0.6286-0.0563 0.6286-0.44325v-4.1665c0-0.35458-0.0887-0.35458-0.6286-0.35458v-0.24982c0.26595 8e-3 0.69307 0.0242 0.89455 0.0242 0.20147 0 0.59635-0.0161 0.88648-0.0242v0.24982c-0.5319 0-0.62053 0-0.62053 0.35458z"/></g>
  <g transform="matrix(1.5 0 0 -1.5 185.82 929.63)" fill-opacity=".70588" ns0:preamble="default_packages.tex" ns0:text="$$\\text{represent characteristics}$$\n$$\\text{represent quantative features}$$\n" xml:space="preserve"><path d="m72.641 551.71v1.1655l-1.4862-0.11762v-0.33146c0.74846 0 0.834-0.0748 0.834-0.58808v-2.8549c0-0.47046-0.11762-0.47046-0.834-0.47046v-0.33146c0.417 0.0107 0.91954 0.0321 1.2189 0.0321 0.4277 0 0.93024 0 1.3579-0.0321v0.33146h-0.23523c-0.78054 0-0.80193 0.11762-0.80193 0.50254v1.6252c0 1.0586 0.44908 1.9995 1.251 1.9995 0.07485 0 0.09623 0 0.11762-0.0107-0.03207-0.0107-0.24592-0.13901-0.24592-0.40631 0-0.29938 0.22454-0.45977 0.45977-0.45977 0.19246 0 0.45977 0.1283 0.45977 0.47046 0 0.33146-0.33146 0.64154-0.79123 0.64154-0.76985 0-1.1548-0.70569-1.3045-1.1655z"/><path d="m76.212 550.64 0.01069 0.21385c0.06416 1.5825 0.96231 1.8498 1.3259 1.8498 1.0906 0 1.2082-1.4328 1.2082-1.8498h-2.5341l-0.01069-0.21385h2.9725c0.23523 0 0.26731 0 0.26731 0.21385 0 1.0585-0.57739 2.085-1.9032 2.085-1.2403 0-2.224-1.0906-2.224-2.4272 0-1.4221 1.1227-2.4486 2.3523-2.4486 1.2938 0 1.7749 1.1762 1.7749 1.3793 0 0.10692-0.08554 0.1283-0.139 0.1283-0.09623 0-0.11762-0.0642-0.139-0.14969-0.37423-1.0906-1.3259-1.0906-1.4328-1.0906-0.53462 0-0.96231 0.32077-1.2082 0.7057-0.32077 0.51323-0.32077 1.2189-0.32077 1.6038z"/><path d="m81.601 552.18v0.695l-1.5397-0.11762v-0.33146c0.75916 0 0.834-0.0642 0.834-0.52392v-4.972c0-0.48115-0.11762-0.48115-0.834-0.48115v-0.33146c0.36354 0.0107 0.91954 0.0321 1.1975 0.0321 0.28869 0 0.834-0.0214 1.2082-0.0321v0.33146c-0.71639 0-0.834 0-0.834 0.48115v1.8818l0.14969 0.139c-0.14969 0.21384-0.14969 0.22453-0.14969 0.43839v2.3737c0.31008 0.53462 0.834 0.8447 1.3686 0.8447 0.78054 0 1.4328-0.93024 1.4328-2.1278 0-1.2938-0.74846-2.1812-1.5397-2.1812-0.417 0-0.82331 0.21384-1.112 0.65223l-0.14969-0.139c0.05347-0.17108 0.50254-0.74847 1.3045-0.74847 1.2724 0 2.3844 1.0372 2.3844 2.4165 0 1.3472-1.0372 2.3951-2.2347 2.3951-0.82331 0-1.2724-0.47046-1.4862-0.695z"/><path d="m87.461 551.71v1.1655l-1.4755-0.11762v-0.33146c0.73777 0 0.82331-0.0748 0.82331-0.58808v-2.8549c0-0.47046-0.11762-0.47046-0.82331-0.47046v-0.33146c0.40631 0.0107 0.90885 0.0321 1.2082 0.0321 0.42769 0 0.93024 0 1.3579-0.0321v0.33146h-0.22454c-0.79123 0-0.81262 0.11762-0.81262 0.50254v1.6252c0 1.0586 0.44908 1.9995 1.2617 1.9995 0.07485 0 0.09623 0 0.11762-0.0107-0.03207-0.0107-0.24592-0.13901-0.24592-0.40631 0-0.29938 0.22454-0.45977 0.45977-0.45977 0.19246 0 0.45977 0.1283 0.45977 0.47046 0 0.33146-0.33146 0.64154-0.79123 0.64154-0.78054 0-1.1655-0.70569-1.3152-1.1655z"/><path d="m91.043 550.64 0.01069 0.21385c0.06416 1.5825 0.95162 1.8498 1.3152 1.8498 1.1013 0 1.2082-1.4328 1.2082-1.8498h-2.5234l-0.01069-0.21385h2.9725c0.23523 0 0.26731 0 0.26731 0.21385 0 1.0585-0.57739 2.085-1.9139 2.085-1.2296 0-2.2133-1.0906-2.2133-2.4272 0-1.4221 1.1227-2.4486 2.3416-2.4486 1.3045 0 1.7856 1.1762 1.7856 1.3793 0 0.10692-0.08554 0.1283-0.139 0.1283-0.09623 0-0.11762-0.0642-0.139-0.14969-0.37423-1.0906-1.3365-1.0906-1.4435-1.0906-0.53462 0-0.96231 0.32077-1.1975 0.7057-0.32077 0.51323-0.32077 1.2189-0.32077 1.6038z"/><path d="m96.806 550.24 0.02138-0.0107h0.03207l0.03207-0.0107h0.03207l0.03207-0.0107 0.04278-0.0107 0.12831-0.0321 0.04277-0.0214 0.04277-0.0107 0.05346-0.0214 0.04278-0.0214 0.04277-0.0214 0.05346-0.0214 0.04277-0.0321 0.04277-0.0214 0.05346-0.0321 0.08554-0.0642 0.04277-0.0427 0.03207-0.0427 0.04276-0.0427 0.06414-0.0854 0.01073-0.0321 0.01073-0.0214 0.01073-0.0321 0.01073-0.0214 0.01073-0.0321 0.01073-0.0214 0.02146-0.0642v-0.0321l0.01073-0.0321v-0.0321l0.01073-0.0321v-0.0748c0-0.53462-0.37423-0.96231-1.2082-0.96231-0.89816 0-1.2724 0.59877-1.4755 1.5076-0.03207 0.139-0.05346 0.18178-0.16038 0.18178-0.12831 0-0.12831-0.0748-0.12831-0.26732v-1.4007c0-0.18177 0-0.25662 0.11762-0.25662 0.04277 0 0.06416 0.0107 0.26731 0.21385 0.01069 0.0214 0.01069 0.0427 0.20315 0.24593 0.47046-0.44908 0.95162-0.45978 1.1762-0.45978 1.2296 0 1.7215 0.71639 1.7215 1.4756 0 0.5667-0.32077 0.88747-0.44907 1.0158-0.35285 0.33146-0.76985 0.417-1.2189 0.50254-0.59877 0.11762-1.3152 0.25662-1.3152 0.87678 0 0.36354 0.278 0.80193 1.1975 0.80193 1.1762 0 1.2296-0.95163 1.251-1.2831 0.01073-0.0962 0.10692-0.0962 0.1283-0.0962 0.139 0 0.139 0.0535 0.139 0.25662v1.0692c0 0.18177 0 0.25662-0.11761 0.25662-0.05346 0-0.07482 0-0.21385-0.1283-0.03207-0.0428-0.139-0.13901-0.18177-0.17109-0.40631 0.29939-0.8447 0.29939-1.0051 0.29939-1.3045 0-1.7001-0.70569-1.7001-1.3045 0-0.37423 0.16039-0.67362 0.45977-0.90885 0.33146-0.26731 0.63085-0.33146 1.4007-0.48115z"/><path d="m99.971 550.64 0.01073 0.21385c0.06419 1.5825 0.96232 1.8498 1.3259 1.8498 1.1013 0 1.2082-1.4328 1.2082-1.8498h-2.5341l-0.01073-0.21385h2.9832c0.22454 0 0.25662 0 0.25662 0.21385 0 1.0585-0.5667 2.085-1.9032 2.085-1.2403 0-2.224-1.0906-2.224-2.4272 0-1.4221 1.1227-2.4486 2.3523-2.4486 1.3045 0 1.7749 1.1762 1.7749 1.3793 0 0.10692-0.0855 0.1283-0.12831 0.1283-0.0962 0-0.12831-0.0642-0.14969-0.14969-0.36355-1.0906-1.3258-1.0906-1.4328-1.0906-0.53462 0-0.96231 0.32077-1.2082 0.7057-0.32077 0.51323-0.32077 1.2189-0.32077 1.6038z"/><path d="m104.7 551.84v-2.8549c0-0.47046-0.11762-0.47046-0.83401-0.47046v-0.33146c0.37423 0.0107 0.91954 0.0321 1.2082 0.0321 0.278 0 0.83401-0.0214 1.1975-0.0321v0.33146c-0.71639 0-0.834 0-0.834 0.47046v1.9567c0 1.112 0.75915 1.7001 1.4328 1.7001s0.79124-0.5667 0.79124-1.1762v-2.4806c0-0.47046-0.11762-0.47046-0.82331-0.47046v-0.33146c0.36353 0.0107 0.90885 0.0321 1.1975 0.0321 0.278 0 0.834-0.0214 1.1976-0.0321v0.33146c-0.55601 0-0.82331 0-0.83401 0.32077v2.0209c0 0.91954 0 1.251-0.33146 1.6252-0.14969 0.18177-0.50254 0.39562-1.1227 0.39562-0.76985 0-1.2724-0.45977-1.5718-1.112v1.112l-1.5076-0.11762v-0.33146c0.74847 0 0.83401-0.0748 0.83401-0.58808z"/><path d="m110.98 552.42h1.529v0.33146h-1.529v1.9567h-0.26731c-0.0107-0.86608-0.32077-2.0102-1.3686-2.0529v-0.23523h0.90885v-2.9297c0-1.3045 0.9837-1.4328 1.3686-1.4328 0.75916 0 1.0585 0.75916 1.0585 1.4328v0.60947h-0.26731v-0.58809c0-0.78054-0.32077-1.1868-0.71639-1.1868-0.71638 0-0.71638 0.96232-0.71638 1.1441z"/><path d="m71.643 539.12v0.2352l0.01069 0.0748v0.0642l0.02138 0.1496v0.0642l0.03207 0.1926 0.02138 0.0642 0.02138 0.10692 0.03207 0.11762 0.04278 0.0962 0.03207 0.10692 0.08554 0.1712 0.05347 0.0856 0.04277 0.0748 0.16041 0.1926 0.06416 0.0535 0.05347 0.0427 0.06416 0.0427 0.05347 0.0427 0.06416 0.0428 0.05346 0.0321 0.12832 0.0428 0.05347 0.0214 0.06416 0.0214 0.05347 0.0107 0.06416 0.0107 0.05347 0.0107h0.10693c0.09623 0 0.76985-0.0107 1.1441-0.39562-0.43839-0.0321-0.50254-0.34215-0.50254-0.48116 0-0.27799 0.19246-0.49185 0.49185-0.49185 0.278 0 0.49185 0.18177 0.49185 0.50254 0 0.7164-0.81262 1.1334-1.6359 1.1334-1.3259 0-2.3095-1.1441-2.3095-2.4592 0-1.3686 1.0585-2.4165 2.2882-2.4165 1.4328 0 1.7749 1.2724 1.7749 1.3793 0 0.10692-0.10692 0.10692-0.139 0.10692-0.09623 0-0.11762-0.0427-0.139-0.10692-0.31008-0.9837-1.0051-1.112-1.4007-1.112-0.556 0-1.4969 0.45977-1.4969 2.1705z"/><path d="m76.006 537.6v-0.0749l-0.01069-0.0428v-0.0642l-0.01069-0.0321v-0.0321l-0.01069-0.0214-0.01069-0.0321-0.02138-0.0428-0.04276-0.0428-0.02138-0.0107-0.02138-0.0214-0.02138-0.0107h-0.03207l-0.02138-0.0107-0.03207-0.0107h-0.03207l-0.03207-0.0107h-0.08553l-0.02138-0.0107h-0.40623v-0.33147c0.37423 0.0107 0.91954 0.0321 1.2082 0.0321 0.278 0 0.82331-0.0214 1.1869-0.0321v0.33147c-0.71639 0-0.82331 0-0.82331 0.47045v1.9567c0 1.112 0.74846 1.7001 1.4328 1.7001 0.67362 0 0.79124-0.5667 0.79124-1.1762v-2.4806c0-0.47045-0.11762-0.47045-0.834-0.47045v-0.33147c0.37423 0.0107 0.91954 0.0321 1.2082 0.0321 0.278 0 0.834-0.0214 1.1869-0.0321v0.33147c-0.54531 0-0.81262 0-0.82331 0.32077v2.0208c0 0.91954 0 1.251-0.33146 1.6252-0.14969 0.18177-0.50254 0.39561-1.1227 0.39561-0.89816 0-1.3686-0.63084-1.5397-1.0372v3.7102l-1.5397-0.10693v-0.33147c0.74846 0 0.834-0.0748 0.834-0.59877z"/><path d="m84.303 537.6v-0.0321l0.01069-0.0427v-0.0428l0.01069-0.0321 0.02138-0.0854 0.01069-0.0321 0.02138-0.0427 0.01069-0.0427 0.04276-0.0642 0.02138-0.0427 0.08552-0.1284 0.11759-0.1177 0.06414-0.0428 0.04276-0.0214 0.03207-0.0214 0.04277-0.0107 0.03207-0.0214 0.17108-0.0428h0.08554c0.22454 0 0.87677 0.14969 0.87677 1.0051v0.59877h-0.26725v-0.59877c0-0.60947-0.26731-0.67362-0.38492-0.67362-0.35285 0-0.39562 0.47046-0.39562 0.52392v2.1278c0 0.44908 0 0.86608-0.38492 1.251-0.40631 0.417-0.94093 0.58808-1.4542 0.58808-0.87677 0-1.6145-0.50254-1.6145-1.1976 0-0.32076 0.21385-0.50254 0.49185-0.50254 0.29939 0 0.49185 0.21385 0.49185 0.49185 0 0.12831-0.05346 0.47046-0.54531 0.49185 0.28869 0.36354 0.81262 0.48115 1.1548 0.48115 0.52392 0 1.1334-0.417 1.1334-1.3579v-1.6787c0-1.0051-0.76985-1.3686-1.251-1.3686-0.52392 0-0.96231 0.37422-0.96231 0.89815 0 0.58808 0.44908 1.4648 2.2133 1.529v0.22454c-0.54531-0.0321-1.2938-0.0642-1.9674-0.37424-0.80193-0.36353-1.0692-0.91954-1.0692-1.39 0-0.85539 1.0372-1.1227 1.7108-1.1227 0.7057 0 1.1975 0.42769 1.4007 0.91954z"/><path d="m87.853 540.33v1.1655l-1.4755-0.11762v-0.33146c0.73777 0 0.82331-0.0748 0.82331-0.58808v-2.8549c0-0.47046-0.11762-0.47046-0.82331-0.47046v-0.33147c0.40631 0.0107 0.90885 0.0321 1.2082 0.0321 0.42769 0 0.93024 0 1.3579-0.0321v0.33147h-0.22454c-0.79123 0-0.81262 0.11762-0.81262 0.50254v1.6252c0 1.0585 0.44908 1.9995 1.2617 1.9995 0.07485 0 0.09623 0 0.11762-0.0107-0.03207-0.0107-0.24592-0.13901-0.24592-0.40631 0-0.29939 0.22454-0.45977 0.45977-0.45977 0.19246 0 0.45977 0.1283 0.45977 0.47046 0 0.33146-0.33146 0.64154-0.79124 0.64154-0.78054 0-1.1655-0.7057-1.3152-1.1655z"/><path d="m93.798 537.6v-0.0321l0.01069-0.0427 0.01069-0.0428v-0.0321l0.01069-0.0427 0.02138-0.0427 0.01069-0.0321 0.01069-0.0427 0.02138-0.0427 0.01069-0.0321 0.02138-0.0321 0.02138-0.0427 0.06414-0.0963 0.03207-0.0321 0.02138-0.0321 0.03207-0.0321 0.03207-0.0214 0.03207-0.0321 0.03208-0.0214 0.09621-0.0642 0.04276-0.0107 0.03207-0.0214 0.08554-0.0214 0.04276-0.0107 0.04278-0.0107h0.09623c0.22454 0 0.86608 0.14969 0.86608 1.0051v0.59877h-0.25662v-0.59877c0-0.60947-0.26731-0.67362-0.38492-0.67362-0.35285 0-0.39562 0.47046-0.39562 0.52392v2.1278c0 0.44908 0 0.86608-0.38492 1.251-0.417 0.417-0.95162 0.58808-1.4649 0.58808-0.87677 0-1.6039-0.50254-1.6039-1.1976 0-0.32076 0.21385-0.50254 0.48116-0.50254 0.29939 0 0.49185 0.21385 0.49185 0.49185 0 0.12831-0.05346 0.47046-0.53462 0.49185 0.278 0.36354 0.80193 0.48115 1.1441 0.48115 0.52392 0 1.1334-0.417 1.1334-1.3579v-1.6787c0-1.0051-0.76985-1.3686-1.251-1.3686-0.52392 0-0.95162 0.37422-0.95162 0.89815 0 0.58808 0.43839 1.4648 2.2026 1.529v0.22454c-0.54531-0.0321-1.2938-0.0642-1.9674-0.37424-0.79124-0.36353-1.0585-0.91954-1.0585-1.39 0-0.85539 1.0265-1.1227 1.7001-1.1227 0.7057 0 1.1975 0.42769 1.4007 0.91954z"/><path d="m96.824 539.12v0.2352l0.01069 0.0748v0.0642l0.01069 0.0748v0.0748l0.04276 0.2568 0.02138 0.0642 0.02138 0.10692 0.03207 0.11762 0.04278 0.0962 0.03207 0.10692 0.08554 0.1712 0.05347 0.0856 0.04277 0.0748 0.16041 0.1926 0.06416 0.0535 0.10694 0.0854 0.06416 0.0427 0.06416 0.0428 0.05346 0.0321 0.12832 0.0428 0.05346 0.0214 0.06419 0.0214 0.05346 0.0107 0.06419 0.0107 0.05346 0.0107h0.10692c0.09623 0 0.76985-0.0107 1.1441-0.39562-0.43838-0.0321-0.50254-0.34215-0.50254-0.48116 0-0.27799 0.19246-0.49185 0.49185-0.49185 0.278 0 0.49185 0.18177 0.49185 0.50254 0 0.7164-0.81262 1.1334-1.6359 1.1334-1.3259 0-2.3095-1.1441-2.3095-2.4592 0-1.3686 1.0585-2.4165 2.2882-2.4165 1.4328 0 1.7749 1.2724 1.7749 1.3793 0 0.10692-0.10692 0.10692-0.139 0.10692-0.09623 0-0.11761-0.0427-0.13901-0.10692-0.31008-0.9837-1.0051-1.112-1.4007-1.112-0.56669 0-1.4969 0.45977-1.4969 2.1705z"/><path d="m102.15 541.05h1.529v0.33146h-1.529v1.9567h-0.2673c-0.0107-0.86608-0.33146-2.0102-1.3686-2.0529v-0.23523h0.89815v-2.9297c0-1.3045 0.99439-1.4328 1.3793-1.4328 0.75915 0 1.0585 0.75916 1.0585 1.4328v0.60947h-0.2673v-0.58808c0-0.78054-0.32077-1.1868-0.71639-1.1868-0.7164 0-0.7164 0.96231-0.7164 1.1441z"/><path d="m105.63 539.26 0.0107 0.21384c0.0642 1.5825 0.96232 1.8498 1.3152 1.8498 1.1013 0 1.2082-1.4328 1.2082-1.8498h-2.5234l-0.0107-0.21384h2.9725c0.23523 0 0.2673 0 0.2673 0.21384 0 1.0586-0.57738 2.085-1.9139 2.085-1.2296 0-2.2133-1.0906-2.2133-2.4272 0-1.4221 1.1227-2.4486 2.3523-2.4486 1.2938 0 1.7749 1.1762 1.7749 1.3793 0 0.10693-0.0855 0.12831-0.13899 0.12831-0.0962 0-0.11762-0.0642-0.139-0.14969-0.37424-1.0906-1.3366-1.0906-1.4328-1.0906-0.53462 0-0.96231 0.32077-1.2082 0.70569-0.32077 0.51324-0.32077 1.2189-0.32077 1.6039z"/><path d="m110.97 540.33v1.1655l-1.4862-0.11762v-0.33146c0.74846 0 0.834-0.0748 0.834-0.58808v-2.8549c0-0.47046-0.11762-0.47046-0.834-0.47046v-0.33147c0.417 0.0107 0.91954 0.0321 1.2189 0.0321 0.417 0 0.91954 0 1.3472-0.0321v0.33147h-0.22454c-0.79124 0-0.81262 0.11762-0.81262 0.50254v1.6252c0 1.0585 0.44907 1.9995 1.2617 1.9995 0.0748 0 0.0962 0 0.11763-0.0107-0.0321-0.0107-0.24593-0.13901-0.24593-0.40631 0-0.29939 0.22453-0.45977 0.45977-0.45977 0.19246 0 0.45977 0.1283 0.45977 0.47046 0 0.33146-0.33146 0.64154-0.79124 0.64154-0.78053 0-1.1655-0.7057-1.3045-1.1655z"/><path d="m115.25 541.49-1.4969-0.11762v-0.33146c0.695 0 0.79124-0.0642 0.79124-0.57739v-2.8656c0-0.47046-0.11762-0.47046-0.83401-0.47046v-0.33147c0.34216 0.0107 0.91955 0.0321 1.1762 0.0321 0.37423 0 0.74847-0.0214 1.1013-0.0321v0.33147c-0.695 0-0.73777 0.0535-0.73777 0.45977z"/><path d="m115.29 543.34v0.0321l-0.0107 0.0321v0.0535l-0.0214 0.0642-0.0107 0.0214-0.0107 0.0321-0.0321 0.0642-0.0214 0.0321-0.0107 0.0214-0.0214 0.0214-0.0214 0.0107-0.0107 0.0214-0.0214 0.0214-0.0214 0.0107-0.0214 0.0214-0.0214 0.0107-0.0214 0.0214-0.0321 0.0107-0.0428 0.0214-0.0321 0.0107h-0.0214l-0.0214 0.0107-0.0321 0.0107h-0.0535l-0.0321 0.0107h-0.0214c-0.33147 0-0.5667-0.28869-0.5667-0.56668 0-0.2887 0.23523-0.5667 0.5667-0.5667 0.29938 0 0.56668 0.22454 0.56668 0.5667z"/><path d="m118.53 538.86 0.0321-0.0107h0.0214l0.0321-0.0107h0.0321l0.0321-0.0107 0.1281-0.0321 0.0428-0.0107 0.0427-0.0214 0.0428-0.0107 0.0534-0.0214 0.0428-0.0214 0.0535-0.0214 0.0427-0.0214 0.0427-0.0321 0.0534-0.0214 0.1281-0.0963 0.0427-0.0428 0.0321-0.0427 0.0427-0.0427 0.0642-0.0854 0.0107-0.0321 0.0107-0.0214 0.0107-0.0321 0.0214-0.0214 0.0107-0.0321v-0.0214l0.0321-0.0963v-0.0642l0.0107-0.0321v-0.0749c0-0.53462-0.37424-0.96231-1.2082-0.96231-0.88747 0-1.2724 0.59877-1.4756 1.5076-0.0321 0.139-0.0427 0.18176-0.14968 0.18176-0.13901 0-0.13901-0.0748-0.13901-0.2673v-1.4007c0-0.18177 0-0.25662 0.11761-0.25662 0.0535 0 0.0642 0.0107 0.26732 0.21385 0.0214 0.0214 0.0214 0.0427 0.21384 0.24593 0.47047-0.44909 0.94092-0.45978 1.1655-0.45978 1.2296 0 1.7215 0.71639 1.7215 1.4756 0 0.5667-0.32077 0.88747-0.44909 1.0158-0.35284 0.33146-0.76984 0.417-1.2189 0.50254-0.59877 0.11762-1.3045 0.25662-1.3045 0.87678 0 0.36353 0.278 0.80192 1.1868 0.80192 1.1762 0 1.2296-0.95162 1.251-1.2831 0.0107-0.0962 0.10693-0.0962 0.12831-0.0962 0.139 0 0.139 0.0535 0.139 0.25662v1.0692c0 0.18177 0 0.25662-0.11762 0.25662-0.0535 0-0.0748 0-0.21384-0.12832-0.0321-0.0427-0.13901-0.13899-0.18178-0.17107-0.4063 0.29939-0.84469 0.29939-1.0051 0.29939-1.2938 0-1.7001-0.7057-1.7001-1.3045 0-0.37423 0.17108-0.67362 0.45977-0.90885 0.34216-0.26731 0.63085-0.33147 1.4007-0.48116z"/><path d="m122.36 541.05h1.529v0.33146h-1.529v1.9567h-0.26732c-0.0107-0.86608-0.33146-2.0102-1.3686-2.0529v-0.23523h0.90886v-2.9297c0-1.3045 0.98369-1.4328 1.3686-1.4328 0.75916 0 1.0586 0.75916 1.0586 1.4328v0.60947h-0.26731v-0.58808c0-0.78054-0.32077-1.1868-0.71639-1.1868-0.71638 0-0.71638 0.96231-0.71638 1.1441z"/><path d="m126.55 541.49-1.4969-0.11762v-0.33146c0.695 0 0.79123-0.0642 0.79123-0.57739v-2.8656c0-0.47046-0.11762-0.47046-0.834-0.47046v-0.33147c0.34216 0.0107 0.91954 0.0321 1.1762 0.0321 0.37423 0 0.74846-0.0214 1.112-0.0321v0.33147c-0.70569 0-0.74846 0.0535-0.74846 0.45977z"/><path d="m126.59 543.34v0.0642l-0.0107 0.0321v0.0214l-0.0214 0.0642-0.0107 0.0214-0.0107 0.0321-0.0321 0.0642-0.0214 0.0321-0.0107 0.0214-0.0749 0.0749-0.0214 0.0107-0.0214 0.0214-0.0214 0.0107-0.0214 0.0214-0.0214 0.0107-0.0321 0.0107-0.0428 0.0214h-0.0321l-0.0214 0.0107-0.0321 0.0107h-0.0535l-0.0214 0.0107h-0.0321c-0.33146 0-0.56669-0.28869-0.56669-0.56668 0-0.2887 0.23523-0.5667 0.56669-0.5667 0.29938 0 0.56669 0.22454 0.56669 0.5667z"/><path d="m128.87 539.12v0.2352l0.0107 0.0748v0.0642l0.0107 0.0748v0.0748l0.0428 0.2568 0.0214 0.0642 0.0214 0.10692 0.0321 0.11762 0.0427 0.0962 0.0321 0.10692 0.0427 0.0856 0.0428 0.0856 0.0534 0.0856 0.0428 0.0748 0.0534 0.0642 0.107 0.1284 0.0642 0.0535 0.0535 0.0427 0.0642 0.0427 0.0535 0.0427 0.0642 0.0428 0.0534 0.0321 0.1284 0.0428 0.0535 0.0214 0.0642 0.0214 0.0535 0.0107 0.0642 0.0107 0.0535 0.0107h0.1069c0.0962 0 0.76985-0.0107 1.1441-0.39562-0.43838-0.0321-0.50254-0.34215-0.50254-0.48116 0-0.27799 0.19246-0.49185 0.49185-0.49185 0.278 0 0.49185 0.18177 0.49185 0.50254 0 0.7164-0.81262 1.1334-1.6359 1.1334-1.3258 0-2.3096-1.1441-2.3096-2.4592 0-1.3686 1.0585-2.4165 2.2882-2.4165 1.4328 0 1.7749 1.2724 1.7749 1.3793 0 0.10692-0.10692 0.10692-0.13899 0.10692-0.0962 0-0.11762-0.0427-0.13901-0.10692-0.31008-0.9837-1.0051-1.112-1.4007-1.112-0.55601 0-1.4969 0.45977-1.4969 2.1705z"/><path d="m134.57 538.86 0.0214-0.0107h0.0321l0.0321-0.0107h0.0321l0.0321-0.0107 0.0427-0.0107 0.0428-0.0107 0.0427-0.0107 0.0428-0.0107 0.0427-0.0214 0.0427-0.0107 0.0534-0.0214 0.0427-0.0214 0.0428-0.0214 0.0535-0.0214 0.0428-0.0321 0.0535-0.0214 0.0428-0.0321 0.0427-0.0321 0.0428-0.0321 0.0427-0.0428 0.0321-0.0427 0.0427-0.0427 0.0642-0.0854 0.0107-0.0321 0.0107-0.0214 0.0107-0.0321 0.0107-0.0214 0.0107-0.0321 0.0107-0.0214 0.0214-0.0642v-0.0321l0.0107-0.0321v-0.0321l0.0107-0.0321v-0.0749c0-0.53462-0.37423-0.96231-1.2082-0.96231-0.88745 0-1.2724 0.59877-1.4755 1.5076-0.0321 0.139-0.0428 0.18176-0.14969 0.18176-0.139 0-0.139-0.0748-0.139-0.2673v-1.4007c0-0.18177 0-0.25662 0.11761-0.25662 0.0535 0 0.0642 0.0107 0.26732 0.21385 0.0214 0.0214 0.0214 0.0427 0.20315 0.24593 0.47046-0.44909 0.95162-0.45978 1.1762-0.45978 1.2296 0 1.7215 0.71639 1.7215 1.4756 0 0.5667-0.32078 0.88747-0.44908 1.0158-0.35285 0.33146-0.76986 0.417-1.2189 0.50254-0.59877 0.11762-1.3045 0.25662-1.3045 0.87678 0 0.36353 0.26731 0.80192 1.1868 0.80192 1.1762 0 1.2296-0.95162 1.251-1.2831 0.0107-0.0962 0.10692-0.0962 0.12831-0.0962 0.139 0 0.139 0.0535 0.139 0.25662v1.0692c0 0.18177 0 0.25662-0.11762 0.25662-0.0534 0-0.0748 0-0.21384-0.12832-0.0321-0.0427-0.13901-0.13899-0.18177-0.17107-0.40631 0.29939-0.84471 0.29939-1.0051 0.29939-1.2938 0-1.7001-0.7057-1.7001-1.3045 0-0.37423 0.17108-0.67362 0.45977-0.90885 0.33147-0.26731 0.63085-0.33147 1.4007-0.48116z"/><path d="m266.14 552.4v1.1964l-1.5118-0.11964v-0.33716c0.76133 0 0.84834-0.0761 0.84834-0.60906v-2.8931c0-0.48943-0.11964-0.48943-0.84834-0.48943v-0.32628c0.42417 0.0109 0.93535 0.0326 1.2399 0.0326 0.42417 0 0.93535 0 1.3704-0.0326v0.32628h-0.2284c-0.80484 0-0.81571 0.11964-0.81571 0.51118v1.664c0 1.0767 0.44592 2.0338 1.2725 2.0338 0.0761 0 0.0979 0 0.11963-0.0109-0.0326-0.0109-0.25015-0.14139-0.25015-0.42417 0-0.30453 0.2284-0.4568 0.46768-0.4568 0.19577 0 0.46767 0.11964 0.46767 0.46767 0 0.34804-0.33716 0.66345-0.80483 0.66345-0.79396 0-1.1746-0.7287-1.3269-1.1964z"/><path d="m269.77 551.32 0.0109 0.2284c0.0652 1.6097 0.97885 1.8816 1.3486 1.8816 1.1094 0 1.2181-1.4574 1.2181-1.8816h-2.5668l-0.0109-0.2284h3.0236c0.23927 0 0.2719 0 0.2719 0.2284 0 1.0659-0.58731 2.1208-1.936 2.1208-1.2616 0-2.2622-1.1202-2.2622-2.4689 0-1.4465 1.142-2.4906 2.3819-2.4906 1.3269 0 1.8163 1.1964 1.8163 1.403 0 0.10876-0.087 0.13051-0.14139 0.13051-0.0979 0-0.11963-0.0653-0.14139-0.15227-0.38066-1.1094-1.3595-1.1094-1.4574-1.1094-0.54381 0-0.97885 0.3154-1.229 0.71782-0.32628 0.52206-0.32628 1.229-0.32628 1.6206z"/><path d="m275.25 552.88v0.71783l-1.5662-0.11964v-0.33716c0.77221 0 0.84834-0.0653 0.84834-0.54381v-5.0465c0-0.48943-0.11963-0.48943-0.84834-0.48943v-0.33716c0.36979 0.0109 0.93535 0.0326 1.2181 0.0326 0.29366 0 0.83747-0.0217 1.2181-0.0326v0.33716c-0.71782 0-0.83746 0-0.83746 0.48943v1.9033l0.14139 0.14139c-0.14139 0.2284-0.14139 0.23927-0.14139 0.45679v2.4145c0.30453 0.54381 0.83746 0.85922 1.3922 0.85922 0.79395 0 1.4574-0.94623 1.4574-2.1752 0-1.3051-0.76133-2.2079-1.5662-2.2079-0.43504 0-0.84834 0.20664-1.142 0.65257l-0.14139-0.14139c0.0435-0.17402 0.5003-0.75046 1.3269-0.75046 1.2943 0 2.4254 1.055 2.4254 2.4471 0 1.3704-1.055 2.4471-2.2731 2.4471-0.84834 0-1.3051-0.47855-1.5118-0.71783z"/><path d="m281.21 552.4v1.1964l-1.5118-0.11964v-0.33716c0.76133 0 0.84834-0.0761 0.84834-0.60906v-2.8931c0-0.48943-0.11964-0.48943-0.84834-0.48943v-0.32628c0.42417 0.0109 0.93534 0.0326 1.2399 0.0326 0.43504 0 0.94622 0 1.3813-0.0326v0.32628h-0.2284c-0.80484 0-0.82659 0.11964-0.82659 0.51118v1.664c0 1.0767 0.4568 2.0338 1.2834 2.0338 0.0761 0 0.0979 0 0.11963-0.0109-0.0326-0.0109-0.25015-0.14139-0.25015-0.42417 0-0.30453 0.2284-0.4568 0.46768-0.4568 0.18489 0 0.4568 0.11964 0.4568 0.46767 0 0.34804-0.32629 0.66345-0.79396 0.66345-0.79396 0-1.1855-0.7287-1.3378-1.1964z"/><path d="m284.84 551.32 0.0109 0.2284c0.0653 1.6097 0.97885 1.8816 1.3486 1.8816 1.1202 0 1.229-1.4574 1.229-1.8816h-2.5776l-0.0109-0.2284h3.0344c0.23928 0 0.2719 0 0.2719 0.2284 0 1.0659-0.58731 2.1208-1.9468 2.1208-1.2616 0-2.2514-1.1202-2.2514-2.4689 0-1.4465 1.1311-2.4906 2.3819-2.4906 1.3269 0 1.8163 1.1964 1.8163 1.403 0 0.10876-0.087 0.13051-0.14139 0.13051-0.0979 0-0.11963-0.0653-0.14139-0.15227-0.38066-1.1094-1.3595-1.1094-1.4683-1.1094-0.5438 0-0.97885 0.3154-1.229 0.71782-0.32629 0.52206-0.32629 1.229-0.32629 1.6206z"/><path d="m290.72 550.91h0.0543l0.0978-0.0327h0.0435l0.0326-0.0109 0.0435-0.0109 0.0435-0.0217 0.0544-0.0109 0.0435-0.0217 0.0435-0.0109 0.0544-0.0217 0.0435-0.0217 0.0544-0.0326 0.0435-0.0217 0.0435-0.0326 0.0435-0.0217 0.0544-0.0326 0.1196-0.1196 0.0652-0.087 0.0326-0.0544 0.0217-0.0217 0.0109-0.0217 0.0109-0.0326 0.0109-0.0217 0.0218-0.0652 0.0109-0.0217 0.0109-0.0326v-0.0326l0.0109-0.0326v-0.0652l0.0109-0.0435v-0.0326c0-0.55468-0.38067-0.97885-1.229-0.97885-0.9136 0-1.3051 0.60906-1.5118 1.5335-0.0326 0.14139-0.0435 0.1849-0.15227 0.1849-0.14139 0-0.14139-0.0761-0.14139-0.2719v-1.4248c0-0.1849 0-0.26103 0.11964-0.26103 0.0544 0 0.0652 0.0109 0.2719 0.21752 0.0217 0.0218 0.0217 0.0435 0.21752 0.23928 0.47856-0.44592 0.96798-0.4568 1.1964-0.4568 1.2508 0 1.7402 0.71783 1.7402 1.5009 0 0.56556-0.31541 0.89184-0.44593 1.0224-0.35891 0.34804-0.78308 0.43504-1.2399 0.52205-0.60906 0.11964-1.3378 0.26103-1.3378 0.88097 0 0.38067 0.28278 0.82659 1.2181 0.82659 1.1964 0 1.2508-0.97885 1.2725-1.3051 0.0109-0.0979 0.10877-0.0979 0.13052-0.0979 0.13051 0 0.13051 0.0544 0.13051 0.26102v1.0876c0 0.18489 0 0.26103-0.10876 0.26103-0.0544 0-0.0761 0-0.21752-0.13052-0.0326-0.0435-0.14139-0.14139-0.1849-0.17402-0.41329 0.30454-0.85921 0.30454-1.0224 0.30454-1.3269 0-1.7402-0.72871-1.7402-1.3269 0-0.38067 0.17402-0.6852 0.46767-0.92448 0.34804-0.28278 0.65257-0.34803 1.4357-0.5003z"/><path d="m293.93 551.32 0.0109 0.2284c0.0653 1.6097 0.97886 1.8816 1.3486 1.8816 1.1094 0 1.2181-1.4574 1.2181-1.8816h-2.5668l-0.0109-0.2284h3.0236c0.23927 0 0.2719 0 0.2719 0.2284 0 1.0659-0.58731 2.1208-1.936 2.1208-1.2616 0-2.2622-1.1202-2.2622-2.4689 0-1.4465 1.142-2.4906 2.3928-2.4906 1.316 0 1.8054 1.1964 1.8054 1.403 0 0.10876-0.087 0.13051-0.14139 0.13051-0.0979 0-0.11964-0.0653-0.14139-0.15227-0.38066-1.1094-1.3486-1.1094-1.4574-1.1094-0.54381 0-0.97886 0.3154-1.229 0.71782-0.32628 0.52206-0.32628 1.229-0.32628 1.6206z"/><path d="m298.74 552.53v-2.8931c0-0.48943-0.11964-0.48943-0.84834-0.48943v-0.32628c0.38066 0.0109 0.93535 0.0326 1.229 0.0326 0.28278 0 0.83746-0.0217 1.2072-0.0326v0.32628c-0.71782 0-0.83746 0-0.83746 0.48943v1.9903c0 1.1202 0.76133 1.7293 1.4574 1.7293 0.6852 0 0.80484-0.58731 0.80484-1.1964v-2.5233c0-0.48943-0.11964-0.48943-0.84834-0.48943v-0.32628c0.38067 0.0109 0.93535 0.0326 1.229 0.0326 0.28278 0 0.84834-0.0217 1.2181-0.0326v0.32628c-0.56556 0-0.83746 0-0.84834 0.32629v2.0665c0 0.92447 0 1.2616-0.33716 1.6532-0.15226 0.1849-0.51118 0.40242-1.142 0.40242-0.79396 0-1.2943-0.46767-1.5988-1.1311v1.1311l-1.5335-0.11964v-0.33716c0.76133 0 0.84834-0.0761 0.84834-0.60906z"/><path d="m305.14 553.14h1.5553v0.33716h-1.5553v1.9903h-0.2719c-0.0109-0.89185-0.33716-2.0447-1.3922-2.0882v-0.23928h0.9136v-2.9801c0-1.3269 1.0115-1.4574 1.403-1.4574 0.77221 0 1.0767 0.76133 1.0767 1.4574v0.60906h-0.2719v-0.58731c0-0.80484-0.32629-1.2072-0.72871-1.2072-0.7287 0-0.7287 0.97885-0.7287 1.1637z"/><path d="m268.48 536.97v-1.9251c0-0.48943-0.11964-0.48943-0.84834-0.48943v-0.33716c0.36979 0.0109 0.93535 0.0326 1.2181 0.0326 0.29366 0 0.84834-0.0218 1.229-0.0326v0.33716c-0.72871 0-0.84834 0-0.84834 0.48943v6.0471h-0.23928l-0.41329-0.98973c-0.14139 0.30453-0.58732 0.98973-1.4574 0.98973-1.2508 0-2.3928-1.055-2.3928-2.458 0-1.3486 1.055-2.4363 2.3057-2.4363l0.0435 0.23927c-0.79396 0-1.4465 0.9571-1.4465 2.197 0 1.2834 0.75045 2.1861 1.5553 2.1861 0.87009 0 1.3269-0.93535 1.3269-1.5118v-1.5227c0-0.34804-0.19577-0.65257-0.43505-0.9136-0.14139-0.15227-0.48942-0.43505-1.0006-0.43505l-0.0435-0.23927c0.76133 0 1.2073 0.4568 1.4465 0.7722z"/><path d="m274.32 537.16v-0.96797l1.5553 0.11964v0.32628c-0.76133 0-0.83746 0.0761-0.83746 0.60906v3.8393l-1.5988-0.11964v-0.33716c0.76133 0 0.84834-0.0761 0.84834-0.60907v-1.9142c0-0.94623-0.52206-1.6749-1.316-1.6749-0.91359 0-0.9571 0.50031-0.9571 1.0659v3.5891l-1.5879-0.11964v-0.33716c0.84834 0 0.84834-0.0326 0.84834-0.98973v-1.6206c0-0.84834 0-1.8272 1.6423-1.8272 0.60907 0 1.0876 0.30453 1.403 0.96797z"/><path d="m279.7 537.13 0.0109-0.0435v-0.0326l0.0218-0.087 0.0109-0.0326 0.0218-0.087 0.0217-0.0326 0.0109-0.0435 0.0218-0.0326 0.0109-0.0435 0.0436-0.0652 0.0326-0.0326 0.0434-0.0652 0.0326-0.0326 0.0217-0.0326 0.0326-0.0326 0.0978-0.0651 0.0326-0.0218 0.0435-0.0217 0.0326-0.0217 0.087-0.0218 0.0326-0.0109 0.0435-0.0109 0.0544-0.0109h0.087c0.2284 0 0.89184 0.15226 0.89184 1.0224v0.60906h-0.2719v-0.60906c0-0.63082-0.2719-0.69608-0.39154-0.69608-0.35891 0-0.40242 0.48943-0.40242 0.54381v2.1644c0 0.4568 0 0.8701-0.39154 1.2725-0.42417 0.42417-0.96798 0.59819-1.4792 0.59819-0.89184 0-1.6423-0.51118-1.6423-1.2181 0-0.32628 0.21753-0.51118 0.50031-0.51118 0.30453 0 0.5003 0.21753 0.5003 0.48943 0 0.13051-0.0544 0.48943-0.55468 0.5003 0.29365 0.38067 0.82658 0.50031 1.1746 0.50031 0.53293 0 1.142-0.42417 1.142-1.3813v-1.7076c0-1.0332-0.77221-1.3922-1.2616-1.3922-0.53293 0-0.97885 0.36979-0.97885 0.9136 0 0.59819 0.4568 1.49 2.2405 1.5553v0.2284c-0.54381-0.0326-1.3051-0.0653-1.9903-0.39154-0.81571-0.36979-1.0876-0.92448-1.0876-1.403 0-0.87009 1.055-1.142 1.7402-1.142 0.70695 0 1.2072 0.43504 1.4139 0.93535z"/><path d="m282.7 540.03v-2.893c0-0.48943-0.11964-0.48943-0.84834-0.48943v-0.32628c0.38066 0.0109 0.93535 0.0326 1.229 0.0326 0.28278 0 0.84834-0.0217 1.2181-0.0326v0.32628c-0.7287 0-0.84834 0-0.84834 0.48943v1.9903c0 1.1202 0.77221 1.7293 1.4683 1.7293 0.67432 0 0.79396-0.58731 0.79396-1.1964v-2.5233c0-0.48943-0.11964-0.48943-0.84834-0.48943v-0.32628c0.38067 0.0109 0.93535 0.0326 1.229 0.0326 0.28278 0 0.84834-0.0217 1.2181-0.0326v0.32628c-0.56556 0-0.83747 0-0.84834 0.32628v2.0665c0 0.92448 0 1.2616-0.33717 1.6532-0.15226 0.18489-0.51117 0.40242-1.1311 0.40242-0.79396 0-1.3051-0.46768-1.6097-1.1311v1.1311l-1.5335-0.11964v-0.33716c0.76133 0 0.84834-0.0761 0.84834-0.60907z"/><path d="m289.11 540.63h1.5444v0.33716h-1.5444v1.9903h-0.2719c-0.0109-0.89184-0.33716-2.0447-1.403-2.0882v-0.23927h0.92448v-2.9801c0-1.3269 1.0006-1.4574 1.3921-1.4574 0.77221 0 1.0767 0.76133 1.0767 1.4574v0.60907h-0.2719v-0.58732c0-0.80483-0.32629-1.2072-0.7287-1.2072-0.71783 0-0.71783 0.97885-0.71783 1.1638z"/><path d="m295.06 537.13v-0.0435l0.0109-0.0326v-0.0435l0.0109-0.0435 0.0109-0.0326 0.0218-0.087 0.0217-0.0326 0.0109-0.0435 0.0218-0.0326 0.0217-0.0435 0.0434-0.0652 0.0218-0.0326 0.0434-0.0652 0.0652-0.0652 0.0217-0.0326 0.0978-0.0651 0.0435-0.0218 0.0652-0.0434 0.2175-0.0545h0.087c0.2284 0 0.89184 0.15226 0.89184 1.0224v0.60906h-0.2719v-0.60906c0-0.63082-0.2719-0.69608-0.39154-0.69608-0.35892 0-0.40242 0.48943-0.40242 0.54381v2.1644c0 0.4568 0 0.8701-0.39154 1.2725-0.4133 0.42417-0.9571 0.59819-1.4792 0.59819-0.89184 0-1.6423-0.51118-1.6423-1.2181 0-0.32628 0.21753-0.51118 0.50031-0.51118 0.30453 0 0.5003 0.21753 0.5003 0.48943 0 0.13051-0.0544 0.48943-0.55468 0.5003 0.29365 0.38067 0.82658 0.50031 1.1746 0.50031 0.53293 0 1.1529-0.42417 1.1529-1.3813v-1.7076c0-1.0332-0.78308-1.3922-1.2725-1.3922-0.53293 0-0.97885 0.36979-0.97885 0.9136 0 0.59819 0.4568 1.49 2.2514 1.5553v0.2284c-0.55468-0.0326-1.316-0.0653-2.0012-0.39154-0.81571-0.36979-1.0876-0.92448-1.0876-1.403 0-0.87009 1.055-1.142 1.7402-1.142 0.71782 0 1.2181 0.43504 1.4248 0.93535z"/><path d="m298.73 540.63h1.5553v0.33716h-1.5553v1.9903h-0.2719c-0.0109-0.89184-0.33716-2.0447-1.3922-2.0882v-0.23927h0.9136v-2.9801c0-1.3269 1.0115-1.4574 1.403-1.4574 0.77221 0 1.0767 0.76133 1.0767 1.4574v0.60907h-0.2719v-0.58732c0-0.80483-0.32629-1.2072-0.7287-1.2072-0.72871 0-0.72871 0.97885-0.72871 1.1638z"/><path d="m303 541.09-1.5227-0.11964v-0.33716c0.70695 0 0.80484-0.0653 0.80484-0.59819v-2.9039c0-0.48943-0.11964-0.48943-0.84834-0.48943v-0.32628c0.34804 0.0109 0.93535 0.0326 1.1964 0.0326 0.38066 0 0.76133-0.0217 1.1202-0.0326v0.32628c-0.70695 0-0.75046 0.0544-0.75046 0.47855z"/><path d="m303.04 542.97v0.0326l-0.0109 0.0217v0.0326l-0.0109 0.0326v0.0326l-0.0109 0.0217-0.0109 0.0326-0.0109 0.0217-0.0109 0.0326-0.0218 0.0434-0.0217 0.0217-0.0109 0.0218-0.0217 0.0217-0.0218 0.0217-0.0109 0.0217-0.0217 0.0218-0.0217 0.0109-0.0218 0.0217-0.0434 0.0218-0.0326 0.0109-0.0217 0.0217-0.0217 0.0109h-0.0326l-0.0217 0.0109-0.0326 0.0109h-0.0218l-0.0326 0.0109h-0.0762c-0.33716 0-0.57643-0.29366-0.57643-0.56556 0-0.29366 0.23927-0.57644 0.57643-0.57644 0.30454 0 0.57644 0.2284 0.57644 0.57644z"/><path d="m308.6 539.91 0.0109 0.0326v0.0218l0.0109 0.0217 0.0109 0.0326 0.0217 0.0217 0.0218 0.0652 0.0217 0.0217 0.0109 0.0326 0.0218 0.0326 0.0109 0.0326 0.0217 0.0218 0.0218 0.0326 0.0217 0.0326 0.0326 0.0217 0.0217 0.0326 0.0326 0.0326 0.0326 0.0217 0.0326 0.0218 0.0326 0.0326 0.0326 0.0218 0.087 0.0434 0.0435 0.0109 0.087 0.0434 0.1632 0.0327h0.0652l0.0218 0.0109h0.0978v0.33716c-0.25015-0.0217-0.55468-0.0326-0.80483-0.0326-0.26103 0-0.76133 0.0217-0.94623 0.0326v-0.33716c0.40242-0.0109 0.52206-0.26103 0.52206-0.46768 0-0.0979-0.0217-0.14139-0.0653-0.26103l-1.1094-2.7517-1.2181 3.0127c-0.0652 0.14139-0.0652 0.16314-0.0652 0.1849 0 0.28278 0.42417 0.28278 0.61994 0.28278v0.33716c-0.32629-0.0109-0.93535-0.0326-1.1746-0.0326-0.29365 0-0.7287 0.0109-1.055 0.0326v-0.33716c0.68519 0 0.7287-0.0653 0.85921-0.40242l1.5662-3.8284c0.0653-0.15226 0.087-0.20664 0.2284-0.20664 0.14139 0 0.18489 0.0979 0.2284 0.20664z"/><path d="m310.7 538.81 0.0109 0.2284c0.0652 1.6097 0.97885 1.8816 1.3486 1.8816 1.1202 0 1.229-1.4574 1.229-1.8816h-2.5776l-0.0109-0.2284h3.0344c0.23927 0 0.2719 0 0.2719 0.2284 0 1.0659-0.58731 2.1208-1.9468 2.1208-1.2616 0-2.2514-1.1202-2.2514-2.4689 0-1.4465 1.1311-2.4906 2.3819-2.4906 1.3269 0 1.8163 1.1964 1.8163 1.403 0 0.10876-0.087 0.13051-0.14139 0.13051-0.0979 0-0.11964-0.0652-0.14139-0.15226-0.38067-1.1094-1.3595-1.1094-1.4683-1.1094-0.54381 0-0.97885 0.31541-1.229 0.71783-0.32628 0.52205-0.32628 1.229-0.32628 1.6205z"/><path d="m319.82 540.97v1.2508c0 0.94622 0.52206 1.4683 1.0006 1.4683 0.0326 0 0.18489 0 0.34803-0.0761-0.13051-0.0435-0.31541-0.18489-0.31541-0.4568 0-0.23927 0.16315-0.45679 0.4568-0.45679 0.31541 0 0.47855 0.21752 0.47855 0.46767 0 0.40242-0.40241 0.76133-0.96797 0.76133-0.76133 0-1.6858-0.57644-1.6858-1.7184v-1.2399h-0.85921v-0.33716h0.85921v-3.5021c0-0.48943-0.11963-0.48943-0.84834-0.48943v-0.32628c0.42417 0.0109 0.93535 0.0326 1.2399 0.0326 0.43505 0 0.94623 0 1.3704-0.0326v0.32628h-0.21752c-0.80484 0-0.82659 0.11964-0.82659 0.51118v3.4804h1.229v0.33716z"/><path d="m322.43 538.81 0.0109 0.2284c0.0653 1.6097 0.97886 1.8816 1.3486 1.8816 1.1202 0 1.229-1.4574 1.229-1.8816h-2.5776l-0.0109-0.2284h3.0344c0.23928 0 0.27191 0 0.27191 0.2284 0 1.0659-0.58732 2.1208-1.9468 2.1208-1.2616 0-2.2514-1.1202-2.2514-2.4689 0-1.4465 1.1311-2.4906 2.3819-2.4906 1.3269 0 1.8163 1.1964 1.8163 1.403 0 0.10876-0.087 0.13051-0.14139 0.13051-0.0979 0-0.11964-0.0652-0.14139-0.15226-0.38067-1.1094-1.3595-1.1094-1.4683-1.1094-0.54381 0-0.97886 0.31541-1.229 0.71783-0.32628 0.52205-0.32628 1.229-0.32628 1.6205z"/><path d="m329.66 537.13 0.0109-0.0435 0.0109-0.0326v-0.0435l0.0109-0.0435 0.0109-0.0326 0.0218-0.087 0.0217-0.0326 0.0109-0.0435 0.0217-0.0326 0.0217-0.0435 0.0217-0.0326 0.0218-0.0326 0.0651-0.0978 0.0326-0.0326 0.0217-0.0326 0.0326-0.0326 0.0978-0.0651 0.0435-0.0218 0.0652-0.0434 0.2175-0.0545h0.087c0.2284 0 0.89185 0.15226 0.89185 1.0224v0.60906h-0.27191v-0.60906c0-0.63082-0.2719-0.69608-0.39154-0.69608-0.35891 0-0.40242 0.48943-0.40242 0.54381v2.1644c0 0.4568 0 0.8701-0.39154 1.2725-0.41329 0.42417-0.9571 0.59819-1.4792 0.59819-0.89184 0-1.6423-0.51118-1.6423-1.2181 0-0.32628 0.21752-0.51118 0.5003-0.51118 0.30453 0 0.5003 0.21753 0.5003 0.48943 0 0.13051-0.0544 0.48943-0.55468 0.5003 0.29365 0.38067 0.82659 0.50031 1.1746 0.50031 0.53293 0 1.1529-0.42417 1.1529-1.3813v-1.7076c0-1.0332-0.78308-1.3922-1.2725-1.3922-0.53293 0-0.97885 0.36979-0.97885 0.9136 0 0.59819 0.4568 1.49 2.2514 1.5553v0.2284c-0.55468-0.0326-1.316-0.0653-2.0012-0.39154-0.81571-0.36979-1.0876-0.92448-1.0876-1.403 0-0.87009 1.055-1.142 1.7402-1.142 0.71783 0 1.2181 0.43504 1.4139 0.93535z"/><path d="m333.34 540.63h1.5553v0.33716h-1.5553v1.9903h-0.27191c-0.0109-0.89184-0.33716-2.0447-1.403-2.0882v-0.23927h0.92447v-2.9801c0-1.3269 1.0115-1.4574 1.403-1.4574 0.7722 0 1.0767 0.76133 1.0767 1.4574v0.60907h-0.2719v-0.58732c0-0.80483-0.32628-1.2072-0.7287-1.2072-0.7287 0-0.7287 0.97885-0.7287 1.1638z"/><path d="m339.92 537.16v-0.96797l1.5662 0.11964v0.32628c-0.76133 0-0.84834 0.0761-0.84834 0.60906v3.8393l-1.5988-0.11964v-0.33716c0.76133 0 0.84834-0.0761 0.84834-0.60907v-1.9142c0-0.94623-0.52206-1.6749-1.316-1.6749-0.90272 0-0.9571 0.50031-0.9571 1.0659v3.5891l-1.5879-0.11964v-0.33716c0.84834 0 0.84834-0.0326 0.84834-0.98973v-1.6206c0-0.84834 0-1.8272 1.6423-1.8272 0.60907 0 1.0876 0.30453 1.403 0.96797z"/><path d="m343.51 539.89v1.1964l-1.5118-0.11964v-0.33716c0.76133 0 0.84834-0.0761 0.84834-0.60907v-2.893c0-0.48943-0.11964-0.48943-0.84834-0.48943v-0.32628c0.42417 0.0109 0.93535 0.0326 1.2399 0.0326 0.43505 0 0.94623 0 1.3813-0.0326v0.32628h-0.22839c-0.80484 0-0.82659 0.11964-0.82659 0.51118v1.664c0 1.0767 0.4568 2.0338 1.2834 2.0338 0.0761 0 0.0979 0 0.11964-0.0109-0.0326-0.0109-0.25015-0.14139-0.25015-0.42417 0-0.30453 0.2284-0.45679 0.46767-0.45679 0.19578 0 0.4568 0.11963 0.4568 0.46767s-0.32628 0.66345-0.79396 0.66345c-0.79396 0-1.1855-0.72871-1.3378-1.1964z"/><path d="m347.15 538.81 0.0109 0.2284c0.0544 1.6097 0.96798 1.8816 1.3378 1.8816 1.1202 0 1.229-1.4574 1.229-1.8816h-2.5668l-0.0109-0.2284h3.0236c0.23927 0 0.2719 0 0.2719 0.2284 0 1.0659-0.58731 2.1208-1.9468 2.1208-1.2616 0-2.2514-1.1202-2.2514-2.4689 0-1.4465 1.1311-2.4906 2.3819-2.4906 1.3269 0 1.8163 1.1964 1.8163 1.403 0 0.10876-0.087 0.13051-0.14139 0.13051-0.0979 0-0.11964-0.0652-0.14139-0.15226-0.38066-1.1094-1.3595-1.1094-1.4683-1.1094-0.54381 0-0.97885 0.31541-1.229 0.71783-0.31541 0.52205-0.31541 1.229-0.31541 1.6205z"/><path d="m353.02 538.4h0.0544l0.0978-0.0327h0.0435l0.0326-0.0109 0.0435-0.0109 0.0435-0.0218 0.0544-0.0109 0.0435-0.0218 0.0435-0.0109 0.0544-0.0217 0.0435-0.0218 0.0544-0.0326 0.0435-0.0218 0.0435-0.0326 0.0544-0.0217 0.0435-0.0326 0.1196-0.1196 0.0652-0.087 0.0326-0.0544 0.0217-0.0218 0.0109-0.0217 0.0109-0.0326 0.0109-0.0217 0.0218-0.0652 0.0109-0.0217 0.0109-0.0326v-0.0326l0.0109-0.0326v-0.0652l0.0109-0.0435v-0.0326c0-0.55469-0.38066-0.97886-1.229-0.97886-0.9136 0-1.3051 0.60907-1.5118 1.5335-0.0326 0.14139-0.0435 0.18489-0.15226 0.18489-0.14139 0-0.14139-0.0761-0.14139-0.2719v-1.4248c0-0.1849 0-0.26103 0.11963-0.26103 0.0544 0 0.0653 0.0109 0.27191 0.21752 0.0217 0.0217 0.0217 0.0435 0.21752 0.23928 0.47855-0.44593 0.96798-0.4568 1.1964-0.4568 1.2508 0 1.7511 0.71782 1.7511 1.5009 0 0.56556-0.32629 0.89184-0.4568 1.0224-0.35891 0.34804-0.78308 0.43505-1.2399 0.52206-0.60907 0.11964-1.3378 0.26103-1.3378 0.88097 0 0.38066 0.28278 0.82659 1.2181 0.82659 1.1964 0 1.2508-0.97886 1.2725-1.3051 0.0109-0.0979 0.10876-0.0979 0.13051-0.0979 0.14139 0 0.14139 0.0544 0.14139 0.26103v1.0876c0 0.1849 0 0.26103-0.11963 0.26103-0.0544 0-0.0761 0-0.21753-0.13051-0.0326-0.0435-0.14139-0.14139-0.18489-0.17402-0.41329 0.30453-0.85922 0.30453-1.0224 0.30453-1.3269 0-1.7402-0.7287-1.7402-1.3269 0-0.38066 0.17402-0.6852 0.46767-0.92447 0.34804-0.28278 0.65257-0.34804 1.4356-0.5003z"/></g>
 </g>
</svg>
