<svg width="240mm" height="120mm" version="1.1" viewBox="0 0 717.83 328.79" xmlns="http://www.w3.org/2000/svg" xmlns:ns0="http://www.iki.fi/pav/software/textext/">
 <g transform="translate(206.49 -76.199)">
  <g transform="matrix(.94312 0 0 -.94312 -465.61 710.09)" fill-rule="evenodd" stroke="#000" stroke-miterlimit="10.433" ns0:preamble="default_packages.tex" ns0:text="$$\\text{Study the problem}$$\n$$\\text{Write rules}$$\n$$\\text{Evaluate}$$\n$$\\text{Launch!}$$\n$$\\text{Analyze errors}$$\n" xml:space="preserve"><g transform="matrix(1.5,0,0,-1.5,-343.34,974.21)" fill-rule="evenodd" stroke="#000" stroke-miterlimit="10.433" ns0:preamble="default_packages.tex" ns0:text="$$\\text{Rule-based systems}$$\n$$\\text{Classic machine learning}$$\n$$\\text{Deep learning}$$\n$$\\text{Input}$$\n$$\\text{Output}$$\n$$\\text{Features}$$\n$$\\text{Hand-designed program}$$\n$$\\text{Hand-designed features}$$\n$$\\text{Simple features}$$\n$$\\text{Mapping from features}$$\n$$\\text{Additional layers of more abstract features}$$\n\n" xml:space="preserve"><g transform="matrix(.70687 0 0 .70687 583.36 139.27)"><g transform="translate(12.052,-2.9878)" fill="#00f" fill-opacity=".83092" stroke="none"><g fill-rule="evenodd" stroke="#000" stroke-miterlimit="10.433"><g fill-opacity="0" stroke-linecap="square"><rect x="16.58" y="82.91" width="189.56" height="40.664" opacity=".97" stroke-width=".89493"/></g><g transform="matrix(1.5,0,0,-1.5,-287.7,1065.5)" fill="#000" fill-opacity=".66667" fill-rule="evenodd" stroke-width="0" ns0:preamble="default_packages.tex" ns0:text="$$\\text{patterns of thoughts for solving problems}$$\n$$\\text{step-by-step explanation of commands}$$\n$$\\text{declares what to be computed without specifying how it is to be achieved}$$\n" xml:space="preserve"><g transform="matrix(1.237,0,0,1.237,30.34,-388.54)" fill-rule="evenodd" stroke="#000" stroke-miterlimit="10.433" ns0:preamble="default_packages.tex" ns0:text="$$\\text{collection of functions e.g. Lisp, Haskell, ML, Scheme}$$\n" xml:space="preserve"><g fill-rule="evenodd" stroke="#000" stroke-miterlimit="10.433"><g fill="#000" fill-opacity=".70588"><g stroke="#000"><g transform="matrix(1.4343 0 0 1.4343 -162.37 -346.82)" fill-rule="evenodd" stroke-miterlimit="10.433" stroke-width="0" ns0:preamble="default_packages.tex" ns0:text="$$\\text{numbers from the scale with order and the exact differences between the values}$$\n" xml:space="preserve"/></g></g></g></g></g></g></g></g></g></g>
 </g>
 <g fill-rule="evenodd" stroke="#000" stroke-miterlimit="10.433" stroke-width="0">
  <g transform="matrix(1.8203 0 0 -1.8203 -188.21 1283.2)" ns0:preamble="default_packages.tex" ns0:text="$$\\text{Data types}$$\n" xml:space="preserve"><path d="m282.08 701.96v-0.31h0.24c0.76 0 0.78-0.11 0.78-0.47v-5.23c0-0.36-0.02-0.47-0.78-0.47h-0.24v-0.31h3.65l-0.27 0.31h-1.01c-0.47 0-0.49 0.07-0.49 0.4v5.37c0 0.33 0.02 0.4 0.49 0.4h1c0.62 0 1.3-0.22 1.81-0.93 0.43-0.58 0.52-1.44 0.52-2.21 0-1.1-0.19-1.7-0.55-2.19-0.2-0.27-0.77-0.84-1.77-0.84l0.27-0.31c1.67 0 3.05 1.47 3.05 3.34 0 1.89-1.35 3.45-3.05 3.45z"/><path d="m292.66 695.92v-0.03l0.02-0.08v-0.03l0.02-0.08 0.02-0.03 0.01-0.04 0.02-0.04 0.01-0.03 0.02-0.03 0.02-0.04 0.06-0.09 0.03-0.03 0.02-0.03 0.03-0.03 0.03-0.02 0.02-0.03 0.03-0.02 0.04-0.02 0.06-0.04 0.04-0.01 0.03-0.02 0.16-0.04h0.09c0.2 0 0.81 0.14 0.81 0.94v0.56h-0.25v-0.56c0-0.57-0.24-0.63-0.36-0.63-0.32 0-0.36 0.44-0.36 0.49v1.99c0 0.42 0 0.81-0.36 1.17-0.39 0.39-0.89 0.55-1.37 0.55-0.82 0-1.5-0.47-1.5-1.12 0-0.3 0.19-0.47 0.45-0.47 0.28 0 0.46 0.2 0.46 0.46 0 0.12-0.05 0.44-0.51 0.46 0.27 0.34 0.76 0.45 1.08 0.45 0.49 0 1.06-0.39 1.06-1.27v-1.57c0-0.94-0.72-1.28-1.17-1.28-0.49 0-0.9 0.35-0.9 0.84 0 0.55 0.42 1.37 2.07 1.43v0.21c-0.51-0.03-1.21-0.06-1.84-0.35-0.74-0.34-0.99-0.86-0.99-1.3 0-0.8 0.96-1.05 1.59-1.05 0.66 0 1.12 0.4 1.31 0.86z"/><path d="m296.04 699.14h1.43v0.31h-1.43v1.83h-0.24c-0.01-0.81-0.32-1.88-1.29-1.92v-0.22h0.85v-2.74c0-1.22 0.92-1.34 1.28-1.34 0.71 0 0.99 0.71 0.99 1.34v0.57h-0.25v-0.55c0-0.73-0.3-1.11-0.67-1.11-0.67 0-0.67 0.9-0.67 1.07z"/><path d="m301.51 695.92 0.01-0.03v-0.04l0.01-0.04 0.01-0.03 0.02-0.08 0.01-0.03 0.02-0.04 0.01-0.04 0.04-0.06 0.01-0.04 0.02-0.03 0.03-0.03 0.04-0.06 0.03-0.03 0.02-0.03 0.03-0.02 0.03-0.03 0.09-0.06 0.04-0.02 0.03-0.01 0.04-0.02 0.16-0.04h0.08c0.21 0 0.82 0.14 0.82 0.94v0.56h-0.25v-0.56c0-0.57-0.25-0.63-0.36-0.63-0.33 0-0.37 0.44-0.37 0.49v1.99c0 0.42 0 0.81-0.36 1.17-0.39 0.39-0.88 0.55-1.36 0.55-0.82 0-1.51-0.47-1.51-1.12 0-0.3 0.2-0.47 0.46-0.47 0.28 0 0.46 0.2 0.46 0.46 0 0.12-0.05 0.44-0.51 0.46 0.27 0.34 0.76 0.45 1.08 0.45 0.49 0 1.05-0.39 1.05-1.27v-1.57c0-0.94-0.71-1.28-1.16-1.28-0.49 0-0.9 0.35-0.9 0.84 0 0.55 0.42 1.37 2.06 1.43v0.21c-0.51-0.03-1.2-0.06-1.83-0.35-0.75-0.34-1-0.86-1-1.3 0-0.8 0.97-1.05 1.6-1.05 0.66 0 1.11 0.4 1.3 0.86z"/><path d="m308.22 699.14h1.42v0.31h-1.42v1.83h-0.25c-0.01-0.81-0.31-1.88-1.29-1.92v-0.22h0.85v-2.74c0-1.22 0.93-1.34 1.29-1.34 0.7 0 0.98 0.71 0.98 1.34v0.57h-0.25v-0.55c0-0.73-0.3-1.11-0.66-1.11-0.67 0-0.67 0.9-0.67 1.07z"/><path d="m314.24 698.51 0.01 0.03 0.01 0.02 0.01 0.03 0.02 0.03 0.01 0.02 0.01 0.03 0.02 0.02 0.01 0.03 0.06 0.08 0.13 0.13 0.04 0.03 0.03 0.02 0.04 0.03 0.03 0.02 0.03 0.01 0.04 0.02 0.03 0.01 0.03 0.02 0.04 0.01 0.06 0.02h0.03l0.03 0.01h0.03l0.02 0.01h0.15v0.31c-0.23-0.02-0.52-0.03-0.74-0.03-0.18 0-0.65 0.02-0.87 0.03v-0.31c0.31-0.01 0.47-0.17 0.47-0.42 0-0.1-0.01-0.12-0.06-0.24l-1.01-2.45-1.11 2.68c-0.04 0.1-0.06 0.14-0.06 0.18 0 0.25 0.37 0.25 0.56 0.25v0.31c-0.26-0.01-0.92-0.03-1.09-0.03-0.27 0-0.66 0.01-0.96 0.03v-0.31c0.48 0 0.66 0 0.81-0.34l1.49-3.63c-0.05-0.13-0.19-0.46-0.25-0.59-0.22-0.54-0.5-1.23-1.14-1.23-0.05 0-0.28 0-0.46 0.18 0.31 0.04 0.39 0.26 0.39 0.42 0 0.26-0.2 0.41-0.42 0.41-0.2 0-0.42-0.12-0.42-0.42 0-0.45 0.42-0.81 0.91-0.81 0.63 0 1.04 0.57 1.28 1.14z"/><path d="m317.07 698.91v0.65l-1.43-0.11v-0.31c0.7 0 0.77-0.06 0.77-0.49v-4.65c0-0.45-0.11-0.45-0.77-0.45v-0.31c0.33 0.01 0.85 0.03 1.11 0.03 0.27 0 0.78-0.02 1.13-0.03v0.31c-0.67 0-0.78 0-0.78 0.45v1.76l0.14 0.13c-0.14 0.2-0.14 0.21-0.14 0.41v2.22c0.29 0.5 0.78 0.79 1.29 0.79 0.72 0 1.33-0.87 1.33-1.99 0-1.21-0.7-2.04-1.43-2.04-0.4 0-0.78 0.2-1.05 0.61l-0.14-0.13c0.05-0.16 0.47-0.7 1.23-0.7 1.18 0 2.22 0.97 2.22 2.26 0 1.26-0.97 2.24-2.08 2.24-0.78 0-1.2-0.44-1.4-0.65z"/><path d="m322.27 697.47 0.01 0.2c0.06 1.48 0.89 1.73 1.23 1.73 1.03 0 1.13-1.34 1.13-1.73h-2.36l-0.01-0.2h2.78c0.22 0 0.25 0 0.25 0.2 0 0.99-0.54 1.95-1.79 1.95-1.15 0-2.07-1.02-2.07-2.27 0-1.33 1.05-2.29 2.19-2.29 1.22 0 1.67 1.1 1.67 1.29 0 0.1-0.08 0.12-0.13 0.12-0.09 0-0.11-0.06-0.13-0.14-0.35-1.02-1.25-1.02-1.35-1.02-0.5 0-0.89 0.3-1.12 0.66-0.3 0.48-0.3 1.14-0.3 1.5z"/><path d="m327.66 697.1 0.02-0.01h0.03l0.03-0.01h0.03l0.03-0.01 0.16-0.04 0.04-0.02 0.04-0.01 0.05-0.02 0.08-0.04 0.05-0.02 0.04-0.03 0.05-0.02 0.12-0.09 0.04-0.04 0.03-0.04 0.04-0.04 0.06-0.08 0.01-0.03 0.01-0.02 0.01-0.03 0.01-0.02 0.01-0.03 0.01-0.02 0.02-0.06v-0.03l0.01-0.03v-0.03l0.01-0.03v-0.07c0-0.5-0.35-0.9-1.13-0.9-0.84 0-1.19 0.56-1.38 1.41-0.03 0.13-0.04 0.17-0.14 0.17-0.13 0-0.13-0.07-0.13-0.25v-1.31c0-0.17 0-0.24 0.11-0.24 0.05 0 0.06 0.01 0.24 0.2 0.03 0.02 0.03 0.04 0.21 0.23 0.43-0.42 0.88-0.43 1.09-0.43 1.15 0 1.61 0.67 1.61 1.38 0 0.53-0.3 0.83-0.42 0.95-0.33 0.31-0.72 0.39-1.14 0.47-0.56 0.11-1.23 0.24-1.23 0.82 0 0.34 0.26 0.75 1.12 0.75 1.1 0 1.15-0.89 1.17-1.2 0.01-0.09 0.1-0.09 0.12-0.09 0.13 0 0.13 0.05 0.13 0.24v1c0 0.17 0 0.24-0.11 0.24-0.05 0-0.07 0-0.2-0.12-0.03-0.04-0.13-0.13-0.17-0.16-0.38 0.28-0.79 0.28-0.94 0.28-1.21 0-1.59-0.66-1.59-1.22 0-0.35 0.16-0.63 0.43-0.85 0.31-0.25 0.59-0.31 1.31-0.45z"/></g>
 </g>
</svg>
