<svg width="120mm" height="85mm" version="1.1" viewBox="0 0 111.88 80.873" xmlns="http://www.w3.org/2000/svg" xmlns:ns0="http://www.iki.fi/pav/software/textext/">
 <defs>
  <marker id="a" overflow="visible" orient="auto">
   <path transform="matrix(-.4 0 0 -.4 -4 0)" d="m0 0 5-5-17.5 5 17.5 5z" fill-opacity=".90196" fill-rule="evenodd" stroke="#000" stroke-opacity=".90196" stroke-width="1pt"/>
  </marker>
  <marker id="d" overflow="visible" orient="auto">
   <path transform="matrix(.4 0 0 .4 4 0)" d="m0 0 5-5-17.5 5 17.5 5z" fill-opacity=".44928" fill-rule="evenodd" stroke="#000" stroke-opacity=".59903" stroke-width="1pt"/>
  </marker>
  <marker id="g" overflow="visible" orient="auto">
   <path transform="matrix(-.4 0 0 -.4 -4 0)" d="m0 0 5-5-17.5 5 17.5 5z" fill-opacity=".44928" fill-rule="evenodd" stroke="#000" stroke-opacity=".59903" stroke-width="1pt"/>
  </marker>
  <marker id="h" overflow="visible" orient="auto">
   <path transform="matrix(-.4 0 0 -.4 -4 0)" d="m0 0 5-5-17.5 5 17.5 5z" fill-opacity=".90196" fill-rule="evenodd" stroke="#000" stroke-opacity=".90196" stroke-width="1pt"/>
  </marker>
  <marker id="c" overflow="visible" orient="auto">
   <path transform="matrix(.4 0 0 .4 4 0)" d="m0 0 5-5-17.5 5 17.5 5z" fill-opacity=".44928" fill-rule="evenodd" stroke="#000" stroke-opacity=".59903" stroke-width="1pt"/>
  </marker>
  <marker id="f" overflow="visible" orient="auto">
   <path transform="matrix(-.4 0 0 -.4 -4 0)" d="m0 0 5-5-17.5 5 17.5 5z" fill-opacity=".44928" fill-rule="evenodd" stroke="#000" stroke-opacity=".59903" stroke-width="1pt"/>
  </marker>
  <marker id="b" overflow="visible" orient="auto">
   <path transform="matrix(.4 0 0 .4 4 0)" d="m0 0 5-5-17.5 5 17.5 5z" fill-opacity=".44928" fill-rule="evenodd" stroke="#000" stroke-opacity=".59903" stroke-width="1pt"/>
  </marker>
  <marker id="e" overflow="visible" orient="auto">
   <path transform="matrix(-.4 0 0 -.4 -4 0)" d="m0 0 5-5-17.5 5 17.5 5z" fill-opacity=".44928" fill-rule="evenodd" stroke="#000" stroke-opacity=".59903" stroke-width="1pt"/>
  </marker>
 </defs>
 <g transform="translate(132.94 -3.3342)">
  <text x="35.246281" y="42.149555" fill="#000000" font-family="Verdana" font-size="10.583px" letter-spacing="0px" stroke-width=".26458" word-spacing="0px" style="line-height:1.25" xml:space="preserve"><tspan x="35.246281" y="51.80505" stroke-width=".26458"/></text>
  <text x="76.906807" y="21.511925" fill="#000000" font-family="Verdana" font-size="10.583px" letter-spacing="0px" stroke-width=".26458" word-spacing="0px" style="line-height:1.25" xml:space="preserve"><tspan x="76.906807" y="31.167419" stroke-width=".26458"/></text>
  <g transform="matrix(1.2512 0 0 -1.2512 -160.51 876.57)" fill-rule="evenodd" stroke="#000" stroke-miterlimit="10.433" stroke-width="1.1988" ns0:preamble="default_packages.tex" ns0:text="$p q$\n" xml:space="preserve"><g transform="matrix(1.5 0 0 -1.5 -165.9 1212.8)" fill-rule="evenodd" stroke="#000" stroke-miterlimit="10.433" ns0:preamble="default_packages.tex" ns0:text="$\\text{delete readjust}$\n" xml:space="preserve"><g transform="matrix(1.5 0 0 -1.5 -165.59 1212.8)" fill-rule="evenodd" stroke="#000" stroke-miterlimit="10.433" ns0:preamble="default_packages.tex" ns0:text="$delete readjust$\n" xml:space="preserve"><flowRoot fill="#000000" font-family="Verdana" font-size="40px" letter-spacing="0px" stroke="none" word-spacing="0px" style="line-height:1.25" xml:space="preserve"><flowRegion><rect x="78.929" y="457.16" width="60" height="76.429"/></flowRegion><flowPara/></flowRoot><g transform="matrix(.20006 0 0 .20006 165.85 418.79)" fill-rule="evenodd" stroke-miterlimit="10.433" stroke-width="8.9882" ns0:preamble="default_packages.tex" ns0:text="$f bias variance All functions Learnable functions$\n" xml:space="preserve"><path d="m155.58 661.29v140.65" fill="none" marker-end="url(#a)" stroke="#000" stroke-miterlimit="10.433" stroke-opacity=".90196" stroke-width=".64804"/><path d="m142.21 674.98h177.12" fill="none" marker-end="url(#h)" stroke="#000" stroke-miterlimit="10.433" stroke-opacity=".90196" stroke-width=".64804"/><ellipse transform="scale(1,-1)" cx="241.13" cy="-761.79" rx="2.3559" ry="2.3559" fill="#003186" fill-opacity=".67451" stroke="none"/><g transform="matrix(1.5 0 0 1.5 17.997 -402.96)" fill-rule="evenodd" stroke="#000" stroke-miterlimit="10.433" ns0:preamble="default_packages.tex" ns0:text="feature $x y$\n" xml:space="preserve"><path d="m90.704 760.17 0.02596-3e-3 0.02601-3e-3 0.04201 1e-3 0.09398-4e-3 0.53389-3e-3 0.72792 1.3e-4 1.5658 4.6e-4 1.4558 2.2e-4 1.4398-4e-3 1.5559 8e-3 1.4558 2.2e-4 1.5658 4.7e-4 1.5498-4e-3 1.4398-4e-3 1.5559 8e-3 1.4658-7e-3 1.4299 3e-3 1.5498-4e-3 1.4459 7e-3 1.5658 4.6e-4 1.5399 3e-3 1.4398-4e-3 1.5597-0.0109 1.4459 7e-3 1.5819 5e-3 1.5498-4e-3 1.4398-4e-3 1.5658 4.6e-4 1.462 0.0116 1.4337-0.0155 1.5559 8e-3 1.4459 7e-3 1.5758-7e-3 1.5398 3e-3 1.4398-4e-3 1.5658 4.6e-4 1.4558 2.4e-4 1.4237-8e-3 1.546 0.0146 1.4497-0.0112 1.5658 4.6e-4 1.462 0.0116 1.4398-4e-3 1.5498-4e-3 1.4558 2.3e-4 1.5757-7e-3 1.5399 3e-3 1.4459 7e-3 1.5658 4.6e-4 1.4558 2.3e-4 1.4398-4e-3 1.5498-4e-3 1.4459 7e-3 0.0259-3e-3 0.026-3e-3 0.042 2e-3 0.10996 2.1e-4 0.19401 3e-3 0.40786-8e-3 0.0259-3e-3 0.0321 9e-3 0.042 2e-3 0.10388-0.0111 0.20013 0.0146 0.0259-3e-3 0.026-3e-3 0.0519-6e-3 0.1 7e-3 0.0259-3e-3 0.026-3e-3 0.042 2e-3 0.026-3e-3 0.0321 9e-3 0.0259-3e-3 0.026-3e-3" fill="none" stroke="#060000" stroke-linecap="square" stroke-miterlimit="3" stroke-opacity=".83092" stroke-width=".65455"/><g><g stroke-width="0"><path d="m186.99 714.58v0.71485c0 0.54081 0.29838 0.83918 0.57188 0.83918 0.0124 0 0.10568 0 0.19892-0.0435-0.0746-0.0249-0.18648-0.10567-0.18648-0.26107 0-0.13676 0.0995-0.26108 0.26729-0.26108 0.18027 0 0.27351 0.12432 0.27351 0.26729 0 0.23-0.23 0.43513-0.55324 0.43513-0.43513 0-0.9635-0.32946-0.9635-0.98215v-0.70864h-0.49107v-0.1927h0.49107v-2.0016c0-0.27973-0.0684-0.27973-0.48486-0.27973v-0.18648c0.24243 6e-3 0.53459 0.0186 0.70865 0.0186 0.24864 0 0.53459 0 0.78323-0.0186v0.18648h-0.13054c-0.45378 0-0.46621 0.0684-0.46621 0.29216v1.9892h0.70242v0.1927z"/><path d="m188.48 713.35 6e-3 0.13054c0.0373 0.91999 0.55945 1.0754 0.7708 1.0754 0.64026 0 0.70242-0.83296 0.70242-1.0754h-1.4732l-6e-3 -0.13054h1.7343c0.13676 0 0.1554 0 0.1554 0.13054 0 0.60918-0.33566 1.2122-1.1127 1.2122-0.72107 0-1.2867-0.64026-1.2867-1.4111 0-0.82676 0.64648-1.4235 1.3613-1.4235 0.75837 0 1.0381 0.68378 1.0381 0.80189 0 0.0622-0.0497 0.0746-0.087 0.0746-0.0498 0-0.0622-0.0373-0.0746-0.087-0.21756-0.64026-0.77702-0.64026-0.83918-0.64026-0.31081 0-0.55945 0.18648-0.70242 0.41648-0.18649 0.29838-0.18649 0.70242-0.18649 0.9262z"/><path d="m192.62 712.39v-0.0249l6e-3 -0.0186v-0.0249l0.012-0.0498 6e-3 -0.0186 6e-3 -0.0249 0.0124-0.0186 6e-3 -0.0249 0.0124-0.0186 0.0124-0.0249 0.0248-0.0372 0.0124-0.0249 0.0248-0.0372 0.0186-0.0124 0.0124-0.0186 0.0186-0.0186 0.0372-0.0248 0.0186-0.0186 0.0249-0.0124 0.0186-6e-3 0.0186-0.0124 0.0249-6e-3 0.0249-0.0124 0.0249-6e-3h0.0249l0.0249-6e-3h0.0498c0.13054 0 0.50973 0.0808 0.50973 0.58431v0.34811h-0.15541v-0.34811c0-0.36053-0.1554-0.39783-0.22378-0.39783-0.20513 0-0.23 0.27973-0.23 0.31081v1.237c0 0.25486 0 0.49728-0.22378 0.72729-0.23621 0.24242-0.54702 0.34188-0.84539 0.34188-0.50973 0-0.93864-0.29216-0.93864-0.70242 0-0.18027 0.12432-0.28594 0.28594-0.28594 0.17405 0 0.28594 0.1181 0.28594 0.27972 0 0.0746-0.031 0.27973-0.31702 0.28595 0.16784 0.21756 0.47243 0.28594 0.67134 0.28594 0.30459 0 0.6527-0.24243 0.6527-0.78945v-0.97594c0-0.59053-0.44135-0.80188-0.72107-0.80188-0.30459 0-0.55946 0.21756-0.55946 0.52837 0 0.34188 0.26108 0.85162 1.2805 0.88891v0.13054c-0.31081-0.0186-0.74594-0.0373-1.1376-0.22378-0.46621-0.21135-0.62161-0.52837-0.62161-0.80188 0-0.50352 0.60297-0.6527 0.99459-0.6527 0.41025 0 0.6962 0.24243 0.81431 0.53459z"/><path d="m194.72 714.39h0.88891v0.1927h-0.88891v1.1313h-0.15541c-6e-3 -0.50351-0.1927-1.1624-0.80188-1.1873v-0.13675h0.52838v-1.7032c0-0.75838 0.5781-0.83297 0.80187-0.83297 0.44136 0 0.61541 0.43514 0.61541 0.83297v0.3481h-0.15541v-0.33567c0-0.46-0.18648-0.69621-0.41648-0.69621-0.41648 0-0.41648 0.56567-0.41648 0.67135z"/><path d="m198.48 712.41v-0.55324l0.89513 0.0684v0.18648c-0.43513 0-0.48487 0.0435-0.48487 0.3481v2.1943l-0.91377-0.0684v-0.1927c0.43514 0 0.48486-0.0435 0.48486-0.34811v-1.1003c0-0.53459-0.29838-0.95729-0.75216-0.95729-0.51594 0-0.54701 0.29216-0.54701 0.6154v2.0513l-0.90756-0.0684v-0.1927c0.48485 0 0.48485-0.0186 0.48485-0.57189v-0.9262c0-0.47864 0-1.0381 0.93865-1.0381 0.3481 0 0.62161 0.16784 0.80188 0.55324z"/><path d="m200.53 713.97v0.68379l-0.86405-0.0684v-0.1927c0.43514 0 0.48486-0.0435 0.48486-0.3481v-1.6535c0-0.27973-0.0684-0.27973-0.48486-0.27973v-0.18648c0.24244 6e-3 0.53459 0.0186 0.70865 0.0186 0.24864 0 0.5408 0 0.78945-0.0186v0.18648h-0.13054c-0.45999 0-0.47243 0.0684-0.47243 0.29216v0.95107c0 0.60919 0.26108 1.1624 0.73351 1.1624 0.0435 0 0.0559 0 0.0684-6e-3 -0.0186-6e-3 -0.14297-0.0808-0.14297-0.24242 0-0.17406 0.13053-0.2673 0.26729-0.2673 0.11189 0 0.2673 0.0746 0.2673 0.27351 0 0.19892-0.1927 0.37919-0.46 0.37919-0.45378 0-0.67756-0.41649-0.76458-0.68379z"/><path d="m202.61 713.35 6e-3 0.13054c0.0373 0.91999 0.55945 1.0754 0.7708 1.0754 0.64026 0 0.70242-0.83296 0.70242-1.0754h-1.4732l-6e-3 -0.13054h1.7343c0.13676 0 0.15541 0 0.15541 0.13054 0 0.60918-0.33567 1.2122-1.1127 1.2122-0.72108 0-1.2868-0.64026-1.2868-1.4111 0-0.82676 0.64648-1.4235 1.3613-1.4235 0.75837 0 1.0381 0.68378 1.0381 0.80189 0 0.0622-0.0497 0.0746-0.0808 0.0746-0.0559 0-0.0684-0.0373-0.0808-0.087-0.21756-0.64026-0.77701-0.64026-0.83918-0.64026-0.31081 0-0.55945 0.18648-0.70243 0.41648-0.18648 0.29838-0.18648 0.70242-0.18648 0.9262z"/><path d="m208.81 713.79v0.0124l0.012 0.0372 0.024 0.0996 0.0124 0.0311 6e-3 0.0249 0.0124 0.031 0.0248 0.0622 0.0124 0.031 0.0186 0.0311 0.0124 0.031 0.0372 0.0622 0.0186 0.0249 0.0249 0.031 0.0186 0.0249 0.0249 0.0311 0.0498 0.0498 0.0249 0.0186 0.031 0.0186 0.0311 0.0186 0.0124 6e-3 0.0186 0.0124 0.0186 6e-3 0.0124 6e-3 0.0186 6e-3h0.0186l0.0372 0.012h0.0372l0.0186 6e-3h0.0186c0.031 0 0.18028 0 0.31082-0.0808-0.17406-0.0311-0.29838-0.18649-0.29838-0.33568 0-0.0995 0.0684-0.21755 0.23621-0.21755 0.13675 0 0.33567 0.11188 0.33567 0.36053 0 0.32324-0.36675 0.41027-0.5781 0.41027-0.35431 0-0.57188-0.32946-0.64648-0.47243-0.1554 0.41026-0.49107 0.47243-0.67134 0.47243-0.64648 0-1.0008-0.80189-1.0008-0.95108 0-0.0622 0.0622-0.0622 0.0746-0.0622 0.0497 0 0.0684 0.0124 0.0808 0.0684 0.21135 0.65269 0.62161 0.8081 0.83296 0.8081 0.11811 0 0.33567-0.0559 0.33567-0.41649 0-0.1927-0.10567-0.60297-0.33567-1.467-0.0995-0.3854-0.31702-0.64648-0.59053-0.64648-0.0373 0-0.18027 0-0.31081 0.0808 0.15541 0.031 0.29216 0.16163 0.29216 0.33567 0 0.16785-0.13675 0.21757-0.23 0.21757-0.18648 0-0.34189-0.16162-0.34189-0.36054 0-0.28594 0.31081-0.40404 0.58432-0.40404 0.41027 0 0.63405 0.42891 0.6527 0.4662 0.0746-0.22999 0.29838-0.4662 0.67134-0.4662 0.63405 0 0.98837 0.79566 0.98837 0.95107 0 0.0622-0.0559 0.0622-0.0746 0.0622-0.0559 0-0.0684-0.0311-0.0808-0.0684-0.20513-0.66512-0.62162-0.81431-0.82053-0.81431-0.24243 0-0.34189 0.19892-0.34189 0.41027 0 0.13675 0.0373 0.2735 0.10568 0.5408z"/></g><g transform="matrix(1.5 0 0 1.5 -122.76 -371.37)" fill-rule="evenodd" stroke="#000" stroke-miterlimit="10.433" ns0:preamble="default_packages.tex" ns0:text="0 1\n" xml:space="preserve"><g fill-opacity=".74396"><path d="m142.03 724.09v0.1258l-5e-3 0.0629v0.0629l-5e-3 0.0629-8e-3 0.0587-5e-3 0.0629-8e-3 0.0629-8e-3 0.0588-0.0126 0.0629-0.0126 0.0587-0.0169 0.0629-0.0168 0.0587-0.021 0.0588-0.0252 0.0587-0.0252 0.0586c-0.19304 0.39865-0.53713 0.46579-0.70918 0.46579-0.25178 0-0.55811-0.1091-0.73015-0.49516-0.13429-0.28955-0.15527-0.61267-0.15527-0.94838 0-0.31052 0.0168-0.68819 0.18883-1.0029 0.18045-0.33991 0.48678-0.41964 0.69239-0.41964v0.0923c-0.16365 0-0.41123 0.1007-0.48677 0.50355-0.0461 0.24759-0.0461 0.63364-0.0461 0.87703 0 0.26857 0 0.54132 0.0336 0.76793 0.0798 0.49516 0.39446 0.53293 0.49937 0.53293 0.13428 0 0.41124-0.0755 0.49098-0.48678 0.042-0.23499 0.042-0.54971 0.042-0.81408 0-0.31053 0-0.59588-0.0461-0.86024-0.0629-0.39866-0.30213-0.52034-0.48677-0.52034v-0.0923c0.2224 0 0.54133 0.0839 0.72597 0.48258 0.13428 0.28535 0.15526 0.61266 0.15526 0.93997z" stroke-width="0"/><path d="m194.47 724.31v0.083l-5e-3 5e-3v0.01l-0.01 0.01v5e-3h-5e-3l-0.01 0.01h-0.015l-5e-3 5e-3h-0.065c-0.25598-0.26857-0.62526-0.26857-0.75954-0.26857v-0.12589c0.0839 0 0.33151 0 0.54972 0.10491v-2.1569c0-0.15108-0.0126-0.20143-0.39026-0.20143h-0.13428v-0.12589c0.14687 0.0126 0.51195 0.0126 0.67562 0.0126 0.16784 0 0.53292 0 0.6798-0.0126v0.12589h-0.13429c-0.37767 0-0.39026 0.0462-0.39026 0.20143z" stroke-width="0"/><path d="m193.98 725.7v2.1241" stroke="#000" stroke-miterlimit="10.433" stroke-opacity=".90196" stroke-width=".28802"/></g><g transform="matrix(0 .85774 -.85774 0 809.41 662.35)" fill-rule="evenodd" stroke-miterlimit="10.433" stroke-width="0"><path d="m141.11 782.71v0.01l5e-3 0.0105v0.015l5e-3 5e-3v0.015l5e-3 5e-3v0.025l5e-3 5e-3v0.025c0 0.0948-0.0738 0.14224-0.15278 0.14224-0.0527 0-0.13698-0.0316-0.18439-0.11064-0.0105-0.0263-0.0527-0.18966-0.0738-0.28449-0.0369-0.13697-0.0738-0.27395-0.10536-0.4162l-0.23708-0.94303c-0.0211-0.079-0.24762-0.44782-0.59533-0.44782-0.26868 0-0.32663 0.23182-0.32663 0.42674 0 0.24234 0.0896 0.56372 0.26868 1.0273 0.0843 0.21072 0.10537 0.26868 0.10537 0.37404 0 0.23708-0.16859 0.43201-0.43201 0.43201-0.49522 0-0.69015-0.75864-0.69015-0.80605 0-0.0527 0.0527-0.0527 0.0632-0.0527 0.0527 0 0.0579 0.0105 0.0843 0.0948 0.14225 0.48996 0.35298 0.64801 0.52684 0.64801 0.0421 0 0.13171 0 0.13171-0.16858 0-0.13172-0.0474-0.26869-0.0896-0.36879-0.20546-0.55317-0.30029-0.85347-0.30029-1.0958 0-0.46888 0.33191-0.62167 0.63747-0.62167 0.20547 0 0.38459 0.0843 0.5321 0.23182-0.0685-0.26869-0.1317-0.52684-0.34244-0.80606-0.13698-0.17912-0.33718-0.32664-0.57425-0.32664-0.0738 0-0.31083 0.0158-0.40039 0.216 0.0843 0 0.15278 0 0.22653 0.0632 0.0527 0.0474 0.10537 0.1159 0.10537 0.216 0 0.16332-0.14224 0.1844-0.19493 0.1844-0.12117 0-0.29503-0.0843-0.29503-0.34244 0-0.25816 0.23182-0.45309 0.55845-0.45309 0.53737 0 1.08 0.47416 1.2275 1.0642z"/><g transform="matrix(.51647 0 0 .51647 49.666 415.02)" stroke="#000" ns0:preamble="default_packages.tex" ns0:text="class\n" xml:space="preserve"><path d="m149.88 709.29v0.22l0.01 0.07v0.07l0.01 0.07 0.02 0.12v0.06l0.01 0.06 0.02 0.06 0.01 0.06 0.02 0.11 0.03 0.1 0.04 0.1 0.03 0.09 0.04 0.09 0.05 0.08 0.04 0.07 0.05 0.07 0.04 0.07 0.05 0.06 0.06 0.05 0.1 0.1 0.06 0.04 0.05 0.04 0.06 0.03 0.05 0.03 0.06 0.03 0.06 0.02 0.05 0.02 0.06 0.01 0.06 0.02 0.05 0.01h0.05l0.05 0.01h0.06c0.09 0 0.71-0.01 1.06-0.37-0.41-0.03-0.47-0.33-0.47-0.46 0-0.26 0.18-0.45 0.46-0.45 0.26 0 0.46 0.16 0.46 0.46 0 0.68-0.76 1.07-1.53 1.07-1.24 0-2.16-1.08-2.16-2.31 0-1.27 0.99-2.25 2.15-2.25 1.33 0 1.65 1.19 1.65 1.29s-0.1 0.1-0.13 0.1c-0.09 0-0.11-0.04-0.13-0.1-0.29-0.93-0.94-1.05-1.3-1.05-0.53 0-1.41 0.43-1.41 2.03z"/><path d="m154.9 714.02-1.43-0.11v-0.31c0.7 0 0.78-0.07 0.78-0.55v-5.17c0-0.45-0.11-0.45-0.78-0.45v-0.3c0.33 0.01 0.86 0.03 1.1 0.03 0.25 0 0.74-0.02 1.11-0.03v0.3c-0.67 0-0.78 0-0.78 0.45z"/><path d="m159.23 707.88v-0.04l0.01-0.03 0.01-0.04v-0.04l0.01-0.04 0.01-0.03 0.02-0.04 0.01-0.03 0.02-0.04 0.01-0.03 0.02-0.04 0.04-0.06 0.02-0.04 0.02-0.03 0.13-0.13 0.03-0.02 0.04-0.03 0.03-0.02 0.03-0.01 0.04-0.02 0.03-0.01 0.04-0.02 0.04-0.01h0.04l0.04-0.01h0.09c0.2 0 0.81 0.13 0.81 0.94v0.56h-0.25v-0.56c0-0.58-0.25-0.64-0.36-0.64-0.32 0-0.36 0.45-0.36 0.5v1.99c0 0.41 0 0.8-0.36 1.17-0.39 0.39-0.89 0.55-1.37 0.55-0.82 0-1.5-0.47-1.5-1.13 0-0.29 0.19-0.46 0.45-0.46 0.28 0 0.46 0.19 0.46 0.45 0 0.12-0.05 0.45-0.51 0.46 0.27 0.35 0.76 0.46 1.08 0.46 0.49 0 1.06-0.39 1.06-1.27v-1.57c0-0.95-0.72-1.29-1.17-1.29-0.49 0-0.9 0.35-0.9 0.85 0 0.55 0.42 1.37 2.07 1.43v0.21c-0.51-0.03-1.21-0.06-1.84-0.36-0.75-0.34-0.99-0.85-0.99-1.29 0-0.81 0.96-1.05 1.59-1.05 0.66 0 1.12 0.39 1.31 0.86z"/><path d="m162.96 709.05h0.02l0.03-0.01h0.03l0.06-0.02 0.2-0.05 0.04-0.02 0.05-0.02 0.04-0.01 0.05-0.03 0.08-0.04 0.05-0.03 0.16-0.12 0.03-0.04 0.04-0.04 0.03-0.04 0.03-0.05 0.01-0.02 0.01-0.03 0.01-0.02 0.02-0.03 0.01-0.02v-0.03l0.01-0.03 0.01-0.02 0.01-0.03v-0.06l0.01-0.04v-0.06c0-0.51-0.35-0.91-1.13-0.91-0.83 0-1.19 0.57-1.38 1.42-0.03 0.12-0.04 0.16-0.14 0.16-0.13 0-0.13-0.07-0.13-0.24v-1.32c0-0.16 0-0.23 0.11-0.23 0.05 0 0.06 0.01 0.25 0.19 0.02 0.02 0.02 0.04 0.2 0.23 0.43-0.41 0.88-0.42 1.09-0.42 1.15 0 1.61 0.66 1.61 1.38 0 0.52-0.3 0.82-0.42 0.94-0.33 0.32-0.72 0.4-1.14 0.48-0.56 0.11-1.22 0.23-1.22 0.81 0 0.35 0.26 0.76 1.11 0.76 1.1 0 1.15-0.9 1.17-1.21 0.01-0.09 0.1-0.09 0.12-0.09 0.13 0 0.13 0.06 0.13 0.24v1.01c0 0.17 0 0.24-0.11 0.24-0.05 0-0.07 0-0.2-0.12-0.03-0.04-0.13-0.13-0.17-0.16-0.38 0.28-0.79 0.28-0.94 0.28-1.21 0-1.59-0.67-1.59-1.23 0-0.34 0.16-0.62 0.43-0.84 0.31-0.26 0.59-0.32 1.31-0.46z"/><path d="m166.89 709.05h0.02l0.03-0.01h0.03l0.06-0.02 0.2-0.05 0.04-0.02 0.05-0.02 0.04-0.01 0.04-0.03 0.05-0.02 0.04-0.02 0.05-0.03 0.16-0.12 0.03-0.04 0.04-0.04 0.03-0.04 0.03-0.05 0.01-0.02 0.01-0.03 0.01-0.02 0.01-0.03 0.01-0.02 0.02-0.06 0.01-0.02v-0.03l0.01-0.03v-0.03l0.01-0.04v-0.06c0-0.51-0.35-0.91-1.13-0.91-0.84 0-1.2 0.57-1.38 1.42-0.03 0.12-0.04 0.16-0.14 0.16-0.13 0-0.13-0.07-0.13-0.24v-1.32c0-0.16 0-0.23 0.11-0.23 0.05 0 0.06 0.01 0.25 0.19 0.02 0.02 0.02 0.04 0.2 0.23 0.43-0.41 0.88-0.42 1.09-0.42 1.15 0 1.61 0.66 1.61 1.38 0 0.52-0.3 0.82-0.42 0.94-0.33 0.32-0.72 0.4-1.14 0.48-0.56 0.11-1.22 0.23-1.22 0.81 0 0.35 0.25 0.76 1.11 0.76 1.1 0 1.15-0.9 1.17-1.21 0.01-0.09 0.1-0.09 0.12-0.09 0.13 0 0.13 0.06 0.13 0.24v1.01c0 0.17 0 0.24-0.11 0.24-0.05 0-0.07 0-0.2-0.12-0.03-0.04-0.13-0.13-0.17-0.16-0.38 0.28-0.79 0.28-0.94 0.28-1.21 0-1.59-0.67-1.59-1.23 0-0.34 0.16-0.62 0.42-0.84 0.32-0.26 0.6-0.32 1.32-0.46z"/></g></g></g></g><ellipse transform="scale(1,-1)" cx="107.01" cy="-750.52" rx="1.5706" ry="1.5706" fill="#003186" fill-opacity=".67451" fill-rule="evenodd" stroke="none"/><path d="m106.98 750.44h64.469" fill-opacity="0" stroke="#000" stroke-miterlimit="10.433" stroke-opacity=".59903" stroke-width=".47345"/><path d="m148.87 776.43h22.998" fill-opacity="0" stroke="#000" stroke-miterlimit="10.433" stroke-opacity=".59903" stroke-width=".47345"/><g stroke="#000" stroke-miterlimit="10.433"><g fill-opacity=".44928" stroke-opacity=".59903" stroke-width=".41427"><path d="m169.73 751.21v24.45" marker-end="url(#g)" marker-start="url(#d)"/><path d="m154.27 761.12v14.573" fill-rule="evenodd" marker-end="url(#f)" marker-start="url(#c)"/><path d="m154.29 750.92v8.3189" fill-rule="evenodd" marker-end="url(#e)" marker-start="url(#b)"/></g><g id="content" transform="matrix(1.0127 0 0 1.0127 -139.78 42.633)" fill-rule="evenodd" stroke-width="0" ns0:preamble="default_packages.tex" ns0:text="$a s_1(a) s_2(a) s$\n" xml:space="preserve"><path d="m224.29 709.75-0.0158 0.0237-8e-3 0.0317-0.0948 0.1422-0.0237 0.0237-0.0316 0.0474-0.0237 0.0158-0.0158 0.0237-0.0474 0.0316-0.0395 0.0395-0.0237 0.0158-0.0237 8e-3 -0.0316 0.0158-0.0237 0.0158-0.0237 8e-3 -0.0237 0.0158-0.0317 8e-3 -0.0237 8e-3 -0.0634 0.016h-0.0317l-0.0237 8e-3h-0.0316l-0.0317 8e-3h-0.0396c-0.91796 0-1.8992-1.1633-1.8992-2.3107 0-0.73594 0.43524-1.2503 1.0525-1.2503l0.0158 0.16618c-0.39567 0-0.50646 0.43524-0.50646 0.74386 0 0.38775 0.25323 1.3611 0.43524 1.7172 0.24532 0.46689 0.60142 0.75969 0.91004 0.75969 0.51437 0 0.62516-0.6489 0.62516-0.69638 0-0.0475-0.0158-0.095-0.0237-0.13453l-0.39567-1.5352c-0.0396-0.14245-0.0396-0.15827-0.15827-0.2928-0.34027-0.43524-0.66472-0.56185-0.8863-0.56185l-0.0158-0.16618c0.15827 0 0.54603 0.0237 1.0208 0.58559 0.0633-0.33236 0.34028-0.58559 0.72012-0.58559 0.27697 0 0.45898 0.17409 0.58559 0.42732 0.13453 0.28488 0.2374 0.7676 0.2374 0.78343 0 0.0791-0.0712 0.0791-0.095 0.0791-0.0791 0-0.087-0.0396-0.11079-0.14244-0.13452-0.51437-0.27696-0.98126-0.60141-0.98126-0.21366 0-0.2374 0.20575-0.2374 0.36402 0 0.17409 0.0158 0.2374 0.10287 0.58559 0.0871 0.32445 0.10287 0.40358 0.17409 0.70429l0.28489 1.1c0.0554 0.22157 0.0554 0.2374 0.0554 0.26905 0 0.13453-0.095 0.21367-0.22949 0.21367-0.18992 0-0.30862-0.1741-0.33236-0.34819z"/><g fill-opacity=".78744"><path d="m293.59 717.58h-0.0238l-0.0148-4e-3h-9e-3l-0.0148-4e-3 -9e-3 -4e-3h-9e-3l-0.0148-4e-3 -9e-3 -4e-3 -0.0104-4e-3 -9e-3 -0.0104-0.018-8e-3 -4e-3 -9e-3 -9e-3 -4e-3 -0.0104-9e-3 -4e-3 -4e-3 -0.0104-9e-3 -4e-3 -4e-3 -4e-3 -9e-3 -9e-3 -0.0104-0.012-0.027v-0.0104l-8e-3 -0.018v-9e-3l-4e-3 -0.0104v-0.027c0-0.0694 0.0446-0.14375 0.15365-0.14375 0.10906 0 0.228 0.0843 0.228 0.27757 0 0.22304-0.21312 0.42626-0.58982 0.42626-0.65426 0-0.83765-0.50556-0.83765-0.7187 0-0.3866 0.36678-0.46094 0.51053-0.49069 0.25774-0.0496 0.51547-0.10407 0.51547-0.37173 0-0.12888-0.11399-0.54521-0.70879-0.54521-0.0694 0-0.45104 0-0.56007 0.26268 0.18835-0.0249 0.3073 0.12393 0.3073 0.26271 0 0.11399-0.0793 0.17348-0.18339 0.17348-0.12391 0-0.27261-0.10409-0.27261-0.32714 0-0.28252 0.28252-0.47582 0.70383-0.47582 0.80294 0 0.99626 0.59478 0.99626 0.81286 0 0.17844-0.0941 0.30234-0.15366 0.36183-0.13383 0.13878-0.27757 0.16356-0.49566 0.20816-0.17843 0.0396-0.37668 0.0743-0.37668 0.29244 0 0.14374 0.11895 0.44608 0.55512 0.44608 0.12391 0 0.37173-0.0347 0.4461-0.228z"/><path d="m295.14 717.19v0.044h-4e-3v0.016h-4e-3v4e-3l-8e-3 8e-3h-4e-3l-4e-3 4e-3h-0.016l-4e-3 4e-3h-0.04c-0.22304-0.21809-0.5353-0.22305-0.67904-0.22305v-0.1239c0.0843 0 0.31226 0 0.50061 0.0991v-1.7595c0-0.114 0-0.15861-0.342-0.15861h-0.13382v-0.12392c0.0645 4e-3 0.49069 0.0148 0.6146 0.0148 0.10905 0 0.54521-9e-3 0.62452-0.0148v0.12392h-0.13382c-0.34696 0-0.34696 0.0446-0.34696 0.15861z"/><path d="m297.83 714.55v0.012h-4e-3v4e-3l-4e-3 4e-3v4e-3h-4e-3v4e-3l-8e-3 8e-3v4e-3h-4e-3v4e-3h-4e-3v4e-3h-4e-3v4e-3h-4e-3v4e-3h-4e-3v4e-3l-0.02 0.02h-4e-3v4e-3l-4e-3 4e-3c-0.61956 0.61956-0.77817 1.5514-0.77817 2.3048 0 0.85747 0.18834 1.7149 0.79799 2.3295 0.0644 0.0595 0.0644 0.0694 0.0644 0.0843 0 0.0347-0.0199 0.0496-0.0495 0.0496-0.0496 0-0.49564-0.33703-0.78809-0.96157-0.24782-0.54024-0.31226-1.0904-0.31226-1.5018 0-0.38662 0.0546-0.98139 0.32713-1.5365 0.29741-0.60469 0.72365-0.92687 0.77322-0.92687 0.0298 0 0.0495 0.0148 0.0495 0.0495z"/><path d="m299.95 717.6-9e-3 0.0148-4e-3 0.0199-9e-3 0.0147-9e-3 0.0148-0.0104 0.0147-9e-3 0.0148-9e-3 0.0147-9e-3 0.0148-0.0148 0.0148-9e-3 0.0147-0.0104 0.0148-0.0148 9e-3 -0.0104 0.0148-0.0296 0.018-0.0238 0.0238-0.0148 9e-3 -0.0148 4e-3 -0.0199 9e-3 -0.0148 0.0104-0.0148 4e-3 -0.0148 0.0104-0.0199 4e-3 -0.0147 4e-3 -0.0398 8e-3h-0.0199l-0.0148 4e-3h-0.0199l-0.0199 4e-3h-0.0248c-0.57495 0-1.1896-0.7286-1.1896-1.4473 0-0.46094 0.27259-0.78311 0.65921-0.78311l9e-3 0.10409c-0.24783 0-0.3172 0.2726-0.3172 0.4659 0 0.24286 0.15861 0.85252 0.2726 1.0756 0.15366 0.29243 0.37173 0.47582 0.56999 0.47582 0.32218 0 0.39157-0.40642 0.39157-0.43618 0-0.0297-9e-3 -0.0595-0.0148-0.0842l-0.24782-0.96156c-0.0248-0.0893-0.0248-0.0991-0.0991-0.18339-0.21312-0.27262-0.41633-0.35191-0.55513-0.35191l-9e-3 -0.10408c0.0991 0 0.34199 0.0148 0.63939 0.36677 0.0396-0.20817 0.21311-0.36677 0.45103-0.36677 0.17347 0 0.28747 0.10903 0.36679 0.26765 0.0842 0.17843 0.14869 0.48077 0.14869 0.49069 0 0.0496-0.0446 0.0496-0.0595 0.0496-0.0496 0-0.0546-0.0249-0.0694-0.0893-0.0843-0.32217-0.17348-0.61461-0.3767-0.61461-0.13382 0-0.14869 0.12888-0.14869 0.228 0 0.10905 0.0104 0.1487 0.0644 0.36679 0.0546 0.2032 0.0645 0.25278 0.10905 0.44112l0.17844 0.68895c0.0347 0.13879 0.0347 0.1487 0.0347 0.16851 0 0.0843-0.0595 0.13383-0.14374 0.13383-0.11896 0-0.1933-0.10904-0.20817-0.21807z"/><path d="m302.15 716.97v0.1139l-4e-3 0.0396v0.0842l-9e-3 0.0843-4e-3 0.0893-9e-3 0.0941-0.0296 0.1982-0.0198 0.0991-0.0248 0.10407-0.0248 0.10409-0.0299 0.10408-0.0347 0.1041-0.0396 0.10408-0.0248 0.0546-0.0198 0.0545-0.0249 0.0495-0.0248 0.0545c-0.29737 0.60469-0.71868 0.92686-0.76824 0.92686-0.0299 0-0.0494-0.0199-0.0494-0.0496 0-0.0147 0-0.0249 0.0941-0.11401 0.48075-0.49068 0.76328-1.2738 0.76328-2.2998 0-0.84262-0.18339-1.71-0.79304-2.3296-0.0644-0.0595-0.0644-0.0694-0.0644-0.0842 0-0.0299 0.0199-0.0496 0.0496-0.0496 0.0495 0 0.49068 0.33703 0.78311 0.96155 0.25278 0.54026 0.31226 1.0855 0.31226 1.5018z"/><path d="m293.94 704.4h-0.0252l-9e-3 -4e-3h-0.0148l-9e-3 -4e-3 -0.0148-4e-3h-9e-3l-0.018-8e-3 -0.0104-4e-3 -9e-3 -0.0104-0.018-8e-3 -0.0104-9e-3 -9e-3 -4e-3 -4e-3 -9e-3 -9e-3 -4e-3 -4e-3 -9e-3 -9e-3 -4e-3 -4e-3 -9e-3 -4e-3 -0.0104-0.012-0.027-4e-3 -0.0104-4e-3 -9e-3v-9e-3l-4e-3 -9e-3v-0.0194l-4e-3 -9e-3v-9e-3c0-0.0694 0.0446-0.14392 0.15384-0.14392 0.10917 0 0.22826 0.0844 0.22826 0.27789 0 0.22331-0.21337 0.42677-0.59052 0.42677-0.65007 0-0.83368-0.50616-0.83368-0.71954 0-0.38706 0.36722-0.4615 0.51113-0.49128 0.25307-0.0496 0.51113-0.1042 0.51113-0.37217 0-0.12903-0.11414-0.54586-0.70466-0.54586-0.0694 0-0.45158 0-0.56571 0.26301 0.18857-0.0249 0.31263 0.12405 0.31263 0.26299 0 0.11414-0.0794 0.17369-0.18361 0.17369-0.12902 0-0.2779-0.10421-0.2779-0.32752 0-0.28285 0.28285-0.4764 0.70961-0.4764 0.79895 0 0.99249 0.5955 0.99249 0.81384 0 0.17865-0.0943 0.3027-0.15383 0.36225-0.13398 0.13895-0.2779 0.16376-0.49128 0.20842-0.17864 0.0396-0.37714 0.0744-0.37714 0.29279 0 0.14391 0.11909 0.44662 0.55082 0.44662 0.12407 0 0.37219-0.0348 0.44662-0.22828z"/><path d="m296.07 702.44h-0.11413c-0.0149-0.0794-0.0446-0.28284-0.0942-0.31759-0.0248-0.0198-0.29279-0.0198-0.34242-0.0198h-0.63518c0.36225 0.32254 0.48135 0.41684 0.68978 0.5806 0.25805 0.20345 0.49623 0.41683 0.49623 0.74436 0 0.41682-0.36721 0.67488-0.80886 0.67488-0.43172 0-0.72451-0.30271-0.72451-0.6203 0-0.17368 0.14887-0.19354 0.1836-0.19354 0.0844 0 0.18857 0.0596 0.18857 0.18361 0 0.0645-0.0248 0.18361-0.20842 0.18361 0.10918 0.24315 0.34241 0.32255 0.50616 0.32255 0.34738 0 0.53099-0.26796 0.53099-0.55081 0-0.29775-0.21836-0.53594-0.32753-0.66l-0.83864-0.82376c-0.0348-0.0298-0.0348-0.0348-0.0348-0.13399h1.4292z"/><path d="m298.18 701.37v0.012l-4e-3 4e-3v4e-3l-8e-3 8e-3v4e-3h-4e-3v4e-3h-4e-3v4e-3h-4e-3v4e-3l-0.016 0.016v4e-3h-4e-3l-4e-3 4e-3v4e-3h-4e-3l-4e-3 4e-3v4e-3h-4e-3l-8e-3 8e-3c-0.61534 0.62029-0.77413 1.5532-0.77413 2.3075 0 0.85851 0.18859 1.717 0.79399 2.3323 0.0646 0.0596 0.0646 0.0694 0.0646 0.0843 0 0.0348-0.0199 0.0496-0.0496 0.0496-0.0495 0-0.49127-0.33743-0.78405-0.9627-0.25307-0.54089-0.31263-1.0917-0.31263-1.5036 0-0.38706 0.0547-0.98255 0.32752-1.5383 0.29774-0.60541 0.71954-0.92797 0.76916-0.92797 0.0299 0 0.0496 0.0149 0.0496 0.0496z"/><path d="m300.31 704.42-9e-3 0.0149-0.0104 0.0199-9e-3 0.0147-9e-3 0.0148-9e-3 0.0147-0.0104 0.0148-9e-3 0.0148-9e-3 0.0149-9e-3 0.0147-0.0148 0.0148-9e-3 0.0148-0.0148 9e-3 -9e-3 0.0148-0.0148 9e-3 -9e-3 9e-3 -0.0148 0.0149-0.0149 9e-3 -0.0148 0.0104-0.0148 4e-3 -0.0149 0.0104-0.0148 9e-3 -0.0199 4e-3 -0.0148 9e-3 -0.0149 4e-3 -0.0199 4e-3 -0.0198 4e-3 -0.0149 4e-3h-0.0199l-0.0199 4e-3h-0.0199l-0.0199 4e-3h-0.0199c-0.58061 0-1.1959-0.72947-1.1959-1.449 0-0.46149 0.27292-0.78406 0.65999-0.78406l9e-3 0.10422c-0.24811 0-0.31759 0.27292-0.31759 0.46646 0 0.24315 0.1588 0.85353 0.27294 1.0768 0.15383 0.29278 0.37713 0.47639 0.57563 0.47639 0.32255 0 0.39202-0.40691 0.39202-0.43668 0-0.0298-9e-3 -0.0596-0.0148-0.0844l-0.24811-0.96271c-0.0248-0.0894-0.0248-0.0992-0.0992-0.18359-0.21834-0.27294-0.4218-0.35234-0.56074-0.35234l-0.0104-0.10421c0.0992 0 0.34738 0.0147 0.64513 0.36722 0.0396-0.20842 0.21337-0.36722 0.44661-0.36722 0.17368 0 0.28782 0.10917 0.36721 0.26797 0.0843 0.17865 0.14888 0.48136 0.14888 0.49127 0 0.0495-0.0446 0.0495-0.0596 0.0495-0.0495 0-0.0547-0.0249-0.0694-0.0894-0.0843-0.32256-0.17368-0.61533-0.37217-0.61533-0.13398 0-0.14888 0.12902-0.14888 0.22826 0 0.10918 9e-3 0.14888 0.0645 0.36722 0.0547 0.20345 0.0596 0.25309 0.10918 0.44166l0.17367 0.68977c0.0348 0.13894 0.0348 0.14888 0.0348 0.16871 0 0.0843-0.0596 0.13399-0.14392 0.13399-0.11909 0-0.18857-0.10917-0.20345-0.21835z"/><path d="m302.5 703.79v0.1538l-4e-3 0.0844-4e-3 0.0843-9e-3 0.0894-9e-3 0.0942-0.0147 0.0992-0.0149 0.0992-0.0199 0.0992-0.0199 0.10421-0.0298 0.10421-0.0299 0.10421-0.0348 0.10421-0.0396 0.10421-0.0199 0.0546-0.0248 0.0546-0.0198 0.0496-0.0249 0.0546c-0.29774 0.60542-0.7245 0.92797-0.77413 0.92797-0.0298 0-0.0495-0.0199-0.0495-0.0495 0-0.0148 0-0.0249 0.0942-0.11414 0.48631-0.49128 0.76917-1.2753 0.76917-2.3025 0-0.84361-0.18361-1.712-0.79895-2.3323-0.0645-0.0596-0.0645-0.0694-0.0645-0.0844 0-0.0298 0.0199-0.0495 0.0496-0.0495 0.0495 0 0.49623 0.33743 0.78901 0.9627 0.25308 0.5409 0.30767 1.0868 0.30767 1.5036z"/><path d="m309.95 713.41h-0.0446l-0.0149-7e-3h-0.0149l-0.0223-7e-3 -0.0149-7e-3h-0.0149l-0.0223-7e-3 -0.0298-0.014-0.0149-0.0149-0.0298-0.014-7e-3 -0.0149-0.0149-7e-3 -0.0587-0.0587-0.035-0.0745v-0.0149l-7e-3 -0.0149v-0.0149l-7e-3 -0.0149v-0.0447c0-0.10416 0.067-0.21576 0.23063-0.21576 0.16368 0 0.34223 0.12648 0.34223 0.41663 0 0.33479-0.31991 0.63982-0.88533 0.63982-0.98204 0-1.2573-0.75886-1.2573-1.0788 0-0.58029 0.55054-0.69189 0.76629-0.73653 0.38687-0.0744 0.77373-0.15623 0.77373-0.55798 0-0.19343-0.17111-0.81837-1.0639-0.81837-0.10415 0-0.67701 0-0.84813 0.39431 0.28271-0.0372 0.46871 0.18599 0.46871 0.3943 0 0.17112-0.11904 0.26039-0.27527 0.26039-0.19344 0-0.40919-0.15623-0.40919-0.49102 0-0.42406 0.41662-0.71421 1.0564-0.71421 1.2052 0 1.4954 0.89276 1.4954 1.2201 0 0.26783-0.14136 0.45383-0.23063 0.5431-0.20088 0.20832-0.41663 0.24551-0.74398 0.31247-0.26783 0.0595-0.56542 0.1116-0.56542 0.43895 0 0.21575 0.17856 0.66957 0.83325 0.66957 0.186 0 0.55798-0.0521 0.66958-0.34223z"/></g></g></g></g></g></g></g></g>
 </g>
</svg>
