<?xml version="1.0" encoding="UTF-8" standalone="no"?>
<!-- Created with Inkscape (http://www.inkscape.org/) -->

<svg width="111.88mm" height="80.873mm" version="1.1" viewBox="0 0 111.88 80.873" xmlns="http://www.w3.org/2000/svg" xmlns:ns0="http://www.iki.fi/pav/software/textext/">
 <defs>
  <marker id="a" overflow="visible" orient="auto">
   <path transform="matrix(-.4 0 0 -.4 -4 0)" d="m0 0 5-5-17.5 5 17.5 5z" fill-opacity=".90196" fill-rule="evenodd" stroke="#000" stroke-opacity=".90196" stroke-width="1pt"/>
  </marker>
  <marker id="b" overflow="visible" orient="auto">
   <path transform="matrix(-.4 0 0 -.4 -4 0)" d="m0 0 5-5-17.5 5 17.5 5z" fill-opacity=".90196" fill-rule="evenodd" stroke="#000" stroke-opacity=".90196" stroke-width="1pt"/>
  </marker>
 </defs>
 <g transform="translate(132.94 -3.3342)">
  <text x="35.246281" y="42.149555" fill="#000000" font-family="Verdana" font-size="10.583px" letter-spacing="0px" stroke-width=".26458" word-spacing="0px" style="line-height:1.25" xml:space="preserve"><tspan x="35.246281" y="51.80505" stroke-width=".26458"/></text>
  <text x="76.906807" y="21.511925" fill="#000000" font-family="Verdana" font-size="10.583px" letter-spacing="0px" stroke-width=".26458" word-spacing="0px" style="line-height:1.25" xml:space="preserve"><tspan x="76.906807" y="31.167419" stroke-width=".26458"/></text>
  <g transform="matrix(1.2512 0 0 -1.2512 -160.51 876.57)" fill-rule="evenodd" stroke="#000" stroke-miterlimit="10.433" stroke-width="1.1988" ns0:preamble="default_packages.tex" ns0:text="$p q$\n" xml:space="preserve"><g transform="matrix(1.5 0 0 -1.5 -165.9 1212.8)" fill-rule="evenodd" stroke="#000" stroke-miterlimit="10.433" ns0:preamble="default_packages.tex" ns0:text="$\\text{delete readjust}$\n" xml:space="preserve"><g transform="matrix(1.5 0 0 -1.5 -165.59 1212.8)" fill-rule="evenodd" stroke-miterlimit="10.433" ns0:preamble="default_packages.tex" ns0:text="$delete readjust$\n" xml:space="preserve"><flowRoot fill="#000000" font-family="Verdana" font-size="40px" letter-spacing="0px" stroke="none" word-spacing="0px" style="line-height:1.25" xml:space="preserve"><flowRegion><rect x="78.929" y="457.16" width="60" height="76.429"/></flowRegion><flowPara/></flowRoot><g transform="matrix(.20006 0 0 .20006 165.85 418.79)" fill-rule="evenodd" stroke="#000" stroke-miterlimit="10.433" stroke-width="8.9882" ns0:preamble="default_packages.tex" ns0:text="$f bias variance All functions Learnable functions$\n" xml:space="preserve"><path d="m155.58 661.29v140.65" fill="none" marker-end="url(#a)" stroke-opacity=".90196" stroke-width=".64804"/><path d="m142.21 674.98h177.12" fill="none" marker-end="url(#b)" stroke-opacity=".90196" stroke-width=".64804"/><g transform="matrix(1.5 0 0 1.5 17.997 -402.96)" fill-rule="evenodd" ns0:preamble="default_packages.tex" ns0:text="feature $x y$\n" xml:space="preserve"><path d="m91.883 718.73 0.02693 0.067 0.02693 0.0537 0.0404 0.10722 0.09426 0.21454 0.17505 0.44245 0.3501 0.85812 0.71367 1.7296 1.5351 3.6336 1.4273 3.2849 1.4139 3.1106 1.5216 3.2715 1.4273 2.9363 1.5351 3.0704 1.5216 2.8827 1.4139 2.6011 1.5216 2.695 1.4408 2.4 1.4004 2.2525 1.5216 2.3464 1.4139 2.0648 1.5351 2.1318 1.5081 1.9576 1.4139 1.743 1.5351 1.7564 1.4139 1.5285 1.5486 1.5553 1.5216 1.3944 1.4139 1.1933 1.5351 1.1799 1.4274 1.0056 1.4139 0.87153 1.5216 0.83128h0.0134l0.0269 0.0135 0.0405 0.0268 0.0942 0.0402 0.17506 0.0939 0.36357 0.1609 0.70021 0.32179 0.0269 0.0135 0.0269 0.0134 0.0405 0.0134 0.10769 0.0402 0.18853 0.0804 0.39049 0.1609 0.76754 0.28157 0.0269 0.0135 0.0134 0.0135 0.0539 0.0134 0.0942 0.0268 0.18852 0.067 0.37703 0.12068 0.0269 0.0134h0.0135l0.0539 0.0268 0.0943 0.0268 0.18853 0.0537 0.37701 0.10723h0.0269l0.0135 0.0134 0.0539 0.0134 0.0808 0.0268 0.17506 0.0402 0.36358 0.0805 0.0134 0.0135h0.0269l0.0405 0.0134 0.0942 0.0268 0.17505 0.0402 0.3501 0.067h0.0269l0.0134 0.0134 0.0539 0.0134 0.0942 0.0135 0.18851 0.0402h0.0538l0.0403 0.0135 0.1077 0.0135 0.18851 0.0402h0.0403l0.0539 0.0135 0.0942 0.0134 0.18851 0.0268 0.39051 0.0537h0.0403l0.0403 0.0134h0.0942l0.17505 0.0268h0.0943l0.0808 0.0135 0.18851 0.0134h0.0134l0.0269 0.0135h0.1346l0.0269 0.0135h0.148l0.0269 0.0134h0.202l0.0404 0.0134h0.1752l0.0943 0.0135h0.3636l0.0269 0.0134h0.7803l0.0539-0.0134h0.4038l0.0134-0.0135h0.2424l0.0943-0.0134h0.0941l0.0942-0.0134h0.0941l0.0942-0.0135h0.0941l0.0942-0.0135 0.18853-0.0134 0.0269-0.0135h0.0674l0.0942-0.0134 0.17505-0.0134 0.0134-0.0135h0.0672l0.0942-0.0134 0.17506-0.0268h0.0404l0.0539-0.0134 0.0808-0.0134 0.17505-0.0268 0.36357-0.0537h0.0269l0.0134-0.0135h0.0539l0.0943-0.0134 0.18851-0.0402 0.39049-0.0804h0.0269l0.0135-0.0134 0.0539-0.0134 0.0942-0.0135 0.18851-0.0402 0.39051-0.0939 0.0269-0.0134h0.0134l0.0539-0.0134 0.0808-0.0268 0.18853-0.0402 0.3501-0.10723 0.71367-0.21452 0.0269-0.0135h0.0269l0.0405-0.0134 0.0942-0.0402 0.17504-0.0537 0.35011-0.12068 0.70021-0.26815 0.0269-0.0134 0.0269-0.0135 0.0403-0.0135 0.0942-0.0402 0.18853-0.0805 0.39049-0.16088 0.75408-0.34861 1.4274-0.73744 1.5485-0.91174 1.5082-1.0056 1.4139-1.0592 1.5351-1.2603 1.4273-1.2872 1.4139-1.3542 1.5216-1.5955 1.4139-1.5955 0.0538-0.0536 0.0403-0.0537 0.10769-0.12067 0.18852-0.22794 0.40396-0.46928 0.0269-0.0268 0.0269-0.0402 0.0403-0.0537 0.10769-0.12067 0.18852-0.24135 0.0538-0.0536 0.0539-0.067 0.0942-0.12067 0.0269-0.0268 0.0269-0.0402 0.0403-0.0537 0.0269-0.0268 0.0269-0.0402 0.0538-0.0536" fill="none" stroke="#5e81b5" stroke-linecap="square" stroke-miterlimit="3" stroke-opacity=".91787" stroke-width=".77291"/><path d="m91.883 741.1 0.02693 0.0134 0.02693 0.0135 0.0404 0.0268 0.09426 0.0537 0.17505 0.10723 0.3501 0.21452 0.71367 0.44247 1.5351 0.95196 1.4273 0.88491 1.4139 0.87151 1.5216 0.95198 1.4273 0.88491 1.5351 0.95196 1.5216 0.93856 1.4139 0.87151 1.5216 0.95197 1.4408 0.88492 1.4004 0.87151 1.5216 0.93855 1.4139 0.88493 1.5351 0.95196 1.5081 0.93855 1.4139 0.87152 1.5351 0.93855 1.4139 0.88493 1.5486 0.96536 1.5216 0.93856 1.4139 0.87151 1.5351 0.95196 1.4274 0.89833 1.4139 0.85811 1.5216 0.95196 1.4139 0.88493 1.5485 0.95196 1.5081 0.93855 1.4139 0.87151 1.5351 0.95196 1.4274 0.88493 1.4004 0.85811 1.5082 0.95196 1.4273 0.87151 1.5351 0.95196 1.4273 0.89833 1.4139 0.87151 1.5216 0.93856 1.4273 0.88492 1.5485 0.95196 1.5082 0.93856 1.4139 0.88492 1.5351 0.95196 1.4274 0.88492 1.4139 0.87152 1.5216 0.93855 1.4139 0.88493 0.0269 0.0134 0.0269 0.0135 0.0403 0.0268 0.1077 0.067 0.18853 0.12066 0.40396 0.24135 0.0269 0.0134 0.0269 0.0268 0.0403 0.0268 0.10769 0.0537 0.18852 0.13407 0.0269 0.0134 0.0269 0.0135 0.0539 0.0268 0.0942 0.067 0.0269 0.0134 0.0269 0.0135 0.0403 0.0268 0.0269 0.0135 0.0269 0.0268 0.0269 0.0134 0.0269 0.0135" fill="none" stroke="#ac4100" stroke-linecap="square" stroke-miterlimit="3" stroke-opacity=".66667" stroke-width=".77291"/><g fill-rule="evenodd" stroke-miterlimit="10.433"><g transform="matrix(1.5 0 0 1.5 -122.76 -371.37)" fill-opacity=".2029" stroke="#000" stroke-opacity=".9372" stroke-width=".30853" ns0:preamble="default_packages.tex" ns0:text="0 1\n" xml:space="preserve"><path d="m193.98 725.7v2.1241" fill-opacity=".2029" stroke="#000" stroke-miterlimit="10.433" stroke-opacity=".9372" stroke-width=".30853"/></g><g stroke-width="0"><path d="m186.81 714.49v0.71485c0 0.54081 0.29838 0.83918 0.57188 0.83918 0.0124 0 0.10568 0 0.19892-0.0435-0.0746-0.0249-0.18648-0.10567-0.18648-0.26107 0-0.13676 0.0995-0.26108 0.26729-0.26108 0.18027 0 0.27351 0.12432 0.27351 0.26729 0 0.23-0.23 0.43513-0.55324 0.43513-0.43513 0-0.9635-0.32946-0.9635-0.98215v-0.70864h-0.49107v-0.1927h0.49107v-2.0016c0-0.27973-0.0684-0.27973-0.48486-0.27973v-0.18648c0.24243 6e-3 0.53459 0.0186 0.70865 0.0186 0.24864 0 0.53459 0 0.78323-0.0186v0.18648h-0.13054c-0.45378 0-0.46621 0.0684-0.46621 0.29216v1.9892h0.70242v0.1927z"/><path d="m188.3 713.25 6e-3 0.13054c0.0373 0.91999 0.55944 1.0754 0.7708 1.0754 0.64026 0 0.70241-0.83296 0.70241-1.0754h-1.4732l-6e-3 -0.13054h1.7343c0.13676 0 0.1554 0 0.1554 0.13054 0 0.60918-0.33566 1.2122-1.1127 1.2122-0.72107 0-1.2867-0.64026-1.2867-1.4111 0-0.82676 0.64648-1.4235 1.3613-1.4235 0.75837 0 1.0381 0.68378 1.0381 0.80189 0 0.0622-0.0497 0.0746-0.087 0.0746-0.0498 0-0.0622-0.0373-0.0746-0.087-0.21756-0.64026-0.77702-0.64026-0.83918-0.64026-0.31081 0-0.55945 0.18648-0.70242 0.41648-0.18649 0.29838-0.18649 0.70242-0.18649 0.9262z"/><path d="m192.44 712.29v-0.0249l6e-3 -0.0186v-0.0249l0.012-0.0498 6e-3 -0.0186 6e-3 -0.0249 0.0124-0.0186 6e-3 -0.0249 0.0124-0.0186 0.0124-0.0249 0.0248-0.0372 0.0124-0.0249 0.0248-0.0372 0.0186-0.0124 0.0124-0.0186 0.0186-0.0186 0.0372-0.0248 0.0186-0.0186 0.0249-0.0124 0.0186-6e-3 0.0186-0.0124 0.0249-6e-3 0.0249-0.0124 0.0249-6e-3h0.0249l0.0249-6e-3h0.0498c0.13053 0 0.50972 0.0808 0.50972 0.58431v0.34811h-0.1554v-0.34811c0-0.36053-0.15541-0.39783-0.22379-0.39783-0.20513 0-0.23 0.27973-0.23 0.31081v1.237c0 0.25486 0 0.49728-0.22378 0.72729-0.23621 0.24242-0.54702 0.34188-0.84539 0.34188-0.50972 0-0.93864-0.29216-0.93864-0.70242 0-0.18027 0.12432-0.28594 0.28594-0.28594 0.17405 0 0.28594 0.1181 0.28594 0.27972 0 0.0746-0.031 0.27973-0.31702 0.28595 0.16784 0.21756 0.47243 0.28594 0.67134 0.28594 0.3046 0 0.65271-0.24243 0.65271-0.78945v-0.97594c0-0.59053-0.44135-0.80188-0.72107-0.80188-0.3046 0-0.55947 0.21756-0.55947 0.52837 0 0.34188 0.26108 0.85162 1.2805 0.88891v0.13054c-0.31082-0.0186-0.74595-0.0373-1.1376-0.22378-0.46621-0.21135-0.62161-0.52837-0.62161-0.80188 0-0.50352 0.60297-0.6527 0.99459-0.6527 0.41025 0 0.6962 0.24243 0.81431 0.53459z"/><path d="m194.54 714.29h0.88891v0.1927h-0.88891v1.1313h-0.15541c-6e-3 -0.50351-0.1927-1.1624-0.80188-1.1873v-0.13675h0.52838v-1.7032c0-0.75838 0.5781-0.83297 0.80187-0.83297 0.44136 0 0.61541 0.43514 0.61541 0.83297v0.3481h-0.15541v-0.33567c0-0.46-0.18648-0.69621-0.41648-0.69621-0.41648 0-0.41648 0.56567-0.41648 0.67135z"/><path d="m198.3 712.31v-0.55324l0.89513 0.0684v0.18648c-0.43513 0-0.48487 0.0435-0.48487 0.3481v2.1943l-0.91377-0.0684v-0.1927c0.43514 0 0.48486-0.0435 0.48486-0.34811v-1.1003c0-0.53459-0.29838-0.95729-0.75216-0.95729-0.51594 0-0.54701 0.29216-0.54701 0.6154v2.0513l-0.90756-0.0684v-0.1927c0.48485 0 0.48485-0.0186 0.48485-0.57189v-0.9262c0-0.47864 0-1.0381 0.93865-1.0381 0.3481 0 0.62161 0.16784 0.80188 0.55324z"/><path d="m200.35 713.87v0.68379l-0.86405-0.0684v-0.1927c0.43514 0 0.48486-0.0435 0.48486-0.3481v-1.6535c0-0.27973-0.0684-0.27973-0.48486-0.27973v-0.18648c0.24244 6e-3 0.53459 0.0186 0.70865 0.0186 0.24864 0 0.5408 0 0.78945-0.0186v0.18648h-0.13054c-0.45999 0-0.47243 0.0684-0.47243 0.29216v0.95107c0 0.60919 0.26108 1.1624 0.73351 1.1624 0.0435 0 0.0559 0 0.0684-6e-3 -0.0186-6e-3 -0.14297-0.0808-0.14297-0.24242 0-0.17406 0.13053-0.2673 0.26729-0.2673 0.11189 0 0.2673 0.0746 0.2673 0.27351 0 0.19892-0.1927 0.37919-0.46 0.37919-0.45378 0-0.67756-0.41649-0.76458-0.68379z"/><path d="m202.43 713.25 6e-3 0.13054c0.0373 0.91999 0.55945 1.0754 0.77079 1.0754 0.64026 0 0.70242-0.83296 0.70242-1.0754h-1.4732l-6e-3 -0.13054h1.7343c0.13676 0 0.15541 0 0.15541 0.13054 0 0.60918-0.33567 1.2122-1.1127 1.2122-0.72108 0-1.2868-0.64026-1.2868-1.4111 0-0.82676 0.64648-1.4235 1.3613-1.4235 0.75837 0 1.0381 0.68378 1.0381 0.80189 0 0.0622-0.0497 0.0746-0.0808 0.0746-0.0559 0-0.0684-0.0373-0.0808-0.087-0.21756-0.64026-0.77701-0.64026-0.83918-0.64026-0.31081 0-0.55945 0.18648-0.70243 0.41648-0.18648 0.29838-0.18648 0.70242-0.18648 0.9262z"/><path d="m208.63 713.69v0.0124l0.012 0.0372 0.024 0.0996 0.0124 0.0311 6e-3 0.0249 0.0124 0.031 0.0248 0.0622 0.0124 0.031 0.0186 0.0311 0.0124 0.031 0.0372 0.0622 0.0186 0.0249 0.0249 0.031 0.0186 0.0249 0.0249 0.0311 0.0498 0.0498 0.0249 0.0186 0.031 0.0186 0.0311 0.0186 0.0124 6e-3 0.0186 0.0124 0.0186 6e-3 0.0124 6e-3 0.0186 6e-3h0.0186l0.0372 0.012h0.0372l0.0186 6e-3h0.0186c0.031 0 0.18028 0 0.31082-0.0808-0.17406-0.0311-0.29838-0.18649-0.29838-0.33568 0-0.0995 0.0684-0.21755 0.23621-0.21755 0.13675 0 0.33567 0.11188 0.33567 0.36053 0 0.32324-0.36675 0.41027-0.5781 0.41027-0.35431 0-0.57188-0.32946-0.64648-0.47243-0.1554 0.41026-0.49107 0.47243-0.67134 0.47243-0.64648 0-1.0008-0.80189-1.0008-0.95108 0-0.0622 0.0622-0.0622 0.0746-0.0622 0.0497 0 0.0684 0.0124 0.0808 0.0684 0.21135 0.65269 0.62161 0.8081 0.83296 0.8081 0.11811 0 0.33567-0.0559 0.33567-0.41649 0-0.1927-0.10567-0.60297-0.33567-1.467-0.0995-0.3854-0.31702-0.64648-0.59053-0.64648-0.0373 0-0.18027 0-0.31081 0.0808 0.15541 0.031 0.29216 0.16163 0.29216 0.33567 0 0.16785-0.13675 0.21757-0.23 0.21757-0.18648 0-0.34189-0.16162-0.34189-0.36054 0-0.28594 0.31081-0.40404 0.58432-0.40404 0.41027 0 0.63405 0.42891 0.6527 0.4662 0.0746-0.22999 0.29838-0.4662 0.67134-0.4662 0.63405 0 0.98837 0.79566 0.98837 0.95107 0 0.0622-0.0559 0.0622-0.0746 0.0622-0.0559 0-0.0684-0.0311-0.0808-0.0684-0.20513-0.66512-0.62162-0.81431-0.82053-0.81431-0.24243 0-0.34189 0.19892-0.34189 0.41027 0 0.13675 0.0373 0.2735 0.10568 0.5408z"/></g><g stroke-width="0"><path d="m90.107 714.66v0.1886l-7e-3 0.0944v0.0943l-7e-3 0.0943-0.012 0.0881-8e-3 0.0943-0.012 0.0943-0.012 0.0882-0.0189 0.0944-0.0189 0.088-0.0253 0.0943-0.0252 0.0881-0.0315 0.0882-0.0378 0.0881-0.0378 0.0878c-0.28956 0.59797-0.8057 0.69869-1.0638 0.69869-0.37767 0-0.83717-0.16365-1.0952-0.74274-0.20143-0.43433-0.2329-0.91901-0.2329-1.4226 0-0.46579 0.0252-1.0323 0.28324-1.5044 0.27068-0.50986 0.73017-0.62946 1.0386-0.62946v0.13845c-0.24548 0-0.61685 0.15105-0.73016 0.75533-0.0692 0.37138-0.0692 0.95045-0.0692 1.3155 0 0.40286 0 0.81198 0.0504 1.1519 0.1197 0.74274 0.59169 0.79939 0.74906 0.79939 0.20142 0 0.61686-0.11325 0.73647-0.73017 0.063-0.35248 0.063-0.82456 0.063-1.2211 0-0.4658 0-0.89382-0.0692-1.2904-0.0944-0.59799-0.4532-0.78051-0.73016-0.78051v-0.13845c0.3336 0 0.812 0.12585 1.089 0.72387 0.20142 0.42802 0.23289 0.91899 0.23289 1.41z" fill-opacity=".74396"/><path d="m168.76 714.99v0.127l-8e-3 7e-3v0.016l-8e-3 7e-3 -8e-3 8e-3v8e-3h-7e-3l-0.015 0.015h-0.024l-7e-3 8e-3h-0.1c-0.38397-0.40286-0.93789-0.40286-1.1393-0.40286v-0.18883c0.12585 0 0.49727 0 0.82458 0.15736v-3.2354c0-0.22661-0.0189-0.30214-0.58539-0.30214h-0.20142v-0.18884c0.22031 0.0189 0.76793 0.0189 1.0134 0.0189 0.25176 0 0.79938 0 1.0197-0.0189v0.18884h-0.20143c-0.56651 0-0.58539 0.0693-0.58539 0.30214z" fill-opacity=".74396"/><g transform="matrix(0 1.2866 -1.2866 0 1091.2 622.06)" stroke="#000"><path d="m141.11 782.71v0.01l5e-3 0.0105v0.015l5e-3 5e-3v0.015l5e-3 5e-3v0.025l5e-3 5e-3v0.025c0 0.0948-0.0738 0.14224-0.15278 0.14224-0.0527 0-0.13698-0.0316-0.18439-0.11064-0.0105-0.0263-0.0527-0.18966-0.0738-0.28449-0.0369-0.13697-0.0738-0.27395-0.10536-0.4162l-0.23708-0.94303c-0.0211-0.079-0.24762-0.44782-0.59533-0.44782-0.26868 0-0.32663 0.23182-0.32663 0.42674 0 0.24234 0.0896 0.56372 0.26868 1.0273 0.0843 0.21072 0.10537 0.26868 0.10537 0.37404 0 0.23708-0.16859 0.43201-0.43201 0.43201-0.49522 0-0.69015-0.75864-0.69015-0.80605 0-0.0527 0.0527-0.0527 0.0632-0.0527 0.0527 0 0.0579 0.0105 0.0843 0.0948 0.14225 0.48996 0.35298 0.64801 0.52684 0.64801 0.0421 0 0.13171 0 0.13171-0.16858 0-0.13172-0.0474-0.26869-0.0896-0.36879-0.20546-0.55317-0.30029-0.85347-0.30029-1.0958 0-0.46888 0.33191-0.62167 0.63747-0.62167 0.20547 0 0.38459 0.0843 0.5321 0.23182-0.0685-0.26869-0.1317-0.52684-0.34244-0.80606-0.13698-0.17912-0.33718-0.32664-0.57425-0.32664-0.0738 0-0.31083 0.0158-0.40039 0.216 0.0843 0 0.15278 0 0.22653 0.0632 0.0527 0.0474 0.10537 0.1159 0.10537 0.216 0 0.16332-0.14224 0.1844-0.19493 0.1844-0.12117 0-0.29503-0.0843-0.29503-0.34244 0-0.25816 0.23182-0.45309 0.55845-0.45309 0.53737 0 1.08 0.47416 1.2275 1.0642z"/><g transform="matrix(.51647 0 0 .51647 49.666 415.02)" stroke="#000" ns0:preamble="default_packages.tex" ns0:text="class\n" xml:space="preserve"><path d="m149.88 709.29v0.22l0.01 0.07v0.07l0.01 0.07 0.02 0.12v0.06l0.01 0.06 0.02 0.06 0.01 0.06 0.02 0.11 0.03 0.1 0.04 0.1 0.03 0.09 0.04 0.09 0.05 0.08 0.04 0.07 0.05 0.07 0.04 0.07 0.05 0.06 0.06 0.05 0.1 0.1 0.06 0.04 0.05 0.04 0.06 0.03 0.05 0.03 0.06 0.03 0.06 0.02 0.05 0.02 0.06 0.01 0.06 0.02 0.05 0.01h0.05l0.05 0.01h0.06c0.09 0 0.71-0.01 1.06-0.37-0.41-0.03-0.47-0.33-0.47-0.46 0-0.26 0.18-0.45 0.46-0.45 0.26 0 0.46 0.16 0.46 0.46 0 0.68-0.76 1.07-1.53 1.07-1.24 0-2.16-1.08-2.16-2.31 0-1.27 0.99-2.25 2.15-2.25 1.33 0 1.65 1.19 1.65 1.29s-0.1 0.1-0.13 0.1c-0.09 0-0.11-0.04-0.13-0.1-0.29-0.93-0.94-1.05-1.3-1.05-0.53 0-1.41 0.43-1.41 2.03z"/><path d="m154.9 714.02-1.43-0.11v-0.31c0.7 0 0.78-0.07 0.78-0.55v-5.17c0-0.45-0.11-0.45-0.78-0.45v-0.3c0.33 0.01 0.86 0.03 1.1 0.03 0.25 0 0.74-0.02 1.11-0.03v0.3c-0.67 0-0.78 0-0.78 0.45z"/><path d="m159.23 707.88v-0.04l0.01-0.03 0.01-0.04v-0.04l0.01-0.04 0.01-0.03 0.02-0.04 0.01-0.03 0.02-0.04 0.01-0.03 0.02-0.04 0.04-0.06 0.02-0.04 0.02-0.03 0.13-0.13 0.03-0.02 0.04-0.03 0.03-0.02 0.03-0.01 0.04-0.02 0.03-0.01 0.04-0.02 0.04-0.01h0.04l0.04-0.01h0.09c0.2 0 0.81 0.13 0.81 0.94v0.56h-0.25v-0.56c0-0.58-0.25-0.64-0.36-0.64-0.32 0-0.36 0.45-0.36 0.5v1.99c0 0.41 0 0.8-0.36 1.17-0.39 0.39-0.89 0.55-1.37 0.55-0.82 0-1.5-0.47-1.5-1.13 0-0.29 0.19-0.46 0.45-0.46 0.28 0 0.46 0.19 0.46 0.45 0 0.12-0.05 0.45-0.51 0.46 0.27 0.35 0.76 0.46 1.08 0.46 0.49 0 1.06-0.39 1.06-1.27v-1.57c0-0.95-0.72-1.29-1.17-1.29-0.49 0-0.9 0.35-0.9 0.85 0 0.55 0.42 1.37 2.07 1.43v0.21c-0.51-0.03-1.21-0.06-1.84-0.36-0.75-0.34-0.99-0.85-0.99-1.29 0-0.81 0.96-1.05 1.59-1.05 0.66 0 1.12 0.39 1.31 0.86z"/><path d="m162.96 709.05h0.02l0.03-0.01h0.03l0.06-0.02 0.2-0.05 0.04-0.02 0.05-0.02 0.04-0.01 0.05-0.03 0.08-0.04 0.05-0.03 0.16-0.12 0.03-0.04 0.04-0.04 0.03-0.04 0.03-0.05 0.01-0.02 0.01-0.03 0.01-0.02 0.02-0.03 0.01-0.02v-0.03l0.01-0.03 0.01-0.02 0.01-0.03v-0.06l0.01-0.04v-0.06c0-0.51-0.35-0.91-1.13-0.91-0.83 0-1.19 0.57-1.38 1.42-0.03 0.12-0.04 0.16-0.14 0.16-0.13 0-0.13-0.07-0.13-0.24v-1.32c0-0.16 0-0.23 0.11-0.23 0.05 0 0.06 0.01 0.25 0.19 0.02 0.02 0.02 0.04 0.2 0.23 0.43-0.41 0.88-0.42 1.09-0.42 1.15 0 1.61 0.66 1.61 1.38 0 0.52-0.3 0.82-0.42 0.94-0.33 0.32-0.72 0.4-1.14 0.48-0.56 0.11-1.22 0.23-1.22 0.81 0 0.35 0.26 0.76 1.11 0.76 1.1 0 1.15-0.9 1.17-1.21 0.01-0.09 0.1-0.09 0.12-0.09 0.13 0 0.13 0.06 0.13 0.24v1.01c0 0.17 0 0.24-0.11 0.24-0.05 0-0.07 0-0.2-0.12-0.03-0.04-0.13-0.13-0.17-0.16-0.38 0.28-0.79 0.28-0.94 0.28-1.21 0-1.59-0.67-1.59-1.23 0-0.34 0.16-0.62 0.43-0.84 0.31-0.26 0.59-0.32 1.31-0.46z"/><path d="m166.89 709.05h0.02l0.03-0.01h0.03l0.06-0.02 0.2-0.05 0.04-0.02 0.05-0.02 0.04-0.01 0.04-0.03 0.05-0.02 0.04-0.02 0.05-0.03 0.16-0.12 0.03-0.04 0.04-0.04 0.03-0.04 0.03-0.05 0.01-0.02 0.01-0.03 0.01-0.02 0.01-0.03 0.01-0.02 0.02-0.06 0.01-0.02v-0.03l0.01-0.03v-0.03l0.01-0.04v-0.06c0-0.51-0.35-0.91-1.13-0.91-0.84 0-1.2 0.57-1.38 1.42-0.03 0.12-0.04 0.16-0.14 0.16-0.13 0-0.13-0.07-0.13-0.24v-1.32c0-0.16 0-0.23 0.11-0.23 0.05 0 0.06 0.01 0.25 0.19 0.02 0.02 0.02 0.04 0.2 0.23 0.43-0.41 0.88-0.42 1.09-0.42 1.15 0 1.61 0.66 1.61 1.38 0 0.52-0.3 0.82-0.42 0.94-0.33 0.32-0.72 0.4-1.14 0.48-0.56 0.11-1.22 0.23-1.22 0.81 0 0.35 0.25 0.76 1.11 0.76 1.1 0 1.15-0.9 1.17-1.21 0.01-0.09 0.1-0.09 0.12-0.09 0.13 0 0.13 0.06 0.13 0.24v1.01c0 0.17 0 0.24-0.11 0.24-0.05 0-0.07 0-0.2-0.12-0.03-0.04-0.13-0.13-0.17-0.16-0.38 0.28-0.79 0.28-0.94 0.28-1.21 0-1.59-0.67-1.59-1.23 0-0.34 0.16-0.62 0.42-0.84 0.32-0.26 0.6-0.32 1.32-0.46z"/></g></g></g></g></g></g></g></g></g>
 </g>
</svg>
