<?xml version="1.0" encoding="UTF-8" standalone="no"?>
<!-- Created with Inkscape (http://www.inkscape.org/) -->

<svg width="111.88mm" height="80.873mm" version="1.1" viewBox="0 0 111.88 80.873" xmlns="http://www.w3.org/2000/svg" xmlns:ns0="http://www.iki.fi/pav/software/textext/">
 <defs>
  <marker id="a" overflow="visible" orient="auto">
   <path transform="matrix(-.4 0 0 -.4 -4 0)" d="m0 0 5-5-17.5 5 17.5 5z" fill-opacity=".67633" fill-rule="evenodd" stroke="#000" stroke-opacity=".67633" stroke-width="1pt"/>
  </marker>
  <marker id="b" overflow="visible" orient="auto">
   <path transform="matrix(-.4 0 0 -.4 -4 0)" d="m0 0 5-5-17.5 5 17.5 5z" fill-opacity=".67633" fill-rule="evenodd" stroke="#000" stroke-opacity=".67633" stroke-width="1pt"/>
  </marker>
  <marker id="d" overflow="visible" orient="auto">
   <path transform="matrix(-.4 0 0 -.4 -4 0)" d="m0 0 5-5-17.5 5 17.5 5z" fill-opacity=".3285" fill-rule="evenodd" stroke="#000" stroke-opacity=".3285" stroke-width="1pt"/>
  </marker>
  <marker id="c" overflow="visible" orient="auto">
   <path transform="matrix(-.4 0 0 -.4 -4 0)" d="m0 0 5-5-17.5 5 17.5 5z" fill-opacity=".3285" fill-rule="evenodd" stroke="#000" stroke-opacity=".3285" stroke-width="1pt"/>
  </marker>
 </defs>
 <g transform="translate(132.94 -3.3342)">
  <text x="35.246281" y="42.149555" fill="#000000" font-family="Verdana" font-size="10.583px" letter-spacing="0px" stroke-width=".26458" word-spacing="0px" style="line-height:1.25" xml:space="preserve"><tspan x="35.246281" y="51.80505" stroke-width=".26458"/></text>
  <text x="76.906807" y="21.511925" fill="#000000" font-family="Verdana" font-size="10.583px" letter-spacing="0px" stroke-width=".26458" word-spacing="0px" style="line-height:1.25" xml:space="preserve"><tspan x="76.906807" y="31.167419" stroke-width=".26458"/></text>
  <g transform="matrix(1.2512 0 0 -1.2512 -160.51 876.57)" fill-rule="evenodd" stroke="#000" stroke-miterlimit="10.433" stroke-width="1.1988" ns0:preamble="default_packages.tex" ns0:text="$p q$\n" xml:space="preserve"><g transform="matrix(1.5 0 0 -1.5 -165.9 1212.8)" fill-rule="evenodd" stroke="#000" stroke-miterlimit="10.433" ns0:preamble="default_packages.tex" ns0:text="$\\text{delete readjust}$\n" xml:space="preserve"><g transform="matrix(1.5 0 0 -1.5 -165.59 1212.8)" fill-rule="evenodd" stroke="#000" stroke-miterlimit="10.433" ns0:preamble="default_packages.tex" ns0:text="$delete readjust$\n" xml:space="preserve"><flowRoot fill="#000000" font-family="Verdana" font-size="40px" letter-spacing="0px" stroke="none" word-spacing="0px" style="line-height:1.25" xml:space="preserve"><flowRegion><rect x="78.929" y="457.16" width="60" height="76.429"/></flowRegion><flowPara/></flowRoot><g transform="matrix(.20006 0 0 .20006 165.85 418.79)" fill-rule="evenodd" stroke-miterlimit="10.433" stroke-width="8.9882" ns0:preamble="default_packages.tex" ns0:text="$f bias variance All functions Learnable functions$\n" xml:space="preserve"><path d="m155.58 661.29v140.65" fill="none" marker-end="url(#a)" stroke="#000" stroke-miterlimit="10.433" stroke-opacity=".67633" stroke-width=".64804"/><path d="m142.21 674.98h177.12" fill="none" marker-end="url(#b)" stroke="#000" stroke-miterlimit="10.433" stroke-opacity=".67633" stroke-width=".64804"/><ellipse transform="scale(1,-1)" cx="241.13" cy="-761.79" rx="2.3559" ry="2.3559" fill="#003186" fill-opacity=".5942" stroke="none"/><g transform="matrix(1.5 0 0 1.5 17.997 -402.96)" fill-rule="evenodd" stroke="#000" stroke-miterlimit="10.433" ns0:preamble="default_packages.tex" ns0:text="feature $x y$\n" xml:space="preserve"><g><g fill-opacity=".99517" stroke-width="0"><path d="m186.99 714.58v0.71485c0 0.54081 0.29838 0.83918 0.57188 0.83918 0.0124 0 0.10568 0 0.19892-0.0435-0.0746-0.0249-0.18648-0.10567-0.18648-0.26107 0-0.13676 0.0995-0.26108 0.26729-0.26108 0.18027 0 0.27351 0.12432 0.27351 0.26729 0 0.23-0.23 0.43513-0.55324 0.43513-0.43513 0-0.9635-0.32946-0.9635-0.98215v-0.70864h-0.49107v-0.1927h0.49107v-2.0016c0-0.27973-0.0684-0.27973-0.48486-0.27973v-0.18648c0.24243 6e-3 0.53459 0.0186 0.70865 0.0186 0.24864 0 0.53459 0 0.78323-0.0186v0.18648h-0.13054c-0.45378 0-0.46621 0.0684-0.46621 0.29216v1.9892h0.70242v0.1927z"/><path d="m188.48 713.35 6e-3 0.13054c0.0373 0.91999 0.55945 1.0754 0.7708 1.0754 0.64026 0 0.70242-0.83296 0.70242-1.0754h-1.4732l-6e-3 -0.13054h1.7343c0.13676 0 0.1554 0 0.1554 0.13054 0 0.60918-0.33566 1.2122-1.1127 1.2122-0.72107 0-1.2867-0.64026-1.2867-1.4111 0-0.82676 0.64648-1.4235 1.3613-1.4235 0.75837 0 1.0381 0.68378 1.0381 0.80189 0 0.0622-0.0497 0.0746-0.087 0.0746-0.0498 0-0.0622-0.0373-0.0746-0.087-0.21756-0.64026-0.77702-0.64026-0.83918-0.64026-0.31081 0-0.55945 0.18648-0.70242 0.41648-0.18649 0.29838-0.18649 0.70242-0.18649 0.9262z"/><path d="m192.62 712.39v-0.0249l6e-3 -0.0186v-0.0249l0.012-0.0498 6e-3 -0.0186 6e-3 -0.0249 0.0124-0.0186 6e-3 -0.0249 0.0124-0.0186 0.0124-0.0249 0.0248-0.0372 0.0124-0.0249 0.0248-0.0372 0.0186-0.0124 0.0124-0.0186 0.0186-0.0186 0.0372-0.0248 0.0186-0.0186 0.0249-0.0124 0.0186-6e-3 0.0186-0.0124 0.0249-6e-3 0.0249-0.0124 0.0249-6e-3h0.0249l0.0249-6e-3h0.0498c0.13054 0 0.50973 0.0808 0.50973 0.58431v0.34811h-0.15541v-0.34811c0-0.36053-0.1554-0.39783-0.22378-0.39783-0.20513 0-0.23 0.27973-0.23 0.31081v1.237c0 0.25486 0 0.49728-0.22378 0.72729-0.23621 0.24242-0.54702 0.34188-0.84539 0.34188-0.50973 0-0.93864-0.29216-0.93864-0.70242 0-0.18027 0.12432-0.28594 0.28594-0.28594 0.17405 0 0.28594 0.1181 0.28594 0.27972 0 0.0746-0.031 0.27973-0.31702 0.28595 0.16784 0.21756 0.47243 0.28594 0.67134 0.28594 0.30459 0 0.6527-0.24243 0.6527-0.78945v-0.97594c0-0.59053-0.44135-0.80188-0.72107-0.80188-0.30459 0-0.55946 0.21756-0.55946 0.52837 0 0.34188 0.26108 0.85162 1.2805 0.88891v0.13054c-0.31081-0.0186-0.74594-0.0373-1.1376-0.22378-0.46621-0.21135-0.62161-0.52837-0.62161-0.80188 0-0.50352 0.60297-0.6527 0.99459-0.6527 0.41025 0 0.6962 0.24243 0.81431 0.53459z"/><path d="m194.72 714.39h0.88891v0.1927h-0.88891v1.1313h-0.15541c-6e-3 -0.50351-0.1927-1.1624-0.80188-1.1873v-0.13675h0.52838v-1.7032c0-0.75838 0.5781-0.83297 0.80187-0.83297 0.44136 0 0.61541 0.43514 0.61541 0.83297v0.3481h-0.15541v-0.33567c0-0.46-0.18648-0.69621-0.41648-0.69621-0.41648 0-0.41648 0.56567-0.41648 0.67135z"/><path d="m198.48 712.41v-0.55324l0.89513 0.0684v0.18648c-0.43513 0-0.48487 0.0435-0.48487 0.3481v2.1943l-0.91377-0.0684v-0.1927c0.43514 0 0.48486-0.0435 0.48486-0.34811v-1.1003c0-0.53459-0.29838-0.95729-0.75216-0.95729-0.51594 0-0.54701 0.29216-0.54701 0.6154v2.0513l-0.90756-0.0684v-0.1927c0.48485 0 0.48485-0.0186 0.48485-0.57189v-0.9262c0-0.47864 0-1.0381 0.93865-1.0381 0.3481 0 0.62161 0.16784 0.80188 0.55324z"/><path d="m200.53 713.97v0.68379l-0.86405-0.0684v-0.1927c0.43514 0 0.48486-0.0435 0.48486-0.3481v-1.6535c0-0.27973-0.0684-0.27973-0.48486-0.27973v-0.18648c0.24244 6e-3 0.53459 0.0186 0.70865 0.0186 0.24864 0 0.5408 0 0.78945-0.0186v0.18648h-0.13054c-0.45999 0-0.47243 0.0684-0.47243 0.29216v0.95107c0 0.60919 0.26108 1.1624 0.73351 1.1624 0.0435 0 0.0559 0 0.0684-6e-3 -0.0186-6e-3 -0.14297-0.0808-0.14297-0.24242 0-0.17406 0.13053-0.2673 0.26729-0.2673 0.11189 0 0.2673 0.0746 0.2673 0.27351 0 0.19892-0.1927 0.37919-0.46 0.37919-0.45378 0-0.67756-0.41649-0.76458-0.68379z"/><path d="m202.61 713.35 6e-3 0.13054c0.0373 0.91999 0.55945 1.0754 0.7708 1.0754 0.64026 0 0.70242-0.83296 0.70242-1.0754h-1.4732l-6e-3 -0.13054h1.7343c0.13676 0 0.15541 0 0.15541 0.13054 0 0.60918-0.33567 1.2122-1.1127 1.2122-0.72108 0-1.2868-0.64026-1.2868-1.4111 0-0.82676 0.64648-1.4235 1.3613-1.4235 0.75837 0 1.0381 0.68378 1.0381 0.80189 0 0.0622-0.0497 0.0746-0.0808 0.0746-0.0559 0-0.0684-0.0373-0.0808-0.087-0.21756-0.64026-0.77701-0.64026-0.83918-0.64026-0.31081 0-0.55945 0.18648-0.70243 0.41648-0.18648 0.29838-0.18648 0.70242-0.18648 0.9262z"/><path d="m208.81 713.79v0.0124l0.012 0.0372 0.024 0.0996 0.0124 0.0311 6e-3 0.0249 0.0124 0.031 0.0248 0.0622 0.0124 0.031 0.0186 0.0311 0.0124 0.031 0.0372 0.0622 0.0186 0.0249 0.0249 0.031 0.0186 0.0249 0.0249 0.0311 0.0498 0.0498 0.0249 0.0186 0.031 0.0186 0.0311 0.0186 0.0124 6e-3 0.0186 0.0124 0.0186 6e-3 0.0124 6e-3 0.0186 6e-3h0.0186l0.0372 0.012h0.0372l0.0186 6e-3h0.0186c0.031 0 0.18028 0 0.31082-0.0808-0.17406-0.0311-0.29838-0.18649-0.29838-0.33568 0-0.0995 0.0684-0.21755 0.23621-0.21755 0.13675 0 0.33567 0.11188 0.33567 0.36053 0 0.32324-0.36675 0.41027-0.5781 0.41027-0.35431 0-0.57188-0.32946-0.64648-0.47243-0.1554 0.41026-0.49107 0.47243-0.67134 0.47243-0.64648 0-1.0008-0.80189-1.0008-0.95108 0-0.0622 0.0622-0.0622 0.0746-0.0622 0.0497 0 0.0684 0.0124 0.0808 0.0684 0.21135 0.65269 0.62161 0.8081 0.83296 0.8081 0.11811 0 0.33567-0.0559 0.33567-0.41649 0-0.1927-0.10567-0.60297-0.33567-1.467-0.0995-0.3854-0.31702-0.64648-0.59053-0.64648-0.0373 0-0.18027 0-0.31081 0.0808 0.15541 0.031 0.29216 0.16163 0.29216 0.33567 0 0.16785-0.13675 0.21757-0.23 0.21757-0.18648 0-0.34189-0.16162-0.34189-0.36054 0-0.28594 0.31081-0.40404 0.58432-0.40404 0.41027 0 0.63405 0.42891 0.6527 0.4662 0.0746-0.22999 0.29838-0.4662 0.67134-0.4662 0.63405 0 0.98837 0.79566 0.98837 0.95107 0 0.0622-0.0559 0.0622-0.0746 0.0622-0.0559 0-0.0684-0.0311-0.0808-0.0684-0.20513-0.66512-0.62162-0.81431-0.82053-0.81431-0.24243 0-0.34189 0.19892-0.34189 0.41027 0 0.13675 0.0373 0.2735 0.10568 0.5408z"/></g><g transform="matrix(1.5 0 0 1.5 -122.76 -371.37)" fill-rule="evenodd" stroke="#000" stroke-miterlimit="10.433" ns0:preamble="default_packages.tex" ns0:text="0 1\n" xml:space="preserve"><path d="m142.03 724.09v0.1258l-5e-3 0.0629v0.0629l-5e-3 0.0629-8e-3 0.0587-5e-3 0.0629-8e-3 0.0629-8e-3 0.0588-0.0126 0.0629-0.0126 0.0587-0.0169 0.0629-0.0168 0.0587-0.021 0.0588-0.0252 0.0587-0.0252 0.0586c-0.19304 0.39865-0.53713 0.46579-0.70918 0.46579-0.25178 0-0.55811-0.1091-0.73015-0.49516-0.13429-0.28955-0.15527-0.61267-0.15527-0.94838 0-0.31052 0.0168-0.68819 0.18883-1.0029 0.18045-0.33991 0.48678-0.41964 0.69239-0.41964v0.0923c-0.16365 0-0.41123 0.1007-0.48677 0.50355-0.0461 0.24759-0.0461 0.63364-0.0461 0.87703 0 0.26857 0 0.54132 0.0336 0.76793 0.0798 0.49516 0.39446 0.53293 0.49937 0.53293 0.13428 0 0.41124-0.0755 0.49098-0.48678 0.042-0.23499 0.042-0.54971 0.042-0.81408 0-0.31053 0-0.59588-0.0461-0.86024-0.0629-0.39866-0.30213-0.52034-0.48677-0.52034v-0.0923c0.2224 0 0.54133 0.0839 0.72597 0.48258 0.13428 0.28535 0.15526 0.61266 0.15526 0.93997z" fill-opacity=".90196" stroke-width="0"/><path d="m194.47 724.31v0.083l-5e-3 5e-3v0.01l-0.01 0.01v5e-3h-5e-3l-0.01 0.01h-0.015l-5e-3 5e-3h-0.065c-0.25598-0.26857-0.62526-0.26857-0.75954-0.26857v-0.12589c0.0839 0 0.33151 0 0.54972 0.10491v-2.1569c0-0.15108-0.0126-0.20143-0.39026-0.20143h-0.13428v-0.12589c0.14687 0.0126 0.51195 0.0126 0.67562 0.0126 0.16784 0 0.53292 0 0.6798-0.0126v0.12589h-0.13429c-0.37767 0-0.39026 0.0462-0.39026 0.20143z" fill-opacity=".90196" stroke-width="0"/><path d="m193.98 725.7v2.1241" fill-opacity=".74396" stroke="#000" stroke-miterlimit="10.433" stroke-opacity=".67451" stroke-width=".28802"/><g transform="matrix(0 .85774 -.85774 0 809.41 662.35)" fill-rule="evenodd" stroke="none"><path d="m141.11 782.71v0.01l5e-3 0.0105v0.015l5e-3 5e-3v0.015l5e-3 5e-3v0.025l5e-3 5e-3v0.025c0 0.0948-0.0738 0.14224-0.15278 0.14224-0.0527 0-0.13698-0.0316-0.18439-0.11064-0.0105-0.0263-0.0527-0.18966-0.0738-0.28449-0.0369-0.13697-0.0738-0.27395-0.10536-0.4162l-0.23708-0.94303c-0.0211-0.079-0.24762-0.44782-0.59533-0.44782-0.26868 0-0.32663 0.23182-0.32663 0.42674 0 0.24234 0.0896 0.56372 0.26868 1.0273 0.0843 0.21072 0.10537 0.26868 0.10537 0.37404 0 0.23708-0.16859 0.43201-0.43201 0.43201-0.49522 0-0.69015-0.75864-0.69015-0.80605 0-0.0527 0.0527-0.0527 0.0632-0.0527 0.0527 0 0.0579 0.0105 0.0843 0.0948 0.14225 0.48996 0.35298 0.64801 0.52684 0.64801 0.0421 0 0.13171 0 0.13171-0.16858 0-0.13172-0.0474-0.26869-0.0896-0.36879-0.20546-0.55317-0.30029-0.85347-0.30029-1.0958 0-0.46888 0.33191-0.62167 0.63747-0.62167 0.20547 0 0.38459 0.0843 0.5321 0.23182-0.0685-0.26869-0.1317-0.52684-0.34244-0.80606-0.13698-0.17912-0.33718-0.32664-0.57425-0.32664-0.0738 0-0.31083 0.0158-0.40039 0.216 0.0843 0 0.15278 0 0.22653 0.0632 0.0527 0.0474 0.10537 0.1159 0.10537 0.216 0 0.16332-0.14224 0.1844-0.19493 0.1844-0.12117 0-0.29503-0.0843-0.29503-0.34244 0-0.25816 0.23182-0.45309 0.55845-0.45309 0.53737 0 1.08 0.47416 1.2275 1.0642z"/><g transform="matrix(.51647 0 0 .51647 49.666 415.02)" stroke-miterlimit="10.433" ns0:preamble="default_packages.tex" ns0:text="class\n" xml:space="preserve"><path d="m149.88 709.29v0.22l0.01 0.07v0.07l0.01 0.07 0.02 0.12v0.06l0.01 0.06 0.02 0.06 0.01 0.06 0.02 0.11 0.03 0.1 0.04 0.1 0.03 0.09 0.04 0.09 0.05 0.08 0.04 0.07 0.05 0.07 0.04 0.07 0.05 0.06 0.06 0.05 0.1 0.1 0.06 0.04 0.05 0.04 0.06 0.03 0.05 0.03 0.06 0.03 0.06 0.02 0.05 0.02 0.06 0.01 0.06 0.02 0.05 0.01h0.05l0.05 0.01h0.06c0.09 0 0.71-0.01 1.06-0.37-0.41-0.03-0.47-0.33-0.47-0.46 0-0.26 0.18-0.45 0.46-0.45 0.26 0 0.46 0.16 0.46 0.46 0 0.68-0.76 1.07-1.53 1.07-1.24 0-2.16-1.08-2.16-2.31 0-1.27 0.99-2.25 2.15-2.25 1.33 0 1.65 1.19 1.65 1.29s-0.1 0.1-0.13 0.1c-0.09 0-0.11-0.04-0.13-0.1-0.29-0.93-0.94-1.05-1.3-1.05-0.53 0-1.41 0.43-1.41 2.03z"/><path d="m154.9 714.02-1.43-0.11v-0.31c0.7 0 0.78-0.07 0.78-0.55v-5.17c0-0.45-0.11-0.45-0.78-0.45v-0.3c0.33 0.01 0.86 0.03 1.1 0.03 0.25 0 0.74-0.02 1.11-0.03v0.3c-0.67 0-0.78 0-0.78 0.45z"/><path d="m159.23 707.88v-0.04l0.01-0.03 0.01-0.04v-0.04l0.01-0.04 0.01-0.03 0.02-0.04 0.01-0.03 0.02-0.04 0.01-0.03 0.02-0.04 0.04-0.06 0.02-0.04 0.02-0.03 0.13-0.13 0.03-0.02 0.04-0.03 0.03-0.02 0.03-0.01 0.04-0.02 0.03-0.01 0.04-0.02 0.04-0.01h0.04l0.04-0.01h0.09c0.2 0 0.81 0.13 0.81 0.94v0.56h-0.25v-0.56c0-0.58-0.25-0.64-0.36-0.64-0.32 0-0.36 0.45-0.36 0.5v1.99c0 0.41 0 0.8-0.36 1.17-0.39 0.39-0.89 0.55-1.37 0.55-0.82 0-1.5-0.47-1.5-1.13 0-0.29 0.19-0.46 0.45-0.46 0.28 0 0.46 0.19 0.46 0.45 0 0.12-0.05 0.45-0.51 0.46 0.27 0.35 0.76 0.46 1.08 0.46 0.49 0 1.06-0.39 1.06-1.27v-1.57c0-0.95-0.72-1.29-1.17-1.29-0.49 0-0.9 0.35-0.9 0.85 0 0.55 0.42 1.37 2.07 1.43v0.21c-0.51-0.03-1.21-0.06-1.84-0.36-0.75-0.34-0.99-0.85-0.99-1.29 0-0.81 0.96-1.05 1.59-1.05 0.66 0 1.12 0.39 1.31 0.86z"/><path d="m162.96 709.05h0.02l0.03-0.01h0.03l0.06-0.02 0.2-0.05 0.04-0.02 0.05-0.02 0.04-0.01 0.05-0.03 0.08-0.04 0.05-0.03 0.16-0.12 0.03-0.04 0.04-0.04 0.03-0.04 0.03-0.05 0.01-0.02 0.01-0.03 0.01-0.02 0.02-0.03 0.01-0.02v-0.03l0.01-0.03 0.01-0.02 0.01-0.03v-0.06l0.01-0.04v-0.06c0-0.51-0.35-0.91-1.13-0.91-0.83 0-1.19 0.57-1.38 1.42-0.03 0.12-0.04 0.16-0.14 0.16-0.13 0-0.13-0.07-0.13-0.24v-1.32c0-0.16 0-0.23 0.11-0.23 0.05 0 0.06 0.01 0.25 0.19 0.02 0.02 0.02 0.04 0.2 0.23 0.43-0.41 0.88-0.42 1.09-0.42 1.15 0 1.61 0.66 1.61 1.38 0 0.52-0.3 0.82-0.42 0.94-0.33 0.32-0.72 0.4-1.14 0.48-0.56 0.11-1.22 0.23-1.22 0.81 0 0.35 0.26 0.76 1.11 0.76 1.1 0 1.15-0.9 1.17-1.21 0.01-0.09 0.1-0.09 0.12-0.09 0.13 0 0.13 0.06 0.13 0.24v1.01c0 0.17 0 0.24-0.11 0.24-0.05 0-0.07 0-0.2-0.12-0.03-0.04-0.13-0.13-0.17-0.16-0.38 0.28-0.79 0.28-0.94 0.28-1.21 0-1.59-0.67-1.59-1.23 0-0.34 0.16-0.62 0.43-0.84 0.31-0.26 0.59-0.32 1.31-0.46z"/><path d="m166.89 709.05h0.02l0.03-0.01h0.03l0.06-0.02 0.2-0.05 0.04-0.02 0.05-0.02 0.04-0.01 0.04-0.03 0.05-0.02 0.04-0.02 0.05-0.03 0.16-0.12 0.03-0.04 0.04-0.04 0.03-0.04 0.03-0.05 0.01-0.02 0.01-0.03 0.01-0.02 0.01-0.03 0.01-0.02 0.02-0.06 0.01-0.02v-0.03l0.01-0.03v-0.03l0.01-0.04v-0.06c0-0.51-0.35-0.91-1.13-0.91-0.84 0-1.2 0.57-1.38 1.42-0.03 0.12-0.04 0.16-0.14 0.16-0.13 0-0.13-0.07-0.13-0.24v-1.32c0-0.16 0-0.23 0.11-0.23 0.05 0 0.06 0.01 0.25 0.19 0.02 0.02 0.02 0.04 0.2 0.23 0.43-0.41 0.88-0.42 1.09-0.42 1.15 0 1.61 0.66 1.61 1.38 0 0.52-0.3 0.82-0.42 0.94-0.33 0.32-0.72 0.4-1.14 0.48-0.56 0.11-1.22 0.23-1.22 0.81 0 0.35 0.25 0.76 1.11 0.76 1.1 0 1.15-0.9 1.17-1.21 0.01-0.09 0.1-0.09 0.12-0.09 0.13 0 0.13 0.06 0.13 0.24v1.01c0 0.17 0 0.24-0.11 0.24-0.05 0-0.07 0-0.2-0.12-0.03-0.04-0.13-0.13-0.17-0.16-0.38 0.28-0.79 0.28-0.94 0.28-1.21 0-1.59-0.67-1.59-1.23 0-0.34 0.16-0.62 0.42-0.84 0.32-0.26 0.6-0.32 1.32-0.46z"/></g></g></g></g><ellipse transform="scale(1,-1)" cx="107.01" cy="-750.52" rx="1.5706" ry="1.5706" fill="#003186" fill-opacity=".5942" fill-rule="evenodd" stroke="none"/><g stroke-miterlimit="10.433"><path d="m151.99 755.69c-8.6542-8.0536-21.799-10.981-41.726-6.1662" fill="none" marker-end="url(#d)" stroke="#000" stroke-opacity=".3285" stroke-width=".78712"/><path d="m155.05 762.32c0.65045 3.764-2.5909 9.5078-4.171 12.27" fill="none" marker-end="url(#c)" stroke="#000" stroke-opacity=".3285" stroke-width=".78712"/><g id="content" transform="matrix(.64084 0 0 .64084 57.781 303.35)" fill-opacity=".94203" fill-rule="evenodd" stroke-opacity="0" ns0:preamble="default_packages.tex" ns0:text="datapoints\n" xml:space="preserve"><path d="m152.5 707.67v-0.65l1.47 0.11v0.3c-0.7 0-0.78 0.07-0.78 0.56v6.03l-1.44-0.11v-0.31c0.7 0 0.78-0.07 0.78-0.55v-2.15c-0.29 0.36-0.72 0.62-1.26 0.62l0.05-0.22c0.34 0 0.76-0.15 1.07-0.6 0.11-0.17 0.11-0.19 0.11-0.37v-2.03c0-0.18 0-0.2-0.11-0.37-0.3-0.48-0.75-0.7-1.18-0.7-0.44 0-0.8 0.26-1.04 0.64-0.26 0.41-0.29 0.97-0.29 1.38 0 0.37 0.02 0.96 0.31 1.41 0.21 0.31 0.59 0.64 1.13 0.64l-0.05 0.22c-1.17 0-2.22-0.98-2.22-2.26 0-1.26 0.98-2.24 2.11-2.24 0.64 0 1.09 0.33 1.34 0.65z"/><path d="m157.57 707.88v-0.04l0.01-0.03 0.01-0.04v-0.04l0.01-0.04 0.01-0.03 0.02-0.04 0.01-0.03 0.02-0.04 0.01-0.03 0.02-0.04 0.04-0.06 0.02-0.04 0.02-0.03 0.13-0.13 0.03-0.02 0.04-0.03 0.03-0.02 0.03-0.01 0.04-0.02 0.03-0.01 0.04-0.02 0.04-0.01h0.04l0.04-0.01h0.09c0.2 0 0.81 0.13 0.81 0.94v0.56h-0.25v-0.56c0-0.58-0.25-0.64-0.36-0.64-0.32 0-0.36 0.45-0.36 0.5v1.99c0 0.41 0 0.8-0.36 1.17-0.39 0.39-0.89 0.55-1.37 0.55-0.82 0-1.5-0.47-1.5-1.13 0-0.29 0.19-0.46 0.45-0.46 0.28 0 0.46 0.19 0.46 0.45 0 0.12-0.05 0.45-0.51 0.46 0.27 0.35 0.76 0.46 1.08 0.46 0.49 0 1.06-0.39 1.06-1.27v-1.57c0-0.95-0.72-1.29-1.17-1.29-0.49 0-0.9 0.35-0.9 0.85 0 0.55 0.42 1.37 2.07 1.43v0.21c-0.51-0.03-1.21-0.06-1.84-0.36-0.75-0.34-0.99-0.85-0.99-1.29 0-0.81 0.96-1.05 1.59-1.05 0.66 0 1.12 0.39 1.31 0.86z"/><path d="m160.95 711.1h1.43v0.31h-1.43v1.82h-0.25c-0.01-0.81-0.3-1.87-1.28-1.91v-0.22h0.85v-2.74c0-1.22 0.92-1.34 1.28-1.34 0.71 0 0.99 0.7 0.99 1.34v0.56h-0.25v-0.54c0-0.74-0.3-1.12-0.67-1.12-0.67 0-0.67 0.91-0.67 1.08z"/><path d="m166.42 707.88 0.01-0.04v-0.03l0.03-0.12 0.01-0.03 0.01-0.04 0.02-0.03 0.01-0.04 0.02-0.03 0.02-0.04 0.01-0.03 0.02-0.03 0.03-0.04 0.04-0.06 0.03-0.02 0.02-0.03 0.03-0.03 0.06-0.04 0.03-0.03 0.03-0.02 0.04-0.01 0.03-0.02 0.04-0.01 0.04-0.02 0.03-0.01h0.04l0.05-0.01h0.08c0.21 0 0.82 0.13 0.82 0.94v0.56h-0.25v-0.56c0-0.58-0.25-0.64-0.36-0.64-0.33 0-0.37 0.45-0.37 0.5v1.99c0 0.41 0 0.8-0.36 1.17-0.39 0.39-0.89 0.55-1.36 0.55-0.82 0-1.51-0.47-1.51-1.13 0-0.29 0.2-0.46 0.46-0.46 0.28 0 0.46 0.19 0.46 0.45 0 0.12-0.05 0.45-0.51 0.46 0.27 0.35 0.76 0.46 1.08 0.46 0.49 0 1.05-0.39 1.05-1.27v-1.57c0-0.95-0.71-1.29-1.16-1.29-0.49 0-0.9 0.35-0.9 0.85 0 0.55 0.42 1.37 2.06 1.43v0.21c-0.5-0.03-1.2-0.06-1.83-0.36-0.75-0.34-1-0.85-1-1.29 0-0.81 0.97-1.05 1.6-1.05 0.65 0 1.11 0.39 1.3 0.86z"/><path d="m169.8 710.86v0.66l-1.44-0.11v-0.31c0.71 0 0.78-0.06 0.78-0.5v-4.65c0-0.44-0.11-0.44-0.78-0.44v-0.31c0.34 0.01 0.86 0.03 1.12 0.03 0.27 0 0.78-0.02 1.13-0.03v0.31c-0.67 0-0.78 0-0.78 0.44v1.76l0.14 0.13c-0.14 0.21-0.14 0.22-0.14 0.42v2.21c0.29 0.51 0.78 0.8 1.29 0.8 0.72 0 1.33-0.88 1.33-2 0-1.2-0.7-2.04-1.43-2.04-0.4 0-0.78 0.2-1.05 0.61l-0.14-0.13c0.05-0.16 0.47-0.69 1.23-0.69 1.18 0 2.22 0.97 2.22 2.25 0 1.26-0.97 2.25-2.08 2.25-0.78 0-1.2-0.44-1.4-0.66z"/><path d="m178.6 709.25-0.02 0.24-0.01 0.11-0.02 0.12-0.03 0.11-0.02 0.11-0.04 0.11-0.08 0.2-0.05 0.1-0.06 0.1-0.05 0.09-0.07 0.1-0.06 0.08-0.07 0.09-0.07 0.08-0.08 0.08-0.16 0.14-0.09 0.06-0.09 0.07-0.09 0.05-0.2 0.1-0.2 0.08-0.1 0.03-0.11 0.03-0.11 0.02-0.33 0.03-0.01-0.22c0.44 0 0.87-0.22 1.13-0.65s0.26-1 0.26-1.38c0-0.36 0-0.89-0.22-1.33-0.22-0.45-0.66-0.74-1.16-0.74-0.43 0-0.87 0.21-1.13 0.67-0.25 0.44-0.25 1.04-0.25 1.4 0 0.39 0 0.92 0.23 1.36 0.27 0.46 0.74 0.67 1.14 0.67l0.01 0.22c-1.24 0-2.21-1.09-2.21-2.33 0-1.28 1.03-2.23 2.2-2.23 1.21 0 2.22 0.97 2.22 2.23z"/><path d="m180.65 711.52-1.4-0.11v-0.31c0.65 0 0.74-0.06 0.74-0.55v-2.67c0-0.45-0.11-0.45-0.78-0.45v-0.3c0.32 0.01 0.86 0.03 1.1 0.03 0.34 0 0.69-0.02 1.03-0.03v0.3c-0.66 0-0.69 0.05-0.69 0.44z"/><path d="m180.68 713.24v0.09l-0.01 0.03v0.02l-0.02 0.06-0.02 0.04-0.01 0.03-0.01 0.02-0.02 0.02-0.01 0.02-0.04 0.04-0.01 0.02-0.02 0.01-0.02 0.02-0.02 0.01-0.02 0.02-0.03 0.01-0.06 0.03-0.03 0.01-0.02 0.01-0.03 0.01h-0.02l-0.03 0.01h-0.07c-0.31 0-0.53-0.27-0.53-0.53s0.22-0.52 0.53-0.52c0.27 0 0.52 0.21 0.52 0.52z"/><path d="m182.74 710.54v-2.66c0-0.45-0.11-0.45-0.77-0.45v-0.3c0.35 0.01 0.85 0.03 1.12 0.03 0.26 0 0.78-0.02 1.12-0.03v0.3c-0.67 0-0.78 0-0.78 0.45v1.83c0 1.03 0.71 1.59 1.35 1.59 0.63 0 0.74-0.54 0.74-1.1v-2.32c0-0.45-0.11-0.45-0.78-0.45v-0.3c0.35 0.01 0.86 0.03 1.13 0.03 0.26 0 0.77-0.02 1.11-0.03v0.3c-0.52 0-0.77 0-0.78 0.3v1.9c0 0.85 0 1.16-0.3 1.52-0.14 0.17-0.47 0.37-1.05 0.37-0.73 0-1.2-0.43-1.48-1.05v1.05l-1.4-0.11v-0.31c0.69 0 0.77-0.07 0.77-0.56z"/><path d="m188.63 711.1h1.42v0.31h-1.42v1.82h-0.25c-0.01-0.81-0.31-1.87-1.29-1.91v-0.22h0.85v-2.74c0-1.22 0.93-1.34 1.29-1.34 0.7 0 0.98 0.7 0.98 1.34v0.56h-0.25v-0.54c0-0.74-0.29-1.12-0.66-1.12-0.67 0-0.67 0.91-0.67 1.08z"/><path d="m192.85 709.05h0.02l0.03-0.01h0.03l0.06-0.02 0.2-0.05 0.04-0.02 0.05-0.02 0.04-0.01 0.05-0.03 0.08-0.04 0.05-0.03 0.16-0.12 0.03-0.04 0.04-0.04 0.03-0.04 0.03-0.05 0.01-0.02 0.01-0.03 0.01-0.02 0.01-0.03 0.01-0.02 0.02-0.06 0.01-0.02v-0.03l0.01-0.03v-0.03l0.01-0.04v-0.06c0-0.51-0.35-0.91-1.13-0.91-0.83 0-1.19 0.57-1.38 1.42-0.03 0.12-0.04 0.16-0.14 0.16-0.13 0-0.13-0.07-0.13-0.24v-1.32c0-0.16 0-0.23 0.11-0.23 0.05 0 0.06 0.01 0.25 0.19 0.02 0.02 0.02 0.04 0.19 0.23 0.44-0.41 0.89-0.42 1.1-0.42 1.15 0 1.61 0.66 1.61 1.38 0 0.52-0.3 0.82-0.42 0.94-0.33 0.32-0.72 0.4-1.14 0.48-0.56 0.11-1.22 0.23-1.22 0.81 0 0.35 0.26 0.76 1.11 0.76 1.1 0 1.15-0.9 1.17-1.21 0.01-0.09 0.1-0.09 0.12-0.09 0.13 0 0.13 0.06 0.13 0.24v1.01c0 0.17 0 0.24-0.11 0.24-0.05 0-0.07 0-0.2-0.12-0.03-0.04-0.13-0.13-0.17-0.16-0.38 0.28-0.79 0.28-0.94 0.28-1.21 0-1.59-0.67-1.59-1.23 0-0.34 0.16-0.62 0.43-0.84 0.31-0.26 0.59-0.32 1.31-0.46z"/></g></g></g></g></g></g></g>
 </g>
</svg>
