<svg width="140mm" height="110mm" version="1.1" viewBox="0 0 118.89 93.713" xmlns="http://www.w3.org/2000/svg" xmlns:ns0="http://www.iki.fi/pav/software/textext/">
 <defs>
  <marker id="c" overflow="visible" orient="auto">
   <path transform="matrix(.4 0 0 .4 4 0)" d="m0 0 5-5-17.5 5 17.5 5z" fill-opacity=".78431" fill-rule="evenodd" stroke="#000" stroke-opacity=".78431" stroke-width="1pt"/>
  </marker>
  <marker id="a" overflow="visible" orient="auto">
   <path transform="matrix(-.4 0 0 -.4 -4 0)" d="m0 0 5-5-17.5 5 17.5 5z" fill-rule="evenodd" stroke="#000" stroke-width="1pt"/>
  </marker>
  <marker id="b" overflow="visible" orient="auto">
   <path transform="matrix(-.4 0 0 -.4 -4 0)" d="m0 0 5-5-17.5 5 17.5 5z" fill-rule="evenodd" stroke="#000" stroke-width="1pt"/>
  </marker>
 </defs>
 <g transform="translate(-8.7381 -77.958)">
  <g transform="matrix(1.2506,0,0,-1.2506,-72.165,1072.2)" fill-rule="evenodd" stroke="#000" stroke-miterlimit="10.433" ns0:preamble="default_packages.tex" ns0:text="$x$\n$y$\n" xml:space="preserve"><g transform="matrix(.79961 0 0 -.79961 58.988 860.59)"><g transform="matrix(1.2506,0,0,-1.2506,-72.165,1072.2)" fill-rule="evenodd" stroke="#000" stroke-miterlimit="10.433" ns0:preamble="default_packages.tex" ns0:text="$x$\n$y$\n" xml:space="preserve"><path d="m106.86 743.3c-1.5342-1.2526-3.168-2.3696-4.8347-3.4521-0.22965-0.33724-0.0493-0.79841-0.10643-1.187v-15.898c0.12743-0.41555 0.68035-0.17124 1.0074-0.23666 1.375 0.0138 2.7603-0.0277 4.1288 0.0208 0.34596 0.16944 0.12 0.66139 0.18469 0.97316v19.587c-0.0251 0.18882-0.20983 0.2818-0.37971 0.19228z" fill="#050000" fill-opacity=".091787" stroke="none"/><path d="m69.613 717.63v73.667" fill="none" marker-end="url(#a)" stroke="#000" stroke-width=".23988"/><path d="m65.368 722.62h92.182" fill="none" marker-end="url(#b)" stroke="#000" stroke-width=".23988"/><g transform="matrix(1.5,0,0,1.5,-311.17,-218.43)" fill-rule="evenodd" stroke-opacity="0" ns0:preamble="default_packages.tex" ns0:text="$x$\n$y$\n$\\langle y \\rangle$\n$\\langle x \\rangle$\n$\\text{Point of averages}$\n$\\text{Regression line}$\n$\\text{SD line}$\n$\\rho(x,y)\\sigma_y$\n$\\sigma_x$\n" xml:space="preserve"><g transform="matrix(0 .2397 -.2397 0 296.49 630.46)" stroke-width="4.1719"><g transform="matrix(1.5,0,0,1.5,-66.692,-876.07)" fill-rule="evenodd" stroke="#000" stroke-miterlimit="10.433" stroke-opacity="1" stroke-width="0" ns0:preamble="default_packages.tex" ns0:text="$pdf$\n" xml:space="preserve"><path d="m149.16 705.91-0.01-0.03v-0.03l-0.01-0.03-0.01-0.02v-0.03l-0.03-0.06v-0.02l-0.02-0.04-0.01-0.01-0.01-0.02-0.01-0.01-0.01-0.02-0.01-0.01-0.02-0.01-0.01-0.01-0.02-0.01h-0.02l-0.01-0.01-0.02-0.01h-0.03l-0.02-0.01h-0.04l-0.01-0.01h-0.21c-0.12 0-0.23 0-0.23-0.19 0-0.08 0.05-0.12 0.13-0.12 0.27 0 0.56 0.03 0.84 0.03 0.33 0 0.67-0.03 0.99-0.03 0.05 0 0.18 0 0.18 0.2 0 0.11-0.1 0.11-0.24 0.11-0.5 0-0.5 0.07-0.5 0.15 0 0.12 0.42 1.74 0.49 1.99 0.13-0.29 0.41-0.63 0.92-0.63l-0.02 0.21c-0.65 0-0.78 0.83-0.78 0.89 0 0.02 0 0.04 0.03 0.16l0.49 1.94c0.07 0.27 0.34 0.55 0.51 0.7 0.35 0.31 0.64 0.38 0.81 0.38 0.4 0 0.64-0.35 0.64-0.94 0-0.58-0.33-1.72-0.51-2.1-0.34-0.7-0.82-1.03-1.19-1.03l0.02-0.21c1.15 0 2.4 1.45 2.4 2.91 0 0.93-0.57 1.59-1.33 1.59-0.5 0-0.98-0.36-1.3-0.75-0.1 0.54-0.53 0.75-0.9 0.75-0.46 0-0.65-0.39-0.74-0.57-0.18-0.34-0.31-0.93-0.31-0.96 0-0.1 0.1-0.1 0.12-0.1 0.1 0 0.11 0.01 0.17 0.22 0.17 0.71 0.37 1.19 0.73 1.19 0.17 0 0.31-0.08 0.31-0.46 0-0.23-0.03-0.34-0.07-0.51z"/><path d="m158.87 713.91v0.03h-0.01v0.02l-0.01 0.01v0.01h-0.01v0.01h-0.01v0.01h-0.01l-0.01 0.01h-0.03v0.01h-0.04c-0.15 0-1.1-0.09-1.27-0.11-0.08-0.01-0.14-0.06-0.14-0.19 0-0.12 0.09-0.12 0.24-0.12 0.48 0 0.5-0.07 0.5-0.17l-0.03-0.2-0.6-2.35c-0.18 0.37-0.46 0.64-0.91 0.64-1.17 0-2.41-1.47-2.41-2.92 0-0.93 0.55-1.58 1.33-1.58l0.02 0.21c-0.5 0-0.64 0.55-0.64 0.94 0 0.49 0.32 1.72 0.55 2.17 0.31 0.59 0.76 0.96 1.16 0.96 0.64 0 0.78-0.82 0.78-0.88s-0.02-0.12-0.03-0.17l-0.49-1.94c-0.05-0.18-0.05-0.2-0.2-0.37-0.44-0.55-0.85-0.71-1.13-0.71l-0.02-0.21c0.2 0 0.7 0.03 1.3 0.74 0.08-0.42 0.43-0.74 0.9-0.74 0.35 0 0.58 0.22 0.74 0.54 0.17 0.36 0.3 0.97 0.3 0.99 0 0.1-0.09 0.1-0.12 0.1-0.1 0-0.11-0.05-0.14-0.18-0.17-0.65-0.35-1.24-0.76-1.24-0.27 0-0.3 0.26-0.3 0.46 0 0.24 0.02 0.31 0.06 0.48z"/><path d="m160.91 711.1h0.85c0.2 0 0.3 0 0.3 0.2 0 0.11-0.1 0.11-0.27 0.11h-0.83l0.22 1.13c0.03 0.21 0.17 0.91 0.23 1.03 0.09 0.19 0.26 0.34 0.47 0.34 0.04 0 0.3 0 0.49-0.18-0.44-0.04-0.54-0.39-0.54-0.53 0-0.23 0.18-0.35 0.37-0.35 0.26 0 0.55 0.22 0.55 0.59 0 0.46-0.46 0.69-0.87 0.69-0.34 0-0.96-0.18-1.26-1.16-0.06-0.21-0.09-0.31-0.33-1.56h-0.69c-0.19 0-0.3 0-0.3-0.19 0-0.12 0.09-0.12 0.28-0.12h0.66l-0.75-3.93c-0.18-0.96-0.35-1.86-0.87-1.86-0.04 0-0.29 0-0.48 0.18 0.46 0.03 0.55 0.38 0.55 0.53 0 0.23-0.18 0.35-0.37 0.35-0.26 0-0.55-0.22-0.55-0.6 0-0.44 0.44-0.68 0.85-0.68 0.55 0 0.95 0.58 1.13 0.96 0.32 0.63 0.55 1.83 0.56 1.9z"/></g></g></g><g fill="none" stroke="#000" stroke-dasharray="1.16743599, 0.291859" stroke-opacity=".31373" stroke-width=".29186"><path d="m130.98 773.31v-50.543"/></g><g transform="matrix(.79961 0 0 -.79961 -41.225 831.43)" stroke-width=".7"><g transform="matrix(1.2506,0,0,-1.2506,-72.165,1072.2)" fill-rule="evenodd" stroke="#000" stroke-miterlimit="10.433" stroke-width=".55973" ns0:preamble="default_packages.tex" ns0:text="$x$\n$y$\n" xml:space="preserve"><g fill="none" stroke="#000" stroke-miterlimit="10.433" stroke-opacity=".62745" stroke-width=".55973"><path d="m173.55 757.14c46.915 5.2712 46.177 41.939 56.124 42.137 10.284-0.0297 5.0536-41.064 17.877-41.285" fill="none" stroke="#003c88" stroke-miterlimit="10.433" stroke-opacity=".58454" stroke-width=".55973"/></g></g></g><g stroke="#000"><path d="m101.82 739.77v-17.054" fill="#050000" fill-opacity=".033816" stroke-opacity=".38647" stroke-width=".21157px"/><path d="m107.34 743.66v-20.98" fill="#050000" fill-opacity=".033816" stroke-opacity=".38647" stroke-width=".21157px"/><g transform="matrix(.31024 0 0 .31024 19.886 514.75)" fill-rule="evenodd" stroke-miterlimit="10.433" stroke-width="0" ns0:preamble="default_packages.tex" ns0:text="$$p(x)dx$$\n" xml:space="preserve"><g fill-opacity=".78431"><path d="m291.59 693.18-0.0369-0.1107v-0.0369l-0.0123-0.0246-0.0123-0.0369v-0.0246l-0.0369-0.0738v-0.0123l-0.0123-0.0246-0.0123-0.0123-0.0123-0.0246-0.0246-0.0123-0.0246-0.0246-0.0246-0.0123-0.0123-0.0123-0.0492-0.0246h-0.0246l-0.0246-0.0123h-0.0246l-0.0369-0.0123h-0.0861l-0.0246-0.0123h-0.1722c-0.14764 0-0.28298 0-0.28298-0.23377 0-0.0984 0.0615-0.14764 0.15995-0.14764 0.33219 0 0.68899 0.0369 1.0335 0.0369 0.39371 0 0.81203-0.0369 1.2057-0.0369 0.0615 0 0.22146 0 0.22146 0.24607 0 0.13534-0.12304 0.13534-0.29528 0.13534-0.61517 0-0.61517 0.0861-0.61517 0.19685 0 0.14764 0.51674 2.1408 0.60286 2.4484 0.15995-0.3568 0.50444-0.78742 1.1319-0.78742l-0.0123 0.27068c-0.81202 0-0.97197 1.0089-0.97197 1.0827 0 0.0246 0 0.0492 0.0369 0.19686l0.60287 2.3992c0.0861 0.33219 0.41832 0.67669 0.63978 0.86124 0.43062 0.3691 0.78741 0.45523 0.99657 0.45523 0.49214 0 0.78742-0.43062 0.78742-1.1442 0-0.7259-0.40601-2.1285-0.62747-2.596-0.41832-0.84893-1.0089-1.2549-1.4641-1.2549l0.0123-0.27068c1.4272 0 2.9528 1.784 2.9528 3.5803 0 1.1565-0.70129 1.9562-1.624 1.9562-0.61517 0-1.2057-0.44292-1.6117-0.91045-0.12304 0.65208-0.65208 0.91045-1.1073 0.91045-0.55365 0-0.78742-0.47983-0.89815-0.70129-0.22146-0.40602-0.3814-1.1442-0.3814-1.1811 0-0.12303 0.12303-0.12303 0.14764-0.12303 0.12303 0 0.12303 0.0123 0.19685 0.28297 0.22146 0.86124 0.45523 1.4518 0.89815 1.4518 0.20916 0 0.38141-0.0984 0.38141-0.55366 0-0.28298-0.0369-0.41831-0.0861-0.62747z"/><path d="m301.26 691.74v0.0246l-0.0123 0.0123v0.0123l-0.0246 0.0246v0.0123h-0.0123v0.0123l-0.0738 0.0738v0.0123h-0.0123v0.0123h-0.0123l-0.0123 0.0123v0.0123h-0.0123l-0.0123 0.0123v0.0123l-0.0123 0.0123h-0.0123c-1.5379 1.5502-1.9193 3.851-1.9193 5.7211 0 2.1285 0.45522 4.257 1.9685 5.7826 0.15995 0.14764 0.15995 0.17225 0.15995 0.20916 0 0.0861-0.0492 0.12303-0.12304 0.12303-0.12303 0-1.2303-0.82433-1.9562-2.3869-0.61517-1.3411-0.76281-2.6944-0.76281-3.7279 0-0.94736 0.13534-2.4238 0.79972-3.814 0.73821-1.501 1.7963-2.2884 1.9193-2.2884 0.0738 0 0.12304 0.0369 0.12304 0.12304z"/><path d="m306.06 698.36 0.0369 0.1107v0.0369l0.0246 0.0492 0.0123 0.0492 0.0123 0.0615 0.0123 0.0492 0.0492 0.123 0.0246 0.0492 0.0738 0.1845 0.1476 0.246 0.0369 0.0492 0.0492 0.0615 0.0492 0.0492 0.0369 0.0492 0.0615 0.0492 0.0492 0.0492 0.123 0.0738 0.0246 0.0123 0.0369 0.0123 0.0246 0.0123 0.1476 0.0492h0.0369l0.0369 0.0123h0.1107c0.0615 0 0.3568 0 0.61517-0.15995-0.3445-0.0615-0.59056-0.3691-0.59056-0.65208 0-0.19685 0.13533-0.43062 0.46753-0.43062 0.27067 0 0.66438 0.22146 0.66438 0.7136 0 0.62747-0.7259 0.79972-1.1442 0.79972-0.71359 0-1.1442-0.65208-1.2918-0.92275-0.29529 0.79972-0.95967 0.92275-1.3165 0.92275-1.2796 0-1.9808-1.5748-1.9808-1.8824 0-0.12303 0.12304-0.12303 0.14765-0.12303 0.0984 0 0.13533 0.0246 0.15994 0.13533 0.41832 1.2919 1.2303 1.5994 1.6487 1.5994 0.23376 0 0.66438-0.11074 0.66438-0.81203 0-0.3814-0.20916-1.2057-0.66438-2.9159-0.19686-0.75051-0.62748-1.2672-1.1688-1.2672-0.0738 0-0.3568 0-0.61517 0.15994 0.30759 0.0615 0.57826 0.31989 0.57826 0.66438 0 0.31989-0.27067 0.41832-0.45522 0.41832-0.36911 0-0.67669-0.31989-0.67669-0.7013 0-0.56595 0.61517-0.81202 1.1565-0.81202 0.81202 0 1.255 0.86124 1.2919 0.93506 0.14764-0.45523 0.59056-0.93506 1.3165-0.93506 1.2672 0 1.9685 1.5748 1.9685 1.8824 0 0.12303-0.11073 0.12303-0.14764 0.12303-0.11073 0-0.13533-0.0492-0.15994-0.13533-0.40601-1.3042-1.2426-1.5994-1.6364-1.5994-0.46753 0-0.66439 0.3937-0.66439 0.79972 0 0.27067 0.0738 0.54135 0.19686 1.0827z"/><path d="m312.52 697.72v0.2829l-0.0123 0.0984v0.20915l-0.0246 0.22147-0.0123 0.22146-0.0246 0.23376-0.0369 0.23377-0.0369 0.24606-0.0492 0.25838-0.0615 0.24606-0.0615 0.25837-0.0861 0.25838-0.0738 0.27067-0.0984 0.25837-0.0615 0.13534-0.0492 0.12303-0.0615 0.13534-0.0615 0.12304c-0.7382 1.501-1.7963 2.3007-1.9193 2.3007-0.0738 0-0.11073-0.0492-0.11073-0.12303 0-0.0369 0-0.0615 0.23377-0.28298 1.1934-1.2057 1.8947-3.1497 1.8947-5.7088 0-2.0793-0.45523-4.2324-1.9808-5.7703-0.14764-0.14764-0.14764-0.17225-0.14764-0.20916 0-0.0738 0.0369-0.12304 0.11073-0.12304 0.12304 0 1.2303 0.82433 1.9562 2.3746 0.62748 1.3534 0.77512 2.7068 0.77512 3.7279z"/><path d="m320.07 703.02v0.0246h-0.0123v0.0246l-0.0123 0.0123v0.0123h-0.0123v0.0123h-0.0123v0.0123h-0.0123v0.0123h-0.0246l-0.0123 0.0123h-0.0615c-0.18455 0-1.3534-0.11073-1.5625-0.12303-0.0984-0.0123-0.17225-0.0738-0.17225-0.23377 0-0.14764 0.11073-0.14764 0.29528-0.14764 0.59057 0 0.61517-0.0861 0.61517-0.20916l-0.0369-0.24606-0.7382-2.9036c-0.22146 0.45523-0.57826 0.78742-1.1319 0.78742-1.4272 0-2.9528-1.7963-2.9528-3.5803 0-1.1442 0.67669-1.9562 1.6364-1.9562l0.0246 0.27068c-0.61517 0-0.78742 0.67668-0.78742 1.1442 0 0.61517 0.39371 2.1162 0.67669 2.6821 0.3814 0.7136 0.93506 1.1688 1.4149 1.1688 0.79972 0 0.97197-0.99658 0.97197-1.0704 0-0.0738-0.0246-0.14764-0.0369-0.20916l-0.61517-2.3992c-0.0615-0.22146-0.0615-0.24607-0.24607-0.45523-0.52905-0.66438-1.0335-0.86123-1.378-0.86123l-0.0246-0.27068c0.24607 0 0.84894 0.0492 1.5871 0.92276 0.0984-0.51675 0.52905-0.92276 1.1196-0.92276 0.43062 0 0.7136 0.28298 0.91045 0.67669 0.20916 0.44292 0.3691 1.1811 0.3691 1.2057 0 0.12303-0.11073 0.12303-0.14764 0.12303-0.12303 0-0.13533-0.0492-0.17224-0.22146-0.20916-0.79972-0.43062-1.5133-0.93506-1.5133-0.33219 0-0.3691 0.31988-0.3691 0.56595 0 0.28298 0.0246 0.3691 0.0738 0.57826z"/><path d="m324.22 698.36v0.0369l0.0369 0.1107 0.0246 0.0984 0.0123 0.0615 0.0246 0.0492 0.0246 0.0615 0.0123 0.0615 0.0246 0.0492 0.0492 0.123 0.0369 0.0615 0.0246 0.0615 0.1107 0.1845 0.0492 0.0492 0.0369 0.0615 0.1968 0.1968 0.123 0.0738 0.0369 0.0123 0.0246 0.0123 0.0369 0.0123 0.0246 0.0123 0.1107 0.0369h0.0369l0.0369 0.0123h0.123c0.0492 0 0.34449 0 0.60286-0.15995-0.33219-0.0615-0.59056-0.3691-0.59056-0.65208 0-0.19685 0.14764-0.43062 0.46753-0.43062 0.27068 0 0.66438 0.22146 0.66438 0.7136 0 0.62747-0.7259 0.79972-1.1442 0.79972-0.7013 0-1.1319-0.65208-1.2796-0.92275-0.30758 0.79972-0.97196 0.92275-1.3288 0.92275-1.2796 0-1.9686-1.5748-1.9686-1.8824 0-0.12303 0.12304-0.12303 0.14764-0.12303 0.0861 0 0.12304 0.0246 0.15995 0.13533 0.40601 1.2919 1.218 1.5994 1.6364 1.5994 0.23376 0 0.66438-0.11074 0.66438-0.81203 0-0.3814-0.20915-1.2057-0.66438-2.9159-0.19685-0.75051-0.62747-1.2672-1.1688-1.2672-0.0738 0-0.3445 0-0.61517 0.15994 0.30758 0.0615 0.57826 0.31989 0.57826 0.66438 0 0.31989-0.27068 0.41832-0.45523 0.41832-0.3568 0-0.66438-0.31989-0.66438-0.7013 0-0.56595 0.61517-0.81202 1.1442-0.81202 0.81203 0 1.255 0.86124 1.2919 0.93506 0.14764-0.45523 0.59056-0.93506 1.3288-0.93506 1.2672 0 1.9562 1.5748 1.9562 1.8824 0 0.12303-0.11073 0.12303-0.14764 0.12303-0.11073 0-0.13534-0.0492-0.15995-0.13533-0.40601-1.3042-1.2303-1.5994-1.624-1.5994-0.47983 0-0.67668 0.3937-0.67668 0.79972 0 0.27067 0.0738 0.54135 0.20916 1.0827z"/><path d="m215.76 656.43v0.0369l0.0369 0.1107 0.0246 0.0984 0.0123 0.0615 0.0246 0.0492 0.0246 0.0615 0.0123 0.0615 0.0246 0.0492 0.0492 0.123 0.0369 0.0615 0.0246 0.0615 0.1107 0.1845 0.0492 0.0492 0.0369 0.0615 0.1968 0.1968 0.123 0.0738 0.0369 0.0123 0.0246 0.0123 0.0369 0.0123 0.0246 0.0123 0.1107 0.0369h0.0369l0.0369 0.0123h0.123c0.0492 0 0.34449 0 0.60286-0.15995-0.33219-0.0615-0.59056-0.3691-0.59056-0.65208 0-0.19685 0.14764-0.43062 0.46753-0.43062 0.27068 0 0.66438 0.22146 0.66438 0.7136 0 0.62747-0.7259 0.79972-1.1442 0.79972-0.7013 0-1.1319-0.65208-1.2796-0.92275-0.30758 0.79972-0.97196 0.92275-1.3288 0.92275-1.2796 0-1.9686-1.5748-1.9686-1.8824 0-0.12303 0.12304-0.12303 0.14764-0.12303 0.0861 0 0.12304 0.0246 0.15995 0.13533 0.40601 1.2919 1.218 1.5994 1.6364 1.5994 0.23376 0 0.66438-0.11074 0.66438-0.81203 0-0.3814-0.20915-1.2057-0.66438-2.9159-0.19685-0.75051-0.62747-1.2672-1.1688-1.2672-0.0738 0-0.3445 0-0.61517 0.15994 0.30758 0.0615 0.57826 0.31989 0.57826 0.66438 0 0.31989-0.27068 0.41832-0.45523 0.41832-0.3568 0-0.66438-0.31989-0.66438-0.7013 0-0.56595 0.61517-0.81202 1.1442-0.81202 0.81203 0 1.255 0.86124 1.2919 0.93506 0.14764-0.45523 0.59056-0.93506 1.3288-0.93506 1.2672 0 1.9562 1.5748 1.9562 1.8824 0 0.12303-0.11073 0.12303-0.14764 0.12303-0.11073 0-0.13534-0.0492-0.15995-0.13533-0.40601-1.3042-1.2303-1.5994-1.624-1.5994-0.47983 0-0.67668 0.3937-0.67668 0.79972 0 0.27067 0.0738 0.54135 0.20916 1.0827z" fill-rule="evenodd" stroke-miterlimit="10.433"/></g><g transform="matrix(1.9114 0 0 1.9114 -226.77 -676.28)" fill-rule="evenodd" stroke="#000" stroke-miterlimit="10.433" ns0:preamble="default_packages.tex" ns0:text="$$\\mathbb{E}{[X]}$$\n" xml:space="preserve"><path d="m299.23 699.26h0.152l0.0321-8e-3h0.1041l0.1122-0.016 0.0641-8e-3 0.0561-8e-3 0.0321-8e-3 0.024-8e-3 0.0642-0.016 0.024-8e-3 0.0321-8e-3 0.0321-0.016 0.024-8e-3 0.0321-0.016 0.024-8e-3 0.024-0.016 0.0321-0.016-0.0321 0.32861v8e-3c0.12824 0.0561 0.30457 0.16831 0.44883 0.33663v-0.66524c-0.19235 0.2164-0.44081 0.3206-0.44883 0.3206l0.0321-0.32861c0.38472-0.24846 0.41677-0.67325 0.41677-0.72134 8e-3 -0.11221 8e-3 -0.2164 0.14427-0.2164 0.13626 0 0.13626 0.1122 0.13626 0.25647v2.156c0 0.12823 0 0.25647-0.13626 0.25647-0.13625 0-0.14427-0.12022-0.14427-0.18434-0.0481-1.0259-0.8656-1.082-1.2824-1.098v1.6831c0 0.53699 0.15229 0.53699 0.34464 0.53699h0.38472c1.074 0 1.611-0.55302 1.6591-1.098 8e-3 -0.0641 0.016-0.18435 0.14427-0.18435 0.13625 0 0.13625 0.12824 0.13625 0.25648v1.0419c0 0.24847-0.016 0.25648-0.26449 0.25648l-0.016-0.27251v-0.38471c-0.13625 0.15228-0.28854 0.28052-0.45685 0.38471h0.45685l0.016 0.27251h-4.0876c-0.14427 0-0.27251 0-0.27251-0.13625 0-0.13626 0.15228-0.13626 0.2164-0.13626 0.44884 0 0.48891-0.0641 0.48891-0.45684v-3.9914l0.27251-0.016v4.0235c0 0.0962 0 0.29655-0.0641 0.44081h0.84958c-0.0882-0.18434-0.0882-0.44883-0.0882-0.52096v-3.8632c0-0.28052 0.0561-0.44082 0.0882-0.51295h-0.84958c0.0641 0.14427 0.0641 0.34464 0.0641 0.4328l-0.27251 0.016c0-0.36868-0.024-0.44883-0.44883-0.44883-0.12023 0-0.25648 0-0.25648-0.13626 0-0.14426 0.12824-0.14426 0.27251-0.14426h4.2319l8e-3 0.28052h-0.56104v8e-3c0.25648 0.12824 0.47288 0.29655 0.63318 0.43281-8e-3 -0.0321-0.0641-0.3767-0.0721-0.44082l-8e-3 -0.28052c0.15228 0 0.23243 0 0.25647 0.11221 8e-3 8e-3 0.23244 1.3385 0.23244 1.3786 0 0.0882-0.0721 0.14426-0.13626 0.14426-0.11221 0-0.14427-0.10419-0.14427-0.1122-0.0481-0.20839-0.12823-0.54502-0.71332-0.88164-0.40876-0.24846-0.81752-0.36067-1.2583-0.36067h-0.44082c-0.19235 0-0.34464 0-0.34464 0.52898z"/><polygon transform="matrix(.80149 0 0 .80149 60.705 139.41)" points="304.2 702.62 302.84 702.62 302.84 692.69 304.2 692.69 304.2 693.08 303.24 693.08 303.24 702.22 304.2 702.22"/><path d="m308.57 699.85-0.66523 1.587c-0.024 0.0641-0.0401 0.0962-0.0401 0.10419 0 0.0481 0.13626 0.20038 0.46487 0.23243 0.0801 8e-3 0.16029 0.016 0.16029 0.15229 0 0.0962-0.0962 0.0962-0.12022 0.0962-0.3206 0-0.66524-0.0321-1.0019-0.0321-0.20037 0-0.6973 0.0321-0.89767 0.0321-0.0481 0-0.14427 0-0.14427-0.1603 0-0.0882 0.0802-0.0882 0.18435-0.0882 0.48089 0 0.52898-0.0801 0.60111-0.25647l0.93774-2.2201-1.6831-1.8114-0.1042-0.0882c-0.39272-0.41678-0.76942-0.54502-1.1702-0.56906-0.10419-8e-3 -0.17633-8e-3 -0.17633-0.1603 0-8e-3 0-0.0882 0.1042-0.0882 0.24044 0 0.49692 0.024 0.74538 0.024 0.29655 0 0.60913-0.024 0.89767-0.024 0.0481 0 0.14427 0 0.14427 0.16029 0 0.0802-0.0802 0.0882-0.0962 0.0882-0.0721 8e-3 -0.3206 0.024-0.3206 0.24846 0 0.12824 0.12023 0.24846 0.21641 0.35266l0.81751 0.8656 0.72134 0.77745 0.80149-1.8995c0.0321-0.0882 0.0401-0.0962 0.0401-0.11221 0-0.0641-0.15229-0.20037-0.46487-0.23243-0.0882-8e-3 -0.16029-0.016-0.16029-0.15228 0-0.0962 0.0882-0.0962 0.12022-0.0962 0.22442 0 0.78546 0.024 1.0099 0.024 0.20038 0 0.68929-0.024 0.88966-0.024 0.0561 0 0.15228 0 0.15228 0.15228 0 0.0962-0.0802 0.0962-0.14427 0.0962-0.537 8e-3 -0.55302 0.0321-0.68928 0.34464-0.31258 0.74538-0.84958 1.9877-1.0339 2.4606 0.54501 0.56104 1.3866 1.5068 1.643 1.7312 0.23244 0.19235 0.537 0.38471 1.0099 0.40875 0.10419 8e-3 0.17633 8e-3 0.17633 0.1603 0 8e-3 0 0.0882-0.1042 0.0882-0.24044 0-0.50493-0.0321-0.74538-0.0321-0.29655 0-0.60112 0.0321-0.88965 0.0321-0.0481 0-0.15229 0-0.15229-0.1603 0-0.0561 0.0401-0.0802 0.0962-0.0882 0.0721-8e-3 0.3206-0.024 0.3206-0.24846 0-0.11221-0.0882-0.2164-0.15229-0.28853z"/><polygon transform="matrix(.80149 0 0 .80149 60.705 139.41)" points="313.68 693.08 313.68 692.69 315.05 692.69 315.05 702.62 313.68 702.62 313.68 702.22 314.65 702.22 314.65 693.08"/><path d="m348.7 698.86-0.83 1.98c-0.03 0.08-0.05 0.12-0.05 0.13 0 0.06 0.17 0.25 0.58 0.29 0.1 0.01 0.2 0.02 0.2 0.19 0 0.12-0.12 0.12-0.15 0.12-0.4 0-0.83-0.04-1.25-0.04-0.25 0-0.87 0.04-1.12 0.04-0.06 0-0.18 0-0.18-0.2 0-0.11 0.1-0.11 0.23-0.11 0.6 0 0.66-0.1 0.75-0.32l1.17-2.77-2.1-2.26-0.13-0.11c-0.49-0.52-0.96-0.68-1.46-0.71-0.13-0.01-0.22-0.01-0.22-0.2 0-0.01 0-0.11 0.13-0.11 0.3 0 0.62 0.03 0.93 0.03 0.37 0 0.76-0.03 1.12-0.03 0.06 0 0.18 0 0.18 0.2 0 0.1-0.1 0.11-0.12 0.11-0.09 0.01-0.4 0.03-0.4 0.31 0 0.16 0.15 0.31 0.27 0.44l1.02 1.08 0.9 0.97 1-2.37c0.04-0.11 0.05-0.12 0.05-0.14 0-0.08-0.19-0.25-0.58-0.29-0.11-0.01-0.2-0.02-0.2-0.19 0-0.12 0.11-0.12 0.15-0.12 0.28 0 0.98 0.03 1.26 0.03 0.25 0 0.86-0.03 1.11-0.03 0.07 0 0.19 0 0.19 0.19 0 0.12-0.1 0.12-0.18 0.12-0.67 0.01-0.69 0.04-0.86 0.43-0.39 0.93-1.06 2.48-1.29 3.07 0.68 0.7 1.73 1.88 2.05 2.16 0.29 0.24 0.67 0.48 1.26 0.51 0.13 0.01 0.22 0.01 0.22 0.2 0 0.01 0 0.11-0.13 0.11-0.3 0-0.63-0.04-0.93-0.04-0.37 0-0.75 0.04-1.11 0.04-0.06 0-0.19 0-0.19-0.2 0-0.07 0.05-0.1 0.12-0.11 0.09-0.01 0.4-0.03 0.4-0.31 0-0.14-0.11-0.27-0.19-0.36z" fill-rule="evenodd" stroke-miterlimit="10.433"/></g></g></g><g fill="none" stroke="#000"><path d="m104.75 735.51 4.9618-3.8272" stroke-miterlimit="10.433" stroke-opacity=".63768" stroke-width=".16925"/><path d="m70.197 720.06h33.753" marker-end="url(#a)" marker-start="url(#c)" stroke-opacity=".78431" stroke-width=".21157px"/><path d="m104.37 718.14v4.3689" stroke-miterlimit="10.433" stroke-opacity=".23529" stroke-width=".12694"/></g></g></g></g>
 </g>
</svg>
