<?xml version="1.0" encoding="UTF-8"?>
<svg width="220mm" height="120mm" version="1.1" viewBox="0 0 244.38 165.49" xmlns="http://www.w3.org/2000/svg" xmlns:cc="http://creativecommons.org/ns#" xmlns:dc="http://purl.org/dc/elements/1.1/" xmlns:ns0="http://www.iki.fi/pav/software/textext/" xmlns:rdf="http://www.w3.org/1999/02/22-rdf-syntax-ns#">
<defs>
<marker id="a" overflow="visible" orient="auto">
<path transform="matrix(-.4 0 0 -.4 -4 0)" d="m0 0 5-5-17.5 5 17.5 5z" fill-opacity=".41063" fill-rule="evenodd" stroke="#000" stroke-opacity=".41063" stroke-width="1pt"/>
</marker>
<marker id="c" overflow="visible" orient="auto">
<path transform="matrix(-.4 0 0 -.4 -4 0)" d="m0 0 5-5-17.5 5 17.5 5z" fill-opacity=".41063" fill-rule="evenodd" stroke="#000" stroke-opacity=".41063" stroke-width="1pt"/>
</marker>
<marker id="b" overflow="visible" orient="auto">
<path transform="matrix(-.4 0 0 -.4 -4 0)" d="m0 0 5-5-17.5 5 17.5 5z" fill-opacity=".41063" fill-rule="evenodd" stroke="#000" stroke-opacity=".41063" stroke-width="1pt"/>
</marker>
</defs>
<metadata>
<rdf:RDF>
<cc:Work rdf:about="">
<dc:format>image/svg+xml</dc:format>
<dc:type rdf:resource="http://purl.org/dc/dcmitype/StillImage"/>
<dc:title/>
</cc:Work>
</rdf:RDF>
</metadata>
<g transform="translate(22.316 -19.941)">
<path d="m6.2644 49.232c28.003 34.161 130.93 34.079 178.79 33.586" fill="none" stroke="#262eff" stroke-opacity=".71014" stroke-width="1.965"/>
<path d="m5.556 165.38c40.973-59.611 100.93-76.807 179.04-77.119" fill="none" stroke="#f00" stroke-opacity=".53623" stroke-width="2.065"/>
<path d="m-13.442 184.11v-139.33" fill="none" stroke="#000" stroke-width=".27925px"/>
<path d="m-19.912 176.28h233.06" fill="none" stroke="#000" stroke-width=".29097px"/>
<g transform="matrix(1.5 0 0 -1.5 -567.65 1128.9)" fill-rule="evenodd" stroke="#000" stroke-miterlimit="10.433" ns0:preamble="default_packages.tex" ns0:text="$$\\text{Model score}$$\n$$\\text{Bias}$$\n$$\\text{Variance}$$\n$$\\text{Model complexity}$$\n" xml:space="preserve"><g transform="matrix(0 .58619 -.58619 0 775.09 533.25)" stroke-width="0"><path d="m281.97 701.74v0.01l-0.01 0.01v0.01l-0.02 0.04-0.01 0.01v0.02l-0.02 0.02v0.01l-0.03 0.03v0.01l-0.01 0.01h-0.01l-0.01 0.01h-0.01l-0.01 0.01h-0.02l-0.01 0.01h-0.14l-0.02 0.01h-1.7v-0.31h0.24c0.77 0 0.78-0.11 0.78-0.47v-4.97c0-0.26 0-0.73-1.02-0.73v-0.31c0.35 0.01 0.84 0.03 1.17 0.03 0.32 0 0.81-0.02 1.16-0.03v0.31c-1.03 0-1.03 0.47-1.03 0.73v5.36h0.01l2.41-6.18c0.05-0.13 0.1-0.22 0.2-0.22 0.11 0 0.14 0.08 0.18 0.19l2.45 6.29h0.01v-5.7c0-0.36-0.02-0.47-0.79-0.47h-0.24v-0.31c0.37 0.03 1.05 0.03 1.44 0.03s1.05 0 1.42-0.03v0.31h-0.23c-0.77 0-0.79 0.11-0.79 0.47v5.23c0 0.36 0.02 0.47 0.79 0.47h0.23v0.31h-1.68c-0.26 0-0.26-0.01-0.33-0.19l-2.18-5.6z"/><path d="m293.4 697.3v0.11l-0.01 0.12-0.02 0.12-0.04 0.22-0.03 0.11-0.08 0.22-0.04 0.1-0.1 0.2-0.12 0.18-0.07 0.09-0.14 0.16-0.16 0.16-0.08 0.06-0.09 0.07-0.18 0.12-0.09 0.05-0.1 0.05-0.1 0.04-0.1 0.03-0.11 0.04-0.1 0.02-0.22 0.04-0.11 0.01h-0.11l-0.02-0.22c0.44 0 0.87-0.22 1.13-0.64 0.26-0.43 0.26-1.01 0.26-1.38 0-0.36 0-0.9-0.22-1.34s-0.66-0.73-1.15-0.73c-0.43 0-0.87 0.21-1.14 0.66-0.25 0.44-0.25 1.05-0.25 1.41 0 0.38 0 0.92 0.24 1.36 0.27 0.45 0.74 0.66 1.13 0.66l0.02 0.22c-1.25 0-2.22-1.08-2.22-2.32 0-1.29 1.04-2.24 2.2-2.24 1.21 0 2.22 0.97 2.22 2.24z"/><path d="m297.75 695.72v-0.66l1.47 0.11v0.31c-0.7 0-0.78 0.07-0.78 0.55v6.03l-1.44-0.1v-0.31c0.7 0 0.78-0.07 0.78-0.56v-2.14c-0.29 0.35-0.72 0.61-1.26 0.61l0.05-0.22c0.34 0 0.76-0.15 1.07-0.59 0.11-0.17 0.11-0.19 0.11-0.37v-2.04c0-0.18 0-0.2-0.11-0.37-0.3-0.47-0.75-0.69-1.18-0.69-0.44 0-0.8 0.26-1.04 0.63-0.26 0.41-0.29 0.98-0.29 1.39 0 0.36 0.02 0.96 0.31 1.41 0.21 0.3 0.59 0.63 1.13 0.63l-0.05 0.22c-1.17 0-2.22-0.97-2.22-2.25 0-1.27 0.98-2.25 2.12-2.25 0.63 0 1.08 0.34 1.33 0.66z"/><path d="m300.6 697.47 0.01 0.2c0.06 1.48 0.9 1.73 1.24 1.73 1.03 0 1.13-1.34 1.13-1.73h-2.37l-0.01-0.2h2.79c0.22 0 0.25 0 0.25 0.2 0 0.99-0.54 1.95-1.79 1.95-1.16 0-2.07-1.02-2.07-2.27 0-1.33 1.04-2.29 2.19-2.29 1.22 0 1.67 1.1 1.67 1.29 0 0.1-0.08 0.12-0.13 0.12-0.09 0-0.11-0.06-0.13-0.14-0.35-1.02-1.25-1.02-1.35-1.02-0.5 0-0.9 0.3-1.13 0.66-0.3 0.48-0.3 1.14-0.3 1.5z"/><path d="m305.69 702.06-1.44-0.1v-0.31c0.7 0 0.78-0.07 0.78-0.56v-5.17c0-0.44-0.11-0.44-0.78-0.44v-0.31c0.33 0.01 0.86 0.03 1.11 0.03s0.74-0.02 1.11-0.03v0.31c-0.67 0-0.78 0-0.78 0.44z"/><path d="m312.08 697.1 0.03-0.01h0.02l0.03-0.01h0.03l0.04-0.01 0.03-0.01 0.12-0.03 0.04-0.02 0.04-0.01 0.05-0.02 0.04-0.02 0.05-0.02 0.04-0.02 0.04-0.03 0.05-0.02 0.12-0.09 0.04-0.04 0.03-0.04 0.04-0.04 0.06-0.08 0.01-0.03 0.01-0.02 0.02-0.03 0.01-0.02 0.01-0.03 0.01-0.02v-0.03l0.02-0.06v-0.03l0.01-0.03v-0.1c0-0.5-0.35-0.9-1.13-0.9-0.83 0-1.19 0.56-1.38 1.41-0.03 0.13-0.04 0.17-0.14 0.17-0.13 0-0.13-0.07-0.13-0.25v-1.31c0-0.17 0-0.24 0.11-0.24 0.05 0 0.06 0.01 0.25 0.2 0.02 0.02 0.02 0.04 0.2 0.23 0.44-0.42 0.89-0.43 1.09-0.43 1.15 0 1.61 0.67 1.61 1.38 0 0.53-0.3 0.83-0.42 0.95-0.33 0.31-0.72 0.39-1.14 0.47-0.55 0.11-1.22 0.24-1.22 0.82 0 0.34 0.26 0.75 1.11 0.75 1.1 0 1.15-0.89 1.17-1.2 0.01-0.09 0.1-0.09 0.12-0.09 0.13 0 0.13 0.05 0.13 0.24v1c0 0.17 0 0.24-0.11 0.24-0.05 0-0.07 0-0.2-0.12-0.03-0.04-0.13-0.13-0.17-0.16-0.38 0.28-0.79 0.28-0.94 0.28-1.21 0-1.59-0.66-1.59-1.22 0-0.35 0.16-0.63 0.43-0.85 0.32-0.25 0.6-0.31 1.31-0.45z"/><path d="m315.11 697.34v0.22l0.01 0.07v0.06l0.01 0.07v0.07l0.05 0.3 0.03 0.1 0.03 0.11 0.04 0.09 0.03 0.1 0.08 0.16 0.05 0.08 0.04 0.07 0.15 0.18 0.05 0.05 0.06 0.04 0.05 0.04 0.12 0.08 0.05 0.03 0.12 0.04 0.05 0.02 0.06 0.02 0.05 0.01 0.06 0.01 0.05 0.01h0.1c0.09 0 0.72-0.01 1.07-0.37-0.41-0.03-0.47-0.32-0.47-0.45 0-0.26 0.18-0.46 0.46-0.46 0.26 0 0.46 0.17 0.46 0.47 0 0.67-0.76 1.06-1.53 1.06-1.24 0-2.16-1.07-2.16-2.3 0-1.28 0.99-2.26 2.14-2.26 1.34 0 1.66 1.19 1.66 1.29s-0.1 0.1-0.13 0.1c-0.09 0-0.11-0.04-0.13-0.1-0.29-0.92-0.94-1.04-1.31-1.04-0.53 0-1.4 0.43-1.4 2.03z"/><path d="m323.06 697.3v0.11l-0.02 0.24-0.02 0.11-0.09 0.33-0.04 0.11-0.15 0.3-0.18 0.27-0.07 0.08-0.08 0.08-0.07 0.08-0.08 0.08-0.09 0.06-0.08 0.07-0.18 0.12-0.2 0.1-0.1 0.04-0.1 0.03-0.1 0.04-0.33 0.06-0.11 0.01h-0.11l-0.01-0.22c0.44 0 0.87-0.22 1.13-0.64 0.25-0.43 0.25-1.01 0.25-1.38 0-0.36 0-0.9-0.21-1.34-0.22-0.44-0.66-0.73-1.16-0.73-0.43 0-0.87 0.21-1.14 0.66-0.25 0.44-0.25 1.05-0.25 1.41 0 0.38 0 0.92 0.24 1.36 0.27 0.45 0.74 0.66 1.14 0.66l0.01 0.22c-1.25 0-2.21-1.08-2.21-2.32 0-1.29 1.03-2.24 2.2-2.24 1.21 0 2.21 0.97 2.21 2.24z"/><path d="m325.01 698.47v1.09l-1.38-0.11v-0.31c0.7 0 0.77-0.07 0.77-0.55v-2.67c0-0.44-0.1-0.44-0.77-0.44v-0.31c0.39 0.01 0.85 0.03 1.13 0.03 0.4 0 0.87 0 1.27-0.03v0.31h-0.21c-0.74 0-0.76 0.11-0.76 0.47v1.52c0 0.99 0.42 1.87 1.18 1.87 0.07 0 0.09 0 0.11-0.01-0.03-0.01-0.23-0.13-0.23-0.38 0-0.28 0.21-0.43 0.43-0.43 0.18 0 0.43 0.12 0.43 0.44 0 0.31-0.31 0.6-0.74 0.6-0.73 0-1.09-0.66-1.23-1.09z"/><path d="m328.36 697.47 0.01 0.2c0.06 1.48 0.89 1.73 1.23 1.73 1.03 0 1.13-1.34 1.13-1.73h-2.36l-0.01-0.2h2.78c0.22 0 0.25 0 0.25 0.2 0 0.99-0.54 1.95-1.79 1.95-1.15 0-2.07-1.02-2.07-2.27 0-1.33 1.05-2.29 2.19-2.29 1.22 0 1.67 1.1 1.67 1.29 0 0.1-0.08 0.12-0.13 0.12-0.09 0-0.11-0.06-0.13-0.14-0.35-1.02-1.25-1.02-1.35-1.02-0.5 0-0.89 0.3-1.12 0.66-0.3 0.48-0.3 1.14-0.3 1.5z"/></g><g transform="matrix(.49472 0 0 .49472 302.92 351.62)" fill-rule="evenodd" stroke="#000" stroke-miterlimit="10.433" stroke-width="0" ns0:preamble="default_packages.tex" ns0:text="$$\\text{training score}$$\n$$\\text{validation score}$$\n" xml:space="preserve"><path d="m220.46 722.48h1.6607v0.3473h-1.6607v2.0502h-0.29034c-0.0116-0.90748-0.36-2.1062-1.4865-2.1511v-0.24647h0.9755v-3.0698c0-1.3668 1.08-1.5013 1.4981-1.5013 0.82453 0 1.1497 0.79544 1.1497 1.5013v0.63861h-0.29033v-0.6162c0-0.81785-0.3484-1.2436-0.77809-1.2436-0.77809 0-0.77809 1.0083-0.77809 1.1988z" fill="#0000ab" fill-opacity=".8599"/><path d="m224.89 721.73v1.2212l-1.6142-0.12324v-0.3473c0.81292 0 0.90582-0.0784 0.90582-0.61619v-2.9913c0-0.49295-0.12773-0.49295-0.90582-0.49295v-0.3473c0.45291 0.0112 0.99874 0.0336 1.3239 0.0336 0.46453 0 0.99873 0 1.4633-0.0336v0.3473h-0.24388c-0.84778 0-0.87099 0.12325-0.87099 0.52657v1.7029c0 1.1092 0.47614 2.095 1.3588 2.095 0.0813 0 0.10452 0 0.12773-0.0112-0.0348-0.0112-0.26708-0.14564-0.26708-0.42574 0-0.31368 0.24387-0.48174 0.49936-0.48174 0.20902 0 0.49936 0.13444 0.49936 0.49295 0 0.34731-0.36001 0.67221-0.85937 0.67221-0.84777 0-1.2542-0.73944-1.4168-1.2212z" fill="#0000ab" fill-opacity=".8599"/><path d="m231.34 718.87 0.0116-0.0336 0.0116-0.0449v-0.0448l0.0116-0.0336 0.0116-0.0449 0.0116-0.0448 0.0116-0.0336 0.0232-0.0449 0.0116-0.0449 0.0464-0.0672 0.0116-0.0448 0.0232-0.0336 0.0348-0.0336 0.0464-0.0672 0.0348-0.0336 0.0232-0.0336 0.0348-0.0224 0.0348-0.0336 0.0348-0.0224 0.0348-0.0225 0.0348-0.0224 0.0464-0.0224 0.0348-0.0112 0.0465-0.0224 0.1856-0.0448h0.0929c0.24387 0 0.95228 0.15685 0.95228 1.0531v0.62741h-0.29033v-0.62741c0-0.63859-0.29034-0.70581-0.41808-0.70581-0.38324 0-0.42968 0.49295-0.42968 0.54897v2.2295c0 0.47053 0 0.90748-0.41807 1.3108-0.45293 0.43694-1.022 0.6162-1.5794 0.6162-0.95228 0-1.7536-0.52657-1.7536-1.2548 0-0.33611 0.23226-0.52657 0.5342-0.52657 0.32517 0 0.53422 0.22407 0.53422 0.51536 0 0.13444-0.0581 0.49296-0.59227 0.51536 0.31356 0.38092 0.8826 0.50416 1.2542 0.50416 0.56905 0 1.2194-0.43694 1.2194-1.4228v-1.7589c0-1.0531-0.82455-1.434-1.3472-1.434-0.56904 0-1.0452 0.39212-1.0452 0.94109 0 0.61619 0.48775 1.5349 2.3923 1.6021v0.23528c-0.58067-0.0336-1.3936-0.0671-2.1252-0.39212-0.87099-0.38092-1.1613-0.9635-1.1613-1.4564 0-0.89629 1.1265-1.1764 1.8581-1.1764 0.76646 0 1.2891 0.44814 1.5097 0.9635z" fill="#0000ab" fill-opacity=".8599"/><path d="m235.32 722.95-1.6259-0.12324v-0.3473c0.75487 0 0.85939-0.0672 0.85939-0.60499v-3.0025c0-0.49295-0.12775-0.49295-0.90584-0.49295v-0.3473c0.37163 0.0112 0.99874 0.0336 1.2775 0.0336 0.40646 0 0.81293-0.0224 1.2078-0.0336v0.3473c-0.76648 0-0.81293 0.0561-0.81293 0.48175z" fill="#0000ab" fill-opacity=".8599"/><path d="m235.37 724.89v0.0672l-0.0116 0.0336v0.0224l-0.0116 0.0336v0.0336l-0.0116 0.0224-0.0116 0.0336-0.0116 0.0224-0.0233 0.0224-0.0116 0.0224-0.0116 0.0336-0.0232 0.0224-0.0116 0.0225-0.0232 0.0112-0.0464 0.0448-0.0232 0.0112-0.0232 0.0224-0.0232 0.0112-0.0232 0.0224-0.0464 0.0224-0.0348 0.0112-0.0233 0.0112h-0.0348l-0.0232 0.0112-0.0348 0.0112h-0.058l-0.0232 0.0112h-0.0348c-0.36 0-0.6155-0.30249-0.6155-0.59378 0-0.3025 0.2555-0.59378 0.6155-0.59378 0.32518 0 0.61551 0.23527 0.61551 0.59378z" fill="#0000ab" fill-opacity=".8599"/><path d="m237.76 721.86v-2.9913c0-0.49295-0.12775-0.49295-0.90582-0.49295v-0.3473c0.40645 0.0112 0.99872 0.0336 1.3123 0.0336 0.30195 0 0.90583-0.0224 1.3007-0.0336v0.3473c-0.77809 0-0.90583 0-0.90583 0.49295v2.0502c0 1.1652 0.82454 1.7814 1.5562 1.7814s0.85938-0.59377 0.85938-1.2324v-2.5992c0-0.49295-0.12775-0.49295-0.90583-0.49295v-0.3473c0.40646 0.0112 0.99874 0.0336 1.3123 0.0336 0.30196 0 0.90584-0.0224 1.3007-0.0336v0.3473c-0.60389 0-0.89423 0-0.90584 0.33611v2.1175c0 0.96349 0 1.3108-0.36001 1.7029-0.16258 0.19046-0.54582 0.41453-1.2194 0.41453-0.83616 0-1.382-0.48175-1.7072-1.1652v1.1652l-1.6374-0.12324v-0.3473c0.81292 0 0.90582-0.0784 0.90582-0.61619z" fill="#0000ab" fill-opacity=".8599"/><path d="m244.96 722.95-1.6142-0.12324v-0.3473c0.75486 0 0.85939-0.0672 0.85939-0.60499v-3.0025c0-0.49295-0.12775-0.49295-0.90584-0.49295v-0.3473c0.37162 0.0112 0.98713 0.0336 1.2658 0.0336 0.40646 0 0.81294-0.0224 1.2078-0.0336v0.3473c-0.76648 0-0.81293 0.0561-0.81293 0.48175z" fill="#0000ab" fill-opacity=".8599"/><path d="m245.01 724.89v0.1008l-0.0116 0.0224v0.0336l-0.0116 0.0336-0.0116 0.0224-0.0116 0.0336-0.0232 0.0448-0.0232 0.0224-0.0116 0.0336-0.0232 0.0224-0.0116 0.0225-0.0232 0.0112-0.0812 0.0784-0.0348 0.0112-0.0232 0.0224-0.0464 0.0224-0.0348 0.0112-0.0232 0.0112h-0.0232l-0.0348 0.0112-0.0232 0.0112h-0.058l-0.0348 0.0112h-0.0348c-0.36001 0-0.6039-0.30249-0.6039-0.59378 0-0.3025 0.24389-0.59378 0.6039-0.59378 0.32516 0 0.6155 0.23527 0.6155 0.59378z" fill="#0000ab" fill-opacity=".8599"/><path d="m247.4 721.86v-2.9913c0-0.49295-0.12775-0.49295-0.89423-0.49295v-0.3473c0.39486 0.0112 0.98713 0.0336 1.3007 0.0336 0.30195 0 0.90585-0.0224 1.3007-0.0336v0.3473c-0.77809 0-0.90582 0-0.90582 0.49295v2.0502c0 1.1652 0.82453 1.7814 1.5678 1.7814 0.73163 0 0.84777-0.59377 0.84777-1.2324v-2.5992c0-0.49295-0.11614-0.49295-0.89423-0.49295v-0.3473c0.40646 0.0112 0.98713 0.0336 1.3007 0.0336 0.30196 0 0.90585-0.0224 1.3007-0.0336v0.3473c-0.6039 0-0.89422 0-0.90583 0.33611v2.1175c0 0.96349 0 1.3108-0.36001 1.7029-0.16258 0.19046-0.53422 0.41453-1.2078 0.41453-0.84775 0-1.3936-0.48175-1.7188-1.1652v1.1652l-1.6259-0.12324v-0.3473c0.80131 0 0.89423-0.0784 0.89423-0.61619z" fill="#0000ab" fill-opacity=".8599"/><path d="m253.79 719.51v0.112l0.0116 0.0112v0.0336l0.0116 0.0224v0.0336l0.0116 0.0224v0.0224l0.0116 0.0112 0.0116 0.0224v0.0224l0.0348 0.0672 0.0116 0.0112 0.0348 0.0672 0.0232 0.0224 0.0116 0.0224 0.0232 0.0224c0.4529-0.31369 0.92905-0.34729 1.1381-0.34729v0.25767c-0.99874 0-0.99874 1.1092-0.99874 1.3668 0 0.3025 0.0116 0.661 0.1858 0.92989 0.0929 0.13444 0.36002 0.44814 0.81294 0.44814 1.0103 0 1.0103-1.1091 1.0103-1.3668 0-0.30249-0.0116-0.661-0.18579-0.92987-0.0929-0.13445-0.36003-0.44815-0.82455-0.44815v-0.25767c1.08 0 1.8813 0.77302 1.8813 1.6245 0 0.41453-0.18581 0.82906-0.47614 1.0755 0.41808 0.38092 0.83615 0.43693 1.0452 0.43693 0.0232 0 0.0813 0 0.11613-0.0112-0.12774-0.0449-0.18581-0.16806-0.18581-0.3025 0-0.19046 0.15096-0.31369 0.33678-0.31369 0.11614 0 0.33679 0.0783 0.33679 0.3249 0 0.19045-0.13936 0.54896-0.59228 0.54896-0.23226 0-0.74324-0.0671-1.231-0.52656-0.48776 0.36971-0.97551 0.40333-1.231 0.40333-1.0684 0-1.8697-0.76184-1.8697-1.6245 0-0.49295 0.25548-0.90747 0.5458-1.1427-0.15096-0.16805-0.36001-0.53777-0.36001-0.9299 0-0.3361 0.15098-0.76184 0.51099-0.9859-0.69678-0.19046-1.0684-0.67221-1.0684-1.1092 0-0.80665 1.1497-1.4228 2.5549-1.4228l0.0116 0.2577c-1.1613 0-1.9626 0.57136-1.9626 1.1652 0 0.50416 0.44131 0.91869 0.95229 0.95229h0.67357c0.99875 0 2.2994 0 2.2994-0.95229 0-0.60499-0.82452-1.1652-1.9626-1.1652l-0.0116-0.2577c1.3704 0 2.5781 0.57139 2.5781 1.4452 0 0.38093-0.1626 0.95231-0.75486 1.266-0.61551 0.31371-1.2891 0.31371-1.9975 0.31371-0.29032 0-0.77807 0-0.85937 0.0112-0.37163 0.0336-0.6155 0.38091-0.6155 0.73943z" fill="#0000ab" fill-opacity=".8599"/><path d="m264.6 720.19 0.0348-0.0112h0.0232l0.0348-0.0112h0.0348l0.0464-0.0112 0.0348-0.0112 0.0465-0.0112 0.0928-0.0224 0.0464-0.0224 0.0465-0.0112 0.0581-0.0224 0.0464-0.0224 0.0581-0.0224 0.0464-0.0224 0.0464-0.0336 0.0581-0.0225 0.0464-0.0336 0.0465-0.0336 0.0464-0.0336 0.0464-0.0449 0.0348-0.0448 0.0464-0.0449 0.0696-0.0896 0.0116-0.0336 0.0116-0.0224 0.0232-0.0336 0.0116-0.0224 0.0116-0.0336 0.0116-0.0224v-0.0336l0.0232-0.0672v-0.0336l0.0116-0.0336v-0.1121c0-0.56018-0.40646-1.0083-1.3123-1.0083-0.96391 0-1.382 0.6274-1.6026 1.5797-0.0348 0.14564-0.0464 0.19045-0.16259 0.19045-0.15097 0-0.15097-0.0783-0.15097-0.28009v-1.4676c0-0.19045 0-0.26889 0.12775-0.26889 0.0581 0 0.0696 0.0112 0.29032 0.22408 0.0232 0.0224 0.0232 0.0448 0.23226 0.25767 0.51099-0.47054 1.022-0.48175 1.2659-0.48175 1.3355 0 1.8697 0.75064 1.8697 1.5461 0 0.59377-0.3484 0.92987-0.48775 1.0643-0.38325 0.34731-0.83616 0.43693-1.3239 0.52656-0.63872 0.12324-1.4168 0.26888-1.4168 0.91869 0 0.38092 0.30195 0.84026 1.2891 0.84026 1.2775 0 1.3355-0.99711 1.3587-1.3444 0.0116-0.10084 0.11614-0.10084 0.13936-0.10084 0.15097 0 0.15097 0.0561 0.15097 0.26889v1.1203c0 0.19046 0 0.2689-0.12773 0.2689-0.0581 0-0.0813 0-0.23228-0.13446-0.0348-0.0448-0.15097-0.14563-0.19742-0.17925-0.4413 0.31371-0.91745 0.31371-1.0916 0.31371-1.4052 0-1.8465-0.73945-1.8465-1.3668 0-0.39211 0.18582-0.70582 0.49936-0.95229 0.37163-0.28009 0.6968-0.3473 1.5213-0.50415z" fill="#0000ab" fill-opacity=".8599"/><path d="m268.11 720.46 0.0116 0.0784v0.2463l0.0116 0.0672 0.0116 0.0784v0.0784l0.0116 0.0671 0.0464 0.2688 0.0348 0.11204 0.0348 0.12324 0.0348 0.10083 0.0464 0.11204 0.0465 0.0896 0.0464 0.0896 0.0581 0.0896 0.0464 0.0784 0.1162 0.1344 0.058 0.0672 0.0581 0.0561 0.0696 0.0448 0.0581 0.0449 0.1392 0.0896 0.0581 0.0336 0.0696 0.0224 0.0581 0.0224 0.1392 0.0448 0.0581 0.0112 0.0696 0.0112 0.0581 0.0112h0.1161c0.10453 0 0.83616-0.0112 1.2426-0.41453-0.47614-0.0336-0.5458-0.3585-0.5458-0.50415 0-0.29129 0.20903-0.51536 0.5342-0.51536 0.30194 0 0.53421 0.19046 0.53421 0.52656 0 0.75064-0.88261 1.1876-1.7768 1.1876-1.4517 0-2.5085-1.1988-2.5085-2.5768 0-1.434 1.1497-2.532 2.4852-2.532 1.5562 0 1.9278 1.3332 1.9278 1.4453 0 0.11202-0.11613 0.11202-0.15097 0.11202-0.10452 0-0.12774-0.0449-0.15097-0.11202-0.33679-1.0307-1.0916-1.1652-1.5213-1.1652-0.61549 0-1.6375 0.48175-1.6375 2.2743z" fill="#0000ab" fill-opacity=".8599"/><path d="m277.35 720.42v0.12324l-0.0116 0.13444-0.0116 0.13443-0.0232 0.12325-0.0348 0.12324-0.0348 0.12323-0.0348 0.12324-0.0464 0.12324-0.1162 0.22408-0.0581 0.11203-0.0696 0.10084-0.0696 0.10083-0.0696 0.10084-0.0813 0.0896-0.0929 0.0896-0.0813 0.0897-0.0929 0.0896-0.10452 0.0671-0.0929 0.0784-0.1045 0.0672-0.10453 0.0671-0.11612 0.0561-0.11615 0.0561-0.11613 0.0449-0.11612 0.0336-0.11615 0.0449-0.25548 0.0448-0.12774 0.0225-0.12775 0.0112h-0.12776l-0.0116-0.24647c0.51098 0 1.0104-0.24648 1.3123-0.71701 0.30195-0.48176 0.30195-1.1316 0.30195-1.5461 0-0.40333 0-1.0083-0.25549-1.5013-0.25549-0.49295-0.76648-0.81785-1.3472-0.81785-0.49936 0-1.0103 0.23526-1.3239 0.73942-0.29033 0.49295-0.29033 1.1764-0.29033 1.5797 0 0.42574 0 1.0307 0.27872 1.5237 0.31355 0.50417 0.85938 0.73944 1.3239 0.73944l0.0116 0.24647c-1.4516 0-2.5665-1.21-2.5665-2.5992 0-1.4452 1.1962-2.5096 2.5549-2.5096 1.4052 0 2.5665 1.0867 2.5665 2.5096z" fill="#0000ab" fill-opacity=".8599"/><path d="m279.62 721.73v1.2212l-1.6026-0.12324v-0.3473c0.80131 0 0.89423-0.0784 0.89423-0.61619v-2.9913c0-0.49295-0.12775-0.49295-0.89423-0.49295v-0.3473c0.45293 0.0112 0.98713 0.0336 1.3123 0.0336 0.46453 0 1.0104 0 1.4749-0.0336v0.3473h-0.24388c-0.85937 0-0.8826 0.12325-0.8826 0.52657v1.7029c0 1.1092 0.48775 2.095 1.3704 2.095 0.0812 0 0.10451 0 0.12774-0.0112-0.0348-0.0112-0.26711-0.14564-0.26711-0.42574 0-0.31368 0.24388-0.48174 0.49937-0.48174 0.20904 0 0.49937 0.13444 0.49937 0.49295 0 0.34731-0.36001 0.67221-0.85937 0.67221-0.84778 0-1.2658-0.73944-1.4284-1.2212z" fill="#0000ab" fill-opacity=".8599"/><path d="m283.51 720.61 0.0116 0.22408c0.0696 1.6581 1.0336 1.9382 1.4284 1.9382 1.1962 0 1.3123-1.5013 1.3123-1.9382h-2.7407l-0.0116-0.22408h3.2285c0.25549 0 0.29033 0 0.29033 0.22408 0 1.1091-0.62712 2.1847-2.0788 2.1847-1.3355 0-2.404-1.1428-2.404-2.5432 0-1.4901 1.2194-2.5656 2.5433-2.5656 1.4168 0 1.9394 1.2324 1.9394 1.4452 0 0.11203-0.0929 0.13444-0.15098 0.13444-0.1045 0-0.12774-0.0672-0.15096-0.15685-0.40647-1.1428-1.4517-1.1428-1.5678-1.1428-0.58065 0-1.0452 0.33611-1.3007 0.73943-0.34839 0.53777-0.34839 1.2772-0.34839 1.6805z" fill="#0000ab" fill-opacity=".8599"/><path d="m226.75 639.07 0.0114 0.0341 0.0114 0.0228 0.0114 0.0229 0.0114 0.0343 0.0114 0.0229 0.0114 0.0341 0.0114 0.0343 0.0228 0.0228 0.0114 0.0343 0.0456 0.0684 0.0228 0.0228 0.0456 0.0684 0.0228 0.0228 0.0342 0.0343 0.0228 0.0341 0.0342 0.0228 0.0342 0.0229 0.0342 0.0342 0.0454 0.0229 0.0343 0.0228 0.0455 0.0229 0.0454 0.0114 0.0455 0.0228 0.0568 0.0228 0.0454 0.0114 0.0568 0.0114 0.0682 0.0114h0.057l0.0342 0.0114h0.1025v0.35275c-0.26172-0.0228-0.59171-0.0343-0.85343-0.0343-0.27309 0-0.79654 0.0228-0.98997 0.0343v-0.35275c0.42102-0.0114 0.5462-0.27309 0.5462-0.48929 0-0.10242-0.0228-0.14793-0.0682-0.2731l-1.1607-2.8789-1.2631 3.152c-0.0682 0.14793-0.0682 0.17068-0.0682 0.19344 0 0.29585 0.44379 0.29585 0.6486 0.29585v0.35275c-0.34137-0.0114-0.97859-0.0343-1.2403-0.0343-0.30722 0-0.76238 0.0114-1.1038 0.0343v-0.35275c0.71688 0 0.76239-0.0682 0.91033-0.42102l1.6386-4.0054c0.0682-0.15931 0.0797-0.2162 0.23895-0.2162 0.13656 0 0.18207 0.10241 0.22759 0.2162z" fill="#ed0000" fill-opacity=".82609"/><path d="m231.15 636.17 0.0114-0.0455v-0.0343l0.0114-0.0454 0.0114-0.0455 0.0114-0.0342 0.0114-0.0454 0.0114-0.0455 0.0228-0.0342 0.0114-0.0454 0.0228-0.0343 0.0114-0.0454 0.0228-0.0342 0.0228-0.0343 0.0228-0.0342 0.0342-0.0342 0.0228-0.0342 0.0342-0.0343 0.0228-0.0342 0.0342-0.0343 0.1026-0.0684 0.0342-0.0229 0.0455-0.0228 0.0342-0.0229 0.0454-0.0114 0.0455-0.0114 0.0343-0.0114 0.0454-0.0114 0.0568-0.0114h0.091c0.23896 0 0.93307 0.15932 0.93307 1.0696v0.63723h-0.28447v-0.63723c0-0.65998-0.28447-0.72826-0.40964-0.72826-0.37551 0-0.42103 0.51206-0.42103 0.56895v2.2644c0 0.47793 0 0.91033-0.40965 1.3314-0.44377 0.44379-1.0014 0.62584-1.5475 0.62584-0.93308 0-1.7182-0.5348-1.7182-1.2744 0-0.34139 0.22759-0.53483 0.52345-0.53483 0.31861 0 0.52343 0.22759 0.52343 0.51206 0 0.13654-0.0568 0.51205-0.58033 0.52343 0.30724 0.39827 0.86481 0.52344 1.2289 0.52344 0.55758 0 1.1948-0.44378 1.1948-1.4451v-1.7865c0-1.081-0.80792-1.4565-1.32-1.4565-0.55756 0-1.0241 0.38689-1.0241 0.95584 0 0.62586 0.47792 1.5589 2.3441 1.6272v0.23896c-0.56895-0.0343-1.3655-0.0682-2.0824-0.40965-0.85343-0.38689-1.1379-0.96722-1.1379-1.4679 0-0.91032 1.1038-1.1948 1.8206-1.1948 0.73964 0 1.2631 0.45517 1.4793 0.97861z" fill="#ed0000" fill-opacity=".82609"/><path d="m235.06 643.15-1.6386-0.12518v-0.35274c0.79653 0 0.88756-0.0797 0.88756-0.62585v-5.883c0-0.51207-0.12516-0.51207-0.88756-0.51207v-0.34137c0.37552 0.0114 0.9786 0.0342 1.2631 0.0342 0.28447 0 0.84204-0.0228 1.2631-0.0342v0.34137c-0.7624 0-0.88757 0-0.88757 0.51207z" fill="#ed0000" fill-opacity=".82609"/><path d="m238.21 640.31-1.5931-0.12517v-0.35274c0.73965 0 0.84206-0.0682 0.84206-0.62585v-3.0382c0-0.51207-0.12518-0.51207-0.88758-0.51207v-0.34137c0.36414 0.0114 0.9786 0.0342 1.2517 0.0342 0.39826 0 0.79652-0.0228 1.172-0.0342v0.34137c-0.73963 0-0.78515 0.0568-0.78515 0.50067z" fill="#ed0000" fill-opacity=".82609"/><path d="m238.25 642.28v0.0341l-0.0114 0.0229v0.0341l-0.0114 0.0343v0.0343l-0.0114 0.0228-0.0114 0.0341-0.0114 0.0228-0.0114 0.0342-0.0228 0.0456-0.0228 0.0229-0.0114 0.0228-0.0228 0.0229-0.0228 0.0228-0.0114 0.0229-0.0228 0.0228-0.0228 0.0114-0.0228 0.0229-0.0456 0.0228-0.0342 0.0114-0.0228 0.0228-0.0228 0.0114h-0.0342l-0.0456 0.0228h-0.0342l-0.0228 0.0114h-0.0913c-0.35275 0-0.60309-0.30723-0.60309-0.59171 0-0.30724 0.25034-0.60309 0.60309-0.60309 0.31862 0 0.60309 0.23895 0.60309 0.60309z" fill="#ed0000" fill-opacity=".82609"/><path d="m243.66 635.93v-0.73964l1.6613 0.12517v0.34137c-0.78515 0-0.87618 0.0797-0.87618 0.63723v6.8616l-1.6386-0.12518v-0.35274c0.79653 0 0.88757-0.0797 0.88757-0.62585v-2.4465c-0.32999 0.40965-0.81929 0.70549-1.4338 0.70549l0.0455-0.25033c0.39826 0 0.87619-0.17068 1.2289-0.68274 0.12517-0.19345 0.12517-0.2162 0.12517-0.40964v-2.3213c0-0.20483 0-0.22758-0.12517-0.42102-0.34137-0.53482-0.85343-0.78516-1.3427-0.78516-0.51206 0-0.9217 0.28447-1.1834 0.71687-0.29584 0.46655-0.32999 1.1152-0.32999 1.5703 0 0.42102 0.0114 1.1038 0.35274 1.6044 0.22759 0.35276 0.66 0.72826 1.2745 0.72826l-0.0455 0.25033c-1.3314 0-2.5262-1.1151-2.5262-2.5716 0-1.4338 1.1038-2.5489 2.401-2.5489 0.72826 0 1.2403 0.38689 1.5248 0.73964z" fill="#ed0000" fill-opacity=".82609"/><path d="m249.43 636.17v-0.0455l0.0114-0.0343v-0.0454l0.0114-0.0455 0.0114-0.0342 0.0114-0.0454 0.0114-0.0455 0.0228-0.0342 0.0114-0.0454 0.0229-0.0343 0.0228-0.0454 0.0228-0.0342 0.0228-0.0343 0.0684-0.1026 0.0343-0.0343 0.0228-0.0342 0.0342-0.0343 0.0342-0.0228 0.0343-0.0228 0.0342-0.0228 0.0454-0.0229 0.0342-0.0228 0.0342-0.0229 0.0454-0.0114 0.0455-0.0114 0.0454-0.0114 0.091-0.0228h0.091c0.23895 0 0.93307 0.15932 0.93307 1.0696v0.63723h-0.28448v-0.63723c0-0.65998-0.28446-0.72826-0.40964-0.72826-0.37551 0-0.42102 0.51206-0.42102 0.56895v2.2644c0 0.47793 0 0.91033-0.40965 1.3314-0.4324 0.44379-1.0014 0.62584-1.5476 0.62584-0.93309 0-1.7182-0.5348-1.7182-1.2744 0-0.34139 0.22757-0.53483 0.52344-0.53483 0.3186 0 0.52343 0.22759 0.52343 0.51206 0 0.13654-0.0568 0.51205-0.58033 0.52343 0.30724 0.39827 0.86481 0.52344 1.2289 0.52344 0.55757 0 1.1948-0.44378 1.1948-1.4451v-1.7865c0-1.081-0.8079-1.4565-1.32-1.4565-0.55758 0-1.0241 0.38689-1.0241 0.95584 0 0.62586 0.47791 1.5589 2.3441 1.6272v0.23896c-0.56894-0.0343-1.3655-0.0682-2.0824-0.40965-0.85342-0.38689-1.1379-0.96722-1.1379-1.4679 0-0.91032 1.1038-1.1948 1.8206-1.1948 0.75103 0 1.2744 0.45517 1.4907 0.97861z" fill="#ed0000" fill-opacity=".82609"/><path d="m253.27 639.83h1.6272v0.35274h-1.6272v2.0824h-0.28446c-0.0114-0.93308-0.35276-2.1393-1.4565-2.1848v-0.25033h0.95584v-3.1179c0-1.3882 1.0583-1.5248 1.4679-1.5248 0.80791 0 1.1265 0.79654 1.1265 1.5248v0.63723h-0.28448v-0.61447c0-0.84205-0.34138-1.2631-0.76239-1.2631-0.76241 0-0.76241 1.0241-0.76241 1.2176z" fill="#ed0000" fill-opacity=".82609"/><path d="m257.72 640.31-1.5817-0.12517v-0.35274c0.73964 0 0.84205-0.0682 0.84205-0.62585v-3.0382c0-0.51207-0.12517-0.51207-0.88757-0.51207v-0.34137c0.36413 0.0114 0.97859 0.0342 1.2517 0.0342 0.39826 0 0.78515-0.0228 1.172-0.0342v0.34137c-0.73963 0-0.79653 0.0568-0.79653 0.50067z" fill="#ed0000" fill-opacity=".82609"/><path d="m257.78 642.28-0.0114 0.0341v0.057l-0.0114 0.0343v0.0343l-0.0114 0.0228-0.0114 0.0341-0.0114 0.0228-0.0114 0.0342-0.0228 0.0456-0.0228 0.0229-0.0114 0.0228-0.0228 0.0229-0.0228 0.0228-0.0114 0.0229-0.0228 0.0228-0.0228 0.0114-0.0228 0.0229-0.0228 0.0114-0.0343 0.0114-0.0228 0.0114-0.0228 0.0228-0.0228 0.0114h-0.0342l-0.0228 0.0114-0.0343 0.0114h-0.0228l-0.0343 0.0114h-0.0798c-0.35275 0-0.60308-0.30723-0.60308-0.59171 0-0.30724 0.25033-0.60309 0.60308-0.60309 0.31863 0 0.6031 0.23895 0.6031 0.60309z" fill="#ed0000" fill-opacity=".82609"/><path d="m264.21 637.73v0.13655l-0.0114 0.13654-0.0114 0.12518-0.0228 0.13654-0.0342 0.12516-0.0342 0.12517-0.0343 0.12518-0.0454 0.11379-0.0568 0.12517-0.0455 0.11379-0.0682 0.10241-0.0682 0.11379-0.1364 0.20482-0.0797 0.0911-0.0911 0.0911-0.0797 0.0911-0.0911 0.0797-0.10241 0.0797-0.0911 0.0797-0.10241 0.0682-0.10241 0.0568-0.11379 0.0682-0.11379 0.0456-0.22758 0.0908-0.11379 0.0343-0.12517 0.0341-0.12517 0.0229-0.12516 0.0114-0.12517 0.0114-0.12519 0.0114-0.0114-0.25034c0.50068 0 0.98998-0.25034 1.2858-0.73964 0.29585-0.47791 0.29585-1.1379 0.29585-1.5703 0-0.39826 0-1.0127-0.25034-1.5134-0.25033-0.51206-0.75101-0.83067-1.32-0.83067-0.48929 0-0.98998 0.23895-1.2972 0.75101-0.28448 0.50067-0.28448 1.1948-0.28448 1.5931 0 0.44379 0 1.0582 0.2731 1.5476 0.30724 0.52344 0.84206 0.7624 1.2972 0.7624l0.0114 0.25034c-1.4224 0-2.5148-1.2403-2.5148-2.6513 0-1.4565 1.172-2.5375 2.5034-2.5375 1.3769 0 2.5148 1.1038 2.5148 2.5375z" fill="#ed0000" fill-opacity=".82609"/><path d="m265.79 639.19v-3.0268c0-0.51207-0.12518-0.51207-0.88757-0.51207v-0.34137c0.39827 0.0114 0.96721 0.0342 1.2744 0.0342 0.29585 0 0.88756-0.0228 1.2745-0.0342v0.34137c-0.7624 0-0.88757 0-0.88757 0.51207v2.0824c0 1.172 0.80791 1.8093 1.5362 1.8093 0.71688 0 0.84205-0.61447 0.84205-1.2517v-2.6399c0-0.51207-0.12517-0.51207-0.88757-0.51207v-0.34137c0.39827 0.0114 0.9786 0.0342 1.2858 0.0342 0.29586 0 0.88757-0.0228 1.2631-0.0342v0.34137c-0.58032 0-0.8648 0-0.87617 0.34137v2.162c0 0.96722 0 1.32-0.35276 1.7296-0.1593 0.19343-0.53481 0.42101-1.1948 0.42101-0.83067 0-1.3655-0.48929-1.6841-1.1834v1.1834l-1.593-0.12517v-0.35274c0.79653 0 0.88757-0.0797 0.88757-0.63722z" fill="#ed0000" fill-opacity=".82609"/><path d="m276.99 637.5h0.0456l0.0686-0.0228 0.0454-0.0114h0.0342l0.0454-0.0114 0.0455-0.0114 0.0455-0.0228 0.0454-0.0114 0.0568-0.0229 0.0455-0.0114 0.0454-0.0228 0.0568-0.0229 0.0454-0.0342 0.0568-0.0228 0.0455-0.0343 0.0455-0.0228 0.0454-0.0342 0.0455-0.0454 0.0455-0.0342 0.0454-0.0454 0.0342-0.0456 0.0342-0.0454 0.0343-0.0568 0.0114-0.0228 0.0228-0.0228 0.0114-0.0343 0.0114-0.0228 0.0114-0.0343 0.0114-0.0342 0.0114-0.0229v-0.0341l0.0114-0.0343v-0.0341l0.0114-0.0343v-0.1141c0-0.58033-0.39825-1.0241-1.2744-1.0241-0.95585 0-1.3655 0.63722-1.5817 1.6044-0.0342 0.14792-0.0454 0.19345-0.15929 0.19345-0.14794 0-0.14794-0.0797-0.14794-0.28448v-1.4906c0-0.19345 0-0.27311 0.12517-0.27311 0.0568 0 0.0682 0.0114 0.28447 0.22759 0.0228 0.0228 0.0228 0.0455 0.22759 0.25034 0.50067-0.46654 1.0127-0.47793 1.2517-0.47793 1.2972 0 1.8206 0.75103 1.8206 1.5703 0 0.59172-0.34138 0.93309-0.47791 1.0696-0.37552 0.36412-0.8193 0.45515-1.2858 0.54619-0.63724 0.12517-1.3996 0.2731-1.3996 0.9217 0 0.39826 0.29586 0.86481 1.2745 0.86481 1.2403 0 1.2972-1.0241 1.32-1.3655 0.0114-0.10241 0.1138-0.10241 0.13656-0.10241 0.14792 0 0.14792 0.0568 0.14792 0.2731v1.1379c0 0.19345 0 0.2731-0.12517 0.2731-0.0568 0-0.0796 0-0.22758-0.13654-0.0343-0.0455-0.14792-0.14794-0.19344-0.18207-0.43241 0.31861-0.88756 0.31861-1.0582 0.31861-1.3882 0-1.8206-0.7624-1.8206-1.3882 0-0.39826 0.18207-0.71687 0.4893-0.9672 0.36413-0.29586 0.68274-0.36414 1.502-0.52345z" fill="#ed0000" fill-opacity=".82609"/><path d="m280.42 637.77v0.2505l0.0114 0.0796v0.0797l0.0114 0.0797v0.0682l0.0114 0.0797 0.0342 0.2046 0.0228 0.0568 0.0228 0.12517 0.0342 0.1138 0.0454 0.11378 0.0343 0.10241 0.0454 0.10241 0.0454 0.0911 0.0568 0.0797 0.0455 0.0797 0.0568 0.0797 0.0568 0.0682 0.0568 0.0568 0.0682 0.0568 0.0568 0.0568 0.0682 0.0455 0.0568 0.0454 0.0682 0.0342 0.0568 0.0343 0.0682 0.0343 0.0682 0.0229 0.0568 0.0228 0.0682 0.0229 0.0568 0.0114 0.0682 0.0114h0.0568l0.0568 0.0114h0.0568c0.10241 0 0.8193-0.0114 1.2176-0.42102-0.46654-0.0342-0.53482-0.37551-0.53482-0.52343 0-0.28448 0.20482-0.51207 0.52344-0.51207 0.29585 0 0.52344 0.19346 0.52344 0.52345 0 0.77377-0.86482 1.2175-1.741 1.2175-1.411 0-2.4579-1.2289-2.4579-2.6286 0-1.4451 1.1265-2.5603 2.4351-2.5603 1.5248 0 1.8889 1.3541 1.8889 1.4679 0 0.11379-0.1138 0.11379-0.14792 0.11379-0.10242 0-0.12518-0.0454-0.14794-0.11379-0.32999-1.0582-1.0696-1.1834-1.4907-1.1834-0.5917 0-1.5931 0.47792-1.5931 2.2986z" fill="#ed0000" fill-opacity=".82609"/><path d="m289.47 637.73v0.13655l-0.0114 0.13654-0.0114 0.12518-0.0228 0.13654-0.0343 0.12516-0.0228 0.12517-0.0454 0.12518-0.0454 0.11379-0.0455 0.12517-0.0568 0.11379-0.0682 0.10241-0.0568 0.11379-0.0797 0.10241-0.0682 0.10241-0.0797 0.0911-0.0796 0.0911-0.0911 0.0911-0.1822 0.1594-0.10241 0.0797-0.10241 0.0682-0.10242 0.0568-0.11379 0.0682-0.11379 0.0456-0.22758 0.0908-0.11379 0.0343-0.12516 0.0341-0.12518 0.0229-0.3755 0.0342-0.0114-0.25034c0.50066 0 0.98997-0.25034 1.2858-0.73964 0.29586-0.47791 0.29586-1.1379 0.29586-1.5703 0-0.39826 0-1.0127-0.25034-1.5134-0.25034-0.51206-0.75102-0.83067-1.32-0.83067-0.4893 0-0.98997 0.23895-1.2972 0.75101-0.28448 0.50067-0.28448 1.1948-0.28448 1.5931 0 0.44379 0 1.0582 0.27309 1.5476 0.30723 0.52344 0.84205 0.7624 1.2972 0.7624l0.0114 0.25034c-1.4224 0-2.5148-1.2403-2.5148-2.6513 0-1.4565 1.172-2.5375 2.5034-2.5375 1.3769 0 2.5148 1.1038 2.5148 2.5375z" fill="#ed0000" fill-opacity=".82609"/><path d="m291.69 639.06v1.2517l-1.5703-0.12517v-0.35274c0.79652 0 0.88757-0.0797 0.88757-0.63722v-3.0268c0-0.51207-0.12517-0.51207-0.88757-0.51207v-0.34137c0.44378 0.0114 0.97859 0.0342 1.2858 0.0342 0.45517 0 0.98999 0 1.4451-0.0342v0.34137h-0.23897c-0.84205 0-0.8648 0.12518-0.8648 0.53482v1.741c0 1.1265 0.47791 2.1279 1.3427 2.1279 0.0797 0 0.10241 0 0.12517-0.0114-0.0342-0.0114-0.26172-0.14795-0.26172-0.44379 0-0.31862 0.23896-0.47792 0.4893-0.47792 0.20482 0 0.4893 0.12517 0.4893 0.48929 0 0.36413-0.35274 0.69412-0.84205 0.69412-0.83067 0-1.2403-0.76239-1.3996-1.2517z" fill="#ed0000" fill-opacity=".82609"/><path d="m295.5 637.92 0.0114 0.23896c0.0682 1.6841 1.0241 1.9686 1.3996 1.9686 1.172 0 1.2858-1.5248 1.2858-1.9686h-2.6855l-0.0114-0.23896h3.1634c0.25034 0 0.28447 0 0.28447 0.23896 0 1.1152-0.61447 2.2189-2.0368 2.2189-1.3086 0-2.3555-1.172-2.3555-2.583 0-1.5134 1.1948-2.6058 2.492-2.6058 1.3882 0 1.9003 1.2517 1.9003 1.4679 0 0.11378-0.0911 0.13654-0.14792 0.13654-0.10241 0-0.12517-0.0682-0.14792-0.1593-0.39828-1.1607-1.4224-1.1607-1.5362-1.1607-0.55758 0-1.0127 0.32999-1.2745 0.75102-0.34136 0.54618-0.34136 1.2858-0.34136 1.6955z" fill="#ed0000" fill-opacity=".82609"/></g><path d="m384.06 678.6c-0.15528-10.14-0.10264-21.034-0.38689-26.735" fill="none" marker-end="url(#c)" stroke="#000" stroke-miterlimit="10.433" stroke-opacity=".41063" stroke-width=".85"/><path d="m384.23 687.75c-0.19982 10.185-0.10264 21.034-0.38689 26.735" fill="none" marker-end="url(#b)" stroke="#000" stroke-miterlimit="10.433" stroke-opacity=".41063" stroke-width=".85"/><g transform="matrix(.51527 0 0 .51527 350.2 272.14)" fill-rule="evenodd" stroke="#000" stroke-miterlimit="10.433" stroke-width="0" ns0:preamble="default_packages.tex" ns0:text="$$\\text{Training set size}$$\n" xml:space="preserve"><path d="m276.64 701.9h-6.1l-0.19-2.24h0.25c0.14 1.6 0.29 1.93 1.8 1.93 0.18 0 0.44 0 0.54-0.02 0.2-0.04 0.2-0.15 0.2-0.38v-5.23c0-0.34 0-0.48-1.04-0.48h-0.4v-0.31c0.41 0.03 1.43 0.03 1.88 0.03 0.46 0 1.49 0 1.9-0.03v0.31h-0.4c-1.05 0-1.05 0.14-1.05 0.48v5.23c0 0.2 0 0.34 0.18 0.38 0.11 0.02 0.38 0.02 0.57 0.02 1.51 0 1.66-0.33 1.8-1.93h0.25z"/><path d="m278.03 698.47v1.09l-1.39-0.11v-0.31c0.7 0 0.78-0.07 0.78-0.55v-2.67c0-0.44-0.11-0.44-0.78-0.44v-0.31c0.39 0.01 0.86 0.03 1.14 0.03 0.4 0 0.87 0 1.27-0.03v0.31h-0.22c-0.73 0-0.75 0.11-0.75 0.47v1.52c0 0.99 0.42 1.87 1.17 1.87 0.07 0 0.09 0 0.11-0.01-0.03-0.01-0.23-0.13-0.23-0.38 0-0.28 0.21-0.43 0.43-0.43 0.18 0 0.43 0.12 0.43 0.44 0 0.31-0.31 0.6-0.74 0.6-0.72 0-1.08-0.66-1.22-1.09z"/><path d="m283.58 695.92 0.01-0.03 0.01-0.04v-0.04l0.01-0.03 0.02-0.08 0.01-0.03 0.02-0.04 0.01-0.04 0.04-0.06 0.02-0.04 0.08-0.12 0.03-0.03 0.02-0.03 0.03-0.02 0.03-0.03 0.06-0.04 0.04-0.02 0.03-0.02 0.03-0.01 0.04-0.02 0.16-0.04h0.08c0.21 0 0.82 0.14 0.82 0.94v0.56h-0.25v-0.56c0-0.57-0.25-0.63-0.36-0.63-0.33 0-0.37 0.44-0.37 0.49v1.99c0 0.42 0 0.81-0.36 1.17-0.39 0.39-0.88 0.55-1.36 0.55-0.82 0-1.51-0.47-1.51-1.12 0-0.3 0.2-0.47 0.46-0.47 0.28 0 0.46 0.2 0.46 0.46 0 0.12-0.05 0.44-0.51 0.46 0.27 0.34 0.76 0.45 1.08 0.45 0.49 0 1.06-0.39 1.06-1.27v-1.57c0-0.94-0.72-1.28-1.17-1.28-0.49 0-0.9 0.35-0.9 0.84 0 0.55 0.42 1.37 2.07 1.43v0.21c-0.51-0.03-1.21-0.06-1.84-0.35-0.75-0.34-1-0.86-1-1.3 0-0.8 0.97-1.05 1.6-1.05 0.66 0 1.12 0.4 1.3 0.86z"/><path d="m287.01 699.56-1.4-0.11v-0.31c0.65 0 0.74-0.06 0.74-0.54v-2.68c0-0.44-0.11-0.44-0.77-0.44v-0.31c0.31 0.01 0.85 0.03 1.09 0.03 0.35 0 0.7-0.02 1.04-0.03v0.31c-0.66 0-0.7 0.05-0.7 0.43z"/><path d="m287.05 701.29v0.06l-0.01 0.03v0.02l-0.01 0.03v0.03l-0.01 0.02-0.01 0.03-0.01 0.02-0.02 0.02-0.01 0.02-0.01 0.03-0.02 0.02-0.01 0.02-0.02 0.01-0.04 0.04-0.02 0.01-0.02 0.02-0.02 0.01-0.02 0.02-0.04 0.02-0.03 0.01-0.02 0.01h-0.03l-0.02 0.01-0.03 0.01h-0.05l-0.02 0.01h-0.03c-0.31 0-0.53-0.27-0.53-0.53 0-0.27 0.22-0.53 0.53-0.53 0.28 0 0.53 0.21 0.53 0.53z"/><path d="m289.11 698.59v-2.67c0-0.44-0.11-0.44-0.78-0.44v-0.31c0.35 0.01 0.86 0.03 1.13 0.03 0.26 0 0.78-0.02 1.12-0.03v0.31c-0.67 0-0.78 0-0.78 0.44v1.83c0 1.04 0.71 1.59 1.34 1.59s0.74-0.53 0.74-1.1v-2.32c0-0.44-0.11-0.44-0.77-0.44v-0.31c0.34 0.01 0.85 0.03 1.12 0.03 0.26 0 0.78-0.02 1.12-0.03v0.31c-0.52 0-0.77 0-0.78 0.3v1.89c0 0.86 0 1.17-0.31 1.52-0.14 0.17-0.47 0.37-1.05 0.37-0.72 0-1.19-0.43-1.47-1.04v1.04l-1.41-0.11v-0.31c0.7 0 0.78-0.07 0.78-0.55z"/><path d="m295.31 699.56-1.39-0.11v-0.31c0.65 0 0.73-0.06 0.73-0.54v-2.68c0-0.44-0.1-0.44-0.77-0.44v-0.31c0.32 0.01 0.85 0.03 1.1 0.03 0.34 0 0.69-0.02 1.03-0.03v0.31c-0.66 0-0.7 0.05-0.7 0.43z"/><path d="m295.35 701.29v0.09l-0.01 0.02v0.03l-0.01 0.03-0.01 0.02-0.01 0.03-0.02 0.04-0.02 0.02-0.01 0.03-0.02 0.02-0.01 0.02-0.02 0.01-0.02 0.02-0.01 0.02-0.02 0.01-0.02 0.02-0.03 0.01-0.02 0.02-0.06 0.03-0.03 0.01h-0.02l-0.03 0.01-0.02 0.01h-0.05l-0.03 0.01h-0.02c-0.31 0-0.53-0.27-0.53-0.53 0-0.27 0.22-0.53 0.53-0.53 0.27 0 0.52 0.21 0.52 0.53z"/><path d="m297.41 698.59v-2.67c0-0.44-0.11-0.44-0.77-0.44v-0.31c0.34 0.01 0.85 0.03 1.12 0.03 0.26 0 0.78-0.02 1.12-0.03v0.31c-0.67 0-0.78 0-0.78 0.44v1.83c0 1.04 0.71 1.59 1.35 1.59 0.63 0 0.73-0.53 0.73-1.1v-2.32c0-0.44-0.1-0.44-0.77-0.44v-0.31c0.35 0.01 0.86 0.03 1.12 0.03s0.78-0.02 1.12-0.03v0.31c-0.52 0-0.77 0-0.78 0.3v1.89c0 0.86 0 1.17-0.31 1.52-0.14 0.17-0.46 0.37-1.04 0.37-0.73 0-1.2-0.43-1.48-1.04v1.04l-1.4-0.11v-0.31c0.69 0 0.77-0.07 0.77-0.55z"/><path d="m302.91 696.49v0.1l0.01 0.01v0.03l0.01 0.02v0.03l0.01 0.02v0.02l0.01 0.01 0.01 0.02v0.02l0.03 0.06 0.01 0.01 0.03 0.06 0.02 0.02 0.01 0.02 0.02 0.02c0.39-0.28 0.8-0.31 0.99-0.31v0.23c-0.87 0-0.87 0.99-0.87 1.22 0 0.27 0.01 0.59 0.16 0.83 0.08 0.12 0.31 0.4 0.71 0.4 0.86 0 0.86-0.99 0.86-1.22 0-0.27-0.01-0.59-0.16-0.83-0.08-0.12-0.31-0.4-0.7-0.4v-0.23c0.92 0 1.61 0.69 1.61 1.45 0 0.37-0.16 0.74-0.41 0.96 0.36 0.34 0.72 0.39 0.9 0.39 0.02 0 0.07 0 0.1-0.01-0.11-0.04-0.16-0.15-0.16-0.27 0-0.17 0.13-0.28 0.29-0.28 0.1 0 0.29 0.07 0.29 0.29 0 0.17-0.12 0.49-0.51 0.49-0.2 0-0.64-0.06-1.06-0.47-0.42 0.33-0.84 0.36-1.05 0.36-0.93 0-1.62-0.68-1.62-1.45 0-0.44 0.22-0.81 0.47-1.02-0.13-0.15-0.31-0.48-0.31-0.83 0-0.3 0.13-0.68 0.44-0.88-0.6-0.17-0.92-0.6-0.92-0.99 0-0.72 0.99-1.27 2.2-1.27l0.01 0.23c-1 0-1.69 0.51-1.69 1.04 0 0.45 0.38 0.82 0.82 0.85h0.58c0.86 0 1.98 0 1.98-0.85 0-0.54-0.71-1.04-1.69-1.04l-0.01-0.23c1.18 0 2.22 0.51 2.22 1.29 0 0.34-0.14 0.85-0.65 1.13-0.53 0.28-1.11 0.28-1.72 0.28-0.25 0-0.67 0-0.74 0.01-0.32 0.03-0.53 0.34-0.53 0.66z"/><path d="m312.22 697.1 0.03-0.01h0.02l0.03-0.01h0.03l0.04-0.01 0.03-0.01 0.12-0.03 0.04-0.02 0.05-0.01 0.08-0.04 0.05-0.02 0.04-0.02 0.04-0.03 0.05-0.02 0.12-0.09 0.04-0.04 0.03-0.04 0.04-0.04 0.06-0.08 0.01-0.03 0.01-0.02 0.02-0.03 0.01-0.02 0.01-0.03 0.01-0.02v-0.03l0.02-0.06v-0.03l0.01-0.03v-0.1c0-0.5-0.35-0.9-1.12-0.9-0.84 0-1.2 0.56-1.39 1.41-0.03 0.13-0.04 0.17-0.14 0.17-0.13 0-0.13-0.07-0.13-0.25v-1.31c0-0.17 0-0.24 0.11-0.24 0.05 0 0.06 0.01 0.25 0.2 0.02 0.02 0.02 0.04 0.2 0.23 0.44-0.42 0.88-0.43 1.1-0.43 1.14 0 1.6 0.67 1.6 1.38 0 0.53-0.3 0.83-0.42 0.95-0.33 0.31-0.72 0.39-1.14 0.47-0.55 0.11-1.22 0.24-1.22 0.82 0 0.34 0.26 0.75 1.12 0.75 1.09 0 1.14-0.89 1.16-1.2 0.01-0.09 0.1-0.09 0.12-0.09 0.13 0 0.13 0.05 0.13 0.24v1c0 0.17 0 0.24-0.11 0.24-0.05 0-0.07 0-0.2-0.12-0.03-0.04-0.13-0.13-0.17-0.16-0.38 0.28-0.79 0.28-0.93 0.28-1.22 0-1.6-0.66-1.6-1.22 0-0.35 0.16-0.63 0.43-0.85 0.32-0.25 0.6-0.31 1.31-0.45z"/><path d="m315.19 697.47 0.01 0.2c0.06 1.48 0.89 1.73 1.23 1.73 1.03 0 1.13-1.34 1.13-1.73h-2.36l-0.01-0.2h2.78c0.22 0 0.25 0 0.25 0.2 0 0.99-0.54 1.95-1.79 1.95-1.15 0-2.07-1.02-2.07-2.27 0-1.33 1.05-2.29 2.19-2.29 1.22 0 1.67 1.1 1.67 1.29 0 0.1-0.08 0.12-0.13 0.12-0.09 0-0.11-0.06-0.13-0.14-0.35-1.02-1.25-1.02-1.35-1.02-0.5 0-0.9 0.3-1.13 0.66-0.29 0.48-0.29 1.14-0.29 1.5z"/><path d="m320.23 699.14h1.43v0.31h-1.43v1.83h-0.25c-0.01-0.81-0.31-1.88-1.28-1.92v-0.22h0.84v-2.74c0-1.22 0.93-1.34 1.29-1.34 0.71 0 0.99 0.71 0.99 1.34v0.57h-0.25v-0.55c0-0.73-0.3-1.11-0.67-1.11-0.67 0-0.67 0.9-0.67 1.07z"/><path d="m327.77 697.1 0.03-0.01h0.02l0.03-0.01h0.03l0.03-0.01 0.16-0.04 0.04-0.02 0.04-0.01 0.05-0.02 0.04-0.02 0.05-0.02 0.04-0.02 0.04-0.03 0.05-0.02 0.12-0.09 0.04-0.04 0.03-0.04 0.04-0.04 0.06-0.08 0.01-0.03 0.01-0.02 0.01-0.03 0.02-0.02 0.01-0.03v-0.02l0.03-0.09v-0.06l0.01-0.03v-0.07c0-0.5-0.35-0.9-1.13-0.9-0.83 0-1.19 0.56-1.38 1.41-0.03 0.13-0.04 0.17-0.14 0.17-0.13 0-0.13-0.07-0.13-0.25v-1.31c0-0.17 0-0.24 0.11-0.24 0.05 0 0.06 0.01 0.25 0.2 0.02 0.02 0.02 0.04 0.2 0.23 0.43-0.42 0.88-0.43 1.09-0.43 1.15 0 1.61 0.67 1.61 1.38 0 0.53-0.3 0.83-0.42 0.95-0.33 0.31-0.72 0.39-1.14 0.47-0.56 0.11-1.22 0.24-1.22 0.82 0 0.34 0.26 0.75 1.11 0.75 1.1 0 1.15-0.89 1.17-1.2 0.01-0.09 0.1-0.09 0.12-0.09 0.13 0 0.13 0.05 0.13 0.24v1c0 0.17 0 0.24-0.11 0.24-0.05 0-0.07 0-0.2-0.12-0.03-0.04-0.13-0.13-0.17-0.16-0.38 0.28-0.79 0.28-0.94 0.28-1.21 0-1.59-0.66-1.59-1.22 0-0.35 0.16-0.63 0.43-0.85 0.32-0.25 0.59-0.31 1.31-0.45z"/><path d="m331.39 699.56-1.39-0.11v-0.31c0.64 0 0.73-0.06 0.73-0.54v-2.68c0-0.44-0.1-0.44-0.77-0.44v-0.31c0.32 0.01 0.86 0.03 1.09 0.03 0.35 0 0.7-0.02 1.04-0.03v0.31c-0.66 0-0.7 0.05-0.7 0.43z"/><path d="m331.43 701.29v0.09l-0.01 0.02v0.03l-0.01 0.03-0.01 0.02-0.01 0.03-0.02 0.04-0.02 0.02-0.01 0.03-0.02 0.02-0.01 0.02-0.02 0.01-0.07 0.07-0.03 0.01-0.02 0.02-0.04 0.02-0.03 0.01-0.02 0.01h-0.02l-0.03 0.01-0.02 0.01h-0.05l-0.03 0.01h-0.03c-0.3 0-0.52-0.27-0.52-0.53 0-0.27 0.22-0.53 0.52-0.53 0.28 0 0.53 0.21 0.53 0.53z"/><path d="m336.29 699.15v0.01l0.01 0.01v0.01h0.01v0.01h0.01v0.01l0.02 0.02v0.01h0.01v0.01l0.01 0.01v0.02h0.01v0.05c0 0.13-0.07 0.13-0.26 0.13h-3.19l-0.11-1.6h0.25c0.06 1.01 0.25 1.38 1.35 1.38h1.14l-2.78-3.74c-0.1-0.11-0.1-0.13-0.1-0.18 0-0.14 0.07-0.14 0.26-0.14h3.3l0.16 1.86h-0.25c-0.09-1.18-0.29-1.61-1.45-1.61h-1.18z"/><path d="m337.93 697.47 0.01 0.2c0.06 1.48 0.9 1.73 1.24 1.73 1.02 0 1.12-1.34 1.12-1.73h-2.36l-0.01-0.2h2.78c0.22 0 0.25 0 0.25 0.2 0 0.99-0.54 1.95-1.78 1.95-1.16 0-2.08-1.02-2.08-2.27 0-1.33 1.05-2.29 2.2-2.29 1.21 0 1.66 1.1 1.66 1.29 0 0.1-0.08 0.12-0.13 0.12-0.09 0-0.11-0.06-0.13-0.14-0.35-1.02-1.24-1.02-1.34-1.02-0.5 0-0.9 0.3-1.13 0.66-0.3 0.48-0.3 1.14-0.3 1.5z"/></g></g>
<path d="m175.61 128.24c4.848-12.014 6.307-29.189 6.0289-34.076" fill="none" marker-end="url(#a)" stroke="#000" stroke-miterlimit="10.433" stroke-opacity=".41063" stroke-width="1.275"/>
<g transform="matrix(1.2108 0 0 1.2108 127.6 68.27)" fill-opacity=".69412">
<g transform="matrix(1.5 0 0 -1.5 -567.65 1128.9)" fill-opacity=".69412" fill-rule="evenodd" stroke="#000" stroke-miterlimit="10.433" ns0:preamble="default_packages.tex" ns0:text="$$\\text{Model score}$$\n$$\\text{Bias}$$\n$$\\text{Variance}$$\n$$\\text{Model complexity}$$\n" xml:space="preserve"><g transform="matrix(.47121 0 0 .47121 181.08 403.97)" fill-opacity=".69412" fill-rule="evenodd" stroke="#000" stroke-miterlimit="10.433" stroke-opacity=".54589" stroke-width="0" ns0:preamble="default_packages.tex" ns0:text="$$\\text{High variance}$$\n" xml:space="preserve"><path d="m281.83 701.18 0.01 0.03v0.15l0.01 0.02v0.02l0.01 0.03v0.02l0.02 0.04 0.06 0.06 0.06 0.03h0.01l0.01 0.01h0.02l0.01 0.01h0.02l0.01 0.01h0.04l0.02 0.01h0.04l0.02 0.01h0.07l0.02 0.01h0.17l0.03 0.01h0.37v0.31c-0.35-0.04-1.09-0.04-1.46-0.04-0.38 0-1.13 0-1.48 0.04v-0.31h0.24c0.77 0 0.79-0.11 0.79-0.47v-2.33h-2.98v2.33c0 0.36 0.02 0.47 0.78 0.47h0.24v0.31c-0.35-0.04-1.08-0.04-1.46-0.04s-1.13 0-1.48 0.04v-0.31h0.24c0.77 0 0.79-0.11 0.79-0.47v-5.23c0-0.36-0.02-0.47-0.79-0.47h-0.24v-0.31c0.35 0.03 1.09 0.03 1.47 0.03s1.12 0 1.47-0.03v0.31h-0.24c-0.76 0-0.78 0.11-0.78 0.47v2.6h2.98v-2.6c0-0.36-0.02-0.47-0.79-0.47h-0.24v-0.31c0.35 0.03 1.09 0.03 1.47 0.03s1.12 0 1.47-0.03v0.31h-0.24c-0.76 0-0.79 0.11-0.79 0.47z"/><path d="m284.96 699.56-1.4-0.11v-0.31c0.65 0 0.74-0.06 0.74-0.54v-2.68c0-0.44-0.11-0.44-0.78-0.44v-0.31c0.32 0.01 0.86 0.03 1.1 0.03 0.35 0 0.7-0.02 1.04-0.03v0.31c-0.66 0-0.7 0.05-0.7 0.43z"/><path d="m285 701.29v0.06l-0.01 0.03v0.02l-0.02 0.06v0.02l-0.01 0.03-0.02 0.02-0.02 0.04-0.01 0.03-0.09 0.09-0.02 0.01-0.02 0.02-0.02 0.01-0.02 0.02-0.02 0.01-0.03 0.01-0.04 0.02h-0.03l-0.02 0.01-0.03 0.01h-0.05l-0.02 0.01h-0.03c-0.31 0-0.53-0.27-0.53-0.53 0-0.27 0.22-0.53 0.53-0.53 0.28 0 0.53 0.21 0.53 0.53z"/><path d="m287.02 696.49v0.09l0.01 0.01v0.04l0.01 0.02v0.03l0.01 0.02v0.02l0.01 0.01 0.01 0.02v0.02l0.03 0.06 0.01 0.01 0.03 0.06 0.02 0.02 0.01 0.02 0.02 0.02c0.39-0.28 0.8-0.31 0.98-0.31v0.23c-0.86 0-0.86 0.99-0.86 1.22 0 0.27 0.01 0.59 0.16 0.83 0.08 0.12 0.31 0.4 0.7 0.4 0.87 0 0.87-0.99 0.87-1.22 0-0.27-0.01-0.59-0.16-0.83-0.08-0.12-0.31-0.4-0.71-0.4v-0.23c0.93 0 1.62 0.69 1.62 1.45 0 0.37-0.16 0.74-0.41 0.96 0.36 0.34 0.72 0.39 0.9 0.39 0.02 0 0.07 0 0.1-0.01-0.11-0.04-0.16-0.15-0.16-0.27 0-0.17 0.13-0.28 0.29-0.28 0.1 0 0.29 0.07 0.29 0.29 0 0.17-0.12 0.49-0.51 0.49-0.2 0-0.64-0.06-1.06-0.47-0.42 0.33-0.84 0.36-1.06 0.36-0.92 0-1.61-0.68-1.61-1.45 0-0.44 0.22-0.81 0.47-1.02-0.13-0.15-0.31-0.48-0.31-0.83 0-0.3 0.13-0.68 0.44-0.88-0.6-0.17-0.92-0.6-0.92-0.99 0-0.72 0.99-1.27 2.21-1.27v0.23c-1 0-1.69 0.51-1.69 1.04 0 0.45 0.38 0.82 0.82 0.85h0.59c0.85 0 1.97 0 1.97-0.85 0-0.54-0.71-1.04-1.69-1.04v-0.23c1.17 0 2.21 0.51 2.21 1.29 0 0.34-0.14 0.85-0.65 1.13-0.53 0.28-1.11 0.28-1.71 0.28-0.25 0-0.68 0-0.75 0.01-0.32 0.03-0.53 0.34-0.53 0.66z"/><path d="m292.04 695.92v-0.11l-0.01-0.03v-0.06l-0.01-0.03-0.01-0.02-0.01-0.03-0.02-0.04-0.01-0.01-0.01-0.02-0.04-0.02-0.02-0.02-0.02-0.01h-0.02l-0.06-0.02h-0.03l-0.03-0.01h-0.07l-0.02-0.01h-0.39v-0.31c0.35 0.01 0.86 0.03 1.13 0.03 0.26 0 0.78-0.02 1.12-0.03v0.31c-0.67 0-0.78 0-0.78 0.44v1.83c0 1.04 0.71 1.59 1.34 1.59s0.74-0.53 0.74-1.1v-2.32c0-0.44-0.11-0.44-0.78-0.44v-0.31c0.35 0.01 0.86 0.03 1.13 0.03 0.26 0 0.78-0.02 1.12-0.03v0.31c-0.52 0-0.77 0-0.78 0.3v1.89c0 0.86 0 1.17-0.31 1.52-0.14 0.17-0.47 0.37-1.05 0.37-0.83 0-1.27-0.59-1.44-0.97v3.47l-1.44-0.1v-0.31c0.7 0 0.78-0.07 0.78-0.56z"/><path d="m303.94 698.48 0.02 0.04 0.01 0.03 0.01 0.02 0.01 0.03 0.02 0.02 0.02 0.06 0.02 0.02 0.01 0.03 0.04 0.06 0.02 0.02 0.04 0.06 0.03 0.02 0.08 0.08 0.04 0.02 0.06 0.04 0.08 0.04 0.05 0.01 0.04 0.02 0.15 0.03h0.03l0.02 0.01h0.12v0.31c-0.23-0.02-0.52-0.03-0.75-0.03-0.24 0-0.69 0.02-0.86 0.03v-0.31c0.36-0.01 0.47-0.23 0.47-0.42 0-0.09-0.02-0.13-0.05-0.24l-1.02-2.53-1.12 2.77c-0.06 0.13-0.06 0.14-0.06 0.17 0 0.25 0.39 0.25 0.57 0.25v0.31c-0.3-0.01-0.86-0.03-1.09-0.03-0.27 0-0.67 0.01-0.97 0.03v-0.31c0.63 0 0.67-0.06 0.8-0.36l1.44-3.53c0.06-0.14 0.08-0.19 0.21-0.19s0.17 0.09 0.21 0.19z"/><path d="m307.83 695.92v-0.03l0.01-0.04v-0.04l0.01-0.03 0.02-0.08 0.02-0.03 0.02-0.08 0.04-0.06 0.02-0.04 0.08-0.12 0.11-0.11 0.06-0.04 0.04-0.02 0.03-0.02 0.04-0.01 0.03-0.02 0.16-0.04h0.08c0.21 0 0.82 0.14 0.82 0.94v0.56h-0.25v-0.56c0-0.57-0.25-0.63-0.36-0.63-0.33 0-0.36 0.44-0.36 0.49v1.99c0 0.42 0 0.81-0.36 1.17-0.39 0.39-0.89 0.55-1.37 0.55-0.82 0-1.51-0.47-1.51-1.12 0-0.3 0.2-0.47 0.46-0.47 0.28 0 0.46 0.2 0.46 0.46 0 0.12-0.05 0.44-0.51 0.46 0.27 0.34 0.76 0.45 1.08 0.45 0.49 0 1.06-0.39 1.06-1.27v-1.57c0-0.94-0.72-1.28-1.17-1.28-0.49 0-0.9 0.35-0.9 0.84 0 0.55 0.42 1.37 2.07 1.43v0.21c-0.51-0.03-1.21-0.06-1.84-0.35-0.75-0.34-1-0.86-1-1.3 0-0.8 0.97-1.05 1.6-1.05 0.66 0 1.12 0.4 1.31 0.86z"/><path d="m311.15 698.47v1.09l-1.38-0.11v-0.31c0.69 0 0.77-0.07 0.77-0.55v-2.67c0-0.44-0.11-0.44-0.77-0.44v-0.31c0.38 0.01 0.85 0.03 1.13 0.03 0.4 0 0.87 0 1.27-0.03v0.31h-0.21c-0.74 0-0.76 0.11-0.76 0.47v1.52c0 0.99 0.42 1.87 1.18 1.87 0.07 0 0.09 0 0.11-0.01-0.03-0.01-0.23-0.13-0.23-0.38 0-0.28 0.21-0.43 0.43-0.43 0.18 0 0.43 0.12 0.43 0.44 0 0.31-0.31 0.6-0.74 0.6-0.73 0-1.09-0.66-1.23-1.09z"/><path d="m315.15 699.56-1.39-0.11v-0.31c0.65 0 0.74-0.06 0.74-0.54v-2.68c0-0.44-0.11-0.44-0.78-0.44v-0.31c0.32 0.01 0.86 0.03 1.1 0.03 0.35 0 0.69-0.02 1.03-0.03v0.31c-0.66 0-0.7 0.05-0.7 0.43z"/><path d="m315.19 701.29v0.09l-0.01 0.02v0.03l-0.01 0.03-0.01 0.02-0.01 0.03-0.02 0.04-0.02 0.02-0.01 0.03-0.01 0.02-0.02 0.02-0.02 0.01-0.02 0.02-0.01 0.02-0.02 0.01-0.02 0.02-0.02 0.01-0.03 0.02-0.06 0.03-0.03 0.01h-0.02l-0.03 0.01-0.02 0.01h-0.05l-0.03 0.01h-0.02c-0.31 0-0.53-0.27-0.53-0.53 0-0.27 0.22-0.53 0.53-0.53 0.28 0 0.52 0.21 0.52 0.53z"/><path d="m319.48 695.92v-0.03l0.02-0.08v-0.03l0.02-0.08 0.02-0.03 0.01-0.04 0.02-0.04 0.01-0.03 0.02-0.03 0.02-0.04 0.06-0.09 0.03-0.03 0.02-0.03 0.03-0.03 0.03-0.02 0.02-0.03 0.03-0.02 0.04-0.02 0.06-0.04 0.04-0.01 0.03-0.02 0.16-0.04h0.09c0.2 0 0.81 0.14 0.81 0.94v0.56h-0.25v-0.56c0-0.57-0.24-0.63-0.36-0.63-0.32 0-0.36 0.44-0.36 0.49v1.99c0 0.42 0 0.81-0.36 1.17-0.39 0.39-0.89 0.55-1.37 0.55-0.82 0-1.51-0.47-1.51-1.12 0-0.3 0.21-0.47 0.46-0.47 0.28 0 0.46 0.2 0.46 0.46 0 0.12-0.05 0.44-0.51 0.46 0.27 0.34 0.76 0.45 1.08 0.45 0.49 0 1.06-0.39 1.06-1.27v-1.57c0-0.94-0.72-1.28-1.17-1.28-0.49 0-0.9 0.35-0.9 0.84 0 0.55 0.42 1.37 2.07 1.43v0.21c-0.51-0.03-1.21-0.06-1.84-0.35-0.74-0.34-0.99-0.86-0.99-1.3 0-0.8 0.96-1.05 1.59-1.05 0.66 0 1.12 0.4 1.31 0.86z"/><path d="m322.23 698.59v-2.67c0-0.44-0.1-0.44-0.77-0.44v-0.31c0.35 0.01 0.86 0.03 1.12 0.03s0.78-0.02 1.12-0.03v0.31c-0.67 0-0.78 0-0.78 0.44v1.83c0 1.04 0.71 1.59 1.35 1.59 0.63 0 0.74-0.53 0.74-1.1v-2.32c0-0.44-0.11-0.44-0.78-0.44v-0.31c0.35 0.01 0.86 0.03 1.13 0.03 0.26 0 0.77-0.02 1.11-0.03v0.31c-0.52 0-0.76 0-0.77 0.3v1.89c0 0.86 0 1.17-0.31 1.52-0.14 0.17-0.47 0.37-1.05 0.37-0.73 0-1.2-0.43-1.48-1.04v1.04l-1.4-0.11v-0.31c0.7 0 0.77-0.07 0.77-0.55z"/><path d="m327.84 697.34v0.14l0.01 0.08v0.13l0.02 0.14 0.05 0.3 0.03 0.1 0.03 0.11 0.03 0.09 0.04 0.1 0.12 0.24 0.05 0.07 0.15 0.18 0.05 0.05 0.05 0.04 0.06 0.04 0.05 0.04 0.06 0.04 0.06 0.03 0.05 0.02 0.12 0.04 0.05 0.02 0.06 0.01 0.1 0.02h0.11c0.09 0 0.71-0.01 1.06-0.37-0.4-0.03-0.46-0.32-0.46-0.45 0-0.26 0.17-0.46 0.45-0.46 0.26 0 0.46 0.17 0.46 0.47 0 0.67-0.76 1.06-1.52 1.06-1.25 0-2.17-1.07-2.17-2.3 0-1.28 0.99-2.26 2.15-2.26 1.33 0 1.65 1.19 1.65 1.29s-0.1 0.1-0.13 0.1c-0.09 0-0.11-0.04-0.13-0.1-0.29-0.92-0.94-1.04-1.3-1.04-0.53 0-1.41 0.43-1.41 2.03z"/><path d="m332.21 697.47 0.01 0.2c0.06 1.48 0.89 1.73 1.23 1.73 1.03 0 1.13-1.34 1.13-1.73h-2.36l-0.01-0.2h2.78c0.22 0 0.25 0 0.25 0.2 0 0.99-0.54 1.95-1.79 1.95-1.15 0-2.07-1.02-2.07-2.27 0-1.33 1.05-2.29 2.19-2.29 1.22 0 1.67 1.1 1.67 1.29 0 0.1-0.08 0.12-0.13 0.12-0.09 0-0.11-0.06-0.13-0.14-0.35-1.02-1.25-1.02-1.35-1.02-0.49 0-0.89 0.3-1.12 0.66-0.3 0.48-0.3 1.14-0.3 1.5z"/></g></g>
</g>
</g>
<g transform="matrix(1.0662 0 0 -1.0662 -204.26 749.67)" fill-rule="evenodd" stroke="#000" stroke-miterlimit="10.433" stroke-width="0" ns0:preamble="default_packages.tex" ns0:text="$$\\text{Learning curve schematic}$$\n\n" xml:space="preserve"><path d="m256.09 697.73h-0.25c-0.1-1.01-0.24-2.25-2-2.25h-0.82c-0.47 0-0.49 0.07-0.49 0.4v5.29c0 0.34 0 0.48 0.95 0.48h0.33v0.31c-0.36-0.04-1.27-0.04-1.68-0.04-0.38 0-1.16 0-1.51 0.04v-0.31h0.24c0.77 0 0.79-0.11 0.79-0.47v-5.23c0-0.36-0.02-0.47-0.79-0.47h-0.24v-0.31h5.2z"/><path d="m257.62 697.47 0.01 0.2c0.06 1.48 0.9 1.73 1.24 1.73 1.03 0 1.13-1.34 1.13-1.73h-2.37l-0.01-0.2h2.79c0.22 0 0.24 0 0.24 0.2 0 0.99-0.53 1.95-1.78 1.95-1.16 0-2.07-1.02-2.07-2.27 0-1.33 1.04-2.29 2.19-2.29 1.22 0 1.66 1.1 1.66 1.29 0 0.1-0.07 0.12-0.13 0.12-0.08 0-0.1-0.06-0.12-0.14-0.35-1.02-1.25-1.02-1.35-1.02-0.5 0-0.9 0.3-1.13 0.66-0.3 0.48-0.3 1.14-0.3 1.5z"/><path d="m264.27 695.92v-0.03l0.01-0.04v-0.04l0.01-0.03 0.02-0.08 0.01-0.03 0.02-0.04 0.01-0.04 0.04-0.06 0.02-0.04 0.08-0.12 0.03-0.03 0.02-0.03 0.03-0.02 0.03-0.03 0.06-0.04 0.04-0.02 0.03-0.02 0.03-0.01 0.04-0.02 0.16-0.04h0.08c0.21 0 0.82 0.14 0.82 0.94v0.56h-0.25v-0.56c0-0.57-0.25-0.63-0.36-0.63-0.33 0-0.37 0.44-0.37 0.49v1.99c0 0.42 0 0.81-0.36 1.17-0.38 0.39-0.88 0.55-1.36 0.55-0.82 0-1.51-0.47-1.51-1.12 0-0.3 0.2-0.47 0.46-0.47 0.28 0 0.46 0.2 0.46 0.46 0 0.12-0.05 0.44-0.51 0.46 0.27 0.34 0.76 0.45 1.08 0.45 0.49 0 1.06-0.39 1.06-1.27v-1.57c0-0.94-0.72-1.28-1.17-1.28-0.49 0-0.9 0.35-0.9 0.84 0 0.55 0.42 1.37 2.07 1.43v0.21c-0.51-0.03-1.21-0.06-1.84-0.35-0.75-0.34-1-0.86-1-1.3 0-0.8 0.97-1.05 1.6-1.05 0.66 0 1.12 0.4 1.31 0.86z"/><path d="m267.59 698.47v1.09l-1.39-0.11v-0.31c0.7 0 0.78-0.07 0.78-0.55v-2.67c0-0.44-0.11-0.44-0.78-0.44v-0.31c0.39 0.01 0.86 0.03 1.14 0.03 0.4 0 0.87 0 1.27-0.03v0.31h-0.21c-0.74 0-0.76 0.11-0.76 0.47v1.52c0 0.99 0.42 1.87 1.18 1.87 0.07 0 0.09 0 0.11-0.01-0.03-0.01-0.23-0.13-0.23-0.38 0-0.28 0.21-0.43 0.43-0.43 0.18 0 0.42 0.12 0.42 0.44 0 0.31-0.3 0.6-0.73 0.6-0.73 0-1.09-0.66-1.23-1.09z"/><path d="m270.92 698.59v-2.67c0-0.44-0.1-0.44-0.77-0.44v-0.31c0.35 0.01 0.85 0.03 1.12 0.03 0.26 0 0.78-0.02 1.12-0.03v0.31c-0.67 0-0.78 0-0.78 0.44v1.83c0 1.04 0.71 1.59 1.35 1.59 0.63 0 0.74-0.53 0.74-1.1v-2.32c0-0.44-0.11-0.44-0.78-0.44v-0.31c0.35 0.01 0.86 0.03 1.13 0.03 0.25 0 0.77-0.02 1.11-0.03v0.31c-0.52 0-0.77 0-0.77 0.3v1.89c0 0.86 0 1.17-0.31 1.52-0.14 0.17-0.47 0.37-1.05 0.37-0.73 0-1.2-0.43-1.48-1.04v1.04l-1.4-0.11v-0.31c0.7 0 0.77-0.07 0.77-0.55z"/><path d="m277.13 699.56-1.4-0.11v-0.31c0.65 0 0.74-0.06 0.74-0.54v-2.68c0-0.44-0.11-0.44-0.78-0.44v-0.31c0.32 0.01 0.86 0.03 1.1 0.03 0.35 0 0.7-0.02 1.04-0.03v0.31c-0.66 0-0.7 0.05-0.7 0.43z"/><path d="m277.17 701.29v0.06l-0.01 0.03v0.02l-0.02 0.06-0.01 0.02-0.01 0.03-0.03 0.06-0.02 0.03-0.01 0.02-0.07 0.07-0.02 0.01-0.02 0.02-0.02 0.01-0.02 0.02-0.02 0.01-0.03 0.01-0.04 0.02h-0.03l-0.02 0.01-0.03 0.01h-0.05l-0.02 0.01h-0.03c-0.31 0-0.53-0.27-0.53-0.53 0-0.27 0.22-0.53 0.53-0.53 0.28 0 0.53 0.21 0.53 0.53z"/><path d="m279.23 698.59v-2.67c0-0.44-0.11-0.44-0.78-0.44v-0.31c0.35 0.01 0.86 0.03 1.13 0.03 0.26 0 0.77-0.02 1.11-0.03v0.31c-0.67 0-0.77 0-0.77 0.44v1.83c0 1.04 0.7 1.59 1.34 1.59 0.63 0 0.74-0.53 0.74-1.1v-2.32c0-0.44-0.11-0.44-0.78-0.44v-0.31c0.35 0.01 0.86 0.03 1.13 0.03 0.26 0 0.78-0.02 1.11-0.03v0.31c-0.51 0-0.76 0-0.77 0.3v1.89c0 0.86 0 1.17-0.31 1.52-0.14 0.17-0.47 0.37-1.05 0.37-0.73 0-1.19-0.43-1.47-1.04v1.04l-1.41-0.11v-0.31c0.7 0 0.78-0.07 0.78-0.55z"/><path d="m284.72 696.49v0.05l0.01 0.01v0.07l0.01 0.01v0.03l0.01 0.02v0.02l0.01 0.02v0.01l0.03 0.06v0.02l0.01 0.02 0.01 0.01 0.01 0.02 0.02 0.02 0.02 0.04 0.02 0.02 0.01 0.02c0.39-0.28 0.8-0.31 0.99-0.31v0.23c-0.87 0-0.87 0.99-0.87 1.22 0 0.27 0.01 0.59 0.16 0.83 0.08 0.12 0.31 0.4 0.71 0.4 0.87 0 0.87-0.99 0.87-1.22 0-0.27-0.01-0.59-0.16-0.83-0.08-0.12-0.31-0.4-0.71-0.4v-0.23c0.93 0 1.61 0.69 1.61 1.45 0 0.37-0.16 0.74-0.4 0.96 0.36 0.34 0.71 0.39 0.89 0.39 0.02 0 0.07 0 0.1-0.01-0.11-0.04-0.16-0.15-0.16-0.27 0-0.17 0.13-0.28 0.29-0.28 0.1 0 0.29 0.07 0.29 0.29 0 0.17-0.12 0.49-0.51 0.49-0.2 0-0.63-0.06-1.05-0.47-0.42 0.33-0.84 0.36-1.06 0.36-0.93 0-1.62-0.68-1.62-1.45 0-0.44 0.22-0.81 0.47-1.02-0.13-0.15-0.31-0.48-0.31-0.83 0-0.3 0.13-0.68 0.44-0.88-0.6-0.17-0.91-0.6-0.91-0.99 0-0.72 0.98-1.27 2.2-1.27l0.01 0.23c-1.01 0-1.7 0.51-1.7 1.04 0 0.45 0.38 0.82 0.82 0.85h0.59c0.86 0 1.97 0 1.97-0.85 0-0.54-0.7-1.04-1.68-1.04l-0.01-0.23c1.18 0 2.21 0.51 2.21 1.29 0 0.34-0.14 0.85-0.65 1.13-0.52 0.28-1.1 0.28-1.71 0.28-0.25 0-0.68 0-0.75 0.01-0.32 0.03-0.53 0.34-0.53 0.66z"/><path d="m293.13 697.34v0.14l0.01 0.08v0.07l0.01 0.06v0.07l0.01 0.07 0.05 0.3 0.03 0.1 0.03 0.11 0.03 0.09 0.04 0.1 0.12 0.24 0.05 0.07 0.15 0.18 0.05 0.05 0.05 0.04 0.06 0.04 0.05 0.04 0.06 0.04 0.06 0.03 0.05 0.02 0.12 0.04 0.05 0.02 0.06 0.01 0.1 0.02h0.11c0.09 0 0.72-0.01 1.06-0.37-0.4-0.03-0.46-0.32-0.46-0.45 0-0.26 0.18-0.46 0.45-0.46 0.26 0 0.46 0.17 0.46 0.47 0 0.67-0.76 1.06-1.52 1.06-1.25 0-2.17-1.07-2.17-2.3 0-1.28 0.99-2.26 2.15-2.26 1.33 0 1.65 1.19 1.65 1.29s-0.1 0.1-0.13 0.1c-0.09 0-0.11-0.04-0.13-0.1-0.29-0.92-0.93-1.04-1.3-1.04-0.53 0-1.41 0.43-1.41 2.03z"/><path d="m300.29 695.96v-0.9l1.44 0.11v0.31c-0.7 0-0.78 0.07-0.78 0.55v3.53l-1.47-0.11v-0.31c0.7 0 0.78-0.07 0.78-0.55v-1.77c0-0.86-0.48-1.54-1.21-1.54-0.83 0-0.87 0.47-0.87 0.98v3.3l-1.47-0.11v-0.31c0.78 0 0.78-0.03 0.78-0.91v-1.49c0-0.77 0-1.68 1.52-1.68 0.55 0 0.99 0.28 1.28 0.9z"/><path d="m303.59 698.47v1.09l-1.38-0.11v-0.31c0.69 0 0.77-0.07 0.77-0.55v-2.67c0-0.44-0.11-0.44-0.77-0.44v-0.31c0.39 0.01 0.85 0.03 1.13 0.03 0.4 0 0.87 0 1.27-0.03v0.31h-0.21c-0.74 0-0.76 0.11-0.76 0.47v1.52c0 0.99 0.42 1.87 1.18 1.87 0.07 0 0.09 0 0.11-0.01-0.03-0.01-0.23-0.13-0.23-0.38 0-0.28 0.21-0.43 0.43-0.43 0.18 0 0.43 0.12 0.43 0.44 0 0.31-0.31 0.6-0.74 0.6-0.73 0-1.09-0.66-1.23-1.09z"/><path d="m309.98 698.48 0.02 0.04 0.01 0.03 0.01 0.02 0.01 0.03 0.01 0.02 0.01 0.03 0.02 0.03 0.01 0.02 0.04 0.06 0.01 0.03 0.05 0.05 0.02 0.03 0.05 0.05 0.03 0.02 0.03 0.03 0.06 0.04 0.12 0.06 0.04 0.01 0.04 0.02 0.15 0.03h0.03l0.03 0.01h0.11v0.31c-0.22-0.02-0.51-0.03-0.74-0.03-0.24 0-0.7 0.02-0.87 0.03v-0.31c0.37-0.01 0.48-0.23 0.48-0.42 0-0.09-0.02-0.13-0.06-0.24l-1.02-2.53-1.11 2.77c-0.06 0.13-0.06 0.14-0.06 0.17 0 0.25 0.38 0.25 0.56 0.25v0.31c-0.3-0.01-0.86-0.03-1.08-0.03-0.27 0-0.67 0.01-0.97 0.03v-0.31c0.63 0 0.67-0.06 0.8-0.36l1.43-3.53c0.06-0.14 0.08-0.19 0.21-0.19s0.17 0.09 0.21 0.19z"/><path d="m311.92 697.47 0.01 0.2c0.05 1.48 0.89 1.73 1.23 1.73 1.03 0 1.13-1.34 1.13-1.73h-2.36l-0.01-0.2h2.78c0.22 0 0.25 0 0.25 0.2 0 0.99-0.54 1.95-1.79 1.95-1.15 0-2.07-1.02-2.07-2.27 0-1.33 1.05-2.29 2.19-2.29 1.22 0 1.67 1.1 1.67 1.29 0 0.1-0.08 0.12-0.13 0.12-0.09 0-0.11-0.06-0.13-0.14-0.35-1.02-1.25-1.02-1.35-1.02-0.5 0-0.9 0.3-1.13 0.66-0.29 0.48-0.29 1.14-0.29 1.5z"/><path d="m320.64 697.1 0.02-0.01h0.03l0.02-0.01h0.04l0.03-0.01 0.04-0.01 0.03-0.01 0.08-0.02 0.05-0.02 0.04-0.01 0.04-0.02 0.05-0.02 0.08-0.04 0.05-0.03 0.04-0.02 0.12-0.09 0.08-0.08 0.09-0.12 0.02-0.03 0.01-0.02 0.01-0.03 0.01-0.02 0.01-0.03 0.01-0.02 0.01-0.03v-0.03l0.02-0.06v-0.13c0-0.5-0.34-0.9-1.12-0.9-0.84 0-1.2 0.56-1.39 1.41-0.03 0.13-0.04 0.17-0.14 0.17-0.13 0-0.13-0.07-0.13-0.25v-1.31c0-0.17 0-0.24 0.11-0.24 0.05 0 0.06 0.01 0.25 0.2 0.02 0.02 0.02 0.04 0.2 0.23 0.44-0.42 0.89-0.43 1.1-0.43 1.15 0 1.6 0.67 1.6 1.38 0 0.53-0.3 0.83-0.42 0.95-0.32 0.31-0.71 0.39-1.13 0.47-0.56 0.11-1.23 0.24-1.23 0.82 0 0.34 0.26 0.75 1.12 0.75 1.09 0 1.15-0.89 1.16-1.2 0.02-0.09 0.11-0.09 0.12-0.09 0.13 0 0.13 0.05 0.13 0.24v1c0 0.17 0 0.24-0.11 0.24-0.05 0-0.06 0-0.19-0.12-0.03-0.04-0.14-0.13-0.18-0.16-0.37 0.28-0.78 0.28-0.93 0.28-1.22 0-1.6-0.66-1.6-1.22 0-0.35 0.16-0.63 0.43-0.85 0.32-0.25 0.6-0.31 1.32-0.45z"/><path d="m323.66 697.34v0.22l0.01 0.07v0.06l0.02 0.14 0.01 0.06v0.06l0.01 0.06 0.02 0.06 0.01 0.06 0.02 0.1 0.04 0.11 0.03 0.09 0.03 0.1 0.04 0.08 0.05 0.08 0.04 0.08 0.05 0.07 0.04 0.06 0.05 0.06 0.11 0.11 0.05 0.04 0.06 0.04 0.05 0.04 0.06 0.04 0.06 0.03 0.05 0.02 0.12 0.04 0.05 0.02 0.06 0.01 0.1 0.02h0.11c0.09 0 0.71-0.01 1.06-0.37-0.41-0.03-0.47-0.32-0.47-0.45 0-0.26 0.18-0.46 0.46-0.46 0.26 0 0.46 0.17 0.46 0.47 0 0.67-0.76 1.06-1.52 1.06-1.25 0-2.17-1.07-2.17-2.3 0-1.28 0.99-2.26 2.15-2.26 1.33 0 1.65 1.19 1.65 1.29s-0.1 0.1-0.13 0.1c-0.09 0-0.11-0.04-0.13-0.1-0.29-0.92-0.94-1.04-1.3-1.04-0.53 0-1.41 0.43-1.41 2.03z"/><path d="m327.74 695.92v-0.07l-0.01-0.04v-0.06l-0.01-0.03v-0.03l-0.01-0.02-0.01-0.03-0.02-0.04-0.04-0.04-0.02-0.01-0.02-0.02-0.02-0.01h-0.03l-0.02-0.01-0.03-0.01h-0.03l-0.03-0.01h-0.08l-0.02-0.01h-0.38v-0.31c0.35 0.01 0.86 0.03 1.13 0.03 0.26 0 0.77-0.02 1.11-0.03v0.31c-0.66 0-0.77 0-0.77 0.44v1.83c0 1.04 0.7 1.59 1.34 1.59 0.63 0 0.74-0.53 0.74-1.1v-2.32c0-0.44-0.11-0.44-0.78-0.44v-0.31c0.35 0.01 0.86 0.03 1.13 0.03 0.26 0 0.78-0.02 1.12-0.03v0.31c-0.52 0-0.77 0-0.78 0.3v1.89c0 0.86 0 1.17-0.31 1.52-0.14 0.17-0.47 0.37-1.05 0.37-0.83 0-1.27-0.59-1.44-0.97v3.47l-1.44-0.1v-0.31c0.7 0 0.78-0.07 0.78-0.56z"/><path d="m333.28 697.47 0.01 0.2c0.06 1.48 0.9 1.73 1.24 1.73 1.03 0 1.13-1.34 1.13-1.73h-2.37l-0.01-0.2h2.79c0.22 0 0.25 0 0.25 0.2 0 0.99-0.54 1.95-1.79 1.95-1.16 0-2.07-1.02-2.07-2.27 0-1.33 1.04-2.29 2.19-2.29 1.22 0 1.67 1.1 1.67 1.29 0 0.1-0.09 0.12-0.14 0.12-0.08 0-0.1-0.06-0.12-0.14-0.35-1.02-1.25-1.02-1.35-1.02-0.5 0-0.9 0.3-1.13 0.66-0.3 0.48-0.3 1.14-0.3 1.5z"/><path d="m337.7 698.59v-2.67c0-0.44-0.11-0.44-0.78-0.44v-0.31c0.35 0.01 0.86 0.03 1.13 0.03 0.26 0 0.78-0.02 1.12-0.03v0.31c-0.67 0-0.78 0-0.78 0.44v1.83c0 1.04 0.71 1.59 1.34 1.59s0.74-0.53 0.74-1.1v-2.32c0-0.44-0.11-0.44-0.77-0.44v-0.31c0.34 0.01 0.85 0.03 1.12 0.03 0.26 0 0.78-0.02 1.12-0.03v0.31c-0.67 0-0.78 0-0.78 0.44v1.83c0 1.04 0.71 1.59 1.35 1.59 0.63 0 0.73-0.53 0.73-1.1v-2.32c0-0.44-0.1-0.44-0.77-0.44v-0.31c0.35 0.01 0.86 0.03 1.12 0.03s0.78-0.02 1.12-0.03v0.31c-0.52 0-0.77 0-0.78 0.3v1.89c0 0.86 0 1.17-0.31 1.52-0.14 0.17-0.47 0.37-1.04 0.37-0.84 0-1.28-0.59-1.45-0.97-0.14 0.86-0.88 0.97-1.33 0.97-0.72 0-1.19-0.43-1.47-1.04v1.04l-1.41-0.11v-0.31c0.7 0 0.78-0.07 0.78-0.55z"/><path d="m348.23 695.92v-0.03l0.01-0.04v-0.04l0.01-0.03 0.02-0.08 0.01-0.03 0.02-0.04 0.01-0.04 0.04-0.06 0.02-0.04 0.08-0.12 0.11-0.11 0.06-0.04 0.04-0.02 0.03-0.02 0.04-0.01 0.03-0.02 0.16-0.04h0.08c0.21 0 0.82 0.14 0.82 0.94v0.56h-0.25v-0.56c0-0.57-0.25-0.63-0.36-0.63-0.33 0-0.36 0.44-0.36 0.49v1.99c0 0.42 0 0.81-0.36 1.17-0.39 0.39-0.89 0.55-1.37 0.55-0.82 0-1.51-0.47-1.51-1.12 0-0.3 0.2-0.47 0.46-0.47 0.28 0 0.46 0.2 0.46 0.46 0 0.12-0.05 0.44-0.51 0.46 0.27 0.34 0.76 0.45 1.08 0.45 0.49 0 1.06-0.39 1.06-1.27v-1.57c0-0.94-0.72-1.28-1.17-1.28-0.49 0-0.9 0.35-0.9 0.84 0 0.55 0.42 1.37 2.07 1.43v0.21c-0.51-0.03-1.21-0.06-1.84-0.35-0.75-0.34-1-0.86-1-1.3 0-0.8 0.97-1.05 1.6-1.05 0.66 0 1.12 0.4 1.31 0.86z"/><path d="m351.61 699.14h1.43v0.31h-1.43v1.83h-0.25c-0.01-0.81-0.31-1.88-1.28-1.92v-0.22h0.84v-2.74c0-1.22 0.93-1.34 1.29-1.34 0.71 0 0.99 0.71 0.99 1.34v0.57h-0.25v-0.55c0-0.73-0.3-1.11-0.67-1.11-0.67 0-0.67 0.9-0.67 1.07z"/><path d="m355.53 699.56-1.4-0.11v-0.31c0.65 0 0.74-0.06 0.74-0.54v-2.68c0-0.44-0.11-0.44-0.78-0.44v-0.31c0.32 0.01 0.86 0.03 1.1 0.03 0.35 0 0.7-0.02 1.03-0.03v0.31c-0.65 0-0.69 0.05-0.69 0.43z"/><path d="m355.57 701.29v0.03l-0.01 0.03v0.03l-0.01 0.02v0.03l-0.01 0.03-0.01 0.02-0.01 0.03-0.03 0.06-0.02 0.03-0.01 0.02-0.02 0.02-0.02 0.01-0.01 0.02-0.02 0.02-0.02 0.01-0.02 0.02-0.02 0.01-0.02 0.02-0.03 0.01-0.04 0.02-0.03 0.01h-0.02l-0.02 0.01-0.03 0.01h-0.05l-0.03 0.01h-0.02c-0.31 0-0.53-0.27-0.53-0.53 0-0.27 0.22-0.53 0.53-0.53 0.28 0 0.53 0.21 0.53 0.53z"/><path d="m357.7 697.34v0.22l0.01 0.07v0.06l0.01 0.07v0.07l0.05 0.3 0.03 0.1 0.03 0.11 0.04 0.09 0.03 0.1 0.08 0.16 0.05 0.08 0.04 0.07 0.15 0.18 0.05 0.05 0.06 0.04 0.05 0.04 0.12 0.08 0.05 0.03 0.12 0.04 0.05 0.02 0.06 0.02 0.05 0.01 0.06 0.01 0.05 0.01h0.1c0.09 0 0.72-0.01 1.07-0.37-0.41-0.03-0.47-0.32-0.47-0.45 0-0.26 0.18-0.46 0.46-0.46 0.26 0 0.46 0.17 0.46 0.47 0 0.67-0.76 1.06-1.53 1.06-1.24 0-2.16-1.07-2.16-2.3 0-1.28 0.99-2.26 2.14-2.26 1.34 0 1.66 1.19 1.66 1.29s-0.1 0.1-0.13 0.1c-0.09 0-0.11-0.04-0.13-0.1-0.29-0.92-0.94-1.04-1.31-1.04-0.53 0-1.4 0.43-1.4 2.03z"/></g>
<g transform="matrix(.7279 0 0 -.75752 -30.498 643.38)" fill-opacity=".69565" fill-rule="evenodd" stroke-miterlimit="10.433" ns0:preamble="default_packages.tex" ns0:text="$$\\text{Good fit}$$\n" xml:space="preserve"><path d="m293.82 695.89 0.0111-0.0333 0.0111-0.0222 0.0444-0.0444 0.0222-0.0333 0.0111-0.0222 0.0555-0.0555 0.0222-0.0333 0.0222-0.0222 0.0554-0.0665 0.0554-0.0554 0.0444-0.0443 0.0555-0.0555 0.0333-0.0222 0.0444-0.0444 0.0333-0.0222 0.0222-0.0222 0.0222-0.0111 0.0222-0.0222 0.0444-0.0222 0.0111-0.0111 0.0222-0.0111 0.0111-0.0111h0.0333c0.0887 0 0.0887 0.0887 0.0887 0.255v1.918c0 0.4213 0.0554 0.47673 0.76498 0.47673v0.34368c-0.4102-0.0111-1.0089-0.0333-1.3415-0.0333-0.44347 0-1.3858 0-1.785 0.0333v-0.34368h0.35477c0.9978 0 1.0311-0.11087 1.0311-0.52107v-0.70955c0-1.2306-1.408-1.3304-1.7184-1.3304-0.72063 0-2.9047 0.38803-2.9047 3.6697 0 3.2927 2.173 3.6475 2.8382 3.6475 1.1863 0 2.1952-0.98671 2.4169-2.6054 0.0222-0.15522 0.0222-0.18848 0.17738-0.18848 0.1663 0 0.1663 0.0333 0.1663 0.26608v2.6054c0 0.18847 0 0.26608-0.11086 0.26608-0.0444 0-0.0887 0-0.17739-0.13304l-0.55433-0.80932c-0.35477 0.35477-0.95345 0.94236-2.051 0.94236-2.051 0-3.8471-1.7406-3.8471-3.9912 0-2.2617 1.7739-4.0134 3.8692-4.0134 0.80932 0 1.6962 0.28825 2.0732 0.94236z"/><path d="m301.14 697.56v0.12195l-0.0111 0.13304-0.0222 0.13304-0.0222 0.12195-0.0222 0.12196-0.0333 0.12195-0.0444 0.12195-0.0443 0.12196-0.0444 0.11086-0.1108 0.22174-0.133 0.1996-0.0776 0.0998-0.1552 0.1774-0.1774 0.1774-0.0887 0.0665-0.0998 0.0776-0.1996 0.133-0.0998 0.0554-0.11087 0.0554-0.11087 0.0444-0.11086 0.0333-0.12196 0.0443-0.11086 0.0222-0.24391 0.0444-0.12195 0.0111h-0.12195l-0.0111-0.24391c0.47672 0 0.95345-0.2439 1.2417-0.70954 0.28825-0.47673 0.28825-1.1198 0.28825-1.53 0-0.39912 0-0.99779-0.2439-1.4856-0.24391-0.48781-0.73172-0.80932-1.275-0.80932-0.47673 0-0.96454 0.23282-1.2639 0.73172-0.27717 0.48781-0.27717 1.1641-0.27717 1.5632 0 0.42129 0 1.02 0.26608 1.5078 0.29934 0.4989 0.82041 0.73172 1.2639 0.73172l0.0111 0.24391c-1.3858 0-2.4612-1.1974-2.4612-2.5721 0-1.4302 1.153-2.4834 2.4502-2.4834 1.3304 0 2.4501 1.0754 2.4501 2.4834z"/><path d="m306.97 697.56v0.12195l-0.0111 0.13304-0.0222 0.13304-0.0222 0.12195-0.0222 0.12196-0.0333 0.12195-0.0444 0.12195-0.0444 0.12196-0.0443 0.11086-0.1108 0.22174-0.133 0.1996-0.0776 0.0998-0.1552 0.1774-0.1774 0.1774-0.0887 0.0665-0.0998 0.0776-0.1996 0.133-0.0998 0.0554-0.11086 0.0554-0.11087 0.0444-0.11086 0.0333-0.12196 0.0443-0.11086 0.0222-0.24391 0.0444-0.12195 0.0111h-0.13304v-0.24391c0.47672 0 0.95345-0.2439 1.2417-0.70954 0.28825-0.47673 0.28825-1.1198 0.28825-1.53 0-0.39912 0-0.99779-0.2439-1.4856-0.24391-0.48781-0.73172-0.80932-1.286-0.80932-0.46564 0-0.95345 0.23282-1.2528 0.73172-0.27717 0.48781-0.27717 1.1641-0.27717 1.5632 0 0.42129 0 1.02 0.26608 1.5078 0.29934 0.4989 0.82041 0.73172 1.2639 0.73172v0.24391c-1.3747 0-2.4502-1.1974-2.4502-2.5721 0-1.4302 1.153-2.4834 2.4502-2.4834 1.3304 0 2.4501 1.0754 2.4501 2.4834z"/><path d="m311.79 695.8v-0.73172l1.6297 0.12196v0.34368c-0.77607 0-0.86476 0.0776-0.86476 0.60977v6.6852l-1.5965-0.11087v-0.34368c0.77607 0 0.86476-0.0776 0.86476-0.62086v-2.3725c-0.32151 0.38804-0.79824 0.67629-1.3858 0.67629l0.0444-0.24391c0.37694 0 0.84258-0.1663 1.1863-0.65411 0.12195-0.18847 0.12195-0.21064 0.12195-0.4102v-2.2617c0-0.19956 0-0.22173-0.12195-0.4102-0.3326-0.52107-0.8315-0.76498-1.2971-0.76498-0.4989 0-0.89802 0.28825-1.1641 0.69846-0.28825 0.45455-0.32151 1.0865-0.32151 1.541 0 0.39912 0.0222 1.0643 0.34369 1.5632 0.23282 0.3326 0.65411 0.69846 1.2528 0.69846l-0.0444 0.24391c-1.3082 0-2.4723-1.0754-2.4723-2.4945 0-1.408 1.0865-2.4945 2.3393-2.4945 0.70955 0 1.2084 0.37695 1.4856 0.73172z"/><path d="m321.06 699.6h0.1665l0.0333-0.0111h0.0333l0.0333-0.0111h0.0333l0.0333-0.0111 0.111-0.0555 0.0555-0.0555 0.0111-0.0222 0.0111-0.0111 0.0111-0.0222 0.0111-0.0333v-0.0222l0.0111-0.0222 0.0111-0.0333v-0.0555l0.0111-0.0333v-3.1709c0-0.48781-0.12195-0.48781-0.85367-0.48781v-0.34368c0.36586 0.0111 0.94236 0.0333 1.2195 0.0333s0.82041-0.0222 1.2306-0.0333v0.34368c-0.74281 0-0.86476 0-0.86476 0.48781v4.0466l-1.3858-0.0998c-0.17739-0.0111-0.18847-0.0222-0.19956-0.0222-0.0222-0.0111-0.0444-0.0111-0.19956-0.0111h-1.3082v1.2417c0 1.0976 0.95345 1.541 1.6408 1.541 0.3326 0 0.72063-0.11087 0.94236-0.36586-0.44346-0.0222-0.50998-0.3326-0.50998-0.50998 0-0.36586 0.27716-0.50999 0.48781-0.50999 0.25499 0 0.50999 0.17739 0.50999 0.50999 0 0.65411-0.60977 1.1087-1.4191 1.1087-1.0311 0-2.3504-0.55433-2.3504-1.7628v-1.2528h-0.87584v-0.34369h0.87584v-3.5699c0-0.48781-0.12195-0.48781-0.86476-0.48781v-0.34368c0.36586 0.0111 0.95345 0.0333 1.2306 0.0333s0.82041-0.0222 1.2306-0.0333v0.34368c-0.74281 0-0.86476 0-0.86476 0.48781v3.5699z"/><path d="m325.45 699.6h1.5854v0.34369h-1.5854v2.0288h-0.26608c-0.0111-0.89802-0.34368-2.0843-1.4302-2.1286v-0.24391h0.94236v-3.0377c0-1.3526 1.0311-1.4856 1.4191-1.4856 0.78715 0 1.0976 0.78715 1.0976 1.4856v0.63194h-0.27717v-0.60976c0-0.80933-0.3326-1.2306-0.7428-1.2306-0.74281 0-0.74281 0.9978-0.74281 1.1863z"/></g>
</svg>
