<svg width="250mm" height="50mm" version="1.1" viewBox="0 0 1665.7 346.34" xmlns="http://www.w3.org/2000/svg" xmlns:ns0="http://www.iki.fi/pav/software/textext/">
 <defs>
  <marker id="Arrow1Send" overflow="visible" orient="auto">
   <path transform="matrix(-.2 0 0 -.2 -1.2 0)" d="m0 0 5-5-17.5 5 17.5 5z" fill="#f00" fill-opacity=".39216" fill-rule="evenodd" stroke="#f00" stroke-opacity=".39216" stroke-width="1pt"/>
  </marker>
  <marker id="a" overflow="visible" orient="auto">
   <path transform="matrix(-.2 0 0 -.2 -1.2 0)" d="m0 0 5-5-17.5 5 17.5 5z" fill="#f00" fill-opacity=".39216" fill-rule="evenodd" stroke="#f00" stroke-opacity=".39216" stroke-width="1pt"/>
  </marker>
 </defs>
 <g transform="translate(881 25.56)">
  <g fill="#003f95" fill-opacity=".3527">
   <rect x="-735.76" y="62.398" width="70.559" height="70.559" opacity=".97"/>
   <rect x="-735.79" y="135" width="70.559" height="70.559" opacity=".97"/>
   <rect x="-735.79" y="207.59" width="70.559" height="70.559" opacity=".97"/>
   <rect x="-808.38" y="135" width="70.559" height="70.559" opacity=".97"/>
   <rect x="-808.38" y="207.61" width="70.559" height="70.559" opacity=".97"/>
   <rect x="-663.18" y="207.6" width="70.559" height="70.559" opacity=".97"/>
   <rect x="-881" y="207.61" width="70.559" height="70.559" opacity=".97"/>
  </g>
  <g fill="none" stroke="#000" stroke-opacity=".6087" stroke-width="3">
   <path d="m-363.8 200.12c2.0565-7.2267 10.986-29.239 21.807-29.395 29.813 0.20995 36.29 120.28 60.3 119.94 14.016 0.11326 20.496-11.593 25.547-21.481"/>
   <path d="m-363.06 271.32c-3.0059 11.439-21.343 12.234-33.188 20.76-21.373 8.5263-28.126-50.179-55.387-55.712-12.056-2.4465-71.331-0.81919-71.459-0.81919"/>
   <path d="m-259.35 199.35c-0.20291-6.308-0.0107-15.235 0.53455-25.922"/>
   <path d="m-255.95 103.31c4.7354-8.5871 12.987-20.404 23.791-20.556 37.774 1.9984 20.578 199.16 60.018 202.02 9.2626-0.24202 19.967-6.212 22.687-20.934"/>
   <path d="m-148.97 193.5c0.5228-5.8816 0.92481-12.983 0.20044-19.043"/>
   <path d="m-150.52 104.06c-0.99147-6.1053 0.10949-13.047 1.2757-18.121"/>
   <path d="m-147.36 15.585c4.2579-11.236 10.673-20.973 19.267-21.113 36.757-0.075574 23.369 189.32 37.849 258.39 3.6452 17.388 15.807 33.747 24.056 34.103 9.2583 0.14531 17.191-8.6962 21.419-22.29"/>
   <path d="m-45.781 194.63c2.1748-9.9149 13.866-23.961 23.762-24.385 14.639 0.33496 23.945 26.19 38.248 42.119 12.791 14.245 26.971 16.962 33.113 17.081 16.572 0.1488 11.312 3.5962 28.363 4.1292"/>
  </g>
  <g fill="#003f95" fill-opacity=".3527">
   <rect x="-400.45" y="200.67" width="70.559" height="70.559" opacity=".97"/>
   <rect x="-294.62" y="199.16" width="70.559" height="70.559" opacity=".97"/>
   <rect x="-293.96" y="103.02" width="70.559" height="70.559" opacity=".97"/>
   <rect x="-185.76" y="193.49" width="70.559" height="70.559" opacity=".97"/>
   <rect x="-186.33" y="103.91" width="70.559" height="70.559" opacity=".97"/>
   <rect x="-184.25" y="15.461" width="70.559" height="70.559" opacity=".97"/>
   <rect x="-83.587" y="194.35" width="70.559" height="70.559" opacity=".97"/>
   <rect x="256.85" y="195.38" width="70.559" height="70.559" opacity=".97"/>
   <rect x="340.76" y="196.13" width="70.559" height="70.559" opacity=".97"/>
   <rect x="423.54" y="196.89" width="70.559" height="70.559" opacity=".97"/>
   <rect x="507.45" y="196.51" width="70.559" height="70.559" opacity=".97"/>
   <rect x="588.45" y="197.39" width="70.559" height="70.559" opacity=".97"/>
   <rect x="669.6" y="197.65" width="70.559" height="70.559" opacity=".97"/>
   <rect x="174.8" y="195.38" width="70.559" height="70.559" opacity=".97"/>
  </g>
  <g fill="none">
   <g stroke="#000" stroke-opacity=".6087" stroke-width="3">
    <path d="m130.14 231.54 44.667 0.26728"/>
    <path d="m740.17 234.66 44.485 0.26728"/>
    <path d="m245.39 232.15c3.9532 0.88095 7.7294 0.39889 11.543 0.0704"/>
    <path d="m327.11 232.27c3.8476 0.61095 9.8668 0.6933 13.714 0.17063"/>
    <path d="m411.32 234.21c3.8476 0.2516 8.6975 0.20133 12.545 0.10381"/>
    <path d="m493.86 234.23c3.9489 0.63104 10.082 1.0732 13.781 0.20404"/>
    <path d="m577.46 234.79c5.3439 1.3534 8.1375 0.41035 11.276-0.19687"/>
    <path d="m658.43 235.75c3.3995 0.4716 7.3919 0.35026 11.543 0.0704"/>
   </g>
   <path d="m20.092 247.26h71.202" marker-end="url(#Arrow1Send)" stroke="#f00" stroke-opacity=".39216" stroke-width="5.8"/>
  </g>
  <g>
   <g transform="matrix(3.4835 0 0 -3.4835 -96.544 2775.4)" fill-rule="evenodd" stroke="#000" stroke-miterlimit="10.433" stroke-width="0" ns0:preamble="default_packages.tex" ns0:text="$\\mathbb{M}{[X]}$\n" xml:space="preserve"><path d="m153.36 709.21-0.3-0.18c0.08-0.17 0.09-0.18 0.21-0.22l-0.44-1.05h-0.02l-2.27 5.4c-0.05 0.13-0.13 0.3-0.27 0.42h0.86l1.93-4.55 0.3 0.18-1.91 4.52c-0.07 0.2-0.08 0.2-0.35 0.2h-1.86c-0.18 0-0.33 0-0.33-0.18 0-0.17 0.18-0.17 0.23-0.17 0.12 0 0.39-0.02 0.61-0.1v-5.3c0-0.21 0-0.65-0.68-0.71-0.19-0.02-0.19-0.16-0.19-0.17 0-0.17 0.16-0.17 0.34-0.17h1.55c0.18 0 0.33 0 0.33 0.17 0 0.09-0.08 0.16-0.16 0.17-0.77 0.06-0.77 0.48-0.77 0.71l-0.21-0.6 0.09-0.11h-0.17c0.02 0.03 0.04 0.06 0.06 0.08 0.01 0.01 0.01 0.02 0.02 0.03l0.21 0.6v4.95l0.01 0.01 2.43-5.81c0.08-0.17 0.15-0.2 0.21-0.2 0.12 0 0.15 0.07 0.2 0.19l2.44 5.82 0.01-0.01v-4.95l0.35-0.02v5.42h1.06c-0.22-0.25-0.22-0.5-0.22-0.68v-4.74c0-0.18 0-0.44 0.23-0.69h-1.29c0.22 0.25 0.22 0.51 0.22 0.69l-0.35 0.02c0-0.21 0-0.65-0.68-0.71-0.19-0.02-0.19-0.16-0.19-0.17 0-0.17 0.16-0.17 0.35-0.17h2.66c0.18 0 0.33 0 0.33 0.17 0 0.09-0.08 0.16-0.16 0.17-0.77 0.06-0.77 0.48-0.77 0.71v4.7c0 0.21 0 0.64 0.68 0.7 0.1 0.01 0.19 0.06 0.19 0.17 0 0.18-0.15 0.18-0.33 0.18h-1.93c-0.26 0-0.28 0-0.37-0.21z"/><polygon points="159.7 705.04 159.7 714.18 160.66 714.18 160.66 714.58 159.3 714.58 159.3 704.64 160.66 704.64 160.66 705.04"/><path d="m165.73 711.21-0.84 1.97c-0.03 0.08-0.05 0.12-0.05 0.13 0 0.06 0.17 0.25 0.59 0.29 0.1 0.01 0.2 0.02 0.2 0.19 0 0.12-0.12 0.12-0.15 0.12-0.41 0-0.84-0.03-1.26-0.03-0.25 0-0.87 0.03-1.12 0.03-0.06 0-0.18 0-0.18-0.2 0-0.11 0.1-0.11 0.23-0.11 0.6 0 0.66-0.1 0.75-0.32l1.18-2.77-2.11-2.25-0.13-0.11c-0.49-0.53-0.95-0.69-1.46-0.72-0.13-0.01-0.22-0.01-0.22-0.2 0-0.01 0-0.1 0.13-0.1 0.3 0 0.63 0.03 0.94 0.03 0.36 0 0.75-0.03 1.11-0.03 0.06 0 0.18 0 0.18 0.19 0 0.1-0.1 0.11-0.12 0.11-0.09 0.01-0.4 0.03-0.4 0.31 0 0.16 0.15 0.32 0.27 0.45l1.02 1.07 0.9 0.97 1-2.37c0.04-0.11 0.05-0.12 0.05-0.14 0-0.08-0.19-0.25-0.57-0.29-0.11-0.01-0.2-0.02-0.2-0.19 0-0.11 0.11-0.11 0.15-0.11 0.28 0 0.97 0.03 1.25 0.03 0.25 0 0.86-0.03 1.11-0.03 0.07 0 0.19 0 0.19 0.18 0 0.12-0.1 0.12-0.18 0.12-0.67 0.01-0.69 0.04-0.86 0.44-0.39 0.92-1.06 2.47-1.28 3.07 0.67 0.7 1.72 1.88 2.04 2.15 0.29 0.24 0.67 0.48 1.27 0.51 0.13 0.01 0.22 0.01 0.22 0.2 0 0.01 0 0.11-0.13 0.11-0.3 0-0.63-0.03-0.94-0.03-0.37 0-0.75 0.03-1.11 0.03-0.06 0-0.19 0-0.19-0.2 0-0.07 0.05-0.1 0.12-0.11 0.09-0.01 0.4-0.03 0.4-0.31 0-0.13-0.11-0.26-0.19-0.35z"/><polygon points="170.14 714.18 171.11 714.18 171.11 705.04 170.14 705.04 170.14 704.64 171.51 704.64 171.51 714.58 170.14 714.58"/></g>
   <g id="content" transform="matrix(5.1138 0 0 -5.1138 -1893.8 3877.2)" fill-rule="evenodd" stroke="#000" stroke-miterlimit="10.433" stroke-opacity=".62745" ns0:preamble="default_packages.tex" ns0:text="$1 3 3 5 5 5 7$\n" xml:space="preserve"><g fill-opacity=".70588" stroke-width="0"><path d="m205.49 713.25v0.17l-0.01 0.01v0.02l-0.01 0.01v0.01l-0.01 0.01h-0.01v0.01h-0.01l-0.01 0.01h-0.03l-0.01 0.01h-0.13c-0.61-0.64-1.49-0.64-1.81-0.64v-0.3c0.2 0 0.79 0 1.31 0.25v-5.14c0-0.36-0.03-0.48-0.93-0.48h-0.32v-0.3c0.35 0.03 1.22 0.03 1.61 0.03 0.4 0 1.27 0 1.62-0.03v0.3h-0.32c-0.9 0-0.93 0.11-0.93 0.48z"/><path d="m219.99 710.62 0.07 0.03 0.08 0.03 0.14 0.06 0.21 0.12 0.12 0.08 0.18 0.15 0.1 0.1 0.05 0.06 0.05 0.05 0.05 0.06 0.12 0.18 0.03 0.07 0.03 0.06 0.03 0.07 0.03 0.06 0.08 0.28 0.02 0.14v0.15c0 0.81-0.87 1.37-1.83 1.37-1.01 0-1.77-0.59-1.77-1.35 0-0.33 0.22-0.52 0.51-0.52 0.31 0 0.51 0.22 0.51 0.51 0 0.5-0.47 0.5-0.62 0.5 0.31 0.48 0.97 0.61 1.33 0.61 0.41 0 0.95-0.22 0.95-1.11 0-0.12-0.02-0.7-0.27-1.13-0.3-0.48-0.64-0.51-0.89-0.52-0.08-0.01-0.32-0.03-0.39-0.03-0.08-0.01-0.15-0.02-0.15-0.12 0-0.11 0.07-0.11 0.24-0.11h0.44c0.82 0 1.19-0.67 1.19-1.65 0-1.35-0.69-1.64-1.13-1.64-0.43 0-1.18 0.17-1.53 0.76 0.35-0.05 0.66 0.17 0.66 0.55 0 0.35-0.27 0.55-0.56 0.55-0.24 0-0.56-0.14-0.56-0.57 0-0.91 0.93-1.56 2.02-1.56 1.21 0 2.12 0.9 2.12 1.91 0 0.82-0.63 1.59-1.66 1.8z"/><path d="m219.93 724.57 0.07 0.03 0.08 0.03 0.14 0.06 0.14 0.08 0.06 0.04 0.07 0.04 0.06 0.04 0.18 0.15 0.1 0.1 0.05 0.06 0.05 0.05 0.04 0.06 0.05 0.06 0.04 0.06 0.03 0.06 0.04 0.07 0.03 0.06 0.03 0.07 0.03 0.06 0.06 0.21 0.01 0.07 0.02 0.07v0.07l0.01 0.08v0.07c0 0.81-0.88 1.37-1.83 1.37-1.01 0-1.77-0.59-1.77-1.35 0-0.33 0.22-0.52 0.51-0.52 0.31 0 0.51 0.22 0.51 0.51 0 0.5-0.47 0.5-0.62 0.5 0.31 0.48 0.97 0.61 1.33 0.61 0.4 0 0.95-0.22 0.95-1.11 0-0.12-0.02-0.7-0.27-1.13-0.3-0.48-0.64-0.51-0.89-0.52-0.08-0.01-0.32-0.03-0.39-0.03-0.08-0.01-0.15-0.02-0.15-0.12 0-0.11 0.07-0.11 0.24-0.11h0.44c0.81 0 1.18-0.67 1.18-1.65 0-1.35-0.68-1.64-1.12-1.64-0.43 0-1.18 0.17-1.53 0.76 0.35-0.05 0.66 0.17 0.66 0.55 0 0.35-0.27 0.55-0.56 0.55-0.24 0-0.56-0.14-0.56-0.57 0-0.91 0.93-1.56 2.02-1.56 1.21 0 2.12 0.9 2.12 1.91 0 0.82-0.63 1.59-1.66 1.8z"/><path d="m235.77 709.23-0.01 0.11v0.11l-0.02 0.11-0.01 0.1-0.02 0.11-0.09 0.3-0.04 0.1-0.08 0.18-0.1 0.18-0.12 0.16-0.06 0.07-0.06 0.08-0.07 0.06-0.07 0.07-0.08 0.06-0.07 0.06-0.08 0.05-0.09 0.05-0.08 0.04-0.18 0.08-0.09 0.03-0.18 0.04-0.1 0.02h-0.1l-0.1 0.01c-0.48 0-0.91-0.16-1.27-0.51v1.94c0.2-0.06 0.53-0.13 0.85-0.13 1.23 0 1.93 0.9 1.93 1.03 0 0.06-0.03 0.11-0.1 0.11-0.01 0-0.03 0-0.08-0.03-0.2-0.09-0.69-0.29-1.36-0.29-0.4 0-0.86 0.07-1.33 0.28-0.08 0.03-0.1 0.03-0.12 0.03-0.1 0-0.1-0.08-0.1-0.24v-2.94c0-0.18 0-0.26 0.14-0.26 0.07 0 0.09 0.03 0.13 0.09 0.11 0.16 0.48 0.7 1.29 0.7 0.52 0 0.77-0.46 0.85-0.64 0.16-0.36 0.18-0.75 0.18-1.25 0-0.35 0-0.94-0.24-1.36-0.24-0.39-0.61-0.65-1.07-0.65-0.73 0-1.3 0.53-1.46 1.12 0.03-0.01 0.05-0.02 0.16-0.02 0.33 0 0.5 0.25 0.5 0.48 0 0.24-0.17 0.49-0.5 0.49-0.13 0-0.48-0.07-0.48-0.53 0-0.85 0.68-1.81 1.8-1.81 1.16 0 2.18 0.95 2.18 2.21z"/><g fill-rule="evenodd" stroke-miterlimit="10.433"><path d="m299.69 715.17v0.17l-0.01 0.01v0.02l-0.01 0.01v0.01l-0.01 0.01h-0.01v0.01h-0.01l-0.01 0.01h-0.03l-0.01 0.01h-0.13c-0.61-0.64-1.49-0.64-1.81-0.64v-0.3c0.2 0 0.79 0 1.31 0.25v-5.14c0-0.36-0.03-0.48-0.93-0.48h-0.32v-0.3c0.35 0.03 1.22 0.03 1.61 0.03 0.4 0 1.27 0 1.62-0.03v0.3h-0.32c-0.9 0-0.93 0.11-0.93 0.48z"/><path d="m412.25 716v0.17l-0.01 0.01v0.02l-0.01 0.01v0.01l-0.01 0.01h-0.01v0.01h-0.01l-0.01 0.01h-0.03l-0.01 0.01h-0.13c-0.61-0.64-1.49-0.64-1.81-0.64v-0.3c0.2 0 0.79 0 1.31 0.25v-5.14c0-0.36-0.03-0.48-0.93-0.48h-0.32v-0.3c0.35 0.03 1.22 0.03 1.61 0.03 0.4 0 1.27 0 1.62-0.03v0.3h-0.32c-0.9 0-0.93 0.11-0.93 0.48z"/><path d="m320.34 731.43 0.07 0.03 0.08 0.03 0.14 0.06 0.14 0.08 0.06 0.04 0.07 0.04 0.06 0.04 0.18 0.15 0.1 0.1 0.05 0.06 0.05 0.05 0.04 0.06 0.05 0.06 0.04 0.06 0.03 0.06 0.04 0.07 0.03 0.06 0.03 0.07 0.03 0.06 0.06 0.21 0.01 0.07 0.02 0.07v0.07l0.01 0.08v0.07c0 0.81-0.88 1.37-1.83 1.37-1.01 0-1.77-0.59-1.77-1.35 0-0.33 0.22-0.52 0.51-0.52 0.31 0 0.51 0.22 0.51 0.51 0 0.5-0.47 0.5-0.62 0.5 0.31 0.48 0.97 0.61 1.33 0.61 0.4 0 0.95-0.22 0.95-1.11 0-0.12-0.02-0.7-0.27-1.13-0.3-0.48-0.64-0.51-0.89-0.52-0.08-0.01-0.32-0.03-0.39-0.03-0.08-0.01-0.15-0.02-0.15-0.12 0-0.11 0.07-0.11 0.24-0.11h0.44c0.81 0 1.18-0.67 1.18-1.65 0-1.35-0.68-1.64-1.12-1.64-0.43 0-1.18 0.17-1.53 0.76 0.35-0.05 0.66 0.17 0.66 0.55 0 0.35-0.27 0.55-0.56 0.55-0.24 0-0.56-0.14-0.56-0.57 0-0.91 0.93-1.56 2.02-1.56 1.21 0 2.12 0.9 2.12 1.91 0 0.82-0.63 1.59-1.66 1.8z"/><path d="m320.34 711.88 0.07 0.03 0.08 0.03 0.14 0.06 0.14 0.08 0.06 0.04 0.07 0.04 0.06 0.04 0.18 0.15 0.1 0.1 0.05 0.06 0.05 0.05 0.04 0.06 0.05 0.06 0.04 0.06 0.03 0.06 0.04 0.07 0.03 0.06 0.03 0.07 0.03 0.06 0.06 0.21 0.01 0.07 0.02 0.07v0.07l0.01 0.08v0.07c0 0.81-0.88 1.37-1.83 1.37-1.01 0-1.77-0.59-1.77-1.35 0-0.33 0.22-0.52 0.51-0.52 0.31 0 0.51 0.22 0.51 0.51 0 0.5-0.47 0.5-0.62 0.5 0.31 0.48 0.97 0.61 1.33 0.61 0.4 0 0.95-0.22 0.95-1.11 0-0.12-0.02-0.7-0.27-1.13-0.3-0.48-0.64-0.51-0.89-0.52-0.08-0.01-0.32-0.03-0.39-0.03-0.08-0.01-0.15-0.02-0.15-0.12 0-0.11 0.07-0.11 0.24-0.11h0.44c0.81 0 1.18-0.67 1.18-1.65 0-1.35-0.68-1.64-1.12-1.64-0.43 0-1.18 0.17-1.53 0.76 0.35-0.05 0.66 0.17 0.66 0.55 0 0.35-0.27 0.55-0.56 0.55-0.24 0-0.56-0.14-0.56-0.57 0-0.91 0.93-1.56 2.02-1.56 1.21 0 2.12 0.9 2.12 1.91 0 0.82-0.63 1.59-1.66 1.8z"/><path d="m343.3 729.47-0.01 0.11v0.11l-0.02 0.11-0.01 0.1-0.02 0.11-0.09 0.3-0.04 0.1-0.08 0.18-0.1 0.18-0.12 0.16-0.06 0.07-0.06 0.08-0.07 0.06-0.07 0.07-0.08 0.06-0.07 0.06-0.16 0.1-0.18 0.08-0.08 0.04-0.1 0.03-0.18 0.04-0.1 0.02h-0.1l-0.1 0.01c-0.48 0-0.91-0.16-1.27-0.51v1.94c0.2-0.06 0.53-0.13 0.85-0.13 1.23 0 1.93 0.9 1.93 1.03 0 0.06-0.03 0.11-0.1 0.11-0.01 0-0.03 0-0.08-0.03-0.2-0.09-0.69-0.29-1.36-0.29-0.4 0-0.86 0.07-1.32 0.28-0.09 0.03-0.11 0.03-0.12 0.03-0.1 0-0.1-0.08-0.1-0.24v-2.94c0-0.18 0-0.26 0.13-0.26 0.08 0 0.09 0.03 0.14 0.09 0.11 0.16 0.47 0.7 1.28 0.7 0.52 0 0.77-0.46 0.85-0.64 0.16-0.36 0.18-0.75 0.18-1.25 0-0.35 0-0.94-0.24-1.36-0.24-0.39-0.61-0.65-1.07-0.65-0.73 0-1.29 0.53-1.46 1.12 0.03-0.01 0.06-0.02 0.17-0.02 0.32 0 0.49 0.25 0.49 0.48 0 0.24-0.17 0.49-0.49 0.49-0.14 0-0.49-0.07-0.49-0.53 0-0.85 0.68-1.81 1.8-1.81 1.16 0 2.18 0.95 2.18 2.21z"/><path d="m342.96 711.98-0.01 0.11v0.11l-0.02 0.11-0.01 0.1-0.02 0.11-0.09 0.3-0.04 0.1-0.08 0.18-0.1 0.18-0.12 0.16-0.06 0.07-0.06 0.08-0.07 0.06-0.07 0.07-0.08 0.06-0.07 0.06-0.16 0.1-0.18 0.08-0.08 0.04-0.1 0.03-0.18 0.04-0.1 0.02h-0.1l-0.1 0.01c-0.48 0-0.91-0.16-1.27-0.51v1.94c0.2-0.06 0.53-0.13 0.85-0.13 1.23 0 1.93 0.9 1.93 1.03 0 0.06-0.03 0.11-0.1 0.11-0.01 0-0.03 0-0.08-0.03-0.2-0.09-0.69-0.29-1.36-0.29-0.4 0-0.86 0.07-1.32 0.28-0.09 0.03-0.11 0.03-0.12 0.03-0.1 0-0.1-0.08-0.1-0.24v-2.94c0-0.18 0-0.26 0.13-0.26 0.08 0 0.09 0.03 0.14 0.09 0.11 0.16 0.47 0.7 1.28 0.7 0.52 0 0.77-0.46 0.85-0.64 0.16-0.36 0.18-0.75 0.18-1.25 0-0.35 0-0.94-0.24-1.36-0.24-0.39-0.61-0.65-1.07-0.65-0.73 0-1.29 0.53-1.46 1.12 0.03-0.01 0.06-0.02 0.17-0.02 0.32 0 0.49 0.25 0.49 0.48 0 0.24-0.17 0.49-0.49 0.49-0.14 0-0.49-0.07-0.49-0.53 0-0.85 0.68-1.81 1.8-1.81 1.16 0 2.18 0.95 2.18 2.21z"/></g><path d="m250.12 713.28v0.02l0.04 0.04v0.01l0.01 0.01v0.01l0.01 0.01v0.01l0.01 0.01v0.03h0.01v0.08l0.01 0.01v0.11h-2.43c-1.21 0-1.23 0.13-1.27 0.32h-0.25l-0.33-2.05h0.25c0.03 0.16 0.12 0.79 0.25 0.91 0.07 0.06 0.84 0.06 0.97 0.06h2.07c-0.11-0.16-0.9-1.24-1.12-1.57-0.9-1.34-1.23-2.72-1.23-3.74 0-0.1 0-0.54 0.46-0.54s0.46 0.44 0.46 0.54v0.51c0 0.55 0.03 1.09 0.11 1.63 0.04 0.23 0.18 1.08 0.62 1.7z"/><g fill-rule="evenodd" stroke-miterlimit="10.433"><path d="m363.54 716.21v0.02l0.04 0.04v0.01l0.01 0.01v0.01l0.01 0.01v0.01l0.01 0.01v0.03h0.01v0.08l0.01 0.01v0.11h-2.43c-1.21 0-1.23 0.13-1.27 0.32h-0.25l-0.33-2.05h0.25c0.03 0.16 0.12 0.79 0.25 0.91 0.07 0.06 0.84 0.06 0.97 0.06h2.07c-0.11-0.16-0.9-1.24-1.12-1.57-0.9-1.34-1.23-2.72-1.23-3.74 0-0.1 0-0.54 0.46-0.54s0.46 0.44 0.46 0.54v0.51c0 0.55 0.03 1.09 0.11 1.63 0.04 0.23 0.18 1.08 0.62 1.7z"/><path d="m510.93 715.23v0.02l0.04 0.04v0.01l0.01 0.01v0.01l0.01 0.01v0.01l0.01 0.01v0.03h0.01v0.08l0.01 0.01v0.11h-2.43c-1.21 0-1.23 0.13-1.27 0.32h-0.25l-0.33-2.05h0.25c0.03 0.16 0.12 0.79 0.25 0.91 0.07 0.06 0.84 0.06 0.97 0.06h2.07c-0.11-0.16-0.9-1.24-1.12-1.57-0.9-1.34-1.23-2.72-1.23-3.74 0-0.1 0-0.54 0.46-0.54s0.46 0.44 0.46 0.54v0.51c0 0.55 0.03 1.09 0.11 1.63 0.04 0.23 0.18 1.08 0.62 1.7z"/><path d="m494.92 710.94-0.01 0.11v0.11l-0.02 0.11-0.01 0.1-0.02 0.11-0.09 0.3-0.04 0.1-0.08 0.18-0.1 0.18-0.12 0.16-0.06 0.07-0.06 0.08-0.07 0.06-0.07 0.07-0.08 0.06-0.07 0.06-0.16 0.1-0.18 0.08-0.08 0.04-0.1 0.03-0.18 0.04-0.1 0.02h-0.1l-0.1 0.01c-0.48 0-0.91-0.16-1.27-0.51v1.94c0.2-0.06 0.53-0.13 0.85-0.13 1.23 0 1.93 0.9 1.93 1.03 0 0.06-0.03 0.11-0.1 0.11-0.01 0-0.03 0-0.08-0.03-0.2-0.09-0.69-0.29-1.36-0.29-0.4 0-0.86 0.07-1.32 0.28-0.09 0.03-0.11 0.03-0.12 0.03-0.1 0-0.1-0.08-0.1-0.24v-2.94c0-0.18 0-0.26 0.13-0.26 0.08 0 0.09 0.03 0.14 0.09 0.11 0.16 0.47 0.7 1.28 0.7 0.52 0 0.77-0.46 0.85-0.64 0.16-0.36 0.18-0.75 0.18-1.25 0-0.35 0-0.94-0.24-1.36-0.24-0.39-0.61-0.65-1.07-0.65-0.73 0-1.29 0.53-1.46 1.12 0.03-0.01 0.06-0.02 0.17-0.02 0.32 0 0.49 0.25 0.49 0.48 0 0.24-0.17 0.49-0.49 0.49-0.14 0-0.49-0.07-0.49-0.53 0-0.85 0.68-1.81 1.8-1.81 1.16 0 2.18 0.95 2.18 2.21z"/><path d="m478.7 711.24-0.01 0.11v0.11l-0.02 0.11-0.01 0.1-0.02 0.11-0.09 0.3-0.04 0.1-0.08 0.18-0.1 0.18-0.12 0.16-0.06 0.07-0.06 0.08-0.07 0.06-0.07 0.07-0.08 0.06-0.07 0.06-0.16 0.1-0.18 0.08-0.08 0.04-0.1 0.03-0.18 0.04-0.1 0.02h-0.1l-0.1 0.01c-0.48 0-0.91-0.16-1.27-0.51v1.94c0.2-0.06 0.53-0.13 0.85-0.13 1.23 0 1.93 0.9 1.93 1.03 0 0.06-0.03 0.11-0.1 0.11-0.01 0-0.03 0-0.08-0.03-0.2-0.09-0.69-0.29-1.36-0.29-0.4 0-0.86 0.07-1.32 0.28-0.09 0.03-0.11 0.03-0.12 0.03-0.1 0-0.1-0.08-0.1-0.24v-2.94c0-0.18 0-0.26 0.13-0.26 0.08 0 0.09 0.03 0.14 0.09 0.11 0.16 0.47 0.7 1.28 0.7 0.52 0 0.77-0.46 0.85-0.64 0.16-0.36 0.18-0.75 0.18-1.25 0-0.35 0-0.94-0.24-1.36-0.24-0.39-0.61-0.65-1.07-0.65-0.73 0-1.29 0.53-1.46 1.12 0.03-0.01 0.06-0.02 0.17-0.02 0.32 0 0.49 0.25 0.49 0.48 0 0.24-0.17 0.49-0.49 0.49-0.14 0-0.49-0.07-0.49-0.53 0-0.85 0.68-1.81 1.8-1.81 1.16 0 2.18 0.95 2.18 2.21z"/><path d="m462.56 711.23-0.01 0.11v0.11l-0.02 0.11-0.01 0.1-0.02 0.11-0.09 0.3-0.04 0.1-0.08 0.18-0.1 0.18-0.12 0.16-0.06 0.07-0.06 0.08-0.07 0.06-0.07 0.07-0.08 0.06-0.07 0.06-0.16 0.1-0.18 0.08-0.08 0.04-0.1 0.03-0.18 0.04-0.1 0.02h-0.1l-0.1 0.01c-0.48 0-0.91-0.16-1.27-0.51v1.94c0.2-0.06 0.53-0.13 0.85-0.13 1.23 0 1.93 0.9 1.93 1.03 0 0.06-0.03 0.11-0.1 0.11-0.01 0-0.03 0-0.08-0.03-0.2-0.09-0.69-0.29-1.36-0.29-0.4 0-0.86 0.07-1.32 0.28-0.09 0.03-0.11 0.03-0.12 0.03-0.1 0-0.1-0.08-0.1-0.24v-2.94c0-0.18 0-0.26 0.13-0.26 0.08 0 0.09 0.03 0.14 0.09 0.11 0.16 0.47 0.7 1.28 0.7 0.52 0 0.77-0.46 0.85-0.64 0.16-0.36 0.18-0.75 0.18-1.25 0-0.35 0-0.94-0.24-1.36-0.24-0.39-0.61-0.65-1.07-0.65-0.73 0-1.29 0.53-1.46 1.12 0.03-0.01 0.06-0.02 0.17-0.02 0.32 0 0.49 0.25 0.49 0.48 0 0.24-0.17 0.49-0.49 0.49-0.14 0-0.49-0.07-0.49-0.53 0-0.85 0.68-1.81 1.8-1.81 1.16 0 2.18 0.95 2.18 2.21z"/><path d="m444.79 712.62 0.07 0.03 0.08 0.03 0.14 0.06 0.14 0.08 0.06 0.04 0.07 0.04 0.06 0.04 0.18 0.15 0.1 0.1 0.05 0.06 0.05 0.05 0.04 0.06 0.05 0.06 0.04 0.06 0.03 0.06 0.04 0.07 0.03 0.06 0.03 0.07 0.03 0.06 0.06 0.21 0.01 0.07 0.02 0.07v0.07l0.01 0.08v0.07c0 0.81-0.88 1.37-1.83 1.37-1.01 0-1.77-0.59-1.77-1.35 0-0.33 0.22-0.52 0.51-0.52 0.31 0 0.51 0.22 0.51 0.51 0 0.5-0.47 0.5-0.62 0.5 0.31 0.48 0.97 0.61 1.33 0.61 0.4 0 0.95-0.22 0.95-1.11 0-0.12-0.02-0.7-0.27-1.13-0.3-0.48-0.64-0.51-0.89-0.52-0.08-0.01-0.32-0.03-0.39-0.03-0.08-0.01-0.15-0.02-0.15-0.12 0-0.11 0.07-0.11 0.24-0.11h0.44c0.81 0 1.18-0.67 1.18-1.65 0-1.35-0.68-1.64-1.12-1.64-0.43 0-1.18 0.17-1.53 0.76 0.35-0.05 0.66 0.17 0.66 0.55 0 0.35-0.27 0.55-0.56 0.55-0.24 0-0.56-0.14-0.56-0.57 0-0.91 0.93-1.56 2.02-1.56 1.21 0 2.12 0.9 2.12 1.91 0 0.82-0.63 1.59-1.66 1.8z"/><path d="m427.81 712.8 0.07 0.03 0.08 0.03 0.14 0.06 0.14 0.08 0.06 0.04 0.07 0.04 0.06 0.04 0.18 0.15 0.1 0.1 0.05 0.06 0.05 0.05 0.04 0.06 0.05 0.06 0.04 0.06 0.03 0.06 0.04 0.07 0.03 0.06 0.03 0.07 0.03 0.06 0.06 0.21 0.01 0.07 0.02 0.07v0.07l0.01 0.08v0.07c0 0.81-0.88 1.37-1.83 1.37-1.01 0-1.77-0.59-1.77-1.35 0-0.33 0.22-0.52 0.51-0.52 0.31 0 0.51 0.22 0.51 0.51 0 0.5-0.47 0.5-0.62 0.5 0.31 0.48 0.97 0.61 1.33 0.61 0.4 0 0.95-0.22 0.95-1.11 0-0.12-0.02-0.7-0.27-1.13-0.3-0.48-0.64-0.51-0.89-0.52-0.08-0.01-0.32-0.03-0.39-0.03-0.08-0.01-0.15-0.02-0.15-0.12 0-0.11 0.07-0.11 0.24-0.11h0.44c0.81 0 1.18-0.67 1.18-1.65 0-1.35-0.68-1.64-1.12-1.64-0.43 0-1.18 0.17-1.53 0.76 0.35-0.05 0.66 0.17 0.66 0.55 0 0.35-0.27 0.55-0.56 0.55-0.24 0-0.56-0.14-0.56-0.57 0-0.91 0.93-1.56 2.02-1.56 1.21 0 2.12 0.9 2.12 1.91 0 0.82-0.63 1.59-1.66 1.8z"/><path d="m343.33 747.28-0.01 0.11v0.11l-0.02 0.11-0.01 0.1-0.02 0.11-0.09 0.3-0.04 0.1-0.08 0.18-0.1 0.18-0.12 0.16-0.06 0.07-0.06 0.08-0.07 0.06-0.07 0.07-0.08 0.06-0.07 0.06-0.16 0.1-0.18 0.08-0.08 0.04-0.1 0.03-0.18 0.04-0.1 0.02h-0.1l-0.1 0.01c-0.48 0-0.91-0.16-1.27-0.51v1.94c0.2-0.06 0.53-0.13 0.85-0.13 1.23 0 1.93 0.9 1.93 1.03 0 0.06-0.03 0.11-0.1 0.11-0.01 0-0.03 0-0.08-0.03-0.2-0.09-0.69-0.29-1.36-0.29-0.4 0-0.86 0.07-1.32 0.28-0.09 0.03-0.11 0.03-0.12 0.03-0.1 0-0.1-0.08-0.1-0.24v-2.94c0-0.18 0-0.26 0.13-0.26 0.08 0 0.09 0.03 0.14 0.09 0.11 0.16 0.47 0.7 1.28 0.7 0.52 0 0.77-0.46 0.85-0.64 0.16-0.36 0.18-0.75 0.18-1.25 0-0.35 0-0.94-0.24-1.36-0.24-0.39-0.61-0.65-1.07-0.65-0.73 0-1.29 0.53-1.46 1.12 0.03-0.01 0.06-0.02 0.17-0.02 0.32 0 0.49 0.25 0.49 0.48 0 0.24-0.17 0.49-0.49 0.49-0.14 0-0.49-0.07-0.49-0.53 0-0.85 0.68-1.81 1.8-1.81 1.16 0 2.18 0.95 2.18 2.21z"/></g><path d="m235.62 737.93v0.11l-0.02 0.22-0.01 0.1-0.02 0.11-0.09 0.3-0.04 0.1-0.08 0.18-0.1 0.18-0.12 0.16-0.06 0.07-0.07 0.08-0.13 0.13-0.16 0.12-0.07 0.05-0.09 0.05-0.08 0.04-0.18 0.08-0.09 0.03-0.09 0.02-0.1 0.02-0.09 0.02h-0.1l-0.1 0.01c-0.48 0-0.91-0.16-1.27-0.51v1.94c0.2-0.06 0.53-0.13 0.85-0.13 1.23 0 1.92 0.9 1.92 1.03 0 0.06-0.03 0.11-0.09 0.11-0.02 0-0.03 0-0.08-0.03-0.2-0.09-0.69-0.29-1.36-0.29-0.4 0-0.86 0.07-1.33 0.28-0.08 0.03-0.1 0.03-0.12 0.03-0.1 0-0.1-0.08-0.1-0.24v-2.94c0-0.18 0-0.26 0.14-0.26 0.07 0 0.09 0.03 0.13 0.09 0.11 0.16 0.48 0.7 1.29 0.7 0.52 0 0.77-0.46 0.85-0.64 0.16-0.36 0.18-0.75 0.18-1.25 0-0.35 0-0.94-0.24-1.36-0.24-0.39-0.61-0.65-1.07-0.65-0.73 0-1.3 0.53-1.47 1.12 0.03-0.01 0.06-0.02 0.17-0.02 0.33 0 0.5 0.25 0.5 0.48 0 0.24-0.17 0.49-0.5 0.49-0.14 0-0.49-0.07-0.49-0.53 0-0.85 0.69-1.81 1.81-1.81 1.16 0 2.17 0.95 2.17 2.21z"/><path d="m235.38 723.3-0.01 0.11v0.11l-0.02 0.11-0.01 0.1-0.02 0.11-0.09 0.3-0.04 0.1-0.08 0.18-0.1 0.18-0.12 0.16-0.06 0.07-0.06 0.08-0.07 0.06-0.07 0.07-0.08 0.06-0.07 0.06-0.16 0.1-0.18 0.08-0.08 0.04-0.1 0.03-0.18 0.04-0.1 0.02h-0.1l-0.1 0.01c-0.48 0-0.91-0.16-1.27-0.51v1.94c0.2-0.06 0.53-0.13 0.85-0.13 1.23 0 1.93 0.9 1.93 1.03 0 0.06-0.03 0.11-0.1 0.11-0.01 0-0.03 0-0.08-0.03-0.2-0.09-0.69-0.29-1.36-0.29-0.4 0-0.86 0.07-1.32 0.28-0.09 0.03-0.11 0.03-0.12 0.03-0.1 0-0.1-0.08-0.1-0.24v-2.94c0-0.18 0-0.26 0.13-0.26 0.08 0 0.09 0.03 0.14 0.09 0.11 0.16 0.47 0.7 1.28 0.7 0.52 0 0.77-0.46 0.85-0.64 0.16-0.36 0.18-0.75 0.18-1.25 0-0.35 0-0.94-0.24-1.36-0.24-0.39-0.61-0.65-1.07-0.65-0.73 0-1.29 0.53-1.46 1.12 0.03-0.01 0.06-0.02 0.17-0.02 0.32 0 0.49 0.25 0.49 0.48 0 0.24-0.17 0.49-0.49 0.49-0.14 0-0.49-0.07-0.49-0.53 0-0.85 0.68-1.81 1.8-1.81 1.16 0 2.18 0.95 2.18 2.21z"/></g><text transform="scale(1,-1)" x="374.46185" y="-703.50696" fill="#b80000" fill-opacity=".66184" font-family="Verdana" font-size="5.5578px" letter-spacing="0px" stroke="none" stroke-width=".015176" word-spacing="0px" style="line-height:1.25" xml:space="preserve"><tspan x="374.46185" y="-703.50696" fill="#b80000" fill-opacity=".66184" font-family="'Courier New'" font-size="5.5578px" font-weight="bold" stroke-width=".015176" style="font-feature-settings:normal;font-variant-caps:normal;font-variant-ligatures:normal;font-variant-numeric:normal">PULL</tspan></text>
</g>
   <path d="m-448.57 255.35h-71.202" fill="none" marker-end="url(#a)" stroke="#f00" stroke-opacity=".39216" stroke-width="5.8"/>
   <text x="-513.83649" y="286.88403" fill="#b80000" fill-opacity=".66184" fill-rule="evenodd" font-family="Verdana" font-size="28.421px" letter-spacing="0px" stroke-miterlimit="10.433" stroke-opacity=".62745" stroke-width=".077609" word-spacing="0px" style="line-height:1.25" xml:space="preserve"><tspan x="-513.83649" y="286.88403" fill="#b80000" fill-opacity=".66184" font-family="'Courier New'" font-size="28.421px" font-weight="bold" stroke-width=".077609" style="font-feature-settings:normal;font-variant-caps:normal;font-variant-ligatures:normal;font-variant-numeric:normal">PULL</tspan></text>
   <g transform="matrix(3.9033 0 0 -3.9033 -717.39 2679.1)" fill-rule="evenodd" stroke="#000" stroke-miterlimit="10.433" ns0:preamble="default_packages.tex" ns0:text="$$\\text{Histogram}$$\n$$\\text{Sorted array}$$\n" xml:space="preserve"><g fill-opacity=".78431" stroke-width="0"><path d="m-18.818 691.89v0.12l0.01 0.03v0.05l0.01 0.02v0.03l0.03 0.06 0.01 0.01 0.01 0.02 0.02 0.01 0.02 0.02 0.04 0.02 0.01 0.01h0.01l0.02 0.01h0.01l0.02 0.01h0.01l0.02 0.01h0.03l0.02 0.01h0.04l0.02 0.01h0.07l0.03 0.01h0.16l0.03 0.01h0.38v0.31c-0.35-0.04-1.09-0.04-1.47-0.04s-1.12 0-1.47 0.04v-0.31h0.24c0.76 0 0.78-0.11 0.78-0.47v-2.33h-2.98v2.33c0 0.36 0.02 0.47 0.79 0.47h0.24v0.31c-0.35-0.04-1.09-0.04-1.47-0.04s-1.12 0-1.47 0.04v-0.31h0.24c0.76 0 0.78-0.11 0.78-0.47v-5.23c0-0.36-0.02-0.47-0.78-0.47h-0.24v-0.31c0.35 0.03 1.08 0.03 1.46 0.03s1.13 0 1.48-0.03v0.31h-0.24c-0.77 0-0.79 0.11-0.79 0.47v2.6h2.98v-2.6c0-0.36-0.02-0.47-0.78-0.47h-0.24v-0.31c0.35 0.03 1.08 0.03 1.46 0.03s1.13 0 1.48-0.03v0.31h-0.24c-0.77 0-0.79 0.11-0.79 0.47z"/><path d="m-15.688 690.27-1.4-0.11v-0.31c0.65 0 0.74-0.06 0.74-0.54v-2.68c0-0.44-0.11-0.44-0.78-0.44v-0.31c0.32 0.01 0.86 0.03 1.1 0.03 0.34 0 0.69-0.02 1.03-0.03v0.31c-0.66 0-0.69 0.05-0.69 0.43z"/><path d="m-15.658 692v0.09l-0.01 0.02v0.03l-0.01 0.03-0.01 0.02-0.01 0.03-0.03 0.06-0.02 0.03-0.01 0.02-0.02 0.02-0.02 0.01-0.01 0.02-0.02 0.02-0.02 0.01-0.02 0.02-0.02 0.01-0.03 0.02-0.06 0.03-0.03 0.01h-0.02l-0.03 0.01-0.02 0.01h-0.05l-0.03 0.01h-0.02c-0.31 0-0.53-0.27-0.53-0.53 0-0.27 0.22-0.53 0.53-0.53 0.28 0 0.52 0.21 0.52 0.53z"/><path d="m-12.618 687.81 0.02-0.01h0.03l0.03-0.01h0.03l0.03-0.01 0.16-0.04 0.04-0.02 0.04-0.01 0.05-0.02 0.08-0.04 0.05-0.02 0.04-0.03 0.05-0.02 0.12-0.09 0.04-0.04 0.03-0.04 0.04-0.04 0.06-0.08 0.01-0.03 0.01-0.02 0.01-0.03 0.01-0.02 0.01-0.03 0.01-0.02 0.02-0.06v-0.03l0.01-0.03v-0.03l0.01-0.03v-0.07c0-0.5-0.35-0.9-1.13-0.9-0.84 0-1.2 0.56-1.38 1.41-0.03 0.13-0.04 0.17-0.14 0.17-0.13 0-0.13-0.07-0.13-0.25v-1.31c0-0.17 0-0.24 0.11-0.24 0.05 0 0.06 0.01 0.25 0.2 0.02 0.02 0.02 0.04 0.19 0.23 0.44-0.42 0.89-0.43 1.1-0.43 1.15 0 1.61 0.67 1.61 1.38 0 0.53-0.3 0.83-0.42 0.95-0.33 0.31-0.72 0.39-1.14 0.47-0.56 0.11-1.22 0.24-1.22 0.82 0 0.34 0.25 0.75 1.11 0.75 1.1 0 1.15-0.89 1.17-1.2 0.01-0.09 0.1-0.09 0.12-0.09 0.13 0 0.13 0.05 0.13 0.24v1c0 0.17 0 0.24-0.11 0.24-0.05 0-0.07 0-0.2-0.12-0.03-0.04-0.13-0.13-0.17-0.16-0.38 0.28-0.79 0.28-0.94 0.28-1.21 0-1.59-0.66-1.59-1.22 0-0.35 0.16-0.63 0.42-0.85 0.32-0.25 0.6-0.31 1.32-0.45z"/><path d="m-9.0377 689.85h1.43v0.31h-1.43v1.83h-0.25c-0.01-0.81-0.31-1.88-1.28-1.92v-0.22h0.84v-2.74c0-1.22 0.93-1.34 1.29-1.34 0.71 0 0.99 0.71 0.99 1.34v0.57h-0.25v-0.55c0-0.73-0.3-1.11-0.67-1.11-0.67 0-0.67 0.9-0.67 1.07z"/><path d="m-2.1877 688.01v0.11l-0.01 0.12-0.02 0.12-0.04 0.22-0.03 0.11-0.08 0.22-0.04 0.1-0.1 0.2-0.12 0.18-0.07 0.09-0.14 0.16-0.16 0.16-0.08 0.06-0.09 0.07-0.18 0.12-0.09 0.05-0.1 0.05-0.1 0.04-0.1 0.03-0.11 0.04-0.1 0.02-0.22 0.04-0.11 0.01h-0.12l-0.01-0.22c0.44 0 0.87-0.22 1.13-0.64 0.26-0.43 0.26-1.01 0.26-1.38 0-0.36 0-0.9-0.22-1.34s-0.66-0.73-1.16-0.73c-0.42 0-0.86 0.21-1.13 0.66-0.25 0.44-0.25 1.05-0.25 1.41 0 0.38 0 0.92 0.24 1.36 0.27 0.45 0.73 0.66 1.13 0.66l0.01 0.22c-1.24 0-2.21-1.08-2.21-2.32 0-1.29 1.04-2.24 2.2-2.24 1.21 0 2.22 0.97 2.22 2.24z"/><path d="m-0.84772 687.2v0.07l0.01 0.02v0.05l0.01 0.02v0.01l0.01 0.02v0.02l0.01 0.02v0.01l0.01 0.02v0.02l0.03 0.06 0.01 0.01 0.02 0.04 0.02 0.02 0.02 0.04 0.02 0.02c0.39-0.28 0.8-0.31 0.99-0.31v0.23c-0.87 0-0.87 0.99-0.87 1.22 0 0.27 0.01 0.59 0.16 0.83 0.08 0.12 0.31 0.4 0.71 0.4 0.86 0 0.86-0.99 0.86-1.22 0-0.27-0.01-0.59-0.16-0.83-0.08-0.12-0.3-0.4-0.7-0.4v-0.23c0.92 0 1.61 0.69 1.61 1.45 0 0.37-0.16 0.74-0.41 0.96 0.36 0.34 0.72 0.39 0.9 0.39 0.02 0 0.07 0 0.1-0.01-0.11-0.04-0.16-0.15-0.16-0.27 0-0.17 0.13-0.28 0.29-0.28 0.1 0 0.29 0.07 0.29 0.29 0 0.17-0.12 0.49-0.51 0.49-0.2 0-0.64-0.06-1.06-0.47-0.42 0.33-0.83 0.36-1.05 0.36-0.93 0-1.62-0.68-1.62-1.45 0-0.44 0.22-0.81 0.47-1.02-0.13-0.15-0.31-0.48-0.31-0.83 0-0.3 0.13-0.68 0.44-0.88-0.6-0.17-0.92-0.6-0.92-0.99 0-0.72 0.99-1.27 2.21-1.27l0.01 0.23c-1.01 0-1.7 0.51-1.7 1.04 0 0.45 0.38 0.82 0.82 0.85h0.59c0.85 0 1.97 0 1.97-0.85 0-0.54-0.71-1.04-1.68-1.04l-0.01-0.23c1.17 0 2.21 0.51 2.21 1.29 0 0.34-0.14 0.85-0.65 1.13-0.53 0.28-1.11 0.28-1.71 0.28-0.25 0-0.68 0-0.75 0.01-0.32 0.03-0.53 0.34-0.53 0.66z"/><path d="m4.7423 689.18v1.09l-1.39-0.11v-0.31c0.7 0 0.78-0.07 0.78-0.55v-2.67c0-0.44-0.11-0.44-0.78-0.44v-0.31c0.39 0.01 0.86 0.03 1.14 0.03 0.4 0 0.87 0 1.27-0.03v0.31h-0.21c-0.74 0-0.76 0.11-0.76 0.47v1.52c0 0.99 0.42 1.87 1.18 1.87 0.06 0 0.09 0 0.11-0.01-0.03-0.01-0.23-0.13-0.23-0.38 0-0.28 0.21-0.43 0.42-0.43 0.18 0 0.43 0.12 0.43 0.44 0 0.31-0.3 0.6-0.73 0.6-0.73 0-1.09-0.66-1.23-1.09z"/><path d="m10.302 686.63v-0.03l0.01-0.04v-0.04l0.01-0.03 0.02-0.08 0.02-0.03 0.02-0.08 0.04-0.06 0.02-0.04 0.06-0.09 0.03-0.03 0.02-0.03 0.08-0.08 0.06-0.04 0.04-0.02 0.03-0.02 0.04-0.01 0.03-0.02 0.16-0.04h0.09c0.2 0 0.81 0.14 0.81 0.94v0.56h-0.25v-0.56c0-0.57-0.25-0.63-0.36-0.63-0.32 0-0.36 0.44-0.36 0.49v1.99c0 0.42 0 0.81-0.36 1.17-0.39 0.39-0.89 0.55-1.37 0.55-0.82 0-1.51-0.47-1.51-1.12 0-0.3 0.2-0.47 0.46-0.47 0.28 0 0.46 0.2 0.46 0.46 0 0.12-0.05 0.44-0.51 0.46 0.27 0.34 0.76 0.45 1.08 0.45 0.49 0 1.06-0.39 1.06-1.27v-1.57c0-0.94-0.72-1.28-1.17-1.28-0.49 0-0.9 0.35-0.9 0.84 0 0.55 0.42 1.37 2.07 1.43v0.21c-0.51-0.03-1.21-0.06-1.84-0.35-0.75-0.34-0.99-0.86-0.99-1.3 0-0.8 0.96-1.05 1.59-1.05 0.66 0 1.12 0.4 1.31 0.86z"/><path d="m13.052 689.3v-2.67c0-0.44-0.11-0.44-0.77-0.44v-0.31c0.35 0.01 0.85 0.03 1.12 0.03 0.26 0 0.78-0.02 1.12-0.03v0.31c-0.67 0-0.78 0-0.78 0.44v1.83c0 1.04 0.71 1.59 1.35 1.59 0.63 0 0.74-0.53 0.74-1.1v-2.32c0-0.44-0.11-0.44-0.78-0.44v-0.31c0.35 0.01 0.86 0.03 1.13 0.03 0.25 0 0.77-0.02 1.11-0.03v0.31c-0.67 0-0.77 0-0.77 0.44v1.83c0 1.04 0.7 1.59 1.34 1.59 0.63 0 0.74-0.53 0.74-1.1v-2.32c0-0.44-0.11-0.44-0.78-0.44v-0.31c0.35 0.01 0.86 0.03 1.13 0.03 0.26 0 0.78-0.02 1.11-0.03v0.31c-0.51 0-0.76 0-0.77 0.3v1.89c0 0.86 0 1.17-0.31 1.52-0.14 0.17-0.47 0.37-1.05 0.37-0.84 0-1.28-0.59-1.44-0.97-0.15 0.86-0.88 0.97-1.33 0.97-0.73 0-1.2-0.43-1.48-1.04v1.04l-1.4-0.11v-0.31c0.69 0 0.77-0.07 0.77-0.55z"/><path d="m280.15 689.78-1.27 0.31c-0.62 0.15-1.01 0.69-1.01 1.26 0 0.7 0.54 1.3 1.32 1.3 1.66 0 1.88-1.63 1.94-2.07 0.01-0.06 0.01-0.12 0.12-0.12 0.13 0 0.13 0.05 0.13 0.24v1.99c0 0.17 0 0.24-0.11 0.24-0.07 0-0.08-0.01-0.15-0.13l-0.35-0.57c-0.3 0.29-0.71 0.7-1.6 0.7-1.1 0-1.94-0.87-1.94-1.93 0-0.82 0.53-1.55 1.31-1.82 0.11-0.03 0.62-0.15 1.31-0.32 0.27-0.07 0.57-0.14 0.85-0.51 0.21-0.26 0.31-0.58 0.31-0.91 0-0.71-0.5-1.42-1.34-1.42-0.29 0-1.04 0.05-1.57 0.53-0.58 0.54-0.61 1.17-0.62 1.53-0.01 0.1-0.09 0.1-0.12 0.1-0.13 0-0.13-0.07-0.13-0.25v-1.98c0-0.17 0-0.24 0.11-0.24 0.07 0 0.08 0.02 0.15 0.13 0 0.01 0.03 0.04 0.36 0.56 0.31-0.33 0.95-0.69 1.83-0.69 1.17 0 1.97 0.97 1.97 2.07 0 0.99-0.66 1.8-1.5 2z"/><path d="m286.9 688.05v0.12l-0.01 0.12-0.01 0.11-0.02 0.12-0.09 0.33-0.04 0.1-0.05 0.11-0.04 0.1-0.06 0.09-0.06 0.1-0.12 0.18-0.07 0.08-0.08 0.08-0.07 0.08-0.08 0.07-0.09 0.07-0.08 0.07-0.09 0.06-0.09 0.05-0.1 0.06-0.3 0.12-0.1 0.03-0.11 0.03-0.11 0.02-0.33 0.03-0.01-0.22c0.44 0 0.87-0.22 1.13-0.65 0.26-0.42 0.26-1 0.26-1.38 0-0.35 0-0.89-0.22-1.33-0.22-0.45-0.66-0.73-1.16-0.73-0.43 0-0.87 0.21-1.14 0.66-0.25 0.44-0.25 1.05-0.25 1.4 0 0.39 0 0.93 0.24 1.36 0.27 0.46 0.74 0.67 1.14 0.67l0.01 0.22c-1.25 0-2.21-1.09-2.21-2.33 0-1.28 1.03-2.23 2.2-2.23 1.21 0 2.21 0.97 2.21 2.23z"/><path d="m288.85 689.22v1.1l-1.38-0.11v-0.31c0.7 0 0.78-0.07 0.78-0.56v-2.66c0-0.45-0.11-0.45-0.78-0.45v-0.3c0.39 0.01 0.85 0.03 1.13 0.03 0.4 0 0.87 0 1.27-0.03v0.3h-0.21c-0.74 0-0.76 0.11-0.76 0.47v1.53c0 0.99 0.42 1.87 1.18 1.87 0.07 0 0.09 0 0.11-0.01-0.03-0.01-0.23-0.13-0.23-0.39 0-0.28 0.21-0.42 0.43-0.42 0.18 0 0.43 0.11 0.43 0.43s-0.31 0.61-0.74 0.61c-0.73 0-1.09-0.67-1.23-1.1z"/><path d="m292.82 689.9h1.42v0.31h-1.42v1.83h-0.25c-0.01-0.82-0.31-1.88-1.29-1.92v-0.22h0.85v-2.74c0-1.22 0.93-1.34 1.28-1.34 0.71 0 0.99 0.7 0.99 1.34v0.56h-0.25v-0.54c0-0.74-0.3-1.11-0.67-1.11-0.66 0-0.66 0.9-0.66 1.07z"/><path d="m296.07 688.22 0.01 0.21c0.06 1.48 0.9 1.73 1.24 1.73 1.03 0 1.13-1.34 1.13-1.73h-2.37l-0.01-0.21h2.78c0.22 0 0.25 0 0.25 0.21 0 0.98-0.53 1.95-1.78 1.95-1.16 0-2.07-1.03-2.07-2.27 0-1.33 1.04-2.29 2.19-2.29 1.22 0 1.66 1.1 1.66 1.29 0 0.1-0.08 0.12-0.13 0.12-0.09 0-0.11-0.06-0.13-0.14-0.34-1.02-1.24-1.02-1.34-1.02-0.5 0-0.9 0.29-1.13 0.66-0.3 0.48-0.3 1.13-0.3 1.49z"/><path d="m303.18 686.47v-0.65l1.47 0.11v0.3c-0.7 0-0.78 0.07-0.78 0.56v6.03l-1.44-0.11v-0.31c0.7 0 0.78-0.07 0.78-0.55v-2.15c-0.29 0.36-0.72 0.62-1.26 0.62l0.05-0.22c0.34 0 0.76-0.15 1.07-0.6 0.11-0.17 0.11-0.19 0.11-0.36v-2.04c0-0.18 0-0.2-0.11-0.37-0.3-0.47-0.75-0.69-1.17-0.69-0.45 0-0.81 0.25-1.05 0.63-0.26 0.41-0.29 0.98-0.29 1.38 0 0.37 0.02 0.97 0.31 1.41 0.21 0.31 0.59 0.64 1.13 0.64l-0.05 0.22c-1.17 0-2.22-0.98-2.22-2.26 0-1.26 0.98-2.24 2.12-2.24 0.63 0 1.08 0.34 1.33 0.65z"/><path d="m311.57 686.68v-0.04l0.01-0.03v-0.04l0.01-0.04 0.01-0.03 0.02-0.08 0.02-0.03 0.01-0.04 0.02-0.03 0.02-0.04 0.1-0.15 0.06-0.06 0.02-0.03 0.09-0.06 0.04-0.02 0.03-0.02 0.04-0.02 0.03-0.01 0.16-0.04h0.08c0.21 0 0.82 0.14 0.82 0.94v0.56h-0.25v-0.56c0-0.58-0.25-0.64-0.36-0.64-0.33 0-0.37 0.45-0.37 0.5v1.99c0 0.42 0 0.8-0.36 1.17-0.38 0.39-0.88 0.55-1.36 0.55-0.82 0-1.51-0.47-1.51-1.12 0-0.3 0.2-0.47 0.46-0.47 0.28 0 0.46 0.2 0.46 0.45 0 0.12-0.05 0.45-0.51 0.46 0.27 0.35 0.76 0.46 1.08 0.46 0.49 0 1.06-0.39 1.06-1.27v-1.57c0-0.95-0.72-1.28-1.17-1.28-0.49 0-0.9 0.34-0.9 0.84 0 0.55 0.42 1.37 2.07 1.43v0.21c-0.51-0.03-1.21-0.06-1.84-0.36-0.75-0.34-1-0.85-1-1.29 0-0.8 0.97-1.05 1.6-1.05 0.66 0 1.12 0.4 1.31 0.86z"/><path d="m314.89 689.22v1.1l-1.38-0.11v-0.31c0.69 0 0.77-0.07 0.77-0.56v-2.66c0-0.45-0.11-0.45-0.77-0.45v-0.3c0.38 0.01 0.85 0.03 1.13 0.03 0.4 0 0.87 0 1.27-0.03v0.3h-0.21c-0.74 0-0.76 0.11-0.76 0.47v1.53c0 0.99 0.42 1.87 1.18 1.87 0.07 0 0.09 0 0.11-0.01-0.03-0.01-0.23-0.13-0.23-0.39 0-0.28 0.21-0.42 0.43-0.42 0.18 0 0.43 0.11 0.43 0.43s-0.31 0.61-0.74 0.61c-0.73 0-1.09-0.67-1.23-1.1z"/><path d="m318.79 689.22v1.1l-1.38-0.11v-0.31c0.7 0 0.78-0.07 0.78-0.56v-2.66c0-0.45-0.11-0.45-0.78-0.45v-0.3c0.39 0.01 0.86 0.03 1.13 0.03 0.4 0 0.87 0 1.27-0.03v0.3h-0.21c-0.74 0-0.76 0.11-0.76 0.47v1.53c0 0.99 0.42 1.87 1.18 1.87 0.07 0 0.09 0 0.11-0.01-0.03-0.01-0.23-0.13-0.23-0.39 0-0.28 0.21-0.42 0.43-0.42 0.18 0 0.43 0.11 0.43 0.43s-0.31 0.61-0.74 0.61c-0.73 0-1.09-0.67-1.23-1.1z"/><path d="m324.35 686.68 0.01-0.04v-0.03l0.02-0.08 0.01-0.03 0.02-0.08 0.01-0.03 0.02-0.04 0.02-0.03 0.01-0.04 0.06-0.09 0.03-0.03 0.02-0.03 0.03-0.03 0.02-0.03 0.03-0.03 0.12-0.08 0.04-0.02 0.03-0.02 0.04-0.01 0.03-0.01 0.12-0.03h0.09c0.21 0 0.82 0.14 0.82 0.94v0.56h-0.25v-0.56c0-0.58-0.25-0.64-0.36-0.64-0.33 0-0.37 0.45-0.37 0.5v1.99c0 0.42 0 0.8-0.36 1.17-0.39 0.39-0.89 0.55-1.36 0.55-0.82 0-1.51-0.47-1.51-1.12 0-0.3 0.2-0.47 0.46-0.47 0.28 0 0.46 0.2 0.46 0.45 0 0.12-0.05 0.45-0.51 0.46 0.27 0.35 0.76 0.46 1.08 0.46 0.48 0 1.05-0.39 1.05-1.27v-1.57c0-0.95-0.72-1.28-1.16-1.28-0.49 0-0.9 0.34-0.9 0.84 0 0.55 0.42 1.37 2.06 1.43v0.21c-0.51-0.03-1.2-0.06-1.83-0.36-0.75-0.34-1-0.85-1-1.29 0-0.8 0.97-1.05 1.6-1.05 0.65 0 1.11 0.4 1.3 0.86z"/><path d="m329.87 689.27 0.01 0.02 0.02 0.03 0.02 0.06 0.02 0.02 0.01 0.03 0.02 0.02 0.01 0.02 0.03 0.05 0.03 0.04 0.03 0.03 0.03 0.04 0.04 0.03 0.06 0.06 0.04 0.02 0.03 0.02 0.04 0.02 0.06 0.04 0.04 0.01 0.03 0.01 0.03 0.02h0.03l0.04 0.01 0.06 0.02h0.05l0.03 0.01h0.12v0.31c-0.23-0.02-0.52-0.03-0.75-0.03-0.18 0-0.65 0.02-0.87 0.03v-0.31c0.31-0.01 0.47-0.18 0.47-0.43 0-0.1-0.01-0.12-0.06-0.24l-1-2.44-1.11 2.67c-0.04 0.1-0.06 0.14-0.06 0.18 0 0.26 0.37 0.26 0.56 0.26v0.31c-0.26-0.01-0.92-0.03-1.09-0.03-0.27 0-0.67 0.01-0.97 0.03v-0.31c0.48 0 0.67 0 0.81-0.35l1.5-3.62c-0.05-0.13-0.19-0.46-0.25-0.59-0.22-0.55-0.5-1.23-1.14-1.23-0.05 0-0.28 0-0.47 0.18 0.31 0.04 0.39 0.26 0.39 0.42 0 0.25-0.19 0.41-0.42 0.41-0.2 0-0.42-0.13-0.42-0.42 0-0.45 0.42-0.81 0.92-0.81 0.63 0 1.04 0.57 1.28 1.13z"/></g><text transform="scale(1,-1)" x="236.45935" y="-638.37695" fill="#000000" fill-opacity=".39216" font-family="Verdana" font-size="8.7625px" letter-spacing="0px" stroke="none" stroke-width=".026049" word-spacing="0px" style="line-height:1.25" xml:space="preserve"><tspan x="236.45935" y="-638.37695" font-family="'Courier New'" font-size="8.7625px" font-weight="bold" stroke-width=".026049" style="font-feature-settings:normal;font-variant-caps:normal;font-variant-ligatures:normal;font-variant-numeric:normal"><tspan fill="#c40000" fill-opacity=".39216">0</tspan>   1   2   <tspan fill="#c40000" fill-opacity=".39216">3</tspan>   4   5   <tspan fill="#c40000" fill-opacity=".39216">6</tspan></tspan></text>
</g>
  </g>
 </g>
</svg>
