<svg width="140mm" height="110mm" version="1.1" viewBox="0 0 118.89 93.713" xmlns="http://www.w3.org/2000/svg" xmlns:ns0="http://www.iki.fi/pav/software/textext/">
 <defs>
  <marker id="a" overflow="visible" orient="auto">
   <path transform="matrix(-.4 0 0 -.4 -4 0)" d="m0 0 5-5-17.5 5 17.5 5z" fill-rule="evenodd" stroke="#000" stroke-width="1pt"/>
  </marker>
  <marker id="b" overflow="visible" orient="auto">
   <path transform="matrix(-.4 0 0 -.4 -4 0)" d="m0 0 5-5-17.5 5 17.5 5z" fill-rule="evenodd" stroke="#000" stroke-width="1pt"/>
  </marker>
 </defs>
 <g transform="translate(-8.7381 -77.958)">
  <g transform="matrix(1.2506,0,0,-1.2506,-72.165,1072.2)" fill-rule="evenodd" stroke="#000" stroke-miterlimit="10.433" ns0:preamble="default_packages.tex" ns0:text="$x$\n$y$\n" xml:space="preserve"><g transform="matrix(.79961 0 0 -.79961 58.988 860.59)"><g transform="matrix(1.2506,0,0,-1.2506,-72.165,1072.2)" fill-rule="evenodd" stroke="#000" stroke-miterlimit="10.433" ns0:preamble="default_packages.tex" ns0:text="$x$\n$y$\n" xml:space="preserve"><path d="m116.52 753.77c-0.40105-0.27303-0.62407-0.75245-0.94606-1.1115-1.7197-2.339-3.6572-4.5281-5.7711-6.5486-5.823-5.6962-13.241-9.6859-21.033-12.061-4.5011-1.383-9.1605-2.2744-13.858-2.7996-0.38351-0.17802-0.14189-0.704-0.2098-1.0397v-7.1929c0.12607-0.41123 0.6731-0.16946 0.99662-0.2342h40.916c0.41676 0.12446 0.17145 0.66442 0.23687 0.98375-0.0127 9.9295 7e-3 19.859-0.039 29.788-0.0323 0.13902-0.14332 0.23523-0.29193 0.2154z" fill="#74a0d3" fill-opacity=".039216" stroke="none"/><path d="m69.613 717.63v73.667" fill="none" marker-end="url(#a)" stroke="#000" stroke-width=".23988"/><path d="m65.368 722.62h92.182" fill="none" marker-end="url(#b)" stroke="#000" stroke-width=".23988"/><g transform="matrix(1.5,0,0,1.5,-311.17,-218.43)" fill-rule="evenodd" stroke-opacity="0" ns0:preamble="default_packages.tex" ns0:text="$x$\n$y$\n$\\langle y \\rangle$\n$\\langle x \\rangle$\n$\\text{Point of averages}$\n$\\text{Regression line}$\n$\\text{SD line}$\n$\\rho(x,y)\\sigma_y$\n$\\sigma_x$\n" xml:space="preserve"><g transform="matrix(0 .2397 -.2397 0 296.49 630.46)" stroke-width="4.1719"><g transform="matrix(1.5,0,0,1.5,-66.692,-876.07)" fill-rule="evenodd" stroke="#000" stroke-miterlimit="10.433" stroke-opacity="1" stroke-width="0" ns0:preamble="default_packages.tex" ns0:text="$pdf$\n" xml:space="preserve"><path d="m149.16 705.91-0.01-0.03v-0.03l-0.01-0.03-0.01-0.02v-0.03l-0.03-0.06v-0.02l-0.02-0.04-0.01-0.01-0.01-0.02-0.01-0.01-0.01-0.02-0.01-0.01-0.02-0.01-0.01-0.01-0.02-0.01h-0.02l-0.01-0.01-0.02-0.01h-0.03l-0.02-0.01h-0.04l-0.01-0.01h-0.21c-0.12 0-0.23 0-0.23-0.19 0-0.08 0.05-0.12 0.13-0.12 0.27 0 0.56 0.03 0.84 0.03 0.33 0 0.67-0.03 0.99-0.03 0.05 0 0.18 0 0.18 0.2 0 0.11-0.1 0.11-0.24 0.11-0.5 0-0.5 0.07-0.5 0.15 0 0.12 0.42 1.74 0.49 1.99 0.13-0.29 0.41-0.63 0.92-0.63l-0.02 0.21c-0.65 0-0.78 0.83-0.78 0.89 0 0.02 0 0.04 0.03 0.16l0.49 1.94c0.07 0.27 0.34 0.55 0.51 0.7 0.35 0.31 0.64 0.38 0.81 0.38 0.4 0 0.64-0.35 0.64-0.94 0-0.58-0.33-1.72-0.51-2.1-0.34-0.7-0.82-1.03-1.19-1.03l0.02-0.21c1.15 0 2.4 1.45 2.4 2.91 0 0.93-0.57 1.59-1.33 1.59-0.5 0-0.98-0.36-1.3-0.75-0.1 0.54-0.53 0.75-0.9 0.75-0.46 0-0.65-0.39-0.74-0.57-0.18-0.34-0.31-0.93-0.31-0.96 0-0.1 0.1-0.1 0.12-0.1 0.1 0 0.11 0.01 0.17 0.22 0.17 0.71 0.37 1.19 0.73 1.19 0.17 0 0.31-0.08 0.31-0.46 0-0.23-0.03-0.34-0.07-0.51z"/><path d="m158.87 713.91v0.03h-0.01v0.02l-0.01 0.01v0.01h-0.01v0.01h-0.01v0.01h-0.01l-0.01 0.01h-0.03v0.01h-0.04c-0.15 0-1.1-0.09-1.27-0.11-0.08-0.01-0.14-0.06-0.14-0.19 0-0.12 0.09-0.12 0.24-0.12 0.48 0 0.5-0.07 0.5-0.17l-0.03-0.2-0.6-2.35c-0.18 0.37-0.46 0.64-0.91 0.64-1.17 0-2.41-1.47-2.41-2.92 0-0.93 0.55-1.58 1.33-1.58l0.02 0.21c-0.5 0-0.64 0.55-0.64 0.94 0 0.49 0.32 1.72 0.55 2.17 0.31 0.59 0.76 0.96 1.16 0.96 0.64 0 0.78-0.82 0.78-0.88s-0.02-0.12-0.03-0.17l-0.49-1.94c-0.05-0.18-0.05-0.2-0.2-0.37-0.44-0.55-0.85-0.71-1.13-0.71l-0.02-0.21c0.2 0 0.7 0.03 1.3 0.74 0.08-0.42 0.43-0.74 0.9-0.74 0.35 0 0.58 0.22 0.74 0.54 0.17 0.36 0.3 0.97 0.3 0.99 0 0.1-0.09 0.1-0.12 0.1-0.1 0-0.11-0.05-0.14-0.18-0.17-0.65-0.35-1.24-0.76-1.24-0.27 0-0.3 0.26-0.3 0.46 0 0.24 0.02 0.31 0.06 0.48z"/><path d="m160.91 711.1h0.85c0.2 0 0.3 0 0.3 0.2 0 0.11-0.1 0.11-0.27 0.11h-0.83l0.22 1.13c0.03 0.21 0.17 0.91 0.23 1.03 0.09 0.19 0.26 0.34 0.47 0.34 0.04 0 0.3 0 0.49-0.18-0.44-0.04-0.54-0.39-0.54-0.53 0-0.23 0.18-0.35 0.37-0.35 0.26 0 0.55 0.22 0.55 0.59 0 0.46-0.46 0.69-0.87 0.69-0.34 0-0.96-0.18-1.26-1.16-0.06-0.21-0.09-0.31-0.33-1.56h-0.69c-0.19 0-0.3 0-0.3-0.19 0-0.12 0.09-0.12 0.28-0.12h0.66l-0.75-3.93c-0.18-0.96-0.35-1.86-0.87-1.86-0.04 0-0.29 0-0.48 0.18 0.46 0.03 0.55 0.38 0.55 0.53 0 0.23-0.18 0.35-0.37 0.35-0.26 0-0.55-0.22-0.55-0.6 0-0.44 0.44-0.68 0.85-0.68 0.55 0 0.95 0.58 1.13 0.96 0.32 0.63 0.55 1.83 0.56 1.9z"/></g></g></g><g transform="matrix(1 0 0 .62336 -13.933 272.46)" fill="none" stroke="#000" stroke-dasharray="1.4791673, 0.36979183" stroke-miterlimit="10.433" stroke-opacity=".31373" stroke-width=".36979"><path d="m130.98 773.31v-50.543" stroke-dasharray="1.4791673, 0.36979183" stroke-miterlimit="10.433" stroke-width=".36979"/></g><g transform="matrix(.79961 0 0 -.79961 -41.225 831.43)" stroke-width=".7"><g transform="matrix(1.2506,0,0,-1.2506,-72.165,1072.2)" fill-rule="evenodd" stroke="#000" stroke-miterlimit="10.433" stroke-width=".55973" ns0:preamble="default_packages.tex" ns0:text="$x$\n$y$\n" xml:space="preserve"><g fill="none" stroke="#000" stroke-miterlimit="10.433" stroke-opacity=".62745" stroke-width=".55973"><path d="m173.55 757.14c46.915 5.2712 46.177 41.939 56.124 42.137 10.284-0.0297 5.0536-41.064 17.877-41.285" fill="none" stroke="#003c88" stroke-miterlimit="10.433" stroke-opacity=".58454" stroke-width=".55973"/></g></g></g><g transform="matrix(.31024 0 0 .31024 19.886 514.75)" fill-rule="evenodd" stroke="#000" stroke-miterlimit="10.433" ns0:preamble="default_packages.tex" ns0:text="$$p(x)dx$$\n" xml:space="preserve"><g transform="matrix(1.9114 0 0 1.9114 -226.77 -676.28)" stroke-width="3.7943" ns0:preamble="default_packages.tex" ns0:text="$$\\mathbb{E}{[X]}$$\n" xml:space="preserve"><path d="m348.7 698.86-0.83 1.98c-0.03 0.08-0.05 0.12-0.05 0.13 0 0.06 0.17 0.25 0.58 0.29 0.1 0.01 0.2 0.02 0.2 0.19 0 0.12-0.12 0.12-0.15 0.12-0.4 0-0.83-0.04-1.25-0.04-0.25 0-0.87 0.04-1.12 0.04-0.06 0-0.18 0-0.18-0.2 0-0.11 0.1-0.11 0.23-0.11 0.6 0 0.66-0.1 0.75-0.32l1.17-2.77-2.1-2.26-0.13-0.11c-0.49-0.52-0.96-0.68-1.46-0.71-0.13-0.01-0.22-0.01-0.22-0.2 0-0.01 0-0.11 0.13-0.11 0.3 0 0.62 0.03 0.93 0.03 0.37 0 0.76-0.03 1.12-0.03 0.06 0 0.18 0 0.18 0.2 0 0.1-0.1 0.11-0.12 0.11-0.09 0.01-0.4 0.03-0.4 0.31 0 0.16 0.15 0.31 0.27 0.44l1.02 1.08 0.9 0.97 1-2.37c0.04-0.11 0.05-0.12 0.05-0.14 0-0.08-0.19-0.25-0.58-0.29-0.11-0.01-0.2-0.02-0.2-0.19 0-0.12 0.11-0.12 0.15-0.12 0.28 0 0.98 0.03 1.26 0.03 0.25 0 0.86-0.03 1.11-0.03 0.07 0 0.19 0 0.19 0.19 0 0.12-0.1 0.12-0.18 0.12-0.67 0.01-0.69 0.04-0.86 0.43-0.39 0.93-1.06 2.48-1.29 3.07 0.68 0.7 1.73 1.88 2.05 2.16 0.29 0.24 0.67 0.48 1.26 0.51 0.13 0.01 0.22 0.01 0.22 0.2 0 0.01 0 0.11-0.13 0.11-0.3 0-0.63-0.04-0.93-0.04-0.37 0-0.75 0.04-1.11 0.04-0.06 0-0.19 0-0.19-0.2 0-0.07 0.05-0.1 0.12-0.11 0.09-0.01 0.4-0.03 0.4-0.31 0-0.14-0.11-0.27-0.19-0.36z" fill-rule="evenodd" stroke-miterlimit="10.433" stroke-width="0"/></g><g id="content" transform="matrix(1.5 0 0 1.5 76.144 -404.67)" stroke-width="0" ns0:preamble="default_packages.tex" ns0:text="$\\mathbb{M}{[X]}$\n" xml:space="preserve"><path d="m153.36 709.21-0.3-0.18c0.08-0.17 0.09-0.18 0.21-0.22l-0.44-1.05h-0.02l-2.27 5.4c-0.05 0.13-0.13 0.3-0.27 0.42h0.86l1.93-4.55 0.3 0.18-1.91 4.52c-0.07 0.2-0.08 0.2-0.35 0.2h-1.86c-0.18 0-0.33 0-0.33-0.18 0-0.17 0.18-0.17 0.23-0.17 0.12 0 0.39-0.02 0.61-0.1v-5.3c0-0.21 0-0.65-0.68-0.71-0.19-0.02-0.19-0.16-0.19-0.17 0-0.17 0.16-0.17 0.34-0.17h1.55c0.18 0 0.33 0 0.33 0.17 0 0.09-0.08 0.16-0.16 0.17-0.77 0.06-0.77 0.48-0.77 0.71l-0.21-0.6 0.09-0.11h-0.17c0.02 0.03 0.04 0.06 0.06 0.08 0.01 0.01 0.01 0.02 0.02 0.03l0.21 0.6v4.95l0.01 0.01 2.43-5.81c0.08-0.17 0.15-0.2 0.21-0.2 0.12 0 0.15 0.07 0.2 0.19l2.44 5.82 0.01-0.01v-4.95l0.35-0.02v5.42h1.06c-0.22-0.25-0.22-0.5-0.22-0.68v-4.74c0-0.18 0-0.44 0.23-0.69h-1.29c0.22 0.25 0.22 0.51 0.22 0.69l-0.35 0.02c0-0.21 0-0.65-0.68-0.71-0.19-0.02-0.19-0.16-0.19-0.17 0-0.17 0.16-0.17 0.35-0.17h2.66c0.18 0 0.33 0 0.33 0.17 0 0.09-0.08 0.16-0.16 0.17-0.77 0.06-0.77 0.48-0.77 0.71v4.7c0 0.21 0 0.64 0.68 0.7 0.1 0.01 0.19 0.06 0.19 0.17 0 0.18-0.15 0.18-0.33 0.18h-1.93c-0.26 0-0.28 0-0.37-0.21z"/><polygon points="159.7 714.18 160.66 714.18 160.66 714.58 159.3 714.58 159.3 704.64 160.66 704.64 160.66 705.04 159.7 705.04"/><path d="m165.73 711.21-0.84 1.97c-0.03 0.08-0.05 0.12-0.05 0.13 0 0.06 0.17 0.25 0.59 0.29 0.1 0.01 0.2 0.02 0.2 0.19 0 0.12-0.12 0.12-0.15 0.12-0.41 0-0.84-0.03-1.26-0.03-0.25 0-0.87 0.03-1.12 0.03-0.06 0-0.18 0-0.18-0.2 0-0.11 0.1-0.11 0.23-0.11 0.6 0 0.66-0.1 0.75-0.32l1.18-2.77-2.11-2.25-0.13-0.11c-0.49-0.53-0.95-0.69-1.46-0.72-0.13-0.01-0.22-0.01-0.22-0.2 0-0.01 0-0.1 0.13-0.1 0.3 0 0.63 0.03 0.94 0.03 0.36 0 0.75-0.03 1.11-0.03 0.06 0 0.18 0 0.18 0.19 0 0.1-0.1 0.11-0.12 0.11-0.09 0.01-0.4 0.03-0.4 0.31 0 0.16 0.15 0.32 0.27 0.45l1.02 1.07 0.9 0.97 1-2.37c0.04-0.11 0.05-0.12 0.05-0.14 0-0.08-0.19-0.25-0.57-0.29-0.11-0.01-0.2-0.02-0.2-0.19 0-0.11 0.11-0.11 0.15-0.11 0.28 0 0.97 0.03 1.25 0.03 0.25 0 0.86-0.03 1.11-0.03 0.07 0 0.19 0 0.19 0.18 0 0.12-0.1 0.12-0.18 0.12-0.67 0.01-0.69 0.04-0.86 0.44-0.39 0.92-1.06 2.47-1.28 3.07 0.67 0.7 1.72 1.88 2.04 2.15 0.29 0.24 0.67 0.48 1.27 0.51 0.13 0.01 0.22 0.01 0.22 0.2 0 0.01 0 0.11-0.13 0.11-0.3 0-0.63-0.03-0.94-0.03-0.37 0-0.75 0.03-1.11 0.03-0.06 0-0.19 0-0.19-0.2 0-0.07 0.05-0.1 0.12-0.11 0.09-0.01 0.4-0.03 0.4-0.31 0-0.13-0.11-0.26-0.19-0.35z"/><polygon points="171.11 714.18 171.11 705.04 170.14 705.04 170.14 704.64 171.51 704.64 171.51 714.58 170.14 714.58 170.14 714.18"/></g></g><g stroke="none"><g transform="matrix(.49742 0 0 .4949 23.197 378.47)" fill="#001e93" fill-opacity=".53623" fill-rule="evenodd" stroke-miterlimit="10.433" stroke-width="1.4477" ns0:preamble="default_packages.tex" ns0:text="50\\%\n" xml:space="preserve"><path d="m153.19 709.12v0.11l-0.02 0.22-0.02 0.1-0.02 0.11-0.02 0.1-0.06 0.2-0.04 0.1-0.04 0.09-0.15 0.27-0.05 0.08-0.06 0.08-0.06 0.07-0.07 0.08-0.07 0.06-0.07 0.07-0.07 0.06-0.08 0.06-0.16 0.1-0.08 0.04-0.18 0.08-0.09 0.03-0.09 0.02-0.2 0.04h-0.09l-0.11 0.01c-0.47 0-0.9-0.16-1.26-0.51v1.94c0.2-0.06 0.53-0.13 0.85-0.13 1.22 0 1.92 0.9 1.92 1.03 0 0.06-0.03 0.11-0.1 0.11-0.01 0-0.03 0-0.08-0.03-0.2-0.09-0.69-0.29-1.36-0.29-0.39 0-0.85 0.07-1.32 0.28-0.08 0.03-0.1 0.03-0.12 0.03-0.1 0-0.1-0.08-0.1-0.24v-2.94c0-0.18 0-0.26 0.14-0.26 0.07 0 0.09 0.03 0.13 0.09 0.11 0.16 0.48 0.7 1.28 0.7 0.52 0 0.77-0.46 0.85-0.64 0.16-0.36 0.18-0.75 0.18-1.25 0-0.35 0-0.94-0.24-1.36-0.24-0.39-0.61-0.65-1.06-0.65-0.73 0-1.3 0.53-1.47 1.12 0.03-0.01 0.06-0.02 0.17-0.02 0.33 0 0.5 0.25 0.5 0.48 0 0.24-0.17 0.49-0.5 0.49-0.14 0-0.49-0.07-0.49-0.53 0-0.85 0.69-1.81 1.81-1.81 1.15 0 2.17 0.95 2.17 2.21z"/><path d="m158.28 710.3v0.3l-0.01 0.15v0.15l-0.01 0.15-0.01 0.14-0.04 0.3-0.02 0.14-0.03 0.15-0.03 0.14-0.04 0.15-0.04 0.14-0.05 0.14-0.12 0.28c-0.46 0.95-1.28 1.11-1.69 1.11-0.6 0-1.33-0.26-1.74-1.18-0.32-0.69-0.37-1.46-0.37-2.26 0-0.74 0.04-1.64 0.45-2.39 0.43-0.81 1.16-1 1.65-1v0.22c-0.39 0-0.98 0.24-1.16 1.2-0.11 0.59-0.11 1.51-0.11 2.09 0 0.64 0 1.29 0.08 1.83 0.19 1.18 0.94 1.27 1.19 1.27 0.33 0 0.98-0.18 1.17-1.16 0.1-0.56 0.1-1.31 0.1-1.94 0-0.74 0-1.42-0.11-2.05-0.15-0.95-0.71-1.24-1.16-1.24v-0.22c0.53 0 1.29 0.2 1.73 1.15 0.32 0.68 0.37 1.46 0.37 2.24z"/><path d="m165.51 714.2v0.01h0.01v0.01l0.01 0.01v0.01l0.01 0.01v0.01h0.01v0.01l0.01 0.01v0.01h0.01v0.02l0.01 0.01v0.05l0.01 0.01c0 0.11-0.1 0.2-0.2 0.2s-0.15-0.07-0.21-0.14c-0.5-0.68-1.17-0.95-1.9-0.95-0.7 0-1.32 0.25-1.86 0.77-0.19 0.17-0.4 0.32-0.72 0.32l0.01-0.22c0.53 0 1.04-0.74 1.04-1.78 0-1.07-0.52-1.79-1.04-1.79-0.2 0-0.86 0.13-0.86 1.78 0 1.66 0.65 1.79 0.86 1.79l-0.01 0.22c-0.76 0-1.47-0.84-1.47-2 0-1.2 0.72-2.01 1.47-2.01 0.73 0 1.29 0.89 1.29 2 0 0.14 0 0.6-0.2 1.12 0.64-0.37 1.14-0.42 1.5-0.42 0.76 0 1.27 0.31 1.33 0.35l0.01-0.01-4.48-6.64c-0.09-0.13-0.09-0.18-0.09-0.2 0-0.11 0.1-0.2 0.2-0.2s0.12 0.04 0.2 0.15z"/><path d="m166.41 708.57v0.21l-0.02 0.2-0.02 0.1-0.02 0.09-0.02 0.1-0.02 0.09-0.03 0.09-0.02 0.09-0.04 0.08-0.03 0.08-0.08 0.16-0.08 0.14-0.04 0.06-0.15 0.18-0.05 0.05-0.06 0.05-0.05 0.04-0.06 0.04-0.18 0.09-0.06 0.02-0.07 0.02-0.06 0.01-0.07 0.01h-0.06l0.01-0.22c0.52 0 1.03-0.73 1.03-1.77 0-1.08-0.51-1.79-1.03-1.79-0.2 0-0.86 0.13-0.86 1.78s0.65 1.78 0.86 1.78l-0.01 0.22c-0.76 0-1.47-0.83-1.47-1.99 0-1.21 0.72-2.01 1.47-2.01 0.72 0 1.29 0.88 1.29 2z"/></g><path d="m131.06 773.11c-1.9668 0.0867-3.4462-1.4579-4.5256-2.9247-2.63-3.8143-4.5734-8.0526-6.9908-12.001-0.71646-1.2566-1.5704-2.4381-2.2773-3.6941v-31.679c0.41897-0.52535 1.3648-0.10395 1.9923-0.23929h29.244c0.52168 0.42193 0.10322 1.3745 0.23761 2.0063-0.0323 2.4116 0.0645 4.8513-0.0482 7.2454-0.63794 0.33647-1.5204 0.26689-2.1972 0.65277-2.6444 1.2796-3.9155 4.1722-4.8714 6.8077-2.0247 6.1196-2.6468 12.59-3.7342 18.928-0.7413 4.1465-1.273 8.4625-3.2646 12.233-0.73234 1.2968-1.9358 2.7328-3.5649 2.6649z" fill="#f00" fill-opacity=".023529"/><g transform="matrix(.49742 0 0 .4949 55.375 378.49)" fill="#f00" fill-opacity=".49758" fill-rule="evenodd" stroke-miterlimit="10.433" stroke-width="1.4477" ns0:preamble="default_packages.tex" ns0:text="50\\%\n" xml:space="preserve"><path d="m153.19 709.12v0.11l-0.02 0.22-0.02 0.1-0.02 0.11-0.02 0.1-0.06 0.2-0.04 0.1-0.04 0.09-0.15 0.27-0.05 0.08-0.06 0.08-0.06 0.07-0.07 0.08-0.07 0.06-0.07 0.07-0.07 0.06-0.08 0.06-0.16 0.1-0.08 0.04-0.18 0.08-0.09 0.03-0.09 0.02-0.2 0.04h-0.09l-0.11 0.01c-0.47 0-0.9-0.16-1.26-0.51v1.94c0.2-0.06 0.53-0.13 0.85-0.13 1.22 0 1.92 0.9 1.92 1.03 0 0.06-0.03 0.11-0.1 0.11-0.01 0-0.03 0-0.08-0.03-0.2-0.09-0.69-0.29-1.36-0.29-0.39 0-0.85 0.07-1.32 0.28-0.08 0.03-0.1 0.03-0.12 0.03-0.1 0-0.1-0.08-0.1-0.24v-2.94c0-0.18 0-0.26 0.14-0.26 0.07 0 0.09 0.03 0.13 0.09 0.11 0.16 0.48 0.7 1.28 0.7 0.52 0 0.77-0.46 0.85-0.64 0.16-0.36 0.18-0.75 0.18-1.25 0-0.35 0-0.94-0.24-1.36-0.24-0.39-0.61-0.65-1.06-0.65-0.73 0-1.3 0.53-1.47 1.12 0.03-0.01 0.06-0.02 0.17-0.02 0.33 0 0.5 0.25 0.5 0.48 0 0.24-0.17 0.49-0.5 0.49-0.14 0-0.49-0.07-0.49-0.53 0-0.85 0.69-1.81 1.81-1.81 1.15 0 2.17 0.95 2.17 2.21z"/><path d="m158.28 710.3v0.3l-0.01 0.15v0.15l-0.01 0.15-0.01 0.14-0.04 0.3-0.02 0.14-0.03 0.15-0.03 0.14-0.04 0.15-0.04 0.14-0.05 0.14-0.12 0.28c-0.46 0.95-1.28 1.11-1.69 1.11-0.6 0-1.33-0.26-1.74-1.18-0.32-0.69-0.37-1.46-0.37-2.26 0-0.74 0.04-1.64 0.45-2.39 0.43-0.81 1.16-1 1.65-1v0.22c-0.39 0-0.98 0.24-1.16 1.2-0.11 0.59-0.11 1.51-0.11 2.09 0 0.64 0 1.29 0.08 1.83 0.19 1.18 0.94 1.27 1.19 1.27 0.33 0 0.98-0.18 1.17-1.16 0.1-0.56 0.1-1.31 0.1-1.94 0-0.74 0-1.42-0.11-2.05-0.15-0.95-0.71-1.24-1.16-1.24v-0.22c0.53 0 1.29 0.2 1.73 1.15 0.32 0.68 0.37 1.46 0.37 2.24z"/><path d="m165.51 714.2v0.01h0.01v0.01l0.01 0.01v0.01l0.01 0.01v0.01h0.01v0.01l0.01 0.01v0.01h0.01v0.02l0.01 0.01v0.05l0.01 0.01c0 0.11-0.1 0.2-0.2 0.2s-0.15-0.07-0.21-0.14c-0.5-0.68-1.17-0.95-1.9-0.95-0.7 0-1.32 0.25-1.86 0.77-0.19 0.17-0.4 0.32-0.72 0.32l0.01-0.22c0.53 0 1.04-0.74 1.04-1.78 0-1.07-0.52-1.79-1.04-1.79-0.2 0-0.86 0.13-0.86 1.78 0 1.66 0.65 1.79 0.86 1.79l-0.01 0.22c-0.76 0-1.47-0.84-1.47-2 0-1.2 0.72-2.01 1.47-2.01 0.73 0 1.29 0.89 1.29 2 0 0.14 0 0.6-0.2 1.12 0.64-0.37 1.14-0.42 1.5-0.42 0.76 0 1.27 0.31 1.33 0.35l0.01-0.01-4.48-6.64c-0.09-0.13-0.09-0.18-0.09-0.2 0-0.11 0.1-0.2 0.2-0.2s0.12 0.04 0.2 0.15z"/><path d="m166.41 708.57v0.21l-0.02 0.2-0.02 0.1-0.02 0.09-0.02 0.1-0.02 0.09-0.03 0.09-0.02 0.09-0.04 0.08-0.03 0.08-0.08 0.16-0.08 0.14-0.04 0.06-0.15 0.18-0.05 0.05-0.06 0.05-0.05 0.04-0.06 0.04-0.18 0.09-0.06 0.02-0.07 0.02-0.06 0.01-0.07 0.01h-0.06l0.01-0.22c0.52 0 1.03-0.73 1.03-1.77 0-1.08-0.51-1.79-1.03-1.79-0.2 0-0.86 0.13-0.86 1.78s0.65 1.78 0.86 1.78l-0.01 0.22c-0.76 0-1.47-0.83-1.47-1.99 0-1.21 0.72-2.01 1.47-2.01 0.72 0 1.29 0.88 1.29 2z"/></g></g></g></g></g>
 </g>
</svg>
