<svg width="140mm" height="110mm" version="1.1" viewBox="0 0 118.89 93.713" xmlns="http://www.w3.org/2000/svg" xmlns:ns0="http://www.iki.fi/pav/software/textext/">
 <defs>
  <marker id="Arrow1Mstart" overflow="visible" orient="auto">
   <path transform="matrix(.4 0 0 .4 4 0)" d="m0 0 5-5-17.5 5 17.5 5z" fill-opacity=".39216" fill-rule="evenodd" stroke="#000" stroke-opacity=".39216" stroke-width="1pt"/>
  </marker>
  <marker id="a" overflow="visible" orient="auto">
   <path transform="matrix(-.4 0 0 -.4 -4 0)" d="m0 0 5-5-17.5 5 17.5 5z" fill-rule="evenodd" stroke="#000" stroke-width="1pt"/>
  </marker>
  <marker id="b" overflow="visible" orient="auto">
   <path transform="matrix(-.4 0 0 -.4 -4 0)" d="m0 0 5-5-17.5 5 17.5 5z" fill-rule="evenodd" stroke="#000" stroke-width="1pt"/>
  </marker>
 </defs>
 <g transform="translate(-8.7381 -77.958)">
  <g transform="matrix(1.2506,0,0,-1.2506,-72.165,1072.2)" fill-rule="evenodd" stroke="#000" stroke-miterlimit="10.433" ns0:preamble="default_packages.tex" ns0:text="$x$\n$y$\n" xml:space="preserve"><g transform="matrix(.79961 0 0 -.79961 58.988 860.59)"><g transform="matrix(1.2506,0,0,-1.2506,-72.165,1072.2)" fill-rule="evenodd" stroke="#000" stroke-miterlimit="10.433" ns0:preamble="default_packages.tex" ns0:text="$x$\n$y$\n" xml:space="preserve"><path d="m69.613 717.63v73.667" fill="none" marker-end="url(#a)" stroke="#000" stroke-width=".23988"/><path d="m65.368 722.62h92.182" fill="none" marker-end="url(#b)" stroke="#000" stroke-width=".23988"/><g transform="matrix(1.5,0,0,1.5,-311.17,-218.43)" fill-rule="evenodd" stroke-opacity="0" ns0:preamble="default_packages.tex" ns0:text="$x$\n$y$\n$\\langle y \\rangle$\n$\\langle x \\rangle$\n$\\text{Point of averages}$\n$\\text{Regression line}$\n$\\text{SD line}$\n$\\rho(x,y)\\sigma_y$\n$\\sigma_x$\n" xml:space="preserve"><g transform="matrix(0 .2397 -.2397 0 296.49 630.46)" stroke-width="4.1719"><g transform="matrix(1.5,0,0,1.5,-66.692,-876.07)" fill-rule="evenodd" stroke="#000" stroke-miterlimit="10.433" stroke-opacity="1" stroke-width="0" ns0:preamble="default_packages.tex" ns0:text="$pdf$\n" xml:space="preserve"><path d="m149.16 705.91-0.01-0.03v-0.03l-0.01-0.03-0.01-0.02v-0.03l-0.03-0.06v-0.02l-0.02-0.04-0.01-0.01-0.01-0.02-0.01-0.01-0.01-0.02-0.01-0.01-0.02-0.01-0.01-0.01-0.02-0.01h-0.02l-0.01-0.01-0.02-0.01h-0.03l-0.02-0.01h-0.04l-0.01-0.01h-0.21c-0.12 0-0.23 0-0.23-0.19 0-0.08 0.05-0.12 0.13-0.12 0.27 0 0.56 0.03 0.84 0.03 0.33 0 0.67-0.03 0.99-0.03 0.05 0 0.18 0 0.18 0.2 0 0.11-0.1 0.11-0.24 0.11-0.5 0-0.5 0.07-0.5 0.15 0 0.12 0.42 1.74 0.49 1.99 0.13-0.29 0.41-0.63 0.92-0.63l-0.02 0.21c-0.65 0-0.78 0.83-0.78 0.89 0 0.02 0 0.04 0.03 0.16l0.49 1.94c0.07 0.27 0.34 0.55 0.51 0.7 0.35 0.31 0.64 0.38 0.81 0.38 0.4 0 0.64-0.35 0.64-0.94 0-0.58-0.33-1.72-0.51-2.1-0.34-0.7-0.82-1.03-1.19-1.03l0.02-0.21c1.15 0 2.4 1.45 2.4 2.91 0 0.93-0.57 1.59-1.33 1.59-0.5 0-0.98-0.36-1.3-0.75-0.1 0.54-0.53 0.75-0.9 0.75-0.46 0-0.65-0.39-0.74-0.57-0.18-0.34-0.31-0.93-0.31-0.96 0-0.1 0.1-0.1 0.12-0.1 0.1 0 0.11 0.01 0.17 0.22 0.17 0.71 0.37 1.19 0.73 1.19 0.17 0 0.31-0.08 0.31-0.46 0-0.23-0.03-0.34-0.07-0.51z"/><path d="m158.87 713.91v0.03h-0.01v0.02l-0.01 0.01v0.01h-0.01v0.01h-0.01v0.01h-0.01l-0.01 0.01h-0.03v0.01h-0.04c-0.15 0-1.1-0.09-1.27-0.11-0.08-0.01-0.14-0.06-0.14-0.19 0-0.12 0.09-0.12 0.24-0.12 0.48 0 0.5-0.07 0.5-0.17l-0.03-0.2-0.6-2.35c-0.18 0.37-0.46 0.64-0.91 0.64-1.17 0-2.41-1.47-2.41-2.92 0-0.93 0.55-1.58 1.33-1.58l0.02 0.21c-0.5 0-0.64 0.55-0.64 0.94 0 0.49 0.32 1.72 0.55 2.17 0.31 0.59 0.76 0.96 1.16 0.96 0.64 0 0.78-0.82 0.78-0.88s-0.02-0.12-0.03-0.17l-0.49-1.94c-0.05-0.18-0.05-0.2-0.2-0.37-0.44-0.55-0.85-0.71-1.13-0.71l-0.02-0.21c0.2 0 0.7 0.03 1.3 0.74 0.08-0.42 0.43-0.74 0.9-0.74 0.35 0 0.58 0.22 0.74 0.54 0.17 0.36 0.3 0.97 0.3 0.99 0 0.1-0.09 0.1-0.12 0.1-0.1 0-0.11-0.05-0.14-0.18-0.17-0.65-0.35-1.24-0.76-1.24-0.27 0-0.3 0.26-0.3 0.46 0 0.24 0.02 0.31 0.06 0.48z"/><path d="m160.91 711.1h0.85c0.2 0 0.3 0 0.3 0.2 0 0.11-0.1 0.11-0.27 0.11h-0.83l0.22 1.13c0.03 0.21 0.17 0.91 0.23 1.03 0.09 0.19 0.26 0.34 0.47 0.34 0.04 0 0.3 0 0.49-0.18-0.44-0.04-0.54-0.39-0.54-0.53 0-0.23 0.18-0.35 0.37-0.35 0.26 0 0.55 0.22 0.55 0.59 0 0.46-0.46 0.69-0.87 0.69-0.34 0-0.96-0.18-1.26-1.16-0.06-0.21-0.09-0.31-0.33-1.56h-0.69c-0.19 0-0.3 0-0.3-0.19 0-0.12 0.09-0.12 0.28-0.12h0.66l-0.75-3.93c-0.18-0.96-0.35-1.86-0.87-1.86-0.04 0-0.29 0-0.48 0.18 0.46 0.03 0.55 0.38 0.55 0.53 0 0.23-0.18 0.35-0.37 0.35-0.26 0-0.55-0.22-0.55-0.6 0-0.44 0.44-0.68 0.85-0.68 0.55 0 0.95 0.58 1.13 0.96 0.32 0.63 0.55 1.83 0.56 1.9z"/></g></g></g><g transform="matrix(1.591 0 0 .99174 -77.477 6.2895)" fill="none" stroke="#000" stroke-dasharray="0.9297318, 0.23243295" stroke-miterlimit="10.433" stroke-opacity=".31373" stroke-width=".23243"><path d="m130.98 773.31v-50.543" stroke-dasharray="0.9297318, 0.23243295" stroke-miterlimit="10.433" stroke-width=".23243"/></g><g transform="matrix(.79961 0 0 -.79961 -41.225 831.43)" stroke-width=".7"><g transform="matrix(1.2506,0,0,-1.2506,-72.165,1072.2)" fill-rule="evenodd" stroke="#000" stroke-miterlimit="10.433" stroke-width=".55973" ns0:preamble="default_packages.tex" ns0:text="$x$\n$y$\n" xml:space="preserve"><g fill="none" stroke="#000" stroke-miterlimit="10.433" stroke-opacity=".62745" stroke-width=".55973"><path d="m173.55 757.14c46.915 5.2712 46.177 41.939 56.124 42.137 10.284-0.0297 5.0536-41.064 17.877-41.285" fill="none" stroke="#003c88" stroke-miterlimit="10.433" stroke-opacity=".58454" stroke-width=".55973"/></g></g></g><g transform="matrix(.31024 0 0 .31024 19.886 514.75)" fill-rule="evenodd" stroke="#000" stroke-miterlimit="10.433" stroke-width="4.835" ns0:preamble="default_packages.tex" ns0:text="$$p(x)dx$$\n" xml:space="preserve"><g transform="matrix(1.9114 0 0 1.9114 -226.77 -676.28)" stroke-width="3.7943" ns0:preamble="default_packages.tex" ns0:text="$$\\mathbb{E}{[X]}$$\n" xml:space="preserve"><path d="m348.7 698.86-0.83 1.98c-0.03 0.08-0.05 0.12-0.05 0.13 0 0.06 0.17 0.25 0.58 0.29 0.1 0.01 0.2 0.02 0.2 0.19 0 0.12-0.12 0.12-0.15 0.12-0.4 0-0.83-0.04-1.25-0.04-0.25 0-0.87 0.04-1.12 0.04-0.06 0-0.18 0-0.18-0.2 0-0.11 0.1-0.11 0.23-0.11 0.6 0 0.66-0.1 0.75-0.32l1.17-2.77-2.1-2.26-0.13-0.11c-0.49-0.52-0.96-0.68-1.46-0.71-0.13-0.01-0.22-0.01-0.22-0.2 0-0.01 0-0.11 0.13-0.11 0.3 0 0.62 0.03 0.93 0.03 0.37 0 0.76-0.03 1.12-0.03 0.06 0 0.18 0 0.18 0.2 0 0.1-0.1 0.11-0.12 0.11-0.09 0.01-0.4 0.03-0.4 0.31 0 0.16 0.15 0.31 0.27 0.44l1.02 1.08 0.9 0.97 1-2.37c0.04-0.11 0.05-0.12 0.05-0.14 0-0.08-0.19-0.25-0.58-0.29-0.11-0.01-0.2-0.02-0.2-0.19 0-0.12 0.11-0.12 0.15-0.12 0.28 0 0.98 0.03 1.26 0.03 0.25 0 0.86-0.03 1.11-0.03 0.07 0 0.19 0 0.19 0.19 0 0.12-0.1 0.12-0.18 0.12-0.67 0.01-0.69 0.04-0.86 0.43-0.39 0.93-1.06 2.48-1.29 3.07 0.68 0.7 1.73 1.88 2.05 2.16 0.29 0.24 0.67 0.48 1.26 0.51 0.13 0.01 0.22 0.01 0.22 0.2 0 0.01 0 0.11-0.13 0.11-0.3 0-0.63-0.04-0.93-0.04-0.37 0-0.75 0.04-1.11 0.04-0.06 0-0.19 0-0.19-0.2 0-0.07 0.05-0.1 0.12-0.11 0.09-0.01 0.4-0.03 0.4-0.31 0-0.14-0.11-0.27-0.19-0.36z" fill-rule="evenodd" stroke-miterlimit="10.433" stroke-width="0"/></g><g transform="matrix(1.5 0 0 1.5 76.144 -404.67)" ns0:preamble="default_packages.tex" ns0:text="$\\mathbb{M}{[X]}$\n" xml:space="preserve"><g stroke-width="0"><path d="m177.67 708.69-0.3-0.18c0.08-0.17 0.09-0.18 0.21-0.22l-0.44-1.05h-0.02l-2.27 5.4c-0.05 0.13-0.13 0.3-0.27 0.42h0.86l1.93-4.55 0.3 0.18-1.91 4.52c-0.07 0.2-0.08 0.2-0.35 0.2h-1.86c-0.18 0-0.33 0-0.33-0.18 0-0.17 0.18-0.17 0.23-0.17 0.12 0 0.39-0.02 0.61-0.1v-5.3c0-0.21 0-0.65-0.68-0.71-0.19-0.02-0.19-0.16-0.19-0.17 0-0.17 0.16-0.17 0.34-0.17h1.55c0.18 0 0.33 0 0.33 0.17 0 0.09-0.08 0.16-0.16 0.17-0.77 0.06-0.77 0.48-0.77 0.71l-0.21-0.6 0.09-0.11h-0.17c0.02 0.03 0.04 0.06 0.06 0.08 0.01 0.01 0.01 0.02 0.02 0.03l0.21 0.6v4.95l0.01 0.01 2.43-5.81c0.08-0.17 0.15-0.2 0.21-0.2 0.12 0 0.15 0.07 0.2 0.19l2.44 5.82 0.01-0.01v-4.95l0.35-0.02v5.42h1.06c-0.22-0.25-0.22-0.5-0.22-0.68v-4.74c0-0.18 0-0.44 0.23-0.69h-1.29c0.22 0.25 0.22 0.51 0.22 0.69l-0.35 0.02c0-0.21 0-0.65-0.68-0.71-0.19-0.02-0.19-0.16-0.19-0.17 0-0.17 0.16-0.17 0.35-0.17h2.66c0.18 0 0.33 0 0.33 0.17 0 0.09-0.08 0.16-0.16 0.17-0.77 0.06-0.77 0.48-0.77 0.71v4.7c0 0.21 0 0.64 0.68 0.7 0.1 0.01 0.19 0.06 0.19 0.17 0 0.18-0.15 0.18-0.33 0.18h-1.93c-0.26 0-0.28 0-0.37-0.21z"/><polygon transform="translate(38.755 -.08971)" points="160.66 714.18 160.66 714.58 159.3 714.58 159.3 704.64 160.66 704.64 160.66 705.04 159.7 705.04 159.7 714.18"/><path d="m204.48 711.12-0.84 1.97c-0.03 0.08-0.05 0.12-0.05 0.13 0 0.06 0.17 0.25 0.59 0.29 0.1 0.01 0.2 0.02 0.2 0.19 0 0.12-0.12 0.12-0.15 0.12-0.41 0-0.84-0.03-1.26-0.03-0.25 0-0.87 0.03-1.12 0.03-0.06 0-0.18 0-0.18-0.2 0-0.11 0.1-0.11 0.23-0.11 0.6 0 0.66-0.1 0.75-0.32l1.18-2.77-2.11-2.25-0.13-0.11c-0.49-0.53-0.95-0.69-1.46-0.72-0.13-0.01-0.22-0.01-0.22-0.2 0-0.01 0-0.1 0.13-0.1 0.3 0 0.63 0.03 0.94 0.03 0.36 0 0.75-0.03 1.11-0.03 0.06 0 0.18 0 0.18 0.19 0 0.1-0.1 0.11-0.12 0.11-0.09 0.01-0.4 0.03-0.4 0.31 0 0.16 0.15 0.32 0.27 0.45l1.02 1.07 0.9 0.97 1-2.37c0.04-0.11 0.05-0.12 0.05-0.14 0-0.08-0.19-0.25-0.57-0.29-0.11-0.01-0.2-0.02-0.2-0.19 0-0.11 0.11-0.11 0.15-0.11 0.28 0 0.97 0.03 1.25 0.03 0.25 0 0.86-0.03 1.11-0.03 0.07 0 0.19 0 0.19 0.18 0 0.12-0.1 0.12-0.18 0.12-0.67 0.01-0.69 0.04-0.86 0.44-0.39 0.92-1.06 2.47-1.28 3.07 0.67 0.7 1.72 1.88 2.04 2.15 0.29 0.24 0.67 0.48 1.27 0.51 0.13 0.01 0.22 0.01 0.22 0.2 0 0.01 0 0.11-0.13 0.11-0.3 0-0.63-0.03-0.94-0.03-0.37 0-0.75 0.03-1.11 0.03-0.06 0-0.19 0-0.19-0.2 0-0.07 0.05-0.1 0.12-0.11 0.09-0.01 0.4-0.03 0.4-0.31 0-0.13-0.11-0.26-0.19-0.35z"/><polygon transform="translate(38.755 -.08971)" points="171.11 705.04 170.14 705.04 170.14 704.64 171.51 704.64 171.51 714.58 170.14 714.58 170.14 714.18 171.11 714.18"/></g><path d="m188.79 829.23c6.0475 9.1294 7.6409 13.274 15.428 16.827" fill="none" marker-start="url(#Arrow1Mstart)" stroke="#000" stroke-miterlimit="10.433" stroke-opacity=".39216" stroke-width="1.0002"/><g id="content" transform="matrix(.91255 0 0 -.91255 -34.42 1004.2)" fill-opacity=".78431" fill-rule="evenodd" stroke="#000" stroke-miterlimit="10.433" stroke-opacity=".78431" stroke-width="0" ns0:preamble="default_packages.tex" ns0:text="max\n\n" xml:space="preserve"><path d="m264.92 171.66v2.66c0 0.45-0.11 0.45-0.78 0.45v0.3c0.35-0.01 0.86-0.03 1.13-0.03 0.26 0 0.78 0.02 1.11 0.03v-0.3c-0.66 0-0.77 0-0.77-0.45v-1.83c0-1.03 0.71-1.59 1.34-1.59s0.74 0.54 0.74 1.1v2.32c0 0.45-0.11 0.45-0.78 0.45v0.3c0.35-0.01 0.86-0.03 1.13-0.03 0.26 0 0.78 0.02 1.12 0.03v-0.3c-0.67 0-0.78 0-0.78-0.45v-1.83c0-1.03 0.71-1.59 1.35-1.59 0.62 0 0.73 0.54 0.73 1.1v2.32c0 0.45-0.11 0.45-0.77 0.45v0.3c0.35-0.01 0.85-0.03 1.12-0.03 0.26 0 0.78 0.02 1.12 0.03v-0.3c-0.52 0-0.77 0-0.78-0.3v-1.9c0-0.85 0-1.16-0.31-1.52-0.14-0.17-0.47-0.37-1.05-0.37-0.83 0-1.27 0.6-1.44 0.98-0.14-0.87-0.88-0.98-1.33-0.98-0.73 0-1.19 0.43-1.47 1.05v-1.05l-1.41 0.11v0.31c0.7 0 0.78 0.07 0.78 0.56z"/><path d="m275.45 174.32v0.04l0.01 0.03v0.04l0.02 0.08 0.01 0.03 0.01 0.04 0.02 0.03 0.01 0.04 0.02 0.03 0.02 0.04 0.01 0.03 0.02 0.03 0.03 0.04 0.04 0.06 0.03 0.02 0.02 0.03 0.03 0.03 0.06 0.04 0.03 0.03 0.03 0.02 0.04 0.01 0.03 0.02 0.04 0.01 0.04 0.02 0.04 0.01h0.04l0.04 0.01h0.08c0.21 0 0.82-0.13 0.82-0.94v-0.56h-0.25v0.56c0 0.58-0.25 0.64-0.36 0.64-0.33 0-0.37-0.45-0.37-0.5v-1.99c0-0.41 0-0.8-0.36-1.17-0.38-0.39-0.88-0.55-1.36-0.55-0.82 0-1.51 0.47-1.51 1.13 0 0.29 0.2 0.46 0.46 0.46 0.28 0 0.46-0.19 0.46-0.45 0-0.12-0.05-0.45-0.51-0.46 0.27-0.35 0.76-0.46 1.08-0.46 0.49 0 1.05 0.39 1.05 1.27v1.57c0 0.95-0.71 1.29-1.16 1.29-0.49 0-0.9-0.35-0.9-0.85 0-0.55 0.42-1.37 2.06-1.43v-0.21c-0.5 0.03-1.2 0.06-1.83 0.36-0.75 0.34-1 0.85-1 1.29 0 0.81 0.97 1.05 1.6 1.05 0.66 0 1.12-0.39 1.31-0.86z"/><path d="m279.97 172.74 0.05-0.07 0.06-0.08 0.06-0.07 0.06-0.08 0.13-0.15 0.12-0.16 0.18-0.21 0.05-0.07 0.06-0.06 0.02-0.04 0.08-0.08 0.02-0.03 0.02-0.02c0.31-0.36 0.72-0.51 1.19-0.52v-0.31c-0.26 0.02-0.56 0.03-0.82 0.03-0.3 0-0.82-0.02-0.95-0.03v0.31c0.21 0.02 0.29 0.15 0.29 0.31s-0.1 0.29-0.15 0.35l-0.62 0.77-0.78-1c-0.09-0.1-0.09-0.12-0.09-0.18 0-0.15 0.15-0.24 0.35-0.25v-0.31c-0.26 0.01-0.92 0.03-1.08 0.03-0.21 0-0.68-0.01-0.95-0.03v0.31c0.7 0 0.71 0.01 1.18 0.61l0.99 1.28-0.94 1.18c-0.48 0.58-1.07 0.6-1.27 0.6v0.3c0.25-0.02 0.56-0.03 0.82-0.03 0.29 0 0.71 0.02 0.95 0.03v-0.3c-0.22-0.03-0.29-0.16-0.29-0.31 0-0.22 0.29-0.55 0.9-1.26l0.76 0.99c0.08 0.11 0.2 0.27 0.2 0.33 0 0.09-0.08 0.24-0.35 0.25v0.3c0.3-0.01 0.85-0.03 1.07-0.03 0.27 0 0.66 0.01 0.96 0.03v-0.3c-0.54 0-0.72-0.02-0.95-0.31z"/></g></g></g><g transform="matrix(.37826 0 0 .37826 15.713 455.16)" fill-rule="evenodd" stroke="#000" stroke-miterlimit="10.433" stroke-width="0" ns0:preamble="default_packages.tex" ns0:text="$$\\text{ode}$$\n" xml:space="preserve"><path d="m303.28 697.59v0.12408l-0.0113 0.13535-0.0113 0.13536-0.0226 0.12408-0.0676 0.24816-0.0338 0.12407-0.0451 0.12408-0.1692 0.3384-0.0677 0.10151-0.0677 0.10152-0.0789 0.10152-0.158 0.1804-0.1804 0.1804-0.0902 0.0677-0.10152 0.079-0.0902 0.0677-0.1128 0.0677-0.10152 0.0564-0.1128 0.0564-0.1128 0.0451-0.1128 0.0338-0.12407 0.0451-0.1128 0.0226-0.24816 0.0452-0.12408 0.0113h-0.12407l-0.0113-0.24816c0.49631 0 0.97006-0.24816 1.2633-0.72191 0.29327-0.48503 0.29327-1.1393 0.29327-1.5566 0-0.40608 0-1.0152-0.24815-1.5115-0.24816-0.49631-0.73319-0.82343-1.2972-0.82343-0.48504 0-0.98135 0.23688-1.2859 0.74447-0.282 0.49631-0.282 1.1844-0.282 1.5905 0 0.42863 0 1.0377 0.27072 1.534 0.30455 0.50759 0.8347 0.74447 1.2859 0.74447l0.0113 0.24816c-1.41 0-2.5041-1.2182-2.5041-2.6169 0-1.4551 1.1731-2.5267 2.4928-2.5267 1.3536 0 2.4928 1.0941 2.4928 2.5267z"/><path d="m308.18 695.8v-0.74447l1.6581 0.12408v0.34967c-0.78959 0-0.87983 0.079-0.87983 0.62039v6.8017l-1.613-0.1128v-0.34967c0.77831 0 0.86855-0.079 0.86855-0.63167v-2.4139c-0.32712 0.39479-0.80087 0.68807-1.41 0.68807l0.0451-0.24816c0.39479 0 0.85726-0.1692 1.2069-0.66551 0.12408-0.19176 0.12408-0.21431 0.12408-0.41735v-2.3011c0-0.20304 0-0.2256-0.12408-0.41736-0.3384-0.53015-0.83471-0.7783-1.3197-0.7783-0.50759 0-0.91366 0.29327-1.1844 0.71062-0.29328 0.46248-0.32712 1.1054-0.32712 1.5679 0 0.40607 0.0226 1.0829 0.34968 1.5904 0.23688 0.3384 0.66551 0.71063 1.2746 0.71063l-0.0451 0.24816c-1.331 0-2.5154-1.0942-2.5154-2.538 0-1.4325 1.1054-2.538 2.3913-2.538 0.72191 0 1.2182 0.38351 1.5002 0.74447z"/><path d="m311.41 697.78 0.0113 0.22559c0.0677 1.6694 1.0039 1.9514 1.3874 1.9514 1.1618 0 1.2746-1.5115 1.2746-1.9514h-2.662l-0.0113-0.22559h3.1358c0.24816 0 0.282 0 0.282 0.22559 0 1.1167-0.60911 2.1996-2.0191 2.1996-1.2972 0-2.3349-1.1506-2.3349-2.5605 0-1.5002 1.1844-2.5831 2.4703-2.5831 1.3761 0 1.8837 1.2408 1.8837 1.4551 0 0.11279-0.0902 0.13535-0.14664 0.13535-0.10152 0-0.12408-0.0677-0.14664-0.15791-0.39479-1.1506-1.41-1.1506-1.5228-1.1506-0.56399 0-1.0039 0.3384-1.2746 0.74447-0.32712 0.54143-0.32712 1.2859-0.32712 1.692z"/></g></g></g></g>
 </g>
</svg>
