<svg width="125mm" height="95mm" version="1.1" viewBox="0 0 119.87 93.336" xmlns="http://www.w3.org/2000/svg" xmlns:ns0="http://www.iki.fi/pav/software/textext/">
 <defs>
  <marker id="a" overflow="visible" orient="auto">
   <path transform="matrix(-.4 0 0 -.4 -4 0)" d="m0 0 5-5-17.5 5 17.5 5z" fill-rule="evenodd" stroke="#000" stroke-width="1pt"/>
  </marker>
  <marker id="b" overflow="visible" orient="auto">
   <path transform="matrix(-.4 0 0 -.4 -4 0)" d="m0 0 5-5-17.5 5 17.5 5z" fill-rule="evenodd" stroke="#000" stroke-width="1pt"/>
  </marker>
 </defs>
 <g transform="translate(-8.7277 -78.028)">
  <g transform="matrix(1.2506 0 0 -1.2506 -72.165 1072.2)" fill-rule="evenodd" stroke="#000" stroke-miterlimit="10.433" ns0:preamble="default_packages.tex" ns0:text="$x$\n$y$\n" xml:space="preserve"><g transform="matrix(.79961 0 0 -.79961 58.988 860.59)"><g transform="matrix(1.2506 0 0 -1.2506 -72.165 1072.2)" fill-rule="evenodd" stroke="#000" stroke-miterlimit="10.433" ns0:preamble="default_packages.tex" ns0:text="$x$\n$y$\n" xml:space="preserve"><path d="m69.613 717.63v73.667" fill="none" marker-end="url(#a)" stroke="#000" stroke-width=".23988"/><path d="m65.368 722.62h92.182" fill="none" marker-end="url(#b)" stroke="#000" stroke-width=".23988"/><g transform="matrix(1.5 0 0 1.5 -311.17 -218.43)" fill-rule="evenodd" stroke-opacity="0" ns0:preamble="default_packages.tex" ns0:text="$x$\n$y$\n$\\langle y \\rangle$\n$\\langle x \\rangle$\n$\\text{Point of averages}$\n$\\text{Regression line}$\n$\\text{SD line}$\n$\\rho(x,y)\\sigma_y$\n$\\sigma_x$\n" xml:space="preserve"><g id="content" transform="matrix(.33743 0 0 .33743 260.99 385.1)" fill-rule="evenodd" stroke="#000" stroke-miterlimit="10.433" stroke-opacity="1" stroke-width="4.4453" ns0:preamble="default_packages.tex" ns0:text="X\n" xml:space="preserve"><path d="m152.72 710.96 1.37 2c0.22 0.31 0.56 0.63 1.44 0.64v0.31c-0.39-0.01-0.85-0.03-1.1-0.03-0.4 0-0.88 0-1.28 0.03v-0.31c0.4-0.01 0.62-0.23 0.62-0.45 0-0.1-0.02-0.12-0.09-0.23l-1.14-1.68-1.28 1.92c-0.02 0.02-0.08 0.1-0.08 0.14 0 0.12 0.22 0.29 0.65 0.3v0.31c-0.35-0.03-1.07-0.03-1.45-0.03-0.31 0-0.93 0.01-1.3 0.03v-0.31h0.19c0.55 0 0.74-0.07 0.93-0.35l1.83-2.76-1.63-2.4c-0.14-0.2-0.44-0.66-1.45-0.66v-0.3c0.36 0.01 0.78 0.03 1.11 0.03 0.37 0 0.92 0 1.28-0.03v0.3c-0.46 0.01-0.63 0.28-0.63 0.46 0 0.09 0.03 0.13 0.1 0.24l1.41 2.08 1.58-2.37c0.02-0.04 0.05-0.08 0.05-0.11 0-0.12-0.22-0.29-0.65-0.3v-0.3c0.35 0.03 1.08 0.03 1.45 0.03 0.42 0 0.88-0.01 1.3-0.03v0.3h-0.19c-0.52 0-0.73 0.05-0.94 0.36z" stroke-width="0"/></g><g transform="matrix(0 .2397 -.2397 0 296.49 630.46)" stroke-width="4.1719"><g transform="matrix(1.5 0 0 1.5 -66.692 -876.07)" fill-rule="evenodd" stroke="#000" stroke-miterlimit="10.433" stroke-opacity="1" stroke-width="0" ns0:preamble="default_packages.tex" ns0:text="$pdf$\n" xml:space="preserve"><path d="m149.16 705.91-0.01-0.03v-0.03l-0.01-0.03-0.01-0.02v-0.03l-0.03-0.06v-0.02l-0.02-0.04-0.01-0.01-0.01-0.02-0.01-0.01-0.01-0.02-0.01-0.01-0.02-0.01-0.01-0.01-0.02-0.01h-0.02l-0.01-0.01-0.02-0.01h-0.03l-0.02-0.01h-0.04l-0.01-0.01h-0.21c-0.12 0-0.23 0-0.23-0.19 0-0.08 0.05-0.12 0.13-0.12 0.27 0 0.56 0.03 0.84 0.03 0.33 0 0.67-0.03 0.99-0.03 0.05 0 0.18 0 0.18 0.2 0 0.11-0.1 0.11-0.24 0.11-0.5 0-0.5 0.07-0.5 0.15 0 0.12 0.42 1.74 0.49 1.99 0.13-0.29 0.41-0.63 0.92-0.63l-0.02 0.21c-0.65 0-0.78 0.83-0.78 0.89 0 0.02 0 0.04 0.03 0.16l0.49 1.94c0.07 0.27 0.34 0.55 0.51 0.7 0.35 0.31 0.64 0.38 0.81 0.38 0.4 0 0.64-0.35 0.64-0.94 0-0.58-0.33-1.72-0.51-2.1-0.34-0.7-0.82-1.03-1.19-1.03l0.02-0.21c1.15 0 2.4 1.45 2.4 2.91 0 0.93-0.57 1.59-1.33 1.59-0.5 0-0.98-0.36-1.3-0.75-0.1 0.54-0.53 0.75-0.9 0.75-0.46 0-0.65-0.39-0.74-0.57-0.18-0.34-0.31-0.93-0.31-0.96 0-0.1 0.1-0.1 0.12-0.1 0.1 0 0.11 0.01 0.17 0.22 0.17 0.71 0.37 1.19 0.73 1.19 0.17 0 0.31-0.08 0.31-0.46 0-0.23-0.03-0.34-0.07-0.51z"/><path d="m158.87 713.91v0.03h-0.01v0.02l-0.01 0.01v0.01h-0.01v0.01h-0.01v0.01h-0.01l-0.01 0.01h-0.03v0.01h-0.04c-0.15 0-1.1-0.09-1.27-0.11-0.08-0.01-0.14-0.06-0.14-0.19 0-0.12 0.09-0.12 0.24-0.12 0.48 0 0.5-0.07 0.5-0.17l-0.03-0.2-0.6-2.35c-0.18 0.37-0.46 0.64-0.91 0.64-1.17 0-2.41-1.47-2.41-2.92 0-0.93 0.55-1.58 1.33-1.58l0.02 0.21c-0.5 0-0.64 0.55-0.64 0.94 0 0.49 0.32 1.72 0.55 2.17 0.31 0.59 0.76 0.96 1.16 0.96 0.64 0 0.78-0.82 0.78-0.88s-0.02-0.12-0.03-0.17l-0.49-1.94c-0.05-0.18-0.05-0.2-0.2-0.37-0.44-0.55-0.85-0.71-1.13-0.71l-0.02-0.21c0.2 0 0.7 0.03 1.3 0.74 0.08-0.42 0.43-0.74 0.9-0.74 0.35 0 0.58 0.22 0.74 0.54 0.17 0.36 0.3 0.97 0.3 0.99 0 0.1-0.09 0.1-0.12 0.1-0.1 0-0.11-0.05-0.14-0.18-0.17-0.65-0.35-1.24-0.76-1.24-0.27 0-0.3 0.26-0.3 0.46 0 0.24 0.02 0.31 0.06 0.48z"/><path d="m160.91 711.1h0.85c0.2 0 0.3 0 0.3 0.2 0 0.11-0.1 0.11-0.27 0.11h-0.83l0.22 1.13c0.03 0.21 0.17 0.91 0.23 1.03 0.09 0.19 0.26 0.34 0.47 0.34 0.04 0 0.3 0 0.49-0.18-0.44-0.04-0.54-0.39-0.54-0.53 0-0.23 0.18-0.35 0.37-0.35 0.26 0 0.55 0.22 0.55 0.59 0 0.46-0.46 0.69-0.87 0.69-0.34 0-0.96-0.18-1.26-1.16-0.06-0.21-0.09-0.31-0.33-1.56h-0.69c-0.19 0-0.3 0-0.3-0.19 0-0.12 0.09-0.12 0.28-0.12h0.66l-0.75-3.93c-0.18-0.96-0.35-1.86-0.87-1.86-0.04 0-0.29 0-0.48 0.18 0.46 0.03 0.55 0.38 0.55 0.53 0 0.23-0.18 0.35-0.37 0.35-0.26 0-0.55-0.22-0.55-0.6 0-0.44 0.44-0.68 0.85-0.68 0.55 0 0.95 0.58 1.13 0.96 0.32 0.63 0.55 1.83 0.56 1.9z"/></g></g></g><g transform="matrix(-1 0 0 1 223.21 0)"><g transform="matrix(.79961 0 0 -.79961 -41.225 831.43)" stroke-width=".7"><g transform="matrix(1.2506,0,0,-1.2506,-72.165,1072.2)" fill-rule="evenodd" stroke="#000" stroke-miterlimit="10.433" stroke-width=".55973" ns0:preamble="default_packages.tex" ns0:text="$x$\n$y$\n" xml:space="preserve"><g fill="none" stroke="#000" stroke-miterlimit="10.433" stroke-opacity=".62745" stroke-width=".55973"><path d="m172.9 758.21c16.159 1.7133 24.019 42.52 34.432 42.458 11.954 0.0505 13.839-40.641 40.21-42.674" fill="none" stroke="#003c88" stroke-miterlimit="10.433" stroke-opacity=".58454" stroke-width=".55973"/></g></g></g><path d="m108.54 774.8v-52.13" fill="none" stroke="#000" stroke-dasharray="1.16743594, 0.29185898" stroke-opacity=".31373" stroke-width=".29186"/></g><g transform="matrix(.46094 0 0 .46094 14.919 469.7)" fill-opacity=".78431" fill-rule="evenodd" stroke="#000" stroke-opacity=".78431" stroke-width="0" ns0:preamble="default_packages.tex" ns0:text="$$\\text{Mean}$$\n$$\\text{Mode}$$\n$$\\text{Median}$$\n" xml:space="preserve"><path d="m223.3 669.45-9e-3 9e-3v0.018h-9e-3v0.0189l-9e-3 0.019-9e-3 9e-3 -9e-3 0.0189v9e-3l-0.027 0.027v9e-3l-0.036 0.036h-9e-3l-9e-3 9e-3h-0.018l-9e-3 9e-3h-0.1307l-0.0189 9e-3h-1.6199v-0.29364h0.22734c0.72939 0 0.74833-0.1042 0.74833-0.44521v-4.7079c0-0.24629 0-0.6915-0.97567-0.6915v-0.29364c0.33154 9e-3 0.79569 0.0284 1.1083 0.0284 0.31259 0 0.77675-0.0189 1.1083-0.0284v0.29364c-0.97568 0-0.97568 0.44521-0.97568 0.6915v5.0773h9e-3l2.2734-5.854c0.0474-0.12314 0.0947-0.20839 0.18945-0.20839 0.1042 0 0.13261 0.0758 0.1705 0.17997l2.3302 5.9582h9e-3v-5.3918c0-0.34101-0.0189-0.44521-0.74833-0.44521h-0.22734v-0.29364c0.35048 0.0284 0.99462 0.0284 1.3546 0.0284 0.36943 0 1.0041 0 1.3546-0.0284v0.29364h-0.22734c-0.72939 0-0.74833 0.1042-0.74833 0.44521v4.9542c0 0.34101 0.0189 0.44521 0.74833 0.44521h0.22734v0.29364h-1.5914c-0.24629 0-0.24629-9e-3 -0.31259-0.17997l-2.0745-5.3046z"/><path d="m230.72 665.41 9e-3 0.18945c0.0474 1.4019 0.84305 1.6388 1.1651 1.6388 0.97567 0 1.0704-1.2693 1.0704-1.6388h-2.2355l-9e-3 -0.18945h2.6334c0.2084 0 0.23682 0 0.23682 0.18945 0 0.93778-0.51152 1.8472-1.6956 1.8472-1.0893 0-1.9608-0.9662-1.9608-2.1503 0-1.2598 0.99462-2.1692 2.0745-2.1692 1.1556 0 1.5819 1.042 1.5819 1.222 0 0.0947-0.0758 0.11367-0.12315 0.11367-0.0852 0-0.10419-0.0568-0.12314-0.13262-0.33154-0.9662-1.1841-0.9662-1.2788-0.9662-0.47363 0-0.85253 0.28418-1.0609 0.62519-0.28417 0.45468-0.28417 1.0799-0.28417 1.4209z"/><path d="m237.01 663.94v-0.0284l9e-3 -0.0379v-0.0379l9e-3 -0.0284 0.018-0.0758 0.0189-0.0284 0.018-0.0758 0.0378-0.0568 0.0189-0.0379 0.0567-0.0852 0.0284-0.0284 0.019-0.0284 0.0757-0.0757 0.0284-0.019 0.0284-0.0189 0.0379-0.019 0.0284-0.0189 0.0379-9e-3 0.0284-0.0189 0.1516-0.036h0.0758c0.19892 0 0.77675 0.13262 0.77675 0.89042v0.53046h-0.23681v-0.53046c0-0.53994-0.23682-0.59677-0.34102-0.59677-0.30312 0-0.35048 0.41679-0.35048 0.46415v1.885c0 0.39785 0 0.76728-0.33154 1.1083-0.36943 0.36943-0.84305 0.52099-1.2977 0.52099-0.77675 0-1.4304-0.44521-1.4304-1.0609 0-0.28417 0.18945-0.44521 0.43574-0.44521 0.26523 0 0.43573 0.18945 0.43573 0.43574 0 0.11367-0.0474 0.41679-0.4831 0.43574 0.25576 0.32206 0.71992 0.42626 1.023 0.42626 0.46415 0 1.0041-0.36943 1.0041-1.203v-1.4872c0-0.89042-0.68203-1.2125-1.1083-1.2125-0.46415 0-0.85253 0.33154-0.85253 0.7957 0 0.52099 0.39785 1.2977 1.9608 1.3546v0.19893c-0.4831-0.0284-1.1462-0.0568-1.743-0.33154-0.71044-0.32207-0.93778-0.81464-0.93778-1.2314 0-0.75781 0.90936-0.99462 1.5061-0.99462 0.62519 0 1.0609 0.3789 1.2409 0.81464z"/><path d="m239.62 666.47v-2.5292c0-0.4168-0.1042-0.4168-0.72939-0.4168v-0.29364c0.33154 9e-3 0.80517 0.0284 1.0609 0.0284 0.24629 0 0.73886-0.0189 1.0609-0.0284v0.29364c-0.63466 0-0.73886 0-0.73886 0.4168v1.7335c0 0.98515 0.67255 1.5061 1.2788 1.5061 0.59677 0 0.70097-0.50205 0.70097-1.042v-2.1976c0-0.4168-0.1042-0.4168-0.73886-0.4168v-0.29364c0.33154 9e-3 0.81464 0.0284 1.0704 0.0284 0.24629 0 0.72939-0.0189 1.0514-0.0284v0.29364c-0.49257 0-0.71991 0-0.73885 0.28418v1.7903c0 0.81464 0 1.1083-0.28418 1.4398-0.13262 0.16103-0.44521 0.35048-0.99462 0.35048-0.69149 0-1.1367-0.40732-1.4019-0.98514v0.98514l-1.3262-0.10419v-0.29365c0.6536 0 0.72939-0.0663 0.72939-0.52099z"/><path d="m223.4 689.65v9e-3l-9e-3 9e-3v9e-3l-9e-3 9e-3v0.0189l-9e-3 0.019-0.018 0.018v0.019l-0.018 0.018v9e-3l-0.036 0.036h-9e-3l-9e-3 9e-3h-9e-3l-9e-3 9e-3h-0.018l-9e-3 9e-3h-1.7509v-0.29365h0.21787c0.72938 0 0.74833-0.10419 0.74833-0.43573v-4.7079c0-0.25576 0-0.70097-0.9662-0.70097v-0.28417c0.33154 9e-3 0.78622 0.0284 1.0988 0.0284 0.3126 0 0.77675-0.0189 1.1083-0.0284v0.28417c-0.97567 0-0.97567 0.44521-0.97567 0.70097v5.0678h9e-3l2.2829-5.8446c0.0379-0.12314 0.0947-0.20839 0.17997-0.20839 0.11368 0 0.14209 0.0758 0.17998 0.17997l2.3208 5.9488h9e-3v-5.3994c0-0.34101-0.019-0.44521-0.74833-0.44521h-0.22734v-0.28417c0.35048 0.0284 0.99461 0.0284 1.364 0.0284 0.35996 0 0.99462 0 1.3451-0.0284v0.28417h-0.22735c-0.72938 0-0.74833 0.1042-0.74833 0.44521v4.9636c0 0.33154 0.019 0.43573 0.74833 0.43573h0.22735v0.29365h-1.5914c-0.24629 0-0.24629-9e-3 -0.3126-0.17998l-2.0745-5.2952z"/><path d="m234.23 685.44-9e-3 0.11367v0.11367l-0.0189 0.1042-0.019 0.11367-0.0189 0.10419-0.0284 0.1042-0.0379 0.1042-0.0379 0.0947-0.0379 0.10419-0.0474 0.0947-0.0474 0.0852-0.0568 0.0947-0.0568 0.0852-0.0663 0.0852-0.1326 0.1516-0.0758 0.0758-0.1516 0.1326-0.0852 0.0663-0.0853 0.0568-0.0853 0.0474-0.0947 0.0568-0.0853 0.0379-0.0947 0.0379-0.1042 0.0379-0.0947 0.0284-0.1042 0.0284-0.0947 0.0189-0.2084 0.018-0.11367 9e-3 -9e-3 -0.2084c0.41679 0 0.82411-0.20839 1.0704-0.61571 0.24628-0.39785 0.24628-0.94726 0.24628-1.3072 0-0.33154 0-0.84306-0.20839-1.2598-0.2084-0.42627-0.62519-0.6915-1.0988-0.6915-0.40732 0-0.82411 0.19893-1.0704 0.62519-0.23682 0.41679-0.23682 0.99462-0.23682 1.3262 0 0.36943 0 0.88094 0.22734 1.2883 0.25576 0.43574 0.6915 0.63466 1.0704 0.63466l9e-3 0.2084c-1.1746 0-2.0934-1.0325-2.0934-2.2071 0-1.2125 0.98515-2.1124 2.084-2.1124 1.1462 0 2.1029 0.91884 2.1029 2.1124z"/><path d="m238.35 683.95v-0.61571l1.3925 0.1042v0.28417c-0.66308 0-0.73886 0.0663-0.73886 0.53047v5.7119l-1.364-0.1042v-0.29365c0.66308 0 0.73886-0.0663 0.73886-0.52099v-2.0366c-0.2747 0.34101-0.68202 0.58729-1.1935 0.58729l0.0379-0.20839c0.33154 0 0.72939-0.14209 1.023-0.56835 0.1042-0.16104 0.1042-0.17998 0.1042-0.34102v-1.9324c0-0.1705 0-0.18945-0.1042-0.35048-0.28417-0.44521-0.71044-0.65361-1.1178-0.65361-0.42626 0-0.7578 0.23682-0.98514 0.59677-0.24629 0.38838-0.2747 0.92831-0.2747 1.3072 0 0.35048 0.0189 0.91883 0.29364 1.3356 0.18946 0.29364 0.54941 0.60624 1.0609 0.60624l-0.0379 0.20839c-1.1083 0-2.1029-0.92831-2.1029-2.1408 0-1.1935 0.92831-2.1218 1.9987-2.1218 0.60624 0 1.0325 0.32207 1.2693 0.61571z"/><path d="m241.05 685.6 9e-3 0.19892c0.0568 1.4019 0.85253 1.6388 1.1746 1.6388 0.97567 0 1.0704-1.2693 1.0704-1.6388h-2.245l-9e-3 -0.19892h2.6334c0.20839 0 0.23681 0 0.23681 0.19892 0 0.92831-0.50205 1.8472-1.6861 1.8472-1.0988 0-1.9703-0.97567-1.9703-2.1503 0-1.2598 0.99461-2.1692 2.084-2.1692 1.1556 0 1.5724 1.042 1.5724 1.222 0 0.0947-0.0758 0.11367-0.12314 0.11367-0.0853 0-0.1042-0.0568-0.12315-0.13262-0.33154-0.9662-1.1746-0.9662-1.2693-0.9662-0.47363 0-0.85253 0.27471-1.0704 0.62519-0.28417 0.45468-0.28417 1.0704-0.28417 1.4114z"/><path d="m223.13 679.42-9e-3 9e-3v0.018l-9e-3 9e-3 -9e-3 0.0189v9e-3l-9e-3 0.019-9e-3 9e-3v9e-3l-9e-3 0.0189-0.018 0.018v9e-3l-9e-3 9e-3h-9e-3l-9e-3 9e-3v9e-3h-9e-3l-9e-3 9e-3h-0.018l-9e-3 9e-3h-0.037l-9e-3 9e-3h-1.7326v-0.29365h0.22734c0.72939 0 0.74834-0.10419 0.74834-0.44521v-4.6984c0-0.25576 0-0.70097-0.97568-0.70097v-0.29365c0.33154 9e-3 0.7957 0.0284 1.1083 0.0284 0.3126 0 0.77675-0.0189 1.1083-0.0284v0.29365c-0.97567 0-0.97567 0.44521-0.97567 0.70097v5.0678h9e-3l2.2734-5.854c0.0474-0.12314 0.0947-0.2084 0.18945-0.2084 0.1042 0 0.13262 0.0758 0.17051 0.17998l2.3302 5.9582h9e-3v-5.3994c0-0.34101-0.0189-0.44521-0.74834-0.44521h-0.22734v-0.29365c0.35049 0.0284 0.99462 0.0284 1.3546 0.0284 0.36943 0 1.0041 0 1.3546-0.0284v0.29365h-0.22734c-0.72939 0-0.74833 0.1042-0.74833 0.44521v4.9541c0 0.34102 0.0189 0.44521 0.74833 0.44521h0.22734v0.29365h-1.5914c-0.24628 0-0.24628-9e-3 -0.31259-0.17998l-2.0745-5.2952z"/><path d="m230.55 675.38 9e-3 0.19892c0.0568 1.4019 0.85253 1.6388 1.1746 1.6388 0.97568 0 1.0704-1.2693 1.0704-1.6388h-2.245l-9e-3 -0.19892h2.6428c0.20839 0 0.23681 0 0.23681 0.19892 0 0.92831-0.51152 1.8377-1.6956 1.8377-1.0988 0-1.9608-0.9662-1.9608-2.1408 0-1.2598 0.98514-2.1692 2.0745-2.1692 1.1557 0 1.5819 1.042 1.5819 1.222 0 0.0947-0.0758 0.1042-0.12314 0.1042-0.0853 0-0.1042-0.0474-0.12315-0.12315-0.33154-0.97567-1.1841-0.97567-1.2788-0.97567-0.47363 0-0.85253 0.28418-1.0704 0.63466-0.28417 0.45468-0.28417 1.0704-0.28417 1.4114z"/><path d="m237.29 673.72v-0.61571l1.3925 0.0947v0.29365c-0.66308 0-0.73886 0.0663-0.73886 0.53047v5.7119l-1.3546-0.1042v-0.29365c0.6536 0 0.72938-0.0663 0.72938-0.53046v-2.0271c-0.2747 0.34101-0.67255 0.58729-1.1841 0.58729l0.0379-0.20839c0.33153 0 0.72938-0.14209 1.0136-0.56835 0.1042-0.16104 0.1042-0.17998 0.1042-0.35049v-1.9229c0-0.17051 0-0.18946-0.1042-0.35049-0.27471-0.45468-0.70097-0.66308-1.1083-0.66308-0.42626 0-0.76728 0.24629-0.99462 0.60625-0.24628 0.38837-0.2747 0.91883-0.2747 1.3072 0 0.35048 0.0189 0.90936 0.29365 1.3356 0.19892 0.29364 0.55888 0.60624 1.0704 0.60624l-0.0379 0.20839c-1.1178 0-2.1124-0.9283-2.1124-2.1408 0-1.1935 0.92831-2.1218 2.0082-2.1218 0.60624 0 1.0325 0.31259 1.2598 0.61571z"/><path d="m240.62 677.37-1.3262-0.10419v-0.29365c0.61571 0 0.70096-0.0568 0.70096-0.52099v-2.5292c0-0.42627-0.10419-0.42627-0.73885-0.42627v-0.29365c0.30312 9e-3 0.81463 0.0284 1.042 0.0284 0.32206 0 0.6536-0.0189 0.97567-0.0284v0.29365c-0.62519 0-0.65361 0.0474-0.65361 0.4168z"/><path d="m240.65 679v0.0852l-9e-3 0.0284v0.019l-9e-3 0.0284-9e-3 0.0189-9e-3 0.0284-9e-3 0.0189-9e-3 0.0284-9e-3 0.019-0.0189 0.0189-9e-3 0.019-0.0379 0.0379-9e-3 0.0189-0.0189 9e-3 -0.0189 0.0189-0.0189 9e-3 -0.019 0.019-0.0189 9e-3 -0.0284 9e-3 -0.0378 0.018-0.0284 9e-3 -0.0189 9e-3 -0.0284 9e-3h-0.0474l-0.0189 9e-3h-0.0473c-0.29365 0-0.50205-0.25576-0.50205-0.50205 0-0.24628 0.2084-0.49257 0.50205-0.49257 0.26523 0 0.49257 0.18945 0.49257 0.49257z"/><path d="m244.71 673.92v-0.0379l9e-3 -0.0379 9e-3 -0.0284v-0.0379l9e-3 -0.0379 0.0189-0.0284 0.018-0.0758 0.0189-0.0284 9e-3 -0.0379 0.0378-0.0568 0.0189-0.0379 0.0378-0.0568 0.0284-0.0284 0.0189-0.0284 0.0284-0.019 0.0757-0.0757 0.0379-0.0189 0.0284-0.019 0.0284-9e-3 0.0379-0.019 0.0284-9e-3 0.0379-0.0189 0.0758-0.018h0.0758l0.0474-9e-3c0.19892 0 0.76728 0.13262 0.76728 0.89989v0.52099h-0.23682v-0.52099c0-0.54941-0.22734-0.60624-0.33154-0.60624-0.31259 0-0.35048 0.42626-0.35048 0.47363v1.885c0 0.38838 0 0.75781-0.34101 1.1083-0.36943 0.35996-0.84306 0.51152-1.2977 0.51152-0.77675 0-1.4209-0.43574-1.4209-1.0609 0-0.28417 0.17998-0.44521 0.42626-0.44521 0.26523 0 0.43574 0.18945 0.43574 0.43574 0 0.11367-0.0474 0.42626-0.47363 0.43574 0.24629 0.33154 0.71044 0.43573 1.0136 0.43573 0.46416 0 1.0041-0.36943 1.0041-1.2125v-1.4777c0-0.89989-0.68202-1.222-1.1083-1.222-0.46416 0-0.85253 0.33154-0.85253 0.80517 0 0.51152 0.39784 1.2977 1.9608 1.3546v0.19893c-0.4831-0.0284-1.1462-0.0568-1.743-0.34102-0.70096-0.32206-0.93778-0.81463-0.93778-1.222 0-0.76728 0.90937-0.99462 1.5061-0.99462 0.62519 0 1.0609 0.36943 1.2409 0.81464z"/><path d="m247.33 676.44v-2.5197c0-0.42627-0.10419-0.42627-0.73885-0.42627v-0.29365c0.33153 9e-3 0.81463 0.0284 1.0704 0.0284 0.23682 0 0.72939-0.0189 1.0515-0.0284v0.29365c-0.63467 0-0.73886 0-0.73886 0.42627v1.7335c0 0.97568 0.67255 1.5061 1.2788 1.5061 0.59677 0 0.70097-0.51152 0.70097-1.0514v-2.1882c0-0.42627-0.1042-0.42627-0.73886-0.42627v-0.29365c0.33154 9e-3 0.81464 0.0284 1.0704 0.0284 0.24628 0 0.72938-0.0189 1.0514-0.0284v0.29365c-0.4831 0-0.71991 0-0.72939 0.28418v1.7998c0 0.80517 0 1.0988-0.29364 1.4398-0.13262 0.16103-0.44521 0.35048-0.99462 0.35048-0.6915 0-1.1367-0.40731-1.4019-0.99461v0.99461l-1.3262-0.10419v-0.29365c0.66307 0 0.73885-0.0663 0.73885-0.53046z"/></g></g></g></g>
 </g>
</svg>
