<svg width="185.72mm" height="118.58mm" version="1.1" viewBox="0 0 706.15 444.04" xmlns="http://www.w3.org/2000/svg" xmlns:ns0="http://www.iki.fi/pav/software/textext/">
 <ellipse transform="rotate(-32.863)" cx="315.89" cy="438.49" rx="99.515" ry="70.302" fill-opacity=".17874" opacity=".97"/>
 <ellipse transform="matrix(-.031981 -.99949 .99962 -.027481 0 0)" cx="-251.41" cy="214.75" rx="63.364" ry="48.286" fill-opacity=".16908" opacity=".97"/>
 <g transform="translate(.0056576 -1.9635)" fill="#f00" fill-opacity=".45894">
  <circle cx="254.52" cy="182.83" r="5.4478" opacity=".97"/>
  <circle cx="291.4" cy="152.32" r="5.4478" opacity=".97"/>
  <circle cx="515.97" cy="308.5" r="5.4478" opacity=".97"/>
  <circle cx="257.52" cy="273.5" r="5.4478" opacity=".97"/>
  <circle cx="318.87" cy="195.51" r="5.4478" opacity=".97"/>
  <circle cx="353.82" cy="218.93" r="5.4478" opacity=".97"/>
  <circle cx="256.59" cy="223.76" r="5.4478" opacity=".97"/>
  <circle cx="441.14" cy="135.46" r="5.4478" opacity=".97"/>
  <circle transform="rotate(-45.231)" cx="161.36" cy="371.37" r="5.4478" opacity=".97"/>
  <circle transform="rotate(-45.231)" cx="138.53" cy="406.99" r="5.4478" opacity=".97"/>
  <circle transform="rotate(-45.231)" cx="277.07" cy="509.24" r="5.4478" opacity=".97"/>
  <circle transform="rotate(-45.231)" cx="166" cy="450.18" r="5.4478" opacity=".97"/>
  <circle transform="rotate(-45.231)" cx="200.95" cy="473.6" r="5.4478" opacity=".97"/>
  <circle transform="rotate(-45.231)" cx="103.72" cy="478.43" r="5.4478" opacity=".97"/>
  <circle transform="rotate(-45.231)" cx="288.27" cy="390.13" r="5.4478" opacity=".97"/>
  <circle cx="272.87" cy="305.36" r="5.4478" opacity=".97"/>
  <circle transform="rotate(-45.231)" cx="10.14" cy="189.22" r="5.4478" opacity=".97"/>
  <circle transform="rotate(-45.231)" cx="148.68" cy="291.47" r="5.4478" opacity=".97"/>
  <circle transform="rotate(-45.231)" cx="37.606" cy="232.4" r="5.4478" opacity=".97"/>
  <circle transform="rotate(-45.231)" cx="72.558" cy="255.82" r="5.4478" opacity=".97"/>
  <circle transform="rotate(-45.231)" cx="-24.671" cy="260.65" r="5.4478" opacity=".97"/>
  <circle cx="420.56" cy="209.75" r="5.4478" opacity=".97"/>
  <circle transform="rotate(-45.231)" cx="209.84" cy="546.95" r="5.4478" opacity=".97"/>
  <circle transform="rotate(-45.231)" cx="98.766" cy="487.89" r="5.4478" opacity=".97"/>
  <circle transform="rotate(-45.231)" cx="133.72" cy="511.31" r="5.4478" opacity=".97"/>
  <circle transform="rotate(-45.231)" cx="48.152" cy="438.55" r="5.4478" opacity=".97"/>
 </g>
 <g transform="translate(.0056576 -1.9635)" fill="#0065ff" fill-opacity=".47059">
  <circle cx="489.31" cy="170.79" r="5.4478" opacity=".97"/>
  <circle cx="157.02" cy="270.61" r="5.4478" opacity=".97"/>
  <circle cx="324.59" cy="119.73" r="5.4478" opacity=".97"/>
  <circle transform="rotate(-45.231)" cx="90.453" cy="277.56" r="5.4478" opacity=".97"/>
  <circle transform="rotate(-45.231)" cx="27.877" cy="262.17" r="5.4478" opacity=".97"/>
  <circle transform="rotate(-45.231)" cx="206.16" cy="415.42" r="5.4478" opacity=".97"/>
  <circle transform="rotate(-45.231)" cx="95.089" cy="356.36" r="5.4478" opacity=".97"/>
  <circle transform="rotate(-45.231)" cx="130.04" cy="379.78" r="5.4478" opacity=".97"/>
  <circle transform="rotate(-45.231)" cx="32.812" cy="384.61" r="5.4478" opacity=".97"/>
  <circle cx="275.13" cy="224.2" r="5.4478" opacity=".97"/>
  <circle transform="rotate(-45.231)" cx="170.05" cy="504.56" r="5.4478" opacity=".97"/>
  <circle transform="rotate(-45.231)" cx="288.02" cy="498.63" r="5.4478" opacity=".97"/>
  <circle transform="rotate(-45.231)" cx="62.809" cy="417.49" r="5.4478" opacity=".97"/>
  <circle transform="rotate(-45.231)" cx="-22.757" cy="344.73" r="5.4478" opacity=".97"/>
  <circle transform="rotate(-45.231)" cx="49.603" cy="491.47" r="5.4478" opacity=".97"/>
  <circle transform="rotate(-45.231)" cx="139.18" cy="569.01" r="5.4478" opacity=".97"/>
 </g>
 <g transform="translate(.0056576 -1.9635)" fill="#0065ff" fill-opacity=".47059">
  <circle transform="rotate(-45.231)" cx="256.88" cy="539.98" r="5.4478" opacity=".97"/>
  <circle transform="rotate(-45.231)" cx="249.59" cy="545.4" r="5.4478" opacity=".97"/>
  <circle transform="rotate(-45.231)" cx="136.81" cy="480.02" r="5.4478" opacity=".97"/>
  <circle transform="rotate(-45.231)" cx="258.99" cy="467.35" r="5.4478" opacity=".97"/>
 </g>
 <g fill="#f00" fill-opacity=".45894">
  <circle transform="rotate(-45.231)" cx="227.12" cy="497.16" r="5.4478" opacity=".97"/>
  <circle transform="rotate(-45.231)" cx="232.76" cy="449.97" r="5.4478" opacity=".97"/>
  <g transform="translate(.0056576 -1.9635)">
   <circle transform="rotate(-45.231)" cx="1.6434" cy="338.29" r="5.4478" opacity=".97"/>
   <circle cx="193.63" cy="219.16" r="5.4478" opacity=".97"/>
   <circle cx="229.95" cy="208.59" r="5.4478" opacity=".97"/>
   <circle transform="rotate(-45.231)" cx="-49.093" cy="325.76" r="5.4478" opacity=".97"/>
   <circle cx="210.97" cy="223.02" r="5.4478" opacity=".97"/>
   <circle cx="219.03" cy="299.11" r="5.4478" opacity=".97"/>
   <circle transform="rotate(-45.231)" cx="-39.62" cy="340.78" r="5.4478" opacity=".97"/>
  </g>
 </g>
 <g transform="translate(.0056576 -1.9635)" fill="#0065ff" fill-opacity=".47059">
  <circle transform="rotate(-45.231)" cx="-10.409" cy="399.98" r="5.4478" opacity=".97"/>
  <circle transform="rotate(-45.231)" cx="-56.254" cy="285.39" r="5.4478" opacity=".97"/>
  <circle transform="rotate(-45.231)" cx="16.566" cy="465.46" r="5.4478" opacity=".97"/>
  <circle transform="rotate(-45.231)" cx="270.09" cy="416.55" r="5.4478" opacity=".97"/>
  <circle transform="rotate(-45.231)" cx="315.99" cy="441.37" r="5.4478" opacity=".97"/>
 </g>
 <ellipse transform="matrix(.9851 -.17199 .13323 .99108 0 0)" cx="314.51" cy="263.07" rx="276.53" ry="176.13" fill="none" opacity=".97" stroke="#000" stroke-linecap="square" stroke-opacity=".37681" stroke-width="2.7213"/>
 <g transform="translate(.0056576 -1.9635)" fill="#f00" fill-opacity=".45894">
  <circle cx="347.86" cy="95.401" r="5.4478" opacity=".97"/>
  <circle cx="375.33" cy="138.59" r="5.4478" opacity=".97"/>
  <circle transform="rotate(-45.231)" cx="241.53" cy="371.37" r="5.4478" opacity=".97"/>
  <circle transform="rotate(-45.231)" cx="218.7" cy="406.99" r="5.4478" opacity=".97"/>
  <circle transform="rotate(-45.231)" cx="228.85" cy="291.46" r="5.4478" opacity=".97"/>
 </g>
 <g transform="translate(.0056576 -1.9635)" fill="#0065ff" fill-opacity=".47059">
  <circle cx="381.05" cy="62.811" r="5.4478" opacity=".97"/>
  <circle transform="rotate(-45.231)" cx="175.26" cy="356.35" r="5.4478" opacity=".97"/>
  <circle transform="rotate(-45.231)" cx="210.21" cy="379.77" r="5.4478" opacity=".97"/>
  <circle cx="124.43" cy="234.17" r="5.4478" opacity=".97"/>
  <circle cx="123.19" cy="317.33" r="5.4478" opacity=".97"/>
  <circle cx="112.92" cy="205.61" r="5.4478" opacity=".97"/>
  <circle cx="510.77" cy="105.31" r="5.4478" opacity=".97"/>
  <circle cx="443.56" cy="318.61" r="5.4478" opacity=".97"/>
 </g>
 <g transform="translate(.0056576 -1.9635)" fill="#f00" fill-opacity=".45894">
  <circle cx="108.42" cy="262.11" r="5.4478" opacity=".97"/>
  <circle cx="172.63" cy="329.52" r="5.4478" opacity=".97"/>
  <circle cx="372.3" cy="296.14" r="5.4478" opacity=".97"/>
  <circle cx="414.03" cy="350.07" r="5.4478" opacity=".97"/>
  <circle cx="546.93" cy="70.144" r="5.4478" opacity=".97"/>
  <circle cx="467.61" cy="327.2" r="5.4478" opacity=".97"/>
  <circle cx="565.29" cy="258.08" r="5.4478" opacity=".97"/>
 </g>
 <g transform="translate(.0056576 -1.9635)" fill="#0065ff" fill-opacity=".47059">
  <circle cx="259.3" cy="75.28" r="5.4478" opacity=".97"/>
  <circle cx="576.46" cy="247.99" r="5.4478" opacity=".97"/>
 </g>
 <g transform="translate(.0056576 -1.9635)" fill="#f00" fill-opacity=".45894">
  <circle cx="272.78" cy="350.71" r="5.4478" opacity=".97"/>
  <circle cx="315.8" cy="307.05" r="5.4478" opacity=".97"/>
  <circle cx="165.35" cy="191.89" r="5.4478" opacity=".97"/>
  <circle cx="232.34" cy="91.331" r="5.4478" opacity=".97"/>
  <circle cx="566.26" cy="107.82" r="5.4478" opacity=".97"/>
  <circle cx="541.79" cy="278.8" r="5.4478" opacity=".97"/>
  <circle cx="355.6" cy="321.18" r="5.4478" opacity=".97"/>
  <circle cx="540.51" cy="104.17" r="5.4478" opacity=".97"/>
 </g>
 <g transform="translate(.0056576 -1.9635)" fill="#0065ff" fill-opacity=".47059">
  <circle cx="451.91" cy="65.65" r="5.4478" opacity=".97"/>
  <circle cx="134.75" cy="138.84" r="5.4478" opacity=".97"/>
  <circle cx="122.55" cy="166.45" r="5.4478" opacity=".97"/>
  <circle cx="220.14" cy="348.14" r="5.4478" opacity=".97"/>
  <circle cx="227.84" cy="340.44" r="5.4478" opacity=".97"/>
  <circle cx="329.92" cy="351.35" r="5.4478" opacity=".97"/>
  <circle cx="381.93" cy="344.29" r="5.4478" opacity=".97"/>
  <circle cx="602.18" cy="223.16" r="5.4478" opacity=".97"/>
 </g>
 <circle transform="rotate(-45.231)" cx="166.73" cy="274.92" r="5.4478" fill="#f00" fill-opacity=".45894" opacity=".97"/>
 <g transform="matrix(2.8655 0 0 -2.8655 -741.91 2008)" fill-rule="evenodd" stroke="#000" stroke-miterlimit="10.433" ns0:preamble="default_packages.tex" ns0:text="$$\\text{population 55\\% 45\\%}$$\n" xml:space="preserve"><g stroke-width="0"><g fill-opacity=".78431"><path d="m262.27 698.51v0.60439l-1.339-0.10226v-0.28825c0.66019 0 0.72527-0.0558 0.72527-0.45562v-4.3238c0-0.41844-0.10225-0.41844-0.72527-0.41844v-0.28827c0.31614 9e-3 0.79966 0.0278 1.0414 0.0278 0.25106 0 0.72528-0.0186 1.0507-0.0278v0.28825c-0.62299 0-0.72527 0-0.72527 0.41844v1.6365l0.13018 0.12088c-0.13018 0.18597-0.13018 0.19526-0.13018 0.38123v2.0642c0.26965 0.46492 0.72527 0.73458 1.1995 0.73458 0.66949 0 1.2367-0.80896 1.2367-1.8504 0-1.1251-0.65089-1.8969-1.3297-1.8969-0.37193 0-0.72528 0.18597-0.97633 0.56721l-0.13018-0.12088c0.0465-0.14878 0.43702-0.65089 1.1437-0.65089 1.0972 0 2.0642 0.90194 2.0642 2.1014 0 1.1716-0.90195 2.0828-1.9341 2.0828-0.72527 0-1.1158-0.40913-1.3018-0.60439z"/><path d="m270.45 697.02-9e-3 0.10225-9e-3 0.11159-9e-3 0.11157-0.0186 0.10226-0.0278 0.10226-0.0186 0.10226-0.0744 0.20452-0.0371 0.0929-0.0465 0.0929-0.0558 0.0929-0.0465 0.0837-0.0651 0.0837-0.0558 0.0837-0.1302 0.1488-0.1488 0.1488-0.0744 0.0558-0.0836 0.0651-0.0837 0.0558-0.0836 0.0558-0.0929 0.0465-0.093 0.0465-0.0929 0.0371-0.0929 0.028-0.0929 0.0372-0.30678 0.0558-0.10226 9e-3h-0.10226l-9e-3 -0.20457c0.40914 0 0.80896-0.20456 1.0507-0.5951 0.24176-0.39982 0.24176-0.93914 0.24176-1.2832 0-0.33474 0-0.83686-0.20456-1.246-0.20457-0.40913-0.6137-0.67879-1.0786-0.67879-0.39983 0-0.80896 0.19528-1.06 0.6137-0.22317 0.40913-0.22317 0.97634-0.22317 1.3111 0 0.35335 0 0.85546 0.21387 1.2646 0.25106 0.41843 0.68809 0.61369 1.06 0.61369l9e-3 0.20457c-1.1623 0-2.055-1.0042-2.055-2.1572 0-1.1995 0.96703-2.0828 2.0456-2.0828 1.1251 0 2.0643 0.90194 2.0643 2.0828z"/><path d="m272.31 698.51v0.60439l-1.339-0.10226v-0.28825c0.66019 0 0.72528-0.0558 0.72528-0.45562v-4.3238c0-0.41844-0.10225-0.41844-0.72528-0.41844v-0.28827c0.31615 9e-3 0.79967 0.0278 1.0414 0.0278s0.71598-0.0186 1.0414-0.0278v0.28825c-0.623 0-0.71597 0-0.71597 0.41844v1.6365l0.12088 0.12088c-0.12088 0.18597-0.12088 0.19526-0.12088 0.38123v2.0642c0.26035 0.46492 0.71597 0.73458 1.1902 0.73458 0.67879 0 1.246-0.80896 1.246-1.8504 0-1.1251-0.65089-1.8969-1.339-1.8969-0.37193 0-0.72527 0.18597-0.97632 0.56721l-0.12088-0.12088c0.0372-0.14878 0.42772-0.65089 1.1344-0.65089 1.1065 0 2.0642 0.90194 2.0642 2.1014 0 1.1716-0.89264 2.0828-1.9341 2.0828-0.72528 0-1.1158-0.40913-1.2925-0.60439z"/><path d="m279.48 695.77v-0.83686l1.339 0.10226v0.28825c-0.65088 0-0.72528 0.0651-0.72528 0.51141v3.2823l-1.3576-0.10226v-0.28825c0.64159 0 0.71598-0.0651 0.71598-0.51141v-1.6458c0-0.79966-0.43704-1.432-1.1158-1.432-0.78107 0-0.81826 0.43702-0.81826 0.91124v3.0685l-1.3669-0.10226v-0.28825c0.72528 0 0.72528-0.0278 0.72528-0.84615v-1.3855c0-0.71598 0-1.5621 1.4134-1.5621 0.52071 0 0.92055 0.26036 1.1902 0.83686z"/><path d="m282.65 701.44-1.339-0.0929v-0.28826c0.65088 0 0.72528-0.0651 0.72528-0.52071v-4.8073c0-0.40913-0.10226-0.40913-0.72528-0.40913v-0.28825c0.30685 9e-3 0.79967 0.0279 1.0321 0.0279 0.22317 0 0.67879-0.0186 1.0228-0.0279v0.28825c-0.62299 0-0.71598 0-0.71598 0.40913z"/><path d="m286.67 695.73v-0.028l9e-3 -0.0371 9e-3 -0.0372v-0.0278l0.018-0.0744 0.0186-0.0279 9e-3 -0.0372 0.0186-0.0372 9e-3 -0.0279 0.0186-0.0278 0.0186-0.0372 0.0186-0.028 0.0186-0.0279 0.0186-0.0278 0.0278-0.028 0.0186-0.0278 0.0278-0.0279 0.0278-0.0186 0.0186-0.0279 0.0278-0.0186 0.0372-0.0186 0.0556-0.0372 0.0372-9e-3 0.028-0.0186 0.0371-9e-3 0.0744-0.018 0.0371-9e-3h0.0837c0.19527 0 0.75318 0.13018 0.75318 0.87405v0.52071h-0.23246v-0.52071c0-0.53001-0.23247-0.5858-0.32545-0.5858-0.30684 0-0.34404 0.40913-0.34404 0.45563v1.8504c0 0.39053 0 0.75317-0.33474 1.0879-0.36264 0.36265-0.82756 0.51142-1.2739 0.51142-0.76247 0-1.4041-0.43702-1.4041-1.0414 0-0.27894 0.19526-0.43702 0.42773-0.43702 0.26035 0 0.42773 0.18597 0.42773 0.42773 0 0.11158-0.0465 0.40913-0.47423 0.42773 0.25107 0.31614 0.70669 0.41842 1.0042 0.41842 0.45562 0 0.98563-0.36263 0.98563-1.1809v-1.4599c0-0.87406-0.66949-1.1902-1.0879-1.1902-0.45563 0-0.83686 0.32545-0.83686 0.78107 0 0.51141 0.39053 1.2739 1.9248 1.3297v0.19528c-0.47422-0.028-1.1251-0.0558-1.7109-0.32545-0.68809-0.31615-0.92055-0.79966-0.92055-1.2088 0-0.74388 0.89266-0.97633 1.4784-0.97633 0.6137 0 1.0414 0.37193 1.2181 0.79966z"/><path d="m289.81 698.73h1.3297v0.28825h-1.3297v1.7016h-0.23245c-9e-3 -0.75316-0.28825-1.7481-1.1902-1.7853v-0.20457h0.79037v-2.5478c0-1.1344 0.85546-1.246 1.1902-1.246 0.66019 0 0.92054 0.66018 0.92054 1.246v0.53001h-0.23246v-0.51141c0-0.6788-0.27895-1.0321-0.623-1.0321-0.62299 0-0.62299 0.83686-0.62299 0.99494z"/><path d="m293.46 699.12-1.3018-0.10226v-0.28825c0.60439 0 0.68808-0.0558 0.68808-0.50211v-2.492c0-0.40913-0.10226-0.40913-0.72527-0.40913v-0.28825c0.29754 9e-3 0.79966 0.0279 1.0228 0.0279 0.32545 0 0.6509-0.0186 0.96704-0.0279v0.28825c-0.6137 0-0.65089 0.0465-0.65089 0.39983z"/><path d="m293.49 700.73v0.0558l-9e-3 0.0278v0.0186l-9e-3 0.0279-9e-3 0.0278-9e-3 0.0186-9e-3 0.0278-0.027 0.0558-0.0186 0.0279-9e-3 0.0186-0.0648 0.0648-0.0186 9e-3 -0.0186 0.0186-0.0186 9e-3 -0.0186 0.0186-0.0186 9e-3 -0.0278 9e-3 -0.0372 0.018h-0.0279l-0.0186 9e-3 -0.0279 9e-3h-0.0466l-0.0186 9e-3h-0.0279c-0.28825 0-0.49281-0.25106-0.49281-0.49281 0-0.25107 0.20456-0.49283 0.49281-0.49283 0.26035 0 0.49282 0.19527 0.49282 0.49283z"/><path d="m298.76 697.02v0.10225l-9e-3 0.11159-0.0186 0.11157-0.0372 0.20452-0.0278 0.10226-0.0744 0.20452-0.0371 0.0929-0.093 0.1858-0.1116 0.1674-0.0651 0.0837-0.1302 0.1488-0.1488 0.1488-0.0744 0.0558-0.0836 0.0651-0.0837 0.0558-0.0836 0.0558-0.093 0.0465-0.0837 0.0465-0.0929 0.0371-0.0929 0.028-0.10226 0.0372-0.10226 0.0186-0.0929 0.0186-0.10226 0.0186-0.10226 9e-3h-0.11182l-9e-3 -0.20457c0.40913 0 0.80896-0.20456 1.0507-0.5951 0.24176-0.39982 0.24176-0.93914 0.24176-1.2832 0-0.33474 0-0.83686-0.20457-1.246-0.20456-0.40913-0.6137-0.67879-1.0786-0.67879-0.39053 0-0.79966 0.19528-1.0507 0.6137-0.23246 0.40913-0.23246 0.97634-0.23246 1.3111 0 0.35335 0 0.85546 0.22317 1.2646 0.25105 0.41843 0.67878 0.61369 1.0507 0.61369l9e-3 0.20457c-1.153 0-2.055-1.0042-2.055-2.1572 0-1.1995 0.96705-2.0828 2.0457-2.0828 1.1251 0 2.0642 0.90194 2.0642 2.0828z"/><path d="m300.04 698.21v-2.4827c0-0.40913-0.10226-0.40913-0.72527-0.40913v-0.28825c0.32545 9e-3 0.79967 0.0279 1.0507 0.0279 0.24176 0 0.72527-0.0186 1.0321-0.0279v0.28825c-0.61368 0-0.71598 0-0.71598 0.40913v1.7016c0 0.96704 0.6602 1.4784 1.246 1.4784 0.58581 0 0.68809-0.49282 0.68809-1.0228v-2.1572c0-0.40913-0.10226-0.40913-0.72527-0.40913v-0.28825c0.32543 9e-3 0.79966 0.0279 1.0507 0.0279 0.24176 0 0.72527-0.0186 1.0414-0.0279v0.28825c-0.48352 0-0.71598 0-0.72528 0.27895v1.7574c0 0.79966 0 1.0879-0.28825 1.4134-0.13018 0.15808-0.43702 0.34404-0.97633 0.34404-0.67879 0-1.1065-0.39982-1.3669-0.96703v0.96703l-1.3111-0.10226v-0.28825c0.65088 0 0.72527-0.0651 0.72527-0.51141z"/></g><g fill="#f00" fill-opacity=".81159"><path d="m263.94 686.43v0.09l-8e-3 0.09-8e-3 0.0818-0.0164 0.09-0.0164 0.0818-0.0164 0.09-0.049 0.1636-0.0327 0.0736-0.0327 0.0818-0.0409 0.0736-0.0327 0.0655-0.0491 0.0736-0.0409 0.0655-0.0982 0.131-0.0573 0.0573-0.0491 0.0573-0.0655 0.0491-0.0573 0.0573-0.0654 0.0409-0.0655 0.0491-0.0654 0.0327-0.0655 0.0409-0.0736 0.0327-0.2208 0.0735-0.0818 0.0164-0.0736 8e-3 -0.0818 8e-3h-0.0818c-0.39272 0-0.74454-0.13091-1.0391-0.40909v1.5791c0.16364-0.0491 0.43364-0.10636 0.69546-0.10636 1.0064 0 1.5709 0.74454 1.5709 0.85091 0 0.0491-0.0245 0.09-0.0818 0.09-8e-3 0-0.0245 0-0.0654-0.0245-0.16364-0.0736-0.55637-0.23727-1.1046-0.23727-0.32728 0-0.70364 0.0573-1.0882 0.22909-0.0654 0.0245-0.0818 0.0245-0.0982 0.0245-0.0818 0-0.0818-0.0655-0.0818-0.19637v-2.4055c0-0.14727 0-0.21273 0.11455-0.21273 0.0573 0 0.0736 0.0245 0.10636 0.0736 0.09 0.13091 0.39273 0.56455 1.0555 0.56455 0.42546 0 0.63-0.36819 0.68727-0.51546 0.1391-0.30273 0.14728-0.62182 0.14728-1.0227 0-0.28636 0-0.77727-0.18818-1.1127-0.19637-0.31909-0.4991-0.53182-0.87546-0.53182-0.59728 0-1.0636 0.43364-1.2027 0.90819 0.0245-8e-3 0.0491-0.0164 0.13909-0.0164 0.27 0 0.40909 0.20455 0.40909 0.40091 0 0.19637-0.13909 0.40091-0.40909 0.40091-0.11455 0-0.40091-0.0573-0.40091-0.43363 0-0.70364 0.56455-1.4891 1.4809-1.4891 0.94091 0 1.7755 0.78546 1.7755 1.8164z"/><path d="m268.02 686.43v0.09l-8e-3 0.09-8e-3 0.0818-8e-3 0.09-0.0164 0.0818-0.0246 0.09-0.049 0.1636-0.0327 0.0736-0.0327 0.0818-0.0327 0.0736-0.0409 0.0655-0.0409 0.0736-0.1473 0.1965-0.0491 0.0573-0.0573 0.0573-0.0573 0.0491-0.0654 0.0573-0.0573 0.0409-0.0654 0.0491-0.0736 0.0327-0.0654 0.0409-0.0736 0.0327-0.2208 0.0735-0.0818 0.0164-0.0736 8e-3 -0.0818 8e-3h-0.0818c-0.39273 0-0.74455-0.13091-1.0391-0.40909v1.5791c0.16363-0.0491 0.43363-0.10636 0.69545-0.10636 1.0064 0 1.5791 0.74454 1.5791 0.85091 0 0.0491-0.0245 0.09-0.09 0.09-8e-3 0-0.0246 0-0.0573-0.0245-0.16363-0.0736-0.56454-0.23727-1.1127-0.23727-0.32727 0-0.70363 0.0573-1.0882 0.22909-0.0655 0.0245-0.0818 0.0245-0.0982 0.0245-0.0818 0-0.0818-0.0655-0.0818-0.19637v-2.4055c0-0.14727 0-0.21273 0.11454-0.21273 0.0573 0 0.0736 0.0245 0.10637 0.0736 0.09 0.13091 0.39273 0.56455 1.0554 0.56455 0.42546 0 0.63001-0.36819 0.69546-0.51546 0.13091-0.30273 0.14727-0.62182 0.14727-1.0227 0-0.28636 0-0.77727-0.19636-1.1127-0.19636-0.31909-0.49909-0.53182-0.87546-0.53182-0.59727 0-1.0636 0.43364-1.2027 0.90819 0.0246-8e-3 0.0491-0.0164 0.13909-0.0164 0.27001 0 0.4091 0.20455 0.4091 0.40091 0 0.19637-0.13909 0.40091-0.4091 0.40091-0.11454 0-0.39272-0.0573-0.39272-0.43363 0-0.70364 0.55636-1.4891 1.4727-1.4891 0.94909 0 1.7755 0.78546 1.7755 1.8164z"/><path d="m274.02 690.58v8e-3l8e-3 8e-3v8e-3h8e-3v8e-3l0.016 0.016v8e-3l8e-3 8e-3v8e-3h8e-3v0.016l8e-3 8e-3v0.024h8e-3v0.024c0 0.09-0.0736 0.16364-0.16364 0.16364-0.0818 0-0.12273-0.0573-0.17182-0.11455-0.40909-0.54818-0.95727-0.76909-1.5464-0.76909-0.57273 0-1.08 0.20455-1.53 0.62182-0.15545 0.13909-0.32727 0.26182-0.58909 0.26182l8e-3 -0.18c0.43364 0 0.85091-0.59727 0.85091-1.4564 0-0.87545-0.42545-1.4564-0.85091-1.4564-0.16363 0-0.70364 0.10636-0.70364 1.4482 0 1.3582 0.53182 1.4646 0.70364 1.4646l-8e-3 0.18c-0.62182 0-1.1946-0.67909-1.1946-1.6364 0-0.98182 0.58091-1.6364 1.1946-1.6364 0.59727 0 1.0636 0.72 1.0636 1.6282 0 0.11455 0 0.49909-0.17182 0.92455 0.53182-0.30273 0.94091-0.34364 1.2273-0.34364 0.62182 0 1.0391 0.25364 1.0882 0.28637l8e-3 -8e-3 -3.6655-5.4409c-0.0736-0.10636-0.0736-0.14727-0.0736-0.16363 0-0.09 0.0818-0.16364 0.16364-0.16364 0.0818 0 0.0982 0.0327 0.16364 0.12273z"/><path d="m274.77 685.97-8e-3 0.09v0.0818l-0.016 0.1636-0.0164 0.0818-8e-3 0.0818-0.0164 0.0736-0.0245 0.0818-0.0164 0.0736-0.0245 0.0654-0.0245 0.0736-0.0327 0.0655-0.0245 0.0655-0.0654 0.1146-0.0409 0.0573-0.0327 0.0573-0.0818 0.0982-0.0818 0.0818-0.0491 0.0409-0.0409 0.0327-0.0982 0.0654-0.0982 0.049-0.0491 0.0164-0.0573 8e-3 -0.0491 0.0164h-0.0573l-0.0491 8e-3c-0.62182 0-1.2027-0.68728-1.2027-1.6364 0-0.98182 0.58909-1.6446 1.2027-1.6446l8e-3 0.18c-0.16363 0-0.70363 0.10636-0.70363 1.4564 0 1.3582 0.53182 1.4646 0.70363 1.4646 0.43364 0 0.85092-0.60546 0.85092-1.4564 0-0.87546-0.42546-1.4646-0.85092-1.4646l-8e-3 -0.18c0.59728 0 1.0636 0.72818 1.0636 1.6364z"/></g><g fill="#0065ff" fill-opacity=".86275"><path d="m280.34 686.13v-0.70363c0-0.29455-0.0164-0.38455-0.62182-0.38455h-0.17182v-0.25364c0.33546 0.0245 0.76091 0.0245 1.1046 0.0245s0.76909 0 1.1046-0.0245v0.25364h-0.17182c-0.59727 0-0.61364 0.09-0.61364 0.38455v0.70363h0.81001v0.25364h-0.81001v3.6982c0 0.16364 0 0.21273-0.13091 0.21273-0.0736 0-0.0982 0-0.16363-0.0982l-2.5036-3.8127h0.22909l1.9882 3.0273v-3.0273h-2.2173v-0.25364z"/><path d="m285.68 686.43-8e-3 0.09v0.09l-0.0164 0.0818-8e-3 0.09-0.0164 0.0818-0.0245 0.09-0.0245 0.0818-0.0246 0.0818-0.0327 0.0736-0.0327 0.0818-0.0327 0.0736-0.0409 0.0655-0.0409 0.0736-0.1473 0.1965-0.0491 0.0573-0.0573 0.0573-0.0573 0.0491-0.0654 0.0573-0.0573 0.0409-0.0655 0.0491-0.0654 0.0327-0.0736 0.0409-0.0736 0.0327-0.0654 0.0245-0.0818 0.0245-0.0736 0.0245-0.0736 0.0164-0.1636 0.016h-0.0818c-0.39273 0-0.74454-0.13091-1.0391-0.40909v1.5791c0.16364-0.0491 0.43364-0.10636 0.69546-0.10636 1.0064 0 1.5791 0.74454 1.5791 0.85091 0 0.0491-0.0245 0.09-0.0818 0.09-8e-3 0-0.0245 0-0.0654-0.0245-0.16364-0.0736-0.56455-0.23727-1.1127-0.23727-0.32728 0-0.70364 0.0573-1.08 0.22909-0.0736 0.0245-0.09 0.0245-0.0982 0.0245-0.0818 0-0.0818-0.0655-0.0818-0.19637v-2.4055c0-0.14727 0-0.21273 0.10637-0.21273 0.0573 0 0.0818 0.0245 0.10636 0.0736 0.09 0.13091 0.39273 0.56455 1.0555 0.56455 0.42545 0 0.63-0.36819 0.69546-0.51546 0.1309-0.30273 0.14727-0.62182 0.14727-1.0227 0-0.28636 0-0.77727-0.19637-1.1127-0.19636-0.31909-0.49909-0.53182-0.87545-0.53182-0.59728 0-1.0555 0.43364-1.1946 0.90819 0.0245-8e-3 0.0491-0.0164 0.13909-0.0164 0.26182 0 0.40091 0.20455 0.40091 0.40091 0 0.19637-0.13909 0.40091-0.40091 0.40091-0.11455 0-0.40091-0.0573-0.40091-0.43363 0-0.70364 0.55637-1.4891 1.4727-1.4891 0.94909 0 1.7836 0.78546 1.7836 1.8164z"/><path d="m291.68 690.58 8e-3 8e-3v8e-3l0.016 0.016v8e-3l8e-3 8e-3v8e-3h8e-3v0.016h8e-3v0.016h8e-3v0.024h8e-3v0.032c0 0.09-0.0736 0.16364-0.16363 0.16364-0.0818 0-0.12273-0.0573-0.17182-0.11455-0.40909-0.54818-0.95728-0.76909-1.5464-0.76909-0.57273 0-1.08 0.20455-1.53 0.62182-0.15546 0.13909-0.32728 0.26182-0.5891 0.26182l8e-3 -0.18c0.43363 0 0.85091-0.59727 0.85091-1.4564 0-0.87545-0.42546-1.4564-0.85091-1.4564-0.16364 0-0.69546 0.10636-0.69546 1.4482 0 1.3582 0.52364 1.4646 0.69546 1.4646l-8e-3 0.18c-0.61363 0-1.1945-0.67909-1.1945-1.6364 0-0.98182 0.58909-1.6364 1.1945-1.6364 0.59728 0 1.0636 0.72 1.0636 1.6282 0 0.11455 0 0.49909-0.17182 0.92455 0.53182-0.30273 0.94092-0.34364 1.2355-0.34364 0.61364 0 1.0309 0.25364 1.08 0.28637l8e-3 -8e-3 -3.6573-5.4409c-0.0818-0.10636-0.0818-0.14727-0.0818-0.16363 0-0.09 0.0818-0.16364 0.17182-0.16364 0.0818 0 0.09 0.0327 0.15545 0.12273z"/><path d="m292.43 685.97v0.09l-0.032 0.3272-0.0164 0.0818-0.0164 0.0736-0.0246 0.0818-0.0164 0.0736-0.0245 0.0654-0.0246 0.0736-0.0327 0.0655-0.0245 0.0655-0.0981 0.1719-0.0409 0.0573-0.0818 0.0982-0.1227 0.1227-0.1473 0.0981-0.0982 0.049-0.0491 0.0164-0.0491 8e-3 -0.0573 0.0164h-0.0491l-0.0573 8e-3c-0.62182 0-1.1946-0.68728-1.1946-1.6364 0-0.98182 0.58091-1.6446 1.1946-1.6446l8e-3 0.18c-0.16364 0-0.70364 0.10636-0.70364 1.4564 0 1.3582 0.53182 1.4646 0.70364 1.4646 0.43364 0 0.85091-0.60546 0.85091-1.4564 0-0.87546-0.42546-1.4646-0.85091-1.4646l-8e-3 -0.18c0.59727 0 1.0636 0.72818 1.0636 1.6364z"/></g></g><g stroke="#000" stroke-miterlimit="10.433"><path d="m294.91 685.74 17.367-20.458" fill="none" stroke-opacity=".6087" stroke-width=".49935"/><g transform="matrix(1.5,0,0,-1.5,-89.695,1253)" fill-rule="evenodd" stroke-width="0" ns0:preamble="default_packages.tex" ns0:text="$$\\text{representable sample 57\\% 43\\%}$$\n" xml:space="preserve"><g transform="translate(-12.637 .77056)" fill-opacity=".78431"><path d="m355.73 454.05v-0.65847l-0.83369 0.0664v0.18727c0.41684 0 0.46518 0.0423 0.46518 0.33227v1.613c0 0.26581-0.0664 0.26581-0.46518 0.26581v0.18728c0.23561-7e-3 0.51954-0.0181 0.68265-0.0181 0.24166 0 0.52559 0 0.76724 0.0181v-0.18728h-0.12687c-0.44705 0-0.45913-0.0664-0.45913-0.28393v-0.91829c0-0.59808 0.25374-1.1297 0.71285-1.1297 0.0423 0 0.0544 0 0.0664 7e-3 -0.0181 7e-3 -0.13895 0.0785-0.13895 0.22956 0 0.16917 0.12687 0.25978 0.25976 0.25978 0.10874 0 0.25978-0.0725 0.25978-0.26581 0-0.18728-0.18728-0.36248-0.44706-0.36248-0.441 0-0.65847 0.39872-0.74305 0.6585z"/><path d="m357.76 454.65 7e-3 -0.12084c0.0363-0.89409 0.5437-1.0451 0.74306-1.0451 0.62224 0 0.68266 0.80951 0.68266 1.0451h-1.4257l-7e-3 0.12084h1.6794c0.13289 0 0.15102 0 0.15102-0.12084 0-0.59807-0.32622-1.178-1.0814-1.178-0.69473 0-1.2505 0.6162-1.2505 1.3713 0 0.80349 0.63432 1.3834 1.323 1.3834 0.73703 0 1.0089-0.66454 1.0089-0.77932 0-0.0604-0.0483-0.0725-0.0785-0.0725-0.0544 0-0.0664 0.0363-0.0785 0.0845-0.21144 0.6162-0.75514 0.6162-0.81555 0.6162-0.29603 0-0.53767-0.18124-0.67662-0.39873-0.18124-0.28998-0.18124-0.68869-0.18124-0.90616z"/><path d="m360.8 453.78v-0.39267l-0.86389 0.0664v0.18727c0.42288 0 0.47122 0.0363 0.47122 0.29602v2.8092c0 0.27186-0.0664 0.27186-0.47122 0.27186v0.18728c0.2054-7e-3 0.51954-0.0181 0.67058-0.0181 0.16311 0 0.4712 0.0121 0.68265 0.0181v-0.18728c-0.40475 0-0.47122 0-0.47122-0.27186v-1.0633l0.0845-0.0785c-0.0845-0.12084-0.0845-0.12688-0.0845-0.24769v-1.3412c0.1752-0.30206 0.47122-0.47725 0.77932-0.47725 0.441 0 0.80951 0.52558 0.80951 1.2022 0 0.73099-0.42287 1.2324-0.86992 1.2324-0.24166 0-0.47122-0.12083-0.63433-0.36851l-0.0845 0.0785c0.0302 0.0967 0.28394 0.42288 0.74306 0.42288 0.71891 0 1.3412-0.58599 1.3412-1.3653 0-0.76119-0.57998-1.3532-1.2566-1.3532-0.47121 0-0.72495 0.2658-0.84576 0.39268z"/><path d="m364.11 454.05v-0.65847l-0.83973 0.0664v0.18727c0.42288 0 0.4712 0.0423 0.4712 0.33227v1.613c0 0.26581-0.0664 0.26581-0.4712 0.26581v0.18728c0.23561-7e-3 0.51954-0.0181 0.6887-0.0181 0.24165 0 0.52558 0 0.76722 0.0181v-0.18728h-0.12686c-0.44705 0-0.45913-0.0664-0.45913-0.28393v-0.91829c0-0.59808 0.25372-1.1297 0.70682-1.1297 0.0483 0 0.0544 0 0.0664 7e-3 -0.0181 7e-3 -0.13291 0.0785-0.13291 0.22956 0 0.16917 0.12082 0.25978 0.25374 0.25978 0.10873 0 0.25976-0.0725 0.25976-0.26581 0-0.18728-0.18727-0.36248-0.44704-0.36248-0.43497 0-0.65245 0.39872-0.73702 0.6585z"/><path d="m366.13 454.65 7e-3 -0.12084c0.0363-0.89409 0.5437-1.0451 0.7491-1.0451 0.62224 0 0.67662 0.80951 0.67662 1.0451h-1.4257l-7e-3 0.12084h1.6794c0.13291 0 0.15104 0 0.15104-0.12084 0-0.59807-0.3202-1.178-1.0753-1.178-0.70078 0-1.2505 0.6162-1.2505 1.3713 0 0.80349 0.62828 1.3834 1.323 1.3834 0.73704 0 1.0029-0.66454 1.0029-0.77932 0-0.0604-0.0484-0.0725-0.0785-0.0725-0.0544 0-0.0664 0.0363-0.0785 0.0845-0.2054 0.6162-0.7491 0.6162-0.80953 0.6162-0.30205 0-0.54371-0.18124-0.68265-0.39873-0.18123-0.28998-0.18123-0.68869-0.18123-0.90616z"/><path d="m369.39 454.87 0.0121 7e-3h0.0121l0.0181 7e-3h0.0181l0.0242 7e-3 0.0181 7e-3 0.0241 7e-3 0.0484 0.014 0.0242 0.0121 0.0302 7e-3 0.0242 0.0121 0.0302 0.0121 0.0484 0.0242 0.0301 0.0181 0.0242 0.0121 0.0484 0.0362 0.0241 0.0181 0.0484 0.0484 0.0543 0.0726 7e-3 0.0181 0.0121 0.0121 7e-3 0.0181 7e-3 0.0121 7e-3 0.0181 7e-3 0.0121 7e-3 0.0181v0.0181l7e-3 0.0181v0.0181l7e-3 0.0181v0.0604c0 0.30206-0.20541 0.5437-0.67661 0.5437-0.50746 0-0.72496-0.33829-0.83973-0.85181-0.0181-0.0785-0.0242-0.1027-0.0845-0.1027-0.0785 0-0.0785 0.0423-0.0785 0.15104v0.79139c0 0.10269 0 0.14499 0.0664 0.14499 0.0301 0 0.0363-7e-3 0.15103-0.12083 0.0121-0.0121 0.0121-0.0242 0.12083-0.13894 0.26581 0.25374 0.53765 0.25977 0.66452 0.25977 0.6887 0 0.96659-0.40477 0.96659-0.83368 0-0.32019-0.18123-0.50143-0.25373-0.57391-0.19936-0.18728-0.42891-0.23562-0.68266-0.28395-0.3383-0.0664-0.74307-0.14498-0.74307-0.49538 0-0.20539 0.15709-0.45309 0.67661-0.45309 0.6585 0 0.6887 0.53767 0.70079 0.72496 7e-3 0.0544 0.0604 0.0544 0.0725 0.0544 0.0785 0 0.0785-0.0302 0.0785-0.145v-0.6041c0-0.1027 0-0.145-0.0664-0.145-0.0302 0-0.0423 0-0.12083 0.0725-0.0181 0.0242-0.0785 0.0785-0.0967 0.0967-0.22956-0.16915-0.47725-0.16915-0.56786-0.16915-0.73703 0-0.9666 0.39871-0.9666 0.73703 0 0.21144 0.0967 0.38059 0.25977 0.5135 0.19331 0.15103 0.36247 0.18728 0.79744 0.27185z"/><path d="m371.18 454.65 7e-3 -0.12084c0.0363-0.89409 0.5437-1.0451 0.74306-1.0451 0.62224 0 0.68265 0.80951 0.68265 1.0451h-1.4257l-7e-3 0.12084h1.6794c0.13291 0 0.15103 0 0.15103-0.12084 0-0.59807-0.32621-1.178-1.0814-1.178-0.69473 0-1.2505 0.6162-1.2505 1.3713 0 0.80349 0.63433 1.3834 1.323 1.3834 0.73703 0 1.0089-0.66454 1.0089-0.77932 0-0.0604-0.0483-0.0725-0.0785-0.0725-0.0544 0-0.0663 0.0363-0.0785 0.0845-0.21143 0.6162-0.75514 0.6162-0.81555 0.6162-0.29602 0-0.53767-0.18124-0.67661-0.39873-0.18125-0.28998-0.18125-0.68869-0.18125-0.90616z"/><path d="m373.85 453.97v1.613c0 0.26581-0.0664 0.26581-0.47121 0.26581v0.18728c0.21144-7e-3 0.51954-0.0181 0.67661-0.0181s0.47121 0.0121 0.67662 0.0181v-0.18728c-0.40477 0-0.47122 0-0.47122-0.26581v-1.1055c0-0.62829 0.42891-0.96056 0.81555-0.96056 0.38061 0 0.44706 0.32019 0.44706 0.66454v1.4016c0 0.26581-0.0664 0.26581-0.47121 0.26581v0.18728c0.21142-7e-3 0.51955-0.0181 0.68265-0.0181 0.15708 0 0.47121 0.0121 0.67057 0.0181v-0.18728c-0.30809 0-0.45912 0-0.46518-0.18122v-1.1418c0-0.51953 0-0.70681-0.18727-0.91826-0.0845-0.1027-0.28394-0.22351-0.63431-0.22351-0.44102 0-0.72496 0.25976-0.89411 0.62827v-0.62827l-0.84576 0.0664v0.18727c0.42289 0 0.47121 0.0423 0.47121 0.33227z"/><path d="m377.4 453.64h0.86388v-0.18728h-0.86388v-1.1055h-0.15103c-7e-3 0.48933-0.18727 1.1358-0.77931 1.1599v0.13291h0.51351v1.6553c0 0.73703 0.56182 0.80953 0.7793 0.80953 0.42893 0 0.59808-0.42893 0.59808-0.80953v-0.34434h-0.15102v0.33226c0 0.44101-0.18125 0.67058-0.40477 0.67058-0.40476 0-0.40476-0.54372-0.40476-0.64641z"/><path d="m380.71 455.59 7e-3 0.0182v0.0242l7e-3 0.0242 7e-3 0.0181 7e-3 0.0241 7e-3 0.0242 7e-3 0.0181 7e-3 0.0242 0.0121 0.0242 7e-3 0.0181 0.0121 0.0181 0.0121 0.0242 0.0242 0.0362 0.0181 0.0181 0.0121 0.0181 0.0121 0.0182 0.0182 0.0181 0.0181 0.0121 0.0181 0.0181 0.0724 0.0484 0.0242 7e-3 0.0242 0.0121 0.0181 7e-3 0.0726 0.021h0.0543c0.12687 0 0.49539-0.0845 0.49539-0.56788v-0.3383h-0.15104v0.3383c0 0.34436-0.15104 0.3806-0.21748 0.3806-0.19935 0-0.22353-0.26582-0.22353-0.29602v-1.2022c0-0.25373 0-0.48934-0.21748-0.70682-0.23559-0.23559-0.53766-0.33225-0.82764-0.33225-0.48933 0-0.90618 0.28393-0.90618 0.67659 0 0.18125 0.12083 0.28395 0.2779 0.28395 0.16915 0 0.27789-0.12083 0.27789-0.27789 0-0.0725-0.0301-0.26582-0.3081-0.2779 0.16311-0.2054 0.45914-0.27186 0.6464-0.27186 0.29603 0 0.64037 0.23562 0.64037 0.76724v0.94847c0 0.56787-0.43496 0.77326-0.70682 0.77326-0.29601 0-0.53766-0.21143-0.53766-0.50744 0-0.33229 0.24769-0.82765 1.2445-0.86391v-0.12686c-0.3081 0.0181-0.73097 0.0363-1.1055 0.21144-0.4531 0.2054-0.60413 0.51955-0.60413 0.78536 0 0.4833 0.58599 0.63432 0.96054 0.63432 0.39872 0 0.67661-0.24164 0.79141-0.51954z"/><path d="m382.75 453.78v-1.903l-0.86993 0.0604v0.18728c0.42289 0 0.47122 0.0423 0.47122 0.33829v3.5764h0.15103c7e-3 -7e-3 0.0544-0.0906 0.21747-0.37455 0.0906 0.13894 0.34435 0.441 0.78536 0.441l-0.0241-0.13291c-0.27186 0-0.48934-0.14499-0.62828-0.36851-0.0845-0.12083-0.0845-0.13895-0.0845-0.24769v-1.2384c0-0.11478 0-0.12082 0.0664-0.21748 0.22958-0.33226 0.56183-0.38059 0.70683-0.38059 0.27186 0 0.48934 0.15707 0.63432 0.38059 0.15707 0.24768 0.1752 0.59203 0.1752 0.83369 0 0.22352-0.0121 0.586-0.18728 0.85785-0.12686 0.18123-0.35643 0.38059-0.68265 0.38059l0.0241 0.13291c0.71891 0 1.3472-0.586 1.3472-1.3653 0-0.76119-0.59203-1.3532-1.2807-1.3532-0.47122 0-0.72495 0.28394-0.8216 0.39268z"/><path d="m386.12 451.88-0.86389 0.0604v0.18728c0.41684 0 0.46516 0.0423 0.46516 0.33829v3.1233c0 0.26581-0.0664 0.26581-0.46516 0.26581v0.18728c0.19936-7e-3 0.51349-0.0181 0.66452-0.0181 0.15104 0 0.44705 0.0121 0.67057 0.0181v-0.18728c-0.40475 0-0.4712 0-0.4712-0.26581z"/><path d="m387.4 454.65 7e-3 -0.12084c0.0363-0.89409 0.54371-1.0451 0.74911-1.0451 0.61621 0 0.67661 0.80951 0.67661 1.0451h-1.4257l-7e-3 0.12084h1.6794c0.13291 0 0.15105 0 0.15105-0.12084 0-0.59807-0.32624-1.178-1.0754-1.178-0.70078 0-1.2566 0.6162-1.2566 1.3713 0 0.80349 0.63432 1.3834 1.329 1.3834 0.731 0 1.0029-0.66454 1.0029-0.77932 0-0.0604-0.0483-0.0725-0.0785-0.0725-0.0544 0-0.0664 0.0363-0.0785 0.0845-0.21145 0.6162-0.74911 0.6162-0.80954 0.6162-0.30205 0-0.5437-0.18124-0.68264-0.39873-0.18124-0.28998-0.18124-0.68869-0.18124-0.90616z"/><path d="m392.66 454.87 0.0181 7e-3h0.0121l0.0181 7e-3h0.0181l0.0181 7e-3 0.0968 0.028 0.0242 0.0121 0.0242 7e-3 0.0301 0.0121 0.0242 0.0121 0.0302 0.0121 0.0242 0.0121 0.0242 0.0181 0.0301 0.0121 0.0726 0.0543 0.0242 0.0242 0.0181 0.0242 0.0242 0.0242 0.0362 0.0484 7e-3 0.0181 7e-3 0.0121 7e-3 0.0181 0.0121 0.0121 7e-3 0.0181v0.0121l0.021 0.0543v0.0362l7e-3 0.0181v0.0423c0 0.30206-0.21143 0.5437-0.68266 0.5437-0.50141 0-0.7189-0.33829-0.83367-0.85181-0.0181-0.0785-0.0242-0.1027-0.0846-0.1027-0.0785 0-0.0785 0.0423-0.0785 0.15104v0.79139c0 0.10269 0 0.14499 0.0664 0.14499 0.0301 0 0.0363-7e-3 0.15103-0.12083 0.0121-0.0121 0.0121-0.0242 0.12083-0.13894 0.26581 0.25374 0.53162 0.25977 0.65849 0.25977 0.69472 0 0.97262-0.40477 0.97262-0.83368 0-0.32019-0.18123-0.50143-0.25372-0.57391-0.19937-0.18728-0.43496-0.23562-0.6887-0.28395-0.33831-0.0664-0.73704-0.14498-0.73704-0.49538 0-0.20539 0.15709-0.45309 0.67059-0.45309 0.66453 0 0.69473 0.53767 0.70682 0.72496 7e-3 0.0544 0.0604 0.0544 0.0725 0.0544 0.0785 0 0.0785-0.0302 0.0785-0.145v-0.6041c0-0.1027 0-0.145-0.0664-0.145-0.0302 0-0.0423 0-0.12083 0.0725-0.0181 0.0242-0.0785 0.0785-0.10269 0.0967-0.22957-0.16915-0.47726-0.16915-0.56787-0.16915-0.73099 0-0.96057 0.39871-0.96057 0.73703 0 0.21144 0.0967 0.38059 0.25978 0.5135 0.19331 0.15103 0.36247 0.18728 0.7914 0.27185z"/><path d="m395.79 455.59v0.0182l0.014 0.0484v0.0181l7e-3 0.0241 0.0121 0.0242 7e-3 0.0181 7e-3 0.0242 0.0121 0.0242 7e-3 0.0181 0.0121 0.0181 0.0121 0.0242 0.0363 0.0543 0.0181 0.0181 0.0121 0.0182 0.0181 0.0181 0.0181 0.0121 0.0181 0.0181 0.0182 0.0121 0.0543 0.0363 0.0242 7e-3 0.0181 0.0121 0.0968 0.028h0.0544c0.12686 0 0.48933-0.0845 0.48933-0.56788v-0.3383h-0.15104v0.3383c0 0.34436-0.14497 0.3806-0.21143 0.3806-0.19936 0-0.22353-0.26582-0.22353-0.29602v-1.2022c0-0.25373 0-0.48934-0.21748-0.70682-0.23561-0.23559-0.53767-0.33225-0.82764-0.33225-0.49537 0-0.90617 0.28393-0.90617 0.67659 0 0.18125 0.12082 0.28395 0.27184 0.28395 0.16915 0 0.27789-0.12083 0.27789-0.27789 0-0.0725-0.0302-0.26582-0.30205-0.2779 0.15707-0.2054 0.45309-0.27186 0.6464-0.27186 0.29602 0 0.64038 0.23562 0.64038 0.76724v0.94847c0 0.56787-0.43497 0.77326-0.70683 0.77326-0.29602 0-0.53765-0.21143-0.53765-0.50744 0-0.33229 0.24767-0.82765 1.2445-0.86391v-0.12686c-0.3081 0.0181-0.73099 0.0363-1.1116 0.21144-0.44706 0.2054-0.59806 0.51955-0.59806 0.78536 0 0.4833 0.57994 0.63432 0.96054 0.63432 0.39872 0 0.67661-0.24164 0.79139-0.51954z"/><path d="m397.46 453.97v1.613c0 0.26581-0.0664 0.26581-0.4712 0.26581v0.18728c0.21144-7e-3 0.51954-0.0181 0.68265-0.0181 0.15707 0 0.46517 0.0121 0.67058 0.0181v-0.18728c-0.40477 0-0.47122 0-0.47122-0.26581v-1.1055c0-0.62829 0.42891-0.96056 0.81555-0.96056 0.38061 0 0.44706 0.32019 0.44706 0.66454v1.4016c0 0.26581-0.0664 0.26581-0.47122 0.26581v0.18728c0.21144-7e-3 0.51955-0.0181 0.68266-0.0181 0.15707 0 0.46517 0.0121 0.67057 0.0181v-0.18728c-0.39872 0-0.46518 0-0.46518-0.26581v-1.1055c0-0.62829 0.42893-0.96056 0.80954-0.96056 0.38058 0 0.44704 0.32019 0.44704 0.66454v1.4016c0 0.26581-0.0664 0.26581-0.47122 0.26581v0.18728c0.21145-7e-3 0.51955-0.0181 0.68265-0.0181 0.15708 0 0.47122 0.0121 0.67661 0.0181v-0.18728c-0.31413 0-0.46516 0-0.47121-0.18122v-1.1418c0-0.51953 0-0.70681-0.18727-0.91826-0.0845-0.1027-0.28393-0.22351-0.63431-0.22351-0.50143 0-0.76725 0.35642-0.86995 0.58598-0.0845-0.51954-0.53161-0.58598-0.80347-0.58598-0.44101 0-0.72495 0.25976-0.88805 0.62827v-0.62827l-0.85181 0.0664v0.18727c0.42287 0 0.4712 0.0423 0.4712 0.33227z"/><path d="m402.85 453.78v-0.39267l-0.86993 0.0664v0.18727c0.42894 0 0.47122 0.0363 0.47122 0.29602v2.8092c0 0.27186-0.0664 0.27186-0.47122 0.27186v0.18728c0.2054-7e-3 0.51955-0.0181 0.67663-0.0181 0.1631 0 0.4712 0.0121 0.6766 0.0181v-0.18728c-0.39871 0-0.46517 0-0.46517-0.27186v-1.0633l0.0845-0.0785c-0.0845-0.12084-0.0845-0.12688-0.0845-0.24769v-1.3412c0.17519-0.30206 0.46517-0.47725 0.77327-0.47725 0.44101 0 0.80953 0.52558 0.80953 1.2022 0 0.73099-0.4229 1.2324-0.86993 1.2324-0.24166 0-0.46518-0.12083-0.62829-0.36851l-0.0845 0.0785c0.0301 0.0967 0.28393 0.42288 0.73703 0.42288 0.71889 0 1.3472-0.58599 1.3472-1.3653 0-0.76119-0.58599-1.3532-1.2626-1.3532-0.46517 0-0.7189 0.2658-0.83973 0.39268z"/><path d="m406.22 451.88-0.8639 0.0604v0.18728c0.41685 0 0.46518 0.0423 0.46518 0.33829v3.1233c0 0.26581-0.0664 0.26581-0.46518 0.26581v0.18728c0.19334-7e-3 0.51351-0.0181 0.66454-0.0181s0.44706 0.0121 0.67057 0.0181v-0.18728c-0.40475 0-0.47121 0-0.47121-0.26581z"/><path d="m407.5 454.65 7e-3 -0.12084c0.0363-0.89409 0.54371-1.0451 0.74911-1.0451 0.62223 0 0.67662 0.80951 0.67662 1.0451h-1.4257l-7e-3 0.12084h1.6795c0.13289 0 0.15102 0 0.15102-0.12084 0-0.59807-0.32622-1.178-1.0753-1.178-0.70078 0-1.2566 0.6162-1.2566 1.3713 0 0.80349 0.63432 1.3834 1.3291 1.3834 0.73097 0 1.0028-0.66454 1.0028-0.77932 0-0.0604-0.0483-0.0725-0.0785-0.0725-0.0544 0-0.0664 0.0363-0.0785 0.0845-0.21143 0.6162-0.7491 0.6162-0.8095 0.6162-0.30206 0-0.54371-0.18124-0.68267-0.39873-0.18122-0.28998-0.18122-0.68869-0.18122-0.90616z"/></g><g transform="translate(-12.637 .77056)" fill="#f00" fill-opacity=".81176"><path d="m357.19 461.43-6e-3 -0.0618v-0.0618l-0.0113-0.0561-6e-3 -0.0618-0.0113-0.0562-0.0169-0.0618-0.0169-0.0562-0.0169-0.0561-0.0224-0.0506-0.0224-0.0561-0.0224-0.0506-0.0282-0.045-0.0282-0.0505-0.0337-0.045-0.0337-0.0449-0.0337-0.045-0.0337-0.0393-0.0393-0.0394-0.0393-0.0337-0.045-0.0393-0.0393-0.0282-0.045-0.0337-0.0449-0.0224-0.0506-0.0282-0.0449-0.0224-0.0506-0.0169-0.0505-0.0169-0.0561-0.0169-0.0505-0.0113-0.0561-6e-3 -0.0562-6e-3h-0.0561c-0.26968 0-0.51125 0.0899-0.70788 0.28091v-1.0843c0.10674 0.0337 0.29214 0.073 0.47191 0.073 0.69103 0 1.0843-0.51124 1.0843-0.58428 0-0.0337-0.0169-0.0618-0.0561-0.0618-6e-3 0-0.0169 0-0.0449 0.0169-0.11238 0.0505-0.38765 0.16292-0.76407 0.16292-0.22473 0-0.48315-0.0394-0.74159-0.15731-0.045-0.0169-0.0561-0.0169-0.0674-0.0169-0.0562 0-0.0562 0.0449-0.0562 0.13482v1.6517c0 0.10111 0 0.14606 0.0787 0.14606 0.0393 0 0.0505-0.0169 0.0674-0.0506 0.0674-0.0899 0.26967-0.38764 0.72473-0.38764 0.29215 0 0.4326 0.25281 0.47755 0.35394 0.0899 0.20787 0.10112 0.42697 0.10112 0.70226 0 0.19664 0 0.53372-0.13483 0.76406-0.13484 0.2191-0.3427 0.36518-0.60114 0.36518-0.41011 0-0.72472-0.29776-0.82024-0.62361 0.0169 6e-3 0.0337 0.0113 0.0955 0.0113 0.18538 0 0.27527-0.14045 0.27527-0.27529 0-0.13483-0.0899-0.27529-0.27527-0.27529-0.0787 0-0.2753 0.0393-0.2753 0.29776 0 0.48316 0.38765 1.0225 1.0112 1.0225 0.6517 0 1.2248-0.53933 1.2248-1.2472z"/><path d="m360.14 459.15 6e-3 -6e-3v-6e-3l0.012-0.012v-6e-3l6e-3 -6e-3v-6e-3l0.012-0.012v-6e-3l6e-3 -6e-3v-0.012l6e-3 -6e-3v-0.042l6e-3 -6e-3v-0.0752h-1.3652c-0.67979 0-0.69103-0.073-0.71351-0.17978h-0.14255l-0.18539 1.1517h0.14045c0.0169-0.0898 0.0674-0.43822 0.14045-0.50562 0.0393-0.0337 0.47754-0.0337 0.54496-0.0337h1.163c-0.0618 0.0898-0.50563 0.69664-0.62923 0.88204-0.50564 0.75282-0.69103 1.5281-0.69103 2.0955 0 0.0561 0 0.30901 0.25843 0.30901 0.25844 0 0.25844-0.25281 0.25844-0.30901v-0.2809c0-0.309 0.0169-0.61799 0.0618-0.91575 0.0224-0.12922 0.10112-0.61237 0.34832-0.95507z"/><path d="m364.11 458.58 6e-3 -6e-3v-6e-3l0.012-0.012v-6e-3h6e-3v-0.012h6e-3v-6e-3l6e-3 -6e-3v-6e-3l6e-3 -6e-3v-0.012h6e-3v-0.03c0-0.0618-0.0506-0.11237-0.11236-0.11237-0.0561 0-0.0843 0.0394-0.11799 0.0787-0.2809 0.37642-0.65169 0.5281-1.0618 0.5281-0.39327 0-0.7416-0.14044-1.0506-0.42697-0.10676-0.0955-0.22473-0.17978-0.39889-0.17978l6e-3 0.12359c0.29213 0 0.57867 0.41013 0.57867 1 0 0.60113-0.29215 1-0.57867 1-0.11236 0-0.48316-0.073-0.48316-0.99441 0-0.9326 0.36517-1.0056 0.48316-1.0056l-6e-3 -0.12359c-0.42698 0-0.82586 0.46631-0.82586 1.1236 0 0.67417 0.4045 1.1236 0.82586 1.1236 0.4045 0 0.72474-0.49439 0.72474-1.118 0-0.0787 0-0.3427-0.11799-0.63483 0.36517 0.20786 0.64608 0.23595 0.84834 0.23595 0.42696 0 0.71349-0.17415 0.7472-0.19663l6e-3 6e-3 -2.5169 3.736c-0.0505 0.073-0.0505 0.10112-0.0505 0.11235 0 0.0618 0.0562 0.11236 0.11237 0.11236 0.0561 0 0.0674-0.0224 0.11236-0.0843z"/><path d="m364.62 461.74v-0.0618l-0.024-0.2244-0.0113-0.0562-0.0113-0.0506-0.0113-0.0561-0.0169-0.0505-0.0169-0.045-0.0169-0.0505-0.0169-0.045-0.0224-0.0449-0.0672-0.1179-0.0282-0.0393-0.0282-0.0337-0.0224-0.0337-0.0337-0.0282-0.0564-0.0564-0.0674-0.0448-0.0282-0.0224-0.0337-0.0169-0.0394-0.0169-0.0337-0.0113-0.0337-6e-3 -0.0393-0.0113h-0.0337l-0.0393-6e-3c-0.42137 0-0.82025 0.47192-0.82025 1.1236 0 0.67416 0.40451 1.1292 0.82025 1.1292l6e-3 -0.1236c-0.11236 0-0.47753-0.073-0.47753-1 0-0.93261 0.35955-1.0056 0.47753-1.0056 0.29776 0 0.58428 0.41575 0.58428 1 0 0.60112-0.29213 1.0056-0.58428 1.0056l-6e-3 0.1236c0.41012 0 0.73035-0.50002 0.73035-1.1236z"/></g><g transform="translate(-12.637 .77056)" fill="#0065ff" fill-opacity=".86275"><path d="m367.57 461.71v0.48315c0 0.20226-0.0113 0.26405-0.42136 0.26405h-0.12361v0.17417c0.23035-0.0169 0.52249-0.0169 0.75845-0.0169 0.23595 0 0.53373 0 0.76406 0.0169v-0.17417h-0.11798c-0.41573 0-0.42697-0.0618-0.42697-0.26405v-0.48315h0.5618v-0.17416h-0.5618v-2.5394c0-0.11236 0-0.14607-0.0899-0.14607-0.0506 0-0.0674 0-0.11237 0.0674l-1.7191 2.618h0.1573l1.3652-2.0787v2.0787h-1.5225v0.17416z"/><path d="m370.35 460.66 0.0449-0.0113 0.0393-0.0169 0.045-0.0169 0.0393-0.0224 0.0394-0.0169 0.0393-0.0224 0.0337-0.0224 0.0393-0.0224 0.0337-0.0282 0.0337-0.0224 0.0674-0.0564 0.0282-0.0282 0.0282-0.0337 0.0282-0.0282 0.0282-0.0337 0.0224-0.0337 0.0282-0.0282 0.0224-0.0393 0.0169-0.0337 0.0225-0.0337 0.0169-0.0393 0.0169-0.0337 0.0169-0.0393 0.0226-0.0786 0.0113-0.0337 6e-3 -0.045 0.0113-0.0393v-0.0393l6e-3 -0.0393v-0.0393c0-0.46069-0.49438-0.7753-1.0337-0.7753-0.56181 0-0.98878 0.33709-0.98878 0.76406 0 0.17978 0.1236 0.28653 0.28652 0.28653 0.17417 0 0.28653-0.1236 0.28653-0.28091 0-0.2809-0.26406-0.2809-0.34833-0.2809 0.17417-0.27529 0.54496-0.34833 0.74721-0.34833 0.22472 0 0.53372 0.1236 0.53372 0.62923 0 0.0618-0.0113 0.38765-0.1573 0.63485-0.16855 0.26405-0.35957 0.2809-0.4944 0.28652-0.0449 6e-3 -0.17978 0.0169-0.2191 0.0169-0.045 6e-3 -0.0843 0.0113-0.0843 0.0674 0 0.0618 0.0393 0.0618 0.13483 0.0618h0.2472c0.45506 0 0.66294 0.38202 0.66294 0.92697 0 0.75845-0.38766 0.92138-0.63484 0.92138-0.23597 0-0.65733-0.0955-0.85396-0.42137 0.19663 0.0282 0.37079-0.0955 0.37079-0.30899 0-0.20225-0.15168-0.31461-0.31461-0.31461-0.13483 0-0.31462 0.0787-0.31462 0.32585 0 0.50562 0.52249 0.87642 1.1292 0.87642 0.68541 0 1.1967-0.50563 1.1967-1.0787 0-0.45505-0.35394-0.89327-0.93824-1.0112z"/><path d="m375.36 458.66 6e-3 -6e-3v-6e-3l0.012-0.012v-6e-3h6e-3v-6e-3l6e-3 -6e-3v-6e-3h6e-3v-0.012h6e-3v-0.012l6e-3 -6e-3v-0.03c0-0.0618-0.0506-0.11237-0.10675-0.11237-0.0562 0-0.0843 0.0394-0.1236 0.0787-0.27529 0.37642-0.6517 0.5281-1.0618 0.5281-0.39326 0-0.74159-0.14044-1.045-0.42697-0.10674-0.0955-0.22472-0.17978-0.40451-0.17978l6e-3 0.12359c0.29777 0 0.57868 0.41013 0.57868 1 0 0.60113-0.28653 1-0.57868 1-0.11236 0-0.48314-0.073-0.48314-0.99441 0-0.9326 0.36516-1.0056 0.48314-1.0056l-6e-3 -0.12359c-0.42696 0-0.82585 0.46631-0.82585 1.1236 0 0.67417 0.4045 1.1236 0.82585 1.1236 0.41013 0 0.72474-0.49439 0.72474-1.118 0-0.0787 0-0.3427-0.11236-0.63483 0.35956 0.20786 0.64047 0.23595 0.84272 0.23595 0.42697 0 0.71349-0.17415 0.7472-0.19663l6e-3 6e-3 -2.5169 3.736c-0.0505 0.073-0.0505 0.10112-0.0505 0.11235 0 0.0618 0.0562 0.11236 0.11236 0.11236 0.0562 0 0.0674-0.0224 0.11236-0.0843z"/><path d="m375.87 461.82v-0.1179l-0.012-0.1122-0.0113-0.0561-0.0113-0.0562-0.0113-0.0506-0.0113-0.0561-0.0169-0.0505-0.0169-0.045-0.0169-0.0505-0.0169-0.045-0.0224-0.0449-0.0448-0.0786-0.0225-0.0393-0.0282-0.0393-0.0224-0.0337-0.0282-0.0337-0.0282-0.0282-0.0337-0.0282-0.0282-0.0282-0.0337-0.0224-0.0282-0.0224-0.0337-0.0224-0.0674-0.0338-0.0393-0.0113-0.0337-6e-3 -0.0337-0.0113h-0.0394l-0.0393-6e-3c-0.42137 0-0.82025 0.47192-0.82025 1.1236 0 0.67416 0.40451 1.1292 0.82025 1.1292l6e-3 -0.1236c-0.10674 0-0.47754-0.073-0.47754-1 0-0.93261 0.36517-1.0056 0.47754-1.0056 0.29776 0 0.58427 0.41575 0.58427 1 0 0.60112-0.29213 1.0056-0.58427 1.0056l-6e-3 0.1236c0.41013 0 0.73034-0.50002 0.73034-1.1236z"/></g><g id="content" transform="matrix(1.5 0 0 -1.5 149.5 1292.7)" fill-opacity=".78744" fill-rule="evenodd" stroke="#000" stroke-miterlimit="10.433" ns0:preamble="default_packages.tex" ns0:text="$\\Omega$\n" xml:space="preserve"><path d="m79.731 614.51h-0.11119c-0.02224-0.11119-0.04003-0.21348-0.08006-0.32022-0.02224-0.0712-0.03558-0.10674-0.28909-0.10674h-0.3558c0.05782 0.24906 0.19569 0.45809 0.39583 0.75163 0.20459 0.31132 0.38694 0.6182 0.38694 0.96956 0 0.61376-0.59597 1.1074-1.3476 1.1074-0.76053 0-1.352-0.50257-1.352-1.1074 0-0.35136 0.18235-0.65824 0.39138-0.96956 0.19569-0.29354 0.33801-0.50257 0.39583-0.75163h-0.3558c-0.25796 0-0.2713 0.0356-0.29354 0.10229-0.03558 0.10229-0.05782 0.21793-0.08006 0.32467h-0.11119l0.14677-0.71161h0.70716c0.09785 0 0.11119 0 0.11119 0.0889 0 0.31133-0.13342 0.69827-0.23572 0.98291-0.0934 0.25351-0.21793 0.60486-0.21793 0.93843 0 0.7027 0.48923 1.0051 0.8895 1.0051 0.42696 0 0.8984-0.31578 0.8984-1.0051 0-0.33357-0.12008-0.66713-0.24906-1.0318-0.06671-0.1868-0.20903-0.58263-0.20903-0.88951 0-0.0889 0.01334-0.0889 0.11564-0.0889h0.70271z" fill-opacity=".78744" stroke-width="0"/></g></g><path d="m437.55 609.44 25.718-33.216" fill="none" stroke-opacity=".6087" stroke-width=".47635"/><g transform="matrix(.83118 0 0 .83118 67.6 -23.055)" fill-rule="evenodd" stroke-width="0" ns0:preamble="default_packages.tex" ns0:text="$$\\text{unrepresentable sample 90 \\% 10 \\%}$$\n" xml:space="preserve"><g fill-opacity=".78431"><path d="m233.75 695.96v-0.9l1.44 0.11v0.31c-0.7 0-0.78 0.07-0.78 0.55v3.53l-1.47-0.11v-0.31c0.7 0 0.78-0.07 0.78-0.55v-1.77c0-0.86-0.48-1.54-1.21-1.54-0.83 0-0.87 0.47-0.87 0.98v3.3l-1.47-0.11v-0.31c0.78 0 0.78-0.03 0.78-0.91v-1.49c0-0.77 0-1.68 1.51-1.68 0.56 0 1 0.28 1.29 0.9z"/><path d="m236.48 698.59v-2.67c0-0.44-0.11-0.44-0.77-0.44v-0.31c0.34 0.01 0.85 0.03 1.12 0.03 0.26 0 0.78-0.02 1.12-0.03v0.31c-0.67 0-0.78 0-0.78 0.44v1.83c0 1.04 0.71 1.59 1.35 1.59 0.63 0 0.74-0.53 0.74-1.1v-2.32c0-0.44-0.11-0.44-0.78-0.44v-0.31c0.35 0.01 0.86 0.03 1.12 0.03 0.27 0 0.78-0.02 1.12-0.03v0.31c-0.52 0-0.77 0-0.78 0.3v1.89c0 0.86 0 1.17-0.31 1.52-0.13 0.17-0.46 0.37-1.04 0.37-0.73 0-1.2-0.43-1.48-1.04v1.04l-1.4-0.11v-0.31c0.69 0 0.77-0.07 0.77-0.55z"/><path d="m242.59 698.47v1.09l-1.39-0.11v-0.31c0.7 0 0.78-0.07 0.78-0.55v-2.67c0-0.44-0.11-0.44-0.78-0.44v-0.31c0.39 0.01 0.86 0.03 1.14 0.03 0.4 0 0.87 0 1.26-0.03v0.31h-0.2c-0.74 0-0.76 0.11-0.76 0.47v1.52c0 0.99 0.42 1.87 1.17 1.87 0.07 0 0.09 0 0.11-0.01-0.03-0.01-0.22-0.13-0.22-0.38 0-0.28 0.2-0.43 0.42-0.43 0.18 0 0.43 0.12 0.43 0.44 0 0.31-0.31 0.6-0.74 0.6-0.72 0-1.08-0.66-1.22-1.09z"/><path d="m245.93 697.47 0.01 0.2c0.06 1.48 0.9 1.73 1.24 1.73 1.03 0 1.12-1.34 1.12-1.73h-2.36l-0.01-0.2h2.78c0.22 0 0.25 0 0.25 0.2 0 0.99-0.53 1.95-1.78 1.95-1.16 0-2.08-1.02-2.08-2.27 0-1.33 1.05-2.29 2.2-2.29 1.21 0 1.66 1.1 1.66 1.29 0 0.1-0.08 0.12-0.13 0.12-0.09 0-0.11-0.06-0.13-0.14-0.35-1.02-1.24-1.02-1.34-1.02-0.5 0-0.9 0.3-1.13 0.66-0.3 0.48-0.3 1.14-0.3 1.5z"/><path d="m250.97 698.91v0.65l-1.44-0.11v-0.31c0.71 0 0.78-0.06 0.78-0.49v-4.65c0-0.45-0.11-0.45-0.78-0.45v-0.31c0.34 0.01 0.86 0.03 1.12 0.03 0.27 0 0.78-0.02 1.12-0.03v0.31c-0.66 0-0.77 0-0.77 0.45v1.76l0.14 0.13c-0.14 0.2-0.14 0.21-0.14 0.41v2.22c0.29 0.5 0.77 0.79 1.28 0.79 0.73 0 1.34-0.87 1.34-1.99 0-1.21-0.7-2.04-1.44-2.04-0.39 0-0.77 0.2-1.04 0.61l-0.14-0.13c0.05-0.16 0.47-0.7 1.22-0.7 1.19 0 2.23 0.97 2.23 2.26 0 1.26-0.97 2.24-2.09 2.24-0.77 0-1.19-0.44-1.39-0.65z"/><path d="m256.45 698.47v1.09l-1.38-0.11v-0.31c0.69 0 0.77-0.07 0.77-0.55v-2.67c0-0.44-0.1-0.44-0.77-0.44v-0.31c0.39 0.01 0.85 0.03 1.13 0.03 0.4 0 0.87 0 1.27-0.03v0.31h-0.21c-0.74 0-0.76 0.11-0.76 0.47v1.52c0 0.99 0.42 1.87 1.18 1.87 0.07 0 0.09 0 0.11-0.01-0.03-0.01-0.23-0.13-0.23-0.38 0-0.28 0.21-0.43 0.43-0.43 0.18 0 0.43 0.12 0.43 0.44 0 0.31-0.31 0.6-0.74 0.6-0.73 0-1.09-0.66-1.23-1.09z"/><path d="m259.8 697.47 0.01 0.2c0.06 1.48 0.89 1.73 1.23 1.73 1.03 0 1.13-1.34 1.13-1.73h-2.36l-0.01-0.2h2.78c0.22 0 0.25 0 0.25 0.2 0 0.99-0.54 1.95-1.79 1.95-1.15 0-2.07-1.02-2.07-2.27 0-1.33 1.05-2.29 2.19-2.29 1.22 0 1.67 1.1 1.67 1.29 0 0.1-0.08 0.12-0.13 0.12-0.09 0-0.11-0.06-0.13-0.14-0.35-1.02-1.25-1.02-1.35-1.02-0.5 0-0.89 0.3-1.12 0.66-0.3 0.48-0.3 1.14-0.3 1.5z"/><path d="m265.19 697.1 0.02-0.01h0.03l0.03-0.01h0.03l0.03-0.01 0.16-0.04 0.04-0.02 0.04-0.01 0.05-0.02 0.08-0.04 0.05-0.02 0.04-0.03 0.05-0.02 0.12-0.09 0.04-0.04 0.03-0.04 0.04-0.04 0.06-0.08 0.01-0.03 0.01-0.02 0.01-0.03 0.01-0.02 0.01-0.03 0.01-0.02 0.02-0.06v-0.03l0.01-0.03v-0.03l0.01-0.03v-0.07c0-0.5-0.35-0.9-1.13-0.9-0.84 0-1.2 0.56-1.39 1.41-0.03 0.13-0.04 0.17-0.13 0.17-0.13 0-0.13-0.07-0.13-0.25v-1.31c0-0.17 0-0.24 0.11-0.24 0.05 0 0.06 0.01 0.24 0.2 0.03 0.02 0.03 0.04 0.21 0.23 0.43-0.42 0.88-0.43 1.09-0.43 1.15 0 1.61 0.67 1.61 1.38 0 0.53-0.3 0.83-0.42 0.95-0.33 0.31-0.72 0.39-1.14 0.47-0.56 0.11-1.23 0.24-1.23 0.82 0 0.34 0.26 0.75 1.12 0.75 1.1 0 1.15-0.89 1.17-1.2 0.01-0.09 0.1-0.09 0.12-0.09 0.13 0 0.13 0.05 0.13 0.24v1c0 0.17 0 0.24-0.11 0.24-0.05 0-0.07 0-0.2-0.12-0.03-0.04-0.13-0.13-0.17-0.16-0.38 0.28-0.79 0.28-0.94 0.28-1.21 0-1.59-0.66-1.59-1.22 0-0.35 0.16-0.63 0.43-0.85 0.31-0.25 0.59-0.31 1.31-0.45z"/><path d="m268.15 697.47 0.01 0.2c0.06 1.48 0.9 1.73 1.24 1.73 1.03 0 1.13-1.34 1.13-1.73h-2.37l-0.01-0.2h2.78c0.22 0 0.25 0 0.25 0.2 0 0.99-0.53 1.95-1.78 1.95-1.16 0-2.07-1.02-2.07-2.27 0-1.33 1.04-2.29 2.19-2.29 1.22 0 1.66 1.1 1.66 1.29 0 0.1-0.07 0.12-0.13 0.12-0.09 0-0.1-0.06-0.13-0.14-0.34-1.02-1.24-1.02-1.34-1.02-0.5 0-0.9 0.3-1.13 0.66-0.3 0.48-0.3 1.14-0.3 1.5z"/><path d="m272.57 698.59v-2.67c0-0.44-0.11-0.44-0.78-0.44v-0.31c0.35 0.01 0.86 0.03 1.13 0.03 0.26 0 0.78-0.02 1.12-0.03v0.31c-0.67 0-0.78 0-0.78 0.44v1.83c0 1.04 0.71 1.59 1.35 1.59 0.62 0 0.73-0.53 0.73-1.1v-2.32c0-0.44-0.11-0.44-0.77-0.44v-0.31c0.34 0.01 0.85 0.03 1.12 0.03 0.26 0 0.78-0.02 1.12-0.03v0.31c-0.52 0-0.77 0-0.78 0.3v1.89c0 0.86 0 1.17-0.31 1.52-0.14 0.17-0.47 0.37-1.05 0.37-0.72 0-1.19-0.43-1.47-1.04v1.04l-1.41-0.11v-0.31c0.7 0 0.78-0.07 0.78-0.55z"/><path d="m278.45 699.14h1.43v0.31h-1.43v1.83h-0.24c-0.01-0.81-0.31-1.88-1.29-1.92v-0.22h0.85v-2.74c0-1.22 0.92-1.34 1.28-1.34 0.71 0 0.99 0.71 0.99 1.34v0.57h-0.25v-0.55c0-0.73-0.3-1.11-0.67-1.11-0.67 0-0.67 0.9-0.67 1.07z"/><path d="m283.92 695.92 0.01-0.03 0.01-0.04v-0.04l0.01-0.03 0.02-0.08 0.01-0.03 0.02-0.04 0.01-0.04 0.04-0.06 0.02-0.04 0.08-0.12 0.03-0.03 0.02-0.03 0.03-0.02 0.03-0.03 0.06-0.04 0.04-0.02 0.03-0.02 0.03-0.01 0.04-0.02 0.16-0.04h0.08c0.21 0 0.82 0.14 0.82 0.94v0.56h-0.25v-0.56c0-0.57-0.25-0.63-0.36-0.63-0.33 0-0.37 0.44-0.37 0.49v1.99c0 0.42 0 0.81-0.36 1.17-0.38 0.39-0.88 0.55-1.36 0.55-0.82 0-1.51-0.47-1.51-1.12 0-0.3 0.2-0.47 0.46-0.47 0.28 0 0.46 0.2 0.46 0.46 0 0.12-0.05 0.44-0.51 0.46 0.27 0.34 0.76 0.45 1.08 0.45 0.49 0 1.06-0.39 1.06-1.27v-1.57c0-0.94-0.72-1.28-1.17-1.28-0.49 0-0.9 0.35-0.9 0.84 0 0.55 0.42 1.37 2.07 1.43v0.21c-0.51-0.03-1.21-0.06-1.84-0.35-0.75-0.34-1-0.86-1-1.3 0-0.8 0.97-1.05 1.6-1.05 0.66 0 1.12 0.4 1.3 0.86z"/><path d="m287.3 698.91v3.15l-1.44-0.1v-0.31c0.7 0 0.78-0.07 0.78-0.56v-5.92h0.25c0.01 0.01 0.09 0.15 0.36 0.62 0.15-0.23 0.57-0.73 1.31-0.73l-0.04 0.22c-0.45 0-0.81 0.24-1.05 0.61-0.14 0.2-0.14 0.23-0.14 0.41v2.05c0 0.19 0 0.2 0.11 0.36 0.39 0.55 0.94 0.63 1.18 0.63 0.45 0 0.8-0.26 1.04-0.63 0.26-0.41 0.29-0.98 0.29-1.38 0-0.37-0.02-0.97-0.31-1.42-0.21-0.3-0.58-0.63-1.12-0.63l0.04-0.22c1.18 0 2.22 0.97 2.22 2.26 0 1.26-0.98 2.24-2.11 2.24-0.78 0-1.21-0.47-1.37-0.65z"/><path d="m292.89 702.06-1.44-0.1v-0.31c0.7 0 0.78-0.07 0.78-0.56v-5.17c0-0.44-0.11-0.44-0.78-0.44v-0.31c0.33 0.01 0.86 0.03 1.11 0.03s0.74-0.02 1.1-0.03v0.31c-0.66 0-0.77 0-0.77 0.44z"/><path d="m294.99 697.47 0.02 0.2c0.06 1.48 0.89 1.73 1.23 1.73 1.03 0 1.13-1.34 1.13-1.73h-2.36l-0.02-0.2h2.79c0.22 0 0.25 0 0.25 0.2 0 0.99-0.54 1.95-1.79 1.95-1.16 0-2.07-1.02-2.07-2.27 0-1.33 1.04-2.29 2.19-2.29 1.22 0 1.67 1.1 1.67 1.29 0 0.1-0.08 0.12-0.13 0.12-0.09 0-0.11-0.06-0.13-0.14-0.35-1.02-1.25-1.02-1.35-1.02-0.5 0-0.9 0.3-1.13 0.66-0.3 0.48-0.3 1.14-0.3 1.5z"/><path d="m303.72 697.1 0.02-0.01h0.03l0.02-0.01h0.04l0.03-0.01 0.04-0.01 0.03-0.01 0.08-0.02 0.05-0.02 0.04-0.01 0.04-0.02 0.05-0.02 0.08-0.04 0.05-0.03 0.04-0.02 0.04-0.03 0.05-0.03 0.11-0.11 0.09-0.12 0.02-0.03 0.01-0.02 0.01-0.03 0.01-0.02 0.01-0.03 0.01-0.02 0.01-0.03v-0.03l0.02-0.06v-0.09l0.01-0.04c0-0.5-0.35-0.9-1.13-0.9-0.84 0-1.2 0.56-1.39 1.41-0.03 0.13-0.04 0.17-0.14 0.17-0.13 0-0.13-0.07-0.13-0.25v-1.31c0-0.17 0-0.24 0.11-0.24 0.05 0 0.06 0.01 0.25 0.2 0.02 0.02 0.02 0.04 0.2 0.23 0.44-0.42 0.89-0.43 1.1-0.43 1.14 0 1.6 0.67 1.6 1.38 0 0.53-0.3 0.83-0.42 0.95-0.33 0.31-0.71 0.39-1.13 0.47-0.56 0.11-1.23 0.24-1.23 0.82 0 0.34 0.26 0.75 1.12 0.75 1.1 0 1.14-0.89 1.16-1.2 0.01-0.09 0.1-0.09 0.12-0.09 0.13 0 0.13 0.05 0.13 0.24v1c0 0.17 0 0.24-0.11 0.24-0.05 0-0.07 0-0.2-0.12-0.03-0.04-0.12-0.13-0.16-0.16-0.38 0.28-0.79 0.28-0.94 0.28-1.22 0-1.6-0.66-1.6-1.22 0-0.35 0.16-0.63 0.43-0.85 0.32-0.25 0.6-0.31 1.32-0.45z"/><path d="m308.89 695.92 0.01-0.03v-0.04l0.01-0.04 0.01-0.03 0.02-0.08 0.01-0.03 0.02-0.04 0.01-0.04 0.02-0.03 0.01-0.03 0.02-0.04 0.04-0.06 0.03-0.03 0.02-0.03 0.03-0.03 0.02-0.03 0.03-0.02 0.03-0.03 0.09-0.06 0.04-0.02 0.03-0.01 0.04-0.02 0.04-0.01 0.03-0.01 0.04-0.01 0.05-0.01h0.08c0.21 0 0.82 0.14 0.82 0.94v0.56h-0.25v-0.56c0-0.57-0.25-0.63-0.36-0.63-0.33 0-0.37 0.44-0.37 0.49v1.99c0 0.42 0 0.81-0.36 1.17-0.39 0.39-0.88 0.55-1.36 0.55-0.82 0-1.51-0.47-1.51-1.12 0-0.3 0.2-0.47 0.46-0.47 0.28 0 0.46 0.2 0.46 0.46 0 0.12-0.05 0.44-0.51 0.46 0.27 0.34 0.76 0.45 1.08 0.45 0.49 0 1.05-0.39 1.05-1.27v-1.57c0-0.94-0.71-1.28-1.16-1.28-0.49 0-0.9 0.35-0.9 0.84 0 0.55 0.42 1.37 2.06 1.43v0.21c-0.5-0.03-1.2-0.06-1.83-0.35-0.75-0.34-1-0.86-1-1.3 0-0.8 0.97-1.05 1.6-1.05 0.65 0 1.11 0.4 1.3 0.86z"/><path d="m311.65 698.59v-2.67c0-0.44-0.11-0.44-0.78-0.44v-0.31c0.35 0.01 0.86 0.03 1.13 0.03 0.26 0 0.78-0.02 1.12-0.03v0.31c-0.67 0-0.78 0-0.78 0.44v1.83c0 1.04 0.71 1.59 1.34 1.59s0.74-0.53 0.74-1.1v-2.32c0-0.44-0.11-0.44-0.78-0.44v-0.31c0.35 0.01 0.86 0.03 1.13 0.03 0.26 0 0.78-0.02 1.12-0.03v0.31c-0.67 0-0.78 0-0.78 0.44v1.83c0 1.04 0.71 1.59 1.35 1.59 0.63 0 0.74-0.53 0.74-1.1v-2.32c0-0.44-0.11-0.44-0.78-0.44v-0.31c0.35 0.01 0.85 0.03 1.12 0.03 0.26 0 0.78-0.02 1.12-0.03v0.31c-0.52 0-0.77 0-0.78 0.3v1.89c0 0.86 0 1.17-0.31 1.52-0.14 0.17-0.46 0.37-1.04 0.37-0.84 0-1.28-0.59-1.45-0.97-0.14 0.86-0.88 0.97-1.32 0.97-0.73 0-1.2-0.43-1.48-1.04v1.04l-1.41-0.11v-0.31c0.7 0 0.78-0.07 0.78-0.55z"/><path d="m320.57 698.91v0.65l-1.43-0.11v-0.31c0.7 0 0.77-0.06 0.77-0.49v-4.65c0-0.45-0.11-0.45-0.77-0.45v-0.31c0.33 0.01 0.85 0.03 1.11 0.03 0.27 0 0.78-0.02 1.13-0.03v0.31c-0.67 0-0.78 0-0.78 0.45v1.76l0.14 0.13c-0.14 0.2-0.14 0.21-0.14 0.41v2.22c0.29 0.5 0.78 0.79 1.29 0.79 0.72 0 1.33-0.87 1.33-1.99 0-1.21-0.7-2.04-1.43-2.04-0.4 0-0.78 0.2-1.05 0.61l-0.14-0.13c0.05-0.16 0.47-0.7 1.23-0.7 1.18 0 2.22 0.97 2.22 2.26 0 1.26-0.97 2.24-2.08 2.24-0.78 0-1.2-0.44-1.4-0.65z"/><path d="m326.16 702.06-1.44-0.1v-0.31c0.7 0 0.78-0.07 0.78-0.56v-5.17c0-0.44-0.11-0.44-0.78-0.44v-0.31c0.33 0.01 0.86 0.03 1.11 0.03s0.74-0.02 1.1-0.03v0.31c-0.66 0-0.77 0-0.77 0.44z"/><path d="m328.27 697.47v0.2c0.06 1.48 0.9 1.73 1.24 1.73 1.03 0 1.13-1.34 1.13-1.73h-2.37v-0.2h2.78c0.22 0 0.25 0 0.25 0.2 0 0.99-0.54 1.95-1.79 1.95-1.15 0-2.07-1.02-2.07-2.27 0-1.33 1.04-2.29 2.19-2.29 1.22 0 1.67 1.1 1.67 1.29 0 0.1-0.08 0.12-0.13 0.12-0.09 0-0.11-0.06-0.13-0.14-0.35-1.02-1.25-1.02-1.35-1.02-0.5 0-0.9 0.3-1.12 0.66-0.3 0.48-0.3 1.14-0.3 1.5z"/></g><g fill="#f00" fill-opacity=".81176"><path d="m234.3 686.7v-0.32c0-2.32-1.03-2.78-1.61-2.78-0.17 0-0.71 0.02-0.98 0.36 0.44 0 0.52 0.29 0.52 0.45 0 0.31-0.24 0.46-0.46 0.46-0.16 0-0.46-0.09-0.46-0.48 0-0.66 0.54-1.07 1.39-1.07 1.28 0 2.5 1.35 2.5 3.49 0 2.67-1.15 3.35-2.03 3.35-0.55 0-1.04-0.18-1.47-0.63-0.41-0.45-0.64-0.86-0.64-1.61 0-1.24 0.88-2.21 2-2.21l0.01 0.22c-0.16 0-0.62 0-0.93 0.63-0.18 0.37-0.18 0.86-0.18 1.35 0 0.54 0 1 0.21 1.37 0.27 0.5 0.65 0.63 1 0.63 0.46 0 0.78-0.34 0.95-0.79 0.12-0.32 0.16-0.94 0.16-1.4 0-0.82-0.34-1.79-1.21-1.79l-0.01-0.22c0.6 0 1.01 0.41 1.24 0.99z"/><path d="m240.21 686.72v0.45l-0.01 0.14-0.02 0.3-0.02 0.15-0.02 0.14-0.02 0.15-0.03 0.14-0.03 0.15-0.08 0.28-0.05 0.14-0.12 0.28c-0.46 0.96-1.27 1.12-1.69 1.12-0.6 0-1.33-0.26-1.74-1.19-0.32-0.68-0.37-1.46-0.37-2.25 0-0.75 0.04-1.64 0.45-2.39 0.43-0.81 1.16-1.01 1.65-1.01v0.22c-0.39 0-0.98 0.25-1.16 1.2-0.11 0.6-0.11 1.51-0.11 2.1 0 0.63 0 1.29 0.08 1.83 0.19 1.18 0.94 1.27 1.19 1.27 0.33 0 0.99-0.18 1.17-1.16 0.1-0.56 0.1-1.32 0.1-1.94 0-0.75 0-1.42-0.11-2.06-0.14-0.94-0.71-1.24-1.16-1.24v-0.22c0.54 0 1.29 0.21 1.73 1.15 0.32 0.69 0.37 1.46 0.37 2.25z"/><path d="m247.85 690.61 0.01 0.01v0.01l0.02 0.02v0.01h0.01v0.01l0.01 0.01v0.01h0.01v0.02h0.01v0.02l0.01 0.01v0.05c0 0.11-0.09 0.2-0.2 0.2-0.09 0-0.15-0.07-0.21-0.14-0.49-0.67-1.16-0.94-1.89-0.94-0.7 0-1.32 0.25-1.86 0.76-0.19 0.17-0.4 0.32-0.72 0.32l0.01-0.22c0.53 0 1.04-0.73 1.04-1.78 0-1.07-0.52-1.78-1.04-1.78-0.2 0-0.86 0.13-0.86 1.77 0 1.66 0.65 1.79 0.86 1.79l-0.01 0.22c-0.76 0-1.47-0.83-1.47-2 0-1.2 0.72-2 1.47-2 0.73 0 1.29 0.88 1.29 1.99 0 0.14 0 0.61-0.2 1.13 0.64-0.37 1.14-0.42 1.5-0.42 0.76 0 1.27 0.31 1.33 0.35l0.01-0.01-4.48-6.65c-0.09-0.13-0.09-0.18-0.09-0.2 0-0.11 0.1-0.2 0.2-0.2s0.12 0.04 0.2 0.15z"/><path d="m248.76 684.98v0.21l-0.02 0.2-0.04 0.2-0.02 0.09-0.02 0.1-0.03 0.09-0.03 0.08-0.03 0.09-0.03 0.08-0.04 0.08-0.12 0.21-0.05 0.07-0.04 0.06-0.05 0.06-0.05 0.05-0.06 0.05-0.05 0.05-0.06 0.04-0.05 0.04-0.06 0.04-0.12 0.06-0.07 0.02-0.06 0.01-0.06 0.02h-0.07l-0.06 0.01c-0.76 0-1.47-0.84-1.47-2 0-1.2 0.72-2.01 1.47-2.01l0.01 0.22c-0.2 0-0.86 0.13-0.86 1.78 0 1.66 0.65 1.79 0.86 1.79 0.52 0 1.03-0.74 1.03-1.78 0-1.07-0.52-1.79-1.03-1.79l-0.01-0.22c0.72 0 1.29 0.89 1.29 2z"/></g><g fill="#0065ff" fill-opacity=".86275"><path d="m254.81 689.9v0.17l-0.01 0.01v0.02l-0.01 0.01v0.01h-0.01l-0.02 0.02h-0.02v0.01h-0.08l-0.01 0.01h-0.06c-0.62-0.64-1.5-0.64-1.82-0.64v-0.31c0.2 0 0.79 0 1.31 0.26v-5.14c0-0.36-0.03-0.48-0.93-0.48h-0.32v-0.31c0.35 0.03 1.22 0.03 1.62 0.03 0.39 0 1.26 0 1.61-0.03v0.31h-0.32c-0.9 0-0.93 0.11-0.93 0.48z"/><path d="m261.45 686.72v0.3l-0.01 0.15v0.14l-0.02 0.3-0.02 0.15-0.02 0.14-0.02 0.15-0.03 0.14-0.03 0.15-0.08 0.28-0.05 0.14-0.12 0.28c-0.46 0.96-1.27 1.12-1.69 1.12-0.6 0-1.33-0.26-1.74-1.19-0.32-0.68-0.37-1.46-0.37-2.25 0-0.75 0.04-1.64 0.45-2.39 0.43-0.81 1.16-1.01 1.65-1.01v0.22c-0.39 0-0.98 0.25-1.16 1.2-0.11 0.6-0.11 1.51-0.11 2.1 0 0.63 0 1.29 0.08 1.83 0.19 1.18 0.94 1.27 1.19 1.27 0.33 0 0.98-0.18 1.17-1.16 0.1-0.56 0.1-1.32 0.1-1.94 0-0.75 0-1.42-0.11-2.06-0.15-0.94-0.71-1.24-1.16-1.24v-0.22c0.54 0 1.29 0.21 1.73 1.15 0.32 0.69 0.37 1.46 0.37 2.25z"/><path d="m269.16 690.68 0.01 0.01v0.01l0.02 0.02v0.01h0.01v0.01l0.01 0.01v0.01h0.01v0.02h0.01v0.02l0.01 0.01v0.05c0 0.11-0.09 0.2-0.2 0.2-0.1 0-0.15-0.07-0.2-0.14-0.5-0.67-1.17-0.94-1.9-0.94-0.7 0-1.32 0.25-1.87 0.76-0.18 0.17-0.39 0.32-0.71 0.32l0.01-0.22c0.53 0 1.03-0.73 1.03-1.78 0-1.07-0.51-1.78-1.03-1.78-0.2 0-0.86 0.13-0.86 1.77 0 1.66 0.65 1.79 0.86 1.79l-0.01 0.22c-0.76 0-1.47-0.83-1.47-2 0-1.2 0.72-2 1.47-2 0.73 0 1.29 0.88 1.29 1.99 0 0.14 0 0.61-0.21 1.13 0.65-0.37 1.15-0.42 1.51-0.42 0.76 0 1.27 0.31 1.33 0.35l0.01-0.01-4.48-6.65c-0.09-0.13-0.09-0.18-0.09-0.2 0-0.11 0.1-0.2 0.2-0.2s0.12 0.04 0.2 0.15z"/><path d="m270.07 685.05v0.11l-0.01 0.1v0.1l-0.02 0.1-0.01 0.1-0.02 0.1-0.02 0.09-0.02 0.1-0.03 0.09-0.03 0.08-0.03 0.09-0.03 0.08-0.04 0.08-0.12 0.21-0.05 0.07-0.04 0.06-0.05 0.06-0.05 0.05-0.06 0.05-0.05 0.05-0.06 0.04-0.05 0.04-0.06 0.04-0.12 0.06-0.07 0.02-0.06 0.01-0.06 0.02h-0.07l-0.06 0.01c-0.76 0-1.47-0.84-1.47-2 0-1.2 0.72-2.01 1.47-2.01l0.01 0.22c-0.2 0-0.86 0.13-0.86 1.78 0 1.66 0.64 1.79 0.86 1.79 0.52 0 1.03-0.74 1.03-1.78 0-1.07-0.52-1.79-1.03-1.79l-0.01-0.22c0.72 0 1.29 0.89 1.29 2z"/></g></g><path d="m337.48 595.15-25.949-33.218" fill="none" stroke-opacity=".6087" stroke-width=".48368"/></g></g>
</svg>